<?xml version="1.0" encoding="UTF-8"?>
<svg width="700" height="700" version="1.1" viewBox="0 0 185.21 185.21" xmlns="http://www.w3.org/2000/svg" xmlns:cc="http://creativecommons.org/ns#" xmlns:dc="http://purl.org/dc/elements/1.1/" xmlns:rdf="http://www.w3.org/1999/02/22-rdf-syntax-ns#">
<metadata>
<rdf:RDF>
<cc:Work rdf:about="">
<dc:format>image/svg+xml</dc:format>
<dc:type rdf:resource="http://purl.org/dc/dcmitype/StillImage"/>
<dc:title/>
</cc:Work>
</rdf:RDF>
</metadata>
<rect transform="rotate(45)" x="66.495" y="-64.467" width="128.93" height="128.93" fill="none" stroke="#fff" stroke-opacity=".8" stroke-width="3.156"/>
<g transform="scale(.94698 1.056)" fill="#fff" stroke-width=".26458" aria-label="A | E">
<path d="m79.804 100.5h-13.768v-1.6541q1.8172-0.11648 3.0053-0.46594 1.2114-0.34945 1.2114-0.86198 0-0.20967-0.04659-0.51253-0.04659-0.30286-0.13978-0.53583l-2.749-7.4084h-11.579q-0.65231 1.6308-1.0717 2.8422-0.39605 1.2114-0.7222 2.2365-0.30286 1.0018-0.41934 1.6308-0.11648 0.62902-0.11648 1.0251 0 0.93188 1.4677 1.4444t3.3082 0.60572v1.6541h-12.441v-1.6541q0.60572-0.04659 1.5143-0.25627 0.90858-0.23297 1.491-0.60572 0.93188-0.62902 1.4444-1.3046 0.51253-0.69891 1.0018-1.9103 2.4928-6.2203 5.4981-13.978 3.0053-7.7579 5.3583-13.815h1.8638l11.019 28.515q0.34945 0.90858 0.79209 1.4677t1.2347 1.095q0.53583 0.32616 1.3978 0.55912 0.86198 0.20967 1.4444 0.23297zm-13.326-13.512-5.0088-12.813-4.9156 12.813z"/>
<path d="m100.75 110.37h-2.9587v-45.359h2.9587z"/>
<path d="m149.83 90.758-0.62902 9.7381h-27.444v-1.6541q0.69891-0.04659 1.8638-0.18638 1.1648-0.16308 1.5143-0.32616 0.7455-0.34945 1.0251-0.90858 0.30286-0.55912 0.30286-1.4211v-23.763q0-0.7688-0.25627-1.3512-0.25626-0.60572-1.0716-0.97847-0.62902-0.30286-1.7007-0.53583-1.0484-0.23297-1.6774-0.27956v-1.6541h25.58v7.9675h-1.7473q-0.46594-1.7706-2.0268-3.7508-1.5376-2.0035-2.9354-2.1899-0.7222-0.09319-1.724-0.13978-1.0018-0.04659-2.2831-0.04659h-5.1952v13.139h3.7275q1.7939 0 2.6092-0.32616 0.83869-0.34945 1.4677-1.1415 0.51253-0.67561 0.86198-1.7939 0.37275-1.1415 0.48924-2.1433h1.7473v12.93h-1.7473q-0.0932-1.1182-0.51253-2.353-0.39605-1.258-0.83869-1.8172-0.72221-0.90858-1.6541-1.1881-0.90858-0.27956-2.4229-0.27956h-3.7275v9.9245q0 1.491 0.20968 2.353 0.20967 0.86198 0.81539 1.3046 0.60572 0.44264 1.6541 0.58242 1.0484 0.11648 2.982 0.11648 0.76879 0 2.0268 0t2.12-0.09319q0.88528-0.09319 1.8172-0.32616 0.95517-0.25626 1.3512-0.67561 1.0717-1.1182 2.2365-3.378 1.1882-2.2831 1.5143-3.3548z"/>
</g>
</svg>
