<svg width="700" height="700" viewBox="0 0 185.21 185.21" xmlns="http://www.w3.org/2000/svg"><path fill="none" stroke="#fff" stroke-opacity=".8" stroke-width="3.156" d="m92.604 1.434 91.167 91.167-91.167 91.168L1.437 92.6z"/><g fill="#fff" stroke-width=".265" aria-label="A | E"><path d="M75.573 106.128H62.535v-1.747q1.72-.123 2.846-.492 1.147-.369 1.147-.91 0-.221-.044-.541-.044-.32-.133-.566l-2.603-7.823H52.783q-.618 1.722-1.015 3.001-.375 1.28-.684 2.362-.287 1.058-.397 1.722-.11.664-.11 1.082 0 .984 1.39 1.526t3.133.64v1.746H43.318v-1.747q.574-.049 1.434-.27.86-.246 1.412-.64.883-.664 1.368-1.378.485-.738.949-2.017 2.36-6.569 5.206-14.76 2.846-8.193 5.074-14.59h1.765l10.435 30.113q.331.959.75 1.55t1.17 1.156q.507.344 1.323.59.816.222 1.368.246zm-12.62-14.269L58.21 78.33l-4.655 13.53zM95.408 116.55h-2.802V68.653h2.802zM141.886 95.84l-.596 10.284h-25.989v-1.747q.662-.049 1.765-.197 1.103-.172 1.434-.344.706-.37.971-.96.287-.59.287-1.5V76.282q0-.812-.243-1.427-.242-.64-1.014-1.033-.596-.32-1.611-.566-.993-.246-1.588-.295v-1.747h24.223v8.414h-1.654q-.442-1.87-1.92-3.961-1.456-2.116-2.78-2.313-.683-.098-1.632-.147-.949-.05-2.162-.05h-4.92v13.875h3.53q1.699 0 2.47-.344.795-.369 1.39-1.205.486-.714.817-1.895.353-1.205.463-2.263h1.655v13.654h-1.655q-.088-1.18-.485-2.485-.375-1.328-.794-1.919-.684-.96-1.567-1.254-.86-.296-2.294-.296h-3.53v10.48q0 1.575.199 2.485.198.91.772 1.378.573.467 1.566.615.993.123 2.824.123h1.92q1.191 0 2.007-.098.838-.099 1.72-.345.905-.27 1.28-.713 1.015-1.181 2.118-3.567 1.125-2.411 1.434-3.543z"/></g></svg>