<svg width="411.893" height="468.737" viewBox="0 0 108.98 124.02" xmlns="http://www.w3.org/2000/svg"><path d="M53.298 122.947a19.142 19.142 0 0 0-2.249-1.869c-2.596-1.773-4.224-4.01-4.23-5.814-.005-1.145-.347-1.046-1.183.34-.43.714-.869 1.298-.975 1.298-.4 0-1.83-3.372-2.113-4.983l-.295-1.675-.655 1.098c-.629 1.055-.674 1.08-1.158.642-.726-.656-1.717-2.898-2.097-4.739l-.328-1.587-.546 1.124c-.301.619-.628 1.125-.727 1.125-.246 0-1.303-2.498-1.308-3.092-.002-.264-.107-.643-.233-.843-.145-.228-.302.641-.423 2.336l-.193 2.7-.654-.165c-.82-.206-2.441-1.226-3.077-1.937-.266-.298-.757-1.214-1.091-2.037-.582-1.432-.616-1.464-.787-.75-.687 2.864-1.304 4.846-1.51 4.846-.133 0-.709-.723-1.28-1.607-1.059-1.638-1.776-4.1-1.923-6.595l-.07-1.19-1.153 1.915c-.634 1.054-1.257 1.852-1.385 1.773-.34-.21-1.237-3.455-1.423-5.144-.088-.8-.04-2.52.109-3.82.147-1.301.214-2.42.148-2.487-.067-.066-.587.188-1.158.566l-1.036.686-.162-.581c-.089-.32-.236-1.659-.328-2.976-.193-2.782.177-5.34 1.106-7.647.349-.866.604-1.605.567-1.641-.036-.037-.811.404-1.72.979-.91.575-1.693 1.046-1.738 1.046-.152 0 .136-2.755.506-4.84.223-1.25.84-3.093 1.57-4.686.661-1.443 1.203-2.784 1.203-2.979 0-.22-.6-.478-1.582-.68-6.094-1.26-12.388-4.611-15.13-8.058-2.863-3.602-3.422-8.045-1.318-10.476 1.37-1.583 17.789-10.103 24.512-12.72 5.04-1.961 4.572-1.53 5.466-5.038 1.845-7.234 4.22-13.292 8.913-22.739 2.776-5.587 2.841-5.688 4.274-6.642C46.21 2.203 49.192.975 51.813.35c3.314-.792 7.882-.21 12.171 1.552 4.12 1.692 7.446 4.124 13.918 10.174 3.878 3.625 3.98 3.698 4.542 3.27.317-.242 1.43-1.146 2.474-2.01 1.521-1.26 1.985-1.517 2.337-1.299.89.552 2.429 2.92 4.428 6.812 2.367 4.608 3.714 6.702 5.316 8.259 1.272 1.236 1.163 1.425-.813 1.425-2.727 0-5.62-2.001-7.893-5.458-.61-.927-1.18-1.686-1.268-1.686-.087 0-1.401 1.368-2.92 3.04s-2.88 3.038-3.026 3.033c-.146-.004-1.574-1-3.175-2.212s-2.953-2.168-3.004-2.123c-.052.044.333 1.368.854 2.942a148.694 148.694 0 0 1 1.883 6.29c.514 1.886 1.022 3.514 1.13 3.618.107.104 1.445.658 2.973 1.231 3.096 1.162 7.388 3.086 11.774 5.281 4.409 2.205 12.586 6.667 13.59 7.413 1.244.927 1.877 2.465 1.877 4.56-.001 4.269-3.284 8.484-8.903 11.432-2.472 1.297-7.155 2.958-9.207 3.266-1.168.175-1.225.222-1.064.88.093.382.629 1.706 1.19 2.943 1.156 2.543 1.484 3.678 1.723 5.953.091.873.218 1.975.28 2.448.064.473.06.86-.005.86-.066 0-.865-.471-1.775-1.047s-1.684-1.016-1.721-.979c-.037.037.23.802.593 1.7.971 2.405 1.254 4.34 1.092 7.47-.196 3.781-.232 3.853-1.535 2.991-.572-.378-1.094-.634-1.16-.568-.066.067.011 1.235.172 2.597.344 2.906.036 5.779-.836 7.813l-.558 1.303-1.242-1.975-1.242-1.975-.152 1.852c-.083 1.019-.35 2.523-.593 3.342-.43 1.453-1.919 3.94-2.467 4.123-.15.05-.608-1.167-1.015-2.704l-.74-2.795-.605 1.487c-.333.818-.822 1.731-1.088 2.028-.634.71-2.256 1.732-3.072 1.937-.647.162-.648.16-.84-2.546-.124-1.756-.275-2.577-.428-2.335-.13.205-.238.642-.24.971-.004.666-1.017 2.974-1.304 2.974-.101 0-.427-.503-.725-1.118l-.542-1.118-.446 2.008c-.407 1.828-1.54 4.137-2.243 4.572-.158.097-.534-.32-.863-.961l-.583-1.134-.43 1.985c-.39 1.802-1.705 4.762-2.115 4.762-.092 0-.518-.601-.947-1.336-.857-1.466-.863-1.463-1.452.845-.401 1.572-1.43 2.806-3.794 4.555-1.04.77-2.247 1.777-2.683 2.24-.437.462-.853.83-.927.818-.073-.012-.609-.497-1.191-1.077zm3.454-4.31c1.8-1.836 3.175-4.326 3.952-7.159.24-.873.487-1.745.55-1.939.076-.235.582.05 1.534.863 1.095.935 1.484 1.137 1.696.88.38-.46 1.287-3.258 1.52-4.687l.191-1.18.528.65c.29.358.698.889.906 1.18.375.523.384.523.763.016.696-.931 1.42-3.26 1.768-5.688l.343-2.391.923 1.176c.507.647 1.032 1.145 1.167 1.106.479-.139 2.265-4.043 2.792-6.103.312-1.22.535-2.95.535-4.153v-2.062l-1.39.646c-1.068.498-1.831.648-3.307.65-1.71.001-1.918.057-1.918.508 0 .98-1.028 3.794-1.615 4.418-.326.348-.86.632-1.186.632-.326 0-1.467-.67-2.534-1.488-3.678-2.82-7.202-3.844-11.396-3.31-2.74.349-4.504 1.104-7.176 3.073-1.314.969-2.613 1.725-2.961 1.725-.923 0-1.883-1.454-2.41-3.65l-.457-1.906-1.867-.003c-1.421-.002-2.2-.157-3.256-.65l-1.39-.646v2.062c0 2.674.755 5.584 2.138 8.242.603 1.16 1.173 2.103 1.265 2.097.093-.006.586-.542 1.095-1.193l.927-1.184.299 2.054c.472 3.238 1.544 6.43 2.153 6.413.106-.003.534-.486.95-1.074.415-.588.795-1.029.843-.98.048.048.265.935.48 1.97.216 1.036.649 2.384.96 2.995.638 1.25.486 1.286 2.579-.63.47-.431.892-.733.937-.67.045.063.348 1.067.674 2.231.326 1.164.976 2.89 1.444 3.836.986 1.992 3.833 5.028 4.714 5.028.346 0 1.214-.662 2.237-1.705zm-24.129-16.682c-.197-1.892-.593-4.154-.878-5.027-.793-2.43-1.154-5.035-.96-6.93l.174-1.7-1.157-1.125c-1.916-1.862-2.611-4.808-2.046-8.672.357-2.446 1.37-5.886 2.207-7.504.452-.873.552-1.568.569-3.982.019-2.74.074-3.033.876-4.663.587-1.192.856-2.119.856-2.949 0-1.397-1.203-5.444-1.67-5.617-.173-.064-.897-.147-1.609-.184l-1.295-.067-.376 1.852c-.666 3.278-1.897 6.483-4.825 12.568-2.682 5.572-4.415 9.95-4.197 10.603.168.505 2.543-1.85 3.435-3.404.476-.831 1.469-2.761 2.206-4.289 2.198-4.555 3.092-6.094 4.287-7.379l1.135-1.22-1.022 2.91c-.563 1.601-2.24 5.65-3.728 8.996-3.113 7.001-4.422 10.68-4.76 13.377-.387 3.078-.103 3.24 1.491.844 1.67-2.507 3.346-5.865 4.853-9.722 1.324-3.388 1.586-3.802 1.4-2.215-.244 2.098-1.156 5.075-2.663 8.697-.818 1.964-1.714 4.405-1.991 5.424-.537 1.974-.96 7.818-.563 7.786.13-.01.989-1.568 1.91-3.462.922-1.894 1.73-3.388 1.798-3.32s-.002 1.116-.153 2.33c-.153 1.215-.277 3.333-.277 4.707 0 2.683.465 6.034.788 5.673.108-.121.518-1.524.91-3.117.731-2.969 1.645-5.438 2.014-5.438.114 0 .291.625.395 1.39.23 1.701 1.31 5.504 1.884 6.639.413.815 1.185 1.831 1.29 1.696.029-.037-.11-1.615-.307-3.506zm44.78 1.497c.452-.913 1.086-2.873 1.408-4.357.871-4.012.873-4.015 1.656-1.885.37 1.008.94 2.905 1.267 4.214.832 3.337.809 3.286 1.125 2.514.428-1.045.57-7.296.224-9.894-.17-1.286-.254-2.394-.185-2.463.07-.07.939 1.506 1.932 3.502l1.806 3.628.078-2.344c.102-3.093-.478-5.88-1.974-9.495-1.987-4.799-2.988-7.878-3.146-9.676l-.15-1.7L83 79.2c1.822 4.343 3.67 7.962 4.966 9.723 1.468 1.994 1.702 1.663 1.169-1.654-.42-2.608-1.812-6.507-4.354-12.19-2.538-5.674-3.579-8.192-4.525-10.94l-.63-1.833.7.642c1.142 1.048 2.619 3.514 4.97 8.298 1.219 2.483 2.655 5.021 3.191 5.641.985 1.14 1.917 1.809 2.17 1.557.328-.33-1.522-4.993-4.177-10.522-3.056-6.367-4.254-9.53-4.787-12.64l-.33-1.926-1.464.183c-.805.1-1.552.319-1.66.486-.53.815-1.29 3.306-1.436 4.7-.147 1.405-.073 1.754.733 3.478.836 1.787.898 2.11.932 4.826.03 2.32.143 3.124.562 3.968 1.497 3.015 2.596 8 2.36 10.716-.219 2.534-.875 4.161-2.196 5.445l-1.141 1.109.156 1.684c.18 1.94-.207 4.8-.972 7.178-.634 1.97-1.35 8.182-.93 8.061.152-.043.646-.825 1.098-1.738zm-34.3-10.747c.549-.662 2.498-1.68 4.669-2.442 1.96-.687 2.361-.732 6.585-.738 4.235-.006 4.632.037 6.788.744 1.259.413 2.982 1.206 3.83 1.763 1.17.77 1.651.954 2.003.765.7-.374 1.005-1.128 1.005-2.48v-1.22l-.919.173c-1.37.257-3.44-.326-5.96-1.68-4.71-2.529-4.563-2.475-6.627-2.468-2.058.006-1.928-.042-6.602 2.468-2.395 1.287-4.42 1.891-5.862 1.75-.882-.086-.885-.082-.966 1.168-.067 1.048.029 1.364.584 1.918.764.765 1.027.815 1.471.28zm-.4-5.04c4.126-.875 8.19-3.068 10.552-5.695l1.184-1.316 1.679 1.673c2.103 2.095 4.787 3.699 7.955 4.75 2.195.73 2.805.818 5.762.835 4.176.024 5.593-.422 7.585-2.39 2.103-2.076 2.64-4.512 1.828-8.307a26.63 26.63 0 0 0-.98-3.307l-.61-1.587-.185 1.78c-.102.979-.328 2.215-.503 2.746-.479 1.45-1.904 2.85-3.737 3.673-1.448.65-1.851.717-3.528.59-2.233-.168-4.18-.978-7.66-3.187-1.302-.826-2.586-1.501-2.854-1.501-.267 0-1.107.32-1.866.712-1.008.52-1.774.713-2.836.713-1.062 0-1.828-.193-2.835-.713-.76-.392-1.6-.712-1.867-.712-.267 0-1.547.673-2.843 1.495-3.612 2.292-5.347 3.018-7.621 3.19-1.747.132-2.131.07-3.518-.564-2.86-1.308-3.662-2.448-4.163-5.918l-.333-2.304-.705 1.984c-1.306 3.68-1.506 6.066-.731 8.748.58 2.01 3.136 4.104 5.764 4.723 1.567.37 5.055.314 7.066-.112zm-3.144-8.833c-.08-.13-.454-.313-.832-.407-1.19-.299-2.756-1.456-3.61-2.666-.896-1.272-1.265-1.311-1.265-.136 0 .928 1.046 2.226 2.347 2.914.964.51 3.637.744 3.36.295zm33.164-.282c1.32-.674 2.404-1.98 2.404-2.898 0-1.175-.263-1.132-1.332.22-1.066 1.349-2.296 2.242-3.5 2.543-1.206.3-1.1.652.196.652.686 0 1.66-.226 2.232-.517zm-28.711-.048c.558-.254.636-.428.506-1.124-.224-1.204-.475-1.337-1.003-.532a7.958 7.958 0 0 1-1.164 1.328l-.694.612.847.008c.466.005 1.145-.127 1.508-.292zm22.339-.691c-.52-.546-1.062-1.214-1.205-1.484-.222-.421-.3-.335-.537.599-.249.983-.22 1.13.284 1.484.309.216.976.393 1.482.393h.921zm-24.536-1.547c.428-.41 1.021-1.406 1.317-2.213.743-2.023 2.312-4.236 3.415-4.817.507-.267 1.372-.485 1.922-.485.918 0 1.045-.094 1.562-1.158.655-1.349.521-2.669-.247-2.443-1.211.355-4.887.716-6.54.641l-1.852-.083 1.584-.489c2.732-.842 3.976-1.76 2.387-1.76-1.032 0-3.176-.913-4.676-1.99-.753-.541-1.907-1.257-2.565-1.59l-1.195-.606 2.166-.466c1.192-.256 2.167-.555 2.167-.664 0-.366-3.25-1.828-4.064-1.828-1.534 0-.307-.548 1.575-.704 1.912-.158 1.802-.185 7.222 1.78 1.626.59 1.737.596 2.883.184 1.065-.383 1.256-.386 1.8-.03.334.22.882.36 1.218.312.48-.068.61-.253.61-.865 0-.73-.14-.835-2.249-1.683-2.925-1.177-6.858-2.17-8.566-2.164-1.85.006-4.678.636-6.405 1.427-1.627.744-1.631.76-1.188 4.583.197 1.699.15 2.113-.423 3.691-.832 2.292-1.061 4.71-.602 6.35.393 1.405 2.942 5.374 4.509 7.02.964 1.014 1.084 1.064 2.237.934.853-.096 1.452-.36 1.998-.884zm6.351-.841c.392-1.03 1.003-1.012 2.995.084 1.536.844 2.134 1.03 3.328 1.03 1.193 0 1.791-.186 3.327-1.03 1.993-1.096 2.604-1.113 2.995-.084.126.33.714.874 1.307 1.207l1.078.606.37-.738c1.227-2.438.482-4.656-1.99-5.923-1.346-.69-1.531-.642-1.531.404 0 .964-.45 1.594-1.345 1.878-.775.246-.872.027-.394-.896.666-1.288.527-2.902-.363-4.215-1.294-1.909-1.723-5.404-.933-7.596.46-1.275.451-1.19.114-1.19-.152 0-.609-.247-1.017-.549-1.063-.786-2.022-.81-3.1-.078-.508.344-1.037.626-1.176.626-.328 0-.324.03.144 1.15.793 1.897.355 5.737-.856 7.508-.866 1.268-1.082 3.117-.496 4.25.527 1.019.528 1.115.017 1.115-.707 0-1.708-1.234-1.708-2.104 0-.942-.206-.983-1.532-.303-2.471 1.268-3.216 3.485-1.99 5.923l.371.738 1.078-.606c.593-.333 1.181-.876 1.307-1.207zm23.265.756c1.488-1.564 4.166-5.703 4.51-6.97.414-1.524.154-4.192-.614-6.305-.55-1.511-.607-1.988-.43-3.572.11-1.006.208-2.34.216-2.967.013-1.126-.004-1.147-1.421-1.796-2.119-.97-4.982-1.506-7.165-1.342-2.26.17-6.017 1.241-8.334 2.376-1.433.702-1.72.953-1.72 1.504 0 .813.92 1.032 1.83.436.543-.356.733-.353 1.799.03 1.145.412 1.256.405 2.882-.184 5.42-1.965 5.31-1.938 7.222-1.78 1.838.152 3.122.704 1.638.704-.789 0-4.126 1.473-4.126 1.82 0 .114.973.416 2.162.671l2.162.465-1.302.712a36.243 36.243 0 0 0-2.6 1.606c-1.47 1.012-3.546 1.87-4.526 1.87-1.589 0-.344.918 2.388 1.76l1.584.489-2.066.077c-1.136.043-3.097-.1-4.358-.317-1.77-.306-2.338-.324-2.494-.078-.335.526-.239 1.209.324 2.313.473.926.645 1.048 1.482 1.048 2.169 0 3.846 1.568 5.179 4.845 1.122 2.758 1.998 3.57 3.892 3.605.715.013 1.104-.197 1.887-1.02zM21.335 65.31c.272-.721.247-.806-.272-.91C10.707 62.325 5.599 59.211 4.42 54.254c-.18-.759-.412-1.38-.514-1.38-.375 0-.52 2.316-.217 3.443.517 1.92 3.213 4.381 6.617 6.041 2.546 1.242 9.367 3.71 10.323 3.734.222.006.54-.347.705-.783zm71.352-.543c9.361-3.177 13.37-6.56 12.74-10.754-.2-1.337-.53-1.294-.792.103-.633 3.377-4.154 6.543-9.317 8.378-1.578.56-4.265 1.251-7.403 1.902-.519.108-.544.193-.272.913.165.437.482.794.705.794.222 0 2.175-.602 4.339-1.336zm-69.365-4.23c.724-1.463 2.063-6.471 2.063-7.716 0-.801-.51-.996-2.628-1.001-1.715-.004-3.476.76-4.249 1.846-.703.988-.68 1.06.342 1.06 1.002 0 1.51.399 1.504 1.178-.009 1.207-.266 1.216-3.838.132-1.889-.573-3.553-1.04-3.698-1.039-.146.002.985.734 2.513 1.627 3.323 1.94 3.118 1.779 2.638 2.082-.742.47-2.738.307-5.284-.431l-.661-.192.529.598c.665.752 2.308 1.723 3.845 2.271 1.141.407 5.404 1.181 5.945 1.08.145-.028.586-.7.98-1.495zm67.338.905c2.203-.458 4.718-1.634 5.65-2.643l.645-.698-.661.206c-2.175.677-4.56.857-5.284.399-.48-.303-.684-.142 2.638-2.082 1.528-.893 2.66-1.622 2.513-1.621-.145 0-1.81.468-3.698 1.038-3.572 1.078-3.83 1.069-3.838-.137-.006-.78.502-1.177 1.504-1.177 1.022 0 1.046-.073.342-1.061-.773-1.085-2.534-1.85-4.249-1.846-1.956.005-2.628.218-2.628.832 0 1.731 1.626 7.505 2.482 8.81.463.707 1.094.705 4.584-.02zm-42.727-.053c.395-.395-.655-1.297-1.901-1.633-.593-.16-1.93-.255-2.97-.212l-1.894.077 1.084.75c1.926 1.331 4.845 1.854 5.681 1.018zm17.84-.453c.75-.366 1.52-.857 1.715-1.09.32-.387.125-.414-2.156-.3-2.643.13-3.652.442-4.182 1.291-.278.445-.24.552.279.772.888.378 2.797.082 4.344-.674zm1.065-9.25c1.917-.214 4.477-.564 5.689-.777l5.907-1.04c5.696-1.001 9.475-1.304 14.73-1.18 3.933.093 4.684.053 4.299-.228-.867-.634-9.748-5.052-12.546-6.242-11.102-4.719-24.892-7.51-33.536-6.79-8.579.716-16.98 2.716-25.598 6.097-2.826 1.108-13.266 6.171-14.243 6.907-.416.313.213.35 4.446.254 5.779-.13 8.582.134 16.808 1.581 3.274.577 7.382 1.207 9.128 1.401 4.587.51 20.41.52 24.916.017zM37.556 34.951l2.514-.7 13.097-.09c13.937-.097 15.555-.003 19.523 1.148 1.233.357 2.291.601 2.35.542.06-.06-.206-1.361-.59-2.894l-.698-2.785-2.568-1.192c-2.913-1.352-6.115-2.404-9.021-2.963l-1.985-.382 4.101.111c2.256.062 4.974.248 6.04.414 1.066.167 2.004.238 2.083.159.3-.3-2.59-8.413-4.703-13.2-.691-1.565-1.169-2.792-1.062-2.726.107.066.9 1.029 1.763 2.14 1.13 1.454 1.937 2.207 2.89 2.695 1.41.722 2.945 1.845 7.082 5.181l2.583 2.084 1.518-1.324a55.142 55.142 0 0 0 2.697-2.537c.65-.667 1.315-1.213 1.48-1.213.164 0 .434.298.6.661.34.745 2.447 3.114 2.618 2.943.206-.206-2.785-5.985-3.097-5.985-.074 0-1.301 1.013-2.728 2.25-1.426 1.236-2.676 2.247-2.778 2.246-.101-.001-2.447-1.919-5.212-4.262-8.405-7.122-10.89-8.88-14.904-10.534-5.252-2.165-9.338-1.97-14.83.712l-1.952.954-1.185 2.531c-2.863 6.112-6.993 16.995-6.6 17.388.076.077 1.012.003 2.078-.163 1.066-.166 3.784-.353 6.04-.414l4.1-.111-1.984.381c-2.9.558-6.107 1.61-9 2.954l-2.548 1.182-.708 2.732c-.39 1.503-.708 2.82-.708 2.925 0 .106.268.114.595.017.328-.096 1.727-.49 3.109-.875z" fill="#fff"/></svg>