<?xml version="1.0" encoding="UTF-8" standalone="no"?>
<!-- Created with Inkscape (http://www.inkscape.org/) -->

<svg
   xmlns:dc="http://purl.org/dc/elements/1.1/"
   xmlns:cc="http://creativecommons.org/ns#"
   xmlns:rdf="http://www.w3.org/1999/02/22-rdf-syntax-ns#"
   xmlns:svg="http://www.w3.org/2000/svg"
   xmlns="http://www.w3.org/2000/svg"
   xmlns:sodipodi="http://sodipodi.sourceforge.net/DTD/sodipodi-0.dtd"
   xmlns:inkscape="http://www.inkscape.org/namespaces/inkscape"
   width="108.98132mm"
   height="124.02306mm"
   viewBox="0 0 108.98132 124.02306"
   version="1.1"
   id="svg8"
   inkscape:version="0.92.4 (5da689c313, 2019-01-14)"
   sodipodi:docname="wizard.svg">
  <defs
     id="defs2" />
  <sodipodi:namedview
     id="base"
     pagecolor="#ffffff"
     bordercolor="#666666"
     borderopacity="1.0"
     inkscape:pageopacity="0.0"
     inkscape:pageshadow="2"
     inkscape:zoom="0.98994949"
     inkscape:cx="69.142307"
     inkscape:cy="362.38136"
     inkscape:document-units="mm"
     inkscape:current-layer="layer1"
     showgrid="false"
     fit-margin-top="0"
     fit-margin-left="0"
     fit-margin-right="0"
     fit-margin-bottom="0"
     inkscape:window-width="1920"
     inkscape:window-height="1017"
     inkscape:window-x="1072"
     inkscape:window-y="394"
     inkscape:window-maximized="1" />
  <metadata
     id="metadata5">
    <rdf:RDF>
      <cc:Work
         rdf:about="">
        <dc:format>image/svg+xml</dc:format>
        <dc:type
           rdf:resource="http://purl.org/dc/dcmitype/StillImage" />
        <dc:title></dc:title>
      </cc:Work>
    </rdf:RDF>
  </metadata>
  <g
     inkscape:label="Layer 1"
     inkscape:groupmode="layer"
     id="layer1"
     transform="translate(-51.671584,-62.033144)">
    <path
       style="fill:#ffffff;stroke-width:1"
       d="m 104.97022,184.97861 c -0.58208,-0.58053 -1.59411,-1.42142 -2.24896,-1.86864 -2.59633,-1.77314 -4.224201,-4.01021 -4.230751,-5.81403 -0.004,-1.14486 -0.34611,-1.0464 -1.18188,0.3403 -0.43018,0.71375 -0.86914,1.29773 -0.97547,1.29773 -0.40022,0 -1.8306,-3.37275 -2.11329,-4.98303 l -0.29418,-1.67575 -0.65492,1.09826 c -0.62903,1.05483 -0.67484,1.08022 -1.15879,0.64225 -0.72536,-0.65644 -1.7171,-2.89793 -2.09675,-4.73902 l -0.32737,-1.5875 -0.54688,1.12448 c -0.30079,0.61847 -0.62783,1.12448 -0.72676,1.12448 -0.2463,0 -1.30241,-2.49745 -1.30742,-3.09176 -0.002,-0.26406 -0.10742,-0.64329 -0.23377,-0.84273 -0.14425,-0.22773 -0.30156,0.64135 -0.42287,2.33624 l -0.19317,2.69886 -0.65339,-0.16399 c -0.8206,-0.20595 -2.441199,-1.22647 -3.076999,-1.93763 -0.26576,-0.29726 -0.75685,-1.21375 -1.09129,-2.03664 -0.58201,-1.43199 -0.61576,-1.46418 -0.78686,-0.75061 -0.68698,2.86503 -1.3043,4.84659 -1.50986,4.84659 -0.13275,0 -0.7089,-0.72336 -1.28033,-1.60747 -1.05864,-1.63793 -1.77613,-4.09918 -1.92241,-6.59461 l -0.0698,-1.19062 -1.15332,1.91602 c -0.63433,1.05381 -1.25781,1.85144 -1.38553,1.7725 -0.33929,-0.20969 -1.23724,-3.45522 -1.42312,-5.14373 -0.0881,-0.80037 -0.0392,-2.51963 0.10877,-3.82059 0.14794,-1.30095 0.21464,-2.4197 0.14824,-2.48611 -0.0664,-0.0664 -0.5872,0.18795 -1.15731,0.56523 l -1.03657,0.68597 -0.16171,-0.58111 c -0.0889,-0.3196 -0.2366,-1.65852 -0.32814,-2.97536 -0.19341,-2.78231 0.17653,-5.34097 1.10563,-7.64708 0.34892,-0.86607 0.60438,-1.6047 0.56767,-1.64141 -0.0367,-0.0367 -0.81125,0.40401 -1.7212,0.97936 -0.90996,0.57535 -1.69174,1.0461 -1.73729,1.0461 -0.15224,0 0.13611,-2.75477 0.50657,-4.83966 0.22229,-1.25096 0.83936,-3.09351 1.56942,-4.68619 0.6617,-1.44356 1.2031,-2.784 1.2031,-2.97876 0,-0.21983 -0.59988,-0.478 -1.58207,-0.68087 -6.09424,-1.25875 -12.38775,-4.61075 -15.12887,-8.05782 -2.86382,-3.60138 -3.42318,-8.04476 -1.31879,-10.47615 1.36998,-1.58286 17.78894,-10.10265 24.51202,-12.719282 5.04028,-1.96168 4.57187,-1.52995 5.46639,-5.038353 1.844469,-7.23426 4.218749,-13.291705 8.912709,-22.738805 2.77597,-5.58694 2.84093,-5.6879 4.27402,-6.64206 1.77448,-1.18146 4.758061,-2.40871 7.378891,-3.03517 3.31454,-0.79229 7.88186,-0.2099 12.17087,1.55194 4.11992,1.69237 7.44644,4.12401 13.91781,10.17369 3.8782,3.62549 3.97936,3.6983 4.54245,3.26954 0.31676,-0.24118 1.42988,-1.14547 2.47362,-2.00953 1.52134,-1.25944 1.98476,-1.51703 2.33671,-1.29885 0.89007,0.55178 2.42927,2.91951 4.42845,6.81223 2.36658,4.608105 3.71435,6.701855 5.31623,8.258705 1.27135,1.23561 1.16325,1.42497 -0.8135,1.42497 -2.72631,0 -5.62026,-2.00124 -7.89317,-5.45834 -0.60945,-0.92697 -1.17963,-1.68541 -1.26707,-1.68541 -0.0874,0 -1.40163,1.36825 -2.92044,3.04055 -1.51881,1.6723 -2.88054,3.03694 -3.02606,3.03253 -0.14552,-0.004 -1.57427,-1.00003 -3.175,-2.2125 -1.60073,-1.21247 -2.95252,-2.1679 -3.00399,-2.12316 -0.0515,0.0447 0.33296,1.36875 0.85429,2.94227 0.52132,1.57351 1.36843,4.40412 1.88246,6.29024 0.51403,1.886123 1.02257,3.514333 1.13009,3.618253 0.10752,0.10393 1.44564,0.65789 2.97361,1.23104 3.09541,1.161112 7.38712,3.085912 11.77396,5.280532 4.40861,2.20551 12.58559,6.6666 13.58869,7.41354 1.24469,0.92682 1.87791,2.46479 1.87734,4.55963 -0.001,4.26847 -3.28364,8.48346 -8.90274,11.43188 -2.47201,1.2971 -7.15512,2.95831 -9.20736,3.26606 -1.16809,0.17517 -1.2242,0.22156 -1.06372,0.87943 0.0932,0.38197 0.62908,1.70653 1.19089,2.94346 1.15474,2.54238 1.48325,3.67808 1.722,5.95313 0.0916,0.87312 0.21802,1.97445 0.28087,2.44739 0.0628,0.47294 0.0602,0.8599 -0.006,0.8599 -0.0661,0 -0.86473,-0.47075 -1.77469,-1.0461 -0.90996,-0.57535 -1.6845,-1.01606 -1.72121,-0.97936 -0.0367,0.0367 0.23023,0.80196 0.59319,1.70055 0.97101,2.40397 1.25387,4.33849 1.09204,7.46866 -0.19551,3.78188 -0.23249,3.85395 -1.53492,2.99204 -0.572,-0.37853 -1.09411,-0.63411 -1.16026,-0.56796 -0.0661,0.0661 0.0115,1.23476 0.17257,2.59693 0.34354,2.90544 0.0361,5.7783 -0.83597,7.81285 l -0.5584,1.3027 -1.24182,-1.97505 -1.2418,-1.97505 -0.15217,1.85208 c -0.0837,1.01864 -0.3508,2.52255 -0.59357,3.34202 -0.43042,1.45288 -1.9187,3.94022 -2.46694,4.12297 -0.15067,0.0502 -0.60733,-1.16648 -1.0148,-2.70378 l -0.74085,-2.7951 -0.60451,1.48735 c -0.33247,0.81804 -0.82194,1.73056 -1.08771,2.02782 -0.63414,0.7093 -2.25567,1.73149 -3.07156,1.93627 -0.6473,0.16246 -0.64816,0.15985 -0.83996,-2.54555 -0.1245,-1.7561 -0.27508,-2.57694 -0.42831,-2.33488 -0.12997,0.20531 -0.23813,0.64248 -0.24036,0.97149 -0.004,0.66548 -1.01667,2.97368 -1.30398,2.97368 -0.10083,0 -0.42698,-0.50309 -0.72479,-1.11797 l -0.54146,-1.11798 -0.44675,2.00806 c -0.40657,1.82744 -1.53949,4.13664 -2.24272,4.57126 -0.15844,0.0979 -0.5337,-0.31974 -0.86309,-0.96059 l -0.58278,-1.13382 -0.42948,1.98437 c -0.39006,1.80227 -1.70524,4.7625 -2.11589,4.7625 -0.0918,0 -0.51802,-0.60112 -0.94712,-1.33583 -0.85641,-1.46638 -0.86212,-1.46306 -1.45149,0.84469 -0.4015,1.57214 -1.42934,2.80627 -3.79383,4.55527 -1.03999,0.76927 -2.24768,1.77688 -2.68377,2.23915 -0.43609,0.46226 -0.85281,0.83066 -0.92604,0.81867 -0.0732,-0.012 -0.6094,-0.49678 -1.19149,-1.07731 z m 3.45351,-4.30936 c 1.80084,-1.83664 3.17575,-4.32703 3.95253,-7.15923 0.23947,-0.87313 0.48663,-1.74567 0.54923,-1.93898 0.0763,-0.23555 0.58253,0.0489 1.53483,0.8625 1.09496,0.93546 1.4841,1.13751 1.69607,0.88065 0.37938,-0.45973 1.28635,-3.25845 1.51911,-4.68767 l 0.19206,-1.17933 0.52726,0.65016 c 0.28999,0.35759 0.69797,0.88829 0.90661,1.17933 0.37478,0.52279 0.38398,0.52298 0.76295,0.0158 0.69574,-0.93105 1.41956,-3.25959 1.76803,-5.68779 l 0.34322,-2.39154 0.92229,1.17669 c 0.50727,0.64718 1.03264,1.14477 1.16749,1.10575 0.47883,-0.13853 2.26499,-4.043 2.79176,-6.10265 0.31219,-1.22066 0.53493,-2.95021 0.53493,-4.15372 v -2.06217 l -1.38907,0.6467 c -1.06835,0.49739 -1.83194,0.6473 -3.30729,0.64929 -1.71112,0.002 -1.91823,0.0572 -1.91823,0.50818 0,0.98052 -1.02835,3.79401 -1.61498,4.41844 -0.32666,0.34772 -0.86068,0.63221 -1.18671,0.63221 -0.32602,0 -1.46613,-0.66967 -2.53356,-1.48815 -3.67824,-2.8204 -7.20209,-3.84388 -11.3963,-3.30999 -2.74059,0.34886 -4.504441,1.10425 -7.176281,3.07335 -1.31382,0.96827 -2.61263,1.72479 -2.96112,1.72479 -0.92262,0 -1.88212,-1.4539 -2.40939,-3.65084 l -0.4573,-1.90541 -1.86707,-0.003 c -1.42105,-0.002 -2.19891,-0.15708 -3.25614,-0.64929 l -1.38906,-0.6467 v 2.06217 c 0,2.67368 0.75477,5.58357 2.13781,8.24195 0.60288,1.15882 1.17218,2.10244 1.26511,2.09693 0.0929,-0.006 0.58567,-0.54264 1.09499,-1.19362 l 0.92605,-1.18361 0.29926,2.05352 c 0.47194,3.23842 1.54405,6.43133 2.15351,6.4135 0.10618,-0.003 0.53327,-0.48641 0.94909,-1.07401 0.41581,-0.58759 0.79553,-1.02885 0.84382,-0.98056 0.0483,0.0483 0.26446,0.93509 0.48038,1.97068 0.21593,1.03559 0.64798,2.38349 0.96011,2.99532 0.63704,1.24871 0.48557,1.28575 2.57809,-0.63055 0.47076,-0.43112 0.89263,-0.73246 0.93747,-0.66965 0.0448,0.0628 0.34813,1.06671 0.673961,2.23087 0.32583,1.16417 0.97553,2.89033 1.44378,3.83592 0.98624,1.99163 3.83299,5.02763 4.71424,5.02763 0.34599,0 1.21383,-0.66134 2.23646,-1.70431 z m -24.128441,-16.6832 c -0.1978,-1.8912 -0.59312,-4.15339 -0.878499,-5.02708 -0.79332,-2.42879 -1.15443,-5.03436 -0.96032,-6.92905 l 0.17426,-1.70085 -1.15731,-1.12477 c -1.91595,-1.86209 -2.61101,-4.80809 -2.04601,-8.67208 0.35765,-2.44604 1.36958,-5.88616 2.20718,-7.50345 0.45247,-0.87368 0.55171,-1.56853 0.56877,-3.98241 0.0194,-2.74059 0.0744,-3.03316 0.87657,-4.66267 0.58681,-1.19199 0.855919,-2.11924 0.855919,-2.94925 0,-1.39672 -1.203079,-5.44386 -1.669729,-5.61697 -0.17306,-0.0642 -0.89726,-0.14697 -1.60933,-0.18396 l -1.29468,-0.0672 -0.37637,1.85208 c -0.66622,3.27841 -1.89658,6.48283 -4.82545,12.56771 -2.6819,5.57177 -4.41451,9.94959 -4.19655,10.60348 0.16822,0.50464 2.5431,-1.84945 3.43453,-3.40445 0.47625,-0.83077 1.46913,-2.76065 2.20641,-4.28862 2.19808,-4.55545 3.09192,-6.0939 4.28718,-7.37894 l 1.13477,-1.22001 -1.02236,2.91041 c -0.56229,1.60073 -2.23982,5.64886 -3.72783,8.99584 -3.11239,7.00068 -4.42181,10.68015 -4.76041,13.37671 -0.3865,3.07812 -0.1023,3.23882 1.49206,0.84372 1.66897,-2.50719 3.34507,-5.86547 4.85246,-9.72252 1.32403,-3.38788 1.58583,-3.80184 1.40074,-2.21485 -0.24478,2.09874 -1.15651,5.07522 -2.66403,8.69714 -0.81768,1.96454 -1.71347,4.40532 -1.99065,5.42396 -0.53723,1.97435 -0.96005,7.81805 -0.5634,7.78648 0.12944,-0.0103 0.98921,-1.56822 1.91061,-3.46206 0.9214,-1.89383 1.73058,-3.38802 1.79818,-3.32042 0.0676,0.0676 -0.002,1.11639 -0.15391,2.33064 -0.15226,1.21425 -0.27683,3.3322 -0.27683,4.70654 0,2.68305 0.46546,6.03399 0.788,5.67295 0.10827,-0.12121 0.51784,-1.52378 0.91015,-3.11683 0.73119,-2.96912 1.64544,-5.43792 2.01378,-5.43792 0.11394,0 0.29179,0.62508 0.39522,1.38906 0.23036,1.70161 1.30946,5.50461 1.88391,6.63937 0.412919,0.81569 1.185519,1.83171 1.290129,1.69663 0.0289,-0.0373 -0.10936,-1.61512 -0.30716,-3.50632 z m 44.779571,1.49692 c 0.45171,-0.91247 1.08502,-2.87294 1.40734,-4.35662 0.87163,-4.01225 0.87351,-4.01439 1.65567,-1.8845 0.37018,1.00801 0.94033,2.90431 1.267,4.214 0.83223,3.33647 0.80947,3.28566 1.12583,2.51354 0.42813,-1.04489 0.56954,-7.29623 0.22382,-9.89418 -0.17105,-1.2854 -0.2543,-2.39381 -0.18498,-2.46313 0.0693,-0.0693 0.93877,1.50656 1.93211,3.50195 l 1.80607,3.62798 0.0774,-2.344 c 0.10205,-3.0922 -0.47761,-5.88041 -1.97384,-9.49424 -1.98688,-4.79889 -2.98804,-7.87831 -3.14588,-9.67621 l -0.14932,-1.70088 1.55384,3.70417 c 1.82208,4.34362 3.67081,7.96286 4.9668,9.72344 1.4678,1.99397 1.70187,1.66276 1.16865,-1.65365 -0.41944,-2.60871 -1.81162,-6.5068 -4.35381,-12.1906 -2.53772,-5.6738 -3.57877,-8.19093 -4.52473,-10.94031 l -0.63031,-1.83195 0.699,0.64132 c 1.1431,1.04878 2.61944,3.51391 4.97,8.29869 1.2195,2.48241 2.65598,5.02092 3.19216,5.64114 0.98458,1.13888 1.9171,1.80808 2.1688,1.55639 0.32937,-0.32937 -1.52119,-4.99254 -4.17572,-10.52231 -3.05651,-6.36715 -4.25457,-9.52999 -4.78784,-12.63981 l -0.33023,-1.92574 -1.46351,0.18241 c -0.80493,0.10032 -1.55226,0.31914 -1.66073,0.48627 -0.52901,0.81509 -1.2895,3.30584 -1.43531,4.70093 -0.14679,1.40437 -0.0731,1.75384 0.73283,3.47691 0.83612,1.78754 0.89846,2.11021 0.93241,4.82604 0.029,2.32107 0.14284,3.12472 0.5621,3.96875 1.49725,3.01423 2.59541,7.99974 2.36033,10.71562 -0.2193,2.53367 -0.87572,4.1607 -2.1965,5.44435 l -1.1413,1.10922 0.15655,1.68415 c 0.18028,1.9394 -0.20711,4.7997 -0.97212,7.17758 -0.63379,1.97004 -1.35103,8.18187 -0.93081,8.06159 0.15232,-0.0436 0.64654,-0.82584 1.09826,-1.73831 z M 94.773819,154.73658 c 0.54953,-0.66214 2.49831,-1.68142 4.66922,-2.44217 1.960421,-0.68698 2.361621,-0.73195 6.585521,-0.73818 4.23512,-0.006 4.63168,0.0372 6.7874,0.74389 1.25921,0.41278 2.98264,1.20631 3.82983,1.76339 1.17057,0.76971 1.65165,0.95331 2.00394,0.76477 0.69949,-0.37436 1.00487,-1.12788 1.00487,-2.47953 v -1.22 l -0.9189,0.17238 c -1.37036,0.25708 -3.44116,-0.32645 -5.96027,-1.67955 -4.70918,-2.52946 -4.56343,-2.47517 -6.62688,-2.46864 -2.05789,0.006 -1.92806,-0.042 -6.602291,2.46864 -2.3949,1.28638 -4.41941,1.89077 -5.86166,1.7499 -0.88212,-0.0862 -0.88549,-0.0821 -0.96576,1.16793 -0.0673,1.04795 0.0287,1.36366 0.58329,1.91823 0.76441,0.76441 1.02741,0.81426 1.47169,0.27894 z m -0.39922,-5.04111 c 4.12615,-0.87406 8.190331,-3.06712 10.552141,-5.69402 l 1.18382,-1.31669 1.67879,1.67315 c 2.10268,2.09561 4.78704,3.69872 7.95466,4.75054 2.19541,0.729 2.80554,0.81735 5.76267,0.83449 4.17623,0.0242 5.59257,-0.42193 7.5849,-2.38911 2.10308,-2.07654 2.63914,-4.51306 1.82771,-8.30736 -0.20229,-0.94588 -0.64286,-2.43416 -0.97906,-3.30729 l -0.61127,-1.5875 -0.18455,1.78018 c -0.10151,0.9791 -0.32808,2.21505 -0.50349,2.74656 -0.47821,1.44899 -1.90378,2.85035 -3.73607,3.67263 -1.4483,0.64997 -1.85144,0.71746 -3.52796,0.59067 -2.2337,-0.16894 -4.18016,-0.97874 -7.66101,-3.18728 -1.30176,-0.82594 -2.58564,-1.50172 -2.85306,-1.50172 -0.26743,0 -1.10735,0.3207 -1.8665,0.71267 -1.0074,0.52014 -1.77338,0.71267 -2.83547,0.71267 -1.0621,0 -1.82808,-0.19253 -2.83548,-0.71267 -0.75914,-0.39197 -1.59907,-0.71267 -1.86649,-0.71267 -0.26743,0 -1.547071,0.67305 -2.843651,1.49566 -3.61155,2.29133 -5.34689,3.01761 -7.62113,3.18961 -1.74666,0.1321 -2.13064,0.0706 -3.51729,-0.56366 -2.86006,-1.30811 -3.66186,-2.4479 -4.163469,-5.91848 l -0.33303,-2.30417 -0.70453,1.98438 c -1.30645,3.67971 -1.50594,6.06654 -0.7312,8.74854 0.5803,2.0089 3.136499,4.10337 5.763619,4.72254 1.56723,0.36937 5.05584,0.31424 7.0664,-0.11167 z m -3.1446,-8.83218 c -0.08,-0.1294 -0.45408,-0.31275 -0.83135,-0.40744 -1.18981,-0.29862 -2.75678,-1.45585 -3.60957,-2.66572 -0.89636,-1.27167 -1.26573,-1.31132 -1.26573,-0.13584 0,0.92778 1.0457,2.22582 2.34713,2.91352 0.96419,0.50949 3.63709,0.74458 3.35952,0.29548 z m 33.164361,-0.2823 c 1.32052,-0.67368 2.40399,-1.97989 2.40399,-2.89822 0,-1.17512 -0.26302,-1.13162 -1.33156,0.22017 -1.06632,1.34901 -2.29587,2.24241 -3.49959,2.54285 -1.20687,0.30122 -1.10139,0.65277 0.19586,0.65277 0.68555,0 1.65971,-0.22596 2.2313,-0.51757 z m -28.710851,-0.0478 c 0.55813,-0.2543 0.63637,-0.42795 0.50663,-1.12448 -0.22419,-1.20358 -0.47562,-1.33682 -1.0032,-0.53163 -0.25808,0.39388 -0.7818,0.99154 -1.16381,1.32814 l -0.69457,0.61199 0.84744,0.008 c 0.4661,0.005 1.14448,-0.12697 1.50751,-0.29238 z m 22.339371,-0.69144 c -0.51995,-0.54571 -1.06212,-1.21352 -1.20482,-1.48403 -0.222,-0.42082 -0.29946,-0.33428 -0.53643,0.5993 -0.24946,0.98282 -0.22127,1.13015 0.28396,1.48403 0.3085,0.21609 0.97531,0.39288 1.48178,0.39288 h 0.92087 z m -24.536031,-1.54627 c 0.42875,-0.41077 1.02177,-1.40664 1.31784,-2.21305 0.74297,-2.02367 2.31128,-4.23623 3.41453,-4.81719 0.50705,-0.26701 1.3718,-0.48547 1.921671,-0.48547 0.91863,0 1.0454,-0.094 1.56235,-1.158 0.65511,-1.34842 0.52133,-2.66857 -0.24756,-2.44296 -1.21087,0.3553 -4.886521,0.71588 -6.539631,0.64154 l -1.85208,-0.0833 1.58401,-0.48863 c 2.73202,-0.84275 3.97654,-1.76033 2.38758,-1.76033 -1.03204,0 -3.17626,-0.91252 -4.676,-1.98997 -0.75318,-0.54111 -1.9075,-1.2566 -2.56516,-1.58997 l -1.19574,-0.60614 2.16651,-0.46556 c 1.19158,-0.25606 2.16651,-0.55505 2.16651,-0.66443 0,-0.36625 -3.24955,-1.82768 -4.06393,-1.82768 -1.53396,0 -0.30676,-0.5485 1.57558,-0.70421 1.9117,-0.15813 1.80168,-0.18525 7.22222,1.77978 1.62604,0.58946 1.73704,0.59657 2.882591,0.18463 1.06545,-0.38313 1.2557,-0.38632 1.79927,-0.0302 0.33431,0.21905 0.88262,0.35933 1.21845,0.31172 0.4798,-0.068 0.61061,-0.25333 0.61061,-0.86504 0,-0.72959 -0.14124,-0.83528 -2.24896,-1.68294 -2.925351,-1.17649 -6.857991,-2.16998 -8.566731,-2.16418 -1.85013,0.006 -4.67763,0.63619 -6.40466,1.42685 -1.62685,0.74479 -1.63086,0.76028 -1.18772,4.58317 0.19693,1.69887 0.14942,2.11301 -0.42341,3.69115 -0.83207,2.29232 -1.06118,4.70933 -0.60189,6.34974 0.39337,1.40498 2.94241,5.37418 4.50877,7.02077 0.96429,1.01367 1.08463,1.06392 2.23728,0.93399 0.85284,-0.0961 1.45195,-0.36128 1.9977,-0.88414 z m 6.35157,-0.84176 c 0.391441,-1.02889 1.002251,-1.01172 2.995211,0.0842 1.53572,0.84452 2.13342,1.02945 3.32722,1.02945 1.19379,0 1.7915,-0.18493 3.32722,-1.02945 1.99296,-1.09596 2.60376,-1.11313 2.9952,-0.0842 0.12599,0.33115 0.71409,0.87455 1.3069,1.20756 l 1.07783,0.60547 0.37114,-0.73776 c 1.2264,-2.43792 0.48129,-4.65546 -1.99015,-5.92289 -1.34657,-0.69056 -1.53189,-0.64172 -1.53189,0.40373 0,0.9646 -0.45074,1.59416 -1.34443,1.87781 -0.77591,0.24626 -0.87222,0.0279 -0.39488,-0.89514 0.66623,-1.28834 0.52742,-2.90241 -0.36251,-4.21545 -1.29363,-1.90867 -1.72305,-5.40397 -0.93326,-7.59624 0.45929,-1.27488 0.45123,-1.19062 0.11395,-1.19062 -0.15142,0 -0.60875,-0.24654 -1.01631,-0.54786 -1.063,-0.78591 -2.02222,-0.81029 -3.10014,-0.0788 -0.50788,0.34466 -1.0372,0.62666 -1.17626,0.62666 -0.32778,0 -0.3241,0.0294 0.14405,1.14981 0.79254,1.89684 0.35471,5.73719 -0.85604,7.50854 -0.86615,1.26719 -1.08215,3.11643 -0.49633,4.24927 0.52697,1.01905 0.52847,1.11529 0.0174,1.11529 -0.70671,0 -1.70777,-1.2337 -1.70777,-2.10464 0,-0.94142 -0.20634,-0.98215 -1.531901,-0.30236 -2.47143,1.26743 -3.21655,3.48497 -1.99014,5.92289 l 0.37113,0.73776 1.07784,-0.60547 c 0.5928,-0.33301 1.18091,-0.87641 1.30689,-1.20756 z m 23.264931,0.75666 c 1.48782,-1.56401 4.16583,-5.70343 4.50999,-6.97109 0.4135,-1.5231 0.15349,-4.19158 -0.6143,-6.30454 -0.5491,-1.5111 -0.60662,-1.98806 -0.43079,-3.57187 0.11161,-1.00535 0.20904,-2.34051 0.21651,-2.96702 0.0134,-1.12543 -0.004,-1.14701 -1.42092,-1.79586 -2.11861,-0.96993 -4.98208,-1.50631 -7.16445,-1.34203 -2.26009,0.17013 -6.01756,1.24145 -8.33438,2.37628 -1.43341,0.70212 -1.71979,0.95254 -1.71979,1.50385 0,0.81292 0.91951,1.03226 1.82906,0.43629 0.54357,-0.35616 0.73383,-0.35297 1.79927,0.0302 1.14555,0.41194 1.25655,0.40483 2.88259,-0.18463 5.42054,-1.96503 5.31052,-1.93791 7.22223,-1.77978 1.83749,0.152 3.12138,0.70421 1.63728,0.70421 -0.78869,0 -4.12564,1.47251 -4.12564,1.82054 0,0.11331 0.97275,0.41504 2.16167,0.67053 l 2.16166,0.46452 -1.30177,0.71238 c -0.71597,0.3918 -1.88588,1.11451 -2.59979,1.60601 -1.46974,1.01184 -3.54628,1.86977 -4.52565,1.86977 -1.58896,0 -0.34443,0.91758 2.38758,1.76033 l 1.58401,0.48863 -2.066,0.0776 c -1.1363,0.0427 -3.09736,-0.10042 -4.3579,-0.31795 -1.7703,-0.3055 -2.3379,-0.32315 -2.49401,-0.0776 -0.33462,0.52642 -0.23893,1.2088 0.32433,2.31288 0.47235,0.92588 0.6447,1.04779 1.48137,1.04779 2.16904,0 3.84584,1.5687 5.17931,4.84543 1.12232,2.75787 1.99841,3.56921 3.8921,3.60446 0.71506,0.0133 1.10414,-0.19691 1.88643,-1.01928 z M 73.00719,127.33956 c 0.27205,-0.72074 0.24676,-0.80505 -0.27272,-0.90908 -10.3563,-2.07395 -15.46418,-5.18784 -16.64178,-10.14527 -0.18035,-0.75922 -0.4115,-1.3804 -0.51366,-1.3804 -0.37478,0 -0.52077,2.31586 -0.21708,3.44366 0.5169,1.91965 3.2127,4.38077 6.61694,6.04092 2.54645,1.24183 9.3675,3.70902 10.32343,3.734 0.22276,0.006 0.53995,-0.3469 0.70487,-0.78383 z m 71.35167,-0.54246 c 9.36076,-3.17642 13.36919,-6.55997 12.74024,-10.75412 -0.20053,-1.33723 -0.52961,-1.29426 -0.79181,0.10337 -0.63354,3.37708 -4.15469,6.54318 -9.31738,8.37788 -1.57774,0.5607 -4.26473,1.25112 -7.40268,1.90213 -0.51925,0.10772 -0.54465,0.19279 -0.27273,0.9132 0.16492,0.43693 0.48212,0.79402 0.70487,0.79353 0.22276,-5.3e-4 2.17553,-0.60169 4.33949,-1.33599 z m -69.36535,-4.23005 c 0.72405,-1.4629 2.06317,-6.47114 2.06317,-7.71612 0,-0.8009 -0.51113,-0.99552 -2.62844,-1.00084 -1.71521,-0.004 -3.47618,0.76072 -4.24888,1.84588 -0.70358,0.98808 -0.68009,1.06092 0.34211,1.06092 1.00155,0 1.5099,0.39794 1.50408,1.1774 -0.009,1.20732 -0.26653,1.21617 -3.83879,0.13195 -1.88826,-0.57311 -3.55227,-1.04047 -3.69779,-1.03857 -0.14552,0.002 0.98557,0.73372 2.51354,1.62626 3.32245,1.94076 3.11743,1.77896 2.63817,2.08205 -0.74247,0.46955 -2.73856,0.30678 -5.284,-0.43089 l -0.66146,-0.19169 0.52885,0.59813 c 0.66472,0.75181 2.30854,1.72249 3.84545,2.27075 1.14111,0.40708 5.40393,1.18093 5.94445,1.07914 0.14552,-0.0274 0.58632,-0.69987 0.97954,-1.49437 z m 67.33803,0.90478 c 2.20263,-0.45747 4.71741,-1.63367 5.64926,-2.64224 l 0.64567,-0.69884 -0.66146,0.206 c -2.17525,0.67746 -4.55924,0.85758 -5.284,0.39923 -0.47926,-0.30309 -0.68428,-0.14129 2.63817,-2.08205 1.52797,-0.89254 2.65906,-1.62201 2.51354,-1.62104 -0.14552,0.001 -1.8097,0.46804 -3.69817,1.03794 -3.57232,1.07805 -3.8294,1.0689 -3.8384,-0.13654 -0.006,-0.77946 0.50252,-1.1774 1.50407,-1.1774 1.02221,0 1.04569,-0.0728 0.34211,-1.06092 -0.77269,-1.08516 -2.53366,-1.85019 -4.24887,-1.84588 -1.95645,0.005 -2.62845,0.21766 -2.62845,0.83215 0,1.73137 1.62634,7.50461 2.4819,8.81037 0.46318,0.7069 1.09476,0.70404 4.58463,-0.0208 z m -42.726781,-0.053 c 0.39497,-0.39496 -0.65566,-1.29692 -1.90144,-1.63237 -0.5924,-0.15952 -1.92906,-0.2551 -2.97035,-0.2124 l -1.89324,0.0776 1.08402,0.74953 c 1.92554,1.33139 4.84439,1.85422 5.68101,1.0176 z m 17.839671,-0.45308 c 0.74894,-0.36561 1.52044,-0.856 1.71444,-1.08976 0.32081,-0.38655 0.12573,-0.41376 -2.15546,-0.30065 -2.64353,0.13108 -3.6517,0.44255 -4.18224,1.29207 -0.27803,0.4452 -0.2395,0.55191 0.27884,0.77217 0.88821,0.37743 2.79762,0.0813 4.34442,-0.67383 z m 1.06497,-9.24913 c 1.91675,-0.21414 4.4766,-0.56391 5.68854,-0.77725 1.21194,-0.21334 3.87041,-0.68106 5.9077,-1.03938 5.69605,-1.00182 9.4745,-1.3047 14.72929,-1.18067 3.93373,0.0928 4.68421,0.053 4.2993,-0.22848 -0.86643,-0.63355 -9.74786,-5.05156 -12.5463,-6.24107 -11.10193,-4.719022 -24.89198,-7.511212 -33.53594,-6.790292 -8.578681,0.71546 -16.979681,2.716342 -25.59843,6.096812 -2.8255,1.10822 -13.26644,6.17144 -14.24296,6.90696 -0.41605,0.31338 0.21308,0.34932 4.44649,0.25398 5.77836,-0.13013 8.58147,0.13363 16.807919,1.58151 3.27422,0.57627 7.38188,1.20655 9.12813,1.40061 4.58701,0.50976 20.410001,0.52073 24.916261,0.0173 z m -29.281891,-16.734252 2.51355,-0.69992 13.096871,-0.091 c 13.93697,-0.0969 15.55539,-0.002 19.52305,1.1481 1.23363,0.35749 2.2914,0.60154 2.35061,0.54233 0.0592,-0.0592 -0.20647,-1.36128 -0.59041,-2.893493 l -0.69806,-2.78584 -2.56794,-1.19188 c -2.9128,-1.35194 -6.11562,-2.40387 -9.02142,-2.96296 l -1.98437,-0.38181 4.10104,0.11151 c 2.25557,0.0613 4.97348,0.24758 6.03981,0.41388 1.06631,0.16629 2.00356,0.23755 2.08276,0.15835 0.30001,-0.30001 -2.59051,-8.412165 -4.70326,-13.199555 -0.69065,-1.56496 -1.16835,-2.79139 -1.06158,-2.7254 0.10678,0.066 0.89989,1.02849 1.76248,2.13888 1.1303,1.45502 1.93782,2.20803 2.89125,2.6961 1.40967,0.72163 2.94469,1.84479 7.08099,5.181095 l 2.58308,2.08349 1.51797,-1.32421 c 0.83488,-0.72832 2.04876,-1.869875 2.69753,-2.536785 0.64876,-0.66692 1.31426,-1.21258 1.47888,-1.21258 0.16463,0 0.43484,0.29744 0.60048,0.66098 0.33954,0.7452 2.44696,3.114035 2.61812,2.942875 0.20601,-0.20601 -2.7843,-5.985625 -3.09643,-5.984705 -0.0741,2.2e-4 -1.30172,1.01225 -2.72798,2.24896 -1.42625,1.23671 -2.67641,2.24769 -2.77812,2.24664 -0.10172,-0.001 -2.44713,-1.91893 -5.21202,-4.26192 -8.40512,-7.12257 -10.89136,-8.87989 -14.90371,-10.53426 -5.25214,-2.16556 -9.33812,-1.9693 -14.829781,0.7123 l -1.95224,0.95329 -1.1855,2.53136 c -2.86245,6.1121 -6.99301,16.994905 -6.59968,17.388235 0.0766,0.0766 1.01166,0.003 2.07798,-0.16314 1.06632,-0.1663 3.78423,-0.35254 6.0398,-0.41388 l 4.101051,-0.11151 -1.984381,0.38181 c -2.89999,0.55798 -6.10715,1.61034 -9.00099,2.95348 l -2.5475,1.1824 -0.70805,2.7321 c -0.38942,1.502653 -0.70804,2.818833 -0.70804,2.924823 0,0.106 0.26789,0.11377 0.59531,0.0173 0.32742,-0.0965 1.72641,-0.49042 3.10885,-0.87538 z"
       id="path826"
       inkscape:connector-curvature="0" />
  </g>
</svg>
