<?xml version="1.0" encoding="UTF-8"?>
<svg width="108.98mm" height="124.02mm" version="1.1" viewBox="0 0 108.98 124.02" xmlns="http://www.w3.org/2000/svg" xmlns:cc="http://creativecommons.org/ns#" xmlns:dc="http://purl.org/dc/elements/1.1/" xmlns:rdf="http://www.w3.org/1999/02/22-rdf-syntax-ns#">
<metadata>
<rdf:RDF>
<cc:Work rdf:about="">
<dc:format>image/svg+xml</dc:format>
<dc:type rdf:resource="http://purl.org/dc/dcmitype/StillImage"/>
<dc:title/>
</cc:Work>
</rdf:RDF>
</metadata>
<g transform="translate(-51.672 -62.033)">
<path d="m104.97 184.98c-0.58208-0.58053-1.5941-1.4214-2.249-1.8686-2.5963-1.7731-4.2242-4.0102-4.2308-5.814-4e-3 -1.1449-0.34611-1.0464-1.1819 0.3403-0.43018 0.71375-0.86914 1.2977-0.97547 1.2977-0.40022 0-1.8306-3.3728-2.1133-4.983l-0.29418-1.6758-0.65492 1.0983c-0.62903 1.0548-0.67484 1.0802-1.1588 0.64225-0.72536-0.65644-1.7171-2.8979-2.0968-4.739l-0.32737-1.5875-0.54688 1.1245c-0.30079 0.61847-0.62783 1.1245-0.72676 1.1245-0.2463 0-1.3024-2.4974-1.3074-3.0918-2e-3 -0.26406-0.10742-0.64329-0.23377-0.84273-0.14425-0.22773-0.30156 0.64135-0.42287 2.3362l-0.19317 2.6989-0.65339-0.16399c-0.8206-0.20595-2.4412-1.2265-3.077-1.9376-0.26576-0.29726-0.75685-1.2138-1.0913-2.0366-0.58201-1.432-0.61576-1.4642-0.78686-0.75061-0.68698 2.865-1.3043 4.8466-1.5099 4.8466-0.13275 0-0.7089-0.72336-1.2803-1.6075-1.0586-1.6379-1.7761-4.0992-1.9224-6.5946l-0.0698-1.1906-1.1533 1.916c-0.63433 1.0538-1.2578 1.8514-1.3855 1.7725-0.33929-0.20969-1.2372-3.4552-1.4231-5.1437-0.0881-0.80037-0.0392-2.5196 0.10877-3.8206 0.14794-1.301 0.21464-2.4197 0.14824-2.4861-0.0664-0.0664-0.5872 0.18795-1.1573 0.56523l-1.0366 0.68597-0.16171-0.58111c-0.0889-0.3196-0.2366-1.6585-0.32814-2.9754-0.19341-2.7823 0.17653-5.341 1.1056-7.6471 0.34892-0.86607 0.60438-1.6047 0.56767-1.6414-0.0367-0.0367-0.81125 0.40401-1.7212 0.97936-0.90996 0.57535-1.6917 1.0461-1.7373 1.0461-0.15224 0 0.13611-2.7548 0.50657-4.8397 0.22229-1.251 0.83936-3.0935 1.5694-4.6862 0.6617-1.4436 1.2031-2.784 1.2031-2.9788 0-0.21983-0.59988-0.478-1.5821-0.68087-6.0942-1.2588-12.388-4.6108-15.129-8.0578-2.8638-3.6014-3.4232-8.0448-1.3188-10.476 1.37-1.5829 17.789-10.103 24.512-12.719 5.0403-1.9617 4.5719-1.53 5.4664-5.0384 1.8445-7.2343 4.2187-13.292 8.9127-22.739 2.776-5.5869 2.8409-5.6879 4.274-6.6421 1.7745-1.1815 4.7581-2.4087 7.3789-3.0352 3.3145-0.79229 7.8819-0.2099 12.171 1.5519 4.1199 1.6924 7.4464 4.124 13.918 10.174 3.8782 3.6255 3.9794 3.6983 4.5424 3.2695 0.31676-0.24118 1.4299-1.1455 2.4736-2.0095 1.5213-1.2594 1.9848-1.517 2.3367-1.2988 0.89007 0.55178 2.4293 2.9195 4.4284 6.8122 2.3666 4.6081 3.7144 6.7019 5.3162 8.2587 1.2714 1.2356 1.1632 1.425-0.8135 1.425-2.7263 0-5.6203-2.0012-7.8932-5.4583-0.60945-0.92697-1.1796-1.6854-1.2671-1.6854-0.0874 0-1.4016 1.3682-2.9204 3.0406s-2.8805 3.0369-3.0261 3.0325c-0.14552-4e-3 -1.5743-1-3.175-2.2125s-2.9525-2.1679-3.004-2.1232c-0.0515 0.0447 0.33296 1.3688 0.85429 2.9423 0.52132 1.5735 1.3684 4.4041 1.8825 6.2902 0.51403 1.8861 1.0226 3.5143 1.1301 3.6183 0.10752 0.10393 1.4456 0.65789 2.9736 1.231 3.0954 1.1611 7.3871 3.0859 11.774 5.2805 4.4086 2.2055 12.586 6.6666 13.589 7.4135 1.2447 0.92682 1.8779 2.4648 1.8773 4.5596-1e-3 4.2685-3.2836 8.4835-8.9027 11.432-2.472 1.2971-7.1551 2.9583-9.2074 3.2661-1.1681 0.17517-1.2242 0.22156-1.0637 0.87943 0.0932 0.38197 0.62908 1.7065 1.1909 2.9435 1.1547 2.5424 1.4832 3.6781 1.722 5.9531 0.0916 0.87312 0.21802 1.9744 0.28087 2.4474 0.0628 0.47294 0.0602 0.8599-6e-3 0.8599-0.0661 0-0.86473-0.47075-1.7747-1.0461s-1.6845-1.0161-1.7212-0.97936c-0.0367 0.0367 0.23023 0.80196 0.59319 1.7006 0.97101 2.404 1.2539 4.3385 1.092 7.4687-0.19551 3.7819-0.23249 3.854-1.5349 2.992-0.572-0.37853-1.0941-0.63411-1.1603-0.56796-0.0661 0.0661 0.0115 1.2348 0.17257 2.5969 0.34354 2.9054 0.0361 5.7783-0.83597 7.8128l-0.5584 1.3027-1.2418-1.975-1.2418-1.975-0.15217 1.8521c-0.0837 1.0186-0.3508 2.5226-0.59357 3.342-0.43042 1.4529-1.9187 3.9402-2.4669 4.123-0.15067 0.0502-0.60733-1.1665-1.0148-2.7038l-0.74085-2.7951-0.60451 1.4874c-0.33247 0.81804-0.82194 1.7306-1.0877 2.0278-0.63414 0.7093-2.2557 1.7315-3.0716 1.9363-0.6473 0.16246-0.64816 0.15985-0.83996-2.5456-0.1245-1.7561-0.27508-2.5769-0.42831-2.3349-0.12997 0.20531-0.23813 0.64248-0.24036 0.97149-4e-3 0.66548-1.0167 2.9737-1.304 2.9737-0.10083 0-0.42698-0.50309-0.72479-1.118l-0.54146-1.118-0.44675 2.0081c-0.40657 1.8274-1.5395 4.1366-2.2427 4.5713-0.15844 0.0979-0.5337-0.31974-0.86309-0.96059l-0.58278-1.1338-0.42948 1.9844c-0.39006 1.8023-1.7052 4.7625-2.1159 4.7625-0.0918 0-0.51802-0.60112-0.94712-1.3358-0.85641-1.4664-0.86212-1.4631-1.4515 0.84469-0.4015 1.5721-1.4293 2.8063-3.7938 4.5553-1.04 0.76927-2.2477 1.7769-2.6838 2.2392-0.43609 0.46226-0.85281 0.83066-0.92604 0.81867-0.0732-0.012-0.6094-0.49678-1.1915-1.0773zm3.4535-4.3094c1.8008-1.8366 3.1758-4.327 3.9525-7.1592 0.23947-0.87313 0.48663-1.7457 0.54923-1.939 0.0763-0.23555 0.58253 0.0489 1.5348 0.8625 1.095 0.93546 1.4841 1.1375 1.6961 0.88065 0.37938-0.45973 1.2864-3.2584 1.5191-4.6877l0.19206-1.1793 0.52726 0.65016c0.28999 0.35759 0.69797 0.88829 0.90661 1.1793 0.37478 0.52279 0.38398 0.52298 0.76295 0.0158 0.69574-0.93105 1.4196-3.2596 1.768-5.6878l0.34322-2.3915 0.92229 1.1767c0.50727 0.64718 1.0326 1.1448 1.1675 1.1058 0.47883-0.13853 2.265-4.043 2.7918-6.1026 0.31219-1.2207 0.53493-2.9502 0.53493-4.1537v-2.0622l-1.3891 0.6467c-1.0684 0.49739-1.8319 0.6473-3.3073 0.64929-1.7111 2e-3 -1.9182 0.0572-1.9182 0.50818 0 0.98052-1.0284 3.794-1.615 4.4184-0.32666 0.34772-0.86068 0.63221-1.1867 0.63221-0.32602 0-1.4661-0.66967-2.5336-1.4882-3.6782-2.8204-7.2021-3.8439-11.396-3.31-2.7406 0.34886-4.5044 1.1042-7.1763 3.0734-1.3138 0.96827-2.6126 1.7248-2.9611 1.7248-0.92262 0-1.8821-1.4539-2.4094-3.6508l-0.4573-1.9054-1.8671-3e-3c-1.421-2e-3 -2.1989-0.15708-3.2561-0.64929l-1.3891-0.6467v2.0622c0 2.6737 0.75477 5.5836 2.1378 8.242 0.60288 1.1588 1.1722 2.1024 1.2651 2.0969 0.0929-6e-3 0.58567-0.54264 1.095-1.1936l0.92605-1.1836 0.29926 2.0535c0.47194 3.2384 1.544 6.4313 2.1535 6.4135 0.10618-3e-3 0.53327-0.48641 0.94909-1.074 0.41581-0.58759 0.79553-1.0288 0.84382-0.98056 0.0483 0.0483 0.26446 0.93509 0.48038 1.9707 0.21593 1.0356 0.64798 2.3835 0.96011 2.9953 0.63704 1.2487 0.48557 1.2858 2.5781-0.63055 0.47076-0.43112 0.89263-0.73246 0.93747-0.66965 0.0448 0.0628 0.34813 1.0667 0.67396 2.2309 0.32583 1.1642 0.97553 2.8903 1.4438 3.8359 0.98624 1.9916 3.833 5.0276 4.7142 5.0276 0.34599 0 1.2138-0.66134 2.2365-1.7043zm-24.128-16.683c-0.1978-1.8912-0.59312-4.1534-0.8785-5.0271-0.79332-2.4288-1.1544-5.0344-0.96032-6.929l0.17426-1.7008-1.1573-1.1248c-1.916-1.8621-2.611-4.8081-2.046-8.6721 0.35765-2.446 1.3696-5.8862 2.2072-7.5034 0.45247-0.87368 0.55171-1.5685 0.56877-3.9824 0.0194-2.7406 0.0744-3.0332 0.87657-4.6627 0.58681-1.192 0.85592-2.1192 0.85592-2.9492 0-1.3967-1.2031-5.4439-1.6697-5.617-0.17306-0.0642-0.89726-0.14697-1.6093-0.18396l-1.2947-0.0672-0.37637 1.8521c-0.66622 3.2784-1.8966 6.4828-4.8254 12.568-2.6819 5.5718-4.4145 9.9496-4.1966 10.603 0.16822 0.50464 2.5431-1.8494 3.4345-3.4044 0.47625-0.83077 1.4691-2.7606 2.2064-4.2886 2.1981-4.5554 3.0919-6.0939 4.2872-7.3789l1.1348-1.22-1.0224 2.9104c-0.56229 1.6007-2.2398 5.6489-3.7278 8.9958-3.1124 7.0007-4.4218 10.68-4.7604 13.377-0.3865 3.0781-0.1023 3.2388 1.4921 0.84372 1.669-2.5072 3.3451-5.8655 4.8525-9.7225 1.324-3.3879 1.5858-3.8018 1.4007-2.2148-0.24478 2.0987-1.1565 5.0752-2.664 8.6971-0.81768 1.9645-1.7135 4.4053-1.9906 5.424-0.53723 1.9744-0.96005 7.818-0.5634 7.7865 0.12944-0.0103 0.98921-1.5682 1.9106-3.4621 0.9214-1.8938 1.7306-3.388 1.7982-3.3204s-2e-3 1.1164-0.15391 2.3306c-0.15226 1.2142-0.27683 3.3322-0.27683 4.7065 0 2.683 0.46546 6.034 0.788 5.673 0.10827-0.12121 0.51784-1.5238 0.91015-3.1168 0.73119-2.9691 1.6454-5.4379 2.0138-5.4379 0.11394 0 0.29179 0.62508 0.39522 1.3891 0.23036 1.7016 1.3095 5.5046 1.8839 6.6394 0.41292 0.81569 1.1855 1.8317 1.2901 1.6966 0.0289-0.0373-0.10936-1.6151-0.30716-3.5063zm44.78 1.4969c0.45171-0.91247 1.085-2.8729 1.4073-4.3566 0.87163-4.0122 0.87351-4.0144 1.6557-1.8845 0.37018 1.008 0.94033 2.9043 1.267 4.214 0.83223 3.3365 0.80947 3.2857 1.1258 2.5135 0.42813-1.0449 0.56954-7.2962 0.22382-9.8942-0.17105-1.2854-0.2543-2.3938-0.18498-2.4631 0.0693-0.0693 0.93877 1.5066 1.9321 3.502l1.8061 3.628 0.0774-2.344c0.10205-3.0922-0.47761-5.8804-1.9738-9.4942-1.9869-4.7989-2.988-7.8783-3.1459-9.6762l-0.14932-1.7009 1.5538 3.7042c1.8221 4.3436 3.6708 7.9629 4.9668 9.7234 1.4678 1.994 1.7019 1.6628 1.1686-1.6536-0.41944-2.6087-1.8116-6.5068-4.3538-12.191-2.5377-5.6738-3.5788-8.1909-4.5247-10.94l-0.63031-1.832 0.699 0.64132c1.1431 1.0488 2.6194 3.5139 4.97 8.2987 1.2195 2.4824 2.656 5.0209 3.1922 5.6411 0.98458 1.1389 1.9171 1.8081 2.1688 1.5564 0.32937-0.32937-1.5212-4.9925-4.1757-10.522-3.0565-6.3672-4.2546-9.53-4.7878-12.64l-0.33023-1.9257-1.4635 0.18241c-0.80493 0.10032-1.5523 0.31914-1.6607 0.48627-0.52901 0.81509-1.2895 3.3058-1.4353 4.7009-0.14679 1.4044-0.0731 1.7538 0.73283 3.4769 0.83612 1.7875 0.89846 2.1102 0.93241 4.826 0.029 2.3211 0.14284 3.1247 0.5621 3.9688 1.4972 3.0142 2.5954 7.9997 2.3603 10.716-0.2193 2.5337-0.87572 4.1607-2.1965 5.4444l-1.1413 1.1092 0.15655 1.6842c0.18028 1.9394-0.20711 4.7997-0.97212 7.1776-0.63379 1.97-1.351 8.1819-0.93081 8.0616 0.15232-0.0436 0.64654-0.82584 1.0983-1.7383zm-34.301-10.746c0.54953-0.66214 2.4983-1.6814 4.6692-2.4422 1.9604-0.68698 2.3616-0.73195 6.5855-0.73818 4.2351-6e-3 4.6317 0.0372 6.7874 0.74389 1.2592 0.41278 2.9826 1.2063 3.8298 1.7634 1.1706 0.76971 1.6516 0.95331 2.0039 0.76477 0.69949-0.37436 1.0049-1.1279 1.0049-2.4795v-1.22l-0.9189 0.17238c-1.3704 0.25708-3.4412-0.32645-5.9603-1.6796-4.7092-2.5295-4.5634-2.4752-6.6269-2.4686-2.0579 6e-3 -1.9281-0.042-6.6023 2.4686-2.3949 1.2864-4.4194 1.8908-5.8617 1.7499-0.88212-0.0862-0.88549-0.0821-0.96576 1.1679-0.0673 1.048 0.0287 1.3637 0.58329 1.9182 0.76441 0.76441 1.0274 0.81426 1.4717 0.27894zm-0.39922-5.0411c4.1262-0.87406 8.1903-3.0671 10.552-5.694l1.1838-1.3167 1.6788 1.6732c2.1027 2.0956 4.787 3.6987 7.9547 4.7505 2.1954 0.729 2.8055 0.81735 5.7627 0.83449 4.1762 0.0242 5.5926-0.42193 7.5849-2.3891 2.1031-2.0765 2.6391-4.5131 1.8277-8.3074-0.20229-0.94588-0.64286-2.4342-0.97906-3.3073l-0.61127-1.5875-0.18455 1.7802c-0.10151 0.9791-0.32808 2.215-0.50349 2.7466-0.47821 1.449-1.9038 2.8504-3.7361 3.6726-1.4483 0.64997-1.8514 0.71746-3.528 0.59067-2.2337-0.16894-4.1802-0.97874-7.661-3.1873-1.3018-0.82594-2.5856-1.5017-2.8531-1.5017-0.26743 0-1.1074 0.3207-1.8665 0.71267-1.0074 0.52014-1.7734 0.71267-2.8355 0.71267-1.0621 0-1.8281-0.19253-2.8355-0.71267-0.75914-0.39197-1.5991-0.71267-1.8665-0.71267-0.26743 0-1.5471 0.67305-2.8437 1.4957-3.6116 2.2913-5.3469 3.0176-7.6211 3.1896-1.7467 0.1321-2.1306 0.0706-3.5173-0.56366-2.8601-1.3081-3.6619-2.4479-4.1635-5.9185l-0.33303-2.3042-0.70453 1.9844c-1.3064 3.6797-1.5059 6.0665-0.7312 8.7485 0.5803 2.0089 3.1365 4.1034 5.7636 4.7225 1.5672 0.36937 5.0558 0.31424 7.0664-0.11167zm-3.1446-8.8322c-0.08-0.1294-0.45408-0.31275-0.83135-0.40744-1.1898-0.29862-2.7568-1.4558-3.6096-2.6657-0.89636-1.2717-1.2657-1.3113-1.2657-0.13584 0 0.92778 1.0457 2.2258 2.3471 2.9135 0.96419 0.50949 3.6371 0.74458 3.3595 0.29548zm33.164-0.2823c1.3205-0.67368 2.404-1.9799 2.404-2.8982 0-1.1751-0.26302-1.1316-1.3316 0.22017-1.0663 1.349-2.2959 2.2424-3.4996 2.5428-1.2069 0.30122-1.1014 0.65277 0.19586 0.65277 0.68555 0 1.6597-0.22596 2.2313-0.51757zm-28.711-0.0478c0.55813-0.2543 0.63637-0.42795 0.50663-1.1245-0.22419-1.2036-0.47562-1.3368-1.0032-0.53163-0.25808 0.39388-0.7818 0.99154-1.1638 1.3281l-0.69457 0.61199 0.84744 8e-3c0.4661 5e-3 1.1445-0.12697 1.5075-0.29238zm22.339-0.69144c-0.51995-0.54571-1.0621-1.2135-1.2048-1.484-0.222-0.42082-0.29946-0.33428-0.53643 0.5993-0.24946 0.98282-0.22127 1.1302 0.28396 1.484 0.3085 0.21609 0.97531 0.39288 1.4818 0.39288h0.92087zm-24.536-1.5463c0.42875-0.41077 1.0218-1.4066 1.3178-2.213 0.74297-2.0237 2.3113-4.2362 3.4145-4.8172 0.50705-0.26701 1.3718-0.48547 1.9217-0.48547 0.91863 0 1.0454-0.094 1.5624-1.158 0.65511-1.3484 0.52133-2.6686-0.24756-2.443-1.2109 0.3553-4.8865 0.71588-6.5396 0.64154l-1.8521-0.0833 1.584-0.48863c2.732-0.84275 3.9765-1.7603 2.3876-1.7603-1.032 0-3.1763-0.91252-4.676-1.99-0.75318-0.54111-1.9075-1.2566-2.5652-1.59l-1.1957-0.60614 2.1665-0.46556c1.1916-0.25606 2.1665-0.55505 2.1665-0.66443 0-0.36625-3.2496-1.8277-4.0639-1.8277-1.534 0-0.30676-0.5485 1.5756-0.70421 1.9117-0.15813 1.8017-0.18525 7.2222 1.7798 1.626 0.58946 1.737 0.59657 2.8826 0.18463 1.0654-0.38313 1.2557-0.38632 1.7993-0.0302 0.33431 0.21905 0.88262 0.35933 1.2184 0.31172 0.4798-0.068 0.61061-0.25333 0.61061-0.86504 0-0.72959-0.14124-0.83528-2.249-1.6829-2.9254-1.1765-6.858-2.17-8.5667-2.1642-1.8501 6e-3 -4.6776 0.63619-6.4047 1.4268-1.6268 0.74479-1.6309 0.76028-1.1877 4.5832 0.19693 1.6989 0.14942 2.113-0.42341 3.6912-0.83207 2.2923-1.0612 4.7093-0.60189 6.3497 0.39337 1.405 2.9424 5.3742 4.5088 7.0208 0.96429 1.0137 1.0846 1.0639 2.2373 0.93399 0.85284-0.0961 1.452-0.36128 1.9977-0.88414zm6.3516-0.84176c0.39144-1.0289 1.0023-1.0117 2.9952 0.0842 1.5357 0.84452 2.1334 1.0294 3.3272 1.0294 1.1938 0 1.7915-0.18493 3.3272-1.0294 1.993-1.096 2.6038-1.1131 2.9952-0.0842 0.12599 0.33115 0.71409 0.87455 1.3069 1.2076l1.0778 0.60547 0.37114-0.73776c1.2264-2.4379 0.48129-4.6555-1.9902-5.9229-1.3466-0.69056-1.5319-0.64172-1.5319 0.40373 0 0.9646-0.45074 1.5942-1.3444 1.8778-0.77591 0.24626-0.87222 0.0279-0.39488-0.89514 0.66623-1.2883 0.52742-2.9024-0.36251-4.2154-1.2936-1.9087-1.723-5.404-0.93326-7.5962 0.45929-1.2749 0.45123-1.1906 0.11395-1.1906-0.15142 0-0.60875-0.24654-1.0163-0.54786-1.063-0.78591-2.0222-0.81029-3.1001-0.0788-0.50788 0.34466-1.0372 0.62666-1.1763 0.62666-0.32778 0-0.3241 0.0294 0.14405 1.1498 0.79254 1.8968 0.35471 5.7372-0.85604 7.5085-0.86615 1.2672-1.0822 3.1164-0.49633 4.2493 0.52697 1.019 0.52847 1.1153 0.0174 1.1153-0.70671 0-1.7078-1.2337-1.7078-2.1046 0-0.94142-0.20634-0.98215-1.5319-0.30236-2.4714 1.2674-3.2166 3.485-1.9901 5.9229l0.37113 0.73776 1.0778-0.60547c0.5928-0.33301 1.1809-0.87641 1.3069-1.2076zm23.265 0.75666c1.4878-1.564 4.1658-5.7034 4.51-6.9711 0.4135-1.5231 0.15349-4.1916-0.6143-6.3045-0.5491-1.5111-0.60662-1.9881-0.43079-3.5719 0.11161-1.0054 0.20904-2.3405 0.21651-2.967 0.0134-1.1254-4e-3 -1.147-1.4209-1.7959-2.1186-0.96993-4.9821-1.5063-7.1644-1.342-2.2601 0.17013-6.0176 1.2414-8.3344 2.3763-1.4334 0.70212-1.7198 0.95254-1.7198 1.5038 0 0.81292 0.91951 1.0323 1.8291 0.43629 0.54357-0.35616 0.73383-0.35297 1.7993 0.0302 1.1456 0.41194 1.2566 0.40483 2.8826-0.18463 5.4205-1.965 5.3105-1.9379 7.2222-1.7798 1.8375 0.152 3.1214 0.70421 1.6373 0.70421-0.78869 0-4.1256 1.4725-4.1256 1.8205 0 0.11331 0.97275 0.41504 2.1617 0.67053l2.1617 0.46452-1.3018 0.71238c-0.71597 0.3918-1.8859 1.1145-2.5998 1.606-1.4697 1.0118-3.5463 1.8698-4.5256 1.8698-1.589 0-0.34443 0.91758 2.3876 1.7603l1.584 0.48863-2.066 0.0776c-1.1363 0.0427-3.0974-0.10042-4.3579-0.31795-1.7703-0.3055-2.3379-0.32315-2.494-0.0776-0.33462 0.52642-0.23893 1.2088 0.32433 2.3129 0.47235 0.92588 0.6447 1.0478 1.4814 1.0478 2.169 0 3.8458 1.5687 5.1793 4.8454 1.1223 2.7579 1.9984 3.5692 3.8921 3.6045 0.71506 0.0133 1.1041-0.19691 1.8864-1.0193zm-50.096-10.871c0.27205-0.72074 0.24676-0.80505-0.27272-0.90908-10.356-2.074-15.464-5.1878-16.642-10.145-0.18035-0.75922-0.4115-1.3804-0.51366-1.3804-0.37478 0-0.52077 2.3159-0.21708 3.4437 0.5169 1.9196 3.2127 4.3808 6.6169 6.0409 2.5464 1.2418 9.3675 3.709 10.323 3.734 0.22276 6e-3 0.53995-0.3469 0.70487-0.78383zm71.352-0.54246c9.3608-3.1764 13.369-6.56 12.74-10.754-0.20053-1.3372-0.52961-1.2943-0.79181 0.10337-0.63354 3.3771-4.1547 6.5432-9.3174 8.3779-1.5777 0.5607-4.2647 1.2511-7.4027 1.9021-0.51925 0.10772-0.54465 0.19279-0.27273 0.9132 0.16492 0.43693 0.48212 0.79402 0.70487 0.79353 0.22276-5.3e-4 2.1755-0.60169 4.3395-1.336zm-69.365-4.23c0.72405-1.4629 2.0632-6.4711 2.0632-7.7161 0-0.8009-0.51113-0.99552-2.6284-1.0008-1.7152-4e-3 -3.4762 0.76072-4.2489 1.8459-0.70358 0.98808-0.68009 1.0609 0.34211 1.0609 1.0016 0 1.5099 0.39794 1.5041 1.1774-9e-3 1.2073-0.26653 1.2162-3.8388 0.13195-1.8883-0.57311-3.5523-1.0405-3.6978-1.0386-0.14552 2e-3 0.98557 0.73372 2.5135 1.6263 3.3224 1.9408 3.1174 1.779 2.6382 2.082-0.74247 0.46955-2.7386 0.30678-5.284-0.43089l-0.66146-0.19169 0.52885 0.59813c0.66472 0.75181 2.3085 1.7225 3.8454 2.2708 1.1411 0.40708 5.4039 1.1809 5.9444 1.0791 0.14552-0.0274 0.58632-0.69987 0.97954-1.4944zm67.338 0.90478c2.2026-0.45747 4.7174-1.6337 5.6493-2.6422l0.64567-0.69884-0.66146 0.206c-2.1752 0.67746-4.5592 0.85758-5.284 0.39923-0.47926-0.30309-0.68428-0.14129 2.6382-2.082 1.528-0.89254 2.6591-1.622 2.5135-1.621-0.14552 1e-3 -1.8097 0.46804-3.6982 1.0379-3.5723 1.078-3.8294 1.0689-3.8384-0.13654-6e-3 -0.77946 0.50252-1.1774 1.5041-1.1774 1.0222 0 1.0457-0.0728 0.34211-1.0609-0.77269-1.0852-2.5337-1.8502-4.2489-1.8459-1.9564 5e-3 -2.6284 0.21766-2.6284 0.83215 0 1.7314 1.6263 7.5046 2.4819 8.8104 0.46318 0.7069 1.0948 0.70404 4.5846-0.0208zm-42.727-0.053c0.39497-0.39496-0.65566-1.2969-1.9014-1.6324-0.5924-0.15952-1.9291-0.2551-2.9704-0.2124l-1.8932 0.0776 1.084 0.74953c1.9255 1.3314 4.8444 1.8542 5.681 1.0176zm17.84-0.45308c0.74894-0.36561 1.5204-0.856 1.7144-1.0898 0.32081-0.38655 0.12573-0.41376-2.1555-0.30065-2.6435 0.13108-3.6517 0.44255-4.1822 1.2921-0.27803 0.4452-0.2395 0.55191 0.27884 0.77217 0.88821 0.37743 2.7976 0.0813 4.3444-0.67383zm1.065-9.2491c1.9168-0.21414 4.4766-0.56391 5.6885-0.77725s3.8704-0.68106 5.9077-1.0394c5.696-1.0018 9.4745-1.3047 14.729-1.1807 3.9337 0.0928 4.6842 0.053 4.2993-0.22848-0.86643-0.63355-9.7479-5.0516-12.546-6.2411-11.102-4.719-24.892-7.5112-33.536-6.7903-8.5787 0.71546-16.98 2.7163-25.598 6.0968-2.8255 1.1082-13.266 6.1714-14.243 6.907-0.41605 0.31338 0.21308 0.34932 4.4465 0.25398 5.7784-0.13013 8.5815 0.13363 16.808 1.5815 3.2742 0.57627 7.3819 1.2066 9.1281 1.4006 4.587 0.50976 20.41 0.52073 24.916 0.0173zm-29.282-16.734 2.5136-0.69992 13.097-0.091c13.937-0.0969 15.555-2e-3 19.523 1.1481 1.2336 0.35749 2.2914 0.60154 2.3506 0.54233 0.0592-0.0592-0.20647-1.3613-0.59041-2.8935l-0.69806-2.7858-2.5679-1.1919c-2.9128-1.3519-6.1156-2.4039-9.0214-2.963l-1.9844-0.38181 4.101 0.11151c2.2556 0.0613 4.9735 0.24758 6.0398 0.41388 1.0663 0.16629 2.0036 0.23755 2.0828 0.15835 0.30001-0.30001-2.5905-8.4122-4.7033-13.2-0.69065-1.565-1.1684-2.7914-1.0616-2.7254 0.10678 0.066 0.89989 1.0285 1.7625 2.1389 1.1303 1.455 1.9378 2.208 2.8912 2.6961 1.4097 0.72163 2.9447 1.8448 7.081 5.1811l2.5831 2.0835 1.518-1.3242c0.83488-0.72832 2.0488-1.8699 2.6975-2.5368 0.64876-0.66692 1.3143-1.2126 1.4789-1.2126 0.16463 0 0.43484 0.29744 0.60048 0.66098 0.33954 0.7452 2.447 3.114 2.6181 2.9429 0.20601-0.20601-2.7843-5.9856-3.0964-5.9847-0.0741 2.2e-4 -1.3017 1.0122-2.728 2.249-1.4262 1.2367-2.6764 2.2477-2.7781 2.2466-0.10172-1e-3 -2.4471-1.9189-5.212-4.2619-8.4051-7.1226-10.891-8.8799-14.904-10.534-5.2521-2.1656-9.3381-1.9693-14.83 0.7123l-1.9522 0.95329-1.1855 2.5314c-2.8624 6.1121-6.993 16.995-6.5997 17.388 0.0766 0.0766 1.0117 3e-3 2.078-0.16314 1.0663-0.1663 3.7842-0.35254 6.0398-0.41388l4.1011-0.11151-1.9844 0.38181c-2.9 0.55798-6.1072 1.6103-9.001 2.9535l-2.5475 1.1824-0.70805 2.7321c-0.38942 1.5027-0.70804 2.8188-0.70804 2.9248 0 0.106 0.26789 0.11377 0.59531 0.0173 0.32742-0.0965 1.7264-0.49042 3.1088-0.87538z" fill="#fff"/>
</g>
</svg>
