<svg width="436.082" height="315.466" viewBox="0 0 115.38 83.467" xmlns="http://www.w3.org/2000/svg"><g fill="#fff"><path d="M115.243.003c-.163-.031-.48.222-.759.62-.32.457-2.29 2.663-4.379 4.905l-3.798 4.075-.105-1.398c-.058-.77-.141-1.399-.184-1.399-.043 0-.96.31-2.036.688s-2.116.688-2.31.688c-.216 0-.353-1.26-.353-3.249V1.685l-2.494 1.132c-6.256 2.84-8.835 3.28-19.18 3.281-11.961.001-16.89 1.038-20.795 4.373l-1.356 1.159-1.052-1c-1.45-1.378-4.235-2.708-7.363-3.519-2.881-.746-7.182-1.02-17.427-1.112-7.378-.066-9.523-.497-14.88-2.989l-2.838-1.32v3.247c0 3.699.05 3.653-2.818 2.564-1.236-.47-1.866-.565-2.026-.307-.127.206-.151 1.373-.053 2.593l.178 2.217-.995-.219a27.9 27.9 0 0 1-1.992-.535c-1.638-.518-1.85-.395-2.55 1.49-.65 1.747-.722 1.813-2.175 1.98l-1.502.17.097 4.473c.053 2.46.25 7.105.438 10.322.188 3.216.487 9.951.665 14.965.178 5.015.475 11.285.66 13.934a432.9 432.9 0 0 1 .564 10.579c.133 3.336.37 5.762.563 5.762.184 0 .307-.58.274-1.29-.155-3.359.29-3.9.537-.653.114 1.497.026 1.983-.4 2.22-.3.169-.49.587-.423.93.11.57.515.615 4.766.532 2.554-.05 5.186-.137 5.848-.192.662-.056 5.694-.352 11.182-.658 5.487-.307 12.362-.71 15.277-.895 8.544-.545 12.104-.451 14.578.383 2.448.825 4.004.738 6.191-.347l1.453-.72 13.707.77 13.097.738c.122-.562.3-1.178.534-1.857.38-1.102.704-1.938 1.069-2.67-.12-.005-.287-.01-.336-.014-.821-.079-1.43.039-1.596.308-.188.306-.102.37.293.22.309-.12.653-.068.765.113.26.421-.683.416-3.556-.021-1.266-.193-2.999-.41-3.85-.483-2.48-.21-2.639-.266-1.549-.543 1.485-.378 2.865-.405 2.297-.045-.644.408 3.774.82 4.785.445.623-.23.068-.39-2.467-.709-1.798-.226-3.573-.305-3.942-.174-.606.213-.621.181-.153-.32.477-.511.89-.499 5.16.15.848.128 2.583.276 4.5.422.244-.42.52-.821.84-1.237-2.856-.198-5.294-.403-5.465-.506-.162-.096-1.08-.237-2.043-.312-1.79-.14-2.24-.304-1.864-.68.126-.126 5.104.31 9.934.805l.046-.055-.016-.004c-.52-.13-1.72-.368-2.666-.53-.946-.16-2.262-.457-2.925-.657l-1.204-.364 1.548.147c2.325.22.344-.393-2.193-.68-1.864-.21-1.978-.273-1.465-.786.435-.435.648-.466.973-.142.228.229.646.416.928.416.384 0 .345-.127-.155-.506-.506-.382-.542-.506-.152-.508.284-.002.904.3 1.377.67.473.37 1.315.676 1.871.68.97.008.984-.015.344-.52-.659-.519-.658-.525.02-.476 1.398.102 2.237-.038 2.237-.373 0-.192-.948-.346-2.15-.348-1.183-.002-2.709-.096-3.39-.208-1.158-.192-1.216-.26-.863-1.007.359-.76.412-.771 1.062-.22.646.547.659.546.219-.023-.42-.54-.37-.602.494-.602.529 0 1.28.27 1.67.602.676.573.688.573.244 0-.59-.761-.103-.775 1.003-.028.468.316.742.452.61.303-.289-.323.637-1.334 1.012-1.107.144.087.453-.05.688-.304.56-.606.018-.924-1.099-.643-.642.16-.876.084-.876-.287 0-.28-.32-.915-.713-1.414-.591-.751-.62-.906-.172-.906.636 0 .743-.68.111-.707-.237-.01.421-.334 1.462-.72 3.027-1.126 3.785-1.477 3.785-1.754 0-.143.237-.26.526-.26.29 0 .616-.232.725-.516.11-.284.414-.516.677-.516s1.077-.541 1.81-1.204c.733-.662 1.497-1.204 1.696-1.204.2 0 .434-.271.52-.602.087-.331.176 1.033.198 3.033l.04 3.634-.933.445c.114.11.324.31.38.366.07.058.134.11.188.14.032.015.06.024.09.032.196-.128.368-.248.494-.351.045-.15.052-.29.052-.29l.178.016a.038.038 0 0 0-.01-.02c-.115-.116-.037-.21.173-.21.266 0 .352-1.269.283-4.137-.091-3.736-.034-4.211.588-4.903.425-.472.614-.556.495-.218-.107.3-.056.765.113 1.032.2.317.309-.2.312-1.493.004-1.56.162-2.135.744-2.717l.739-.739-.227 7.017c-.134 4.125-.102 6.805.078 6.501.168-.283.414-3.833.548-7.888l.243-7.373 3.054-5.897-.183 2.409c-.1 1.324-.498 6.24-.883 10.924-.457 5.561-.587 8.719-.373 9.1.374.668.592-.912.912-6.607a249.08 249.08 0 0 1 1.409-15.654c.403-3.261.69-4.472 1.194-5.01.372-.4.674-1.228.687-1.892.014-.65.167-1.492.34-1.87.293-.64.171 3.012-.194 5.848-.073.568-.312 4.05-.532 7.74-.219 3.69-.594 8.877-.834 11.526-.399 4.415-.439 4.587-.477 2.064-.022-1.513.188-5.992.469-9.951.28-3.96.433-7.276.34-7.369-.092-.093-.168.31-.168.893s-.146 1.112-.326 1.175c-.182.064-.4 3.07-.492 6.823-.092 3.69-.247 8.49-.345 10.665-.123 2.696-.08 3.573.131 2.753.224-.868.267-.3.155 2.03-.085 1.78-.16 3.715-.166 4.301-.009.898-.066.97-.364.457-.195-.335-.27-.955-.165-1.376.104-.422.1-.574-.008-.336-.11.238-.329.352-.488.253-.16-.098-.393.146-.52.542-.062.197-.277.446-.573.69l.176.195c.415.45.818.965 1.201 1.52.036-.01.072-.02.104-.02.19 0 .249.155.132.344l-.01.011c1.452 2.205 2.585 4.979 2.904 7.19.984-.05 1.419-.178 1.432-.405.015-.237.084-.738.154-1.114.131-.705.254-6.618.15-7.23-.032-.188-.048-.808-.035-1.375l.023-1.032-.397 1.204-.397 1.204-.23-1.376c-.125-.757-.25-1.028-.277-.602-.027.425-.19.774-.361.774-.171 0-.235-.349-.142-.774.136-.622.097-.673-.199-.258-.297.415-.377.315-.414-.516-.026-.568-.011-1.187.033-1.377.043-.189.125-1.04.183-1.892.057-.851.117-1.635.133-1.742.017-.107.628-.53 1.358-.941 1.659-.932 1.63-.725 2.116-15.034.2-5.866.512-12.585.696-14.93.183-2.345.332-6.492.332-9.214 0-4.034-.093-4.985-.505-5.143-.367-.14-.464-.583-.358-1.623 1.11-10.806 1.29-12.988 1.086-13.191a.113.113 0 0 0-.06-.031zm-14.87 2.734c.393-.179.316 14.656-.078 14.9-.21.13-.373-1.813-.439-5.227l-.104-5.433-.077 5.881-.076 5.88-1.682 2.377c-.925 1.307-3.297 4.504-5.271 7.104-6.286 8.28-8.721 14.454-8.653 21.935.02 2.176.212 4.394.427 4.93.388.97.385.973-.73.74-.617-.129-1.388-.567-1.715-.974-.327-.407-.598-.592-.602-.412-.004.18.457.808 1.027 1.395l1.035 1.068-1.035.991c-1.276 1.222-1.368 1.863-.129.888 1.056-.83 2.363-.971 2.076-.223-.104.27-.586 1.12-1.073 1.892l-.886 1.402-4.898.003c-7.984.003-13.898 1.218-17.387 3.572-1.655 1.117-2.548.946-1.063-.204 1.984-1.535 2.278-1.842 2.082-2.166-.535-.886-.297-1.153.538-.606.851.558.867.553.633-.185-.156-.49-.096-.757.169-.757.294 0 .306-.124.042-.442-.277-.335-.204-.443.302-.443.368 0 .67.105.67.233 0 .129.27.336.601.461.567.214.566.191-.009-.389-.336-.34-.878-.618-1.204-.62-.352-.003-.638-.32-.703-.779-.15-1.056.224-.964 1.781.438 1.378 1.241 1.997 1.577 1.252.68-.464-.56-.353-.63.487-.308.298.115.441.371.319.57-.13.21-.058.259.174.116.527-.326.507-.89-.033-.905-.59-.015-2.126-1.331-1.863-1.594.117-.117.42-.04.676.172.724.602 2.884.028 2.462-.655-.109-.176-.024-.32.187-.32.212 0 .279-.17.15-.38-.142-.228-.322-.251-.451-.057-.37.558-2.342.298-3.19-.42l-.81-.686.793.9c.699.792.725.925.227 1.116-.311.12-.707.13-.879.024-.172-.106-.313-.034-.313.16 0 .195-.24.261-.535.148-.295-.113-.457-.413-.36-.666.098-.253.006-.567-.205-.697-.231-.143-.285-.08-.137.161.135.219.09.397-.098.397-.646 0-.74-.638-.123-.833.476-.152.61-.545.59-1.734-.014-.846-.16-1.659-.322-1.807-.163-.149-.185-.077-.049.16.257.446-.195.601-.592.204-.346-.346.479-1.172.924-.928.215.119-.024-.217-.532-.746-.905-.943-.94-.95-1.835-.364-1.051.689-.928 1.136.153.557.533-.285.879-.285 1.32-.003.546.352.542.368-.053.18-1.273-.403-2.297.725-1.956 2.156.014.06.27-.133.567-.43.614-.614 1.049-.686 1.336-.221.109.175-.115.418-.496.539-.71.225-.967.861-.349.861.19 0 .344-.163.344-.364s.142-.277.315-.17c.173.107.38.078.46-.065.08-.144.097-.067.04.17-.058.236.083.432.314.435.265.004.23.127-.097.336-.283.182-.786.247-1.116.144-.466-.145-.547-.048-.363.438.225.595.208.596-.37.023-.335-.332-.776-.602-.98-.602-.206 0-.132.27.163.602.453.507.464.67.069 1.032-.564.516-1.187.562-1.187.086 0-.19.271-.35.602-.355.534-.01.542-.059.072-.43-.596-.473-.816-1.967-.288-1.967.188 0 .237-.17.109-.38-.432-.698-.526-6.91-.112-7.408.214-.258.254-.47.089-.47s-.3-.94-.3-2.088c0-1.958.075-2.152 1.204-3.129 1.142-.987 1.148-1.003.12-.32-.598.397-1.16.721-1.248.721-.397 0-.238-5.275.174-5.783.26-.321.279-.446.046-.307-.282.17-.406-.813-.443-3.519-.048-3.499-.004-3.769.65-3.976.386-.123.701-.398.701-.612 0-.277-.119-.271-.413.023-.49.49-.963.538-.963.098 0-.172.65-.792 1.444-1.376.794-.584 1.326-1.062 1.181-1.062-.144 0-.794.406-1.444.902-1.598 1.219-1.508.457.109-.912.71-.601.95-.921.535-.712-.415.21-.85.536-.966.724-.116.189-.363.342-.548.342-.434 0-.314-6.494.126-6.765.184-.114.133-.32-.12-.476-.317-.196-.08-.49.823-1.023 1.513-.893 1.694-1.262.253-.517-.558.288-1.1.525-1.204.525-.104 0-.189-.796-.189-1.77 0-1.526.145-1.907 1.06-2.781 1.095-1.047 1.147-1.765.067-.917-.565.443-.572.43-.1-.17.59-.747 2.723-2.148 4.03-2.645.75-.285.83-.263.494.142-.302.364.088.321 1.583-.172 3.688-1.219 6.313-1.664 9.831-1.67 2.39-.003 3.341-.111 2.99-.338-.345-.223 1.536-.336 5.634-.34 7.056-.006 10.91-.68 14.491-2.54a138.36 138.36 0 0 1 2.323-1.189zm-85.758.022c.103.05 1.06.526 2.126 1.059 3.685 1.842 7.496 2.642 12.673 2.659 7.12.022 15.355.551 18.408 1.182 3.336.69 7 2.307 8.3 3.665l.96 1.001.082 26.741c.054 17.395-.034 26.5-.25 26.054-.266-.55-.298-.465-.162.43.196 1.291-.125 1.416-1.04.403-.946-1.044-3.7-2.25-7.031-3.078-2.289-.57-4.341-.76-9.46-.879-3.595-.083-8.355-.205-10.578-.27-3.799-.113-4.99.123-3.312.655.71.226 1.583.423 2.107.477.142.014.258.175.258.359 0 .183-.217.25-.481.148-.265-.101-.583-.019-.708.183-.143.23.17.368.84.368.826 0 1.044-.136.966-.602-.092-.548.331-.606 4.716-.64 3.511-.028 4.21.026 2.58.199l-2.236.236 2.752.054c1.885.037 2.59-.051 2.236-.28-.441-.285-.429-.334.086-.338.33-.003.602.15.602.338 0 .19.164.345.364.345.2 0 .269-.155.152-.345-.117-.189-.058-.343.131-.343.19 0 .45.171.58.38.169.274.306.267.486-.025.184-.297.404-.254.817.16.312.311.566.4.566.197 0-.409 1.808-.51 2.195-.123.135.135.819.267 1.52.293 1.966.074 5.742 1.08 7.617 2.031 2.394 1.213 2.448 1.626.089.673-1.092-.44-3.837-1.137-6.1-1.547-3.553-.642-4.848-.715-9.45-.528-12.5.508-15.938.864-11.869 1.228 1.136.102 2.152.068 2.258-.075.26-.35 14.27-.492 17.566-.179 1.442.138 3.042.41 3.555.605.514.195 1.06.277 1.216.18.287-.176 4.364 1.983 4.993 2.646.45.475.11.34-2.219-.884-1.032-.542-3.044-1.194-4.473-1.449-3.48-.62-13.509-.623-17.047-.005-1.514.265-3.99.598-5.504.74-1.514.143-2.52.337-2.237.43.284.095.63.342.769.55.171.257.254.233.258-.075.004-.288.243-.377.66-.245.361.115 2.137-.044 3.947-.353 4.899-.835 4.774-.414-.158.534-5.392 1.035-9.783 1.064-15.613.103-2.615-.43-5.689-1.496-5.689-1.973 0-.144 1.436.003 3.44.352 1.186.207 1.193.201.435-.356-.423-.31-1.235-.728-1.806-.927-.647-.225-1.036-.6-1.036-.996 0-.903-.576-1.141-.79-.326-.098.376-.027.684.158.684s.094.243-.204.54c-.297.298-.54.694-.54.881 0 .187-.178.23-.395.096-.27-.167-.34.034-.224.642.118.62.004.928-.38 1.028-.478.126-.54-.282-.481-3.156.05-2.408-.055-3.395-.39-3.652-.252-.194-.536-.659-.63-1.033-.155-.608-.177-.598-.213.095-.032.622-.243.774-1.072.774-.92 0-1.032-.113-1.032-1.046 0-1.003.056-1.042 1.367-.965.751.044 1.472-.024 1.6-.153.281-.281-.53-12.654-.862-13.145-.128-.19-.136-1.041-.016-1.893l.216-1.547.092 1.547c.05.852.167 1.249.26.882.094-.366 0-2.533-.205-4.816-.538-5.962-.766-11.59-.418-10.343.184.657.224-.029.112-1.892-.212-3.489-.409-3.982-.47-1.176-.029 1.3-.27-.14-.668-3.985-.574-5.552-.612-4.945-.171 2.753.154 2.698.14 2.777-.171 1.032-.496-2.78-.581-11.318-.116-11.622.208-.136.479-.48.6-.763.123-.284.159.567.08 1.891-.11 1.846-.073 2.127.157 1.204.22-.88.27-.372.185 1.893-.071 1.938-.017 2.646.144 1.892.18-.84.271-.965.303-.413.025.435.428 5.699.895 11.697.467 5.998.939 13.756 1.048 17.24.185 5.852.569 8.274 1.161 7.316.128-.207.041-2.822-.194-5.81-.235-2.987-.675-8.76-.978-12.828-.303-4.068-.915-11.33-1.36-16.137-.444-4.807-.726-8.955-.625-9.218.1-.262.357-.402.57-.31.214.092 1.026.344 1.805.56l1.418.393.219 3.497c.12 1.923.377 8.451.57 14.506.193 6.055.5 14.338.683 18.406.184 4.068.334 7.822.335 8.343.001.624.184.946.536.946.4 0 .452-.145.206-.584-.191-.342-.204-.907-.03-1.364.173-.456.165-.861-.02-.975-.174-.108-.3-.617-.281-1.131.055-1.507-1.071-31.654-1.443-38.608-.419-7.84-.383-9.12.169-6.02l.429 2.408.046-1.978c.026-1.088.158-1.979.293-1.979s.9.25 1.696.554l1.45.553.027 4.77c.025 4.4-.02 4.755-.578 4.58-.575-.178-.575-.169-.003.2.743.477.815 1.445.087 1.165-.284-.109-.517-.027-.517.183 0 .209.194.342.43.295.544-.11.68 11.35.14 11.684-.196.12-.257-.01-.144-.306.11-.285.065-.735-.1-1-.263-.427-.27.09-.02 1.855.02.153.154.207.296.12.142-.088.28.62.308 1.575.035 1.218-.051 1.592-.288 1.256-.235-.332-.258-.216-.075.383.432 1.414.507 6.935.09 6.677-.24-.148-.234.015.017.484.549 1.025.464 1.335-.155.56-.487-.612-.49-.58-.048.364.703 1.498.962 3.542.47 3.708-.296.1-.278.29.068.708.322.391.346.572.074.572-.287 0-.3.186-.043.666.503.939.47 3.23-.04 2.914-.245-.15-.304-.095-.156.146.134.216.382 1.053.553 1.86.193.909.28-8.716.229-25.285-.046-14.714.003-26.712.106-26.665zm1.413 1.45c-.02.003-.03.011-.03.024 0 .296 4.23 2.232 4.817 2.204.284-.013-.034-.226-.707-.474a30.057 30.057 0 0 1-2.666-1.187c-.695-.354-1.279-.586-1.414-.566zm98.201.312c.035-.004.043.053.022.178-.111.638-.204 1.877-.207 2.752-.004 1.144-.097 1.446-.334 1.075-.228-.357-.268-.135-.13.72.19 1.182.133 1.27-1.282 1.97-.813.402-1.527.684-1.585.625-.058-.058.759-1.95 1.816-4.205.897-1.911 1.55-3.096 1.7-3.115zm-3.657 1.597c.44 0 .768 1.554.483 2.295-.213.553-.271.525-.482-.23-.131-.474-.255-1.131-.273-1.463-.02-.33.103-.602.272-.602zm-13.037.344c-.018.017.087.157.3.43.45.573.733.755.733.472 0-.072-.271-.343-.602-.602-.273-.214-.413-.318-.43-.3zm-16.14.387c-.12.005-.223.036-.28.094-.115.114.089.195.451.18.401-.017.483-.098.208-.208a.945.945 0 0 0-.38-.066zm28.46.346c.099-.029.059.262-.149.802-.118.308-.286.487-.375.398-.088-.088.003-.444.204-.789.152-.261.261-.393.32-.41zm-4.901.77c.03-.001.05.003.06.011.066.067.202.643.302 1.282.157 1-.07 1.503-1.649 3.643-1.007 1.366-1.933 2.488-2.058 2.494-.125.007-.203-1.397-.172-3.118l.055-3.131 1.7-.645c.818-.311 1.548-.53 1.762-.536zm3.675.618c.057-.025.12.8.149 2.015.049 2.052-.091 2.822-.745 4.098l-.806 1.571-.723-1.548c-.397-.851-.644-1.161-.548-.688.097.473.257 1.247.357 1.72.18.85-.517-.759-1.024-2.365-.177-.562-.14-.744.123-.582.233.145.381-.052.381-.51 0-.852 1.978-3.517 2.412-3.249.159.098.339-.081.4-.398.008-.04.016-.06.024-.064zm-93.508 1.22c-.019-.004-.04.113-.063.366-.073.81-.071 2.048.003 2.752.074.705.134.043.133-1.47h-.001c-.001-1.041-.03-1.64-.072-1.648zm97.725 1.83c.19 0 .112.15-.172.334-.283.184-.67.333-.86.333s-.112-.15.172-.333c.284-.183.671-.334.86-.334zM7.083 12.697c-.12.005-.222.037-.28.094-.114.114.09.195.452.18.401-.016.483-.098.208-.208a.945.945 0 0 0-.38-.066zm97.35.981-.207.95c-.16.732-.123.832.159.435.216-.305.368-.352.371-.114.003.22.098.686.21 1.032.17.524.142.543-.167.114-.33-.459-.37-.459-.361 0 .005.284.22 1.29.476 2.236.432 1.591.415 1.811-.238 2.925-.388.662-1.017 1.778-1.398 2.48-.733 1.35-1.26 1.418-1.28.166-.007-.415-.218-1.124-.468-1.575l-.455-.82-.231.922c-.127.507-.138 1.109-.024 1.337.115.228-.017.138-.293-.2-.472-.576-.515-.56-.72.256-.123.493.009 1.408.305 2.117.618 1.48.656 2.335.145 3.29-.346.647-.441.572-1.21-.969-.458-.92-.767-1.323-.687-.897.092.493.01.691-.225.546-.232-.143-.292-.023-.16.322 1.11 2.89 1.076 3.353-.475 6.518-1.505 3.07-2.02 3.637-2.037 2.246-.016-1.283-2.273-7.671-2.516-7.122-.12.275-.126.113-.01-.36.222-.907 3.213-5.118 3.654-5.145.142-.01.258.216.258.5 0 .284.15.516.333.516.184 0 .246.271.14.602-.162.504-.134.518.168.09.231-.328.243-.633.033-.843-.669-.67-.294-1.99 1.085-3.816.778-1.03 1.552-1.79 1.72-1.685.168.103.305-.046.305-.332 0-.693.733-2.272 1.054-2.272.367 0 .958 1.848 1.219 3.812.286 2.16.802 2.197.786.058-.015-2.114-.614-4.138-1.03-3.482-.189.3-.3.325-.303.07-.003-.222-.11-.673-.236-1.003-.157-.41-.102-.522.172-.352.253.156.403.008.403-.397 0-.356.39-.986.867-1.401l.868-.755zm-44.15.491c-.136.01-.45.127-.935.378-.568.293-1.032.607-1.032.696 0 .222.037.21 1.118-.377.804-.437 1.074-.713.848-.697zm-58.77 1.238c.486 0 .698 1.495 1.22 8.601.903 12.314 1.022 16.103.524 16.703-.754.909-.915.047-1.3-6.968h-.001c-.2-3.634-.528-6.913-.728-7.288-.482-.9-.466-2.344.029-2.65.28-.174.331-1.416.175-4.32-.122-2.268-.086-4.078.082-4.078zm110.519.785c.239-.014.298.22.298.856 0 .565-.23 1.219-.512 1.452-.282.234-.417.58-.3.769.116.189-.002.479-.263.644-.284.18-.316.302-.08.305.464.007.069 2.166-.528 2.885-.207.249-.291.536-.188.64.103.103-.299 1.685-.893 3.515-.873 2.684-1.242 3.387-1.911 3.642-.457.173-.83.413-.83.533 0 .12.227.13.505.024.948-.364.894.43-.064.95-.526.285-.802.527-.613.537.19.01.112.17-.172.353-.44.285-.429.334.086.339.921.008.716.594-.344.981l-.946.346.86.043c.85.042.848.048-.172.546l-1.032.504 1.118-.167c1.262-.188 1.262-.187.73.982-.285.623-.76.915-1.766 1.085-.972.164-1.237.322-.901.534.376.239.35.302-.127.306-.331.003-.602.17-.602.37 0 .2-.155.268-.344.151-.19-.116-.344-.048-.344.152s-.272.362-.603.359c-.52-.004-.53-.055-.085-.372.38-.27.115-.31-1.02-.15-1.835.257-1.724-.02.18-.45 1.33-.3 1.34-.312.495-.674-.473-.203-.627-.381-.343-.396.389-.02.41-.094.085-.3-.326-.207-.26-.457.272-1.027l.702-.754h-.852c-.468 0-1.252.153-1.743.34-.8.304-.857.274-.558-.286.207-.386 1.095-.797 2.332-1.077 1.099-.25 1.803-.522 1.566-.605-.238-.083-.332-.314-.209-.513.151-.244-.186-.286-1.03-.127-1.476.277-1.764-.359-.307-.68 2.107-.465 2.707-.84 1.025-.642l-1.642.194.954-2c2.297-4.821 2.183-4.678 4.22-5.316 1.746-.545 1.783-.577.474-.407-2.49.323-2.431-1.22.072-1.89.855-.228 1.467-.56 1.358-.735-.108-.176.077-.479.412-.674.478-.278.498-.36.093-.376-.392-.016-.352-.152.172-.566.668-.529.66-.54-.25-.382-1.125.194-1.52-.596-.938-1.874.279-.611.815-.933 1.989-1.192.884-.196 1.879-.473 2.21-.616a.957.957 0 0 1 .304-.09zm.16 4.441c.098-.023.138.083.138.325 0 .683-.463 1.146-.634.633-.072-.217.04-.568.25-.778.106-.105.187-.166.246-.18zm-50.538 2.44c-.076-.01-.205.072-.415.246-.283.236-.516.462-.516.501 0 .04.233.073.516.073a.51.51 0 0 0 .517-.501c0-.203-.025-.308-.102-.319zm-6.957.093c-.021.002-.044.08-.069.244-.08.523-.077 1.297.005 1.72.081.424.146-.005.144-.95-.003-.65-.035-1.018-.08-1.014zm56.712.201a.095.095 0 0 1 .08.031c.097.097-.305 1.682-.895 3.521-.589 1.84-1.147 3.267-1.242 3.172-.094-.094.246-1.462.756-3.04.51-1.58.99-3.087 1.066-3.35.057-.198.15-.324.235-.334zm-4.413.307c-.19 0-.577.15-.86.334-.285.183-.362.333-.173.333.19 0 .577-.15.86-.333.284-.183.362-.334.173-.334zM61.59 25.435c-.104-.009-.282.177-.568.53-.267.33-.296.477-.067.34.253-.152.462.05.556.536.109.57.162.478.196-.34.03-.718.017-1.054-.117-1.066zm-48.47 1.1c-.032.005-.07.057-.11.16-.1.249-.087.545.027.66.114.114.195-.089.18-.452-.01-.25-.046-.376-.098-.368zm89.104 1.257c.216 0-5.456 11.035-8.443 16.428-1.18 2.129-2.291 3.87-2.47 3.87-.179 0 .24-1.045.93-2.322l3.675-6.795c4.217-7.8 6.125-11.18 6.308-11.18zm-89.147.238c-.065.01-.094.295-.098.88-.009 1.41.1 1.623.346.683.087-.335.047-.915-.09-1.29-.067-.186-.12-.279-.158-.273zm-8.528.977c.03-.015.05.049.057.204.046 1.037-.33 3.142-.526 2.946-.073-.072.008-.967.177-1.99.116-.703.227-1.126.292-1.16zm87.761 1.238c.099-.029.06.262-.148.802-.118.308-.287.487-.376.398-.089-.088.003-.443.204-.788.152-.262.26-.394.32-.412zm.872.781c.03.003.085.072.168.207.176.284.422.903.549 1.376.16.598.133.703-.089.344-.175-.284-.422-.903-.549-1.377-.1-.373-.127-.554-.079-.55zm-1.861.379.012.877c.011.853-.533 1.703-1.09 1.703-.15 0-.275-.215-.275-.478s.304-.844.676-1.29l.677-.812zm-29.61.704a.648.648 0 0 0-.156.042c-.324.124-.402.298-.193.427.194.12.41 1.066.481 2.102.128 1.873.13 1.87.193-.427.048-1.735.001-2.18-.324-2.144zm30.44.331c.195-.099 1.62 3.372 1.58 3.88-.011.135-.402-.596-.869-1.623-.466-1.028-.793-2.034-.725-2.236.003-.011.008-.018.015-.021zm-31.257.112-1.118.74c-.615.407-1.118.806-1.118.888 0 .257.146.168 1.204-.742l1.032-.886zm-5.877.34c-.016-.036-.035.175-.055.663a84.337 84.337 0 0 0 0 5.676c.063 1.561.116.284.116-2.838 0-2.147-.025-3.421-.06-3.5zm38.113.13c.06 0 .162.097.276.275.184.284.334.67.334.86s-.15.112-.334-.172c-.183-.284-.333-.671-.333-.86 0-.071.02-.105.057-.104zm-80.324.07c-.154-.055-.248.31-.248.996 0 1.507.19 1.645.45.327.102-.52.042-1.093-.132-1.273a.192.192 0 0 0-.07-.05zm78.842.033.924 2.064c1.35 3.016 1.83 5.016 1.422 5.929-.36.807-.931.738-.931-.112 0-.28-.37-1.237-.821-2.13-1.81-3.579-1.915-4-1.221-4.92l.627-.831zm-86.846.236c.106-.013.188.309.188 1.077 0 1.294-.349 3.331-.57 3.331-.077 0-.111-.934-.077-2.075.04-1.36.283-2.31.46-2.333zm1.041.145c-.02-.012-.043.058-.068.22a7.6 7.6 0 0 0 0 1.893c.079.52.143.095.143-.946 0-.716-.03-1.14-.075-1.167zm98.945.177c-.12.005-.222.037-.28.094-.114.115.09.196.452.18.401-.016.482-.097.208-.207a.945.945 0 0 0-.38-.067zm-44.439.735c-.013-.02-.2.068-.572.248-.425.206-.774.447-.774.535 0 .263.178.187.88-.375.32-.257.48-.387.466-.408zm28.805.03c.052-.008.088.118.098.369.015.362-.066.566-.18.451-.115-.114-.127-.411-.028-.66.041-.103.079-.155.11-.16zm-28.085.224c-.018-.017-.157.087-.43.3-.573.45-.755.733-.472.733.071 0 .342-.271.602-.602.214-.273.318-.413.3-.43zm43.378.387c-.12.005-.223.037-.28.094-.114.115.09.196.452.18.4-.016.482-.097.208-.207a.945.945 0 0 0-.38-.067zm-1.376.345c-.12.005-.223.036-.28.093-.114.114.09.196.452.181.4-.017.482-.098.208-.208a.945.945 0 0 0-.38-.066zm-13.039.064c.075.007.25.226.453.581.27.473.492 1.015.492 1.204 0 .19-.222-.043-.492-.516-.27-.473-.492-1.014-.492-1.204 0-.047.014-.068.039-.065zm-1.68.582c.318 0 .201 1.277-.237 2.58-.171.509-.126.486.175-.086.224-.426.501-.774.615-.774.35 0 3.13 5.711 3.116 6.403-.006.357-.215 1.015-.463 1.461-.443.8-.465.784-1.539-1.118-.598-1.061-1.134-1.93-1.189-1.93-.055 0-.032.579.05 1.286.136 1.16.096 1.24-.415.816-.521-.433-.525-.392-.049.52.721 1.383.628 1.835-.179.867-.78-.936-.907-.554-.15.448.555.733.67 1.568.217 1.568-.159 0-.475-.407-.701-.904-.227-.498-.495-.822-.597-.72-.101.1.06.655.357 1.23.607 1.175.688 1.77.24 1.77-.165 0-.399-.49-.518-1.087-.12-.599-.318-.986-.442-.863-.687.687-1.803-2.936-1.148-3.726.222-.268.305-.648.183-.846-.122-.197-.048-.359.165-.359.235 0 .304-.304.176-.774-.166-.607-.137-.657.133-.231.238.375.194 1.044-.143 2.162-.268.891-.348 1.534-.177 1.428.17-.105.486.083.7.418.366.568.379.569.194.008a32.404 32.404 0 0 0-.428-1.204c-.2-.523-.125-.512.57.085l.799.689-.628-.976c-.355-.552-.49-1.075-.311-1.204.174-.126.332-.422.35-.659.092-1.144.171-1.195.88-.569l.741.655-.577-.897c-.317-.494-.48-1.152-.36-1.463.27-.706.005-.722-.678-.038-.47.47-.513.427-.404-.43.154-1.215 1.251-3.536 1.671-3.536zm1.685 1.1c.06.001.16.098.276.275.183.284.333.671.333.86 0 .19-.15.112-.333-.172-.184-.283-.334-.67-.334-.86 0-.07.022-.104.058-.103zm-83.851.599c-.02 0-.043.091-.067.284-.076.619-.075 1.547.004 2.064.079.517.141.012.14-1.124h-.001c-.002-.78-.032-1.224-.076-1.224zm84.88.127c.075.007.25.227.453.582.27.473.491 1.014.491 1.204 0 .189-.22-.044-.491-.517-.27-.473-.492-1.014-.492-1.204 0-.047.014-.068.039-.065zm-85.854.007a.037.037 0 0 1 .02.011c.104.104.066 1.085-.083 2.182-.15 1.097-.338 1.705-.419 1.351-.08-.353-.043-1.335.084-2.181.12-.794.292-1.378.398-1.363zm7.167 1.93c-.02 0-.043.091-.066.284-.077.619-.075 1.548.004 2.065.078.517.14.01.139-1.125-.003-.78-.034-1.224-.077-1.224zm91.54.15c.04.003.067.01.077.02.21.21-2.675.81-3.876.806-.568-.002.04-.216 1.35-.477 1.147-.227 2.16-.37 2.448-.349zm1.14.346-.488.942c-.498.962-1.122 1.21-3.246 1.283-.857.03-1.06-.05-.704-.276.354-.223 0-.35-1.204-.431l-1.705-.114 1.72-.265a67.508 67.508 0 0 0 3.673-.702l1.954-.437zm-42.865.212c-.18 0-.609.31-.951.688-.343.379-.498.688-.345.688s-.007.315-.355.7c-.36.398-.86.614-1.16.499-.29-.112-.417-.093-.283.042.135.134.072.452-.139.706-.622.749-.224.533 1.422-.775 1.982-1.575 1.998-1.593 1.193-1.333-.584.189-.565.12.135-.498.446-.394.664-.717.483-.717zm41.06 2.409c.435 0 .418.165-.106 1.054-.395.67-1.726 1.688-3.652 2.79-1.666.955-2.964 1.802-2.882 1.884.082.082.71-.183 1.396-.588 1.597-.942 1.64-.623.05.36-.659.408-1.352.646-1.54.53-.188-.117-.772.021-1.296.306-1.134.615-1.47.662-1.47.206 0-.186.735-.715 1.633-1.176.9-.461 1.944-1.092 2.323-1.401.378-.31-.053-.167-.958.317-1.877 1.001-2.503 1.08-3.186.397-.413-.413-.178-.573 1.64-1.117 1.167-.35 1.859-.686 1.538-.748-.32-.062-.583-.324-.583-.583 0-.645.59-.958.804-.427.11.273.184.22.202-.14.021-.459.543-.621 2.612-.815 1.422-.134 2.67-.38 2.773-.546.103-.167.418-.303.702-.303zm-5.687.386a.945.945 0 0 1 .38.067c.274.11.193.191-.208.208-.363.015-.566-.067-.452-.18.057-.058.16-.09.28-.095zm-94.754.314c.065-.013.115.164.115.434 0 .31.31.728.688.93.846.453.867.852.087 1.64-.575.578-.613.527-.833-1.117-.127-.949-.166-1.79-.086-1.87.01-.009.02-.015.029-.017zm58.18.242a.203.203 0 0 0-.079.025c-.184.107-.146.251.089.33.228.075.323.287.21.469-.126.203-.395.173-.698-.079-.272-.225-.602-.301-.734-.17-.132.132-.012.4.266.595.407.285.369.326-.194.205-.475-.102-.7.026-.7.4 0 .598 1.44.871 1.77.337.107-.173.324-.233.482-.135.159.098.2-.158.093-.569-.163-.623-.087-.705.458-.496.618.237.616.215-.03-.414-.33-.32-.72-.523-.932-.498zm40.574.793c-.365-.02-2.996 1.332-2.996 1.54 0 .228-.015.234 1.72-.695.851-.456 1.426-.836 1.276-.845zm-5.874.104c.052-.008.088.118.098.368.015.363-.066.566-.18.452-.115-.114-.127-.411-.027-.66.04-.102.078-.155.11-.16zm16.103.337a.339.339 0 0 1 .192.06c.19.117.344.368.344.557s-.155.248-.344.131c-.19-.117-.344-.367-.344-.557 0-.118.06-.185.152-.19zm-105.575.161c-.027-.014-.058.038-.091.163-.087.335-.081.8.013 1.032.095.233.166-.04.159-.608-.005-.355-.037-.563-.081-.587zm.675.918c-.02.007-.043.04-.067.099a1.328 1.328 0 0 0 0 .86c.095.236.173.043.173-.43 0-.355-.043-.552-.106-.53zm-4.948.237c.022-.01.106.176.272.55.188.426.503.774.698.774.195 0 .355.532.355 1.182 0 .878.176 1.236.688 1.399.631.2 1.021 1.257.43 1.163-.98-.155-1.081.11-.898 2.363.232 2.859.22 2.537.125 3.355-.121 1.032-.276.049-.528-3.356-.123-1.666-.363-2.925-.536-2.818-.173.106-.316-.55-.318-1.46-.004-.91-.084-2.042-.182-2.515-.085-.416-.127-.625-.106-.637zm100.065.384c.186.014.341.178.341.51 0 .365-.237.66-.53.66-.292 0-.485-.233-.43-.516.086-.44.378-.672.619-.654zm-40.703.119c-.083.012-.094.164-.094.465 0 .357.139.564.309.459.17-.105.444.022.609.283.165.26.302.305.305.098.003-.208-.271-.627-.609-.933-.285-.258-.438-.385-.52-.372zm51.532.126c.102.02.143.542.154 1.699.023 2.271-.376 2.664-.55.542-.054-.654.043-1.541.216-1.97.074-.186.133-.28.18-.271zm-100.84.485a.244.244 0 0 0-.135.041c-.193.12-.261.36-.152.537.295.477.501.388.501-.216 0-.222-.088-.358-.213-.362zm88.04.398c.169-.011.248.086.248.288 0 .274-.426.655-.946.845-1.384.505-1.728.45-.946-.153.83-.64 1.362-.96 1.644-.98zm-9.118.856c.05.003.077.057.077.165 0 .208-1.275 2.542-2.315 4.24-.27.442-.572.725-.668.628-.097-.097.392-1.193 1.087-2.435.93-1.662 1.6-2.61 1.819-2.598zm-5.58.093c.112.017.289.196.48.554.212.395.24.718.065.718-.176 0-.417-.254-.536-.565-.184-.48-.15-.728-.008-.707zm1.144.24c.168 0 .385.31.484.688.213.812-.275.933-.579.143-.277-.722-.264-.832.095-.832zm-26.113.118c-.152.006-.35.098-.636.276-.404.252-.734.577-.734.723s.302.076.671-.155c.568-.354.773-.302 1.33.341.765.882.79.887 1.34.261.326-.372.31-.558-.072-.876-.268-.222-.665-.293-.884-.158a.483.483 0 0 1-.657-.174c-.101-.164-.207-.244-.358-.238zm1.383.57c.189 0 .344.154.344.343a.345.345 0 0 1-.689 0c0-.189.155-.344.345-.344zm37.15.133c1.376.034-.087.782-2.846 1.394-.528.117-.868.363-.754.547.114.184.159.335.1.335-.058.001-1.035.385-2.17.853-2.414.994-2.237.95-2.237.544 0-.177.558-.523 1.24-.77 1.155-.417 1.185-.462.431-.653-.638-.161-.38-.304 1.214-.671 1.41-.325 1.832-.534 1.389-.69-.535-.187-.483-.261.327-.465.53-.133 1.278-.14 1.665-.018.386.122.62.09.52-.073-.1-.162.263-.31.807-.33.117-.005.221-.006.313-.003zm-6.596.235c.474.02.454.079-.107.32-.92.395-.932.395-.687 0 .116-.19.474-.334.794-.32zm3.879.362c-.12.005-.223.037-.28.094-.114.114.089.196.452.18.4-.016.482-.098.207-.207a.944.944 0 0 0-.38-.067zm-36.18.057c-.411.025-1.006.339-1.006.625 0 .392.379.384 1.022-.023.278-.176.416-.41.307-.519-.068-.068-.185-.091-.322-.083zm41.73.692c-.04-.004-.064.032-.066.112-.005.214.212.573.485.8.273.226.56.825.637 1.332.107.698.153.604.192-.39.029-.74-.089-1.223-.271-1.11-.178.11-.483-.075-.678-.41-.122-.21-.232-.327-.299-.334zm-95.209.087c-.02.002-.044.08-.068.244-.08.523-.078 1.297.004 1.72.082.423.147-.005.144-.95-.002-.651-.034-1.018-.08-1.014zm87.592.54c-.12.006-.222.037-.28.094-.114.114.09.196.452.181.401-.016.482-.098.208-.208a.944.944 0 0 0-.38-.066zm3.24.011c.19.002-.275.296-1.032.654-.757.358-1.531.644-1.72.635-.19-.01.275-.304 1.032-.654.757-.35 1.531-.636 1.72-.634zm2.454.753c-.031.005-.068.058-.11.161-.099.248-.086.545.028.66.114.114.195-.09.18-.452-.01-.25-.046-.376-.098-.369zm-39.975.226c.083 0 .247.155.364.344.117.19.049.344-.152.344-.2 0-.364-.155-.364-.344 0-.19.068-.344.152-.344zm48.23.119c-.031.004-.069.057-.11.16-.1.249-.087.545.027.66.115.114.196-.09.181-.452-.01-.25-.046-.376-.098-.368zm-13.464.884-.86.519c-.473.285-1.092.518-1.376.52-.459 0-.459-.03 0-.29.284-.161.903-.395 1.376-.52l.86-.229zm-6.676.373c.348 0 .185.442-.479 1.298-.51.66-.696.24-.257-.58.21-.395.542-.718.736-.718zm11.837.402c-.022.004-.046.07-.072.204-.082.428-.079 1.047.006 1.376.086.33.153-.021.15-.778-.002-.52-.036-.81-.084-.802zm-92.844.06c-.031.006-.069.058-.11.161-.1.248-.087.546.027.66.115.114.196-.09.181-.452-.01-.25-.046-.376-.098-.368zm52.379.226c-.19 0-.248.155-.131.344.117.189.367.344.556.344.19 0 .248-.155.132-.344-.117-.19-.368-.344-.557-.344zm8.363 1.032c-.095 0 .108.31.45.688.343.378.7.688.795.688.095 0-.108-.31-.45-.688-.343-.378-.7-.688-.795-.688zm-61.82.059c.048-.009.083.281.085.802.004.756-.063 1.107-.15.778-.086-.33-.089-.949-.005-1.377h-.001c.025-.134.05-.199.071-.203zm80.793.285c.165 0 .206.245.091.544-.115.3-.209.675-.209.834 0 .16-.4.766-.89 1.348-.49.582-.776 1.059-.635 1.059.14 0-.024.31-.367.688-.69.764-1.166.955-.56.226.21-.254.291-.552.18-.664-.256-.255 1.983-4.035 2.39-4.035zm-72.223.249c-.081.01-.182.079-.312.2-.362.335-.355.583.034 1.338.262.51.34 1.011.17 1.115-.168.104-.412-.235-.542-.754-.219-.87-.272-.896-.685-.331-.401.55-.468.555-.66.057-.302-.789-.253-1.095.09-.555.24.38.322.377.472-.015.112-.292-.066-.494-.462-.524-.828-.062-.777 1.358.102 2.832.562.943.615.965.617.258 0-.425.156-.774.345-.774s.346.194.35.43c.003.302.08.316.258.047.425-.646 2.495-.31 4.896.794 2.189 1.006 3.008 1.216 3.246.831.113-.183.088-.406-.057-.494-.643-.389-3.836-1.189-4.019-1.007-.11.111-.202.005-.202-.236s-.223-.352-.498-.247c-.306.118-.435.026-.334-.239.095-.245-.37-.685-1.084-1.026-.688-.327-1.327-.891-1.422-1.253-.085-.324-.167-.465-.303-.447zm93.288.369c-.026-.015-.058.037-.09.163-.088.334-.082.799.012 1.032.095.232.166-.042.16-.61-.005-.354-.037-.561-.082-.585zM60.6 57.65c.157-.015.318.053.518.2.656.484.683 1.502.047 1.746-.262.1-.382.03-.266-.157.243-.394.096-.423-.663-.132-.845.325-.645.824.488 1.22.59.205 1.03.603 1.027.927-.003.326-.113.422-.258.225-.14-.19-.563-.538-.941-.775a13.207 13.207 0 0 0-1.462-.766c-.426-.184-.774-.601-.774-.928 0-.461.092-.501.413-.18.227.227.575.408.774.401.199-.006-.026-.336-.499-.733-.785-.66-.796-.703-.122-.493.45.14.927.04 1.223-.257.185-.184.338-.283.495-.298zm-.042.582c-.426.015-.865.235-.865.56 0 .418.596.389.863-.043.119-.192.4-.247.623-.122.295.166.304.117.033-.178-.148-.16-.398-.226-.654-.217zm2.78.534c.4.014 1.515.857 1.515 1.145 0 .35-.186.265-1.032-.468-.436-.379-.654-.683-.483-.677zm49.405.161-.037 1.032c-.02.568-.203 1.63-.406 2.362-.375 1.352-.195 2.97.332 2.97.16 0 .372-.912.473-2.027.102-1.115.061-2.547-.089-3.182l-.273-1.155zm-45.081.248c-.108-.01-.301.016-.592.069-1.187.215-1.375.412-.588.618.345.09.826-.05 1.07-.31.232-.25.29-.362.11-.377zm18.842.612c.164 0 .46.464.659 1.032.346.995.323 1.032-.655 1.032-.557 0-1.014-.165-1.014-.367 0-.562.675-1.697 1.01-1.697zm10.7.07c.036.156.163.274.313.274.112 0 .32-.073.56-.17a20.537 20.537 0 0 1-.874-.104zm-42.445.082c-.104.005-.13.073-.055.195.202.327.858.484.858.205 0-.074-.24-.227-.534-.34a.715.715 0 0 0-.269-.06zm41.857 0a.716.716 0 0 0-.269.06c-.347.134-.523.271-.517.365.116.035.242.067.37.098a.758.758 0 0 0 .471-.328c.076-.122.05-.19-.055-.195zm2.294.192c-.018.017.086.157.3.43.1.127.189.229.271.317l.385.035a3.877 3.877 0 0 0-.526-.483c-.273-.214-.412-.317-.43-.3zm-3.68.007c.042.02.088.04.134.06a.241.241 0 0 0-.134-.06zm-84.158.111c-.176-.04-.238.225-.175.765.09.76.48 1.147 1.903 1.88 3.01 1.55 9.735 2.995 9.735 2.09 0-.42-.885-.725-2.104-.725-.558 0-1.9-.296-2.982-.658-1.082-.362-2.431-.732-2.999-.822-1.638-.26-2.924-.987-2.924-1.652 0-.337-.167-.715-.37-.841a.283.283 0 0 0-.084-.037zm83.576.105a3.705 3.705 0 0 0-.34.217c-.034.026-.047.039-.078.062.115.16.252.282.327.282.088 0 .16-.163.16-.362a.34.34 0 0 0-.07-.199zm3.5.145a.154.154 0 0 0-.108.042c-.053.053-.03.13.048.208l.594.054-.025-.027c-.175-.176-.375-.28-.509-.277zm-39.472.035c.176-.02.232.127.133.384-.105.275.05.593.344.706.578.222.742.915.217.915-.176 0-.57-.25-.876-.556-.6-.6-.557-1.21.099-1.43a.42.42 0 0 1 .083-.019zm29.498.084a.208.208 0 0 1 .069.029c.19.117.344.436.344.708 0 .273-.155.496-.344.496-.19 0-.344-.32-.344-.709 0-.34.118-.554.275-.524zm-33.15.2c-.083 0-.151.155-.151.344 0 .19.164.345.364.345s.269-.155.152-.345c-.117-.189-.281-.344-.365-.344zm38.93.037c-.09.095-.073.142.071.17a20.7 20.7 0 0 1-.07-.17zm12.363.122c-.02.008-.044.04-.067.1a1.33 1.33 0 0 0 0 .86c.095.236.173.043.173-.43 0-.355-.044-.553-.106-.53zm-13.572.228c-.12.005-.222.036-.28.093-.114.115.089.196.452.181.4-.016.482-.098.208-.207a.948.948 0 0 0-.38-.067zm-69.532.155c-.149.008-.211.071-.145.179.185.3 1.185.451 1.185.18 0-.073-.31-.213-.689-.312a1.194 1.194 0 0 0-.351-.047zm23.775.189c-.12.005-.223.036-.28.094-.114.114.09.195.452.18.4-.016.482-.098.208-.207a.945.945 0 0 0-.38-.067zm-29.432.131c-.173-.007-.356.085-.567.267-.267.23-.425.387-.351.347.073-.04.589.164 1.145.451.977.506 1 .5.643-.167-.321-.6-.582-.886-.87-.898zm93.545.17c-.084 0-.152.156-.152.345 0 .19.164.344.364.344s.27-.155.152-.344c-.117-.19-.28-.344-.364-.344zm-56.012.12c-.031.004-.068.057-.11.16-.099.248-.087.545.028.66.114.114.195-.09.18-.452-.01-.25-.046-.376-.098-.368zm28.895.02c.024-.002.043.003.056.016.101.101-.078.473-.398.827s-.643.959-.717 1.344c-.286 1.485-1.944 4.467-2.682 4.823-1.017.49-1.027.49-.736-.01.137-.237.688-.995 1.224-1.684 1.01-1.3 1.246-1.879.602-1.481-.552.34.552-1.662 1.607-2.916.44-.523.874-.9 1.044-.918zm-23.77.36c.311.02-.152 1.156-.871 1.802-.473.426-.894.778-.935.784-.042.007-.056-.537-.03-1.208.034-.918.17-1.172.549-1.026.277.106.7.03.94-.169.16-.134.274-.188.346-.183zm-56.997.19c.164 0 .26.348.216.773-.044.426-.1 1.355-.125 2.064-.071 2.1-.388 1.47-.388-.774 0-1.135.134-2.064.297-2.064zm74.662 0c.19 0 .44.154.557.343a.8.8 0 0 0 .622.339c.246-.003.205-.14-.106-.341-.365-.238.007-.315 1.276-.265.986.04 1.63.171 1.433.294-.198.122-.347.36-.33.528.016.168-3.029.333-6.766.367-4.618.041-7.455.223-8.858.567-2.64.646-3.046.647-1.572.005 1.385-.604 8.72-1.622 9.966-1.383.473.09 1.226.025 1.674-.145.521-.199 1.068-.174 1.52.068.515.276.644.275.474 0-.129-.208-.079-.378.11-.378zm-27.138.028c-.34.013-.282.12.172.315.945.406 1.489.406.86 0-.284-.184-.748-.325-1.032-.315zm8.239.488c-.162-.009-.196.111-.1.36.222.579.348.618.611.191.105-.17-.033-.394-.306-.498a.712.712 0 0 0-.205-.053zm51.815.652a.353.353 0 0 0-.216.05c-.477.295-.388.501.217.501.295 0 .438-.157.32-.35a.422.422 0 0 0-.32-.202zm-28.207.55c-.094 0-.337.31-.54.689-.202.378-.29.688-.196.688.095 0 .337-.31.54-.688.203-.379.291-.688.196-.688zm-6.906.394c.904-.012 1.844.106 2.162.363.303.247.452.28.33.076-.146-.243.25-.367 1.137-.357.749.01 1.359.099 1.356.2-.022.772-1.043.901-7.22.915-7.075.016-9.571.386-12.303 1.829-1.274.672-1.802.84-1.802.57 0-.267 2.933-1.835 4.128-2.207a17.326 17.326 0 0 1 2.408-.53c.663-.087 1.205-.18 1.205-.208 0-.028.746-.11 1.658-.182.913-.071 2.119-.231 2.68-.355.633-.139 1.224-.057 1.55.214.343.284.61.316.76.092.177-.265 1.046-.407 1.95-.42zm-13.072.306c.19 0 .112.15-.172.333-.284.184-.67.334-.86.334s-.112-.15.172-.334c.284-.183.671-.333.86-.333zM4.103 65.98c.083 0 .247.155.364.344.117.19.048.345-.152.345s-.364-.155-.364-.345c0-.189.068-.344.152-.344zm5.869.01c-.19 0-.112.15.172.334.283.183.67.334.86.334s.112-.15-.172-.334c-.284-.184-.671-.333-.86-.333zm58.829.334c.662 0 1.204.123 1.204.275 0 .151-.542.211-1.204.134-.662-.077-1.204-.2-1.204-.275 0-.074.542-.134 1.204-.134zm-24.943.04c.28 0 .561.02.774.062.426.082.078.149-.774.149-.851 0-1.2-.067-.774-.15.213-.04.494-.06.774-.06zm-18.549.002c-.12.005-.222.037-.28.094-.114.115.09.196.452.18.401-.016.482-.097.208-.207a.945.945 0 0 0-.38-.067zm-20.232.014c.038-.001.104.026.196.083.219.135.397.556.397.936 0 .547-.192.668-.919.582-.506-.06-.983-.302-1.06-.539-.09-.271.194-.43.767-.43.6 0 .825-.135.663-.397-.095-.154-.108-.234-.044-.235zm9.423.065c-.076-.001-.127.007-.146.025-.074.074.715.38 1.751.682 2.053.597 6.423.747 6.423.221 0-.18-1.277-.33-2.838-.334-1.561-.004-3.37-.165-4.02-.356-.487-.143-.942-.233-1.17-.238zm34.176.252c.284-.01.748.132 1.032.315.629.407.086.407-.86 0-.454-.195-.512-.302-.172-.315zm27.178.01c.342 0 .686.02.946.059.52.078.094.143-.946.143-1.041 0-1.467-.065-.947-.143.26-.04.604-.06.947-.06zm-7.57.347c.219 0 .437.022.603.065.33.087.06.157-.602.157-.663 0-.933-.07-.602-.157a2.51 2.51 0 0 1 .602-.065zm-32.998 0a.945.945 0 0 1 .38.067c.275.11.193.191-.208.208-.362.015-.566-.067-.451-.18.057-.058.16-.09.28-.094zm7.368.046 1.72.028-2.064.228c-1.135.125-2.683.234-3.44.24-1.29.012-1.27-.005.344-.256a24.47 24.47 0 0 1 3.44-.24zm-8.17.234c.056.005.086.015.086.032 0 .132-1.742.567-3.871.965-5.407 1.012-5.266.996-8.515.994l-2.924-.003 3.44-.28v.001c1.892-.154 5.337-.648 7.655-1.1 2.028-.394 3.734-.642 4.128-.609zm35.866.067c.156 0 .311.023.43.071.236.096.043.174-.43.174s-.667-.079-.43-.174c.118-.048.274-.071.43-.071zm-4.469.016c.264 0 .784.095 1.372.283.692.221.725.278.172.286-.378.005-.997-.123-1.376-.286-.438-.188-.431-.283-.168-.283zm-14.346.087c.062-.019.327.064.839.235 1.167.39 1.434.65.667.65-.247 0-.75-.231-1.118-.512-.305-.234-.449-.354-.388-.373zm54.369.235-.024.014c.454.357 1.006.942 1.515 1.591l.02-.025c-.242-.314-.49-.615-.727-.87a9.864 9.864 0 0 0-.1-.102 7.14 7.14 0 0 0-.211-.214l-.046-.042a4.171 4.171 0 0 0-.231-.202c-.068-.054-.131-.102-.196-.15zm-41.719.003a.947.947 0 0 1 .38.067c.275.11.193.191-.208.208-.363.015-.565-.066-.451-.18.057-.058.16-.09.279-.095zm-27.323.008c.492-.018.178.142-1.261.508-1.598.407-4.918 1.032-8.601 1.62-2.465.393-11.223.192-13.671-.314-1.449-.299-2.952-.782-3.34-1.074-.686-.515-.687-.524-.019-.29 3.38 1.18 5.028 1.384 11.01 1.372 5.361-.01 6.792-.137 10.665-.94 2.619-.545 4.584-.86 5.217-.882zm8.183.301c3.829-.007 4.226.565.533.77l-2.236.123 2.551.066c1.404.037 2.47.148 2.371.247-.1.1-2.176.326-4.615.503-2.44.176-6.139.711-8.22 1.189-2.081.477-5.448 1.057-7.482 1.287-2.035.23-3.699.562-3.699.736 0 .175-.232.124-.517-.112-.307-.254-.936-.345-1.548-.222-.609.121-1.031.061-1.031-.147 0-.23-.202-.24-.582-.027-.403.226-.827.166-1.376-.194-.503-.329-.795-.38-.795-.137 0 .211-.348.372-.774.357-.515-.018-.603-.094-.264-.228.28-.11.695-.385.921-.61.27-.27 1.335-.372 3.102-.298 1.658.07 2.362.01 1.832-.159-.652-.207-.028-.377 2.58-.705 1.892-.237 5.299-.74 7.57-1.117 7.297-1.213 8.197-1.315 11.679-1.322zm60.091.01-.024.002c.07.066.203.158.355.239.017.006.033.014.052.02.106.033.195.077.27.129l-.005-.008a1.138 1.138 0 0 0-.27-.143 1.118 1.118 0 0 1-.363-.222l-.015-.017zm-42.084.019c.097-.004.002.086-.272.296-.408.315-.264.355.689.192 1.014-.174.905-.075-.689.628-1.04.46-2.124.843-2.408.852-.284.01-.158-.127.28-.303.438-.175.709-.46.602-.634-.107-.173.154-.238.58-.145.622.136.673.097.258-.199-.283-.203-.412-.37-.286-.374.127-.002.513-.097.86-.21.2-.064.328-.1.386-.103zm-41.515.002c-.374.001-.736.021-.994.06-.517.08-.01.142 1.124.14 1.135-.003 1.558-.066.94-.143a9.032 9.032 0 0 0-1.07-.057zm82.684.05-.042.004c-.106.103-.21.194-.273.226-.292.15-.707.25-1.39.323-.006.003-.032.007-.032.01 0 .01-.081.012-.182.01-.124.012-.27.022-.41.033-.072.028-.443.044-.897.055-.189.01-.365.012-.547.017.276-.002.556-.004.779-.008 1.462-.071 2.24-.18 2.677-.413a2.29 2.29 0 0 0 .221-.165c.03-.027.063-.06.096-.092zm-10.391.232a4.437 4.437 0 0 1-.04.415l.022.003c.009-.052.02-.108.026-.156.007-.086.013-.173.016-.257l-.024-.004zm-85.922.049c.189 0 .73.22 1.204.491.473.27.705.492.515.492s-.73-.222-1.204-.492c-.473-.27-.705-.491-.515-.491zm66.602.014c.749 0 1.51.016 2.106.05 1.19.068.305.123-1.965.124-2.27 0-3.244-.055-2.164-.123a34.8 34.8 0 0 1 2.023-.051zm31.345.078c.015.013.026.03.04.044l.008-.004c-.012-.012-.021-.025-.035-.037l-.006-.001-.007-.002zm-8.991.042c.44.124 1.008.21 1.69.257.16.003.353.006.587.007-.136-.004-.26-.014-.39-.021-.379-.013-.654-.031-.693-.058-.085-.009-.174-.018-.254-.029-.064.002-.115-.002-.13-.015-.055-.008-.101-.02-.155-.029-.074.01-.14.006-.147-.01-.002-.006-.04-.02-.072-.031-.105-.021-.198-.046-.293-.07h-.143zm9.113.09-.01.007a.608.608 0 0 1 .058.113c-.003-.017-.005-.043-.01-.058-.01-.022-.024-.042-.038-.063zm-13.13.017-.019.024.038.004.017-.022-.037-.006zm-10.972.126.688.017c.379.01 1.153.135 1.72.28l1.032.262-1.032.016c-.567.01-1.341-.116-1.72-.279l-.688-.296zm-30.252.021c.361-.014 2.213.918 2.213 1.139 0 .086-.54-.1-1.2-.415-.66-.315-1.139-.633-1.064-.708.01-.01.027-.015.051-.016zm24.763.298c1.822.025 1.77.16 1.45.68-.288.466-.665.642-1.122.52a9.517 9.517 0 0 0-1.548-.231c-.7-.04-.634-.1.344-.32.694-.156-.983-.217-3.956-.145-3.58.087-4.687.034-3.613-.175.852-.165 3.524-.312 5.938-.326 1.083-.006 1.9-.01 2.507-.003zm-34.247.019a2.51 2.51 0 0 0-.602.065c-.332.087-.06.157.602.157s.933-.07.602-.157a2.51 2.51 0 0 0-.602-.065zm63.922.074a1.93 1.93 0 0 1-.023.165 1.255 1.255 0 0 0-.02.2c0 .022 0 .044.002.065v.017l.007.055.033-.008c-.002-.08 0-.179.004-.311.002-.065-.002-.12-.002-.183zm-3.086.053c-.81 0-1.071.02-1.177.588l.025.01c.021-.12.045-.213.073-.27.113-.238.25-.28.99-.3.657-.019.97.018 1.003.116.009.028-.082.165-.202.305a2.46 2.46 0 0 0-.504.881l.02-.006c.107-.316.248-.597.406-.755.517-.517.46-.569-.633-.569zm-3.495.083a.552.552 0 0 0-.283.06l-.006.004.057.007a.445.445 0 0 1 .188-.042c.114 0 .214.038.302.106l.055.007a.527.527 0 0 0-.313-.142zm-7.152.031c-.117.173-.23.347-.336.521l.026.001c.107-.172.22-.346.34-.52l-.03-.002zm.742.05-.004.003c-.02.022-.044.059-.066.086.026-.033.052-.061.078-.089h-.008zm.325.022a1.716 1.716 0 0 1-.175.43c.09-.175.162-.334.175-.43zm.273.018c-.038.168-.083.347-.133.533l.017.002c.048-.184.093-.364.131-.534l-.015-.001zm-54.252.014c-.12.005-.223.036-.28.093-.114.114.09.196.452.181.4-.016.482-.098.208-.208a.945.945 0 0 0-.38-.066zm46.788 0a.945.945 0 0 1 .38.066c.274.11.193.192-.208.208-.363.015-.566-.066-.452-.18.058-.058.16-.09.28-.094zm-5.929.057c.026.017-.13.145-.444.397-.548.44-1.668.823-1.196.41.079-.07.53-.31 1.004-.535.405-.193.61-.288.636-.272zm27.421.178a.757.757 0 0 1-.024.012c.176.241.345.485.494.726.027.033.064.082.075.09l.023.024a12.819 12.819 0 0 0-.568-.852zm-7.726.084c.03.07.055.145.077.23l.033-.01c-.012-.043-.023-.086-.035-.123l-.018-.05c-.006-.017-.015-.03-.023-.045l-.034-.002zm-7.203.06c-.015.025-.029.055-.044.082.016-.027.029-.057.044-.083zm-42.706.004c.105-.003.418.032.925.093 1.674.2 3.193.819 3.193 1.299 0 .182-.237.134-.527-.107s-1.336-.647-2.323-.902c-1.044-.27-1.444-.38-1.268-.383zm48.362.023c-.037.013-.075.023-.113.034.007 0 .015 0 .024.002.029-.009.057-.017.087-.028 0-.004.002-.005.003-.008zm-.13.04a1.452 1.452 0 0 1-.372.06.439.439 0 0 0-.086.011c-.024.008-.053.014-.075.023l-.026.009-.055.025c-.11.057-.22.153-.323.266l.03.003c.116-.12.237-.213.36-.27.002-.002.012-.01.012-.012 0-.017.06-.029.148-.038a.635.635 0 0 1 .126-.015.97.97 0 0 0 .248-.047c.001-.008.007-.012.013-.016zm-43.616.02c.144.001.284.055.357.174.12.192-.025.35-.32.35s-.537-.069-.537-.152c0-.227.258-.372.5-.371zm38.499.013-.008.011h.001l.007-.011zm-1.287.106a7.612 7.612 0 0 0-.3.561l.024.002v-.002c.077-.168.185-.36.302-.56l-.026-.001zm.743.046c-.098.19-.19.387-.254.573l.017.001c.052-.149.12-.321.21-.518.008-.02.019-.036.028-.055zm.433.029c-.006.01-.01.018-.017.027a8.53 8.53 0 0 1-.382.537l.017.002c.14-.177.275-.375.39-.565l-.008-.001zm.421.028c-.052.187-.11.38-.174.583l.025.001c.06-.197.116-.391.168-.583l-.019-.001zm12.722.07-.024.026c.143.298.38.614.72.954.071.071.131.137.193.204 0-.003-.01-.016-.009-.016.001 0-.009-.012-.009-.014l-.13-.152c-.393-.44-.6-.714-.724-.967l-.017-.036zm-8.956.21a2.445 2.445 0 0 0-.32.56l.019.002.02-.051c.092-.2.198-.367.31-.51l-.03-.001zm-63 .064c-.119.005-.221.037-.278.094-.115.114.088.195.45.18.402-.016.483-.097.209-.207a.947.947 0 0 0-.38-.067zm-4.803.001a1.405 1.405 0 0 0-.478.075c-.232.094.041.166.609.159.567-.007.758-.085.423-.172a2.176 2.176 0 0 0-.554-.062zm70.685.077.008.056.006.001-.003-.056-.01-.001zm8.146.007c-.001.001.003.006 0 .006-.006 0 .022.066.046.124.498.882 1.056 2.299 1.486 3.66.012.027.034.087.037.09a.11.11 0 0 1 .028.07.76.76 0 0 0 .01.083l.096.318.001.002c.015 0 .028.05.034.113.02.068.039.135.057.203.002 0 .002.002.003.002.012.004.019.018.024.035-.43-1.57-1.103-3.444-1.706-4.513-.035-.063-.077-.128-.116-.193zm-46.773.222c.246.002.204.138-.106.339-.661.427-.78.427-.516 0a.8.8 0 0 1 .622-.34zm-29.32.037c-.12.005-.223.037-.28.094-.114.114.089.196.452.18.4-.016.482-.097.207-.207a.945.945 0 0 0-.38-.067zm-5.584.008c-.754.008-1.395.128-1.498.294-.117.19-.165.32-.106.29.058-.03.88-.16 1.826-.29l1.72-.236-1.614-.054a7.544 7.544 0 0 0-.328-.004zm-13.552.072c.284.005.693.033 1.217.085 1.23.122 2.43.227 2.666.236.237.008.43.155.43.326 0 .357-3.592-.014-4.645-.48-.268-.118-.141-.174.332-.167zm90.034.05c-.01.052-.023.098-.032.154.009-.05.024-.1.034-.15l-.002-.004zm-1.349.087-.029.011c-.003.081 0 .153 0 .231l.03.003c0-.083-.002-.165-.001-.245zm-71.643.13c-.156 0-.312.024-.43.071-.236.096-.043.173.43.173s.666-.077.43-.173a1.196 1.196 0 0 0-.43-.072zm61.24.052c-.1.282-.216.571-.343.835l.014-.001c.104-.215.202-.443.3-.707l.051-.127h-.022zm1.8.029c-.096.276-.201.566-.314.864l.028.002a17.6 17.6 0 0 0 .316-.866h-.03zm3.696.03a1.23 1.23 0 0 0-.026.551c.005-.058.01-.119.014-.208a2.9 2.9 0 0 1 .027-.287l.001-.056h-.016zm-4.785.186c-.048 0-.098.027-.149.064.216-.128.282-.019.16.273-.025.058-.061.158-.1.267h.024l.033-.098c.144-.385.152-.506.032-.506zm10.968.016h-.004c-.004.04-.009.077-.011.119l-.005.054.011.006c.002-.055.005-.082.006-.144 0-.012.002-.024.003-.035zm-75.974.03a1.409 1.409 0 0 0-.478.075c-.233.094.041.165.609.158.567-.006.758-.084.423-.171a2.176 2.176 0 0 0-.554-.062zm64.75.113a1.84 1.84 0 0 0-.263.426h.011c.082-.178.17-.332.253-.426zm-77.35.186c.284 0 .517.15.517.334 0 .183-.233.244-.516.135-.284-.109-.517-.259-.517-.333 0-.075.233-.136.517-.136zm82.311.227h-.002l-.006.007.008-.007zm-.008.007a.331.331 0 0 1-.086.045.31.31 0 0 0 .077-.036l.01-.01zm10.914.137c.015.033.03.066.043.1.002-.004 0-.007.003-.01-.012-.028-.025-.054-.038-.08l-.008-.01zm.057.127c.015.039.027.08.04.12a.08.08 0 0 1 .002-.025c-.01-.03-.021-.061-.033-.09l-.01-.005zm-11.448.05a2.21 2.21 0 0 0 .019.283c.008.029.016.057.028.087.009.024.014.05.02.074h.011c-.009-.046-.013-.085-.025-.132-.012-.045-.015-.08-.022-.119a.5.5 0 0 1-.027-.153c0-.016.006-.026.008-.04h-.012zm11.491.082c.018.058.036.117.05.179a.133.133 0 0 1 0-.047c-.01-.042-.024-.082-.037-.122-.005-.003-.01-.005-.013-.01zm-16.989.043a2.561 2.561 0 0 1-.248.37c-.262.302-.616 1.198-.787 1.992a8.662 8.662 0 0 0-.142.91l.031.002c.097-1.085.44-2.192.93-2.911.082-.12.157-.24.228-.362l-.012-.001zm.569.062c-.023.073-.047.142-.068.22-.142.52-.194.657-.322.837-.081.114-.125.135-.23.114a.209.209 0 0 0-.073.001.136.136 0 0 1 .053.018c.183.113.44-.283.571-.88.023-.104.053-.207.084-.308l-.015-.002zm.446.039c-.122.376-.262.826-.39 1.26a9.125 9.125 0 0 1-.172.521c.094-.257.196-.554.32-.946.112-.357.18-.552.273-.833l-.03-.002zm10.04.006a.734.734 0 0 0 .075.191c.011.013.023.027.034.036a.146.146 0 0 0 .055.027h.011c0-.01-.003-.017-.004-.026a.102.102 0 0 1-.067-.04.513.513 0 0 1-.078-.172l-.027-.016zm5.985.031c.082.354.107.776.102 1.355-.01 1.141.127 1.778.336 1.777.01 0 .018-.002.027-.004a.144.144 0 0 0 .044-.017c.002 0 .002-.002.003-.003.079-.052.165-.185.256-.402l-.008-.007c-.02.032-.037.054-.063.102-.271.52-.449.338-.54-.556-.028-.265-.05-.782-.05-1.15 0-.135-.003-.256-.007-.371 0-.023-.002-.04-.003-.063a3.61 3.61 0 0 0-.077-.635c-.008-.007-.016-.013-.02-.026zm-15.188.02-.012.03c-.417 1.05-.667 1.767-.798 2.28.153-.554.47-1.437.828-2.309l-.018-.001zm18.138.03.132 1.204c.11 1.008.178 1.092.413.517.27-.662.281-.66.305.064.016.517-.168.738-.587.707-.499-.038-.58-.272-.437-1.27l.174-1.222zm-14.423.578-.004.02.006-.003.005-.014-.007-.003zm-42.012.052c.168-.028.554.192.928.54.877.817.48.965-.534.199-.364-.276-.568-.596-.452-.712a.103.103 0 0 1 .058-.027zm-46.22.273a.945.945 0 0 1 .38.066c.274.11.193.191-.208.208-.362.015-.566-.066-.451-.18.057-.058.16-.09.28-.094zm87.992.041c-.006.004-.01.01-.016.013-.127.08-.205.14-.24.185a.084.084 0 0 0-.01.039c.002.006.01.011.016.017l.011-.01c-.026-.025.01-.058.144-.153.032-.022.06-.053.09-.081 0-.003.002-.006.005-.01zm-5.61.207c-.11.152-.162.454-.132.852.052.673.198.842.465.54.1-.115.22-.363.365-.749-.432 1.142-.82 1.212-.82-.009 0-.286.048-.51.122-.634zm5.363.05c.017.016.043.03.084.042.052.008.115.014.204.015h.016c-.001-.001-.003-.002-.003-.004s-.004-.005-.005-.007a.958.958 0 0 1-.25-.038l-.014-.008h-.032zm-16.873.046a.945.945 0 0 1 .38.066c.275.11.193.192-.207.208-.363.015-.566-.067-.452-.18.057-.058.16-.09.28-.094zm17.331.026c-.006-.002-.016.001-.023.001a.263.263 0 0 1 .038.012c-.005-.004-.008-.011-.015-.013zm-85.264.065a.244.244 0 0 1 .136.041c.193.12.261.36.152.537-.295.477-.501.388-.501-.216 0-.221.088-.358.213-.362zm85.285.145a2.354 2.354 0 0 1-.37.35c-.125.1-.21.178-.277.243-.058.07-.091.12-.085.143a.252.252 0 0 0 .086-.03c.016-.008.03-.012.046-.018l-.006-.001c-.003-.003.001-.011.001-.016-.05.01-.086.012-.08-.002.007-.02.167-.168.354-.33.112-.095.197-.178.26-.248.03-.036.061-.071.071-.09zm-90.793.065c.074 0 .135.232.135.516 0 .284-.15.516-.334.516-.183 0-.243-.232-.134-.516.109-.284.258-.516.333-.516zm98.146.143c-.05.007-.147.124-.277.295l.013.009c.158-.214.243-.293.277-.26.014.015.037.2.056.42l.012.003c-.001-.091-.002-.183-.006-.248l-.01-.07a.61.61 0 0 0-.036-.135c0-.002-.002-.002-.003-.003a.039.039 0 0 0-.026-.01zm-84.552.03c.19-.002.303.123.303.354 0 .278-.233.505-.516.505s-.517-.138-.517-.307c0-.169.233-.396.517-.505a.63.63 0 0 1 .213-.046zm3.561.334c.826.005 1.582.09 1.681.19.1.099-.494.176-1.319.172-.824-.006-1.58-.09-1.68-.19-.1-.1.493-.177 1.318-.172zm73.23.06a.482.482 0 0 0-.123.022l-.015.004c-.002.003-.007.007-.007.01a.457.457 0 0 1 .541.188c.003-.005.002-.01.002-.015a.462.462 0 0 0-.397-.209zm-82.596.146c.937.02 1.007.072.43.32-.95.408-1.547.408-1.547 0 0-.19.502-.334 1.117-.32zm4.071.018a.947.947 0 0 1 .38.066c.275.11.193.192-.207.208-.363.015-.566-.066-.452-.18.058-.057.16-.09.28-.094zm78.948.108c.008.013.016.026.022.041.003-.005.002-.009.002-.013l-.012-.023c-.004-.002-.006-.005-.012-.005zm7.892.009-.033.007c.189.068.785.632.785.769 0 .042-.098.182-.217.31l-.027.03c.024-.022.05-.041.077-.058a.636.636 0 0 0 .082-.06c.032-.039.065-.076.086-.11.038-.083.02-.176-.056-.286a3.047 3.047 0 0 0-.224-.24c-.03-.026-.057-.051-.09-.078a3.26 3.26 0 0 0-.383-.284zm-.082.018-.038.008c.003.07.044.198.12.399.146.392.101.564-.114.431-.142-.088-.264-.347-.321-.644.057.338.158.554.307.65.24.158.283-.038.118-.528-.053-.156-.082-.288-.072-.317zm-7.769.065a.758.758 0 0 1-.005.48l.002-.001c.03-.09.05-.169.052-.218l.001-.034a.75.75 0 0 0-.037-.217c-.004-.003-.007-.01-.011-.01h-.002zm3.477 0-.01.002v.005l-.004.01.002-.001c.003-.006.008-.01.012-.015zm3.188.088-.035.001a.904.904 0 0 0-.034.107l-.004.032-.006.035a.487.487 0 0 0 .005.154c.046.176.21.352.519.62.409.354.627.644.485.644-.046 0-.077.019-.095.05l-.007.017v.01l.002.04h.023c.003-.057.025-.097.07-.097.165 0 .041-.182-.448-.661-.507-.496-.52-.514-.52-.718 0-.087.01-.153.045-.234zm7.056.039a.152.152 0 0 1-.002.056c.01.034.017.065.026.1h.006c.007 0 .01.005.015.007a20.393 20.393 0 0 0-.044-.163zm-18.374.015c-.13.725-.131.732-.234.746-.053.008-.357-.114-.676-.271a7.055 7.055 0 0 0-.387-.176c.064.032.136.07.217.113.366.195.597.317.747.351l.05.008c.207.02.229-.178.265-.656.002-.03.011-.074.018-.115zm8.097.047a8.95 8.95 0 0 0 .002.457c.003.092-.002.17-.003.256l.032-.016.002-.116v-.277a4.143 4.143 0 0 0-.033-.304zm-9.83.142.017.128c.002-.063.02-.104.058-.118a.04.04 0 0 1 .024-.01h-.1zm.101 0 .01.005c.007 0 .012-.003.019-.003l-.008-.002h-.02zm20.065.01a.245.245 0 0 0-.001.068c.037.145.078.294.11.432.004.003.007.01.01.01.004 0 .005.006.007.01-.04-.171-.078-.338-.126-.52zm-1.362.076.003.015c.002.05.007.104.015.158.01.062.022.124.036.182.018.077.045.154.072.23v-.002c.007-.01.007-.037.006-.07a2.167 2.167 0 0 1-.075-.32c-.009-.063-.016-.093-.025-.145-.012-.03-.022-.045-.031-.048zm-12.462.168a.935.935 0 0 1-.05.094c-.112.18-.216.489-.274.779l.02.002.01-.045c-.005-.05 0-.091.019-.091l.003-.003c.054-.2.128-.413.226-.62.018-.037.03-.077.046-.116zm13.957.304c0 .012 0 .022-.002.036l.029.13c.011.02.019.069.026.122l.058.293h.013a14.212 14.212 0 0 0-.124-.58zm-1.358.147c.062.164.14.318.225.442h.036a2.053 2.053 0 0 1-.214-.406c-.014-.016-.029-.032-.038-.032-.005 0-.006-.003-.009-.004zm-4.274.084c-.075.089-.094.143-.09.224a.495.495 0 0 1 .09-.224zm-4.824.218-.038.014c-.014.139-.03.273-.055.38h.021c.03-.115.055-.243.072-.385v-.01zm4.761.22c.013.087.021.149.028.208l.045-.003-.011-.078a.489.489 0 0 0-.034-.07c-.012-.018-.02-.038-.028-.058z" opacity=".703"/><path d="M46.66 29.198c-.028-.652.443-1.25 1.242-1.578.626-.257.66-.304.272-.363a7.15 7.15 0 0 0-.846-.07c-.22 0-.403-.087-.407-.193-.005-.118-.21-.125-.54-.018-.437.141-.566.118-.713-.132-.099-.167-.156-.39-.128-.493.058-.209 2.126.046 2.209.272.06.163 2.388.338 3.002.225.665-.121.5.171-.516.91-1.27.923-2.32 1.417-2.913 1.368-.372-.03-.485.055-.473.355 5.716 2.111-.167.338-.19-.283zm1.865-.636c.485-.224 1.017-.566 1.183-.761.292-.343.29-.356-.066-.39-.466-.043-1.96.521-2.355.89-.743.693-.026.844 1.238.26zm-18.34-3.056c-.011-.241-.09-.26-.45-.112-.505.209-.762.025-.479-.341.21-.273 1.785-.25 1.797.026.004.09-.187.29-.425.442-.373.24-.433.238-.444-.015zm4.812.554c-.004-.098.09-.208.211-.244.12-.037.173-.123.117-.192-.056-.069-.322-.019-.592.112-.617.3-.607.302-.595-.16.01-.338.138-.374 1.041-.29.567.053 1.034.172 1.038.265.004.093.44.189.97.213.856.039 1.02-.027 1.49-.597.594-.72 1.774-1.195 2.554-1.026.76.165.628.438-.478.988-.542.269-.982.562-.978.652.003.09.346.176.761.19 1.566.057 2.48.234 2.417.47-.077.286-2.042.159-2.485-.16-.216-.156-.492-.173-.89-.055-.316.094-1.358.088-2.313-.013-.956-.101-1.788-.13-1.85-.065-.164.17-.409.12-.418-.088zm4.083.086c-.002-.047-.086-.147-.187-.222-.1-.076-.179-.045-.174.069.005.113.089.213.187.222.098.01.176-.022.174-.069zm1.417-1.096c.798-.4 1.047-.72.589-.76-.38-.032-1.952.705-2.205 1.033-.22.285-.196.304.276.225.283-.047.886-.271 1.34-.498zm-21.002-.648c-.005-.107-.169-.21-.364-.228-.196-.018-.361-.145-.367-.283-.008-.18.27-.21.995-.107.553.08 1.05.194 1.105.256.171.194.725-.453.709-.83-.01-.2-.153-.384-.328-.417-.608-.113-1.38-.066-1.54.095-.207.21-.444.187-.453-.041-.004-.098.369-.482.83-.853.757-.61.812-.711.578-1.06-.248-.37-.273-.373-.592-.075-.368.343-.757.19-.619-.244.117-.364-.21-.383-.547-.03-.243.253-.268.244-.283-.102-.012-.284.146-.4.619-.453.376-.042.872-.32 1.218-.682.566-.593 1.097-.767 1.114-.366.005.108-.299.406-.674.663-.376.257-.684.523-.685.59-.003.267 1.347.43 1.612.195.342-.302.684-.277.698.052.014.337-.334.686-.655.656-.25-.024-1.741.996-1.744 1.192-.002.054.288.124.642.157.46.043.722.186.919.503.251.405.23.495-.259 1.089-.55.667-.932.79-1.093.353-.073-.2-.137-.207-.317-.03-.272.266-.508.266-.519 0zm2.535.084c-.282-.243-.29-.3-.066-.439.337-.207.476-.19.632.08.07.121.318.186.549.144.26-.048.424.008.43.145.006.152.094.15.28-.006.174-.148.315-.155.398-.021.106.172 1.198.339 1.191.181 0-.027.218-.044.486-.037.507.014.648.212.3.42-.37.222-3.85-.165-4.2-.467zm9.219 1.029c-.021-.5.935-.716 1.104-.25.073.2.165.208.458.042.527-.299.848-.22.975.24.104.378.033.393-1.21.25-.727-.083-1.324-.21-1.327-.282zm20.697 1.337c-85.69.48 87.881-.492 0 0zm-3.824-.811c-.002-.037.661-.46 1.472-.938 1.407-.831 1.676-1.218.896-1.291-.196-.019-.31-.117-.255-.218.14-.253-.21-.263-.616-.016-.429.26-.691-.022-.351-.378.218-.229.446-.221 1.459.048.867.23 1.3.27 1.559.14.951-.299.125.706-.27.77-.282.037-1.208.497-2.058 1.022-1.393.86-1.827 1.064-1.836.861zm-3.775-2.164c.345-.362.688-.59.762-.506.143.162-.92 1.186-1.216 1.172-.096-.005.108-.304.454-.666zM27.822 22.08c-.065-.112.056-.188.27-.168.32.03.348-.017.161-.267-.125-.167-.18-.39-.12-.495.16-.291.578-.188.78.19.123.234.28.301.505.218.607-.221 1.57-.078 1.584.236.007.159-.126.305-.296.325-.17.02-.314-.067-.319-.194-.007-.157-.144-.145-.429.037-.312.2-.44.207-.505.024-.065-.181-.226-.17-.616.044-.602.33-.846.343-1.015.05zm3.52-.17c.053-.164.094-.335.093-.38-.002-.044.125-.069.282-.054.188.018.254.13.191.324a1.942 1.942 0 0 0-.091.38c.002.044-.126.068-.283.054-.188-.018-.253-.13-.191-.325zm4.165.557c-.285-.074-.452-.21-.391-.32.068-.124-.033-.156-.288-.09-.29.074-.375.033-.325-.155.09-.341.789-.374 1.123-.052.208.2.386.213.807.06.451-.166.568-.15.708.09.215.373 1.786.547 1.771.197-.006-.134.17-.227.391-.206.221.02.783-.232 1.25-.561.823-.582 1.311-.725 1.326-.39.011.275-.58.733-1.17.905-.308.09-.555.252-.55.361.008.191.313.181 1.24-.04.4-.096.418-.078.2.207-.221.291-.204.298.257.108.39-.16.512-.152.579.044.046.136.217.261.38.278.197.02.23.073.096.155-.254.158-1.87-.013-2.158-.227-.12-.09-.355-.099-.525-.022-.316.143-3.834-.111-4.721-.342zm1.37-.278c-.057-.065-.199-.019-.314.103-.166.176-.145.2.105.118.172-.056.266-.156.209-.22zm10.608 1.39c-.017-.405.458-.838.756-.688.48.24.297.825-.263.843-.267.009-.489-.06-.493-.154zm-24.857-2.572c-.142-.246.322-.528.747-.454.216.038.396.129.4.201.002.072.412.138.91.146.747.011.872.057.716.26-.203.262-2.61.13-2.773-.153zm9.325-.041c.003-.08.456-.495 1.007-.923.552-.428.97-.836.929-.908-.041-.071-.442-.15-.892-.176-.965-.054-1.144-.244-.576-.608.408-.262 1-.136 1.016.215.004.104.149.109.342.012.184-.093.464-.104.622-.024.158.08.405.045.55-.077.191-.162.316-.159.468.013.134.152.313.182.506.084.182-.091.528-.058.889.087.701.282 1.447-.044 1.723-.752.261-.67.21-.805-.433-1.163-.455-.254-.505-.323-.218-.302.415.03.986.641 1.005 1.075.019.451-.465 1.078-1.161 1.506-.547.335-.765.361-1.425.17-.988-.288-1.897.032-3.233 1.137-.974.806-1.127.893-1.119.634zm-9.637-1.143c-.005-.107.058-.188.14-.18.221.02 1.751-1.217 1.743-1.41-.004-.092-.147-.167-.318-.167-.17 0-.851-.065-1.513-.144-.931-.11-1.206-.208-1.216-.43-.015-.36.853-.547 1.04-.224.097.167.228.162.468-.02.43-.326.597-.312.612.05.015.347.033.35.638.153.328-.108.543-.084.713.08.176.17.347.181.62.044.286-.144.428-.13.59.055.263.3-.26.752-.821.707-.201-.016-.827.362-1.39.839-1.034.875-1.291 1.003-1.307.647zm-3.792-1.661c-.002-.173 1.3-1.125 1.758-1.285.22-.076.36-.008.445.215.16.418-.411.877-.72.58-.145-.14-.402-.07-.793.22-.632.465-.687.486-.69.27zm7.708.078c-.171-.296.39-.92.795-.881.495.046.433.715-.085.929-.542.224-.553.223-.71-.048zm15.458 1.492c-.222-.055-.406-.176-.41-.268-.011-.258.684-.376.933-.158.121.106.46.192.753.19 1.58-.012 2.753.085 2.76.23.003.089.224.122.49.074.427-.077.458-.053.265.2-.18.235-.592.246-2.304.06-1.146-.125-2.265-.272-2.487-.328zm7.459.6c-.496-.66 1.175-1.928 2.493-1.89.834.022.96.403.229.691-.316.125-.848.35-1.183.5l-.61.273.584-.014c.321-.007.628.064.683.158.054.094.252.094.44 0 2.124.016 2.275.696-.098.497-.97-.084-1.89-.1-2.042-.037-.164.068-.367-.005-.496-.177zm1.96-1.204c.706-.303.787-.385.426-.431-.245-.031-.757.129-1.138.355-.876.523-.434.57.713.076zm-23.364-.94c-.011-.255.465-.532.713-.414.557.263 1.236.378 1.229.208-.004-.1.118-.17.272-.156.171.016.263.157.235.361-.038.278-.25.318-1.244.236-.66-.055-1.202-.16-1.205-.234zm12.387 1.186c-.3-.519 1.61-1.985 2.198-1.689.433.218.216.619-.559 1.033-.377.201-.68.492-.673.645.013.31-.789.318-.966.01zm1.547-.932c.511-.305.599-.423.336-.45-.196-.022-.588.153-.87.389-.666.554-.353.59.534.06zm-15.228-1.458c-.005-.108.546-.595 1.222-1.082l1.231-.885-.606-.078a10.307 10.307 0 0 0-1.006-.08c-.496-.003-.526-.257-.063-.538.255-.154.448-.147.71.027.242.16.467.185.682.077.201-.101.386-.087.497.038.11.125.382.133.73.02.306-.1.612-.116.682-.037.22.25-.28.696-.732.654-.415-.039-2.15.972-2.955 1.722-.21.197-.387.27-.392.162zm7.966-.372c.239-.12.712-.25 1.052-.286.518-.055.476-.016-.255.244-.986.35-1.454.374-.797.042zm-9.901-1.467c.18-.272.395-.492.476-.488.27.014.037.443-.388.716l-.417.268zm7.135.915c-.06-.105.144-.195.456-.2.31-.003.596-.122.633-.262.054-.203-.139-.252-.927-.238-.74.013-.999-.045-1.006-.23-.014-.329.335-.679.65-.65.215.02.219.07.023.325-.206.268-.193.285.118.155.41-.172 1.68-.073 1.69.131l.015.34c.01.225-1.009.869-1.329.84a.471.471 0 0 1-.323-.21zm6.996.145a.647.647 0 0 0-.642-.253c-.54.099-.68-.214-.267-.598.31-.29.338-.289.35.013.011.248.09.294.32.189.333-.154 2.747.101 3.042.321.101.076.388.071.636-.01.46-.15.56-.044.333.354-.085.15-.538.158-1.399.029-.9-.136-1.365-.122-1.59.048-.406.31-.488.3-.783-.093zm-18.946-1.994c-.074-.083-.41-.152-.745-.151-.467 0-.615-.074-.625-.315-.007-.173.088-.288.21-.255.124.033.37.003.548-.066.194-.075.375-.036.452.098.214.37 1.487.063 1.91-.461.208-.258.383-.362.389-.231.006.131-.12.39-.276.574-.27.317-.269.33.027.232.18-.06.375.002.457.143.079.136.396.279.705.317.648.08.766.37.179.438-.771.088-1.826-.14-1.79-.388.043-.305-.125-.308-.666-.013-.504.275-.593.284-.775.078zm14.626 1.351c-.575-.13-.646-.39-.171-.629.47-.236.713-.183.728.158.014.348.1.368.571.13.268-.134.395-.117.501.067.111.192.23.204.531.052.416-.21.852.068.657.42-.097.176-1.64.067-2.817-.198zm12.69 1.185c-.345-.07-.73-.229-.858-.352-.138-.133-.229-.147-.224-.036.004.102-.272.172-.614.154-.729-.038-.77-.134-.247-.578.408-.347.736-.428.579-.143-.138.25.478.402.927.23.272-.105.472-.068.67.123.222.213.337.226.533.061.28-.236.696-.025.533.27-.058.104.076.098.298-.014.295-.148.424-.142.48.024.056.165.173.179.425.052.415-.21.657-.013.364.294-.203.212-1.62.17-2.867-.085zm4.023.3c-.372.036-.491-.02-.442-.203a.639.639 0 0 1 .949-.381c4.077 1.26 2.348.351-.507.585zm-27.986-3.726c-.062-.226-.046-.404.038-.397.255.024.417.45.241.634-.108.113-.205.03-.28-.237zm27.923 2.342c-.292-.252-.26-.27.275-.152 3.05-.262 1.83-2.76-.266-.727-.428.448-.574.325-.238-.202.139-.217.586-.458.993-.535 2.16-.58.621-.176-.08-.398-.096-1.818 4.108 1.319-.31 2.302-.025-.002-.193-.132-.374-.288zM21.089 11.85c-.307-.21-.362-.304-.167-.287.16.013.395.164.524.336.274.367.247.363-.357-.05zm23.157 2.306c-.004-.09.148-.31.338-.487.263-.246.29-.364.112-.5a.724.724 0 0 0-.54-.1c-.458.115-.387-.252.11-.57.29-.187.538-.213.75-.08.175.109.622.201.994.205.373.004.655.076.628.16-.027.083-.42.477-.872.876-.75.66-1.503.906-1.52.496zm1.287-.667c.494-.58.134-.466-.476.15-.332.335-.407.486-.194.387.193-.089.494-.33.67-.537zm-26.14-1.878c.057-.102.138-.181.181-.177.043.004.082.095.087.202a.163.163 0 0 1-.18.177c-.104-.01-.143-.101-.087-.202zm20.215 1.922c-.008-.191.554-.757.736-.74.27.025.107.373-.297.632-.238.153-.435.201-.44.108zm-16.944-2.203a.16.16 0 0 1 .177-.172c.107.01.084-.108-.056-.28-.21-.258-.293-.266-.624-.059-.524.328-.88.263-1.118-.203-.287-.565-.263-.619.255-.57.365.034.444.114.37.373-.09.315-.083.315.134.013.146-.202.472-.295.897-.255.599.056.66.106.586.474-.061.306.048.242.425-.25.28-.365.599-.655.71-.645.14.014.14.082-.004.232-.407.426-.175.548.394.208.735-.44.972-.43.442.019-.222.189-.306.355-.186.37.12.014.18.143.134.285-.086.27-.947.291-.958.023-.004-.085-.359.02-.788.235-.43.215-.786.306-.79.202zm4.425-.228c-.022-.507.585-.879 1.468-.9l.53-.013-.624.418c-.343.23-.665.549-.717.71-.147.461-.636.302-.658-.215zm1.075.266c-.005-.129.124-.36.289-.512.241-.225.357-.227.607-.01.392.338.224.634-.4.703-.312.034-.49-.03-.496-.18zm2.677.39c-.009-.21.72-.654 1.038-.633.146.01.336.114.422.232.104.144.182.138.236-.02.105-.31.581-.257.595.066.02.484-.337.642-.972.428-.34-.114-.658-.133-.708-.042-.11.2-.602.176-.61-.03zm2.87-.112c.358-.401 1.006-.511 1.02-.173.015.335.607.472.891.206.338-.315.523-.328.536-.038.02.479-.464.637-1.613.527l-1.196-.114zm2.734.583c-.114-.198.02-.263.341-.166.094.028.363-.045.599-.163.341-.17.446-.163.514.037.047.138.176.195.287.126.255-.158 1.179-.084 1.186.095.01.25-.27.302-1.543.285-.733-.01-1.318-.1-1.384-.214zm5.689.515c-.04-.07.077-.266.26-.438.274-.255.386-.263.616-.042.192.186.278.202.271.053-.005-.12.12-.207.28-.192.256.024.262.072.051.423-.224.374-1.293.516-1.478.196zm4.729.367c-.007-.16.073-.283.178-.273.105.01.058-.133-.104-.316-.162-.184-.24-.43-.173-.549.082-.146.146-.104.198.131.09.413.182.428.75.119.64-.35.929-.29.722.151-.245.522-.207.585.26.432.449-.147.637-.039.655.376.014.334-.996.254-1.116-.088-.065-.183-.178-.168-.426.057-.413.377-.928.355-.945-.04zm1.313-.567c.18-.325-.027-.392-.38-.124-.291.22-.295.255-.03.286.166.018.35-.054.41-.162zm-29.81-2.152c-.008-.202.36-.587.544-.57.079.008.15.189.16.403.01.26-.103.378-.34.355-.196-.018-.36-.103-.363-.188z" opacity=".703"/><path d="M69.11 20.207c.056.139.185.112.377-.078.219-.217.305-.228.344-.044.03.145.187.175.382.071-.878 1.523-3.509 4.392-.967.686-8.175 7.158-.277-.953-.136-.635zm-4.97.922c-60.582 55.928-30.29 27.964 0 0zm14.438-1.31c-70.207 56.802-35.103 28.401 0 0zm-6.662.983c-.55-.04-.923-.61-.61-.934.118-.122.364-.065.623.144.32.26.443.275.488.062.07-.326.584-.452.584-.143-.235 1.005-.62.905-1.085.87zm1.358-.599c0-.154.16-.47.357-.704.341-.403.367-.405.544-.035.158.33.238.344.537.086.214-.184.442-.239.583-.14.446.314 1.128.329 1.39.03.302-.341.537-.13.305.273-.232.404-3.717.864-3.717.49zm10.565-1.191c-.063-.158.599-1.142.783-1.164.065-.008.118.081.118.199 0 .118.103.137.229.044.173-.129.207-.078.14.21-.102.445-.087.449.368.112.222-.163.375-.182.427-.052.048.12.176.113.312-.015.127-.12.492-.226.811-.234.32-.01.615-.11.657-.224.095-.261.605-.336.605-.09 0 .479-.743.794-2.504 1.065-1.04.16-1.915.226-1.946.149zm9.556-1.18c-.045-.112-.06-.225-.034-.25l.353-.36c.45-.464.618-.434.454.081-.157.495-.651.834-.773.53zM80.1 19.297c-.164-.148-.17-.241-.03-.484.139-.243.23-.25.47-.038.212.189.312.19.349.007.063-.313 1.48-.525 1.594-.238.09.225-.344.716-.669.757-.118.014-.214-.123-.214-.306 0-.182-.054-.324-.122-.316-.067.008-.157.169-.2.356-.089.385-.853.555-1.178.262zm8.326-1.042c0-.065.184-.317.41-.56.224-.244.409-.355.409-.247 0 .107.284.141.632.075.347-.067.87-.064 1.16.006.367.088.611.034.796-.175.304-.345.486-.191.37.313-.066.284-.39.372-1.928.524-1.017.1-1.85.129-1.85.064zm-22.22 2.496c.07-.351.5-.462.55-.142.018.12-.111.268-.289.33-.22.078-.303.019-.261-.188zm15.94-3.734c0-.1.385-.553.854-1.006l.853-.824-.672-.03c-.76-.034-.962-.434-.422-.833.524-.388.657-.358.58.131-.068.424.1.417.514-.022.075-.08.428-.183.785-.23.72-.092.91.345.273.629-.207.092-.913.662-1.57 1.267-.657.605-1.194 1.018-1.194.918zm11.258-2.456c.213-.386.45-.648.526-.581.077.067-.037.37-.26.686-.562.797-.728.732-.266-.105zm-16.2 1.73c.271-.472.195-.535-.484-.398-.846.171-4.402.67-5.335.748-.516.043-.712-.022-.671-.223.082-.41.777-.858.895-.577.135.32.869.41 1.142.14.142-.141.373-.16.597-.05.275.136.467.085.78-.207.516-.48.559-.486.461-.06-.1.432.173.395.52-.072.302-.409.542-.498.417-.155-.098.269.11.287.262.023.142-.248 1.307-.37 1.307-.138 0 .104.108.106.24.005.405-.312 1.052-.407 1.154-.169.068.16.218.137.518-.084.302-.221.538-.259.828-.131.29.127.459.101.59-.092.196-.287.63-.185.63.148 0 .24-.033.25-1.583.483-.917.138-1.335.298-1.6.611-.424.503-.928.652-.667.197zm17.5-2.55c0-.314 1.008-1.098 1.065-.828.025.117.134.147.241.067.108-.08.196-.038.196.094 0 .278-.586.635-.847.516-.097-.044-.284.022-.415.148-.152.145-.24.146-.24.003zm-29.346 3.474c.004-.373.213-.7 1.045-1.625.519-.579.938-.902 1.092-.843.164.062.437-.19.795-.733.487-.738.513-.824.24-.798-.381.037-.399-.306-.035-.667.196-.194.354-.21.56-.056.209.154.33.141.438-.047.243-.423.667-.378.615.066-.03.252-.221.457-.542.581-.304.118-.834.663-1.37 1.411-.48.67-1.1 1.37-1.379 1.552-.951.626-.452.611 1.03-.03.281-.123.375-.076.375.186 0 .363.16.44.322.156.158-.275.634-.38.634-.14 0 .127.181.051.414-.172.227-.219.383-.475.345-.57-.038-.095.451-.752 1.087-1.46.636-.708 1.157-1.338 1.157-1.401 0-.064-.073-.033-.162.067-.09.1-.52.242-.956.316-.875.148-1.084-.216-.442-.769.283-.243.374-.244.47-.004.1.248.174.213.434-.204.406-.649.847-1.067 1.159-1.1.136-.014-.023.207-.353.49-.33.284-.566.567-.523.63.042.064.374-.147.737-.47.925-.821.974-.844.61-.285-.177.273-.407.507-.511.52s-.19.12-.19.239c0 .138.131.118.364-.054.271-.2.392-.2.472 0 .086.215.143.21.278-.025.202-.353.797-.466.797-.152 0 .121.092.21.205.196.112-.014.204-.172.204-.352 0-.341.087-.345 1.56-.065.432.082.72.045.805-.104.073-.127.296-.199.496-.159.236.048.425-.057.542-.3.204-.422.499-.52.625-.206.092.23-.57.835-.868.79-.101-.015-.286.058-.41.163-.123.105-.64.25-1.147.323-.686.098-.906.059-.857-.153.086-.374-.068-.33-.398.114-.19.256-.59.392-1.391.473-1.04.105-1.185.176-1.918.948-.535.564-.715.85-.553.881.13.026.238.104.238.173 0 .164-.446.765-.588.792-.06.01-.073-.109-.028-.266.046-.158-.027-.03-.162.284-.62 1.444-.694 1.545-.955 1.321-.148-.127-.37-.127-.546 0-.372.269-1.67.393-1.759.17-.07-.174-.712-.036-1.593.34-.281.12-.51.133-.51.028zm1.712-1.716c.256-.341.254-.348-.044-.19-.17.091-.343.257-.384.369-.115.316.135.212.428-.18zm18.762-.897c-.182-.17-.182-.22 0-.435.29-.345.86-.394.74-.064-.155.423.937-.113 1.137-.56.158-.35.17-.352.17-.019 0 .199-.136.533-.303.743-.337.424-1.426.634-1.744.335zm2.108-.233c-.032-.048.01-.229.094-.402.183-.38.938-.514.938-.168 0 .135.098.172.217.083.546-.407.913-.527.819-.267-.122.334-.005.323.355-.034.214-.212.308-.214.39-.006.089.22.182.211.483-.048.205-.177.41-.246.453-.154.099.204.784.12.918-.112.185-.323.629-.248.55.094-.044.193.02.347.156.377.128.027-1.016.202-2.542.387-1.525.185-2.799.298-2.83.25zm-7.782-.813c.13-.25.478-.754.771-1.12.65-.808.674-1.065.096-.993-.405.05-.422.025-.216-.333.185-.323.296-.354.669-.19.301.133.491.118.585-.044.234-.409.655-.35.604.084-.03.253-.222.458-.55.584-.323.125-.768.595-1.248 1.318-.759 1.143-1.142 1.517-.711.694zm7.531-.856c-.067-.277-.197-.316-.566-.174-.283.11-.446.096-.399-.033.126-.346.832-.344 1.022.003.095.173.14.371.102.439-.04.068-.11-.038-.159-.235zm2.95-2.09c-1.255-.063-1.483-.487-.359-.667.369-.059.81-.2.978-.312.37-.247.42.142.068.53-.188.21-.153.224.171.066.225-.11.542-.354.703-.543.213-.25.308-.275.346-.093.061.289 2.134.186 2.243-.111.113-.312.564-.272.644.056.041.168.247.324.458.347.824.087-4.188.781-5.252.727zm-3.067.302c-.852.02-.979-.164-.437-.63.463-.4.608-.4.608 0 0 .462.053.424.76-.537.344-.468.729-.86.854-.87.145-.012.078.132-.18.39-.227.227-.335.442-.242.48.093.04.358-.17.588-.464.231-.294.452-.487.492-.427.04.06-.102.308-.315.553a6.951 6.951 0 0 0-.688.986c-.165.298-.38.533-.478.522-.097-.011-.53-.012-.962-.003zm-22.818 2.21c.123-.319.332-.593.465-.61.132-.016.317-.188.41-.382.094-.194.262-.364.373-.377.142-.018.105.125-.119.47l-.322.496.51-.197c.288-.111.636-.103.8.02.261.192.27.253.084.577-.212.37-.575.27-.433-.12.13-.356-.164-.211-.348.171-.133.276-.215.303-.364.121-.146-.178-.23-.168-.35.04-.087.152-.332.297-.544.323-.38.047-.382.04-.162-.532zm18.211-1.93c0-.427.54-.723 1.08-.593.57.136 1.017-.15 1.568-1.009.21-.328.247-.34.195-.064-.122.643-1.204 1.546-2.047 1.708-.438.083-.796.065-.796-.042zm2.375-.32c-.136-.339.241-.68.67-.607.232.04.349-.015.299-.141-.047-.116.07-.227.261-.25.251-.031.324-.131.267-.365-.043-.177-.01-.33.072-.34.084-.01.152.092.152.228 0 .145.112.176.273.077.15-.094.41-.243.58-.333.287-.151.284-.137-.034.218-.188.208-.449.396-.58.417-.13.02-.394.277-.586.571-.372.568-1.226.895-1.374.525z" opacity=".703"/><path d="M19.32 55.482c-.007-.452.332-.922.449-.62.051.13.207.2.346.152.305-.105.325.141.041.537-.269.375-.829.33-.836-.069zm3.093.315a1.92 1.92 0 0 0 .093-.538c-.01-.321 1.451.005 1.562.349.111.344-.426.494-.727.203-.187-.18-.3-.17-.463.038-.283.362-.592.328-.465-.052zm6.766.636c-.072-.127-.001-.3.156-.385.158-.085.281-.359.274-.607-.007-.25.093-.542.222-.651.348-.295 1.808-.356 1.964-.082.087.155-.127.207-.67.163-.864-.07-1.4.28-1.212.793.071.194.173.244.277.136.194-.202.849-.002.856.262.002.1.095.128.206.061.333-.201 1.463-.143 1.591.083.082.144.233.153.48.026.5-.256.917-.193.926.139.01.401-.382.434-2.48.205-1.027-.112-2.001-.138-2.164-.058-.188.092-.343.062-.426-.085zm8.098.87c-.185-.988.108-1.47.57-.942.158.179.115.338-.172.636-.21.22-.389.356-.398.305zm1.199-.025c-.25-.286-.124-.488.214-.344.241.102.405.03.532-.235.216-.447.702-.475.714-.042.007.242.077.263.372.112.2-.102.489-.124.642-.048.153.076.389.044.524-.07.176-.149.302-.144.443.017.11.124.315.185.458.137.143-.05.337.039.43.195.143.237.21.23.4-.036.258-.36 1.425-.358 1.63.003.068.122.274.19.457.152.183-.037.38.015.438.116.061.11.24.116.432.017.51-.26 1.24-.141 1.25.204.006.244.075.264.38.108.285-.146.406-.131.516.063.092.163.26.207.469.122.465-.19 1.193-.151 1.328.07.068.111.283.103.523-.02.311-.159.426-.152.485.028.058.181.133.187.324.026.322-.273.534-.029.27.31-.304.39-4.926-.05-4.853-.462.04-.222-.02-.217-.28.026-.18.17-.369.263-.417.208-.048-.055-.484-.164-.968-.242-.548-.088-.866-.225-.842-.363.05-.294-.369-.318-.639-.037-.143.15-.909.176-2.31.081-1.154-.079-2.256-.1-2.448-.049-.193.052-.406.03-.474-.047zm-13.467-1.333c-.011-.401.963-.633 1.165-.277.054.095.191.116.305.045.28-.174 1.181-.144 1.186.04.01.333-.49.473-1.54.429-.634-.026-1.113-.128-1.116-.237zm-6.226-1.023c.003-.226.044-.269.105-.11.055.145.053.312-.004.372-.058.06-.103-.058-.1-.262zm14.025.687c-.003-.096.583-.534 1.3-.972 1.444-.883 1.743-1.195 1.102-1.148-.28.02-.42-.066-.426-.261-.007-.227.185-.264.859-.168.476.069.957.048 1.069-.047.225-.19 1.346-.117 1.352.09.005.193 2.361.32 2.641.143.138-.087.288-.072.356.035.184.29 1.185.292 1.525.004.272-.23.334-.216.56.127.218.329.321.357.71.193.25-.106.524-.141.608-.078.085.063.363.026.619-.082.347-.147.497-.138.596.037.157.277 1.061.415 2.165.331.709-.054.768-.03.538.21-.19.199-.836.25-2.46.193l-2.202-.077-1.85 1.006c-1.017.553-1.893.952-1.946.885-.054-.066-.012-.147.091-.18.46-.146 2.879-1.634 2.8-1.723-.047-.054-1.504-.208-3.236-.341l-3.15-.243-1.235.729c-.68.4-1.444.908-1.7 1.128-.5.43-.678.484-.686.208zm-14.074-1.962c-.009-.336 1.31-.394 1.496-.066.057.1-.255.185-.694.188-.44.002-.8-.052-.802-.122zm29.736 2.506c.083-.336 1.359-1.753 1.467-1.63.054.062-.266.501-.71.978-.446.477-.786.77-.757.652zM22.566 52.14c-.05-.058-.946-.18-1.989-.272-1.33-.116-1.898-.234-1.901-.395-.004-.153.39-.194 1.194-.125.66.057 1.333.046 1.496-.024.163-.071.345-.043.404.061.06.104.426.184.814.176.77-.014.839.05.466.44-.268.28-.342.3-.484.14zm3.23.155c-.01-.363.487-.514 1.014-.307.547.213 1.881.27 2.176.091.082-.05.202.003.266.117.08.139.237.146.48.022.225-.116.405-.112.477.01.111.187.596.22 2.022.14.68-.037.844.128.454.458-.245.207-6.883-.305-6.889-.531zm9.841-2.205c-.054-.061-.89-.223-1.858-.36-2.547-.358-2.777-.376-3.313-.255-.358.081-.485.041-.487-.153-.002-.332.838-.962 1.007-.757.068.084.026.184-.095.222-.121.038-.218.152-.215.254.003.114.127.122.327.02.177-.091.475-.15.662-.13a2.51 2.51 0 0 0 .736-.07c.249-.066.399-.024.403.112.003.12-.088.21-.202.2-.114-.009-.158.04-.098.108.06.069.348-.012.639-.179.491-.282.553-.28.86.041.224.233.415.294.588.19.142-.086.516-.125.831-.086.448.054.566.147.535.418-.046.407-.18.585-.32.425zm-17.05-1.841c-.008-.239.103-.396.268-.382.166.013.26.153.231.342-.073.48-.487.513-.5.04zm.89.128c-.003-.12.124-.328.283-.462.232-.195.305-.192.372.015.067.204.137.212.341.04.205-.174.29-.159.427.075.137.234.26.172.62-.314.628-.844 3.495-3.05 3.922-3.015.439.036.39.579-.075.846-.246.14-.35.127-.414-.057-.148-.42-3.192 2.003-3.178 2.53.006.216.41.271 1.158.157.423-.064.645.081.598.393-.045.295-.287.316-2.05.173-1.364-.11-2-.231-2.004-.381zm5.118.572c-.552-.114-.624-.31-.236-.64.216-.182.33-.154.625.154.338.351.384.357.679.082.387-.361.553-.362.563-.003.005.178.13.248.36.2.194-.04.35-.193.346-.341-.005-.178.203-.252.615-.218.342.027.625.137.628.244.003.107-.195.178-.44.159-.276-.023-.441.074-.436.255.005.16-.052.294-.125.296-.494.018-2.173-.105-2.579-.188zm17.295 1.33c-.002-.074.246-.31.55-.528.36-.256.523-.298.464-.121-.065.195.055.297.415.355.278.044.55 0 .606-.097.125-.221.789-.182.795.047.003.092.37.164.815.16.519-.005.773.06.705.18-.153.271.126.241.514-.055.252-.193.395-.196.583-.015.187.18.36.183.698.01.386-.197.479-.187.661.075.227.326 1.312.495 1.677.261.121-.077.378-.073.57.009.193.082.528.058.743-.052.291-.149.411-.142.466.027 2.118.268-4.185.326-6.302.17-2.176-.162-3.958-.354-3.96-.427zm-3.167-.448c.084-.294.641-.3.714-.007.028.109-.138.212-.368.229-.287.021-.396-.049-.346-.222zm-14.218-2.295c-.199-.35.415-.898 1.599-1.427.608-.272 1.105-.516 1.105-.542 0-.027-.28-.035-.622-.02-.466.022-.622-.043-.628-.262-.01-.362.381-.515.703-.275.132.098.424.116.648.04.363-.123.406-.085.385.34-.013.261-.072.472-.132.467-.06-.005-.453.32-.873.72-.42.401-1.019.833-1.33.96-.676.274-.7.274-.855 0zm1.407-.587c.39-.263.589-.507.46-.564-.21-.093-1.607.689-1.601.897.006.238.514.09 1.14-.333zm4.37.704c-.002-.093.352-.508.787-.923.832-.792.888-1.121.135-.803-.645.272-.963.2-.975-.222-.017-.643 2.063-2.18 2.864-2.114.746.06.006 1.042-1.1 1.458-.293.11-.532.278-.53.372.008.236.317.24.45.005.059-.106.243-.136.407-.067.165.069.734.085 1.266.036.752-.07 1.057-.02 1.374.228.238.186.5.26.633.178.233-.145 1.2-.18 1.204-.043.001.042-.08.222-.18.399-.154.269-.403.293-1.515.15-1.126-.146-1.3-.212-1.13-.431.156-.2.153-.263-.016-.277-.12-.01-.615.35-1.1.8-1.173 1.086-2.56 1.762-2.574 1.254zm1.924-1.04c.382-.323.505-.524.33-.542-.345-.034-1.34.69-1.691 1.234l-.264.407.51-.293c.28-.16.781-.524 1.115-.806zm.172-2.052c.65-.319.82-.478.588-.55-.29-.092-1.7.65-1.694.889.004.17.18.116 1.106-.339zm4.616 1.902c0-.034.076-.224.172-.423.205-.425.87-.434.88-.013.011.376.187.383.697.027.328-.23.48-.236.752-.032.239.18.441.205.673.086.24-.123.355-.101.413.078.063.191.146.192.37.004.244-.205.334-.198.591.048.236.227.318.239.371.054.038-.13.256-.222.485-.203l.416.034-.371.44c-.242.287-.442.373-.573.246-.111-.107-.254-.14-.317-.073-.112.116-4.556-.15-4.56-.273zm9.426.734-.803-.169.496-.334c.404-.272.56-.286.84-.075.267.2.421.211.68.053.263-.161.396-.147.615.065.155.148.373.213.487.145.324-.196 1.576-.162 1.582.043.003.107.19.107.444 0 .546-.231.71-.068.457.456-.16.334-.288.37-.762.215-.724-.236-2.623-.441-2.97-.32-.144.05-.624.015-1.066-.078zm-27.706-2.392a.441.441 0 0 1-.232-.356c-.008-.292.547-.25.76.056.087.127.208.08.315-.12.213-.397.662-.39.81.013.083.225.19.255.444.125.184-.094.472-.134.639-.09.174.047.328-.062.359-.254.034-.206-.053-.343-.225-.357-.154-.013-.283-.117-.286-.231-.003-.115.135-.169.308-.12.204.06.337.306.384.714.066.569.022.629-.513.688-.844.093-2.5.053-2.763-.068zm4.225.395c0-.044.49-.317 1.093-.606 1.21-.582 2.449-1.443 3.057-2.125l.396-.445-.807.008c-.834.008-1.067-.244-.495-.536.216-.11.386-.094.514.052.132.15.225.155.304.015.082-.146.217-.135.484.04.268.175.422.188.559.046.265-.278.471-.225.48.122.006.163-.17.36-.387.436-.217.076-.852.5-1.411.943-1.362 1.08-3.777 2.387-3.786 2.05zm21.911 1.394c-.009-.346.065-.438.28-.347l.55.232c.178.073.105.184-.232.35-.619.305-.582.32-.598-.235zm2.293-.537c-.36-.41.173-1.227.994-1.523.402-.145.773-.217.823-.16.05.058-.237.223-.638.368-.68.245-1.214.848-.983 1.111.209.238 1.14-.295 1.865-1.066.748-.797.75-.8.27-.84-.537-.043-.624-.267-.231-.6.207-.176.261-.171.267.023.004.171.195.226.637.183.348-.034.608.002.58.08-.112.298-2.213 2.164-2.718 2.412-.634.312-.603.312-.866.012zm-28.75-4.893c-.009-.292.042-.333.195-.158.136.155.348.187.623.094.282-.095.42-.072.424.071.003.123.154.174.358.121l.732-.188c.264-.067.343-.03.26.118-.154.272.122.304.371.044.13-.135.225-.13.309.018.082.145.268.163.584.056.606-.205 1.06 0 .785.352-.15.193-.728.207-2.414.059-2.102-.184-2.218-.215-2.228-.587zm16.15 1.656c-.034-.04-.602-.131-1.262-.204-.66-.073-1.24-.207-1.292-.298-.052-.09.115-.3.37-.464.406-.264.487-.263.67.006.16.233.59.335 1.81.425.88.066 1.651.197 1.714.293.063.096.278.074.479-.049.422-.259.618-.122.468.329-.087.26-.347.29-1.5.173-.767-.077-1.423-.172-1.457-.211zm9.47.727c-.016-.557 1.021-.928 1.643-.589.214.117.382.096.469-.057.166-.296.766-.032.674.297-.04.142-.52.239-1.206.241-.627.003-1.238.068-1.358.144-.12.077-.22.06-.222-.036zm-15.125-1.453c-.008-.306.75-.627.84-.355.162.502 1.894.167 2.177-.421.162-.337.128-.46-.217-.785-.263-.248-.319-.378-.157-.365.35.028.688.454.7.882.005.198-.241.597-.548.886-.493.465-.686.515-1.674.436-.614-.05-1.118-.175-1.121-.278zm11.142.676c-.107-.407-.067-.415 1.126-.226.944.15 1.236.137 1.23-.057-.005-.183.18-.207.664-.086.826.205.884.26.664.642-.25.434-.59.482-.6.085-.008-.303-.04-.31-.313-.072-.36.316-1.668.275-1.857-.058-.098-.173-.187-.176-.347-.01-.304.317-.441.265-.567-.218zm10.913 1.096c-.003-.11.112-.24.257-.29.169-.058.223-.244.153-.523 0 0-.153.523-.41.813zm-21.52-3.129c.061-.212 1.182-.747 1.187-.566 0 .043-.28.24-.625.438-.354.203-.599.259-.561.128zm15.043.27c.406-.295.778-.49.827-.435.103.118-1.16 1.004-1.402.985-.09-.008.169-.255.575-.55zm-24.373-2.541c-.003-.117-.32-.18-.79-.156-.959.049-1.153-.203-.462-.6.45-.258.53-.258.626.004.159.43.816.168 1.79-.714.434-.392.871-.676.972-.632.41.181.257.484-.526 1.039-.653.463-.728.568-.36.506.256-.044.72.038 1.034.18.47.216.624.209.89-.039.356-.333.649-.062.48.445-.08.24-.35.255-1.525.085-.785-.114-1.47-.134-1.52-.044-.126.223-.603.166-.61-.074zm5.508.234c-.002-.064.145-.254.327-.424.304-.283.344-.281.501.022.145.279.244.3.636.134.345-.145.528-.135.711.042.183.176.297.185.441.035.144-.15.349-.108.79.161l.596.364-.622-.015c-1.481-.033-3.376-.213-3.38-.319zm5.514.468c-.002-.075.145-.276.328-.447.271-.253.403-.262.727-.05.287.188.449.205.585.063.265-.276.472-.225.48.118.012.387.308.396.5.015.126-.248.249-.258.673-.057.286.135.396.242.244.238a.764.764 0 0 0-.49.218c-.23.24-3.04.15-3.047-.098zm5.164.452c.002-.073.195-.274.43-.446.334-.244.508-.26.791-.075.253.166.466.185.703.064.214-.109.38-.101.45.022.06.107.226.155.368.106.142-.048.261.011.264.133a.296.296 0 0 1-.214.278c-.45.116-2.793.047-2.792-.082zm10.49.905c-.002-.07.173-.277.387-.46.439-.374 1.187-.403 1.197-.047.005.181.052.185.213.017.317-.33 1.735-.164 1.745.206.01.39-.513.563-.702.23-.092-.162-.235-.203-.384-.109-.13.082-.561.134-.956.116-.396-.019-.894.013-1.108.07-.213.058-.39.047-.392-.023zm-7.3-.88c-.01-.348.698-.567.974-.3.2.192.319.183.533-.041.32-.334.536-.35.706-.05.066.117.253.206.415.198.162-.008.447.068.634.17a.695.695 0 0 0 .682-.026c.39-.239.579-.12.445.282-.072.216-.537.239-2.237.109-1.19-.09-2.15-.244-2.152-.342zM27.973 37.83c.191-.145.817-.637 1.39-1.093l1.042-.829-.58-.107c-.623-.116-.729-.305-.349-.627.175-.148.377-.135.749.048.378.185.613.197.91.045.22-.113.46-.138.531-.055.215.245-.203.78-.603.771-.204-.005-.745.306-1.204.69-1.06.89-1.89 1.463-2.083 1.44-.083-.01.006-.137.197-.283zm-9.702-1.116c-.001-.056.288-.406.644-.778.652-.683.567-1.048-.157-.677-.428.219-.742.01-.351-.233.174-.108.185-.166.034-.18-.122-.012-.226-.147-.23-.3-.01-.377.653-.53.97-.224.143.137.358.186.482.111.274-.166 2.112-.103 2.361.08.295.218 1.59.296 1.838.111.144-.107.277-.099.355.023.12.185 2.157.396 2.69.279.317-.07.484.564.17.643-.126.032-1.307-.074-2.626-.236l-2.396-.295-.679.58c-.556.475-.726.532-.948.319-.235-.226-.222-.3.095-.56.2-.166.362-.397.359-.513-.012-.442-.456-.216-1.215.618-.817.9-1.392 1.406-1.396 1.232zm14.006-.836c-.174-.234-.147-.33.132-.473.493-.252.727-.199.737.167.007.248.06.272.251.11.134-.113.424-.229.646-.257.221-.03.474-.128.562-.219.256-.266-.042-.919-.552-1.21-.259-.148-.42-.32-.36-.385.062-.064.336.08.61.32.652.572.693 1.4.09 1.824-.61.429-1.837.5-2.116.123zm3.235.205c-.806-.144-.931-.315-.5-.68.215-.183.351-.169.723.075s.482.255.592.06c.134-.238.437-.433 1.536-.991.684-.347 1.027-.077.41.323-.239.156-.69.546-1.002.867-.312.322-.664.561-.784.533-.12-.028-.558-.112-.975-.187zm4.416.16c-.148-.284-.228-.31-.402-.13-.12.124-.61.194-1.087.155-.618-.05-.848-.139-.797-.307.044-.146.32-.194.721-.127.366.062.648.02.644-.093-.003-.116.412-.17.973-.124 1.04.085 1.179.23.67.703-.398.372-.493.362-.722-.077zm1.46.204c-.222-.393.271-.573.737-.268.353.23.506.251.663.088a.676.676 0 0 1 .473-.19c.226.018.221.071-.028.332-.313.326-1.665.354-1.844.038zm3.91.31c-.056-.098.007-.246.139-.329.297-.185.505-.18.51.012.009.285 1.146.204 1.802-.128.064-.033.253.095.418.283.26.297.361.313.74.12.327-.168.47-.165.57.011.079.138.464.24.928.245.865.01 1.24.123 1.247.38.006.22-6.223-.362-6.354-.593zm-13.97-2.812c-.007-.22.653-.574.88-.472.09.04-.07.204-.356.362-.286.159-.522.208-.525.11zM94.9 81.93c-5.875-1.292-6.989-2.954-5.29-7.891 1.005-2.922 1.624-3.974 3.622-6.16 1.704-1.865 1.789-2.053 1.617-3.575-.1-.883-.443-2.224-.761-2.98-.538-1.276-.535-1.417.045-1.991.518-.512.588-.521.412-.053-.287.76.976 1.38 3.252 1.594 7.299.689 7.06.687 7.06.063 0-.495-.462-.6-2.806-.63-4.096-.051-6.986-.47-6.065-.877.687-.304.678-.333-.18-.572-.658-.184-.382-.262 1.006-.289 1.176-.022 1.974-.21 2.072-.488 1.629 1.546.704.734.704.734.925.812.97-.382.97-.382l2.373.222c1.305.122 2.598.409 2.874.637.577.48.665 1.83.152 2.343-.192.191-.458 1.282-.592 2.422-.241 2.052-.229 2.09 1.228 3.67 2.397 2.6 4.42 7.275 4.42 10.21 0 1.857-.917 2.74-3.76 3.624-2.5.776-9.547.987-12.353.37zm12.54-.929c2.181-.676 3.584-1.576 3.143-2.017-.094-.094-1.352.241-2.794.745-2.752.962-9.54 1.838-9.744 1.258-.062-.178-.358-.23-.658-.116s-.9.03-1.334-.189c-.435-.219-1.85-.661-3.144-.984-1.295-.322-2.64-.842-2.988-1.155-.552-.495-.633-.498-.633-.025 0 1.258 2.752 2.512 7.06 3.215 2.86.467 8.403.101 11.092-.732zm-8.62-2.667c-.141-.235.046-.183.415.115.635.513.647.495.215-.315-.287-.538-.309-.766-.06-.612.344.212.607-1.014.442-2.06-.024-.15.114-.272.307-.272s.251-.26.129-.58c-.123-.318.005-.723.283-.9.36-.228.376-.32.052-.325-.249-.002-.452-.331-.452-.73s.203-.737.452-.752c.362-.023.362-.065 0-.211-.249-.1-.452-.567-.452-1.037 0-1.012-.624-1.504-1.19-.937-.222.222-.686.403-1.031.403-.568 0-1.287 1.23-1.11 1.9.04.15-.109.272-.33.272-.225 0-.299.265-.168.605.128.334.024.737-.233.9-.363.23-.35.296.057.3.38.005.33.161-.18.576-.387.313-.511.474-.276.356.55-.275.965.388.607.969-.152.245-.297.731-.323 1.08-.034.461.074.533.397.265.324-.269.43-.194.392.278-.034.415.24.687.762.762.449.063.815.277.815.474 0 .197.166.256.368.13.203-.124.253-.42.112-.654zm-1.928-.39c0-.077.253-.238.562-.357.322-.124.467-.063.34.142-.212.344-.902.51-.902.216zm7.408.892c.114-.185.07-.422-.1-.527-.17-.104-.308.047-.308.337 0 .61.115.664.407.19zm6.195-.787c.355-.576-.997-5.188-2.09-7.124-.592-1.051-1.626-2.35-2.296-2.884-1.292-1.031-1.889-1.072-6.32-.437-.3.043.027.202.724.355.943.207.573.264-1.449.224-1.493-.03-2.835-.217-2.981-.416-.164-.223-.269-.184-.272.1-.01.809 1.896 1.23 5.003 1.107 2.36-.094 3.117-.258 3.48-.754.473-.647 1.138-.907.761-.298-.114.185.098.433.47.551.472.15.63.465.521 1.036-.106.557.172 1.149.867 1.844.85.85 1.02 1.322 1.007 2.792-.014 1.692.292 2.283.681 1.317.1-.249.196-.119.212.29.015.408.228.942.472 1.186.34.34.345.6.021 1.119-.365.584-.326.65.287.49.39-.101.795-.326.901-.498zm-7.085-10.1c-.464-.3-.451-.352.09-.357.349-.003.634.157.634.357 0 .441-.04.441-.724 0zm-13.314 8.247c-.167-.637-.098-.676.563-.322.984.526 1 .522 1.062-.297.03-.384.487-1.729 1.017-2.987.817-1.939 1.422-4.641 1.038-4.641-.424 0-2.027 2.21-2.362 3.256-.224.698-.622 1.517-.884 1.818s-.616 1.198-.787 1.992c-.354 1.642-.193 3.095.261 2.36.155-.25.196-.78.092-1.18zm.278-1.57c0-.51.15-.834.333-.72.183.112.44-.284.57-.88.132-.598.41-1.192.62-1.322.225-.139.295-.029.17.268-.116.277-.415 1.195-.665 2.042-.506 1.717-1.028 2.028-1.028.612zm2.239-4.324c.226-.498.553-.905.724-.905.172 0 .046.407-.28.905-.327.498-.653.905-.725.905s.054-.407.28-.905zm12.024 6.634c-.129-.208-.042-.496.192-.641.305-.189.248-.408-.203-.774-.558-.454-.6-.439-.383.141.147.392.102.564-.113.431-.197-.121-.358-.568-.358-.993 0-.75-.015-.752-.506-.08-.447.61-.419.77.236 1.337.409.354.627.644.485.644-.142 0-.155.166-.03.368.125.203.381.273.57.156.189-.116.238-.382.11-.59zm-1.951-2.991c0-.088-.163-.26-.363-.384-.199-.123-.362-.051-.362.16 0 .21.163.383.362.383.2 0 .363-.072.363-.16zm-.337-1.742c.024-.777.04-.781.337-.09.262.611.315.544.336-.427.014-.633.282-1.407.595-1.72.517-.517.46-.569-.635-.569-1.194 0-1.203.014-1.265 1.81-.033.996.089 1.811.273 1.811.183 0 .345-.367.359-.815zm-3.699-6.991c-.047-.908-.212-1.73-.368-1.826-.361-.223-.672 1.213-.516 2.39.148 1.117.131 1.086.59 1.086.222 0 .344-.688.294-1.65zm3.854 1.288c-.123-.199-.065-.362.128-.362.745 0-.037-2.715-.874-3.036-.64-.246-1.086.644-1.207 2.402-.09 1.3-.045 1.358 1.042 1.358.665 0 1.043-.15.912-.362zm2.312-2.354c.026-.596-.03-.628-.32-.18-.193.298-.337 1.031-.32 1.629.03 1.064.036 1.068.32.18.16-.497.304-1.23.32-1.629zm-10.097-3.44c0-.199-.172-.362-.383-.362s-.283.163-.16.362c.123.2.296.363.384.363.088 0 .16-.163.16-.363zm10.808-1.127c-.268-.17-.814-.293-1.212-.273-.498.025-.548.084-.161.188.31.084.798.48 1.086.883.461.644.538.658.65.12.069-.335-.094-.748-.363-.918zm-2.872-.19c.083-.072-.365-.131-.995-.131-.631 0-1.147.166-1.147.369 0 .325 1.71.134 2.142-.239z" opacity=".703"/></g></svg>