<?xml version="1.0" encoding="UTF-8" standalone="no"?>
<!-- Created with Inkscape (http://www.inkscape.org/) -->

<svg
   xmlns:dc="http://purl.org/dc/elements/1.1/"
   xmlns:cc="http://creativecommons.org/ns#"
   xmlns:rdf="http://www.w3.org/1999/02/22-rdf-syntax-ns#"
   xmlns:svg="http://www.w3.org/2000/svg"
   xmlns="http://www.w3.org/2000/svg"
   xmlns:sodipodi="http://sodipodi.sourceforge.net/DTD/sodipodi-0.dtd"
   xmlns:inkscape="http://www.inkscape.org/namespaces/inkscape"
   width="141.50201mm"
   height="81.263344mm"
   viewBox="0 0 141.50201 81.263345"
   version="1.1"
   id="svg7029"
   inkscape:version="0.92.4 (5da689c313, 2019-01-14)"
   sodipodi:docname="chair.svg">
  <defs
     id="defs7023" />
  <sodipodi:namedview
     id="base"
     pagecolor="#ffffff"
     bordercolor="#666666"
     borderopacity="1.0"
     inkscape:pageopacity="0.0"
     inkscape:pageshadow="2"
     inkscape:zoom="0.98994949"
     inkscape:cx="320.85558"
     inkscape:cy="262.73682"
     inkscape:document-units="mm"
     inkscape:current-layer="layer1"
     showgrid="false"
     fit-margin-top="0"
     fit-margin-left="0"
     fit-margin-right="0"
     fit-margin-bottom="0"
     inkscape:pagecheckerboard="true"
     inkscape:window-width="1920"
     inkscape:window-height="1017"
     inkscape:window-x="1072"
     inkscape:window-y="394"
     inkscape:window-maximized="1" />
  <metadata
     id="metadata7026">
    <rdf:RDF>
      <cc:Work
         rdf:about="">
        <dc:format>image/svg+xml</dc:format>
        <dc:type
           rdf:resource="http://purl.org/dc/dcmitype/StillImage" />
        <dc:title></dc:title>
      </cc:Work>
    </rdf:RDF>
  </metadata>
  <g
     inkscape:label="Layer 1"
     inkscape:groupmode="layer"
     id="layer1"
     transform="translate(-52.025183,-117.89322)">
    <path
       style="fill:#ffffff;fill-opacity:0.5714286;stroke-width:1"
       d="m 69.753091,213.88698 c -1.325941,-1.43072 -1.168298,-2.58389 0.61815,-4.52198 1.520541,-1.64959 1.533358,-1.68748 1.279803,-3.78441 -0.140872,-1.16499 -0.84419,-4.897 -1.562943,-8.29338 -0.868081,-4.10201 -1.244494,-6.74126 -1.121174,-7.86118 0.321086,-2.91595 -0.103475,-3.92036 -2.371239,-5.60988 l -2.052503,-1.52914 -0.243646,0.91102 c -0.134012,0.50107 -0.367138,4.69844 -0.518071,9.32749 -0.150933,4.62905 -0.399827,8.61936 -0.553098,8.86735 -0.153271,0.248 -0.666139,0.39408 -1.139706,0.3246 l -0.861031,-0.12632 -0.159308,-12.53759 c -0.08761,-6.89568 -0.138721,-13.87621 -0.113571,-15.51227 0.0731,-4.75471 -0.62724,-9.96859 -1.45876,-10.86004 -1.075483,-1.15299 -1.326026,-2.66697 -0.619732,-3.7449 1.014107,-1.54772 0.634132,-7.10474 -1.117361,-16.34096 -0.969401,-5.11198 -1.891896,-7.43477 -2.952704,-7.43477 -0.814036,0 -0.700388,-0.49262 0.338896,-1.46898 l 0.905784,-0.85094 0.871936,1.00728 c 1.471249,1.69959 1.989633,1.81164 4.446962,0.96124 2.637838,-0.91288 2.857327,-0.9255 4.171808,-0.23973 0.938498,0.48962 1.080059,0.4572 1.99401,-0.45676 0.821805,-0.8218 1.320017,-0.9838 3.025778,-0.9838 1.737675,0 2.16719,0.14571 2.882146,0.97776 0.75037,0.87326 0.916647,0.92184 1.55582,0.45446 0.923604,-0.67535 2.986483,-0.66492 5.64909,0.0286 2.365332,0.61607 3.531406,0.30591 3.531406,-0.93937 0,-0.93946 0.817697,-0.94425 1.66342,-0.01 0.605949,0.66958 0.61043,0.79161 0.05801,1.58031 -0.677076,0.96666 -0.774363,5.18673 -0.353494,15.33389 l 0.242666,5.85071 3.353314,0.26232 c 1.844321,0.14428 4.244657,0.49448 5.334073,0.77826 1.089416,0.28375 3.133698,0.62837 4.542853,0.76582 1.409155,0.13749 3.093215,0.46527 3.742365,0.72845 1.41651,0.5743 1.95743,1.87349 1.12618,2.70475 -0.52036,0.52036 -0.67204,0.5154 -1.53549,-0.0503 -0.52696,-0.34529 -0.95809,-0.87653 -0.95809,-1.18054 0,-0.30401 -0.24875,-0.55276 -0.55276,-0.55276 -1.480539,0 -2.491544,4.1521 -1.713428,7.03693 0.31179,1.15596 1.163228,2.37758 3.018108,4.33027 1.42107,1.49601 2.75952,3.18231 2.97433,3.74729 0.21481,0.56501 0.39056,2.79149 0.39056,4.94776 0,3.47864 0.095,4.04886 0.84207,5.05967 1.30846,1.77009 1.07312,3.65934 -0.94983,7.62552 -1.91877,3.76194 -2.61888,6.21973 -2.13453,7.49364 0.17631,0.46378 1.04768,1.24326 1.93638,1.73217 1.45882,0.80258 1.62688,1.04075 1.72976,2.45142 0.11104,1.52202 0.0771,1.57268 -1.3099,1.95783 -1.96682,0.54617 -2.27361,0.51169 -3.55311,-0.39939 -0.9939,-0.70774 -1.09616,-0.95346 -0.89553,-2.15198 0.12461,-0.74417 0.28068,-3.03717 0.34692,-5.09559 0.0662,-2.05839 0.33245,-4.72815 0.59156,-5.93279 0.52275,-2.43026 0.27439,-4.66241 -0.55412,-4.98036 -0.29742,-0.11415 -0.54074,-0.45873 -0.54074,-0.76581 0,-0.30707 -0.46314,-1.00994 -1.0292,-1.56192 -0.566073,-0.55198 -1.197623,-1.27191 -1.403465,-1.59981 -0.33801,-0.53847 -1.037285,-0.48334 -7.219883,0.56914 -6.060168,1.03164 -6.863558,1.25164 -7.001907,1.91748 -0.08596,0.41367 -0.603258,3.15205 -1.149564,6.08528 -0.940503,5.04977 -1.039583,5.33317 -1.864598,5.33317 -0.479223,0 -0.959948,-0.14343 -1.068278,-0.31871 -0.108324,-0.17527 0.249076,-2.69906 0.794235,-5.60841 0.545159,-2.90934 0.91858,-5.35641 0.829825,-5.43793 -0.08876,-0.0815 -0.66662,-0.0669 -1.284143,0.0325 -1.327569,0.21374 -2.806924,2.22552 -2.806924,3.81712 0,0.59524 -0.520628,1.7279 -1.216334,2.64627 -2.500186,3.30028 -2.900487,4.93981 -2.900487,11.8797 0,3.94989 0.106951,4.81482 0.699412,5.65632 1.250822,1.77662 1.311766,2.5717 0.276483,3.60698 -1.339172,1.33918 -3.658625,1.31636 -4.92346,-0.0483 z m 3.09769,-31.04763 c -0.124364,-0.12433 -0.447159,-0.13763 -0.717325,-0.0295 -0.298557,0.11954 -0.209874,0.20815 0.226113,0.22611 0.394529,0.0163 0.615575,-0.0722 0.491212,-0.19657 z m 15.717641,-2.39348 c 15.058168,-2.39159 16.326108,-2.61416 16.112158,-2.8281 -0.11952,-0.11952 -29.506303,4.47738 -30.979924,4.84614 -2.432053,0.60858 2.80889,-0.10283 14.867766,-2.01804 z m -15.14846,0.8747 c -0.257301,-0.10378 -0.678339,-0.10378 -0.93564,0 -0.257301,0.10378 -0.04678,0.18878 0.46782,0.18878 0.514603,0 0.725122,-0.085 0.46782,-0.18878 z m 4.958899,-0.66881 c 1.440888,-0.27303 2.198758,-0.50495 1.684155,-0.51537 -0.514602,-0.01 -2.114549,0.20442 -3.555438,0.47745 -1.440886,0.27303 -2.198756,0.50495 -1.684154,0.51537 0.514604,0.01 2.11455,-0.20442 3.555437,-0.47745 z m -10.292054,-0.34739 c 0,-0.0777 -0.294727,-0.37244 -0.654949,-0.65494 -0.593592,-0.46554 -0.606828,-0.4523 -0.141295,0.1413 0.488918,0.62343 0.796252,0.82167 0.796252,0.51365 z m 14.696691,-0.47844 c -0.253383,-0.10261 -0.75863,-0.10879 -1.122769,-0.0141 -0.36414,0.0949 -0.156825,0.17877 0.460698,0.18641 0.617524,0.007 0.915456,-0.07 0.662071,-0.17253 z m 2.425544,-0.38676 c -0.360221,-0.0941 -0.949676,-0.0941 -1.309897,0 -0.360222,0.0942 -0.06549,0.17115 0.65495,0.17115 0.720444,0 1.01517,-0.0771 0.654947,-0.17115 z m -18.61926,-0.27446 c 0,-0.087 -1.136805,-0.94528 -2.526232,-1.9073 -1.389427,-0.96201 -2.261562,-1.47425 -1.938076,-1.1383 0.491208,0.51013 4.070719,3.11704 4.370744,3.18316 0.05145,0.0114 0.09357,-0.0505 0.09357,-0.13763 z m 21.059051,-0.0873 c -0.253384,-0.10251 -0.758629,-0.10878 -1.122768,-0.0141 -0.36414,0.0949 -0.156826,0.17877 0.460697,0.18639 0.617524,0.007 0.915454,-0.07 0.662071,-0.17253 z m 2.245539,-0.37424 c -0.253383,-0.10262 -0.758629,-0.10878 -1.12277,-0.0141 -0.36414,0.0949 -0.156824,0.17877 0.460699,0.1864 0.617524,0.007 0.915454,-0.07 0.662071,-0.17253 z m 3.829007,-0.48157 c 0.960305,-0.19862 1.161577,-0.31734 0.561385,-0.33111 -0.514602,-0.0114 -1.609303,0.11782 -2.432668,0.28817 -0.960304,0.19864 -1.161575,0.31734 -0.561385,0.33112 0.514603,0.0113 1.609304,-0.11782 2.432668,-0.28818 z M 67.71255,178.0531 c 0,-0.081 -0.26137,-0.24739 -0.580821,-0.36998 -0.333061,-0.12786 -0.483288,-0.0651 -0.35217,0.14709 0.219785,0.35563 0.932991,0.526 0.932991,0.22289 z m 29.292696,-0.47267 c -0.253383,-0.1025 -0.758629,-0.10877 -1.12277,-0.0141 -0.36414,0.0949 -0.156824,0.17876 0.460699,0.1864 0.617524,0.007 0.915454,-0.07 0.662071,-0.17252 z M 66.215525,177.2777 c 0,-0.0956 -0.378934,-0.35759 -0.842077,-0.58203 -0.80863,-0.39187 -0.813221,-0.38494 -0.115594,0.17396 0.76358,0.61176 0.957673,0.69447 0.957673,0.40807 z m 36.457145,-0.60297 c 0.87351,-0.37298 -0.53928,-0.21146 -3.522572,0.40274 -1.573153,0.32386 -1.538317,0.33301 0.528513,0.13876 1.216979,-0.1143 2.564309,-0.35805 2.994059,-0.54155 z m -38.328427,-0.51982 c 0,-0.0956 -0.378936,-0.35759 -0.842078,-0.58204 -0.808629,-0.39186 -0.813221,-0.38495 -0.115595,0.17396 0.763582,0.61176 0.957675,0.69447 0.957675,0.40808 z m 37.425657,-0.8834 c 0,-0.16985 -0.74916,-1.27358 -1.66479,-2.45274 -0.915617,-1.17914 -2.027743,-3.10326 -2.471378,-4.2758 -0.694008,-1.83427 -0.77321,-2.58908 -0.567321,-5.40665 l 0.239299,-3.27474 -2.539678,-0.0202 c -1.396822,-0.0114 -3.887002,-0.16269 -5.533731,-0.33685 -1.646728,-0.17417 -3.053028,-0.2605 -3.125111,-0.19185 -0.07208,0.0686 -0.0103,2.79039 0.137378,6.04828 l 0.268438,5.92345 3.692352,0.86247 c 2.030791,0.47437 5.33728,1.42817 7.34775,2.11957 4.093392,1.40771 4.216792,1.43712 4.216792,1.00503 z m -35.835067,-2.20994 c 0.721648,-0.20749 0.838776,-1.69758 0.412436,-5.24703 -0.231192,-1.92478 -0.261143,-1.96486 -1.468553,-1.96486 -1.410326,0 -1.968374,-0.96488 -1.290553,-2.23139 0.286082,-0.53454 0.288769,-0.76265 0.009,-0.76265 -0.729873,0 -0.821579,1.05811 -0.395944,4.56852 0.763697,6.29857 0.779156,6.36292 1.460975,6.08107 0.339736,-0.14046 0.912429,-0.34009 1.272651,-0.44366 z m 7.95295,-1.04665 2.994053,-0.51515 -2.432668,0.19289 c -1.337967,0.10612 -3.022121,0.33334 -3.742566,0.50498 -2.079851,0.49547 -0.09933,0.38173 3.181181,-0.18272 z m 4.9589,-0.80937 c -0.360222,-0.094 -0.949676,-0.094 -1.309897,0 -0.360224,0.0942 -0.06549,0.17115 0.654947,0.17115 0.720444,0 1.015172,-0.0771 0.65495,-0.17115 z m 4.772526,-2.74361 c 0.145119,-1.44503 0.204316,-9.17233 0.13155,-17.17179 l -0.132299,-14.54447 -1.309897,0.01 c -0.720444,0.005 -2.021378,-0.0504 -2.890962,-0.12322 -1.335434,-0.11188 -1.758512,0.0375 -2.723262,0.96184 -1.7642,1.6902 -2.225642,4.80165 -0.792195,5.34166 0.877591,0.33062 2.973818,2.42135 3.086807,3.07874 0.199449,1.16041 -0.497505,4.88643 -1.009844,5.39876 -1.037823,1.03783 -1.360133,2.70962 -1.559874,8.09092 -0.18556,4.99917 -0.13677,5.59068 0.598107,7.25201 0.440078,0.99487 0.800144,2.02352 0.800144,2.28591 0,0.8356 2.340889,2.03461 3.985274,2.04128 l 1.552606,0.005 z m -13.853761,-1.14637 c 1.182341,-3.10357 -0.873702,-14.93912 -2.595186,-14.93912 -0.319263,0 -0.58048,-0.25263 -0.58048,-0.56138 0,-0.90871 -0.04636,-1.05632 -0.788641,-2.51133 -0.963991,-1.88957 -0.895564,-3.15192 0.227256,-4.19251 0.514602,-0.47693 0.935641,-1.05833 0.935641,-1.29204 0,-0.23368 0.249413,-0.4249 0.554254,-0.4249 0.82814,0 1.083193,-1.63837 0.445254,-2.86017 -1.349778,-2.58513 -3.88023,-4.07137 -5.930656,-3.48331 -0.681529,0.19545 -1.798955,0.35538 -2.483169,0.35538 -1.01146,0 -1.20664,0.1225 -1.044053,0.65494 0.39667,1.29919 2.051956,10.11854 2.827299,15.06383 0.435678,2.77885 0.878041,5.59981 0.983026,6.2688 0.104983,0.66898 0.309564,1.21761 0.454618,1.21916 1.367727,0.0148 5.173333,0.88601 5.395451,1.23537 0.155948,0.24527 0.286118,2.05994 0.289271,4.03258 0.0052,3.24666 0.390506,5.20056 0.683172,3.46426 0.06384,-0.37869 0.345956,-1.292 0.626943,-2.02956 z m 2.702834,-2.64357 c -0.114491,-0.85358 -0.515598,-1.86003 -0.891356,-2.23656 -0.661558,-0.66292 -0.679179,-0.61378 -0.556389,1.55195 0.111195,1.96131 0.220897,2.23656 0.891356,2.23656 0.680443,0 0.74165,-0.17074 0.556389,-1.55195 z m 3.103656,-0.92076 c 0,-2.15369 -0.527934,-2.64726 -1.132034,-1.05837 -0.406286,1.06861 -0.486225,2.91083 -0.141267,3.25578 0.123049,0.12307 0.459875,0.13311 0.748512,0.0223 0.360455,-0.13834 0.524795,-0.83345 0.524795,-2.21975 z m -1.133557,-3.88966 c 0.0033,-0.5146 -0.316566,-1.42473 -0.710636,-2.02249 l -0.716492,-1.08685 -0.776669,1.27398 c -0.978515,1.60506 -0.972954,1.97822 0.0501,3.36198 l 0.829574,1.12206 0.659131,-0.85652 c 0.362523,-0.47107 0.661767,-1.27756 0.664988,-1.79216 z m -2.617331,-4.25184 -0.0084,-1.17488 -0.731869,0.93565 c -0.402529,0.5146 -0.730011,1.44088 -0.727741,2.05841 l 0.0041,1.12277 0.736061,-0.88354 c 0.404834,-0.48595 0.732316,-1.41223 0.72774,-2.05841 z m 3.738437,1.35136 c -0.01216,-0.64094 -1.201459,-2.33911 -1.638131,-2.33911 -0.434982,0 -0.209658,1.34624 0.361905,2.16226 0.69843,0.99714 1.293387,1.07959 1.276226,0.17685 z m -5.034313,-2.73133 c 0.254821,-0.80287 -0.254005,-1.65943 -1.326811,-2.23358 -0.593139,-0.31744 -0.595322,-0.23138 -0.03374,1.33033 0.661566,1.83974 0.993394,2.06004 1.360542,0.90325 z m 2.497355,-1.34 c -0.467965,-0.8362 -0.948139,-0.0127 -0.611359,1.04802 0.226823,0.71466 0.295373,0.73551 0.604139,0.18378 0.210754,-0.37659 0.213605,-0.86301 0.0072,-1.2318 z m 3.091041,-0.32618 0.258164,-1.49704 -0.999513,0.98237 c -0.868853,0.85396 -0.941058,1.0916 -0.552355,1.81791 0.556532,1.03988 0.959659,0.63379 1.293704,-1.30324 z m -4.42606,-1.51403 c -0.196826,-0.51292 -0.344663,-0.54287 -0.802823,-0.16263 -0.435864,0.36174 -0.463556,0.58417 -0.123713,0.99366 0.559553,0.67421 1.262285,0.0439 0.926532,-0.83103 z m 2.636191,-0.2556 c -0.706132,-0.44924 -0.997302,-0.33323 -0.997302,0.39735 0,1.02305 0.426379,1.25693 0.960297,0.52675 0.356034,-0.4869 0.36518,-0.71532 0.03701,-0.9241 z m -4.04901,-0.78071 c 0.305615,-0.36825 0.172609,-0.8387 -0.52905,-1.87128 -0.515518,-0.75866 -1.065965,-1.37937 -1.223219,-1.37937 -0.535471,0 -1.184128,0.89617 -1.184128,1.63598 0,1.60336 2.022702,2.71561 2.936397,1.61467 z m 2.450509,-0.78679 c -0.185531,-0.48347 -0.326888,-0.53332 -0.539028,-0.19008 -0.37865,0.61267 0.0102,1.62582 0.453677,1.18226 0.185258,-0.18525 0.223666,-0.63173 0.08535,-0.99218 z m 4.191051,-0.0312 c 0.567903,-0.86672 0.567903,-1.00455 0,-1.87128 -0.337181,-0.5146 -0.83625,-0.93565 -1.109042,-0.93565 -0.71697,0 -1.763105,2.81354 -1.240464,3.33619 0.684388,0.68438 1.704924,0.4545 2.349506,-0.52926 z m -5.461134,-2.64066 v -2.07928 l -0.89846,1.04452 -0.898457,1.04452 0.736814,1.03476 c 0.405248,0.56911 0.809554,1.03475 0.898459,1.03475 0.0889,0 0.161644,-0.93567 0.161644,-2.07927 z m 2.636447,0.72558 c 0.316203,-0.83167 0.23011,-1.11129 -0.570647,-1.85341 -0.835046,-0.7739 -0.943031,-0.79671 -0.943031,-0.19919 0,0.7594 0.735691,3.03205 0.981515,3.03205 0.08788,0 0.327352,-0.44075 0.532163,-0.97945 z m -6.073421,-1.50533 c 0.06515,-0.0331 -0.04759,-0.1627 -0.25052,-0.28813 -0.415934,-0.25705 -1.552098,0.73893 -1.552098,1.36061 0,0.22304 0.378934,0.0865 0.842077,-0.30344 0.463142,-0.38992 0.895385,-0.736 0.960541,-0.76904 z m 9.432583,-0.3131 c -0.491551,-0.59229 -1.504532,-0.78413 -1.504532,-0.28493 0,0.30401 1.583421,1.13312 1.831052,0.95877 0.0808,-0.0568 -0.06615,-0.3601 -0.32652,-0.67384 z m -7.275671,-1.51977 c 0.684987,-1.6394 0.227298,-3.70485 -1.195718,-5.39602 -1.343739,-1.59694 -1.950609,-1.42917 -0.710674,0.19648 1.275694,1.6725 1.633764,3.92275 0.821482,5.16243 -0.568179,0.86715 -0.495308,1.3607 0.200905,1.3607 0.182037,0 0.579841,-0.59561 0.884005,-1.32359 z m 4.470902,-0.23022 c -1.080694,-1.28432 -1.242197,-3.30715 -0.383916,-4.80856 0.646883,-1.1316 0.687899,-1.49703 0.16803,-1.49703 -0.216345,0 -0.655112,0.6265 -0.975042,1.39219 -0.767562,1.83704 -0.480352,4.36041 0.630939,5.54333 1.202652,1.28016 1.698186,0.72274 0.559989,-0.62993 z"
       id="path7585"
       inkscape:connector-curvature="0"
       sodipodi:nodetypes="cccsssccssccscccssccccscscccsccscccccccsssscscccccccccccsccscsscsccscsccccccccccscccsscscscsccscccccccscsscssccccccccccccccccccsccscccccccccccccccccccccccsccsccccccccsscssccccccccscsscscccccccscsccccssccssccscssccccccccsccsccccccccccccccccccccccsscccscccccccccccccccccssssccsscccccccsccsccccssccsscccscccsccccccscccsccc" />
    <path
       style="fill:#ffffff;fill-opacity:0.5714286;stroke-width:1"
       d="m 122.17913,146.91352 c -0.10369,-0.1037 -0.18491,-0.37705 -0.18049,-0.60746 0.007,-0.35479 0.0493,-0.34804 0.27774,0.0441 0.29397,0.50473 1.17662,0.62636 1.39212,0.19183 0.074,-0.14917 0.10448,-0.1194 0.0678,0.0661 -0.0736,0.37208 -1.25814,0.6044 -1.55716,0.30539 z m -0.18853,-1.39917 c 0,-0.16791 0.17859,-0.37381 0.39687,-0.45758 0.636,-0.24405 0.46319,-0.59004 -0.49458,-0.99022 -1.24158,-0.51877 -1.75437,-1.36316 -1.75437,-2.88885 0,-1.06682 0.13101,-1.41541 0.77339,-2.05779 0.42537,-0.42537 0.96115,-0.7734 1.19063,-0.7734 1.03955,0 0.11658,-1.6838 -1.03798,-1.89362 -0.65095,-0.11829 -0.90782,-1.28138 -0.28299,-1.28138 0.2284,0 0.41528,0.11906 0.41528,0.26458 0,0.14552 -0.12609,0.26459 -0.2802,0.26459 -0.15411,0 -0.20641,0.11938 -0.11623,0.26529 0.25054,0.40539 1.19018,-0.19681 1.19018,-0.76276 0,-0.26337 -0.24173,-0.69762 -0.53718,-0.96499 -0.68127,-0.61655 -1.80477,-0.28921 -2.31027,0.6731 -0.33083,0.62979 -0.27853,2.0364 0.11372,3.05859 0.12666,0.33008 0.0826,0.40454 -0.15322,0.25881 -0.20205,-0.12487 -0.60619,0.0579 -1.03715,0.46893 -1.72742,1.64771 -3.33084,1.54211 -5.50762,-0.36273 -1.50901,-1.32051 -2.73911,-1.72417 -2.73911,-0.89885 0,0.22687 -0.11907,0.33891 -0.26459,0.24897 -0.85385,-0.52771 0.63827,-1.43405 1.55404,-0.94395 0.82987,0.44413 0.73639,-0.192 -0.22282,-1.51614 -1.04927,-1.44848 -1.68826,-1.77645 -2.66934,-1.37007 -0.83468,0.34574 -1.17077,1.02681 -0.91083,1.84579 0.20575,0.64827 1.4552,0.74845 1.4552,0.11667 0,-0.23919 -0.12557,-0.33488 -0.2989,-0.22775 -0.17149,0.10598 -0.25326,0.0478 -0.19183,-0.13652 0.19778,-0.59334 0.62303,-0.2889 0.62303,0.44603 0,0.56081 -0.14148,0.74765 -0.61714,0.81501 -0.7751,0.10979 -1.63182,-0.64152 -1.63182,-1.43103 0,-0.33008 0.31247,-0.9715 0.69438,-1.42537 0.77443,-0.92036 0.78276,-0.88077 -0.30462,-1.44777 l -0.78664,-0.41018 0.71562,-0.002 c 0.802,-0.002 0.97261,-0.48771 1.11537,-3.17662 0.11118,-2.09401 0.12609,-2.16477 0.41797,-1.98437 0.14552,0.0899 0.26458,1.10899 0.26458,2.26457 0,1.22431 0.11041,2.10105 0.26459,2.10105 0.14552,0 0.26458,0.17859 0.26458,0.39687 0,0.2261 0.25618,0.41009 0.59531,0.42757 0.44799,0.0231 0.48073,0.0606 0.13229,0.15169 -0.25466,0.0666 -0.46302,0.23134 -0.46302,0.36619 0,0.13485 -0.20836,0.25044 -0.46302,0.25687 -0.27285,0.007 -0.049,0.23017 0.54504,0.54363 0.66157,0.34911 1.36549,1.09534 2.048,2.17112 l 1.03996,1.63918 0.002,-1.5417 c 0.002,-1.34949 0.0989,-1.63813 0.77591,-2.31511 0.60187,-0.60187 1.01263,-0.77339 1.85208,-0.77339 1.40876,0 2.13702,0.70126 2.13702,2.05779 0,1.32913 -0.61611,2.17554 -1.58361,2.17554 -1.03167,0 -1.63892,-0.66535 -1.53953,-1.68683 0.0704,-0.72338 0.17919,-0.82671 0.87056,-0.82671 0.54214,0 0.81811,0.14532 0.87929,0.46302 0.0544,0.28256 -0.0731,0.46302 -0.3271,0.46302 -0.22895,0 -0.41628,-0.11906 -0.41628,-0.26458 0,-0.14552 -0.11906,-0.26459 -0.26458,-0.26459 -0.36846,0 -0.33156,0.88553 0.0529,1.27 0.83525,0.83525 1.91183,-0.0753 1.74933,-1.47956 -0.113,-0.97648 -1.17155,-1.47804 -2.29379,-1.08682 -1.05176,0.36664 -1.49831,1.75335 -1.1146,3.46125 0.32926,1.46553 1.07412,2.06847 2.5554,2.06847 1.35375,0 1.79659,-0.50376 2.07205,-2.35709 0.37931,-2.55205 2.27779,-3.99279 3.63859,-2.76128 0.26612,0.24083 0.48385,0.30739 0.48385,0.14791 0,-0.15949 -0.11906,-0.36357 -0.26458,-0.4535 -0.40548,-0.2506 -0.31424,-1.18818 0.13229,-1.35953 0.21828,-0.0838 0.39688,-0.27937 0.39688,-0.43469 0,-0.15532 -0.26789,-0.0314 -0.59532,0.27526 -1.61733,1.51505 -3.34866,1.35408 -5.39809,-0.50189 -1.49867,-1.35721 -2.26058,-1.58664 -2.73444,-0.82342 -0.26255,0.42288 -0.28019,0.41714 -0.20342,-0.0661 0.0693,-0.436 0.27925,-0.52526 1.19264,-0.50691 l 1.10858,0.0223 -0.58758,-1.04676 c -0.32317,-0.57573 -0.87153,-1.27036 -1.21858,-1.54362 -1.22492,-0.96452 -2.67629,-0.3886 -2.67629,1.06197 0,1.01564 0.64361,1.36269 1.27728,0.68875 0.41432,-0.44063 0.41301,-0.46032 -0.0205,-0.30907 -0.30412,0.10611 -0.46302,0.0282 -0.46302,-0.22702 0,-0.43977 0.67609,-0.52842 0.92751,-0.12162 0.26214,0.42416 -0.11603,1.27927 -0.63918,1.44531 -1.59063,0.50485 -2.29748,-1.72951 -0.93525,-2.95634 0.7475,-0.6732 0.80464,-0.87258 0.25005,-0.87258 -0.21828,0 -0.39688,-0.11034 -0.39688,-0.24519 0,-0.13485 -0.20836,-0.29963 -0.46302,-0.36618 -0.36681,-0.0959 -0.34573,-0.12738 0.10143,-0.15169 0.689,-0.0375 0.89313,-0.62352 1.07051,-3.0734 0.0737,-1.01865 0.23846,-2.03067 0.366,-2.24895 0.24658,-0.42198 0.23847,-0.46819 0.37839,2.15699 0.12623,2.36821 0.36999,3.13278 1.00608,3.15555 0.39343,0.0141 0.45566,0.071 0.19117,0.17482 -0.5305,0.20823 -1.16597,0.86263 -0.83767,0.86263 0.48951,0 1.94635,1.41302 2.70972,2.62821 l 0.759,1.20825 0.005,-1.10726 c 0.01,-2.15445 1.02505,-3.3642 2.82336,-3.3642 1.58162,0 2.39614,1.43999 1.82766,3.23112 -0.39174,1.23427 -2.22731,1.31988 -2.76983,0.12918 -0.37799,-0.82959 -0.16083,-1.5879 0.51626,-1.8028 0.66479,-0.211 1.04717,0.0375 1.04717,0.68061 0,0.54748 -0.38852,0.6906 -0.66413,0.24466 -0.31458,-0.509 -0.66831,0.0213 -0.37713,0.56539 0.19712,0.36832 0.49867,0.50407 0.9929,0.44697 0.62457,-0.0722 0.7193,-0.21125 0.78881,-1.15816 0.0689,-0.9386 -0.009,-1.11615 -0.60776,-1.38906 -0.95072,-0.43318 -1.27849,-0.3961 -2.08139,0.23546 -0.58299,0.45858 -0.69714,0.7598 -0.69714,1.83963 0,2.01615 0.47042,2.72228 2.17536,3.26538 0.79801,0.25421 1.98823,-0.34832 2.33319,-1.18112 0.17885,-0.43178 0.26144,-0.8488 0.18353,-0.92671 -0.0779,-0.0779 -0.027,-0.5568 0.11308,-1.06421 0.18864,-0.68323 0.15249,-1.21054 -0.13936,-2.03268 -0.69017,-1.94416 -0.72741,-2.72042 -0.15534,-3.23814 0.6308,-0.57086 0.6462,-0.86213 0.0787,-1.48917 -0.40802,-0.45086 -0.40583,-0.51925 0.0321,-1.00316 0.57459,-0.63491 0.3828,-1.25177 -0.43792,-1.4085 -0.56678,-0.10826 -0.57039,-0.11942 -0.0493,-0.15282 0.73188,-0.0469 0.89297,-0.87079 0.89297,-4.56701 0,-2.81002 0.0139,-2.87715 0.59531,-2.86893 0.55127,0.008 0.56105,0.0344 0.13229,0.35989 -0.58889,0.44704 -0.58889,0.93072 0,1.38846 0.44098,0.34276 0.44098,0.37704 0,0.7198 -0.57629,0.44794 -0.58735,0.87648 -0.0368,1.42702 0.3919,0.3919 0.3919,0.45131 0,0.73787 -0.45187,0.33043 -0.5886,1.17936 -0.18994,1.17936 0.12995,0 0.29964,0.16513 0.37708,0.36693 0.0988,0.25741 -0.0112,0.32717 -0.36857,0.23373 -0.34177,-0.0894 -0.50937,0.002 -0.50937,0.27891 0,0.57745 0.54174,0.84928 0.81928,0.41111 0.16724,-0.26405 0.23207,-0.27339 0.235,-0.0339 0.002,0.18191 0.27195,0.34259 0.59937,0.3571 0.56609,0.0251 0.56291,0.0354 -0.0648,0.21005 -0.76247,0.21215 -1.03053,1.01278 -0.41782,1.2479 0.52006,0.19957 0.53644,0.73254 0.0353,1.14845 -0.40485,0.336 -0.29757,0.93442 0.29108,1.62361 0.41207,0.48245 0.27319,1.69506 -0.3691,3.22268 -0.35089,0.83457 -0.36339,1.10084 -0.0769,1.63626 0.18824,0.35172 0.27479,0.89742 0.19235,1.21267 -0.38298,1.46455 1.10751,2.55677 2.8373,2.07915 1.26593,-0.34954 1.7397,-1.11917 1.7397,-2.82612 0,-1.76112 -0.30257,-2.34546 -1.33147,-2.57145 -1.12399,-0.24687 -2.10811,0.42737 -2.10811,1.44429 0,1.49002 1.45171,1.96695 1.95947,0.64374 0.22031,-0.57411 -0.0291,-0.8151 -0.4293,-0.41486 -0.48858,0.48857 -0.78131,0.36976 -0.68868,-0.27952 0.10601,-0.74301 0.80533,-0.89778 1.39449,-0.30862 0.81034,0.81034 -0.018,2.48873 -1.22822,2.48873 -0.86757,0 -1.53693,-0.9616 -1.53693,-2.20795 0,-1.78007 1.3165,-2.6314 2.98871,-1.93271 1.268,0.52981 1.77224,1.36247 1.78205,2.94276 l 0.008,1.33019 0.61546,-1.00111 c 0.87045,-1.41587 1.75512,-2.31745 2.67532,-2.72644 0.49209,-0.21871 0.61778,-0.35672 0.33073,-0.36314 -0.25467,-0.006 -0.46303,-0.12069 -0.46303,-0.25554 0,-0.13485 -0.20835,-0.29963 -0.46302,-0.36618 -0.35132,-0.0918 -0.32062,-0.1284 0.12726,-0.15169 0.79198,-0.0412 0.83367,-0.22735 1.10017,-4.91225 0.0206,-0.36214 0.11262,-0.43266 0.3087,-0.23659 0.15364,0.15365 0.33488,1.15972 0.40275,2.23573 0.15783,2.50226 0.28465,2.87565 0.98937,2.91311 0.44756,0.0238 0.47331,0.0579 0.11446,0.15169 -0.25466,0.0665 -0.46302,0.23133 -0.46302,0.36618 0,0.13485 -0.17859,0.24519 -0.39687,0.24519 -0.55875,0 -0.49301,0.34184 0.14199,0.73841 1.58556,0.99019 0.79631,3.72608 -0.8884,3.0796 -0.48245,-0.18513 -0.82486,-1.03492 -0.57797,-1.4344 0.25818,-0.41775 0.9275,-0.31272 0.9275,0.14554 0,0.22687 -0.11906,0.33891 -0.26458,0.24897 -0.14552,-0.0899 -0.26459,-0.0337 -0.26459,0.12498 0,0.54643 0.8593,0.63747 1.23013,0.13033 0.65459,-0.89521 -0.1722,-2.23968 -1.3773,-2.23968 -0.78599,0 -1.72114,0.78693 -2.42478,2.04047 l -0.58758,1.04676 1.10858,-0.0223 c 0.91339,-0.0183 1.12338,0.0709 1.19264,0.50691 0.0768,0.48329 0.0591,0.48902 -0.20342,0.0661 -0.46578,-0.75021 -1.14588,-0.54292 -2.71032,0.82609 -2.11588,1.85155 -3.81189,2.00771 -5.42222,0.49922 -0.32742,-0.30671 -0.59531,-0.43058 -0.59531,-0.27526 0,0.15532 0.1786,0.35093 0.39688,0.43469 0.44653,0.17135 0.53776,1.10893 0.13229,1.35953 -0.14552,0.0899 -0.26458,0.29401 -0.26458,0.4535 0,0.15948 0.21773,0.0929 0.48385,-0.14791 1.42827,-1.29257 3.74948,0.69638 3.74948,3.21277 0,1.27517 0.66543,1.9056 2.0114,1.9056 1.44568,0 2.36055,-0.77929 2.6355,-2.24492 0.2548,-1.35815 -0.27585,-3.00749 -1.06401,-3.30714 -0.94731,-0.36017 -2.08873,0.0553 -2.37345,0.86398 -0.48264,1.37077 0.73145,2.64135 1.64806,1.72474 0.38447,-0.38447 0.42137,-1.27 0.0529,-1.27 -0.14552,0 -0.26459,0.11907 -0.26459,0.26459 0,0.14552 -0.18732,0.26458 -0.41627,0.26458 -0.25403,0 -0.38152,-0.18046 -0.32711,-0.46302 0.0612,-0.3177 0.33716,-0.46302 0.8793,-0.46302 0.6617,0 0.80353,0.11613 0.87258,0.71452 0.13333,1.15536 -0.36745,1.79902 -1.39968,1.79902 -1.11762,0 -1.72548,-0.76641 -1.72548,-2.17554 0,-1.3812 0.72428,-2.05779 2.20284,-2.05779 1.65534,0 2.38525,0.85026 2.55966,2.98171 l 0.13229,1.61678 1.02526,-1.66511 c 0.73793,-1.19845 1.29407,-1.78208 1.98438,-2.08249 0.69115,-0.30078 0.82975,-0.4464 0.49609,-0.52125 -0.25466,-0.0571 -0.46302,-0.20546 -0.46302,-0.32964 0,-0.12418 -0.20836,-0.28024 -0.46302,-0.34679 -0.34844,-0.091 -0.3157,-0.12859 0.13229,-0.15169 0.32742,-0.0169 0.59531,-0.19936 0.59531,-0.40552 0,-0.20615 0.12568,-0.41672 0.27928,-0.46792 0.16378,-0.0546 0.27929,-0.93643 0.27929,-2.13218 0,-1.1215 0.10387,-2.10329 0.23083,-2.18176 0.33823,-0.20903 0.49825,0.57098 0.51119,2.49189 0.006,0.94466 0.14156,1.78122 0.30408,1.88166 0.16094,0.0995 0.27542,0.28659 0.2544,0.41585 -0.021,0.12925 0.2367,0.31243 0.57271,0.40706 0.33601,0.0946 0.43234,0.18772 0.21406,0.20685 -0.21829,0.0191 -0.62771,0.20939 -0.90984,0.42279 -0.50091,0.37888 -0.49624,0.40546 0.19844,1.13055 1.22768,1.28142 0.75836,3.09152 -0.75686,2.91909 -0.67132,-0.0764 -0.7807,-0.20006 -0.7807,-0.88259 0,-0.45861 0.13964,-0.79375 0.33073,-0.79375 0.1819,0 0.30096,0.11906 0.26458,0.26458 -0.0364,0.14552 -0.15544,0.23482 -0.26458,0.19844 -0.10915,-0.0364 -0.19844,0.12035 -0.19844,0.3483 0,0.29604 0.20789,0.39053 0.7276,0.33073 0.56691,-0.0652 0.74575,-0.24088 0.80978,-0.7953 0.0941,-0.81466 -0.72871,-1.80196 -1.5017,-1.80196 -0.72936,0 -1.83125,0.96863 -2.42431,2.13114 -0.66152,1.29667 -0.65509,1.35783 0.1062,1.01097 0.96258,-0.43858 2.3274,0.44057 1.48868,0.95893 -0.14552,0.0899 -0.26459,-0.0221 -0.26459,-0.24897 0,-0.76907 -1.11736,-0.42633 -2.52182,0.77353 -0.76354,0.65231 -1.72764,1.31505 -2.14244,1.47276 -1.06827,0.40616 -2.34186,0.0917 -3.4033,-0.84023 -0.53512,-0.46984 -1.04378,-0.72005 -1.22993,-0.60501 -0.22666,0.14009 -0.25929,0.0514 -0.11411,-0.31024 0.75616,-1.88337 0.29158,-3.63558 -1.05345,-3.97316 -0.77415,-0.1943 -1.70578,0.48811 -1.70578,1.24948 0,0.56595 0.93964,1.16815 1.19018,0.76276 0.0902,-0.14591 0.0379,-0.26529 -0.11623,-0.26529 -0.15411,0 -0.2802,-0.11907 -0.2802,-0.26459 0,-0.14552 0.18688,-0.26458 0.41528,-0.26458 0.62483,0 0.36797,1.16309 -0.28299,1.28138 -0.71108,0.12922 -1.45521,0.81825 -1.45521,1.34745 0,0.23659 0.34454,0.5602 0.76564,0.71915 2.34229,0.88412 2.25987,4.54485 -0.12476,5.54121 -0.97065,0.40557 -1.14706,0.75107 -0.50858,0.99607 0.21828,0.0838 0.39687,0.27611 0.39687,0.42743 0,0.17588 -0.18313,0.16076 -0.50768,-0.0419 -0.39972,-0.24963 -0.59665,-0.24321 -0.92604,0.0302 -0.29187,0.24223 -0.41836,0.25489 -0.41836,0.0419 z"
       id="path7585-1"
       inkscape:connector-curvature="0"
       sodipodi:nodetypes="ccccccccccscscssscscsccccscccccsccscscsccscsssccsccscccssscscssscsccsccsccsccccccccsccscccssccccsccscccscccscccsccsccccccccccscsscccsccscccccccscccscsccscssccccccsccccsccsscccscscscccccccsccscssscccssscssssssccccsccscsccccccsccssscscsscccssscccsscssscscccscccc" />
    <path
       style="fill:#ffffff;fill-opacity:0.5714286;stroke-width:0.99999994"
       d="m 179.01822,197.22389 c 0.83287,-0.89869 0.73385,-1.62304 -0.38828,-2.84042 -0.9551,-1.03617 -0.96316,-1.05997 -0.80389,-2.37712 0.0885,-0.73177 0.53027,-3.07598 0.98174,-5.20937 0.54527,-2.57662 0.78171,-4.23442 0.70425,-4.93789 -0.20169,-1.83161 0.065,-2.46251 1.48946,-3.52376 l 1.28925,-0.96051 0.15304,0.57225 c 0.0842,0.31474 0.23061,2.95125 0.32542,5.85893 0.0948,2.90767 0.25115,5.41412 0.34742,5.56989 0.0963,0.15578 0.41843,0.24754 0.71589,0.20389 l 0.54085,-0.0794 0.10006,-7.8753 c 0.055,-4.33142 0.0871,-8.71613 0.0713,-9.74381 -0.0459,-2.9866 0.39399,-6.26162 0.9163,-6.82157 0.67555,-0.72423 0.83293,-1.67522 0.38928,-2.35231 -0.63701,-0.97218 -0.39833,-4.46274 0.70185,-10.26433 0.60892,-3.21102 1.18837,-4.67005 1.8547,-4.67005 0.51132,0 0.43993,-0.30943 -0.21287,-0.92271 l -0.56896,-0.53451 -0.54769,0.63271 c -0.92415,1.06757 -1.24977,1.13796 -2.7933,0.60379 -1.65692,-0.57342 -1.79479,-0.58134 -2.62046,-0.15058 -0.5895,0.30754 -0.67842,0.28718 -1.25251,-0.28691 -0.51621,-0.51621 -0.82915,-0.61796 -1.9006,-0.61796 -1.09149,0 -1.36129,0.0915 -1.81037,0.61416 -0.47134,0.54853 -0.57579,0.57904 -0.97727,0.28547 -0.58015,-0.42421 -1.87592,-0.41766 -3.5484,0.018 -1.48574,0.38697 -2.2182,0.19215 -2.2182,-0.59005 0,-0.59011 -0.51362,-0.59312 -1.04485,-0.006 -0.38062,0.42059 -0.38344,0.49724 -0.0364,0.99265 0.42529,0.60719 0.48641,3.25797 0.22204,9.63176 l -0.15243,3.67504 -2.10633,0.16477 c -1.15849,0.0906 -2.66622,0.3106 -3.35052,0.48885 -0.6843,0.17823 -1.96839,0.39471 -2.85353,0.48104 -0.88514,0.0864 -1.94296,0.29225 -2.35071,0.45757 -0.88976,0.36074 -1.22954,1.17681 -0.70739,1.69895 0.32685,0.32685 0.42213,0.32374 0.96449,-0.0316 0.331,-0.21689 0.60181,-0.55058 0.60181,-0.74154 0,-0.19096 0.15625,-0.34721 0.3472,-0.34721 0.92999,0 1.56503,2.60809 1.07627,4.42015 -0.19584,0.7261 -0.73066,1.49344 -1.89578,2.72 -0.89262,0.93969 -1.73335,1.99892 -1.86827,2.3538 -0.13494,0.3549 -0.24534,1.75343 -0.24534,3.10787 0,2.18505 -0.0597,2.54323 -0.52893,3.17816 -0.82189,1.11185 -0.67407,2.29856 0.59662,4.78985 1.20525,2.36301 1.64501,3.90684 1.34077,4.70703 -0.11074,0.29131 -0.65808,0.78093 -1.2163,1.08803 -0.91634,0.50413 -1.0219,0.65373 -1.08653,1.53982 -0.0697,0.95604 -0.0484,0.98786 0.8228,1.22979 1.23543,0.34307 1.42813,0.32141 2.23183,-0.25087 0.62431,-0.44456 0.68854,-0.5989 0.56252,-1.35174 -0.0783,-0.46743 -0.1763,-1.90775 -0.21792,-3.20072 -0.0416,-1.29295 -0.20882,-2.96992 -0.37158,-3.72659 -0.32835,-1.52654 -0.17235,-2.92863 0.34807,-3.12834 0.18682,-0.0717 0.33966,-0.28815 0.33966,-0.48104 0,-0.19288 0.29091,-0.63438 0.64648,-0.9811 0.35556,-0.34672 0.75226,-0.79892 0.88156,-1.0049 0.21232,-0.33823 0.65156,-0.3036 4.53507,0.35751 3.8066,0.64801 4.31124,0.78619 4.39814,1.20443 0.054,0.25984 0.37893,1.97992 0.72208,3.82238 0.59076,3.17194 0.653,3.34996 1.17122,3.34996 0.30102,0 0.60298,-0.0901 0.67103,-0.2002 0.068,-0.11009 -0.15646,-1.69537 -0.49889,-3.52284 -0.34244,-1.82746 -0.57699,-3.36455 -0.52124,-3.41575 0.0558,-0.0512 0.41872,-0.042 0.80661,0.0204 0.83389,0.13427 1.76313,1.39793 1.76313,2.39768 0,0.37388 0.32703,1.08535 0.76402,1.66221 1.57046,2.07302 1.8219,3.10287 1.8219,7.46206 0,2.48107 -0.0672,3.02436 -0.43932,3.55294 -0.78569,1.11595 -0.82397,1.61537 -0.17367,2.26567 0.84118,0.84119 2.29811,0.82685 3.0926,-0.0304 z m -1.94577,-19.50212 c 0.0781,-0.0781 0.28088,-0.0865 0.45058,-0.0186 0.18753,0.0751 0.13183,0.13074 -0.14203,0.14203 -0.24782,0.0102 -0.38666,-0.0454 -0.30855,-0.12348 z m -9.8728,-1.50343 c -9.45857,-1.50225 -10.25502,-1.64205 -10.12062,-1.77643 0.0751,-0.0751 18.53395,2.8124 19.45959,3.04403 1.52765,0.38227 -1.76437,-0.0646 -9.33897,-1.2676 z m 9.51528,0.54943 c 0.16162,-0.0652 0.42609,-0.0652 0.58771,0 0.16162,0.0652 0.0293,0.11858 -0.29386,0.11858 -0.32324,0 -0.45547,-0.0534 -0.29385,-0.11858 z m -3.11486,-0.42011 c -0.90508,-0.1715 -1.38112,-0.31718 -1.05788,-0.32372 0.32324,-0.006 1.32822,0.1284 2.2333,0.2999 0.90507,0.1715 1.38111,0.31718 1.05787,0.32373 -0.32323,0.006 -1.32822,-0.1284 -2.23329,-0.29991 z m 6.46481,-0.2182 c 0,-0.0488 0.18512,-0.23395 0.41139,-0.4114 0.37285,-0.29242 0.38117,-0.2841 0.0888,0.0888 -0.3071,0.3916 -0.50015,0.51612 -0.50015,0.32264 z m -9.23152,-0.30053 c 0.15916,-0.0644 0.47652,-0.0683 0.70525,-0.009 0.22873,0.0596 0.0985,0.11229 -0.28938,0.11708 -0.38789,0.005 -0.57503,-0.044 -0.41587,-0.10837 z m -1.52357,-0.24294 c 0.22627,-0.0591 0.59652,-0.0591 0.8228,0 0.22626,0.0592 0.0411,0.10751 -0.4114,0.10751 -0.45254,0 -0.63767,-0.0484 -0.4114,-0.10751 z m 11.69542,-0.1724 c 0,-0.0546 0.71406,-0.59376 1.58682,-1.19804 0.87274,-0.60427 1.42056,-0.92603 1.21737,-0.715 -0.30854,0.32042 -2.55696,1.95792 -2.74542,1.99945 -0.0323,0.007 -0.0588,-0.0317 -0.0588,-0.0864 z m -13.22794,-0.0548 c 0.15916,-0.0644 0.47652,-0.0683 0.70525,-0.009 0.22873,0.0596 0.0985,0.11229 -0.28938,0.11708 -0.38789,0.005 -0.57503,-0.044 -0.41587,-0.10837 z m -1.4105,-0.23508 c 0.15916,-0.0645 0.47652,-0.0683 0.70525,-0.009 0.22873,0.0596 0.0985,0.11229 -0.28938,0.11708 -0.38789,0.005 -0.57503,-0.044 -0.41587,-0.10837 z m -2.40514,-0.30249 c -0.6032,-0.12476 -0.72963,-0.19933 -0.35262,-0.20798 0.32324,-0.007 1.01085,0.074 1.52804,0.18101 0.60321,0.12477 0.72963,0.19933 0.35263,0.20799 -0.32325,0.007 -1.01086,-0.074 -1.52805,-0.18102 z m 16.33833,-0.10584 c 0,-0.0509 0.16417,-0.1554 0.36483,-0.2324 0.20921,-0.0803 0.30357,-0.0409 0.22121,0.0924 -0.13805,0.22338 -0.58604,0.3304 -0.58604,0.14 z m -18.39979,-0.2969 c 0.15916,-0.0644 0.47653,-0.0683 0.70526,-0.009 0.22873,0.0596 0.0985,0.11229 -0.28938,0.11709 -0.38789,0.005 -0.57503,-0.044 -0.41588,-0.10837 z m 19.34013,-0.19015 c 0,-0.0601 0.23801,-0.22462 0.52893,-0.3656 0.50793,-0.24615 0.51081,-0.24179 0.0726,0.10927 -0.47963,0.38427 -0.60155,0.43622 -0.60155,0.25633 z m -22.90004,-0.37875 c -0.54867,-0.23428 0.33874,-0.13283 2.21266,0.25297 0.98815,0.20343 0.96627,0.20918 -0.33198,0.0872 -0.76442,-0.0718 -1.61073,-0.2249 -1.88068,-0.34016 z m 24.07545,-0.32652 c 0,-0.06 0.23802,-0.22462 0.52894,-0.3656 0.50793,-0.24614 0.51081,-0.2418 0.0726,0.10927 -0.47963,0.38427 -0.60155,0.43622 -0.60155,0.25633 z m -23.50839,-0.55489 c 0,-0.1067 0.47058,-0.79999 1.04572,-1.54066 0.57513,-0.74066 1.27369,-1.94926 1.55236,-2.68578 0.43593,-1.15217 0.48568,-1.62629 0.35635,-3.39611 l -0.1503,-2.05698 1.59526,-0.0127 c 0.87739,-0.007 2.44156,-0.10218 3.47593,-0.21159 1.03436,-0.1094 1.91771,-0.16362 1.96299,-0.1205 0.0453,0.0431 0.007,1.75274 -0.0863,3.79914 l -0.16861,3.72073 -2.3193,0.54175 c -1.27561,0.29796 -3.35254,0.89708 -4.61539,1.33137 -2.5712,0.88424 -2.64872,0.90271 -2.64872,0.6313 z m 22.50929,-1.38815 c -0.4533,-0.13033 -0.52687,-1.06631 -0.25907,-3.29584 0.14522,-1.20902 0.16403,-1.2342 0.92245,-1.2342 0.88588,0 1.23641,-0.60607 0.81064,-1.40162 -0.17969,-0.33576 -0.18138,-0.47905 -0.005,-0.47905 0.45846,0 0.51607,0.66464 0.24871,2.86966 -0.47971,3.95635 -0.48942,3.99677 -0.91769,3.81973 -0.2134,-0.0882 -0.57313,-0.21362 -0.7994,-0.27868 z m -4.99553,-0.65744 -1.88068,-0.32358 1.52805,0.12116 c 0.84042,0.0667 1.8983,0.20938 2.35083,0.3172 1.30644,0.31122 0.0624,0.23978 -1.9982,-0.11478 z m -3.11487,-0.50839 c 0.22627,-0.059 0.59653,-0.059 0.8228,0 0.22627,0.0592 0.0412,0.10751 -0.4114,0.10751 -0.45254,0 -0.63766,-0.0484 -0.4114,-0.10751 z m -2.99779,-1.72335 c -0.0911,-0.90768 -0.12834,-5.76147 -0.0826,-10.78622 l 0.0831,-9.13589 0.8228,0.006 c 0.45253,0.003 1.26969,-0.0316 1.81591,-0.0774 0.83883,-0.0703 1.10458,0.0236 1.71058,0.60416 1.10815,1.06167 1.398,3.01609 0.4976,3.35529 -0.55124,0.20767 -1.86796,1.52094 -1.93893,1.93387 -0.12528,0.72889 0.3125,3.06933 0.63432,3.39115 0.65189,0.65189 0.85435,1.70201 0.97981,5.08219 0.11656,3.14016 0.0859,3.51171 -0.37569,4.55525 -0.27643,0.62491 -0.5026,1.27104 -0.5026,1.43586 0,0.52486 -1.47039,1.27801 -2.50329,1.2822 l -0.97525,0.003 z m 8.70204,-0.72009 c -0.74267,-1.94945 0.5488,-9.38379 1.63013,-9.38379 0.20054,0 0.36462,-0.15868 0.36462,-0.35262 0,-0.57079 0.0291,-0.66351 0.49537,-1.57745 0.60552,-1.18691 0.56254,-1.97983 -0.14274,-2.63347 -0.32325,-0.29957 -0.58772,-0.66477 -0.58772,-0.81157 0,-0.14679 -0.15666,-0.2669 -0.34814,-0.2669 -0.52018,0 -0.6804,-1.02912 -0.27968,-1.79657 0.84784,-1.62382 2.43731,-2.55737 3.72525,-2.188 0.4281,0.12278 1.12999,0.22323 1.55977,0.22323 0.63534,0 0.75793,0.077 0.65581,0.41139 -0.24916,0.81607 -1.28891,6.35582 -1.77593,9.46213 -0.27367,1.7455 -0.55153,3.51744 -0.61747,3.93766 -0.0659,0.42021 -0.19445,0.76482 -0.28556,0.76579 -0.85912,0.009 -3.24956,0.55654 -3.38908,0.77598 -0.098,0.15407 -0.17972,1.29392 -0.1817,2.53301 -0.003,2.03935 -0.24529,3.26666 -0.42912,2.17602 -0.0401,-0.23786 -0.21731,-0.81154 -0.39381,-1.27484 z m -1.69775,-1.66051 c 0.0719,-0.53616 0.32387,-1.16836 0.5599,-1.40487 0.41554,-0.4164 0.42661,-0.38553 0.34949,0.97484 -0.0699,1.23197 -0.13876,1.40486 -0.5599,1.40486 -0.42741,0 -0.46586,-0.10724 -0.34949,-0.97483 z m -1.94951,-0.57837 c 0,-1.3528 0.33161,-1.66284 0.71106,-0.6648 0.25521,0.67123 0.30542,1.8284 0.0887,2.04508 -0.0773,0.0773 -0.28886,0.0836 -0.47016,0.014 -0.22642,-0.0869 -0.32965,-0.52352 -0.32965,-1.39431 z m 0.71203,-2.44323 c -0.002,-0.32324 0.19884,-0.89492 0.44637,-1.2704 l 0.45005,-0.68269 0.48785,0.80024 c 0.61465,1.00819 0.61116,1.24259 -0.0315,2.11178 l -0.52108,0.7048 -0.41402,-0.53801 c -0.22772,-0.2959 -0.41568,-0.80248 -0.4177,-1.12572 z m 1.64403,-2.67073 0.005,-0.73799 0.45972,0.58772 c 0.25283,0.32324 0.45854,0.90507 0.45712,1.29296 l -0.003,0.70525 -0.46235,-0.55498 c -0.25429,-0.30525 -0.45999,-0.88707 -0.45712,-1.29296 z m -2.34824,0.84884 c 0.008,-0.4026 0.75468,-1.46928 1.02897,-1.46928 0.27322,0 0.13169,0.84562 -0.22733,1.35819 -0.43871,0.62634 -0.81242,0.67813 -0.80164,0.11109 z m 3.16223,-1.71565 c -0.16006,-0.50431 0.15955,-1.04234 0.83342,-1.40299 0.37257,-0.1994 0.37394,-0.14534 0.0212,0.83563 -0.41556,1.1556 -0.62399,1.29398 -0.85461,0.56736 z m -1.56868,-0.8417 c 0.29395,-0.52525 0.59556,-0.008 0.38402,0.6583 -0.14248,0.4489 -0.18553,0.462 -0.37948,0.11544 -0.13239,-0.23656 -0.13418,-0.54209 -0.005,-0.77374 z m -1.94159,-0.20489 -0.16216,-0.94034 0.62783,0.61706 c 0.54575,0.53641 0.59111,0.68567 0.34695,1.14189 -0.34958,0.65319 -0.60279,0.39811 -0.81262,-0.81861 z m 2.78017,-0.95101 c 0.12363,-0.32218 0.21649,-0.341 0.50428,-0.10215 0.27377,0.22722 0.29117,0.36693 0.0777,0.62415 -0.35148,0.42349 -0.79289,0.0275 -0.58199,-0.522 z m -1.65589,-0.16055 c 0.44354,-0.28218 0.62644,-0.20932 0.62644,0.24959 0,0.64261 -0.26782,0.78952 -0.6032,0.33087 -0.22363,-0.30585 -0.22938,-0.44932 -0.0232,-0.58046 z m 2.54333,-0.4904 c -0.19197,-0.2313 -0.10842,-0.52681 0.33231,-1.17541 0.32382,-0.47654 0.66958,-0.86643 0.76835,-0.86643 0.33635,0 0.74379,0.56292 0.74379,1.02762 0,1.00712 -1.27053,1.70576 -1.84445,1.01422 z m -1.53926,-0.4942 c 0.11654,-0.30369 0.20533,-0.33501 0.33859,-0.1194 0.23784,0.38484 -0.007,1.02123 -0.28497,0.74262 -0.11637,-0.11637 -0.1405,-0.39682 -0.0536,-0.62322 z m -2.63255,-0.0196 c -0.35672,-0.54442 -0.35672,-0.631 0,-1.17542 0.2118,-0.32324 0.52528,-0.58771 0.69664,-0.58771 0.45035,0 1.10747,1.76728 0.77918,2.09558 -0.42989,0.42988 -1.07093,0.28548 -1.47582,-0.33245 z m 3.43034,-1.6587 v -1.30606 l 0.56435,0.6561 0.56436,0.6561 -0.46282,0.64996 c -0.25456,0.35748 -0.50851,0.64997 -0.56436,0.64997 -0.0558,0 -0.10153,-0.58773 -0.10153,-1.30607 z m -1.65605,0.45577 c -0.19861,-0.5224 -0.14453,-0.69804 0.35845,-1.1642 0.52452,-0.48611 0.59235,-0.50043 0.59235,-0.12511 0,0.477 -0.46212,1.90453 -0.61653,1.90453 -0.0552,0 -0.20562,-0.27685 -0.33427,-0.61522 z m 3.81494,-0.94555 c -0.0409,-0.0208 0.0299,-0.1022 0.15735,-0.18099 0.26127,-0.16146 0.97494,0.46415 0.97494,0.85465 0,0.1401 -0.23803,0.0543 -0.52895,-0.1906 -0.29091,-0.24493 -0.56242,-0.46231 -0.60334,-0.48306 z m -5.92495,-0.19667 c 0.30876,-0.37204 0.94506,-0.49254 0.94506,-0.17898 0,0.19096 -0.99461,0.71176 -1.15015,0.60224 -0.0508,-0.0357 0.0416,-0.22619 0.20509,-0.42326 z m 4.57011,-0.95463 c -0.43026,-1.02976 -0.14277,-2.32714 0.75108,-3.38942 0.84404,-1.0031 1.22524,-0.89772 0.44639,0.12341 -0.80131,1.05056 -1.02622,2.46402 -0.516,3.24271 0.35689,0.54469 0.31112,0.8547 -0.1262,0.8547 -0.11434,0 -0.36421,-0.37412 -0.55527,-0.8314 z m -2.80833,-0.1446 c 0.67882,-0.80673 0.78027,-2.07734 0.24115,-3.02043 -0.40633,-0.7108 -0.43209,-0.94034 -0.10555,-0.94034 0.1359,0 0.4115,0.39353 0.61246,0.87448 0.48213,1.15392 0.30173,2.73894 -0.39631,3.48197 -0.75543,0.80411 -1.06669,0.45398 -0.35175,-0.39568 z"
       id="path7585-9"
       inkscape:connector-curvature="0"
       sodipodi:nodetypes="cccsssccssccscccssccccscscccsccscccccccsssscscccccccccccsccscsscsccscsccccccccccscccsscscscsccscccccccscsscssccccccccccccccccccsccscccccccccccccccccccccccsccsccccccccsscssccccccccscsscscccccccscsccccssccssccscssccccccccsccsccccccccccccccccccccccsscccscccccccccccccccccssssccsscccccccsccsccccssccsscccscccsccccccscccsccc" />
  </g>
</svg>
