<?xml version="1.0" encoding="UTF-8"?>
<svg width="141.5mm" height="81.263mm" version="1.1" viewBox="0 0 141.5 81.263" xmlns="http://www.w3.org/2000/svg" xmlns:cc="http://creativecommons.org/ns#" xmlns:dc="http://purl.org/dc/elements/1.1/" xmlns:rdf="http://www.w3.org/1999/02/22-rdf-syntax-ns#">
<metadata>
<rdf:RDF>
<cc:Work rdf:about="">
<dc:format>image/svg+xml</dc:format>
<dc:type rdf:resource="http://purl.org/dc/dcmitype/StillImage"/>
<dc:title/>
</cc:Work>
</rdf:RDF>
</metadata>
<g transform="translate(-52.025 -117.89)" fill="#fff" fill-opacity=".57143">
<path d="m69.753 213.89c-1.3259-1.4307-1.1683-2.5839 0.61815-4.522 1.5205-1.6496 1.5334-1.6875 1.2798-3.7844-0.14087-1.165-0.84419-4.897-1.5629-8.2934-0.86808-4.102-1.2445-6.7413-1.1212-7.8612 0.32109-2.916-0.10348-3.9204-2.3712-5.6099l-2.0525-1.5291-0.24365 0.91102c-0.13401 0.50107-0.36714 4.6984-0.51807 9.3275s-0.39983 8.6194-0.5531 8.8674c-0.15327 0.248-0.66614 0.39408-1.1397 0.3246l-0.86103-0.12632-0.15931-12.538c-0.08761-6.8957-0.13872-13.876-0.11357-15.512 0.0731-4.7547-0.62724-9.9686-1.4588-10.86-1.0755-1.153-1.326-2.667-0.61973-3.7449 1.0141-1.5477 0.63413-7.1047-1.1174-16.341-0.9694-5.112-1.8919-7.4348-2.9527-7.4348-0.81404 0-0.70039-0.49262 0.3389-1.469l0.90578-0.85094 0.87194 1.0073c1.4712 1.6996 1.9896 1.8116 4.447 0.96124 2.6378-0.91288 2.8573-0.9255 4.1718-0.23973 0.9385 0.48962 1.0801 0.4572 1.994-0.45676 0.8218-0.8218 1.32-0.9838 3.0258-0.9838 1.7377 0 2.1672 0.14571 2.8821 0.97776 0.75037 0.87326 0.91665 0.92184 1.5558 0.45446 0.9236-0.67535 2.9865-0.66492 5.6491 0.0286 2.3653 0.61607 3.5314 0.30591 3.5314-0.93937 0-0.93946 0.8177-0.94425 1.6634-0.01 0.60595 0.66958 0.61043 0.79161 0.05801 1.5803-0.67708 0.96666-0.77436 5.1867-0.35349 15.334l0.24267 5.8507 3.3533 0.26232c1.8443 0.14428 4.2447 0.49448 5.3341 0.77826 1.0894 0.28375 3.1337 0.62837 4.5429 0.76582 1.4092 0.13749 3.0932 0.46527 3.7424 0.72845 1.4165 0.5743 1.9574 1.8735 1.1262 2.7048-0.52036 0.52036-0.67204 0.5154-1.5355-0.0503-0.52696-0.34529-0.95809-0.87653-0.95809-1.1805s-0.24875-0.55276-0.55276-0.55276c-1.4805 0-2.4915 4.1521-1.7134 7.0369 0.31179 1.156 1.1632 2.3776 3.0181 4.3303 1.4211 1.496 2.7595 3.1823 2.9743 3.7473 0.21481 0.56501 0.39056 2.7915 0.39056 4.9478 0 3.4786 0.095 4.0489 0.84207 5.0597 1.3085 1.7701 1.0731 3.6593-0.94983 7.6255-1.9188 3.7619-2.6189 6.2197-2.1345 7.4936 0.17631 0.46378 1.0477 1.2433 1.9364 1.7322 1.4588 0.80258 1.6269 1.0408 1.7298 2.4514 0.11104 1.522 0.0771 1.5727-1.3099 1.9578-1.9668 0.54617-2.2736 0.51169-3.5531-0.39939-0.9939-0.70774-1.0962-0.95346-0.89553-2.152 0.12461-0.74417 0.28068-3.0372 0.34692-5.0956 0.0662-2.0584 0.33245-4.7282 0.59156-5.9328 0.52275-2.4303 0.27439-4.6624-0.55412-4.9804-0.29742-0.11415-0.54074-0.45873-0.54074-0.76581 0-0.30707-0.46314-1.0099-1.0292-1.5619-0.56607-0.55198-1.1976-1.2719-1.4035-1.5998-0.33801-0.53847-1.0373-0.48334-7.2199 0.56914-6.0602 1.0316-6.8636 1.2516-7.0019 1.9175-0.08596 0.41367-0.60326 3.152-1.1496 6.0853-0.9405 5.0498-1.0396 5.3332-1.8646 5.3332-0.47922 0-0.95995-0.14343-1.0683-0.31871-0.10832-0.17527 0.24908-2.6991 0.79424-5.6084 0.54516-2.9093 0.91858-5.3564 0.82982-5.4379-0.08876-0.0815-0.66662-0.0669-1.2841 0.0325-1.3276 0.21374-2.8069 2.2255-2.8069 3.8171 0 0.59524-0.52063 1.7279-1.2163 2.6463-2.5002 3.3003-2.9005 4.9398-2.9005 11.88 0 3.9499 0.10695 4.8148 0.69941 5.6563 1.2508 1.7766 1.3118 2.5717 0.27648 3.607-1.3392 1.3392-3.6586 1.3164-4.9235-0.0483zm3.0977-31.048c-0.12436-0.12433-0.44716-0.13763-0.71732-0.0295-0.29856 0.11954-0.20987 0.20815 0.22611 0.22611 0.39453 0.0163 0.61558-0.0722 0.49121-0.19657zm15.718-2.3935c15.058-2.3916 16.326-2.6142 16.112-2.8281-0.11952-0.11952-29.506 4.4774-30.98 4.8461-2.4321 0.60858 2.8089-0.10283 14.868-2.018zm-15.148 0.8747c-0.2573-0.10378-0.67834-0.10378-0.93564 0s-0.04678 0.18878 0.46782 0.18878c0.5146 0 0.72512-0.085 0.46782-0.18878zm4.9589-0.66881c1.4409-0.27303 2.1988-0.50495 1.6842-0.51537-0.5146-0.01-2.1145 0.20442-3.5554 0.47745-1.4409 0.27303-2.1988 0.50495-1.6842 0.51537 0.5146 0.01 2.1146-0.20442 3.5554-0.47745zm-10.292-0.34739c0-0.0777-0.29473-0.37244-0.65495-0.65494-0.59359-0.46554-0.60683-0.4523-0.1413 0.1413 0.48892 0.62343 0.79625 0.82167 0.79625 0.51365zm14.697-0.47844c-0.25338-0.10261-0.75863-0.10879-1.1228-0.0141-0.36414 0.0949-0.15682 0.17877 0.4607 0.18641 0.61752 7e-3 0.91546-0.07 0.66207-0.17253zm2.4255-0.38676c-0.36022-0.0941-0.94968-0.0941-1.3099 0-0.36022 0.0942-0.06549 0.17115 0.65495 0.17115 0.72044 0 1.0152-0.0771 0.65495-0.17115zm-18.619-0.27446c0-0.087-1.1368-0.94528-2.5262-1.9073-1.3894-0.96201-2.2616-1.4742-1.9381-1.1383 0.49121 0.51013 4.0707 3.117 4.3707 3.1832 0.05145 0.0114 0.09357-0.0505 0.09357-0.13763zm21.059-0.0873c-0.25338-0.10251-0.75863-0.10878-1.1228-0.0141-0.36414 0.0949-0.15683 0.17877 0.4607 0.18639 0.61752 7e-3 0.91545-0.07 0.66207-0.17253zm2.2455-0.37424c-0.25338-0.10262-0.75863-0.10878-1.1228-0.0141-0.36414 0.0949-0.15682 0.17877 0.4607 0.1864 0.61752 7e-3 0.91545-0.07 0.66207-0.17253zm3.829-0.48157c0.9603-0.19862 1.1616-0.31734 0.56138-0.33111-0.5146-0.0114-1.6093 0.11782-2.4327 0.28817-0.9603 0.19864-1.1616 0.31734-0.56138 0.33112 0.5146 0.0113 1.6093-0.11782 2.4327-0.28818zm-26.011-0.1685c0-0.081-0.26137-0.24739-0.58082-0.36998-0.33306-0.12786-0.48329-0.0651-0.35217 0.14709 0.21978 0.35563 0.93299 0.526 0.93299 0.22289zm29.293-0.47267c-0.25338-0.1025-0.75863-0.10877-1.1228-0.0141-0.36414 0.0949-0.15682 0.17876 0.4607 0.1864 0.61752 7e-3 0.91545-0.07 0.66207-0.17252zm-30.79-0.30273c0-0.0956-0.37893-0.35759-0.84208-0.58203-0.80863-0.39187-0.81322-0.38494-0.11559 0.17396 0.76358 0.61176 0.95767 0.69447 0.95767 0.40807zm36.457-0.60297c0.87351-0.37298-0.53928-0.21146-3.5226 0.40274-1.5732 0.32386-1.5383 0.33301 0.52851 0.13876 1.217-0.1143 2.5643-0.35805 2.9941-0.54155zm-38.328-0.51982c0-0.0956-0.37894-0.35759-0.84208-0.58204-0.80863-0.39186-0.81322-0.38495-0.1156 0.17396 0.76358 0.61176 0.95768 0.69447 0.95768 0.40808zm37.426-0.8834c0-0.16985-0.74916-1.2736-1.6648-2.4527-0.91562-1.1791-2.0277-3.1033-2.4714-4.2758-0.69401-1.8343-0.77321-2.5891-0.56732-5.4066l0.2393-3.2747-2.5397-0.0202c-1.3968-0.0114-3.887-0.16269-5.5337-0.33685-1.6467-0.17417-3.053-0.2605-3.1251-0.19185-0.07208 0.0686-0.0103 2.7904 0.13738 6.0483l0.26844 5.9234 3.6924 0.86247c2.0308 0.47437 5.3373 1.4282 7.3478 2.1196 4.0934 1.4077 4.2168 1.4371 4.2168 1.005zm-35.835-2.2099c0.72165-0.20749 0.83878-1.6976 0.41244-5.247-0.23119-1.9248-0.26114-1.9649-1.4686-1.9649-1.4103 0-1.9684-0.96488-1.2906-2.2314 0.28608-0.53454 0.28877-0.76265 9e-3 -0.76265-0.72987 0-0.82158 1.0581-0.39594 4.5685 0.7637 6.2986 0.77916 6.3629 1.461 6.0811 0.33974-0.14046 0.91243-0.34009 1.2727-0.44366zm7.953-1.0466 2.9941-0.51515-2.4327 0.19289c-1.338 0.10612-3.0221 0.33334-3.7426 0.50498-2.0799 0.49547-0.09933 0.38173 3.1812-0.18272zm4.9589-0.80937c-0.36022-0.094-0.94968-0.094-1.3099 0-0.36022 0.0942-0.06549 0.17115 0.65495 0.17115 0.72044 0 1.0152-0.0771 0.65495-0.17115zm4.7725-2.7436c0.14512-1.445 0.20432-9.1723 0.13155-17.172l-0.1323-14.544-1.3099 0.01c-0.72044 5e-3 -2.0214-0.0504-2.891-0.12322-1.3354-0.11188-1.7585 0.0375-2.7233 0.96184-1.7642 1.6902-2.2256 4.8016-0.7922 5.3417 0.87759 0.33062 2.9738 2.4214 3.0868 3.0787 0.19945 1.1604-0.4975 4.8864-1.0098 5.3988-1.0378 1.0378-1.3601 2.7096-1.5599 8.0909-0.18556 4.9992-0.13677 5.5907 0.59811 7.252 0.44008 0.99487 0.80014 2.0235 0.80014 2.2859 0 0.8356 2.3409 2.0346 3.9853 2.0413l1.5526 5e-3zm-13.854-1.1464c1.1823-3.1036-0.8737-14.939-2.5952-14.939-0.31926 0-0.58048-0.25263-0.58048-0.56138 0-0.90871-0.04636-1.0563-0.78864-2.5113-0.96399-1.8896-0.89556-3.1519 0.22726-4.1925 0.5146-0.47693 0.93564-1.0583 0.93564-1.292 0-0.23368 0.24941-0.4249 0.55425-0.4249 0.82814 0 1.0832-1.6384 0.44525-2.8602-1.3498-2.5851-3.8802-4.0714-5.9307-3.4833-0.68153 0.19545-1.799 0.35538-2.4832 0.35538-1.0115 0-1.2066 0.1225-1.0441 0.65494 0.39667 1.2992 2.052 10.119 2.8273 15.064 0.43568 2.7788 0.87804 5.5998 0.98303 6.2688 0.10498 0.66898 0.30956 1.2176 0.45462 1.2192 1.3677 0.0148 5.1733 0.88601 5.3955 1.2354 0.15595 0.24527 0.28612 2.0599 0.28927 4.0326 0.0052 3.2467 0.39051 5.2006 0.68317 3.4643 0.06384-0.37869 0.34596-1.292 0.62694-2.0296zm2.7028-2.6436c-0.11449-0.85358-0.5156-1.86-0.89136-2.2366-0.66156-0.66292-0.67918-0.61378-0.55639 1.552 0.1112 1.9613 0.2209 2.2366 0.89136 2.2366 0.68044 0 0.74165-0.17074 0.55639-1.552zm3.1037-0.92076c0-2.1537-0.52793-2.6473-1.132-1.0584-0.40629 1.0686-0.48622 2.9108-0.14127 3.2558 0.12305 0.12307 0.45988 0.13311 0.74851 0.0223 0.36046-0.13834 0.5248-0.83345 0.5248-2.2198zm-1.1336-3.8897c0.0033-0.5146-0.31657-1.4247-0.71064-2.0225l-0.71649-1.0868-0.77667 1.274c-0.97852 1.6051-0.97295 1.9782 0.0501 3.362l0.82957 1.1221 0.65913-0.85652c0.36252-0.47107 0.66177-1.2776 0.66499-1.7922zm-2.6173-4.2518-0.0084-1.1749-0.73187 0.93565c-0.40253 0.5146-0.73001 1.4409-0.72774 2.0584l0.0041 1.1228 0.73606-0.88354c0.40483-0.48595 0.73232-1.4122 0.72774-2.0584zm3.7384 1.3514c-0.01216-0.64094-1.2015-2.3391-1.6381-2.3391-0.43498 0-0.20966 1.3462 0.3619 2.1623 0.69843 0.99714 1.2934 1.0796 1.2762 0.17685zm-5.0343-2.7313c0.25482-0.80287-0.254-1.6594-1.3268-2.2336-0.59314-0.31744-0.59532-0.23138-0.03374 1.3303 0.66157 1.8397 0.99339 2.06 1.3605 0.90325zm2.4974-1.34c-0.46796-0.8362-0.94814-0.0127-0.61136 1.048 0.22682 0.71466 0.29537 0.73551 0.60414 0.18378 0.21075-0.37659 0.2136-0.86301 0.0072-1.2318zm3.091-0.32618 0.25816-1.497-0.99951 0.98237c-0.86885 0.85396-0.94106 1.0916-0.55236 1.8179 0.55653 1.0399 0.95966 0.63379 1.2937-1.3032zm-4.4261-1.514c-0.19683-0.51292-0.34466-0.54287-0.80282-0.16263-0.43586 0.36174-0.46356 0.58417-0.12371 0.99366 0.55955 0.67421 1.2623 0.0439 0.92653-0.83103zm2.6362-0.2556c-0.70613-0.44924-0.9973-0.33323-0.9973 0.39735 0 1.023 0.42638 1.2569 0.9603 0.52675 0.35603-0.4869 0.36518-0.71532 0.03701-0.9241zm-4.049-0.78071c0.30562-0.36825 0.17261-0.8387-0.52905-1.8713-0.51552-0.75866-1.066-1.3794-1.2232-1.3794-0.53547 0-1.1841 0.89617-1.1841 1.636 0 1.6034 2.0227 2.7156 2.9364 1.6147zm2.4505-0.78679c-0.18553-0.48347-0.32689-0.53332-0.53903-0.19008-0.37865 0.61267 0.0102 1.6258 0.45368 1.1823 0.18526-0.18525 0.22367-0.63173 0.08535-0.99218zm4.1911-0.0312c0.5679-0.86672 0.5679-1.0046 0-1.8713-0.33718-0.5146-0.83625-0.93565-1.109-0.93565-0.71697 0-1.7631 2.8135-1.2405 3.3362 0.68439 0.68438 1.7049 0.4545 2.3495-0.52926zm-5.4611-2.6407v-2.0793l-1.7969 2.089 0.73681 1.0348c0.40525 0.56911 0.80955 1.0348 0.89846 1.0348 0.0889 0 0.16164-0.93567 0.16164-2.0793zm2.6364 0.72558c0.3162-0.83167 0.23011-1.1113-0.57065-1.8534-0.83505-0.7739-0.94303-0.79671-0.94303-0.19919 0 0.7594 0.73569 3.032 0.98152 3.032 0.08788 0 0.32735-0.44075 0.53216-0.97945zm-6.0734-1.5053c0.06515-0.0331-0.04759-0.1627-0.25052-0.28813-0.41593-0.25705-1.5521 0.73893-1.5521 1.3606 0 0.22304 0.37893 0.0865 0.84208-0.30344 0.46314-0.38992 0.89538-0.736 0.96054-0.76904zm9.4326-0.3131c-0.49155-0.59229-1.5045-0.78413-1.5045-0.28493 0 0.30401 1.5834 1.1331 1.8311 0.95877 0.0808-0.0568-0.06615-0.3601-0.32652-0.67384zm-7.2757-1.5198c0.68499-1.6394 0.2273-3.7048-1.1957-5.396-1.3437-1.5969-1.9506-1.4292-0.71067 0.19648 1.2757 1.6725 1.6338 3.9228 0.82148 5.1624-0.56818 0.86715-0.49531 1.3607 0.2009 1.3607 0.18204 0 0.57984-0.59561 0.884-1.3236zm4.4709-0.23022c-1.0807-1.2843-1.2422-3.3072-0.38392-4.8086 0.64688-1.1316 0.6879-1.497 0.16803-1.497-0.21634 0-0.65511 0.6265-0.97504 1.3922-0.76756 1.837-0.48035 4.3604 0.63094 5.5433 1.2027 1.2802 1.6982 0.72274 0.55999-0.62993z"/>
<path d="m122.18 146.91c-0.10369-0.1037-0.18491-0.37705-0.18049-0.60746 7e-3 -0.35479 0.0493-0.34804 0.27774 0.0441 0.29397 0.50473 1.1766 0.62636 1.3921 0.19183 0.074-0.14917 0.10448-0.1194 0.0678 0.0661-0.0736 0.37208-1.2581 0.6044-1.5572 0.30539zm-0.18853-1.3992c0-0.16791 0.17859-0.37381 0.39687-0.45758 0.636-0.24405 0.46319-0.59004-0.49458-0.99022-1.2416-0.51877-1.7544-1.3632-1.7544-2.8888 0-1.0668 0.13101-1.4154 0.77339-2.0578 0.42537-0.42537 0.96115-0.7734 1.1906-0.7734 1.0396 0 0.11658-1.6838-1.038-1.8936-0.65095-0.11829-0.90782-1.2814-0.28299-1.2814 0.2284 0 0.41528 0.11906 0.41528 0.26458s-0.12609 0.26459-0.2802 0.26459-0.20641 0.11938-0.11623 0.26529c0.25054 0.40539 1.1902-0.19681 1.1902-0.76276 0-0.26337-0.24173-0.69762-0.53718-0.96499-0.68127-0.61655-1.8048-0.28921-2.3103 0.6731-0.33083 0.62979-0.27853 2.0364 0.11372 3.0586 0.12666 0.33008 0.0826 0.40454-0.15322 0.25881-0.20205-0.12487-0.60619 0.0579-1.0372 0.46893-1.7274 1.6477-3.3308 1.5421-5.5076-0.36273-1.509-1.3205-2.7391-1.7242-2.7391-0.89885 0 0.22687-0.11907 0.33891-0.26459 0.24897-0.85385-0.52771 0.63827-1.434 1.554-0.94395 0.82987 0.44413 0.73639-0.192-0.22282-1.5161-1.0493-1.4485-1.6883-1.7764-2.6693-1.3701-0.83468 0.34574-1.1708 1.0268-0.91083 1.8458 0.20575 0.64827 1.4552 0.74845 1.4552 0.11667 0-0.23919-0.12557-0.33488-0.2989-0.22775-0.17149 0.10598-0.25326 0.0478-0.19183-0.13652 0.19778-0.59334 0.62303-0.2889 0.62303 0.44603 0 0.56081-0.14148 0.74765-0.61714 0.81501-0.7751 0.10979-1.6318-0.64152-1.6318-1.431 0-0.33008 0.31247-0.9715 0.69438-1.4254 0.77443-0.92036 0.78276-0.88077-0.30462-1.4478l-0.78664-0.41018 0.71562-2e-3c0.802-2e-3 0.97261-0.48771 1.1154-3.1766 0.11118-2.094 0.12609-2.1648 0.41797-1.9844 0.14552 0.0899 0.26458 1.109 0.26458 2.2646 0 1.2243 0.11041 2.101 0.26459 2.101 0.14552 0 0.26458 0.17859 0.26458 0.39687 0 0.2261 0.25618 0.41009 0.59531 0.42757 0.44799 0.0231 0.48073 0.0606 0.13229 0.15169-0.25466 0.0666-0.46302 0.23134-0.46302 0.36619s-0.20836 0.25044-0.46302 0.25687c-0.27285 7e-3 -0.049 0.23017 0.54504 0.54363 0.66157 0.34911 1.3655 1.0953 2.048 2.1711l1.04 1.6392 2e-3 -1.5417c2e-3 -1.3495 0.0989-1.6381 0.77591-2.3151 0.60187-0.60187 1.0126-0.77339 1.8521-0.77339 1.4088 0 2.137 0.70126 2.137 2.0578 0 1.3291-0.61611 2.1755-1.5836 2.1755-1.0317 0-1.6389-0.66535-1.5395-1.6868 0.0704-0.72338 0.17919-0.82671 0.87056-0.82671 0.54214 0 0.81811 0.14532 0.87929 0.46302 0.0544 0.28256-0.0731 0.46302-0.3271 0.46302-0.22895 0-0.41628-0.11906-0.41628-0.26458s-0.11906-0.26459-0.26458-0.26459c-0.36846 0-0.33156 0.88553 0.0529 1.27 0.83525 0.83525 1.9118-0.0753 1.7493-1.4796-0.113-0.97648-1.1716-1.478-2.2938-1.0868-1.0518 0.36664-1.4983 1.7534-1.1146 3.4612 0.32926 1.4655 1.0741 2.0685 2.5554 2.0685 1.3538 0 1.7966-0.50376 2.072-2.3571 0.37931-2.552 2.2778-3.9928 3.6386-2.7613 0.26612 0.24083 0.48385 0.30739 0.48385 0.14791 0-0.15949-0.11906-0.36357-0.26458-0.4535-0.40548-0.2506-0.31424-1.1882 0.13229-1.3595 0.21828-0.0838 0.39688-0.27937 0.39688-0.43469s-0.26789-0.0314-0.59532 0.27526c-1.6173 1.515-3.3487 1.3541-5.3981-0.50189-1.4987-1.3572-2.2606-1.5866-2.7344-0.82342-0.26255 0.42288-0.28019 0.41714-0.20342-0.0661 0.0693-0.436 0.27925-0.52526 1.1926-0.50691l1.1086 0.0223-0.58758-1.0468c-0.32317-0.57573-0.87153-1.2704-1.2186-1.5436-1.2249-0.96452-2.6763-0.3886-2.6763 1.062 0 1.0156 0.64361 1.3627 1.2773 0.68875 0.41432-0.44063 0.41301-0.46032-0.0205-0.30907-0.30412 0.10611-0.46302 0.0282-0.46302-0.22702 0-0.43977 0.67609-0.52842 0.92751-0.12162 0.26214 0.42416-0.11603 1.2793-0.63918 1.4453-1.5906 0.50485-2.2975-1.7295-0.93525-2.9563 0.7475-0.6732 0.80464-0.87258 0.25005-0.87258-0.21828 0-0.39688-0.11034-0.39688-0.24519s-0.20836-0.29963-0.46302-0.36618c-0.36681-0.0959-0.34573-0.12738 0.10143-0.15169 0.689-0.0375 0.89313-0.62352 1.0705-3.0734 0.0737-1.0186 0.23846-2.0307 0.366-2.249 0.24658-0.42198 0.23847-0.46819 0.37839 2.157 0.12623 2.3682 0.36999 3.1328 1.0061 3.1556 0.39343 0.0141 0.45566 0.071 0.19117 0.17482-0.5305 0.20823-1.166 0.86263-0.83767 0.86263 0.48951 0 1.9464 1.413 2.7097 2.6282l0.759 1.2082 5e-3 -1.1073c0.01-2.1544 1.025-3.3642 2.8234-3.3642 1.5816 0 2.3961 1.44 1.8277 3.2311-0.39174 1.2343-2.2273 1.3199-2.7698 0.12918-0.37799-0.82959-0.16083-1.5879 0.51626-1.8028 0.66479-0.211 1.0472 0.0375 1.0472 0.68061 0 0.54748-0.38852 0.6906-0.66413 0.24466-0.31458-0.509-0.66831 0.0213-0.37713 0.56539 0.19712 0.36832 0.49867 0.50407 0.9929 0.44697 0.62457-0.0722 0.7193-0.21125 0.78881-1.1582 0.0689-0.9386-9e-3 -1.1162-0.60776-1.3891-0.95072-0.43318-1.2785-0.3961-2.0814 0.23546-0.58299 0.45858-0.69714 0.7598-0.69714 1.8396 0 2.0162 0.47042 2.7223 2.1754 3.2654 0.79801 0.25421 1.9882-0.34832 2.3332-1.1811 0.17885-0.43178 0.26144-0.8488 0.18353-0.92671-0.0779-0.0779-0.027-0.5568 0.11308-1.0642 0.18864-0.68323 0.15249-1.2105-0.13936-2.0327-0.69017-1.9442-0.72741-2.7204-0.15534-3.2381 0.6308-0.57086 0.6462-0.86213 0.0787-1.4892-0.40802-0.45086-0.40583-0.51925 0.0321-1.0032 0.57459-0.63491 0.3828-1.2518-0.43792-1.4085-0.56678-0.10826-0.57039-0.11942-0.0493-0.15282 0.73188-0.0469 0.89297-0.87079 0.89297-4.567 0-2.81 0.0139-2.8772 0.59531-2.8689 0.55127 8e-3 0.56105 0.0344 0.13229 0.35989-0.58889 0.44704-0.58889 0.93072 0 1.3885 0.44098 0.34276 0.44098 0.37704 0 0.7198-0.57629 0.44794-0.58735 0.87648-0.0368 1.427 0.3919 0.3919 0.3919 0.45131 0 0.73787-0.45187 0.33043-0.5886 1.1794-0.18994 1.1794 0.12995 0 0.29964 0.16513 0.37708 0.36693 0.0988 0.25741-0.0112 0.32717-0.36857 0.23373-0.34177-0.0894-0.50937 2e-3 -0.50937 0.27891 0 0.57745 0.54174 0.84928 0.81928 0.41111 0.16724-0.26405 0.23207-0.27339 0.235-0.0339 2e-3 0.18191 0.27195 0.34259 0.59937 0.3571 0.56609 0.0251 0.56291 0.0354-0.0648 0.21005-0.76247 0.21215-1.0305 1.0128-0.41782 1.2479 0.52006 0.19957 0.53644 0.73254 0.0353 1.1484-0.40485 0.336-0.29757 0.93442 0.29108 1.6236 0.41207 0.48245 0.27319 1.6951-0.3691 3.2227-0.35089 0.83457-0.36339 1.1008-0.0769 1.6363 0.18824 0.35172 0.27479 0.89742 0.19235 1.2127-0.38298 1.4646 1.1075 2.5568 2.8373 2.0792 1.2659-0.34954 1.7397-1.1192 1.7397-2.8261 0-1.7611-0.30257-2.3455-1.3315-2.5714-1.124-0.24687-2.1081 0.42737-2.1081 1.4443 0 1.49 1.4517 1.967 1.9595 0.64374 0.22031-0.57411-0.0291-0.8151-0.4293-0.41486-0.48858 0.48857-0.78131 0.36976-0.68868-0.27952 0.10601-0.74301 0.80533-0.89778 1.3945-0.30862 0.81034 0.81034-0.018 2.4887-1.2282 2.4887-0.86757 0-1.5369-0.9616-1.5369-2.208 0-1.7801 1.3165-2.6314 2.9887-1.9327 1.268 0.52981 1.7722 1.3625 1.782 2.9428l8e-3 1.3302 0.61546-1.0011c0.87045-1.4159 1.7551-2.3174 2.6753-2.7264 0.49209-0.21871 0.61778-0.35672 0.33073-0.36314-0.25467-6e-3 -0.46303-0.12069-0.46303-0.25554s-0.20835-0.29963-0.46302-0.36618c-0.35132-0.0918-0.32062-0.1284 0.12726-0.15169 0.79198-0.0412 0.83367-0.22735 1.1002-4.9122 0.0206-0.36214 0.11262-0.43266 0.3087-0.23659 0.15364 0.15365 0.33488 1.1597 0.40275 2.2357 0.15783 2.5023 0.28465 2.8756 0.98937 2.9131 0.44756 0.0238 0.47331 0.0579 0.11446 0.15169-0.25466 0.0665-0.46302 0.23133-0.46302 0.36618s-0.17859 0.24519-0.39687 0.24519c-0.55875 0-0.49301 0.34184 0.14199 0.73841 1.5856 0.99019 0.79631 3.7261-0.8884 3.0796-0.48245-0.18513-0.82486-1.0349-0.57797-1.4344 0.25818-0.41775 0.9275-0.31272 0.9275 0.14554 0 0.22687-0.11906 0.33891-0.26458 0.24897-0.14552-0.0899-0.26459-0.0337-0.26459 0.12498 0 0.54643 0.8593 0.63747 1.2301 0.13033 0.65459-0.89521-0.1722-2.2397-1.3773-2.2397-0.78599 0-1.7211 0.78693-2.4248 2.0405l-0.58758 1.0468 1.1086-0.0223c0.91339-0.0183 1.1234 0.0709 1.1926 0.50691 0.0768 0.48329 0.0591 0.48902-0.20342 0.0661-0.46578-0.75021-1.1459-0.54292-2.7103 0.82609-2.1159 1.8516-3.8119 2.0077-5.4222 0.49922-0.32742-0.30671-0.59531-0.43058-0.59531-0.27526s0.1786 0.35093 0.39688 0.43469c0.44653 0.17135 0.53776 1.1089 0.13229 1.3595-0.14552 0.0899-0.26458 0.29401-0.26458 0.4535 0 0.15948 0.21773 0.0929 0.48385-0.14791 1.4283-1.2926 3.7495 0.69638 3.7495 3.2128 0 1.2752 0.66543 1.9056 2.0114 1.9056 1.4457 0 2.3606-0.77929 2.6355-2.2449 0.2548-1.3582-0.27585-3.0075-1.064-3.3071-0.94731-0.36017-2.0887 0.0553-2.3734 0.86398-0.48264 1.3708 0.73145 2.6414 1.6481 1.7247 0.38447-0.38447 0.42137-1.27 0.0529-1.27-0.14552 0-0.26459 0.11907-0.26459 0.26459s-0.18732 0.26458-0.41627 0.26458c-0.25403 0-0.38152-0.18046-0.32711-0.46302 0.0612-0.3177 0.33716-0.46302 0.8793-0.46302 0.6617 0 0.80353 0.11613 0.87258 0.71452 0.13333 1.1554-0.36745 1.799-1.3997 1.799-1.1176 0-1.7255-0.76641-1.7255-2.1755 0-1.3812 0.72428-2.0578 2.2028-2.0578 1.6553 0 2.3852 0.85026 2.5597 2.9817l0.13229 1.6168 1.0253-1.6651c0.73793-1.1984 1.2941-1.7821 1.9844-2.0825 0.69115-0.30078 0.82975-0.4464 0.49609-0.52125-0.25466-0.0571-0.46302-0.20546-0.46302-0.32964s-0.20836-0.28024-0.46302-0.34679c-0.34844-0.091-0.3157-0.12859 0.13229-0.15169 0.32742-0.0169 0.59531-0.19936 0.59531-0.40552 0-0.20615 0.12568-0.41672 0.27928-0.46792 0.16378-0.0546 0.27929-0.93643 0.27929-2.1322 0-1.1215 0.10387-2.1033 0.23083-2.1818 0.33823-0.20903 0.49825 0.57098 0.51119 2.4919 6e-3 0.94466 0.14156 1.7812 0.30408 1.8817 0.16094 0.0995 0.27542 0.28659 0.2544 0.41585-0.021 0.12925 0.2367 0.31243 0.57271 0.40706 0.33601 0.0946 0.43234 0.18772 0.21406 0.20685-0.21829 0.0191-0.62771 0.20939-0.90984 0.42279-0.50091 0.37888-0.49624 0.40546 0.19844 1.1306 1.2277 1.2814 0.75836 3.0915-0.75686 2.9191-0.67132-0.0764-0.7807-0.20006-0.7807-0.88259 0-0.45861 0.13964-0.79375 0.33073-0.79375 0.1819 0 0.30096 0.11906 0.26458 0.26458-0.0364 0.14552-0.15544 0.23482-0.26458 0.19844-0.10915-0.0364-0.19844 0.12035-0.19844 0.3483 0 0.29604 0.20789 0.39053 0.7276 0.33073 0.56691-0.0652 0.74575-0.24088 0.80978-0.7953 0.0941-0.81466-0.72871-1.802-1.5017-1.802-0.72936 0-1.8312 0.96863-2.4243 2.1311-0.66152 1.2967-0.65509 1.3578 0.1062 1.011 0.96258-0.43858 2.3274 0.44057 1.4887 0.95893-0.14552 0.0899-0.26459-0.0221-0.26459-0.24897 0-0.76907-1.1174-0.42633-2.5218 0.77353-0.76354 0.65231-1.7276 1.315-2.1424 1.4728-1.0683 0.40616-2.3419 0.0917-3.4033-0.84023-0.53512-0.46984-1.0438-0.72005-1.2299-0.60501-0.22666 0.14009-0.25929 0.0514-0.11411-0.31024 0.75616-1.8834 0.29158-3.6356-1.0534-3.9732-0.77415-0.1943-1.7058 0.48811-1.7058 1.2495 0 0.56595 0.93964 1.1682 1.1902 0.76276 0.0902-0.14591 0.0379-0.26529-0.11623-0.26529-0.15411 0-0.2802-0.11907-0.2802-0.26459s0.18688-0.26458 0.41528-0.26458c0.62483 0 0.36797 1.1631-0.28299 1.2814-0.71108 0.12922-1.4552 0.81825-1.4552 1.3474 0 0.23659 0.34454 0.5602 0.76564 0.71915 2.3423 0.88412 2.2599 4.5448-0.12476 5.5412-0.97065 0.40557-1.1471 0.75107-0.50858 0.99607 0.21828 0.0838 0.39687 0.27611 0.39687 0.42743 0 0.17588-0.18313 0.16076-0.50768-0.0419-0.39972-0.24963-0.59665-0.24321-0.92604 0.0302-0.29187 0.24223-0.41836 0.25489-0.41836 0.0419z"/>
<path d="m179.02 197.22c0.83287-0.89869 0.73385-1.623-0.38828-2.8404-0.9551-1.0362-0.96316-1.06-0.80389-2.3771 0.0885-0.73177 0.53027-3.076 0.98174-5.2094 0.54527-2.5766 0.78171-4.2344 0.70425-4.9379-0.20169-1.8316 0.065-2.4625 1.4895-3.5238l1.2892-0.96051 0.15304 0.57225c0.0842 0.31474 0.23061 2.9512 0.32542 5.8589 0.0948 2.9077 0.25115 5.4141 0.34742 5.5699 0.0963 0.15578 0.41843 0.24754 0.71589 0.20389l0.54085-0.0794 0.10006-7.8753c0.055-4.3314 0.0871-8.7161 0.0713-9.7438-0.0459-2.9866 0.39399-6.2616 0.9163-6.8216 0.67555-0.72423 0.83293-1.6752 0.38928-2.3523-0.63701-0.97218-0.39833-4.4627 0.70185-10.264 0.60892-3.211 1.1884-4.67 1.8547-4.67 0.51132 0 0.43993-0.30943-0.21287-0.92271l-0.56896-0.53451-0.54769 0.63271c-0.92415 1.0676-1.2498 1.138-2.7933 0.60379-1.6569-0.57342-1.7948-0.58134-2.6205-0.15058-0.5895 0.30754-0.67842 0.28718-1.2525-0.28691-0.51621-0.51621-0.82915-0.61796-1.9006-0.61796-1.0915 0-1.3613 0.0915-1.8104 0.61416-0.47134 0.54853-0.57579 0.57904-0.97727 0.28547-0.58015-0.42421-1.8759-0.41766-3.5484 0.018-1.4857 0.38697-2.2182 0.19215-2.2182-0.59005 0-0.59011-0.51362-0.59312-1.0448-6e-3 -0.38062 0.42059-0.38344 0.49724-0.0364 0.99265 0.42529 0.60719 0.48641 3.258 0.22204 9.6318l-0.15243 3.675-2.1063 0.16477c-1.1585 0.0906-2.6662 0.3106-3.3505 0.48885-0.6843 0.17823-1.9684 0.39471-2.8535 0.48104-0.88514 0.0864-1.943 0.29225-2.3507 0.45757-0.88976 0.36074-1.2295 1.1768-0.70739 1.699 0.32685 0.32685 0.42213 0.32374 0.96449-0.0316 0.331-0.21689 0.60181-0.55058 0.60181-0.74154s0.15625-0.34721 0.3472-0.34721c0.92999 0 1.565 2.6081 1.0763 4.4202-0.19584 0.7261-0.73066 1.4934-1.8958 2.72-0.89262 0.93969-1.7334 1.9989-1.8683 2.3538-0.13494 0.3549-0.24534 1.7534-0.24534 3.1079 0 2.185-0.0597 2.5432-0.52893 3.1782-0.82189 1.1118-0.67407 2.2986 0.59662 4.7898 1.2052 2.363 1.645 3.9068 1.3408 4.707-0.11074 0.29131-0.65808 0.78093-1.2163 1.088-0.91634 0.50413-1.0219 0.65373-1.0865 1.5398-0.0697 0.95604-0.0484 0.98786 0.8228 1.2298 1.2354 0.34307 1.4281 0.32141 2.2318-0.25087 0.62431-0.44456 0.68854-0.5989 0.56252-1.3517-0.0783-0.46743-0.1763-1.9078-0.21792-3.2007-0.0416-1.293-0.20882-2.9699-0.37158-3.7266-0.32835-1.5265-0.17235-2.9286 0.34807-3.1283 0.18682-0.0717 0.33966-0.28815 0.33966-0.48104 0-0.19288 0.29091-0.63438 0.64648-0.9811 0.35556-0.34672 0.75226-0.79892 0.88156-1.0049 0.21232-0.33823 0.65156-0.3036 4.5351 0.35751 3.8066 0.64801 4.3112 0.78619 4.3981 1.2044 0.054 0.25984 0.37893 1.9799 0.72208 3.8224 0.59076 3.1719 0.653 3.35 1.1712 3.35 0.30102 0 0.60298-0.0901 0.67103-0.2002 0.068-0.11009-0.15646-1.6954-0.49889-3.5228-0.34244-1.8275-0.57699-3.3646-0.52124-3.4158 0.0558-0.0512 0.41872-0.042 0.80661 0.0204 0.83389 0.13427 1.7631 1.3979 1.7631 2.3977 0 0.37388 0.32703 1.0854 0.76402 1.6622 1.5705 2.073 1.8219 3.1029 1.8219 7.4621 0 2.4811-0.0672 3.0244-0.43932 3.5529-0.78569 1.116-0.82397 1.6154-0.17367 2.2657 0.84118 0.84119 2.2981 0.82685 3.0926-0.0304zm-1.9458-19.502c0.0781-0.0781 0.28088-0.0865 0.45058-0.0186 0.18753 0.0751 0.13183 0.13074-0.14203 0.14203-0.24782 0.0102-0.38666-0.0454-0.30855-0.12348zm-9.8728-1.5034c-9.4586-1.5022-10.255-1.642-10.121-1.7764 0.0751-0.0751 18.534 2.8124 19.46 3.044 1.5276 0.38227-1.7644-0.0646-9.339-1.2676zm9.5153 0.54943c0.16162-0.0652 0.42609-0.0652 0.58771 0s0.0293 0.11858-0.29386 0.11858c-0.32324 0-0.45547-0.0534-0.29385-0.11858zm-3.1149-0.42011c-0.90508-0.1715-1.3811-0.31718-1.0579-0.32372 0.32324-6e-3 1.3282 0.1284 2.2333 0.2999 0.90507 0.1715 1.3811 0.31718 1.0579 0.32373-0.32323 6e-3 -1.3282-0.1284-2.2333-0.29991zm6.4648-0.2182c0-0.0488 0.18512-0.23395 0.41139-0.4114 0.37285-0.29242 0.38117-0.2841 0.0888 0.0888-0.3071 0.3916-0.50015 0.51612-0.50015 0.32264zm-9.2315-0.30053c0.15916-0.0644 0.47652-0.0683 0.70525-9e-3 0.22873 0.0596 0.0985 0.11229-0.28938 0.11708-0.38789 5e-3 -0.57503-0.044-0.41587-0.10837zm-1.5236-0.24294c0.22627-0.0591 0.59652-0.0591 0.8228 0 0.22626 0.0592 0.0411 0.10751-0.4114 0.10751-0.45254 0-0.63767-0.0484-0.4114-0.10751zm11.695-0.1724c0-0.0546 0.71406-0.59376 1.5868-1.198 0.87274-0.60427 1.4206-0.92603 1.2174-0.715-0.30854 0.32042-2.557 1.9579-2.7454 1.9994-0.0323 7e-3 -0.0588-0.0317-0.0588-0.0864zm-13.228-0.0548c0.15916-0.0644 0.47652-0.0683 0.70525-9e-3 0.22873 0.0596 0.0985 0.11229-0.28938 0.11708-0.38789 5e-3 -0.57503-0.044-0.41587-0.10837zm-1.4105-0.23508c0.15916-0.0645 0.47652-0.0683 0.70525-9e-3 0.22873 0.0596 0.0985 0.11229-0.28938 0.11708-0.38789 5e-3 -0.57503-0.044-0.41587-0.10837zm-2.4051-0.30249c-0.6032-0.12476-0.72963-0.19933-0.35262-0.20798 0.32324-7e-3 1.0108 0.074 1.528 0.18101 0.60321 0.12477 0.72963 0.19933 0.35263 0.20799-0.32325 7e-3 -1.0109-0.074-1.528-0.18102zm16.338-0.10584c0-0.0509 0.16417-0.1554 0.36483-0.2324 0.20921-0.0803 0.30357-0.0409 0.22121 0.0924-0.13805 0.22338-0.58604 0.3304-0.58604 0.14zm-18.4-0.2969c0.15916-0.0644 0.47653-0.0683 0.70526-9e-3 0.22873 0.0596 0.0985 0.11229-0.28938 0.11709-0.38789 5e-3 -0.57503-0.044-0.41588-0.10837zm19.34-0.19015c0-0.0601 0.23801-0.22462 0.52893-0.3656 0.50793-0.24615 0.51081-0.24179 0.0726 0.10927-0.47963 0.38427-0.60155 0.43622-0.60155 0.25633zm-22.9-0.37875c-0.54867-0.23428 0.33874-0.13283 2.2127 0.25297 0.98815 0.20343 0.96627 0.20918-0.33198 0.0872-0.76442-0.0718-1.6107-0.2249-1.8807-0.34016zm24.075-0.32652c0-0.06 0.23802-0.22462 0.52894-0.3656 0.50793-0.24614 0.51081-0.2418 0.0726 0.10927-0.47963 0.38427-0.60155 0.43622-0.60155 0.25633zm-23.508-0.55489c0-0.1067 0.47058-0.79999 1.0457-1.5407 0.57513-0.74066 1.2737-1.9493 1.5524-2.6858 0.43593-1.1522 0.48568-1.6263 0.35635-3.3961l-0.1503-2.057 1.5953-0.0127c0.87739-7e-3 2.4416-0.10218 3.4759-0.21159 1.0344-0.1094 1.9177-0.16362 1.963-0.1205 0.0453 0.0431 7e-3 1.7527-0.0863 3.7991l-0.16861 3.7207-2.3193 0.54175c-1.2756 0.29796-3.3525 0.89708-4.6154 1.3314-2.5712 0.88424-2.6487 0.90271-2.6487 0.6313zm22.509-1.3882c-0.4533-0.13033-0.52687-1.0663-0.25907-3.2958 0.14522-1.209 0.16403-1.2342 0.92245-1.2342 0.88588 0 1.2364-0.60607 0.81064-1.4016-0.17969-0.33576-0.18138-0.47905-5e-3 -0.47905 0.45846 0 0.51607 0.66464 0.24871 2.8697-0.47971 3.9564-0.48942 3.9968-0.91769 3.8197-0.2134-0.0882-0.57313-0.21362-0.7994-0.27868zm-4.9955-0.65744-1.8807-0.32358 1.528 0.12116c0.84042 0.0667 1.8983 0.20938 2.3508 0.3172 1.3064 0.31122 0.0624 0.23978-1.9982-0.11478zm-3.1149-0.50839c0.22627-0.059 0.59653-0.059 0.8228 0 0.22627 0.0592 0.0412 0.10751-0.4114 0.10751-0.45254 0-0.63766-0.0484-0.4114-0.10751zm-2.9978-1.7234c-0.0911-0.90768-0.12834-5.7615-0.0826-10.786l0.0831-9.1359 0.8228 6e-3c0.45253 3e-3 1.2697-0.0316 1.8159-0.0774 0.83883-0.0703 1.1046 0.0236 1.7106 0.60416 1.1082 1.0617 1.398 3.0161 0.4976 3.3553-0.55124 0.20767-1.868 1.5209-1.9389 1.9339-0.12528 0.72889 0.3125 3.0693 0.63432 3.3912 0.65189 0.65189 0.85435 1.702 0.97981 5.0822 0.11656 3.1402 0.0859 3.5117-0.37569 4.5552-0.27643 0.62491-0.5026 1.271-0.5026 1.4359 0 0.52486-1.4704 1.278-2.5033 1.2822l-0.97525 3e-3zm8.702-0.72009c-0.74267-1.9494 0.5488-9.3838 1.6301-9.3838 0.20054 0 0.36462-0.15868 0.36462-0.35262 0-0.57079 0.0291-0.66351 0.49537-1.5774 0.60552-1.1869 0.56254-1.9798-0.14274-2.6335-0.32325-0.29957-0.58772-0.66477-0.58772-0.81157 0-0.14679-0.15666-0.2669-0.34814-0.2669-0.52018 0-0.6804-1.0291-0.27968-1.7966 0.84784-1.6238 2.4373-2.5574 3.7252-2.188 0.4281 0.12278 1.13 0.22323 1.5598 0.22323 0.63534 0 0.75793 0.077 0.65581 0.41139-0.24916 0.81607-1.2889 6.3558-1.7759 9.4621-0.27367 1.7455-0.55153 3.5174-0.61747 3.9377-0.0659 0.42021-0.19445 0.76482-0.28556 0.76579-0.85912 9e-3 -3.2496 0.55654-3.3891 0.77598-0.098 0.15407-0.17972 1.2939-0.1817 2.533-3e-3 2.0394-0.24529 3.2667-0.42912 2.176-0.0401-0.23786-0.21731-0.81154-0.39381-1.2748zm-1.6978-1.6605c0.0719-0.53616 0.32387-1.1684 0.5599-1.4049 0.41554-0.4164 0.42661-0.38553 0.34949 0.97484-0.0699 1.232-0.13876 1.4049-0.5599 1.4049-0.42741 0-0.46586-0.10724-0.34949-0.97483zm-1.9495-0.57837c0-1.3528 0.33161-1.6628 0.71106-0.6648 0.25521 0.67123 0.30542 1.8284 0.0887 2.0451-0.0773 0.0773-0.28886 0.0836-0.47016 0.014-0.22642-0.0869-0.32965-0.52352-0.32965-1.3943zm0.71203-2.4432c-2e-3 -0.32324 0.19884-0.89492 0.44637-1.2704l0.45005-0.68269 0.48785 0.80024c0.61465 1.0082 0.61116 1.2426-0.0315 2.1118l-0.52108 0.7048-0.41402-0.53801c-0.22772-0.2959-0.41568-0.80248-0.4177-1.1257zm1.644-2.6707 5e-3 -0.73799 0.45972 0.58772c0.25283 0.32324 0.45854 0.90507 0.45712 1.293l-3e-3 0.70525-0.46235-0.55498c-0.25429-0.30525-0.45999-0.88707-0.45712-1.293zm-2.3482 0.84884c8e-3 -0.4026 0.75468-1.4693 1.029-1.4693 0.27322 0 0.13169 0.84562-0.22733 1.3582-0.43871 0.62634-0.81242 0.67813-0.80164 0.11109zm3.1622-1.7156c-0.16006-0.50431 0.15955-1.0423 0.83342-1.403 0.37257-0.1994 0.37394-0.14534 0.0212 0.83563-0.41556 1.1556-0.62399 1.294-0.85461 0.56736zm-1.5687-0.8417c0.29395-0.52525 0.59556-8e-3 0.38402 0.6583-0.14248 0.4489-0.18553 0.462-0.37948 0.11544-0.13239-0.23656-0.13418-0.54209-5e-3 -0.77374zm-1.9416-0.20489-0.16216-0.94034 0.62783 0.61706c0.54575 0.53641 0.59111 0.68567 0.34695 1.1419-0.34958 0.65319-0.60279 0.39811-0.81262-0.81861zm2.7802-0.95101c0.12363-0.32218 0.21649-0.341 0.50428-0.10215 0.27377 0.22722 0.29117 0.36693 0.0777 0.62415-0.35148 0.42349-0.79289 0.0275-0.58199-0.522zm-1.6559-0.16055c0.44354-0.28218 0.62644-0.20932 0.62644 0.24959 0 0.64261-0.26782 0.78952-0.6032 0.33087-0.22363-0.30585-0.22938-0.44932-0.0232-0.58046zm2.5433-0.4904c-0.19197-0.2313-0.10842-0.52681 0.33231-1.1754 0.32382-0.47654 0.66958-0.86643 0.76835-0.86643 0.33635 0 0.74379 0.56292 0.74379 1.0276 0 1.0071-1.2705 1.7058-1.8444 1.0142zm-1.5393-0.4942c0.11654-0.30369 0.20533-0.33501 0.33859-0.1194 0.23784 0.38484-7e-3 1.0212-0.28497 0.74262-0.11637-0.11637-0.1405-0.39682-0.0536-0.62322zm-2.6326-0.0196c-0.35672-0.54442-0.35672-0.631 0-1.1754 0.2118-0.32324 0.52528-0.58771 0.69664-0.58771 0.45035 0 1.1075 1.7673 0.77918 2.0956-0.42989 0.42988-1.0709 0.28548-1.4758-0.33245zm3.4303-1.6587v-1.3061l1.1287 1.3122-0.46282 0.64996c-0.25456 0.35748-0.50851 0.64997-0.56436 0.64997-0.0558 0-0.10153-0.58773-0.10153-1.3061zm-1.656 0.45577c-0.19861-0.5224-0.14453-0.69804 0.35845-1.1642 0.52452-0.48611 0.59235-0.50043 0.59235-0.12511 0 0.477-0.46212 1.9045-0.61653 1.9045-0.0552 0-0.20562-0.27685-0.33427-0.61522zm3.8149-0.94555c-0.0409-0.0208 0.0299-0.1022 0.15735-0.18099 0.26127-0.16146 0.97494 0.46415 0.97494 0.85465 0 0.1401-0.23803 0.0543-0.52895-0.1906-0.29091-0.24493-0.56242-0.46231-0.60334-0.48306zm-5.925-0.19667c0.30876-0.37204 0.94506-0.49254 0.94506-0.17898 0 0.19096-0.99461 0.71176-1.1502 0.60224-0.0508-0.0357 0.0416-0.22619 0.20509-0.42326zm4.5701-0.95463c-0.43026-1.0298-0.14277-2.3271 0.75108-3.3894 0.84404-1.0031 1.2252-0.89772 0.44639 0.12341-0.80131 1.0506-1.0262 2.464-0.516 3.2427 0.35689 0.54469 0.31112 0.8547-0.1262 0.8547-0.11434 0-0.36421-0.37412-0.55527-0.8314zm-2.8083-0.1446c0.67882-0.80673 0.78027-2.0773 0.24115-3.0204-0.40633-0.7108-0.43209-0.94034-0.10555-0.94034 0.1359 0 0.4115 0.39353 0.61246 0.87448 0.48213 1.1539 0.30173 2.7389-0.39631 3.482-0.75543 0.80411-1.0667 0.45398-0.35175-0.39568z"/>
</g>
</svg>
