<svg width="2006.06" height="450mm" viewBox="0 0 530.77 450" xmlns="http://www.w3.org/2000/svg"><g fill="#fff"><path d="M411.029-50.744c-1.721.64-2.385 1.623-2.385 3.54 0 2.36.885 4.278 2.36 5.114.443.27.418.344-.614 1.82-1.893 2.68-2.164 4.154-1.057 5.457l.713.812-.492 22.372-.566.688c-.762.91-.737 1.672.025 2.582l.615.737-.541 1.131c-.59 1.23-.59 1.328.516 4.376.492 1.352.492 1.475.148 6.392a7740.34 7740.34 0 0 1-2.36 29.478c-.345 4.228-.197 5.138 1.253 7.203l.934 1.328-.565.54c-.836.787-1.426 2.14-1.23 2.877.075.32.419.86.738 1.205l.566.565-.517 1.55c-.516 1.523-.54 1.843-.663 25.15l-.123 23.601-1.23.074c-.663.025-4.154.442-7.744.91-22.077 2.9-27.805 3.712-33.312 4.67-3.369.59-7.45 1.304-9.048 1.599-1.77.295-3.392.762-4.228 1.155l-1.352.664v10.72l.688.27c.369.147 1.598.516 2.729.86 1.155.32 2.114.64 2.163.688s-1.622 14.235-3.712 31.518c-3.172 26.233-4.007 33.682-4.942 44.966-.614 7.425-1.819 22.2-2.704 32.797-.885 10.62-1.573 19.324-1.524 19.348.024.05 1.475.221 3.196.393l3.147.345 1.549-.762 1.524-.738.54-4.302c.296-2.36 1.87-15.243 3.516-28.642 1.623-13.374 2.975-24.34 3-24.364s1.598-.54 3.49-1.155 9.466-3.073 16.842-5.483l13.398-4.351 7.622 1.057c4.204.565 7.72 1.13 7.818 1.23.123.098-.148 7.768-.59 17.061-.443 9.269-.738 16.915-.664 16.988.295.295 7.867.763 7.965.492.05-.123.64-6.884 1.328-14.997s1.303-15.562 1.401-16.545c.099-1.156.246-1.77.443-1.77.172 0 3.49.393 7.4.86s9.096 1.008 11.506 1.23c5.95.516 21.364 1.597 22.888 1.597.689 0 1.377.099 1.525.197.22.147.442 2.975.786 9.883.467 9.318.64 10.891 3.836 38.279 1.819 15.71 3.319 28.69 3.319 28.863 0 .221 1.008.27 4.327.147 2.409-.098 4.376-.196 4.4-.221.05-.05-.024-1.844-.147-4.007-.615-11.137-3.172-61.93-3.172-62.987v-1.205l9.736-6.22c5.36-3.417 9.785-6.17 9.81-6.121.049.049.884 4.843 1.819 10.645.958 5.826 2.876 16.078 4.253 22.79l2.508 12.243h2.36c1.327 0 2.925-.073 3.565-.172l1.155-.147-.172-3.835c-.074-2.115-1.254-13.203-2.582-24.856-2.163-18.66-2.802-23.208-5.531-40.663-1.696-10.793-3.91-23.995-4.942-29.33-1.008-5.335-1.819-9.884-1.77-10.08.05-.221 1.205-.787 3.024-1.426 1.623-.59 3.639-1.303 4.5-1.623l1.523-.565.025-1.352c.025-2.36-.074-6.22-.246-8.113l-.147-1.82-1.721-.614c-.935-.32-1.746-.615-1.77-.64-.05-.024.245-1.548.663-3.368 6.86-31.37 7.105-32.673 7.77-39.262.393-3.909.761-6.466.958-6.687 1.057-1.254 1.426-3.344.762-4.327-.32-.443-.32-.59.025-1.23 2.09-3.982 1.868-3.023 3.86-15.832 1.008-6.564 2.483-16.128 3.27-21.266 1.081-7.203 1.5-9.391 1.819-9.662C521.834.27 521.98.05 521.98-.86c0-.54.221-1.377.492-1.917.565-1.082.614-1.894.196-2.557-.22-.37 0-1.574 1.23-6.319 1.376-5.384 1.524-6.343 2.016-11.48l.516-5.606.86-1.107c.738-1.008.836-1.278.836-2.68 0-1.032-.172-1.966-.516-2.728-.27-.664-.442-1.426-.369-1.697s.64-1.155 1.279-1.966c2.507-3.221 2.9-5.41 1.254-6.909-1.77-1.647-6.466-2.139-8.236-.885-1.525 1.082-2.188 3.32-1.746 5.704.148.737.32 1.696.393 2.139.099.59-.147 1.401-.91 3.196-.884 2.09-1.007 2.581-.933 3.86l.073 1.475-.86.196c-1.598.345-48.63.541-52.98.222-6.442-.492-31.888-2.434-39.632-3.049-3.958-.32-7.252-.64-7.326-.713s.074-.516.344-.959c.713-1.18.664-2.95-.098-4.597-.345-.738-.615-1.573-.615-1.893s.443-1.5.983-2.606c1.648-3.417 1.279-5.58-1.155-6.663-1.426-.614-4.77-.836-6.048-.344zm11.285 40.098c2.31.197 5.531.467 7.13.615 1.597.123 3.736.295 4.695.393l1.795.172-.123 1.254c-.074.689-.418 6.663-.738 13.3-.344 6.614-.787 15.317-.983 19.3-.295 5.851-1.328 59.52-1.352 71.1v2.9h-1.156c-.664 0-4.007-.196-7.45-.466-3.441-.246-6.81-.443-7.498-.418l-1.229.024.074-1.229c.024-.688.467-8.04.934-16.349 1.008-17.013 1.057-21.61.418-27.732-.393-3.59-.418-4.302-.123-4.523 1.205-1.008 1.352-3 .295-4.205l-.713-.835 1.574-3.885-.05-6.146c-.049-7.326-.516-28.814-.688-32.846l-.147-2.827.762-.934c.836-1.057.91-1.574.368-2.606-.295-.59-.32-.738-.024-.91.54-.32.934-1.278.762-1.868-.098-.295-.467-.787-.811-1.082-.787-.688-1.057-.664 4.278-.197zm26.502 2.213c3.91.32 7.13.64 7.154.664.074.098-4.032 42.286-5.531 56.619-.713 7.105-1.82 22.323-2.95 41.549-.295 4.72-.566 8.727-.59 8.85-.074.172-1.5.172-4.45-.049-2.385-.172-4.475-.344-4.622-.393-.295-.099-.27-.566.196-15.292.467-14.628.787-32.256 1.107-60.602.123-13.055.32-25.569.393-27.855l.148-4.106h1.032c.541 0 4.204.27 8.113.615zm19.496 1.328c3.663.073 6.736.22 6.835.32s-1.55 13.078-3.663 28.887c-4.77 35.77-4.745 35.55-6.54 52.808-2.508 23.872-2.68 25.495-2.778 25.618-.148.147-9.515-.59-9.687-.762-.073-.074.025-2.115.27-4.5 2.976-31.124 3.86-43.736 6.172-87.473.32-6.49.688-12.612.762-13.595l.147-1.82.885.172c.517.099 3.91.246 7.597.345zm26.38.172c0 .516-8.802 55.463-10.695 66.895-.737 4.377-2.286 14.653-3.442 22.864-2.655 18.857-2.655 18.882-2.95 18.857-.123-.024-2.507-.172-5.261-.344l-5.015-.32.147-1.5c.098-.835.664-5.654 1.254-10.718 2.311-19.177 3.688-32.379 8.506-80.32.812-8.113 1.476-14.898 1.476-15.046 0-.172 2.188-.295 6.957-.344 3.81-.024 7.4-.074 7.99-.123.566-.024 1.033.025 1.033.099zm18.045.467c-.344.54-.369.786-.123 1.622.27.86.246 1.058-.098 1.45-.344.37-.369.837-.246 3 .197 2.975.369 2.188-6.663 30.658-2.974 12.096-3.122 13.03-2.458 15.808.27 1.23.27 1.45-.025 1.72-1.008.837-1.352 2.804-.713 4.254.27.664.246.885-.491 2.459-.787 1.622-1.057 3.097-4.524 24.339-2.04 12.44-3.761 22.938-3.835 23.306l-.148.689-2.483-.148c-3.958-.27-6.81-.54-6.933-.664-.073-.049.418-3.589 1.107-7.842 1.868-11.998 2.606-17.283 4.302-31.322 2.434-20.012 8.482-68.764 8.605-69.403l.123-.54h14.996zM376.34 122.236c12.17 1.5 15.464 1.893 27.633 3.344 5.212.614 9.49 1.155 9.514 1.18s-.688 8.973-1.598 19.89l-1.647 19.84-.737.245c-.394.123-5.163 1.45-10.596 2.926-8.728 2.384-11.137 3.171-21.02 6.785-15.194 5.581-16.694 6.097-16.817 5.974-.049-.049.492-4.917 1.23-10.792 1.303-10.228 1.376-11.285 2.09-25.544.417-8.187.86-16.915.983-19.422s.245-4.795.245-5.114c0-.295.148-.541.345-.541.172 0 4.843.565 10.375 1.23zm111.812.787c.074.59 1.475 12.612 3.098 26.748 2.803 24.315 2.925 25.716 2.532 26.011-.54.418-5.974 3.786-8.334 5.188l-1.77 1.032-4.45-.663-4.426-.664-.147-1.008c-.05-.566-.565-7.548-1.106-15.513l-1.008-14.505-1.844-10.94c-1.008-6.024-1.893-11.113-1.967-11.334-.098-.32.344-.418 2.778-.64 2.68-.246 3.417-.418 9.416-2.458 3.59-1.23 6.638-2.237 6.786-2.262.172 0 .344.443.442 1.008zm-27.142 16.423c0 9.195.148 14.726.615 24.216.713 14.382.737 15.39.32 15.243-.492-.172-15.587-2.04-20.849-2.557-2.63-.27-7.99-.738-11.923-1.008-3.91-.27-7.72-.566-8.433-.64l-1.328-.147.148-1.13c.074-.64.32-2.877.516-4.967s.812-8.31 1.352-13.841c.86-8.63 1.008-11.211 1.156-18.587l.147-8.555 38.28.049zM179.579 28.822c2.581.959 3.577 2.433 3.577 5.31 0 3.54-1.328 6.415-3.54 7.67-.664.405-.627.515.922 2.728 2.839 4.019 3.244 6.231 1.585 8.186l-1.07 1.216.738 33.555.848 1.032c1.143 1.365 1.107 2.508-.037 3.872l-.921 1.106.81 1.696c.886 1.844.886 1.991-.773 6.564-.738 2.028-.738 2.212-.222 9.587.516 6.637 2.286 29.056 3.54 44.21.516 6.342.295 7.707-1.88 10.804l-1.402 1.991.848.811c1.254 1.18 2.14 3.208 1.844 4.315-.11.479-.627 1.29-1.106 1.806l-.848.848.774 2.323c.775 2.287.811 2.766.996 37.722l.184 35.398 1.844.11c.995.037 6.231.664 11.615 1.365 33.112 4.35 41.703 5.567 49.963 7.005 5.051.885 11.172 1.955 13.569 2.397 2.655.443 5.088 1.143 6.342 1.733l2.028.996v16.076l-1.032.406c-.553.221-2.397.774-4.093 1.29-1.733.48-3.171.96-3.245 1.033s2.434 21.35 5.568 47.271c4.756 39.344 6.01 50.516 7.411 67.44.922 11.137 2.729 33.297 4.056 49.19 1.328 15.929 2.36 28.982 2.286 29.019-.036.073-2.212.331-4.793.59l-4.72.516-2.323-1.143-2.286-1.107-.811-6.452c-.443-3.54-2.803-22.862-5.273-42.957-2.434-20.06-4.462-36.505-4.499-36.542s-2.396-.81-5.235-1.733-14.197-4.609-25.259-8.222l-20.095-6.527-11.43 1.586c-6.306.848-11.579 1.696-11.727 1.843-.184.148.222 11.652.885 25.59.664 13.901 1.107 25.369.996 25.48-.442.442-11.8 1.143-11.947.737-.074-.184-.959-10.324-1.991-22.493s-1.954-23.34-2.102-24.815c-.147-1.733-.368-2.655-.663-2.655-.259 0-5.236.59-11.1 1.29s-13.642 1.512-17.256 1.844c-8.923.775-32.042 2.397-34.329 2.397-1.032 0-2.064.148-2.286.295-.332.221-.663 4.462-1.18 14.823-.7 13.975-.958 16.335-5.752 57.411-2.728 23.562-4.978 43.031-4.978 43.29 0 .331-1.511.405-6.49.22-3.613-.147-6.563-.295-6.6-.331-.073-.074.037-2.766.222-6.01.921-16.704 4.756-92.884 4.756-94.47v-1.806l-14.601-9.329c-8.039-5.125-14.676-9.255-14.713-9.181-.074.073-1.327 7.264-2.728 15.966-1.438 8.738-4.315 24.115-6.38 34.18l-3.76 18.364h-3.54c-1.991 0-4.388-.111-5.347-.259l-1.733-.22.258-5.753c.11-3.171 1.88-19.8 3.872-37.279 3.245-27.986 4.203-34.808 8.296-60.987 2.545-16.188 5.863-35.989 7.412-43.99 1.512-8.001 2.728-14.823 2.655-15.118-.074-.332-1.807-1.18-4.536-2.139-2.433-.884-5.457-1.954-6.747-2.433l-2.287-.848-.036-2.028c-.037-3.54.11-9.33.368-12.168l.221-2.729 2.582-.922c1.4-.48 2.618-.922 2.654-.958.074-.037-.368-2.323-.995-5.052-10.288-47.05-10.656-49.004-11.652-58.886-.59-5.863-1.143-9.698-1.438-10.03-1.586-1.88-2.139-5.014-1.143-6.49.48-.663.48-.884-.037-1.843-3.134-5.973-2.802-4.535-5.789-23.746-1.512-9.845-3.724-24.189-4.904-31.895-1.623-10.804-2.25-14.086-2.729-14.491-2.323-1.955-2.544-2.287-2.544-3.65 0-.812-.332-2.066-.737-2.877-.849-1.622-.922-2.84-.295-3.835.331-.553 0-2.36-1.844-9.476-2.065-8.075-2.286-9.513-3.024-17.22l-.774-8.407-1.29-1.66c-1.107-1.51-1.254-1.917-1.254-4.018 0-1.549.258-2.95.774-4.093.406-.996.664-2.139.553-2.544s-.959-1.733-1.917-2.95c-3.761-4.83-4.351-8.112-1.88-10.362 2.654-2.47 9.697-3.208 12.352-1.327 2.286 1.622 3.281 4.978 2.618 8.555-.222 1.106-.48 2.544-.59 3.207-.148.885.221 2.102 1.364 4.794 1.327 3.134 1.512 3.872 1.401 5.789l-.11 2.212 1.29.295c2.397.517 72.935.812 79.461.332 9.661-.737 47.825-3.65 59.44-4.572 5.936-.48 10.877-.959 10.988-1.07s-.11-.774-.516-1.437c-1.07-1.77-.996-4.425.147-6.896.516-1.106.922-2.36.922-2.839s-.664-2.25-1.475-3.908c-2.47-5.126-1.917-8.37 1.733-9.993 2.139-.922 7.153-1.254 9.07-.516zm-16.925 60.14c-3.466.295-8.296.7-10.693.922-2.397.184-5.605.442-7.043.59l-2.691.258.184 1.88c.11 1.033.627 9.993 1.106 19.948.516 9.92 1.18 22.972 1.475 28.946.442 8.775 1.991 89.27 2.028 106.636v4.351h1.733c.996 0 6.01-.295 11.173-.7 5.162-.369 10.213-.664 11.246-.627l1.843.037-.11-1.844c-.037-1.032-.7-12.057-1.401-24.52-1.512-25.516-1.586-32.412-.627-41.593.59-5.384.627-6.453.184-6.785-1.807-1.511-2.028-4.498-.442-6.305l1.069-1.254-2.36-5.826.074-9.218c.074-10.988.774-43.215 1.032-49.262l.222-4.24-1.143-1.402c-1.254-1.585-1.365-2.36-.554-3.908.443-.885.48-1.106.037-1.365-.81-.479-1.4-1.917-1.143-2.802.148-.442.7-1.18 1.217-1.622 1.18-1.033 1.586-.996-6.416-.295zm-39.749 3.318c-5.863.48-10.693.959-10.73.996-.11.147 6.047 63.421 8.296 84.918 1.07 10.657 2.73 33.481 4.425 62.316.443 7.08.848 13.09.885 13.274.11.258 2.25.258 6.674-.074 3.577-.258 6.711-.516 6.932-.59.443-.147.406-.848-.295-22.935-.7-21.94-1.18-48.377-1.659-90.892-.184-19.58-.48-38.348-.59-41.777l-.221-6.158h-1.549c-.811 0-6.305.406-12.168.922zm-29.24 1.991c-5.494.111-10.103.332-10.25.48s2.322 19.616 5.493 43.326c7.154 53.65 7.117 53.318 9.808 79.203 3.761 35.803 4.02 38.237 4.167 38.421.221.222 14.27-.885 14.528-1.143.11-.11-.037-3.17-.406-6.747-4.461-46.682-5.789-65.597-9.255-131.195-.48-9.734-1.032-18.915-1.143-20.39l-.221-2.729-1.327.258c-.775.148-5.863.369-11.394.516zM54.1 94.53c0 .774 13.2 83.185 16.04 100.33 1.106 6.564 3.429 21.977 5.162 34.293 3.982 28.281 3.982 28.318 4.425 28.281.184-.036 3.76-.258 7.89-.516l7.523-.48-.222-2.248c-.147-1.254-.995-8.481-1.88-16.077-3.466-28.761-5.531-48.562-12.758-120.464-1.217-12.168-2.213-22.345-2.213-22.566 0-.259-3.281-.443-10.435-.517-5.715-.036-11.098-.11-11.983-.184-.848-.037-1.549.037-1.549.148zm-27.065.7c.516.811.553 1.18.185 2.434-.406 1.29-.37 1.585.147 2.175.516.553.553 1.254.369 4.499-.295 4.461-.553 3.281 9.992 45.98 4.462 18.142 4.683 19.543 3.688 23.71-.406 1.843-.406 2.175.037 2.58 1.511 1.254 2.028 4.204 1.069 6.38-.406.995-.369 1.327.737 3.687 1.18 2.434 1.586 4.646 6.785 36.504 3.06 18.658 5.642 34.403 5.752 34.956l.221 1.032 3.725-.22c5.936-.406 10.213-.812 10.398-.996.11-.074-.627-5.384-1.66-11.763-2.802-17.994-3.908-25.922-6.452-46.976-3.65-30.015-12.721-103.134-12.906-104.093l-.184-.81H26.445zm204.572 193.03c-18.252 2.25-23.193 2.84-41.446 5.015-7.817.922-14.233 1.733-14.27 1.77s1.033 13.459 2.397 29.83l2.47 29.757 1.107.368c.59.185 7.743 2.176 15.892 4.388 13.09 3.577 16.704 4.757 31.527 10.177 22.787 8.37 25.036 9.145 25.22 8.96.075-.073-.737-7.374-1.843-16.187-1.954-15.34-2.065-16.925-3.134-38.31-.627-12.28-1.29-25.37-1.475-29.13s-.369-7.19-.369-7.67c0-.443-.22-.811-.516-.811-.258 0-7.264.848-15.56 1.843zm-167.699 1.18c-.11.885-2.212 18.916-4.646 40.118-4.203 36.467-4.388 38.57-3.798 39.012.812.626 8.96 5.678 12.5 7.78l2.655 1.549 6.674-.996 6.637-.996.222-1.511c.073-.849.848-11.32 1.659-23.267l1.512-21.755 2.765-16.409c1.512-9.034 2.84-16.666 2.95-16.998.147-.48-.516-.627-4.167-.959-4.019-.369-5.125-.627-14.122-3.687-5.384-1.844-9.956-3.356-10.177-3.393-.258 0-.516.664-.664 1.512zm40.708 24.631c0 13.79-.221 22.087-.922 36.32-1.07 21.571-1.106 23.083-.48 22.862.738-.259 23.378-3.06 31.27-3.835 3.945-.406 11.983-1.106 17.883-1.512 5.862-.406 11.578-.848 12.647-.959l1.991-.221-.221-1.696c-.11-.959-.48-4.314-.774-7.449s-1.217-12.463-2.028-20.759c-1.291-12.942-1.512-16.814-1.733-27.876l-.222-12.832-57.41.074z" opacity=".448"/></g></svg>