<svg width="141.5mm" height="307.136" viewBox="0 0 141.5 81.263" xmlns="http://www.w3.org/2000/svg"><g fill="#fff" fill-opacity=".571"><path d="M17.728 96c-1.326-1.43-1.168-2.584.618-4.522 1.52-1.65 1.534-1.688 1.28-3.784-.14-1.165-.844-4.897-1.563-8.294-.868-4.102-1.244-6.741-1.121-7.861.32-2.916-.104-3.92-2.371-5.61L12.518 64.4l-.243.911c-.135.501-.368 4.698-.519 9.328s-.4 8.619-.553 8.867c-.153.248-.666.394-1.14.325l-.86-.127-.16-12.538c-.087-6.896-.138-13.876-.113-15.512.073-4.755-.628-9.968-1.46-10.86-1.075-1.153-1.325-2.667-.619-3.745 1.014-1.547.634-7.104-1.117-16.34-.97-5.113-1.892-7.436-2.953-7.436-.814 0-.7-.492.339-1.469l.906-.85.872 1.007c1.47 1.7 1.99 1.811 4.447.961 2.638-.913 2.857-.925 4.172-.24.938.49 1.08.458 1.994-.456.821-.822 1.32-.984 3.025-.984 1.738 0 2.168.146 2.882.978.75.873.917.921 1.556.454.924-.675 2.987-.665 5.65.029 2.365.616 3.53.306 3.53-.94 0-.94.818-.944 1.664-.01.606.67.61.792.058 1.58-.677.967-.774 5.187-.353 15.335l.242 5.85 3.354.263c1.844.144 4.244.494 5.334.778 1.09.284 3.133.628 4.543.766 1.409.137 3.093.465 3.742.728 1.417.574 1.957 1.874 1.126 2.705-.52.52-.672.515-1.535-.05-.527-.346-.958-.877-.958-1.18s-.25-.554-.553-.554c-1.48 0-2.492 4.152-1.714 7.037.312 1.156 1.164 2.378 3.019 4.33 1.42 1.497 2.76 3.183 2.974 3.748.215.565.39 2.791.39 4.948 0 3.478.095 4.049.842 5.06 1.309 1.77 1.074 3.659-.95 7.625-1.918 3.762-2.618 6.22-2.134 7.493.176.464 1.048 1.244 1.937 1.733 1.458.802 1.626 1.04 1.73 2.451.11 1.522.076 1.573-1.31 1.958-1.967.546-2.274.512-3.554-.4-.994-.707-1.096-.953-.895-2.152.124-.744.28-3.037.347-5.095.066-2.059.332-4.728.591-5.933.523-2.43.275-4.662-.554-4.98-.297-.114-.54-.46-.54-.766 0-.307-.464-1.01-1.03-1.562-.566-.552-1.197-1.272-1.403-1.6-.338-.538-1.038-.483-7.22.57-6.06 1.03-6.864 1.25-7.002 1.917-.086.413-.603 3.152-1.15 6.085-.94 5.05-1.04 5.333-1.864 5.333-.48 0-.96-.143-1.069-.318-.108-.176.25-2.7.795-5.609.545-2.91.918-5.356.83-5.438-.09-.081-.667-.067-1.285.033-1.327.214-2.806 2.225-2.806 3.817 0 .595-.521 1.728-1.217 2.646-2.5 3.3-2.9 4.94-2.9 11.88 0 3.95.107 4.815.7 5.656 1.25 1.777 1.31 2.572.276 3.607-1.34 1.34-3.659 1.317-4.924-.048zm3.098-31.048c-.125-.124-.447-.138-.718-.03-.298.12-.21.209.226.227.395.016.616-.073.492-.197zm15.718-2.394c15.058-2.391 16.326-2.614 16.112-2.828-.12-.12-29.506 4.478-30.98 4.846-2.432.61 2.809-.102 14.868-2.018zm-15.148.875c-.258-.104-.679-.104-.936 0s-.047.189.468.189c.514 0 .725-.085.468-.189zm4.959-.669c1.44-.273 2.198-.505 1.684-.515-.515-.01-2.115.204-3.556.477-1.44.273-2.198.505-1.684.516.515.01 2.115-.205 3.556-.478zm-10.292-.347c0-.078-.295-.372-.655-.655-.594-.465-.607-.452-.142.141.49.624.797.822.797.514zm14.697-.478c-.254-.103-.759-.11-1.123-.015s-.157.18.46.187c.618.007.916-.07.663-.173zm2.425-.387a3.074 3.074 0 0 0-1.31 0c-.36.094-.065.17.655.17s1.015-.076.655-.17zm-18.619-.275c0-.087-1.137-.945-2.526-1.907-1.39-.962-2.262-1.474-1.938-1.138.491.51 4.07 3.117 4.37 3.183.052.011.094-.05.094-.138zm21.06-.087c-.254-.102-.76-.109-1.124-.014-.364.095-.157.179.461.186.618.007.915-.07.662-.172zm2.245-.374c-.254-.103-.759-.109-1.123-.014s-.157.178.46.186c.618.007.916-.07.663-.172zm3.829-.482c.96-.198 1.161-.317.561-.33-.515-.012-1.61.117-2.433.287-.96.199-1.161.318-.561.331.515.012 1.61-.117 2.433-.288zm-26.011-.168c0-.081-.262-.248-.581-.37-.333-.128-.484-.065-.352.147.22.355.933.526.933.223zm29.293-.473c-.254-.102-.759-.109-1.123-.014s-.157.179.46.186c.618.007.916-.07.663-.172zm-30.79-.303c0-.095-.38-.357-.842-.582-.81-.392-.814-.385-.116.174.764.612.958.695.958.408zm36.457-.603c.873-.373-.54-.211-3.523.403-1.573.324-1.538.333.529.139 1.217-.114 2.564-.358 2.994-.542zm-38.328-.52c0-.095-.38-.357-.842-.582-.81-.391-.814-.384-.116.174.763.612.958.695.958.409zm37.426-.883c0-.17-.75-1.273-1.665-2.453-.916-1.179-2.028-3.103-2.472-4.275-.694-1.835-.773-2.59-.567-5.407l.24-3.275-2.54-.02c-1.397-.011-3.887-.163-5.534-.337-1.647-.174-3.053-.26-3.125-.192-.072.069-.01 2.79.137 6.049l.269 5.923 3.692.863c2.03.474 5.337 1.428 7.348 2.12 4.093 1.407 4.217 1.436 4.217 1.004zm-35.835-2.21c.721-.207.838-1.697.412-5.247-.231-1.925-.261-1.965-1.469-1.965-1.41 0-1.968-.965-1.29-2.231.286-.535.289-.763.009-.763-.73 0-.822 1.058-.396 4.569.764 6.298.78 6.363 1.46 6.08.34-.14.913-.34 1.274-.443zm7.953-1.046 2.994-.516-2.433.193c-1.338.106-3.022.334-3.743.505-2.08.496-.099.382 3.182-.182zm4.959-.81a3.078 3.078 0 0 0-1.31 0c-.36.094-.066.171.655.171.72 0 1.015-.077.654-.17zm4.772-2.743c.145-1.445.204-9.173.132-17.172l-.133-14.544-1.31.01c-.72.005-2.021-.05-2.89-.124-1.336-.111-1.76.038-2.724.962-1.764 1.69-2.226 4.802-.792 5.342.877.33 2.974 2.421 3.087 3.079.2 1.16-.498 4.886-1.01 5.398-1.038 1.038-1.36 2.71-1.56 8.091-.186 5-.137 5.591.598 7.252.44.995.8 2.024.8 2.286 0 .836 2.341 2.035 3.985 2.042l1.553.005zm-13.854-1.147c1.182-3.103-.874-14.939-2.595-14.939a.573.573 0 0 1-.58-.561c0-.909-.047-1.056-.79-2.511-.963-1.89-.895-3.152.228-4.193.515-.477.936-1.058.936-1.292 0-.234.249-.425.554-.425.828 0 1.083-1.638.445-2.86-1.35-2.585-3.88-4.071-5.93-3.483-.682.195-1.8.355-2.484.355-1.011 0-1.206.123-1.044.655.397 1.3 2.052 10.119 2.827 15.064l.983 6.269c.105.669.31 1.217.455 1.219 1.368.015 5.173.886 5.396 1.235.155.246.286 2.06.289 4.033.005 3.247.39 5.2.683 3.464.064-.378.346-1.292.627-2.03zm2.703-2.643c-.115-.854-.516-1.86-.892-2.237-.661-.663-.679-.614-.556 1.552.111 1.961.221 2.237.891 2.237.68 0 .742-.171.557-1.552zm3.104-.921c0-2.154-.528-2.647-1.132-1.058-.407 1.068-.487 2.91-.142 3.255.123.123.46.133.749.023.36-.139.525-.834.525-2.22zm-1.134-3.89c.003-.514-.317-1.424-.71-2.022l-.717-1.087-.777 1.274c-.978 1.605-.973 1.978.05 3.362l.83 1.122.659-.857c.362-.47.662-1.277.665-1.792zm-2.617-4.252-.009-1.174-.732.935c-.402.515-.73 1.441-.727 2.059l.004 1.122.736-.883c.405-.486.732-1.412.727-2.059zm3.738 1.352c-.012-.641-1.202-2.34-1.638-2.34-.435 0-.21 1.347.362 2.163.698.997 1.293 1.08 1.276.177zm-5.034-2.731c.255-.803-.254-1.66-1.327-2.234-.593-.318-.595-.231-.034 1.33.662 1.84.994 2.06 1.36.903zm2.497-1.34c-.468-.837-.948-.013-.611 1.048.227.714.295.735.604.183a1.29 1.29 0 0 0 .007-1.232zm3.091-.327.258-1.497-1 .983c-.868.854-.94 1.091-.552 1.818.557 1.04.96.633 1.294-1.304zm-4.426-1.514c-.197-.513-.345-.543-.803-.162-.436.361-.463.584-.124.993.56.675 1.263.044.927-.83zm2.636-.255c-.706-.45-.997-.334-.997.397 0 1.023.426 1.257.96.527.356-.487.365-.715.037-.924zm-4.049-.781c.306-.368.173-.839-.529-1.871-.515-.759-1.066-1.38-1.223-1.38-.536 0-1.184.896-1.184 1.636 0 1.604 2.023 2.716 2.936 1.615zm2.45-.787c-.185-.483-.326-.533-.538-.19-.379.613.01 1.626.453 1.182.186-.185.224-.631.086-.992zm4.192-.031c.568-.867.568-1.005 0-1.871-.337-.515-.836-.936-1.11-.936-.716 0-1.762 2.814-1.24 3.336.685.685 1.705.455 2.35-.529zm-5.461-2.64v-2.08l-1.797 2.089.737 1.035c.405.569.81 1.035.898 1.035.089 0 .162-.936.162-2.08zm2.636.725c.316-.832.23-1.111-.57-1.853-.836-.774-.944-.797-.944-.2 0 .76.736 3.032.982 3.032.088 0 .327-.44.532-.98zm-6.073-1.505c.065-.033-.048-.163-.25-.289-.417-.257-1.553.74-1.553 1.361 0 .223.379.087.842-.303.463-.39.896-.736.96-.77zm9.432-.313c-.491-.593-1.504-.785-1.504-.285 0 .304 1.583 1.133 1.83.958.082-.056-.065-.36-.326-.673zm-7.275-1.52c.685-1.64.227-3.705-1.196-5.396-1.344-1.597-1.95-1.43-.71.196 1.275 1.673 1.633 3.923.82 5.163-.567.867-.495 1.36.202 1.36.182 0 .58-.595.884-1.323zm4.47-.23c-1.08-1.285-1.242-3.308-.383-4.81.646-1.13.687-1.496.168-1.496-.217 0-.655.626-.975 1.392-.768 1.837-.48 4.36.63 5.543 1.203 1.28 1.699.723.56-.63zM70.155 29.02c-.104-.104-.185-.377-.18-.607.007-.355.049-.349.277.044.294.504 1.177.626 1.392.191.074-.149.105-.119.068.067-.073.372-1.258.604-1.557.305zm-.189-1.4c0-.167.18-.373.397-.457.636-.244.464-.59-.494-.99-1.242-.519-1.755-1.363-1.755-2.889 0-1.067.131-1.415.774-2.058.425-.425.96-.773 1.19-.773 1.04 0 .117-1.684-1.038-1.894-.65-.118-.907-1.281-.283-1.281.229 0 .416.12.416.265s-.126.264-.28.264-.207.12-.117.265c.25.406 1.19-.196 1.19-.762 0-.264-.241-.698-.537-.965-.681-.617-1.805-.29-2.31.673-.33.63-.279 2.036.114 3.058.126.33.082.405-.154.26-.202-.126-.606.057-1.037.468-1.727 1.648-3.33 1.542-5.507-.363-1.51-1.32-2.74-1.724-2.74-.898 0 .226-.119.338-.264.249-.854-.528.638-1.434 1.554-.944.83.444.736-.192-.223-1.517-1.05-1.448-1.688-1.776-2.67-1.37-.834.346-1.17 1.027-.91 1.846.206.648 1.455.749 1.455.117 0-.24-.125-.335-.299-.228-.171.106-.253.048-.192-.136.198-.594.623-.29.623.446 0 .56-.141.747-.617.815-.775.11-1.631-.642-1.631-1.431 0-.33.312-.972.694-1.426.774-.92.783-.88-.305-1.448l-.786-.41.715-.002c.802-.002.973-.487 1.116-3.176.11-2.094.126-2.165.418-1.985.145.09.264 1.11.264 2.265 0 1.224.11 2.1.265 2.1.145 0 .264.18.264.398 0 .226.257.41.596.427.448.023.48.06.132.152-.255.067-.463.231-.463.366s-.208.25-.463.257c-.273.007-.049.23.545.544.662.349 1.366 1.095 2.048 2.17l1.04 1.64.002-1.542c.002-1.35.099-1.638.776-2.315.602-.602 1.013-.773 1.852-.773 1.409 0 2.137.701 2.137 2.058 0 1.329-.616 2.175-1.584 2.175-1.031 0-1.638-.665-1.54-1.687.071-.723.18-.826.871-.826.543 0 .819.145.88.463.054.282-.073.463-.327.463-.23 0-.417-.12-.417-.265s-.119-.265-.264-.265c-.369 0-.332.886.053 1.27.835.836 1.912-.075 1.749-1.48-.113-.976-1.172-1.477-2.294-1.086-1.052.367-1.498 1.753-1.114 3.461.329 1.466 1.074 2.069 2.555 2.069 1.354 0 1.797-.504 2.072-2.357.38-2.552 2.278-3.993 3.639-2.762.266.241.483.308.483.148s-.119-.363-.264-.453c-.406-.25-.314-1.188.132-1.36.218-.084.397-.28.397-.434s-.268-.032-.595.275c-1.618 1.515-3.349 1.354-5.398-.502-1.5-1.357-2.261-1.587-2.735-.823-.262.422-.28.417-.203-.067.07-.436.28-.525 1.192-.507l1.109.023-.588-1.047c-.323-.576-.871-1.27-1.218-1.544-1.225-.964-2.676-.388-2.676 1.062 0 1.016.643 1.363 1.277.69.414-.441.413-.461-.02-.31-.305.106-.464.028-.464-.227 0-.44.676-.528.928-.122.262.425-.116 1.28-.64 1.446-1.59.505-2.297-1.73-.935-2.957.748-.673.805-.872.25-.872-.218 0-.396-.11-.396-.245s-.209-.3-.463-.367c-.367-.095-.346-.127.101-.151.689-.038.893-.624 1.07-3.074.074-1.018.239-2.03.366-2.249.247-.422.239-.468.379 2.157.126 2.369.37 3.133 1.006 3.156.393.014.456.071.191.175-.53.208-1.166.862-.838.862.49 0 1.947 1.413 2.71 2.629l.76 1.208.004-1.107c.01-2.155 1.025-3.365 2.824-3.365 1.581 0 2.396 1.44 1.827 3.231-.391 1.235-2.227 1.32-2.77.13-.378-.83-.16-1.588.517-1.803.665-.211 1.047.037 1.047.68 0 .548-.389.691-.664.245-.315-.509-.669.021-.377.565.197.369.498.505.993.447.624-.072.719-.21.788-1.158.07-.938-.009-1.116-.607-1.389-.951-.433-1.279-.396-2.082.236-.583.458-.697.76-.697 1.84 0 2.015.47 2.722 2.175 3.265.798.254 1.989-.349 2.334-1.181.179-.432.261-.85.183-.927-.078-.078-.027-.557.113-1.064.189-.684.153-1.21-.14-2.033-.69-1.944-.726-2.72-.154-3.238.63-.571.646-.862.078-1.49-.408-.45-.406-.519.032-1.003.575-.635.383-1.251-.438-1.408-.566-.108-.57-.12-.049-.153.732-.047.893-.87.893-4.567 0-2.81.014-2.877.595-2.869.552.008.561.035.133.36-.59.447-.59.93 0 1.389.44.342.44.377 0 .72-.577.447-.588.876-.037 1.426.392.392.392.452 0 .738-.452.33-.589 1.18-.19 1.18.13 0 .3.165.377.367.099.257-.011.327-.368.233-.342-.09-.51.002-.51.28 0 .577.542.848.82.41.167-.264.231-.273.234-.034.002.182.272.343.6.358.566.025.563.035-.065.21-.762.212-1.03 1.012-.418 1.247.52.2.537.733.035 1.149-.404.336-.297.934.292 1.623.412.483.273 1.696-.37 3.223-.35.835-.363 1.101-.076 1.636.188.352.274.898.192 1.213-.383 1.465 1.107 2.557 2.837 2.08 1.266-.35 1.74-1.12 1.74-2.827 0-1.76-.303-2.345-1.332-2.571-1.124-.247-2.108.427-2.108 1.444 0 1.49 1.452 1.967 1.96.644.22-.574-.03-.815-.43-.415-.488.489-.78.37-.688-.28.106-.742.805-.897 1.394-.308.81.81-.018 2.489-1.228 2.489-.867 0-1.537-.962-1.537-2.208 0-1.78 1.317-2.632 2.989-1.933 1.268.53 1.772 1.362 1.782 2.943l.008 1.33.615-1.001c.87-1.416 1.755-2.318 2.676-2.727.492-.218.617-.356.33-.363-.254-.006-.463-.12-.463-.255s-.208-.3-.463-.366c-.351-.092-.32-.129.128-.152.792-.041.833-.227 1.1-4.912.02-.362.112-.433.309-.237.153.154.334 1.16.402 2.236.158 2.502.285 2.875.99 2.913.447.024.473.058.114.152-.255.066-.463.23-.463.366s-.179.245-.397.245c-.559 0-.493.342.142.738 1.586.99.797 3.726-.888 3.08-.483-.185-.825-1.035-.578-1.434.258-.418.927-.313.927.145 0 .227-.119.339-.264.25-.146-.09-.265-.035-.265.124 0 .546.86.638 1.23.13.655-.895-.172-2.24-1.377-2.24-.786 0-1.721.788-2.425 2.041l-.587 1.047 1.108-.022c.914-.019 1.124.07 1.193.507.077.483.059.489-.204.066-.465-.75-1.146-.543-2.71.826-2.116 1.851-3.812 2.007-5.422.499-.328-.307-.595-.43-.595-.275s.178.35.396.434c.447.172.538 1.11.133 1.36a.602.602 0 0 0-.265.453c0 .16.218.093.484-.147 1.428-1.293 3.75.696 3.75 3.212 0 1.276.665 1.906 2.01 1.906 1.447 0 2.361-.78 2.636-2.245.255-1.358-.275-3.007-1.064-3.307-.947-.36-2.088.055-2.373.864-.483 1.37.731 2.641 1.648 1.725.385-.385.421-1.27.053-1.27-.146 0-.265.119-.265.264s-.187.265-.416.265c-.254 0-.381-.18-.327-.463.061-.318.337-.463.88-.463.661 0 .803.116.872.714.133 1.156-.368 1.8-1.4 1.8-1.117 0-1.725-.767-1.725-2.176 0-1.381.724-2.058 2.202-2.058 1.656 0 2.386.85 2.56 2.982l.132 1.616 1.026-1.665c.738-1.198 1.294-1.782 1.984-2.082.691-.3.83-.447.496-.521-.254-.058-.463-.206-.463-.33s-.208-.28-.463-.347c-.348-.09-.315-.128.133-.152.327-.016.595-.199.595-.405 0-.206.126-.417.28-.468.163-.055.278-.936.278-2.132 0-1.122.104-2.103.231-2.182.338-.209.498.571.511 2.492.006.945.142 1.781.304 1.882.161.1.276.286.255.415-.021.13.237.313.573.408.336.094.432.187.214.206-.219.02-.628.21-.91.423-.501.38-.496.406.198 1.13 1.228 1.282.759 3.092-.757 2.92-.67-.077-.78-.2-.78-.883 0-.458.14-.793.33-.793.182 0 .301.119.265.264-.036.146-.155.235-.265.199-.109-.037-.198.12-.198.348 0 .296.208.39.728.33.567-.065.745-.24.81-.795.093-.814-.73-1.802-1.502-1.802-.73 0-1.832.969-2.425 2.131-.661 1.297-.655 1.358.107 1.011.962-.438 2.327.441 1.488.96-.145.09-.264-.023-.264-.25 0-.769-1.118-.426-2.522.774-.764.652-1.728 1.315-2.143 1.473-1.068.406-2.341.091-3.403-.84-.535-.47-1.044-.72-1.23-.606-.226.14-.259.052-.114-.31.756-1.883.292-3.635-1.053-3.973-.774-.194-1.706.488-1.706 1.25 0 .565.94 1.168 1.19.762.09-.146.038-.265-.116-.265s-.28-.12-.28-.265.187-.264.415-.264c.625 0 .368 1.163-.283 1.281-.711.13-1.455.818-1.455 1.348 0 .236.344.56.765.719 2.343.884 2.26 4.545-.124 5.54-.97.407-1.147.752-.509.997.218.084.397.276.397.427 0 .176-.183.161-.508-.041-.4-.25-.596-.244-.926.03-.292.242-.418.255-.418.042zM126.995 79.33c.833-.899.734-1.623-.388-2.84-.955-1.037-.963-1.06-.804-2.377.088-.732.53-3.077.982-5.21.545-2.577.781-4.234.704-4.938-.202-1.831.065-2.462 1.49-3.524l1.289-.96.153.572c.084.315.23 2.951.325 5.859s.251 5.414.347 5.57c.097.156.419.247.716.204l.541-.08.1-7.875c.055-4.331.087-8.716.072-9.744-.046-2.986.393-6.261.916-6.821.675-.725.833-1.675.39-2.353-.638-.972-.4-4.462.7-10.264.61-3.21 1.19-4.67 1.856-4.67.511 0 .44-.309-.213-.922l-.57-.535-.547.633c-.924 1.068-1.25 1.138-2.793.604-1.657-.574-1.795-.582-2.62-.15-.59.307-.68.286-1.253-.288-.516-.516-.83-.618-1.9-.618-1.092 0-1.362.092-1.811.614-.472.549-.576.58-.977.286-.58-.424-1.876-.418-3.549.018-1.486.387-2.218.192-2.218-.59 0-.59-.514-.593-1.045-.006-.38.42-.383.497-.036.992.425.608.486 3.258.222 9.632l-.153 3.675-2.106.165c-1.158.09-2.666.31-3.35.489-.685.178-1.969.395-2.854.48-.885.087-1.943.293-2.35.459-.89.36-1.23 1.176-.708 1.699.327.326.422.323.964-.032.331-.217.602-.55.602-.742s.157-.347.347-.347c.93 0 1.565 2.608 1.077 4.42-.196.726-.73 1.494-1.896 2.72-.893.94-1.733 2-1.868 2.354-.135.355-.246 1.754-.246 3.108 0 2.185-.06 2.543-.529 3.178-.821 1.112-.674 2.299.597 4.79 1.205 2.363 1.645 3.907 1.34 4.707-.11.291-.657.781-1.215 1.088-.917.504-1.022.654-1.087 1.54-.07.956-.048.988.823 1.23 1.235.343 1.428.321 2.232-.251.624-.445.688-.6.562-1.352-.078-.467-.176-1.908-.218-3.2-.041-1.294-.209-2.97-.371-3.727-.329-1.527-.173-2.929.348-3.129a.561.561 0 0 0 .34-.48c0-.193.29-.635.646-.982.355-.346.752-.799.881-1.005.213-.338.652-.303 4.536.358 3.806.648 4.31.786 4.398 1.204.054.26.379 1.98.722 3.823.59 3.172.653 3.35 1.17 3.35.302 0 .604-.09.672-.2.068-.11-.157-1.696-.499-3.523-.342-1.828-.577-3.365-.521-3.416.056-.051.419-.042.806.02.834.135 1.763 1.398 1.763 2.398 0 .374.328 1.085.765 1.662 1.57 2.073 1.821 3.103 1.821 7.462 0 2.481-.067 3.025-.439 3.553-.786 1.116-.824 1.616-.174 2.266.842.841 2.299.827 3.093-.03zm-1.946-19.502c.078-.078.281-.086.45-.019.188.076.133.131-.141.142-.248.01-.387-.045-.309-.123zm-9.873-1.503c-9.458-1.503-10.255-1.642-10.12-1.777.075-.075 18.533 2.813 19.46 3.044 1.527.382-1.765-.064-9.34-1.267zm9.516.549c.161-.065.426-.065.587 0s.03.119-.293.119c-.324 0-.456-.054-.294-.119zm-3.115-.42c-.905-.172-1.381-.317-1.058-.324.323-.006 1.328.129 2.233.3.905.172 1.381.317 1.058.324-.323.006-1.328-.129-2.233-.3zm6.465-.218c0-.05.185-.234.411-.412.373-.292.381-.284.089.09-.307.39-.5.515-.5.322zm-9.232-.3c.16-.065.477-.07.705-.01.23.06.099.112-.289.117-.388.005-.575-.044-.416-.108zm-1.524-.244c.227-.059.597-.059.823 0 .227.06.041.108-.411.108-.453 0-.638-.049-.412-.108zm11.695-.172c0-.055.715-.594 1.587-1.198.873-.604 1.42-.926 1.218-.715-.309.32-2.557 1.958-2.746 2-.032.006-.058-.032-.058-.087zm-13.228-.055c.16-.064.477-.068.706-.009.228.06.098.112-.29.117-.388.005-.575-.044-.415-.108zm-1.41-.235c.16-.065.477-.068.705-.009.229.06.099.112-.29.117-.387.005-.574-.044-.415-.108zm-2.405-.303c-.603-.124-.73-.199-.353-.208.324-.007 1.011.074 1.528.182.603.124.73.199.353.207-.323.008-1.011-.073-1.528-.18zm16.338-.105c0-.051.164-.156.365-.233.209-.08.303-.04.22.093-.137.223-.585.33-.585.14zm-18.4-.297c.16-.065.476-.069.705-.01.229.06.099.113-.29.118-.387.005-.574-.044-.415-.109zm19.34-.19c0-.06.238-.225.529-.366.508-.246.51-.242.072.11-.48.384-.601.435-.601.256zm-22.9-.38c-.549-.233.339-.132 2.213.254.988.203.966.209-.332.087-.765-.072-1.611-.225-1.881-.34zm24.075-.326c0-.06.238-.224.529-.365.508-.246.51-.242.072.109-.48.384-.601.436-.601.256zm-23.508-.555c0-.106.47-.8 1.046-1.54.575-.74 1.273-1.95 1.552-2.686.436-1.152.486-1.626.356-3.396l-.15-2.057 1.595-.013a43.575 43.575 0 0 0 3.476-.211c1.035-.11 1.918-.164 1.963-.121.046.043.007 1.753-.086 3.8l-.169 3.72-2.319.542a57.194 57.194 0 0 0-4.615 1.331c-2.572.884-2.65.903-2.65.631zm22.509-1.388c-.453-.13-.527-1.066-.26-3.296.146-1.209.165-1.234.923-1.234.886 0 1.237-.606.81-1.401-.179-.336-.18-.48-.004-.48.458 0 .516.665.249 2.87-.48 3.957-.49 3.997-.918 3.82a9.163 9.163 0 0 0-.8-.279zm-4.996-.657-1.88-.324 1.528.121c.84.067 1.898.21 2.35.318 1.307.31.063.24-1.998-.115zm-3.115-.509c.227-.059.597-.059.823 0 .227.06.041.108-.411.108-.453 0-.638-.048-.412-.108zm-2.997-1.723c-.091-.908-.129-5.761-.083-10.786l.083-9.136.823.006c.453.003 1.27-.032 1.816-.077.839-.07 1.104.023 1.71.604 1.109 1.062 1.398 3.016.498 3.355-.551.208-1.868 1.521-1.939 1.934-.125.729.313 3.07.635 3.391.651.652.854 1.702.98 5.082.116 3.14.085 3.512-.376 4.556-.277.625-.503 1.27-.503 1.436 0 .524-1.47 1.278-2.503 1.282l-.976.003zm8.702-.72c-.743-1.95.548-9.384 1.63-9.384a.36.36 0 0 0 .364-.353c0-.57.03-.663.496-1.577.605-1.187.562-1.98-.143-2.633-.323-.3-.588-.665-.588-.812 0-.147-.156-.267-.348-.267-.52 0-.68-1.029-.28-1.796.848-1.624 2.438-2.558 3.726-2.188.428.122 1.13.223 1.56.223.635 0 .757.077.655.411-.249.816-1.289 6.356-1.776 9.462l-.617 3.938c-.066.42-.195.765-.286.766-.859.009-3.25.556-3.389.776-.098.154-.18 1.294-.181 2.533-.003 2.04-.246 3.266-.43 2.176-.04-.238-.217-.812-.393-1.275zm-1.698-1.66c.072-.537.324-1.169.56-1.405.415-.417.426-.386.35.974-.07 1.232-.14 1.405-.56 1.405-.428 0-.466-.107-.35-.975zm-1.95-.579c0-1.353.332-1.663.711-.665.256.671.306 1.829.09 2.045-.078.078-.29.084-.471.014-.226-.087-.33-.523-.33-1.394zm.712-2.443c-.002-.323.2-.895.447-1.27l.45-.683.488.8c.614 1.008.61 1.243-.032 2.112l-.52.705-.415-.538c-.228-.296-.416-.803-.418-1.126zm1.644-2.67.005-.739.46.588c.253.323.459.905.457 1.293l-.003.705-.462-.555c-.254-.305-.46-.887-.457-1.293zm-2.348.848c.008-.403.755-1.47 1.03-1.47.272 0 .13.846-.228 1.359-.439.626-.813.678-.802.111zm3.162-1.716c-.16-.504.16-1.042.834-1.403.372-.199.374-.145.021.836-.416 1.156-.624 1.294-.855.567zm-1.568-.841c.294-.526.595-.008.384.658-.143.449-.186.462-.38.115a.812.812 0 0 1-.005-.773zm-1.942-.205-.162-.94.628.617c.546.536.59.685.347 1.141-.35.654-.603.399-.813-.818zm2.78-.951c.124-.322.217-.341.505-.102.273.227.29.367.077.624-.351.423-.793.027-.582-.522zm-1.656-.16c.444-.283.627-.21.627.249 0 .642-.268.79-.603.33-.224-.305-.23-.449-.024-.58zm2.544-.491c-.192-.231-.109-.527.332-1.176.324-.476.67-.866.768-.866.337 0 .744.563.744 1.028 0 1.007-1.27 1.705-1.844 1.014zm-1.54-.494c.117-.304.206-.335.339-.12.238.385-.007 1.021-.285.743-.116-.117-.14-.397-.054-.623zm-2.632-.02c-.357-.544-.357-.631 0-1.175.212-.324.525-.588.696-.588.45 0 1.108 1.767.78 2.096-.43.43-1.071.285-1.476-.333zm3.43-1.659V35.73l1.129 1.312-.463.65c-.255.358-.509.65-.564.65-.056 0-.102-.587-.102-1.306zm-1.656.456c-.198-.522-.144-.698.359-1.164.524-.486.592-.5.592-.125 0 .477-.462 1.904-.617 1.904-.055 0-.205-.277-.334-.615zm3.815-.945c-.04-.021.03-.103.157-.181.262-.162.975.464.975.854 0 .14-.238.055-.529-.19a9.497 9.497 0 0 0-.603-.483zm-5.925-.197c.309-.372.945-.493.945-.18 0 .192-.995.713-1.15.603-.05-.036.041-.226.205-.423zm4.57-.955c-.43-1.03-.143-2.327.751-3.39.844-1.002 1.225-.897.447.124-.802 1.05-1.027 2.464-.516 3.243.356.545.31.855-.127.855-.114 0-.364-.374-.555-.832zm-2.808-.144c.679-.807.78-2.078.241-3.02-.406-.712-.432-.941-.106-.941.136 0 .412.393.613.874.482 1.154.302 2.74-.396 3.482-.756.805-1.067.454-.352-.395z"/></g></svg>