<?xml version="1.0" encoding="UTF-8"?>
<svg width="530.77mm" height="450mm" version="1.1" viewBox="0 0 530.77 450" xmlns="http://www.w3.org/2000/svg" xmlns:cc="http://creativecommons.org/ns#" xmlns:dc="http://purl.org/dc/elements/1.1/" xmlns:rdf="http://www.w3.org/1999/02/22-rdf-syntax-ns#">
<metadata>
<rdf:RDF>
<cc:Work rdf:about="">
<dc:format>image/svg+xml</dc:format>
<dc:type rdf:resource="http://purl.org/dc/dcmitype/StillImage"/>
<dc:title/>
</cc:Work>
</rdf:RDF>
</metadata>
<g transform="translate(287.89 -12.62)" fill="#fff">
<g transform="matrix(.024585 0 0 -.024585 55.604 276.22)" opacity=".448">
<path d="m2747 12786c-70-26-97-66-97-144 0-96 36-174 96-208 18-11 17-14-25-74-77-109-88-169-43-222l29-33-20-910-23-28c-31-37-30-68 1-105l25-30-22-46c-24-50-24-54 21-178 20-55 20-60 6-260-14-180-62-788-96-1199-14-172-8-209 51-293l38-54-23-22c-34-32-58-87-50-117 3-13 17-35 30-49l23-23-21-63c-21-62-22-75-27-1023l-5-960-50-3c-27-1-169-18-315-37-898-118-1131-151-1355-190-137-24-303-53-368-65-72-12-138-31-172-47l-55-27v-436l28-11c15-6 65-21 111-35 47-13 86-26 88-28s-66-579-151-1282c-129-1067-163-1370-201-1829-25-302-74-903-110-1334-36-432-64-786-62-787 1-2 60-9 130-16l128-14 63 31 62 30 22 175c12 96 76 620 143 1165 66 544 121 990 122 991s65 22 142 47 385 125 685 223l545 177 310-43c171-23 314-46 318-50 5-4-6-316-24-694-18-377-30-688-27-691 12-12 320-31 324-20 2 5 26 280 54 610s53 633 57 673c4 47 10 72 18 72 7 0 142-16 301-35s370-41 468-50c242-21 869-65 931-65 28 0 56-4 62-8 9-6 18-121 32-402 19-379 26-443 156-1557 74-639 135-1167 135-1174 0-9 41-11 176-6 98 4 178 8 179 9 2 2-1 75-6 163-25 453-129 2519-129 2562v49l396 253c218 139 398 251 399 249 2-2 36-197 74-433 39-237 117-654 173-927l102-498h96c54 0 119 3 145 7l47 6-7 156c-3 86-51 537-105 1011-88 759-114 944-225 1654-69 439-159 976-201 1193-41 217-74 402-72 410 2 9 49 32 123 58 66 24 148 53 183 66l62 23 1 55c1 96-3 253-10 330l-6 74-70 25c-38 13-71 25-72 26-2 1 10 63 27 137 279 1276 289 1329 316 1597 16 159 31 263 39 272 43 51 58 136 31 176-13 18-13 24 1 50 85 162 76 123 157 644 41 267 101 656 133 865 44 293 61 382 74 393 63 53 69 62 69 99 0 22 9 56 20 78 23 44 25 77 8 104-9 15 0 64 50 257 56 219 62 258 82 467l21 228 35 45c30 41 34 52 34 109 0 42-7 80-21 111-11 27-18 58-15 69s26 47 52 80c102 131 118 220 51 281-72 67-263 87-335 36-62-44-89-135-71-232 6-30 13-69 16-87 4-24-6-57-37-130-36-85-41-105-38-157l3-60-35-8c-65-14-1978-22-2155-9-262 20-1297 99-1612 124-161 13-295 26-298 29s3 21 14 39c29 48 27 120-4 187-14 30-25 64-25 77s18 61 40 106c67 139 52 227-47 271-58 25-194 34-246 14zm459-1631c94-8 225-19 290-25 65-5 152-12 191-16l73-7-5-51c-3-28-17-271-30-541-14-269-32-623-40-785-12-238-54-2421-55-2892v-118h-47c-27 0-163 8-303 19-140 10-277 18-305 17l-50-1 3 50c1 28 19 327 38 665 41 692 43 879 17 1128-16 146-17 175-5 184 49 41 55 122 12 171l-29 34 64 158-2 250c-2 298-21 1172-28 1336l-6 115 31 38c34 43 37 64 15 106-12 24-13 30-1 37 22 13 38 52 31 76-4 12-19 32-33 44-32 28-43 27 174 8zm1078-90c159-13 290-26 291-27 3-4-164-1720-225-2303-29-289-74-908-120-1690-12-192-23-355-24-360-3-7-61-7-181 2-97 7-182 14-188 16-12 4-11 23 8 622 19 595 32 1312 45 2465 5 531 13 1040 16 1133l6 167h42c22 0 171-11 330-25zm793-54c149-3 274-9 278-13s-63-532-149-1175c-194-1455-193-1446-266-2148-102-971-109-1037-113-1042-6-6-387 24-394 31-3 3 1 86 11 183 121 1266 157 1779 251 3558 13 264 28 513 31 553l6 74 36-7c21-4 159-10 309-14zm1073-7c0-21-358-2256-435-2721-30-178-93-596-140-930-108-767-108-768-120-767-5 1-102 7-214 14l-204 13 6 61c4 34 27 230 51 436 94 780 150 1317 346 3267 33 330 60 606 60 612 0 7 89 12 283 14 155 1 301 3 325 5 23 1 42-1 42-4zm734-19c-14-22-15-32-5-66 11-35 10-43-4-59-14-15-15-34-10-122 8-121 15-89-271-1247-121-492-127-530-100-643 11-50 11-59-1-70-41-34-55-114-29-173 11-27 10-36-20-100-32-66-43-126-184-990-83-506-153-933-156-948l-6-28-101 6c-161 11-277 22-282 27-3 2 17 146 45 319 76 488 106 703 175 1274 99 814 345 2797 350 2823l5 22h610zm-5548-5235c495-61 629-77 1124-136 212-25 386-47 387-48s-28-365-65-809l-67-807-30-10c-16-5-210-59-431-119-355-97-453-129-855-276-618-227-679-248-684-243-2 2 20 200 50 439 53 416 56 459 85 1039 17 333 35 688 40 790s10 195 10 208c0 12 6 22 14 22 7 0 197-23 422-50zm4548-32c3-24 60-513 126-1088 114-989 119-1046 103-1058-22-17-243-154-339-211l-72-42-181 27-180 27-6 41c-2 23-23 307-45 631l-41 590-75 445c-41 245-77 452-80 461-4 13 14 17 113 26 109 10 139 17 383 100 146 50 270 91 276 92 7 0 14-18 18-41zm-1104-668c0-374 6-599 25-985 29-585 30-626 13-620-20 7-634 83-848 104-107 11-325 30-485 41-159 11-314 23-343 26l-54 6 6 46c3 26 13 117 21 202s33 338 55 563c35 351 41 456 47 756l6 348 1557-2z" fill="#fff" stroke-width="1.4349"/>
</g>
<g transform="matrix(-.036873 0 0 -.036873 -7.021 512.9)" opacity=".448">
<path d="m2747 12786c-70-26-97-66-97-144 0-96 36-174 96-208 18-11 17-14-25-74-77-109-88-169-43-222l29-33-20-910-23-28c-31-37-30-68 1-105l25-30-22-46c-24-50-24-54 21-178 20-55 20-60 6-260-14-180-62-788-96-1199-14-172-8-209 51-293l38-54-23-22c-34-32-58-87-50-117 3-13 17-35 30-49l23-23-21-63c-21-62-22-75-27-1023l-5-960-50-3c-27-1-169-18-315-37-898-118-1131-151-1355-190-137-24-303-53-368-65-72-12-138-31-172-47l-55-27v-436l28-11c15-6 65-21 111-35 47-13 86-26 88-28s-66-579-151-1282c-129-1067-163-1370-201-1829-25-302-74-903-110-1334-36-432-64-786-62-787 1-2 60-9 130-16l128-14 63 31 62 30 22 175c12 96 76 620 143 1165 66 544 121 990 122 991s65 22 142 47 385 125 685 223l545 177 310-43c171-23 314-46 318-50 5-4-6-316-24-694-18-377-30-688-27-691 12-12 320-31 324-20 2 5 26 280 54 610s53 633 57 673c4 47 10 72 18 72 7 0 142-16 301-35s370-41 468-50c242-21 869-65 931-65 28 0 56-4 62-8 9-6 18-121 32-402 19-379 26-443 156-1557 74-639 135-1167 135-1174 0-9 41-11 176-6 98 4 178 8 179 9 2 2-1 75-6 163-25 453-129 2519-129 2562v49l396 253c218 139 398 251 399 249 2-2 36-197 74-433 39-237 117-654 173-927l102-498h96c54 0 119 3 145 7l47 6-7 156c-3 86-51 537-105 1011-88 759-114 944-225 1654-69 439-159 976-201 1193-41 217-74 402-72 410 2 9 49 32 123 58 66 24 148 53 183 66l62 23 1 55c1 96-3 253-10 330l-6 74-70 25c-38 13-71 25-72 26-2 1 10 63 27 137 279 1276 289 1329 316 1597 16 159 31 263 39 272 43 51 58 136 31 176-13 18-13 24 1 50 85 162 76 123 157 644 41 267 101 656 133 865 44 293 61 382 74 393 63 53 69 62 69 99 0 22 9 56 20 78 23 44 25 77 8 104-9 15 0 64 50 257 56 219 62 258 82 467l21 228 35 45c30 41 34 52 34 109 0 42-7 80-21 111-11 27-18 58-15 69s26 47 52 80c102 131 118 220 51 281-72 67-263 87-335 36-62-44-89-135-71-232 6-30 13-69 16-87 4-24-6-57-37-130-36-85-41-105-38-157l3-60-35-8c-65-14-1978-22-2155-9-262 20-1297 99-1612 124-161 13-295 26-298 29s3 21 14 39c29 48 27 120-4 187-14 30-25 64-25 77s18 61 40 106c67 139 52 227-47 271-58 25-194 34-246 14zm459-1631c94-8 225-19 290-25 65-5 152-12 191-16l73-7-5-51c-3-28-17-271-30-541-14-269-32-623-40-785-12-238-54-2421-55-2892v-118h-47c-27 0-163 8-303 19-140 10-277 18-305 17l-50-1 3 50c1 28 19 327 38 665 41 692 43 879 17 1128-16 146-17 175-5 184 49 41 55 122 12 171l-29 34 64 158-2 250c-2 298-21 1172-28 1336l-6 115 31 38c34 43 37 64 15 106-12 24-13 30-1 37 22 13 38 52 31 76-4 12-19 32-33 44-32 28-43 27 174 8zm1078-90c159-13 290-26 291-27 3-4-164-1720-225-2303-29-289-74-908-120-1690-12-192-23-355-24-360-3-7-61-7-181 2-97 7-182 14-188 16-12 4-11 23 8 622 19 595 32 1312 45 2465 5 531 13 1040 16 1133l6 167h42c22 0 171-11 330-25zm793-54c149-3 274-9 278-13s-63-532-149-1175c-194-1455-193-1446-266-2148-102-971-109-1037-113-1042-6-6-387 24-394 31-3 3 1 86 11 183 121 1266 157 1779 251 3558 13 264 28 513 31 553l6 74 36-7c21-4 159-10 309-14zm1073-7c0-21-358-2256-435-2721-30-178-93-596-140-930-108-767-108-768-120-767-5 1-102 7-214 14l-204 13 6 61c4 34 27 230 51 436 94 780 150 1317 346 3267 33 330 60 606 60 612 0 7 89 12 283 14 155 1 301 3 325 5 23 1 42-1 42-4zm734-19c-14-22-15-32-5-66 11-35 10-43-4-59-14-15-15-34-10-122 8-121 15-89-271-1247-121-492-127-530-100-643 11-50 11-59-1-70-41-34-55-114-29-173 11-27 10-36-20-100-32-66-43-126-184-990-83-506-153-933-156-948l-6-28-101 6c-161 11-277 22-282 27-3 2 17 146 45 319 76 488 106 703 175 1274 99 814 345 2797 350 2823l5 22h610zm-5548-5235c495-61 629-77 1124-136 212-25 386-47 387-48s-28-365-65-809l-67-807-30-10c-16-5-210-59-431-119-355-97-453-129-855-276-618-227-679-248-684-243-2 2 20 200 50 439 53 416 56 459 85 1039 17 333 35 688 40 790s10 195 10 208c0 12 6 22 14 22 7 0 197-23 422-50zm4548-32c3-24 60-513 126-1088 114-989 119-1046 103-1058-22-17-243-154-339-211l-72-42-181 27-180 27-6 41c-2 23-23 307-45 631l-41 590-75 445c-41 245-77 452-80 461-4 13 14 17 113 26 109 10 139 17 383 100 146 50 270 91 276 92 7 0 14-18 18-41zm-1104-668c0-374 6-599 25-985 29-585 30-626 13-620-20 7-634 83-848 104-107 11-325 30-485 41-159 11-314 23-343 26l-54 6 6 46c3 26 13 117 21 202s33 338 55 563c35 351 41 456 47 756l6 348 1557-2z" fill="#fff" stroke-width=".95674"/>
</g>
</g>
</svg>
