<?xml version="1.0" encoding="UTF-8" standalone="no"?>
<!-- Created with Inkscape (http://www.inkscape.org/) -->

<svg
   xmlns:dc="http://purl.org/dc/elements/1.1/"
   xmlns:cc="http://creativecommons.org/ns#"
   xmlns:rdf="http://www.w3.org/1999/02/22-rdf-syntax-ns#"
   xmlns:svg="http://www.w3.org/2000/svg"
   xmlns="http://www.w3.org/2000/svg"
   xmlns:xlink="http://www.w3.org/1999/xlink"
   xmlns:sodipodi="http://sodipodi.sourceforge.net/DTD/sodipodi-0.dtd"
   xmlns:inkscape="http://www.inkscape.org/namespaces/inkscape"
   width="200mm"
   height="104mm"
   viewBox="0 0 200 104"
   version="1.1"
   id="svg5891"
   inkscape:version="0.92.4 (5da689c313, 2019-01-14)"
   sodipodi:docname="clock.svg">
  <defs
     id="defs5885">
    <linearGradient
       inkscape:collect="always"
       id="linearGradient6453">
      <stop
         style="stop-color:#ffffff;stop-opacity:1;"
         offset="0"
         id="stop6449" />
      <stop
         id="stop6457"
         offset="0.56821907"
         style="stop-color:#ffffff;stop-opacity:0.56084657" />
      <stop
         style="stop-color:#ffffff;stop-opacity:0.843"
         offset="1"
         id="stop6451" />
    </linearGradient>
    <linearGradient
       inkscape:collect="always"
       xlink:href="#linearGradient6453"
       id="linearGradient6455"
       x1="26.818878"
       y1="87.047806"
       x2="156.29395"
       y2="244.55138"
       gradientUnits="userSpaceOnUse" />
  </defs>
  <sodipodi:namedview
     id="base"
     pagecolor="#ffffff"
     bordercolor="#666666"
     borderopacity="1.0"
     inkscape:pageopacity="0.0"
     inkscape:pageshadow="2"
     inkscape:zoom="0.49497475"
     inkscape:cx="120.73231"
     inkscape:cy="473.57778"
     inkscape:document-units="mm"
     inkscape:current-layer="layer1"
     showgrid="false"
     inkscape:pagecheckerboard="true"
     fit-margin-top="0"
     fit-margin-left="0"
     fit-margin-right="0"
     fit-margin-bottom="0"
     inkscape:window-width="1920"
     inkscape:window-height="1017"
     inkscape:window-x="1072"
     inkscape:window-y="394"
     inkscape:window-maximized="1" />
  <metadata
     id="metadata5888">
    <rdf:RDF>
      <cc:Work
         rdf:about="">
        <dc:format>image/svg+xml</dc:format>
        <dc:type
           rdf:resource="http://purl.org/dc/dcmitype/StillImage" />
        <dc:title></dc:title>
      </cc:Work>
    </rdf:RDF>
  </metadata>
  <g
     inkscape:label="Layer 1"
     inkscape:groupmode="layer"
     id="layer1"
     transform="translate(24.8315,-114.70066)">
    <path
       style="opacity:0.73400005;fill:url(#linearGradient6455);stroke-width:1;fill-opacity:1"
       d="m -30.467743,603.04246 c 0.07289,-8.41299 3.241813,-19.3737 6.233588,-21.56133 1.558296,-1.13946 2.833254,-3.00624 2.833254,-4.14838 0,-1.14221 0.794204,-2.0767 1.764888,-2.0767 2.392406,0 0.179823,5.34353 -3.903279,9.42666 -4.304879,4.30482 -4.230851,6.97187 0.193493,6.97187 3.180831,0 6.898187,-5.97638 5.949992,-9.56585 -0.198542,-0.75161 0.507329,-1.36652 1.568589,-1.36652 1.061278,0 1.466125,-0.74995 0.899681,-1.66645 -1.529714,-2.47508 1.532427,-2.98553 12.1918734,-2.03229 l 9.5767143,0.85647 -10.0213611,1.12419 c -5.5117395,0.6184 9.2469851,1.24519 32.7971614,1.39322 23.550177,0.1482 41.752969,-0.40706 40.450628,-1.23293 -1.43803,-0.91218 1.423999,-1.61703 7.288256,-1.79499 6.897307,-0.20911 8.875276,0.21934 6.923045,1.50196 -1.950963,1.28133 0.134538,1.72902 7.288249,1.56435 9.789311,-0.22504 9.852591,-0.26019 2.733092,-1.50339 -6.29964,-1.10007 -5.619982,-1.29069 5.010688,-1.40505 6.764411,-0.0728 12.298941,0.61633 12.298941,1.53128 0,0.91501 2.66476,1.56659 5.9217,1.44802 l 5.92171,-0.21544 -5.46619,-1.30258 c -3.6825,-0.87756 -0.70969,-1.31955 9.1103,-1.35447 10.63003,-0.0334 12.84993,0.30833 8.1993,1.27838 -6.04426,1.26064 -5.90156,1.34113 2.73309,1.54208 6.48865,0.15046 8.32382,-0.29597 6.37724,-1.55432 -1.98614,-1.28357 -0.49227,-1.76628 5.46618,-1.76628 5.95845,0 7.45237,0.48271 5.46622,1.76628 -2.22921,1.44065 -2.00874,1.7714 1.19595,1.79419 3.03724,0.0209 3.7128,-0.79933 2.97612,-3.61626 -0.9357,-3.57811 -2.4853,-3.64415 -85.574001,-3.64415 -55.950004,0 -84.239449,-0.61704 -83.4949008,-1.82202 0.724585,-1.17239 31.2976898,-1.82207 85.7445558,-1.82207 74.772456,0 84.618486,0.32421 84.618486,2.7902 0,1.53469 1.2252,3.26047 2.72265,3.83514 1.49745,0.57432 2.26895,1.77879 1.71452,2.67589 -0.55443,0.89714 -0.0914,1.63115 1.029,1.63115 1.12044,0 1.67504,0.61499 1.2325,1.36654 -1.72915,2.93671 2.42679,9.56584 5.99706,9.56584 4.5937,0 4.73422,-2.61274 0.37505,-6.97191 -4.08308,-4.08308 -6.2957,-9.42666 -3.90329,-9.42666 0.97069,0 1.76489,0.9345 1.76489,2.07671 0,1.14217 1.27495,3.00895 2.83325,4.14841 2.99179,2.18762 6.16062,13.14833 6.23359,21.56133 0.0427,4.94824 -0.10147,5.01072 -11.60498,5.01072 -8.67338,0 -11.91635,-0.69808 -12.69729,-2.73311 -0.64842,-1.68986 -3.41975,-2.73309 -7.26011,-2.73309 -3.41623,0 -7.23202,-1.22993 -8.47957,-2.73313 -1.93663,-2.33351 -11.52734,-2.73308 -65.594316,-2.73308 -54.066986,0 -63.657697,0.39941 -65.5943092,2.73308 -1.2475511,1.5032 -5.0633578,2.73313 -8.4795798,2.73313 -3.8403256,0 -6.611652,1.04323 -7.2600893,2.73309 -0.7809196,2.03503 -4.0239037,2.73311 -12.6972737,2.73311 -11.503257,0 -11.647928,-0.0623 -11.604998,-5.01072 z m 11.951769,-2.27758 c 4.870201,0 8.047456,0.83093 8.047456,2.10447 0,1.20515 1.5316637,0.71835 3.584219,-1.13917 1.9798371,-1.79176 5.1519469,-2.83374 7.08655343,-2.32778 1.92629297,0.50342 4.61802607,0.20882 5.98161627,-0.65493 1.483203,-0.93972 -5.0241031,-1.58205 -16.1968687,-1.59871 -18.203701,-0.0271 -18.672517,0.076 -18.532307,4.07174 0.07905,2.2548 0.557399,3.07471 1.062862,1.82203 0.540522,-1.33954 4.233365,-2.27756 8.966469,-2.27756 z m 187.520784,0 c 4.61166,0 8.27788,0.94732 8.81465,2.27758 0.50549,1.25267 0.98376,0.43251 1.06287,-1.82203 0.13995,-3.99595 -0.32864,-4.09894 -18.53233,-4.07176 -10.67846,0.0158 -17.65038,0.67834 -16.28078,1.54687 1.31744,0.8354 4.23707,1.16692 6.48801,0.73669 2.41146,-0.46072 5.14256,0.48272 6.64841,2.29699 1.56994,1.89164 2.81561,2.29953 3.22962,1.05755 0.37069,-1.11202 4.22699,-2.02189 8.56955,-2.02189 z M -5.4457221,588.33373 c -0.6454707,-2.46833 0.091646,-3.25007 2.8720443,-3.04525 2.05726208,0.15151 3.9307768,1.25645 4.1633749,2.45533 0.2326142,1.19888 0.00369,1.33425 -0.5070538,0.30091 -1.05632964,-2.13424 -4.2628872,-0.70847 -4.2628872,1.89538 0,0.94298 1.6398565,1.71452 3.64413323,1.71452 2.31899277,0 3.64412827,-1.2147 3.64412827,-3.34044 0,-1.83728 1.1855971,-3.34045 2.6346931,-3.34045 1.9902164,0 2.1973684,0.81705 0.8469,3.34045 -1.524661,2.84882 -1.076707,3.34044 3.0440403,3.34044 3.704636,0 4.637262,-0.74377 3.99794,-3.18856 -0.697382,-2.66674 0.431299,-3.18869 6.896054,-3.18869 6.79721,0 7.524011,0.38498 6.02342,3.18869 -1.422051,2.65709 -0.916061,3.18856 3.035555,3.18856 3.769176,0 4.524554,-0.6852 3.681849,-3.34044 -0.677773,-2.1355 -0.155095,-3.34045 1.449288,-3.34045 1.536399,0 2.170765,1.2953 1.635932,3.34045 -0.65449,2.50281 0.146836,3.34044 3.195612,3.34044 2.978258,0 3.845653,-0.85487 3.235501,-3.18856 -0.693811,-2.65377 0.462226,-3.20943 6.891201,-3.31233 5.677668,-0.091 7.480693,0.51308 6.803445,2.27761 -1.169782,3.04841 -4.166692,3.13653 -4.203592,0.12403 -0.01863,-1.51835 -0.616694,-1.36655 -1.794168,0.4552 -1.283441,1.98601 -1.773889,2.08112 -1.794172,0.34793 -0.01435,-1.31183 -0.847821,-1.87839 -1.849953,-1.25902 -4.296957,2.65565 -1.169146,4.55511 7.500767,4.55511 8.143258,0 9.212298,-0.42283 8.449289,-3.34037 -0.534811,-2.04522 0.09955,-3.34055 1.63594,-3.34055 1.604294,0 2.127082,1.20497 1.449292,3.34055 -0.93288,2.93915 0.04888,3.34037 8.172887,3.34037 5.078222,0 9.233104,-0.77151 9.233104,-1.71447 0,-2.71766 -3.628085,-4.23252 -3.787979,-1.58162 -0.112679,1.86646 -0.358652,1.84495 -1.131582,-0.0985 -0.833924,-2.09693 -1.258768,-2.09693 -2.727969,0 -1.469226,2.09696 -1.894833,2.09696 -2.733092,0 -0.838268,-2.09693 -1.263898,-2.09693 -2.733098,0 -1.438633,2.05336 -1.617516,2.0299 -1.032183,-0.13454 0.468768,-1.73405 3.510405,-2.7118 9.001316,-2.89366 7.219164,-0.23916 8.179856,0.15921 7.417467,3.07446 -0.657036,2.51245 0.140671,3.3491 3.193328,3.3491 3.035614,0 3.849231,-0.84098 3.20329,-3.31106 -0.738658,-2.82457 0.2583,-3.29302 6.785866,-3.1886 6.359644,0.10221 7.510934,0.66108 6.818034,3.31107 -0.60001,2.29501 0.24719,3.18859 3.02299,3.18859 4.28589,0 4.93308,-1.83892 1.76294,-5.00897 -1.57688,-1.57695 -1.12719,-2.02097 1.8218,-1.79878 2.87693,0.21693 3.64135,1.15865 2.88195,3.5513 -0.81182,2.55779 -0.0158,3.25645 3.70851,3.25645 4.01971,0 4.47192,-0.50477 2.9687,-3.31353 -1.58971,-2.97047 -0.96599,-3.3006 6.02323,-3.1886 6.49693,0.10394 7.65762,0.65626 6.96292,3.31354 -0.71376,2.72989 0.50739,3.18859 8.48918,3.18859 5.12756,0 9.32285,-0.77161 9.32285,-1.71457 0,-2.60387 -3.20657,-4.02956 -4.26291,-1.89536 -0.51154,1.0334 -0.73969,0.89797 -0.50706,-0.30091 0.23262,-1.1989 2.10614,-2.30374 4.1634,-2.45536 2.7803,-0.20462 3.51753,0.57712 2.87204,3.04528 -0.70606,2.69993 0.21692,3.32085 4.93701,3.32085 4.97826,0 5.72246,-0.58394 5.22319,-4.0997 l -0.58225,-4.09959 -89.281164,-0.47723 c -82.316312,-0.44005 -89.45882,-0.23465 -91.558731,2.62583 -3.585681,4.88523 -2.755104,6.05069 4.312152,6.05069 5.4788385,0 6.4433439,-0.55982 5.7213216,-3.32085 z m -8.6669199,0.005 c 0,-2.20201 3.456814,-4.76941 4.7204259,-3.50581 0.4585722,0.45868 -0.4158859,1.87104 -1.9432989,3.13866 -1.731669,1.43715 -2.777127,1.5754 -2.777127,0.36715 z m 155.367492,-1.19504 c -1.83271,-2.08359 -1.58371,-2.49827 1.36654,-2.27604 1.9842,0.14957 3.60761,1.32718 3.60761,2.6171 0,3.02946 -2.13839,2.88285 -4.97415,-0.34092 z m 19.31826,-0.502 c -2.26642,-2.88985 -2.20196,-2.95434 0.68797,-0.68796 1.75373,1.37537 3.1886,2.81027 3.1886,3.18857 0,1.49963 -1.49623,0.53445 -3.87654,-2.5007 z M 24.122806,588.4641 c -0.02404,-2.725 -0.284712,-2.79123 -1.794165,-0.45585 -1.283442,1.98599 -1.77389,2.08111 -1.79417,0.34792 -0.01435,-1.31188 -0.847826,-1.87839 -1.849959,-1.25901 -3.081182,1.90425 -2.020812,4.55514 1.822067,4.55514 2.266522,0 3.633575,-1.20539 3.616227,-3.18856 z m 78.896124,0.0926 c -0.85307,-2.22306 -1.41308,-2.42187 -1.98545,-0.70484 -0.60324,1.80972 -1.125174,1.86094 -2.145148,0.21062 -0.976593,-1.58016 -1.653013,-1.38607 -2.455333,0.70483 -0.82374,2.14662 0.0303,2.88587 3.333377,2.88587 3.430424,0 4.170424,-0.70454 3.252554,-3.09655 z m 30.45562,1.38192 c 0,-0.94298 -0.81992,-2.22125 -1.82206,-2.84065 -1.00214,-0.61911 -1.83462,-0.0549 -1.84996,1.25904 -0.0201,1.73309 -0.5107,1.63801 -1.79416,-0.34793 -1.50947,-2.33572 -1.77033,-2.26947 -1.79419,0.45589 -0.0177,1.98317 1.34973,3.18859 3.61624,3.18859 2.00428,0 3.64413,-0.77159 3.64413,-1.71455 z M 79.26814,579.51407 c -1.252672,-0.50552 -3.302485,-0.50552 -4.555157,0 -1.252672,0.50543 -0.227735,0.91897 2.277585,0.91897 2.505332,0 3.530245,-0.41314 2.277572,-0.91897 z m 29.15305,0 c -1.25268,-0.50552 -3.3025,-0.50552 -4.55517,0 -1.25267,0.50543 -0.22775,0.91897 2.27757,0.91897 2.50534,0 3.53027,-0.41314 2.2776,-0.91897 z M 10.0297,577.64409 c 1.753741,-0.45867 4.623499,-0.45867 6.377227,0 1.753745,0.45793 0.318834,0.83328 -3.188613,0.83328 -3.5074705,0 -4.9423403,-0.37535 -3.188614,-0.83328 z m 17.357778,-0.0808 c 4.285561,-0.38498 10.844994,-0.37945 14.576508,0.0158 3.731512,0.39117 0.225104,0.70643 -7.791932,0.69985 -8.01708,-0.005 -11.070152,-0.3272 -6.784576,-0.71187 z m 26.396822,0.027 c 2.769654,-0.41874 6.869295,-0.40772 9.110327,0.0271 2.241025,0.43247 -0.02492,0.77511 -5.035728,0.76144 -5.010686,-0.0158 -6.844241,-0.3679 -4.074599,-0.78632 z m -74.006777,-6.30396 c -4.409895,-2.46785 -10.198371,-15.43902 -10.24873,-22.96584 -0.05096,-7.6088 2.980727,-14.76564 12.444097,-29.37696 9.3238612,-14.39599 10.1320381,-23.27417 2.787226,-30.61894 -4.589757,-4.58983 -4.659107,-4.96143 -1.822065,-9.76417 2.663095,-4.5082 2.949307,-22.13927 2.949307,-181.68423 0,-151.1616 -0.377242,-177.00457 -2.610928,-178.85832 -1.84242,-1.52908 -2.780966,-7.22718 -3.188613,-19.358899 l -0.577713,-17.191983 5.466192,0.252384 c 4.299356,0.198308 4.591072,0.420759 1.366547,1.041872 -3.864852,0.744402 -4.09964,1.669353 -4.09964,16.150444 V 114.27249 H -0.42144142 16.913913 l 9.562045,-7.78839 C 42.821881,93.169972 52.917645,89.688891 75.206801,89.681141 c 17.937749,-0.0053 19.928808,0.370372 30.975089,5.859286 6.49281,3.226282 14.92545,8.760833 18.73923,12.298993 l 6.93414,6.43293 h 18.11924 18.11926 V 98.919966 c 0,-13.090681 -0.47,-15.476811 -3.18861,-16.187254 -1.91481,-0.500379 -1.00494,-0.990244 2.27757,-1.226253 5.40952,-0.388866 5.41896,-0.40811 0.91104,-1.851793 -4.31587,-1.382187 -4.24409,-1.468369 1.36656,-1.640433 6.76125,-0.207318 8.67063,-5.647804 1.98213,-5.647804 -2.16674,0 -7.35756,-2.003091 -11.53511,-4.451293 -8.38658,-4.91488 -12.14953,-11.181261 -21.03943,-35.036877 -4.27701,-11.47714 -7.30309,-16.475025 -13.20165,-21.804048 -5.77492,-5.2172802 -7.78806,-6.2112502 -8.20415,-4.0506901 -0.3032,1.57469 2.22453,5.6470211 5.61728,9.0495701 3.46043,3.470455 7.91217,10.986226 10.13988,17.118935 2.18418,6.012797 5.23458,14.369489 6.77871,18.570373 4.09604,11.143645 9.92568,18.865431 17.13498,22.696467 3.49182,1.855537 5.07429,3.373732 3.51658,3.373732 -1.55771,0 -6.17246,-2.859112 -10.25501,-6.353594 -5.85875,-5.014899 -8.46933,-9.333894 -12.38999,-20.498201 -7.18034,-20.446616 -13.41163,-33.025712 -17.42352,-35.172836 -4.99116,-2.671145 -4.34434,-0.451434 1.96113,6.730048 3.0064,3.424095 5.44126,7.222046 5.41078,8.439796 -0.0303,1.217812 -0.96238,0.574383 -2.07091,-1.429932 -1.1085,-2.004256 -3.61775,-5.416032 -5.5761,-7.581661 -3.34712,-3.701446 -3.94355,-3.777612 -9.94503,-1.270062 -5.67234,2.370093 -6.86992,2.349421 -10.738092,-0.18508 -13.394177,-8.776214 -3.26042,-26.4631044 13.847372,-24.1684951 17.20047,2.30709 29.40551,14.2899001 36.60477,35.9384001 7.46063,22.434373 7.26732,22.243501 21.82968,21.553999 9.73321,-0.460839 12.02405,-0.12439 9.86317,1.449387 -1.54808,1.1273 -6.28293,1.851652 -10.52192,1.609711 -4.23898,-0.242168 -5.12647,-0.09465 -1.97218,0.32681 3.67101,0.490791 6.05763,2.000291 6.63131,4.194132 0.64115,2.451876 1.99081,3.141132 4.74182,2.421749 3.18914,-0.833976 3.84554,-0.191694 3.84554,3.762019 0,3.057629 -0.99647,4.767675 -2.77818,4.767675 -1.52799,0 -3.56555,2.070832 -4.52782,4.601839 -0.9623,2.531024 -2.99182,5.078529 -4.51006,5.661118 -2.17555,0.834852 -2.76045,4.445414 -2.76045,17.039828 0,11.982122 -0.68383,16.548122 -2.73309,18.248862 -2.39503,1.9877 -2.73312,24.12348 -2.73312,178.95976 0,159.54496 0.28635,177.17603 2.94933,181.68432 2.84562,4.81722 2.77377,5.16834 -2.0434,9.98546 -7.02617,7.02611 -5.7036,17.19087 4.2265,32.48398 8.77983,13.52152 11.28015,19.63917 11.22615,27.46779 -0.0532,7.72857 -6.00701,20.49812 -10.73749,23.02979 -5.01773,2.68541 -4.79852,0.88579 0.68612,-5.6324 9.57383,-11.37781 9.2361,-24.19331 -1.04025,-39.47491 -2.8989,-4.31086 -6.49978,-10.21473 -8.00194,-13.11958 -4.84124,-9.36186 -2.7995,-23.9094 3.912,-27.87328 2.05554,-1.21405 2.0112,-2.3387 -0.26591,-6.74225 -2.37433,-4.59146 -2.73306,-28.49737 -2.73306,-182.11593 v -176.8307 l -17.76516,-0.018 c -17.70721,-0.018 -17.78424,-0.0394 -23.62861,-6.05593 -3.22493,-3.32015 -10.1943,-8.3976 -15.48755,-11.28328 -8.851282,-4.825381 -11.184379,-5.254502 -29.055985,-5.343553 -10.687544,-0.05283 -18.476862,0.548247 -17.309594,1.33663 1.167268,0.788402 -0.337524,0.9323 -3.343893,0.319778 -4.347959,-0.885885 -4.907079,-0.686423 -2.733094,0.975039 2.210074,1.689096 1.904913,1.854286 -1.594725,0.863246 -2.920023,-0.826944 -3.926459,-0.576238 -3.093972,0.77081 0.798601,1.29218 0.131003,1.57315 -1.8928,0.79659 -2.107057,-0.80856 -2.701215,-0.51149 -1.822064,0.91103 0.879164,1.42251 0.285043,1.71961 -1.822065,0.91105 -2.030948,-0.77936 -2.692205,-0.49697 -1.886963,0.80601 0.681766,1.10316 0.279664,2.5991 -0.893666,3.32426 -1.409243,0.87096 -1.642466,0.52426 -0.687142,-1.02152 0.970016,-1.5695 0.612766,-2.0372 -1.08502,-1.42033 -1.392169,0.50582 -2.352449,1.76344 -2.133949,2.79473 0.218492,1.03132 -0.963822,2.9786 -2.627345,4.32743 -2.128788,1.726 -2.619348,1.77776 -1.656276,0.17516 2.511192,-4.17993 -2.175251,-2.34257 -5.80947,2.27757 -3.377687,4.29401 -4.586426,4.55514 -21.0859863,4.55514 H -12.290525 v 177.2458 c 0,159.03937 -0.297512,177.67063 -2.896214,181.38076 -2.729519,3.89695 -2.624658,4.40643 1.822069,8.85319 8.4302736,8.43021 6.3637375,21.3168 -6.414274,39.99834 -9.82834,14.36919 -9.695525,29.3052 0.3557,40.00423 4.623983,4.92199 4.23816,6.88466 -0.799191,4.06559 z M 27.572125,111.76785 c 7.900499,-8.15127 22.465064,-15.331041 36.330664,-17.909618 19.763115,-3.67533 41.269631,2.661871 57.491121,16.940648 l 8.08467,7.11643 17.03002,-0.37472 17.03004,-0.3747 -16.20391,-0.61107 c -16.05259,-0.60545 -16.28229,-0.68084 -24.59787,-8.07543 -4.6167,-4.10536 -12.90357,-9.589674 -18.41532,-12.187336 -8.774362,-4.135296 -12.402017,-4.727595 -29.153039,-4.759926 -17.69297,-0.03342 -20.022295,0.389251 -30.975085,5.629155 -6.513886,3.116277 -14.843525,8.617807 -18.510319,12.225577 -6.502398,6.39774 -7.06438,6.57461 -22.775801,7.16931 l -16.108912,0.60972 17.407694,0.37473 17.407713,0.37469 z M 79.26814,94.764586 c -2.25479,-0.434247 -5.944483,-0.434247 -8.199282,0 -2.254805,0.434283 -0.409951,0.789644 4.099644,0.789644 4.509606,0 6.354441,-0.355327 4.099638,-0.789644 z M 182.67029,67.685669 c 0,-1.990407 -1.06379,-2.518218 -3.51037,-1.741677 -5.03961,1.599512 -15.01497,-3.094405 -20.54647,-9.668244 C 155.99822,53.167732 151.68208,44.08974 149.02206,36.102459 143.181,18.563275 134.52631,6.6635409 123.85343,1.4969207 114.92084,-2.8273091 110.14773,-3.2570891 103.69715,-0.31798916 93.676913,4.2475108 94.545183,17.999348 104.92945,19.199943 c 6.61214,0.764482 10.64682,-2.73127 9.96107,-8.630522 -0.42035,-3.6160901 -1.57113,-4.7111302 -4.95097,-4.7111302 -2.42182,0 -4.74494,1.0249401 -5.16251,2.2776101 -0.41759,1.25263 0.53902,2.2775801 2.12576,2.2775801 1.5867,0 2.88493,0.88003 2.88493,1.955641 0,3.694654 -6.37735,0.73936 -6.9433,-3.2175311 -1.31005,-9.15885006 13.9908,-8.77114009 25.17277,0.63787 6.81724,5.7363181 9.82519,11.3706601 15.73415,29.4723001 7.29587,22.35015 16.23318,31.043021 32.08621,31.208507 5.01973,0.05231 6.83273,-0.68644 6.83273,-2.784599 z m -9.60378,-5.533177 c -0.60544,-0.605454 -2.17699,-0.670203 -3.49231,-0.143984 -1.45347,0.581627 -1.02174,1.01339 1.10085,1.100813 1.92076,0.07926 2.99691,-0.351618 2.39146,-0.956985 z M -14.316627,563.41326 c -5.939236,-3.22792 -9.615884,-11.75389 -8.081401,-18.74035 0.642035,-2.92323 5.019824,-11.38168 9.728386,-18.79659 7.6817495,-12.0969 8.5553678,-14.55763 8.5057976,-23.95838 l -0.055108,-10.47692 H 75.168638 154.55624 l -0.0549,10.47692 c -0.0495,9.40075 0.82406,11.86148 8.5058,23.95838 9.90732,15.60171 11.77589,21.98663 8.64583,29.54327 -4.45004,10.7433 -4.35768,10.73312 -96.849001,10.65317 -69.3104233,-0.0623 -85.210029,-0.5344 -89.120108,-2.6595 z m 29.93908,-1.64091 c -0.614207,-1.10213 -0.01294,-0.97891 1.337109,0.27341 1.851961,1.71891 16.128208,2.27756 58.20894,2.27756 42.080738,0 56.356968,-0.55849 58.208938,-2.27756 1.34958,-1.25265 1.94769,-1.37008 1.32915,-0.2608 -0.78455,1.4068 2.85419,1.89799 12.03161,1.62413 16.9038,-0.50478 16.4763,-0.39459 15.1316,-3.89852 -0.95208,-2.48108 -0.68244,-2.60478 1.58171,-0.72566 2.27217,1.88574 3.10115,1.44919 4.94879,-2.60586 1.82455,-4.00449 1.7516,-5.16707 -0.41011,-6.53479 -3.45251,-2.18441 -5.36257,-2.14784 -5.36257,0.10258 0,1.00213 -0.94701,1.82201 -2.10449,1.82201 -1.33475,0 -1.08849,-1.16621 0.67332,-3.18861 1.52777,-1.75372 3.22998,-4.41847 3.78267,-5.92165 0.73362,-1.99518 1.04378,-1.77381 1.14879,0.81991 0.10726,2.64627 0.67057,3.0263 2.20784,1.48903 2.59784,-2.59784 0.54957,-8.47932 -2.33265,-6.69807 -1.30212,0.80478 -1.62517,0.51303 -0.83962,-0.7579 1.96953,-3.18669 -2.05448,-9.10778 -6.6315,-9.75777 -3.32185,-0.47173 -4.03069,-1.62414 -3.72077,-6.04895 0.21063,-3.00637 -0.0607,-4.44863 -0.60195,-3.2049 -1.48797,3.4167 -5.44076,-1.22425 -6.96901,-8.18226 -0.8612,-3.92102 -2.06981,-5.40188 -3.8509,-4.71839 -1.50015,0.57571 -3.12301,-0.42972 -3.84481,-2.38157 -0.68694,-1.85772 -1.99252,-3.87851 -2.90123,-4.49062 -0.90873,-0.61225 -0.35355,-1.61136 1.23362,-2.22042 2.17279,-0.8338 2.88588,0.0553 2.88588,3.58553 0,3.75872 0.63474,4.42954 3.18862,3.3699 1.75375,-0.72766 4.21353,-1.362 5.46618,-1.40969 1.25267,-0.0482 2.2776,-0.7028 2.2776,-1.45598 0,-0.75311 0.46279,-2.57545 1.02847,-4.04951 0.89511,-2.3327 -9.14355,-2.68759 -77.436244,-2.73783 l -78.4646776,-0.0553 1.2427332,4.86636 c 0.6834909,2.67653 1.14244118,6.31898 1.01980688,8.09439 -0.12267868,1.77535 0.58074348,2.73129 1.56297215,2.12424 0.98223357,-0.60675 1.26500167,-2.74498 0.62832987,-4.75088 -1.00432247,-3.16439 -0.68397487,-3.39375 2.4194115,-1.73287 4.0812647,2.1842 5.8781848,1.06231 5.8781848,-3.67009 0,-2.14449 0.9317472,-2.92577 2.6862632,-2.2525 2.366988,0.90827 2.366988,1.35013 0,3.71711 -1.477438,1.47746 -2.6862632,3.53534 -2.6862632,4.57312 0,1.03775 -1.1997431,1.42647 -2.6660841,0.86378 -1.913298,-0.73423 -2.999504,0.75421 -3.8469081,5.27123 -0.649468,3.46191 -1.784199,6.29431 -2.52168107,6.29431 -0.73746367,0 -2.29039203,1.84482 -3.45095803,4.09968 -2.0712477,4.02421 -2.0886877,4.01578 -0.9468339,-0.45582 l 1.1632444,-4.55521 -3.7400447,4.55521 c -3.3915336,4.13067 -3.4565858,4.67052 -0.698138,5.7936 2.4371545,0.99229 2.2396064,1.26395 -0.9936309,1.36647 -5.1280914,0.16253 -7.7474864,5.00755 -6.4830334,11.99093 1.262674,6.97339 3.701311,10.00196 8.0536876,10.00196 1.9713141,0 4.1751551,1.86493 5.1102026,4.32431 0.94581788,2.48764 3.8287041,4.90468 6.7876415,5.69086 2.828961,0.7516 4.2618091,1.696 3.184095,2.09876 -3.237461,1.20969 -12.6170458,-3.71368 -12.6170458,-6.62273 0,-1.48948 -1.6398564,-3.01929 -3.6441283,-3.39939 -2.0042756,-0.38017 -4.1196496,-1.44412 -4.7008356,-2.3643 -1.279109,-2.02509 -7.14258,-0.0482 -7.14258,2.40933 0,0.96071 0.877105,3.38575 1.949131,5.38884 1.655126,3.09266 2.394975,3.28069 4.904926,1.24683 2.461314,-1.99454 2.705817,-1.98019 1.461544,0.0862 -2.264306,3.76007 1.086485,4.86836 15.1971705,5.02676 8.8088235,0.0985 12.4567085,-0.48139 11.6885185,-1.86012 z M 145.63434,559.6714 c 3.18041,-1.39312 6.3104,-4.19596 6.95553,-6.22864 0.64515,-2.03262 2.03803,-3.69565 3.09535,-3.69565 1.1812,0 1.03373,1.07071 -0.3824,2.77712 -1.26765,1.52743 -1.76434,3.31762 -1.10378,3.97817 1.28402,1.28406 -8.82135,6.09901 -12.27886,5.85052 -1.1376,-0.082 0.53378,-1.28845 3.71419,-2.68152 z m -83.154057,-7.11144 c -1.211101,-1.45922 -1.673074,-3.50906 -1.026585,-4.55508 0.64651,-1.04606 0.362359,-1.90192 -0.631425,-1.90192 -0.993736,0 -2.323586,1.62824 -2.95521,3.61835 -0.929467,2.92848 -2.356435,3.46363 -7.485239,2.80692 -3.485263,-0.44626 -8.494812,-2.50875 -11.132343,-4.58343 -2.637507,-2.0747 -5.268893,-3.09348 -5.847492,-2.26402 -0.57861,0.82945 -3.091518,1.63734 -5.584208,1.79549 -3.483583,0.22113 -3.905157,-0.10887 -1.822062,-1.42607 2.554825,-1.61531 1.311079,-2.49918 -2.756079,-1.95867 -1.00213,0.13279 -0.191871,-1.02783 1.800624,-2.58012 3.059976,-2.38382 3.909038,-2.43061 5.466191,-0.30089 1.013922,1.3867 2.663444,2.65456 3.665574,2.81764 4.714299,0.76717 8.199286,2.4757 8.199286,4.0199 0,0.93454 0.868328,1.69924 1.929602,1.69924 1.061284,0 1.480266,-0.72702 0.931096,-1.6156 -0.549201,-0.88865 0.379723,-2.73346 2.064289,-4.09969 2.259358,-1.83239 2.693797,-1.87025 1.656097,-0.14398 -1.051865,1.74946 -0.143249,2.11052 3.602288,1.43136 2.754951,-0.4993 5.576251,-1.82618 6.269563,-2.94802 0.838326,-1.35644 1.646384,-1.03428 2.412302,0.96174 0.633426,1.65074 1.920802,2.52602 2.860768,1.94506 0.939972,-0.5812 2.236606,-0.2025 2.881396,0.84074 0.64479,1.04333 0.189048,1.67163 -1.012883,1.39632 -1.201887,-0.27553 -2.56124,0.52475 -3.020782,1.7781 -0.554163,1.51144 0.289429,1.91377 2.505336,1.19467 2.777642,-0.90137 2.880118,-0.75271 0.607739,0.88187 -2.28658,1.64487 -2.091184,1.97063 1.195971,1.99395 3.152933,0.0209 3.73685,-0.78191 2.956007,-4.07173 -0.535154,-2.25479 -2.254992,-5.12457 -3.821798,-6.37718 -1.566812,-1.25271 -1.972499,-2.27763 -0.901526,-2.27763 2.53198,0 5.413588,3.61212 6.541141,8.19932 0.684317,2.78402 0.945605,2.46515 1.107102,-1.35111 0.132964,-3.14375 -1.105028,-5.81735 -3.34014,-7.21319 -2.851997,-1.78111 -3.121149,-2.74354 -1.366546,-4.88653 1.824478,-2.22838 1.527992,-2.4995 -1.797024,-1.64303 -2.286327,0.5888 -4.339576,0.0937 -4.821747,-1.16276 -0.573304,-1.4941 0.852012,-1.94018 4.492079,-1.40593 4.10854,0.60328 5.097859,1.51989 4.311955,3.99607 -0.634594,1.99945 0.12045,3.65119 1.998401,4.3718 3.80772,1.4612 8.128344,-1.9753 6.808372,-5.41502 -0.942612,-2.45641 4.453857,-3.69727 11.794814,-2.71212 1.429191,0.192 0.952194,-1.10953 -1.193021,-3.25473 -1.965839,-1.96583 -5.087237,-3.44734 -6.936407,-3.29221 -2.061573,0.17267 -3.370339,-0.92449 -3.383318,-2.83674 -0.01108,-1.71524 -1.036513,-4.13408 -2.277573,-5.37511 -2.748904,-2.74887 -6.756865,0.42352 -6.790419,5.37511 -0.01294,1.91225 -1.321729,3.00951 -3.383306,2.83674 -1.849175,-0.15501 -4.923913,1.27966 -6.832741,3.18856 -1.90883,1.90873 -2.65067,3.47054 -1.648533,3.47054 2.511573,0 2.298568,4.95659 -0.281527,6.55119 -1.303325,0.80549 -1.608993,0.49995 -0.803497,-0.80347 0.71506,-1.15699 0.478342,-2.10364 -0.526061,-2.10364 -2.026173,0 -1.798322,-10.62973 0.299376,-13.96536 0.733926,-1.16707 0.304395,-2.53719 -0.954515,-3.04475 -1.703935,-0.68727 -1.649818,-0.95953 0.211762,-1.06664 2.119535,-0.12155 2.119535,-0.61356 0,-3.22668 -1.647965,-2.03166 -1.732414,-2.62153 -0.247666,-1.72978 1.689071,1.01446 1.856722,0.30353 0.669714,-2.83883 -0.980759,-2.59663 -3.017187,-4.14069 -5.351057,-4.05707 -2.072249,0.0745 -3.35015,-0.54061 -2.839756,-1.3665 1.670683,-2.70328 6.101514,-1.57635 8.424006,2.14265 2.225025,3.56278 5.256307,4.99292 4.827579,2.27754 -0.743823,-4.71082 0.862964,-5.43552 11.112797,-5.01219 5.993382,0.24789 10.460403,-0.25599 9.926735,-1.1198 -0.533705,-0.86358 0.302177,-1.08172 1.857409,-0.48479 2.601423,0.99824 3.590969,3.14961 3.043496,6.61694 -0.42876,2.71537 2.602544,1.28522 4.827581,-2.27761 2.322474,-3.71894 6.75331,-4.84586 8.424005,-2.14262 0.51042,0.82577 -0.87611,1.44074 -3.081081,1.36654 -2.81908,-0.0952 -4.029182,0.94734 -4.07684,3.51137 -0.03707,2.0055 -0.657394,4.60016 -1.3779,5.7661 -0.720556,1.16589 -0.280097,2.53506 0.978819,3.0426 1.774141,0.7152 1.752511,0.95518 -0.09618,1.06658 -1.445372,0.0878 -1.821437,1.04123 -0.954497,2.42145 2.171887,3.45773 2.470578,14.121 0.395571,14.121 -1.004384,0 -1.241108,0.94659 -0.52607,2.10365 0.805502,1.30326 0.499815,1.60894 -0.803495,0.80345 -1.156963,-0.71508 -2.103591,-2.3679 -2.103591,-3.67295 0,-1.55415 -1.585636,-2.06986 -4.595549,-1.49442 -3.257992,0.62258 -4.080439,1.49916 -2.825747,3.01102 1.213339,1.46196 0.65312,2.82991 -1.781637,4.35044 -2.235111,1.39587 -3.473166,4.06947 -3.340143,7.21318 0.161482,3.8163 0.422775,4.1352 1.107088,1.35115 1.147493,-4.66834 4.026649,-8.20703 6.648429,-8.17147 1.238387,0.0158 1.089072,0.63977 -0.375881,1.56857 -1.948193,1.23498 -1.844121,1.76552 0.524482,2.67449 1.799406,0.69048 3.383269,0.0209 4.050465,-1.72125 0.737279,-1.92133 1.507919,-2.18806 2.35619,-0.8155 0.693315,1.12179 3.514616,2.44835 6.269566,2.94793 3.565781,0.64661 4.623351,0.28423 3.670541,-1.25736 -0.84297,-1.36405 -0.55974,-1.68438 0.76512,-0.86561 4.20527,2.59903 5.79688,-1.02411 1.85285,-4.21784 -2.23885,-1.8129 -3.40204,-4.14143 -2.66473,-5.33442 1.86486,-3.01743 5.32361,-2.62846 4.13648,0.46482 -0.545,1.42021 0.1872,3.03435 1.62714,3.58691 3.40303,1.30588 3.32561,4.31588 -0.20186,7.84331 -1.55091,1.55089 -2.32627,3.31345 -1.723,3.91673 0.60327,0.60328 1.85966,-0.10973 2.79197,-1.58347 1.03494,-1.63647 1.70598,-1.83522 1.72301,-0.5103 0.0378,2.94907 -2.36724,4.21399 -9.829584,5.16945 -5.102605,0.65348 -6.531956,0.11477 -7.460346,-2.81021 -1.375708,-4.33454 -4.247156,-4.83792 -3.888997,-0.68177 0.41264,4.7882 -5.407824,7.49778 -9.976799,4.6444 -2.772338,-1.73132 -4.422725,-1.85637 -5.836906,-0.44211 -2.775177,2.77522 -7.688206,2.44971 -10.286928,-0.68178 z m 24.531638,-2.3573 c 0,-1.25269 -0.728252,-2.20763 -1.618357,-2.12199 -0.890079,0.0856 -2.312398,-0.9393 -3.160706,-2.27756 -1.067522,-1.68409 -1.550946,-1.75993 -1.570268,-0.24576 -0.01404,1.20287 1.406988,3.1096 3.160719,4.2372 2.925201,1.88079 2.930003,1.97009 0.05862,1.08114 -1.721652,-0.53304 -3.657505,-0.11551 -4.301907,0.92673 -0.717389,1.16082 0.49611,1.65972 3.13029,1.28694 2.366017,-0.33457 4.301869,-1.63361 4.301869,-2.8863 z m -35.530254,0.67831 c 0,-0.37806 -1.248661,-1.72426 -2.774797,-2.99082 -2.320134,-1.92553 -2.586755,-1.81282 -1.627127,0.68798 0.980075,2.55399 4.401924,4.34415 4.401924,2.30284 z m 5.1143,-3.91548 c -0.560976,-0.56123 -1.579822,0.45042 -2.264061,2.24724 -0.988798,2.59684 -0.779516,2.80609 1.019994,1.02001 1.24523,-1.23602 1.805059,-2.70621 1.244067,-3.26725 z m 39.244002,1.79173 c -0.5934,-1.54641 -1.469728,-2.42089 -1.94734,-1.94332 -0.477637,0.47795 -0.327927,1.74292 0.332594,2.81173 1.796676,2.90701 2.846766,2.34222 1.614736,-0.86841 z m 7.417281,-0.17906 c 0.95964,-2.50075 0.69302,-2.61345 -1.62711,-0.68796 -3.161731,2.62407 -3.490771,3.67883 -1.14769,3.67883 0.89493,0 2.1436,-1.34594 2.7748,-2.99087 z M 61.548829,524.16381 c 0.644583,-1.04288 2.742754,-1.3976 4.662699,-0.78823 1.919928,0.60944 3.490782,0.30092 3.490782,-0.68517 0,-0.98621 -1.022727,-2.13394 -2.272728,-2.55059 -1.400696,-0.46693 -0.701591,-1.59843 1.822058,-2.94903 2.503048,-1.33963 4.094796,-3.89543 4.094796,-6.57502 0,-4.79632 -2.718753,-7.56995 -4.536794,-4.62826 -0.629427,1.0184 -1.964386,1.85176 -2.966517,1.85176 -1.002137,0 -1.237034,-0.94661 -0.521998,-2.1036 0.811966,-1.31382 0.499137,-1.60862 -0.833209,-0.7852 -2.916967,1.80288 -0.686933,4.92473 3.074201,4.30365 5.441289,-0.89848 3.246298,4.8991 -2.568598,6.78441 -3.485319,1.13002 -5.304104,2.76714 -4.788587,4.31038 0.457133,1.36855 -0.293635,3.20083 -1.668464,4.07169 -1.651867,1.04641 -1.763652,1.59297 -0.329606,1.61141 1.193523,0.0158 2.697399,-0.82535 3.341959,-1.86836 z m 30.251686,0.25688 c -1.374797,-0.87089 -2.125622,-2.70314 -1.668452,-4.07172 0.515529,-1.54325 -1.303274,-3.18037 -4.788583,-4.31038 -3.837421,-1.24419 -5.81289,-3.18647 -6.228572,-6.12391 -0.392739,-2.77555 0.102705,-3.86219 1.396287,-3.06273 1.102753,0.68176 1.476626,2.09412 0.830821,3.13902 -1.257093,2.034 2.374426,5.06282 6.125424,5.10875 1.25266,0.0158 2.277573,-0.79207 2.277573,-1.79417 0,-1.00214 -1.796562,-1.82217 -3.992378,-1.82217 -3.794259,0 -3.825772,-0.12154 -0.635006,-2.45492 2.621386,-1.91674 2.83571,-2.77737 0.97776,-3.92562 -1.572841,-0.97212 -1.938858,-0.75752 -1.079528,0.63288 0.715052,1.15699 0.480137,2.10362 -0.522006,2.10362 -1.002118,0 -2.337053,-0.83335 -2.966504,-1.85177 -1.818027,-2.94165 -4.536797,-0.16796 -4.536797,4.62828 0,2.67956 1.591745,5.23539 4.094799,6.57499 2.523656,1.35062 3.22276,2.48214 1.822065,2.94905 -1.250012,0.41667 -2.272745,1.56442 -2.272745,2.55053 0,0.98621 1.570871,1.29447 3.490788,0.68524 1.919955,-0.60945 4.018152,-0.25449 4.662689,0.78823 0.644587,1.04294 2.148441,1.88369 3.341966,1.8683 1.434043,-0.0209 1.322263,-0.56472 -0.329602,-1.61134 z M 66.820192,514.02158 c 4.572117,-1.75444 3.344942,-3.94336 -1.67304,-2.98404 -2.505335,0.47864 -4.555164,1.59504 -4.555164,2.48036 0,1.88004 2.181671,2.05649 6.228204,0.50343 z m 63.636398,38.75155 c -0.66572,-1.16339 -0.53942,-1.50748 0.28062,-0.76454 0.82005,0.74285 2.51836,0.49792 3.774,-0.54406 1.58177,-1.31268 2.64572,-1.30778 3.46382,0.0158 0.64941,1.05073 0.92742,1.97325 0.61772,2.04993 -4.85129,1.20114 -7.13736,0.98842 -8.1362,-0.75727 z m -13.38061,-6.84106 c 0,-0.8454 -1.02491,-1.28725 -2.27758,-0.9819 -1.25267,0.305 -1.68312,0.21843 -0.95658,-0.19439 0.72655,-0.41181 1.95644,-0.81114 2.73309,-0.88707 0.77665,-0.0761 2.24169,-1.27252 3.25562,-2.65919 1.55715,-2.12955 2.40621,-2.08281 5.46618,0.30092 1.99248,1.5523 2.80275,2.71331 1.80062,2.58009 -3.94582,-0.52405 -5.34484,0.3224 -2.99408,1.81158 1.74465,1.10553 1.07441,1.56641 -2.27759,1.56641 -2.61233,0 -4.74968,-0.69165 -4.74968,-1.53712 z m -76.526696,-4.44165 c 0,-1.53465 1.178129,-3.24238 2.618047,-3.79485 1.439924,-0.55232 2.172121,-2.16673 1.627125,-3.58696 -1.187131,-3.09364 2.271638,-3.48257 4.136489,-0.46485 0.734234,1.18802 -0.384064,3.48768 -2.548087,5.24002 -2.1211,1.71755 -3.344799,3.63461 -2.719324,4.26005 0.625506,0.62528 0.180635,1.13726 -0.988504,1.13726 -1.169165,0 -2.125746,-1.25565 -2.125746,-2.79028 z m -4.305123,-0.44899 c -0.481849,-0.77961 0.681425,-3.44437 2.585057,-5.92166 2.616268,-3.40477 3.470997,-3.77346 3.501605,-1.51053 0.02224,1.64649 -1.241331,3.48552 -2.808055,4.08674 -1.566721,0.60116 -2.338256,1.91887 -1.71454,2.92807 0.623712,1.00914 0.724085,1.83489 0.222969,1.83489 -0.501062,0 -1.305252,-0.63765 -1.787087,-1.41751 z m 76.033449,-0.0158 c 0.67702,-1.09539 -0.12228,-2.74885 -1.77611,-3.67442 -1.65387,-0.92555 -2.65871,-2.72774 -2.23298,-4.00492 0.48875,-1.4662 1.91128,-0.58674 3.85947,2.38688 2.21082,3.37413 2.49487,5.07384 1.00209,5.99652 -1.24176,0.76742 -1.5861,0.48274 -0.85247,-0.70406 z m -61.137572,-1.63799 c 1.315287,-0.5261 2.886812,-0.46138 3.492286,0.14398 0.605469,0.60529 -0.470691,1.03606 -2.391456,0.95695 -2.122617,-0.0877 -2.554354,-0.51927 -1.10083,-1.10081 z m 45.335361,0.0724 c 1.19639,-0.48685 1.71958,-2.07222 1.16271,-3.52345 -0.55692,-1.45125 -0.14782,-3.68055 0.90915,-4.95405 1.215707,-1.46487 1.300857,-3.29718 0.231743,-4.98755 -2.446433,-3.86801 -2.124793,-9.25813 0.531847,-8.91316 5.161921,0.67007 8.799711,-0.2494 7.743771,-1.95808 -0.61937,-1.00212 0.18112,-1.82203 1.77864,-1.82203 2.37626,0 2.53616,0.68865 0.87882,3.78536 -1.26951,2.37219 -3.09036,3.37707 -4.87698,2.69144 -2.36973,-0.9094 -2.46227,-0.62531 -0.54817,1.68072 1.45977,1.75889 1.58728,2.77485 0.34826,2.77485 -1.07503,0 -2.79037,-1.43485 -3.81182,-3.18865 -1.628621,-2.79619 -1.864008,-2.82363 -1.912598,-0.22324 -0.0695,3.71198 4.611208,7.76507 7.153048,6.19409 1.04602,-0.64663 1.90186,-2.35693 1.90186,-3.80094 0,-3.4512 2.96586,-3.37707 4.30305,0.10726 1.18849,3.09726 6.62934,3.75668 6.62934,0.80347 0,-1.06121 -0.76329,-1.45781 -1.69616,-0.88129 -0.93291,0.57641 -2.17616,0.27129 -2.76282,-0.67763 -0.58666,-0.94917 -0.30735,-2.19516 0.62069,-2.7687 2.41671,-1.49356 7.02315,0.6101 8.2317,3.75966 0.56703,1.47778 0.31338,2.2433 -0.56376,1.70125 -0.8771,-0.54196 -2.62513,0.25629 -3.8845,1.77339 -2.04065,2.45882 -2.63811,2.44373 -5.49175,-0.1391 -2.25251,-2.03851 -3.57824,-2.28897 -4.4709,-0.84464 -0.69789,1.12925 -3.32488,2.83484 -5.83773,3.7902 -3.716811,1.41319 -4.356908,2.58146 -3.432411,6.26491 0.896211,3.5708 0.455181,4.49733 -2.08694,4.38387 -1.77284,-0.0793 -2.24448,-0.54193 -1.04811,-1.02876 z M 20.59358,537.08172 c -1.455354,-0.92071 -3.382003,-1.21912 -4.28143,-0.66317 -0.899439,0.55575 -0.704761,-0.72814 0.432609,-2.8533 2.048457,-3.82764 7.405924,-5.41254 7.405924,-2.19095 0,0.92014 0.49769,2.96994 1.105981,4.55516 1.233771,3.21517 -0.661798,3.68362 -4.663109,1.15239 z m 104.48673,-1.15237 c 0.60828,-1.58524 1.10599,-3.63499 1.10599,-4.55521 0,-3.11221 5.32469,-1.69784 7.26632,1.9301 1.5381,2.87398 1.40402,3.40191 -0.66263,2.60885 -1.42501,-0.54682 -3.13223,-0.11846 -3.79382,0.95205 -1.88761,3.05423 -5.14795,2.27502 -3.91586,-0.93579 z m -96.921065,-1.12666 c -1.202562,-1.20259 -2.173927,-3.04745 -2.158582,-4.09971 0.01435,-1.05219 0.822718,-0.68313 1.794174,0.82001 1.177506,1.822 1.775562,1.97388 1.794163,0.4552 0.01435,-1.2527 0.896223,-2.2776 1.957502,-2.2776 1.061275,0 1.5073,0.68313 0.991186,1.51839 -0.516149,0.83515 0.219333,1.51846 1.634366,1.51846 1.415033,0 2.150512,-0.68315 1.634375,-1.51846 -0.516143,-0.83511 -0.07011,-1.51839 0.991192,-1.51839 1.061276,0 1.929602,0.6563 1.929602,1.45769 0,2.12812 -4.049578,5.83064 -6.377228,5.83064 -1.102351,0 -2.988191,-0.98396 -4.19075,-2.18652 z m 22.901306,-1.04917 c -0.646787,-2.47314 -2.470513,-4.05264 -4.679552,-4.05264 -1.990879,0 -4.134554,-1.34148 -4.76373,-2.98115 -1.056232,-2.7524 -1.400495,-2.74889 -4.488855,0.0482 -2.975725,2.69299 -3.597591,2.7226 -5.634645,0.26802 -1.259376,-1.51747 -3.0986,-2.25914 -4.087184,-1.64816 -0.988555,0.61083 -0.840329,-0.67765 0.329382,-2.86308 2.053941,-3.83782 8.108735,-4.72245 6.987839,-1.02102 -0.303469,1.00215 -1.166705,1.61713 -1.918309,1.36656 -0.751604,-0.25055 -1.366552,0.36422 -1.366552,1.36658 0,3.54622 5.606456,1.76259 7.159334,-2.27758 1.566754,-4.07635 1.586874,-4.07119 3.540322,0.911 1.080519,2.75586 2.704435,5.01068 3.608652,5.01068 2.695729,0 6.150818,-5.16465 5.139481,-7.68249 -0.590522,-1.47021 -0.99288,-1.15467 -1.083291,0.84977 -0.07905,1.75373 -1.474149,3.18862 -3.100041,3.18862 -2.440899,0 -2.554796,-0.48343 -0.653325,-2.77486 1.914077,-2.30629 1.821536,-2.59009 -0.548172,-1.68073 -1.786622,0.68588 -3.607467,-0.3194 -4.876987,-2.69143 -1.657331,-3.09665 -1.497442,-3.78537 0.878821,-3.78537 1.597602,0 2.397995,0.81999 1.778642,1.82209 -1.055943,1.70853 2.581848,2.62842 7.743769,1.95808 2.656644,-0.34499 2.978275,5.04515 0.531849,8.91317 -1.065374,1.68454 -0.991399,3.51371 0.200134,4.94945 1.039562,1.25255 1.546335,3.30875 1.126146,4.56928 -0.420149,1.26051 -1.240845,0.46829 -1.82374,-1.76082 z m 62.334749,0.45862 c -3.12834,-3.76938 -0.81188,-5.64742 3.07537,-2.49316 2.06898,1.67879 2.66395,1.7667 1.75857,0.25959 -0.75259,-1.25263 -0.50005,-2.27753 0.56125,-2.27753 1.06128,0 1.94216,1.0249 1.9575,2.27753 0.0186,1.51846 0.61668,1.36656 1.79416,-0.45519 0.97146,-1.50315 1.77884,-1.87213 1.79419,-0.81998 0.0371,2.55443 -3.81592,6.28618 -6.49067,6.28618 -1.18005,0 -3.18273,-1.2497 -4.45038,-2.77714 z m -103.01448,-3.4511 c -1.9436893,-1.42131 -2.9203343,-3.19773 -2.1703133,-3.94786 0.7500334,-0.75 1.3636901,-0.40698 1.3636901,0.7621 0,1.16921 1.2298852,2.12577 2.7330932,2.12577 1.503203,0 2.733097,0.81995 2.733097,1.82207 0,2.38527 -0.457678,2.31042 -4.659567,-0.76208 z m 124.91579,0.82617 c 0,-1.03744 1.16158,-1.88616 2.58127,-1.88616 1.41967,0 2.99482,-1.0249 3.50027,-2.2776 0.6927,-1.71672 0.95446,-1.73245 1.06287,-0.0621 0.0791,1.2175 -1.496,3.09122 -3.50027,4.16385 -2.4707,1.32225 -3.64414,1.34289 -3.64414,0.0623 z M 16.851499,523.31324 c -1.918906,-2.31215 -1.398693,-3.05331 3.290829,-4.68802 3.918788,-1.36617 5.381464,-2.92095 4.933971,-5.24459 -0.478477,-2.48437 0.231112,-3.07608 2.863298,-2.3877 1.924642,0.50338 3.499362,2.02051 3.499362,3.37158 0,2.60859 -6.171747,6.73798 -7.73462,5.17512 -0.509055,-0.50896 -1.427375,0.38218 -2.04077,1.98077 -0.646029,1.6835 -0.3574,2.43786 0.685896,1.79314 0.990655,-0.61224 1.801206,-0.24517 1.801206,0.81635 0,2.86129 -4.681433,2.33755 -7.299206,-0.81665 z m 109.334801,0.81665 c 0,-1.06128 0.94661,-1.34458 2.10358,-0.62941 1.25553,0.77599 1.61083,0.50272 0.88133,-0.67764 -1.49817,-2.42406 1.75927,-4.71278 4.39182,-3.08577 1.30606,0.80716 1.23547,1.99412 -0.22311,3.75163 -2.49995,3.01231 -7.15364,3.42947 -7.15364,0.64112 z m -14.57651,-4.99422 c 0,-0.80174 0.86204,-2.3197 1.91563,-3.37331 1.33945,-1.33945 0.56814,-2.79853 -2.56444,-4.85103 -3.87028,-2.53592 -4.61926,-2.57282 -5.50257,-0.27071 -1.14073,2.97265 -8.425132,3.70111 -8.425132,0.84251 0,-1.00211 0.009,-2.437 0.0207,-3.1886 0.0111,-0.75159 1.03612,-1.38817 2.277591,-1.4147 1.241461,-0.0271 3.438711,-0.78656 4.882781,-1.6891 1.70332,-1.06462 2.8791,-0.8804 3.34742,0.52471 1.30386,3.91161 7.65325,6.24666 10.51885,3.86847 3.67297,-3.04835 7.46864,-1.03457 8.53167,4.52638 1.00821,5.27407 -1.65015,8.33863 -3.36253,3.87622 -0.599,-1.56097 -1.82312,-2.38446 -2.72022,-1.83002 -0.89712,0.55435 -1.63115,-0.21001 -1.63115,-1.69891 0,-1.4889 1.43488,-3.08201 3.18861,-3.5403 2.96732,-0.77546 2.97059,-0.84795 0.0469,-1.0446 -1.77886,-0.1197 -4.36805,2.15986 -5.96849,5.25481 -2.76511,5.3471 -4.55516,6.92236 -4.55516,4.00855 z m -7.28825,-9.41758 c 0,-0.97064 -1.22991,-1.29295 -2.73311,-0.71607 -1.5032,0.57707 -2.733088,1.37099 -2.733088,1.76487 0,0.39394 1.229888,0.71608 2.733088,0.71608 1.5032,0 2.73311,-0.79423 2.73311,-1.76488 z m -69.23845,7.23108 c 0,-1.00214 -1.639856,-3.46197 -3.644133,-5.4662 -2.004265,-2.00424 -2.872591,-3.64414 -1.929602,-3.64414 0.942998,0 2.22128,0.81996 2.84064,1.82209 1.710207,2.76717 4.172647,2.20451 8.265736,-1.88855 2.161497,-2.1615 4.633688,-3.13242 5.921713,-2.32572 1.216116,0.76165 3.441021,1.40651 4.944221,1.43303 1.503209,0.0271 2.733099,1.27809 2.733099,2.78124 0,3.72215 -7.9213,4.66661 -9.287112,1.1073 -0.957259,-2.49458 -1.542763,-2.48363 -5.489924,0.10271 -3.457997,2.26571 -3.966902,3.43898 -2.341331,5.39764 1.52002,1.83156 1.528565,2.50272 0.03185,2.50272 -1.124871,0 -2.045194,-0.81991 -2.045194,-1.82199 z m 16.398577,-6.18228 c 0,-0.39388 -1.229893,-1.18805 -2.733098,-1.76487 -1.503199,-0.57707 -2.733093,-0.25478 -2.733093,0.71607 0,0.97065 1.229894,1.76488 2.733093,1.76488 1.503205,0 2.733098,-0.32238 2.733098,-0.71608 z M 19.140031,499.29855 c -1.252672,-0.48069 -2.277581,-1.7257 -2.277581,-2.76705 0,-1.1024 1.19975,-0.89764 2.871969,0.49036 1.698355,1.40954 3.373646,1.68677 4.099649,0.6783 0.675223,-0.93764 3.099512,-1.77283 5.387333,-1.85597 2.287821,-0.0833 3.517704,0.42629 2.733095,1.13128 -2.081966,1.87159 -10.169339,3.33765 -12.814465,2.32295 z m 104.313189,-0.0482 c -5.50919,-1.32512 -7.05517,-3.57834 -2.33762,-3.40703 2.28782,0.0832 4.71213,0.91828 5.38733,1.85608 0.726,1.00815 2.40129,0.73086 4.09966,-0.67835 1.59365,-1.32254 2.87196,-1.55993 2.87196,-0.53304 0,1.50088 -4.93709,4.63249 -6.07072,3.85074 -0.16849,-0.1165 -1.94636,-0.60597 -3.95061,-1.08792 z m -139.387928,41.93139 c 0,-3.66423 -0.526686,-4.39288 -2.063993,-2.85558 -1.135207,1.13516 -1.57092,3.34895 -0.968227,4.9195 1.667967,4.34673 3.03222,3.4181 3.03222,-2.06392 z M 159.89448,524.2364 c -0.61936,-1.00214 -1.89761,-1.82202 -2.8406,-1.82202 -0.943,0 -1.71452,0.81988 -1.71452,1.82202 0,1.00216 1.27826,1.82212 2.84064,1.82212 1.56231,0 2.33385,-0.81996 1.71448,-1.82212 z M 0.46386593,513.30402 c 0,-1.00214 -0.36154247,-1.82203 -0.80349117,-1.82203 -0.44191168,0 -1.31025066,0.81989 -1.92960066,1.82203 -0.6193785,1.00214 -0.2577608,1.82213 0.8034899,1.82213 1.06127898,0 1.92960193,-0.81999 1.92960193,-1.82213 z M 152.13601,510.54406 c -0.48179,-2.52015 -1.7373,-5.11447 -2.79007,-5.76507 -1.20489,-0.74472 -1.46185,-0.004 -0.69348,1.99798 0.67136,1.74953 1.22066,4.34381 1.22066,5.76508 0,1.42121 0.70626,2.5841 1.5694,2.5841 0.8632,0 1.17524,-2.06198 0.69349,-4.58209 z M 34.627571,486.43115 c 22.297517,-0.28995 58.784343,-0.28995 81.081869,0 22.2975,0.28994 4.05408,0.5268 -40.540938,0.5268 -44.595025,0 -62.838436,-0.23676 -40.540931,-0.5268 z m -43.274027,-5.92357 c 0,-1.18826 29.153035,-1.822 83.814958,-1.822 54.661918,0 83.814978,0.63354 83.814978,1.822 0,1.18834 -29.15306,1.82212 -83.814978,1.82212 -54.661923,0 -83.814958,-0.63353 -83.814958,-1.82212 z m 1.2759789,-6.08318 c -0.5147689,-1.34151 -0.3835118,-5.14034 0.2917135,-8.44182 1.1515775,-5.63064 1.3951554,-5.79662 3.929645,-2.67734 1.4860796,1.829 1.7702614,2.7673 0.6315686,2.08507 -1.1859686,-0.71035 -2.4603331,0.25059 -2.9831411,2.24991 -0.7918502,3.02811 0.025541,3.45322 6.1700752,3.21055 3.8955358,-0.15449 7.0827786,-0.9138 7.0827786,-1.68876 0,-0.77488 -0.819923,-1.40884 -1.822064,-1.40884 -2.7997805,0 -2.1652502,-3.56169 1.240483,-6.96293 2.8677513,-2.86388 2.9884973,-2.77469 1.8983184,1.40193 -0.6403124,2.45317 -0.364508,5.42402 0.6130384,6.60184 0.9774965,1.17776 1.2654245,3.47525 0.6398295,5.10548 -1.4463049,3.769 -16.2784502,4.20904 -17.6921909,0.52475 z m 148.9481271,0.77266 c 0.56649,-0.91656 -8e-5,-2.04393 -1.259,-2.50535 -1.77992,-0.65213 -1.72299,-1.39602 0.25598,-3.34422 1.39969,-1.37793 1.99877,-1.53306 1.33129,-0.34422 -0.86383,1.5379 1.10122,2.08511 6.81837,1.89859 5.72448,-0.18658 7.7736,-0.93525 7.13261,-2.60563 -0.49464,-1.28899 -1.63338,-1.89009 -2.53048,-1.33564 -0.89714,0.55437 -1.63118,-0.2698 -1.63118,-1.83254 0,-1.5623 1.02492,-2.94853 2.27759,-3.08047 1.25268,-0.13138 -0.59218,-0.87738 -4.09964,-1.6567 l -6.37725,-1.41684 6.31292,0.28995 c 5.63977,0.25899 6.44735,0.95296 7.57375,6.50583 1.88485,9.29159 0.46776,11.09398 -8.72296,11.09398 -4.46151,0 -7.64839,-0.74995 -7.08195,-1.66648 z m -99.397821,-4.91467 c -3.01096,-3.20499 -6.044134,-4.35214 -11.513992,-4.35447 l -7.426173,-0.004 -0.586178,-108.86511 c -0.32235,-59.87574 -0.04407,-115.62948 0.619098,-123.89708 1.203418,-15.00925 1.213056,-15.03207 6.370189,-15.03207 2.840727,0 11.581348,2.5934 19.423623,5.76307 21.259425,8.59264 29.053894,8.7192 49.547396,0.8046 9.353178,-3.61221 19.297958,-6.56767 22.099498,-6.56767 5.04657,0 5.1057,0.13559 6.38913,14.63418 0.71247,8.04874 0.76638,62.779 0.1197,121.62278 -0.6466,58.8438 -1.14421,108.01357 -1.10579,109.2662 0.0448,1.45829 -2.58181,2.27761 -7.3012,2.27761 -5.3467,0 -8.56945,1.19838 -11.73453,4.36347 -4.23403,4.234 -4.45427,4.26303 -7.425771,0.97958 -1.68426,-1.8611 -6.037889,-4.32601 -9.674729,-5.47755 -3.636816,-1.15152 -8.365167,-3.1908 -10.507425,-4.53165 -3.35486,-2.09982 -4.861153,-1.94535 -10.862125,1.11416 -3.831912,1.95352 -8.313881,3.55199 -9.959929,3.55199 -1.646037,0 -5.105608,1.95811 -7.687931,4.35134 l -4.695135,4.35127 -4.087836,-4.35127 z m 10.448976,-4.23201 c 4.01379,-1.93925 9.463711,-4.06956 12.11091,-4.73392 2.647219,-0.66455 5.814612,-2.41477 7.03865,-3.88965 2.385446,-2.87425 -3.930719,-0.62667 -19.142695,6.8123 -6.945268,3.39631 -7.110443,3.39396 -11.633627,-0.1641 -2.523596,-1.98497 -6.937541,-3.60911 -9.808802,-3.60911 -7.657088,0 -6.381161,2.88899 1.372971,3.10884 3.6264,0.1027 7.901751,1.49521 9.500772,3.09418 3.482409,3.48239 1.879389,3.5763 10.561821,-0.61842 z m 54.443325,0.61355 c 2.44445,-1.60168 7.33518,-2.99405 10.86827,-3.09419 8.20262,-0.23286 8.47302,-3.104 0.29234,-3.104 -3.47992,0 -8.24604,1.66338 -11.02115,3.84624 -4.33243,3.40791 -5.24288,3.54322 -7.989511,1.18759 -3.44038,-2.9507 -20.801422,-8.96422 -19.418177,-6.72608 0.480531,0.77747 4.954017,2.76892 9.941111,4.42536 4.987107,1.65645 9.535476,3.76898 10.107443,4.69447 1.400264,2.2657 2.056044,2.15399 7.219694,-1.22939 z m -48.982166,-7.06452 c 5.137783,-1.59824 10.737169,-4.4482 12.443093,-6.33326 3.026596,-3.3443 3.258838,-3.32068 9.589044,0.97517 3.568013,2.42127 7.807768,4.40741 9.421666,4.41357 1.613898,0.004 5.256416,1.22236 8.094502,2.70261 4.553561,2.37496 5.774521,2.37364 10.386391,-0.0158 2.87441,-1.48639 7.73268,-2.70259 10.7961,-2.70259 h 5.56986 l -0.46869,-118.86463 c -0.53537,-135.76405 1.39074,-123.74753 -18.35531,-114.51555 -6.493588,3.03602 -15.169681,6.0578 -19.280242,6.71507 -7.190643,1.1499 -7.473733,1.45086 -7.473733,7.94685 0,7.61832 -1.040896,9.36649 -4.733301,7.94961 -1.586478,-0.60876 -2.55496,-3.66925 -2.55496,-8.07376 0,-6.13322 -0.554916,-7.09703 -4.099643,-7.12075 -4.433301,-0.0301 -11.823759,-2.55596 -25.659963,-8.7713 -4.84321,-2.17593 -9.55781,-3.95603 -10.47687,-3.95603 -0.99629,0 -1.671002,48.18898 -1.671002,119.34524 0,112.43713 0.184542,119.34676 3.188618,119.372 1.753731,0.0158 5.238433,1.15955 7.743768,2.54399 2.505344,1.38439 5.375093,2.24124 6.377229,1.90397 1.002129,-0.33756 6.025692,-1.92078 11.163457,-3.51903 z m 0.651538,-28.01964 c -15.859289,-8.43608 -22.59967,-30.09738 -14.543759,-46.73862 4.212323,-8.70153 13.215015,-16.08342 22.315951,-18.29832 4.904288,-1.19355 5.010675,-1.50545 5.010675,-14.68744 0,-10.75681 -0.550162,-13.46795 -2.733095,-13.46795 -2.333512,0 -2.733097,-5.06131 -2.733097,-34.61921 0,-29.55793 0.39956,-34.61924 2.733097,-34.61924 1.503209,0 2.733095,-1.12951 2.733095,-2.51002 0,-1.38043 -1.229886,-3.5307 -2.733095,-4.7782 -1.503201,-1.2476 -2.733097,-4.31813 -2.733097,-6.82344 0,-3.84248 0.427652,-4.20026 2.733097,-2.28691 3.302706,2.74102 3.652769,-0.0621 0.455545,-3.64734 -1.882631,-2.11122 -1.803641,-2.215 0.455541,-0.59846 2.572928,1.84112 4.381036,1.89709 10.907451,0.33756 3.636249,-0.86879 4.28964,10.23515 0.773976,13.15288 -3.388663,2.81237 -3.290343,7.15379 0.162,7.15379 2.333518,0 2.733116,5.06133 2.733116,34.61924 0,29.55794 -0.399561,34.61921 -2.733116,34.61921 -2.183871,0 -2.733092,2.71702 -2.733092,13.52071 v 13.52068 l 5.601546,1.2303 c 7.252315,1.59294 17.355269,10.52795 21.836759,19.31239 6.17032,12.09487 3.96197,28.10705 -5.33774,38.70233 -8.796024,10.02143 -29.837067,13.46706 -42.171691,6.9059 z m 24.22057,-0.37669 c 15.123517,-4.19982 26.783528,-21.45673 24.187538,-35.79763 -3.81343,-21.0668 -25.055119,-33.09177 -44.271879,-25.06252 -9.03536,3.77525 -13.098725,7.65999 -17.079575,16.32909 -8.229497,17.92129 -0.09545,36.43763 19.348996,44.04644 7.018737,2.74648 9.433362,2.8121 17.81492,0.48483 z M 60.780739,413.9396 c -8.124223,-9.25306 -7.932905,-18.97684 0.54011,-27.44975 9.542718,-9.54273 23.316436,-8.02807 30.238607,3.32536 9.008604,14.77545 0.458795,30.44261 -16.657702,30.52446 -7.433936,0.0334 -9.155421,-0.74461 -14.120982,-6.40007 z m 27.100794,-1.80283 c 6.945508,-6.94128 6.331043,-17.8367 -1.395288,-24.74016 -9.012721,-8.05293 -21.653638,-6.13164 -26.941945,4.09479 -9.699052,18.75591 13.39345,35.58013 28.337233,20.64537 z m -10.890978,-60.1912 c 0,-8.71801 -0.668747,-13.35969 -1.822053,-12.6469 -3.288021,2.03214 -2.166756,26.41995 1.214707,26.41995 0.334059,0 0.607334,-6.19787 0.607334,-13.77305 z m 2.803261,-48.17716 0.06404,-32.79714 h -5.07794 -5.077915 v 32.79714 32.79715 h 5.013596 5.01362 l 0.06404,-32.79715 z m -1.18254,-41.74447 c 1.392456,-0.88175 2.740949,-4.26251 2.996613,-7.51273 0.255702,-3.25023 -0.06404,-5.15353 -0.709669,-4.2296 -0.646027,0.92394 -2.40445,1.6525 -3.907665,1.61895 -3.42722,-0.0766 -9.579749,5.90469 -8.263928,8.03373 0.538604,0.8715 2.823326,1.18044 5.077152,0.68651 3.292498,-0.72153 3.560711,-0.51437 1.364723,1.05418 -3.268859,2.33491 -0.186616,2.64733 3.442774,0.34905 z m -7.57279,-4.03321 c 1.235973,-1.24525 2.706207,-1.80507 3.267189,-1.24409 0.560983,0.561 -0.450236,1.57982 -2.247195,2.26404 -2.596811,0.98882 -2.806099,0.77954 -1.019994,-1.01995 z m 6.788174,0.10517 c -0.660547,-1.06878 -0.810231,-2.33404 -0.332595,-2.81167 0.477587,-0.47764 1.353899,0.3969 1.94733,1.94332 1.232045,3.21068 0.182023,3.7754 -1.614711,0.86835 z m -35.038315,64.37806 0.494039,-35.95664 h 8.199286 8.199293 l 0.494041,35.95664 0.494041,35.95656 H 51.481686 42.29433 l 0.49404,-35.95664 z m 13.303511,0.42639 -0.05511,-33.70817 h -5.010675 l -5.010674,-1e-5 v 33.70818 33.7082 h 5.065699 5.065724 l -0.05511,-33.70821 z m 34.95361,28.93513 c -0.71526,-0.71536 -1.300453,-17.0569 -1.300453,-36.31473 v -35.01416 l 4.555157,-0.87078 c 2.505349,-0.47894 6.62199,-0.47563 9.14812,0.005 l 4.59295,0.878 -0.49327,35.76613 -0.4933,35.76606 -7.354354,0.54131 c -4.044897,0.29744 -7.939565,-0.0441 -8.654801,-0.75919 z m 12.471984,-36.2235 0.10689,-33.70813 h -5.117611 -5.117634 v 33.70818 33.70816 l 5.010684,-2e-5 5.010671,-6e-5 z M 44.415447,275.93084 c -4.940551,-4.94055 -0.221407,-15.89178 6.848117,-15.89178 4.549511,0 10.113986,4.54308 8.588225,7.01183 -0.713323,1.1542 -2.68342,2.00338 -4.378014,1.88712 -2.777743,-0.19078 -2.76715,-0.29354 0.10747,-1.04465 1.753741,-0.45828 3.18861,-1.51628 3.18861,-2.35114 0,-1.87529 -6.973804,-0.19799 -8.335215,2.00503 -1.379484,2.23204 -4.419229,2.00683 -4.419229,-0.32754 0,-1.06128 0.946617,-1.34455 2.103591,-0.62949 1.303317,0.80549 1.608993,0.49983 0.803492,-0.80348 -0.829698,-1.34247 0.222157,-2.18009 2.907087,-2.31496 3.224341,-0.16219 3.441839,-0.40997 0.931041,-1.0615 -3.693786,-0.9585 -8.567279,2.36276 -8.567279,5.83858 0,1.26363 1.639856,2.7263 3.64413,3.25047 2.00427,0.52413 3.644128,1.76193 3.644128,2.75067 0,2.80867 -4.797282,3.94971 -7.066227,1.68081 z m 4.145431,-1.0116 c 0.516146,-0.83509 -0.219333,-1.51838 -1.634373,-1.51838 -1.415029,0 -2.150506,0.68329 -1.634375,1.51838 0.516145,0.83515 1.251597,1.51839 1.634375,1.51839 0.382756,0 1.118252,-0.68324 1.634373,-1.51839 z m 6.42551,3.10804 c -0.07673,-0.37328 -0.389572,-1.94631 -0.69528,-3.49575 -0.331456,-1.67962 0.828416,-2.92137 2.8725,-3.07536 1.8856,-0.14205 3.428379,0.41027 3.428379,1.22746 0,1.50183 -5.347612,6.5995 -5.605599,5.34365 z m 44.779988,-5.33236 c 3.292734,-1.50405 3.204894,-1.62886 -0.911034,-1.29473 -6.217848,0.5048 -9.110329,-1.64885 -9.110329,-6.78337 0,-7.78345 7.963306,-12.44594 14.348817,-8.4012 6.30955,3.99664 2.26261,18.59479 -5.065378,18.27186 -2.190763,-0.0968 -2.009103,-0.53786 0.737924,-1.79256 z m 0.455544,-4.69965 c 1.25268,-0.18989 2.27758,0.45024 2.27758,1.42285 0,0.97264 0.86899,1.23128 1.9311,0.57492 1.22607,-0.75778 0.72716,-2.17678 -1.36655,-3.88679 -1.81372,-1.48132 -2.35865,-2.22726 -1.21099,-1.65764 2.8746,1.42676 4.48,-3.49129 1.96172,-6.0096 -4.306311,-4.30629 -13.018883,-0.70776 -11.003342,4.5447 0.527794,1.37531 1.898577,2.03456 3.046231,1.4649 1.14766,-0.56965 0.66455,0.13104 -1.073631,1.55717 -3.318777,2.72291 -2.35247,5.78354 1.136851,3.60081 1.1129,-0.69619 3.048363,-1.42129 4.301031,-1.61132 z m -5.010691,-7.67213 c 0,-0.82343 1.62315,-1.37756 3.607023,-1.23145 5.400018,0.39787 5.962078,1.93666 0.861574,2.35876 -2.457727,0.20313 -4.468597,-0.30387 -4.468597,-1.12731 z m -67.872762,20.21413 c -0.278404,-32.81994 -0.506157,-5.96725 -0.506157,59.67262 0,65.63982 0.227805,92.49252 0.506157,59.67258 0.278402,-32.81991 0.278402,-86.52524 0,-119.3452 z m 49.652088,-40.54091 c 0,-3.00643 -0.81991,-5.46621 -1.822053,-5.46621 -1.002142,0 -1.822066,2.45978 -1.822066,5.46621 0,3.0064 0.819924,5.46616 1.822066,5.46616 1.002143,0 1.822053,-2.45976 1.822053,-5.46616 z m 64.608355,223.99267 c -1.86954,-3.02497 -0.19151,-3.44444 2.42435,-0.60601 1.29218,1.40209 1.54556,2.54933 0.56305,2.54933 -0.98249,0 -2.32682,-0.87451 -2.9874,-1.94332 z M -0.86800562,459.20326 c 1.77281282,-0.4621 4.23260172,-0.43179 5.46619242,0.0687 1.2335909,0.49926 -0.2168699,0.87706 -3.223287,0.83992 -3.0064059,-0.0334 -4.0157208,-0.44554 -2.24290542,-0.9074 z m -4.78463118,-4.20347 c -6.5175612,-16.57694 -5.8571752,-43.78479 1.0607272,-43.70167 1.6024383,0.0211 1.4751638,0.56399 -0.4104378,1.75569 -3.2591633,2.06024 -3.2040589,24.03824 0.085242,34.00495 2.0626631,6.24995 1.4023471,13.37865 -0.7355722,7.94103 z m 12.3475625,-16.7217 c -0.09699,-12.77792 0.276632,-16.47173 1.1653,-11.5203 1.2106894,6.74543 1.2893141,6.54271 1.0555234,-2.72308 -0.229038,-9.07765 -0.6773624,-10.11367 -4.8077525,-11.10999 -11.1806583,-2.69676 -12.0162452,-3.43726 -11.9281658,-10.57007 l 0.0847,-6.86251 8.8775009,-0.41046 c 8.5430408,-0.39527 8.8360248,-0.24487 7.7769334,3.97438 -0.6052604,2.41167 -0.5735134,4.91196 0.07074,5.55613 3.4886829,3.48873 3.6763199,38.19091 0.2518417,46.58333 -2.2246651,5.45208 -2.4144881,4.48927 -2.5466621,-12.91743 z m 1.056015,-32.9296 c 6.57e-4,-0.75159 -0.818741,-1.36656 -1.820877,-1.36656 -2.6225867,0 -2.2488096,-4.99023 0.455546,-6.08149 1.252665,-0.50546 -0.704103,-0.98376 -4.3483583,-1.06288 -5.9957636,-0.12982 -6.70148,0.37121 -7.4202722,5.26822 -0.7704029,5.24916 -0.5848049,5.39993 6.1692575,5.01063 3.8299627,-0.22084 6.964096,-1.01633 6.964732,-1.76792 z M 141.70707,455.05351 c -2.65335,-4.29313 -5.18741,-32.75302 -3.28195,-36.85879 1.60308,-3.45408 1.94393,-2.05527 1.9377,7.95182 -0.004,6.6788 0.51112,12.98253 1.14508,14.0082 0.6339,1.02566 1.61842,5.19544 2.18776,9.26596 1.00316,7.17206 0.26134,9.2733 -1.98859,5.63281 z m 12.07737,-7.75313 c 0.0345,-5.28568 -0.0123,-13.25164 -0.1016,-17.70228 -0.0904,-4.45067 0.77479,-8.67257 1.92265,-9.38197 4.64074,-2.86814 -0.0914,-7.12364 -7.95265,-7.15173 -5.70808,-0.0209 -7.06773,-0.50206 -5.0679,-1.79414 2.33571,-1.50947 2.26948,-1.77036 -0.45553,-1.79419 -3.61445,-0.0334 -4.24659,-2.80307 -1.08503,-4.75707 1.21728,-0.75227 1.61216,-0.50477 0.93719,0.58744 -0.73802,1.19413 1.50036,1.79935 6.09481,1.64798 3.99367,-0.13138 7.26162,-0.99079 7.26213,-1.9094 10e-4,-3.30039 2.74173,1.14871 3.08538,5.01009 0.19321,2.17161 0.90973,7.79736 1.59206,12.50155 1.26919,8.74999 -2.01816,31.71139 -4.78489,33.42129 -0.8301,0.51305 -1.48104,-3.39184 -1.44657,-8.6774 z m -2.08923,-45.89969 c 0,-1.5867 1.02491,-2.99285 2.27758,-3.12477 1.25266,-0.13227 -0.59217,-0.86657 -4.09967,-1.63249 l -6.37721,-1.39261 7.55738,0.15537 c 6.7768,0.13944 7.41746,0.53373 6.20318,3.81625 -1.68487,4.55474 -5.56126,6.07291 -5.56126,2.17804 z M -2.6996937,391.74214 c 2.76965176,-0.4187 6.8692944,-0.40767 9.1103284,0.0271 2.2410254,0.43247 -0.02493,0.77515 -5.0357349,0.76151 -5.0106742,-0.0158 -6.8442378,-0.36752 -4.0745935,-0.78639 z m 147.5871937,0 c 2.76964,-0.4187 6.86931,-0.40767 9.11035,0.0271 2.24102,0.43247 -0.024,0.77515 -5.03576,0.76151 -5.01066,-0.0158 -6.84423,-0.36752 -4.07459,-0.78639 z M -0.86800562,388.14273 c 1.77281282,-0.46207 4.23260172,-0.43177 5.46619242,0.0687 1.2335909,0.49926 -0.2168699,0.87707 -3.223287,0.83992 -3.0064059,-0.0334 -4.0157208,-0.44554 -2.24290542,-0.90744 z m 8.40877532,-8.30307 c -0.116251,-5.26129 -0.605813,-7.92601 -1.087907,-5.92176 -3.2342705,13.44638 -4.1669314,0.90965 -4.1669314,-56.01204 0,-44.18514 0.6051155,-63.49206 2.0172577,-64.36482 1.3843347,-0.85555 1.5991627,0.11107 0.6847287,3.08105 -0.7329283,2.3803 -0.6931704,3.72194 0.08837,2.98141 0.7815,-0.74051 2.018974,-4.43024 2.749891,-8.19929 0.730943,-3.7691 1.4232701,25.73931 1.5385161,65.57418 0.115351,39.83488 -0.200373,72.42709 -0.7014877,72.42709 -0.5010684,0 -1.0061474,-4.30467 -1.1223984,-9.56582 z M 141.5943,387.12211 c -0.48192,-1.25582 -0.65098,-33.43805 -0.37579,-71.51604 l 0.50045,-69.23267 0.43295,70.60499 0.43296,70.60503 h 6.35608 6.3561 l 0.49842,-71.51606 0.49848,-71.51598 0.43379,72.42701 0.4337,72.42709 h -7.3455 c -4.2054,0 -7.72,-0.97612 -8.22164,-2.28337 z M -5.997807,317.43391 c -5.357e-4,-38.08113 0.2411162,-53.91875 0.537008,-35.19466 0.2959202,18.72407 0.2963401,49.88135 9.852e-4,69.23845 -0.2953783,19.35701 -0.537423,4.03736 -0.537976,-34.04379 z m 158.519597,0 c -5.4e-4,-38.08113 0.24127,-53.91875 0.53701,-35.19466 0.29596,18.72407 0.29625,49.88135 0.001,69.23845 -0.29536,19.35701 -0.53743,4.03736 -0.53801,-34.04379 z m -7.2924,0 c -5.8e-4,-36.07686 0.2428,-51.09383 0.5408,-33.37105 0.29803,17.72282 0.29853,47.24023 10e-4,65.59431 -0.29744,18.35409 -0.54127,3.85361 -0.54191,-32.22326 z m 3.64626,-1.82207 c 5.6e-4,-37.07899 0.24351,-51.98908 0.5399,-33.1335 0.29641,18.85564 0.29591,49.19297 -0.001,67.41638 -0.29698,18.22341 -0.53942,2.79615 -0.53886,-34.28288 z m -151.248627,7.28828 c -8.176e-4,-30.06409 0.2488092,-42.6187 0.5547116,-27.89915 0.3059172,14.71959 0.3065871,39.31744 0.00148,54.66198 -0.3050638,15.34453 -0.5554037,3.30121 -0.5562288,-26.76283 z m -0.519589,-64.68329 c 0,-2.50534 0.4136089,-3.53025 0.9190361,-2.27756 0.5054739,1.25263 0.5054739,3.30247 0,4.55513 -0.5054703,1.2527 -0.9190361,0.22775 -0.9190361,-2.27757 z m -3.7663242,-17.76512 c 0.2169597,-1.75375 -0.2427097,-4.65886 -1.0215987,-6.45583 -0.7788938,-1.79695 -0.9048926,-3.77842 -0.279996,-4.40332 0.6248854,-0.62489 1.1361324,0.0334 1.1361324,1.45824 0,1.95982 2.021739,2.43365 8.265733,1.93701 6.3210952,-0.50268 7.8251513,-1.1883 6.3930422,-2.91386 -1.029995,-1.24107 -1.333202,-2.79598 -0.67378,-3.45536 0.659386,-0.65942 -0.215998,-1.19894 -1.9454,-1.19894 -1.729378,0 -2.6524088,-0.79588 -2.0512242,-1.76864 1.3558187,-2.1937 -7.1818295,-4.52101 -10.0599414,-2.74225 -1.3627579,0.84224 -1.8704386,0.10259 -1.4451578,-2.10604 0.5345365,-2.77546 2.3151322,-3.40442 9.6384806,-3.40442 h 8.9828541 l 0.102606,10.02135 0.102643,10.02137 -7.2882595,1.03233 -7.2882603,1.03234 6.2369057,0.78972 c 9.8887151,1.25215 9.3271161,5.34491 -0.7333936,5.34491 -6.9981477,0 -8.3972808,-0.55271 -8.0711121,-3.18861 z m 11.222405,-23.60619 c -2.2548039,-0.43435 -5.9444865,-0.43435 -8.1992892,0 -2.2548039,0.43429 -0.4099552,0.78966 4.09964033,0.78966 4.50961177,0 6.35444877,-0.35536 4.09964887,-0.78966 z m 136.1992952,24.0617 c 0,-1.50322 0.97666,-2.73311 2.17032,-2.73311 1.19367,0 0.67087,-1.09639 -1.16176,-2.43646 -1.83263,-1.34003 -2.87402,-3.59483 -2.31417,-5.01069 0.8005,-2.02438 1.04864,-1.95151 1.16177,0.34127 0.1144,2.32066 1.71996,2.75771 7.87073,2.14264 9.26669,-0.92666 9.83316,-1.34721 6.61104,-4.90793 -1.37199,-1.51613 -3.55172,-4.01497 -4.84393,-5.55295 -1.29218,-1.53798 -4.43524,-2.79631 -6.98457,-2.79631 -4.86169,0 -5.28995,-3.76043 -0.57352,-5.03549 2.13038,-0.57603 2.10914,-0.34759 -0.11391,1.22474 -2.08297,1.47311 -0.78265,1.88822 5.46618,1.7452 7.58327,-0.17373 7.78862,-0.29806 2.73312,-1.65359 l -5.46621,-1.46591 6.35492,0.31497 6.35488,0.315 0.1899,9.6364 c 0.13873,7.03489 -0.59307,10.09426 -2.71078,11.33247 -1.78817,1.04557 -2.02721,1.71742 -0.6232,1.75154 1.25265,0.03 2.27757,1.28532 2.27757,2.78851 0,2.02451 -2.12577,2.73308 -8.19931,2.73308 -6.07354,0 -8.1993,-0.70857 -8.1993,-2.73308 z m 0.14382,-16.55042 c 0.0874,-2.12263 0.51918,-2.55436 1.10083,-1.10082 0.52631,1.3153 0.46159,2.8868 -0.14381,3.49229 -0.60547,0.60547 -1.03611,-0.47071 -0.95699,-2.39147 z m -66.07981,-0.18177 c 1.315304,-0.52631 2.886828,-0.4616 3.492303,0.14399 0.605463,0.60548 -0.470691,1.03609 -2.391446,0.95696 -2.122617,-0.0877 -2.554368,-0.51913 -1.100857,-1.10076 z m -10.252329,-2.5978 c 0.977663,-0.61017 -0.871986,-1.63932 -4.110343,-2.28703 -16.129686,-3.22588 -32.983986,-17.19933 -40.570463,-33.63581 -5.950363,-12.89181 -5.484054,-36.1835 0.97384,-48.64082 6.162896,-11.88834 20.164954,-24.86648 31.576451,-29.26739 12.237909,-4.7197 33.23189,-4.7116 45.494973,0.018 11.976081,4.61844 26.758471,18.76844 32.114151,30.74032 6.09867,13.63274 6.02831,35.03533 -0.1571,47.74131 -2.43922,5.01067 -4.78812,9.83939 -5.21983,10.73048 -0.44005,0.90832 0.31969,0.95482 1.72906,0.10578 2.12802,-1.28196 2.1326,-1.04423 0.0297,1.54837 -1.36621,1.68451 -3.10144,2.68119 -3.85611,2.2148 -0.75465,-0.46643 -2.83865,0.77249 -4.6311,2.75317 -1.79246,1.98059 -2.62157,3.60113 -1.84248,3.60113 2.1106,0 -2.75435,5.38107 -6.84347,7.56953 -2.71111,1.45092 -3.2287,1.37096 -2.17381,-0.33572 0.90239,-1.4601 0.50305,-1.91996 -1.14667,-1.32054 -1.39216,0.50582 -2.30592,1.90304 -2.03054,3.10488 0.27532,1.2019 -0.28138,1.70197 -1.23723,1.11121 -0.95582,-0.59073 -5.577781,-0.0473 -10.271032,1.2082 -7.169572,1.91757 -7.845352,2.44593 -4.228978,3.30628 2.367297,0.56318 -2.374083,0.98342 -10.53639,0.93392 -8.162326,-0.0495 -14.040693,-0.58926 -13.063004,-1.19943 z m 35.191935,-8.62881 C 135.59904,195.96944 143.7594,150.47865 115.95947,122.6787 104.84236,111.5616 91.543237,106.19844 75.168552,106.22897 c -16.753801,0.0301 -27.024982,4.20398 -39.829717,16.18139 -12.086975,11.30591 -17.337472,23.50333 -17.282209,40.14824 0.07418,22.31019 11.885327,40.61506 32.514059,50.38982 8.990377,4.26002 13.359887,5.18022 24.597867,5.18022 11.23798,0 15.607506,-0.9202 24.597874,-5.18022 z m -39.264469,0.98766 c -15.84593,-4.48057 -26.81096,-13.66618 -34.976633,-29.30057 -6.056597,-11.59621 -5.689979,-33.57923 0.763222,-45.76376 5.752528,-10.86153 14.018231,-19.00977 25.193155,-24.8351 11.797341,-6.14982 35.576339,-6.14982 47.373681,0 11.189078,5.83275 19.450748,13.98442 25.170168,24.8351 6.33599,12.02041 6.79429,32.12872 1.01955,44.7331 -11.22754,24.50605 -38.99525,37.5551 -64.54316,30.33123 z m 35.843342,-4.82962 c 18.967921,-8.38089 30.625451,-26.49164 30.581741,-47.51064 -0.0319,-15.21891 -5.14741,-26.17287 -17.34538,-37.13987 -9.11427,-8.19449 -21.113333,-13.7875 -23.241713,-10.83337 -1.48175,2.05664 -20.831627,2.05739 -22.331808,7.7e-4 -0.626537,-0.85879 -2.839471,-1.02182 -4.917719,-0.36234 -2.613116,0.82934 -3.421074,2.15404 -2.619416,4.2946 1.002623,2.67725 0.752623,2.76478 -1.850818,0.64797 -2.565504,-2.08593 -3.795309,-1.8882 -8.327492,1.33898 -7.653395,5.44972 -16.216041,15.67486 -19.676216,23.49655 -4.640504,10.48981 -4.135022,30.35515 1.029851,40.47303 4.367542,8.55585 14.198749,20.04271 17.153902,20.04271 0.94268,0 -1.971749,-3.94032 -6.476512,-8.75627 -7.266555,-7.76858 -14.089571,-21.08752 -11.916081,-23.26101 0.438879,-0.43882 1.881734,2.48582 3.206318,6.49929 1.324587,4.01357 3.233677,7.29737 4.24244,7.29737 1.008752,0 1.355252,0.47886 0.769973,1.06409 -0.585285,0.5853 2.14007,4.36582 6.056288,8.40124 3.916231,4.03539 6.691395,8.0312 6.167064,8.87962 -1.19032,1.92594 7.743175,6.6415 16.871711,8.90576 8.946433,2.21906 23.158538,0.70366 32.623867,-3.47861 z m -33.125884,0.086 c 0.561258,-0.90811 2.65942,-1.22241 4.662704,-0.69854 5.013503,1.31105 4.562507,2.34956 -1.020391,2.34956 -2.564482,0 -4.203522,-0.74298 -3.642313,-1.65102 z m 15.59328,0.95242 c 0,-1.61752 7.371496,-2.46297 8.304997,-0.95251 0.561179,0.9081 -1.077817,1.651 -3.642308,1.651 -2.56448,0 -4.662714,-0.31421 -4.662689,-0.69849 z m 12.754445,-2.94563 c 1.503202,-0.97146 3.553019,-1.76622 4.555159,-1.76622 1.00214,0 0.59217,0.79476 -0.91104,1.76622 -1.503202,0.97144 -3.553027,1.76624 -4.55517,1.76624 -1.002143,0 -0.592151,-0.7948 0.911051,-1.76624 z m -14.153834,-9.11026 c 0,-3.5075 0.374981,-4.94234 0.833296,-3.18865 0.458302,1.75377 0.458302,4.62352 0,6.37729 -0.458303,1.75369 -0.833296,0.31865 -0.833296,-3.18864 z m 25.086194,4.86418 c 0,-1.85632 12.81954,-14.51679 13.75349,-13.58279 0.41588,0.41587 -2.50854,3.94394 -6.49869,7.84019 -3.99014,3.8963 -7.2548,6.4805 -7.2548,5.7426 z M 59.404188,199.9108 c 0.378208,-1.50322 1.252669,-4.78291 1.943136,-7.28828 1.205822,-4.37517 1.143713,-4.41541 -1.572022,-1.01826 -1.555097,1.94526 -2.82744,4.61002 -2.82744,5.92167 0,2.73944 -2.925615,3.19946 -4.468706,0.70267 -0.924916,-1.49655 5.64862,-14.71635 7.317669,-14.71635 0.366838,0 1.529553,1.61173 2.583813,3.58167 1.423433,2.65968 1.198538,5.12216 -0.873663,9.56583 -1.534798,3.29129 -2.48105,4.75427 -2.102787,3.25105 z m -3.583164,-4.64977 c 0.622199,-1.62154 0.316799,-2.3529 -0.716087,-1.71452 -0.99066,0.61227 -1.801207,1.88469 -1.801207,2.82771 0,2.62088 1.306006,2.04338 2.517294,-1.11319 z m 4.419069,-9.06393 c -0.56098,-0.56097 -1.579815,0.45025 -2.264056,2.24721 -0.988804,2.59683 -0.779515,2.80611 1.019989,1.01997 1.245237,-1.23596 1.805063,-2.7062 1.244067,-3.26718 z m 34.619636,8.70302 c -1.506089,-1.75373 -3.43044,-4.41851 -4.276273,-5.92169 -1.341165,-2.38342 -1.130757,-2.40258 1.644378,-0.14993 3.056635,2.48116 7.495081,9.26015 6.062965,9.26015 -0.38103,0 -1.92497,-1.43488 -3.43107,-3.18862 z m -49.928403,-9.30069 c 1.909055,-2.15014 4.212251,-3.90927 5.118198,-3.90927 2.564996,0 -0.162181,3.39858 -4.591038,5.72152 -3.970401,2.08241 -3.974066,2.06982 -0.527166,-1.81225 z m 63.034344,-0.26502 c -2.42941,-1.56996 -2.42941,-1.77275 0,-1.82485 1.50319,-0.0334 0.0682,-1.76512 -3.18863,-3.85094 -8.331441,-5.33563 -7.385941,-6.20577 1.31633,-1.21135 3.9809,2.28477 6.43558,4.42906 5.45481,4.76525 -0.98074,0.33604 -1.31969,1.36099 -0.75323,2.27751 1.30226,2.10714 0.61344,2.06928 -2.82928,-0.15535 z m 12.27374,-6.24248 c 1.67226,-4.512 3.36616,-7.87794 3.76425,-7.47987 1.08439,1.08434 -3.30129,13.51826 -5.17707,14.67757 -0.89522,0.55326 -0.25943,-2.68568 1.41282,-7.1977 z m -81.651599,5.82402 c -1.523596,-5.38305 -0.719693,-7.27418 4.166284,-9.8008 4.928061,-2.54842 5.837648,-2.56186 8.277084,-0.12266 2.439421,2.43946 1.913956,3.16234 -4.781677,6.57823 -4.137247,2.11066 -7.585018,3.6159 -7.661691,3.34504 z m 4.99825,-5.78503 c 0,-1.45995 -1.109234,-2.13372 -2.582191,-1.5685 -2.12502,0.81545 -2.151914,1.26364 -0.151771,2.5315 1.336705,0.84732 2.498685,1.55315 2.58219,1.5685 0.08347,0.0158 0.151788,-1.12383 0.151788,-2.5315 z m 7.895606,-1.99579 c 0,-0.28632 -1.093238,-0.94066 -2.429411,-1.45338 -1.336196,-0.51279 -2.429432,0.14083 -2.429432,1.45338 0,1.31214 1.093236,1.9662 2.429432,1.45342 1.336173,-0.51281 2.429411,-1.16678 2.429411,-1.45342 z m 48.297599,4.57602 c -0.638297,-1.03284 0.0931,-1.33831 1.714524,-0.71608 3.1566,1.21129 3.73412,2.51729 1.11321,2.51729 -0.94299,0 -2.21548,-0.81054 -2.827734,-1.80121 z m -75.628562,-18.8489 c 0,-3.6745 0.712373,-6.68093 1.583064,-6.68093 0.870674,0 1.280768,2.59637 0.911291,5.76967 -0.958809,8.23469 -2.494355,8.79571 -2.494355,0.91126 z m 40.996448,2.3002 -10.932387,-1.08023 9.370898,-0.3065 c 12.680064,-0.41443 14.850917,-6.06202 3.83907,-9.9876 -3.763822,-1.34174 -4.195922,-4.62303 -0.781346,-5.93329 1.518681,-0.5828 2.114907,-2.91569 1.615266,-6.32007 -0.435574,-2.96799 -0.310024,-5.39627 0.279035,-5.39627 2.242994,0 6.558072,10.85138 5.569315,14.00555 -0.975128,3.11078 -0.915329,3.11673 1.022536,0.10098 1.13205,-1.76168 1.446517,-4.22148 0.698845,-5.46619 -0.92626,-1.54205 -0.387777,-1.47522 1.689966,0.21003 2.664265,2.16063 2.725801,2.93488 0.487217,6.13093 -3.31624,4.73458 -1.700286,10.33946 1.657184,5.74789 1.232649,-1.68574 3.185521,-2.48138 4.339676,-1.76808 3.221898,1.99126 2.503189,4.19514 -1.729004,5.30186 -2.105068,0.55054 -3.339675,1.79012 -2.743547,2.75472 1.637099,2.64886 -2.309036,3.19933 -14.382716,2.00638 z m 58.225428,-3.51489 c 0.0399,-3.00644 0.68941,-5.46624 1.4432,-5.46624 0.75378,0 1.37052,2.4598 1.37052,5.46624 0,3.0064 -0.64947,5.46614 -1.44321,5.46614 -0.79373,0 -1.41047,-2.45974 -1.37051,-5.46614 z m -87.808919,2.33662 c 2.769641,-0.41884 6.86929,-0.4076 9.110319,0.0271 2.241029,0.43244 -0.02493,0.77512 -5.035734,0.76148 -5.010672,-0.0158 -6.844236,-0.36755 -4.074585,-0.78636 z m 66.935809,-0.53615 c 0,-1.13037 2.81949,-1.39273 7.28826,-0.67805 4.68923,0.7498 7.28825,0.47 7.28825,-0.78477 0,-1.0726 -3.4847,-2.26402 -7.74377,-2.64763 l -7.74378,-0.69747 8.6548,-0.31831 c 7.5462,-0.27761 8.65482,0.14835 8.65482,3.32579 0,3.10426 -1.21473,3.64413 -8.19929,3.64413 -4.50961,0 -8.19929,-0.82961 -8.19929,-1.8436 z m -70.908674,-2.45364 c 0.417598,-0.35901 4.038915,-1.15592 8.04745,-1.7704 4.963251,-0.76088 6.416385,-0.56141 4.555171,0.62518 -2.489476,1.58722 -14.371427,2.66692 -12.602621,1.14519 z m 53.697934,-6.47516 c -0.564984,-0.91415 2.461369,-4.39885 6.725198,-7.74376 l 7.752448,-6.08163 -6.074821,7.74375 c -6.557583,8.35916 -6.859994,8.578 -8.402825,6.08164 z m -59.315962,-3.2779 c 0,-2.57928 5.29616,-15.10269 6.386919,-15.10269 0.479509,0 -0.48474,3.48471 -2.142823,7.74376 -3.357753,8.62511 -4.244096,10.16198 -4.244096,7.35893 z m 96.184442,-1.48422 c -0.56305,-1.97841 -1.57884,-5.23701 -2.2574,-7.24125 -0.67854,-2.00426 0.10024,-1.34015 1.73078,1.47576 1.63047,2.81597 2.64629,6.07453 2.25737,7.24127 -0.38887,1.16672 -1.16776,0.50267 -1.73075,-1.47578 z m -22.220574,-1.98838 c -0.943454,-2.45853 0.959454,-3.29671 5.934284,-2.61377 1.35326,0.18568 1.94522,-0.49591 1.31551,-1.51482 -0.62971,-1.01881 0.61682,-2.79535 2.77015,-3.94776 2.25442,-1.2065 3.43052,-1.31131 2.77278,-0.24697 -0.62827,1.01653 -0.34241,2.12324 0.63522,2.45939 0.97761,0.33608 -1.42616,2.36003 -5.34176,4.4975 -5.72469,3.12502 -7.30868,3.39273 -8.086194,1.36651 z M 40.54928,144.33792 c -2.505337,-1.43219 -3.735233,-2.60396 -2.733097,-2.60396 1.002141,0 3.871889,1.17177 6.37723,2.60396 2.505335,1.43216 3.735224,2.60396 2.733092,2.60396 -1.002133,0 -3.871884,-1.1718 -6.377225,-2.60396 z m 13.537609,-11.26198 c -2.798638,-3.66921 -4.028091,-6.01598 -2.732095,-5.21503 1.361351,0.8414 2.932672,0.52388 3.721152,-0.75195 0.99481,-1.60963 1.674824,-1.40027 2.508506,0.77223 0.740745,1.93034 0.425798,2.53681 -0.893852,1.72122 -1.226436,-0.75798 -1.701679,-0.25177 -1.193831,1.2719 0.464085,1.3922 1.936976,2.53124 3.273155,2.53124 2.963004,0 4.494798,3.81431 2.120958,5.28145 -0.943541,0.58319 -4.005337,-1.94186 -6.803993,-5.61106 z m 61.729351,5.44899 c 2.15123,-3.48079 -16.503671,-20.46281 -21.060538,-19.17195 -0.751613,0.21272 -1.36657,-0.43285 -1.36657,-1.43499 0,-3.87348 7.088368,-0.15046 17.010908,8.93424 6.86452,6.28501 9.09121,10.52678 6.39934,12.19048 -1.19129,0.7362 -1.61896,0.51099 -0.98314,-0.51774 z m -24.242352,-1.11022 c -0.01108,-2.51895 5.685311,-12.58987 6.602951,-11.67226 0.481173,0.48119 -0.80611,3.63214 -2.86063,7.00207 -2.054522,3.37 -3.738577,5.47151 -3.742321,4.67019 z m -50.39281,-11.36978 c 4.857097,-4.46984 9.776673,-8.07874 10.932385,-8.0198 1.155722,0.0591 0.481166,1.08384 -1.499061,2.27761 -1.980182,1.19373 -6.366809,4.83519 -9.748046,8.09213 -3.38122,3.25691 -6.680634,5.88915 -7.332025,5.84936 -0.651398,-0.0399 2.789656,-3.72949 7.646747,-8.1993 z m 37.631567,2.04625 c 0,-3.42394 -1.024924,-6.63897 -2.277597,-7.14441 -1.360598,-0.549 -0.99383,-0.97693 0.911027,-1.06288 2.529333,-0.11442 3.188611,1.36313 3.188611,7.14442 0,4.00851 -0.409943,7.28824 -0.911026,7.28824 -0.501059,0 -0.911015,-2.80142 -0.911015,-6.22537 z m -6.865554,-2.88492 c 0,-3.5075 0.374975,-4.9424 0.833285,-3.18863 0.458308,1.75377 0.458308,4.62351 0,6.37724 -0.458297,1.75372 -0.833285,0.31868 -0.833285,-3.18861 z m 8.232076,-14.05954 c -2.755874,-0.41745 -7.265472,-0.41745 -10.021341,0 -2.755872,0.41748 -0.501068,0.75904 5.010676,0.75904 5.511748,0 7.766539,-0.34164 5.010665,-0.75904 z m 33.485103,98.32995 c 2.31312,-2.94947 2.22739,-2.98817 -1.14344,-0.5156 -2.00429,1.47018 -3.98577,2.90506 -4.40335,3.1886 -0.41751,0.28364 0.0969,0.51562 1.14346,0.51562 1.04645,0 3.02795,-1.43489 4.40333,-3.18862 z M -6.1106537,185.33432 c 0,-13.52882 0.2868159,-19.0633 0.6374194,-12.29893 0.3505911,6.76443 0.3505911,17.83345 0,24.59786 -0.3505887,6.7644 -0.6374194,1.2299 -0.6374194,-12.29893 z m 13.7189224,20.49819 c -0.08602,-1.90482 -0.513808,-2.2716 -1.062861,-0.91101 -2.7487837,6.8122 -4.2594764,-0.13454 -4.2594764,-19.58718 0,-14.1741 0.6787362,-21.86473 1.9295994,-21.86473 1.061285,0 1.344559,0.94661 0.6294986,2.10359 -0.8119625,1.31377 -0.4991368,1.60855 0.8332174,0.78511 1.173317,-0.72513 1.696595,-2.02506 1.162842,-2.8887 -0.533776,-0.86363 -0.137162,-2.0853 0.881312,-2.71472 1.2195624,-0.75376 1.8517831,7.29032 1.8517831,23.5609 0,13.58797 -0.409958,24.70536 -0.9110317,24.70536 -0.5010684,0 -0.9757704,-1.43486 -1.0548834,-3.18862 z M 141.47655,185.33432 c 0,-13.52882 0.28681,-19.0633 0.63742,-12.29893 0.35058,6.76443 0.35058,17.83345 0,24.59786 -0.35059,6.7644 -0.63742,1.2299 -0.63742,-12.29893 z m 7.28825,0 c 0,-13.52882 0.28682,-19.0633 0.63742,-12.29893 0.35058,6.76443 0.35058,17.83345 0,24.59786 -0.35059,6.7644 -0.63742,1.2299 -0.63742,-12.29893 z m 3.64414,0 c 0,-13.52882 0.28693,-19.0633 0.63742,-12.29893 0.3506,6.76443 0.3506,17.83345 0,24.59786 -0.35057,6.7644 -0.63742,1.2299 -0.63742,-12.29893 z m 3.64932,-0.91104 c 0.004,-14.02987 0.28873,-19.52848 0.63556,-12.21921 0.34671,7.30933 0.3444,18.78832 -0.005,25.50888 -0.34929,6.72059 -0.63296,0.74023 -0.63013,-13.28967 z m -158.5494726,2.73301 c 0,-11.52456 0.2958599,-16.23912 0.6574591,-10.47686 0.3616176,5.76231 0.3616176,15.19147 0,20.95375 -0.3616201,5.76228 -0.6574591,1.04769 -0.6574591,-10.47689 z M 145.11487,184.42321 c 0.004,-13.02773 0.29343,-18.11817 0.64494,-11.31209 0.35155,6.80605 0.34892,17.46515 -0.005,23.68685 -0.35473,6.22161 -0.64229,0.65301 -0.63913,-12.37476 z M -3.6357744,156.71746 c 2.2548003,-0.43434 5.9444816,-0.43434 8.1992892,0 2.2547999,0.43428 0.4099579,0.78962 -4.09964887,0.78962 -4.50961153,0 -6.35444793,-0.35532 -4.09964033,-0.78962 z M 144.8875,156.69656 c 2.76964,-0.41881 6.86931,-0.4076 9.11035,0.0271 2.24102,0.43249 -0.024,0.77515 -5.03576,0.76148 -5.01066,-0.0158 -6.84423,-0.36756 -4.07459,-0.78636 z M -3.6357744,153.07451 c 2.2548003,-0.43433 5.9444816,-0.43433 8.1992892,0 2.2547999,0.43429 0.4099579,0.78966 -4.09964887,0.78966 -4.50961153,0 -6.35444793,-0.35534 -4.09964033,-0.78966 z m 147.5872044,0 c 2.25479,-0.43433 5.94447,-0.43433 8.1993,0 2.25481,0.43429 0.40994,0.78966 -4.09967,0.78966 -4.5096,0 -6.35445,-0.35534 -4.09963,-0.78966 z M -6.3766726,148.61309 c -2.6455654,-2.64555 -2.9227562,-8.62038 -0.5722735,-12.3342 1.1391483,-1.79991 1.548936,-0.69656 1.3386335,3.60426 -0.2963991,6.06098 -0.1417811,6.19907 6.9851915,6.2381 5.9718878,0.0334 7.3846842,-0.63393 7.8221209,-3.69062 0.7361857,-5.14427 -5.4673934,-11.75704 -11.0295182,-11.75704 -2.5311031,0 -4.9953019,-1.02496 -5.4759937,-2.2776 -0.6323937,-1.6479 1.8324676,-2.27759 8.9153734,-2.27759 9.9566157,0 11.1999767,0.59369 7.9823555,3.81127 -1.1946551,1.19469 -1.0533511,3.80377 0.4169812,7.69907 1.614822,4.27814 1.684917,6.75265 0.2559,9.03424 -2.3835023,3.80561 -13.4824705,5.10644 -16.6388038,1.95011 z m 147.5038926,-0.0833 c -3.00549,-3.00551 -2.74094,-9.16168 0.5762,-13.40834 2.57198,-3.29272 2.61833,-3.19899 0.6715,1.35763 -2.64162,6.18273 -1.01606,10.59304 3.9044,10.59304 2.09484,0 3.3552,-0.73397 2.80075,-1.63111 -0.55442,-0.89714 0.30839,-2.13635 1.91743,-2.7538 2.13906,-0.82079 2.6257,-0.34127 1.81032,1.78342 -0.7097,1.84948 -0.28662,2.63316 1.16372,2.15551 7.22618,-2.37979 0.0694,-15.95258 -8.41181,-15.95258 -8.62992,0 -5.02719,-3.27648 4.31451,-3.92382 8.44682,-0.58524 11.33301,0.51231 7.52907,2.86328 -0.87334,0.53977 -0.72167,4.19284 0.33907,8.167 1.47572,5.52869 1.36825,7.85442 -0.46505,10.06334 -2.80901,3.38464 -13.01806,3.81854 -16.15019,0.6864 z M 4.1079966,143.4268 c 0,-1.00215 0.8683241,-1.82206 1.9296031,-1.82206 1.061279,0 1.422851,0.81991 0.803493,1.82206 -0.619374,1.00218 -1.487678,1.82202 -1.929602,1.82202 -0.4419084,0 -0.8034941,-0.81984 -0.8034941,-1.82202 z m -6.8076903,-21.35018 c 2.76965176,-0.41878 6.8692907,-0.40763 9.1103244,0.0271 2.2410254,0.43248 -0.024925,0.77512 -5.0357309,0.76144 -5.0106742,-0.0157 -6.8442378,-0.36754 -4.0745935,-0.78635 z m 147.5871937,0 c 2.76964,-0.41878 6.86931,-0.40763 9.11035,0.0271 2.24102,0.43248 -0.024,0.77512 -5.03576,0.76144 -5.01066,-0.0157 -6.84423,-0.36754 -4.07459,-0.78635 z M 1.8304168,106.83365 c -2.48999672,-2.72714 -2.62306152,-3.49229 -0.607326,-3.49229 1.419685,0 3.0595413,1.02492 3.6441369,2.2776 0.850277,1.82206 1.275438,1.82206 2.12572,0 0.5846,-1.25268 2.4294321,-2.29013 4.0996513,-2.3055 2.398727,-0.021 2.51738,-0.3568 0.564696,-1.5943 -1.7233295,-1.09198 -1.8612935,-1.943926 -0.455547,-2.812735 1.109127,-0.685477 2.913904,-0.691759 4.010618,-0.01575 1.246095,0.770137 -0.162844,3.202545 -3.756588,6.484785 -3.1628313,2.88884 -5.9049783,5.18406 -6.0936733,5.10056 -0.188688,-0.0835 -1.777932,-1.7234 -3.5316633,-3.64412 z m 16.8540912,-0.75916 c 2.353655,-2.50538 4.689323,-4.55519 5.190388,-4.55519 0.501063,0 -1.014668,2.04981 -3.36832,4.55519 -2.353653,2.50532 -4.689321,4.55516 -5.190385,4.55516 -0.501067,0 1.014667,-2.04984 3.368317,-4.55516 z m 110.120262,-1.36658 -5.35158,-5.921695 5.92173,5.351575 c 5.51986,4.98843 6.75919,6.49186 5.35155,6.49186 -0.31361,0 -2.97833,-2.66478 -5.9217,-5.92174 z m 14.32615,3.50676 c -0.8014,-1.32827 -2.89195,-2.94238 -4.6457,-3.58699 -1.75373,-0.64456 -3.18861,-2.51531 -3.18861,-4.15719 0,-1.904958 0.98905,-2.605674 2.73311,-1.936415 3.06239,1.17515 3.86027,-3.391349 0.91103,-5.214064 -1.00214,-0.619364 -1.82208,-0.345704 -1.82208,0.608552 0,0.954028 -1.3889,2.267635 -3.08643,2.91905 -2.70892,1.039526 -2.67511,0.72981 0.27656,-2.531708 2.56812,-2.837784 3.94365,-3.23426 5.81955,-1.677418 3.20591,2.660698 3.13038,6.500519 -0.16428,8.344283 -2.06684,1.15667 -1.68177,1.90968 1.82207,3.56326 2.44354,1.15315 4.44274,1.35384 4.44274,0.44597 0,-0.90786 1.43488,-1.58591 3.18861,-1.50681 1.90488,0.0859 2.27168,0.51389 0.91102,1.06285 -1.25264,0.50549 -2.27757,2.08064 -2.27757,3.50032 0,3.25461 -2.99569,3.3559 -4.92014,0.1662 z m 19.22962,-7.94609 c 0.5233,-8.42327 0.0123,-10.859996 -2.73306,-13.002051 -3.22919,-2.52065 -3.23094,-2.585451 -0.0394,-1.479933 1.8356,0.635932 3.68046,1.156203 4.09955,1.156203 0.41912,0 0.76198,5.329514 0.76198,11.843416 0,6.513885 -0.61497,11.844515 -1.36652,11.845905 -0.75159,0.001 -1.07674,-4.66218 -0.72257,-10.36354 z m -170.9428921,1.37051 c -2.4677499,-4.611085 -2.3817149,-7.268897 0.1218906,-3.763917 1.5591719,2.182817 1.7654536,1.885277 1.0245653,-1.478043 -1.0664906,-4.841348 2.9398465,-7.348474 6.72409108,-4.207831 C 2.4737287,94.833044 4.665144,92.542404 2.0105077,89.343974 -1.1629516,85.520181 0.958062,85.291361 4.5635444,89.06846 c 2.0980703,2.197987 2.4096443,3.349973 0.9110293,3.36836 -1.718439,0.021 -1.6853877,0.403369 0.134608,1.557262 3.7574971,2.382351 -2.8257134,8.045068 -8.165981,7.024208 -4.4559171,-0.85178 -5.9426233,1.34344 -1.9900029,2.93836 1.716679,0.69271 1.7324528,0.95445 0.064036,1.06287 -1.2174104,0.0793 -3.0622542,-1.44208 -4.0996402,-3.38052 z M 3.3883326,97.565525 c 0.8839244,-1.430228 0.3269001,-1.751597 -1.6926764,-0.976614 -1.80328304,0.691951 -2.8362776,0.311677 -2.57646902,-0.948692 0.2384722,-1.157112 -1.20620898,-2.401578 -3.21048098,-2.765477 -2.7503522,-0.499435 -3.028272,-0.240682 -1.1331031,1.054625 1.3810477,0.943951 1.9476036,2.627913 1.2590069,3.742074 -0.759194,1.228405 0.1824356,2.025765 2.3921359,2.025765 2.00427193,0 4.2369759,-0.959278 4.9615867,-2.131681 z M 155.33936,103.50797 c 2.21536,-1.56674 1.82618,-1.93816 -2.05449,-1.96079 -2.63318,-0.0157 -5.59616,-1.05281 -6.58442,-2.305496 -2.1709,-2.751742 -2.28532,-8.654801 -0.16777,-8.654801 0.83512,0 1.42327,-1.844812 1.30703,-4.099623 -0.16726,-3.243865 -0.38952,-3.41236 -1.06467,-0.806981 -1.45299,5.606567 -6.90995,2.844415 -7.02827,-3.557571 -0.0579,-3.12516 -1.34691,-7.623743 -2.86474,-9.996838 -5.87935,-9.192236 -5.58147,-9.494884 1.55676,-1.581667 4.52808,5.019658 6.63918,8.672681 5.4439,9.420093 -1.07382,0.671464 -2.1431,2.520229 -2.37619,4.108353 -0.23313,1.588088 0.33753,2.416938 1.26805,1.841855 0.93051,-0.575101 1.2732,-1.722959 0.76154,-2.550848 -1.76988,-2.863712 3.80501,-3.30522 8.25091,-0.653461 2.45486,1.464222 3.11891,2.256018 1.47567,1.759576 -2.16858,-0.655089 -3.3751,0.684131 -4.40067,4.88484 -2.19089,8.973948 -2.09659,9.20555 4.28039,10.50976 4.13508,0.845699 5.7647,0.585599 5.23844,-0.83632 -0.42014,-1.135173 -1.68634,-1.858948 -2.81373,-1.608452 -1.12741,0.250565 -2.04982,-0.452075 -2.04982,-1.561478 0,-1.109351 1.27248,-1.528727 2.82773,-0.931862 1.62151,0.62218 2.35287,0.316819 1.71453,-0.716111 -1.69642,-2.744833 -5.98965,-2.147672 -6.9563,0.967622 -0.60078,1.9361 -0.77045,1.799132 -0.56417,-0.455522 0.38189,-4.17326 6.52256,-4.197211 9.14755,-0.03692 2.27582,3.607938 -0.064,8.860102 -4.47742,10.051602 -2.08784,0.56361 -2.06207,0.32018 0.13016,-1.23016 z M 26.760934,99.896021 c 1.299974,-2.103391 8.322152,-6.345686 8.322152,-5.027636 0,0.421056 -2.150783,2.174823 -4.779494,3.897256 -2.628725,1.722399 -4.222924,2.231069 -3.542658,1.13038 z M 14.968809,95.055846 c -1.868908,-2.251907 -2.641658,-2.343599 -3.839342,-0.455592 -0.84515,1.332345 -1.5116532,1.502502 -1.5273862,0.389897 -0.05373,-3.801767 2.4391812,-4.384339 5.7890142,-1.35283 2.7902,2.525128 3.76918,2.638077 5.614045,0.647706 1.576747,-1.701107 1.601123,-2.055139 0.08289,-1.20267 -2.636503,1.480283 -5.079332,-2.015705 -5.208385,-7.453847 -0.09001,-3.796151 3.994601,-7.213761 6.102454,-5.105909 0.524685,0.524662 0.202328,0.954501 -0.716293,0.955217 -0.918626,6.84e-4 -1.791937,2.10626 -1.940718,4.679099 -0.175256,3.032032 0.519182,4.374768 1.973919,3.81655 2.783915,-1.068307 3.047165,4.669301 0.298535,6.507202 -2.921487,1.953439 -4.021115,1.717079 -6.628728,-1.424929 z m 96.640981,-1.735835 c -2.50535,-1.432189 -3.68698,-2.633057 -2.62583,-2.668536 1.06113,-0.03692 3.52093,1.139249 5.46619,2.610574 4.49863,3.402581 3.06176,3.431904 -2.84036,0.05773 z m 14.85542,-1.120967 c -1.5085,-4.077859 1.1329,-12.503352 3.92828,-12.53033 0.81073,-0.0053 0.93624,0.855969 0.27896,1.919552 -0.65732,1.06353 -1.55971,4.548251 -2.00536,7.743759 -0.60957,4.371602 -0.34728,5.133359 1.0597,3.076943 1.02846,-1.503219 1.88247,-4.119567 1.89782,-5.8142 0.0488,-5.413632 2.90041,-5.071882 3.31717,0.397559 0.54596,7.1653 -6.21561,11.318562 -8.47655,5.206682 z M 47.457235,88.509192 c 2.384993,-1.251305 3.760981,-3.269005 3.209474,-4.706179 -0.530948,-1.383622 -0.15485,-2.01476 0.835816,-1.4025 2.26997,1.40292 2.369873,6.364301 0.128151,6.364301 -0.92018,0 -3.174984,0.435332 -5.010674,0.967377 -1.897465,0.549996 -1.536203,0.021 0.837225,-1.222999 z M 4.1079966,87.221339 c 0,-0.988319 1.0249101,-2.273933 2.2775801,-2.856941 3.1870631,-1.483274 -7.8500221,-0.05703 -12.2989347,1.589469 -2.0042682,0.741673 0.7053064,-1.23437 6.02126366,-4.391231 C 9.3170948,76.093877 20.506576,62.358044 20.506576,56.521974 c 0,-1.30701 0.819929,-2.376332 1.822063,-2.376332 2.916595,0 2.240792,1.64654 -5.327552,12.980199 -3.932271,5.888626 -6.228073,10.706599 -5.101777,10.706599 1.4387,0 1.397464,0.650366 -0.138597,2.186475 -1.202562,1.202582 -2.1739202,3.457393 -2.1585782,5.010684 0.02492,2.493882 0.2539747,2.504554 1.9607772,0.09098 1.718118,-2.429431 1.850998,-2.429431 1.19593,0 -0.819289,3.038558 -8.6507789,4.940195 -8.6507789,2.100642 z m 5.4661962,-7.566848 c 0,-1.002141 -0.361546,-1.822051 -0.8034957,-1.822051 -0.4419124,0 -1.3102464,0.81991 -1.9296044,1.822051 -0.619374,1.00214 -0.257761,1.822086 0.803493,1.822086 1.0612804,0 1.9296071,-0.819946 1.9296071,-1.822086 z m 17.2446852,7.393314 c 0.56945,-0.921418 0.162302,-2.21494 -0.90487,-2.874437 -1.954809,-1.208146 0.901463,-6.340928 3.528589,-6.340928 2.576764,0 1.80033,8.795657 -0.866799,9.819158 -1.53576,0.589341 -2.326366,0.317554 -1.75692,-0.603776 z m 71.125411,-0.105143 c -1.4366,-2.324476 0.47264,-5.474585 3.296171,-5.438299 1.30959,0.01575 1.08636,0.739309 -0.56305,1.822067 -2.429401,1.594825 -2.429401,1.993522 0,3.58831 1.64942,1.082793 1.87266,1.805273 0.56305,1.822104 -1.19353,0.01575 -2.676801,-0.792041 -3.296171,-1.794182 z M 69.722754,83.318939 C 68.041696,81.637918 65.132682,80.487592 63.258264,80.762652 51.124467,82.543554 30.964351,67.828097 28.664937,55.512049 26.62844,44.60415 29.179019,35.933993 36.610654,28.502349 l 6.691508,-6.691469 -4.895864,-1.848016 c -4.094622,-1.54555 -5.471947,-1.21063 -8.415863,2.046319 -1.935992,2.141894 -4.426961,5.53414 -5.535487,7.538455 -1.108528,2.004255 -2.040435,2.647743 -2.070902,1.429933 -0.03036,-1.21781 2.404379,-5.015732 5.410788,-8.439824 6.305467,-7.181544 6.952284,-9.401225 1.961118,-6.730018 C 25.749163,17.952087 19.512116,30.534187 12.365521,50.889722 8.6381061,61.506519 5.6868497,66.519669 0.29823743,71.387994 -3.6249708,74.932391 -8.254601,77.832335 -9.9898295,77.832335 c -1.8419235,0 -0.5127015,-1.404073 3.1938574,-3.373766 C 0.9009269,70.368429 6.3785937,62.679133 11.364511,48.965763 13.425736,43.296475 16.463632,34.968266 18.11535,30.458652 19.767075,25.949069 23.850554,19.512599 27.189757,16.155476 34.951276,8.3521609 35.657407,2.9604707 28.285222,7.7909109 20.262636,13.047522 17.340828,17.610678 10.271074,35.924829 6.5959887,45.445125 2.1064918,55.725489 0.29443213,58.77005 -3.3397065,64.876052 -15.177369,72.366131 -21.193465,72.366131 c -6.629431,0 -4.624486,5.445771 2.070137,5.622804 l 5.921709,0.156581 -5.310073,1.587949 c -6.307536,1.886222 -8.35541,0.947292 -8.35541,-3.830776 0,-2.321887 -1.251646,-3.536576 -3.644121,-3.536576 -2.715681,0 -3.644132,-1.214723 -3.644132,-4.767675 0,-3.917778 0.669508,-4.592601 3.75558,-3.785584 3.877904,1.014106 7.830434,-4.287031 4.118877,-5.524183 -1.040317,-0.346824 -3.257924,-1.625825 -4.927992,-2.842352 -2.465806,-1.796193 -0.657395,-2.099209 9.621787,-1.612405 14.5467008,0.688958 13.567839,1.604113 21.34491876,-19.955783 C 7.3519437,12.825472 14.11508,4.4003907 28.459534,-1.8764991 44.527462,-8.9075169 61.470338,1.7739507 55.396095,15.105455 c -1.107828,2.431443 -2.823217,4.420797 -3.811959,4.420797 -2.955842,0 -14.668104,11.092317 -17.505154,16.578564 -6.615367,12.792698 -0.950603,30.181468 11.972804,36.752089 l 6.340913,3.223938 6.713797,-7.125516 c 4.5449,-4.82359 7.013654,-6.344111 7.641972,-4.70674 0.970996,2.530378 -5.43828,12.001014 -7.6278,11.271204 -1.1661,-0.388673 -2.741845,1.978509 -1.717289,2.57987 2.298257,1.34893 8.573623,-3.294303 10.855543,-8.032166 l 2.841984,-5.900662 -0.9095,8.41734 c -0.995452,9.212915 0.805751,11.70552 7.030886,9.729722 3.374255,-1.070948 3.731626,-2.252554 2.928513,-9.683447 l -0.914708,-8.463615 2.841978,5.900662 c 2.520787,5.233833 5.655558,7.674601 9.944522,7.743007 0.751601,0.01219 1.161556,-0.593121 0.911026,-1.344783 -0.250566,-0.751558 -1.023299,-1.177284 -1.717279,-0.945928 -2.189523,0.72981 -8.598801,-8.740826 -7.627802,-11.271204 0.628319,-1.637371 3.097064,-0.116866 7.641963,4.70674 l 6.713783,7.125516 6.340932,-3.223938 c 8.91471,-4.532505 14.61283,-13.756827 14.61283,-23.655849 0,-9.036741 -1.9509,-13.716563 -8.76283,-21.020003 -2.57037,-2.755906 -3.78503,-5.010682 -2.69919,-5.010682 1.08578,0 4.47848,2.852204 7.53926,6.338282 9.78932,11.149372 9.85933,27.112081 0.16725,38.150651 -7.26291,8.27199 -20.462882,14.390134 -27.644006,12.812875 -3.604761,-0.791725 -5.095352,-0.55638 -4.32906,0.683518 2.921531,4.727141 -8.96989,6.640183 -13.44682,2.163225 z M 62.646473,70.999566 c 2.266407,-2.889884 2.201967,-2.954337 -0.687966,-0.687926 -3.035103,2.380268 -4.000299,3.876507 -2.500672,3.876507 0.378343,0 1.813223,-1.434848 3.188609,-3.188581 z m 28.920605,2.500689 c 0,-0.378368 -1.43488,-1.813251 -3.188611,-3.188615 -2.889907,-2.266411 -2.954337,-2.201958 -0.687959,0.687945 2.38029,3.035164 3.876534,4.000337 3.876534,2.500704 z M -12.417144,67.876436 C -3.886746,63.46519 1.4740205,55.349291 6.7018157,38.931348 11.854593,22.748996 19.359166,10.311291 26.169568,6.6664809 c 12.084621,-6.46747009 22.43125,-5.2604202 21.323015,2.4876 -0.565936,3.9569011 -6.943303,6.9121901 -6.943303,3.2175011 0,-1.075601 1.298223,-1.955611 2.884931,-1.955611 1.586723,0 2.543311,-1.0249501 2.125746,-2.2776101 -0.417529,-1.25263 -2.740694,-2.2775801 -5.162512,-2.2775801 -3.379834,0 -4.530614,1.0950401 -4.950959,4.7111302 -0.301214,2.591101 0.674123,5.725082 2.167392,6.964404 4.240256,3.519069 12.562955,1.702776 15.034415,-3.281072 C 57.157196,5.1627908 46.832562,-4.0506491 34.825647,-1.6492791 19.953376,1.3251807 10.154897,12.616242 0.63732533,37.746889 -2.588693,46.265035 -7.0221913,55.184993 -9.2148874,57.568936 c -5.1018686,5.546875 -15.0862186,9.812703 -19.6080116,8.377522 -2.446598,-0.776505 -3.510395,-0.248782 -3.510395,1.741712 0,3.769805 12.75706,3.890364 19.91615,0.188091 z m -5.833099,-5.721441 c -0.605469,-0.605456 -2.177001,-0.670205 -3.492297,-0.143986 -1.453516,0.581627 -1.021779,1.013373 1.100837,1.100813 1.920742,0.07926 2.996909,-0.351634 2.39146,-0.956985 z m 3.682083,-5.62137 c -1.753741,-0.458285 -4.623489,-0.458285 -6.377227,0 -1.753734,0.458321 -0.318832,0.83326 3.188616,0.83326 3.507471,0 4.942343,-0.374939 3.188611,-0.83326 z m 134.55538,29.068782 c -0.59906,-0.599052 -1.07662,-1.977425 -1.06128,-3.06307 0.0158,-1.085662 0.82271,-0.744033 1.79416,0.759167 0.97146,1.503219 1.77884,1.872175 1.79416,0.819929 0.014,-1.052211 -0.99701,-2.976626 -2.24968,-4.276464 -1.84185,-1.911258 -1.58443,-2.238365 1.34564,-1.710046 4.34643,0.783712 5.83767,6.114644 2.11057,7.544873 -1.45444,0.558114 -3.13453,0.524628 -3.73357,-0.07453 z m -4.7333,-5.948038 c 0,-2.602388 -0.74172,-3.413586 -2.27758,-2.490821 -1.56646,0.941065 -1.50199,0.411993 0.20646,-1.694494 1.36624,-1.684538 3.14103,-2.656745 3.94402,-2.160494 0.80299,0.496303 1.87526,-0.127715 2.38279,-1.386596 0.55672,-1.380875 0.97987,-1.023957 1.06667,0.899689 0.0791,1.753731 -0.76381,3.188615 -1.87316,3.188615 -1.10936,0 -1.55515,1.203631 -0.99062,2.674729 0.56451,1.471133 0.24228,3.159398 -0.7161,3.751662 -0.95835,0.592333 -1.74247,-0.659725 -1.74247,-2.78229 z M -2.3577277,77.099848 C 1.8723753,74.539397 6.9391367,69.094571 9.9263425,63.899192 12.722699,59.035766 15.017338,55.80441 15.025515,56.71855 c 0.06129,6.885026 -16.5570987,24.785896 -22.9759992,24.748615 -0.8838628,-0.0034 1.6328838,-1.970428 5.5927565,-4.367317 z M 150.28406,77.594523 c -5.43051,-3.477512 -15.00875,-16.832265 -14.97258,-20.875973 0.007,-0.91407 2.30282,2.317216 5.09917,7.180677 2.98721,5.195379 8.05397,10.64017 12.28409,13.200621 3.95987,2.396889 6.37983,4.348351 5.37769,4.336647 -1.00213,-0.01219 -4.50691,-1.740663 -7.78837,-3.841972 z M 19.022555,74.689522 c 0.332898,-1.728556 2.632208,-4.153349 5.109559,-5.388507 3.899623,-1.944167 5.051801,-1.731287 8.582503,1.585655 4.069991,3.823532 4.04286,8.207906 -0.03515,5.661574 -3.498631,-2.184621 -8.262637,-2.442832 -9.455652,-0.512469 -1.842599,2.981385 -4.849275,2.017962 -4.201386,-1.346253 z m 7.992306,-1.853209 c 1.932188,0.300549 4.742964,1.278477 6.246165,2.173388 1.766851,1.051809 1.545093,0.271298 -0.627298,-2.208063 -3.655099,-4.17144 -10.417527,-3.270685 -11.716526,1.560602 -0.533499,1.984161 -0.320426,2.038835 0.948253,0.243673 0.899991,-1.273612 3.217223,-2.069817 5.14939,-1.769338 z m 103.026919,1.80746 c -0.13769,-2.670496 -1.32293,-4.0495 -3.39997,-3.955812 -1.90486,0.08591 -2.27164,0.513867 -0.91103,1.062865 3.15494,1.273053 2.8582,3.652132 -0.45555,3.652132 -3.61365,0 -3.51937,-4.671487 0.12241,-6.069018 3.75939,-1.442599 6.81955,1.778592 5.72593,6.027292 -0.71653,2.783847 -0.90792,2.656937 -1.08189,-0.717459 z M 75.456198,72.366148 c 0,-2.505289 0.4136,-3.530242 0.919018,-2.277571 0.505468,1.252688 0.505468,3.302525 0,4.555196 -0.505467,1.252636 -0.919018,0.227734 -0.919018,-2.277625 z M 24.986812,63.134653 c -0.660561,-1.068831 -0.81024,-2.334099 -0.332601,-2.811734 0.477579,-0.4776 1.353903,0.396913 1.947332,1.943328 1.232044,3.210675 0.182015,3.77542 -1.61471,0.868406 z M 66.70357,57.828022 C 65.888562,53.753015 64.076776,51.842876 59.434246,50.164094 51.564586,47.318419 52.306805,45.306021 62.483123,41.897701 72.45452,38.558 72.562312,38.459931 69.852209,35.19448 68.012579,32.97786 66.85382,28.441898 66.183721,20.834157 66.114651,20.050266 64.296847,18.757341 62.144115,17.96098 58.464691,16.599883 58.63394,16.263431 64.967407,12.349172 l 6.73735,-4.1639411 -1.147282,-12.09458 C 69.652021,-13.454726 70.017024,-16.772016 72.28935,-19.648076 l 2.879152,-3.64411 2.879157,3.64411 c 2.272314,2.87606 2.637333,6.19335 1.731872,15.7387269 l -1.147283,12.09458 6.737353,4.1639411 c 6.333456,3.914259 6.502721,4.250711 2.823272,5.611808 -2.152727,0.796361 -3.970543,2.089286 -4.039592,2.873177 -0.670139,7.607741 -1.82885,12.143703 -3.668489,14.360323 -2.7101,3.265451 -2.602322,3.36352 7.369083,6.703221 4.471602,1.497674 8.378254,3.467139 8.681404,4.376659 0.30315,0.909539 -2.330498,2.695724 -5.852615,3.969302 -3.847988,1.391477 -6.414979,3.541212 -6.43174,5.386374 -0.01404,1.68886 -0.912615,4.300555 -1.993966,5.803738 -1.659474,2.306964 -1.806093,2.235934 -0.94031,-0.45552 0.859108,-2.67055 -0.139784,-3.188634 -6.148146,-3.188634 -5.628212,0 -6.947918,0.588905 -6.125105,2.733112 0.576814,1.503183 0.530607,2.733093 -0.102754,2.733093 -0.633357,0 -1.640036,-2.442517 -2.237095,-5.427837 z m 11.674787,-3.112335 c -1.742057,-0.456012 -5.021774,-0.472615 -7.288252,-0.03692 -2.266486,0.435874 -0.841174,0.808976 3.167359,0.829201 4.008558,0.01802 5.862962,-0.33645 4.120893,-0.792391 z m 2.256329,-4.214304 c -1.503202,-0.971401 -6.422763,-1.721191 -10.93238,-1.666047 -6.239894,0.07628 -7.32845,0.474382 -4.555158,1.666047 5.304709,2.279549 19.014852,2.279549 15.487538,0 z m -17.73044,-4.839231 c -1.233593,-0.499102 -3.693383,-0.529525 -5.466192,-0.06736 -1.772823,0.461942 -0.763508,0.870297 2.242903,0.907457 3.006402,0.03692 4.456874,-0.340894 3.223289,-0.839979 z m 8.126656,0.09429 C 70.425433,45.15097 68.8539,45.086238 67.538605,45.612458 c -1.453514,0.581626 -1.021778,1.013371 1.100841,1.100812 1.920747,0.07926 2.996915,-0.351618 2.391456,-0.956985 z m 10.093982,-0.09429 c -1.233597,-0.499102 -3.693377,-0.529525 -5.466196,-0.06736 -1.772807,0.461942 -0.763497,0.870297 2.242906,0.907457 3.006404,0.03692 4.456874,-0.340894 3.22329,-0.839979 z m 13.592852,0.09429 c -0.605475,-0.605472 -2.177011,-0.670204 -3.492303,-0.143984 -1.453512,0.581626 -1.02176,1.013371 1.100857,1.100812 1.92073,0.07926 2.996899,-0.351618 2.391446,-0.956985 z M 79.26814,41.927243 c -2.25479,-0.434283 -5.944483,-0.434283 -8.199282,0 -2.254805,0.434281 -0.409955,0.789626 4.099644,0.789626 4.509606,0 6.354441,-0.355309 4.099638,-0.789626 z m -2.277585,-6.913412 c 0,-1.503186 -1.204152,-2.733074 -2.675914,-2.733074 -1.629998,0 -2.265971,1.068243 -1.627123,2.733074 0.576813,1.503214 1.781007,2.733103 2.675938,2.733103 0.894894,0 1.627099,-1.229889 1.627099,-2.733103 z m 3.644131,-10.783327 c 0,-0.419137 0.435582,-1.897174 0.967994,-3.284562 0.71148,-1.854087 -0.978437,-2.637378 -6.37721,-2.955921 -7.800468,-0.4603 -7.957274,-0.356793 -6.239249,4.120341 0.950442,2.476814 11.648465,4.423953 11.648465,2.120142 z m 1.822078,-11.992452 c -1.503202,-0.971441 -4.782917,-1.766261 -7.288262,-1.766261 -2.505335,0 -5.785053,0.79482 -7.288256,1.766261 -1.945841,1.257501 0.153415,1.766231 7.288256,1.766231 7.13476,0 9.23409,-0.50879 7.288262,-1.766231 z M 75.311389,-7.5734875 c 0.959436,1.5524591 1.261675,0.4477997 0.816007,-2.9824185 -0.389303,-2.99642 -0.76431,-6.60962 -0.833346,-8.02931 -0.249692,-5.13423 -2.457535,-0.0952 -2.903409,6.62669 -0.251213,3.7878288 -0.03992,5.7692776 0.470075,4.4032185 0.777911,-2.0845988 1.171771,-2.0875088 2.45071,-0.018 z M 129.83042,59.80787 c 0,-1.228335 -0.81993,-1.726544 -1.82206,-1.107181 -2.21249,1.367369 -2.33378,-0.926788 -0.22486,-4.253684 1.15373,-1.820074 1.81586,-1.38189 2.63292,1.742517 0.60036,2.295732 0.7141,4.551505 0.2528,5.012852 -0.46133,0.461331 -0.83879,-0.166204 -0.83879,-1.394504 z M -25.371127,49.777136 c 1.68255,-0.899391 3.227238,-1.75074 3.432624,-1.891821 0.63246,-0.434562 -4.1802,-13.641515 -5.424445,-14.885735 -0.644169,-0.644179 0.409747,-2.504336 2.34211,-4.133654 2.535581,-2.137988 3.62004,-5.651437 3.896668,-12.624704 0.210798,-5.314241 0.998077,-10.0422212 1.749459,-10.5065812 2.513441,-1.55342 4.00114,3.3343501 3.690063,12.1235482 -0.248627,7.023864 0.440739,9.233541 3.562494,11.420144 2.5795709,1.806767 3.3539466,3.519488 2.3214223,5.134383 -0.8521273,1.332736 -2.4597493,5.016694 -3.5725033,8.186542 -1.760928,5.016264 -1.580202,5.96102 1.394229,7.288238 2.3528643,1.049884 0.322829,1.524895 -6.516943,1.524895 -6.924081,0 -9.007374,-0.49548 -6.875178,-1.635255 z m 8.486287,-6.109432 c 0.144492,-1.753224 1.313338,-5.120556 2.597327,-7.482955 1.520205,-2.79701 1.713378,-4.916402 0.553815,-6.075984 -2.318947,-2.318924 -10.513023,-1.071968 -10.022941,1.525238 0.207586,1.099971 0.749289,3.950253 1.203879,6.333956 1.925863,10.099165 5.046488,13.237341 5.66792,5.699745 z m 179.18635,6.109432 c 1.68255,-0.899391 3.32098,-1.844445 3.64096,-2.100136 0.31991,-0.255692 -0.29506,-2.184585 -1.36657,-4.286454 -1.07157,-2.10185 -2.82859,-5.546947 -3.90449,-7.655731 -1.61485,-3.16516 -1.26672,-4.31708 1.99521,-6.601783 3.15167,-2.207545 3.78627,-4.105016 3.13556,-9.375807 -0.88517,-7.169973 1.37208,-15.5908443 3.78022,-14.1025342 0.82251,0.50837 1.66796,5.2722902 1.8788,10.5865312 0.27671,6.973267 1.36107,10.486716 3.89665,12.624704 1.93235,1.629318 2.98629,3.489475 2.34212,4.133654 -1.24426,1.24422 -6.05694,14.451173 -5.42445,14.885735 0.2052,0.140836 1.75006,0.99243 3.43263,1.891821 2.13792,1.142819 0.11933,1.635255 -6.70334,1.635255 -6.8226,0 -8.84123,-0.492436 -6.7033,-1.635255 z m 10.35482,-10.246503 c 0.38194,-1.983193 -0.28334,-3.630688 -1.47855,-3.661213 -1.19514,-0.03004 -0.72086,-0.90077 1.05398,-1.934039 4.16801,-2.426517 2.36053,-5.298793 -3.33448,-5.298793 -3.50074,0 -4.44764,0.94689 -4.44764,4.447629 0,2.446197 0.83333,4.962642 1.85182,5.592068 1.01846,0.629457 1.42578,1.833747 0.90513,2.676233 -0.52069,0.842445 -0.41191,2.925365 0.24187,4.628711 1.08941,2.838956 1.3269,2.849472 2.85099,0.12614 0.91444,-1.633978 1.97508,-4.593511 2.357,-6.576668 z"
       id="path6447"
       inkscape:connector-curvature="0" />
  </g>
</svg>
