<?xml version="1.0" encoding="UTF-8" standalone="no"?>
<!-- Created with Inkscape (http://www.inkscape.org/) -->

<svg
   xmlns:dc="http://purl.org/dc/elements/1.1/"
   xmlns:cc="http://creativecommons.org/ns#"
   xmlns:rdf="http://www.w3.org/1999/02/22-rdf-syntax-ns#"
   xmlns:svg="http://www.w3.org/2000/svg"
   xmlns="http://www.w3.org/2000/svg"
   xmlns:xlink="http://www.w3.org/1999/xlink"
   xmlns:sodipodi="http://sodipodi.sourceforge.net/DTD/sodipodi-0.dtd"
   xmlns:inkscape="http://www.inkscape.org/namespaces/inkscape"
   width="200mm"
   height="104mm"
   viewBox="0 0 200 104"
   version="1.1"
   id="svg5891"
   inkscape:version="0.92.4 (5da689c313, 2019-01-14)"
   sodipodi:docname="clock.svg">
  <defs
     id="defs5885">
    <linearGradient
       inkscape:collect="always"
       id="linearGradient6453">
      <stop
         style="stop-color:#ffffff;stop-opacity:1;"
         offset="0"
         id="stop6449" />
      <stop
         id="stop6457"
         offset="0.56821907"
         style="stop-color:#ffffff;stop-opacity:0.56084657" />
      <stop
         style="stop-color:#ffffff;stop-opacity:0.843"
         offset="1"
         id="stop6451" />
    </linearGradient>
    <linearGradient
       inkscape:collect="always"
       xlink:href="#linearGradient6453"
       id="linearGradient6455"
       x1="26.818878"
       y1="87.047806"
       x2="156.29395"
       y2="244.55138"
       gradientUnits="userSpaceOnUse"
       gradientTransform="matrix(0.52022631,0,0,0.52022631,-11.346391,83.750484)" />
  </defs>
  <sodipodi:namedview
     id="base"
     pagecolor="#ffffff"
     bordercolor="#666666"
     borderopacity="1.0"
     inkscape:pageopacity="0.0"
     inkscape:pageshadow="2"
     inkscape:zoom="0.35"
     inkscape:cx="-427.3665"
     inkscape:cy="661.15403"
     inkscape:document-units="mm"
     inkscape:current-layer="layer1"
     showgrid="false"
     inkscape:pagecheckerboard="true"
     fit-margin-top="0"
     fit-margin-left="0"
     fit-margin-right="0"
     fit-margin-bottom="0"
     inkscape:window-width="1920"
     inkscape:window-height="1017"
     inkscape:window-x="1072"
     inkscape:window-y="394"
     inkscape:window-maximized="1" />
  <metadata
     id="metadata5888">
    <rdf:RDF>
      <cc:Work
         rdf:about="">
        <dc:format>image/svg+xml</dc:format>
        <dc:type
           rdf:resource="http://purl.org/dc/dcmitype/StillImage" />
        <dc:title></dc:title>
      </cc:Work>
    </rdf:RDF>
  </metadata>
  <g
     inkscape:label="Layer 1"
     inkscape:groupmode="layer"
     id="layer1"
     transform="translate(24.8315,-114.70066)">
    <path
       style="opacity:0.73400005;fill:url(#linearGradient6455);fill-opacity:1;stroke-width:0.99999994"
       d="m -27.196511,397.46903 c 0.03793,-4.37666 1.686476,-10.07871 3.242876,-11.21677 0.810666,-0.59278 1.473933,-1.56393 1.473933,-2.15809 0,-0.59421 0.413166,-1.08036 0.918141,-1.08036 1.244593,0 0.09353,2.77985 -2.030589,4.90401 -2.23951,2.23946 -2.201,3.62694 0.100665,3.62694 1.654753,0 3.588617,-3.10908 3.095342,-4.9764 -0.10329,-0.39102 0.263927,-0.71091 0.816022,-0.71091 0.552105,0 0.762717,-0.39014 0.468037,-0.86694 -0.795797,-1.28759 0.797209,-1.55314 6.342534,-1.05724 l 4.9820591,0.44557 -5.2133761,0.58482 c -2.867352,0.32171 4.8105251,0.64778 17.0619471,0.72478 12.2514209,0.0771 21.7209929,-0.21175 21.0434809,-0.64139 -0.748102,-0.47453 0.740801,-0.84122 3.791542,-0.93381 3.588161,-0.10878 4.617151,0.11412 3.60155,0.78138 -1.014943,0.66656 0.06999,0.89946 3.791538,0.8138 5.092657,-0.11709 5.125577,-0.13536 1.421826,-0.7821 -3.277238,-0.57228 -2.923662,-0.67145 2.606692,-0.73093 3.519024,-0.0379 6.398235,0.32061 6.398235,0.79659 0,0.47603 1.386276,0.81498 3.08062,0.75331 l 3.08064,-0.11209 -2.843662,-0.67763 c -1.915739,-0.45652 -0.369201,-0.68646 4.739422,-0.70463 5.53,-0.0173 6.68487,0.16041 4.26549,0.66504 -3.14438,0.65583 -3.07016,0.6977 1.42184,0.80223 3.37555,0.0783 4.33026,-0.15397 3.31759,-0.8086 -1.03323,-0.66775 -0.25609,-0.91886 2.84366,-0.91886 3.09973,0 3.8769,0.25111 2.84368,0.91886 -1.1597,0.74947 -1.04502,0.92153 0.62216,0.93339 1.58004,0.0109 1.93148,-0.41582 1.54825,-1.88126 -0.48678,-1.86144 -1.29291,-1.89578 -44.517856,-1.89578 -29.1066629,0 -43.823577,-0.32101 -43.436244,-0.94787 0.376948,-0.60991 16.2818831,-0.94789 44.606573,-0.94789 38.898607,0 44.020767,0.16866 44.020767,1.45153 0,0.79839 0.63739,1.69618 1.4164,1.99514 0.77901,0.29878 1.18036,0.92538 0.89194,1.39206 -0.28844,0.46672 -0.0475,0.84857 0.53531,0.84857 0.58287,0 0.8714,0.31995 0.64117,0.71091 -0.89954,1.52776 1.26248,4.97641 3.11983,4.97641 2.38977,0 2.46287,-1.35922 0.19511,-3.62697 -2.12412,-2.12414 -3.27519,-4.90399 -2.03059,-4.90399 0.50498,0 0.91815,0.48614 0.91815,1.08036 0,0.59418 0.66326,1.56533 1.47393,2.1581 1.5564,1.13806 3.20491,6.84011 3.24288,11.21677 0.0222,2.57421 -0.0528,2.60672 -6.03722,2.60672 -4.51212,0 -6.19921,-0.36316 -6.60547,-1.42183 -0.33732,-0.87911 -1.77904,-1.42183 -3.77689,-1.42183 -1.77721,0 -3.76229,-0.63984 -4.4113,-1.42186 -1.00749,-1.21394 -5.99683,-1.42182 -34.123897,-1.42182 -28.1270679,0 -33.1164089,0.20779 -34.1238869,1.42182 -0.649008,0.78202 -2.634091,1.42186 -4.4113001,1.42186 -1.997838,0 -3.439555,0.54272 -3.776888,1.42183 -0.406256,1.05867 -2.093341,1.42183 -6.605457,1.42183 -5.984296,0 -6.059557,-0.0323 -6.037225,-2.60672 z m 6.217623,-1.18486 c 2.533607,0 4.186499,0.43229 4.186499,1.09481 0,0.62695 0.796813,0.3737 1.864605,-0.59262 1.029964,-0.93214 2.680178,-1.4742 3.68661,-1.21098 1.002111,0.26188 2.4024211,0.10857 3.1117961,-0.34072 0.771601,-0.48886 -2.6136721,-0.82302 -8.4260381,-0.83169 -9.470044,-0.014 -9.713934,0.0396 -9.640993,2.11823 0.04112,1.17301 0.289973,1.59955 0.552929,0.94788 0.281193,-0.69688 2.202307,-1.18486 4.664592,-1.18486 z m 97.553252,0 c 2.39911,0 4.30638,0.49282 4.58561,1.18486 0.26298,0.65168 0.51178,0.225 0.55294,-0.94785 0.0729,-2.07883 -0.17097,-2.13238 -9.64102,-2.11825 -5.5552,0.009 -9.18219,0.35289 -8.46969,0.80471 0.68537,0.4346 2.20425,0.60708 3.37525,0.38326 1.2545,-0.23967 2.67529,0.25113 3.45867,1.19496 0.81672,0.98406 1.46476,1.19627 1.68013,0.55016 0.19285,-0.57849 2.199,-1.05185 4.45811,-1.05185 z M -14.1794,389.81716 c -0.335789,-1.28409 0.04768,-1.69077 1.494114,-1.58421 1.070241,0.079 2.044894,0.65364 2.165898,1.27732 0.121012,0.62368 0.002,0.69411 -0.263783,0.15653 -0.549531,-1.11026 -2.217666,-0.36855 -2.217666,0.98604 0,0.49056 0.853096,0.89194 1.895774,0.89194 1.2064021,0 1.8957711,-0.63192 1.8957711,-1.73779 0,-0.95579 0.616779,-1.73779 1.370638,-1.73779 1.035361,0 1.143127,0.42506 0.440579,1.73779 -0.79317,1.48203 -0.560132,1.73779 1.583589,1.73779 1.927249,0 2.412426,-0.38694 2.079835,-1.65876 -0.362796,-1.38732 0.224372,-1.65885 3.587507,-1.65885 3.536088,0 3.914189,0.20027 3.133543,1.65885 -0.739788,1.38228 -0.47656,1.65876 1.579174,1.65876 1.960825,0 2.353792,-0.35646 1.915396,-1.73779 -0.352595,-1.11093 -0.08068,-1.73779 0.753957,-1.73779 0.799274,0 1.129289,0.67386 0.851055,1.73779 -0.340483,1.30202 0.07638,1.73779 1.662441,1.73779 1.5493679,0 2.0006109,-0.44473 1.6831929,-1.65876 -0.360938,-1.38058 0.240463,-1.66964 3.584983,-1.72316 2.953673,-0.0474 3.891655,0.26691 3.539332,1.18485 -0.608551,1.58588 -2.167623,1.63172 -2.186818,0.0646 -0.0097,-0.78988 -0.320821,-0.71092 -0.933374,0.2368 -0.667679,1.03317 -0.922825,1.08265 -0.933376,0.181 -0.0075,-0.68245 -0.44106,-0.9772 -0.962394,-0.65497 -2.235391,1.38153 -0.60822,2.36969 3.902096,2.36969 4.236338,0 4.792481,-0.21996 4.395543,-1.73775 -0.278223,-1.06397 0.05178,-1.73785 0.851059,-1.73785 0.834595,0 1.106564,0.62686 0.753959,1.73785 -0.485309,1.52902 0.02543,1.73775 4.251752,1.73775 2.641824,0 4.803303,-0.40136 4.803303,-0.89191 0,-1.41381 -1.887425,-2.20189 -1.970606,-0.82281 -0.05862,0.97098 -0.18658,0.95979 -0.588678,-0.0512 -0.43383,-1.09088 -0.654846,-1.09088 -1.419163,0 -0.76433,1.0909 -0.985741,1.0909 -1.421825,0 -0.43609,-1.09088 -0.657513,-1.09088 -1.42183,0 -0.748415,1.06821 -0.841475,1.05601 -0.536968,-0.0699 0.243864,-0.9021 1.826204,-1.41074 4.68272,-1.50535 3.7556,-0.12442 4.255376,0.0829 3.858761,1.59941 -0.341807,1.30703 0.07317,1.74228 1.661255,1.74228 1.579205,0 2.00247,-0.43748 1.666434,-1.72249 -0.384268,-1.46943 0.134376,-1.71311 3.530187,-1.65878 3.308455,0.0531 3.907386,0.34389 3.54692,1.7225 -0.312141,1.19392 0.128594,1.65877 1.572642,1.65877 2.229628,0 2.566318,-0.95665 0.917124,-2.60579 -0.820335,-0.82037 -0.586394,-1.05136 0.947749,-0.93578 1.496657,0.11281 1.894326,0.60277 1.499268,1.84748 -0.42233,1.33064 -0.0083,1.69409 1.929262,1.69409 2.091162,0 2.326412,-0.26258 1.544402,-1.72377 -0.82701,-1.54534 -0.502538,-1.71707 3.13344,-1.65881 3.37987,0.0541 3.98369,0.34142 3.62229,1.72381 -0.37132,1.42015 0.26397,1.65877 4.4163,1.65877 2.66748,0 4.85,-0.4014 4.85,-0.89196 0,-1.3546 -1.66815,-2.09628 -2.21768,-0.98601 -0.26611,0.53759 -0.38481,0.46714 -0.26378,-0.15654 0.12101,-0.62371 1.09567,-1.19848 2.1659,-1.27734 1.44639,-0.1065 1.8299,0.30023 1.49411,1.58423 -0.3673,1.40458 0.1128,1.7276 2.56836,1.7276 2.58983,0 2.97699,-0.30379 2.71724,-2.13278 l -0.30291,-2.13271 -46.446403,-0.24827 c -42.823111,-0.22893 -46.538832,-0.12207 -47.631262,1.36603 -1.865364,2.54142 -1.433277,3.14773 2.243295,3.14773 2.850238,0 3.351997,-0.29124 2.976383,-1.7276 z m -4.508758,0.002 c 0,-1.14555 1.798325,-2.48117 2.455689,-1.82382 0.238562,0.23861 -0.216354,0.97337 -1.010955,1.63281 -0.900861,0.74765 -1.444734,0.81957 -1.444734,0.19101 z m 80.826272,-0.62136 c -0.95344,-1.08394 -0.82389,-1.29967 0.7109,-1.18406 1.03223,0.0779 1.87677,0.69043 1.87677,1.36148 0,1.57602 -1.11245,1.49974 -2.58767,-0.17736 z m 10.04985,-0.26115 c -1.17905,-1.50339 -1.14551,-1.53693 0.35791,-0.3579 0.91234,0.7155 1.65879,1.46197 1.65879,1.65878 0,0.78015 -0.77837,0.27803 -2.01669,-1.30092 z M 1.2029281,389.8847 c -0.01251,-1.4176 -0.148116,-1.45206 -0.933372,-0.23713 -0.667681,1.03315 -0.922824,1.08264 -0.933374,0.181 -0.0075,-0.68248 -0.441062,-0.97721 -0.962397,-0.65497 -1.602913,0.99063 -1.05128,2.36969 0.947886,2.36969 1.179105,0 1.890282,-0.62707 1.881257,-1.65877 z m 41.0438389,0.0482 c -0.44379,-1.1565 -0.735121,-1.25993 -1.032883,-0.36668 -0.313823,0.94147 -0.585345,0.96812 -1.115963,0.10959 -0.50805,-0.82204 -0.859941,-0.72107 -1.277329,0.36666 -0.428531,1.11674 0.01576,1.50132 1.734111,1.50132 1.784596,0 2.169564,-0.36652 1.692064,-1.61091 z m 15.843817,0.71891 c 0,-0.49057 -0.42654,-1.15555 -0.94789,-1.47777 -0.52135,-0.32209 -0.95441,-0.0285 -0.96238,0.65498 -0.0109,0.90159 -0.26569,0.85212 -0.93338,-0.181 -0.78526,-1.21512 -0.92098,-1.18065 -0.93339,0.23715 -0.01,1.0317 0.70216,1.6588 1.88126,1.6588 1.04269,0 1.89578,-0.4014 1.89578,-0.89196 z M 29.89098,385.22868 c -0.651672,-0.26297 -1.718039,-0.26297 -2.369712,0 -0.651671,0.26294 -0.118474,0.47807 1.18486,0.47807 1.30334,0 1.836526,-0.21492 1.184852,-0.47807 z m 15.166186,0 c -0.651678,-0.26297 -1.718049,-0.26297 -2.369722,0 -0.65167,0.26294 -0.118486,0.47807 1.184852,0.47807 1.303344,0 1.836538,-0.21492 1.18487,-0.47807 z m -51.1858429,-0.97281 c 0.912343,-0.23861 2.405266,-0.23861 3.317601,0 0.912345,0.23822 0.165867,0.43351 -1.6588,0.43351 -1.824678,0 -2.571136,-0.19529 -1.658801,-0.43351 z m 9.029973,-0.042 c 2.229461,-0.20027 5.641851,-0.1974 7.5830829,0.009 1.94123,0.20351 0.117102,0.36752 -4.0535699,0.36409 -4.170694,-0.002 -5.758983,-0.17022 -3.529513,-0.37034 z m 13.7323199,0.014 c 1.440849,-0.21785 3.573589,-0.2121 4.739432,0.014 1.165841,0.22498 -0.01296,0.40322 -2.619716,0.39611 -2.606691,-0.009 -3.560555,-0.19139 -2.119716,-0.40905 z m -38.50027,-3.27966 c -2.294144,-1.28384 -5.305462,-8.03178 -5.331661,-11.94742 -0.02649,-3.95831 1.550654,-7.68149 6.473747,-15.28269 4.850518,-7.48917 5.270952,-12.10783 1.449988,-15.92877 -2.387712,-2.38775 -2.42379,-2.58107 -0.947886,-5.07958 1.385413,-2.34528 1.534308,-11.51743 1.534308,-94.51691 0,-78.63824 -0.196253,-92.08245 -1.358274,-93.04681 -0.958475,-0.79546 -1.446731,-3.75976 -1.658801,-10.07101 l -0.30054,-8.94371 2.843655,0.13129 c 2.236639,0.10313 2.388397,0.21889 0.710915,0.54201 -2.010598,0.38726 -2.132741,0.86844 -2.132741,8.40188 v 7.99109 h 9.018307 9.0183091 l 4.974427,-4.05176 c 8.5035789,-6.92635 13.7556619,-8.7373 25.3510669,-8.74133 9.331689,-0.002 10.36749,0.19268 16.114055,3.04815 3.377734,1.67839 7.764625,4.55762 9.748643,6.39825 l 3.60732,3.34659 h 9.42612 9.42611 v -7.98671 c 0,-6.81012 -0.24451,-8.05146 -1.6588,-8.42104 -0.99612,-0.2603 -0.52281,-0.51515 1.18485,-0.63793 2.81418,-0.20231 2.81909,-0.21231 0.47395,-0.96334 -2.24523,-0.71905 -2.20789,-0.7639 0.71092,-0.85341 3.51738,-0.10781 4.51068,-2.93814 1.03117,-2.93814 -1.12721,0 -3.82762,-1.04204 -6.00089,-2.31567 -4.36292,-2.55684 -6.32051,-5.81678 -10.94525,-18.22711 -2.22504,-5.970708 -3.79926,-8.570741 -6.86786,-11.343034 -3.004268,-2.714174 -4.051557,-3.231259 -4.268016,-2.107277 -0.157732,0.819197 1.157258,2.93773 2.922266,4.707827 1.8002,1.805417 4.11611,5.715327 5.27502,8.905714 1.13627,3.12801 2.72317,7.47539 3.52647,9.66079 2.13087,5.79723 5.16361,9.8143 8.91407,11.8073 1.81653,0.96531 2.63978,1.75512 1.82942,1.75512 -0.81037,0 -3.21108,-1.48739 -5.33493,-3.30531 -3.04787,-2.60889 -4.40597,-4.85573 -6.4456,-10.6637 -3.73539,-10.636887 -6.97709,-17.180846 -9.064167,-18.297833 -2.596542,-1.389619 -2.26005,-0.23486 1.020227,3.501141 1.56401,1.781306 2.83068,3.757105 2.81483,4.390605 -0.0158,0.633537 -0.50066,0.298817 -1.07735,-0.74388 -0.57666,-1.04266 -1.88204,-2.817578 -2.900831,-3.944191 -1.741259,-1.925585 -2.051537,-1.965213 -5.173667,-0.660715 -2.9509,1.232984 -3.573911,1.222225 -5.586236,-0.09637 -6.968004,-4.565618 -1.696157,-13.766807 7.203767,-12.573089 8.948147,1.200212 15.297517,7.433984 19.042777,18.696092 3.88121,11.67096 3.78065,11.57166 11.35636,11.21298 5.06348,-0.23975 6.25524,-0.0647 5.13109,0.754 -0.80535,0.58646 -3.26854,0.96326 -5.47378,0.83742 -2.20523,-0.12599 -2.66692,-0.0493 -1.02598,0.17 1.90975,0.25533 3.15134,1.04061 3.44978,2.1819 0.33355,1.27554 1.03568,1.63411 2.46682,1.25987 1.65907,-0.43387 2.00055,-0.0996 2.00055,1.9571 0,1.59064 -0.51838,2.48027 -1.44528,2.48027 -0.7949,0 -1.8549,1.0773 -2.35549,2.39399 -0.50061,1.31671 -1.55642,2.64198 -2.34626,2.94508 -1.13177,0.43429 -1.43605,2.31262 -1.43605,8.86456 0,6.23341 -0.35575,8.60876 -1.42183,9.49354 -1.24595,1.03405 -1.42183,12.54966 -1.42183,93.09957 0,82.99948 0.14896,92.17163 1.5343,94.51696 1.48037,2.50605 1.443,2.6887 -1.06302,5.1947 -3.6552,3.65517 -2.96717,8.94314 2.19874,16.89902 4.56749,7.03426 5.86823,10.21682 5.84013,14.28947 -0.0277,4.0206 -3.125,10.66366 -5.58592,11.9807 -2.61035,1.39703 -2.49632,0.46081 0.35693,-2.93012 4.98056,-5.91905 4.80487,-12.58601 -0.54115,-20.53589 -1.50809,-2.24262 -3.38137,-5.31397 -4.16284,-6.82516 -2.51852,-4.87028 -1.45637,-12.43828 2.03515,-14.5004 1.06933,-0.63158 1.04627,-1.21666 -0.13835,-3.5075 -1.23519,-2.3886 -1.4218,-14.82508 -1.4218,-94.74149 v -91.99194 l -9.24191,-0.01 c -9.21176,-0.01 -9.25183,-0.0205 -12.292239,-3.15045 -1.677683,-1.72722 -5.303332,-4.36865 -8.057021,-5.86985 -4.604671,-2.51031 -5.818409,-2.73354 -15.115689,-2.77987 -5.559942,-0.0275 -9.612151,0.28521 -9.004906,0.69535 0.607243,0.41015 -0.175589,0.48501 -1.73958,0.16635 -2.261924,-0.46085 -2.552792,-0.35709 -1.421828,0.50725 1.149738,0.87872 0.990986,0.96466 -0.829619,0.44908 -1.519072,-0.43019 -2.042646,-0.29977 -1.609566,0.40101 0.415455,0.67222 0.06815,0.81838 -0.984684,0.4144 -1.096146,-0.42064 -1.405243,-0.2661 -0.947886,0.47394 0.457365,0.74002 0.148287,0.89459 -0.947885,0.47396 -1.056553,-0.40544 -1.4005559,-0.25854 -0.981648,0.41931 0.354673,0.57389 0.145488,1.35212 -0.4649099,1.72936 -0.733125,0.4531 -0.854454,0.27273 -0.357468,-0.53142 0.504628,-0.8165 0.318778,-1.05981 -0.564455,-0.73889 -0.724244,0.26314 -1.223807,0.91738 -1.110137,1.45389 0.113663,0.53652 -0.501406,1.54953 -1.366815,2.25123 -1.107452,0.89793 -1.362654,0.92484 -0.861637,0.091 1.306388,-2.1745 -1.131624,-1.21865 -3.022239,1.18486 -1.757164,2.23385 -2.38598,2.3697 -10.969485,2.3697 h -9.1054641 v 92.20792 c 0,82.73647 -0.154773,92.42895 -1.506686,94.35904 -1.419967,2.02731 -1.365415,2.29235 0.947888,4.60567 4.385651,4.38561 3.310586,11.08957 -3.336873,20.80819 -5.112961,7.47524 -5.043865,15.24534 0.185045,20.81125 2.405518,2.56055 2.204802,3.58159 -0.415761,2.11503 z M 2.9973541,141.89506 c 4.110047,-4.24051 11.6869179,-7.97562 18.9001659,-9.31706 10.281293,-1.912 21.469549,1.38478 29.908397,8.81296 l 4.205867,3.70217 8.85945,-0.19494 8.85948,-0.19493 -8.4297,-0.3179 c -8.35098,-0.31497 -8.47047,-0.35418 -12.79645,-4.20104 -2.401737,-2.13573 -6.712789,-4.98881 -9.580145,-6.34018 -4.564654,-2.15129 -6.451856,-2.45942 -15.166179,-2.47623 -9.204348,-0.0174 -10.416124,0.20248 -16.114054,2.92842 -3.3886939,1.62118 -7.7219899,4.48321 -9.6295539,6.36007 -3.382718,3.32827 -3.675076,3.4203 -11.84857,3.72966 l -8.3802811,0.3172 9.0559411,0.19495 9.055949,0.19492 z M 29.89098,133.04951 c -1.173,-0.22591 -3.092476,-0.22591 -4.265481,0 -1.173009,0.22592 -0.213267,0.41078 2.132742,0.41078 2.346016,0 3.305747,-0.18484 2.132739,-0.41078 z m 53.792524,-14.08716 c 0,-1.03547 -0.5534,-1.31004 -1.82618,-0.90608 -2.62174,0.83211 -7.81118,-1.60978 -10.68882,-5.02966 -1.3605,-1.61687 -3.60588,-6.33948 -4.98968,-10.49468 -3.03869,-9.124333 -7.54109,-15.314897 -13.0934,-18.002715 -4.646967,-2.249577 -7.130063,-2.473157 -10.48583,-0.944165 -5.21279,2.375095 -4.761094,9.529154 0.641075,10.153748 3.439812,0.397717 5.538755,-1.420876 5.182009,-4.489834 -0.218677,-1.881179 -0.817343,-2.450846 -2.575623,-2.450846 -1.259894,0 -2.468442,0.533199 -2.685673,1.184861 -0.217242,0.651662 0.280412,1.184861 1.105875,1.184861 0.825442,0 1.500819,0.457818 1.500819,1.017386 0,1.922055 -3.317667,0.384632 -3.612088,-1.673847 -0.681524,-4.764679 7.278383,-4.56298 13.095546,0.331824 3.54651,2.984199 5.11132,5.915325 8.18531,15.332277 3.79551,11.62713 8.44493,16.1494 16.6921,16.23549 2.61139,0.0271 3.55456,-0.35711 3.55456,-1.44862 z m -4.99613,-2.87851 c -0.31498,-0.31498 -1.13254,-0.34866 -1.8168,-0.0748 -0.75614,0.30257 -0.53154,0.5272 0.57269,0.57267 0.99924,0.0413 1.55908,-0.18294 1.24411,-0.49783 z m -97.481651,260.76905 c -3.089748,-1.67926 -5.002435,-6.11469 -4.204156,-9.74923 0.334002,-1.52075 2.611444,-5.92105 5.060962,-9.77848 3.996247,-6.29313 4.450727,-7.57326 4.424938,-12.46378 l -0.02867,-5.45036 h 41.299512 41.299525 l -0.0285,5.45036 c -0.0258,4.89052 0.42871,6.17065 4.42494,12.46378 5.15406,8.11642 6.12612,11.43802 4.4978,15.36918 -2.31503,5.58894 -2.26698,5.58366 -50.383412,5.54206 -36.0571049,-0.0325 -44.328497,-0.278 -46.362623,-1.38353 z m 15.5750971,-0.85365 c -0.319526,-0.57337 -0.0066,-0.50926 0.6956,0.14224 0.963438,0.8942 8.390317,1.18485 30.2818209,1.18485 21.891505,0 29.318373,-0.29056 30.281823,-1.18485 0.70209,-0.65168 1.01323,-0.71276 0.69145,-0.13569 -0.40814,0.73187 1.48483,0.98738 6.25916,0.84492 8.79382,-0.2626 8.57141,-0.20527 7.87188,-2.02812 -0.49532,-1.29072 -0.35503,-1.35507 0.82283,-0.37751 1.18205,0.98102 1.61331,0.75392 2.57449,-1.35562 0.94919,-2.08324 0.91124,-2.68805 -0.21334,-3.39958 -1.79609,-1.13639 -2.78975,-1.11736 -2.78975,0.0534 0,0.52133 -0.49266,0.94786 -1.09482,0.94786 -0.69437,0 -0.56625,-0.60669 0.35028,-1.6588 0.79478,-0.91234 1.68033,-2.29861 1.96785,-3.08061 0.38165,-1.03793 0.543,-0.92276 0.59763,0.42655 0.0558,1.37666 0.34886,1.57436 1.14858,0.77464 1.35146,-1.35146 0.2859,-4.41118 -1.21351,-3.48453 -0.6774,0.41868 -0.84545,0.26689 -0.43679,-0.39428 1.02461,-1.65779 -1.06879,-4.73811 -3.44988,-5.07625 -1.72811,-0.2454 -2.09687,-0.8449 -1.93565,-3.14681 0.10958,-1.56399 -0.0316,-2.3143 -0.31315,-1.66729 -0.77408,1.77747 -2.83041,-0.63686 -3.62546,-4.25662 -0.44801,-2.03982 -1.07677,-2.81019 -2.00333,-2.45462 -0.78043,0.29949 -1.62468,-0.22354 -2.00018,-1.23895 -0.35737,-0.96644 -1.03657,-2.01771 -1.50929,-2.33614 -0.47276,-0.31852 -0.18393,-0.83827 0.64176,-1.15513 1.13033,-0.43376 1.50131,0.0287 1.50131,1.8653 0,1.95539 0.33021,2.30436 1.65881,1.7531 0.91233,-0.37855 2.19199,-0.70855 2.84365,-0.73336 0.65166,-0.0251 1.18486,-0.36561 1.18486,-0.75743 0,-0.39179 0.24075,-1.33981 0.53504,-2.10667 0.46565,-1.21353 -4.75673,-1.39815 -40.284381,-1.42428 l -40.819388,-0.0288 0.646503,2.53162 c 0.355569,1.39239 0.594327,3.28728 0.53053,4.21091 -0.06383,0.92357 0.302118,1.42089 0.813099,1.10508 0.510983,-0.31565 0.658087,-1.428 0.326874,-2.47153 -0.522475,-1.6462 -0.355822,-1.76553 1.2586421,-0.90149 2.123181,1.13629 3.057987,0.55265 3.057987,-1.90927 0,-1.11563 0.484719,-1.52206 1.397462,-1.17182 1.231371,0.47251 1.231371,0.70238 0,1.93375 -0.768602,0.76861 -1.397462,1.83917 -1.397462,2.37905 0,0.53986 -0.624141,0.74209 -1.386969,0.44937 -0.995347,-0.38197 -1.560421,0.39236 -2.001263,2.74223 -0.3378691,1.80097 -0.9281871,3.27446 -1.3118451,3.27446 -0.383647,0 -1.191522,0.95973 -1.795279,2.13275 -1.077516,2.09352 -1.08659,2.08912 -0.492567,-0.23712 l 0.605149,-2.36974 -1.945669,2.36974 c -1.764365,2.14888 -1.798208,2.42973 -0.363189,3.01398 1.267871,0.51623 1.165101,0.65755 -0.516912,0.71089 -2.66777,0.0845 -4.030447,2.60505 -3.372646,6.23799 0.656876,3.62775 1.925519,5.20327 4.18974,5.20327 1.025529,0 2.172025,0.9702 2.658462,2.24963 0.492039,1.29412 1.991793,2.55155 3.5311111,2.96053 1.471699,0.39101 2.217104,0.88231 1.656449,1.09183 -1.684212,0.62931 -6.5637191,-1.93196 -6.5637191,-3.44532 0,-0.77486 -0.853097,-1.57072 -1.895772,-1.76846 -1.042677,-0.19776 -2.14315,-0.75127 -2.4455,-1.22996 -0.665423,-1.0535 -3.715756,-0.025 -3.715756,1.2534 0,0.49977 0.456292,1.76136 1.013988,2.80342 0.861041,1.60888 1.245929,1.7067 2.551672,0.64863 1.280441,-1.03761 1.407637,-1.03014 0.760333,0.0448 -1.177951,1.95608 0.565219,2.53263 7.9059701,2.61505 4.582581,0.0512 6.480307,-0.25043 6.080673,-0.96768 z m 67.6356039,-1.09299 c 1.65454,-0.72472 3.28285,-2.18284 3.61846,-3.24027 0.33562,-1.05745 1.06023,-1.9226 1.61028,-1.9226 0.61449,0 0.53777,0.55702 -0.19893,1.44474 -0.65947,0.79462 -0.91786,1.72591 -0.57422,2.06955 0.66798,0.668 -4.5891,3.17286 -6.38779,3.04359 -0.59182,-0.0426 0.27769,-0.67029 1.93222,-1.39501 z m -43.258929,-3.69954 c -0.630044,-0.75913 -0.870376,-1.82551 -0.534056,-2.36967 0.336332,-0.5442 0.18851,-0.98942 -0.328483,-0.98942 -0.516968,0 -1.20879,0.84704 -1.537379,1.88235 -0.483533,1.52347 -1.225878,1.80188 -3.894017,1.46023 -1.813126,-0.23216 -4.419226,-1.30512 -5.7913389,-2.38441 -1.3721,-1.07933 -2.741016,-1.60932 -3.042019,-1.17781 -0.301007,0.4315 -1.608288,0.85179 -2.905052,0.93405 -1.812251,0.11507 -2.031563,-0.0567 -0.947883,-0.74187 1.329088,-0.84034 0.682057,-1.30014 -1.433786,-1.01895 -0.521334,0.0692 -0.09981,-0.53471 0.936734,-1.34225 1.591879,-1.24011 2.033582,-1.26446 2.843654,-0.15653 0.52747,0.7214 1.385594,1.38098 1.906928,1.46581 2.452503,0.3991 4.2654849,1.28793 4.2654849,2.09127 0,0.48616 0.451726,0.88398 1.003829,0.88398 0.552108,0 0.770074,-0.37821 0.484381,-0.84047 -0.285707,-0.4623 0.197542,-1.42203 1.073897,-2.13278 1.175378,-0.95325 1.401384,-0.97295 0.861546,-0.0748 -0.547208,0.91013 -0.07452,1.09795 1.874005,0.74465 1.433198,-0.25977 2.900913,-0.95004 3.261592,-1.53366 0.43612,-0.70565 0.856492,-0.53805 1.254942,0.50034 0.329526,0.85874 0.999253,1.3141 1.488248,1.01186 0.488997,-0.30235 1.163541,-0.10541 1.498976,0.43738 0.335438,0.54277 0.09835,0.86964 -0.526928,0.7264 -0.625252,-0.14334 -1.332423,0.27299 -1.571489,0.92502 -0.28829,0.78629 0.150568,0.99559 1.303341,0.62149 1.445003,-0.46891 1.498313,-0.39157 0.316162,0.45877 -1.189539,0.85571 -1.087889,1.02517 0.622175,1.03731 1.640239,0.0109 1.944009,-0.40678 1.537792,-2.11822 -0.2784,-1.173 -1.173105,-2.66594 -1.988199,-3.31757 -0.815097,-0.65171 -1.026145,-1.18488 -0.468998,-1.18488 1.317203,0 2.816292,1.87911 3.402875,4.2655 0.355999,1.44832 0.491928,1.28242 0.575943,-0.70289 0.06917,-1.63546 -0.574864,-3.02634 -1.737629,-3.7525 -1.483684,-0.92658 -1.623702,-1.42726 -0.710913,-2.54209 0.949142,-1.15927 0.794901,-1.30031 -0.93486,-0.85476 -1.189406,0.30632 -2.257561,0.0488 -2.508399,-0.60488 -0.298248,-0.77728 0.44324,-1.00934 2.336898,-0.7314 2.137371,0.31384 2.652041,0.79067 2.243193,2.07886 -0.330133,1.04014 0.06266,1.89944 1.039621,2.27433 1.980875,0.76013 4.228578,-1.02763 3.541893,-2.81706 -0.490371,-1.27788 2.317013,-1.92341 6.135973,-1.41091 0.743502,0.0999 0.495357,-0.5772 -0.620641,-1.69318 -1.022681,-1.02269 -2.646515,-1.7934 -3.608502,-1.7127 -1.072484,0.0898 -1.753337,-0.48096 -1.76009,-1.47576 -0.0059,-0.89232 -0.539222,-2.15063 -1.184853,-2.79626 -1.430053,-1.43004 -3.5151,0.22031 -3.532555,2.79626 -0.0066,0.9948 -0.687598,1.56563 -1.760085,1.47576 -0.96199,-0.0807 -2.561548,0.6657 -3.554572,1.65875 -0.993023,0.99299 -1.378949,1.80548 -0.857609,1.80548 1.306585,0 1.195775,2.57854 -0.14646,3.4081 -0.678023,0.41904 -0.83704,0.26008 -0.417999,-0.41798 0.371993,-0.6019 0.248846,-1.09437 -0.27367,-1.09437 -1.05407,0 -0.935534,-5.52987 0.155742,-7.26516 0.381808,-0.60713 0.158354,-1.3199 -0.496564,-1.58396 -0.886431,-0.35753 -0.858278,-0.49916 0.110167,-0.55489 1.102637,-0.0633 1.102637,-0.31919 0,-1.67859 -0.857316,-1.05693 -0.901249,-1.36379 -0.128843,-0.89989 0.878699,0.52775 0.965915,0.15791 0.348402,-1.47683 -0.510216,-1.35083 -1.56962,-2.15409 -2.783762,-2.11059 -1.078037,0.0387 -1.742835,-0.28124 -1.477313,-0.7109 0.869132,-1.40631 3.174168,-0.82005 4.382388,1.11467 1.157516,1.85345 2.734469,2.59745 2.511433,1.18484 -0.386955,-2.45069 0.448938,-2.8277 5.781171,-2.60748 3.117914,0.12897 5.441777,-0.13317 5.164147,-0.58255 -0.277647,-0.44926 0.157201,-0.56273 0.966274,-0.25218 1.35333,0.5193 1.868117,1.63849 1.583308,3.4423 -0.223053,1.41259 1.353912,0.6686 2.511434,-1.18487 1.208212,-1.9347 3.51325,-2.52096 4.382388,-1.11466 0.265535,0.42959 -0.455775,0.74951 -1.602859,0.71091 -1.466558,-0.0496 -2.096088,0.49283 -2.12088,1.82671 -0.01927,1.04331 -0.341993,2.39312 -0.716819,2.99967 -0.374853,0.60652 -0.145713,1.31881 0.509208,1.58285 0.922954,0.37205 0.911703,0.49691 -0.05003,0.55487 -0.751919,0.0456 -0.947559,0.54166 -0.496553,1.25969 1.129872,1.7988 1.28526,7.34612 0.205786,7.34612 -0.522506,0 -0.645658,0.49244 -0.273675,1.09437 0.419042,0.67798 0.260017,0.83701 -0.418,0.41798 -0.601882,-0.37201 -1.094343,-1.23185 -1.094343,-1.91077 0,-0.80851 -0.82489,-1.0768 -2.390726,-0.77744 -1.694893,0.3239 -2.122752,0.7799 -1.470028,1.56641 0.631212,0.76056 0.33977,1.47221 -0.926853,2.26321 -1.162765,0.72617 -1.806832,2.11705 -1.737631,3.7525 0.084,1.98534 0.219938,2.15123 0.575936,0.7029 0.596955,-2.42859 2.094768,-4.26952 3.458688,-4.25101 0.644242,0.009 0.566564,0.33282 -0.195544,0.81601 -1.0135,0.64246 -0.959359,0.91847 0.27285,1.39134 0.936098,0.3592 1.760066,0.0109 2.107157,-0.89546 0.383553,-0.9995 0.78446,-1.13826 1.225752,-0.42422 0.360683,0.58359 1.828397,1.27369 3.261594,1.53359 1.855014,0.33638 2.405189,0.14785 1.909512,-0.65412 -0.438535,-0.70961 -0.291192,-0.87625 0.398036,-0.45031 2.187692,1.35208 3.01569,-0.53277 0.963901,-2.19424 -1.164709,-0.94311 -1.769831,-2.15449 -1.386262,-2.7751 0.970148,-1.56975 2.769481,-1.3674 2.151905,0.24181 -0.283523,0.73882 0.09739,1.57855 0.846481,1.86601 1.770347,0.67935 1.730073,2.24522 -0.10501,4.08029 -0.806824,0.80682 -1.210187,1.72374 -0.89635,2.03759 0.313837,0.31383 0.967444,-0.0572 1.452456,-0.82377 0.538404,-0.85132 0.887495,-0.95473 0.896355,-0.26546 0.01968,1.53418 -1.2315,2.19223 -5.113607,2.68929 -2.654509,0.33994 -3.398096,0.0598 -3.881069,-1.46196 -0.715679,-2.25493 -2.209483,-2.51682 -2.02316,-0.35467 0.214668,2.49095 -2.813291,3.90054 -5.190192,2.41613 -1.442242,-0.90066 -2.300818,-0.96572 -3.036512,-0.22999 -1.44372,1.44374 -3.999607,1.27441 -5.351531,-0.35468 z m 12.762004,-1.22633 c 0,-0.65169 -0.378856,-1.14848 -0.841912,-1.10392 -0.463042,0.0445 -1.20297,-0.48865 -1.644282,-1.18485 -0.555352,-0.87609 -0.806843,-0.91556 -0.816894,-0.12786 -0.0073,0.62577 0.731952,1.6177 1.644288,2.20432 1.521767,0.97843 1.524266,1.02489 0.0305,0.56245 -0.895648,-0.27731 -1.902731,-0.0602 -2.237965,0.48209 -0.373205,0.60389 0.25809,0.86344 1.628459,0.66951 1.230865,-0.17407 2.237945,-0.84986 2.237945,-1.50152 z m -18.483773,0.35287 c 0,-0.19668 -0.649586,-0.897 -1.443522,-1.5559 -1.206995,-1.00172 -1.345698,-0.94306 -0.846473,0.35791 0.50986,1.32864 2.289995,2.25993 2.289995,1.19799 z m 2.660595,-2.03692 c -0.291834,-0.29198 -0.821866,0.23431 -1.177825,1.16906 -0.514398,1.35094 -0.405525,1.45981 0.530628,0.53063 0.647801,-0.643 0.939038,-1.40783 0.647197,-1.69969 z m 20.415761,0.93209 c -0.308702,-0.80448 -0.76459,-1.25942 -1.013057,-1.01098 -0.24848,0.24866 -0.170596,0.90673 0.173024,1.46275 0.934678,1.5123 1.480963,1.21849 0.840027,-0.45177 z m 3.858665,-0.0932 c 0.499231,-1.30096 0.360528,-1.35959 -0.846465,-0.3579 -1.644816,1.36511 -1.815991,1.91383 -0.597058,1.91383 0.465565,0 1.115155,-0.7002 1.443523,-1.55593 z M 20.672929,356.43423 c 0.335329,-0.54253 1.426854,-0.72706 2.42566,-0.41005 0.998796,0.31704 1.815995,0.15654 1.815995,-0.35645 0,-0.51305 -0.53205,-1.11012 -1.182332,-1.32687 -0.728679,-0.24292 -0.364987,-0.83156 0.947882,-1.53418 1.302153,-0.69691 2.13022,-2.0265 2.13022,-3.4205 0,-2.49516 -1.414367,-3.93809 -2.360159,-2.40772 -0.327444,0.52978 -1.021924,0.96332 -1.54326,0.96332 -0.521339,0 -0.643539,-0.49244 -0.271557,-1.09434 0.422406,-0.6835 0.259664,-0.83685 -0.433457,-0.40849 -1.517483,0.9379 -0.357361,2.56198 1.59928,2.23886 2.830701,-0.4674 1.688809,2.54865 -1.336251,3.52944 -1.813156,0.58787 -2.759336,1.43954 -2.491151,2.24238 0.237813,0.71195 -0.152756,1.66515 -0.867977,2.1182 -0.859347,0.54437 -0.917499,0.8287 -0.171471,0.83829 0.620902,0.009 1.403258,-0.42937 1.738575,-0.97196 z m 15.737723,0.13364 c -0.715205,-0.45307 -1.105804,-1.40624 -0.867972,-2.11821 0.268191,-0.80284 -0.677998,-1.65452 -2.491147,-2.24238 -1.996326,-0.64726 -3.024019,-1.65768 -3.240267,-3.18583 -0.204313,-1.4439 0.05343,-2.0092 0.726384,-1.5933 0.573683,0.35468 0.768181,1.08942 0.432216,1.63301 -0.653973,1.05813 1.235239,2.6338 3.186605,2.6577 0.65167,0.009 1.184855,-0.41207 1.184855,-0.93337 0,-0.52135 -0.93462,-0.94796 -2.076941,-0.94796 -1.973872,0 -1.990265,-0.0633 -0.330346,-1.27711 1.363714,-0.99712 1.475211,-1.44485 0.508656,-2.0422 -0.818233,-0.50572 -1.008644,-0.39409 -0.561599,0.32924 0.37199,0.6019 0.24978,1.09436 -0.27156,1.09436 -0.521329,0 -1.215796,-0.43353 -1.543253,-0.96333 -0.945786,-1.53033 -2.360163,-0.0873 -2.360163,2.40774 0,1.39398 0.828068,2.72358 2.130223,3.42048 1.312873,0.70263 1.676565,1.29127 0.947886,1.53418 -0.650289,0.21675 -1.182341,0.81385 -1.182341,1.32686 0,0.51303 0.817207,0.67341 1.815998,0.35648 0.998812,-0.31706 2.09035,-0.13241 2.425654,0.41006 0.335332,0.54255 1.117677,0.97994 1.73858,0.97192 0.746027,-0.0109 0.687875,-0.29377 -0.171469,-0.83825 z M 23.41523,351.15804 c 2.378536,-0.91273 1.740128,-2.05145 -0.870358,-1.5524 -1.303341,0.24901 -2.369716,0.82979 -2.369716,1.29037 0,0.97804 1.134962,1.06982 3.240074,0.26189 z m 33.105324,20.15956 c -0.34631,-0.60522 -0.28061,-0.78422 0.14599,-0.39773 0.42661,0.38645 1.31011,0.25904 1.96335,-0.28304 0.82286,-0.68288 1.37637,-0.68033 1.80196,0.009 0.33784,0.54661 0.48246,1.02653 0.32135,1.06643 -2.52376,0.62486 -3.71305,0.51419 -4.23266,-0.39394 z m -6.960942,-3.5589 c 0,-0.43979 -0.533186,-0.66966 -1.184855,-0.51081 -0.651669,0.15867 -0.8756,0.11364 -0.497638,-0.10105 0.377968,-0.21423 1.017795,-0.42196 1.421825,-0.46147 0.404039,-0.0396 1.166186,-0.662 1.693672,-1.38338 0.810066,-1.10785 1.251768,-1.08353 2.843648,0.15654 1.03653,0.80755 1.45806,1.41154 0.93673,1.34224 -2.05274,-0.27264 -2.780535,0.16771 -1.55761,0.94243 0.90761,0.57513 0.55894,0.81489 -1.18487,0.81489 -1.358991,0 -2.470902,-0.35982 -2.470902,-0.79966 z M 9.7484131,365.44804 c 0,-0.79837 0.6128949,-1.68677 1.3619779,-1.97418 0.749086,-0.28733 1.129994,-1.12719 0.846472,-1.86603 -0.617577,-1.60938 1.181767,-1.81171 2.151911,-0.24183 0.381968,0.61804 -0.1998,1.81439 -1.325581,2.72599 -1.103453,0.89352 -1.740054,1.89083 -1.414664,2.21619 0.325404,0.32529 0.09397,0.59164 -0.514246,0.59164 -0.608232,0 -1.1058699,-0.65322 -1.1058699,-1.45157 z m -2.239637,-0.23357 c -0.250672,-0.40558 0.354495,-1.79185 1.344814,-3.08061 1.3610509,-1.77125 1.8057029,-1.96305 1.8216269,-0.78581 0.01158,0.85655 -0.645773,1.81326 -1.4608239,2.12602 -0.81505,0.31275 -1.216422,0.99826 -0.891949,1.52327 0.324471,0.52497 0.376688,0.95455 0.115991,0.95455 -0.260664,0 -0.679026,-0.33171 -0.929689,-0.73742 z m 39.5546019,-0.009 c 0.352204,-0.56986 -0.0636,-1.43003 -0.923981,-1.91154 -0.860389,-0.4815 -1.383132,-1.41904 -1.161657,-2.08346 0.254263,-0.76275 0.994299,-0.30524 2.007802,1.24171 1.150126,1.75532 1.297893,2.63956 0.521308,3.11956 -0.64599,0.39923 -0.825127,0.25113 -0.443472,-0.36627 z m -31.805375,-0.85232 c 0.684246,-0.2737 1.501795,-0.24003 1.816778,0.0748 0.314981,0.31489 -0.244864,0.53899 -1.244099,0.49782 -1.104241,-0.0456 -1.32884,-0.27014 -0.572679,-0.57266 z m 23.584647,0.0376 c 0.622393,-0.25327 0.89457,-1.07802 0.604871,-1.83298 -0.289722,-0.75498 -0.07689,-1.91471 0.472963,-2.57722 0.632445,-0.76207 0.676742,-1.71529 0.12056,-2.59467 -1.272698,-2.01223 -1.105372,-4.81632 0.276682,-4.63686 2.685366,0.34859 4.577841,-0.12974 4.028514,-1.01864 -0.322213,-0.52133 0.09422,-0.94788 0.925295,-0.94788 1.236192,0 1.319373,0.35827 0.457182,1.96926 -0.660427,1.23406 -1.607684,1.75684 -2.537131,1.40015 -1.232795,-0.47308 -1.280938,-0.32531 -0.285172,0.87436 0.759411,0.91503 0.825744,1.44354 0.181174,1.44354 -0.55926,0 -1.451625,-0.74644 -1.98301,-1.65882 -0.847251,-1.45464 -0.969706,-1.46892 -0.994983,-0.11614 -0.03615,1.93107 2.398871,4.03959 3.721203,3.22233 0.544168,-0.33639 0.989398,-1.22614 0.989398,-1.97735 0,-1.7954 1.542919,-1.75684 2.238557,0.0557 0.618285,1.61128 3.44876,1.95433 3.44876,0.41799 0,-0.55207 -0.397085,-0.75839 -0.882391,-0.45847 -0.485319,0.29985 -1.132089,0.14113 -1.437286,-0.35253 -0.305198,-0.49377 -0.159891,-1.14197 0.322901,-1.44035 1.257232,-0.77698 3.653617,0.3174 4.282347,1.95587 0.29497,0.76879 0.16301,1.16703 -0.29328,0.88504 -0.45629,-0.28195 -1.365665,0.13332 -2.020828,0.92257 -1.061596,1.27915 -1.372413,1.27128 -2.856947,-0.0724 -1.171817,-1.06048 -1.861495,-1.19077 -2.325879,-0.4394 -0.363065,0.58746 -1.729694,1.47476 -3.036945,1.97177 -1.933583,0.73517 -2.266578,1.34294 -1.785629,3.25917 0.466232,1.85762 0.236796,2.33962 -1.085682,2.2806 -0.922278,-0.0413 -1.167638,-0.28192 -0.545255,-0.53519 z m -39.4757179,-1.23718 c -0.757114,-0.47899 -1.759407,-0.63424 -2.227313,-0.34501 -0.467911,0.28911 -0.366635,-0.37879 0.225054,-1.48436 1.065661,-1.99124 3.852757,-2.81575 3.852757,-1.13979 0,0.47869 0.258912,1.54503 0.57536,2.36972 0.641841,1.67261 -0.344285,1.91632 -2.425872,0.59949 z m 54.3567419,-0.59951 c 0.31644,-0.82467 0.57538,-1.89101 0.57538,-2.36973 0,-1.61905 2.77004,-0.88326 3.78012,1.00408 0.80016,1.49513 0.7304,1.76977 -0.34472,1.3572 -0.74133,-0.28447 -1.62946,-0.0617 -1.97364,0.49528 -0.98197,1.58888 -2.6781,1.18352 -2.03714,-0.48683 z M 3.3027891,361.96792 c -0.625603,-0.62561 -1.130933,-1.58536 -1.122951,-2.13277 0.0075,-0.54738 0.428,-0.35538 0.933377,0.42659 0.61257,0.94784 0.923694,1.02686 0.933371,0.23681 0.0075,-0.65169 0.466238,-1.18486 1.018343,-1.18486 0.552104,0 0.784137,0.35536 0.51564,0.78989 -0.268513,0.43447 0.114105,0.78994 0.85024,0.78994 0.736139,0 1.118755,-0.3554 0.850246,-0.78994 -0.26851,-0.43445 -0.03647,-0.78989 0.515644,-0.78989 0.552104,0 1.003831,0.3414 1.003831,0.75831 0,1.10712 -2.106699,3.03326 -3.317602,3.03326 -0.573473,0 -1.554536,-0.51189 -2.180139,-1.13749 z m 11.9138609,-0.5458 c -0.336475,-1.2866 -1.285225,-2.10829 -2.434425,-2.10829 -1.035709,0 -2.150904,-0.69788 -2.478218,-1.55088 -0.5494789,-1.43185 -0.7285759,-1.43004 -2.3352199,0.0251 -1.548051,1.40097 -1.871561,1.41638 -2.93129,0.13945 -0.655162,-0.78944 -1.611974,-1.17527 -2.126261,-0.85743 -0.514272,0.31778 -0.437161,-0.35252 0.171354,-1.48945 1.068514,-1.99654 4.218376,-2.45674 3.635257,-0.53116 -0.157873,0.52135 -0.606951,0.84127 -0.997955,0.71092 -0.391004,-0.13034 -0.710918,0.18947 -0.710918,0.71093 0,1.84485 2.916628,0.91695 3.724476,-1.18486 0.815065,-2.12062 0.825532,-2.11793 1.8417679,0.47393 0.562114,1.43366 1.406918,2.60669 1.877316,2.60669 1.402389,0 3.199816,-2.68678 2.673694,-3.99663 -0.307206,-0.76484 -0.516523,-0.60069 -0.563557,0.44206 -0.04112,0.91235 -0.766892,1.65881 -1.612724,1.65881 -1.269819,0 -1.329072,-0.2515 -0.339876,-1.44356 0.995752,-1.19978 0.94761,-1.34743 -0.285174,-0.87434 -0.929448,0.3568 -1.876699,-0.16617 -2.5371369,-1.40018 -0.862186,-1.61094 -0.779009,-1.96924 0.4571859,-1.96924 0.831115,0 1.247499,0.42659 0.925296,0.9479 -0.549328,0.88883 1.343145,1.36738 4.028513,1.01865 1.382056,-0.17947 1.549377,2.62462 0.276682,4.63686 -0.554236,0.87635 -0.515753,1.82793 0.104117,2.57484 0.540808,0.65161 0.804446,1.7213 0.585851,2.37706 -0.218571,0.65575 -0.64552,0.24362 -0.948757,-0.91603 z m 32.428178,0.2386 c -1.627449,-1.96095 -0.422361,-2.93797 1.599888,-1.29703 1.076335,0.87336 1.385865,0.91909 0.914852,0.13505 -0.391515,-0.65165 -0.260139,-1.18481 0.291982,-1.18481 0.552107,0 1.010366,0.53316 1.018352,1.18481 0.0096,0.78995 0.320791,0.71092 0.933362,-0.23679 0.50538,-0.782 0.9254,-0.97394 0.93339,-0.42659 0.0193,1.32889 -1.985143,3.27025 -3.37663,3.27025 -0.613893,0 -1.655737,-0.65014 -2.315203,-1.44475 z m -53.5908429,-1.79537 c -1.011158,-0.7394 -1.519234,-1.66354 -1.129054,-2.05379 0.390187,-0.39016 0.709429,-0.21172 0.709429,0.39648 0,0.60825 0.639817,1.10589 1.421825,1.10589 0.782006,0 1.421829,0.42655 1.421829,0.94788 0,1.24089 -0.238096,1.20194 -2.424029,-0.39646 z m 64.9844789,0.4298 c 0,-0.53971 0.60429,-0.98122 1.34285,-0.98122 0.73855,0 1.55798,-0.5332 1.82093,-1.18488 0.36036,-0.89309 0.49653,-0.90127 0.55294,-0.0323 0.041,0.63337 -0.77826,1.60814 -1.82094,2.16615 -1.28532,0.68787 -1.89578,0.69862 -1.89578,0.0325 z m -61.6182619,-4.30394 c -0.998265,-1.20285 -0.727636,-1.58842 1.711976,-2.43884 2.038657,-0.71072 2.79958,-1.51956 2.566782,-2.72838 -0.248917,-1.29242 0.12023,-1.60026 1.489562,-1.24214 1.00125,0.26187 1.820461,1.05112 1.820461,1.75399 0,1.35706 -3.210704,3.50527 -4.023753,2.69223 -0.264824,-0.26478 -0.742558,0.19883 -1.061662,1.03045 -0.336082,0.87579 -0.185929,1.26824 0.356821,0.93284 0.515364,-0.31851 0.937035,-0.12754 0.937035,0.42469 0,1.48851 -2.435404,1.21605 -3.797239,-0.42484 z m 56.8788519,0.42484 c 0,-0.55212 0.49245,-0.6995 1.09433,-0.32744 0.65316,0.40369 0.838,0.26152 0.4585,-0.35253 -0.7794,-1.26106 0.91522,-2.45171 2.28473,-1.6053 0.67944,0.41991 0.64273,1.03739 -0.11603,1.9517 -1.30054,1.56709 -3.72151,1.78411 -3.72151,0.33354 z m -7.583093,-2.59813 c 0,-0.41709 0.448453,-1.20677 0.996557,-1.7549 0.696817,-0.6968 0.29556,-1.45586 -1.334085,-2.52362 -2.013424,-1.31926 -2.403063,-1.33844 -2.862584,-0.14083 -0.593439,1.54645 -4.382976,1.92542 -4.382976,0.4383 0,-0.52134 0.0047,-1.26779 0.01078,-1.65881 0.0059,-0.39097 0.539017,-0.72215 1.184864,-0.73595 0.645839,-0.014 1.788906,-0.40919 2.540151,-0.87871 0.88611,-0.55383 1.497782,-0.45801 1.741414,0.27296 0.678305,2.03492 3.981427,3.24968 5.472189,2.01249 1.910764,-1.58584 3.885373,-0.53822 4.438393,2.35474 0.5245,2.7437 -0.85844,4.33797 -1.74927,2.0165 -0.31162,-0.81205 -0.948436,-1.24044 -1.415142,-0.95201 -0.466699,0.28838 -0.848558,-0.10923 -0.848558,-0.88383 0,-0.77456 0.74646,-1.60334 1.65879,-1.84175 1.54368,-0.40342 1.54537,-0.44114 0.0244,-0.54343 -0.9254,-0.0622 -2.272366,1.12362 -3.104958,2.73369 -1.438484,2.78169 -2.369712,3.60119 -2.369712,2.08536 z m -3.791542,-4.89928 c 0,-0.50494 -0.639832,-0.67262 -1.421836,-0.37252 -0.782004,0.30022 -1.421824,0.71323 -1.421824,0.91813 0,0.20495 0.63982,0.37253 1.421824,0.37253 0.782004,0 1.421836,-0.41318 1.421836,-0.91814 z m -36.0196639,3.7618 c 0,-0.52135 -0.853096,-1.80101 -1.895773,-2.84366 -1.042671,-1.04265 -1.494397,-1.89577 -1.00383,-1.89577 0.490573,0 1.155568,0.42657 1.477776,0.9479 0.889694,1.43954 2.17072,1.14684 4.300053,-0.98248 1.1244679,-1.12446 2.4105659,-1.62956 3.0806299,-1.20989 0.632656,0.39621 1.79011,0.73169 2.572115,0.74549 0.782008,0.0141 1.42183,0.6649 1.42183,1.44688 0,1.93635 -4.120869,2.42768 -4.831401,0.57604 -0.49799,-1.29774 -0.802586,-1.29204 -2.8560029,0.0535 -1.798939,1.17868 -2.063686,1.78904 -1.218021,2.80798 0.790754,0.95284 0.795199,1.302 0.01656,1.302 -0.585189,0 -1.063966,-0.42656 -1.063966,-0.94786 z m 8.5309709,-3.21619 c 0,-0.2049 -0.639822,-0.61804 -1.421829,-0.91813 -0.782003,-0.30019 -1.421827,-0.13253 -1.421827,0.37252 0,0.50496 0.639824,0.91814 1.421827,0.91814 0.782007,0 1.421829,-0.16771 1.421829,-0.37253 z m -16.8249699,-5.96612 c -0.651672,-0.25007 -1.184856,-0.89775 -1.184856,-1.43949 0,-0.5735 0.624141,-0.46699 1.494073,0.2551 0.883529,0.73327 1.755059,0.8775 2.132746,0.35286 0.351269,-0.48778 1.612447,-0.92226 2.802632,-0.96552 1.190185,-0.0432 1.830001,0.22177 1.421828,0.58853 -1.083095,0.97364 -5.290358,1.73632 -6.666423,1.20845 z m 54.2664679,-0.025 c -2.86603,-0.68936 -3.670283,-1.86156 -1.216098,-1.77242 1.190188,0.0432 2.451378,0.4777 2.802638,0.96558 0.37768,0.52447 1.24921,0.3802 2.13276,-0.3529 0.82906,-0.68803 1.49406,-0.81152 1.49406,-0.2773 0,0.7808 -2.56841,2.40994 -3.15814,2.00326 -0.0878,-0.0605 -1.01256,-0.31525 -2.05522,-0.56598 z m -72.513268,21.81382 c 0,-1.90624 -0.273998,-2.2853 -1.073745,-1.48554 -0.590565,0.59052 -0.817235,1.74219 -0.503696,2.55924 0.86772,2.26127 1.577441,1.77819 1.577441,-1.0737 z m 91.470968,-8.81544 c -0.32221,-0.52133 -0.98718,-0.94786 -1.47774,-0.94786 -0.49058,0 -0.89194,0.42653 -0.89194,0.94786 0,0.52135 0.66498,0.94791 1.47777,0.94791 0.81275,0 1.21412,-0.42656 0.89191,-0.94791 z m -82.939999,-5.68731 c 0,-0.52134 -0.188084,-0.94787 -0.417998,-0.94787 -0.229893,0 -0.681626,0.42653 -1.003829,0.94787 -0.322217,0.52135 -0.134094,0.94792 0.417997,0.94792 0.552105,0 1.00383,-0.42657 1.00383,-0.94792 z m 78.903849,-1.4358 c -0.25065,-1.31105 -0.90378,-2.66069 -1.45147,-2.99915 -0.62683,-0.38743 -0.7605,-0.002 -0.36076,1.03942 0.34925,0.91013 0.63502,2.25976 0.63502,2.99914 0,0.73935 0.36741,1.34431 0.81644,1.34431 0.44906,0 0.61138,-1.0727 0.36077,-2.38372 z M 6.6677831,336.80476 c 11.5997539,-0.15084 30.5811609,-0.15084 42.1809209,0 11.59975,0.15084 2.109044,0.27405 -21.090463,0.27405 -23.1995049,0 -32.6902079,-0.12316 -21.0904579,-0.27405 z m -22.5122881,-3.0816 c 0,-0.61817 15.1661761,-0.94786 43.602746,-0.94786 28.436563,0 43.602763,0.32958 43.602763,0.94786 0,0.6182 -15.1662,0.94792 -43.602763,0.94792 -28.4365699,0 -43.602746,-0.32957 -43.602746,-0.94792 z m 0.663798,-3.16462 c -0.267797,-0.6979 -0.199513,-2.67414 0.151756,-4.39166 0.599082,-2.92922 0.725797,-3.01556 2.044305,-1.39283 0.773099,0.9515 0.920938,1.43963 0.32856,1.08472 -0.616974,-0.36955 -1.27993,0.13035 -1.551909,1.17047 -0.411942,1.57529 0.01328,1.79644 3.209834,1.67019 2.0265611,-0.0804 3.6846481,-0.47538 3.6846481,-0.87853 0,-0.40311 -0.426545,-0.73291 -0.947884,-0.73291 -1.45652,0 -1.12642,-1.85289 0.645332,-3.6223 1.49188,-1.48987 1.554695,-1.44347 0.987555,0.72931 -0.333107,1.27621 -0.189627,2.82173 0.318918,3.43445 0.508519,0.61271 0.658307,1.80792 0.332857,2.65602 -0.752406,1.96073 -8.4684791,2.18965 -9.2039441,0.27298 z m 77.486731,0.40195 c 0.29472,-0.47681 -4e-5,-1.0633 -0.65496,-1.30335 -0.92596,-0.33926 -0.89634,-0.72624 0.13317,-1.73976 0.72816,-0.71683 1.0398,-0.79753 0.69257,-0.17906 -0.44939,0.80005 0.57288,1.08472 3.54711,0.98768 2.97802,-0.097 4.04403,-0.48653 3.71057,-1.3555 -0.25733,-0.67057 -0.84973,-0.98327 -1.31643,-0.69483 -0.46673,0.28839 -0.84859,-0.14036 -0.84859,-0.95334 0,-0.81276 0.5332,-1.53391 1.18486,-1.60254 0.65168,-0.0683 -0.30807,-0.45644 -2.13273,-0.86187 l -3.31761,-0.73706 3.28415,0.15083 c 2.93394,0.13474 3.35407,0.49576 3.94006,3.38451 0.98054,4.83371 0.24333,5.77138 -4.53791,5.77138 -2.32101,0 -3.97891,-0.39015 -3.68422,-0.86695 z m -51.709358,-2.55675 c -1.5663799,-1.66731 -3.1443179,-2.2641 -5.9898819,-2.2653 l -3.863291,-0.002 -0.304944,-56.63449 c -0.167695,-31.14874 -0.02293,-60.15328 0.322072,-64.45432 0.626049,-7.80821 0.631061,-7.82007 3.313939,-7.82007 1.477819,0 6.0249199,1.34916 10.1046779,2.99811 11.059713,4.4701 15.114601,4.53595 25.775859,0.41856 4.86577,-1.87917 10.03931,-3.41667 11.496744,-3.41667 2.625343,0 2.656113,0.0706 3.323793,7.61308 0.37065,4.18716 0.3987,32.65929 0.0622,63.27136 -0.33639,30.6121 -0.59525,56.19152 -0.57527,56.84316 0.0234,0.75865 -1.34312,1.18488 -3.798277,1.18488 -2.781498,0 -4.458056,0.62341 -6.104613,2.26999 -2.202654,2.20265 -2.317229,2.21774 -3.863081,0.5096 -0.876197,-0.9682 -3.14107,-2.25049 -5.033048,-2.84956 -1.891969,-0.59906 -4.351781,-1.65994 -5.466241,-2.35749 -1.745285,-1.09237 -2.528899,-1.01203 -5.650762,0.57962 -1.993462,1.01626 -4.325101,1.84784 -5.181418,1.84784 -0.856311,0 -2.65607,1.01865 -3.999464,2.26368 l -2.442533,2.26364 -2.126598,-2.26364 z m 5.435832,-2.20159 c 2.088079,-1.00884 4.923272,-2.1171 6.300414,-2.46272 1.377152,-0.3457 3.024913,-1.25622 3.661691,-2.02349 1.240972,-1.49527 -2.044863,-0.32601 -9.958534,3.54394 -3.61311,1.76684 -3.699039,1.76562 -6.0521189,-0.0854 -1.312841,-1.03264 -3.609091,-1.87755 -5.102796,-1.87755 -3.983418,0 -3.319648,1.50293 0.714255,1.61729 1.886548,0.0535 4.110699,0.77785 4.9425529,1.60968 1.81164,1.81163 0.977706,1.86049 5.494536,-0.32171 z m 28.322849,0.31919 c 1.271668,-0.83325 3.815953,-1.55758 5.653961,-1.60969 4.267216,-0.12114 4.407906,-1.61478 0.152082,-1.61478 -1.810349,0 -4.289802,0.86534 -5.733491,2.00092 -2.253845,1.77289 -2.727485,1.84326 -4.156353,0.61781 -1.789776,-1.53503 -10.821448,-4.66344 -10.101848,-3.49908 0.249986,0.40445 2.57721,1.44046 5.171628,2.30219 2.594424,0.86174 4.960606,1.96072 5.258157,2.44218 0.728455,1.17867 1.069609,1.12056 3.755875,-0.63955 z m -25.481811,-3.67516 c 2.672812,-0.83145 5.585758,-2.31407 6.473225,-3.29472 1.574515,-1.7398 1.695334,-1.72751 4.988473,0.5073 1.856174,1.25961 4.061807,2.29286 4.901399,2.29606 0.839592,0.002 2.734525,0.63591 4.210972,1.40597 2.368882,1.23552 3.004057,1.23482 5.403275,-0.009 1.495342,-0.77327 4.022742,-1.40596 5.616414,-1.40596 h 2.89759 l -0.24383,-61.8367 c -0.27851,-70.62803 0.7235,-64.37672 -9.548912,-59.574 -3.378135,1.57941 -7.891667,3.15142 -10.03009,3.49335 -3.740761,0.5982 -3.888032,0.75478 -3.888032,4.13416 0,3.96326 -0.541501,4.87269 -2.462387,4.13561 -0.825328,-0.31671 -1.329158,-1.90884 -1.329158,-4.20019 0,-3.19066 -0.28868,-3.69206 -2.132742,-3.70441 -2.30632,-0.0157 -6.151031,-1.32968 -13.348988,-4.56305 -2.5195649,-1.13198 -4.9722239,-2.05804 -5.4503429,-2.05804 -0.518295,0 -0.869299,25.06917 -0.869299,62.08654 0,58.49275 0.096,62.08732 1.658803,62.10046 0.912336,0.009 2.72517,0.60322 4.028512,1.32345 1.3033459,0.72018 2.7962639,1.16593 3.3176029,0.99049 0.521334,-0.17561 3.134722,-0.99925 5.807523,-1.83069 z m 0.338948,-14.57655 c -8.25042,-4.38867 -11.7569429,-15.65746 -7.566047,-24.31467 2.191362,-4.52675 6.8748,-8.36701 11.609346,-9.51927 2.551339,-0.6209 2.606684,-0.78317 2.606684,-7.64078 0,-5.59597 -0.286209,-7.00637 -1.421828,-7.00637 -1.213954,0 -1.421829,-2.63304 -1.421829,-18.00984 0,-15.37681 0.207862,-18.00982 1.421829,-18.00982 0.78201,0 1.421828,-0.58761 1.421828,-1.30578 0,-0.71814 -0.639818,-1.83677 -1.421828,-2.48576 -0.782005,-0.64903 -1.421829,-2.2464 -1.421829,-3.54973 0,-1.99896 0.222478,-2.18509 1.421829,-1.18971 1.718156,1.42595 1.900267,-0.0323 0.236987,-1.89743 -0.979395,-1.09833 -0.938302,-1.15232 0.236985,-0.31135 1.338504,0.9578 2.279131,0.98692 5.674343,0.1756 1.891672,-0.45196 2.231583,5.3246 0.402642,6.84248 -1.762871,1.46307 -1.711723,3.72159 0.08428,3.72159 1.213957,0 1.421839,2.63304 1.421839,18.00985 0,15.37681 -0.207861,18.00981 -1.421839,18.00981 -1.136108,0 -1.421826,1.41347 -1.421826,7.03384 v 7.03381 l 2.91407,0.64003 c 3.772846,0.82869 9.028669,5.47691 11.360058,10.04681 3.209966,6.29208 2.06112,14.62204 -2.776833,20.13397 -4.575923,5.21342 -15.522028,7.00592 -21.938823,3.59263 z m 12.600178,-0.19597 c 7.867651,-2.18485 13.933494,-11.16235 12.582994,-18.62287 -1.983847,-10.9595 -13.034333,-17.2152 -23.031397,-13.03818 -4.700431,1.96399 -6.814301,3.98493 -8.885244,8.49483 -4.2812009,9.32313 -0.04966,18.95581 10.065857,22.91411 3.651331,1.42879 4.907484,1.46293 9.26779,0.25222 z m -11.539313,-8.98091 c -4.226435,-4.81369 -4.126907,-9.87225 0.280979,-14.28008 4.964373,-4.96439 12.129823,-4.17641 15.730919,1.72993 4.686512,7.68657 0.238677,15.83705 -8.665776,15.87964 -3.867328,0.0173 -4.76289,-0.38737 -7.346106,-3.32949 z m 14.098546,-0.93787 c 3.613236,-3.61106 3.293574,-9.27912 -0.725866,-12.87049 -4.688655,-4.18935 -11.264792,-3.18985 -14.015909,2.13022 -5.045702,9.75731 6.967626,18.50972 14.741775,10.74027 z M 28.70612,266.84182 c 0,-4.53533 -0.347898,-6.95005 -0.947879,-6.57924 -1.710514,1.05717 -1.127203,13.74435 0.631923,13.74435 0.173787,0 0.315952,-3.2243 0.315952,-7.16511 z m 1.458331,-25.06302 0.03331,-17.06194 h -2.641679 -2.641664 v 17.06194 17.06193 h 2.608203 2.608219 l 0.03331,-17.06193 z m -0.615189,-21.71657 c 0.724393,-0.4587 1.425915,-2.21747 1.558918,-3.90831 0.133023,-1.69087 -0.03331,-2.68102 -0.369189,-2.20037 -0.33608,0.48065 -1.250857,0.85969 -2.032871,0.84223 -1.782929,-0.0399 -4.983637,3.07176 -4.299112,4.17935 0.280197,0.45339 1.468768,0.6141 2.641269,0.35715 1.712844,-0.37537 1.852375,-0.26759 0.709964,0.54841 -1.700547,1.21468 -0.09708,1.37721 1.791021,0.18158 z m -3.939564,-2.09818 c 0.642986,-0.64782 1.40784,-0.93905 1.699678,-0.64721 0.291838,0.29185 -0.234224,0.82187 -1.169049,1.1778 -1.35093,0.51441 -1.459807,0.40555 -0.530629,-0.53059 z m 3.531387,0.0548 c -0.343633,-0.556 -0.421503,-1.21421 -0.173025,-1.46269 0.248454,-0.24848 0.704335,0.20647 1.013053,1.01096 0.640941,1.67028 0.0947,1.96406 -0.840016,0.45173 z m -18.227854,33.49117 0.257014,-18.70559 h 4.265482 4.26549 l 0.257013,18.70559 0.257012,18.70555 h -4.779506 -4.779504 l 0.257014,-18.70561 z m 6.920836,0.22183 -0.02867,-17.53589 h -2.606686 -2.606686 v 17.53589 17.53588 h 2.635311 2.635322 l -0.02867,-17.53589 z m 18.18379,15.05281 C 35.64576,266.4125 35.341326,257.91121 35.341326,247.89277 V 229.6775 l 2.369712,-0.45301 c 1.30335,-0.24916 3.444933,-0.24744 4.759093,0.002 l 2.389375,0.45675 -0.256614,18.60649 -0.256627,18.60644 -3.825928,0.28161 c -2.104263,0.15474 -4.130371,-0.023 -4.502456,-0.39495 z m 6.488254,-18.84443 0.0556,-17.53585 h -2.662317 -2.662328 v 17.53589 17.53585 h 2.60669 l 2.606682,-3e-5 z M 11.759694,227.29696 c -2.5702049,-2.57021 -0.11518,-8.26731 3.562571,-8.26731 2.366775,0 5.26156,2.36342 4.46782,3.64772 -0.37109,0.60046 -1.395987,1.04222 -2.27756,0.98173 -1.445053,-0.0992 -1.439543,-0.1527 0.05592,-0.54343 0.912342,-0.23842 1.658799,-0.78883 1.658799,-1.22314 0,-0.97559 -3.627957,-0.10302 -4.336197,1.04307 -0.717644,1.16116 -2.299001,1.044 -2.299001,-0.17041 0,-0.55209 0.492456,-0.69946 1.094344,-0.32747 0.678019,0.41905 0.837039,0.26003 0.417999,-0.41798 -0.431632,-0.69839 0.115573,-1.13414 1.512341,-1.20431 1.677388,-0.0844 1.790536,-0.21327 0.484353,-0.55221 -1.921604,-0.49864 -4.456924,1.22916 -4.456924,3.03737 0,0.65738 0.853096,1.4183 1.895772,1.69098 1.042676,0.27267 1.895771,0.91661 1.895771,1.43097 0,1.46114 -2.495672,2.05474 -3.676037,0.87441 z m 2.156562,-0.52627 c 0.268513,-0.43441 -0.114106,-0.78989 -0.850245,-0.78989 -0.736135,0 -1.118748,0.35548 -0.850243,0.78989 0.268511,0.43447 0.651111,0.78992 0.850243,0.78992 0.19912,0 0.581744,-0.35545 0.850245,-0.78992 z m 3.342719,1.6169 c -0.03991,-0.19419 -0.202666,-1.01253 -0.361704,-1.81858 -0.172431,-0.87378 0.430965,-1.51978 1.494351,-1.59989 0.980938,-0.0738 1.783533,0.21344 1.783533,0.63855 0,0.78129 -2.781968,3.43325 -2.91618,2.77992 z m 23.295728,-2.77403 c 1.712968,-0.78245 1.667269,-0.84737 -0.473944,-0.67356 -3.234689,0.26261 -4.739433,-0.85778 -4.739433,-3.52889 0,-4.04916 4.142721,-6.4747 7.464632,-4.37053 3.282397,2.07917 1.177068,9.67351 -2.635143,9.50551 -1.139693,-0.0504 -1.045188,-0.27981 0.383888,-0.93253 z m 0.236985,-2.44488 c 0.651677,-0.0989 1.184857,0.23422 1.184857,0.74021 0,0.50598 0.452072,0.64052 1.00461,0.29908 0.637834,-0.39423 0.378287,-1.13243 -0.710917,-2.02201 -0.943544,-0.77063 -1.22703,-1.15869 -0.629989,-0.86236 1.495445,0.74225 2.330616,-1.81625 1.020539,-3.12635 -2.240255,-2.24023 -6.772763,-0.36819 -5.724227,2.36427 0.274572,0.71548 0.98769,1.05843 1.584729,0.76208 0.597042,-0.29634 0.345718,0.0682 -0.558531,0.81009 -1.726515,1.41652 -1.223816,3.00875 0.59142,1.87323 0.57896,-0.36216 1.585839,-0.7394 2.237509,-0.83824 z m -2.606692,-3.99126 c 0,-0.42836 0.844405,-0.71663 1.876467,-0.64062 2.809231,0.20697 3.101629,1.0075 0.448214,1.22709 -1.278574,0.10563 -2.324681,-0.15809 -2.324681,-0.58647 z M 2.8757991,229.69334 c -0.144834,-17.07379 -0.263316,-3.10431 -0.263316,31.04328 0,34.14756 0.118511,48.11704 0.263316,31.04324 0.144832,-17.07378 0.144832,-45.0127 0,-62.08652 z M 28.70612,208.6029 c 0,-1.56402 -0.426537,-2.84367 -0.947879,-2.84367 -0.521342,0 -0.947887,1.27965 -0.947887,2.84367 0,1.56401 0.426545,2.84365 0.947887,2.84365 0.521342,0 0.947879,-1.27964 0.947879,-2.84365 z m 33.610974,116.52689 c -0.97259,-1.57369 -0.0996,-1.79191 1.2612,-0.31527 0.67224,0.72939 0.80405,1.32622 0.29292,1.32622 -0.51111,0 -1.21046,-0.45493 -1.55412,-1.01095 z M -11.79795,322.6401 c 0.922265,-0.24039 2.2019111,-0.22462 2.8436561,0.0357 0.641747,0.25973 -0.112816,0.45627 -1.6768371,0.43695 -1.564012,-0.0173 -2.089084,-0.23177 -1.166819,-0.47205 z m -2.489091,-2.18676 c -3.390607,-8.62377 -3.047056,-22.778 0.551818,-22.73475 0.83363,0.0109 0.767419,0.2934 -0.213521,0.91336 -1.695502,1.07179 -1.666836,12.50532 0.04434,17.69026 1.073051,3.25138 0.729537,6.95993 -0.382665,4.13113 z m 6.4235271,-8.69907 c -0.05045,-6.6474 0.143911,-8.56902 0.606219,-5.99316 0.629834,3.50915 0.670736,3.40369 0.549112,-1.41663 -0.119155,-4.72241 -0.352382,-5.26139 -2.50112,-5.77969 -5.8164731,-1.40294 -6.2511671,-1.78816 -6.2053451,-5.49884 l 0.04406,-3.57005 4.618309,-0.21354 c 4.4443141,-0.20562 4.5967331,-0.12739 4.0457641,2.06758 -0.314871,1.25461 -0.298356,2.55533 0.03679,2.89044 1.814906,1.81493 1.91252,19.86792 0.131016,24.23388 -1.15733,2.83632 -1.25608,2.33544 -1.324841,-6.71999 z m 0.549367,-17.13084 c 3.42e-4,-0.391 -0.42593,-0.71093 -0.947269,-0.71093 -1.364338,0 -1.169888,-2.59605 0.236988,-3.16374 0.651669,-0.26296 -0.366293,-0.51179 -2.2621301,-0.55294 -3.119155,-0.0675 -3.486288,0.19312 -3.860222,2.74067 -0.400785,2.73075 -0.304231,2.80918 3.20941,2.60666 1.9924481,-0.11484 3.6229061,-0.52872 3.6232371,-0.91972 z m 69.6875109,25.85785 c -1.38036,-2.23339 -2.69864,-17.03897 -1.70736,-19.1749 0.83397,-1.7969 1.01129,-1.0692 1.00804,4.13675 -0.002,3.47448 0.26589,6.75386 0.5957,7.28742 0.32977,0.53358 0.84195,2.70281 1.13814,4.82041 0.52187,3.73109 0.13594,4.8242 -1.03452,2.93032 z m 6.28298,-4.03337 c 0.0179,-2.74977 -0.005,-6.89386 -0.0529,-9.20921 -0.0469,-2.31535 0.40307,-4.51169 1.0002,-4.88074 2.41423,-1.49206 -0.0475,-3.7059 -4.13718,-3.72052 -2.96948,-0.0109 -3.67682,-0.26118 -2.63645,-0.93335 1.2151,-0.78527 1.18066,-0.921 -0.23697,-0.93339 -1.88034,-0.0173 -2.2092,-1.45822 -0.56448,-2.47475 0.63328,-0.39135 0.8387,-0.2626 0.48756,0.30559 -0.38394,0.62122 0.78053,0.93609 3.17068,0.85735 2.07762,-0.0684 3.7777,-0.51545 3.77796,-0.99333 5.2e-4,-1.71696 1.42631,0.59759 1.60508,2.60638 0.10051,1.12971 0.47328,4.05639 0.82823,6.50363 0.66028,4.55197 -1.04991,16.4971 -2.48922,17.38664 -0.43183,0.2669 -0.77047,-1.76453 -0.75253,-4.51423 z m -1.08689,-23.87823 c 0,-0.82546 0.53318,-1.55695 1.18486,-1.62559 0.65166,-0.0687 -0.30807,-0.45081 -2.13275,-0.84926 l -3.31759,-0.72448 3.93154,0.0808 c 3.52546,0.0724 3.85875,0.27767 3.22705,1.98533 -0.87651,2.36949 -2.89311,3.15927 -2.89311,1.13307 z m -80.320296,-5.02464 c 1.440845,-0.21781 3.5735881,-0.21207 4.7394321,0.014 1.165842,0.22498 -0.01297,0.40327 -2.6197211,0.39617 -2.606687,-0.009 -3.560553,-0.1912 -2.119711,-0.40911 z m 76.778746,0 c 1.44085,-0.21781 3.5736,-0.21207 4.73945,0.014 1.16585,0.22498 -0.0125,0.40327 -2.61974,0.39617 -2.60667,-0.009 -3.56055,-0.1912 -2.11971,-0.40911 z m -75.825854,-1.8725 c 0.922265,-0.24039 2.2019111,-0.22462 2.8436561,0.0358 0.641747,0.25972 -0.112816,0.45628 -1.6768371,0.43695 -1.564012,-0.0173 -2.089084,-0.23178 -1.166819,-0.47207 z m 4.3744681,-4.31948 c -0.06047,-2.73705 -0.315162,-4.12332 -0.565959,-3.08065 -1.682553,6.99515 -2.1677491,0.47323 -2.1677491,-29.13894 0,-22.98627 0.3147991,-33.03023 1.0494311,-33.48427 0.720168,-0.44507 0.831927,0.0578 0.356215,1.60284 -0.38129,1.23829 -0.360606,1.93626 0.04598,1.551 0.406557,-0.38522 1.050324,-2.30472 1.430566,-4.26547 0.380254,-1.96078 0.740422,13.39026 0.800377,34.11341 0.06,20.72315 -0.104248,37.67848 -0.364933,37.67848 -0.260669,0 -0.523424,-2.2394 -0.5839,-4.9764 z m 69.7381659,3.78852 c -0.2507,-0.6533 -0.33865,-17.39535 -0.19549,-37.20452 l 0.26034,-36.01665 0.22524,36.73057 0.22523,36.7306 h 3.3066 3.30661 l 0.25931,-37.20456 0.25932,-37.20448 0.22565,37.67844 0.22564,37.67848 h -3.82133 c -2.18776,0 -4.01615,-0.50781 -4.27712,-1.18788 z m -76.781292,-36.25364 c -2.8e-4,-19.81081 0.125434,-28.04994 0.279366,-18.30918 0.153946,9.74077 0.154164,25.94959 5.13e-4,36.01966 -0.153664,10.07004 -0.279581,2.10034 -0.279871,-17.71048 z m 82.466062,0 c -2.7e-4,-19.81081 0.12552,-28.04994 0.27939,-18.30918 0.15395,9.74077 0.1541,25.94959 5.1e-4,36.01966 -0.15366,10.07004 -0.2796,2.10034 -0.2799,-17.71048 z m -3.79369,0 c -2.9e-4,-18.76813 0.12632,-26.58035 0.28133,-17.3605 0.15507,9.21989 0.15532,24.57562 5.3e-4,34.1239 -0.15474,9.54827 -0.28159,2.00476 -0.28191,-16.7634 z m 1.89688,-0.94788 c 2.9e-4,-19.28947 0.12668,-27.04608 0.28086,-17.23692 0.15422,9.80921 0.15396,25.59148 -5.1e-4,35.07178 -0.1545,9.48029 -0.28061,1.45464 -0.28033,-17.83486 z m -78.68352,3.79156 c -4.27e-4,-15.64014 0.129437,-22.17137 0.288575,-14.51386 0.159148,7.65749 0.159495,20.45396 7.57e-4,28.43658 -0.158701,7.98263 -0.288934,1.71738 -0.289364,-13.92272 z m -0.270304,-33.64995 c 0,-1.30334 0.21517,-1.83653 0.478107,-1.18485 0.262961,0.65165 0.262961,1.71802 0,2.3697 -0.262959,0.65169 -0.478107,0.11842 -0.478107,-1.18485 z m -1.959341,-9.2419 c 0.112864,-0.91233 -0.126264,-2.42365 -0.531463,-3.35849 -0.405201,-0.9348 -0.470749,-1.96562 -0.145661,-2.29071 0.325082,-0.32509 0.591047,0.0173 0.591047,0.75862 0,1.01954 1.051762,1.26604 4.300051,1.00768 3.2884021,-0.26151 4.0708501,-0.61818 3.3258301,-1.51588 -0.535831,-0.64561 -0.693568,-1.45454 -0.350519,-1.79755 0.343031,-0.34306 -0.112362,-0.62373 -1.012048,-0.62373 -0.899669,0 -1.3798521,-0.41404 -1.067101,-0.92009 0.705333,-1.14122 -3.7361771,-2.35195 -5.2334471,-1.4266 -0.708943,0.43816 -0.97305,0.0534 -0.751809,-1.09561 0.278081,-1.44386 1.204394,-1.77107 5.014192,-1.77107 h 4.6731161 l 0.05338,5.21337 0.05339,5.21339 -3.791544,0.53704 -3.7915471,0.53704 3.244605,0.41084 c 5.1443691,0.6514 4.8522111,2.78055 -0.38153,2.78055 -3.640623,0 -4.368488,-0.28752 -4.198807,-1.6588 z m 5.8381911,-12.28054 c -1.1730091,-0.22596 -3.0924801,-0.22596 -4.2654881,0 -1.173008,0.22593 -0.213268,0.41079 2.132743,0.41079 2.3460191,0 3.3057511,-0.18486 2.1327451,-0.41079 z m 70.8544639,12.51753 c 0,-0.78202 0.50809,-1.42184 1.12904,-1.42184 0.62099,0 0.34901,-0.57037 -0.60437,-1.26751 -0.95338,-0.69712 -1.49513,-1.87013 -1.20389,-2.60669 0.41645,-1.05314 0.54554,-1.01523 0.60439,0.17753 0.0594,1.20727 0.89477,1.43464 4.09455,1.11466 4.82079,-0.48207 5.11548,-0.70085 3.43925,-2.55324 -0.71375,-0.78872 -1.8477,-2.08868 -2.51994,-2.88879 -0.67223,-0.8001 -2.30733,-1.4547 -3.63356,-1.4547 -2.52919,0 -2.75197,-1.95629 -0.29836,-2.61961 1.10829,-0.29966 1.09724,-0.18082 -0.0593,0.63715 -1.08362,0.76635 -0.40716,0.98231 2.84365,0.9079 3.94502,-0.0904 4.05185,-0.15506 1.42183,-0.86025 l -2.84364,-0.7626 3.30599,0.16385 3.30597,0.16387 0.0989,5.01311 c 0.0721,3.65974 -0.30854,5.2513 -1.41022,5.89545 -0.93025,0.54394 -1.05461,0.89345 -0.3242,0.91121 0.65165,0.0156 1.18485,0.66864 1.18485,1.45065 0,1.05321 -1.10589,1.42181 -4.26551,1.42181 -3.15961,0 -4.26547,-0.3686 -4.26547,-1.42181 z m 0.0748,-8.60997 c 0.0456,-1.10425 0.27008,-1.32885 0.57269,-0.57266 0.2738,0.68423 0.24012,1.50178 -0.0748,1.81676 -0.31498,0.31499 -0.53901,-0.24486 -0.49786,-1.2441 z m -34.376458,-0.0945 c 0.684256,-0.2738 1.501803,-0.24014 1.816787,0.0748 0.314979,0.31499 -0.244865,0.539 -1.244092,0.49784 -1.104242,-0.0456 -1.32885,-0.27007 -0.572695,-0.57265 z m -5.333532,-1.35145 c 0.508607,-0.31743 -0.45363,-0.85281 -2.138308,-1.18978 -8.391087,-1.67819 -17.1591369,-8.94753 -21.1058209,-17.49823 -3.095536,-6.70665 -2.85295,-18.8236 0.506615,-25.30423 3.206102,-6.18462 10.49034,-12.93621 16.4268999,-15.22568 6.366484,-2.45531 17.288104,-2.45109 23.667684,0.01 6.230268,2.40264 13.92046,9.76385 16.70663,15.99192 3.17268,7.09211 3.13608,18.22631 -0.0818,24.8363 -1.26894,2.60667 -2.4909,5.11869 -2.71549,5.58227 -0.22893,0.47253 0.16632,0.49672 0.89949,0.055 1.10706,-0.66691 1.10944,-0.54324 0.0156,0.8055 -0.71074,0.87632 -1.61344,1.39483 -2.00604,1.1522 -0.3926,-0.24265 -1.476747,0.40186 -2.409232,1.43227 -0.932486,1.03035 -1.363803,1.8734 -0.958503,1.8734 1.097987,0 -1.432887,2.79938 -3.560154,3.93788 -1.410391,0.75479 -1.679655,0.7132 -1.130872,-0.17466 0.469446,-0.75957 0.261698,-0.9988 -0.596528,-0.68697 -0.724239,0.26313 -1.199601,0.99001 -1.056341,1.61522 0.143228,0.62527 -0.146381,0.88542 -0.64364,0.5781 -0.497244,-0.30731 -2.901708,-0.0246 -5.343261,0.62854 -3.729799,0.99756 -4.081359,1.27243 -2.200025,1.72001 1.231529,0.29298 -1.235062,0.5116 -5.481308,0.48584 -4.246256,-0.0258 -7.304338,-0.30655 -6.795718,-0.62397 z m 18.307772,-4.48894 c 18.641078,-8.83291 22.886298,-32.49841 8.424047,-46.96068 -5.783414,-5.78341 -12.701968,-8.57347 -21.220509,-8.55758 -8.715769,0.0157 -14.059107,2.18702 -20.7204669,8.41799 -6.287962,5.88162 -9.019409,12.22704 -8.990659,20.88617 0.03859,11.60633 6.183059,21.12902 16.9146679,26.2141 4.67703,2.21618 6.950165,2.69489 12.796458,2.69489 5.846293,0 8.119435,-0.47871 12.796462,-2.69489 z m -20.426411,0.51381 c -8.24353,-2.3309 -13.9478259,-7.10951 -18.1958239,-15.24293 -3.150801,-6.03265 -2.960077,-17.46878 0.397049,-23.80751 2.992616,-5.65046 7.292651,-9.88939 13.1061419,-12.91987 6.137286,-3.19929 18.507747,-3.19929 24.645034,0 5.820852,3.03435 10.118794,7.27506 13.094188,12.91987 3.29614,6.25333 3.53457,16.7142 0.5304,23.27134 -5.840871,12.74869 -20.286362,19.53715 -33.577057,15.7791 z m 18.646649,-2.51249 c 9.867613,-4.35996 15.93217,-13.78165 15.90943,-24.71629 -0.0166,-7.91728 -2.67781,-13.61581 -9.023529,-19.32114 -4.741481,-4.26298 -10.983708,-7.17261 -12.090948,-5.6358 -0.770845,1.06992 -10.83716,1.07031 -11.617594,4e-4 -0.325941,-0.44676 -1.477167,-0.53157 -2.558326,-0.18849 -1.359412,0.43143 -1.779733,1.12058 -1.362689,2.23415 0.52159,1.39278 0.391534,1.43832 -0.962845,0.3371 -1.334643,-1.08516 -1.974421,-0.98229 -4.332181,0.69657 -3.9814979,2.83509 -8.4360099,8.15447 -10.2360839,12.22352 -2.414113,5.45708 -2.151147,15.79155 0.535754,21.05513 2.272111,4.45098 7.3865629,10.42676 8.9239119,10.42676 0.490407,0 -1.025756,-2.04986 -3.3692519,-4.55525 -3.780253,-4.04141 -7.329765,-10.97028 -6.199058,-12.101 0.228316,-0.22828 0.978928,1.2932 1.668011,3.38112 0.689085,2.08796 1.682244,3.79627 2.207029,3.79627 0.524779,0 0.705037,0.24913 0.400559,0.55357 -0.30448,0.30448 1.113322,2.27122 3.15064,4.37055 2.0373269,2.09932 3.4810399,4.17804 3.2082689,4.61941 -0.619234,1.00193 4.028205,3.45508 8.777108,4.63302 4.65417,1.15441 12.047682,0.36606 16.971794,-1.80967 z m -17.232956,0.0446 c 0.291981,-0.47243 1.383501,-0.63593 2.425662,-0.36339 2.608156,0.68203 2.373536,1.22229 -0.530836,1.22229 -1.334111,0 -2.186781,-0.38653 -1.894826,-0.8589 z m 8.112036,0.49547 c 0,-0.84147 3.834845,-1.28129 4.320476,-0.49552 0.291941,0.47241 -0.560709,0.8589 -1.894823,0.8589 -1.334111,0 -2.425667,-0.16347 -2.425653,-0.36338 z m 6.635196,-1.53239 c 0.782006,-0.50538 1.848374,-0.91883 2.369713,-0.91883 0.52134,0 0.308064,0.41345 -0.473946,0.91883 -0.782006,0.50537 -1.848378,0.91885 -2.36972,0.91885 -0.52134,0 -0.308052,-0.41348 0.473953,-0.91885 z m -7.363189,-4.73939 c 0,-1.82469 0.195075,-2.57113 0.433504,-1.65883 0.238418,0.91237 0.238418,2.40528 0,3.31764 -0.238422,0.91231 -0.433504,0.16576 -0.433504,-1.65881 z m 13.050498,2.53047 c 0,-0.96571 6.669064,-7.55202 7.15493,-7.06613 0.216351,0.21635 -1.305011,2.05174 -3.380792,4.07866 -2.075776,2.02697 -3.774138,3.37134 -3.774138,2.98747 z m -22.419315,-1.58272 c 0.196755,-0.78202 0.651671,-2.48821 1.010871,-3.79156 0.6273,-2.27608 0.59499,-2.29702 -0.817806,-0.52972 -0.809004,1.01197 -1.47091,2.39824 -1.47091,3.0806 0,1.42514 -1.521982,1.66444 -2.324739,0.36554 -0.481166,-0.77853 2.938562,-7.65582 3.806843,-7.65582 0.19084,0 0.795714,0.83846 1.344168,1.86327 0.740507,1.38365 0.623512,2.66469 -0.454501,4.97641 -0.798442,1.71221 -1.290708,2.47329 -1.093926,1.69128 z m -1.864056,-2.41895 c 0.323684,-0.84354 0.164808,-1.22402 -0.372528,-0.89193 -0.515366,0.31853 -0.937034,0.98047 -0.937034,1.47106 0,1.36344 0.679418,1.063 1.309562,-0.57913 z m 2.298916,-4.71529 c -0.291836,-0.29182 -0.821861,0.23423 -1.177821,1.16907 -0.514403,1.35093 -0.405525,1.45981 0.530624,0.53062 0.647806,-0.64299 0.939042,-1.40785 0.647197,-1.69969 z m 18.010045,4.52755 c -0.783507,-0.91232 -1.784604,-2.29863 -2.224629,-3.08063 -0.69771,-1.23991 -0.58825,-1.24987 0.855449,-0.078 1.590142,1.29076 3.899139,4.81737 3.154113,4.81737 -0.198221,0 -1.001421,-0.74647 -1.784933,-1.6588 z m -25.974058,-4.83844 c 0.99314,-1.11857 2.191325,-2.03371 2.662621,-2.03371 1.334378,0 -0.08437,1.76804 -2.388379,2.97649 -2.065507,1.08332 -2.067414,1.07677 -0.274245,-0.94278 z m 32.792125,-0.13789 c -1.263844,-0.81673 -1.263844,-0.92223 0,-0.94934 0.781996,-0.0173 0.03548,-0.91825 -1.65881,-2.00334 -4.334235,-2.77573 -3.842362,-3.22842 0.68479,-0.6302 2.070965,1.1886 3.347954,2.30413 2.837738,2.47903 -0.510207,0.1748 -0.686544,0.70801 -0.391853,1.18481 0.677471,1.0962 0.319129,1.07649 -1.471865,-0.0808 z m 6.385126,-3.2475 c 0.869952,-2.34725 1.751162,-4.09832 1.958272,-3.89122 0.56411,0.56411 -1.717431,7.03256 -2.693262,7.63565 -0.465715,0.28782 -0.134959,-1.39715 0.73499,-3.74443 z m -42.4773149,3.02981 c -0.792614,-2.80041 -0.374403,-3.78421 2.1674109,-5.09863 2.563707,-1.32577 3.036898,-1.33275 4.305957,-0.0638 1.269051,1.26908 0.995691,1.64514 -2.487555,3.42217 -2.152305,1.09803 -3.9459259,1.88109 -3.9858129,1.74019 z m 2.6002219,-3.00954 c 0,-0.75949 -0.577054,-1.11 -1.3433239,-0.81596 -1.105492,0.42423 -1.119483,0.65738 -0.07895,1.31695 0.6953879,0.44081 1.2998809,0.80799 1.3433239,0.81599 0.04343,0.009 0.07896,-0.58466 0.07896,-1.31698 z m 4.107502,-1.03824 c 0,-0.14896 -0.568731,-0.48935 -1.263844,-0.75609 -0.695125,-0.26676 -1.263854,0.0733 -1.263854,0.75609 0,0.68259 0.568729,1.02287 1.263854,0.75611 0.695113,-0.26678 1.263844,-0.607 1.263844,-0.75611 z m 25.125681,2.38056 c -0.332059,-0.53731 0.04844,-0.69624 0.89194,-0.37252 1.642148,0.63014 1.942588,1.30955 0.579121,1.30955 -0.490567,0 -1.152549,-0.42166 -1.471061,-0.93703 z M 1.2174711,168.47565 c 0,-1.91158 0.370594,-3.47559 0.823551,-3.47559 0.452948,0 0.666289,1.35069 0.474077,3.00153 -0.498796,4.2839 -1.297628,4.57575 -1.297628,0.47406 z m 21.3274299,1.19662 -5.687316,-0.56196 4.874988,-0.15946 c 6.596503,-0.2156 7.725838,-3.15361 1.997184,-5.19581 -1.958038,-0.69801 -2.182828,-2.40502 -0.406475,-3.08665 0.790058,-0.30319 1.100229,-1.51682 0.840304,-3.28787 -0.226598,-1.54403 -0.161282,-2.80727 0.145161,-2.80727 1.166865,0 3.411682,5.64516 2.897305,7.28605 -0.507289,1.6183 -0.476179,1.62139 0.531948,0.0525 0.588924,-0.91647 0.752519,-2.19612 0.363558,-2.84366 -0.481863,-0.8022 -0.201731,-0.76744 0.879165,0.10923 1.386021,1.12402 1.418035,1.52681 0.253463,3.18948 -1.725195,2.46304 -0.884533,5.37886 0.862111,2.99021 0.641257,-0.87698 1.657192,-1.29089 2.257614,-0.91981 1.676117,1.0359 1.302224,2.18241 -0.899474,2.75816 -1.095111,0.28641 -1.737385,0.93128 -1.427265,1.43309 0.851662,1.378 -1.201221,1.66437 -7.482267,1.04376 z m 30.290393,-1.82853 c 0.0208,-1.56404 0.35866,-2.84368 0.7508,-2.84368 0.39214,0 0.71299,1.27964 0.71299,2.84368 0,1.564 -0.33788,2.84362 -0.7508,2.84362 -0.41292,0 -0.73377,-1.27962 -0.71299,-2.84362 z M 7.1547911,169.0593 c 1.44084,-0.21788 3.5735849,-0.21205 4.7394259,0.014 1.165844,0.22498 -0.01297,0.40325 -2.6197189,0.39615 -2.606685,-0.009 -3.560553,-0.19122 -2.119707,-0.40909 z m 34.8217679,-0.27891 c 0,-0.58806 1.466773,-0.72455 3.791546,-0.35275 2.439461,0.39007 3.791536,0.24451 3.791536,-0.40825 0,-0.55799 -1.812832,-1.17781 -4.028514,-1.37737 l -4.028515,-0.36285 4.502454,-0.16559 c 3.92573,-0.14442 4.502467,0.0771 4.502467,1.73017 0,1.61491 -0.631933,1.89578 -4.265488,1.89578 -2.346017,0 -4.265486,-0.43158 -4.265486,-0.9591 z M 5.0879981,167.50401 c 0.217247,-0.18677 2.101152,-0.60133 4.186497,-0.921 2.5820129,-0.39584 3.3379719,-0.29207 2.3697189,0.32521 -1.295091,0.82573 -7.4763939,1.38741 -6.5562159,0.59577 z m 27.9350789,-3.36856 c -0.293918,-0.47557 1.280469,-2.28839 3.498626,-4.02849 l 4.033027,-3.16384 -3.160283,4.02851 c -3.411426,4.34866 -3.568748,4.46251 -4.37137,3.16382 z M 2.1653271,162.4302 c 0,-1.34181 2.755201,-7.85681 3.322643,-7.85681 0.249452,0 -0.252175,1.81284 -1.114753,4.0285 -1.746792,4.48701 -2.20789,5.28653 -2.20789,3.82831 z m 50.0376869,-0.77214 c -0.292915,-1.02921 -0.821362,-2.72442 -1.174361,-3.76709 -0.353,-1.04265 0.05216,-0.69718 0.900394,0.76774 0.848217,1.46495 1.376667,3.16014 1.174337,3.7671 -0.20229,0.60695 -0.60749,0.2615 -0.90037,-0.76775 z m -11.559739,-1.0344 c -0.490808,-1.27899 0.499135,-1.71504 3.087172,-1.35975 0.704002,0.0966 1.011954,-0.25798 0.684364,-0.78805 -0.327592,-0.53002 0.320884,-1.45421 1.441104,-2.05373 1.17281,-0.62764 1.784651,-0.68219 1.442472,-0.12848 -0.326846,0.52883 -0.17813,1.10457 0.330457,1.27945 0.50858,0.17483 -0.741923,1.22774 -2.778922,2.33972 -2.978133,1.6257 -3.802167,1.76498 -4.206651,0.71089 z m -30.8948639,-1.7848 c -1.303342,-0.74507 -1.943167,-1.35463 -1.421828,-1.35463 0.521339,0 2.0142569,0.60956 3.3176019,1.35463 1.303341,0.74506 1.943161,1.35466 1.421826,1.35466 -0.521335,0 -2.014256,-0.6096 -3.3175999,-1.35466 z m 7.0426199,-5.85877 c -1.455924,-1.90882 -2.095519,-3.12968 -1.421307,-2.71299 0.708211,0.4377 1.525653,0.27252 1.935841,-0.3912 0.517527,-0.83736 0.871288,-0.72845 1.304991,0.40174 0.385354,1.00421 0.221512,1.31971 -0.465006,0.89542 -0.638025,-0.39433 -0.885258,-0.13098 -0.621062,0.66168 0.241429,0.72424 1.007667,1.31681 1.702781,1.31681 1.541433,0 2.338312,1.98432 1.10338,2.74755 -0.490856,0.30339 -2.083684,-1.01019 -3.539618,-2.91901 z m 32.113233,2.8347 c 1.119127,-1.8108 -8.585644,-10.64529 -10.956247,-9.97374 -0.391007,0.11065 -0.710924,-0.22519 -0.710924,-0.74653 0,-2.01509 3.687555,-0.0783 8.849521,4.64782 3.571104,3.26964 4.729489,5.47631 3.329108,6.34182 -0.619741,0.38298 -0.842224,0.26583 -0.511458,-0.26935 z m -12.611509,-0.57755 c -0.0058,-1.31044 2.957648,-6.54959 3.435029,-6.07223 0.250319,0.25032 -0.419359,1.88953 -1.488176,3.64266 -1.068815,1.75317 -1.944906,2.84643 -1.946853,2.42957 z m -26.215666,-5.91487 c 2.52679,-2.32533 5.086084,-4.20278 5.687315,-4.17212 0.601237,0.0308 0.250314,0.56384 -0.779851,1.18489 -1.030144,0.621 -3.312182,2.51538 -5.0711899,4.20973 -1.759001,1.69433 -3.475443,3.06368 -3.814312,3.04299 -0.338875,-0.0208 1.451252,-1.94019 3.9780379,-4.26549 z m 19.576931,1.06452 c 0,-1.78122 -0.533192,-3.45377 -1.184865,-3.71672 -0.70782,-0.2856 -0.517017,-0.50822 0.47394,-0.55294 1.315825,-0.0596 1.6588,0.70914 1.6588,3.71671 0,2.08535 -0.213265,3.79155 -0.47394,3.79155 -0.260664,0 -0.473935,-1.45737 -0.473935,-3.2386 z m -3.571641,-1.50082 c 0,-1.82469 0.195071,-2.57117 0.433496,-1.65881 0.238425,0.91236 0.238425,2.40528 0,3.31761 -0.238418,0.91233 -0.433496,0.16578 -0.433496,-1.6588 z m 4.282542,-7.31413 c -1.433678,-0.21718 -3.779689,-0.21718 -5.213366,0 -1.433676,0.21717 -0.260667,0.39486 2.606686,0.39486 2.867356,0 4.040358,-0.17773 2.60668,-0.39486 z m 17.419831,51.15382 c 1.203347,-1.5344 1.158748,-1.55453 -0.594843,-0.26824 -1.042691,0.76483 -2.073509,1.51129 -2.290743,1.65879 -0.217199,0.14756 0.05041,0.26825 0.594861,0.26825 0.544386,0 1.57522,-0.74646 2.290725,-1.6588 z m -62.310065,-12.5595 c 0,-7.03804 0.149209,-9.91722 0.331602,-6.39821 0.182385,3.51902 0.182385,9.27742 0,12.79646 -0.182386,3.51901 -0.331602,0.63982 -0.331602,-6.39825 z m 7.1369441,10.6637 c -0.04475,-0.99094 -0.267296,-1.18173 -0.552928,-0.47392 -1.429991,3.54387 -2.2158931,-0.0699 -2.2158931,-10.18978 0,-7.37373 0.3530981,-11.37461 1.0038301,-11.37461 0.552109,0 0.699474,0.49247 0.327482,1.09436 -0.422405,0.68345 -0.259665,0.83681 0.433461,0.40843 0.610391,-0.37723 0.882612,-1.05349 0.604942,-1.50279 -0.277686,-0.44927 -0.07136,-1.08482 0.458481,-1.41226 0.634447,-0.39212 0.963345,3.79261 0.963345,12.257 0,7.06882 -0.213271,12.85238 -0.473942,12.85238 -0.26067,0 -0.50762,-0.74644 -0.548778,-1.65881 z m 69.6418029,-10.6637 c 0,-7.03804 0.14921,-9.91722 0.3316,-6.39821 0.18239,3.51902 0.18239,9.27742 0,12.79646 -0.18239,3.51901 -0.3316,0.63982 -0.3316,-6.39825 z m 3.79154,0 c 0,-7.03804 0.14921,-9.91722 0.33161,-6.39821 0.18238,3.51902 0.18238,9.27742 0,12.79646 -0.1824,3.51901 -0.33161,0.63982 -0.33161,-6.39825 z m 1.89579,0 c 0,-7.03804 0.14926,-9.91722 0.33159,-6.39821 0.18241,3.51902 0.18241,9.27742 0,12.79646 -0.18237,3.51901 -0.33159,0.63982 -0.33159,-6.39825 z m 1.89847,-0.47394 c 0.002,-7.29871 0.1502,-10.15922 0.33063,-6.35676 0.18037,3.80251 0.17918,9.77419 -0.002,13.27041 -0.18172,3.49622 -0.3293,0.38508 -0.32782,-6.91365 z m -82.481618,1.42179 c 0,-5.99538 0.153914,-8.44802 0.342026,-5.45036 0.188124,2.99772 0.188124,7.90303 0,10.90071 -0.188123,2.99769 -0.342026,0.54504 -0.342026,-5.45035 z m 76.788568,-1.42182 c 0.002,-6.77737 0.15265,-9.42554 0.33553,-5.88484 0.18288,3.54067 0.1815,9.08581 -0.002,12.3225 -0.18455,3.23665 -0.33414,0.33972 -0.3325,-6.43766 z m -77.384002,-14.41327 c 1.173008,-0.22595 3.092478,-0.22595 4.2654881,0 1.173006,0.22593 0.213269,0.41077 -2.1327451,0.41077 -2.346018,0 -3.305752,-0.18483 -2.132743,-0.41077 z m 77.265722,-0.0109 c 1.44085,-0.21787 3.5736,-0.21206 4.73945,0.014 1.16585,0.225 -0.0125,0.40327 -2.61974,0.39615 -2.60667,-0.009 -3.56055,-0.19121 -2.11971,-0.40908 z m -77.265722,-1.88429 c 1.173008,-0.22595 3.092478,-0.22595 4.2654881,0 1.173006,0.22592 0.213269,0.41081 -2.1327451,0.41081 -2.346018,0 -3.305752,-0.18486 -2.132743,-0.41081 z m 76.778762,0 c 1.17299,-0.22595 3.09248,-0.22595 4.26548,0 1.17302,0.22592 0.21327,0.41081 -2.13276,0.41081 -2.34601,0 -3.30575,-0.18486 -2.13272,-0.41081 z m -78.204648,-2.32094 c -1.376293,-1.37628 -1.520494,-4.48456 -0.297711,-6.41657 0.592615,-0.93637 0.805797,-0.36238 0.696391,1.87501 -0.154195,3.15309 -0.07376,3.22492 3.633882,3.24524 3.1067331,0.0173 3.8417061,-0.3298 4.0692721,-1.91998 0.382984,-2.67617 -2.844281,-6.11631 -5.7378451,-6.11631 -1.316747,0 -2.598688,-0.5332 -2.848756,-1.18487 -0.328988,-0.85728 0.953298,-1.18486 4.638011,-1.18486 5.1796931,0 5.8265231,0.30885 4.1526321,1.98272 -0.621491,0.62151 -0.54798,1.97883 0.216925,4.00527 0.840073,2.22559 0.876537,3.51292 0.133125,4.69984 -1.23996,1.97979 -7.0139361,2.6565 -8.6559431,1.01451 z m 76.735408,-0.0432 c -1.56352,-1.56357 -1.42591,-4.76616 0.29976,-6.97538 1.33801,-1.71296 1.36212,-1.6642 0.34934,0.70627 -1.37426,3.21642 -0.52858,5.51079 2.03116,5.51079 1.08979,0 1.74547,-0.38184 1.45703,-0.84856 -0.28843,-0.46671 0.16044,-1.11137 0.99749,-1.4326 1.1128,-0.42699 1.36596,-0.17753 0.94179,0.92779 -0.36923,0.96215 -0.14911,1.36983 0.6054,1.12135 3.75924,-1.23804 0.0362,-8.29895 -4.37605,-8.29895 -4.48953,0 -2.61528,-1.70452 2.24452,-2.04128 4.39426,-0.30446 5.89572,0.26652 3.91681,1.48955 -0.45433,0.2808 -0.37544,2.18125 0.17639,4.2487 0.76771,2.87617 0.7118,4.08607 -0.24191,5.23521 -1.46132,1.76078 -6.77235,1.9865 -8.40178,0.35708 z m -71.2810069,-2.65498 c 0,-0.52134 0.451726,-0.94787 1.003831,-0.94787 0.552105,0 0.740205,0.42653 0.417997,0.94787 -0.322214,0.52135 -0.773928,0.94786 -1.003829,0.94786 -0.229892,0 -0.417999,-0.42651 -0.417999,-0.94786 z m -3.5415391,-11.10693 c 1.440845,-0.21786 3.5735861,-0.21205 4.7394301,0.014 1.16584,0.225 -0.01298,0.40325 -2.6197191,0.39613 -2.606687,-0.009 -3.560553,-0.1912 -2.119711,-0.40908 z m 76.778746,0 c 1.44085,-0.21786 3.5736,-0.21205 4.73945,0.014 1.16585,0.225 -0.0125,0.40325 -2.61974,0.39613 -2.60667,-0.009 -3.56055,-0.1912 -2.11971,-0.40908 z m -74.422063,-7.92977 c -1.295363,-1.41874 -1.364586,-1.8168 -0.315947,-1.8168 0.7385571,0 1.5916531,0.5332 1.8957751,1.18488 0.442337,0.94788 0.663517,0.94788 1.105855,0 0.304125,-0.65168 1.263856,-1.19139 2.132747,-1.19938 1.247881,-0.0109 1.309608,-0.18562 0.29377,-0.8294 -0.896521,-0.56808 -0.968294,-1.01127 -0.236988,-1.46326 0.576997,-0.3566 1.51589,-0.35988 2.08643,-0.009 0.648252,0.40064 -0.08472,1.66605 -1.954277,3.37355 -1.645387,1.50286 -3.071924,2.69689 -3.170089,2.65345 -0.09816,-0.0434 -0.924927,-0.89655 -1.8372641,-1.89577 z m 8.7679411,-0.39495 c 1.224434,-1.30336 2.439509,-2.36972 2.700177,-2.36972 0.260666,0 -0.527857,1.06636 -1.75229,2.36972 -1.224432,1.30334 -2.439508,2.36972 -2.700173,2.36972 -0.26067,0 0.527855,-1.06638 1.752286,-2.36972 z m 57.2874619,-0.71093 -2.78403,-3.08061 3.08063,2.78403 c 2.87158,2.59511 3.51632,3.37723 2.78403,3.37723 -0.16315,0 -1.54941,-1.38628 -3.08063,-3.08065 z m 7.45284,1.82431 c -0.41691,-0.691 -1.50448,-1.5307 -2.41682,-1.86604 -0.91234,-0.33532 -1.6588,-1.30854 -1.6588,-2.16268 0,-0.99101 0.51453,-1.35556 1.42185,-1.00738 1.59313,0.61135 2.0082,-1.76426 0.47393,-2.7125 -0.52134,-0.32219 -0.94789,-0.17983 -0.94789,0.31659 0,0.49632 -0.72255,1.1797 -1.60564,1.51858 -1.40926,0.54078 -1.39167,0.37966 0.14386,-1.31707 1.33601,-1.47629 2.05159,-1.68253 3.02749,-0.87264 1.6678,1.38416 1.62852,3.38175 -0.0855,4.34092 -1.07522,0.60172 -0.8749,0.99346 0.9479,1.85371 1.27119,0.59989 2.31122,0.7043 2.31122,0.232 0,-0.47229 0.74646,-0.82502 1.65881,-0.78389 0.99096,0.0446 1.18178,0.26734 0.47392,0.55293 -0.65165,0.26297 -1.18484,1.08241 -1.18484,1.82096 0,1.69313 -1.55844,1.74582 -2.5596,0.0865 z m 10.00376,-4.13377 c 0.27223,-4.38199 0.005,-5.64965 -1.42183,-6.764 -1.67989,-1.31131 -1.6808,-1.34502 -0.0206,-0.7699 0.95494,0.33082 1.91467,0.60149 2.13269,0.60149 0.21805,0 0.39642,2.77255 0.39642,6.16126 0,3.38868 -0.31993,6.16183 -0.71091,6.16254 -0.391,5.3e-4 -0.56014,-2.42538 -0.3759,-5.39139 z m -88.929001,0.71299 c -1.283787,-2.39882 -1.239029,-3.78148 0.06341,-1.9581 0.811122,1.13557 0.918436,0.98078 0.533006,-0.7689 -0.554817,-2.51861 1.529386,-3.82288 3.49805,-2.18903 1.657199,1.37534 2.7972301,0.18369 1.416219,-1.48023 -1.650918,-1.98922 -0.547511,-2.10826 1.3281571,-0.14332 1.091471,1.14345 1.25356,1.74275 0.473941,1.75231 -0.893977,0.0109 -0.876782,0.20984 0.07002,0.81013 1.954749,1.23937 -1.47001,4.18525 -4.2481581,3.65418 -2.318085,-0.44313 -3.091509,0.69889 -1.035251,1.52861 0.89306,0.36036 0.901267,0.49653 0.03331,0.55293 -0.633329,0.0413 -1.593067,-0.7502 -2.132741,-1.75863 z m 6.2274671,-2.11919 c 0.45984,-0.74404 0.170061,-0.91122 -0.8805761,-0.50806 -0.938114,0.35997 -1.475507,0.16216 -1.340347,-0.49353 0.124061,-0.60197 -0.627502,-1.24936 -1.670176,-1.43867 -1.430806,-0.25982 -1.575388,-0.1252 -0.589471,0.54864 0.718457,0.49108 1.013195,1.36712 0.654969,1.94672 -0.394952,0.63905 0.09492,1.05387 1.244451,1.05387 1.042675,0 2.2041871,-0.49905 2.5811501,-1.10897 z m 79.0489339,3.09143 c 1.15249,-0.81506 0.95001,-1.00829 -1.0688,-1.02007 -1.36986,-0.009 -2.91127,-0.5477 -3.42539,-1.19937 -1.12937,-1.43153 -1.18888,-4.50246 -0.0872,-4.50246 0.43446,0 0.74042,-0.95971 0.67996,-2.13273 -0.087,-1.68754 -0.20265,-1.77519 -0.55388,-0.41981 -0.75588,2.91669 -3.59473,1.47974 -3.65628,-1.85074 -0.0302,-1.6258 -0.70072,-3.96608 -1.49032,-5.20063 -3.05859,-4.78204 -2.90363,-4.93949 0.80986,-0.82281 2.35564,2.61136 3.45388,4.51176 2.83206,4.90057 -0.55863,0.34932 -1.1149,1.3111 -1.23616,2.13728 -0.12128,0.82616 0.17559,1.25735 0.65969,0.95818 0.48406,-0.29918 0.66235,-0.89632 0.39616,-1.32702 -0.92073,-1.48978 1.97948,-1.71945 4.29235,-0.33994 1.27708,0.76172 1.62254,1.17363 0.76768,0.91538 -1.12816,-0.34081 -1.75581,0.3559 -2.28934,2.54121 -1.13976,4.66849 -1.09072,4.78896 2.22677,5.46746 2.15118,0.43996 2.99894,0.30464 2.72517,-0.43507 -0.21857,-0.59055 -0.87727,-0.96708 -1.46378,-0.83676 -0.5865,0.13035 -1.06637,-0.23519 -1.06637,-0.81232 0,-0.57712 0.66198,-0.79531 1.47107,-0.48478 0.84355,0.32366 1.22401,0.16481 0.89194,-0.37254 -0.88254,-1.42794 -3.11598,-1.11727 -3.61886,0.50338 -0.31252,1.00719 -0.4008,0.93594 -0.29349,-0.23698 0.19866,-2.17105 3.39321,-2.18349 4.75879,-0.0193 1.18395,1.87695 -0.0333,4.60926 -2.32926,5.22912 -1.08616,0.29321 -1.07274,0.16657 0.0677,-0.63997 z M 2.5753511,135.71885 c 0.676281,-1.09424 4.329403,-3.30121 4.329403,-2.61551 0,0.21904 -1.118895,1.13139 -2.486418,2.02744 -1.367533,0.89605 -2.196877,1.16068 -1.842985,0.58807 z m -6.134572,-2.51798 c -0.972257,-1.17152 -1.374262,-1.21921 -1.997328,-0.23703 -0.439669,0.69313 -0.786402,0.78165 -0.794586,0.20284 -0.02795,-1.97778 1.268926,-2.28084 3.011597,-0.70377 1.451535,1.31362 1.960827,1.37239 2.920573,0.33695 0.820266,-0.88497 0.832948,-1.06914 0.04312,-0.62566 -1.371578,0.77008 -2.642401,-1.04863 -2.709539,-3.87769 -0.04683,-1.97486 2.078097,-3.75279 3.174658,-2.65623 0.272954,0.27295 0.10526,0.49656 -0.372634,0.49693 -0.477894,3.5e-4 -0.932212,1.09573 -1.009614,2.43419 -0.09117,1.57734 0.270093,2.27587 1.026886,1.98548 1.448265,-0.55578 1.585214,2.42909 0.155306,3.38521 -1.519835,1.01622 -2.09189,0.89327 -3.448439,-0.74129 z m 50.2751819,-0.90305 c -1.303351,-0.74506 -1.918066,-1.36977 -1.36603,-1.38823 0.552027,-0.0193 1.83168,0.59265 2.843659,1.35809 2.340307,1.77011 1.592808,1.78537 -1.477629,0.0301 z m 7.728193,-0.58315 c -0.78477,-2.1214 0.58934,-6.50456 2.04359,-6.5186 0.42176,-0.002 0.48705,0.4453 0.14511,0.9986 -0.34196,0.55327 -0.81139,2.36613 -1.04324,4.0285 -0.31711,2.27424 -0.18066,2.67051 0.55129,1.6007 0.53502,-0.78201 0.9793,-2.14309 0.98729,-3.02469 0.0253,-2.81631 1.50886,-2.63852 1.72568,0.20682 0.28404,3.72757 -3.23353,5.88822 -4.40972,2.70865 z m -41.102042,-1.91956 c 1.240737,-0.65095 1.956561,-1.70061 1.669652,-2.44827 -0.276212,-0.7198 -0.08056,-1.04813 0.434814,-0.72962 1.180896,0.72983 1.23287,3.31087 0.06667,3.31087 -0.478703,0 -1.65171,0.22648 -2.606684,0.50325 -0.987112,0.28613 -0.799173,0.0109 0.435545,-0.63623 z m -22.5514149,-0.66997 c 0,-0.51414 0.533186,-1.18296 1.184857,-1.48626 1.657995,-0.77163 -4.0837881,-0.0297 -6.3982301,0.82688 -1.042673,0.38584 0.36692,-0.64215 3.13242,-2.28441 4.7908631,-2.845 10.6119251,-9.99076 10.6119251,-13.02684 0,-0.67993 0.42655,-1.23622 0.947886,-1.23622 1.517288,0 1.165719,0.85657 -2.771532,6.75264 -2.045671,3.06342 -3.240008,5.56986 -2.65408,5.56986 0.748449,0 0.726998,0.33834 -0.0721,1.13746 -0.625604,0.62561 -1.130931,1.79863 -1.12295,2.60669 0.01296,1.29738 0.132123,1.30293 1.020049,0.0474 0.89381,-1.26385 0.962936,-1.26385 0.622154,0 -0.426216,1.58074 -4.500363,2.57001 -4.500363,1.09282 z m 2.843659,-3.93647 c 0,-0.52134 -0.188086,-0.94788 -0.418,-0.94788 -0.229893,0 -0.681623,0.42654 -1.003831,0.94788 -0.322214,0.52134 -0.134093,0.9479 0.417998,0.9479 0.552107,0 1.003833,-0.42656 1.003833,-0.9479 z m 8.97114,3.8462 c 0.296243,-0.47935 0.08443,-1.15228 -0.470739,-1.49536 -1.016941,-0.62852 0.468967,-3.29872 1.835667,-3.29872 1.3405,0 0.936577,4.57573 -0.450933,5.10819 -0.798942,0.30659 -1.210237,0.16519 -0.913995,-0.31411 z m 37.0013089,-0.0547 c -0.747357,-1.20925 0.24588,-2.84803 1.714755,-2.82914 0.681283,0.009 0.565153,0.38461 -0.292913,0.94788 -1.263838,0.82967 -1.263838,1.03709 0,1.86674 0.858071,0.5633 0.974207,0.93915 0.292913,0.9479 -0.620907,0.009 -1.392542,-0.41204 -1.714755,-0.93338 z M 24.92522,127.09505 c -0.874531,-0.87451 -2.387875,-1.47295 -3.362997,-1.32986 -6.312322,0.92649 -16.8001439,-6.72889 -17.9963589,-13.13602 -1.059438,-5.67457 0.26744,-10.18502 4.133571,-14.051137 L 11.180533,95.096939 8.6335761,94.135546 c -2.13013,-0.804036 -2.846651,-0.629789 -4.378153,1.064552 -1.007155,1.114264 -2.303023,2.879005 -2.879706,3.921705 -0.576686,1.042657 -1.061488,1.377407 -1.077338,0.74389 -0.01579,-0.63353 1.250822,-2.609311 2.814835,-4.390617 3.280268,-3.736033 3.61676,-4.890758 1.020224,-3.50113 -2.084437,1.115538 -5.329113,7.661077 -9.04696,18.250564 -1.939097,5.52314 -3.47442,8.13112 -6.2777191,10.66375 -2.040956,1.84389 -4.449411,3.35252 -5.352122,3.35252 -0.958218,0 -0.26672,-0.73044 1.661528,-1.75513 4.004131,-2.1278 6.8537561,-6.12798 9.4475611,-13.26203 1.072305,-2.94933 2.652698,-7.28186 3.511965,-9.627877 0.859272,-2.346014 2.983604,-5.694436 4.720745,-7.440907 4.037746,-4.059479 4.405095,-6.864375 0.569891,-4.351457 -4.173562,2.734635 -5.693562,5.108504 -9.371435,14.635991 -1.911876,4.95273 -4.2474291,10.30084 -5.1901111,11.8847 -1.890575,3.17651 -8.048839,7.07304 -11.178571,7.07304 -3.448804,0 -2.405778,2.83304 1.07694,2.92513 l 3.08063,0.0815 -2.76244,0.8261 c -3.281345,0.98126 -4.346703,0.4928 -4.346703,-1.99287 0,-1.20791 -0.65114,-1.83982 -1.895768,-1.83982 -1.412769,0 -1.895773,-0.63194 -1.895773,-2.48028 0,-2.03812 0.348295,-2.38919 1.953751,-1.96935 2.017388,0.52756 4.073597,-2.23024 2.142748,-2.87384 -0.541199,-0.18042 -1.694858,-0.84579 -2.563671,-1.47866 -1.282777,-0.93443 -0.341993,-1.09207 5.005507,-0.83883 7.567576,0.35844 7.058345,0.83452 11.104188,-10.38151 3.9506651,-10.952143 7.4690271,-15.335091 14.9313891,-18.600503 8.3589579,-3.657718 17.1730879,1.899061 14.0131069,8.834468 -0.576322,1.264891 -1.468712,2.299813 -1.983082,2.299813 -1.537706,0 -7.6307309,5.770515 -9.1066409,8.624592 -3.441487,6.65511 -0.494529,15.70121 6.2285679,19.11943 l 3.298709,1.67716 3.492695,-3.70687 c 2.364375,-2.50937 3.648687,-3.30038 3.975554,-2.44858 0.505138,1.31638 -2.829136,6.24325 -3.968182,5.86358 -0.606636,-0.2022 -1.426381,1.02928 -0.893379,1.34212 1.195614,0.70175 4.460224,-1.71379 5.64734,-4.17855 l 1.478475,-3.06969 -0.473146,4.37893 c -0.517863,4.7928 0.419173,6.08953 3.65765,5.06166 1.755377,-0.55713 1.94129,-1.17184 1.52349,-5.0376 l -0.475856,-4.40299 1.478474,3.06969 c 1.311378,2.72278 2.942169,3.99253 5.173401,4.02811 0.391002,0.005 0.604272,-0.30855 0.473939,-0.69959 -0.130351,-0.39097 -0.532346,-0.61245 -0.893373,-0.49209 -1.139048,0.37967 -4.473323,-4.5472 -3.968183,-5.86358 0.326867,-0.8518 1.611173,-0.0609 3.97555,2.44858 l 3.492686,3.70687 3.29872,-1.67716 c 4.63767,-2.35794 7.601979,-7.15667 7.601979,-12.3064 0,-4.70116 -1.014907,-7.13572 -4.558655,-10.935167 -1.337174,-1.433694 -1.969072,-2.606686 -1.40419,-2.606686 0.56485,0 2.329823,1.483787 3.922124,3.297336 5.092662,5.800197 5.129092,14.104407 0.08701,19.846987 -3.778359,4.30329 -10.645331,7.4861 -14.381141,6.66559 -1.875291,-0.41188 -2.650736,-0.28944 -2.25209,0.35557 1.519857,2.45918 -4.666373,3.45441 -6.995389,1.12538 z m -3.681267,-6.40887 c 1.179044,-1.50339 1.145521,-1.53692 -0.357898,-0.35787 -1.578941,1.23827 -2.081061,2.01666 -1.300915,2.01666 0.196823,0 0.943286,-0.74645 1.658797,-1.65879 z m 15.045259,1.30092 c 0,-0.19683 -0.746463,-0.94329 -1.6588,-1.65879 -1.503405,-1.17905 -1.536924,-1.14552 -0.357895,0.35788 1.238291,1.57897 2.016677,2.08109 2.016677,1.30095 z m -54.095329,-2.92563 c 4.437739,-2.29485 7.226551,-6.51696 9.9461871,-15.05801 2.680611,-8.418474 6.584687,-14.88889 10.127636,-16.785026 6.286739,-3.364548 11.6693269,-2.736605 11.0927949,1.294119 -0.294416,2.058479 -3.6120899,3.595904 -3.6120899,1.673823 0,-0.559556 0.6753699,-1.017362 1.5008169,-1.017362 0.825457,0 1.323098,-0.533199 1.105869,-1.184873 -0.217209,-0.65165 -1.425782,-1.184849 -2.6856749,-1.184849 -1.758278,0 -2.356943,0.569667 -2.575618,2.450846 -0.156699,1.347967 0.350697,2.978335 1.127535,3.623064 2.2058919,1.830714 6.5355779,0.88583 7.8212979,-1.706899 2.345648,-4.730133 -3.025497,-9.523211 -9.2718099,-8.27395 -7.736946,1.547399 -12.834373,7.421307 -17.7856641,20.494917 -1.67826,4.43138 -3.984683,9.07177 -5.125381,10.31196 -2.654125,2.88562 -7.848247,5.10482 -10.200604,4.35821 -1.272783,-0.40396 -1.826199,-0.12943 -1.826199,0.90608 0,1.96114 6.636558,2.02388 10.360904,0.0979 z m -3.034529,-2.97644 c -0.314982,-0.31499 -1.132534,-0.34867 -1.816786,-0.0748 -0.756158,0.30257 -0.531557,0.52718 0.572684,0.57266 0.99922,0.0413 1.559071,-0.18293 1.244102,-0.49785 z m 1.915516,-2.9244 c -0.912343,-0.23841 -2.405262,-0.23841 -3.317602,0 -0.912339,0.23843 -0.165865,0.43349 1.658802,0.43349 1.824678,0 2.571137,-0.19506 1.6588,-0.43349 z m 69.99925,15.12236 c -0.311649,-0.31166 -0.560087,-1.02872 -0.552106,-1.59351 0.0086,-0.56478 0.427999,-0.38706 0.933361,0.39496 0.505383,0.782 0.925409,0.97394 0.933379,0.42654 0.008,-0.54739 -0.518675,-1.54853 -1.170352,-2.22473 -0.958172,-0.99429 -0.824257,-1.16446 0.700039,-0.88962 2.261123,0.40771 3.036923,3.18101 1.097973,3.92505 -0.75663,0.29034 -1.630656,0.27293 -1.942294,-0.0388 z m -2.462386,-3.09436 c 0,-1.35384 -0.385866,-1.77584 -1.184864,-1.29579 -0.814913,0.48957 -0.781371,0.21433 0.107406,-0.88153 0.71075,-0.87633 1.634044,-1.3821 2.05178,-1.12394 0.417735,0.25818 0.975564,-0.0665 1.239594,-0.72135 0.289626,-0.71836 0.509743,-0.53269 0.554913,0.46805 0.04106,0.91234 -0.397357,1.65879 -0.974476,1.65879 -0.577118,0 -0.80903,0.62617 -0.515341,1.39148 0.29367,0.76531 0.126038,1.64358 -0.37254,1.9517 -0.498555,0.30816 -0.906477,-0.3432 -0.906477,-1.44741 z m -61.184676,-1.32894 c 2.20061,-1.33202 4.8364721,-4.16456 6.3904971,-6.86733 1.454737,-2.53008 2.648469,-4.21113 2.652723,-3.73556 0.03189,3.58177 -8.6134381,12.89427 -11.9527201,12.87488 -0.459808,-0.002 0.849469,-1.02507 2.9095,-2.27199 z m 79.408276,0.25733 c -2.8251,-1.80908 -7.80794,-8.75658 -7.78914,-10.86022 0.003,-0.47552 1.198,1.20548 2.65273,3.73558 1.55403,2.70277 4.18989,5.53529 6.39051,6.86731 2.06004,1.24692 3.31896,2.26212 2.79762,2.25603 -0.52133,-0.005 -2.34461,-0.90554 -4.05172,-1.9987 z m -68.2856919,-1.51125 c 0.173183,-0.89924 1.369344,-2.16068 2.658128,-2.80324 2.028687,-1.0114 2.62808,-0.90066 4.464844,0.8249 2.117316,1.98909 2.103202,4.26997 -0.01828,2.94529 -1.820081,-1.13649 -4.298441,-1.27081 -4.91908,-0.26659 -0.958568,1.551 -2.52272,1.04978 -2.185672,-0.70036 z m 4.157809,-0.96409 c 1.005173,0.15636 2.467414,0.66509 3.249419,1.13066 0.919161,0.54716 0.803798,0.14114 -0.326338,-1.1487 -1.901477,-2.1701 -5.419471,-1.7015 -6.095244,0.81186 -0.27754,1.03221 -0.166694,1.06068 0.493306,0.12677 0.4682,-0.66256 1.673684,-1.07677 2.678848,-0.92046 z m 53.5973229,0.94029 c -0.0717,-1.38925 -0.68823,-2.10666 -1.76875,-2.05792 -0.99097,0.0446 -1.18177,0.26733 -0.47395,0.55293 1.64128,0.66227 1.48691,1.89994 -0.23698,1.89994 -1.879919,0 -1.830871,-2.43024 0.0636,-3.15725 1.95572,-0.75048 3.5477,0.92526 2.97876,3.13555 -0.37275,1.44822 -0.47232,1.38219 -0.56281,-0.37325 z m -28.396865,-1.18489 c 0,-1.30331 0.215166,-1.83651 0.478096,-1.18485 0.262959,0.65169 0.262959,1.71806 0,2.36974 -0.262956,0.65165 -0.478096,0.11853 -0.478096,-1.18489 z M 1.6524081,116.59479 c -0.343643,-0.55603 -0.42151,-1.21426 -0.173029,-1.46273 0.248449,-0.24847 0.704336,0.20647 1.013052,1.01094 0.640943,1.6703 0.0947,1.96411 -0.840014,0.45179 z m 21.7021529,-2.76065 c -0.423988,-2.11993 -1.366527,-3.11364 -3.781694,-3.98697 -4.094003,-1.48042 -3.707882,-2.5273 1.586106,-4.30041 5.187384,-1.7374 5.24346,-1.78842 3.833594,-3.48718 -0.957025,-1.15315 -1.559841,-3.512877 -1.908445,-7.470627 -0.03594,-0.407801 -0.981601,-1.080419 -2.10151,-1.49471 -1.914133,-0.708075 -1.826084,-0.883106 1.468751,-2.919402 l 3.504947,-2.166197 -0.596847,-6.291917 c -0.471041,-4.965745 -0.281156,-6.691493 0.900967,-8.187694 l 1.497811,-1.895754 1.497813,1.895754 c 1.182118,1.496201 1.37201,3.221949 0.900966,8.187694 l -0.596846,6.291917 3.504947,2.166197 c 3.294831,2.036296 3.382887,2.211327 1.468742,2.919402 -1.119906,0.414291 -2.065581,1.086909 -2.101503,1.49471 -0.348623,3.95775 -0.951416,6.317477 -1.908445,7.470627 -1.409865,1.69876 -1.353796,1.74978 3.833591,3.48718 2.326245,0.77914 4.358588,1.80371 4.516295,2.27687 0.157707,0.47316 -1.212387,1.40237 -3.044685,2.06492 -2.001824,0.72388 -3.337241,1.84224 -3.34596,2.80214 -0.0073,0.87858 -0.474767,2.23725 -1.037313,3.01926 -0.863303,1.20013 -0.939577,1.16318 -0.489174,-0.23697 0.446931,-1.3893 -0.07272,-1.65882 -3.198428,-1.65882 -2.927943,0 -3.614489,0.30636 -3.186441,1.42183 0.300074,0.782 0.276037,1.42184 -0.05346,1.42184 -0.329489,0 -0.853189,-1.27066 -1.163795,-2.82371 z m 6.073531,-1.61912 c -0.906264,-0.23723 -2.61246,-0.24587 -3.791541,-0.0192 -1.179085,0.22673 -0.437601,0.42084 1.647744,0.43136 2.085359,0.01 3.050068,-0.17503 2.143797,-0.41222 z m 1.173803,-2.19239 c -0.782006,-0.50535 -3.341291,-0.89542 -5.687312,-0.86674 -3.246158,0.0396 -3.812453,0.24681 -2.369714,0.86674 2.75965,1.18589 9.892026,1.18589 8.057026,0 z m -9.223842,-2.51751 c -0.641748,-0.25963 -1.921395,-0.27547 -2.843657,-0.035 -0.92227,0.24031 -0.397197,0.45275 1.166817,0.47207 1.56401,0.0192 2.318584,-0.17734 1.67684,-0.43697 z m 4.2277,0.0491 c -0.314982,-0.31496 -1.132534,-0.34865 -1.816785,-0.0748 -0.756155,0.30256 -0.531556,0.52717 0.572686,0.57266 0.999225,0.0413 1.559076,-0.18292 1.244099,-0.49784 z m 5.251155,-0.0491 c -0.64175,-0.25963 -1.921391,-0.27547 -2.843659,-0.035 -0.922261,0.24031 -0.397192,0.45275 1.166819,0.47207 1.56401,0.0192 2.318583,-0.17734 1.67684,-0.43697 z m 7.071358,0.0491 c -0.314982,-0.31496 -1.132537,-0.34865 -1.816786,-0.0748 -0.756156,0.30256 -0.531548,0.52717 0.572693,0.57266 0.999216,0.0413 1.559067,-0.18292 1.244093,-0.49784 z m -8.037286,-1.99204 c -1.173,-0.22592 -3.092476,-0.22592 -4.265481,0 -1.173009,0.22593 -0.21327,0.41078 2.132742,0.41078 2.346016,0 3.305747,-0.18484 2.132739,-0.41078 z m -1.18486,-3.59654 c 0,-0.78199 -0.62643,-1.42181 -1.392079,-1.42181 -0.847968,0 -1.178817,0.55573 -0.846473,1.42181 0.300072,0.78201 0.926527,1.42184 1.392093,1.42184 0.465548,0 0.846459,-0.63983 0.846459,-1.42184 z m 1.895775,-5.609765 c 0,-0.218046 0.2266,-0.986963 0.503576,-1.708705 0.370129,-0.964551 -0.50901,-1.372047 -3.317592,-1.537756 -4.058009,-0.239467 -4.139585,-0.185617 -3.245822,2.143511 0.494443,1.288512 6.059838,2.301457 6.059838,1.10295 z m 0.947891,-6.238788 c -0.782004,-0.505375 -2.488199,-0.918859 -3.791545,-0.918859 -1.303341,0 -3.009537,0.413484 -3.791543,0.918859 -1.012277,0.654181 0.07981,0.918846 3.791543,0.918846 3.711691,0 4.803816,-0.264701 3.791545,-0.918846 z M 27.832575,79.810618 c 0.499124,0.807618 0.656356,0.23295 0.424508,-1.55154 -0.202526,-1.558809 -0.397613,-3.438497 -0.433528,-4.177059 -0.129896,-2.670963 -1.278474,-0.04954 -1.51043,3.447378 -0.130688,1.970527 -0.02077,3.00133 0.244546,2.290676 0.404689,-1.08446 0.609586,-1.085976 1.274923,-0.0096 z m 28.362229,35.053552 c 0,-0.63902 -0.42654,-0.89821 -0.94789,-0.57598 -1.15099,0.71133 -1.21408,-0.48214 -0.11698,-2.21289 0.60021,-0.94684 0.94467,-0.71889 1.36972,0.90651 0.31232,1.19429 0.37149,2.36781 0.13153,2.60781 -0.24001,0.24 -0.43637,-0.0865 -0.43637,-0.72545 z m -80.739922,-5.21826 c 0.875308,-0.46788 1.678893,-0.91078 1.785741,-0.98417 0.329022,-0.22608 -2.174651,-7.09667 -2.821939,-7.74395 -0.335113,-0.33512 0.213161,-1.302827 1.218429,-2.150437 1.319074,-1.11223 1.883238,-2.940025 2.027148,-6.567705 0.109664,-2.764604 0.519226,-5.224224 0.910114,-5.465804 1.307557,-0.808119 2.081498,1.73463 1.919668,6.306996 -0.129342,3.653989 0.229284,4.803533 1.853303,5.941053 1.341961,0.93994 1.744811,1.830937 1.207666,2.671037 -0.443301,0.69333 -1.279627,2.60981 -1.858511,4.25886 -0.916082,2.60961 -0.822063,3.10109 0.725314,3.79154 1.224022,0.54618 0.167945,0.79328 -3.390285,0.79328 -3.602089,0 -4.685873,-0.25775 -3.576648,-0.8507 z m 4.41479,-3.17828 c 0.07516,-0.91207 0.683231,-2.66385 1.351196,-3.89282 0.790852,-1.45508 0.891344,-2.55765 0.288109,-3.160897 -1.206376,-1.20636 -5.469149,-0.55767 -5.214196,0.793467 0.107994,0.57224 0.3898,2.05502 0.626288,3.29509 1.001886,5.25384 2.625317,6.88642 2.948603,2.96516 z m 93.217462,3.17828 c 0.87531,-0.46788 1.72766,-0.95952 1.89411,-1.09254 0.16644,-0.13302 -0.15348,-1.13649 -0.71092,-2.22992 -0.55744,-1.09344 -1.47151,-2.88568 -2.03121,-3.98272 -0.8401,-1.64659 -0.65899,-2.24585 1.03797,-3.434427 1.63957,-1.14841 1.96971,-2.135528 1.63119,-4.877532 -0.46049,-3.730018 0.71378,-8.11077 1.96657,-7.336515 0.42788,0.264475 0.86771,2.742788 0.9774,5.507392 0.14396,3.62768 0.70807,5.455475 2.02715,6.567705 1.00524,0.84761 1.55353,1.815317 1.21842,2.150437 -0.6473,0.64728 -3.15097,7.51787 -2.82193,7.74395 0.10672,0.0733 0.91042,0.51629 1.78574,0.98417 1.1122,0.59453 0.0621,0.8507 -3.48726,0.8507 -3.54929,0 -4.59945,-0.25617 -3.48723,-0.8507 z m 5.38686,-5.3305 c 0.19868,-1.03171 -0.14742,-1.88877 -0.76919,-1.90466 -0.62174,-0.0156 -0.37502,-0.4686 0.5483,-1.00614 2.1683,-1.26233 1.22802,-2.756557 -1.73468,-2.756557 -1.82117,0 -2.31377,0.4926 -2.31377,2.313767 0,1.27257 0.43351,2.5817 0.96336,2.90914 0.52983,0.32746 0.74174,0.95397 0.47086,1.39225 -0.27087,0.43826 -0.21427,1.52185 0.12585,2.40798 0.56673,1.4769 0.69027,1.48236 1.48314,0.0657 0.47573,-0.85002 1.02748,-2.38965 1.22618,-3.42134 z"
       id="path6447"
       inkscape:connector-curvature="0" />
  </g>
</svg>
