<svg width="200mm" height="104mm" viewBox="0 0 200 104" xmlns="http://www.w3.org/2000/svg"><defs><linearGradient id="a" x1="26.819" x2="156.29" y1="87.048" y2="244.55" gradientTransform="translate(-11.346 83.75) scale(.52023)" gradientUnits="userSpaceOnUse"><stop stop-color="#fff" offset="0"/><stop stop-color="#fff" stop-opacity=".561" offset=".568"/><stop stop-color="#fff" stop-opacity=".843" offset="1"/></linearGradient></defs><path d="M-27.197 397.47c.038-4.377 1.687-10.079 3.243-11.217.81-.593 1.474-1.564 1.474-2.158 0-.594.413-1.08.918-1.08 1.245 0 .093 2.78-2.03 4.904-2.24 2.239-2.202 3.626.1 3.626 1.655 0 3.589-3.109 3.095-4.976-.103-.391.264-.71.816-.71.552 0 .763-.391.468-.868-.795-1.287.798-1.553 6.343-1.057l4.982.446-5.213.584c-2.868.322 4.81.648 17.062.725 12.25.077 21.72-.212 21.043-.641-.749-.475.74-.841 3.791-.934 3.588-.109 4.617.114 3.602.781-1.015.667.07.9 3.791.814 5.093-.117 5.126-.135 1.422-.782-3.277-.572-2.924-.671 2.607-.73 3.519-.039 6.398.32 6.398.796 0 .476 1.386.815 3.08.753l3.081-.112-2.844-.678c-1.915-.456-.369-.686 4.74-.704 5.53-.018 6.685.16 4.265.665-3.144.655-3.07.697 1.422.802 3.376.078 4.33-.154 3.318-.809-1.034-.667-.256-.919 2.843-.919 3.1 0 3.877.252 2.844.92-1.16.749-1.045.92.622.933 1.58.01 1.932-.416 1.548-1.882-.486-1.861-1.292-1.895-44.518-1.895-29.107 0-43.824-.321-43.436-.948.377-.61 16.282-.948 44.607-.948 38.9 0 44.021.168 44.021 1.451 0 .799.638 1.697 1.417 1.995.779.3 1.18.926.892 1.393-.289.466-.048.848.535.848.583 0 .871.32.641.711-.9 1.528 1.263 4.976 3.12 4.976 2.39 0 2.463-1.359.195-3.627-2.124-2.124-3.275-4.904-2.03-4.904.505 0 .918.487.918 1.08 0 .595.663 1.566 1.474 2.159 1.556 1.138 3.204 6.84 3.242 11.217.023 2.574-.052 2.607-6.037 2.607-4.512 0-6.199-.364-6.605-1.422-.338-.88-1.78-1.422-3.777-1.422-1.777 0-3.762-.64-4.411-1.422-1.008-1.214-5.997-1.422-34.124-1.422-28.127 0-33.116.208-34.124 1.422-.65.782-2.635 1.422-4.412 1.422-1.998 0-3.44.543-3.777 1.422-.406 1.058-2.093 1.422-6.605 1.422-5.984 0-6.06-.033-6.037-2.607zm6.218-1.185c2.533 0 4.186.432 4.186 1.095 0 .627.797.374 1.865-.593 1.03-.932 2.68-1.474 3.686-1.21 1.002.261 2.403.108 3.112-.341.772-.49-2.614-.823-8.426-.832-9.47-.014-9.714.04-9.64 2.118.04 1.173.29 1.6.552.948.281-.697 2.202-1.185 4.665-1.185zm97.553 0c2.399 0 4.306.493 4.585 1.185.263.652.512.225.553-.948.073-2.079-.17-2.132-9.64-2.118-5.556.009-9.183.353-8.47.805.685.434 2.204.607 3.375.383 1.254-.24 2.675.251 3.458 1.195.817.984 1.465 1.196 1.68.55.193-.578 2.2-1.052 4.459-1.052zm-90.754-6.467c-.336-1.284.047-1.69 1.494-1.584 1.07.079 2.045.654 2.166 1.277.12.624.002.694-.264.157-.55-1.11-2.218-.369-2.218.986 0 .49.853.892 1.896.892 1.206 0 1.896-.632 1.896-1.738 0-.956.616-1.738 1.37-1.738 1.036 0 1.143.425.44 1.738-.792 1.482-.56 1.738 1.584 1.738 1.928 0 2.413-.387 2.08-1.66-.363-1.386.225-1.658 3.588-1.658 3.536 0 3.914.2 3.133 1.659-.74 1.382-.476 1.659 1.58 1.659 1.96 0 2.353-.357 1.915-1.738-.353-1.111-.08-1.738.754-1.738.8 0 1.13.674.85 1.738-.34 1.302.077 1.738 1.663 1.738 1.55 0 2-.445 1.684-1.66-.361-1.38.24-1.669 3.585-1.722 2.953-.048 3.891.267 3.539 1.185-.609 1.585-2.168 1.631-2.187.064-.01-.79-.32-.71-.933.237-.668 1.033-.923 1.083-.934.18-.007-.682-.44-.976-.962-.654-2.236 1.381-.608 2.37 3.902 2.37 4.236 0 4.792-.22 4.395-1.738-.278-1.064.052-1.738.852-1.738.834 0 1.106.627.753 1.738-.485 1.529.026 1.738 4.252 1.738 2.642 0 4.804-.402 4.804-.892 0-1.414-1.888-2.202-1.971-.823-.059.97-.187.96-.589-.051-.434-1.091-.655-1.091-1.419 0-.764 1.09-.986 1.09-1.422 0-.436-1.091-.657-1.091-1.421 0-.749 1.068-.842 1.056-.537-.07.243-.902 1.826-1.41 4.682-1.506 3.756-.124 4.256.083 3.859 1.6-.342 1.307.073 1.742 1.661 1.742 1.58 0 2.003-.437 1.667-1.722-.385-1.47.134-1.713 3.53-1.66 3.308.054 3.907.345 3.547 1.723-.312 1.194.128 1.66 1.572 1.66 2.23 0 2.567-.958.918-2.607-.82-.82-.587-1.051.947-.935 1.497.112 1.895.602 1.5 1.847-.423 1.33-.009 1.694 1.929 1.694 2.091 0 2.326-.262 1.544-1.724-.827-1.545-.502-1.717 3.134-1.658 3.38.054 3.983.341 3.622 1.723-.371 1.42.264 1.66 4.416 1.66 2.668 0 4.85-.402 4.85-.893 0-1.354-1.668-2.096-2.217-.986-.266.538-.385.467-.264-.156.12-.624 1.096-1.199 2.166-1.278 1.446-.106 1.83.3 1.494 1.585-.367 1.404.113 1.727 2.568 1.727 2.59 0 2.977-.304 2.717-2.133l-.302-2.132-46.446-.249c-42.823-.229-46.54-.122-47.631 1.366-1.866 2.542-1.434 3.148 2.243 3.148 2.85 0 3.352-.291 2.976-1.728zm-4.51.002c0-1.145 1.8-2.481 2.456-1.824.24.239-.216.974-1.01 1.633-.901.748-1.445.82-1.445.191zm80.827-.621c-.954-1.084-.824-1.3.71-1.184 1.033.078 1.877.69 1.877 1.361 0 1.576-1.112 1.5-2.587-.177zm10.05-.261c-1.18-1.504-1.146-1.537.358-.358.912.715 1.659 1.462 1.659 1.658 0 .78-.779.279-2.017-1.3zm-70.985.948c-.013-1.418-.148-1.452-.934-.237-.667 1.033-.922 1.082-.933.18-.007-.682-.441-.977-.962-.654-1.603.99-1.052 2.37.948 2.37 1.179 0 1.89-.628 1.88-1.66zm41.044.048c-.444-1.157-.735-1.26-1.033-.367-.314.942-.585.968-1.116.11-.508-.822-.86-.721-1.277.366-.429 1.117.015 1.502 1.734 1.502 1.784 0 2.17-.367 1.692-1.611zm15.844.719c0-.49-.427-1.156-.948-1.478-.521-.322-.955-.029-.962.655-.011.902-.266.852-.934-.181-.785-1.215-.92-1.18-.933.237-.01 1.032.702 1.659 1.881 1.659 1.043 0 1.896-.402 1.896-.892zm-28.2-5.423c-.652-.263-1.718-.263-2.37 0-.652.263-.118.478 1.185.478s1.836-.215 1.185-.478zm15.166 0c-.652-.263-1.718-.263-2.37 0-.652.263-.118.478 1.185.478s1.836-.215 1.185-.478zm-51.186-.973c.912-.239 2.405-.239 3.317 0 .913.238.166.433-1.658.433-1.825 0-2.572-.195-1.66-.433zm9.03-.042c2.23-.2 5.642-.198 7.583.009 1.941.203.117.367-4.054.364-4.17-.002-5.759-.17-3.53-.37zm13.732.014c1.44-.218 3.573-.212 4.74.014 1.165.225-.014.403-2.62.396-2.607-.009-3.561-.191-2.12-.41zm-38.5-3.28c-2.294-1.284-5.306-8.032-5.332-11.947-.026-3.958 1.55-7.681 6.474-15.283 4.85-7.49 5.27-12.108 1.45-15.929-2.388-2.388-2.424-2.581-.948-5.08 1.385-2.345 1.534-11.516 1.534-94.516 0-78.638-.196-92.082-1.358-93.047-.959-.796-1.447-3.76-1.659-10.071l-.3-8.944 2.843.131c2.237.103 2.389.219.711.542-2.01.387-2.133.869-2.133 8.402v7.991h18.037l4.975-4.052c8.503-6.926 13.756-8.737 25.35-8.741 9.333-.002 10.368.193 16.115 3.048 3.378 1.679 7.764 4.558 9.748 6.398l3.608 3.347h18.852v-7.987c0-6.81-.245-8.051-1.659-8.42-.996-.261-.523-.516 1.185-.639 2.814-.202 2.819-.212.474-.963-2.245-.719-2.208-.764.71-.853 3.518-.108 4.511-2.938 1.032-2.938-1.127 0-3.828-1.042-6.001-2.316-4.363-2.557-6.32-5.817-10.945-18.227-2.225-5.97-3.8-8.57-6.868-11.343-3.004-2.714-4.052-3.231-4.268-2.107-.158.819 1.157 2.937 2.922 4.707 1.8 1.806 4.116 5.716 5.275 8.906 1.137 3.128 2.724 7.475 3.527 9.66 2.13 5.798 5.163 9.815 8.914 11.808 1.816.965 2.64 1.755 1.83 1.755-.811 0-3.212-1.487-5.336-3.305-3.047-2.61-4.406-4.856-6.445-10.664-3.736-10.637-6.977-17.181-9.064-18.298-2.597-1.39-2.26-.235 1.02 3.5 1.564 1.782 2.83 3.758 2.815 4.391-.016.634-.501.3-1.078-.744-.576-1.042-1.882-2.817-2.9-3.944-1.742-1.925-2.052-1.965-5.174-.66-2.951 1.233-3.574 1.222-5.586-.097-6.968-4.565-1.697-13.767 7.203-12.573 8.948 1.2 15.298 7.434 19.043 18.696 3.882 11.671 3.781 11.572 11.356 11.213 5.064-.24 6.256-.065 5.131.754-.805.587-3.268.963-5.473.838-2.206-.126-2.667-.05-1.026.17 1.91.255 3.151 1.04 3.45 2.182.333 1.275 1.035 1.634 2.466 1.26 1.66-.434 2-.1 2 1.957 0 1.59-.518 2.48-1.444 2.48-.795 0-1.855 1.077-2.356 2.394-.5 1.317-1.556 2.642-2.346 2.945-1.132.434-1.436 2.313-1.436 8.865 0 6.233-.356 8.608-1.422 9.493-1.246 1.034-1.422 12.55-1.422 93.1 0 82.999.15 92.172 1.534 94.517 1.48 2.506 1.443 2.689-1.063 5.195-3.655 3.655-2.967 8.943 2.2 16.899 4.567 7.034 5.867 10.217 5.84 14.289-.028 4.02-3.126 10.664-5.587 11.98-2.61 1.398-2.496.462.357-2.93 4.98-5.918 4.805-12.585-.54-20.535-1.509-2.243-3.382-5.314-4.164-6.826-2.518-4.87-1.456-12.438 2.036-14.5 1.069-.631 1.046-1.216-.139-3.507-1.235-2.389-1.422-14.825-1.422-94.741v-91.992l-9.242-.01c-9.211-.01-9.251-.02-12.292-3.15-1.677-1.728-5.303-4.37-8.057-5.87-4.604-2.51-5.818-2.734-15.116-2.78-5.56-.028-9.612.285-9.004.695.607.41-.176.485-1.74.167-2.262-.461-2.553-.358-1.422.507 1.15.878.991.964-.83.449-1.519-.43-2.042-.3-1.609.4.415.673.068.82-.985.415-1.096-.42-1.405-.266-.948.474.458.74.149.895-.947.474-1.057-.405-1.401-.258-.982.42.355.573.145 1.352-.465 1.729-.733.453-.854.273-.358-.532.505-.816.32-1.06-.564-.738-.724.263-1.224.917-1.11 1.453.114.537-.501 1.55-1.367 2.252-1.107.898-1.363.924-.862.09 1.307-2.174-1.131-1.218-3.022 1.186-1.757 2.233-2.386 2.37-10.969 2.37h-9.105v92.207c0 82.736-.155 92.43-1.507 94.36-1.42 2.027-1.365 2.292.948 4.605 4.386 4.386 3.31 11.09-3.337 20.808-5.113 7.475-5.044 15.245.185 20.811 2.406 2.56 2.205 3.582-.416 2.115zM2.996 141.9c4.11-4.24 11.687-7.975 18.9-9.317 10.28-1.912 21.47 1.385 29.908 8.813l4.206 3.702 17.719-.39-8.43-.318c-8.351-.314-8.47-.354-12.796-4.2-2.402-2.136-6.713-4.99-9.58-6.34-4.565-2.152-6.452-2.46-15.166-2.477-9.204-.017-10.416.203-16.114 2.928-3.389 1.622-7.722 4.484-9.63 6.36-3.382 3.329-3.675 3.42-11.849 3.73l-8.38.317 18.112.39zm26.894-8.845c-1.173-.226-3.093-.226-4.266 0-1.173.225-.213.41 2.133.41s3.306-.185 2.133-.41zm53.793-14.087c0-1.036-.554-1.31-1.826-.907-2.622.833-7.812-1.61-10.69-5.03-1.36-1.616-3.605-6.339-4.99-10.494-3.038-9.125-7.54-15.315-13.092-18.003-4.647-2.25-7.13-2.473-10.486-.944-5.213 2.375-4.761 9.529.641 10.154 3.44.397 5.539-1.421 5.182-4.49-.219-1.881-.817-2.451-2.576-2.451-1.26 0-2.468.533-2.685 1.185-.218.652.28 1.185 1.106 1.185.825 0 1.5.458 1.5 1.017 0 1.922-3.317.385-3.612-1.674-.681-4.764 7.279-4.563 13.096.332 3.547 2.984 5.112 5.916 8.186 15.332 3.795 11.627 8.444 16.15 16.692 16.235 2.611.027 3.554-.357 3.554-1.448zm-4.996-2.879c-.315-.315-1.133-.349-1.817-.075-.756.303-.532.527.573.573.999.041 1.559-.183 1.244-.498zm-97.482 260.77c-3.09-1.68-5.003-6.115-4.205-9.75.334-1.52 2.612-5.92 5.061-9.778 3.997-6.293 4.451-7.573 4.425-12.464l-.028-5.45h82.599l-.029 5.45c-.026 4.89.429 6.17 4.425 12.464 5.154 8.117 6.126 11.438 4.498 15.37-2.315 5.588-2.267 5.583-50.383 5.541-36.057-.032-44.328-.278-46.363-1.383zm15.575-.854c-.32-.573-.007-.509.695.143.964.894 8.39 1.184 30.282 1.184s29.318-.29 30.282-1.184c.702-.652 1.013-.713.692-.136-.408.732 1.485.987 6.259.845 8.794-.263 8.571-.205 7.872-2.028-.495-1.29-.355-1.355.823-.378 1.182.981 1.613.754 2.574-1.355.95-2.084.911-2.688-.213-3.4-1.796-1.136-2.79-1.117-2.79.053 0 .522-.493.948-1.095.948-.694 0-.566-.606.35-1.658.795-.913 1.68-2.3 1.968-3.081.382-1.038.543-.923.598.426.056 1.377.349 1.575 1.149.775 1.351-1.351.285-4.411-1.214-3.484-.677.418-.845.266-.437-.395 1.025-1.657-1.069-4.738-3.45-5.076-1.728-.245-2.097-.845-1.935-3.147.11-1.564-.032-2.314-.313-1.667-.774 1.778-2.83-.637-3.626-4.257-.448-2.04-1.077-2.81-2.003-2.454-.78.3-1.625-.224-2-1.24-.358-.966-1.037-2.017-1.51-2.335-.472-.319-.184-.839.642-1.155 1.13-.434 1.501.028 1.501 1.865 0 1.955.33 2.304 1.66 1.753.911-.379 2.191-.709 2.843-.733.651-.025 1.185-.366 1.185-.758s.24-1.34.535-2.106c.465-1.214-4.757-1.399-40.284-1.425l-40.82-.029.647 2.532c.356 1.392.595 3.287.53 4.21-.063.925.303 1.422.814 1.106.51-.316.658-1.428.327-2.471-.523-1.647-.356-1.766 1.258-.902 2.124 1.136 3.058.553 3.058-1.91 0-1.115.485-1.521 1.398-1.171 1.231.472 1.231.702 0 1.934-.769.768-1.398 1.839-1.398 2.379s-.624.742-1.387.45c-.995-.383-1.56.391-2.001 2.741-.338 1.801-.928 3.275-1.312 3.275-.383 0-1.191.96-1.795 2.133-1.078 2.093-1.087 2.089-.493-.238l.605-2.37-1.945 2.37c-1.765 2.15-1.798 2.43-.363 3.014 1.267.517 1.165.658-.517.711-2.668.085-4.03 2.605-3.373 6.238.657 3.628 1.926 5.204 4.19 5.204 1.025 0 2.172.97 2.658 2.25.492 1.293 1.992 2.55 3.531 2.96 1.472.39 2.217.882 1.657 1.092-1.684.629-6.564-1.932-6.564-3.446 0-.775-.853-1.57-1.896-1.768-1.042-.198-2.143-.751-2.445-1.23-.666-1.054-3.716-.025-3.716 1.253 0 .5.456 1.762 1.014 2.804.861 1.608 1.246 1.706 2.552.648 1.28-1.037 1.407-1.03.76.045-1.178 1.956.565 2.533 7.906 2.615 4.583.051 6.48-.25 6.08-.968zm67.636-1.093c1.654-.724 3.282-2.182 3.618-3.24.336-1.057 1.06-1.923 1.61-1.923.615 0 .538.558-.198 1.445-.66.795-.918 1.726-.575 2.07.668.668-4.589 3.173-6.387 3.043-.592-.042.277-.67 1.932-1.395zm-43.26-3.7c-.63-.758-.87-1.825-.533-2.369.336-.544.188-.99-.329-.99s-1.209.848-1.537 1.883c-.484 1.524-1.226 1.802-3.894 1.46-1.813-.232-4.42-1.305-5.792-2.384-1.372-1.08-2.74-1.61-3.042-1.178-.3.432-1.608.852-2.905.934-1.812.115-2.031-.056-.948-.742 1.33-.84.683-1.3-1.433-1.019-.522.07-.1-.534.936-1.342 1.592-1.24 2.034-1.264 2.844-.156.528.721 1.386 1.38 1.907 1.465 2.453.4 4.266 1.288 4.266 2.092 0 .486.451.884 1.003.884.552 0 .77-.379.485-.84-.286-.463.197-1.423 1.074-2.134 1.175-.953 1.401-.973.861-.074-.547.91-.074 1.098 1.874.744 1.433-.26 2.901-.95 3.262-1.533.436-.706.856-.538 1.255.5.33.859.999 1.314 1.488 1.012.489-.303 1.163-.106 1.499.437.335.543.098.87-.527.727-.625-.144-1.332.273-1.572.925-.288.786.151.995 1.304.621 1.445-.469 1.498-.391.316.459-1.19.856-1.088 1.025.622 1.037 1.64.011 1.944-.407 1.538-2.118-.279-1.173-1.173-2.666-1.988-3.318-.815-.651-1.026-1.185-.47-1.185 1.318 0 2.817 1.88 3.404 4.266.356 1.448.491 1.282.575-.703.07-1.635-.574-3.026-1.737-3.752-1.484-.927-1.624-1.428-.711-2.543.95-1.159.795-1.3-.935-.854-1.19.306-2.257.049-2.508-.605-.299-.777.443-1.01 2.337-.732 2.137.314 2.652.791 2.243 2.08-.33 1.04.062 1.899 1.04 2.274 1.98.76 4.228-1.028 3.541-2.817-.49-1.278 2.317-1.924 6.136-1.411.744.1.496-.578-.62-1.694-1.023-1.022-2.647-1.793-3.609-1.712-1.072.09-1.753-.481-1.76-1.476-.006-.892-.54-2.15-1.185-2.796-1.43-1.43-3.515.22-3.532 2.796-.007.995-.688 1.566-1.76 1.476-.963-.08-2.562.665-3.555 1.659-.993.993-1.379 1.805-.858 1.805 1.307 0 1.196 2.579-.146 3.408-.678.42-.837.26-.418-.418.372-.602.249-1.094-.274-1.094-1.054 0-.935-5.53.156-7.265.382-.608.158-1.32-.497-1.584-.886-.358-.858-.5.11-.555 1.103-.064 1.103-.32 0-1.679-.857-1.057-.9-1.364-.128-.9.878.528.966.158.348-1.477-.51-1.35-1.57-2.154-2.784-2.11-1.078.038-1.743-.281-1.477-.711.87-1.406 3.174-.82 4.382 1.115 1.158 1.853 2.735 2.597 2.512 1.184-.387-2.45.449-2.827 5.78-2.607 3.119.129 5.443-.133 5.165-.583-.278-.449.157-.562.966-.252 1.354.52 1.868 1.639 1.584 3.442-.223 1.413 1.354.67 2.511-1.184 1.208-1.935 3.513-2.521 4.382-1.115.266.43-.455.75-1.602.71-1.467-.049-2.097.494-2.121 1.827-.02 1.044-.342 2.394-.717 3-.375.607-.146 1.319.509 1.583.923.372.912.497-.05.555-.752.045-.948.542-.497 1.26 1.13 1.798 1.286 7.346.206 7.346-.522 0-.645.492-.273 1.094.419.678.26.837-.418.418-.602-.372-1.095-1.232-1.095-1.91 0-.81-.825-1.078-2.39-.778-1.695.324-2.123.78-1.47 1.566.63.76.34 1.472-.927 2.263-1.163.727-1.807 2.117-1.738 3.753.084 1.985.22 2.151.576.703.597-2.429 2.095-4.27 3.459-4.251.644.009.566.333-.196.816-1.013.642-.96.918.273 1.391.936.36 1.76.011 2.107-.895.384-1 .785-1.139 1.226-.425.36.584 1.828 1.274 3.262 1.534 1.855.336 2.405.148 1.91-.654-.44-.71-.292-.876.397-.45 2.188 1.352 3.016-.533.964-2.195-1.165-.943-1.77-2.154-1.386-2.775.97-1.57 2.77-1.367 2.152.242a1.453 1.453 0 0 0 .846 1.866c1.77.68 1.73 2.245-.105 4.08-.807.807-1.21 1.724-.896 2.038.314.314.967-.057 1.452-.824.539-.851.888-.955.897-.265.02 1.534-1.232 2.192-5.114 2.69-2.654.339-3.398.059-3.881-1.463-.716-2.255-2.21-2.517-2.023-.355.214 2.491-2.814 3.9-5.19 2.416-1.443-.9-2.301-.965-3.037-.23-1.444 1.444-4 1.275-5.351-.354zm12.763-1.225c0-.652-.38-1.149-.842-1.104-.463.044-1.203-.489-1.645-1.185-.555-.876-.806-.916-.816-.128-.008.626.732 1.618 1.644 2.204 1.522.979 1.524 1.025.03.563-.895-.278-1.902-.06-2.238.482-.373.604.258.863 1.629.67 1.23-.175 2.238-.85 2.238-1.502zm-18.484.352c0-.196-.65-.897-1.444-1.555-1.207-1.002-1.346-.943-.846.357.51 1.33 2.29 2.26 2.29 1.198zm2.66-2.036c-.292-.292-.822.234-1.178 1.169-.514 1.35-.405 1.46.531.53.648-.643.94-1.408.647-1.7zm20.416.932c-.308-.805-.764-1.26-1.013-1.011-.248.248-.17.906.173 1.462.935 1.513 1.481 1.219.84-.451zm3.859-.094c.5-1.3.36-1.36-.846-.357-1.645 1.365-1.816 1.913-.598 1.913.466 0 1.116-.7 1.444-1.556zm-21.698-12.7c.335-.543 1.427-.728 2.426-.41.998.316 1.816.156 1.816-.357s-.532-1.11-1.183-1.327c-.728-.243-.365-.832.948-1.534 1.302-.697 2.13-2.027 2.13-3.42 0-2.496-1.414-3.939-2.36-2.408-.327.53-1.022.963-1.543.963-.521 0-.644-.492-.272-1.094.423-.684.26-.837-.433-.409-1.518.938-.357 2.562 1.6 2.24 2.83-.468 1.688 2.548-1.337 3.528-1.813.588-2.76 1.44-2.491 2.243.238.712-.153 1.665-.868 2.118-.86.544-.918.829-.172.838.621.01 1.404-.429 1.739-.972zm15.738.133c-.715-.453-1.106-1.406-.868-2.118.268-.803-.678-1.655-2.491-2.243-1.996-.647-3.024-1.657-3.24-3.185-.205-1.444.053-2.01.726-1.594.574.355.768 1.09.432 1.633-.654 1.058 1.235 2.634 3.187 2.658.651.01 1.185-.412 1.185-.933 0-.522-.935-.948-2.077-.948-1.974 0-1.99-.064-.33-1.277 1.363-.997 1.475-1.445.508-2.043-.818-.505-1.008-.394-.561.33.372.602.25 1.094-.272 1.094-.521 0-1.216-.433-1.543-.963-.946-1.53-2.36-.088-2.36 2.407 0 1.394.828 2.724 2.13 3.421 1.313.703 1.676 1.291.948 1.534-.65.217-1.183.814-1.183 1.327s.817.673 1.816.357c1-.318 2.09-.133 2.426.41.335.542 1.118.98 1.739.972.746-.011.687-.294-.172-.839zm-12.995-5.41c2.378-.912 1.74-2.051-.87-1.552-1.304.249-2.37.83-2.37 1.29 0 .978 1.135 1.07 3.24.262zm33.105 20.16c-.346-.605-.28-.784.146-.397.427.386 1.31.259 1.963-.283.823-.683 1.377-.68 1.802.009.338.546.483 1.026.322 1.066-2.524.625-3.713.514-4.233-.394zm-6.96-3.559c0-.44-.534-.67-1.186-.51-.651.158-.875.113-.497-.101.378-.215 1.017-.422 1.421-.462.404-.04 1.167-.662 1.694-1.383.81-1.108 1.252-1.084 2.844.156 1.036.808 1.458 1.412.936 1.342-2.052-.272-2.78.168-1.557.943.907.575.559.815-1.185.815-1.36 0-2.471-.36-2.471-.8zm-39.812-2.31c0-.799.613-1.687 1.362-1.975a1.453 1.453 0 0 0 .847-1.866c-.618-1.609 1.181-1.811 2.151-.241.382.618-.2 1.814-1.325 2.726-1.104.893-1.74 1.89-1.415 2.216.326.325.094.592-.514.592s-1.106-.654-1.106-1.452zm-2.24-.234c-.25-.405.355-1.792 1.345-3.08 1.361-1.772 1.806-1.963 1.822-.786.011.856-.646 1.813-1.46 2.126-.816.312-1.217.998-.893 1.523.325.525.377.955.116.955-.26 0-.679-.332-.93-.738zm39.555-.009c.353-.57-.063-1.43-.923-1.911-.86-.482-1.384-1.42-1.162-2.084.254-.763.994-.305 2.008 1.242 1.15 1.755 1.298 2.64.52 3.12-.645.399-.824.25-.443-.367zm-31.805-.852c.685-.274 1.502-.24 1.817.075.315.314-.245.539-1.244.497-1.104-.045-1.329-.27-.572-.572zm23.585.037c.623-.253.895-1.078.605-1.833-.29-.755-.077-1.914.473-2.577.633-.762.677-1.715.12-2.594-1.272-2.013-1.105-4.817.278-4.637 2.685.348 4.577-.13 4.028-1.019-.322-.521.094-.948.925-.948 1.237 0 1.32.358.458 1.97-.66 1.234-1.608 1.756-2.538 1.4-1.232-.473-1.28-.326-.285.874.76.915.826 1.443.181 1.443-.559 0-1.451-.746-1.983-1.658-.847-1.455-.97-1.47-.995-.116-.036 1.93 2.4 4.04 3.722 3.222.544-.337.99-1.226.99-1.978 0-1.795 1.542-1.756 2.238.056.618 1.611 3.448 1.954 3.448.418 0-.552-.397-.758-.882-.458a1.05 1.05 0 0 1-1.437-.353 1.047 1.047 0 0 1 .323-1.44c1.257-.777 3.653.317 4.282 1.956.295.768.163 1.167-.293.885-.457-.282-1.366.133-2.021.922-1.062 1.28-1.373 1.272-2.857-.072-1.172-1.06-1.862-1.191-2.326-.44-.363.588-1.73 1.475-3.037 1.972-1.933.735-2.266 1.343-1.785 3.26.466 1.857.236 2.339-1.086 2.28-.922-.041-1.168-.282-.545-.535zM-.633 363.16c-.757-.479-1.759-.634-2.227-.345-.468.29-.366-.379.225-1.484 1.066-1.991 3.853-2.816 3.853-1.14 0 .479.259 1.545.575 2.37.642 1.672-.344 1.916-2.425.6zm54.357-.6c.317-.824.576-1.89.576-2.369 0-1.619 2.77-.883 3.78 1.004.8 1.495.73 1.77-.345 1.357-.741-.284-1.63-.061-1.973.496-.982 1.588-2.678 1.183-2.037-.487zm-50.42-.585c-.626-.626-1.131-1.586-1.124-2.133.008-.548.428-.356.934.426.612.948.924 1.027.933.237.008-.652.466-1.185 1.019-1.185.552 0 .784.356.515.79-.268.435.114.79.85.79.737 0 1.12-.355.85-.79-.268-.434-.036-.79.516-.79s1.004.342 1.004.759c0 1.107-2.107 3.033-3.317 3.033-.574 0-1.555-.512-2.18-1.138zm11.913-.546c-.336-1.287-1.285-2.109-2.434-2.109-1.036 0-2.15-.697-2.478-1.55-.55-1.432-.729-1.43-2.335.025-1.548 1.4-1.872 1.416-2.932.14-.655-.79-1.612-1.176-2.126-.858-.514.317-.437-.353.171-1.49 1.069-1.996 4.219-2.456 3.636-.53-.158.52-.607.84-.998.71s-.711.19-.711.711c0 1.845 2.916.917 3.724-1.185.815-2.12.826-2.118 1.842.474.562 1.434 1.407 2.607 1.877 2.607 1.403 0 3.2-2.687 2.674-3.997-.307-.765-.516-.6-.563.442-.042.913-.767 1.659-1.613 1.659-1.27 0-1.33-.252-.34-1.444.996-1.2.948-1.347-.285-.874-.93.357-1.877-.166-2.537-1.4-.862-1.611-.78-1.97.457-1.97.831 0 1.247.427.925.949-.55.888 1.343 1.367 4.029 1.018 1.382-.18 1.55 2.625.276 4.637-.554.876-.515 1.828.105 2.575.54.651.804 1.721.585 2.377-.218.656-.645.244-.948-.916zm32.428.238c-1.627-1.96-.422-2.938 1.6-1.297 1.077.874 1.386.92.915.135-.391-.651-.26-1.184.292-1.184s1.01.533 1.019 1.184c.01.79.32.711.933-.236.505-.782.925-.974.933-.427.02 1.329-1.985 3.27-3.376 3.27-.614 0-1.656-.65-2.315-1.445zm-53.59-1.795c-1.012-.74-1.52-1.664-1.13-2.054.39-.39.71-.212.71.397 0 .608.64 1.106 1.422 1.106.782 0 1.421.426 1.421.947 0 1.241-.238 1.202-2.424-.396zm64.983.43c0-.54.605-.981 1.343-.981.739 0 1.558-.534 1.821-1.185.36-.893.497-.902.553-.033.041.634-.778 1.608-1.82 2.167-1.286.687-1.897.698-1.897.032zm-61.618-4.304c-.998-1.203-.727-1.589 1.712-2.439 2.04-.71 2.8-1.52 2.567-2.728-.249-1.293.12-1.6 1.49-1.242 1.001.261 1.82 1.05 1.82 1.754 0 1.357-3.21 3.505-4.023 2.692-.265-.265-.743.199-1.062 1.03-.336.876-.186 1.268.357.933.515-.319.937-.128.937.425 0 1.488-2.436 1.216-3.797-.425zm56.88.425c0-.552.492-.7 1.094-.328.653.404.838.262.458-.352-.78-1.261.916-2.452 2.285-1.606.68.42.643 1.038-.116 1.952-1.3 1.567-3.722 1.784-3.722.334zm-7.584-2.598c0-.417.449-1.207.997-1.755.697-.697.296-1.456-1.334-2.524-2.014-1.32-2.403-1.338-2.863-.14-.593 1.546-4.383 1.925-4.383.438 0-.522.005-1.268.011-1.66.006-.39.54-.721 1.185-.735.646-.014 1.789-.41 2.54-.879.886-.554 1.498-.458 1.742.273.678 2.035 3.98 3.25 5.472 2.013 1.91-1.586 3.885-.539 4.438 2.354.525 2.744-.858 4.338-1.75 2.017-.31-.812-.948-1.24-1.414-.952-.467.288-.849-.11-.849-.884 0-.775.747-1.603 1.659-1.842 1.544-.403 1.545-.441.024-.543-.925-.063-2.272 1.123-3.105 2.733-1.438 2.782-2.37 3.602-2.37 2.086zm-3.791-4.9c0-.505-.64-.672-1.422-.372-.782.3-1.422.713-1.422.918 0 .205.64.372 1.422.372s1.422-.413 1.422-.918zm-36.02 3.762c0-.521-.853-1.8-1.896-2.844-1.043-1.042-1.494-1.895-1.004-1.895s1.156.426 1.478.947c.89 1.44 2.17 1.147 4.3-.982 1.125-1.124 2.41-1.63 3.08-1.21.633.396 1.79.732 2.573.746a1.457 1.457 0 0 1 1.422 1.447c0 1.936-4.121 2.427-4.832.576-.498-1.298-.802-1.292-2.856.053-1.799 1.179-2.063 1.789-1.218 2.808.791.953.795 1.302.017 1.302-.585 0-1.064-.427-1.064-.948zm8.53-3.216c0-.205-.639-.618-1.42-.918-.783-.3-1.423-.133-1.423.372s.64.918 1.422.918c.782 0 1.422-.167 1.422-.372zm-16.824-5.966c-.652-.25-1.185-.898-1.185-1.44 0-.573.624-.467 1.494.255.884.734 1.755.878 2.133.353.351-.488 1.612-.922 2.802-.965 1.19-.043 1.83.222 1.422.588-1.083.974-5.29 1.737-6.666 1.209zm54.266-.025c-2.866-.69-3.67-1.862-1.216-1.773 1.19.044 2.451.478 2.802.966.378.524 1.25.38 2.133-.353.83-.688 1.494-.811 1.494-.277 0 .78-2.568 2.41-3.158 2.003-.088-.06-1.012-.315-2.055-.566zm-72.513 21.814c0-1.906-.274-2.286-1.074-1.486-.59.59-.817 1.742-.504 2.56.868 2.26 1.578 1.778 1.578-1.074zm91.47-8.816c-.321-.52-.986-.947-1.477-.947-.49 0-.892.426-.892.947 0 .522.665.948 1.478.948s1.214-.426.892-.948zm-82.94-5.687c0-.521-.187-.948-.417-.948-.23 0-.682.427-1.004.948-.322.521-.134.948.418.948s1.004-.427 1.004-.948zm78.905-1.436c-.25-1.31-.904-2.66-1.452-2.999-.626-.387-.76-.002-.36 1.04.349.91.635 2.26.635 2.999 0 .739.367 1.344.816 1.344.45 0 .611-1.073.36-2.384zM6.668 336.81c11.6-.15 30.58-.15 42.18 0 11.6.151 2.11.274-21.09.274s-32.69-.123-21.09-.274zm-22.512-3.081c0-.618 15.166-.948 43.603-.948s43.603.33 43.603.948c0 .618-15.166.948-43.603.948s-43.603-.33-43.603-.948zm.664-3.165c-.268-.698-.2-2.674.151-4.392.6-2.929.726-3.015 2.045-1.392.773.951.92 1.44.328 1.084-.617-.37-1.28.13-1.552 1.17-.412 1.576.014 1.797 3.21 1.671 2.027-.08 3.685-.475 3.685-.879 0-.403-.427-.732-.948-.732-1.457 0-1.126-1.853.645-3.623 1.492-1.49 1.555-1.443.988.73-.333 1.276-.19 2.821.319 3.434.508.613.658 1.808.333 2.656-.753 1.96-8.469 2.19-9.204.273zm77.487.402c.294-.477 0-1.063-.655-1.303-.926-.34-.897-.727.133-1.74.728-.717 1.04-.798.692-.18-.449.8.573 1.085 3.548.988 2.978-.097 4.044-.486 3.71-1.355-.257-.67-.85-.983-1.316-.695-.467.289-.849-.14-.849-.953s.533-1.534 1.185-1.603c.652-.068-.308-.456-2.133-.862l-3.317-.737 3.284.151c2.934.135 3.354.496 3.94 3.385.98 4.833.243 5.771-4.538 5.771-2.32 0-3.979-.39-3.684-.867zm-51.71-2.557c-1.566-1.667-3.144-2.264-5.99-2.265l-3.863-.002-.304-56.634c-.168-31.15-.023-60.153.322-64.454.626-7.808.63-7.82 3.314-7.82 1.477 0 6.024 1.349 10.105 2.998 11.06 4.47 15.115 4.536 25.776.419 4.865-1.88 10.039-3.417 11.497-3.417 2.625 0 2.656.07 3.323 7.613.371 4.187.399 32.659.063 63.27-.337 30.613-.596 56.193-.576 56.844.024.759-1.343 1.185-3.798 1.185-2.782 0-4.458.623-6.105 2.27-2.202 2.202-2.317 2.218-3.863.51-.876-.969-3.14-2.251-5.033-2.85-1.892-.6-4.352-1.66-5.466-2.358-1.745-1.092-2.529-1.012-5.65.58-1.994 1.016-4.326 1.848-5.182 1.848-.856 0-2.656 1.018-4 2.263l-2.442 2.264-2.127-2.264zm5.436-2.201c2.089-1.01 4.924-2.117 6.3-2.463 1.378-.346 3.026-1.256 3.663-2.024 1.24-1.495-2.045-.326-9.959 3.544-3.613 1.767-3.699 1.766-6.052-.085-1.313-1.033-3.61-1.878-5.103-1.878-3.983 0-3.32 1.503.714 1.618 1.887.053 4.111.777 4.943 1.61 1.812 1.81.978 1.86 5.495-.322zm28.323.319c1.272-.833 3.816-1.558 5.654-1.61 4.268-.121 4.408-1.615.153-1.615-1.81 0-4.29.866-5.734 2.001-2.254 1.773-2.727 1.844-4.156.618-1.79-1.535-10.821-4.663-10.102-3.5.25.405 2.577 1.441 5.171 2.303 2.595.862 4.96 1.96 5.258 2.442.729 1.179 1.07 1.12 3.756-.64zm-25.482-3.675c2.673-.832 5.586-2.314 6.474-3.295 1.574-1.74 1.695-1.728 4.988.507 1.856 1.26 4.062 2.293 4.902 2.296.84.002 2.734.636 4.21 1.406 2.37 1.236 3.005 1.235 5.404-.009 1.495-.773 4.023-1.406 5.616-1.406h2.898l-.244-61.837c-.278-70.628.724-64.377-9.549-59.574-3.378 1.58-7.892 3.152-10.03 3.494-3.74.598-3.888.755-3.888 4.134 0 3.963-.541 4.873-2.462 4.136-.826-.317-1.33-1.91-1.33-4.2 0-3.191-.288-3.693-2.132-3.705-2.306-.016-6.151-1.33-13.35-4.563-2.519-1.132-4.971-2.058-5.45-2.058-.518 0-.869 25.069-.869 62.087 0 58.493.096 62.087 1.66 62.1.911.009 2.724.603 4.028 1.323 1.303.72 2.796 1.166 3.317.99.521-.175 3.135-.998 5.808-1.83zm.34-14.577c-8.251-4.39-11.758-15.657-7.567-24.315 2.192-4.527 6.875-8.367 11.61-9.52 2.55-.62 2.606-.783 2.606-7.64 0-5.596-.286-7.007-1.422-7.007-1.214 0-1.421-2.633-1.421-18.01 0-15.377.207-18.01 1.421-18.01.782 0 1.422-.587 1.422-1.306 0-.718-.64-1.836-1.422-2.485-.782-.65-1.421-2.247-1.421-3.55 0-2 .222-2.185 1.421-1.19 1.719 1.426 1.9-.032.237-1.897-.98-1.099-.938-1.153.237-.312 1.339.958 2.28.987 5.675.176 1.891-.452 2.231 5.325.402 6.842-1.763 1.464-1.711 3.722.085 3.722 1.214 0 1.421 2.633 1.421 18.01s-.208 18.01-1.421 18.01c-1.137 0-1.422 1.414-1.422 7.034v7.034l2.914.64c3.773.828 9.029 5.477 11.36 10.047 3.21 6.292 2.06 14.622-2.777 20.134-4.576 5.213-15.522 7.006-21.939 3.592zm12.6-.196c7.867-2.185 13.932-11.162 12.582-18.623-1.983-10.96-13.034-17.215-23.03-13.038-4.701 1.964-6.815 3.985-8.886 8.494-4.281 9.324-.05 18.956 10.066 22.914 3.652 1.43 4.908 1.463 9.268.253zm-11.54-8.981c-4.226-4.814-4.126-9.872.281-14.28 4.965-4.965 12.13-4.177 15.731 1.73 4.687 7.686.24 15.837-8.665 15.88-3.868.017-4.763-.388-7.346-3.33zm14.1-.938c3.613-3.611 3.293-9.28-.726-12.87-4.69-4.19-11.265-3.19-14.016 2.13-5.046 9.757 6.967 18.51 14.742 10.74zm-5.666-31.313c0-4.535-.348-6.95-.948-6.58-1.71 1.058-1.127 13.745.632 13.745.173 0 .316-3.225.316-7.165zm1.458-25.063.033-17.062h-5.283v34.124h5.216l.034-17.062zm-.615-21.717c.724-.459 1.426-2.218 1.559-3.908.133-1.691-.034-2.681-.37-2.2-.336.48-1.25.859-2.032.841-1.783-.04-4.984 3.072-4.3 4.18.28.453 1.47.614 2.642.357 1.713-.375 1.852-.268.71.548-1.7 1.215-.097 1.378 1.79.182zm-3.94-2.098c.643-.648 1.408-.94 1.7-.648.292.292-.234.822-1.17 1.178-1.35.515-1.459.406-.53-.53zm3.532.054c-.344-.556-.422-1.214-.173-1.462.248-.249.704.206 1.013 1.01.64 1.671.094 1.965-.84.453zm-18.228 33.491.257-18.706h8.53l.258 18.706.257 18.706h-9.56l.258-18.706zm6.92.222-.028-17.536h-5.214v35.072h5.27l-.028-17.536zM36.02 266.79c-.372-.372-.676-8.873-.676-18.892v-18.215l2.37-.453c1.303-.249 3.444-.247 4.759.002l2.389.457-.257 18.606-.256 18.606-3.826.282c-2.104.154-4.13-.023-4.503-.395zm6.489-18.844.055-17.536H37.24v35.072h5.213zm-30.746-20.643c-2.57-2.57-.116-8.267 3.562-8.267 2.367 0 5.262 2.363 4.468 3.648-.371.6-1.396 1.042-2.278.981-1.445-.099-1.439-.152.056-.543.913-.238 1.66-.789 1.66-1.223 0-.976-3.629-.103-4.337 1.043-.718 1.161-2.299 1.044-2.299-.17 0-.552.492-.7 1.094-.328.678.42.837.26.418-.418-.431-.698.116-1.134 1.513-1.204 1.677-.085 1.79-.213.484-.552-1.922-.499-4.457 1.229-4.457 3.037 0 .657.853 1.418 1.896 1.691 1.043.273 1.896.917 1.896 1.431 0 1.461-2.496 2.055-3.676.874zm2.156-.526c.269-.434-.114-.79-.85-.79s-1.119.356-.85.79c.268.435.65.79.85.79.2 0 .582-.355.85-.79zm3.343 1.617c-.04-.194-.203-1.013-.362-1.819-.172-.873.431-1.52 1.495-1.6.98-.073 1.783.214 1.783.639 0 .781-2.782 3.433-2.916 2.78zm23.296-2.774c1.713-.782 1.667-.847-.474-.674-3.235.263-4.74-.857-4.74-3.529 0-4.049 4.143-6.474 7.465-4.37 3.283 2.08 1.177 9.673-2.635 9.505-1.14-.05-1.045-.28.384-.932zm.237-2.445c.652-.099 1.185.234 1.185.74s.452.64 1.004.3c.638-.395.379-1.133-.71-2.023-.944-.77-1.227-1.158-.63-.862 1.495.742 2.33-1.816 1.02-3.126-2.24-2.24-6.773-.369-5.724 2.364.274.715.988 1.058 1.585.762.597-.296.345.068-.559.81-1.727 1.417-1.224 3.009.591 1.873.58-.362 1.586-.74 2.238-.838zm-2.607-3.991c0-.429.845-.717 1.877-.64 2.809.206 3.101 1.007.448 1.226-1.279.106-2.325-.158-2.325-.586zM2.878 229.699c-.145-17.074-.263-3.105-.263 31.043 0 34.148.118 48.117.263 31.043.145-17.074.145-45.013 0-62.087zm25.83-21.09c0-1.564-.426-2.844-.948-2.844s-.948 1.28-.948 2.844c0 1.564.427 2.843.948 2.843s.948-1.28.948-2.843zm33.611 116.53c-.972-1.574-.1-1.792 1.261-.316.673.73.804 1.327.293 1.327-.51 0-1.21-.455-1.554-1.011zm-74.115-2.49c.922-.24 2.202-.225 2.844.036.642.26-.113.456-1.677.437-1.564-.018-2.089-.232-1.167-.472zm-2.489-2.187c-3.39-8.624-3.047-22.778.552-22.735.834.011.767.294-.214.914-1.695 1.071-1.666 12.505.045 17.69 1.073 3.251.73 6.96-.383 4.13zm6.424-8.699c-.05-6.647.144-8.569.606-5.993.63 3.51.67 3.404.549-1.417-.12-4.722-.352-5.261-2.501-5.78-5.817-1.402-6.251-1.788-6.205-5.498l.044-3.57 4.618-.214c4.444-.205 4.597-.127 4.046 2.068-.315 1.255-.299 2.555.037 2.89 1.814 1.815 1.912 19.868.13 24.234-1.157 2.837-1.256 2.336-1.324-6.72zm.549-17.13c0-.392-.426-.712-.947-.712-1.365 0-1.17-2.596.237-3.163.651-.263-.367-.512-2.262-.553-3.12-.068-3.487.193-3.86 2.74-.401 2.731-.305 2.81 3.209 2.607 1.992-.115 3.623-.529 3.623-.92zm69.688 25.857c-1.38-2.233-2.699-17.039-1.707-19.175.834-1.797 1.01-1.069 1.008 4.137-.002 3.474.265 6.754.595 7.287.33.534.842 2.703 1.138 4.82.522 3.732.136 4.825-1.034 2.931zm6.283-4.033c.018-2.75-.005-6.894-.053-9.21-.047-2.315.403-4.511 1-4.88 2.415-1.492-.047-3.706-4.137-3.72-2.97-.012-3.677-.262-2.636-.934 1.215-.785 1.18-.921-.237-.933-1.88-.018-2.21-1.459-.565-2.475.634-.392.839-.263.488.305-.384.622.78.936 3.17.858 2.078-.069 3.778-.516 3.779-.994 0-1.717 1.426.598 1.605 2.607.1 1.13.473 4.056.828 6.503.66 4.552-1.05 16.497-2.49 17.387-.431.267-.77-1.764-.752-4.514zm-1.087-23.878c0-.826.533-1.557 1.185-1.626.652-.069-.308-.45-2.133-.85l-3.317-.724 3.931.081c3.526.073 3.859.278 3.227 1.986-.876 2.369-2.893 3.159-2.893 1.133zm-80.32-5.025c1.44-.218 3.574-.212 4.74.014 1.165.225-.013.403-2.62.396-2.607-.009-3.56-.19-2.12-.409zm76.78 0c1.44-.218 3.573-.212 4.739.014 1.165.225-.013.403-2.62.396-2.607-.009-3.56-.19-2.12-.409zm-75.827-1.872c.922-.24 2.202-.225 2.844.035.642.26-.113.457-1.677.437-1.564-.017-2.09-.231-1.167-.472zm4.375-4.32c-.06-2.737-.316-4.123-.566-3.08-1.683 6.995-2.168.473-2.168-29.14 0-22.985.315-33.03 1.05-33.483.72-.446.831.057.356 1.602-.382 1.239-.361 1.937.046 1.551.406-.385 1.05-2.304 1.43-4.265.38-1.96.74 13.39.8 34.113.06 20.723-.104 37.678-.364 37.678-.261 0-.524-2.24-.584-4.977zm69.738 3.789c-.251-.654-.339-17.395-.196-37.205l.26-36.017.226 36.73.225 36.732h6.613l.26-37.205.259-37.204.225 37.678.226 37.678h-3.821c-2.188 0-4.016-.508-4.277-1.188zm-76.781-36.254c0-19.811.125-28.05.279-18.31.154 9.741.154 25.95 0 36.02-.153 10.07-.28 2.101-.28-17.71zm82.466 0c0-19.811.125-28.05.279-18.31.154 9.741.154 25.95 0 36.02-.153 10.07-.28 2.101-.28-17.71zm-3.794 0c0-18.768.126-26.58.281-17.36.155 9.22.156 24.576 0 34.124-.154 9.548-.28 2.004-.281-16.763zm1.897-.948c0-19.29.126-27.046.28-17.237.155 9.809.155 25.59 0 35.072-.154 9.48-.28 1.454-.28-17.835zm-78.684 3.791c0-15.64.13-22.17.288-14.514.16 7.658.16 20.454.001 28.437-.159 7.983-.289 1.718-.29-13.923zm-.27-33.65c0-1.303.215-1.836.478-1.184.263.651.263 1.718 0 2.37-.263.651-.478.118-.478-1.186zm-1.96-9.242c.113-.912-.126-2.423-.531-3.358s-.471-1.966-.146-2.29c.325-.326.591.017.591.758 0 1.02 1.052 1.266 4.3 1.008 3.289-.262 4.071-.619 3.326-1.516-.536-.646-.694-1.455-.35-1.798.343-.343-.113-.624-1.012-.624-.9 0-1.38-.414-1.068-.92.706-1.14-3.736-2.352-5.233-1.426-.709.438-.973.053-.752-1.096.278-1.444 1.205-1.771 5.014-1.771h4.674l.053 5.213.053 5.214-7.583 1.074 3.245.41c5.144.652 4.852 2.781-.382 2.781-3.64 0-4.368-.287-4.199-1.658zm5.838-12.28c-1.173-.226-3.092-.226-4.265 0-1.173.225-.213.41 2.133.41s3.305-.185 2.132-.41zm70.854 12.517c0-.782.508-1.421 1.13-1.421.62 0 .348-.57-.605-1.268-.953-.697-1.495-1.87-1.204-2.607.417-1.053.546-1.015.605.178.059 1.207.894 1.435 4.094 1.115 4.82-.482 5.116-.701 3.44-2.553a126.278 126.278 0 0 1-2.52-2.89c-.673-.8-2.308-1.454-3.634-1.454-2.53 0-2.752-1.956-.299-2.62 1.109-.3 1.098-.18-.059.638-1.083.766-.407.982 2.844.907 3.945-.09 4.052-.155 1.422-.86l-2.844-.762 3.306.163 3.306.164.099 5.013c.072 3.66-.309 5.252-1.41 5.896-.93.544-1.055.893-.325.911.652.016 1.185.669 1.185 1.45 0 1.054-1.106 1.422-4.265 1.422-3.16 0-4.266-.368-4.266-1.421zm.075-8.61c.046-1.104.27-1.328.573-.572.274.684.24 1.502-.075 1.817-.315.315-.539-.245-.498-1.244zm-34.376-.094c.684-.274 1.502-.24 1.817.075.315.315-.245.539-1.244.498-1.104-.046-1.329-.27-.573-.573zm-5.333-1.351c.508-.318-.454-.853-2.139-1.19-8.39-1.678-17.159-8.948-21.106-17.498-3.095-6.707-2.853-18.824.507-25.304 3.206-6.185 10.49-12.936 16.427-15.226 6.367-2.456 17.288-2.451 23.668.01 6.23 2.402 13.92 9.764 16.707 15.992 3.173 7.092 3.136 18.226-.082 24.836-1.269 2.606-2.49 5.118-2.715 5.582-.23.473.166.497.9.055 1.106-.667 1.109-.543.015.806-.71.876-1.614 1.394-2.006 1.152-.393-.243-1.477.402-2.41 1.432-.932 1.03-1.363 1.873-.958 1.873 1.098 0-1.433 2.8-3.56 3.938-1.41.755-1.68.714-1.131-.174.47-.76.262-1-.597-.687-.724.263-1.2.99-1.056 1.615.143.625-.146.885-.643.578-.498-.307-2.902-.025-5.344.629-3.73.997-4.081 1.272-2.2 1.72 1.232.293-1.235.511-5.481.485-4.246-.025-7.304-.306-6.796-.624zm18.308-4.49c18.64-8.832 22.886-32.497 8.424-46.96-5.784-5.784-12.702-8.574-21.221-8.558-8.716.016-14.06 2.187-20.72 8.418-6.288 5.882-9.02 12.227-8.991 20.886.039 11.606 6.183 21.13 16.915 26.214 4.677 2.216 6.95 2.695 12.796 2.695s8.12-.479 12.796-2.695zm-20.426.514c-8.244-2.33-13.948-7.109-18.196-15.243-3.151-6.032-2.96-17.469.397-23.808 2.992-5.65 7.292-9.889 13.106-12.92 6.137-3.199 18.508-3.199 24.645 0 5.82 3.035 10.119 7.276 13.094 12.92 3.296 6.254 3.534 16.714.53 23.271-5.84 12.75-20.286 19.537-33.577 15.78zm18.647-2.512c9.867-4.36 15.932-13.782 15.909-24.716-.017-7.917-2.678-13.616-9.024-19.321-4.741-4.263-10.984-7.173-12.09-5.636-.772 1.07-10.838 1.07-11.619 0-.326-.446-1.477-.531-2.558-.188-1.36.432-1.78 1.12-1.363 2.234.522 1.393.392 1.439-.963.337-1.334-1.085-1.974-.982-4.332.697-3.981 2.835-8.436 8.154-10.236 12.224-2.414 5.457-2.15 15.792.536 21.055 2.272 4.451 7.387 10.427 8.924 10.427.49 0-1.026-2.05-3.37-4.555-3.78-4.042-7.33-10.97-6.199-12.101.229-.229.98 1.293 1.668 3.38.69 2.089 1.683 3.797 2.207 3.797.525 0 .705.25.401.554-.305.304 1.113 2.27 3.15 4.37 2.038 2.1 3.482 4.178 3.209 4.62-.62 1.002 4.028 3.455 8.777 4.633 4.654 1.154 12.048.366 16.972-1.81zm-17.233.045c.292-.473 1.383-.636 2.425-.364 2.609.682 2.374 1.222-.53 1.222-1.335 0-2.187-.386-1.895-.858zm8.112.495c0-.841 3.835-1.281 4.32-.495.292.472-.56.858-1.895.858-1.334 0-2.425-.163-2.425-.363zm6.635-1.532c.782-.506 1.848-.92 2.37-.92.52 0 .308.414-.474.92-.782.505-1.849.919-2.37.919-.521 0-.308-.414.474-.92zm-7.363-4.74c0-1.824.195-2.57.433-1.659.239.913.239 2.406 0 3.318-.238.912-.433.166-.433-1.659zm13.05 2.53c0-.965 6.669-7.551 7.155-7.065.216.216-1.305 2.051-3.381 4.078-2.076 2.027-3.774 3.372-3.774 2.988zm-22.42-1.582c.197-.782.652-2.488 1.012-3.792.627-2.276.595-2.297-.818-.53-.81 1.013-1.471 2.399-1.471 3.081 0 1.425-1.522 1.665-2.325.366-.481-.779 2.939-7.656 3.807-7.656.19 0 .796.839 1.344 1.863.74 1.384.624 2.665-.454 4.977-.799 1.712-1.291 2.473-1.094 1.691zm-1.863-2.419c.323-.843.164-1.224-.373-.892-.515.319-.937.98-.937 1.471 0 1.364.68 1.063 1.31-.579zm2.299-4.715c-.292-.292-.822.234-1.178 1.169-.515 1.35-.406 1.46.53.53.648-.643.94-1.407.648-1.7zm18.01 4.527c-.784-.912-1.785-2.298-2.225-3.08-.698-1.24-.588-1.25.855-.078 1.59 1.29 3.9 4.817 3.154 4.817-.198 0-1-.746-1.784-1.659zm-25.974-4.838c.993-1.119 2.19-2.034 2.662-2.034 1.335 0-.084 1.768-2.388 2.977-2.066 1.083-2.068 1.077-.275-.943zm32.792-.138c-1.264-.817-1.264-.922 0-.95.782-.017.035-.918-1.66-2.003-4.333-2.775-3.842-3.228.685-.63 2.071 1.189 3.348 2.304 2.838 2.48-.51.174-.686.707-.392 1.184.678 1.096.32 1.077-1.472-.08zm6.385-3.247c.87-2.348 1.75-4.099 1.958-3.892.564.564-1.717 7.033-2.693 7.636-.466.288-.135-1.397.735-3.744zm-42.477 3.03c-.793-2.801-.375-3.785 2.167-5.1 2.564-1.325 3.037-1.332 4.306-.063 1.27 1.27.996 1.645-2.488 3.422-2.152 1.098-3.945 1.881-3.985 1.74zm2.6-3.01c0-.76-.577-1.11-1.343-.816-1.106.424-1.12.657-.08 1.317.696.44 1.3.808 1.344.816.043.009.079-.585.079-1.317zm4.107-1.038c0-.15-.568-.49-1.263-.756-.696-.267-1.264.073-1.264.756 0 .682.568 1.023 1.264.756.695-.267 1.263-.607 1.263-.756zm25.126 2.38c-.332-.537.049-.696.892-.372 1.642.63 1.943 1.31.58 1.31-.491 0-1.153-.422-1.472-.938zm-39.344-9.805c0-1.912.37-3.476.824-3.476.453 0 .666 1.35.474 3.001-.499 4.284-1.298 4.576-1.298.475zm21.327 1.196-5.687-.562 4.875-.16c6.597-.215 7.726-3.153 1.997-5.195-1.958-.698-2.183-2.405-.406-3.087.79-.303 1.1-1.516.84-3.288-.227-1.544-.161-2.807.145-2.807 1.167 0 3.412 5.645 2.897 7.286-.507 1.618-.476 1.622.532.053.59-.917.753-2.196.364-2.844-.482-.802-.202-.767.88.11 1.385 1.123 1.417 1.526.253 3.189-1.726 2.463-.885 5.379.862 2.99.641-.877 1.657-1.291 2.257-.92 1.676 1.036 1.303 2.182-.9 2.758-1.094.287-1.737.932-1.426 1.433.851 1.378-1.202 1.665-7.483 1.044zm30.29-1.828c.021-1.564.359-2.844.751-2.844s.713 1.28.713 2.844c0 1.564-.338 2.843-.75 2.843s-.734-1.28-.714-2.843zm-45.68 1.215c1.44-.218 3.573-.212 4.739.014 1.166.225-.013.404-2.62.396-2.607-.009-3.56-.19-2.12-.409zm34.821-.279c0-.588 1.467-.724 3.792-.352 2.44.39 3.791.244 3.791-.409 0-.558-1.812-1.177-4.028-1.377l-4.029-.363 4.503-.165c3.926-.145 4.502.077 4.502 1.73 0 1.615-.632 1.896-4.265 1.896-2.346 0-4.266-.432-4.266-.96zM5.09 167.513c.218-.187 2.102-.601 4.187-.921 2.582-.396 3.338-.292 2.37.325-1.296.826-7.477 1.388-6.557.596zm27.935-3.369c-.294-.475 1.28-2.288 3.499-4.028l4.033-3.164-3.16 4.029c-3.412 4.348-3.57 4.462-4.372 3.163zM2.167 162.44c0-1.342 2.756-7.857 3.323-7.857.25 0-.252 1.813-1.115 4.029-1.747 4.487-2.208 5.286-2.208 3.828zm50.038-.772a97.24 97.24 0 0 0-1.174-3.767c-.353-1.043.052-.697.9.768.849 1.465 1.377 3.16 1.175 3.767-.203.607-.608.261-.9-.768zm-11.56-1.034c-.49-1.28.5-1.715 3.088-1.36.704.096 1.012-.258.684-.788-.328-.53.32-1.454 1.441-2.054 1.173-.628 1.785-.682 1.442-.128-.326.528-.178 1.104.33 1.279.51.175-.741 1.228-2.778 2.34-2.978 1.625-3.802 1.765-4.207.71zM9.75 158.848c-1.303-.745-1.943-1.355-1.421-1.355s2.014.61 3.317 1.355c1.303.745 1.943 1.355 1.422 1.355s-2.014-.61-3.318-1.355zm7.043-5.859c-1.456-1.909-2.096-3.13-1.421-2.713.708.438 1.525.273 1.935-.391.518-.838.872-.729 1.305.402.386 1.004.222 1.32-.465.895-.638-.394-.885-.131-.62.662.24.724 1.007 1.316 1.702 1.316 1.542 0 2.338 1.985 1.104 2.748-.491.303-2.084-1.01-3.54-2.919zm32.113 2.835c1.119-1.811-8.586-10.645-10.956-9.974-.391.11-.711-.225-.711-.747 0-2.015 3.688-.078 8.85 4.648 3.57 3.27 4.729 5.477 3.329 6.342-.62.383-.843.266-.512-.27zm-12.612-.578c-.006-1.31 2.958-6.55 3.435-6.072.25.25-.42 1.89-1.488 3.643-1.07 1.753-1.945 2.846-1.947 2.43zm-26.216-5.915c2.527-2.325 5.086-4.203 5.687-4.172.601.031.25.564-.78 1.185-1.03.621-3.312 2.515-5.07 4.21-1.76 1.694-3.476 3.063-3.815 3.043-.339-.021 1.451-1.94 3.978-4.266zm19.577 1.065c0-1.781-.533-3.454-1.185-3.717-.708-.286-.517-.508.474-.553 1.316-.06 1.659.71 1.659 3.717 0 2.085-.214 3.791-.474 3.791s-.474-1.457-.474-3.238zm-3.572-1.501c0-1.825.195-2.571.434-1.659s.238 2.405 0 3.318c-.239.912-.434.166-.434-1.659zm4.283-7.314c-1.434-.217-3.78-.217-5.214 0-1.433.217-.26.395 2.607.395 2.868 0 4.04-.178 2.607-.395zm17.42 51.154c1.203-1.535 1.159-1.555-.595-.268a155.829 155.829 0 0 1-2.29 1.658c-.218.148.05.269.594.269.545 0 1.575-.747 2.29-1.66zm-62.31-12.56c0-7.038.149-9.917.331-6.398.183 3.519.183 9.277 0 12.796-.182 3.519-.331.64-.331-6.399zm7.137 10.664c-.045-.991-.268-1.182-.553-.474-1.43 3.544-2.216-.07-2.216-10.19 0-7.374.353-11.375 1.004-11.375.552 0 .7.492.327 1.094-.422.684-.26.837.434.409.61-.377.882-1.054.605-1.503-.278-.45-.072-1.085.458-1.412.634-.392.963 3.792.963 12.257 0 7.068-.213 12.852-.474 12.852-.26 0-.507-.747-.548-1.66zm69.642-10.664c0-7.038.149-9.917.331-6.398.183 3.519.183 9.277 0 12.796-.182 3.519-.331.64-.331-6.399zm3.791 0c0-7.038.15-9.917.332-6.398.182 3.519.182 9.277 0 12.796-.183 3.519-.332.64-.332-6.399zm1.896 0c0-7.038.15-9.917.332-6.398.182 3.519.182 9.277 0 12.796-.183 3.519-.332.64-.332-6.399zm1.899-.474c.002-7.299.15-10.16.33-6.357.18 3.803.18 9.774-.002 13.27-.182 3.496-.33.385-.328-6.913zm-82.482 1.422c0-5.996.153-8.448.342-5.45.188 2.997.188 7.902 0 10.9-.189 2.998-.342.545-.342-5.45zm76.789-1.422c.002-6.777.152-9.426.335-5.885.183 3.54.182 9.086-.002 12.322-.185 3.237-.334.34-.332-6.438zm-77.384-14.413c1.173-.226 3.092-.226 4.265 0 1.173.226.213.41-2.133.41s-3.305-.184-2.132-.41zm77.266-.011c1.44-.218 3.573-.212 4.739.014 1.166.225-.013.403-2.62.396-2.606-.009-3.56-.191-2.12-.409zm-77.266-1.884c1.173-.226 3.092-.226 4.265 0 1.173.226.213.41-2.133.41s-3.305-.184-2.132-.41zm76.779 0c1.173-.226 3.092-.226 4.265 0 1.173.226.213.41-2.133.41s-3.306-.184-2.132-.41zm-78.205-2.321c-1.377-1.376-1.521-4.485-.298-6.417.592-.936.806-.362.696 1.875-.154 3.153-.074 3.225 3.634 3.245 3.107.018 3.842-.33 4.07-1.92.382-2.676-2.845-6.116-5.738-6.116-1.317 0-2.6-.533-2.85-1.185-.328-.857.954-1.185 4.639-1.185 5.18 0 5.826.31 4.152 1.983-.621.622-.548 1.979.217 4.005.84 2.226.877 3.513.133 4.7-1.24 1.98-7.013 2.657-8.655 1.015zm76.735-.043c-1.564-1.564-1.426-4.767.3-6.976 1.337-1.713 1.361-1.664.349.706-1.375 3.217-.529 5.511 2.03 5.511 1.09 0 1.746-.382 1.458-.848-.289-.467.16-1.112.997-1.433 1.113-.427 1.366-.177.942.928-.37.962-.149 1.37.605 1.121 3.76-1.238.037-8.299-4.376-8.299-4.489 0-2.615-1.704 2.245-2.041 4.394-.304 5.896.267 3.917 1.49-.455.28-.376 2.18.176 4.248.768 2.877.712 4.086-.242 5.236-1.461 1.76-6.772 1.986-8.402.357zm-71.281-2.655c0-.522.451-.948 1.003-.948s.74.426.418.948c-.322.521-.774.947-1.003.947-.23 0-.418-.426-.418-.947zm-3.542-11.107c1.44-.218 3.574-.212 4.74.014 1.165.225-.014.403-2.62.396-2.607-.01-3.56-.191-2.12-.41zm76.779 0c1.44-.218 3.574-.212 4.74.014 1.165.225-.013.403-2.62.396-2.607-.01-3.56-.191-2.12-.41zm-74.422-7.93c-1.295-1.419-1.365-1.817-.316-1.817.739 0 1.592.533 1.896 1.185.442.948.663.948 1.106 0 .304-.652 1.264-1.191 2.132-1.2 1.248-.01 1.31-.185.294-.829-.896-.568-.968-1.011-.237-1.463.577-.357 1.516-.36 2.087-.01.648.401-.085 1.667-1.955 3.374-1.645 1.503-3.072 2.697-3.17 2.654-.098-.044-.925-.897-1.837-1.896zm8.768-.395c1.224-1.304 2.44-2.37 2.7-2.37.26 0-.528 1.067-1.752 2.37-1.225 1.303-2.44 2.37-2.7 2.37-.261 0 .527-1.067 1.752-2.37zm57.287-.711-2.784-3.08 3.08 2.783c2.872 2.595 3.517 3.378 2.785 3.378-.164 0-1.55-1.387-3.081-3.081zm7.453 1.824c-.417-.69-1.505-1.53-2.417-1.866-.912-.335-1.659-1.308-1.659-2.162 0-.991.515-1.356 1.422-1.008 1.593.611 2.008-1.764.474-2.712-.522-.323-.948-.18-.948.316 0 .497-.723 1.18-1.606 1.519-1.409.54-1.391.38.144-1.317 1.336-1.477 2.052-1.683 3.028-.873 1.668 1.384 1.628 3.382-.086 4.341-1.075.602-.875.993.948 1.854 1.271.6 2.311.704 2.311.232 0-.473.747-.825 1.66-.784.99.044 1.18.267.473.553-.652.263-1.185 1.082-1.185 1.82 0 1.694-1.558 1.747-2.56.087zm10.004-4.134c.272-4.382.005-5.65-1.422-6.764-1.68-1.31-1.68-1.345-.02-.77.954.331 1.914.602 2.132.602.218 0 .396 2.773.396 6.161 0 3.389-.32 6.162-.71 6.163-.391 0-.56-2.426-.376-5.392zm-88.93.713c-1.283-2.398-1.238-3.781.064-1.958.811 1.136.919.981.533-.769-.555-2.518 1.53-3.822 3.498-2.189 1.657 1.376 2.797.184 1.416-1.48-1.65-1.989-.547-2.108 1.329-.143 1.091 1.143 1.253 1.743.473 1.752-.894.011-.876.21.07.81 1.955 1.24-1.47 4.186-4.248 3.655-2.318-.444-3.091.698-1.035 1.528.893.36.901.497.033.553-.633.041-1.593-.75-2.132-1.759zm6.228-2.119c.46-.744.17-.911-.88-.508-.938.36-1.476.162-1.34-.493.123-.602-.628-1.25-1.67-1.44-1.432-.259-1.576-.124-.59.55.718.49 1.013 1.367.655 1.946-.395.64.095 1.054 1.244 1.054 1.043 0 2.204-.499 2.581-1.109zm79.05 3.092c1.152-.815.95-1.009-1.07-1.02-1.37-.01-2.91-.548-3.425-1.2-1.13-1.431-1.189-4.502-.087-4.502.434 0 .74-.96.68-2.133-.087-1.688-.203-1.775-.554-.42-.756 2.917-3.595 1.48-3.656-1.85-.03-1.626-.701-3.967-1.49-5.201-3.06-4.782-2.904-4.94.81-.823 2.355 2.611 3.453 4.512 2.831 4.9-.558.35-1.115 1.312-1.236 2.138-.121.826.176 1.257.66.958.484-.3.662-.896.396-1.327-.92-1.49 1.98-1.72 4.292-.34 1.277.762 1.623 1.174.768.916-1.128-.341-1.756.355-2.29 2.54-1.14 4.67-1.09 4.79 2.227 5.468 2.152.44 3 .305 2.726-.435-.219-.59-.878-.967-1.464-.837-.587.13-1.067-.235-1.067-.812 0-.577.662-.795 1.472-.485.843.324 1.224.165.892-.372-.883-1.428-3.116-1.118-3.62.503-.312 1.007-.4.936-.293-.237.199-2.17 3.393-2.183 4.759-.02 1.184 1.878-.033 4.61-2.33 5.23-1.086.293-1.072.167.068-.64zm-66.89-1.88c.675-1.094 4.329-3.3 4.329-2.615 0 .22-1.12 1.132-2.487 2.028-1.367.896-2.197 1.16-1.843.588zm-6.135-2.517c-.973-1.172-1.375-1.22-1.998-.237-.44.693-.786.781-.794.202-.028-1.977 1.269-2.28 3.011-.703 1.452 1.313 1.961 1.372 2.92.337.821-.885.834-1.07.044-.626-1.372.77-2.642-1.049-2.71-3.878-.046-1.975 2.079-3.753 3.175-2.656.273.273.105.497-.372.497-.478 0-.933 1.096-1.01 2.434-.091 1.577.27 2.276 1.027 1.986 1.448-.556 1.585 2.429.155 3.385-1.52 1.016-2.092.893-3.448-.741zm50.275-.903c-1.304-.745-1.918-1.37-1.366-1.389.552-.019 1.831.593 2.843 1.358 2.34 1.77 1.593 1.786-1.477.03zm7.728-.584c-.785-2.121.59-6.504 2.043-6.518.422-.002.487.445.146.998-.342.554-.812 2.367-1.044 4.029-.317 2.274-.18 2.67.552 1.6.535-.781.979-2.142.987-3.024.025-2.816 1.509-2.639 1.726.207.284 3.727-3.234 5.888-4.41 2.708zm-41.102-1.92c1.24-.65 1.956-1.7 1.67-2.447-.277-.72-.081-1.049.434-.73 1.181.73 1.233 3.31.067 3.31-.479 0-1.652.227-2.607.504-.987.286-.799.011.436-.636zm-22.551-.67c0-.513.533-1.182 1.185-1.485 1.658-.772-4.084-.03-6.398.826-1.043.386.366-.642 3.132-2.284 4.79-2.845 10.612-9.99 10.612-13.027 0-.68.426-1.236.948-1.236 1.517 0 1.165.856-2.772 6.752-2.045 3.064-3.24 5.57-2.654 5.57.749 0 .727.339-.072 1.138-.626.625-1.13 1.798-1.123 2.607.013 1.297.132 1.302 1.02.047.894-1.264.963-1.264.622 0-.426 1.58-4.5 2.57-4.5 1.093zm2.844-3.936c0-.521-.189-.948-.418-.948-.23 0-.682.427-1.004.948-.323.522-.134.948.418.948s1.004-.426 1.004-.948zm8.97 3.847c.297-.48.085-1.153-.47-1.496-1.017-.628.469-3.299 1.836-3.299 1.34 0 .936 4.576-.451 5.109-.8.306-1.21.165-.914-.314zm37.002-.055c-.748-1.21.245-2.848 1.714-2.83.682.01.566.385-.293.949-1.263.83-1.263 1.037 0 1.866.859.564.975.94.293.948-.62.01-1.392-.412-1.714-.933zm-14.682-1.885c-.875-.875-2.388-1.473-3.363-1.33-6.313.926-16.8-6.729-17.996-13.136-1.06-5.675.267-10.185 4.133-14.051l3.481-3.481-2.547-.962c-2.13-.804-2.846-.63-4.378 1.065-1.007 1.114-2.303 2.879-2.88 3.922C.8 100.173.315 100.508.3 99.875c-.016-.634 1.25-2.61 2.815-4.391 3.28-3.736 3.617-4.89 1.02-3.501-2.084 1.115-5.329 7.661-9.047 18.25-1.939 5.524-3.474 8.132-6.278 10.665-2.04 1.844-4.449 3.352-5.352 3.352-.958 0-.266-.73 1.662-1.755 4.004-2.128 6.854-6.128 9.447-13.262 1.073-2.949 2.653-7.282 3.512-9.628.86-2.346 2.984-5.694 4.721-7.44 4.038-4.06 4.405-6.865.57-4.352-4.174 2.735-5.694 5.108-9.371 14.636-1.912 4.953-4.248 10.301-5.19 11.885-1.891 3.176-8.05 7.073-11.18 7.073-3.448 0-2.405 2.833 1.077 2.925l3.081.082-2.762.826c-3.282.98-4.347.492-4.347-1.993 0-1.208-.651-1.84-1.896-1.84-1.413 0-1.896-.632-1.896-2.48 0-2.038.349-2.39 1.954-1.97 2.017.528 4.074-2.23 2.143-2.874-.541-.18-1.695-.845-2.564-1.478-1.283-.935-.342-1.092 5.006-.84 7.567.36 7.058.835 11.104-10.381 3.95-10.952 7.469-15.335 14.93-18.601 8.36-3.658 17.174 1.899 14.014 8.834-.577 1.265-1.47 2.3-1.984 2.3-1.537 0-7.63 5.77-9.106 8.625-3.442 6.655-.495 15.7 6.228 19.119l3.3 1.677 3.492-3.707c2.364-2.51 3.649-3.3 3.975-2.448.506 1.316-2.829 6.243-3.968 5.863-.606-.202-1.426 1.03-.893 1.342 1.196.702 4.46-1.714 5.647-4.178l1.479-3.07-.473 4.379c-.518 4.793.419 6.09 3.657 5.062 1.756-.558 1.941-1.172 1.524-5.038l-.476-4.403 1.478 3.07c1.312 2.722 2.943 3.992 5.174 4.028.39.005.604-.309.474-.7-.13-.39-.533-.612-.894-.492-1.139.38-4.473-4.547-3.968-5.864.327-.851 1.611-.06 3.976 2.45l3.492 3.706 3.3-1.677c4.637-2.358 7.601-7.157 7.601-12.306 0-4.701-1.015-7.136-4.559-10.935-1.337-1.434-1.969-2.607-1.404-2.607.565 0 2.33 1.484 3.922 3.297 5.093 5.8 5.13 14.104.087 19.847-3.778 4.304-10.645 7.486-14.38 6.666-1.876-.412-2.651-.29-2.253.356 1.52 2.459-4.666 3.454-6.995 1.125zm-3.682-6.41c1.18-1.503 1.146-1.536-.358-.357-1.578 1.238-2.08 2.017-1.3 2.017.196 0 .943-.747 1.658-1.66zm15.045 1.302c0-.197-.746-.944-1.658-1.659-1.504-1.179-1.537-1.146-.358.358 1.238 1.579 2.016 2.08 2.016 1.3zm-54.095-2.926c4.438-2.295 7.227-6.517 9.947-15.058 2.68-8.418 6.584-14.889 10.128-16.785 6.286-3.364 11.669-2.736 11.093 1.294-.295 2.059-3.613 3.596-3.613 1.674 0-.56.676-1.017 1.501-1.017.826 0 1.323-.534 1.106-1.185-.217-.652-1.426-1.185-2.686-1.185-1.758 0-2.356.57-2.575 2.45-.157 1.349.35 2.98 1.127 3.624 2.206 1.83 6.536.886 7.822-1.707 2.345-4.73-3.026-9.523-9.272-8.274-7.737 1.547-12.834 7.421-17.786 20.495-1.678 4.431-3.985 9.072-5.126 10.312-2.654 2.886-7.848 5.105-10.2 4.358-1.273-.404-1.827-.13-1.827.906 0 1.961 6.637 2.024 10.361.098zm-3.034-2.976c-.315-.315-1.133-.349-1.817-.075-.756.303-.532.527.573.573.999.04 1.559-.183 1.244-.498zm1.915-2.925c-.912-.238-2.405-.238-3.317 0-.913.239-.166.434 1.659.434 1.824 0 2.57-.195 1.658-.434zm70 15.122c-.312-.311-.56-1.028-.553-1.593.009-.565.428-.387.934.395.505.782.925.974.933.426.008-.547-.519-1.548-1.17-2.224-.959-.995-.825-1.165.7-.89 2.26.408 3.036 3.181 1.098 3.925-.757.29-1.631.273-1.943-.039zm-2.463-3.094c0-1.354-.386-1.776-1.185-1.296-.815.49-.781.214.107-.881.711-.877 1.634-1.382 2.052-1.124.418.258.976-.067 1.24-.722.29-.718.51-.532.555.468.04.913-.398 1.66-.975 1.66s-.809.625-.515 1.39c.294.766.126 1.644-.373 1.952-.498.309-.906-.343-.906-1.447zm-61.185-1.329c2.2-1.332 4.836-4.165 6.39-6.867 1.455-2.53 2.649-4.211 2.653-3.736.032 3.582-8.613 12.894-11.953 12.875-.46-.002.85-1.025 2.91-2.272zm79.408.257c-2.825-1.809-7.808-8.756-7.79-10.86.004-.475 1.199 1.206 2.654 3.736 1.554 2.703 4.19 5.535 6.39 6.867 2.06 1.247 3.319 2.262 2.798 2.256-.522-.005-2.345-.905-4.052-1.998zm-68.286-1.51c.173-.9 1.37-2.162 2.658-2.804 2.029-1.011 2.628-.9 4.465.825 2.117 1.989 2.103 4.27-.018 2.945-1.82-1.136-4.299-1.27-4.92-.266-.958 1.55-2.522 1.05-2.185-.7zm4.158-.965c1.005.156 2.467.665 3.25 1.13.918.548.803.142-.327-1.148-1.902-2.17-5.42-1.701-6.095.812-.278 1.032-.167 1.06.493.127.468-.663 1.674-1.077 2.679-.92zm53.597.94c-.072-1.389-.689-2.106-1.77-2.058-.99.045-1.18.268-.473.553 1.641.663 1.487 1.9-.237 1.9-1.88 0-1.83-2.43.064-3.157 1.955-.75 3.547.925 2.978 3.136-.372 1.448-.472 1.382-.562-.374zm-28.397-1.185c0-1.303.215-1.836.478-1.184.263.651.263 1.718 0 2.37-.263.651-.478.118-.478-1.186zM1.65 116.603c-.344-.556-.422-1.214-.173-1.463.248-.248.704.207 1.013 1.011.64 1.67.094 1.964-.84.452zm21.702-2.76c-.424-2.12-1.367-3.114-3.782-3.987-4.094-1.48-3.708-2.528 1.586-4.3 5.188-1.738 5.244-1.79 3.834-3.488-.957-1.153-1.56-3.513-1.909-7.47-.036-.408-.981-1.081-2.101-1.495-1.914-.708-1.826-.883 1.469-2.92l3.505-2.166-.597-6.292c-.471-4.966-.282-6.691.9-8.188l1.498-1.895 1.498 1.895c1.182 1.497 1.372 3.222.901 8.188l-.597 6.292 3.505 2.166c3.295 2.037 3.383 2.212 1.469 2.92-1.12.414-2.066 1.087-2.102 1.494-.348 3.958-.951 6.318-1.908 7.471-1.41 1.699-1.354 1.75 3.834 3.487 2.326.78 4.358 1.804 4.516 2.277s-1.212 1.402-3.045 2.065c-2.002.724-3.337 1.842-3.346 2.802-.007.879-.475 2.237-1.037 3.02-.863 1.2-.94 1.163-.49-.238.448-1.389-.072-1.658-3.198-1.658-2.928 0-3.614.306-3.186 1.421.3.782.276 1.422-.053 1.422-.33 0-.854-1.27-1.164-2.823zm6.073-1.62c-.906-.237-2.612-.245-3.791-.019-1.18.227-.438.421 1.647.432 2.086.01 3.05-.175 2.144-.413zm1.174-2.192c-.782-.505-3.341-.895-5.687-.867-3.246.04-3.813.247-2.37.867 2.76 1.186 9.892 1.186 8.057 0zm-9.224-2.517c-.642-.26-1.921-.276-2.843-.035-.923.24-.398.452 1.166.472 1.564.019 2.319-.178 1.677-.437zm4.228.049c-.315-.315-1.133-.349-1.817-.075-.756.302-.531.527.573.573.999.04 1.559-.183 1.244-.498zm5.251-.05c-.642-.259-1.921-.275-2.844-.034-.922.24-.397.452 1.167.472 1.564.019 2.319-.178 1.677-.437zm7.072.05c-.315-.315-1.133-.349-1.817-.075-.756.302-.532.527.572.573 1 .04 1.56-.183 1.244-.498zm-8.038-1.992c-1.173-.226-3.092-.226-4.265 0-1.173.226-.214.41 2.132.41s3.306-.184 2.133-.41zm-1.185-3.597c0-.782-.626-1.422-1.392-1.422-.848 0-1.179.556-.846 1.422.3.782.926 1.422 1.392 1.422.465 0 .846-.64.846-1.422zm1.896-5.61c0-.218.227-.987.504-1.708.37-.965-.51-1.372-3.318-1.538-4.058-.24-4.14-.186-3.246 2.143.495 1.289 6.06 2.302 6.06 1.103zm.948-6.238c-.782-.506-2.488-.92-3.792-.92-1.303 0-3.009.414-3.791.92-1.012.654.08.918 3.791.918 3.712 0 4.804-.264 3.792-.918zM27.831 79.82c.499.807.656.233.424-1.552-.202-1.559-.397-3.438-.433-4.177-.13-2.671-1.279-.05-1.51 3.447-.131 1.97-.021 3.002.244 2.291.405-1.084.61-1.086 1.275-.01zm28.362 35.054c0-.64-.427-.899-.948-.576-1.151.71-1.214-.483-.117-2.213.6-.947.945-.72 1.37.906.312 1.195.371 2.368.131 2.608-.24.24-.436-.086-.436-.725zm-80.74-5.219c.875-.468 1.679-.91 1.785-.984.33-.226-2.174-7.097-2.821-7.744-.336-.335.213-1.303 1.218-2.15 1.32-1.112 1.883-2.94 2.027-6.568.11-2.765.52-5.224.91-5.466 1.308-.808 2.082 1.735 1.92 6.307-.13 3.654.23 4.804 1.853 5.941 1.342.94 1.745 1.831 1.208 2.671-.443.694-1.28 2.61-1.859 4.26-.916 2.609-.822 3.1.726 3.79 1.224.547.168.794-3.39.794-3.603 0-4.686-.258-3.577-.85zm4.415-3.178c.075-.912.683-2.664 1.35-3.893.792-1.455.892-2.557.289-3.16-1.206-1.207-5.47-.558-5.214.793l.626 3.295c1.002 5.254 2.625 6.886 2.949 2.965zm93.217 3.178c.875-.468 1.727-.96 1.894-1.092.166-.133-.154-1.137-.711-2.23l-2.031-3.983c-.84-1.646-.66-2.246 1.038-3.434 1.64-1.149 1.97-2.136 1.63-4.878-.46-3.73.715-8.11 1.967-7.336.428.264.868 2.743.978 5.507.144 3.628.708 5.456 2.027 6.568 1.005.848 1.553 1.815 1.218 2.15-.647.648-3.15 7.518-2.822 7.744.107.074.91.517 1.786.984 1.112.595.062.851-3.487.851-3.55 0-4.6-.256-3.487-.85zm5.386-5.33c.2-1.032-.147-1.889-.769-1.905-.621-.016-.375-.469.549-1.006 2.168-1.262 1.228-2.757-1.735-2.757-1.821 0-2.314.493-2.314 2.314 0 1.273.434 2.582.963 2.91.53.327.742.953.471 1.391-.27.439-.214 1.522.126 2.408.567 1.477.69 1.483 1.483.066.476-.85 1.028-2.39 1.226-3.421z" fill="url(#a)" opacity=".734" transform="translate(24.832 -114.7)"/></svg>