<?xml version="1.0" encoding="UTF-8"?>
<svg width="200mm" height="104mm" version="1.1" viewBox="0 0 200 104" xmlns="http://www.w3.org/2000/svg" xmlns:cc="http://creativecommons.org/ns#" xmlns:dc="http://purl.org/dc/elements/1.1/" xmlns:rdf="http://www.w3.org/1999/02/22-rdf-syntax-ns#" xmlns:xlink="http://www.w3.org/1999/xlink">
<defs>
<linearGradient id="a" x1="26.819" x2="156.29" y1="87.048" y2="244.55" gradientTransform="matrix(.52023 0 0 .52023 -11.346 83.75)" gradientUnits="userSpaceOnUse">
<stop stop-color="#fff" offset="0"/>
<stop stop-color="#fff" stop-opacity=".56085" offset=".56822"/>
<stop stop-color="#fff" stop-opacity=".843" offset="1"/>
</linearGradient>
</defs>
<metadata>
<rdf:RDF>
<cc:Work rdf:about="">
<dc:format>image/svg+xml</dc:format>
<dc:type rdf:resource="http://purl.org/dc/dcmitype/StillImage"/>
<dc:title/>
</cc:Work>
</rdf:RDF>
</metadata>
<g transform="translate(24.832 -114.7)">
<path d="m-27.197 397.47c0.03793-4.3767 1.6865-10.079 3.2429-11.217 0.81067-0.59278 1.4739-1.5639 1.4739-2.1581 0-0.59421 0.41317-1.0804 0.91814-1.0804 1.2446 0 0.09353 2.7798-2.0306 4.904-2.2395 2.2395-2.201 3.6269 0.10066 3.6269 1.6548 0 3.5886-3.1091 3.0953-4.9764-0.10329-0.39102 0.26393-0.71091 0.81602-0.71091 0.5521 0 0.76272-0.39014 0.46804-0.86694-0.7958-1.2876 0.79721-1.5531 6.3425-1.0572l4.9821 0.44557-5.2134 0.58482c-2.8674 0.32171 4.8105 0.64778 17.062 0.72478 12.251 0.0771 21.721-0.21175 21.043-0.64139-0.7481-0.47453 0.7408-0.84122 3.7915-0.93381 3.5882-0.10878 4.6172 0.11412 3.6016 0.78138-1.0149 0.66656 0.06999 0.89946 3.7915 0.8138 5.0927-0.11709 5.1256-0.13536 1.4218-0.7821-3.2772-0.57228-2.9237-0.67145 2.6067-0.73093 3.519-0.0379 6.3982 0.32061 6.3982 0.79659 0 0.47603 1.3863 0.81498 3.0806 0.75331l3.0806-0.11209-2.8437-0.67763c-1.9157-0.45652-0.3692-0.68646 4.7394-0.70463 5.53-0.0173 6.6849 0.16041 4.2655 0.66504-3.1444 0.65583-3.0702 0.6977 1.4218 0.80223 3.3756 0.0783 4.3303-0.15397 3.3176-0.8086-1.0332-0.66775-0.25609-0.91886 2.8437-0.91886 3.0997 0 3.8769 0.25111 2.8437 0.91886-1.1597 0.74947-1.045 0.92153 0.62216 0.93339 1.58 0.0109 1.9315-0.41582 1.5482-1.8813-0.48678-1.8614-1.2929-1.8958-44.518-1.8958-29.107 0-43.824-0.32101-43.436-0.94787 0.37695-0.60991 16.282-0.94789 44.607-0.94789 38.899 0 44.021 0.16866 44.021 1.4515 0 0.79839 0.63739 1.6962 1.4164 1.9951 0.77901 0.29878 1.1804 0.92538 0.89194 1.3921-0.28844 0.46672-0.0475 0.84857 0.53531 0.84857 0.58287 0 0.8714 0.31995 0.64117 0.71091-0.89954 1.5278 1.2625 4.9764 3.1198 4.9764 2.3898 0 2.4629-1.3592 0.19511-3.627-2.1241-2.1241-3.2752-4.904-2.0306-4.904 0.50498 0 0.91815 0.48614 0.91815 1.0804 0 0.59418 0.66326 1.5653 1.4739 2.1581 1.5564 1.1381 3.2049 6.8401 3.2429 11.217 0.0222 2.5742-0.0528 2.6067-6.0372 2.6067-4.5121 0-6.1992-0.36316-6.6055-1.4218-0.33732-0.87911-1.779-1.4218-3.7769-1.4218-1.7772 0-3.7623-0.63984-4.4113-1.4219-1.0075-1.2139-5.9968-1.4218-34.124-1.4218-28.127 0-33.116 0.20779-34.124 1.4218-0.64901 0.78202-2.6341 1.4219-4.4113 1.4219-1.9978 0-3.4396 0.54272-3.7769 1.4218-0.40626 1.0587-2.0933 1.4218-6.6055 1.4218-5.9843 0-6.0596-0.0323-6.0372-2.6067zm6.2176-1.1849c2.5336 0 4.1865 0.43229 4.1865 1.0948 0 0.62695 0.79681 0.3737 1.8646-0.59262 1.03-0.93214 2.6802-1.4742 3.6866-1.211 1.0021 0.26188 2.4024 0.10857 3.1118-0.34072 0.7716-0.48886-2.6137-0.82302-8.426-0.83169-9.47-0.014-9.7139 0.0396-9.641 2.1182 0.04112 1.173 0.28997 1.5996 0.55293 0.94788 0.28119-0.69688 2.2023-1.1849 4.6646-1.1849zm97.553 0c2.3991 0 4.3064 0.49282 4.5856 1.1849 0.26298 0.65168 0.51178 0.225 0.55294-0.94785 0.0729-2.0788-0.17097-2.1324-9.641-2.1182-5.5552 9e-3 -9.1822 0.35289-8.4697 0.80471 0.68537 0.4346 2.2042 0.60708 3.3752 0.38326 1.2545-0.23967 2.6753 0.25113 3.4587 1.195 0.81672 0.98406 1.4648 1.1963 1.6801 0.55016 0.19285-0.57849 2.199-1.0518 4.4581-1.0518zm-90.754-6.467c-0.33579-1.2841 0.04768-1.6908 1.4941-1.5842 1.0702 0.079 2.0449 0.65364 2.1659 1.2773 0.12101 0.62368 2e-3 0.69411-0.26378 0.15653-0.54953-1.1103-2.2177-0.36855-2.2177 0.98604 0 0.49056 0.8531 0.89194 1.8958 0.89194 1.2064 0 1.8958-0.63192 1.8958-1.7378 0-0.95579 0.61678-1.7378 1.3706-1.7378 1.0354 0 1.1431 0.42506 0.44058 1.7378-0.79317 1.482-0.56013 1.7378 1.5836 1.7378 1.9272 0 2.4124-0.38694 2.0798-1.6588-0.3628-1.3873 0.22437-1.6588 3.5875-1.6588 3.5361 0 3.9142 0.20027 3.1335 1.6588-0.73979 1.3823-0.47656 1.6588 1.5792 1.6588 1.9608 0 2.3538-0.35646 1.9154-1.7378-0.3526-1.1109-0.08068-1.7378 0.75396-1.7378 0.79927 0 1.1293 0.67386 0.85106 1.7378-0.34048 1.302 0.07638 1.7378 1.6624 1.7378 1.5494 0 2.0006-0.44473 1.6832-1.6588-0.36094-1.3806 0.24046-1.6696 3.585-1.7232 2.9537-0.0474 3.8917 0.26691 3.5393 1.1848-0.60855 1.5859-2.1676 1.6317-2.1868 0.0646-0.0097-0.78988-0.32082-0.71092-0.93337 0.2368-0.66768 1.0332-0.92282 1.0826-0.93338 0.181-0.0075-0.68245-0.44106-0.9772-0.96239-0.65497-2.2354 1.3815-0.60822 2.3697 3.9021 2.3697 4.2363 0 4.7925-0.21996 4.3955-1.7378-0.27822-1.064 0.05178-1.7378 0.85106-1.7378 0.8346 0 1.1066 0.62686 0.75396 1.7378-0.48531 1.529 0.02543 1.7378 4.2518 1.7378 2.6418 0 4.8033-0.40136 4.8033-0.89191 0-1.4138-1.8874-2.2019-1.9706-0.82281-0.05862 0.97098-0.18658 0.95979-0.58868-0.0512-0.43383-1.0909-0.65485-1.0909-1.4192 0-0.76433 1.0909-0.98574 1.0909-1.4218 0-0.43609-1.0909-0.65751-1.0909-1.4218 0-0.74842 1.0682-0.84148 1.056-0.53697-0.0699 0.24386-0.9021 1.8262-1.4107 4.6827-1.5054 3.7556-0.12442 4.2554 0.0829 3.8588 1.5994-0.34181 1.307 0.07317 1.7423 1.6613 1.7423 1.5792 0 2.0025-0.43748 1.6664-1.7225-0.38427-1.4694 0.13438-1.7131 3.5302-1.6588 3.3085 0.0531 3.9074 0.34389 3.5469 1.7225-0.31214 1.1939 0.12859 1.6588 1.5726 1.6588 2.2296 0 2.5663-0.95665 0.91712-2.6058-0.82034-0.82037-0.58639-1.0514 0.94775-0.93578 1.4967 0.11281 1.8943 0.60277 1.4993 1.8475-0.42233 1.3306-0.0083 1.6941 1.9293 1.6941 2.0912 0 2.3264-0.26258 1.5444-1.7238-0.82701-1.5453-0.50254-1.7171 3.1334-1.6588 3.3799 0.0541 3.9837 0.34142 3.6223 1.7238-0.37132 1.4202 0.26397 1.6588 4.4163 1.6588 2.6675 0 4.85-0.4014 4.85-0.89196 0-1.3546-1.6682-2.0963-2.2177-0.98601-0.26611 0.53759-0.38481 0.46714-0.26378-0.15654 0.12101-0.62371 1.0957-1.1985 2.1659-1.2773 1.4464-0.1065 1.8299 0.30023 1.4941 1.5842-0.3673 1.4046 0.1128 1.7276 2.5684 1.7276 2.5898 0 2.977-0.30379 2.7172-2.1328l-0.30291-2.1327-46.446-0.24827c-42.823-0.22893-46.539-0.12207-47.631 1.366-1.8654 2.5414-1.4333 3.1477 2.2433 3.1477 2.8502 0 3.352-0.29124 2.9764-1.7276zm-4.5088 2e-3c0-1.1456 1.7983-2.4812 2.4557-1.8238 0.23856 0.23861-0.21635 0.97337-1.011 1.6328-0.90086 0.74765-1.4447 0.81957-1.4447 0.19101zm80.826-0.62136c-0.95344-1.0839-0.82389-1.2997 0.7109-1.1841 1.0322 0.0779 1.8768 0.69043 1.8768 1.3615 0 1.576-1.1124 1.4997-2.5877-0.17736zm10.05-0.26115c-1.179-1.5034-1.1455-1.5369 0.35791-0.3579 0.91234 0.7155 1.6588 1.462 1.6588 1.6588 0 0.78015-0.77837 0.27803-2.0167-1.3009zm-70.985 0.94805c-0.01251-1.4176-0.14812-1.4521-0.93337-0.23713-0.66768 1.0332-0.92282 1.0826-0.93337 0.181-0.0075-0.68248-0.44106-0.97721-0.9624-0.65497-1.6029 0.99063-1.0513 2.3697 0.94789 2.3697 1.1791 0 1.8903-0.62707 1.8813-1.6588zm41.044 0.0482c-0.44379-1.1565-0.73512-1.2599-1.0329-0.36668-0.31382 0.94147-0.58534 0.96812-1.116 0.10959-0.50805-0.82204-0.85994-0.72107-1.2773 0.36666-0.42853 1.1167 0.01576 1.5013 1.7341 1.5013 1.7846 0 2.1696-0.36652 1.6921-1.6109zm15.844 0.71891c0-0.49057-0.42654-1.1556-0.94789-1.4778-0.52135-0.32209-0.95441-0.0285-0.96238 0.65498-0.0109 0.90159-0.26569 0.85212-0.93338-0.181-0.78526-1.2151-0.92098-1.1806-0.93339 0.23715-0.01 1.0317 0.70216 1.6588 1.8813 1.6588 1.0427 0 1.8958-0.4014 1.8958-0.89196zm-28.2-5.4231c-0.65167-0.26297-1.718-0.26297-2.3697 0-0.65167 0.26294-0.11847 0.47807 1.1849 0.47807 1.3033 0 1.8365-0.21492 1.1849-0.47807zm15.166 0c-0.65168-0.26297-1.718-0.26297-2.3697 0-0.65167 0.26294-0.11849 0.47807 1.1849 0.47807 1.3033 0 1.8365-0.21492 1.1849-0.47807zm-51.186-0.97281c0.91234-0.23861 2.4053-0.23861 3.3176 0 0.91234 0.23822 0.16587 0.43351-1.6588 0.43351-1.8247 0-2.5711-0.19529-1.6588-0.43351zm9.03-0.042c2.2295-0.20027 5.6419-0.1974 7.5831 9e-3 1.9412 0.20351 0.1171 0.36752-4.0536 0.36409-4.1707-2e-3 -5.759-0.17022-3.5295-0.37034zm13.732 0.014c1.4408-0.21785 3.5736-0.2121 4.7394 0.014 1.1658 0.22498-0.01296 0.40322-2.6197 0.39611-2.6067-9e-3 -3.5606-0.19139-2.1197-0.40905zm-38.5-3.2797c-2.2941-1.2838-5.3055-8.0318-5.3317-11.947-0.02649-3.9583 1.5507-7.6815 6.4737-15.283 4.8505-7.4892 5.271-12.108 1.45-15.929-2.3877-2.3878-2.4238-2.5811-0.94789-5.0796 1.3854-2.3453 1.5343-11.517 1.5343-94.517 0-78.638-0.19625-92.082-1.3583-93.047-0.95848-0.79546-1.4467-3.7598-1.6588-10.071l-0.30054-8.9437 2.8437 0.13129c2.2366 0.10313 2.3884 0.21889 0.71092 0.54201-2.0106 0.38726-2.1327 0.86844-2.1327 8.4019v7.9911h18.037l4.9744-4.0518c8.5036-6.9264 13.756-8.7373 25.351-8.7413 9.3317-2e-3 10.367 0.19268 16.114 3.0482 3.3777 1.6784 7.7646 4.5576 9.7486 6.3982l3.6073 3.3466h18.852v-7.9867c0-6.8101-0.24451-8.0515-1.6588-8.421-0.99612-0.2603-0.52281-0.51515 1.1848-0.63793 2.8142-0.20231 2.8191-0.21231 0.47395-0.96334-2.2452-0.71905-2.2079-0.7639 0.71092-0.85341 3.5174-0.10781 4.5107-2.9381 1.0312-2.9381-1.1272 0-3.8276-1.042-6.0009-2.3157-4.3629-2.5568-6.3205-5.8168-10.945-18.227-2.225-5.9707-3.7993-8.5707-6.8679-11.343-3.0043-2.7142-4.0516-3.2313-4.268-2.1073-0.15773 0.8192 1.1573 2.9377 2.9223 4.7078 1.8002 1.8054 4.1161 5.7153 5.275 8.9057 1.1363 3.128 2.7232 7.4754 3.5265 9.6608 2.1309 5.7972 5.1636 9.8143 8.9141 11.807 1.8165 0.96531 2.6398 1.7551 1.8294 1.7551-0.81037 0-3.2111-1.4874-5.3349-3.3053-3.0479-2.6089-4.406-4.8557-6.4456-10.664-3.7354-10.637-6.9771-17.181-9.0642-18.298-2.5965-1.3896-2.26-0.23486 1.0202 3.5011 1.564 1.7813 2.8307 3.7571 2.8148 4.3906-0.0158 0.63354-0.50066 0.29882-1.0774-0.74388-0.57666-1.0427-1.882-2.8176-2.9008-3.9442-1.7413-1.9256-2.0515-1.9652-5.1737-0.66072-2.9509 1.233-3.5739 1.2222-5.5862-0.09637-6.968-4.5656-1.6962-13.767 7.2038-12.573 8.9481 1.2002 15.298 7.434 19.043 18.696 3.8812 11.671 3.7806 11.572 11.356 11.213 5.0635-0.23975 6.2552-0.0647 5.1311 0.754-0.80535 0.58646-3.2685 0.96326-5.4738 0.83742-2.2052-0.12599-2.6669-0.0493-1.026 0.17 1.9098 0.25533 3.1513 1.0406 3.4498 2.1819 0.33355 1.2755 1.0357 1.6341 2.4668 1.2599 1.6591-0.43387 2.0006-0.0996 2.0006 1.9571 0 1.5906-0.51838 2.4803-1.4453 2.4803-0.7949 0-1.8549 1.0773-2.3555 2.394-0.50061 1.3167-1.5564 2.642-2.3463 2.9451-1.1318 0.43429-1.436 2.3126-1.436 8.8646 0 6.2334-0.35575 8.6088-1.4218 9.4935-1.246 1.034-1.4218 12.55-1.4218 93.1 0 82.999 0.14896 92.172 1.5343 94.517 1.4804 2.506 1.443 2.6887-1.063 5.1947-3.6552 3.6552-2.9672 8.9431 2.1987 16.899 4.5675 7.0343 5.8682 10.217 5.8401 14.289-0.0277 4.0206-3.125 10.664-5.5859 11.981-2.6104 1.397-2.4963 0.46081 0.35693-2.9301 4.9806-5.919 4.8049-12.586-0.54115-20.536-1.5081-2.2426-3.3814-5.314-4.1628-6.8252-2.5185-4.8703-1.4564-12.438 2.0352-14.5 1.0693-0.63158 1.0463-1.2167-0.13835-3.5075-1.2352-2.3886-1.4218-14.825-1.4218-94.741v-91.992l-9.2419-0.01c-9.2118-0.01-9.2518-0.0205-12.292-3.1504-1.6777-1.7272-5.3033-4.3686-8.057-5.8698-4.6047-2.5103-5.8184-2.7335-15.116-2.7799-5.5599-0.0275-9.6122 0.28521-9.0049 0.69535 0.60724 0.41015-0.17559 0.48501-1.7396 0.16635-2.2619-0.46085-2.5528-0.35709-1.4218 0.50725 1.1497 0.87872 0.99099 0.96466-0.82962 0.44908-1.5191-0.43019-2.0426-0.29977-1.6096 0.40101 0.41546 0.67222 0.06815 0.81838-0.98468 0.4144-1.0961-0.42064-1.4052-0.2661-0.94789 0.47394 0.45736 0.74002 0.14829 0.89459-0.94788 0.47396-1.0566-0.40544-1.4006-0.25854-0.98165 0.41931 0.35467 0.57389 0.14549 1.3521-0.46491 1.7294-0.73312 0.4531-0.85445 0.27273-0.35747-0.53142 0.50463-0.8165 0.31878-1.0598-0.56446-0.73889-0.72424 0.26314-1.2238 0.91738-1.1101 1.4539 0.11366 0.53652-0.50141 1.5495-1.3668 2.2512-1.1075 0.89793-1.3627 0.92484-0.86164 0.091 1.3064-2.1745-1.1316-1.2186-3.0222 1.1849-1.7572 2.2338-2.386 2.3697-10.969 2.3697h-9.1055v92.208c0 82.736-0.15477 92.429-1.5067 94.359-1.42 2.0273-1.3654 2.2924 0.94789 4.6057 4.3857 4.3856 3.3106 11.09-3.3369 20.808-5.113 7.4752-5.0439 15.245 0.18504 20.811 2.4055 2.5606 2.2048 3.5816-0.41576 2.115zm24.864-239.05c4.11-4.2405 11.687-7.9756 18.9-9.3171 10.281-1.912 21.47 1.3848 29.908 8.813l4.2059 3.7022 17.719-0.38987-8.4297-0.3179c-8.351-0.31497-8.4705-0.35418-12.796-4.201-2.4017-2.1357-6.7128-4.9888-9.5801-6.3402-4.5647-2.1513-6.4519-2.4594-15.166-2.4762-9.2043-0.0174-10.416 0.20248-16.114 2.9284-3.3887 1.6212-7.722 4.4832-9.6296 6.3601-3.3827 3.3283-3.6751 3.4203-11.849 3.7297l-8.3803 0.3172 18.112 0.38987zm26.894-8.8456c-1.173-0.22591-3.0925-0.22591-4.2655 0-1.173 0.22592-0.21327 0.41078 2.1327 0.41078 2.346 0 3.3057-0.18484 2.1327-0.41078zm53.793-14.087c0-1.0355-0.5534-1.31-1.8262-0.90608-2.6217 0.83211-7.8112-1.6098-10.689-5.0297-1.3605-1.6169-3.6059-6.3395-4.9897-10.495-3.0387-9.1243-7.5411-15.315-13.093-18.003-4.647-2.2496-7.1301-2.4732-10.486-0.94416-5.2128 2.3751-4.7611 9.5292 0.64108 10.154 3.4398 0.39772 5.5388-1.4209 5.182-4.4898-0.21868-1.8812-0.81734-2.4508-2.5756-2.4508-1.2599 0-2.4684 0.5332-2.6857 1.1849-0.21724 0.65166 0.28041 1.1849 1.1059 1.1849 0.82544 0 1.5008 0.45782 1.5008 1.0174 0 1.9221-3.3177 0.38463-3.6121-1.6738-0.68152-4.7647 7.2784-4.563 13.096 0.33182 3.5465 2.9842 5.1113 5.9153 8.1853 15.332 3.7955 11.627 8.4449 16.149 16.692 16.235 2.6114 0.0271 3.5546-0.35711 3.5546-1.4486zm-4.9961-2.8785c-0.31498-0.31498-1.1325-0.34866-1.8168-0.0748-0.75614 0.30257-0.53154 0.5272 0.57269 0.57267 0.99924 0.0413 1.5591-0.18294 1.2441-0.49783zm-97.482 260.77c-3.0897-1.6793-5.0024-6.1147-4.2042-9.7492 0.334-1.5208 2.6114-5.921 5.061-9.7785 3.9962-6.2931 4.4507-7.5733 4.4249-12.464l-0.02867-5.4504h82.599l-0.0285 5.4504c-0.0258 4.8905 0.42871 6.1706 4.4249 12.464 5.1541 8.1164 6.1261 11.438 4.4978 15.369-2.315 5.5889-2.267 5.5837-50.383 5.5421-36.057-0.0325-44.328-0.278-46.363-1.3835zm15.575-0.85365c-0.31953-0.57337-0.0066-0.50926 0.6956 0.14224 0.96344 0.8942 8.3903 1.1848 30.282 1.1848 21.892 0 29.318-0.29056 30.282-1.1848 0.70209-0.65168 1.0132-0.71276 0.69145-0.13569-0.40814 0.73187 1.4848 0.98738 6.2592 0.84492 8.7938-0.2626 8.5714-0.20527 7.8719-2.0281-0.49532-1.2907-0.35503-1.3551 0.82283-0.37751 1.182 0.98102 1.6133 0.75392 2.5745-1.3556 0.94919-2.0832 0.91124-2.688-0.21334-3.3996-1.7961-1.1364-2.7898-1.1174-2.7898 0.0534 0 0.52133-0.49266 0.94786-1.0948 0.94786-0.69437 0-0.56625-0.60669 0.35028-1.6588 0.79478-0.91234 1.6803-2.2986 1.9678-3.0806 0.38165-1.0379 0.543-0.92276 0.59763 0.42655 0.0558 1.3767 0.34886 1.5744 1.1486 0.77464 1.3515-1.3515 0.2859-4.4112-1.2135-3.4845-0.6774 0.41868-0.84545 0.26689-0.43679-0.39428 1.0246-1.6578-1.0688-4.7381-3.4499-5.0762-1.7281-0.2454-2.0969-0.8449-1.9356-3.1468 0.10958-1.564-0.0316-2.3143-0.31315-1.6673-0.77408 1.7775-2.8304-0.63686-3.6255-4.2566-0.44801-2.0398-1.0768-2.8102-2.0033-2.4546-0.78043 0.29949-1.6247-0.22354-2.0002-1.239-0.35737-0.96644-1.0366-2.0177-1.5093-2.3361-0.47276-0.31852-0.18393-0.83827 0.64176-1.1551 1.1303-0.43376 1.5013 0.0287 1.5013 1.8653 0 1.9554 0.33021 2.3044 1.6588 1.7531 0.91233-0.37855 2.192-0.70855 2.8436-0.73336 0.65166-0.0251 1.1849-0.36561 1.1849-0.75743 0-0.39179 0.24075-1.3398 0.53504-2.1067 0.46565-1.2135-4.7567-1.3982-40.284-1.4243l-40.819-0.0288 0.6465 2.5316c0.35557 1.3924 0.59433 3.2873 0.53053 4.2109-0.06383 0.92357 0.30212 1.4209 0.8131 1.1051 0.51098-0.31565 0.65809-1.428 0.32687-2.4715-0.52248-1.6462-0.35582-1.7655 1.2586-0.90149 2.1232 1.1363 3.058 0.55265 3.058-1.9093 0-1.1156 0.48472-1.5221 1.3975-1.1718 1.2314 0.47251 1.2314 0.70238 0 1.9338-0.7686 0.76861-1.3975 1.8392-1.3975 2.379 0 0.53986-0.62414 0.74209-1.387 0.44937-0.99535-0.38197-1.5604 0.39236-2.0013 2.7422-0.33787 1.801-0.92819 3.2745-1.3118 3.2745-0.38365 0-1.1915 0.95973-1.7953 2.1328-1.0775 2.0935-1.0866 2.0891-0.49257-0.23712l0.60515-2.3697-1.9457 2.3697c-1.7644 2.1489-1.7982 2.4297-0.36319 3.014 1.2679 0.51623 1.1651 0.65755-0.51691 0.71089-2.6678 0.0845-4.0304 2.605-3.3726 6.238 0.65688 3.6278 1.9255 5.2033 4.1897 5.2033 1.0255 0 2.172 0.9702 2.6585 2.2496 0.49204 1.2941 1.9918 2.5516 3.5311 2.9605 1.4717 0.39101 2.2171 0.88231 1.6564 1.0918-1.6842 0.62931-6.5637-1.932-6.5637-3.4453 0-0.77486-0.8531-1.5707-1.8958-1.7685-1.0427-0.19776-2.1432-0.75127-2.4455-1.23-0.66542-1.0535-3.7158-0.025-3.7158 1.2534 0 0.49977 0.45629 1.7614 1.014 2.8034 0.86104 1.6089 1.2459 1.7067 2.5517 0.64863 1.2804-1.0376 1.4076-1.0301 0.76033 0.0448-1.178 1.9561 0.56522 2.5326 7.906 2.615 4.5826 0.0512 6.4803-0.25043 6.0807-0.96768zm67.636-1.093c1.6545-0.72472 3.2828-2.1828 3.6185-3.2403 0.33562-1.0574 1.0602-1.9226 1.6103-1.9226 0.61449 0 0.53777 0.55702-0.19893 1.4447-0.65947 0.79462-0.91786 1.7259-0.57422 2.0696 0.66798 0.668-4.5891 3.1729-6.3878 3.0436-0.59182-0.0426 0.27769-0.67029 1.9322-1.395zm-43.259-3.6995c-0.63004-0.75913-0.87038-1.8255-0.53406-2.3697 0.33633-0.5442 0.18851-0.98942-0.32848-0.98942-0.51697 0-1.2088 0.84704-1.5374 1.8824-0.48353 1.5235-1.2259 1.8019-3.894 1.4602-1.8131-0.23216-4.4192-1.3051-5.7913-2.3844-1.3721-1.0793-2.741-1.6093-3.042-1.1778-0.30101 0.4315-1.6083 0.85179-2.9051 0.93405-1.8123 0.11507-2.0316-0.0567-0.94788-0.74187 1.3291-0.84034 0.68206-1.3001-1.4338-1.019-0.52133 0.0692-0.09981-0.53471 0.93673-1.3422 1.5919-1.2401 2.0336-1.2645 2.8437-0.15653 0.52747 0.7214 1.3856 1.381 1.9069 1.4658 2.4525 0.3991 4.2655 1.2879 4.2655 2.0913 0 0.48616 0.45173 0.88398 1.0038 0.88398 0.55211 0 0.77007-0.37821 0.48438-0.84047-0.28571-0.4623 0.19754-1.422 1.0739-2.1328 1.1754-0.95325 1.4014-0.97295 0.86155-0.0748-0.54721 0.91013-0.07452 1.098 1.874 0.74465 1.4332-0.25977 2.9009-0.95004 3.2616-1.5337 0.43612-0.70565 0.85649-0.53805 1.2549 0.50034 0.32953 0.85874 0.99925 1.3141 1.4882 1.0119 0.489-0.30235 1.1635-0.10541 1.499 0.43738 0.33544 0.54277 0.09835 0.86964-0.52693 0.7264-0.62525-0.14334-1.3324 0.27299-1.5715 0.92502-0.28829 0.78629 0.15057 0.99559 1.3033 0.62149 1.445-0.46891 1.4983-0.39157 0.31616 0.45877-1.1895 0.85571-1.0879 1.0252 0.62218 1.0373 1.6402 0.0109 1.944-0.40678 1.5378-2.1182-0.2784-1.173-1.1731-2.6659-1.9882-3.3176-0.8151-0.65171-1.0261-1.1849-0.469-1.1849 1.3172 0 2.8163 1.8791 3.4029 4.2655 0.356 1.4483 0.49193 1.2824 0.57594-0.70289 0.06917-1.6355-0.57486-3.0263-1.7376-3.7525-1.4837-0.92658-1.6237-1.4273-0.71091-2.5421 0.94914-1.1593 0.7949-1.3003-0.93486-0.85476-1.1894 0.30632-2.2576 0.0488-2.5084-0.60488-0.29825-0.77728 0.44324-1.0093 2.3369-0.7314 2.1374 0.31384 2.652 0.79067 2.2432 2.0789-0.33013 1.0401 0.06266 1.8994 1.0396 2.2743 1.9809 0.76013 4.2286-1.0276 3.5419-2.8171-0.49037-1.2779 2.317-1.9234 6.136-1.4109 0.7435 0.0999 0.49536-0.5772-0.62064-1.6932-1.0227-1.0227-2.6465-1.7934-3.6085-1.7127-1.0725 0.0898-1.7533-0.48096-1.7601-1.4758-0.0059-0.89232-0.53922-2.1506-1.1849-2.7963-1.4301-1.43-3.5151 0.22031-3.5326 2.7963-0.0066 0.9948-0.6876 1.5656-1.7601 1.4758-0.96199-0.0807-2.5615 0.6657-3.5546 1.6588-0.99302 0.99299-1.3789 1.8055-0.85761 1.8055 1.3066 0 1.1958 2.5785-0.14646 3.4081-0.67802 0.41904-0.83704 0.26008-0.418-0.41798 0.37199-0.6019 0.24885-1.0944-0.27367-1.0944-1.0541 0-0.93553-5.5299 0.15574-7.2652 0.38181-0.60713 0.15835-1.3199-0.49656-1.584-0.88643-0.35753-0.85828-0.49916 0.11017-0.55489 1.1026-0.0633 1.1026-0.31919 0-1.6786-0.85732-1.0569-0.90125-1.3638-0.12884-0.89989 0.8787 0.52775 0.96592 0.15791 0.3484-1.4768-0.51022-1.3508-1.5696-2.1541-2.7838-2.1106-1.078 0.0387-1.7428-0.28124-1.4773-0.7109 0.86913-1.4063 3.1742-0.82005 4.3824 1.1147 1.1575 1.8534 2.7345 2.5974 2.5114 1.1848-0.38696-2.4507 0.44894-2.8277 5.7812-2.6075 3.1179 0.12897 5.4418-0.13317 5.1641-0.58255-0.27765-0.44926 0.1572-0.56273 0.96627-0.25218 1.3533 0.5193 1.8681 1.6385 1.5833 3.4423-0.22305 1.4126 1.3539 0.6686 2.5114-1.1849 1.2082-1.9347 3.5132-2.521 4.3824-1.1147 0.26554 0.42959-0.45578 0.74951-1.6029 0.71091-1.4666-0.0496-2.0961 0.49283-2.1209 1.8267-0.01927 1.0433-0.34199 2.3931-0.71682 2.9997-0.37485 0.60652-0.14571 1.3188 0.50921 1.5828 0.92295 0.37205 0.9117 0.49691-0.05003 0.55487-0.75192 0.0456-0.94756 0.54166-0.49655 1.2597 1.1299 1.7988 1.2853 7.3461 0.20579 7.3461-0.52251 0-0.64566 0.49244-0.27368 1.0944 0.41904 0.67798 0.26002 0.83701-0.418 0.41798-0.60188-0.37201-1.0943-1.2318-1.0943-1.9108 0-0.80851-0.82489-1.0768-2.3907-0.77744-1.6949 0.3239-2.1228 0.7799-1.47 1.5664 0.63121 0.76056 0.33977 1.4722-0.92685 2.2632-1.1628 0.72617-1.8068 2.117-1.7376 3.7525 0.084 1.9853 0.21994 2.1512 0.57594 0.7029 0.59696-2.4286 2.0948-4.2695 3.4587-4.251 0.64424 9e-3 0.56656 0.33282-0.19554 0.81601-1.0135 0.64246-0.95936 0.91847 0.27285 1.3913 0.9361 0.3592 1.7601 0.0109 2.1072-0.89546 0.38355-0.9995 0.78446-1.1383 1.2258-0.42422 0.36068 0.58359 1.8284 1.2737 3.2616 1.5336 1.855 0.33638 2.4052 0.14785 1.9095-0.65412-0.43854-0.70961-0.29119-0.87625 0.39804-0.45031 2.1877 1.3521 3.0157-0.53277 0.9639-2.1942-1.1647-0.94311-1.7698-2.1545-1.3863-2.7751 0.97015-1.5698 2.7695-1.3674 2.1519 0.24181-0.28352 0.73882 0.09739 1.5786 0.84648 1.866 1.7703 0.67935 1.7301 2.2452-0.10501 4.0803-0.80682 0.80682-1.2102 1.7237-0.89635 2.0376 0.31384 0.31383 0.96744-0.0572 1.4525-0.82377 0.5384-0.85132 0.8875-0.95473 0.89636-0.26546 0.01968 1.5342-1.2315 2.1922-5.1136 2.6893-2.6545 0.33994-3.3981 0.0598-3.8811-1.462-0.71568-2.2549-2.2095-2.5168-2.0232-0.35467 0.21467 2.491-2.8133 3.9005-5.1902 2.4161-1.4422-0.90066-2.3008-0.96572-3.0365-0.22999-1.4437 1.4437-3.9996 1.2744-5.3515-0.35468zm12.762-1.2263c0-0.65169-0.37886-1.1485-0.84191-1.1039-0.46304 0.0445-1.203-0.48865-1.6443-1.1848-0.55535-0.87609-0.80684-0.91556-0.81689-0.12786-0.0073 0.62577 0.73195 1.6177 1.6443 2.2043 1.5218 0.97843 1.5243 1.0249 0.0305 0.56245-0.89565-0.27731-1.9027-0.0602-2.238 0.48209-0.3732 0.60389 0.25809 0.86344 1.6285 0.66951 1.2309-0.17407 2.2379-0.84986 2.2379-1.5015zm-18.484 0.35287c0-0.19668-0.64959-0.897-1.4435-1.5559-1.207-1.0017-1.3457-0.94306-0.84647 0.35791 0.50986 1.3286 2.29 2.2599 2.29 1.198zm2.6606-2.0369c-0.29183-0.29198-0.82187 0.23431-1.1778 1.1691-0.5144 1.3509-0.40552 1.4598 0.53063 0.53063 0.6478-0.643 0.93904-1.4078 0.6472-1.6997zm20.416 0.93209c-0.3087-0.80448-0.76459-1.2594-1.0131-1.011-0.24848 0.24866-0.1706 0.90673 0.17302 1.4628 0.93468 1.5123 1.481 1.2185 0.84003-0.45177zm3.8587-0.0932c0.49923-1.301 0.36053-1.3596-0.84646-0.3579-1.6448 1.3651-1.816 1.9138-0.59706 1.9138 0.46556 0 1.1152-0.7002 1.4435-1.5559zm-21.698-12.701c0.33533-0.54253 1.4269-0.72706 2.4257-0.41005 0.9988 0.31704 1.816 0.15654 1.816-0.35645 0-0.51305-0.53205-1.1101-1.1823-1.3269-0.72868-0.24292-0.36499-0.83156 0.94788-1.5342 1.3022-0.69691 2.1302-2.0265 2.1302-3.4205 0-2.4952-1.4144-3.9381-2.3602-2.4077-0.32744 0.52978-1.0219 0.96332-1.5433 0.96332-0.52134 0-0.64354-0.49244-0.27156-1.0943 0.42241-0.6835 0.25966-0.83685-0.43346-0.40849-1.5175 0.9379-0.35736 2.562 1.5993 2.2389 2.8307-0.4674 1.6888 2.5486-1.3363 3.5294-1.8132 0.58787-2.7593 1.4395-2.4912 2.2424 0.23781 0.71195-0.15276 1.6652-0.86798 2.1182-0.85935 0.54437-0.9175 0.8287-0.17147 0.83829 0.6209 9e-3 1.4033-0.42937 1.7386-0.97196zm15.738 0.13364c-0.7152-0.45307-1.1058-1.4062-0.86797-2.1182 0.26819-0.80284-0.678-1.6545-2.4911-2.2424-1.9963-0.64726-3.024-1.6577-3.2403-3.1858-0.20431-1.4439 0.05343-2.0092 0.72638-1.5933 0.57368 0.35468 0.76818 1.0894 0.43222 1.633-0.65397 1.0581 1.2352 2.6338 3.1866 2.6577 0.65167 9e-3 1.1849-0.41207 1.1849-0.93337 0-0.52135-0.93462-0.94796-2.0769-0.94796-1.9739 0-1.9903-0.0633-0.33035-1.2771 1.3637-0.99712 1.4752-1.4448 0.50866-2.0422-0.81823-0.50572-1.0086-0.39409-0.5616 0.32924 0.37199 0.6019 0.24978 1.0944-0.27156 1.0944-0.52133 0-1.2158-0.43353-1.5433-0.96333-0.94579-1.5303-2.3602-0.0873-2.3602 2.4077 0 1.394 0.82807 2.7236 2.1302 3.4205 1.3129 0.70263 1.6766 1.2913 0.94789 1.5342-0.65029 0.21675-1.1823 0.81385-1.1823 1.3269 0 0.51303 0.81721 0.67341 1.816 0.35648 0.99881-0.31706 2.0904-0.13241 2.4257 0.41006 0.33533 0.54255 1.1177 0.97994 1.7386 0.97192 0.74603-0.0109 0.68788-0.29377-0.17147-0.83825zm-12.995-5.4098c2.3785-0.91273 1.7401-2.0514-0.87036-1.5524-1.3033 0.24901-2.3697 0.82979-2.3697 1.2904 0 0.97804 1.135 1.0698 3.2401 0.26189zm33.105 20.16c-0.34631-0.60522-0.28061-0.78422 0.14599-0.39773 0.42661 0.38645 1.3101 0.25904 1.9634-0.28304 0.82286-0.68288 1.3764-0.68033 1.802 9e-3 0.33784 0.54661 0.48246 1.0265 0.32135 1.0664-2.5238 0.62486-3.713 0.51419-4.2327-0.39394zm-6.9609-3.5589c0-0.43979-0.53319-0.66966-1.1849-0.51081-0.65167 0.15867-0.8756 0.11364-0.49764-0.10105 0.37797-0.21423 1.0178-0.42196 1.4218-0.46147 0.40404-0.0396 1.1662-0.662 1.6937-1.3834 0.81007-1.1078 1.2518-1.0835 2.8436 0.15654 1.0365 0.80755 1.4581 1.4115 0.93673 1.3422-2.0527-0.27264-2.7805 0.16771-1.5576 0.94243 0.90761 0.57513 0.55894 0.81489-1.1849 0.81489-1.359 0-2.4709-0.35982-2.4709-0.79966zm-39.811-2.3107c0-0.79837 0.61289-1.6868 1.362-1.9742 0.74909-0.28733 1.13-1.1272 0.84647-1.866-0.61758-1.6094 1.1818-1.8117 2.1519-0.24183 0.38197 0.61804-0.1998 1.8144-1.3256 2.726-1.1035 0.89352-1.7401 1.8908-1.4147 2.2162 0.3254 0.32529 0.09397 0.59164-0.51425 0.59164-0.60823 0-1.1059-0.65322-1.1059-1.4516zm-2.2396-0.23357c-0.25067-0.40558 0.3545-1.7918 1.3448-3.0806 1.3611-1.7712 1.8057-1.963 1.8216-0.78581 0.01158 0.85655-0.64577 1.8133-1.4608 2.126-0.81505 0.31275-1.2164 0.99826-0.89195 1.5233 0.32447 0.52497 0.37669 0.95455 0.11599 0.95455-0.26066 0-0.67903-0.33171-0.92969-0.73742zm39.555-9e-3c0.3522-0.56986-0.0636-1.43-0.92398-1.9115-0.86039-0.4815-1.3831-1.419-1.1617-2.0835 0.25426-0.76275 0.9943-0.30524 2.0078 1.2417 1.1501 1.7553 1.2979 2.6396 0.52131 3.1196-0.64599 0.39923-0.82513 0.25113-0.44347-0.36627zm-31.805-0.85232c0.68425-0.2737 1.5018-0.24003 1.8168 0.0748 0.31498 0.31489-0.24486 0.53899-1.2441 0.49782-1.1042-0.0456-1.3288-0.27014-0.57268-0.57266zm23.585 0.0376c0.62239-0.25327 0.89457-1.078 0.60487-1.833-0.28972-0.75498-0.07689-1.9147 0.47296-2.5772 0.63244-0.76207 0.67674-1.7153 0.12056-2.5947-1.2727-2.0122-1.1054-4.8163 0.27668-4.6369 2.6854 0.34859 4.5778-0.12974 4.0285-1.0186-0.32221-0.52133 0.09422-0.94788 0.9253-0.94788 1.2362 0 1.3194 0.35827 0.45718 1.9693-0.66043 1.2341-1.6077 1.7568-2.5371 1.4002-1.2328-0.47308-1.2809-0.32531-0.28517 0.87436 0.75941 0.91503 0.82574 1.4435 0.18117 1.4435-0.55926 0-1.4516-0.74644-1.983-1.6588-0.84725-1.4546-0.96971-1.4689-0.99498-0.11614-0.03615 1.9311 2.3989 4.0396 3.7212 3.2223 0.54417-0.33639 0.9894-1.2261 0.9894-1.9774 0-1.7954 1.5429-1.7568 2.2386 0.0557 0.61828 1.6113 3.4488 1.9543 3.4488 0.41799 0-0.55207-0.39708-0.75839-0.88239-0.45847-0.48532 0.29985-1.1321 0.14113-1.4373-0.35253-0.3052-0.49377-0.15989-1.142 0.3229-1.4404 1.2572-0.77698 3.6536 0.3174 4.2823 1.9559 0.29497 0.76879 0.16301 1.167-0.29328 0.88504-0.45629-0.28195-1.3657 0.13332-2.0208 0.92257-1.0616 1.2792-1.3724 1.2713-2.8569-0.0724-1.1718-1.0605-1.8615-1.1908-2.3259-0.4394-0.36306 0.58746-1.7297 1.4748-3.0369 1.9718-1.9336 0.73517-2.2666 1.3429-1.7856 3.2592 0.46623 1.8576 0.2368 2.3396-1.0857 2.2806-0.92228-0.0413-1.1676-0.28192-0.54526-0.53519zm-39.476-1.2372c-0.75711-0.47899-1.7594-0.63424-2.2273-0.34501-0.46791 0.28911-0.36664-0.37879 0.22505-1.4844 1.0657-1.9912 3.8528-2.8158 3.8528-1.1398 0 0.47869 0.25891 1.545 0.57536 2.3697 0.64184 1.6726-0.34428 1.9163-2.4259 0.59949zm54.357-0.59951c0.31644-0.82467 0.57538-1.891 0.57538-2.3697 0-1.619 2.77-0.88326 3.7801 1.0041 0.80016 1.4951 0.7304 1.7698-0.34472 1.3572-0.74133-0.28447-1.6295-0.0617-1.9736 0.49528-0.98197 1.5889-2.6781 1.1835-2.0371-0.48683zm-50.421-0.58614c-0.6256-0.62561-1.1309-1.5854-1.123-2.1328 0.0075-0.54738 0.428-0.35538 0.93338 0.42659 0.61257 0.94784 0.92369 1.0269 0.93337 0.23681 0.0075-0.65169 0.46624-1.1849 1.0183-1.1849 0.5521 0 0.78414 0.35536 0.51564 0.78989-0.26851 0.43447 0.1141 0.78994 0.85024 0.78994 0.73614 0 1.1188-0.3554 0.85025-0.78994-0.26851-0.43445-0.03647-0.78989 0.51564-0.78989 0.5521 0 1.0038 0.3414 1.0038 0.75831 0 1.1071-2.1067 3.0333-3.3176 3.0333-0.57347 0-1.5545-0.51189-2.1801-1.1375zm11.914-0.5458c-0.33648-1.2866-1.2852-2.1083-2.4344-2.1083-1.0357 0-2.1509-0.69788-2.4782-1.5509-0.54948-1.4318-0.72858-1.43-2.3352 0.0251-1.5481 1.401-1.8716 1.4164-2.9313 0.13945-0.65516-0.78944-1.612-1.1753-2.1263-0.85743-0.51427 0.31778-0.43716-0.35252 0.17135-1.4894 1.0685-1.9965 4.2184-2.4567 3.6353-0.53116-0.15787 0.52135-0.60695 0.84127-0.99796 0.71092-0.391-0.13034-0.71092 0.18947-0.71092 0.71093 0 1.8448 2.9166 0.91695 3.7245-1.1849 0.81506-2.1206 0.82553-2.1179 1.8418 0.47393 0.56211 1.4337 1.4069 2.6067 1.8773 2.6067 1.4024 0 3.1998-2.6868 2.6737-3.9966-0.30721-0.76484-0.51652-0.60069-0.56356 0.44206-0.04112 0.91235-0.76689 1.6588-1.6127 1.6588-1.2698 0-1.3291-0.2515-0.33988-1.4436 0.99575-1.1998 0.94761-1.3474-0.28517-0.87434-0.92945 0.3568-1.8767-0.16617-2.5371-1.4002-0.86219-1.6109-0.77901-1.9692 0.45719-1.9692 0.83112 0 1.2475 0.42659 0.9253 0.9479-0.54933 0.88883 1.3431 1.3674 4.0285 1.0186 1.3821-0.17947 1.5494 2.6246 0.27668 4.6369-0.55424 0.87635-0.51575 1.8279 0.10412 2.5748 0.54081 0.65161 0.80445 1.7213 0.58585 2.3771-0.21857 0.65575-0.64552 0.24362-0.94876-0.91603zm32.428 0.2386c-1.6274-1.961-0.42236-2.938 1.5999-1.297 1.0763 0.87336 1.3859 0.91909 0.91485 0.13505-0.39152-0.65165-0.26014-1.1848 0.29198-1.1848 0.55211 0 1.0104 0.53316 1.0184 1.1848 0.0096 0.78995 0.32079 0.71092 0.93336-0.23679 0.50538-0.782 0.9254-0.97394 0.93339-0.42659 0.0193 1.3289-1.9851 3.2702-3.3766 3.2702-0.61389 0-1.6557-0.65014-2.3152-1.4448zm-53.591-1.7954c-1.0112-0.7394-1.5192-1.6635-1.1291-2.0538 0.39019-0.39016 0.70943-0.21172 0.70943 0.39648 0 0.60825 0.63982 1.1059 1.4218 1.1059 0.78201 0 1.4218 0.42655 1.4218 0.94788 0 1.2409-0.2381 1.2019-2.424-0.39646zm64.984 0.4298c0-0.53971 0.60429-0.98122 1.3428-0.98122 0.73855 0 1.558-0.5332 1.8209-1.1849 0.36036-0.89309 0.49653-0.90127 0.55294-0.0323 0.041 0.63337-0.77826 1.6081-1.8209 2.1662-1.2853 0.68787-1.8958 0.69862-1.8958 0.0325zm-61.618-4.3039c-0.99826-1.2028-0.72764-1.5884 1.712-2.4388 2.0387-0.71072 2.7996-1.5196 2.5668-2.7284-0.24892-1.2924 0.12023-1.6003 1.4896-1.2421 1.0012 0.26187 1.8205 1.0511 1.8205 1.754 0 1.3571-3.2107 3.5053-4.0238 2.6922-0.26482-0.26478-0.74256 0.19883-1.0617 1.0304-0.33608 0.87579-0.18593 1.2682 0.35682 0.93284 0.51536-0.31851 0.93704-0.12754 0.93704 0.42469 0 1.4885-2.4354 1.216-3.7972-0.42484zm56.879 0.42484c0-0.55212 0.49245-0.6995 1.0943-0.32744 0.65316 0.40369 0.838 0.26152 0.4585-0.35253-0.7794-1.2611 0.91522-2.4517 2.2847-1.6053 0.67944 0.41991 0.64273 1.0374-0.11603 1.9517-1.3005 1.5671-3.7215 1.7841-3.7215 0.33354zm-7.5831-2.5981c0-0.41709 0.44845-1.2068 0.99656-1.7549 0.69682-0.6968 0.29556-1.4559-1.3341-2.5236-2.0134-1.3193-2.4031-1.3384-2.8626-0.14083-0.59344 1.5464-4.383 1.9254-4.383 0.4383 0-0.52134 0.0047-1.2678 0.01078-1.6588 0.0059-0.39097 0.53902-0.72215 1.1849-0.73595 0.64584-0.014 1.7889-0.40919 2.5402-0.87871 0.88611-0.55383 1.4978-0.45801 1.7414 0.27296 0.6783 2.0349 3.9814 3.2497 5.4722 2.0125 1.9108-1.5858 3.8854-0.53822 4.4384 2.3547 0.5245 2.7437-0.85844 4.338-1.7493 2.0165-0.31162-0.81205-0.94844-1.2404-1.4151-0.95201-0.4667 0.28838-0.84856-0.10923-0.84856-0.88383 0-0.77456 0.74646-1.6033 1.6588-1.8418 1.5437-0.40342 1.5454-0.44114 0.0244-0.54343-0.9254-0.0622-2.2724 1.1236-3.105 2.7337-1.4385 2.7817-2.3697 3.6012-2.3697 2.0854zm-3.7915-4.8993c0-0.50494-0.63983-0.67262-1.4218-0.37252-0.782 0.30022-1.4218 0.71323-1.4218 0.91813 0 0.20495 0.63982 0.37253 1.4218 0.37253s1.4218-0.41318 1.4218-0.91814zm-36.02 3.7618c0-0.52135-0.8531-1.801-1.8958-2.8437-1.0427-1.0426-1.4944-1.8958-1.0038-1.8958 0.49057 0 1.1556 0.42657 1.4778 0.9479 0.88969 1.4395 2.1707 1.1468 4.3001-0.98248 1.1245-1.1245 2.4106-1.6296 3.0806-1.2099 0.63266 0.39621 1.7901 0.73169 2.5721 0.74549 0.78201 0.0141 1.4218 0.6649 1.4218 1.4469 0 1.9364-4.1209 2.4277-4.8314 0.57604-0.49799-1.2977-0.80259-1.292-2.856 0.0535-1.7989 1.1787-2.0637 1.789-1.218 2.808 0.79075 0.95284 0.7952 1.302 0.01656 1.302-0.58519 0-1.064-0.42656-1.064-0.94786zm8.531-3.2162c0-0.2049-0.63982-0.61804-1.4218-0.91813-0.782-0.30019-1.4218-0.13253-1.4218 0.37252 0 0.50496 0.63982 0.91814 1.4218 0.91814 0.78201 0 1.4218-0.16771 1.4218-0.37253zm-16.825-5.9661c-0.65167-0.25007-1.1849-0.89775-1.1849-1.4395 0-0.5735 0.62414-0.46699 1.4941 0.2551 0.88353 0.73327 1.7551 0.8775 2.1327 0.35286 0.35127-0.48778 1.6124-0.92226 2.8026-0.96552 1.1902-0.0432 1.83 0.22177 1.4218 0.58853-1.0831 0.97364-5.2904 1.7363-6.6664 1.2084zm54.266-0.025c-2.866-0.68936-3.6703-1.8616-1.2161-1.7724 1.1902 0.0432 2.4514 0.4777 2.8026 0.96558 0.37768 0.52447 1.2492 0.3802 2.1328-0.3529 0.82906-0.68803 1.4941-0.81152 1.4941-0.2773 0 0.7808-2.5684 2.4099-3.1581 2.0033-0.0878-0.0605-1.0126-0.31525-2.0552-0.56598zm-72.513 21.814c0-1.9062-0.274-2.2853-1.0737-1.4855-0.59056 0.59052-0.81724 1.7422-0.5037 2.5592 0.86772 2.2613 1.5774 1.7782 1.5774-1.0737zm91.471-8.8154c-0.32221-0.52133-0.98718-0.94786-1.4777-0.94786-0.49058 0-0.89194 0.42653-0.89194 0.94786 0 0.52135 0.66498 0.94791 1.4778 0.94791 0.81275 0 1.2141-0.42656 0.89191-0.94791zm-82.94-5.6873c0-0.52134-0.18808-0.94787-0.418-0.94787-0.22989 0-0.68163 0.42653-1.0038 0.94787-0.32222 0.52135-0.13409 0.94792 0.418 0.94792 0.5521 0 1.0038-0.42657 1.0038-0.94792zm78.904-1.4358c-0.25065-1.311-0.90378-2.6607-1.4515-2.9992-0.62683-0.38743-0.7605-2e-3 -0.36076 1.0394 0.34925 0.91013 0.63502 2.2598 0.63502 2.9991 0 0.73935 0.36741 1.3443 0.81644 1.3443 0.44906 0 0.61138-1.0727 0.36077-2.3837zm-61.131-12.544c11.6-0.15084 30.581-0.15084 42.181 0 11.6 0.15084 2.109 0.27405-21.09 0.27405-23.2 0-32.69-0.12316-21.09-0.27405zm-22.512-3.0816c0-0.61817 15.166-0.94786 43.603-0.94786 28.437 0 43.603 0.32958 43.603 0.94786 0 0.6182-15.166 0.94792-43.603 0.94792-28.437 0-43.603-0.32957-43.603-0.94792zm0.6638-3.1646c-0.2678-0.6979-0.19951-2.6741 0.15176-4.3917 0.59908-2.9292 0.7258-3.0156 2.0443-1.3928 0.7731 0.9515 0.92094 1.4396 0.32856 1.0847-0.61697-0.36955-1.2799 0.13035-1.5519 1.1705-0.41194 1.5753 0.01328 1.7964 3.2098 1.6702 2.0266-0.0804 3.6846-0.47538 3.6846-0.87853 0-0.40311-0.42654-0.73291-0.94788-0.73291-1.4565 0-1.1264-1.8529 0.64533-3.6223 1.4919-1.4899 1.5547-1.4435 0.98756 0.72931-0.33311 1.2762-0.18963 2.8217 0.31892 3.4344 0.50852 0.61271 0.65831 1.8079 0.33286 2.656-0.75241 1.9607-8.4685 2.1896-9.2039 0.27298zm77.487 0.40195c0.29472-0.47681-4e-5 -1.0633-0.65496-1.3034-0.92596-0.33926-0.89634-0.72624 0.13317-1.7398 0.72816-0.71683 1.0398-0.79753 0.69257-0.17906-0.44939 0.80005 0.57288 1.0847 3.5471 0.98768 2.978-0.097 4.044-0.48653 3.7106-1.3555-0.25733-0.67057-0.84973-0.98327-1.3164-0.69483-0.46673 0.28839-0.84859-0.14036-0.84859-0.95334 0-0.81276 0.5332-1.5339 1.1849-1.6025 0.65168-0.0683-0.30807-0.45644-2.1327-0.86187l-3.3176-0.73706 3.2842 0.15083c2.9339 0.13474 3.3541 0.49576 3.9401 3.3845 0.98054 4.8337 0.24333 5.7714-4.5379 5.7714-2.321 0-3.9789-0.39015-3.6842-0.86695zm-51.709-2.5568c-1.5664-1.6673-3.1443-2.2641-5.9899-2.2653l-3.8633-2e-3 -0.30494-56.634c-0.1677-31.149-0.02293-60.153 0.32207-64.454 0.62605-7.8082 0.63106-7.8201 3.3139-7.8201 1.4778 0 6.0249 1.3492 10.105 2.9981 11.06 4.4701 15.115 4.536 25.776 0.41856 4.8658-1.8792 10.039-3.4167 11.497-3.4167 2.6253 0 2.6561 0.0706 3.3238 7.6131 0.37065 4.1872 0.3987 32.659 0.0622 63.271-0.33639 30.612-0.59525 56.192-0.57527 56.843 0.0234 0.75865-1.3431 1.1849-3.7983 1.1849-2.7815 0-4.4581 0.62341-6.1046 2.27-2.2027 2.2026-2.3172 2.2177-3.8631 0.5096-0.8762-0.9682-3.1411-2.2505-5.033-2.8496-1.892-0.59906-4.3518-1.6599-5.4662-2.3575-1.7453-1.0924-2.5289-1.012-5.6508 0.57962-1.9935 1.0163-4.3251 1.8478-5.1814 1.8478-0.85631 0-2.6561 1.0186-3.9995 2.2637l-2.4425 2.2636-2.1266-2.2636zm5.4358-2.2016c2.0881-1.0088 4.9233-2.1171 6.3004-2.4627 1.3772-0.3457 3.0249-1.2562 3.6617-2.0235 1.241-1.4953-2.0449-0.32601-9.9585 3.5439-3.6131 1.7668-3.699 1.7656-6.0521-0.0854-1.3128-1.0326-3.6091-1.8776-5.1028-1.8776-3.9834 0-3.3196 1.5029 0.71426 1.6173 1.8865 0.0535 4.1107 0.77785 4.9426 1.6097 1.8116 1.8116 0.97771 1.8605 5.4945-0.32171zm28.323 0.31919c1.2717-0.83325 3.816-1.5576 5.654-1.6097 4.2672-0.12114 4.4079-1.6148 0.15208-1.6148-1.8103 0-4.2898 0.86534-5.7335 2.0009-2.2538 1.7729-2.7275 1.8433-4.1564 0.61781-1.7898-1.535-10.821-4.6634-10.102-3.4991 0.24999 0.40445 2.5772 1.4405 5.1716 2.3022 2.5944 0.86174 4.9606 1.9607 5.2582 2.4422 0.72846 1.1787 1.0696 1.1206 3.7559-0.63955zm-25.482-3.6752c2.6728-0.83145 5.5858-2.3141 6.4732-3.2947 1.5745-1.7398 1.6953-1.7275 4.9885 0.5073 1.8562 1.2596 4.0618 2.2929 4.9014 2.2961 0.83959 2e-3 2.7345 0.63591 4.211 1.406 2.3689 1.2355 3.0041 1.2348 5.4033-9e-3 1.4953-0.77327 4.0227-1.406 5.6164-1.406h2.8976l-0.24383-61.837c-0.27851-70.628 0.7235-64.377-9.5489-59.574-3.3781 1.5794-7.8917 3.1514-10.03 3.4934-3.7408 0.5982-3.888 0.75478-3.888 4.1342 0 3.9633-0.5415 4.8727-2.4624 4.1356-0.82533-0.31671-1.3292-1.9088-1.3292-4.2002 0-3.1907-0.28868-3.6921-2.1327-3.7044-2.3063-0.0157-6.151-1.3297-13.349-4.563-2.5196-1.132-4.9722-2.058-5.4503-2.058-0.5183 0-0.8693 25.069-0.8693 62.087 0 58.493 0.096 62.087 1.6588 62.1 0.91234 9e-3 2.7252 0.60322 4.0285 1.3234 1.3033 0.72018 2.7963 1.1659 3.3176 0.99049 0.52133-0.17561 3.1347-0.99925 5.8075-1.8307zm0.33895-14.577c-8.2504-4.3887-11.757-15.657-7.566-24.315 2.1914-4.5268 6.8748-8.367 11.609-9.5193 2.5513-0.6209 2.6067-0.78317 2.6067-7.6408 0-5.596-0.28621-7.0064-1.4218-7.0064-1.214 0-1.4218-2.633-1.4218-18.01 0-15.377 0.20786-18.01 1.4218-18.01 0.78201 0 1.4218-0.58761 1.4218-1.3058 0-0.71814-0.63982-1.8368-1.4218-2.4858-0.782-0.64903-1.4218-2.2464-1.4218-3.5497 0-1.999 0.22248-2.1851 1.4218-1.1897 1.7182 1.426 1.9003-0.0323 0.23699-1.8974-0.9794-1.0983-0.9383-1.1523 0.23698-0.31135 1.3385 0.9578 2.2791 0.98692 5.6743 0.1756 1.8917-0.45196 2.2316 5.3246 0.40264 6.8425-1.7629 1.4631-1.7117 3.7216 0.08428 3.7216 1.214 0 1.4218 2.633 1.4218 18.01s-0.20786 18.01-1.4218 18.01c-1.1361 0-1.4218 1.4135-1.4218 7.0338v7.0338l2.9141 0.64003c3.7728 0.82869 9.0287 5.4769 11.36 10.047 3.21 6.2921 2.0611 14.622-2.7768 20.134-4.5759 5.2134-15.522 7.0059-21.939 3.5926zm12.6-0.19597c7.8677-2.1848 13.933-11.162 12.583-18.623-1.9838-10.96-13.034-17.215-23.031-13.038-4.7004 1.964-6.8143 3.9849-8.8852 8.4948-4.2812 9.3231-0.04966 18.956 10.066 22.914 3.6513 1.4288 4.9075 1.4629 9.2678 0.25222zm-11.539-8.9809c-4.2264-4.8137-4.1269-9.8722 0.28098-14.28 4.9644-4.9644 12.13-4.1764 15.731 1.7299 4.6865 7.6866 0.23868 15.837-8.6658 15.88-3.8673 0.0173-4.7629-0.38737-7.3461-3.3295zm14.099-0.93787c3.6132-3.6111 3.2936-9.2791-0.72587-12.87-4.6887-4.1894-11.265-3.1898-14.016 2.1302-5.0457 9.7573 6.9676 18.51 14.742 10.74zm-5.6658-31.313c0-4.5353-0.3479-6.95-0.94788-6.5792-1.7105 1.0572-1.1272 13.744 0.63192 13.744 0.17379 0 0.31595-3.2243 0.31595-7.1651zm1.4583-25.063 0.03331-17.062h-5.2833v34.124h5.2164l0.03331-17.062zm-0.61519-21.717c0.72439-0.4587 1.4259-2.2175 1.5589-3.9083 0.13302-1.6909-0.03331-2.681-0.36919-2.2004-0.33608 0.48065-1.2509 0.85969-2.0329 0.84223-1.7829-0.0399-4.9836 3.0718-4.2991 4.1794 0.2802 0.45339 1.4688 0.6141 2.6413 0.35715 1.7128-0.37537 1.8524-0.26759 0.70996 0.54841-1.7005 1.2147-0.09708 1.3772 1.791 0.18158zm-3.9396-2.0982c0.64299-0.64782 1.4078-0.93905 1.6997-0.64721 0.29184 0.29185-0.23422 0.82187-1.169 1.1778-1.3509 0.51441-1.4598 0.40555-0.53063-0.53059zm3.5314 0.0548c-0.34363-0.556-0.4215-1.2142-0.17302-1.4627 0.24845-0.24848 0.70434 0.20647 1.0131 1.011 0.64094 1.6703 0.0947 1.9641-0.84002 0.45173zm-18.228 33.491 0.25701-18.706h8.531l0.25701 18.706 0.25701 18.706h-9.559l0.25701-18.706zm6.9208 0.22183-0.02867-17.536h-5.2134v35.072h5.2706l-0.02867-17.536zm18.184 15.053c-0.3721-0.37216-0.67653-8.8734-0.67653-18.892v-18.215l2.3697-0.45301c1.3034-0.24916 3.4449-0.24744 4.7591 2e-3l2.3894 0.45675-0.25661 18.606-0.25663 18.606-3.8259 0.28161c-2.1043 0.15474-4.1304-0.023-4.5025-0.39495zm6.4883-18.844 0.0556-17.536h-5.3246v35.072h2.6067l2.6067-3e-5zm-30.746-20.643c-2.5702-2.5702-0.11518-8.2673 3.5626-8.2673 2.3668 0 5.2616 2.3634 4.4678 3.6477-0.37109 0.60046-1.396 1.0422-2.2776 0.98173-1.4451-0.0992-1.4395-0.1527 0.05592-0.54343 0.91234-0.23842 1.6588-0.78883 1.6588-1.2231 0-0.97559-3.628-0.10302-4.3362 1.0431-0.71764 1.1612-2.299 1.044-2.299-0.17041 0-0.55209 0.49246-0.69946 1.0943-0.32747 0.67802 0.41905 0.83704 0.26003 0.418-0.41798-0.43163-0.69839 0.11557-1.1341 1.5123-1.2043 1.6774-0.0844 1.7905-0.21327 0.48435-0.55221-1.9216-0.49864-4.4569 1.2292-4.4569 3.0374 0 0.65738 0.8531 1.4183 1.8958 1.691 1.0427 0.27267 1.8958 0.91661 1.8958 1.431 0 1.4611-2.4957 2.0547-3.676 0.87441zm2.1566-0.52627c0.26851-0.43441-0.11411-0.78989-0.85024-0.78989-0.73614 0-1.1187 0.35548-0.85024 0.78989 0.26851 0.43447 0.65111 0.78992 0.85024 0.78992 0.19912 0 0.58174-0.35545 0.85024-0.78992zm3.3427 1.6169c-0.03991-0.19419-0.20267-1.0125-0.3617-1.8186-0.17243-0.87378 0.43096-1.5198 1.4944-1.5999 0.98094-0.0738 1.7835 0.21344 1.7835 0.63855 0 0.78129-2.782 3.4332-2.9162 2.7799zm23.296-2.774c1.713-0.78245 1.6673-0.84737-0.47394-0.67356-3.2347 0.26261-4.7394-0.85778-4.7394-3.5289 0-4.0492 4.1427-6.4747 7.4646-4.3705 3.2824 2.0792 1.1771 9.6735-2.6351 9.5055-1.1397-0.0504-1.0452-0.27981 0.38389-0.93253zm0.23698-2.4449c0.65168-0.0989 1.1849 0.23422 1.1849 0.74021 0 0.50598 0.45207 0.64052 1.0046 0.29908 0.63783-0.39423 0.37829-1.1324-0.71092-2.022-0.94354-0.77063-1.227-1.1587-0.62999-0.86236 1.4954 0.74225 2.3306-1.8162 1.0205-3.1264-2.2403-2.2402-6.7728-0.36819-5.7242 2.3643 0.27457 0.71548 0.98769 1.0584 1.5847 0.76208 0.59704-0.29634 0.34572 0.0682-0.55853 0.81009-1.7265 1.4165-1.2238 3.0088 0.59142 1.8732 0.57896-0.36216 1.5858-0.7394 2.2375-0.83824zm-2.6067-3.9913c0-0.42836 0.8444-0.71663 1.8765-0.64062 2.8092 0.20697 3.1016 1.0075 0.44821 1.2271-1.2786 0.10563-2.3247-0.15809-2.3247-0.58647zm-35.309 10.516c-0.14483-17.074-0.26332-3.1043-0.26332 31.043 0 34.148 0.11851 48.117 0.26332 31.043 0.14483-17.074 0.14483-45.013 0-62.087zm25.83-21.09c0-1.564-0.42654-2.8437-0.94788-2.8437s-0.94789 1.2796-0.94789 2.8437c0 1.564 0.42654 2.8436 0.94789 2.8436s0.94788-1.2796 0.94788-2.8436zm33.611 116.53c-0.97259-1.5737-0.0996-1.7919 1.2612-0.31527 0.67224 0.72939 0.80405 1.3262 0.29292 1.3262-0.51111 0-1.2105-0.45493-1.5541-1.011zm-74.115-2.4897c0.92226-0.24039 2.2019-0.22462 2.8437 0.0357 0.64175 0.25973-0.11282 0.45627-1.6768 0.43695-1.564-0.0173-2.0891-0.23177-1.1668-0.47205zm-2.4891-2.1868c-3.3906-8.6238-3.0471-22.778 0.55182-22.735 0.83363 0.0109 0.76742 0.2934-0.21352 0.91336-1.6955 1.0718-1.6668 12.505 0.04434 17.69 1.0731 3.2514 0.72954 6.9599-0.38266 4.1311zm6.4235-8.6991c-0.05045-6.6474 0.14391-8.569 0.60622-5.9932 0.62983 3.5092 0.67074 3.4037 0.54911-1.4166-0.11916-4.7224-0.35238-5.2614-2.5011-5.7797-5.8165-1.4029-6.2512-1.7882-6.2053-5.4988l0.04406-3.57 4.6183-0.21354c4.4443-0.20562 4.5967-0.12739 4.0458 2.0676-0.31487 1.2546-0.29836 2.5553 0.03679 2.8904 1.8149 1.8149 1.9125 19.868 0.13102 24.234-1.1573 2.8363-1.2561 2.3354-1.3248-6.72zm0.54937-17.131c3.42e-4 -0.391-0.42593-0.71093-0.94727-0.71093-1.3643 0-1.1699-2.596 0.23699-3.1637 0.65167-0.26296-0.36629-0.51179-2.2621-0.55294-3.1192-0.0675-3.4863 0.19312-3.8602 2.7407-0.40078 2.7308-0.30423 2.8092 3.2094 2.6067 1.9924-0.11484 3.6229-0.52872 3.6232-0.91972zm69.688 25.858c-1.3804-2.2334-2.6986-17.039-1.7074-19.175 0.83397-1.7969 1.0113-1.0692 1.008 4.1368-2e-3 3.4745 0.26589 6.7539 0.5957 7.2874 0.32977 0.53358 0.84195 2.7028 1.1381 4.8204 0.52187 3.7311 0.13594 4.8242-1.0345 2.9303zm6.283-4.0334c0.0179-2.7498-5e-3 -6.8939-0.0529-9.2092-0.0469-2.3154 0.40307-4.5117 1.0002-4.8807 2.4142-1.4921-0.0475-3.7059-4.1372-3.7205-2.9695-0.0109-3.6768-0.26118-2.6364-0.93335 1.2151-0.78527 1.1807-0.921-0.23697-0.93339-1.8803-0.0173-2.2092-1.4582-0.56448-2.4748 0.63328-0.39135 0.8387-0.2626 0.48756 0.30559-0.38394 0.62122 0.78053 0.93609 3.1707 0.85735 2.0776-0.0684 3.7777-0.51545 3.778-0.99333 5.2e-4 -1.717 1.4263 0.59759 1.6051 2.6064 0.10051 1.1297 0.47328 4.0564 0.82823 6.5036 0.66028 4.552-1.0499 16.497-2.4892 17.387-0.43183 0.2669-0.77047-1.7645-0.75253-4.5142zm-1.0869-23.878c0-0.82546 0.53318-1.557 1.1849-1.6256 0.65166-0.0687-0.30807-0.45081-2.1328-0.84926l-3.3176-0.72448 3.9315 0.0808c3.5255 0.0724 3.8588 0.27767 3.227 1.9853-0.87651 2.3695-2.8931 3.1593-2.8931 1.1331zm-80.32-5.0246c1.4408-0.21781 3.5736-0.21207 4.7394 0.014 1.1658 0.22498-0.01297 0.40327-2.6197 0.39617-2.6067-9e-3 -3.5606-0.1912-2.1197-0.40911zm76.779 0c1.4408-0.21781 3.5736-0.21207 4.7394 0.014 1.1658 0.22498-0.0125 0.40327-2.6197 0.39617-2.6067-9e-3 -3.5606-0.1912-2.1197-0.40911zm-75.826-1.8725c0.92226-0.24039 2.2019-0.22462 2.8437 0.0358 0.64175 0.25972-0.11282 0.45628-1.6768 0.43695-1.564-0.0173-2.0891-0.23178-1.1668-0.47207zm4.3745-4.3195c-0.06047-2.737-0.31516-4.1233-0.56596-3.0806-1.6826 6.9952-2.1677 0.47323-2.1677-29.139 0-22.986 0.3148-33.03 1.0494-33.484 0.72017-0.44507 0.83193 0.0578 0.35622 1.6028-0.38129 1.2383-0.36061 1.9363 0.04598 1.551 0.40656-0.38522 1.0503-2.3047 1.4306-4.2655 0.38025-1.9608 0.74042 13.39 0.80038 34.113 0.06 20.723-0.10425 37.678-0.36493 37.678-0.26067 0-0.52342-2.2394-0.5839-4.9764zm69.738 3.7885c-0.2507-0.6533-0.33865-17.395-0.19549-37.205l0.26034-36.017 0.22524 36.731 0.22523 36.731h6.6132l0.25931-37.205 0.25932-37.204 0.22565 37.678 0.22564 37.678h-3.8213c-2.1878 0-4.0162-0.50781-4.2771-1.1879zm-76.781-36.254c-2.8e-4 -19.811 0.12543-28.05 0.27937-18.309 0.15395 9.7408 0.15416 25.95 5.13e-4 36.02-0.15366 10.07-0.27958 2.1003-0.27987-17.71zm82.466 0c-2.7e-4 -19.811 0.12552-28.05 0.27939-18.309 0.15395 9.7408 0.1541 25.95 5.1e-4 36.02-0.15366 10.07-0.2796 2.1003-0.2799-17.71zm-3.7937 0c-2.9e-4 -18.768 0.12632-26.58 0.28133-17.36 0.15507 9.2199 0.15532 24.576 5.3e-4 34.124-0.15474 9.5483-0.28159 2.0048-0.28191-16.763zm1.8969-0.94788c2.9e-4 -19.289 0.12668-27.046 0.28086-17.237 0.15422 9.8092 0.15396 25.591-5.1e-4 35.072-0.1545 9.4803-0.28061 1.4546-0.28033-17.835zm-78.684 3.7916c-4.27e-4 -15.64 0.12944-22.171 0.28858-14.514 0.15915 7.6575 0.1595 20.454 7.57e-4 28.437-0.1587 7.9826-0.28893 1.7174-0.28936-13.923zm-0.2703-33.65c0-1.3033 0.21517-1.8365 0.47811-1.1848 0.26296 0.65165 0.26296 1.718 0 2.3697-0.26296 0.65169-0.47811 0.11842-0.47811-1.1848zm-1.9593-9.2419c0.11286-0.91233-0.12626-2.4236-0.53146-3.3585-0.4052-0.9348-0.47075-1.9656-0.14566-2.2907 0.32508-0.32509 0.59105 0.0173 0.59105 0.75862 0 1.0195 1.0518 1.266 4.3001 1.0077 3.2884-0.26151 4.0709-0.61818 3.3258-1.5159-0.53583-0.64561-0.69357-1.4545-0.35052-1.7976 0.34303-0.34306-0.11236-0.62373-1.012-0.62373-0.89967 0-1.3799-0.41404-1.0671-0.92009 0.70533-1.1412-3.7362-2.352-5.2334-1.4266-0.70894 0.43816-0.97305 0.0534-0.75181-1.0956 0.27808-1.4439 1.2044-1.7711 5.0142-1.7711h4.6731l0.05338 5.2134 0.05339 5.2134-7.5831 1.0741 3.2446 0.41084c5.1444 0.6514 4.8522 2.7806-0.38153 2.7806-3.6406 0-4.3685-0.28752-4.1988-1.6588zm5.8382-12.281c-1.173-0.22596-3.0925-0.22596-4.2655 0-1.173 0.22593-0.21327 0.41079 2.1327 0.41079 2.346 0 3.3058-0.18486 2.1327-0.41079zm70.854 12.518c0-0.78202 0.50809-1.4218 1.129-1.4218 0.62099 0 0.34901-0.57037-0.60437-1.2675-0.95338-0.69712-1.4951-1.8701-1.2039-2.6067 0.41645-1.0531 0.54554-1.0152 0.60439 0.17753 0.0594 1.2073 0.89477 1.4346 4.0946 1.1147 4.8208-0.48207 5.1155-0.70085 3.4392-2.5532-0.71375-0.78872-1.8477-2.0887-2.5199-2.8888-0.67223-0.8001-2.3073-1.4547-3.6336-1.4547-2.5292 0-2.752-1.9563-0.29836-2.6196 1.1083-0.29966 1.0972-0.18082-0.0593 0.63715-1.0836 0.76635-0.40716 0.98231 2.8436 0.9079 3.945-0.0904 4.0518-0.15506 1.4218-0.86025l-2.8436-0.7626 3.306 0.16385 3.306 0.16387 0.0989 5.0131c0.0721 3.6597-0.30854 5.2513-1.4102 5.8954-0.93025 0.54394-1.0546 0.89345-0.3242 0.91121 0.65165 0.0156 1.1848 0.66864 1.1848 1.4506 0 1.0532-1.1059 1.4218-4.2655 1.4218-3.1596 0-4.2655-0.3686-4.2655-1.4218zm0.0748-8.61c0.0456-1.1042 0.27008-1.3288 0.57269-0.57266 0.2738 0.68423 0.24012 1.5018-0.0748 1.8168-0.31498 0.31499-0.53901-0.24486-0.49786-1.2441zm-34.376-0.0945c0.68426-0.2738 1.5018-0.24014 1.8168 0.0748 0.31498 0.31499-0.24486 0.539-1.2441 0.49784-1.1042-0.0456-1.3288-0.27007-0.5727-0.57265zm-5.3335-1.3514c0.50861-0.31743-0.45363-0.85281-2.1383-1.1898-8.3911-1.6782-17.159-8.9475-21.106-17.498-3.0955-6.7066-2.853-18.824 0.50662-25.304 3.2061-6.1846 10.49-12.936 16.427-15.226 6.3665-2.4553 17.288-2.4511 23.668 0.01 6.2303 2.4026 13.92 9.7638 16.707 15.992 3.1727 7.0921 3.1361 18.226-0.0818 24.836-1.2689 2.6067-2.4909 5.1187-2.7155 5.5823-0.22893 0.47253 0.16632 0.49672 0.89949 0.055 1.1071-0.66691 1.1094-0.54324 0.0156 0.8055-0.71074 0.87632-1.6134 1.3948-2.006 1.1522-0.3926-0.24265-1.4767 0.40186-2.4092 1.4323-0.93249 1.0304-1.3638 1.8734-0.9585 1.8734 1.098 0-1.4329 2.7994-3.5602 3.9379-1.4104 0.75479-1.6797 0.7132-1.1309-0.17466 0.46945-0.75957 0.2617-0.9988-0.59653-0.68697-0.72424 0.26313-1.1996 0.99001-1.0563 1.6152 0.14323 0.62527-0.14638 0.88542-0.64364 0.5781-0.49724-0.30731-2.9017-0.0246-5.3433 0.62854-3.7298 0.99756-4.0814 1.2724-2.2 1.72 1.2315 0.29298-1.2351 0.5116-5.4813 0.48584-4.2463-0.0258-7.3043-0.30655-6.7957-0.62397zm18.308-4.4889c18.641-8.8329 22.886-32.498 8.424-46.961-5.7834-5.7834-12.702-8.5735-21.221-8.5576-8.7158 0.0157-14.059 2.187-20.72 8.418-6.288 5.8816-9.0194 12.227-8.9907 20.886 0.03859 11.606 6.1831 21.129 16.915 26.214 4.677 2.2162 6.9502 2.6949 12.796 2.6949s8.1194-0.47871 12.796-2.6949zm-20.426 0.51381c-8.2435-2.3309-13.948-7.1095-18.196-15.243-3.1508-6.0326-2.9601-17.469 0.39705-23.808 2.9926-5.6505 7.2927-9.8894 13.106-12.92 6.1373-3.1993 18.508-3.1993 24.645 0 5.8209 3.0344 10.119 7.2751 13.094 12.92 3.2961 6.2533 3.5346 16.714 0.5304 23.271-5.8409 12.749-20.286 19.537-33.577 15.779zm18.647-2.5125c9.8676-4.36 15.932-13.782 15.909-24.716-0.0166-7.9173-2.6778-13.616-9.0235-19.321-4.7415-4.263-10.984-7.1726-12.091-5.6358-0.77084 1.0699-10.837 1.0703-11.618 4e-4 -0.32594-0.44676-1.4772-0.53157-2.5583-0.18849-1.3594 0.43143-1.7797 1.1206-1.3627 2.2342 0.52159 1.3928 0.39153 1.4383-0.96284 0.3371-1.3346-1.0852-1.9744-0.98229-4.3322 0.69657-3.9815 2.8351-8.436 8.1545-10.236 12.224-2.4141 5.4571-2.1511 15.792 0.53575 21.055 2.2721 4.451 7.3866 10.427 8.9239 10.427 0.49041 0-1.0258-2.0499-3.3693-4.5552-3.7803-4.0414-7.3298-10.97-6.1991-12.101 0.22832-0.22828 0.97893 1.2932 1.668 3.3811 0.68908 2.088 1.6822 3.7963 2.207 3.7963 0.52478 0 0.70504 0.24913 0.40056 0.55357-0.30448 0.30448 1.1133 2.2712 3.1506 4.3706 2.0373 2.0993 3.481 4.178 3.2083 4.6194-0.61923 1.0019 4.0282 3.4551 8.7771 4.633 4.6542 1.1544 12.048 0.36606 16.972-1.8097zm-17.233 0.0446c0.29198-0.47243 1.3835-0.63593 2.4257-0.36339 2.6082 0.68203 2.3735 1.2223-0.53084 1.2223-1.3341 0-2.1868-0.38653-1.8948-0.8589zm8.112 0.49547c0-0.84147 3.8348-1.2813 4.3205-0.49552 0.29194 0.47241-0.56071 0.8589-1.8948 0.8589-1.3341 0-2.4257-0.16347-2.4257-0.36338zm6.6352-1.5324c0.78201-0.50538 1.8484-0.91883 2.3697-0.91883 0.52134 0 0.30806 0.41345-0.47395 0.91883-0.78201 0.50537-1.8484 0.91885-2.3697 0.91885-0.52134 0-0.30805-0.41348 0.47395-0.91885zm-7.3632-4.7394c0-1.8247 0.19508-2.5711 0.4335-1.6588 0.23842 0.91237 0.23842 2.4053 0 3.3176-0.23842 0.91231-0.4335 0.16576-0.4335-1.6588zm13.05 2.5305c0-0.96571 6.6691-7.552 7.1549-7.0661 0.21635 0.21635-1.305 2.0517-3.3808 4.0787-2.0758 2.027-3.7741 3.3713-3.7741 2.9875zm-22.419-1.5827c0.19676-0.78202 0.65167-2.4882 1.0109-3.7916 0.6273-2.2761 0.59499-2.297-0.81781-0.52972-0.809 1.012-1.4709 2.3982-1.4709 3.0806 0 1.4251-1.522 1.6644-2.3247 0.36554-0.48117-0.77853 2.9386-7.6558 3.8068-7.6558 0.19084 0 0.79571 0.83846 1.3442 1.8633 0.74051 1.3836 0.62351 2.6647-0.4545 4.9764-0.79844 1.7122-1.2907 2.4733-1.0939 1.6913zm-1.8641-2.419c0.32368-0.84354 0.16481-1.224-0.37253-0.89193-0.51537 0.31853-0.93703 0.98047-0.93703 1.4711 0 1.3634 0.67942 1.063 1.3096-0.57913zm2.2989-4.7153c-0.29184-0.29182-0.82186 0.23423-1.1778 1.1691-0.5144 1.3509-0.40552 1.4598 0.53062 0.53062 0.64781-0.64299 0.93904-1.4078 0.6472-1.6997zm18.01 4.5276c-0.78351-0.91232-1.7846-2.2986-2.2246-3.0806-0.69771-1.2399-0.58825-1.2499 0.85545-0.078 1.5901 1.2908 3.8991 4.8174 3.1541 4.8174-0.19822 0-1.0014-0.74647-1.7849-1.6588zm-25.974-4.8384c0.99314-1.1186 2.1913-2.0337 2.6626-2.0337 1.3344 0-0.08437 1.768-2.3884 2.9765-2.0655 1.0833-2.0674 1.0768-0.27424-0.94278zm32.792-0.13789c-1.2638-0.81673-1.2638-0.92223 0-0.94934 0.782-0.0173 0.03548-0.91825-1.6588-2.0033-4.3342-2.7757-3.8424-3.2284 0.68479-0.6302 2.071 1.1886 3.348 2.3041 2.8377 2.479-0.51021 0.1748-0.68654 0.70801-0.39185 1.1848 0.67747 1.0962 0.31913 1.0765-1.4719-0.0808zm6.3851-3.2475c0.86995-2.3472 1.7512-4.0983 1.9583-3.8912 0.56411 0.56411-1.7174 7.0326-2.6933 7.6356-0.46572 0.28782-0.13496-1.3972 0.73499-3.7444zm-42.477 3.0298c-0.79261-2.8004-0.3744-3.7842 2.1674-5.0986 2.5637-1.3258 3.0369-1.3328 4.306-0.0638 1.2691 1.2691 0.99569 1.6451-2.4876 3.4222-2.1523 1.098-3.9459 1.8811-3.9858 1.7402zm2.6002-3.0095c0-0.75949-0.57705-1.11-1.3433-0.81596-1.1055 0.42423-1.1195 0.65738-0.07895 1.317 0.69539 0.44081 1.2999 0.80799 1.3433 0.81599 0.04343 9e-3 0.07896-0.58466 0.07896-1.317zm4.1075-1.0382c0-0.14896-0.56873-0.48935-1.2638-0.75609-0.69512-0.26676-1.2639 0.0733-1.2639 0.75609 0 0.68259 0.56873 1.0229 1.2639 0.75611 0.69511-0.26678 1.2638-0.607 1.2638-0.75611zm25.126 2.3806c-0.33206-0.53731 0.04844-0.69624 0.89194-0.37252 1.6421 0.63014 1.9426 1.3096 0.57912 1.3096-0.49057 0-1.1525-0.42166-1.4711-0.93703zm-39.344-9.8057c0-1.9116 0.37059-3.4756 0.82355-3.4756 0.45295 0 0.66629 1.3507 0.47408 3.0015-0.4988 4.2839-1.2976 4.5758-1.2976 0.47406zm21.327 1.1966-5.6873-0.56196 4.875-0.15946c6.5965-0.2156 7.7258-3.1536 1.9972-5.1958-1.958-0.69801-2.1828-2.405-0.40648-3.0866 0.79006-0.30319 1.1002-1.5168 0.8403-3.2879-0.2266-1.544-0.16128-2.8073 0.14516-2.8073 1.1669 0 3.4117 5.6452 2.8973 7.286-0.50729 1.6183-0.47618 1.6214 0.53195 0.0525 0.58892-0.91647 0.75252-2.1961 0.36356-2.8437-0.48186-0.8022-0.20173-0.76744 0.87916 0.10923 1.386 1.124 1.418 1.5268 0.25346 3.1895-1.7252 2.463-0.88453 5.3789 0.86211 2.9902 0.64126-0.87698 1.6572-1.2909 2.2576-0.91981 1.6761 1.0359 1.3022 2.1824-0.89947 2.7582-1.0951 0.28641-1.7374 0.93128-1.4273 1.4331 0.85166 1.378-1.2012 1.6644-7.4823 1.0438zm30.29-1.8285c0.0208-1.564 0.35866-2.8437 0.7508-2.8437s0.71299 1.2796 0.71299 2.8437c0 1.564-0.33788 2.8436-0.7508 2.8436s-0.73377-1.2796-0.71299-2.8436zm-45.681 1.2156c1.4408-0.21788 3.5736-0.21205 4.7394 0.014 1.1658 0.22498-0.01297 0.40325-2.6197 0.39615-2.6067-9e-3 -3.5606-0.19122-2.1197-0.40909zm34.822-0.27891c0-0.58806 1.4668-0.72455 3.7915-0.35275 2.4395 0.39007 3.7915 0.24451 3.7915-0.40825 0-0.55799-1.8128-1.1778-4.0285-1.3774l-4.0285-0.36285 4.5025-0.16559c3.9257-0.14442 4.5025 0.0771 4.5025 1.7302 0 1.6149-0.63193 1.8958-4.2655 1.8958-2.346 0-4.2655-0.43158-4.2655-0.9591zm-36.889-1.2764c0.21725-0.18677 2.1012-0.60133 4.1865-0.921 2.582-0.39584 3.338-0.29207 2.3697 0.32521-1.2951 0.82573-7.4764 1.3874-6.5562 0.59577zm27.935-3.3686c-0.29392-0.47557 1.2805-2.2884 3.4986-4.0285l4.033-3.1638-3.1603 4.0285c-3.4114 4.3487-3.5687 4.4625-4.3714 3.1638zm-30.858-1.7052c0-1.3418 2.7552-7.8568 3.3226-7.8568 0.24945 0-0.25218 1.8128-1.1148 4.0285-1.7468 4.487-2.2079 5.2865-2.2079 3.8283zm50.038-0.77214c-0.29292-1.0292-0.82136-2.7244-1.1744-3.7671-0.353-1.0426 0.05216-0.69718 0.90039 0.76774 0.84822 1.465 1.3767 3.1601 1.1743 3.7671-0.20229 0.60695-0.60749 0.2615-0.90037-0.76775zm-11.56-1.0344c-0.49081-1.279 0.49914-1.715 3.0872-1.3598 0.704 0.0966 1.012-0.25798 0.68436-0.78805-0.32759-0.53002 0.32088-1.4542 1.4411-2.0537 1.1728-0.62764 1.7847-0.68219 1.4425-0.12848-0.32685 0.52883-0.17813 1.1046 0.33046 1.2794 0.50858 0.17483-0.74192 1.2277-2.7789 2.3397-2.9781 1.6257-3.8022 1.765-4.2067 0.71089zm-30.895-1.7848c-1.3033-0.74507-1.9432-1.3546-1.4218-1.3546s2.0143 0.60956 3.3176 1.3546c1.3033 0.74506 1.9432 1.3547 1.4218 1.3547s-2.0143-0.6096-3.3176-1.3547zm7.0426-5.8588c-1.4559-1.9088-2.0955-3.1297-1.4213-2.713 0.70821 0.4377 1.5257 0.27252 1.9358-0.3912 0.51753-0.83736 0.87129-0.72845 1.305 0.40174 0.38535 1.0042 0.22151 1.3197-0.46501 0.89542-0.63802-0.39433-0.88526-0.13098-0.62106 0.66168 0.24143 0.72424 1.0077 1.3168 1.7028 1.3168 1.5414 0 2.3383 1.9843 1.1034 2.7476-0.49086 0.30339-2.0837-1.0102-3.5396-2.919zm32.113 2.8347c1.1191-1.8108-8.5856-10.645-10.956-9.9737-0.39101 0.11065-0.71092-0.22519-0.71092-0.74653 0-2.0151 3.6876-0.0783 8.8495 4.6478 3.5711 3.2696 4.7295 5.4763 3.3291 6.3418-0.61974 0.38298-0.84222 0.26583-0.51146-0.26935zm-12.612-0.57755c-0.0058-1.3104 2.9576-6.5496 3.435-6.0722 0.25032 0.25032-0.41936 1.8895-1.4882 3.6427-1.0688 1.7532-1.9449 2.8464-1.9469 2.4296zm-26.216-5.9149c2.5268-2.3253 5.0861-4.2028 5.6873-4.1721 0.60124 0.0308 0.25031 0.56384-0.77985 1.1849-1.0301 0.621-3.3122 2.5154-5.0712 4.2097-1.759 1.6943-3.4754 3.0637-3.8143 3.043-0.33888-0.0208 1.4513-1.9402 3.978-4.2655zm19.577 1.0645c0-1.7812-0.53319-3.4538-1.1849-3.7167-0.70782-0.2856-0.51702-0.50822 0.47394-0.55294 1.3158-0.0596 1.6588 0.70914 1.6588 3.7167 0 2.0854-0.21326 3.7916-0.47394 3.7916-0.26066 0-0.47394-1.4574-0.47394-3.2386zm-3.5716-1.5008c0-1.8247 0.19507-2.5712 0.4335-1.6588s0.23842 2.4053 0 3.3176c-0.23842 0.91233-0.4335 0.16578-0.4335-1.6588zm4.2825-7.3141c-1.4337-0.21718-3.7797-0.21718-5.2134 0-1.4337 0.21717-0.26067 0.39486 2.6067 0.39486 2.8674 0 4.0404-0.17773 2.6067-0.39486zm17.42 51.154c1.2033-1.5344 1.1587-1.5545-0.59484-0.26824-1.0427 0.76483-2.0735 1.5113-2.2907 1.6588-0.2172 0.14756 0.05041 0.26825 0.59486 0.26825 0.54439 0 1.5752-0.74646 2.2907-1.6588zm-62.31-12.56c0-7.038 0.14921-9.9172 0.3316-6.3982 0.18238 3.519 0.18238 9.2774 0 12.796-0.18239 3.519-0.3316 0.63982-0.3316-6.3982zm7.1369 10.664c-0.04475-0.99094-0.2673-1.1817-0.55293-0.47392-1.43 3.5439-2.2159-0.0699-2.2159-10.19 0-7.3737 0.3531-11.375 1.0038-11.375 0.55211 0 0.69947 0.49247 0.32748 1.0944-0.4224 0.68345-0.25966 0.83681 0.43346 0.40843 0.61039-0.37723 0.88261-1.0535 0.60494-1.5028-0.27769-0.44927-0.07136-1.0848 0.45848-1.4123 0.63445-0.39212 0.96334 3.7926 0.96334 12.257 0 7.0688-0.21327 12.852-0.47394 12.852-0.26067 0-0.50762-0.74644-0.54878-1.6588zm69.642-10.664c0-7.038 0.14921-9.9172 0.3316-6.3982 0.18239 3.519 0.18239 9.2774 0 12.796-0.18239 3.519-0.3316 0.63982-0.3316-6.3982zm3.7915 0c0-7.038 0.14921-9.9172 0.33161-6.3982 0.18238 3.519 0.18238 9.2774 0 12.796-0.1824 3.519-0.33161 0.63982-0.33161-6.3982zm1.8958 0c0-7.038 0.14926-9.9172 0.33159-6.3982 0.18241 3.519 0.18241 9.2774 0 12.796-0.18237 3.519-0.33159 0.63982-0.33159-6.3982zm1.8985-0.47394c2e-3 -7.2987 0.1502-10.159 0.33063-6.3568 0.18037 3.8025 0.17918 9.7742-2e-3 13.27-0.18172 3.4962-0.3293 0.38508-0.32782-6.9136zm-82.482 1.4218c0-5.9954 0.15391-8.448 0.34203-5.4504 0.18812 2.9977 0.18812 7.903 0 10.901-0.18812 2.9977-0.34203 0.54504-0.34203-5.4504zm76.789-1.4218c2e-3 -6.7774 0.15265-9.4255 0.33553-5.8848 0.18288 3.5407 0.1815 9.0858-2e-3 12.322-0.18455 3.2366-0.33414 0.33972-0.3325-6.4377zm-77.384-14.413c1.173-0.22595 3.0925-0.22595 4.2655 0 1.173 0.22593 0.21327 0.41077-2.1327 0.41077-2.346 0-3.3058-0.18483-2.1327-0.41077zm77.266-0.0109c1.4408-0.21787 3.5736-0.21206 4.7394 0.014 1.1658 0.225-0.0125 0.40327-2.6197 0.39615-2.6067-9e-3 -3.5606-0.19121-2.1197-0.40908zm-77.266-1.8843c1.173-0.22595 3.0925-0.22595 4.2655 0 1.173 0.22592 0.21327 0.41081-2.1327 0.41081-2.346 0-3.3058-0.18486-2.1327-0.41081zm76.779 0c1.173-0.22595 3.0925-0.22595 4.2655 0 1.173 0.22592 0.21327 0.41081-2.1328 0.41081-2.346 0-3.3058-0.18486-2.1327-0.41081zm-78.205-2.3209c-1.3763-1.3763-1.5205-4.4846-0.29771-6.4166 0.59262-0.93637 0.8058-0.36238 0.69639 1.875-0.1542 3.1531-0.07376 3.2249 3.6339 3.2452 3.1067 0.0173 3.8417-0.3298 4.0693-1.92 0.38298-2.6762-2.8443-6.1163-5.7378-6.1163-1.3167 0-2.5987-0.5332-2.8488-1.1849-0.32899-0.85728 0.9533-1.1849 4.638-1.1849 5.1797 0 5.8265 0.30885 4.1526 1.9827-0.62149 0.62151-0.54798 1.9788 0.21692 4.0053 0.84007 2.2256 0.87654 3.5129 0.13312 4.6998-1.24 1.9798-7.0139 2.6565-8.6559 1.0145zm76.735-0.0432c-1.5635-1.5636-1.4259-4.7662 0.29976-6.9754 1.338-1.713 1.3621-1.6642 0.34934 0.70627-1.3743 3.2164-0.52858 5.5108 2.0312 5.5108 1.0898 0 1.7455-0.38184 1.457-0.84856-0.28843-0.46671 0.16044-1.1114 0.99749-1.4326 1.1128-0.42699 1.366-0.17753 0.94179 0.92779-0.36923 0.96215-0.14911 1.3698 0.6054 1.1214 3.7592-1.238 0.0362-8.299-4.376-8.299-4.4895 0-2.6153-1.7045 2.2445-2.0413 4.3943-0.30446 5.8957 0.26652 3.9168 1.4896-0.45433 0.2808-0.37544 2.1812 0.17639 4.2487 0.76771 2.8762 0.7118 4.0861-0.24191 5.2352-1.4613 1.7608-6.7724 1.9865-8.4018 0.35708zm-71.281-2.655c0-0.52134 0.45173-0.94787 1.0038-0.94787s0.7402 0.42653 0.418 0.94787c-0.32221 0.52135-0.77393 0.94786-1.0038 0.94786-0.22989 0-0.418-0.42651-0.418-0.94786zm-3.5415-11.107c1.4408-0.21786 3.5736-0.21205 4.7394 0.014 1.1658 0.225-0.01298 0.40325-2.6197 0.39613-2.6067-9e-3 -3.5606-0.1912-2.1197-0.40908zm76.779 0c1.4408-0.21786 3.5736-0.21205 4.7394 0.014 1.1658 0.225-0.0125 0.40325-2.6197 0.39613-2.6067-9e-3 -3.5606-0.1912-2.1197-0.40908zm-74.422-7.9298c-1.2954-1.4187-1.3646-1.8168-0.31595-1.8168 0.73856 0 1.5917 0.5332 1.8958 1.1849 0.44234 0.94788 0.66352 0.94788 1.1059 0 0.30412-0.65168 1.2639-1.1914 2.1327-1.1994 1.2479-0.0109 1.3096-0.18562 0.29377-0.8294-0.89652-0.56808-0.96829-1.0113-0.23699-1.4633 0.577-0.3566 1.5159-0.35988 2.0864-9e-3 0.64825 0.40064-0.08472 1.666-1.9543 3.3736-1.6454 1.5029-3.0719 2.6969-3.1701 2.6534-0.09816-0.0434-0.92493-0.89655-1.8373-1.8958zm8.7679-0.39495c1.2244-1.3034 2.4395-2.3697 2.7002-2.3697 0.26067 0-0.52786 1.0664-1.7523 2.3697-1.2244 1.3033-2.4395 2.3697-2.7002 2.3697-0.26067 0 0.52786-1.0664 1.7523-2.3697zm57.287-0.71093-2.784-3.0806 3.0806 2.784c2.8716 2.5951 3.5163 3.3772 2.784 3.3772-0.16315 0-1.5494-1.3863-3.0806-3.0806zm7.4528 1.8243c-0.41691-0.691-1.5045-1.5307-2.4168-1.866-0.91234-0.33532-1.6588-1.3085-1.6588-2.1627 0-0.99101 0.51453-1.3556 1.4218-1.0074 1.5931 0.61135 2.0082-1.7643 0.47393-2.7125-0.52134-0.32219-0.94789-0.17983-0.94789 0.31659 0 0.49632-0.72255 1.1797-1.6056 1.5186-1.4093 0.54078-1.3917 0.37966 0.14386-1.3171 1.336-1.4763 2.0516-1.6825 3.0275-0.87264 1.6678 1.3842 1.6285 3.3818-0.0855 4.3409-1.0752 0.60172-0.8749 0.99346 0.9479 1.8537 1.2712 0.59989 2.3112 0.7043 2.3112 0.232 0-0.47229 0.74646-0.82502 1.6588-0.78389 0.99096 0.0446 1.1818 0.26734 0.47392 0.55293-0.65165 0.26297-1.1848 1.0824-1.1848 1.821 0 1.6931-1.5584 1.7458-2.5596 0.0865zm10.004-4.1338c0.27223-4.382 5e-3 -5.6496-1.4218-6.764-1.6799-1.3113-1.6808-1.345-0.0206-0.7699 0.95494 0.33082 1.9147 0.60149 2.1327 0.60149 0.21805 0 0.39642 2.7726 0.39642 6.1613 0 3.3887-0.31993 6.1618-0.71091 6.1625-0.391 5.3e-4 -0.56014-2.4254-0.3759-5.3914zm-88.929 0.71299c-1.2838-2.3988-1.239-3.7815 0.06341-1.9581 0.81112 1.1356 0.91844 0.98078 0.53301-0.7689-0.55482-2.5186 1.5294-3.8229 3.498-2.189 1.6572 1.3753 2.7972 0.18369 1.4162-1.4802-1.6509-1.9892-0.54751-2.1083 1.3282-0.14332 1.0915 1.1434 1.2536 1.7428 0.47394 1.7523-0.89398 0.0109-0.87678 0.20984 0.07002 0.81013 1.9547 1.2394-1.47 4.1852-4.2482 3.6542-2.3181-0.44313-3.0915 0.69889-1.0353 1.5286 0.89306 0.36036 0.90127 0.49653 0.03331 0.55293-0.63333 0.0413-1.5931-0.7502-2.1327-1.7586zm6.2275-2.1192c0.45984-0.74404 0.17006-0.91122-0.88058-0.50806-0.93811 0.35997-1.4755 0.16216-1.3403-0.49353 0.12406-0.60197-0.6275-1.2494-1.6702-1.4387-1.4308-0.25982-1.5754-0.1252-0.58947 0.54864 0.71846 0.49108 1.0132 1.3671 0.65497 1.9467-0.39495 0.63905 0.09492 1.0539 1.2445 1.0539 1.0427 0 2.2042-0.49905 2.5812-1.109zm79.049 3.0914c1.1525-0.81506 0.95001-1.0083-1.0688-1.0201-1.3699-9e-3 -2.9113-0.5477-3.4254-1.1994-1.1294-1.4315-1.1889-4.5025-0.0872-4.5025 0.43446 0 0.74042-0.95971 0.67996-2.1327-0.087-1.6875-0.20265-1.7752-0.55388-0.41981-0.75588 2.9167-3.5947 1.4797-3.6563-1.8507-0.0302-1.6258-0.70072-3.9661-1.4903-5.2006-3.0586-4.782-2.9036-4.9395 0.80986-0.82281 2.3556 2.6114 3.4539 4.5118 2.8321 4.9006-0.55863 0.34932-1.1149 1.3111-1.2362 2.1373-0.12128 0.82616 0.17559 1.2574 0.65969 0.95818 0.48406-0.29918 0.66235-0.89632 0.39616-1.327-0.92073-1.4898 1.9795-1.7194 4.2924-0.33994 1.2771 0.76172 1.6225 1.1736 0.76768 0.91538-1.1282-0.34081-1.7558 0.3559-2.2893 2.5412-1.1398 4.6685-1.0907 4.789 2.2268 5.4675 2.1512 0.43996 2.9989 0.30464 2.7252-0.43507-0.21857-0.59055-0.87727-0.96708-1.4638-0.83676-0.5865 0.13035-1.0664-0.23519-1.0664-0.81232 0-0.57712 0.66198-0.79531 1.4711-0.48478 0.84355 0.32366 1.224 0.16481 0.89194-0.37254-0.88254-1.4279-3.116-1.1173-3.6189 0.50338-0.31252 1.0072-0.4008 0.93594-0.29349-0.23698 0.19866-2.171 3.3932-2.1835 4.7588-0.0193 1.184 1.877-0.0333 4.6093-2.3293 5.2291-1.0862 0.29321-1.0727 0.16657 0.0677-0.63997zm-66.89-1.879c0.67628-1.0942 4.3294-3.3012 4.3294-2.6155 0 0.21904-1.1189 1.1314-2.4864 2.0274-1.3675 0.89605-2.1969 1.1607-1.843 0.58807zm-6.1346-2.518c-0.97226-1.1715-1.3743-1.2192-1.9973-0.23703-0.43967 0.69313-0.7864 0.78165-0.79459 0.20284-0.02795-1.9778 1.2689-2.2808 3.0116-0.70377 1.4515 1.3136 1.9608 1.3724 2.9206 0.33695 0.82027-0.88497 0.83295-1.0691 0.04312-0.62566-1.3716 0.77008-2.6424-1.0486-2.7095-3.8777-0.04683-1.9749 2.0781-3.7528 3.1747-2.6562 0.27295 0.27295 0.10526 0.49656-0.37263 0.49693-0.47789 3.5e-4 -0.93221 1.0957-1.0096 2.4342-0.09117 1.5773 0.27009 2.2759 1.0269 1.9855 1.4483-0.55578 1.5852 2.4291 0.15531 3.3852-1.5198 1.0162-2.0919 0.89327-3.4484-0.74129zm50.275-0.90305c-1.3034-0.74506-1.9181-1.3698-1.366-1.3882 0.55203-0.0193 1.8317 0.59265 2.8437 1.3581 2.3403 1.7701 1.5928 1.7854-1.4776 0.0301zm7.7282-0.58315c-0.78477-2.1214 0.58934-6.5046 2.0436-6.5186 0.42176-2e-3 0.48705 0.4453 0.14511 0.9986-0.34196 0.55327-0.81139 2.3661-1.0432 4.0285-0.31711 2.2742-0.18066 2.6705 0.55129 1.6007 0.53502-0.78201 0.9793-2.1431 0.98729-3.0247 0.0253-2.8163 1.5089-2.6385 1.7257 0.20682 0.28404 3.7276-3.2335 5.8882-4.4097 2.7086zm-41.102-1.9196c1.2407-0.65095 1.9566-1.7006 1.6697-2.4483-0.27621-0.7198-0.08056-1.0481 0.43481-0.72962 1.1809 0.72983 1.2329 3.3109 0.06667 3.3109-0.4787 0-1.6517 0.22648-2.6067 0.50325-0.98711 0.28613-0.79917 0.0109 0.43554-0.63623zm-22.551-0.66997c0-0.51414 0.53319-1.183 1.1849-1.4863 1.658-0.77163-4.0838-0.0297-6.3982 0.82688-1.0427 0.38584 0.36692-0.64215 3.1324-2.2844 4.7909-2.845 10.612-9.9908 10.612-13.027 0-0.67993 0.42655-1.2362 0.94789-1.2362 1.5173 0 1.1657 0.85657-2.7715 6.7526-2.0457 3.0634-3.24 5.5699-2.6541 5.5699 0.74845 0 0.727 0.33834-0.0721 1.1375-0.6256 0.62561-1.1309 1.7986-1.123 2.6067 0.01296 1.2974 0.13212 1.3029 1.02 0.0474 0.89381-1.2638 0.96294-1.2638 0.62215 0-0.42622 1.5807-4.5004 2.57-4.5004 1.0928zm2.8437-3.9365c0-0.52134-0.18809-0.94788-0.418-0.94788-0.22989 0-0.68162 0.42654-1.0038 0.94788-0.32221 0.52134-0.13409 0.9479 0.418 0.9479 0.55211 0 1.0038-0.42656 1.0038-0.9479zm8.9711 3.8462c0.29624-0.47935 0.08443-1.1523-0.47074-1.4954-1.0169-0.62852 0.46897-3.2987 1.8357-3.2987 1.3405 0 0.93658 4.5757-0.45093 5.1082-0.79894 0.30659-1.2102 0.16519-0.914-0.31411zm37.001-0.0547c-0.74736-1.2092 0.24588-2.848 1.7148-2.8291 0.68128 9e-3 0.56515 0.38461-0.29291 0.94788-1.2638 0.82967-1.2638 1.0371 0 1.8667 0.85807 0.5633 0.97421 0.93915 0.29291 0.9479-0.62091 9e-3 -1.3925-0.41204-1.7148-0.93338zm-14.682-1.8851c-0.87453-0.87451-2.3879-1.473-3.363-1.3299-6.3123 0.92649-16.8-6.7289-17.996-13.136-1.0594-5.6746 0.26744-10.185 4.1336-14.051l3.4811-3.4811-2.547-0.96139c-2.1301-0.80404-2.8467-0.62979-4.3782 1.0646-1.0072 1.1143-2.303 2.879-2.8797 3.9217-0.57669 1.0427-1.0615 1.3774-1.0773 0.74389-0.01579-0.63353 1.2508-2.6093 2.8148-4.3906 3.2803-3.736 3.6168-4.8908 1.0202-3.5011-2.0844 1.1155-5.3291 7.6611-9.047 18.251-1.9391 5.5231-3.4744 8.1311-6.2777 10.664-2.041 1.8439-4.4494 3.3525-5.3521 3.3525-0.95822 0-0.26672-0.73044 1.6615-1.7551 4.0041-2.1278 6.8538-6.128 9.4476-13.262 1.0723-2.9493 2.6527-7.2819 3.512-9.6279 0.85927-2.346 2.9836-5.6944 4.7207-7.4409 4.0377-4.0595 4.4051-6.8644 0.56989-4.3515-4.1736 2.7346-5.6936 5.1085-9.3714 14.636-1.9119 4.9527-4.2474 10.301-5.1901 11.885-1.8906 3.1765-8.0488 7.073-11.179 7.073-3.4488 0-2.4058 2.833 1.0769 2.9251l3.0806 0.0815-2.7624 0.8261c-3.2813 0.98126-4.3467 0.4928-4.3467-1.9929 0-1.2079-0.65114-1.8398-1.8958-1.8398-1.4128 0-1.8958-0.63194-1.8958-2.4803 0-2.0381 0.3483-2.3892 1.9538-1.9694 2.0174 0.52756 4.0736-2.2302 2.1427-2.8738-0.5412-0.18042-1.6949-0.84579-2.5637-1.4787-1.2828-0.93443-0.34199-1.0921 5.0055-0.83883 7.5676 0.35844 7.0583 0.83452 11.104-10.382 3.9507-10.952 7.469-15.335 14.931-18.601 8.359-3.6577 17.173 1.8991 14.013 8.8345-0.57632 1.2649-1.4687 2.2998-1.9831 2.2998-1.5377 0-7.6307 5.7705-9.1066 8.6246-3.4415 6.6551-0.49453 15.701 6.2286 19.119l3.2987 1.6772 3.4927-3.7069c2.3644-2.5094 3.6487-3.3004 3.9756-2.4486 0.50514 1.3164-2.8291 6.2432-3.9682 5.8636-0.60664-0.2022-1.4264 1.0293-0.89338 1.3421 1.1956 0.70175 4.4602-1.7138 5.6473-4.1786l1.4785-3.0697-0.47315 4.3789c-0.51786 4.7928 0.41917 6.0895 3.6576 5.0617 1.7554-0.55713 1.9413-1.1718 1.5235-5.0376l-0.47586-4.403 1.4785 3.0697c1.3114 2.7228 2.9422 3.9925 5.1734 4.0281 0.391 5e-3 0.60427-0.30855 0.47394-0.69959-0.13035-0.39097-0.53235-0.61245-0.89337-0.49209-1.139 0.37967-4.4733-4.5472-3.9682-5.8636 0.32687-0.8518 1.6112-0.0609 3.9756 2.4486l3.4927 3.7069 3.2987-1.6772c4.6377-2.3579 7.602-7.1567 7.602-12.306 0-4.7012-1.0149-7.1357-4.5587-10.935-1.3372-1.4337-1.9691-2.6067-1.4042-2.6067 0.56485 0 2.3298 1.4838 3.9221 3.2973 5.0927 5.8002 5.1291 14.104 0.08701 19.847-3.7784 4.3033-10.645 7.4861-14.381 6.6656-1.8753-0.41188-2.6507-0.28944-2.2521 0.35557 1.5199 2.4592-4.6664 3.4544-6.9954 1.1254zm-3.6813-6.4089c1.179-1.5034 1.1455-1.5369-0.3579-0.35787-1.5789 1.2383-2.0811 2.0167-1.3009 2.0167 0.19682 0 0.94329-0.74645 1.6588-1.6588zm15.045 1.3009c0-0.19683-0.74646-0.94329-1.6588-1.6588-1.5034-1.179-1.5369-1.1455-0.3579 0.35788 1.2383 1.579 2.0167 2.0811 2.0167 1.301zm-54.095-2.9256c4.4377-2.2948 7.2266-6.517 9.9462-15.058 2.6806-8.4185 6.5847-14.889 10.128-16.785 6.2867-3.3645 11.669-2.7366 11.093 1.2941-0.29442 2.0585-3.6121 3.5959-3.6121 1.6738 0-0.55956 0.67537-1.0174 1.5008-1.0174 0.82546 0 1.3231-0.5332 1.1059-1.1849-0.21721-0.65165-1.4258-1.1848-2.6857-1.1848-1.7583 0-2.3569 0.56967-2.5756 2.4508-0.1567 1.348 0.3507 2.9783 1.1275 3.6231 2.2059 1.8307 6.5356 0.88583 7.8213-1.7069 2.3456-4.7301-3.0255-9.5232-9.2718-8.274-7.7369 1.5474-12.834 7.4213-17.786 20.495-1.6783 4.4314-3.9847 9.0718-5.1254 10.312-2.6541 2.8856-7.8482 5.1048-10.201 4.3582-1.2728-0.40396-1.8262-0.12943-1.8262 0.90608 0 1.9611 6.6366 2.0239 10.361 0.0979zm-3.0345-2.9764c-0.31498-0.31499-1.1325-0.34867-1.8168-0.0748-0.75616 0.30257-0.53156 0.52718 0.57268 0.57266 0.99922 0.0413 1.5591-0.18293 1.2441-0.49785zm1.9155-2.9244c-0.91234-0.23841-2.4053-0.23841-3.3176 0-0.91234 0.23843-0.16586 0.43349 1.6588 0.43349 1.8247 0 2.5711-0.19506 1.6588-0.43349zm69.999 15.122c-0.31165-0.31166-0.56009-1.0287-0.55211-1.5935 0.0086-0.56478 0.428-0.38706 0.93336 0.39496 0.50538 0.782 0.92541 0.97394 0.93338 0.42654 8e-3 -0.54739-0.51868-1.5485-1.1704-2.2247-0.95817-0.99429-0.82426-1.1645 0.70004-0.88962 2.2611 0.40771 3.0369 3.181 1.098 3.925-0.75663 0.29034-1.6307 0.27293-1.9423-0.0388zm-2.4624-3.0944c0-1.3538-0.38587-1.7758-1.1849-1.2958-0.81491 0.48957-0.78137 0.21433 0.10741-0.88153 0.71075-0.87633 1.634-1.3821 2.0518-1.1239 0.41774 0.25818 0.97556-0.0665 1.2396-0.72135 0.28963-0.71836 0.50974-0.53269 0.55491 0.46805 0.04106 0.91234-0.39736 1.6588-0.97448 1.6588-0.57712 0-0.80903 0.62617-0.51534 1.3915 0.29367 0.76531 0.12604 1.6436-0.37254 1.9517-0.49856 0.30816-0.90648-0.3432-0.90648-1.4474zm-61.185-1.3289c2.2006-1.332 4.8365-4.1646 6.3905-6.8673 1.4547-2.5301 2.6485-4.2111 2.6527-3.7356 0.03189 3.5818-8.6134 12.894-11.953 12.875-0.45981-2e-3 0.84947-1.0251 2.9095-2.272zm79.408 0.25733c-2.8251-1.8091-7.8079-8.7566-7.7891-10.86 3e-3 -0.47552 1.198 1.2055 2.6527 3.7356 1.554 2.7028 4.1899 5.5353 6.3905 6.8673 2.06 1.2469 3.319 2.2621 2.7976 2.256-0.52133-5e-3 -2.3446-0.90554-4.0517-1.9987zm-68.286-1.5112c0.17318-0.89924 1.3693-2.1607 2.6581-2.8032 2.0287-1.0114 2.6281-0.90066 4.4648 0.8249 2.1173 1.9891 2.1032 4.27-0.01828 2.9453-1.8201-1.1365-4.2984-1.2708-4.9191-0.26659-0.95857 1.551-2.5227 1.0498-2.1857-0.70036zm4.1578-0.96409c1.0052 0.15636 2.4674 0.66509 3.2494 1.1307 0.91916 0.54716 0.8038 0.14114-0.32634-1.1487-1.9015-2.1701-5.4195-1.7015-6.0952 0.81186-0.27754 1.0322-0.16669 1.0607 0.49331 0.12677 0.4682-0.66256 1.6737-1.0768 2.6788-0.92046zm53.597 0.94029c-0.0717-1.3892-0.68823-2.1067-1.7688-2.0579-0.99097 0.0446-1.1818 0.26733-0.47395 0.55293 1.6413 0.66227 1.4869 1.8999-0.23698 1.8999-1.8799 0-1.8309-2.4302 0.0636-3.1572 1.9557-0.75048 3.5477 0.92526 2.9788 3.1356-0.37275 1.4482-0.47232 1.3822-0.56281-0.37325zm-28.397-1.1849c0-1.3033 0.21517-1.8365 0.4781-1.1848 0.26296 0.65169 0.26296 1.7181 0 2.3697-0.26296 0.65165-0.4781 0.11853-0.4781-1.1849zm-26.256-4.8023c-0.34364-0.55603-0.42151-1.2143-0.17303-1.4627 0.24845-0.24847 0.70434 0.20647 1.0131 1.0109 0.64094 1.6703 0.0947 1.9641-0.84001 0.45179zm21.702-2.7606c-0.42399-2.1199-1.3665-3.1136-3.7817-3.987-4.094-1.4804-3.7079-2.5273 1.5861-4.3004 5.1874-1.7374 5.2435-1.7884 3.8336-3.4872-0.95702-1.1532-1.5598-3.5129-1.9084-7.4706-0.03594-0.4078-0.9816-1.0804-2.1015-1.4947-1.9141-0.70808-1.8261-0.88311 1.4688-2.9194l3.5049-2.1662-0.59685-6.2919c-0.47104-4.9657-0.28116-6.6915 0.90097-8.1877l1.4978-1.8958 1.4978 1.8958c1.1821 1.4962 1.372 3.2219 0.90097 8.1877l-0.59685 6.2919 3.5049 2.1662c3.2948 2.0363 3.3829 2.2113 1.4687 2.9194-1.1199 0.41429-2.0656 1.0869-2.1015 1.4947-0.34862 3.9578-0.95142 6.3175-1.9084 7.4706-1.4099 1.6988-1.3538 1.7498 3.8336 3.4872 2.3262 0.77914 4.3586 1.8037 4.5163 2.2769s-1.2124 1.4024-3.0447 2.0649c-2.0018 0.72388-3.3372 1.8422-3.346 2.8021-0.0073 0.87858-0.47477 2.2372-1.0373 3.0193-0.8633 1.2001-0.93958 1.1632-0.48917-0.23697 0.44693-1.3893-0.07272-1.6588-3.1984-1.6588-2.9279 0-3.6145 0.30636-3.1864 1.4218 0.30007 0.782 0.27604 1.4218-0.05346 1.4218-0.32949 0-0.85319-1.2707-1.1638-2.8237zm6.0735-1.6191c-0.90626-0.23723-2.6125-0.24587-3.7915-0.0192-1.1791 0.22673-0.4376 0.42084 1.6477 0.43136 2.0854 0.01 3.0501-0.17503 2.1438-0.41222zm1.1738-2.1924c-0.78201-0.50535-3.3413-0.89542-5.6873-0.86674-3.2462 0.0396-3.8125 0.24681-2.3697 0.86674 2.7596 1.1859 9.892 1.1859 8.057 0zm-9.2238-2.5175c-0.64175-0.25963-1.9214-0.27547-2.8437-0.035-0.92227 0.24031-0.3972 0.45275 1.1668 0.47207 1.564 0.0192 2.3186-0.17734 1.6768-0.43697zm4.2277 0.0491c-0.31498-0.31496-1.1325-0.34865-1.8168-0.0748-0.75616 0.30256-0.53156 0.52717 0.57269 0.57266 0.99922 0.0413 1.5591-0.18292 1.2441-0.49784zm5.2512-0.0491c-0.64175-0.25963-1.9214-0.27547-2.8437-0.035-0.92226 0.24031-0.39719 0.45275 1.1668 0.47207 1.564 0.0192 2.3186-0.17734 1.6768-0.43697zm7.0714 0.0491c-0.31498-0.31496-1.1325-0.34865-1.8168-0.0748-0.75616 0.30256-0.53155 0.52717 0.57269 0.57266 0.99922 0.0413 1.5591-0.18292 1.2441-0.49784zm-8.0373-1.992c-1.173-0.22592-3.0925-0.22592-4.2655 0-1.173 0.22593-0.21327 0.41078 2.1327 0.41078 2.346 0 3.3057-0.18484 2.1327-0.41078zm-1.1849-3.5965c0-0.78199-0.62643-1.4218-1.3921-1.4218-0.84797 0-1.1788 0.55573-0.84647 1.4218 0.30007 0.78201 0.92653 1.4218 1.3921 1.4218 0.46555 0 0.84646-0.63983 0.84646-1.4218zm1.8958-5.6098c0-0.21805 0.2266-0.98696 0.50358-1.7087 0.37013-0.96455-0.50901-1.372-3.3176-1.5378-4.058-0.23947-4.1396-0.18562-3.2458 2.1435 0.49444 1.2885 6.0598 2.3015 6.0598 1.103zm0.94789-6.2388c-0.782-0.50538-2.4882-0.91886-3.7915-0.91886-1.3033 0-3.0095 0.41348-3.7915 0.91886-1.0123 0.65418 0.07981 0.91885 3.7915 0.91885 3.7117 0 4.8038-0.2647 3.7915-0.91885zm-3.7172-10.306c0.49912 0.80762 0.65636 0.23295 0.42451-1.5515-0.20253-1.5588-0.39761-3.4385-0.43353-4.1771-0.1299-2.671-1.2785-0.04954-1.5104 3.4474-0.13069 1.9705-0.02077 3.0013 0.24455 2.2907 0.40469-1.0845 0.60959-1.086 1.2749-0.0096zm28.362 35.054c0-0.63902-0.42654-0.89821-0.94789-0.57598-1.151 0.71133-1.2141-0.48214-0.11698-2.2129 0.60021-0.94684 0.94467-0.71889 1.3697 0.90651 0.31232 1.1943 0.37149 2.3678 0.13153 2.6078-0.24001 0.24-0.43637-0.0865-0.43637-0.72545zm-80.74-5.2183c0.87531-0.46788 1.6789-0.91078 1.7857-0.98417 0.32902-0.22608-2.1747-7.0967-2.8219-7.744-0.33511-0.33512 0.21316-1.3028 1.2184-2.1504 1.3191-1.1122 1.8832-2.94 2.0271-6.5677 0.10966-2.7646 0.51923-5.2242 0.91011-5.4658 1.3076-0.80812 2.0815 1.7346 1.9197 6.307-0.12934 3.654 0.22928 4.8035 1.8533 5.9411 1.342 0.93994 1.7448 1.8309 1.2077 2.671-0.4433 0.69333-1.2796 2.6098-1.8585 4.2589-0.91608 2.6096-0.82206 3.1011 0.72531 3.7915 1.224 0.54618 0.16794 0.79328-3.3903 0.79328-3.6021 0-4.6859-0.25775-3.5766-0.8507zm4.4148-3.1783c0.07516-0.91207 0.68323-2.6638 1.3512-3.8928 0.79085-1.4551 0.89134-2.5576 0.28811-3.1609-1.2064-1.2064-5.4691-0.55767-5.2142 0.79347 0.10799 0.57224 0.3898 2.055 0.62629 3.2951 1.0019 5.2538 2.6253 6.8864 2.9486 2.9652zm93.217 3.1783c0.87531-0.46788 1.7277-0.95952 1.8941-1.0925 0.16644-0.13302-0.15348-1.1365-0.71092-2.2299-0.55744-1.0934-1.4715-2.8857-2.0312-3.9827-0.8401-1.6466-0.65899-2.2458 1.038-3.4344 1.6396-1.1484 1.9697-2.1355 1.6312-4.8775-0.46049-3.73 0.71378-8.1108 1.9666-7.3365 0.42788 0.26448 0.86771 2.7428 0.9774 5.5074 0.14396 3.6277 0.70807 5.4555 2.0272 6.5677 1.0052 0.84761 1.5535 1.8153 1.2184 2.1504-0.6473 0.64728-3.151 7.5179-2.8219 7.744 0.10672 0.0733 0.91042 0.51629 1.7857 0.98417 1.1122 0.59453 0.0621 0.8507-3.4873 0.8507-3.5493 0-4.5994-0.25617-3.4872-0.8507zm5.3869-5.3305c0.19868-1.0317-0.14742-1.8888-0.76919-1.9047-0.62174-0.0156-0.37502-0.4686 0.5483-1.0061 2.1683-1.2623 1.228-2.7566-1.7347-2.7566-1.8212 0-2.3138 0.4926-2.3138 2.3138 0 1.2726 0.43351 2.5817 0.96336 2.9091 0.52983 0.32746 0.74174 0.95397 0.47086 1.3922-0.27087 0.43826-0.21427 1.5218 0.12585 2.408 0.56673 1.4769 0.69027 1.4824 1.4831 0.0657 0.47573-0.85002 1.0275-2.3896 1.2262-3.4213z" fill="url(#a)" opacity=".734"/>
</g>
</svg>
