<?xml version="1.0" encoding="UTF-8" standalone="no"?>
<!-- Created with Inkscape (http://www.inkscape.org/) -->

<svg
   width="34.08215mm"
   height="76.594688mm"
   viewBox="0 0 34.082149 76.594688"
   version="1.1"
   id="svg5"
   sodipodi:docname="fern.svg"
   inkscape:version="1.1 (c68e22c387, 2021-05-23)"
   xmlns:inkscape="http://www.inkscape.org/namespaces/inkscape"
   xmlns:sodipodi="http://sodipodi.sourceforge.net/DTD/sodipodi-0.dtd"
   xmlns="http://www.w3.org/2000/svg"
   xmlns:svg="http://www.w3.org/2000/svg">
  <sodipodi:namedview
     id="namedview7"
     pagecolor="#505050"
     bordercolor="#eeeeee"
     borderopacity="1"
     inkscape:pageshadow="0"
     inkscape:pageopacity="0"
     inkscape:pagecheckerboard="0"
     inkscape:document-units="mm"
     showgrid="false"
     inkscape:zoom="0.67081229"
     inkscape:cx="-257.15092"
     inkscape:cy="-61.865295"
     inkscape:window-width="1920"
     inkscape:window-height="1027"
     inkscape:window-x="1072"
     inkscape:window-y="424"
     inkscape:window-maximized="1"
     inkscape:current-layer="layer1"
     fit-margin-top="0"
     fit-margin-left="0"
     fit-margin-right="0"
     fit-margin-bottom="0" />
  <defs
     id="defs2" />
  <g
     inkscape:label="Layer 1"
     inkscape:groupmode="layer"
     id="layer1"
     transform="translate(-119.77161,-92.917861)">
    <path
       style="fill:#ffffff;stroke-width:0.719198"
       d="m 134.99476,164.29836 c -1.79038,-3.75079 -3.72561,-6.37475 -6.89562,-9.34941 -2.95333,-2.77131 -5.10171,-5.60467 -6.51381,-8.59053 -1.15886,-2.45047 -1.96438,-4.59803 -1.78998,-4.7724 0.17423,-0.17446 1.16291,0.23695 2.19674,0.91455 4.25096,2.78535 7.85374,6.75616 9.73684,10.73151 l 1.99744,4.2167 0.38971,-2.41869 c 0.21421,-1.33031 0.31675,-5.16965 0.22778,-8.5319 -0.14105,-5.31944 -0.48227,-6.76686 -2.62823,-11.14758 -1.96628,-4.01391 -2.52385,-4.70078 -2.75065,-3.38849 -0.46391,2.6841 1.18312,8.93958 3.13027,11.88906 0.99744,1.51082 1.69934,3.08945 1.55981,3.50805 -0.13951,0.41863 -1.3444,-1.28526 -2.67752,-3.78641 -1.95173,-3.66187 -2.49164,-5.60491 -2.77223,-9.97697 -0.3038,-4.73385 -0.21202,-5.31639 0.7152,-4.54674 1.94647,1.61544 4.92029,7.93335 6.21677,13.20779 l 1.2807,5.21002 1.3169,-4.8651 1.3169,-4.86506 -3.34747,-6.40531 c -3.4736,-6.64659 -5.19163,-13.38043 -3.25175,-12.74512 1.37773,0.45117 6.30258,9.01937 6.84447,11.90785 0.62342,3.32313 1.46191,2.89664 2.1173,-1.07696 0.7504,-4.54936 0.62654,-4.9817 -2.58148,-9.01078 -2.93857,-3.69069 -5.57271,-9.55365 -4.68318,-10.42361 0.71941,-0.70359 6.05242,5.31908 7.4971,8.4666 l 1.15539,2.5172 0.22886,-3.10974 c 0.12583,-1.71036 -0.14242,-3.55712 -0.59629,-4.10392 -0.45379,-0.54677 -0.61134,-1.33995 -0.35008,-1.76262 0.26123,-0.42271 0.087,-0.67962 -0.38748,-0.57092 -1.09099,0.25008 -5.44061,-5.6417 -6.09763,-8.25941 -0.76395,-3.04394 0.71806,-2.41168 3.95962,1.68923 2.66015,3.36534 2.89354,3.50947 2.89354,1.78711 0,-1.03044 -0.93367,-3.56769 -2.0748,-5.63839 -1.14115,-2.070691 -2.30022,-4.735831 -2.57574,-5.922511 l -0.50092,-2.157598 1.79871,1.689258 c 0.98927,0.92905 2.20789,2.67707 2.70797,3.88448 0.80292,1.938381 0.97208,2.035251 1.44567,0.82792 0.29504,-0.75198 0.55915,-2.25728 0.58695,-3.34504 0.0552,-2.161988 1.07822,-2.647108 1.7716,-0.84019 0.79751,2.0783 0.45328,4.67003 -1.09984,8.280341 -2.31077,5.37155 -1.03168,5.10642 1.65565,-0.34319 2.53301,-5.136671 3.47904,-5.894481 3.47273,-2.78177 -0.005,3.32935 -1.48549,7.58839 -3.66991,10.57006 -1.14384,1.56127 -2.07485,3.66491 -2.06899,4.67478 0.0103,1.77246 0.0978,1.73633 2.52155,-1.04066 1.38093,-1.58223 3.06409,-3.76681 3.74033,-4.85462 1.6803,-2.70286 2.25929,-2.48143 1.88075,0.71922 -0.51654,4.36777 -1.68511,6.54462 -5.06347,9.43231 -3.04406,2.60198 -4.45724,5.62518 -4.51109,9.65047 -0.0219,1.693 5.91802,-4.9609 7.90307,-8.85191 0.80223,-1.57251 1.77566,-2.85907 2.16316,-2.85907 1.73448,0 -0.32783,8.52438 -2.8914,11.95131 -0.59333,0.79318 -2.90371,2.78134 -5.13418,4.41814 -3.22819,2.36903 -4.29174,3.66977 -5.21419,6.37698 -1.47847,4.3391 -1.44556,5.3229 0.11575,3.4606 0.68345,-0.81517 3.02262,-2.89641 5.19822,-4.62503 2.17557,-1.72861 5.16923,-4.28286 6.65257,-5.67607 3.1457,-2.9545 3.40436,-2.1509 0.89908,2.79311 -2.3862,4.70889 -6.12423,8.33481 -10.66752,10.3475 -4.58493,2.03111 -5.14282,2.71042 -6.14971,7.48818 -1.52276,7.22546 -0.78304,8.60422 1.91029,3.56061 0.89773,-1.68114 4.53811,-5.75011 8.08976,-9.04218 6.13518,-5.68678 6.45664,-5.88423 6.44035,-3.95558 -0.054,6.41034 -2.92541,10.72818 -9.67679,14.55223 -1.98618,1.12496 -4.21675,2.72011 -4.95684,3.54473 -1.31667,1.46707 -1.31334,1.55397 0.15558,4.04354 0.82563,1.39933 1.20316,2.54423 0.83898,2.54423 -0.36422,0 -1.78218,-2.3464 -3.15103,-5.21419 z m 4.93241,-5.58049 c 1.11395,0.9245 7.94873,-3.72879 9.24839,-6.29651 0.54771,-1.08215 1.22679,-3.26212 1.50907,-4.84437 l 0.51322,-2.8768 -2.75449,2.50932 c -7.57951,6.90479 -9.06818,8.44512 -10.08635,10.43626 -0.72553,1.41882 -0.7855,1.85563 -0.17506,1.27571 0.59513,-0.5655 1.22127,-0.63856 1.74534,-0.20368 z m 0.0674,-0.61638 c -0.21174,-0.34269 0.33546,-1.23271 1.21614,-1.97781 1.59708,-1.35117 1.59795,-1.35079 0.34109,0.14208 -0.6931,0.82321 -1.04372,1.71321 -0.77916,1.97777 0.26449,0.26451 0.28439,0.48106 0.0441,0.48106 -0.24028,0 -0.61029,-0.28039 -0.82209,-0.6231 z m 3.17694,-3.24447 c 0,-0.14926 0.56637,-0.71569 1.25859,-1.25861 1.14071,-0.89456 1.16616,-0.86914 0.27157,0.27157 -0.93955,1.198 -1.53013,1.57899 -1.53013,0.98704 z m -12.43124,-1.58147 c -1.20162,-3.91519 -9.14472,-11.50805 -9.14472,-8.74147 0,1.24433 3.68972,7.04592 5.34787,8.40882 0.70308,0.57789 1.972,1.43618 2.81982,1.90728 0.84783,0.47113 1.59211,0.88827 1.65399,0.92708 0.0619,0.0388 -0.24275,-1.08699 -0.67696,-2.50171 z m 12.2801,-8.14578 c 1.46759,-0.75261 3.35045,-2.12807 4.18414,-3.05659 2.07343,-2.30925 5.34094,-7.29757 5.00205,-7.63645 -0.15199,-0.15182 -3.02673,2.02756 -6.38821,4.84346 -7.87261,6.59499 -9.04956,9.05558 -2.79798,5.84958 z m -4.51557,-14.22084 c -1.06476,-3.70487 -5.21436,-11.44852 -5.81376,-10.84914 -0.12481,0.12481 0.0957,1.67424 0.48981,3.44353 0.65084,2.92235 5.6937,12.4284 6.28139,11.84071 0.13558,-0.13541 -0.29536,-2.13129 -0.95744,-4.4351 z m 10.2174,-1.45926 c 1.64175,-2.14698 4.13568,-8.74561 3.5331,-9.34818 -0.14754,-0.14754 -1.26762,1.28887 -2.48895,3.19216 -1.22132,1.90328 -3.23368,4.42379 -4.47193,5.60114 -1.23823,1.17735 -2.73469,3.06641 -3.32547,4.19793 l -1.0742,2.05728 3.03246,-1.6977 c 1.66783,-0.93371 3.82558,-2.73491 4.79499,-4.00263 z m -7.70829,-9.59753 c 0,-1.35126 -1.97796,-4.599 -3.88726,-6.38268 -2.44257,-2.2819 -2.34939,-1.2799 0.31258,3.36178 2.00482,3.49583 3.57468,4.82247 3.57468,3.0209 z m 8.93929,-4.88626 c 0.71022,-1.57493 1.17398,-3.19952 1.03059,-3.61017 -0.33526,-0.96025 -6.37386,6.18842 -6.37386,7.54561 0,2.01031 3.98594,-0.92544 5.34327,-3.93544 z m -2.10217,-9.70229 c 0.58806,-1.98017 0.95231,-3.71725 0.80947,-3.86008 -0.40451,-0.40451 -2.70082,3.35064 -3.33286,5.45022 -0.31234,1.03756 -0.81833,2.53381 -1.12436,3.32491 -0.54965,1.42082 -0.53733,1.42159 1.01108,0.0621 0.86211,-0.7571 2.04864,-2.99672 2.63667,-4.97692 z m -6.90971,3.2179 c -0.39436,-1.13123 -1.71132,-2.99218 -2.92659,-4.13542 l -2.20959,-2.07863 1.25013,2.51722 c 1.08186,2.17838 3.81983,5.75358 4.4062,5.75358 0.10823,0 -0.12583,-0.92553 -0.52015,-2.05675 z m 3.66861,-7.59359 c 0,-0.56098 0.21691,-1.585021 0.48182,-2.275601 0.30329,-0.79036 0.20197,-1.08256 -0.27375,-0.78865 -0.95299,0.58899 -1.66119,4.084211 -0.82755,4.084211 0.34071,0 0.61948,-0.45897 0.61948,-1.01996 z m -3.59602,-1.719371 c 0,-0.31997 -0.50944,-1.20998 -1.13211,-1.9778 -0.62267,-0.76783 -0.99624,-1.07241 -0.83009,-0.67685 0.16601,0.39555 0.50361,1.28557 0.74996,1.97779 0.4602,1.29311 1.21224,1.713011 1.21224,0.67686 z"
       id="path1059"
       sodipodi:nodetypes="cssccscccsssssscscccsssssssccsscssssscsccsssscsssssscssssssssssssscsssscccsscsscccsssssssscsssssssssssccsssscsssssscsssssssssssssscsssscssssccsssscss" />
  </g>
</svg>
