<?xml version="1.0" encoding="UTF-8"?>
<svg width="557.31mm" height="128.24mm" version="1.1" viewBox="0 0 557.31 128.24" xmlns="http://www.w3.org/2000/svg" xmlns:cc="http://creativecommons.org/ns#" xmlns:dc="http://purl.org/dc/elements/1.1/" xmlns:rdf="http://www.w3.org/1999/02/22-rdf-syntax-ns#">
<metadata>
<rdf:RDF>
<cc:Work rdf:about="">
<dc:format>image/svg+xml</dc:format>
<dc:type rdf:resource="http://purl.org/dc/dcmitype/StillImage"/>
<dc:title/>
</cc:Work>
</rdf:RDF>
</metadata>
<g transform="translate(270.2 -60.293)">
<path d="m209.69 187.84c-0.32646-0.38317-0.77216-0.88059-0.99044-1.1054-1.0772-1.1094-1.8775-2.3369-2.1264-3.2613l-0.27556-1.0234-0.57552 0.53621c-0.31655 0.2949-1.0306 0.67252-1.5868 0.83915-0.58619 0.17563-1.4112 0.74568-1.9627 1.3562l-0.95149 1.0532-0.51258-0.63495c-0.28191-0.34922-0.7485-1.1423-1.0369-1.7624-0.64373-1.3841-1.1535-5.527-0.79195-6.4362 0.41791-1.0511 1.6132-2.1208 3.1622-2.8299l1.46-0.66839-1.3716-0.35103c-1.8245-0.46691-2.456-0.91675-3.988-2.8408-0.71003-0.8917-1.555-1.8594-1.8777-2.1504-0.80285-0.72409-1.8016-2.7637-2.019-4.1232-0.15377-0.9617-0.11887-1.1008 0.24144-0.96255 1.8199 0.69837 2.5813 0.7321 4.748 0.21029 1.2037-0.28988 2.6053-0.46522 3.1146-0.38962l0.92604 0.13747-1.3229-0.96276c-1.6792-1.2221-4.1442-2.6642-7.0115-4.1022-1.7357-0.87045-2.894-1.2382-5.0755-1.6114-3.0147-0.51572-9.375-2.0566-11.304-2.7386-0.64116-0.22669-1.2109-0.367-1.2661-0.31183-0.14994 0.14993 0.89876 2.8278 1.4756 3.7681 0.40905 0.66673 0.73253 0.85154 1.7298 0.98822 3.9745 0.54478 7.0756 3.5694 8.6521 8.4386 1.2425 3.8376 3.5454 7.2856 4.9287 7.3792 0.25424 0.0172 0.10507 0.11805-0.3315 0.2241-2.097 0.5093-6.6457-0.31091-9.2604-1.6698-3.9513-2.0535-6.7225-6.884-6.7423-11.753-3e-3 -0.76978-0.26861-1.5963-0.83516-2.6002-0.4568-0.80941-1.1507-2.4355-1.542-3.6135l-0.71144-2.1418-2.3606-0.63111c-6.3541-1.6988-11.964-2.4527-18.251-2.4527-7.2833 0-12.814 0.99637-17.441 3.1417l-2.6391 1.2239 2.9036 0.17106c1.597 0.0941 3.9999 0.3734 5.3399 0.62073l2.4363 0.44972 2.0639-0.68736c6.3706-2.1216 11.964-1.9584 13.955 0.40708 0.73718 0.87612 0.90003 2.4227 0.33329 3.1653-0.48717 0.63839-1.9169 1.2974-2.8147 1.2974-0.7466 0-0.7965 0.0619-0.76322 0.94729 0.0341 0.90792 0.0696 0.94128 0.85183 0.80259 6.3432-1.1246 11.263 0.51744 11.266 3.7606 0 0.62098-0.22683 1.108-0.77242 1.6536-0.69321 0.69323-0.94695 0.77292-2.4474 0.76888-1.4218-4e-3 -3.2786-0.37621-5.9555-1.1943-0.48882-0.14938-0.55528-0.0919-0.43329 0.37462 0.56174 2.1482-1.9594 3.3588-4.5468 2.1833-1.4031-0.63741-3.6096-3.0895-4.9066-5.4527-0.60169-1.0963-1.3145-2.0295-1.676-2.1942-0.34594-0.15761-1.609-1.0778-2.8069-2.0449-2.002-1.6163-2.3411-1.7898-4.1988-2.1485-5.9165-1.1423-10.884-0.65484-15.25 1.4965-4.8278 2.3787-9.6157 3.2872-15.028 2.8516-9.5871-0.77176-19.421-7.6011-26.104-18.128-0.93954-1.48-1.9771-2.8135-2.3057-2.9632-1.4841-0.67617-4.9842-1.1555-7.2219-0.98896-3.8073 0.28332-6.3059 1.0727-14.296 4.5164l-2.249 0.96925 1.5875-0.16248c2.7652-0.28303 9.8124 0.5058 13.218 1.4795 3.4686 0.99176 7.7291 3.695 9.6849 6.1449 2.847 3.5661 5.5355 11.345 5.5389 16.026 3e-3 2.541 0.86378 6.888 2.1052 10.617 0.70239 2.1101 1.3552 4.3722 1.4507 5.0271l0.17365 1.1906-2.4596-2.4385c-2.8236-2.7993-3.9479-3.6546-6.472-4.9236-2.6886-1.3516-3.9914-1.7213-7.5651-2.1464-1.7816-0.21193-3.775-0.55073-4.4298-0.7529-4.807-1.484-8.3386-4.9809-9.8073-9.711-0.3207-1.0329-0.67524-3.4118-0.89053-5.9754-0.30091-3.5833-0.46773-4.4919-1.0511-5.725-1.4887-3.1468-4.1713-5.1418-7.7504-5.7637-1.416-0.24603-1.9397-0.20857-3.8364 0.27456-3.0881 0.78658-7.3918 2.1913-11.722 3.826-4.9924 1.8848-5.6158 2.1916-7.1001 3.4947-1.6965 1.4893-4.0236 2.8819-5.8872 3.5231-2.7364 0.94147-5.9128 0.58193-7.4271-0.84068l-0.57801-0.54301-1.1454 1.1922c-2.6775 2.7868-6.7706 2.5329-11.573-0.71795-1.603-1.085-1.7493-1.1322-2.6458-0.85455-0.538 0.16664-2.8396 0.29115-5.3146 0.28752-3.8974-6e-3 -4.6388-0.0818-6.9128-0.70916-1.401-0.3865-3.7227-1.2004-5.1594-1.8086-9.9118-4.1961-12.204-5.2361-14.981-6.7982l-2.119-1.1917-2.0894 0.41164c-2.5556 0.50347-4.0988 1.225-5.4737 2.5593-2.1411 2.0779-3.2136 4.8978-3.2198 8.4656-9e-3 4.8289-1.7413 9.6293-4.4792 12.408-2.6125 2.6516-5.811 3.9626-10.995 4.5068-2.9864 0.31351-5.4041 1.0175-7.5406 2.1959-2.3627 1.3031-5.1067 3.4847-6.8943 5.4813-0.91903 1.0265-1.6999 1.8374-1.7352 1.8021-0.19632-0.19632 0.76052-4.0558 1.4428-5.8197 1.1541-2.9834 1.858-6.2724 2.1721-10.148 0.46597-5.7497 1.3918-9.2749 3.5806-13.633 1.7854-3.5549 4.362-6.0604 8.0742-7.8512 4.3842-2.115 8.4839-2.9349 14.791-2.958l3.8365-0.014-2.249-0.88699c-1.2369-0.48784-3.6182-1.4435-5.2917-2.1237-5.058-2.0558-9.0142-2.7725-12.587-2.2803-3.9635 0.54599-4.2505 0.72437-6.1344 3.8126-4.0245 6.5971-10.439 12.625-16.499 15.505-7.8214 3.7169-16.501 3.7144-24.198-7e-3 -4.142-2.0026-7.9425-2.6423-12.598-2.1204-4.3095 0.48305-5.1347 0.73869-6.6081 2.0473-0.72872 0.64722-1.9592 1.5979-2.7345 2.1126-1.091 0.72437-1.6768 1.3943-2.5921 2.964-1.5269 2.6188-3.0791 4.3581-4.5057 5.0487-2.661 1.2882-5.4868 0.0433-4.8016-2.1154 0.15846-0.49927 0.11203-0.55803-0.30684-0.38833-2.9872 1.2102-6.9366 1.6363-8.1 0.87403-0.80727-0.52896-1.3688-1.836-1.1548-2.6882 0.643-2.5619 4.6817-3.9526 9.653-3.3239 1.2181 0.15407 2.2483 0.24482 2.2894 0.20172 0.0411-0.0431 0.11605-0.43355 0.16658-0.8676 0.0888-0.7625 0.0471-0.79562-1.231-0.9785-2.6894-0.38479-3.6929-3.0682-1.7427-4.6605 2.515-2.0534 8.0699-2.0978 13.726-0.10975l2.04 0.7171 2.249-0.45463c1.2369-0.25006 3.6121-0.54772 5.2782-0.66146l3.0292-0.20683-1.8386-0.89593c-5.3002-2.5828-11.782-3.6637-20.317-3.3885-6.0531 0.19523-10.644 0.89326-16.212 2.4648l-2.4111 0.68056-0.315 1.4076c-0.17324 0.77414-0.82507 2.4072-1.4485 3.629-0.95391 1.8694-1.1595 2.5542-1.2978 4.3213-0.29587 3.7829-1.5764 6.5626-4.0795 8.8559-2.4936 2.2845-5.6094 3.4119-9.8652 3.5695-2.2927 0.0849-2.7753-0.0741-1.6551-0.54507 1.4244-0.59888 3.1636-3.5163 4.5612-7.651 0.79551-2.3534 1.8373-4.0951 3.2552-5.442 1.119-1.0629 3.7929-2.3362 5.356-2.5504 1.2232-0.16767 1.2633-0.20355 1.9949-1.7843 0.41061-0.88726 0.82302-1.9309 0.91649-2.3193l0.16992-0.70604-2.0738 0.64442c-2.8932 0.89908-6.8269 1.8323-10.408 2.4693-2.61 0.46424-3.4566 0.75327-5.9531 2.0323-1.6007 0.8201-3.9224 2.1609-5.1594 2.9796l-2.249 1.4885 1.1906 0.0621c0.65485 0.0342 2.0447 0.26411 3.0886 0.51097 1.8812 0.44487 2.4554 0.3979 4.2536-0.34774 0.56196-0.23305 0.38122 1.5072-0.31092 2.9937-0.35007 0.75187-1.2734 2.0616-2.0518 2.9104-0.77845 0.84889-1.6792 1.9157-2.0016 2.3707-0.66654 0.9407-1.9434 1.6239-3.5777 1.9146l-1.1199 0.19913 1.3084 0.58798c3.2322 1.4526 3.7609 2.3796 3.393 5.9489-0.26224 2.5445-0.97741 4.4828-1.9932 5.4021-0.47661 0.43132-0.51742 0.42851-0.78755-0.0542-0.49277-0.88053-1.467-1.6281-2.5411-1.9499-0.57014-0.17085-1.1844-0.48864-1.365-0.70626-0.49851-0.60065-0.6811-0.48871-1.0137 0.62148-0.31135 1.0392-3.2246 4.6036-3.8858 4.7543-0.41576 0.0948-1.8519-1.7501-2.4331-3.1256-0.21523-0.50932-0.70108-1.3363-1.0797-1.8377-0.41114-0.54448-0.68836-1.2557-0.68836-1.7661v-0.85447l-1.1859 0.695c-1.0807 0.63336-1.4669 0.70006-4.3532 0.75198-1.742 0.0313-3.4512-0.051-3.7982-0.18294l-0.63097-0.2399 0.53606-0.73038c0.29484-0.40169 0.65736-1.3762 0.80562-2.1656 0.14825-0.78936 0.54949-1.9204 0.89163-2.5135s0.70589-1.4263 0.80832-1.8515c0.10243-0.42521 0.61881-1.1694 1.1475-1.6536 0.73179-0.67029 0.84723-0.88048 0.48358-0.88048-1.3986 0-6.4467-3.812-5.5061-4.1578 0.18552-0.0682 0.50299-0.52057 0.7055-1.0052 0.62664-1.4998 1.1683-1.6746 5.4736-1.7661l3.8705-0.0823-0.23252-0.61253c-0.3271-0.8617-0.28936-3.1477 0.0633-3.8366 0.16273-0.31787 0.72828-1.0396 1.2568-1.6039l0.96091-1.026-3.4396 0.16092c-6.1309 0.28681-10.638 1.3882-11.355 2.7748-0.34316 0.66358-0.96447 2.6952-1.3216 4.3213-0.3427 1.5605-2.466 3.1934-5.0547 3.8873-0.57965 0.15534-2.3041 0.46487-3.832 0.68784-3.7436 0.54623-6.1405 1.344-8.1296 2.7059-0.91297 0.62503-1.6599 1.0993-1.6599 1.0539 0-0.51184 1.0519-3.3527 1.7804-4.8083 1.913-3.8222 5.1712-7.4844 7.8484-8.8215 1.1661-0.5824 1.6988-1.077 0.78026-0.72451-0.24131 0.0926-2.0857 0.1729-4.0986 0.17843-3.6588 0.0101-3.6603 0.0103-5.1006 0.87763-0.79238 0.47715-2.4202 1.1913-3.6175 1.587-1.6797 0.55515-2.5081 1.0148-3.6279 2.0128-4.3776 3.9017-9.9172 4.752-14.809 2.2732-1.7276-0.87546-4.3487-2.8829-5.1699-3.9596l-0.68122-0.8931 1.005 0.34623c1.5167 0.52256 3.8975-0.0874 8.0376-2.0591l3.4976-1.6656h2.6527c2.8037 0 3.8719 0.29784 6.0057 1.6745 1.1339 0.73158 1.9199 0.67294 4.0228-0.30006l1.304-0.60341-1.4363-0.54642c-0.94433-0.35925-2.1614-0.56393-3.553-0.59753-4.3032-0.10388-6.7191-0.85947-15.679-4.9038-5.3336-2.4074-5.6629-2.52-6.35-2.1724-3.1461 1.5918-7.2015 1.081-9.9851-1.2577-0.67068-0.56348-0.71481-0.66836-0.28461-0.67638 0.49241-9e-3 0.49125-0.0291-0.0352-0.60484-1.4946-1.6345-1.8002-3.9794-0.87083-6.6807 0.57406-1.6685 0.67003-3.2165 0.28306-4.5658-0.13536-0.47199-0.21319-0.85815-0.17294-0.85815 0.0402 0 0.47841 0.20836 0.97371 0.46302 0.71027 0.36518 1.5714 0.46304 4.0756 0.46318 2.7814 1.3e-4 3.3287 0.0758 4.415 0.61076 1.6918 0.83315 3.0744 2.4148 3.2901 3.7639l0.17175 1.0741 0.62461-0.58677c0.34353-0.32274 0.69733-0.51406 0.78623-0.42516s0.22143 1.151 0.29453 2.3602c0.1095 1.8113 0.0357 2.4522-0.41889 3.638-0.30349 0.79169-0.52485 1.4515-0.49193 1.4664 0.0329 0.0148 2.2625 1.0205 4.9547 2.2349 5.4875 2.4754 10.032 4.1237 12.097 4.3876l1.3815 0.17653-1.2004-1.7901c-0.66023-0.98454-1.723-2.3714-2.3617-3.0818-0.63873-0.71041-1.4941-1.9694-1.9009-2.7977-0.65859-1.3411-0.73748-1.7813-0.72036-4.0196 0.0231-3.0242 0.67357-4.9997 2.6006-7.8984 1.4049-2.1133 2.4472-2.9986 1.936-1.6443-0.42181 1.1175 0.30938 2.5569 2.8002 5.5123 3.0912 3.6678 3.687 5.4793 2.5938 7.8864-0.50838 1.1193-2.0721 2.879-3.1824 3.5812l-0.64078 0.40523 0.83984 1.2207c1.309 1.9026 3.7193 3.3299 6.8555 4.0597 1.8031 0.41955 8.2463 0.58087 8.8286 0.22101 0.15638-0.0966-0.29509-0.5048-1.01-0.9131-2.2768-1.3004-3.8884-3.4842-4.5418-6.1546-0.41725-1.7053-1.8994-10.319-1.7938-10.424 0.24228-0.24228 10.456 4.65 11.719 5.6134l0.83623 0.63783 0.46246-1.8871c0.93374-3.8102 2.8097-6.561 5.3628-7.8635l1.033-0.52702 0.15503 1.8492c0.15946 1.9021 0.68209 3.2444 2.3599 6.0611 0.7757 1.3023 0.86611 1.6638 0.86015 3.4396-8e-3 2.2467-0.48299 3.3964-2.5837 6.2477l-1.1917 1.6174 2.8171 0.13989c1.5494 0.0769 3.3529 0.32962 4.0077 0.5615 0.98664 0.34938 2.5439 0.42227 9.0894 0.42545 8.3686 4e-3 13.878-0.30337 18.427-1.0284l2.7781-0.44272-2.5136-0.59238c-3.1593-0.74459-6.2382-2.003-9.0545-3.7008l-2.1903-1.3204-2.9104-0.15179c-5.6073-0.29244-9.9424-1.9982-11.505-4.527-1.0469-1.6939-0.39144-3.8643 1.2777-4.231 0.41041-0.0901 1.2689-0.0464 1.9078 0.0971 0.63889 0.14357 1.1807 0.23794 1.204 0.20974 0.0233-0.0282 0.11919-0.41037 0.21304-0.84929 0.16854-0.78824 0.15196-0.80229-1.3582-1.1491-6.4691-1.4858-10.329-5.689-7.5887-8.2632 1.355-1.2727 3.6575-0.63664 6.9142 1.9101 1.8194 1.4228 1.9239 1.4706 1.9239 0.87982 0-0.66585 1.2331-1.7078 2.0211-1.7078 1.2285 0 2.8247 0.96115 3.6128 2.1755 0.88935 1.3702 1.7383 4.0162 1.9556 6.095 0.12097 1.1574 0.40751 1.9127 1.172 3.0892 0.55655 0.85651 1.3747 2.2712 1.8181 3.1438 0.60475 1.1901 1.1192 1.7858 2.0586 2.3843 4.7417 3.0206 10.173 4.6003 15.937 4.6352 2.8768 0.0175 3.2258-0.0415 6.4004-1.0792 6.2477-2.0424 11.835-3.2465 17.751-3.8254l3.132-0.3065-3.5216-1.2356c-6.243-2.1905-12.216-4.9696-15.648-7.2812-1.6262-1.0951-1.8314-1.1277-1.4928-0.23719 0.33366 0.87759 0.32924 2.2746-0.01 3.1669-0.14743 0.38777-0.49734 1.7556-0.77757 3.0396-0.28024 1.284-0.80328 2.7902-1.1623 3.3471-0.94068 1.4591-2.2667 2.9233-2.2792 2.5168-6e-3 -0.19132-0.26742-0.94449-0.58113-1.6737-0.45668-1.0616-0.95195-1.6081-2.4845-2.7414-2.8848-2.1334-3.82-4.3811-2.8619-6.878 0.13023-0.33938-0.22405-0.24297-1.5208 0.41386-1.8893 0.95697-2.9543 1.0563-5.9035 0.55033-3.1689-0.54364-4.8733-1.8839-4.3812-3.4453 0.12039-0.38204 0.28967-1.1233 0.37617-1.6472 0.21026-1.2736 1.7138-2.7461 3.3634-3.2941l1.2948-0.43005-0.68503-0.53885c-0.37676-0.29636-0.99328-1.03-1.37-1.6304-0.37675-0.60034-1.2075-1.7057-1.8462-2.4565-1.5605-1.8344-1.818-2.7866-1.1352-4.1971 0.28949-0.59801 0.52635-1.2447 0.52635-1.4371 0-0.83219 5.3014 0.5279 7.1284 1.8288l0.74166 0.52811 0.13693-1.2148c0.0761-0.6748 0.38895-1.5249 0.70384-1.9122 0.3118-0.38356 0.81753-1.2278 1.1238-1.8762s1.1193-1.7794 1.8067-2.5135c0.68737-0.73409 1.3556-1.6612 1.4849-2.0603l0.23517-0.72554 0.83902 0.51051c0.46147 0.28081 1.1679 1.0836 1.5698 1.7839 0.40192 0.70035 1.123 1.6072 1.6024 2.0153 0.86608 0.7372 1.6774 2.705 1.6774 4.0686 0 0.72591 0.18647 0.76615 0.83416 0.18 0.29784-0.26956 1.3562-0.5397 2.799-0.71443 2.4888-0.30139 6.8589-0.35454 7.1268-0.0867 0.0896 0.0896-0.10596 0.38076-0.43467 0.64693-0.43613 0.35317-0.69714 1.0164-0.9657 2.454-0.24663 1.3202-0.62535 2.3382-1.1481 3.086-0.83201 1.1902-0.82362 1.2243 0.37144 1.5109 0.42769 0.10255 1.137 0.44238 1.5762 0.75515 0.55207 0.39309 1.3127 0.6014 2.4635 0.67469 0.9157 0.0583 1.6649 0.16441 1.6649 0.23579 0 0.0714-0.35365 0.8708-0.78588 1.7765-0.59694 1.2508-1.2966 2.1078-2.9102 3.5648-1.2398 1.1194-2.5083 2.0242-3.0465 2.1728-1.0792 0.29798-2.5266-0.0246-4.4229-0.98544-1.8533-0.93914-1.9016-0.75488-0.0794 0.30308 2.5532 1.4824 7.2362 3.7014 10.483 4.9672 4.6962 1.8311 13.476 4.4025 15.05 4.408 0.66077 3e-3 0.66064 3e-3 -0.13229-0.52337-0.43656-0.28914-0.99764-0.52647-1.2468-0.52742-1.1262-4e-3 -3.4754-1.1832-4.8362-2.4269-1.7626-1.6109-2.8565-3.7731-3.314-6.5504-0.38353-2.3283-0.16819-5.8417 0.42035-6.858l0.40707-0.70295-0.1331 0.82368c-0.22459 1.3898 1.0325 2.3029 5.1839 3.7652 3.055 1.0762 4.2385 1.704 5.0661 2.6876 1.369 1.627 1.5316 4.33 0.41262 6.8622-0.41998 0.95041-0.45447 1.2365-0.18102 1.5018 0.52525 0.50962 3.5141 1.4251 4.6528 1.4251 2.6281 0 8.8992-2.2201 14.045-4.9724 4.0883-2.1865 7.2057-3.4869 10.742-4.4808l2.5746-0.72364-2.2124-0.44804c-6.5183-1.32-12.25-4.0552-15.504-7.3989-0.76171-0.78272-1.5468-1.649-1.7447-1.9251-0.34425-0.48027-0.41497-0.48313-1.6388-0.0661-1.5936 0.54298-4.4629 0.56261-5.9423 0.0407-1.5148-0.53446-3.986-2.3479-3.3629-2.4679 0.40591-0.0782 0.38271-0.18039-0.19752-0.86995-1.2899-1.533-1.5017-3.4951-0.65721-6.0883 0.42037-1.2908 0.52468-2.1606 0.44314-3.6953l-0.10664-2.0072 0.81364 0.41966c0.59076 0.30469 1.6481 0.42841 3.8602 0.45167 3.4712 0.0365 5.122 0.54877 6.5646 2.0371 0.81065 0.83637 1.7371 2.8986 1.437 3.1986-0.0859 0.0859-0.0438 0.15621 0.0937 0.15621 0.13743 0 0.4793-0.26789 0.75971-0.59531l0.50983-0.59531 0.18405 0.66146c0.34476 1.239 0.24375 4.3833-0.18084 5.6294-0.24966 0.73271-0.82206 1.5911-1.4231 2.1341-0.55297 0.49959-0.93058 1.0182-0.83912 1.1525 0.36802 0.5403 3.7326 2.7276 5.7225 3.7202 5.4892 2.738 15.327 5.4736 21.647 6.0192 1.1375 0.0982 3.0425 0.44955 4.2333 0.78078 1.1909 0.33121 3.6886 1.0306 5.5506 1.5542 5.9315 1.6679 12 2.2327 14.342 1.3348 3.4244-1.3131 5.1587-1.7316 7.8052-1.8834 2.2796-0.13081 2.6357-0.20445 1.9844-0.4104-1.2443-0.39344-7.95-0.33687-10.186 0.0859-2.7799 0.52554-8.538 0.46408-11.504-0.12282-3.4488-0.68236-5.4529-1.3504-8.78-2.9264-3.2552-1.542-5.094-2.6822-7.9149-4.9076-2.1806-1.7204-6.1487-4.2411-10.362-6.5825-1.636-0.90918-3.027-1.738-3.0911-1.8417-0.0641-0.10377 1.1553-0.0312 2.7099 0.16123 3.4133 0.42257 6.4282 0.17201 12.352-1.0264 5.0881-1.0294 11.558-1.3048 15.481-0.65886 7.4544 1.2274 13.332 4.1222 18.605 9.1625 2.5202 2.4093 5.2688 5.9607 6.4523 8.3369l0.65892 1.3229 3.214 1.0938c1.7677 0.60161 5.1189 1.8694 7.4473 2.8173 2.3283 0.94792 4.531 1.8048 4.8948 1.9041 0.81105 0.22148-3.5786-4.1615-6.75-6.7397-2.7655-2.2482-9.1615-7.7371-12.168-10.442-4.1098-3.6979-4.6097-4.0239-7.9788-5.2044-11.527-4.0387-16.078-7.919-12.285-10.475 0.49254-0.33192 1.2946-0.60349 1.7824-0.60349 0.48781 0 0.88692-0.10541 0.88692-0.23423 0-0.56819-3.5328-3.4401-5.5229-4.4898l-2.1845-1.1522-2.5624 0.85428c-4.8628 1.6212-8.5312 1.3542-9.5069-0.69178-0.37824-0.79316-0.37634-0.92543 0.0221-1.5336 0.51278-0.78261 1.65-1.0749 4.2097-1.0821 0.98191-3e-3 1.7856-0.0783 1.7859-0.16798 7.9e-4 -0.22985-2.7491-1.2051-5.0767-1.8004-3.4146-0.87331-4.1571-0.90651-6.914-0.30921-2.81 0.6088-5.6167 0.71628-6.6315 0.25392-0.99748-0.45448-1.3623-1.5707-0.84219-2.5765 0.23125-0.44717 0.64953-0.93567 0.92949-1.0855 0.82517-0.44159 2.827-0.3134 4.453 0.28519 1.5226 0.56052 2.4722 0.75499 6.1593 1.2614 1.0993 0.151 2.2304 0.35888 2.5135 0.46197 0.28314 0.10308-0.22773-0.5941-1.1353-1.5493-2.304-2.425-2.7488-3.8152-1.574-4.9189 1.6399-1.5406 4.0528-0.0153 6.6248 4.1872 0.75697 1.2369 1.6033 2.6858 1.8807 3.2197 0.43893 0.84479 0.88438 1.1416 3.4323 2.2871 1.6104 0.72396 2.9707 1.2762 3.0229 1.2273 0.0523-0.049-0.38275-0.6019-0.96667-1.2288-1.7545-1.8835-5.0099-5.7371-7.2213-8.5481-1.1448-1.4552-2.6834-3.3007-3.4192-4.101-2.3285-2.533-3.7841-4.8672-3.8105-6.1108-0.0502-2.3642 2.4873-2.6574 4.0715-0.47043 0.79566 1.0984 1.6382 3.344 2.1285 5.6733 0.2221 1.0551 0.7451 1.9353 2.4535 4.129 1.1942 1.5334 2.6694 3.3707 3.2782 4.083l1.107 1.295-1.1686-3.5078c-1.171-3.5152-2.236-8.0567-2.236-9.5348 0-0.43376-0.35946-1.5568-0.79881-2.4957-0.43934-0.93884-0.93753-2.3684-1.1071-3.1767-0.26773-1.2764-0.24923-1.5598 0.1407-2.155 0.88653-1.353 2.9902-1.1038 3.7934 0.44942 0.53022 1.0253 0.56556 3.4022 0.0924 6.2177-0.43812 2.6073-0.21271 4.3717 1.0778 8.4357 0.87254 2.7479 1.2995 3.5456 1.2995 2.4279 0-0.94429 1.3246-3.4182 2.151-4.0174 0.81076-0.58777 1.7067-0.42156 1.9556 0.36285 0.22555 0.71062-0.23224 2.0287-1.7737 5.1069l-1.3075 2.611 0.69466 1.6223c0.41832 0.97696 1.3193 2.3065 2.2649 3.3421l1.5702 1.7198-0.6977-1.5593c-1.2396-2.7704-1.1787-4.8872 0.16031-5.5796 1.6134-0.83431 3.9139-0.32454 4.881 1.0816 1.0603 1.5415 1.3209 5.6948 0.56246 8.9651l-0.40171 1.7322 3.9796 3.8978c2.1888 2.1438 4.09 3.9366 4.225 3.9841 0.13496 0.0475-0.0511-0.58417-0.41355-1.4036-1.5799-3.5724-2.3914-8.3132-1.953-11.409 0.62524-4.415 2.9313-6.611 5.5307-5.2669 1.7206 0.88976 2.0522 2.7568 0.95323 5.3678-2.0119 4.78-1.9846 12.804 0.0554 16.305 0.46678 0.80092 6.2964 6.1699 11.033 10.161l2.3812 2.0065-1.6059-1.7056c-1.7151-1.8217-2.8789-3.9294-3.1564-5.7166l-0.17092-1.1006 2.6279 0.14478c2.4152 0.13309 2.7455 0.0909 4.0819-0.52086 0.79973-0.36613 2.1411-1.2879 2.9808-2.0484 1.529-1.3847 3.7743-2.6357 4.7676-2.6562 0.45329-9e-3 0.41535-0.095-0.26458-0.59677-4.409-3.2539-7.4416-7.3934-8.8458-12.074-0.32361-1.0788-0.96157-2.7456-1.4177-3.7042-0.59309-1.2463-0.85773-2.2327-0.92887-3.4626-0.0878-1.5178-0.0169-1.841 0.60422-2.7513l0.70377-1.0315-0.44328-1.6376c-0.60918-2.2505-0.24667-3.9088 1.4375-6.5759 0.70104-1.1102 1.4782-2.7049 1.7269-3.5439 0.87403-2.9476 1.2556-3.7656 2.0802-4.4594 0.73274-0.61655 0.99521-0.68326 2.1998-0.55893l1.3678 0.14118 0.49297-1.1022c0.79243-1.7718 2.4579-3.2534 4.2435-3.7751 1.7095-0.49948 2.8669-0.38025 6.701 0.69025 1.2713 0.35494 3.363 0.63468 5.8208 0.77838 2.1894 0.12803 4.4612 0.41513 5.2917 0.66876 1.7573 0.53671 4.4923 2.1331 5.9987 3.5014 0.6072 0.5515 2.3336 2.0602 3.8365 3.3526 1.5029 1.2924 3.2981 2.9522 3.9893 3.6884l1.2568 1.3386v-2.1578c0-2.5172 0.50022-4.2592 1.6364-5.6985 0.43791-0.55472 0.84632-1.3882 0.90757-1.8521 0.28509-2.1593 0.45744-2.7815 1.0977-3.9625 0.37774-0.69681 1.1917-1.7324 1.8089-2.3012 1.0799-0.99539 4.0237-2.6421 5.3974-3.0192 0.38436-0.10552 1.1686-0.86966 1.8721-1.8242 4.0307-5.4692 11.979-7.8207 21.09-6.2393 1.5337 0.2662 1.701 0.36348 2.1522 1.252 0.26909 0.52989 0.62966 1.6438 0.80127 2.4753 0.4169 2.0202 2.4109 5.872 4.6312 8.9461 5.3731 7.4393 8.5906 19.369 7.1265 26.424-0.10613 0.51134 0.23934 0.2903 1.7897-1.1451 2.1006-1.9448 5.4557-3.7707 8.2946-4.5141 2.7182-0.71176 7.0378-1.0035 9.712-0.6559 2.8931 0.376 3.7749 0.22881 5.4724-0.91353l1.3181-0.88702 0.41388 1.0344c0.46702 1.1672 0.53682 2.7825 0.16275 3.7664-0.2235 0.58785-0.14933 0.72054 0.67442 1.2066 1.9425 1.1461 2.1508 3.7459 0.68011 8.4899-0.88236 2.8463-1.6724 6.6469-2.3059 11.093-0.79026 5.5462-2.1844 9.2796-5.1435 13.774-0.91014 1.3824-1.3727 2.2654-1.0279 1.9622 0.34483-0.30329 1.9962-1.7199 3.6697-3.1481s3.5785-3.0852 4.2333-3.6822 2.0739-1.8593 3.1534-2.8051c1.3936-1.2209 2.1443-2.1157 2.5888-3.0861 1.8742-4.0914 1.8583-10.763-0.037-15.501-1.4448-3.6114-0.4835-6.0193 2.4031-6.0193 2.3886 0 3.8017 2.3888 4.0044 6.7697 0.14642 3.163-0.34141 5.9603-1.6456 9.4361-0.47775 1.2733-0.80348 2.3151-0.72384 2.3151 0.0796 0 1.9469-1.7908 4.1495-3.9795l4.0047-3.9795-0.37158-1.6429c-0.20437-0.90358-0.38693-2.8335-0.40569-4.2887-0.0407-3.1565 0.53099-4.7984 1.9779-5.6805 1.3215-0.80569 3.3626-0.73753 4.3138 0.14401 0.68019 0.63037 0.72448 0.79327 0.5933 2.1828-0.0779 0.82587-0.41595 2.0969-0.75107 2.8245-0.33515 0.7276-0.65897 1.442-0.71964 1.5875-0.0606 0.14552 0.50551-0.39026 1.2582-1.1906 0.75263-0.80036 1.7858-2.3042 2.2959-3.3417l0.92752-1.8865-1.4838-2.9274c-1.598-3.1527-1.9918-4.5593-1.4571-5.2035 0.94938-1.144 2.6976 0.27697 3.5849 2.9139 0.34425 1.023 0.68093 1.6646 0.75867 1.4458 0.65331-1.838 1.4922-4.7151 1.8699-6.4127 0.47029-2.1143 0.4564-2.833-0.12327-6.3764-0.60185-3.6789 0.36541-5.9926 2.5053-5.9926 0.89254 0 1.5418 0.52925 1.8361 1.4967 0.22196 0.7297-0.26699 2.6901-1.1828 4.7423-0.39486 0.88485-0.80401 2.3731-0.90924 3.3073-0.24535 2.1786-1.451 6.8916-2.4936 9.748-0.44744 1.2258-0.77817 2.264-0.73496 2.3072 0.0597 0.0597 4.5424-5.4786 6.0614-7.4887 0.12761-0.16889 0.52133-1.3881 0.87489-2.7093 1.0636-3.9741 2.3097-5.9269 3.9975-6.2645 0.61846-0.1237 0.97547-0.0132 1.5469 0.47818 0.64413 0.55406 0.7194 0.76411 0.56629 1.5803-0.22366 1.1922-1.8407 3.7043-3.6609 5.6876-0.77475 0.8441-2.7974 3.2678-4.4947 5.3861-1.6974 2.1182-4.0696 4.9644-5.2715 6.3247l-2.1854 2.4734 1.4402-0.18089c0.79211-0.0995 2.0418-0.41987 2.7772-0.71192 1.2265-0.48715 1.4088-0.67789 2.2058-2.3074 3.3406-6.8302 6.7738-9.8306 8.6942-7.5982 1.3763 1.6 0.42355 3.1736-4.267 7.047-0.12768 0.10544 0.88435-0.0924 2.249-0.43968 1.3646-0.34727 3.136-0.71237 3.9363-0.81132 0.80037-0.099 2.3136-0.52261 3.3626-0.94142 2.0556-0.82065 4.1049-1.0226 5.0803-0.50061 0.68842 0.36843 1.3347 1.7212 1.1534 2.4144-0.39709 1.5184-3.1226 1.9476-7.0828 1.1152-2.1096-0.44339-2.5775-0.4613-4.101-0.15701-2.5954 0.51836-7.1422 2.0406-6.35 2.1259 3.3701 0.36288 4.6189 1.1943 3.9238 2.6124-0.5643 1.1512-1.5702 1.7202-3.3216 1.879-1.639 0.14861-4.8724-0.40704-6.6586-1.1442-0.8582-0.35419-0.97269-0.32797-2.6458 0.60587-0.96184 0.53687-2.6901 1.5796-3.8406 2.3171-1.1505 0.73758-2.2048 1.3071-2.343 1.2656-0.27057-0.0813-0.98973 0.43031-0.98846 0.70313 0 0.0913 0.42058 0.17512 0.93366 0.18621 1.7061 0.0369 3.2694 1.7805 2.9054 3.2405-0.0971 0.38947-0.75938 1.2709-1.4717 1.9587-1.6443 1.5877-6.9019 4.1861-11.971 5.9161-2.3797 0.81222-3.7409 1.4162-3.9119 1.7358-0.1443 0.26961-0.38248 0.4902-0.52932 0.4902-0.14685 0-1.8393 1.4016-3.761 3.1146-6.416 5.7192-11.147 9.7419-17.591 14.956-1.2049 0.97504-2.072 1.7728-1.9268 1.7728 0.14512 0 2.3457-0.88726 4.8902-1.9717s5.6989-2.3048 7.01-2.712l2.3836-0.7403 0.83254-1.5875c3.373-6.4316 10.111-12.401 17.179-15.222 6.4966-2.5919 15.151-3.0851 23.6-1.3446 5.7193 1.1782 8.4756 1.4002 11.987 0.96526 1.6007-0.19828 2.9385-0.3328 2.9728-0.2989 0.0344 0.0339-0.96856 0.63566-2.2286 1.3373-3.9726 2.212-8.2615 4.8407-10.039 6.1528-0.9433 0.69636-2.5716 1.8986-3.6185 2.6717-2.0514 1.5148-7.2481 4.1689-9.8744 5.043-3.389 1.1279-6.9254 1.6802-10.814 1.6888-2.0373 5e-3 -4.24-0.12774-4.8948-0.29387-2.0768-0.52692-7.6272-0.68815-9.6773-0.28115l-1.8321 0.36373 2.9104 0.18028c2.8013 0.17354 4.2729 0.53036 8.0698 1.9567 2.4646 0.92588 10.098-0.047 16.486-2.1011 3.4092-1.0963 4.821-1.4003 8.0006-1.7229 3.1992-0.32459 10.356-1.9429 14.257-3.2235 3.699-1.2145 7.8644-3.1485 10.239-4.7538 2.4188-1.6354 2.466-1.7415 1.2785-2.8712-1.3573-1.2913-1.9648-3.3775-1.7625-6.0526 0.0814-1.0764 0.21632-2.0253 0.29983-2.1088 0.0835-0.0835 0.44897 0.1274 0.81219 0.46863l0.66042 0.62042v-0.58581c0-0.77221 0.84881-2.4017 1.6312-3.1315 1.4016-1.3073 3.0424-1.772 6.3063-1.7859 2.3594-0.0101 3.245-0.11695 3.9432-0.47599 0.4953-0.25466 0.93348-0.46302 0.97372-0.46302 0.0402 0-0.0376 0.38616-0.17293 0.85815-0.39053 1.3616-0.28943 2.904 0.30083 4.5905 0.40026 1.1436 0.52239 2.037 0.45537 3.331-0.0788 1.5218-0.21 1.9156-0.94112 2.8254-0.71295 0.88718-0.77703 1.0711-0.39846 1.144 0.61372 0.11819-1.8739 1.9377-3.3718 2.4662-1.4586 0.51464-3.6802 0.5021-5.582-0.0315l-1.5206-0.42667-0.87797 1.0103c-3.7651 4.3326-9.0471 7.1154-16.566 8.728l-2.1946 0.47066 2.515 0.74483c3.6892 1.0926 6.0139 2.0732 11.088 4.6775 6.0791 3.12 11.351 4.8569 14.069 4.6349 1.4286-0.11671 3.7258-0.83674 4.0972-1.2843 0.1343-0.16185 0.0217-0.87834-0.27159-1.728-0.66472-1.9257-0.67239-4.4781-0.0172-5.7616 0.84608-1.6578 1.6079-2.139 5.7041-3.603 3.3595-1.2008 4.858-2.0923 5.0602-3.0106 0.0869-0.39489 0.19042-0.83706 0.22992-0.98259 0.20696-0.762 0.67287 2.171 0.67414 4.2439 3e-3 3.9173-0.98708 6.8508-2.9821 8.8407-1.4367 1.4331-2.8593 2.2564-4.7325 2.739-0.82407 0.2123-1.7733 0.57859-2.1094 0.81399-0.5965 0.41783-0.5978 0.42802-0.0544 0.42802 0.92964 0 8.2082-2.0045 11.864-3.2674 4.1571-1.436 6.8668-2.5852 11.125-4.7182 3.6095-1.808 5.5734-3.121 2.5085-1.6771-1.4119 0.66519-2.3432 0.93139-3.2585 0.93139-1.8114 0-2.0604-0.15801-5.4128-3.4358-0.88697-0.86725-2.1757-3.175-2.1814-3.9064-3e-3 -0.21868 0.4246-0.33073 1.2583-0.33073 0.77949 0 1.6129-0.20267 2.1828-0.53083 1.3071-0.75261 1.8728-0.99687 2.7439-1.1847l0.76361-0.16467-0.66513-0.71353c-0.9462-1.015-1.1864-1.5764-1.5378-3.594-0.229-1.315-0.4867-1.9475-0.9798-2.4047l-0.66911-0.62044 1.5216-0.19011c0.83693-0.10456 2.1934-0.1026 3.0144 4e-3 0.821 0.10697 2.272 0.27115 3.2245 0.36478 0.95248 0.0937 2.0496 0.37865 2.4381 0.63331 0.38846 0.25466 0.77005 0.46302 0.84791 0.46302 0.0779 0 0.14423-0.50602 0.14743-1.1245 7e-3 -1.4296 0.80457-3.1988 1.7082-3.7909 0.38502-0.25228 0.99449-1.0398 1.3544-1.75 0.36668-0.72359 1.0252-1.5168 1.4978-1.8042l0.84347-0.51294 0.47874 0.98422c0.26331 0.54134 0.93818 1.4611 1.4997 2.0438 0.56155 0.58278 1.2302 1.4763 1.4859 1.9856 0.25567 0.50932 0.76282 1.318 1.127 1.7971 0.42238 0.55563 0.70718 1.3397 0.7865 2.1654l0.12438 1.2944 0.96054-0.63566c1.2376-0.819 3.7434-1.6782 5.4443-1.8666l1.3364-0.14809 0.63381 1.3154c0.44207 0.91744 0.58537 1.5578 0.47363 2.1165-0.1407 0.70348-1.9278 3.2052-4.396 6.1539l-0.79312 0.94753 1.448 0.60012c1.9102 0.79177 2.8808 1.9883 3.2869 4.0521 0.28667 1.457 0.26908 1.6667-0.19204 2.2908-0.69657 0.94279-1.9671 1.4996-4.216 1.8477-3.0021 0.46466-4.071 0.37992-5.724-0.45389l-1.4837-0.74838 0.1587 1.5182c0.1987 1.9011-0.51853 3.5569-2.0859 4.8154-3.0905 2.4816-3.9113 3.4626-3.9113 4.675 0 0.76999-0.35859 0.67416-1.2418-0.33181-1.3167-1.4997-1.8828-2.6346-2.3367-4.6849-0.24127-1.0899-0.61786-2.6171-0.83685-3.3939-0.3148-1.1166-0.33742-1.6537-0.10806-2.5646 0.15957-0.63373 0.29012-1.223 0.29012-1.3095 0-0.0865-0.68461 0.30408-1.5214 0.86799-3.5795 2.4123-9.7167 5.2898-15.941 7.4741l-3.3073 1.1606 3.3073 0.32782c1.819 0.18032 4.0812 0.45734 5.0271 0.61564 2.8171 0.47143 8.8993 2.0281 12.429 3.1809 3.0955 1.0111 3.4898 1.0776 6.3525 1.0716 5.7882-0.0124 11.325-1.595 15.94-4.5563 0.95483-0.6127 1.4891-1.2169 2.0457-2.3135 0.41434-0.81629 1.2408-2.1986 1.8365-3.0717 0.59574-0.87312 1.0834-1.8604 1.0838-2.194 0-1.0955 0.8256-4.6612 1.3586-5.8758 0.93596-2.1329 2.5761-3.4396 4.3174-3.4396 1.0573 0 1.9975 0.74724 1.9975 1.5875 0 0.29104 0.0638 0.52917 0.1419 0.52917 0.078 0 0.94122-0.61376 1.9182-1.3639 1.9455-1.4938 4.0806-2.5982 5.0306-2.6023 0.82053-3e-3 2.0919 0.68064 2.4264 1.3057 0.38856 0.72605 0.3366 2.0335-0.1156 2.9079-0.99282 1.9199-4.5215 3.9994-8.1304 4.7913-1.4931 0.32763-1.5055 0.33824-1.3511 1.1517 0.20399 1.0742 0.18309 1.0613 1.1642 0.7193 1.1448-0.39907 1.9699-0.37121 2.8756 0.0971 0.85093 0.44003 1.4757 1.9124 1.1916 2.8078-0.25374 0.79947-1.9234 2.5806-3.1375 3.3471-2.0893 1.3189-6.7691 2.4461-10.163 2.4478-1.5293 0-1.8472 0.10959-3.8611 1.3216-2.7359 1.6466-5.3877 2.7536-8.6109 3.5946-1.3733 0.35829-2.5373 0.69193-2.5868 0.74141-0.1884 0.18838 6.577 0.96824 10.375 1.1959 2.1828 0.13087 7.3025 0.20625 11.377 0.16751 5.9334-0.0564 7.6964-0.15647 8.855-0.50263 0.88741-0.26511 2.3974-0.43222 3.9056-0.43222h2.4589l-1.1305-1.3891c-3.4504-4.2396-3.865-7.3757-1.4637-11.071 1.2873-1.9812 1.7943-3.5186 1.7943-5.4411 0-0.77724 0.0643-1.4132 0.14282-1.4132 0.0786 0 0.61926 0.24304 1.2016 0.54012 2.3538 1.2008 4.2695 4.0768 5.2142 7.8281l0.47495 1.8859 0.6504-0.52707c1.1858-0.961 11.566-5.9107 11.834-5.6428 0.12658 0.1266-0.1918 2.188-1.1599 7.5098-0.91056 5.0058-2.2642 7.3583-5.198 9.0339-1.1717 0.66918-1.2309 0.748-0.67397 0.89715 1.1426 0.30604 6.6895 0.16293 8.4925-0.2191 3.1572-0.669 5.8794-2.3228 7.1182-4.3244l0.54333-0.87786-1.4978-1.335c-1.9268-1.7173-2.6439-3.0748-2.6306-4.9791 0.0127-1.8298 0.36534-2.5007 2.8563-5.4359 1.1059-1.3031 2.3199-2.9942 2.6978-3.7578 0.65204-1.3176 0.66497-1.4223 0.25336-2.0505-0.6114-0.93311-0.14986-0.82259 0.82645 0.19791 1.1355 1.1869 2.5606 3.7096 3.2531 5.7587 0.47588 1.4081 0.56002 2.1429 0.46908 4.097-0.13308 2.8598-0.71667 4.1804-2.957 6.6912-0.81623 0.91477-1.484 1.7686-1.484 1.8975s-0.41593 0.77922-0.9243 1.4452c-0.50837 0.66599-0.89532 1.2107-0.85989 1.2105 0.0354-1.9e-4 1.0305-0.1704 2.2113-0.3782 2.4731-0.43524 4.9677-1.3601 11.549-4.2817 4.1708-1.8515 4.6819-2.1462 4.5367-2.6158-0.75825-2.452-0.95224-3.6636-0.79195-4.9466 0.0968-0.77439 0.29225-1.5855 0.43447-1.8026 0.22503-0.34343 0.30459-0.33454 0.61341 0.0684 0.51567 0.6728 0.63942 0.58872 0.97366-0.66146 0.40249-1.5054 2.1478-3.1707 3.9504-3.7694 1.0644-0.35356 1.8601-0.41973 3.5326-0.29384 1.7521 0.13187 2.4322 0.0663 3.611-0.34838 0.7988-0.28096 1.4726-0.48974 1.4974-0.46395 0.0246 0.0259-0.0817 0.68522-0.23648 1.4654-0.24601 1.2398-0.2014 1.6896 0.35428 3.5719 0.99435 3.3682 0.79144 5.1777-0.76814 6.8498-0.61984 0.66458-0.63424 0.72842-0.16611 0.73712 0.43654 8e-3 0.39481 0.10981-0.28122 0.6858-0.43657 0.37196-1.4486 0.99277-2.249 1.3795-1.9448 0.93985-5.0019 0.97478-7.0297 0.0803l-1.3411-0.59158-3.2891 1.4398c-1.809 0.79187-4.4632 1.9871-5.8981 2.6561-5.0423 2.3506-8.7667 3.3364-12.606 3.3364-1.2446 0-2.1686 0.17026-3.057 0.56319l-1.2732 0.56322 0.90884 0.47795c0.49985 0.26289 1.4686 0.61523 2.1527 0.783 1.1698 0.28689 1.2982 0.26366 2.1551-0.38999 1.6531-1.2609 3.7066-1.8008 6.3906-1.6802 2.2671 0.10184 2.5461 0.18468 5.8208 1.7282 1.8918 0.89165 3.9158 1.7481 4.4979 1.9032 1.348 0.35912 3.1936 0.36439 3.8538 0.0111 0.91178-0.48798 0.54356 0.17176-0.79441 1.4233-1.6707 1.5628-4.1594 3.1703-6.0636 3.9167-2.156 0.8451-5.859 0.85119-8.2826 0.0138-1.7553-0.60661-4.0191-2.0231-5.7789-3.616-0.53803-0.487-1.5912-1.0349-2.5135-1.3076-0.87312-0.25821-2.4392-0.92359-3.4801-1.4786l-1.8926-1.0092-4.0155-0.0909c-2.7666-0.0627-3.8721-9e-3 -3.5544 0.17365 4.5455 2.6079 7.9141 6.8535 9.7721 12.316 0.64159 1.8864 0.57023 2.2372-0.26691 1.3121-1.3551-1.4973-4.4878-2.6724-8.8094-3.3042-6.8587-1.0028-8.739-2.2861-9.5791-6.5374-0.46013-2.3286-1.1502-3.1515-3.2261-3.8473-1.9264-0.64564-6.7405-1.3245-10.27-1.4482l-2.249-0.0788 1.1246 1.1906c1.398 1.4801 1.7898 2.744 1.4056 4.5352-0.15473 0.72144-0.28117 1.3356-0.28099 1.3648 1.6e-4 0.0292 1.731 0.0721 3.8463 0.0953 4.4048 0.0483 4.6621 0.14291 5.6695 2.0846l0.65254 1.2578-1.1817 1.018c-1.3478 1.161-3.9299 2.609-4.6525 2.609-0.3656 0-0.24635 0.19777 0.48059 0.79698 0.546 0.45003 1.1045 1.2275 1.283 1.7859 0.17386 0.54393 0.53657 1.355 0.806 1.8023 0.26945 0.44733 0.62386 1.4594 0.78764 2.249 0.16375 0.78957 0.51408 1.8123 0.77853 2.2727l0.48083 0.83709-0.70522 0.26995c-0.38788 0.14849-2.0231 0.24056-3.6338 0.20458-2.5977-0.058-3.0685-0.14362-4.1672-0.75769l-1.2386-0.69228v0.71371c0 0.39254-0.28605 1.1346-0.63567 1.6492-0.34959 0.51451-0.88622 1.4685-1.1925 2.1201-0.61164 1.3012-2.0365 3.1527-2.4262 3.1527-0.13589 0-0.51419-0.3135-0.84063-0.69664zm1.5163-1.6714c0.51474-0.99544 0.52546-3.7577 0.0212-5.4337-0.21045-0.69922-0.26231-1.151-0.11525-1.004 0.14705 0.14706 0.53311 1.1055 0.85791 2.13l0.59052 1.8626 0.60725-0.8862c0.77335-1.1286 0.5887-2.1938-0.48718-2.8101-0.94657-0.54215-2.0788-2.2147-2.6585-3.927l-0.43673-1.29-0.29702 2.2199c-0.29337 2.1926-0.88812 3.8337-1.3894 3.8337-0.38769 0-0.31007 1.2148 0.14766 2.3103 0.35748 0.85561 2.4167 3.7752 2.6626 3.7752 0.0513 0 0.27498-0.35129 0.49699-0.7806zm-403.54-1.4545c0.99661-1.3238 1.3002-1.969 1.4259-3.0306 0.10053-0.84889 0.0592-1.3488-0.11155-1.3488-0.53647 0-1.209-2.0099-1.3696-4.0935l-0.16379-2.1242-0.46986 1.3625c-0.62817 1.8216-1.9203 3.7253-2.8573 4.2098-0.9175 0.47447-1.0232 1.5271-0.27666 2.7547 0.49959 0.82151 0.8369 0.81069 0.8369-0.0268 0-0.52486 1.0586-3.4933 1.1966-3.3553 0.0476 0.0476-0.0812 0.79999-0.28629 1.6719-0.49245 2.0937-0.4772 3.6842 0.0459 4.7865 0.23486 0.49493 0.50275 0.89445 0.59531 0.8878 0.0926-7e-3 0.73808-0.76893 1.4345-1.694zm394.41-1.0576c0.17455-0.21031 0.90599-0.57787 1.6254-0.81684 1.7048-0.56624 2.9916-2.1839 3.4282-4.3096 0.43958-2.1401 0.46963-2.1826 0.50189-0.70893 0.044 2.0118 0.47175 0.92237 0.68897-1.7548 0.15378-1.8952 0.11832-2.2894-0.21746-2.4182-0.42624-0.16356-1.63 1.1465-2.3758 2.5855-0.55562 1.0721-2.1515 2.68-3.1884 3.2125-0.8147 0.41833-0.80431 0.39306 0.26784-0.65196 0.92038-0.89704 2.4565-3.3221 2.4565-3.878 0-0.37761-3.7178 1.7864-4.3405 2.5265-0.7578 0.90059-0.73089 1.3915 0.0395 0.71948 0.25553-0.22294 0.76229-0.55028 1.1261-0.72742l0.66146-0.3221-0.70268 0.61883c-1.2882 1.1344-1.7202 2.8244-1.2649 4.9477 0.29655 1.3827 0.70292 1.6896 1.294 0.97731zm-386.05-1.0577c0.58675-2.3302 0.22082-4.0523-1.1198-5.2697-0.72358-0.65707-0.74618-0.71366-0.17176-0.42998 0.3638 0.17968 0.92935 0.57068 1.2568 0.86892 0.8203 0.74716 0.74981 0.14502-0.10146-0.86667-0.66267-0.78753-3.7198-2.557-3.9757-2.3012-0.28596 0.28596 0.77012 2.1244 1.9447 3.3853 1.1446 1.2287 1.1914 1.3245 0.46514 0.95195-0.94214-0.48329-2.4809-2.1653-3.9001-4.2632-1.4236-2.1044-1.7824-1.9876-1.7434 0.56724 0.0172 1.1278 0.12219 2.4077 0.23328 2.8443 0.19668 0.77292 0.20328 0.76599 0.25187-0.26459 0.0823-1.7447 0.50135-2.359 0.52328-0.767 0.0126 0.91451 0.23961 1.7676 0.70411 2.6458 0.95084 1.7978 1.3101 2.1395 2.7541 2.6191 0.69338 0.23029 1.4717 0.65193 1.7297 0.93697 0.67243 0.74303 0.81764 0.65997 1.1493-0.65725zm402.73-1.4642c0-0.14219-0.29766-0.45353-0.66146-0.69192-0.97419-0.6383-0.80568-0.96715 0.19844-0.38724 0.929 0.53649 4.1044 1.4886 4.3029 1.2901 0.2536-0.25361-0.65056-3.7314-1.0989-4.2269-0.84817-0.93726-4.3577-2.9529-6.68-3.8367-1.2533-0.47694-2.1151-0.87112-1.9153-0.87593 0.60098-0.0145 5.9224 1.8334 6.8465 2.3775 1.0927 0.64339 1.1691 0.12563 0.12853-0.87127-0.94916-0.90935-2.4877-1.4376-5.164-1.7732-3.1744-0.39804-3.5427-0.3674-3.7197 0.30949-0.19608 0.74985 0.91858 2.8104 2.4297 4.4914 0.63194 0.70303 1.03 1.2782 0.88467 1.2782-0.14539 0-1.0563-0.8554-2.0243-1.9009l-1.76-1.9009 0.54456 1.3816c0.29948 0.75983 0.54454 1.4325 0.54454 1.4948 0 0.30003 1.6847 1.9838 1.9849 1.9838 0.18844 0 1.0393 0.37137 1.8908 0.82524 2.1364 1.1388 3.268 1.4964 3.268 1.033zm-420.56-1.3471 1.5875-0.77195-0.85989 0.78817c-0.47295 0.43349-0.8599 0.86426-0.8599 0.95726 0 0.36544 1.7472-0.20894 2.9149-0.95827 0.67786-0.43497 1.4006-0.79131 1.6062-0.79184 0.86929-3e-3 2.0599-1.0699 2.7034-2.424 1.1832-2.49 1.1531-2.8363-0.1125-1.2934-0.63735 0.77705-1.5755 1.723-2.0849 2.1022l-0.92604 0.68943 0.93513-1.0617c2.0074-2.2792 3.3675-5.1006 2.6674-5.5332-0.46973-0.29033-5.5565 0.37398-7.0004 0.91421-1.3339 0.49908-2.5553 1.5266-2.5553 2.1497 0 0.12835 0.56554-0.052 1.2568-0.40074 1.5265-0.7702 5.5924-2.1388 5.7843-1.947 0.076 0.076-0.31629 0.28181-0.87174 0.45736-1.2449 0.39343-5.2101 2.491-6.3448 3.3564-0.92979 0.70911-1.0818 1.0028-1.412 2.7272-0.1254 0.65485-0.31478 1.4154-0.42085 1.69-0.17843 0.46204-0.0957 0.4853 1.1062 0.31078 0.71447-0.10374 2.0134-0.53599 2.8865-0.96057zm290.82-2.7815c-0.34141-1.0068-0.70762-2.2977-0.81377-2.8686-0.2521-1.356-2.3959-5.6071-4.5906-9.1032-6.0564-9.6477-13.683-15.633-22.666-17.787-2.8959-0.69434-3.0236-0.6595-1.5907 0.43424 1.7554 1.3399 2.3736 2.0986 3.4302 4.2102 0.64979 1.2985 1.0224 2.5243 1.2466 4.101 0.26574 1.8689 0.35269 2.1148 0.51448 1.4552 0.12888-0.52541 0.16899-0.21236 0.11864 0.92604-0.13719 3.1035 0.2839 6.208 1.0674 7.8689 0.96843 2.0531 3.3226 4.3732 5.4369 5.3583 1.5596 0.72665 4.9746 1.6982 4.9746 1.4152 0-0.07-0.36457-0.6572-0.81018-1.3049-1.2618-1.834-2.2944-4.2835-2.7458-6.5134-0.5721-2.8265-0.47638-3.676 0.14288-1.2679 1.3947 5.4235 4.1697 8.8977 7.9047 9.8962 2.2293 0.59597 5.3331 2.2229 7.3021 3.8276 0.86222 0.70271 1.5972 1.2562 1.6333 1.2299 0.0361-0.0262-0.21376-0.87151-0.55518-1.8784zm-156.14-2.3105c1.0186-0.50676 2.7092-1.1749 3.7569-1.4847 3.4605-1.0234 5.8224-3.9335 7.3283-9.029 0.7252-2.454 0.89876-1.9468 0.30028 0.87757-0.46482 2.1936-1.5669 4.7049-2.7379 6.239-0.48318 0.63301-0.83052 1.1989-0.77186 1.2576 0.23145 0.23146 4.2778-0.9819 5.5088-1.6519 1.7641-0.96012 4.0603-3.3478 4.8756-5.0697 0.8386-1.7712 1.2858-4.8438 1.1051-7.5923-0.13007-1.9785-0.11599-2.0562 0.21574-1.1906l0.35486 0.92604 0.0201-1.4733c0.0516-3.7731 2.1824-7.7125 5.3118-9.8201l0.66146-0.44548-1.0583 0.15152c-3.6442 0.52184-9.3265 2.8967-12.742 5.3254-2.574 1.8305-6.364 5.483-8.3877 8.0836-3.6943 4.7475-7.2992 11.276-8.1251 14.714-0.26225 1.0918-0.66717 2.4375-0.89983 2.9904l-0.42301 1.0053 1.9272-1.446c1.06-0.79531 2.7607-1.8606 3.7793-2.3674zm258.57-1.4383c-0.97428-1.0235-2.6455-3.9675-3.6842-6.4901-1.139-2.7661-2.7779-4.6038-4.9919-5.5974-0.89024-0.39952-1.6843-0.6608-1.7644-0.58063-0.28144 0.28141 2.7138 5.3067 4.0226 6.749 0.72761 0.80185 1.1443 1.355 0.92605 1.2292-1.1041-0.63608-3.0697-2.5067-4.4928-4.2759l-1.5926-1.9797 6e-3 1.0079c0.0127 2.2862 1.5828 5.4277 3.6986 7.3998 1.6383 1.5271 5.6391 3.1653 7.9209 3.2433l0.64481 0.022-0.6926-0.7276zm-363.66-0.21729c3.7977-0.98409 6.5378-3.0486 7.9866-6.0177 0.82817-1.6971 1.6374-4.9536 1.2269-4.9374-0.0871 3e-3 -0.51557 0.49093-0.95213 1.0833-1.041 1.4126-4.7954 4.9981-5.2226 4.9878-0.20804-5e-3 -0.17393-0.10139 0.0906-0.25604 0.9957-0.58203 4.9997-6.6598 4.9997-7.5891 0-0.46297-1.8069 0.20632-3.2645 1.2092-1.6014 1.1018-2.3866 2.2353-3.865 5.5796-0.70777 1.6011-1.84 3.6862-2.516 4.6336-1.4114 1.9779-1.3333 2.0452 1.5164 1.3067zm379.6-1.6976c0-0.38497-1.9501-1.5565-4.4174-2.6538-2.1362-0.95004-3.9377-2.0019-4.9753-2.9049-0.57462-0.50012-1.9902-0.93102-1.975-0.60122 0.0217 0.473 0.77629 1.4513 2.7735 3.5964 1.6924 1.8177 2.3345 2.3283 3.175 2.5251 1.4433 0.33785 5.4192 0.3661 5.4192 0.0385zm13.626-0.72692c0.58208-0.30067 1.5346-0.93228 2.1167-1.4036l1.0583-0.85688-1.255 0.1638c-0.69024 0.0901-2.7072 0.64244-4.4821 1.2275-1.7749 0.58499-3.4128 1.0777-3.6398 1.0949-0.22696 0.0172-0.0555 0.12904 0.38108 0.24853 1.4197 0.38846 4.6621 0.1243 5.8208-0.47427zm-405.85 0.16169c0.82386-0.20744 1.358-0.54735 1.767-1.1245 0.32242-0.45493 1.4139-1.7201 2.4255-2.8115l1.8393-1.9844-0.83932-0.0826c-0.65274-0.0643-1.1045 0.13901-2.0321 0.91445-0.65604 0.54837-2.8838 1.8357-4.9506 2.8607-2.0668 1.025-3.8039 2.0125-3.8603 2.1944-0.13387 0.43198 3.9713 0.45625 5.6506 0.0334zm-13.382-0.23183c0.3638-0.11652 0.48241-0.22371 0.26358-0.2382-0.21883-0.0146-1.8682-0.49718-3.6653-1.0726-1.7971-0.57541-3.8207-1.1264-4.4969-1.2243l-1.2295-0.17809 1.0583 0.86207c1.8479 1.5052 3.4678 2.1136 5.5562 2.0868 1.0186-0.013 2.1497-0.11912 2.5136-0.23564zm406.24-0.46302c-0.25326-1.0915-0.81335-1.879-2.6532-3.7302-2.047-2.0596-2.8942-2.3297-5.3902-1.7184-0.94588 0.23164-1.7546 0.45114-1.7972 0.48776-0.15931 0.13697 1.7356 1.1191 3.7816 1.96 2.3837 0.9797 4.2273 2.0748 5.1546 3.0619 0.81267 0.86505 1.1145 0.84465 0.90437-0.0611zm7.7771-0.59878c2.4311-0.72951 5.2773-1.4141 6.3249-1.5214l1.9048-0.19497-0.4658-0.61537c-0.44284-0.58502-0.62397-0.61519-3.6719-0.6118-3.3878 4e-3 -3.9841 0.15999-5.8022 1.5203-0.46132 0.34515-0.87804 0.52393-0.92604 0.39728-0.048-0.12666-0.60309 0.35081-1.2335 1.061-0.63039 0.7102-1.0121 1.2913-0.8483 1.2913s2.287-0.59687 4.718-1.3264zm-402.77-1.9616c1.0186-0.48424 2.7153-1.2699 3.7703-1.7458s1.9182-0.94779 1.9182-1.0485c0-0.35618-2.883-0.86876-4.109-0.73057-1.1044 0.12449-1.4485 0.34256-3.0846 1.9551-1.9813 1.9528-2.5961 2.8736-2.5961 3.888 0 0.62008 0.0418 0.60532 1.1245-0.39687 0.61846-0.57248 1.9579-1.4371 2.9766-1.9214zm401.66-3.5098c0.43508-1.4966 0.32113-2.7486-0.29689-3.2614-0.29744-0.24686-0.40185-0.16063-0.53869 0.44473-0.51443 2.2762-0.77179 3.0429-1.6141 4.8089-0.50924 1.0677-0.97512 1.892-1.0353 1.8318-0.0602-0.0602 0.12795-0.60076 0.41806-1.2013 0.7343-1.5198 1.3124-4.1373 1.317-5.9632 4e-3 -1.4749-0.0209-1.5315-0.5914-1.3556-0.32742 0.10097-1.1505 0.58783-1.8291 1.0819-1.2077 0.87923-1.9921 2.3285-2.1166 3.9105-0.0238 0.30152-0.11816-0.10666-0.20984-0.90702l-0.16674-1.4552-0.3388 0.79375c-0.18637 0.43656-0.40552 1.3538-0.48702 2.0383-0.12932 1.0859-0.0404 1.4126 0.69755 2.5626 0.46517 0.72491 0.96626 1.7544 1.1135 2.2878l0.26778 0.96977 2.4999-2.5867c2.0995-2.1724 2.5657-2.813 2.9107-3.9998zm30.823 5.5251c-1.6983-3.329-5.2786-6.9691-8.1339-8.2698-1.3263-0.60417-4.2218-1.3846-4.631-1.2482-0.15455 0.0515 0.29707 0.45686 1.0036 0.90075 1.8457 1.1596 4.0628 2.9728 4.0628 3.3225 0 0.18161-0.18219 0.13901-0.46302-0.10827-0.99587-0.87693-6.681-3.356-6.6805-2.9132 1.3e-4 0.1079 0.18124 1.0891 0.40251 2.1805 0.33388 1.6469 0.54663 2.1088 1.2509 2.7156 1.1648 1.0037 2.9004 1.6017 6.9883 2.4082 1.9154 0.37787 4.1181 0.97718 4.8948 1.3318 1.8726 0.85495 1.9013 0.84791 1.3055-0.32001zm-440.41-0.30128c-0.56114-0.57465-1.0913-1.0216-1.1782-0.99309-0.0869 0.0284-0.58106-0.27162-1.0982-0.66678-1.6688-1.2752-2.6376-1.5286-5.8434-1.5286-2.387 0-3.0584 0.0853-3.4481 0.43789-0.85466 0.77346-0.5624 1.0145 1.3047 1.0763 1.2594 0.0416 3.027 0.44201 6.0167 1.3628 5.3615 1.6513 5.5698 1.6666 4.2465 0.31147zm-31.465-0.16669c0.89159-0.33449 2.9608-0.86101 4.5982-1.17 4.835-0.91247 6.9214-1.9551 7.2952-3.6456 0.0875-0.39587 0.31657-1.3746 0.50895-2.175 0.19238-0.80036 0.32834-1.4772 0.30214-1.5041-0.14267-0.14637-5.4159 2.1054-6.3477 2.7106l-1.0988 0.71366 0.919-0.96753c0.50545-0.53213 1.6961-1.464 2.6458-2.0709 2.1215-1.3556 1.9689-1.2416 1.8371-1.3719-0.28448-0.28099-3.2146 0.50446-4.9168 1.318-2.8846 1.3786-5.5172 3.998-7.5833 7.5454-0.82811 1.4218-0.8745 1.6924-0.24399 1.4232 0.25466-0.10875 1.1925-0.47138 2.0841-0.80587zm34.339 0.0514c0.0924-0.49257 0.52021-1.4153 0.95067-2.0505 0.8983-1.3256 1.0526-3.0625 0.40892-4.603-0.50975-1.22-0.63692-1.1568-0.47964 0.2386 0.0791 0.70149 0.0143 1.2278-0.16479 1.3385-0.18749 0.11586-0.29511-0.0626-0.29511-0.48932 0-1.3336-0.8156-2.7701-2.1139-3.7231-1.6536-1.2138-2.3848-1.2348-2.382-0.0682 4e-3 1.579 0.55302 4.2825 1.1962 5.887 0.54534 1.3604 0.56335 1.4929 0.12588 0.92604-0.66244-0.85831-1.8322-4.0056-2.0328-5.4696-0.0863-0.62971-0.25562-1.1449-0.37624-1.1449-0.7399 0-1.0278 2.919-0.42444 4.3033 0.30578 0.70154 4.9018 5.7296 5.2503 5.7439 0.093 4e-3 0.2446-0.39608 0.337-0.88863zm279.43-1.4195c-0.21314-2.0461-0.73281-4.6484-1.2987-6.5033-0.52181-1.7105-2.8255-5.1697-4.7327-7.1067-1.6147-1.6399-1.3678-1.6711 0.7048-0.0891 0.66971 0.51118 1.2176 0.86355 1.2176 0.78304 0-0.37955-2.9445-3.2038-4.3071-4.1312-3.5562-2.4204-10.034-4.2253-14.96-4.1682l-1.5022 0.0175 1.4459 0.38859c8.3257 2.2375 15.646 8.4515 21.055 17.873 0.93141 1.6224 1.8251 3.3486 1.986 3.8361 0.45445 1.377 0.59516 1.0538 0.39166-0.89959zm-154.89-4.5069c4.8845-8.1466 11.175-13.58 18.824-16.258l2.969-1.0396-2.587 0.15952c-7.0303 0.43346-12.611 2.5426-16.186 6.1175-1.6705 1.6705-2.4908 3.0279-1.005 1.663 0.77793-0.71464 2.31-1.8119 2.5299-1.8119 0.0732 0-0.61598 0.74909-1.5315 1.6646-3.7963 3.7963-5.5204 7.8043-6.0559 14.078l-0.13549 1.5875 0.89746-1.9273c0.4936-1.06 1.5197-2.965 2.2801-4.2333zm225.5 4.2802c0.23019-0.0883 0.41852-0.30165 0.41852-0.47408 0-0.41794-2.0086-2.3158-3.204-3.0274-1.0565-0.62887-3.146-1.4238-3.146-1.1969 0 0.0796 0.50601 0.86852 1.1245 1.7533 1.5702 2.2462 3.5182 3.4397 4.807 2.9451zm-297.03-0.74364c1.2299-0.64566 4.0282-3.9401 3.6596-4.3086-0.50244-0.50244-4.7771 2.0209-5.827 3.4396-0.47086 0.63633-0.49277 0.77515-0.15594 0.98814 0.56795 0.35912 1.5036 0.31115 2.3233-0.11917zm405.53-0.78216c1.9018-0.5135 3.1084-1.0637 4.8106-2.1936l1.498-0.99436-2.2587-0.44455c-1.2423-0.24453-3.4952-0.94843-5.0064-1.5642-3.3338-1.3585-5.947-1.661-8.1186-0.93969-2.2695 0.75382-2.2063 1.034 0.4118 1.8237 3.0282 0.9134 4.4343 1.2151 5.8852 1.2628 1.1161 0.0367 1.0829 0.0547-0.52917 0.28855-1.1305 0.16396-2.5512 0.15277-4.1461-0.0326-3.2614-0.3792-3.2094-0.3929-2.0418 0.53798 2.9243 2.3315 6.2709 3.1266 9.4952 2.256zm-99.145-0.31297c1.1302-0.79166 0.60291-1.794-1.406-2.6722-1.1966-0.52314-5.8334-0.62709-7.6632-0.1718l-1.0583 0.26334 1.4573 0.65966c2.4908 1.1274 6.0137 2.1845 7.6781 2.3039 0.22228 0.0159 0.66877-0.15634 0.99219-0.38287zm-409.69-1.0294c1.0826-0.53491 2.25-1.28 2.5944-1.6558l0.62611-0.68326-0.86972 0.16576c-1.7426 0.33211-5.7715 0.47813-6.8032 0.24657-1.0242-0.2299-0.99283-0.24326 0.97358-0.41418 1.7626-0.1532 7.0962-1.5913 7.0962-1.9133 0-0.063-0.50602-0.37385-1.1245-0.69088-0.71804-0.36803-1.7939-0.61976-2.9766-0.69641-1.9353-0.12546-2.5542 0.035-7.4083 1.921-1.0186 0.39576-2.737 0.85971-3.8185 1.031l-1.9664 0.31142 1.4832 0.98449c2.9697 1.9712 4.9947 2.5891 8.0572 2.4586 1.8584-0.0792 2.4492-0.23128 4.1364-1.0649zm96.222 0.20179c2.0159-0.56435 5.5562-1.9692 5.5562-2.2048 0-0.107-1.1102-0.33427-2.467-0.50506-3.5828-0.45096-5.9946-8e-3 -7.521 1.3827-0.73453 0.66903-0.73887 0.83558-0.04 1.5344 0.62085 0.62085 1.6907 0.57127 4.4718-0.2073zm352.55-1.0756c0.0945-0.5457 0.31713-1.2594 0.49475-1.586 0.30723-0.5648 3.237-3.2681 4.3025-3.9698 0.40761-0.26845-0.26609-0.30417-3.5996-0.19077-2.2556 0.0767-5.5298 0.0383-7.276-0.0853-1.7462-0.12361-3.2058-0.20537-3.2436-0.18163-0.0377 0.0238 1.188 0.84889 2.7237 1.8337 1.5358 0.98478 3.5311 2.5306 4.4342 3.4352 0.90307 0.90456 1.7208 1.6654 1.8171 1.6908 0.0964 0.0254 0.25249-0.4004 0.34697-0.9461zm-393.57-1.4552c1.1283-1.055 3.1349-2.587 4.4592-3.4044l2.4078-1.4862-7.133 0.031c-6.5771 0.0286-7.9074 0.13727-6.6725 0.54512 0.77593 0.25628 3.991 3.406 4.2866 4.1994 0.15262 0.40966 0.27749 1.0347 0.27749 1.3891s0.0727 0.64423 0.16151 0.64423c0.0888 0 1.0846-0.8632 2.2129-1.9182zm342.64-0.98872c1.059-0.56674-0.23365-2.1017-2.5071-2.977-1.319-0.50781-4.7684-1.0753-5.7977-0.95387-0.75499 0.0891-0.73763 0.11512 0.85431 1.2816 1.5353 1.1249 5.4357 2.8681 6.4821 2.8971 0.26424 7e-3 0.69998-0.10419 0.96832-0.24781zm-290.77-0.96044c2.0867-0.70657 6.0114-3.2582 5.3504-3.4786-0.50105-0.16701-4.2199 0.38626-5.8133 0.86489-1.5477 0.46487-3.2374 1.7789-3.2374 2.5177 0 0.96885 1.0428 0.99592 3.7004 0.096zm254.59-2.4934c1.4572-0.29697 3.0237-0.69376 3.4811-0.8818l0.83167-0.34187-1.248-0.55462c-0.68636-0.30506-1.8174-0.94583-2.5135-1.424-1.4793-1.0161-5.8117-5.1286-6.2243-5.9083-0.15597-0.29477 0.54324 0.2418 1.5538 1.1923 2.3571 2.2171 5.2766 4.1536 7.4533 4.9437 2.4362 0.88429 3.1522 0.84786 4.9768-0.2531 2.4224-1.4616 7.6363-3.9946 10.554-5.1272l2.6458-1.0271-3.7042-0.1652c-3.6589-0.16317-8.025-0.72721-11.112-1.4356-2.956-0.67818-8.1723-1.4315-16.272-2.35-8.6242-0.97801-14.857-1.9109-18.604-2.7846-1.2752-0.29734-2.86-0.5406-3.5218-0.5406h-1.2033l1.3786 1.6536c2.3099 2.7709 5.2581 5.7983 7.3734 7.5714 1.9341 1.6213 5.6467 4.2687 5.9863 4.2687 0.0903 0-0.54147-0.80367-1.404-1.7859-1.5649-1.7822-3.404-4.37-3.9955-5.6224l-0.31242-0.66146 0.47067 0.65304c2.5306 3.5112 5.9548 6.923 8.9373 8.9049 1.2053 0.80095 4.051 1.7093 6.35 2.027 2.1829 0.30168 5.6566 0.15161 8.1226-0.35094zm111.19 0.0379c0.15235-0.24651-4.2772-0.98081-4.5103-0.74768-0.0726 0.0727 0.38048 0.309 1.0069 0.52522 1.3007 0.44897 3.2855 0.57499 3.5034 0.22246zm-321.96-0.73649c1.0322-0.27435 2.5634-0.9116 3.4025-1.4161 1.9116-1.1493 5.7684-4.749 7.5885-7.0824 1.786-2.2899 2.0358-2.5309 1.3191-1.2729-0.7422 1.3028-3.1585 4.5196-4.2617 5.6735-0.4634 0.48469-0.7961 0.92771-0.73934 0.98446 0.18456 0.18458 3.7251-2.2968 5.9282-4.1548 2.323-1.9591 4.9498-4.6378 7.2251-7.3683l1.4331-1.7198-0.99272-0.0833c-0.54599-0.0458-2.0252 0.15817-3.2872 0.45336-3.9056 0.91358-9.962 1.8462-17.392 2.6782-8.7348 0.97806-13.371 1.643-18.372 2.6352-3.989 0.79139-7.0269 1.1841-11.489 1.4852l-2.6254 0.17714 1.9639 0.72546c3.8303 1.4149 6.5004 2.6942 10.89 5.2176 2.0111 1.1562 2.0695 1.1716 3.3753 0.89156 1.5602-0.33459 4.7155-1.8673 6.2199-3.0213 0.58208-0.44651 1.949-1.5922 3.0376-2.5459l1.9793-1.734-1.1856 1.4265c-1.8152 2.1841-5.0841 4.8888-7.3178 6.0546l-2.0124 1.0504 1.3846 0.45987c3.8605 1.2822 10.111 1.5002 13.929 0.4857zm250.52 0.4513c1.1005-0.41844 0.90273-1.3683-0.44579-2.1407-1.0325-0.59134-1.3842-0.64108-4.2995-0.60804-3.2598 0.0369-6.5846 0.65625-5.1594 0.96105 3.5714 0.76372 4.7627 1.0898 5.5562 1.5206 1.0178 0.55269 3.2384 0.68906 4.3484 0.26702zm-368.94-0.52462c0.80036-0.27675 1.3253-0.51152 1.1666-0.52173-0.76673-0.0493-4.7691 0.5946-4.9898 0.80275-0.46527 0.43878 2.3373 0.23278 3.8232-0.28102zm72.53-0.39005c0.78157-0.35393 2.1949-0.7857 3.1408-0.95953 2.5512-0.46879 2.651-0.55859 1.0583-0.95219-2.2996-0.5683-5.5558-0.73612-7.0991-0.36589-2.2623 0.54271-3.4361 1.9314-2.2275 2.6354 0.89327 0.52027 3.6065 0.33096 5.1274-0.35775zm149.19 0.3723c1.0573-0.30628 1.918-1.0066 3.0288-2.4643l0.77401-1.0157 0.89863 1.0819c0.73372 0.88328 1.0661 1.0818 1.8113 1.0818 1.7285 0 2.9516-0.73292 6.8859-4.1261 1.0391-0.8962 2.4083-1.9859 3.0427-2.4216 1.3341-0.91628 7.1109-3.8549 7.2684-3.6974 0.0583 0.0583-0.75793 0.62008-1.8138 1.2484-3.051 1.8156-5.4437 3.709-8.0052 6.3349-1.3097 1.3426-2.917 2.7234-3.5719 3.0683-1.4565 0.76731-0.79349 0.84285 1.1146 0.127 1.7731-0.66525 4.0305-2.2311 6.9293-4.8065 1.253-1.1132 3.8551-3.1008 5.7823-4.4168 4.4317-3.0261 6.6902-4.8928 8.3877-6.9326 3.1958-3.8402 3.3892-5.9582 0.80026-8.7651-0.71493-0.77513-1.6781-2.1237-2.1404-2.9968-0.4623-0.87313-1.0296-1.8057-1.2606-2.0724-0.64934-0.74948-2.1066-1.2554-4.1094-1.4268l-1.8264-0.15627 0.16404 1.0339c0.39079 2.4629 0.48517 6.1944 0.20685 8.1777-0.2727 1.9435-1.5414 6.3773-1.7617 6.157-0.0519-0.0519 0.15512-0.86307 0.45995-1.8027 0.79811-2.4602 0.95853-7.3518 0.35306-10.767-0.44956-2.5359-0.48168-2.6055-1.7618-3.8211-2.4243-2.3019-3.4157-2.5659-6.8398-1.8213-0.65484 0.1424-2.2855 0.1873-3.6237 0.0998-2.2553-0.14751-2.5357-0.10896-3.8365 0.52753-0.77187 0.37764-1.8397 1.1389-2.3729 1.6917l-0.9696 1.005 0.22117 2.1167c0.24106 2.3073-0.0637 6.5952-0.62061 8.7312-0.31864 1.2222-0.33607 1.041-0.22931-2.3812 0.0832-2.666 0-4.3135-0.29573-5.8784-0.45267-2.3929-1.2843-4.5279-1.8192-4.6707-0.18931-0.0505-1.3633-0.40632-2.6089-0.79063-2.8618-0.88297-3.4672-0.87561-4.8314 0.0588-2.5302 1.733-4.8202 2.5535-8.171 2.9275-3.496 0.39024-4.4757 1.0584-5.8473 3.9878-1.544 3.2975-0.82076 6.0237 2.4552 9.2544 1.5765 1.5548 1.7169 1.7588 0.87569 1.2724-1.718-0.99341-4.163-3.6816-4.8448-5.3266-0.34102-0.8228-0.69876-1.496-0.79494-1.496-0.0962 0-0.39389 0.24196-0.66151 0.53771-0.26765 0.29572-0.8754 0.77798-1.3506 1.0717-1.097 0.67794-1.949 2.0469-1.949 3.1313 0 1.2901 0.65053 2.2698 2.0416 3.0744 2.6077 1.5084 5.6038 3.9125 12.628 10.133 4.1658 3.6892 6.7818 5.4722 8.8442 6.0279 1.5426 0.41561 1.8075 0.42413 2.945 0.0946zm225.57-2.2321c3.1125-1.3822 4.1911-3.1784 5.4002-8.9926 0.44913-2.1598 0.76075-3.9828 0.69249-4.051-0.13512-0.13512-6.932 3.3746-8.2214 4.2453-2.4653 1.6647-3.9827 3.7501-4.2737 5.8731-0.14263 1.0407 0.29586 3.5765 0.61847 3.5765 0.25603 0 3.4927-2.2955 4.8091-3.4107 0.78013-0.66088 1.7029-1.6202 2.0505-2.1319 0.34769-0.51165 0.63215-0.8372 0.63215-0.72342 0 0.71834-2.2553 3.9865-3.6735 5.3233-0.45342 0.4274-0.82442 0.87616-0.82442 0.99721 0 0.30419 1.1988 0 2.7902-0.7058zm-456.3-1.1347c-1.4484-1.5799-3.4231-4.4315-3.418-4.9358 2e-3 -0.15936 0.32289 0.127 0.71395 0.63632 0.39106 0.50933 1.1784 1.3678 1.7496 1.9078 1.1007 1.0404 4.9201 3.7679 5.055 3.6097 0.71684-0.84079 0.9039-3.1849 0.37909-4.7504-0.46865-1.398-1.8078-3.0383-3.4027-4.1678-1.5479-1.0962-8.6912-4.9296-8.8641-4.7567-0.2011 0.20109 1.6875 8.3848 2.1358 9.2552 1.1491 2.2308 2.7613 3.5719 5.2164 4.3392 1.842 0.57568 1.8901 0.44995 0.43481-1.1375zm216.28-0.94014c-4.7205-4.4142-8.1282-7.2376-10.948-9.0708-2.7294-1.7743-3.9688-3.4412-3.9688-5.3379 0-0.68863-0.10978-0.77065-1.3904-1.0393-0.76472-0.16039-2.9971-1.0637-4.9609-2.0074-4.7399-2.2777-7.2366-3.0336-11.617-3.517-5.1229-0.56531-9.3033-1.9312-12.845-4.1971-0.81167-0.51921-1.5552-0.944-1.6524-0.944-0.44895 0 1.6007 1.7914 3.7025 3.2359 2.3202 1.5946 5.0792 4.1137 7.408 6.7635 3.4204 3.892 7.9387 6.8002 16.328 10.51 2.5466 1.126 6.1185 2.7939 7.9375 3.7065s4.3789 2.0148 5.6885 2.4495c2.0654 0.68548 3.0193 0.92797 5.8208 1.4797 0.29104 0.0573 1.0506 0.118 1.6878 0.13488l1.1587 0.0307zm230.58 0.0386c-0.75813-1.9953-1.0479-3.8462-0.83994-5.3657l0.1833-1.3395 0.33938 1.6484c0.18666 0.9066 0.57793 2.0972 0.86948 2.6458 0.51154 0.96247 0.53646 0.97528 0.71093 0.36546 0.0995-0.34758 0.46027-1.1576 0.80185-1.7999 0.40248-0.75697 0.621-1.6136 0.621-2.4346 0-1.5276-0.82809-4.8934-1.5477-6.2908-0.5017-0.97417-1.9235-2.7334-2.2092-2.7334-0.0758 0-0.20449 0.6459-0.28596 1.4353-0.14811 1.4352-0.58748 2.5614-1.9688 5.047-0.93747 1.6868-0.98195 3.6948-0.11869 5.3565 0.50141 0.96512 3.5968 4.83 3.8684 4.83 0.052 0-0.13883-0.61404-0.424-1.3646zm-437.48-1.2694c2.9634-3.4742 3.194-5.2066 1.2164-9.1392-0.86791-1.726-1.3875-3.1342-1.4936-4.0484l-0.1627-1.4018-0.79128 0.74036c-1.0485 0.98102-2.1654 3.4658-2.682 5.9668-0.57557 2.7865-0.53294 3.2394 0.50371 5.3507l0.90634 1.8459 0.58499-1.3168c0.32175-0.72419 0.66164-2.0311 0.75531-2.9042l0.17032-1.5875 0.21461 1.5353c0.27691 1.981 0.0224 3.8287-0.776 5.634-0.55357 1.2517-0.57454 1.3986-0.15784 1.1058 0.26431-0.18574 1.0346-0.98722 1.7117-1.7811zm465.31-3.9195c0.31332-0.83399 0.63896-2.4093 0.72368-3.5007 0.13222-1.7033 0.18714-1.872 0.38783-1.1906 0.12859 0.43656 0.24696 1.8549 0.26305 3.1518l0.0292 2.3581 0.61513-0.7706c1.9083-2.3906 1.8718-6.65-0.0901-10.524l-0.6518-1.2872-0.8786 1.7463c-0.48327 0.96047-1.3303 2.3731-1.8823 3.1392-2.1078 2.9253-2.2265 3.1574-2.2265 4.3534 0 0.64177 0.17251 1.5004 0.38336 1.9082 0.46876 0.90649 2.2071 2.4728 2.5258 2.2759 0.1274-0.0787 0.48797-0.8255 0.80127-1.6595zm27.402 0.98099c0.7612-0.27971 2.1488-2.5357 2.3496-3.8202l0.1655-1.0583-0.68231 1.3633c-0.37526 0.7498-0.88501 1.5237-1.1328 1.7198-0.42064 0.33287-0.42275 0.31269-0.0321-0.30498 0.85772-1.3562 1.1353-2.7807 1.1476-5.8899 0.0106-2.6615-0.0451-3.0894-0.38449-2.9573-0.21828 0.0849-1.0428 0.27474-1.8323 0.42177-2.2614 0.42111-3.8423 1.7273-4.6589 3.8492l-0.3865 1.0043 0.16343-0.92604c0.21103-1.1959 0.77793-2.321 1.6512-3.277l0.69739-0.76349-0.79375 0.18371c-2.6012 0.60195-4.0727 2.0465-4.7759 4.6885-0.44823 1.6841-0.43328 1.5495-0.17206 1.5495 0.11628 0 0.35549-0.38695 0.53155-0.8599 0.17608-0.47294 0.56824-1.1576 0.87154-1.5214 0.44672-0.53589 0.51554-0.561 0.36245-0.13229-0.43336 1.2136-0.44445 2.9627-0.0238 3.7759 0.58025 1.1221 0.73289 1.1748 2.0537 0.708 1.0459-0.36957 4.6069-0.58868 4.8944-0.30113 0.0653 0.0653-0.51171 0.47953-1.2823 0.92046-0.7706 0.4409-1.6392 0.98735-1.9303 1.2142-0.50575 0.39434-0.48456 0.41297 0.47863 0.42101 0.62868 5e-3 0.94382 0.11194 0.83772 0.28361-0.1711 0.27688 0.70549 0.1412 1.8828-0.29142zm-520.19-0.4019c1.1955-0.91186 2.0891-2.7758 1.8974-3.9576-0.0819-0.5048-0.91378-2.0028-1.8888-3.4013-0.95834-1.3745-2.0558-3.1836-2.4387-4.02l-0.69628-1.5209-0.73472 1.453c-1.7756 3.5115-1.9952 6.9449-0.60779 9.5025 0.99996 1.8433 1.3126 1.9009 1.1962 0.22021-0.0514-0.74184-3e-3 -2.0218 0.10719-2.8445l0.20061-1.4956 0.32104 1.9867c0.28381 1.7564 1.3133 4.7602 1.6315 4.7602 0.0645 0 0.52014-0.30721 1.0124-0.68271zm-27.521 0.15354c-0.0979-0.15838 0.24104-0.26694 0.84428-0.27046l1.0078-6e-3 -0.66146-0.51557c-0.3638-0.28355-1.1675-0.78671-1.7859-1.1181-0.61847-0.33142-1.1245-0.69207-1.1245-0.80148 0-0.35833 3.6112-0.20823 4.7625 0.19799 1.4956 0.52768 1.5076 0.52501 2.0098-0.44614 0.3256-0.62966 0.40151-1.272 0.29988-2.5379-0.15285-1.9043 0.0244-1.8854 1.0307 0.10962l0.64909 1.287-0.16527-1.1906c-0.23372-1.6838-1.0839-3.3406-2.1196-4.1305-0.83622-0.6378-3.2921-1.5724-3.2921-1.2528 0 0.0812 0.3157 0.52194 0.70155 0.97951 0.83235 0.98706 1.4196 2.3003 1.4035 3.1386-8e-3 0.43466-0.11569 0.31162-0.38318-0.43924-0.76032-2.1343-2.1956-3.2884-4.728-3.8014-0.74772-0.1515-1.5381-0.34534-1.7564-0.43077-0.34107-0.13348-0.38631 0.26366-0.3217 2.8245 0.0795 3.1512 0.5106 5.0512 1.4553 6.4141l0.55394 0.79914-0.60745-0.52916c-0.3341-0.29104-0.88685-1.065-1.2283-1.7198-0.48654-0.93303-0.62354-1.0596-0.63319-0.58479-0.0284 1.3973 1.5858 3.6153 2.8981 3.9823 1.2412 0.34708 1.3822 0.35209 1.1906 0.0421zm446.75-3.5121c3e-3 -1.4308 0.22087-2.9981 0.63521-4.5752 0.66019-2.5128 1.1377-5.9356 0.82809-5.9356-0.61896 0-3.4003 3.6558-3.9781 5.2289-0.19979 0.54388-0.3664 0.81026-0.37026 0.59198-4e-3 -0.21828 0.16097-0.86858 0.36629-1.4451 0.47606-1.3365 0.2695-1.593-0.2608-0.32385-0.50022 1.1972-0.50321 1.8914-0.0145 3.3754 0.21219 0.64437 0.50935 2.0993 0.66032 3.233s0.46405 2.428 0.69575 2.8761l0.42124 0.8146 0.50594-0.83193c0.38827-0.63849 0.5071-1.338 0.51088-3.0084zm-345.39-0.64357c0.20728-1.3798 0.49412-2.7278 0.63742-2.9956 0.3902-0.72912 0.3141-2.5611-0.14311-3.4452-0.55435-1.072-0.7124-0.98341-0.24429 0.13695 0.21086 0.50463 0.37673 1.1297 0.3686 1.3891-8e-3 0.25932-0.21649-0.0124-0.46303-0.60394-0.50069-1.2013-2.0254-3.351-3.07-4.3285l-0.68551-0.64143 2.7e-4 1.4352c1.9e-4 0.78936 0.31228 2.6853 0.69353 4.2133 0.4423 1.7727 0.70604 3.5921 0.7287 5.0271 0.0274 1.738 0.15087 2.4197 0.54326 3.0006l0.50775 0.75162 0.37474-0.71522c0.20611-0.39335 0.54433-1.8441 0.75161-3.2239zm305.96 3.362c-0.21828-0.14108-0.59026-0.25831-0.82664-0.26054-0.58737-6e-3 -6.1096-1.9066-7.9226-2.7274-0.81026-0.36685-2.4176-1.1864-3.5719-1.8213-1.1543-0.63487-3.1093-1.6135-4.3445-2.1748l-2.2458-1.0205-2.6454 0.1822c-2.3545 0.16216-5.5588 0.65135-7.1247 1.0877-0.44754 0.12472-0.47815 0.0997-0.15811-0.12933 0.56014-0.40079 5.2792-1.8674 6.0087-1.8674 1.3814 0 0.43486-0.48548-2.1061-1.0802-2.2157-0.51861-3.3899-0.63135-6.4162-0.616-3.9387 0.0201-3.5321-0.0586-10.716 2.07-1.819 0.53899-4.4968 1.1763-5.9506 1.4163-2.3998 0.39605-2.5538 0.45487-1.6716 0.63814 1.2293 0.25543 12.081 1.4013 18.333 1.9359 5.2976 0.45297 8.5383 0.96512 15.747 2.4887 6.8772 1.4534 10.67 2.0095 14.288 2.0945 1.1947 0.0281 1.5986-0.0379 1.3229-0.21606zm-263.32-0.54054c1.4131-0.1518 6.0816-0.97968 10.374-1.8398 8.9234-1.7878 10.105-1.9709 16.272-2.5214 12.797-1.1423 20.854-2.1514 17.759-2.2241-1.238-0.0291-6.6432-1.3148-10.211-2.4287-4.5342-1.4158-7.2074-1.7473-10.812-1.3408-2.452 0.27654-5.0773 0.79883-6.3941 1.272-0.21828 0.0785 0.67469 0.41744 1.9844 0.75327 2.3636 0.60614 4.734 1.4462 4.563 1.6171-0.049 0.049-1.2294-0.14385-2.6232-0.42857-1.3937-0.28472-3.7752-0.54809-5.2922-0.58526l-2.7581-0.0676-5.4114 2.7489c-5.6135 2.8516-6.6303 3.2775-10.835 4.5381l-2.5136 0.75354 1.6641 0.0145c0.91524 8e-3 2.8202-0.10959 4.2333-0.26136zm330.65-0.52462c1.0186-0.26897 2.2941-0.67487 2.8344-0.90199 1.0844-0.4559 2.7276-1.8 3.1381-2.567 0.34763-0.64958-0.1288-1.5512-0.81966-1.5512-1.1528 0-3.1865 1.0468-4.4498 2.2903-0.72432 0.713-2.1016 1.7552-3.0605 2.316-0.95896 0.56081-1.7436 1.0522-1.7436 1.0919 0 0.16896 2.3899-0.22614 4.101-0.67797zm-399.39 0.17399c0-0.0536-0.75997-0.54187-1.6888-1.0851-0.92885-0.54319-2.333-1.6166-3.1204-2.3854-2.2969-2.2426-5.245-2.901-5.245-1.1714 0 0.77769 1.5028 2.2777 3.0309 3.0253 1.6302 0.79762 7.0233 2.0389 7.0233 1.6166zm372.87-0.75663c1.391-0.9656 2.5881-2.139 3.0158-2.956 0.42775-0.81722 0.32144-3.72-0.21188-5.7845-0.23312-0.90255-1.6297-2.8399-2.0483-2.8414-0.0941 0-0.13256 1.0808-0.0856 2.4025 0.0671 1.8857-0.0375 2.808-0.48572 4.2836-0.60497 1.9918-1.3347 5.4853-1.1458 5.4853 0.0617 0 0.4944-0.26527 0.96145-0.58947zm24.92-2.2616c1.5841-1.2009 2.5198-2.5146 2.5198-3.538 0-1.3178-1.4-0.88243-3.7426 1.164-1.3443 1.1743-3.6657 4.3765-3.6657 5.0566 0 0.30715 3.4213-1.5702 4.8886-2.6825zm-395.88 0.95044c-0.82764-1.5602-4.2092-5.0319-5.3693-5.5125-1.1394-0.47196-1.6774-0.17174-1.4781 0.8249 0.22936 1.1468 1.0208 2.1599 2.5833 3.3069 1.322 0.97038 4.4006 2.7342 4.7932 2.7461 0.1091 3e-3 -0.12903-0.61116-0.52917-1.3655zm21.49 0.3793c-0.0901-0.5457-0.48248-2.1233-0.87189-3.5057-0.54797-1.9454-0.70779-3.0967-0.70701-5.0932 5.2e-4 -1.4188-0.0782-2.5797-0.17492-2.5797-0.30877 0-1.4424 1.4899-1.7349 2.2799-0.57918 1.5649-0.94263 5.0307-0.62765 5.9851 0.31156 0.94404 1.371 2.1019 2.9333 3.2061 1.2544 0.88648 1.3729 0.85719 1.183-0.29245zm213.76-1.5091c7.6847-3.7817 12.944-8.2332 17.022-14.407 2.6612-4.0289 3.9863-7.4604 4.8362-12.524 0.2907-1.7321 0.60436-3.4682 0.69702-3.858l0.16848-0.70871-0.76348 0.68866c-1.2246 1.1046-3.1804 2.3434-5.0076 3.1719-2.2751 1.0316-2.3978 0.96933-0.43857-0.22254 1.8828-1.1454 4.4184-3.5324 5.9561-5.6071 1.1574-1.5616 3.356-7.4016 3.3565-8.9157 0-1.2342-0.72242-1.9567-2.1191-2.1183-1.929-0.22312-1.9604-0.27384-0.83447-1.3477 0.96507-0.92054 1.8002-2.756 1.4857-3.265-0.069-0.11163-0.68961 0.11485-1.3791 0.50329-1.1982 0.67495-1.447 0.70951-5.6194 0.7807-4.9566 0.0846-7.9405 0.54211-10.848 1.6633-2.6261 1.0128-5.6896 3.0487-7.3949 4.9146l-1.3728 1.5021 0.18034 2.5439c0.42249 5.959-1.4482 11.144-5.4816 15.194-0.99327 0.99732-1.8059 1.8605-1.8059 1.9182s0.39894 0.10494 0.88657 0.10494c2.0987 0 3.779 1.0235 4.9017 2.9858 0.43559 0.76131 1.2089 1.8594 1.7185 2.4403 0.90067 1.0267 0.93731 1.0414 1.3129 0.52697 1.2271-1.6805 3.5728-3.3394 6.1779-4.369 2.4335-0.96182 7.5697-3.6205 8.9816-4.6493l1.2885-0.9388-1.3229 1.2206c-1.3618 1.2565-4.5704 3.3144-8.7122 5.5878-2.5409 1.3947-4.8024 3.4063-5.0821 4.5203-0.10345 0.41222 0.0148 1.2127 0.29369 1.9883 0.84368 2.3462 0.0336 5.669-2.0028 8.2156-0.4364 0.54571-0.73975 0.99219-0.67411 0.99219 0.27649 0 3.5109-1.9351 5.275-3.156 1.0486-0.7257 2.7985-2.1282 3.8886-3.1166 1.6175-1.4668 1.8254-1.5971 1.1309-0.70893-2.2881 2.926-6.576 6.4334-11.712 9.5802-1.7163 1.0516-0.47921 0.58706 3.0124-1.1312zm5.0644 1.2295c-0.0815-0.0815-0.29496-1.5e-4 -0.47445 0.18066-0.25935 0.2613-0.22897 0.29171 0.14811 0.14812 0.26093-0.0994 0.40778-0.24731 0.32634-0.32878zm103.07-2.3222c2.4499-1.5249 4.1961-5.2274 4.2075-8.9209l4e-3 -1.2702-0.94805 0.74107c-0.52141 0.40759-2.3912 1.4554-4.155 2.3286-3.3664 1.6664-4.0689 2.2925-4.322 3.8522-0.16372 1.0089 0.21593 2.7664 0.75764 3.5072 0.31088 0.42516 0.46993 0.3475 1.9018-0.92869 0.85939-0.76597 1.8998-1.9244 2.312-2.5744 0.41222-0.65 0.74949-0.99443 0.74949-0.76544 0 0.63918-0.76687 2.331-1.6162 3.5654-0.42077 0.61158-0.76504 1.1761-0.76504 1.2544 0 0.21413 0.81034-0.12713 1.874-0.7892zm-293.98-0.74597c-0.89048-1.3194-1.8272-3.2792-1.8358-3.8411-3e-3 -0.20674 0.44068 0.26263 0.98638 1.0431 0.54571 0.78044 1.6437 1.9497 2.4399 2.5985l1.4477 1.1795 0.47822-1.0319c0.68996-1.4888 0.51882-3.8307-0.34757-4.7563-0.35466-0.37888-1.8769-1.2707-3.3828-1.9818s-3.3399-1.7254-4.0756-2.2539l-1.3376-0.96097 0.17482 1.881c0.37376 4.0216 2.0567 7.1892 4.5454 8.5553 0.72282 0.3968 1.3995 0.72422 1.5037 0.72761 0.10422 3e-3 -0.16434-0.51808-0.5968-1.1589zm330.48-1.6852c0-0.11242-0.41381-0.42728-0.91961-0.69966-0.50578-0.27237-1.1224-0.71935-1.3703-0.99328-0.3729-0.41203-0.18695-0.37727 1.0769 0.20135 1.7341 0.79391 2.9666 0.8577 5.0228 0.25995 1.7848-0.51887 2.3468-1.0993 1.6042-1.6569-1.0388-0.78009-4.0269-2.164-5.9024-2.7337-1.0565-0.32089-1.8728-0.63156-1.814-0.69035 0.21558-0.21561 4.0077 0.72334 5.5791 1.3814 2.4577 1.0292 2.5311 1.0416 2.3632 0.39963-0.23112-0.88379-1.7919-2.0709-3.3817-2.572-1.2556-0.39579-1.7019-0.41809-3.1185-0.15578-0.90927 0.16835-2.6057 0.38324-3.7699 0.47752-1.1642 0.0943-2.2059 0.22349-2.315 0.2871-0.10911 0.0636 0.15938 0.56086 0.59664 1.105 0.43725 0.54411 0.94776 1.5194 1.1345 2.1672 0.28964 1.0051 0.55152 1.3054 1.7846 2.0463 1.738 1.0443 3.4295 1.6244 3.4295 1.1762zm-366.39-0.84855c1.8855-0.70593 3.2697-1.8846 3.4865-2.9686 0.0952-0.47614 0.53964-1.3218 0.98759-1.8792 0.44794-0.55742 0.73371-1.0942 0.63504-1.1929-0.0987-0.0987-1.4501-0.31949-3.0031-0.49067-1.553-0.17121-3.3-0.39087-3.882-0.48816-1.3659-0.22831-3.941 0.70284-4.9609 1.7939-0.83808 0.89649-0.98947 1.6839-0.26458 1.3762 1.9376-0.82243 5.0601-1.7578 6.2156-1.862l1.3912-0.12544-1.3229 0.38026c-2.5503 0.73306-7.0115 2.8744-7.0115 3.3654 0 0.40801 1.1829 1.0026 2.8382 1.4267 1.8212 0.46657 3.1254 0.2776 4.8019-0.6958 1.4554-0.845 1.222-0.38709-0.35704 0.70043-2.0213 1.3921-1.9179 1.545 0.44607 0.65992zm382.48-1.451c1.9951-2.1829 3.1193-4.9044 2.026-4.9044-1.3813 0-2.6093 1.5221-3.4009 4.2152-0.7719 2.6261-0.51364 2.7555 1.3749 0.68916zm-398.96-0.9539c-0.29961-1.0812-0.78573-2.3557-1.0802-2.8323-0.85545-1.3842-2.8712-2.1307-2.8631-1.0604 7e-3 0.86437 1.4221 3.2335 2.7529 4.6075 0.80809 0.83431 1.5291 1.4571 1.6022 1.384 0.0731-0.0731-0.11218-1.0176-0.4118-2.0988zm404.94-0.27207c4.5188-1.3334 7.4257-3.9576 5.841-5.2729-0.91408-0.75861-3.6436 0.83807-7.3999 4.3287-1.399 1.3-1.5123 1.4766-0.95457 1.4871 0.34812 7e-3 1.4792-0.23778 2.5136-0.543zm-411.13-1.7376c-2.1311-1.9619-4.9774-3.9591-5.9812-4.1969-0.89017-0.21087-1.649 0.48594-1.4069 1.2919 0.28202 0.93877 1.7386 2.2877 3.3612 3.1127 1.4831 0.75417 5.4792 1.8844 5.7468 1.6255 0.0728-0.0704-0.70115-0.89537-1.7198-1.8332zm373.34 0.54007c1.7948-0.82923 2.0119-0.99775 1.5198-1.1798-1.0859-0.40169-3.6546-0.54994-4.8362-0.27911-1.3958 0.31991-1.7192 0.18362-0.63918-0.26932 0.42037-0.17629 2.6084-0.38798 4.8624-0.47043 4.9293-0.18029 5.1709-0.38132 2.4572-2.0444-1.9539-1.1975-3.7772-2.0281-3.7772-1.7209 0 0.10673 0.33062 0.38936 0.73472 0.62807 0.4041 0.2387 0.96964 0.69691 1.2568 1.0183 0.42071 0.47083 0.21389 0.4105-1.0654-0.31083-1.4369-0.81018-1.7883-0.89509-3.7042-0.89509-1.8821 0-2.2339 0.0813-3.175 0.73332-0.58208 0.40331-1.5048 0.80548-2.0505 0.89371-0.5457 0.0882-0.99219 0.2639-0.99219 0.3904 0 0.52279 2.0644 2.4685 3.1129 2.9339 1.2137 0.53875 2.703 0.68488 3.7662 0.36952 0.5093-0.15105 0.57015-0.1306 0.26458 0.0888-0.21828 0.15674-0.92625 0.42267-1.5733 0.59098-0.96883 0.25201-1.0855 0.34364-0.66146 0.5194 0.84119 0.34861 2.2764 0.0308 4.4999-0.99655zm-193.97 0.47003c0.28339-0.89289 1.5832-2.3933 2.9547-3.4106 1.7686-1.3119 2.4768-2.1841 3.6192-4.4573 0.88413-1.7592 1.8296-2.8395 3.3653-3.8453l0.65347-0.42802-1.2881-0.81687c-0.70845-0.44927-1.9578-0.94224-2.7764-1.0955-1.7248-0.3229-5.8632-1.3394-7.9706-1.9577-2.9414-0.8631-7.3526-0.39921-11.395 1.1983-2.125 0.8399-2.3955 0.88196-5.671 0.88196-3.7533 0-3.5629-0.062-6.2177 2.0258-1.2239 0.96245-3.2129 1.8214-4.7283 2.0419l-1.2249 0.17825 2.1864 0.8848c3.3436 1.3531 5.6335 1.8688 10.179 2.2926 5.7093 0.53226 9.0022 1.6092 13.167 4.3062 1.6258 1.0529 4.533 2.6749 4.8108 2.6842 0.0993 3e-3 0.2504-0.21391 0.33573-0.48273zm-138.01-7e-3c0.23997-0.15213 0.027-0.27529-0.66835-0.38647-0.56132-0.0898-1.2556-0.33949-1.5428-0.55494-0.47327-0.35499-0.42859-0.36364 0.47623-0.0923 1.5262 0.45767 3.7005-0.30703 5.1531-1.8123 0.61846-0.64087 1.1245-1.3262 1.1245-1.5229 0-0.20627-0.40734-0.42373-0.9625-0.51379-0.52938-0.0859-1.4039-0.46212-1.9434-0.83601-1.8534-1.2844-5.0224-1.1466-7.2805 0.31668-1.0047 0.65101-1.0315 0.65503-0.52917 0.079 0.29104-0.33374 0.88636-0.83891 1.3229-1.1226l0.79375-0.51576-0.79375 0.16844c-1.0943 0.2322-5.0271 2.6522-5.0271 3.0933 0 0.28024 0.87137 0.38967 3.9688 0.49844 2.991 0.10502 4.1969 0.25101 4.8948 0.59259 0.50932 0.24926 0.66932 0.39045 0.35555 0.31372-0.9025-0.22072-4.3647-0.15653-5.3826 0.0998l-0.92604 0.23318 1.1906 0.54017c0.65484 0.29707 1.7264 0.78793 2.3812 1.0908 1.2313 0.56946 2.7804 0.72043 3.3949 0.33088zm234.7-1.2314c1.1062-0.0932 3.202-0.0335 4.6572 0.13269 1.4552 0.16616 3.7769 0.35769 5.1594 0.42563l2.5136 0.12357-2.2242-0.67789c-1.2233-0.37283-2.4139-0.80143-2.6458-0.95242-0.34883-0.22715-0.35192-0.25363-0.018-0.15338 1.2182 0.36573 3.6365 0.74022 6.2109 0.96181 3.4428 0.29631 5.5145-0.0338 9.2493-1.474 2.403-0.9266 7.0222-3.2409 7.0229-3.5185 2.2e-4 -0.0833-1.5774-0.11179-3.5057-0.0631-1.9284 0.0486-3.4466 0.0333-3.3738-0.0341 0.0728-0.0673 1.3229-0.25937 2.7781-0.42675 3.5837-0.41219 6.5351-1.2438 8.0241-2.2608 0.67995-0.46445 2.4864-1.5502 4.0144-2.4129l2.7781-1.5684-1.5305-0.0796c-3.8393-0.19973-19.72 2.613-27.574 4.8836-5.8989 1.7056-12.38 4.5672-15.678 6.9218-1.2427 0.88744-1.0615 1.0841 0.6355 0.68961 0.82188-0.19105 2.3995-0.42359 3.5057-0.51678zm-137.18 0.11417c-0.0987-0.15968-0.96891-0.79955-1.9338-1.4219-7.0737-4.5626-17.227-7.6565-33.498-10.207-5.558-0.87141-9.928-1.2604-9.928-0.88395 0 0.13256 0.8632 0.70263 1.9182 1.2668 1.055 0.56423 2.7889 1.5938 3.853 2.2879 2.5997 1.6958 7.0959 2.8776 11.008 2.8934 0.71548 3e-3 1.231 0.0751 1.1456 0.16055-0.0854 0.0854-1.8423 0.15764-3.9042 0.16047l-3.7489 5e-3 0.88356 0.54435c1.6263 1.0019 6.1518 3.0377 8.4242 3.7895 1.9475 0.64436 2.639 0.74091 5.1594 0.72032 2.5368-0.0206 6.6975-0.53776 8.2288-1.0226 0.42449-0.13441 0.43702-0.11649 0.0808 0.11547-0.23191 0.15099-1.4225 0.57938-2.6458 0.95194l-2.2242 0.67739 2.6458-0.14304c1.4552-0.0787 3.8365-0.23973 5.2917-0.35795 2.6685-0.21677 7.0465 0.0427 8.1397 0.48228 0.82732 0.33272 1.3169 0.32435 1.1048-0.0188zm136.39-3.3263c1.8218-1.2153 6.6955-3.5502 9.2793-4.4456 6.8626-2.3783 15.963-4.2342 23.491-4.7906 1.3512-0.0998 2.4146-0.22368 2.3631-0.27514-0.0515-0.0515-1.276-0.34327-2.7212-0.64847-3.6855-0.77832-10.94-0.98583-14.424-0.41256-5.3909 0.88715-11.045 3.3315-14.927 6.4528-1.3254 1.0658-5.1892 4.9234-5.4894 5.4807-0.27364 0.50795-0.26361 0.50964 0.35499 0.0599 0.35009-0.25455 1.2829-0.89397 2.0729-1.4209zm-138.08 1.0038c-0.14603-0.27284-1.3156-1.5528-2.599-2.8443-4.673-4.7025-9.9916-7.5663-16.733-9.0103-3.5671-0.76398-11.297-0.6755-15.478 0.1772l-3.175 0.64751 1.8521 0.2046c11.929 1.3179 17.969 2.5773 25.167 5.2476 3.3186 1.2311 8.0659 3.671 9.8314 5.0528 1.4833 1.161 1.4729 1.1562 1.135 0.52483zm248.56-0.45731c1.2826-0.12933 1.653-0.23783 1.2045-0.35292-0.53959-0.13846-0.40868-0.22133 0.78526-0.49692 1.9805-0.45715 3.5349-1.4351 4.492-2.8263 0.44561-0.64768 1.2828-1.7237 1.8605-2.3912 1.0625-1.2277 1.3098-2.139 0.73594-2.7129-0.24283-0.24283-0.6006 7e-3 -1.5714 1.0958-0.75234 0.8441-3.0649 2.6518-5.7604 4.5029-4.6476 3.1917-5.2866 3.7218-4.2161 3.4975 0.33962-0.0711 1.4509-0.21338 2.4696-0.31607zm-358.65-0.30345c-2e-3 -0.10914-1.8739-1.4486-4.1589-2.9766-2.459-1.6443-4.887-3.5139-5.949-4.5809l-1.7943-1.8028-0.26443 0.69554c-0.38613 1.0156-0.37343 1.0498 0.93439 2.5224 0.65936 0.7424 1.5132 1.8249 1.8975 2.4055 0.81646 1.2338 2.2508 2.1322 4.3782 2.7426 1.6606 0.47643 2.0281 0.74673 0.66146 0.48659-0.47294-0.09-0.77657-0.0732-0.67474 0.0374 0.10184 0.11062 1.1139 0.28966 2.249 0.39788 1.1351 0.10821 2.2126 0.21341 2.3945 0.23375 0.1819 0.0204 0.3288-0.0523 0.32645-0.16142zm356.06-1.856c2.502-3.3896 3.6395-6.4372 3.0104-8.0659-0.31742-0.82185-0.82328-0.97441-0.82328-0.24826 0 0.7462-0.96829 4.258-1.6187 5.8706-0.82012 2.0335-1.1509 2.294-0.49463 0.38968 1.0596-3.0749 1.6474-8.0223 1.0778-9.0722-0.52871-0.97454-2.9467-3.3157-3.1762-3.0753-0.42855 0.44897-1.6091 3.5257-1.6091 4.1936 0 1.1495-0.49501 1.0054-0.57981-0.16883l-0.0816-1.1305-0.48755 0.71861c-0.26815 0.39523-0.58182 1.4787-0.69704 2.4077-0.1152 0.92897-0.34229 1.9372-0.50461 2.2405-0.40508 0.75692-0.36995 2.0119 0.087 3.1054 0.41481 0.99277 1.9948 3.3942 2.1386 3.2504 0.0487-0.0487-0.14137-0.9177-0.42236-1.9311-0.28101-1.0134-0.49897-2.3214-0.48437-2.9066 0.0249-0.99507 0.0499-0.95774 0.38613 0.57587 0.56753 2.5884 2.1165 5.331 3.0269 5.3596 0.0728 3e-3 0.63635-0.67871 1.2524-1.5133zm-5.3616 0.14735c-1.1596-1.3734-1.9708-3.3556-1.9736-4.8228-4e-3 -1.8324-0.68771-2.5306-2.4795-2.5306h-1.3263l0.6772 0.72761c0.90532 0.97271 2.3322 2.9945 2.3322 3.3046 0 0.13676-0.46561-0.34041-1.0347-1.0603-1.3539-1.7128-4.0166-3.501-5.2132-3.501-0.49273 0-0.89588 0.0698-0.89588 0.15512 0 0.0853 0.25649 1.0378 0.56997 2.1167 0.36843 1.268 0.88101 2.325 1.4497 2.9894 0.80497 0.94043 0.98901 1.0262 2.165 1.0084 0.95919-0.0146 1.7828 0.22063 3.2466 0.92678 1.0788 0.52035 2.1994 1.1284 2.4902 1.3512 0.81241 0.62227 0.80868 0.30194-8e-3 -0.66503zm-349.05 0.48421c0.67456-0.51229 2.0826-3.6836 2.3395-5.2693 0.21089-1.3015 0.21743-1.2753 0.11853 0.47445-0.0576 1.0186-0.28866 2.3879-0.51351 3.0427l-0.40882 1.1906 0.79969-0.92604c0.90949-1.0532 2.1016-3.4221 2.1016-4.1763 0-0.2777-0.16623-0.85063-0.3694-1.2732s-0.44712-1.431-0.54212-2.2409c-0.095-0.80997-0.43438-1.8815-0.75418-2.3812l-0.58145-0.9086-0.13455 1.4552-0.13456 1.4552-0.19747-1.3229c-0.18047-1.209-1.5804-4.6302-1.8946-4.6302-0.28852 0-2.6906 2.7352-3.0546 3.4783-0.34246 0.699-0.33513 1.1473 0.0638 3.8992 0.24792 1.7102 0.69025 3.8055 0.98296 4.6562 0.2927 0.85074 0.48411 1.5949 0.42536 1.6536-0.20202 0.202-1.6917-4.0324-2.1478-6.1053-0.40513-1.841-0.50125-2.0306-0.85201-1.6798-0.63993 0.63994-0.4987 2.8192 0.29507 4.553 0.89132 1.9469 3.3738 5.4375 3.8485 5.4113 0.0838-4e-3 0.35835-0.16489 0.61016-0.3561zm8.887-2.5459c1.968 0 2.9826-1.2009 4.0964-4.8484 0.33536-1.0982 0.33739-1.2966 0.0145-1.4205-1.1723-0.44984-3.5895 0.98034-5.8105 3.4379-0.68381 0.75666-1.0861 1.0781-0.89406 0.71427 0.52526-0.99486 2.1962-3.175 2.4334-3.175 0.11446 0 0.20811-0.11906 0.20811-0.26458s-0.54119-0.26458-1.2026-0.26458c-1.5766 0-2.5752 0.88831-2.3371 2.0789 0.21664 1.0832-0.5117 3.1299-1.7356 4.8771l-1.0165 1.4511 2.4868-1.2932c1.9672-1.0229 2.7523-1.2932 3.7572-1.2932zm352.08-1.9189c2.9027-1.9196 4.5731-3.2535 4.3516-3.475-0.39402-0.39402-4.1427 1.0525-5.8571 2.2602-0.64825 0.45662-3.1247 3.8772-3.1247 4.316 0 0.10181 0.44648-0.16063 0.99219-0.58319 0.5457-0.42254 2.1828-1.5556 3.638-2.518zm-365.91 0.91064c-1.0347-1.7655-2.2964-2.9364-4.0542-3.7627-1.2404-0.58309-3.8182-1.32-4.0075-1.1456-0.21582 0.19889 1.6914 1.6768 5.048 3.9117 1.8396 1.2248 3.4291 2.3635 3.5322 2.5304 0.10312 0.16687 0.24008 0.2508 0.30435 0.18653 0.0643-0.0643-0.30605-0.83841-0.82292-1.7204zm318.64-3.0509c0.6767-0.53359 1.8882-2.9554 1.874-3.7461-0.014-0.7851-0.0172-0.78668-0.27302-0.14584-0.3692 0.92451-1.3348 2.4434-1.4684 2.3098-0.0621-0.0621 0.15888-0.5734 0.49099-1.1363 0.52602-0.89149 0.62121-1.4932 0.73837-4.667 0.11676-3.1636 0.0823-3.6234-0.2618-3.491-0.21794 0.0839-0.99185 0.27588-1.7198 0.42658-2.0635 0.42717-3.4623 1.371-4.3653 2.9455-0.43437 0.75737-0.79087 1.2244-0.79221 1.0378-5e-3 -0.65103 0.82462-2.3121 1.5136-3.0315 0.38187-0.39865 0.64344-0.77531 0.58129-0.83704-0.23421-0.23252-2.6696 0.79716-3.5465 1.4994-0.68977 0.55242-1.0449 1.1579-1.4518 2.4753-0.29625 0.95917-0.53864 1.917-0.53864 2.1286 0 0.62291 0.44731 0.16344 0.61651-0.6333 0.0856-0.4032 0.45847-1.0903 0.82854-1.5269l0.67287-0.79375-0.26522 0.74483c-0.60685 1.7044-0.0354 4.6791 0.89897 4.6791 0.19624 0 0.86299-0.1786 1.4817-0.39688 1.2634-0.44574 3.8932-0.52308 4.4979-0.13229 0.35276 0.22799 0.35276 0.25694 0 0.26067-0.21829 3e-3 -1.1454 0.46463-2.0603 1.0274l-1.6634 1.0232 0.83069 0.16616c0.45688 0.0914 0.93752 0.10009 1.0681 0.0193 0.13058-0.0807 0.23741-0.0236 0.23741 0.12687 0 0.32784 1.5536 0.0788 2.0755-0.33274zm-272.78-0.0927c-0.25981-0.32028-0.26719-0.39-0.0259-0.24498 0.18545 0.1115 0.70225 0.1225 1.1484 0.0246l0.81127-0.17817-1.6776-1.0319c-0.92269-0.56754-1.8562-1.0404-2.0745-1.0506-0.26469-0.0124-0.22063-0.0945 0.13229-0.24614 0.86641-0.37232 2.7115-0.29446 4.5347 0.19135 1.9322 0.51488 1.9605 0.49987 2.5263-1.3384 0.23319-0.75758 0.23796-1.2934 0.0188-2.1143-0.16142-0.60478-0.25236-1.1407-0.20207-1.191 0.15434-0.15433 0.97154 1.2264 1.3447 2.272 0.3038 0.8512 0.35489 0.89464 0.36488 0.3102 0.0178-1.0396-0.71569-3.2656-1.3358-4.0539-0.56798-0.72207-2.163-1.6543-3.4737-2.0302-0.87579-0.25117-0.94267 0.0116-0.17889 0.70278 0.64195 0.58095 1.2647 1.7088 1.5849 2.8704 0.2066 0.74949 0.1944 0.77132-0.16529 0.29562-0.21359-0.28249-0.38835-0.61473-0.38835-0.73832 0-0.45246-1.2065-1.8392-2.058-2.3654-0.48132-0.29747-1.6832-0.74166-2.6708-0.98708l-1.7957-0.44625 0.0476 3.4514c0.0473 3.4342 0.27917 4.5808 1.1123 5.5014 0.23071 0.25493 0.29565 0.4635 0.14431 0.4635-0.34482 0-1.0577-1.074-1.5535-2.3402l-0.37862-0.9671 0.14345 1.148c0.0807 0.64621 0.52713 1.7477 1.0213 2.5202 0.74605 1.1663 1.0529 1.415 2.0436 1.6568 0.64118 0.15648 1.2101 0.30229 1.2643 0.32404 0.0542 0.0217-0.0649-0.16195-0.26458-0.40818zm162.98-1.179c0.58542-0.67004 0.59359-0.73639 0.18769-1.5214-0.23344-0.4514-0.51315-0.82074-0.62161-0.82074-0.10842 0-0.48651 0.5297-0.84018 1.1771-0.6309 1.1549-0.63365 1.1874-0.14624 1.7261 0.27321 0.30189 0.56685 0.4568 0.65252 0.34422 0.0856-0.11258 0.43116-0.51996 0.76782-0.90529zm-38.575-0.12793c0.13388-0.35213 0.40252-0.70128 0.59696-0.77589 0.2209-0.0848 0.31186-0.41942 0.24251-0.89207-0.0866-0.58981 0.0782-0.93723 0.74801-1.5773 0.47246-0.45154 0.96044-0.82095 1.0844-0.82095 0.31506 0 0.28297-1.2561-0.0371-1.4539-0.14436-0.0892-0.45342-0.0554-0.68681 0.0752-0.28451 0.15923-0.73948 0.0768-1.3809-0.25024-0.52615-0.26826-1.2205-0.48774-1.543-0.48774-0.60423 0-1.5331 0.96285-1.8294 1.8963-0.13089 0.4124-0.31536 0.49281-0.83267 0.36298-0.92705-0.23268-1.9314 0.47328-1.9314 1.3576 0 0.50657 0.40164 1.0593 1.4856 2.0444 1.387 1.2606 1.5637 1.3439 2.663 1.256 0.95752-0.0766 1.2229-0.21373 1.4209-0.73438zm2.2964 0.27181c-0.0879-0.0879-0.31613-0.0973-0.50713-0.0209-0.21106 0.0845-0.14838 0.14716 0.15986 0.15986 0.2789 0.0114 0.43519-0.0511 0.34727-0.13898zm16.441-0.64855c0.52853-0.44463 1.2288-1.031 1.5563-1.3029 0.47188-0.39195 0.59531-0.76842 0.59531-1.8158 0-1.7206-0.18878-2.1583-0.93083-2.1583-0.81283 0-1.9102 1.3421-2.2719 2.7787l-0.2886 1.1462-1.3156-0.39071c-0.72361-0.2149-1.6347-0.35383-2.0246-0.30877l-0.70898 0.0819 0.55507 0.55507c0.30528 0.30528 1.0443 0.63328 1.6423 0.7289 0.71853 0.11491 1.2481 0.39489 1.5616 0.82569 0.26093 0.35851 0.51821 0.65558 0.57176 0.66016 0.0536 5e-3 0.52981-0.35547 1.0583-0.8001zm-10.02-2.4327c0-0.2835-0.57994-0.24535-1.5822 0.10404-0.72887 0.25407-0.9054 0.235-1.1037-0.11925-0.35996-0.64323-1.0199-1.2417-1.3677-1.2403-0.39201 3e-3 -2.2962 1.7322-2.2962 2.0869 0 0.1447 0.50133 0.56206 1.1141 0.92745l1.1141 0.66434 2.0606-1.1124c1.1334-0.61183 2.0608-1.2017 2.0609-1.3108zm34.662-2.6133c0.53316-0.82489 1.2996-2.4942 1.7032-3.7097 1.671-5.0317 0.60362-11.788-2.7554-17.442-0.57086-0.96094-2.1229-3.106-3.449-4.7668-2.8598-3.5818-4.5522-6.8214-5.1712-9.8988-0.48403-2.4066-0.37616-4.1433 0.42942-6.9133 1.3198-4.5384 1.6367-7.8438 0.98536-10.279-0.40217-1.5037-0.70453-1.5739-5.9801-1.3896-6.2606 0.21873-10.278 1.7637-13.865 5.3323-2.0495 2.0391-2.0063 1.8012-0.86854 4.783 1.0725 2.8108 1.7153 6.4619 1.8399 10.451l0.1116 3.5719-0.26382-2.6092c-0.36192-3.5795-1.546-8.0829-2.8805-10.955l-1.1149-2.3996-0.98274 0.34671c-4.157 1.4667-6.4502 4.0404-6.457 7.2468-4e-3 1.8992 1.3715 6.6017 2.7581 9.4287 0.98285 2.004 0.99735 2.0681 0.27229 1.204-0.87183-1.0389-2.9081-4.8199-3.6052-6.6941-0.25707-0.69122-0.55139-1.2568-0.654-1.2568-0.10263 0-0.53295 0.62508-0.95626 1.3891-0.71371 1.2881-0.76962 1.5923-0.76925 4.1845 0 2.6613 0.042 2.8708 0.86633 4.3656 2.9033 5.2644 3.9938 8.4212 4.8383 14.006 0.71138 4.7042 1.36 6.9505 2.9033 10.054 1.6039 3.2256 2.1117 3.9197 2.7018 3.6933 0.39486-0.15152 0.37624-0.27072-0.17976-1.1515-2.0533-3.2526-3.3395-6.6999-4.0085-10.744-0.51951-3.1401-0.52121-3.539-0.0169-4.0432 0.33589-0.33588 0.42108-0.31533 0.67738 0.1636 0.22625 0.42272 0.19257 0.79922-0.14755 1.6492-0.41291 1.032-0.41167 1.2247 0.0196 3.0538 0.25312 1.0738 0.96824 2.9947 1.5891 4.2686 1.0802 2.2164 4.1823 6.6819 4.6418 6.6819 0.12073 0-0.35063-0.94855-1.0474-2.1079-1.4515-2.4151-2.2865-5.2661-1.996-6.8148 0.23612-1.2586 0.80108-2.3474 1.3218-2.5472 0.57843-0.22195 1.6191 0.228 1.8507 0.80016 0.10755 0.2658 0.30478 2.2692 0.43828 4.452 0.13351 2.1828 0.33581 4.445 0.44958 5.0271l0.20683 1.0583 0.44929-0.84674c0.27622-0.5206 0.44929-1.4481 0.44929-2.4079 0-2.6523 0.64701-3.7568 2.2007-3.7568 0.8472 0 0.94364-0.39206 1.1505-4.6774 0.12174-2.5224 0.0769-3.7073-0.162-4.2842-0.73705-1.7794-0.288-3.6762 0.7207-3.0441 0.62209 0.38984 0.73175 2.229 0.19484 3.2673-0.2322 0.449-0.3523 0.92946-0.26689 1.0676 0.0854 0.13819 0.16129 2.1588 0.16859 4.4901 0.0119 3.7605 0.0627 4.2391 0.45085 4.2405 0.24064 0 0.76494 0.17243 1.1651 0.38118 0.40018 0.20876 0.72761 0.29321 0.72761 0.1877 0-0.36328 1.5382-1.0997 2.2971-1.0997 0.41809 0 1.0257 0.18598 1.3502 0.41328 0.73245 0.51303 0.68983 0.63815 1.2227-3.5883 0.91442-7.2524 1.1575-16.783 0.56012-21.96-0.21566-1.8691 0.27252-0.17044 0.82886 2.8841 0.62235 3.4169 0.6218 13.211 0 18.242-0.24043 1.942-0.43712 3.7044-0.43712 3.9165 0 0.21207 0.74637-0.39457 1.6586-1.3481 1.4592-1.5253 1.7765-1.7337 2.6397-1.7337 0.75414 0 1.0812 0.15277 1.4138 0.66029 1.0194 1.5558-0.44945 3.9439-3.0161 4.9036-1.7154 0.64138-3.4898 1.5883-3.4898 1.8623 0 0.45358 1.1755 0.43217 1.9423-0.0353 1.7644-1.0759 2.9081-0.59705 4.6723 1.9561 0.3638 0.52649 0.7375 0.96051 0.83042 0.96453 0.36732 0.0159 2.3506-4.2422 2.8876-6.1995 0.47786-1.7419 0.52601-2.2928 0.29927-3.4246-0.42402-2.1164 0.41383-3.4616 1.2397-1.9902 0.34395 0.61274 0.32779 0.79941-0.16042 1.8521-0.29882 0.64434-0.66355 2.2474-0.81129 3.5658-0.14761 1.3173-0.57886 3.3201-0.95835 4.4505l-0.68995 2.0554 0.53358 0.67836c0.2935 0.37312 0.53795 0.87067 0.54327 1.1057 0.013 0.57788 2.7204-2.3184 3.9601-4.2365zm-8.2071 2.6133c3e-3 -0.25466-0.11343-0.46302-0.25699-0.46302s-0.42278-0.38695-0.62047-0.8599c-0.54084-1.2939-1.0822-1.6418-2.1003-1.3498-0.47006 0.13481-0.84272 0.38947-0.82817 0.56592 0.0145 0.17645 0.0443 0.67802 0.0661 1.1146 0.0217 0.43657 0.18851 0.79529 0.37041 0.79717 0.1819 3e-3 0.92604 0.28112 1.6536 0.62055 1.3597 0.63431 1.7072 0.54814 1.7157-0.42553zm-41.8-0.28972c0-0.34126 0.23813-0.83595 0.52917-1.0993s0.52903-0.54973 0.5289-0.63632c-1.6e-4 -0.0866-0.62524-0.50401-1.3891-0.92763-0.79645-0.4417-2.9451-2.3037-5.0378-4.3656-2.0069-1.9775-3.992-3.8931-4.4112-4.2569-0.92617-0.80367-1.1854-1.5902-0.72954-2.2137 0.32243-0.4409 0.37979-0.4355 1.0609 0.10025 0.44225 0.3479 0.83338 1.0166 1.0139 1.7336 0.23267 0.92398 0.67937 1.5309 2.1434 2.912 2.0801 1.9623 8.3603 6.7202 8.8767 6.7251 0.18502 3e-3 0.46892-0.28761 0.63085-0.64302 0.26747-0.58701 0.13779-0.83564-1.4143-2.712-3.8128-4.6093-8.6086-11.454-11.017-15.724-1.3798-2.4462-0.95843-2.0583 1.0826 0.99666 2.0056 3.0019 3.9204 5.4851 9.3613 12.14l3.251 3.9766 1.0331-0.0985c0.60857-0.058 1.3663 0.0738 1.8438 0.32073 0.5161 0.26691 1.013 0.34446 1.3671 0.21343 0.51126-0.18912 0.45712-0.28014-0.66773-1.1223-1.233-0.92316-3.407-3.4552-4.6489-5.4144-2.6491-4.1795-3.1402-5.5031-2.1784-5.8721 0.63904-0.24522 1.1524 0.62751 1.1524 1.9592 0 0.78171 0.22286 1.5006 0.70202 2.2645 0.98782 1.5749 2.995 4.1619 3.2291 4.1619 0.10781 0 0.14872-0.40505 0.0909-0.90012-0.20104-1.7221 1.8095-2.6476 3.3936-1.562 1.3747 0.94208 3.7254 4.239 5.8453 8.1982 0.83215 1.5541 1.3267 2.1964 1.7542 2.2784 0.32742 0.0628 0.59531 0.0715 0.59531 0.0193 0-0.0521-0.54862-0.83931-1.2192-1.7492-2.4168-3.2796-3.7223-6.6118-4.8867-12.473-0.96962-4.8808-1.3929-6.3617-2.5358-8.8713-1.9948-4.3803-4.6768-7.6276-10.507-12.722-5.7084-4.9875-7.3106-5.7473-12.866-6.1007-2.5616-0.16298-4.2454-0.42613-5.9531-0.9304-3.791-1.1195-4.3087-1.2067-5.4074-0.91086-1.3366 0.35991-2.2504 1.1139-3.0934 2.5523-0.82111 1.4011-0.76811 2.3874 0.2912 5.4193 1.4388 4.118 4.1254 8.494 7.8109 12.723l1.4534 1.6675-1.718-1.5628c-3.989-3.6286-7.191-7.9216-9.1523-12.271-0.60928-1.3512-1.1682-2.6877-1.2421-2.9702-0.0739-0.28244-0.44823-0.65656-0.83195-0.8314-1.0288-0.46873-1.3886 0.0492-2.1386 3.0779-0.44154 1.7832-0.98579 3.1649-1.7349 4.4048-1.5054 2.4914-1.6922 3.486-1.0452 5.5647 0.28451 0.91409 0.45652 1.9041 0.38227 2.2-0.22106 0.88075 2.7167 5.0443 5.2457 7.4346 3.058 2.8902 5.6227 4.2799 11.184 6.0599 6.5608 2.0999 11.457 4.728 15.023 8.0646 1.2896 1.2063 2.1053 1.7449 3.0265 1.9983 1.7761 0.48858 1.9225 0.47136 1.9225-0.22624zm30.21 0.25527c3.5848-3.7441 3.9215-4.1808 3.9215-5.0867 0-0.66874-0.78269-1.4273-1.4727-1.4273-0.62434 0-1.8051 1.19-2.0987 2.1152-0.23397 0.73721-0.66191 0.66482-0.66191-0.11197 0-0.70263-0.62312-1.4741-1.1906-1.4741-0.19748 0-0.55022 0.19113-0.78382 0.42476-0.44956 0.44956-0.3804 0.96015 0.31509 2.3261 0.21463 0.42158 0.38264 1.4038 0.37333 2.1828-0.0159 1.3219 0.0254 1.4163 0.61565 1.4163 0.34793 0 0.78992-0.16433 0.98222-0.36518zm6.405 0.023c0.44575-0.32594 0.4439-0.37198-0.0389-0.96824-0.4812-0.59426-0.57129-0.60981-1.7759-0.3065-1.2508 0.31496-3.3145 1.2427-3.3145 1.49 0 0.30466 4.6873 0.10792 5.1293-0.21527zm-58.824-1.1191c3.6151-1.4126 5.553-1.8078 8.8479-1.8041 2.2481 3e-3 3.2992 0.13115 4.6189 0.56531 0.93964 0.30911 1.7415 0.52895 1.7819 0.48852 0.16751-0.1675-4.4652-2.746-6.7971-3.7832-1.3827-0.615-4.5252-1.7272-6.9832-2.4716-2.458-0.74435-5.1964-1.7179-6.0854-2.1634-2.2378-1.1214-4.9425-3.167-6.535-4.9422-1.4631-1.6311-3.94-5.4614-3.9529-6.1129-6e-3 -0.32792-0.062-0.31514-0.2834 0.0652-0.3447 0.59229-0.0912 1.8091 0.70708 3.3933 0.33824 0.67135 0.99369 2.3382 1.4565 3.7042 1.0412 3.0728 1.7115 4.4196 3.2115 6.4523 1.5564 2.1092 6.7814 7.5406 7.2541 7.5406 0.2055 0 1.4471-0.41947 2.7592-0.93215zm120.56-0.67363c3.2341-1.3836 6.4852-3.3432 6.9322-4.1785 0.39005-0.72883 0.11734-1.2736-0.79711-1.5924-2.0196-0.70403-5.0306 1.3414-9.6392 6.5482-0.78817 0.89045-0.78828 0.89111-0.12745 0.69231 0.3638-0.10946 1.998-0.77079 3.6316-1.4696zm-155.77 0.84918c0-0.4994-5.3649-5.6248-6.6727-6.3747-1.583-0.90784-3.3365-1.0779-4.024-0.39042-0.60895 0.60896-0.52522 0.88498 0.59048 1.9463 1.1363 1.081 3.7086 2.4957 7.2837 4.006 2.602 1.0992 2.8225 1.1627 2.8225 0.81283zm71.437-0.28374c0-0.33705-1.2391-1.1903-2.4797-1.7075-1.2647-0.52727-1.2027-0.53338-1.0365 0.10202 0.0954 0.36489 0.36089 0.52917 0.85513 0.52917 0.42246 0 0.97192 0.27159 1.3382 0.66145 0.62066 0.66067 1.3229 0.88091 1.3229 0.4149zm8.351-2.0302c-0.0951-0.37906-0.27683-2.1545-0.40372-3.9454-0.12693-1.7909-0.37127-3.5187-0.54301-3.8396-0.29033-0.5425-0.34287-0.55277-0.7494-0.14624-0.33097 0.331-0.4372 0.93311-0.4372 2.4783 0 1.808 0.11184 2.2752 0.97914 4.0916 0.98473 2.0622 1.4753 2.6409 1.1542 1.3613zm-8.6156-0.0132c0-0.40423-3.5058-5.3967-4.14-5.8955-1.5961-1.2555-2.6502-0.25937-1.8223 1.722 0.61862 1.4806 1.11 1.9261 3.2463 2.9435 1.0528 0.50136 1.9826 1.0222 2.0661 1.1574 0.17335 0.28051 0.64987 0.33372 0.64987 0.0726zm12.779-1.6032c0.0781-0.40537 0.25826-1.1835 0.40045-1.7292 0.25429-0.97605 0.24614-0.99219-0.50059-0.99219-0.98711 0-1.5664 1.074-1.5664 2.9041v1.3429l0.76234-0.39423c0.47543-0.24585 0.81574-0.67159 0.90424-1.1313zm66.888-3.4913c0.60666-2.3721 0.66506-6.2753 0.12091-8.0833-0.63547-2.1116-1.7762-2.9459-3.0764-2.25-0.70662 0.37817-0.66228 1.6445 0.13145 3.7532 0.86595 2.3007 1.4688 5.6229 1.495 8.2391l0.0217 2.1536 0.40304-0.92599c0.22167-0.50929 0.62865-1.8083 0.90446-2.8866zm-53.538 1.9314c1.494-0.62582 2.5664-3.2368 1.4979-3.6468-0.67902-0.26056-0.8391-0.20177-1.8378 0.67511-0.8545 0.75026-3.2999 3.9134-3.2999 4.2684 0 0.13107 1.5476-0.42024 3.6398-1.2967zm-95.008-1.096c0.0534-2.7332 0.67886-5.9516 1.5666-8.0607 1.0138-2.4086 0.70998-3.9111-0.79078-3.9111-2.2964 0-3.4022 5.8243-2.0595 10.848 0.52502 1.9644 1.0253 3.4401 1.1658 3.439 0.04 0 0.093-1.0421 0.11789-2.3151zm158.93-7.2754c1.4702-2.3702 2.0883-3.894 1.9763-4.8723-0.0767-0.66969-0.20018-0.75849-1.1526-0.8286-0.84072-0.0619-1.1908 0.0535-1.6522 0.54464-0.60944 0.64872-1.0716 2.452-0.9919 3.8699 0.0254 0.45284 0.0672 1.3591 0.0926 2.014 0.0254 0.65484 0.1569 1.1906 0.2921 1.1906 0.13518 0 0.78121-0.8632 1.4357-1.9182zm-168.9-1.6008c6e-3 -3.5564-0.62215-4.6832-2.6088-4.6832-1.8811 0-1.5058 1.9559 1.2333 6.4266 0.6556 1.0701 1.0037 1.429 1.155 1.1906 0.11906-0.18764 0.21829-1.5079 0.22052-2.934zm174.17 1.4794c0.89008-0.56986 1.0173-0.73771 0.62127-0.81989-0.30147-0.0625-0.82145 0.22019-1.3178 0.71657-1.0098 1.0098-0.77393 1.0448 0.69657 0.10332zm11.697-0.12279c0.37444-0.1706 0.63844-0.43849 0.58668-0.59531-0.12408-0.37611-3.0195-0.49081-5.3436-0.21167l-1.8521 0.22246 1.7198 0.424c2.0896 0.51517 3.975 0.57705 4.8892 0.16052zm-200.1-0.51184c2.1701-0.45323 2.0319-0.67207-0.52918-0.83799-3.6422-0.23598-5.6136 0.19162-3.9557 0.85799 0.8333 0.33497 2.828 0.32605 4.4849-0.0201zm133.44-8.0212c-0.18216-3.1198-0.92477-6.9371-2.0308-10.439-1.0275-3.2536-3.7893-8.9227-5.4358-11.158-0.70233-0.95351-1.625-2.4246-2.0503-3.2691l-0.77332-1.5355-0.45789 2.2617c-0.25186 1.2439-0.58399 2.6555-0.73808 3.1368-1.2811 4.0015 0.26897 9.3538 3.9535 13.652 3.4469 4.0206 6.0058 8.1646 6.8927 11.162l0.35044 1.1845 0.22143-1.1845c0.12177-0.65148 0.15243-2.366 0.0681-3.81zm80.753 2.2964c0.14457-0.43918-0.97501-0.84217-1.8663-0.6718-0.48329 0.0924-0.71422 0.30237-0.71422 0.64937 0 0.44569 0.1618 0.50225 1.2361 0.43217 0.68731-0.0448 1.2842-0.22675 1.3444-0.40974zm-228.95-0.29932c0.19423-0.3143-1.953-0.89186-2.9092-0.78253-0.47806 0.0547-0.80329 0.26358-0.8578 0.55105-0.0769 0.40531 0.1435 0.46302 1.7681 0.46302 1.0207 0 1.9203-0.1042 1.999-0.23154zm215.79-1.7984c1.3819-1.2794 2.3779-2.5847 2.3779-3.1163 0-0.08-0.28845-0.14544-0.64101-0.14544-0.44997 0-0.98578 0.41397-1.7979 1.3891-1.1332 1.3606-2.5882 3.4822-2.5882 3.7739 0 0.31985 1.1125-0.47858 2.6492-1.9012zm-204.22 0.57859c-1.8276-3.0976-3.6393-4.8421-4.3208-4.1607-0.38429 0.38428 0.6695 1.9602 2.1043 3.1469 0.55663 0.46038 1.3044 1.0804 1.6617 1.3777 0.96581 0.80372 1.1661 0.6723 0.55473-0.36391zm205.21-11.712c1.5978-2.2894 1.8129-3.6371 0.33536-2.1019-0.63389 0.6586-1.9472 3.6233-1.6051 3.6233 0.11438 0 0.68577-0.68461 1.2698-1.5214zm-207.27 0.0706c-0.51759-1.519-1.4395-2.8868-2.0213-2.9988-0.39465-0.076-0.41716 0.0111-0.17072 0.65963 0.26851 0.70673 2.2582 3.5253 2.4885 3.5253 0.0592 0-0.0742-0.53377-0.29649-1.1861zm200.46-5.6078c0.5861-1.8976 0.40301-2.7136-0.4235-1.8872-0.64561 0.64564-0.85325 3.654-0.2522 3.654 0.0715 0 0.37555-0.79504 0.6757-1.7668zm-193.98-1.5369c-0.21267-0.64072-0.54221-1.0917-0.83952-1.149-0.42365-0.0816-0.4658 0.0246-0.31363 0.79015 0.0967 0.48641 0.37645 1.47 0.62171 2.1857l0.44593 1.3013 0.2178-1.0367c0.14626-0.6962 0.10281-1.3832-0.13229-2.0914z" fill="#fff" fill-opacity=".55026"/>
</g>
</svg>
