<svg width="557.31mm" height="484.687" viewBox="0 0 557.31 128.24" xmlns="http://www.w3.org/2000/svg"><path d="M479.89 127.547c-.326-.383-.772-.88-.99-1.105-1.078-1.11-1.878-2.337-2.127-3.262l-.275-1.023-.576.536c-.316.295-1.03.673-1.587.84-.586.175-1.41.745-1.962 1.355l-.952 1.054-.512-.635c-.282-.35-.749-1.143-1.037-1.763-.644-1.384-1.154-5.527-.792-6.436.418-1.051 1.613-2.12 3.162-2.83l1.46-.668-1.372-.351c-1.824-.467-2.456-.917-3.988-2.841-.71-.892-1.555-1.86-1.877-2.15-.803-.725-1.802-2.764-2.02-4.124-.153-.961-.118-1.1.242-.962 1.82.698 2.581.732 4.748.21 1.204-.29 2.605-.465 3.115-.39l.926.138-1.323-.963c-1.68-1.222-4.144-2.664-7.012-4.102-1.735-.87-2.894-1.238-5.075-1.611-3.015-.516-9.375-2.057-11.304-2.739-.641-.227-1.211-.367-1.266-.312-.15.15.898 2.828 1.475 3.768.41.667.733.852 1.73.989 3.975.544 7.076 3.569 8.652 8.438 1.243 3.838 3.546 7.286 4.929 7.38.254.017.105.117-.332.223-2.097.51-6.645-.31-9.26-1.67-3.951-2.053-6.723-6.883-6.742-11.752-.003-.77-.269-1.597-.836-2.6-.456-.81-1.15-2.436-1.542-3.614l-.711-2.142-2.36-.631c-6.355-1.699-11.965-2.453-18.252-2.453-7.283 0-12.814.997-17.44 3.142l-2.64 1.224 2.904.171c1.597.094 4 .373 5.34.62l2.436.45 2.064-.687c6.37-2.122 11.964-1.958 13.955.407.737.876.9 2.423.333 3.165-.487.639-1.917 1.298-2.814 1.298-.747 0-.797.062-.764.947.035.908.07.941.852.803 6.343-1.125 11.263.517 11.266 3.76 0 .621-.227 1.108-.772 1.654-.693.693-.947.773-2.448.769-1.421-.004-3.278-.376-5.955-1.195-.489-.149-.555-.091-.433.375.561 2.148-1.96 3.359-4.547 2.183-1.403-.637-3.61-3.09-4.907-5.452-.601-1.097-1.314-2.03-1.676-2.194-.346-.158-1.609-1.078-2.807-2.045-2.002-1.617-2.34-1.79-4.198-2.149-5.917-1.142-10.884-.655-15.25 1.497-4.828 2.378-9.616 3.287-15.028 2.851-9.588-.772-19.421-7.6-26.104-18.128-.94-1.48-1.978-2.813-2.306-2.963-1.484-.676-4.984-1.155-7.222-.989-3.807.283-6.306 1.073-14.296 4.516l-2.25.97 1.588-.163c2.766-.283 9.813.506 13.218 1.48 3.469.991 7.73 3.695 9.685 6.145 2.847 3.566 5.536 11.345 5.54 16.026.002 2.54.863 6.888 2.104 10.617.703 2.11 1.356 4.372 1.451 5.027l.174 1.19-2.46-2.438c-2.823-2.8-3.948-3.655-6.472-4.924-2.688-1.351-3.991-1.721-7.565-2.146-1.782-.212-3.775-.55-4.43-.753-4.807-1.484-8.338-4.981-9.807-9.711-.32-1.033-.675-3.412-.89-5.975-.301-3.584-.468-4.492-1.052-5.725-1.488-3.147-4.17-5.142-7.75-5.764-1.416-.246-1.94-.209-3.836.274-3.089.787-7.392 2.192-11.722 3.826-4.993 1.885-5.616 2.192-7.1 3.495-1.697 1.49-4.024 2.882-5.888 3.523-2.736.942-5.913.582-7.427-.84l-.578-.544-1.145 1.193c-2.678 2.786-6.77 2.533-11.573-.718-1.603-1.085-1.75-1.132-2.646-.855-.538.167-2.84.291-5.315.288-3.897-.006-4.638-.082-6.912-.71-1.401-.386-3.723-1.2-5.16-1.808-9.912-4.196-12.204-5.236-14.98-6.798l-2.12-1.192-2.09.412c-2.555.503-4.098 1.225-5.473 2.559-2.141 2.078-3.214 4.898-3.22 8.466-.009 4.828-1.741 9.629-4.479 12.408-2.612 2.651-5.811 3.962-10.995 4.506-2.986.314-5.404 1.018-7.54 2.196-2.363 1.303-5.107 3.485-6.895 5.482-.919 1.026-1.7 1.837-1.735 1.802-.196-.197.76-4.056 1.443-5.82 1.154-2.983 1.858-6.272 2.172-10.148.466-5.75 1.392-9.275 3.58-13.633 1.786-3.555 4.362-6.06 8.075-7.851 4.384-2.115 8.484-2.935 14.79-2.958l3.837-.014-2.249-.887a678.597 678.597 0 0 1-5.292-2.124c-5.058-2.056-9.014-2.772-12.587-2.28-3.963.546-4.25.724-6.134 3.812-4.024 6.597-10.439 12.625-16.499 15.505-7.821 3.717-16.501 3.715-24.198-.007-4.142-2.002-7.942-2.642-12.598-2.12-4.31.483-5.135.739-6.608 2.047a29.87 29.87 0 0 1-2.735 2.113c-1.09.724-1.676 1.394-2.592 2.964-1.527 2.619-3.079 4.358-4.505 5.049-2.661 1.288-5.487.043-4.802-2.116.159-.5.112-.558-.307-.388-2.987 1.21-6.936 1.636-8.1.874-.807-.53-1.369-1.836-1.155-2.688.643-2.562 4.682-3.953 9.653-3.324 1.219.154 2.249.245 2.29.202.04-.044.116-.434.166-.868.09-.763.047-.796-1.23-.979-2.69-.384-3.694-3.068-1.743-4.66 2.515-2.053 8.07-2.098 13.726-.11l2.04.717 2.249-.454c1.237-.25 3.612-.548 5.278-.662l3.03-.207-1.84-.896c-5.3-2.582-11.782-3.663-20.317-3.388-6.053.195-10.644.893-16.212 2.465l-2.41.68-.316 1.408c-.173.774-.825 2.407-1.448 3.629-.954 1.87-1.16 2.554-1.298 4.321-.296 3.783-1.576 6.563-4.08 8.856-2.493 2.285-5.609 3.412-9.865 3.57-2.292.084-2.775-.075-1.655-.545 1.425-.6 3.164-3.517 4.561-7.651.796-2.354 1.838-4.096 3.256-5.442 1.119-1.063 3.793-2.337 5.356-2.55 1.223-.169 1.263-.204 1.995-1.785.41-.887.823-1.931.916-2.32l.17-.706-2.074.645c-2.893.899-6.827 1.832-10.408 2.47-2.61.463-3.456.752-5.953 2.031-1.6.82-3.922 2.161-5.16 2.98l-2.248 1.489 1.19.062c.655.034 2.045.264 3.089.51 1.881.446 2.455.399 4.253-.347.562-.233.382 1.507-.31 2.994-.35.751-1.274 2.061-2.052 2.91-.779.849-1.68 1.916-2.002 2.37-.666.941-1.943 1.625-3.578 1.915l-1.12.2 1.309.587c3.232 1.453 3.76 2.38 3.393 5.95-.262 2.544-.977 4.482-1.993 5.401-.477.432-.518.429-.788-.054-.493-.88-1.467-1.628-2.54-1.95-.571-.17-1.185-.488-1.366-.706-.498-.6-.681-.489-1.014.622-.31 1.039-3.224 4.603-3.885 4.754-.416.095-1.852-1.75-2.433-3.126-.216-.51-.702-1.336-1.08-1.837-.411-.545-.689-1.256-.689-1.767v-.854l-1.185.695c-1.081.633-1.467.7-4.354.752-1.742.031-3.45-.051-3.798-.183l-.63-.24.535-.73c.295-.402.658-1.376.806-2.166.148-.79.55-1.92.892-2.513s.705-1.427.808-1.852c.102-.425.619-1.17 1.147-1.653.732-.67.848-.88.484-.88-1.399 0-6.447-3.813-5.506-4.159.185-.068.503-.52.705-1.005.627-1.5 1.169-1.675 5.474-1.766l3.87-.082-.232-.613c-.327-.862-.29-3.148.063-3.836.163-.318.728-1.04 1.257-1.604l.96-1.026-3.439.16c-6.13.287-10.638 1.389-11.355 2.775-.343.664-.964 2.696-1.321 4.322-.343 1.56-2.466 3.193-5.055 3.887-.58.155-2.304.465-3.832.688-3.744.546-6.14 1.344-8.13 2.706-.913.625-1.66 1.099-1.66 1.054 0-.512 1.052-3.353 1.78-4.809 1.914-3.822 5.172-7.484 7.85-8.821 1.165-.583 1.698-1.077.78-.725-.242.093-2.086.173-4.099.179-3.659.01-3.66.01-5.1.877-.793.477-2.42 1.192-3.618 1.587-1.68.555-2.508 1.015-3.628 2.013-4.378 3.902-9.917 4.752-14.809 2.273-1.728-.875-4.349-2.883-5.17-3.96l-.681-.892 1.005.346c1.517.522 3.897-.088 8.037-2.06l3.498-1.665h2.653c2.803 0 3.872.298 6.005 1.675 1.134.731 1.92.673 4.023-.3l1.304-.604-1.436-.546c-.944-.36-2.161-.564-3.553-.598-4.303-.104-6.72-.86-15.68-4.904-5.333-2.407-5.662-2.52-6.35-2.172-3.145 1.592-7.2 1.081-9.984-1.258-.67-.563-.715-.668-.285-.676.493-.009.491-.03-.035-.605-1.495-1.634-1.8-3.98-.87-6.68.573-1.67.67-3.217.282-4.566-.135-.472-.213-.859-.173-.859.04 0 .479.209.974.464.71.365 1.571.463 4.076.463 2.781 0 3.328.075 4.415.61 1.691.834 3.074 2.415 3.29 3.764l.171 1.074.625-.586c.344-.323.697-.514.786-.425s.222 1.15.295 2.36c.11 1.811.036 2.452-.419 3.638-.304.791-.525 1.451-.492 1.466l4.955 2.235c5.487 2.475 10.032 4.124 12.097 4.388l1.381.176-1.2-1.79c-.66-.984-1.723-2.371-2.362-3.082-.639-.71-1.494-1.97-1.9-2.797-.66-1.342-.738-1.782-.721-4.02.023-3.024.673-5 2.6-7.898 1.405-2.114 2.448-3 1.936-1.645-.421 1.118.31 2.557 2.8 5.513 3.092 3.667 3.688 5.479 2.594 7.886-.508 1.12-2.072 2.879-3.182 3.581l-.64.405.84 1.221c1.308 1.903 3.718 3.33 6.855 4.06 1.803.42 8.246.58 8.828.22.157-.096-.295-.504-1.01-.912-2.277-1.3-3.888-3.485-4.542-6.155-.417-1.705-1.899-10.319-1.793-10.424.242-.242 10.456 4.65 11.719 5.613l.836.638.462-1.887c.934-3.81 2.81-6.56 5.363-7.863l1.033-.527.155 1.849c.16 1.902.682 3.244 2.36 6.061.776 1.302.866 1.664.86 3.44-.008 2.246-.483 3.396-2.584 6.247l-1.191 1.618 2.817.14c1.55.076 3.353.33 4.008.561.986.35 2.543.422 9.089.426 8.369.004 13.878-.304 18.427-1.029l2.778-.443-2.514-.592a31.7 31.7 0 0 1-9.054-3.7l-2.19-1.321-2.91-.152c-5.608-.292-9.943-1.998-11.506-4.527-1.047-1.694-.391-3.864 1.278-4.231.41-.09 1.269-.046 1.908.097.639.144 1.18.238 1.204.21.023-.028.119-.41.213-.85.168-.788.152-.802-1.358-1.149-6.47-1.485-10.33-5.689-7.59-8.263 1.356-1.272 3.658-.636 6.915 1.91 1.82 1.423 1.924 1.471 1.924.88 0-.666 1.233-1.708 2.021-1.708 1.229 0 2.825.962 3.613 2.176.89 1.37 1.738 4.016 1.956 6.095.12 1.157.407 1.913 1.172 3.09a41.49 41.49 0 0 1 1.818 3.143c.604 1.19 1.119 1.786 2.058 2.384 4.742 3.02 10.173 4.6 15.937 4.635 2.877.018 3.226-.041 6.4-1.079 6.248-2.042 11.836-3.246 17.752-3.825l3.132-.307-3.522-1.235c-6.243-2.19-12.216-4.97-15.648-7.281-1.626-1.096-1.831-1.128-1.493-.238.334.878.33 2.275-.01 3.167-.147.388-.497 1.756-.777 3.04s-.804 2.79-1.163 3.347c-.94 1.459-2.266 2.923-2.279 2.517-.006-.192-.267-.945-.581-1.674-.457-1.062-.952-1.608-2.484-2.741-2.885-2.134-3.82-4.381-2.862-6.878.13-.34-.224-.243-1.521.413-1.89.957-2.954 1.057-5.904.55-3.169-.543-4.873-1.883-4.38-3.444.12-.383.289-1.124.375-1.648.21-1.273 1.714-2.746 3.364-3.294l1.295-.43-.686-.539c-.376-.296-.993-1.03-1.37-1.63-.376-.6-1.207-1.706-1.846-2.457-1.56-1.834-1.818-2.786-1.135-4.197.29-.598.526-1.244.526-1.437 0-.832 5.302.528 7.129 1.829l.741.528.137-1.215c.077-.674.39-1.525.704-1.912.312-.383.818-1.228 1.124-1.876s1.12-1.78 1.807-2.514c.687-.734 1.355-1.66 1.485-2.06l.235-.725.839.51c.461.28 1.168 1.084 1.57 1.784.402.7 1.123 1.607 1.602 2.015.866.737 1.677 2.705 1.677 4.069 0 .726.187.766.835.18.297-.27 1.356-.54 2.799-.715 2.488-.3 6.859-.354 7.126-.086.09.09-.106.38-.434.647-.436.353-.697 1.016-.966 2.454-.247 1.32-.625 2.338-1.148 3.086-.832 1.19-.824 1.224.371 1.51.428.103 1.137.443 1.577.756.552.393 1.312.601 2.463.674.916.059 1.665.165 1.665.236 0 .072-.354.871-.786 1.777-.597 1.25-1.297 2.108-2.91 3.565-1.24 1.119-2.508 2.024-3.047 2.172-1.079.298-2.526-.024-4.423-.985-1.853-.94-1.901-.755-.079.303 2.553 1.482 7.236 3.701 10.483 4.967 4.696 1.831 13.476 4.403 15.05 4.408.66.003.66.003-.132-.523-.437-.29-.998-.527-1.247-.528-1.126-.004-3.475-1.183-4.836-2.427-1.763-1.61-2.857-3.773-3.314-6.55-.384-2.328-.168-5.842.42-6.858l.407-.703-.133.824c-.224 1.39 1.033 2.303 5.184 3.765 3.055 1.076 4.239 1.704 5.066 2.688 1.37 1.627 1.532 4.33.413 6.862-.42.95-.455 1.236-.181 1.502.525.51 3.514 1.425 4.653 1.425 2.628 0 8.899-2.22 14.045-4.973 4.088-2.186 7.205-3.487 10.742-4.48l2.574-.724-2.212-.448c-6.519-1.32-12.25-4.055-15.504-7.4-.762-.782-1.547-1.648-1.745-1.924-.344-.48-.415-.483-1.639-.066-1.593.543-4.463.562-5.942.04-1.515-.534-3.986-2.347-3.363-2.467.406-.079.383-.18-.197-.87-1.29-1.533-1.502-3.496-.658-6.089.42-1.29.525-2.16.443-3.695l-.106-2.007.813.42c.591.304 1.649.428 3.86.451 3.472.037 5.123.549 6.565 2.037.81.837 1.737 2.899 1.437 3.199-.086.086-.044.156.094.156.137 0 .48-.268.76-.595l.51-.596.184.662c.344 1.239.243 4.383-.181 5.63-.25.732-.822 1.59-1.423 2.133-.553.5-.931 1.019-.84 1.153.368.54 3.733 2.727 5.723 3.72 5.49 2.738 15.327 5.474 21.647 6.02 1.137.097 3.042.449 4.233.78 1.191.331 3.689 1.03 5.55 1.554 5.932 1.668 12 2.233 14.343 1.335 3.424-1.313 5.159-1.732 7.805-1.883 2.28-.131 2.636-.205 1.984-.41-1.244-.394-7.95-.338-10.186.085-2.78.526-8.538.464-11.504-.123-3.448-.682-5.452-1.35-8.78-2.926-3.255-1.542-5.094-2.682-7.914-4.908-2.181-1.72-6.15-4.24-10.362-6.582-1.636-.91-3.027-1.738-3.092-1.842-.064-.104 1.156-.031 2.71.161 3.414.423 6.429.172 12.352-1.026 5.088-1.03 11.558-1.305 15.481-.659 7.455 1.227 13.332 4.122 18.605 9.163 2.52 2.409 5.27 5.96 6.453 8.336l.659 1.323 3.214 1.094c1.767.602 5.118 1.87 7.447 2.817 2.328.948 4.53 1.805 4.895 1.905.81.221-3.579-4.162-6.75-6.74-2.766-2.248-9.162-7.737-12.168-10.442-4.11-3.698-4.61-4.024-7.98-5.205-11.526-4.038-16.077-7.919-12.284-10.475.492-.331 1.294-.603 1.782-.603s.887-.105.887-.234c0-.568-3.533-3.44-5.523-4.49l-2.184-1.152-2.563.854c-4.862 1.621-8.53 1.354-9.506-.692-.379-.793-.377-.925.022-1.533.512-.783 1.65-1.075 4.21-1.082.981-.003 1.785-.079 1.785-.168.001-.23-2.749-1.206-5.076-1.8-3.415-.874-4.158-.907-6.914-.31-2.81.609-5.617.716-6.632.254-.997-.455-1.362-1.57-.842-2.577.231-.447.65-.935.93-1.085.824-.442 2.826-.314 4.452.285 1.523.56 2.473.755 6.16 1.261 1.099.151 2.23.36 2.513.462.283.104-.228-.594-1.135-1.549-2.304-2.425-2.749-3.815-1.574-4.919 1.64-1.54 4.053-.015 6.625 4.187.757 1.237 1.603 2.686 1.88 3.22.44.845.885 1.142 3.433 2.287 1.61.724 2.97 1.276 3.023 1.228.052-.05-.383-.602-.967-1.23-1.755-1.883-5.01-5.736-7.221-8.547-1.145-1.456-2.684-3.301-3.42-4.101-2.328-2.533-3.784-4.868-3.81-6.111-.05-2.364 2.487-2.658 4.071-.47.796 1.098 1.639 3.343 2.129 5.673.222 1.055.745 1.935 2.453 4.129 1.195 1.533 2.67 3.37 3.279 4.083l1.107 1.295-1.17-3.508c-1.17-3.515-2.235-8.057-2.235-9.535 0-.434-.36-1.557-.799-2.496-.44-.938-.937-2.368-1.107-3.176-.268-1.277-.25-1.56.14-2.155.887-1.353 2.99-1.104 3.794.45.53 1.024.566 3.401.093 6.217-.439 2.607-.213 4.372 1.077 8.436.873 2.747 1.3 3.545 1.3 2.427 0-.944 1.324-3.418 2.15-4.017.812-.588 1.708-.422 1.956.363.226.71-.232 2.029-1.773 5.107l-1.308 2.61.695 1.623c.418.977 1.32 2.307 2.265 3.342l1.57 1.72-.698-1.56c-1.24-2.77-1.178-4.887.16-5.579 1.614-.834 3.914-.324 4.882 1.082 1.06 1.541 1.32 5.694.562 8.965l-.402 1.732 3.98 3.898c2.189 2.144 4.09 3.936 4.225 3.984.135.047-.051-.584-.414-1.404-1.58-3.572-2.391-8.313-1.953-11.409.626-4.415 2.932-6.61 5.531-5.267 1.72.89 2.052 2.757.953 5.368-2.012 4.78-1.984 12.804.056 16.305.467.801 6.296 6.17 11.033 10.161l2.38 2.007-1.605-1.706c-1.715-1.822-2.879-3.93-3.156-5.717l-.171-1.1 2.628.145c2.415.133 2.745.09 4.082-.521.8-.366 2.14-1.288 2.98-2.049 1.53-1.384 3.775-2.635 4.768-2.656.453-.009.415-.095-.265-.597-4.409-3.253-7.441-7.393-8.845-12.074-.324-1.078-.962-2.745-1.418-3.704-.593-1.246-.858-2.232-.929-3.462-.088-1.518-.017-1.841.604-2.752l.704-1.031-.443-1.638c-.61-2.25-.247-3.909 1.437-6.576.701-1.11 1.478-2.705 1.727-3.544.874-2.947 1.256-3.765 2.08-4.459.733-.617.995-.683 2.2-.559l1.368.141.493-1.102c.792-1.772 2.458-3.253 4.243-3.775 1.71-.5 2.867-.38 6.701.69 1.272.355 3.363.635 5.821.779 2.19.128 4.461.415 5.292.668 1.757.537 4.492 2.133 5.999 3.502.607.551 2.333 2.06 3.836 3.352 1.503 1.293 3.298 2.953 3.99 3.689l1.256 1.338v-2.157c0-2.518.5-4.26 1.637-5.699.437-.555.846-1.388.907-1.852.285-2.16.458-2.782 1.098-3.963.378-.696 1.192-1.732 1.809-2.3 1.08-.996 4.023-2.643 5.397-3.02.384-.105 1.169-.87 1.872-1.824 4.03-5.47 11.98-7.82 21.09-6.24 1.534.267 1.701.364 2.152 1.253.27.53.63 1.643.802 2.475.417 2.02 2.41 5.872 4.63 8.946 5.374 7.44 8.591 19.369 7.127 26.424-.106.511.24.29 1.79-1.145 2.1-1.945 5.456-3.77 8.295-4.514 2.718-.712 7.037-1.004 9.712-.656 2.893.376 3.775.229 5.472-.914l1.318-.887.414 1.035c.467 1.167.537 2.782.163 3.766-.224.588-.15.72.674 1.207 1.943 1.146 2.151 3.746.68 8.49-.882 2.846-1.672 6.647-2.306 11.093-.79 5.546-2.184 9.28-5.143 13.774-.91 1.382-1.373 2.265-1.028 1.962.345-.303 1.996-1.72 3.67-3.148s3.578-3.085 4.233-3.682 2.074-1.86 3.153-2.806c1.394-1.22 2.145-2.115 2.59-3.086 1.873-4.091 1.858-10.763-.038-15.5-1.445-3.612-.483-6.02 2.403-6.02 2.389 0 3.802 2.389 4.005 6.77.146 3.163-.342 5.96-1.646 9.436-.478 1.273-.803 2.315-.724 2.315.08 0 1.947-1.79 4.15-3.98l4.004-3.98-.371-1.642c-.204-.904-.387-2.833-.406-4.289-.04-3.156.531-4.798 1.978-5.68 1.322-.806 3.363-.738 4.314.144.68.63.724.793.593 2.183-.078.826-.416 2.097-.75 2.824a96.813 96.813 0 0 0-.72 1.588c-.061.145.505-.39 1.258-1.191.752-.8 1.786-2.304 2.296-3.342l.927-1.886-1.484-2.928c-1.598-3.152-1.991-4.559-1.457-5.203.95-1.144 2.698.277 3.585 2.914.344 1.023.681 1.664.759 1.446.653-1.838 1.492-4.715 1.87-6.413.47-2.114.456-2.833-.124-6.376-.601-3.68.366-5.993 2.506-5.993.892 0 1.542.53 1.836 1.497.222.73-.267 2.69-1.183 4.742-.395.885-.804 2.373-.91 3.307-.245 2.179-1.45 6.892-2.493 9.748-.447 1.226-.778 2.264-.735 2.307.06.06 4.543-5.478 6.062-7.488.127-.17.521-1.388.875-2.71 1.063-3.974 2.31-5.926 3.997-6.264.618-.124.975-.013 1.547.478.644.554.72.764.566 1.58-.223 1.193-1.84 3.705-3.66 5.688-.775.844-2.798 3.268-4.495 5.386-1.698 2.118-4.07 4.965-5.272 6.325l-2.185 2.473 1.44-.18c.792-.1 2.042-.42 2.777-.713 1.227-.487 1.409-.677 2.206-2.307 3.34-6.83 6.774-9.83 8.694-7.598 1.376 1.6.424 3.173-4.267 7.047-.128.105.884-.093 2.25-.44 1.364-.347 3.135-.712 3.935-.811.8-.1 2.314-.523 3.363-.942 2.056-.82 4.105-1.022 5.08-.5.689.368 1.335 1.721 1.154 2.414-.397 1.519-3.123 1.948-7.083 1.115-2.11-.443-2.578-.46-4.101-.157-2.595.519-7.142 2.041-6.35 2.126 3.37.363 4.619 1.195 3.924 2.613-.565 1.15-1.57 1.72-3.322 1.879-1.639.148-4.872-.407-6.658-1.145-.859-.354-.973-.328-2.646.606-.962.537-2.69 1.58-3.84 2.317-1.151.738-2.206 1.308-2.344 1.266-.27-.081-.99.43-.988.703 0 .091.42.175.933.186 1.706.037 3.27 1.78 2.906 3.24-.097.39-.76 1.272-1.472 1.96-1.644 1.587-6.902 4.186-11.971 5.916-2.38.812-3.74 1.416-3.912 1.735-.144.27-.382.49-.53.49-.146 0-1.839 1.402-3.76 3.115-6.416 5.72-11.147 9.742-17.591 14.956-1.205.975-2.072 1.773-1.927 1.773.145 0 2.346-.887 4.89-1.972s5.7-2.304 7.01-2.712l2.384-.74.832-1.587c3.373-6.432 10.111-12.401 17.18-15.222 6.496-2.592 15.15-3.086 23.6-1.345 5.719 1.178 8.475 1.4 11.986.965 1.601-.198 2.939-.333 2.973-.299.035.034-.968.636-2.228 1.338-3.973 2.212-8.262 4.84-10.04 6.152l-3.618 2.672c-2.051 1.515-7.248 4.169-9.874 5.043-3.39 1.128-6.926 1.68-10.814 1.689-2.038.005-4.24-.128-4.895-.294-2.077-.527-7.627-.688-9.677-.281l-1.833.364 2.91.18c2.802.173 4.274.53 8.07 1.957 2.465.926 10.099-.047 16.487-2.101 3.409-1.097 4.82-1.4 8-1.723 3.2-.325 10.356-1.943 14.257-3.224 3.7-1.214 7.865-3.148 10.24-4.754 2.418-1.635 2.465-1.741 1.278-2.87-1.358-1.292-1.965-3.378-1.763-6.053.082-1.077.217-2.026.3-2.11.084-.083.449.128.812.47l.66.62v-.586c0-.772.85-2.402 1.632-3.132 1.401-1.307 3.042-1.772 6.306-1.785 2.36-.01 3.245-.117 3.943-.476.496-.255.934-.463.974-.463.04 0-.038.386-.173.858-.39 1.361-.29 2.904.301 4.59.4 1.144.522 2.037.455 3.331-.078 1.522-.21 1.916-.94 2.826-.714.887-.778 1.07-.4 1.144.615.118-1.873 1.937-3.371 2.466-1.459.514-3.68.502-5.582-.032l-1.52-.426-.879 1.01c-3.765 4.333-9.047 7.115-16.566 8.728l-2.194.47 2.515.745c3.689 1.093 6.014 2.074 11.088 4.678 6.079 3.12 11.35 4.857 14.069 4.635 1.428-.117 3.726-.837 4.097-1.284.134-.162.022-.879-.272-1.728-.664-1.926-.672-4.479-.017-5.762.846-1.658 1.608-2.14 5.704-3.603 3.36-1.2 4.858-2.092 5.06-3.01.087-.396.19-.838.23-.983.207-.762.673 2.17.675 4.244.003 3.917-.987 6.85-2.983 8.84-1.436 1.433-2.859 2.257-4.732 2.74-.824.212-1.773.578-2.11.813-.596.418-.597.428-.054.428.93 0 8.208-2.004 11.864-3.267 4.157-1.436 6.867-2.585 11.125-4.718 3.61-1.808 5.574-3.121 2.509-1.677-1.412.665-2.344.931-3.259.931-1.811 0-2.06-.158-5.413-3.436-.887-.867-2.175-3.175-2.181-3.906-.003-.219.425-.33 1.258-.33.78 0 1.613-.204 2.183-.532 1.307-.752 1.873-.997 2.744-1.184l.764-.165-.666-.714c-.946-1.015-1.186-1.576-1.537-3.594-.23-1.315-.487-1.947-.98-2.404l-.67-.62 1.522-.19c.837-.105 2.194-.103 3.015.003.82.107 2.272.271 3.224.365.953.094 2.05.379 2.438.633.389.255.77.463.848.463.078 0 .144-.506.148-1.124.007-1.43.804-3.2 1.708-3.791.385-.252.994-1.04 1.354-1.75.367-.724 1.025-1.517 1.498-1.804l.844-.513.478.984c.264.541.938 1.461 1.5 2.044.562.582 1.23 1.476 1.486 1.985.256.51.763 1.318 1.127 1.797.422.556.707 1.34.786 2.166l.125 1.294.96-.635c1.238-.82 3.744-1.679 5.445-1.867l1.336-.148.634 1.315c.442.918.585 1.558.473 2.117-.14.703-1.927 3.205-4.396 6.154l-.793.947 1.448.6c1.91.792 2.881 1.989 3.287 4.052.287 1.457.27 1.667-.192 2.291-.696.943-1.967 1.5-4.216 1.848-3.002.465-4.07.38-5.724-.454l-1.483-.748.158 1.518c.199 1.9-.518 3.557-2.086 4.815-3.09 2.482-3.911 3.463-3.911 4.675 0 .77-.359.674-1.242-.332-1.316-1.5-1.883-2.634-2.336-4.684a76.053 76.053 0 0 0-.837-3.394c-.315-1.117-.338-1.654-.108-2.565.16-.634.29-1.223.29-1.31 0-.086-.685.305-1.522.869-3.58 2.412-9.716 5.29-15.94 7.474l-3.308 1.16 3.307.328c1.82.18 4.082.457 5.027.616 2.818.471 8.9 2.028 12.43 3.18 3.095 1.012 3.49 1.078 6.352 1.072 5.788-.012 11.325-1.595 15.94-4.556.955-.613 1.489-1.217 2.046-2.314.414-.816 1.24-2.198 1.836-3.071.596-.873 1.084-1.86 1.084-2.194 0-1.096.826-4.662 1.359-5.876.935-2.133 2.576-3.44 4.317-3.44 1.057 0 1.997.748 1.997 1.588 0 .29.064.529.142.529.078 0 .942-.614 1.919-1.364 1.945-1.494 4.08-2.598 5.03-2.602.82-.003 2.092.68 2.427 1.305.388.727.336 2.034-.116 2.908-.993 1.92-4.522 4-8.13 4.792-1.494.327-1.506.338-1.352 1.151.204 1.075.184 1.062 1.165.72 1.144-.4 1.97-.372 2.875.097.851.44 1.476 1.912 1.192 2.808-.254.799-1.924 2.58-3.138 3.347-2.089 1.319-6.769 2.446-10.163 2.447-1.529 0-1.847.11-3.86 1.322-2.737 1.647-5.388 2.754-8.612 3.595-1.373.358-2.537.692-2.586.741-.189.188 6.577.968 10.375 1.196 2.182.13 7.302.206 11.377.167 5.933-.056 7.696-.156 8.855-.502.887-.265 2.397-.432 3.905-.432h2.459l-1.13-1.39c-3.45-4.24-3.865-7.375-1.464-11.07 1.287-1.982 1.794-3.52 1.794-5.442 0-.777.064-1.413.143-1.413.079 0 .62.243 1.202.54 2.353 1.201 4.269 4.077 5.214 7.828l.475 1.886.65-.527c1.186-.96 11.566-5.91 11.834-5.643.127.127-.192 2.188-1.16 7.51-.91 5.006-2.264 7.359-5.198 9.034-1.172.67-1.23.748-.674.897 1.143.306 6.69.163 8.493-.219 3.157-.669 5.88-2.323 7.118-4.324l.543-.878-1.498-1.335c-1.926-1.717-2.643-3.075-2.63-4.98.013-1.829.365-2.5 2.856-5.435 1.106-1.303 2.32-2.994 2.698-3.758.652-1.317.665-1.422.253-2.05-.611-.933-.15-.823.827.198 1.135 1.186 2.56 3.71 3.253 5.758.476 1.408.56 2.143.469 4.097-.133 2.86-.717 4.18-2.957 6.691-.816.915-1.484 1.77-1.484 1.898s-.416.78-.924 1.445c-.509.666-.896 1.21-.86 1.21.035 0 1.03-.17 2.211-.378 2.473-.435 4.968-1.36 11.549-4.281 4.17-1.852 4.682-2.146 4.537-2.616-.759-2.452-.952-3.664-.792-4.947.097-.774.292-1.585.434-1.802.225-.344.305-.335.614.068.515.673.64.589.973-.661.403-1.506 2.148-3.171 3.95-3.77 1.065-.353 1.86-.42 3.533-.294 1.752.132 2.433.067 3.611-.348.8-.28 1.473-.49 1.498-.464.024.026-.082.685-.237 1.466-.246 1.24-.201 1.69.355 3.571.994 3.369.791 5.178-.769 6.85-.62.665-.634.729-.166.737.437.008.395.11-.28.686-.438.372-1.45.993-2.25 1.38-1.945.94-5.002.974-7.03.08l-1.34-.592-3.29 1.44a334.773 334.773 0 0 0-5.898 2.656c-5.042 2.35-8.767 3.337-12.606 3.337-1.245 0-2.169.17-3.057.563l-1.273.563.909.478c.5.263 1.468.615 2.152.783 1.17.287 1.299.264 2.156-.39 1.653-1.26 3.706-1.8 6.39-1.68 2.267.102 2.546.185 5.82 1.728 1.893.892 3.917 1.748 4.499 1.903 1.348.36 3.193.365 3.854.011.911-.488.543.172-.795 1.424-1.67 1.562-4.16 3.17-6.063 3.916-2.156.845-5.86.852-8.283.014-1.755-.606-4.02-2.023-5.779-3.616-.538-.487-1.591-1.035-2.513-1.307-.874-.259-2.44-.924-3.48-1.479l-1.893-1.01-4.016-.09c-2.766-.063-3.872-.01-3.554.174 4.545 2.607 7.914 6.853 9.772 12.316.642 1.886.57 2.237-.267 1.312-1.355-1.498-4.488-2.673-8.81-3.305-6.858-1.002-8.738-2.286-9.578-6.537-.46-2.329-1.15-3.151-3.226-3.847-1.927-.646-6.74-1.325-10.27-1.448l-2.25-.08 1.125 1.191c1.398 1.48 1.79 2.744 1.406 4.536a45.566 45.566 0 0 0-.281 1.364c0 .03 1.73.072 3.846.096 4.405.048 4.662.143 5.67 2.084l.652 1.258-1.182 1.018c-1.347 1.161-3.93 2.609-4.652 2.609-.366 0-.246.198.48.797.547.45 1.105 1.227 1.284 1.786.173.544.536 1.355.806 1.802.269.448.623 1.46.787 2.25.164.789.514 1.811.779 2.272l.48.837-.705.27c-.388.148-2.023.24-3.633.205-2.598-.058-3.069-.144-4.168-.758l-1.238-.692v.713c0 .393-.286 1.135-.636 1.65-.35.514-.886 1.468-1.192 2.12-.612 1.3-2.037 3.152-2.427 3.152-.136 0-.514-.313-.84-.696zm1.516-1.671c.515-.996.526-3.758.021-5.434-.21-.7-.262-1.151-.115-1.004.147.147.533 1.105.858 2.13l.59 1.862.608-.886c.773-1.128.589-2.194-.487-2.81-.947-.542-2.079-2.215-2.659-3.927l-.436-1.29-.297 2.22c-.294 2.193-.889 3.834-1.39 3.834-.388 0-.31 1.215.148 2.31.357.856 2.416 3.775 2.662 3.775.052 0 .275-.351.497-.78zm-403.54-1.455c.997-1.324 1.3-1.969 1.426-3.03.1-.85.06-1.35-.111-1.35-.537 0-1.21-2.01-1.37-4.093l-.164-2.124-.47 1.362c-.628 1.822-1.92 3.726-2.857 4.21-.917.475-1.023 1.527-.277 2.755.5.822.837.81.837-.027 0-.525 1.059-3.493 1.197-3.355.048.047-.081.8-.286 1.672-.493 2.093-.478 3.684.046 4.786.234.495.502.895.595.888.092-.007.738-.769 1.434-1.694zm394.41-1.058c.175-.21.906-.577 1.626-.816 1.705-.567 2.991-2.184 3.428-4.31.44-2.14.47-2.183.502-.709.044 2.012.472.922.689-1.755.154-1.895.118-2.29-.218-2.418-.426-.163-1.63 1.147-2.376 2.586-.555 1.072-2.151 2.68-3.188 3.212-.815.418-.804.393.268-.652.92-.897 2.456-3.322 2.456-3.878 0-.377-3.717 1.787-4.34 2.527-.758.9-.731 1.391.04.72.255-.224.762-.551 1.126-.728l.661-.322-.703.618c-1.288 1.135-1.72 2.825-1.265 4.948.297 1.383.703 1.69 1.294.977zm-386.05-1.057c.587-2.33.221-4.052-1.12-5.27-.723-.657-.746-.714-.171-.43.364.18.93.57 1.257.869.82.747.75.145-.102-.867-.663-.787-3.72-2.557-3.976-2.3-.286.285.77 2.124 1.945 3.384 1.145 1.23 1.191 1.325.465.952-.942-.483-2.48-2.165-3.9-4.263-1.423-2.104-1.782-1.987-1.743.567.017 1.128.122 2.408.233 2.845.197.773.203.766.252-.265.082-1.745.501-2.359.523-.767.013.915.24 1.768.704 2.646.951 1.798 1.31 2.14 2.754 2.62.694.23 1.472.651 1.73.936.672.743.818.66 1.15-.657zm402.73-1.464c0-.143-.297-.454-.661-.692-.974-.639-.806-.967.198-.388.93.537 4.105 1.489 4.303 1.29.254-.253-.65-3.73-1.099-4.226-.848-.938-4.357-2.953-6.68-3.837-1.253-.477-2.115-.871-1.915-.876.601-.014 5.922 1.833 6.846 2.378 1.093.643 1.17.125.129-.872-.95-.91-2.488-1.437-5.164-1.773-3.174-.398-3.543-.367-3.72.31-.196.75.919 2.81 2.43 4.49.632.704 1.03 1.28.885 1.28-.146 0-1.057-.856-2.025-1.902l-1.76-1.9.545 1.38c.3.76.544 1.433.544 1.496 0 .3 1.685 1.984 1.985 1.984.189 0 1.04.37 1.891.825 2.137 1.139 3.268 1.496 3.268 1.033zm-420.56-1.347 1.588-.772-.86.788c-.473.433-.86.864-.86.957 0 .365 1.747-.209 2.915-.958.678-.435 1.4-.792 1.606-.792.87-.003 2.06-1.07 2.704-2.424 1.183-2.49 1.153-2.836-.113-1.294-.637.778-1.575 1.723-2.085 2.103l-.926.69.935-1.063c2.008-2.279 3.368-5.1 2.668-5.533-.47-.29-5.557.374-7 .914-1.335.5-2.556 1.527-2.556 2.15 0 .128.565-.052 1.257-.4 1.526-.77 5.592-2.14 5.784-1.948.076.076-.316.282-.872.458-1.245.393-5.21 2.49-6.345 3.356-.93.71-1.081 1.003-1.412 2.727-.125.655-.314 1.416-.42 1.69-.179.462-.096.486 1.106.311.714-.104 2.013-.536 2.886-.96zm290.82-2.782c-.341-1.007-.707-2.298-.813-2.869-.253-1.356-2.396-5.607-4.591-9.103-6.056-9.647-13.683-15.633-22.666-17.787-2.896-.694-3.024-.66-1.59.434 1.755 1.34 2.373 2.099 3.43 4.21.65 1.3 1.022 2.525 1.246 4.102.266 1.869.353 2.114.515 1.455.128-.526.168-.213.118.926-.137 3.103.284 6.208 1.068 7.869.968 2.053 3.322 4.373 5.436 5.358 1.56.727 4.975 1.698 4.975 1.415 0-.07-.365-.657-.81-1.305-1.262-1.834-2.295-4.283-2.746-6.513-.572-2.827-.476-3.676.143-1.268 1.395 5.424 4.17 8.898 7.905 9.896 2.229.596 5.333 2.223 7.302 3.828.862.703 1.597 1.256 1.633 1.23.036-.026-.214-.872-.555-1.879zm-156.14-2.31c1.019-.507 2.71-1.175 3.757-1.485 3.46-1.024 5.823-3.934 7.329-9.03.725-2.453.898-1.946.3.878-.465 2.194-1.567 4.705-2.738 6.24-.483.632-.83 1.198-.772 1.257.231.231 4.278-.982 5.509-1.652 1.764-.96 4.06-3.348 4.875-5.07.839-1.77 1.286-4.843 1.106-7.592-.13-1.978-.116-2.056.215-1.19l.355.926.02-1.474c.052-3.773 2.183-7.712 5.312-9.82l.661-.445-1.058.151c-3.644.522-9.326 2.897-12.742 5.326-2.574 1.83-6.364 5.483-8.388 8.083-3.694 4.748-7.299 11.276-8.125 14.714-.262 1.092-.667 2.438-.9 2.99l-.422 1.006 1.927-1.446c1.06-.795 2.76-1.86 3.779-2.368zm258.57-1.439c-.974-1.023-2.645-3.967-3.684-6.49-1.139-2.766-2.778-4.604-4.992-5.597-.89-.4-1.684-.661-1.764-.58-.282.28 2.714 5.306 4.022 6.748.728.802 1.145 1.355.926 1.23-1.104-.637-3.07-2.507-4.492-4.277l-1.593-1.98.006 1.009c.013 2.286 1.583 5.427 3.699 7.4 1.638 1.526 5.639 3.165 7.92 3.243l.645.022-.692-.728zm-363.66-.217c3.798-.984 6.538-3.049 7.987-6.018.828-1.697 1.637-4.953 1.227-4.937-.087.003-.516.49-.952 1.083-1.041 1.413-4.796 4.998-5.223 4.988-.208-.005-.174-.101.09-.256.996-.582 5-6.66 5-7.59 0-.462-1.807.207-3.264 1.21-1.602 1.102-2.387 2.235-3.865 5.58-.708 1.6-1.84 3.686-2.516 4.633-1.412 1.978-1.333 2.045 1.516 1.307zm379.6-1.698c0-.385-1.95-1.556-4.417-2.653-2.136-.95-3.938-2.002-4.975-2.905-.575-.5-1.99-.931-1.975-.602.021.473.776 1.452 2.773 3.597 1.692 1.817 2.335 2.328 3.175 2.525 1.443.338 5.42.366 5.42.038zm13.626-.727c.582-.3 1.535-.932 2.117-1.403l1.058-.857-1.255.164c-.69.09-2.707.642-4.482 1.227-1.775.585-3.413 1.078-3.64 1.095-.227.017-.055.13.381.249 1.42.388 4.663.124 5.821-.475zm-405.85.162c.824-.207 1.358-.547 1.767-1.124.323-.455 1.414-1.72 2.426-2.812l1.84-1.984-.84-.083c-.653-.064-1.105.14-2.032.915-.656.548-2.884 1.835-4.95 2.86-2.068 1.025-3.805 2.013-3.861 2.195-.134.432 3.971.456 5.65.033zm-13.382-.232c.364-.116.483-.223.264-.238-.219-.015-1.868-.497-3.665-1.073-1.798-.575-3.821-1.126-4.497-1.224l-1.23-.178 1.058.862c1.848 1.505 3.468 2.114 5.557 2.087 1.018-.013 2.15-.12 2.513-.236zm406.24-.463c-.253-1.091-.813-1.879-2.653-3.73-2.047-2.06-2.894-2.33-5.39-1.718-.946.231-1.755.45-1.797.487-.16.137 1.735 1.12 3.781 1.96 2.384.98 4.228 2.075 5.155 3.062.813.865 1.114.845.904-.06zm7.777-.599c2.431-.73 5.278-1.414 6.325-1.521l1.905-.195-.466-.615c-.443-.585-.624-.615-3.672-.612-3.387.004-3.984.16-5.802 1.52-.461.345-.878.524-.926.397-.048-.126-.603.351-1.233 1.061-.63.71-1.012 1.292-.849 1.292s2.287-.597 4.718-1.327zm-402.77-1.961c1.019-.484 2.716-1.27 3.77-1.746s1.919-.948 1.919-1.048c0-.357-2.883-.87-4.11-.731-1.103.124-1.448.343-3.084 1.955-1.981 1.953-2.596 2.874-2.596 3.888 0 .62.042.605 1.125-.397.618-.572 1.958-1.437 2.976-1.921zm401.66-3.51c.435-1.497.322-2.749-.296-3.261-.298-.247-.402-.161-.54.444-.514 2.277-.771 3.043-1.613 4.81-.51 1.067-.975 1.891-1.036 1.831-.06-.06.128-.6.418-1.201.735-1.52 1.313-4.138 1.317-5.963.004-1.475-.02-1.532-.59-1.356-.328.1-1.151.588-1.83 1.082-1.208.88-1.992 2.328-2.117 3.91-.023.302-.118-.106-.21-.907l-.166-1.455-.339.794c-.186.436-.406 1.354-.487 2.038-.13 1.086-.04 1.413.698 2.563.465.725.966 1.754 1.113 2.288l.268.97 2.5-2.587c2.1-2.173 2.565-2.813 2.91-4zm30.823 5.525c-1.698-3.329-5.278-6.969-8.133-8.27-1.327-.604-4.222-1.384-4.631-1.248-.155.052.297.457 1.003.9 1.846 1.16 4.063 2.974 4.063 3.323 0 .182-.182.14-.463-.108-.996-.877-6.681-3.356-6.68-2.913 0 .108.18 1.089.402 2.18.334 1.647.547 2.11 1.25 2.716 1.166 1.004 2.901 1.602 6.99 2.408 1.914.378 4.117.977 4.894 1.332 1.872.855 1.901.848 1.305-.32zm-440.41-.301c-.56-.575-1.09-1.022-1.178-.993-.087.028-.58-.272-1.098-.667-1.669-1.275-2.638-1.529-5.843-1.529-2.387 0-3.059.086-3.448.438-.855.774-.563 1.015 1.304 1.077 1.26.041 3.027.442 6.017 1.362 5.361 1.652 5.57 1.667 4.246.312zm-31.465-.167c.892-.334 2.961-.86 4.599-1.17 4.835-.912 6.921-1.955 7.295-3.645.087-.396.316-1.375.509-2.175.192-.8.328-1.478.302-1.505-.143-.146-5.416 2.106-6.348 2.711l-1.099.714.92-.968c.505-.532 1.695-1.464 2.645-2.07 2.122-1.356 1.97-1.242 1.837-1.373-.284-.28-3.214.505-4.917 1.318-2.884 1.379-5.517 3.998-7.583 7.546-.828 1.422-.874 1.692-.244 1.423a82.376 82.376 0 0 1 2.084-.806zm34.34.052c.092-.493.52-1.416.95-2.05.898-1.327 1.053-3.063.409-4.604-.51-1.22-.637-1.157-.48.239.08.701.015 1.227-.164 1.338-.188.116-.296-.062-.296-.49 0-1.333-.815-2.77-2.113-3.722-1.654-1.214-2.385-1.235-2.382-.068.004 1.579.553 4.282 1.196 5.887.545 1.36.563 1.492.126.926-.663-.859-1.833-4.006-2.033-5.47-.086-.63-.256-1.145-.376-1.145-.74 0-1.028 2.92-.425 4.303.306.702 4.902 5.73 5.25 5.744.093.004.245-.396.337-.888zm279.43-1.42c-.214-2.046-.733-4.648-1.3-6.503-.521-1.71-2.825-5.17-4.732-7.107-1.615-1.64-1.368-1.671.705-.089.67.511 1.217.864 1.217.783 0-.38-2.944-3.204-4.307-4.131-3.556-2.42-10.034-4.225-14.96-4.168l-1.502.017 1.446.389c8.326 2.237 15.646 8.451 21.055 17.873.931 1.622 1.825 3.348 1.986 3.836.454 1.377.595 1.054.392-.9zm-154.89-4.507c4.884-8.146 11.174-13.58 18.823-16.258l2.97-1.04-2.588.16c-7.03.434-12.61 2.543-16.186 6.118-1.67 1.67-2.49 3.027-1.005 1.663.778-.715 2.31-1.812 2.53-1.812.074 0-.616.749-1.531 1.664-3.796 3.797-5.52 7.805-6.056 14.078l-.136 1.588.898-1.928c.493-1.06 1.52-2.965 2.28-4.233zm225.5 4.28c.23-.088.418-.301.418-.474 0-.418-2.009-2.316-3.204-3.027-1.057-.629-3.146-1.424-3.146-1.197 0 .08.506.869 1.124 1.753 1.57 2.246 3.519 3.44 4.807 2.945zm-297.03-.743c1.23-.646 4.028-3.94 3.659-4.309-.502-.502-4.777 2.021-5.827 3.44-.47.636-.493.775-.156.988.568.359 1.504.311 2.323-.12zm405.53-.782c1.901-.514 3.108-1.064 4.81-2.194l1.498-.994-2.259-.445c-1.242-.244-3.495-.948-5.006-1.564-3.334-1.359-5.947-1.661-8.119-.94-2.27.754-2.206 1.034.412 1.824 3.028.913 4.434 1.215 5.885 1.263 1.116.036 1.083.054-.529.288-1.13.164-2.551.153-4.146-.032-3.261-.38-3.21-.393-2.042.538 2.925 2.331 6.271 3.126 9.495 2.256zm-99.146-.313c1.13-.792.603-1.794-1.406-2.673-1.196-.523-5.833-.627-7.663-.171l-1.058.263 1.457.66c2.491 1.127 6.014 2.184 7.678 2.304.223.015.67-.157.992-.383zm-409.69-1.03c1.083-.535 2.25-1.28 2.595-1.656l.626-.683-.87.166c-1.742.332-5.771.478-6.803.246-1.024-.23-.993-.243.974-.414 1.762-.153 7.096-1.591 7.096-1.913 0-.063-.506-.374-1.125-.69-.718-.369-1.794-.62-2.976-.697-1.936-.126-2.555.035-7.409 1.92-1.018.396-2.737.86-3.818 1.032l-1.967.311 1.484.985c2.97 1.97 4.994 2.589 8.057 2.458 1.858-.079 2.45-.231 4.136-1.065zm96.222.202c2.016-.564 5.557-1.97 5.557-2.205 0-.107-1.11-.334-2.467-.505-3.583-.45-5.995-.008-7.521 1.383-.735.669-.74.835-.04 1.534.62.621 1.69.572 4.471-.207zm352.55-1.076c.095-.545.318-1.259.495-1.586.307-.564 3.237-3.268 4.303-3.97.407-.268-.266-.304-3.6-.19-2.256.077-5.53.038-7.276-.085-1.746-.124-3.206-.206-3.244-.182-.037.024 1.188.849 2.724 1.834 1.536.984 3.531 2.53 4.434 3.435.903.904 1.721 1.665 1.817 1.69.097.026.253-.4.347-.946zm-393.57-1.455c1.129-1.055 3.135-2.587 4.46-3.404l2.407-1.486-7.133.03c-6.577.03-7.907.138-6.672.546.776.256 3.99 3.406 4.287 4.2.152.409.277 1.034.277 1.388s.073.644.162.644c.088 0 1.084-.863 2.212-1.918zm342.64-.989c1.06-.566-.233-2.101-2.507-2.977-1.319-.507-4.768-1.075-5.797-.953-.755.089-.738.115.854 1.281 1.535 1.125 5.436 2.868 6.482 2.897.264.007.7-.104.968-.248zm-290.77-.96c2.087-.707 6.012-3.258 5.35-3.479-.5-.167-4.22.387-5.812.865-1.548.465-3.238 1.78-3.238 2.518 0 .969 1.043.996 3.7.096zm254.59-2.493c1.458-.297 3.024-.694 3.482-.882l.831-.342-1.248-.555c-.686-.305-1.817-.945-2.513-1.424-1.48-1.016-5.812-5.128-6.225-5.908-.156-.295.544.242 1.554 1.192 2.357 2.217 5.277 4.154 7.453 4.944 2.437.884 3.153.848 4.977-.253 2.423-1.462 7.637-3.995 10.554-5.127l2.646-1.027-3.704-.166c-3.659-.163-8.025-.727-11.112-1.435-2.956-.678-8.172-1.432-16.272-2.35-8.624-.978-14.857-1.911-18.604-2.785-1.275-.297-2.86-.54-3.522-.54h-1.203l1.378 1.653c2.31 2.771 5.258 5.799 7.374 7.572 1.934 1.62 5.646 4.268 5.986 4.268.09 0-.541-.803-1.404-1.786-1.565-1.782-3.404-4.37-3.995-5.622l-.313-.661.47.653c2.531 3.51 5.956 6.923 8.938 8.905 1.205.8 4.051 1.709 6.35 2.027 2.183.301 5.657.151 8.123-.351zm111.19.038c.153-.247-4.277-.981-4.51-.748-.072.073.38.309 1.007.525 1.3.449 3.286.575 3.503.223zm-321.96-.737c1.033-.274 2.564-.912 3.403-1.416 1.912-1.15 5.768-4.75 7.588-7.082 1.786-2.29 2.036-2.531 1.32-1.273-.743 1.302-3.159 4.52-4.262 5.673-.464.485-.796.928-.74.985.185.184 3.726-2.297 5.929-4.155 2.323-1.96 4.95-4.638 7.225-7.368l1.433-1.72-.993-.084c-.546-.045-2.025.159-3.287.454-3.906.913-9.962 1.846-17.392 2.678-8.735.978-13.371 1.643-18.372 2.635-3.99.792-7.027 1.184-11.49 1.485l-2.624.178 1.963.725c3.83 1.415 6.5 2.694 10.89 5.218 2.012 1.156 2.07 1.171 3.376.891 1.56-.334 4.715-1.867 6.22-3.021.582-.447 1.949-1.592 3.037-2.546l1.98-1.734-1.186 1.426c-1.815 2.185-5.084 4.89-7.318 6.055l-2.012 1.05 1.384.46c3.86 1.282 10.111 1.5 13.93.486zm250.52.451c1.1-.418.903-1.368-.445-2.14-1.033-.592-1.385-.641-4.3-.608-3.26.037-6.584.656-5.16.96 3.572.764 4.763 1.09 5.557 1.521 1.018.553 3.238.69 4.348.267zm-368.94-.524c.8-.277 1.326-.512 1.167-.522-.767-.05-4.77.595-4.99.803-.465.439 2.338.233 3.823-.281zm72.53-.39c.782-.354 2.195-.786 3.141-.96 2.551-.469 2.651-.558 1.059-.952-2.3-.568-5.556-.736-7.1-.366-2.262.543-3.436 1.931-2.227 2.635.893.52 3.606.331 5.127-.357zm149.19.372c1.058-.306 1.918-1.007 3.03-2.464l.773-1.016.899 1.082c.734.883 1.066 1.082 1.811 1.082 1.729 0 2.952-.733 6.886-4.126 1.04-.897 2.408-1.986 3.043-2.422 1.334-.916 7.11-3.855 7.268-3.697.058.058-.758.62-1.814 1.248-3.05 1.816-5.443 3.709-8.005 6.335-1.31 1.342-2.917 2.723-3.572 3.068-1.456.767-.793.843 1.115.127 1.773-.665 4.03-2.23 6.93-4.806 1.252-1.114 3.854-3.101 5.781-4.417 4.432-3.026 6.69-4.893 8.388-6.933 3.196-3.84 3.39-5.958.8-8.765-.715-.775-1.678-2.124-2.14-2.997-.462-.873-1.03-1.805-1.26-2.072-.65-.75-2.107-1.255-4.11-1.427l-1.826-.156.164 1.034c.39 2.463.485 6.194.206 8.178-.272 1.943-1.54 6.377-1.761 6.157-.052-.052.155-.864.46-1.803.798-2.46.958-7.352.353-10.767-.45-2.536-.482-2.606-1.762-3.821-2.424-2.302-3.416-2.566-6.84-1.822-.655.143-2.285.188-3.623.1-2.256-.147-2.536-.109-3.837.528-.772.377-1.84 1.139-2.373 1.691l-.97 1.005.222 2.117c.24 2.307-.064 6.595-.62 8.731-.32 1.223-.337 1.041-.23-2.38.083-2.667 0-4.314-.296-5.88-.453-2.392-1.284-4.527-1.82-4.67-.188-.05-1.362-.406-2.608-.79-2.862-.884-3.467-.876-4.831.058-2.53 1.733-4.82 2.554-8.171 2.928-3.496.39-4.476 1.058-5.848 3.988-1.544 3.297-.82 6.023 2.455 9.254 1.577 1.555 1.717 1.759.876 1.272-1.718-.993-4.163-3.681-4.845-5.326-.34-.823-.698-1.496-.795-1.496-.096 0-.394.242-.661.537-.268.296-.876.778-1.35 1.072-1.098.678-1.95 2.047-1.95 3.131 0 1.29.65 2.27 2.042 3.075 2.608 1.508 5.604 3.912 12.628 10.133 4.166 3.689 6.782 5.472 8.844 6.028 1.543.415 1.808.424 2.945.094zm225.57-2.232c3.113-1.382 4.192-3.179 5.4-8.993.45-2.16.761-3.983.693-4.05-.135-.136-6.932 3.374-8.221 4.245-2.466 1.664-3.983 3.75-4.274 5.873-.143 1.04.296 3.576.618 3.576.256 0 3.493-2.295 4.81-3.41.78-.661 1.702-1.62 2.05-2.132.348-.512.632-.838.632-.724 0 .718-2.255 3.987-3.673 5.323-.454.428-.825.877-.825.998 0 .304 1.2 0 2.79-.706zm-456.3-1.135c-1.448-1.58-3.423-4.431-3.418-4.936.002-.159.323.127.714.637.391.509 1.179 1.367 1.75 1.907 1.1 1.04 4.92 3.768 5.055 3.61.717-.84.904-3.185.379-4.75-.469-1.398-1.808-3.039-3.403-4.168-1.548-1.096-8.69-4.93-8.864-4.757-.2.201 1.688 8.385 2.136 9.255 1.15 2.231 2.761 3.572 5.216 4.34 1.842.575 1.89.45.435-1.138zm216.28-.94c-4.72-4.414-8.128-7.238-10.948-9.07-2.729-1.775-3.968-3.442-3.968-5.339 0-.688-.11-.77-1.39-1.039-.766-.16-2.998-1.064-4.962-2.007-4.74-2.278-7.236-3.034-11.617-3.517-5.123-.566-9.303-1.932-12.845-4.197-.811-.52-1.555-.944-1.652-.944-.449 0 1.6 1.79 3.702 3.235 2.32 1.595 5.08 4.114 7.408 6.764 3.42 3.892 7.94 6.8 16.328 10.51 2.547 1.126 6.119 2.794 7.938 3.706s4.379 2.015 5.688 2.45c2.066.685 3.02.928 5.821 1.48.291.057 1.05.118 1.688.135l1.159.03zm230.58.039c-.758-1.996-1.047-3.847-.84-5.366l.184-1.34.34 1.649c.186.906.577 2.097.869 2.646.511.962.536.975.71.365.1-.347.46-1.158.802-1.8a5.26 5.26 0 0 0 .621-2.434c0-1.528-.828-4.894-1.547-6.291-.502-.974-1.924-2.734-2.21-2.734-.075 0-.204.646-.285 1.436-.149 1.435-.588 2.561-1.97 5.047-.937 1.686-.981 3.694-.118 5.356.501.965 3.597 4.83 3.868 4.83.052 0-.138-.614-.424-1.364zm-437.48-1.27c2.964-3.474 3.194-5.206 1.217-9.139-.868-1.726-1.388-3.134-1.494-4.048l-.162-1.402-.792.74c-1.048.981-2.165 3.466-2.682 5.967-.575 2.786-.533 3.24.504 5.35l.906 1.847.585-1.317c.322-.724.662-2.031.756-2.904l.17-1.588.215 1.535c.276 1.981.022 3.83-.776 5.634-.554 1.252-.575 1.399-.158 1.106.264-.186 1.034-.987 1.711-1.78zm465.31-3.92c.314-.833.64-2.409.724-3.5.132-1.703.187-1.872.388-1.19.128.436.247 1.854.263 3.151l.03 2.358.614-.77c1.909-2.39 1.872-6.65-.09-10.524l-.652-1.287-.878 1.746c-.483.96-1.33 2.373-1.883 3.139-2.107 2.925-2.226 3.157-2.226 4.353 0 .642.173 1.5.383 1.909.47.906 2.207 2.472 2.526 2.276.128-.08.488-.826.801-1.66zm27.402.982c.762-.28 2.15-2.536 2.35-3.82l.166-1.059-.683 1.364c-.375.75-.885 1.523-1.133 1.72-.42.332-.422.312-.032-.306.858-1.356 1.136-2.78 1.148-5.89.01-2.661-.045-3.089-.385-2.957-.218.085-1.042.275-1.832.422-2.261.421-3.842 1.727-4.659 3.85l-.386 1.003.163-.926c.211-1.196.778-2.32 1.651-3.277l.698-.763-.794.184c-2.601.602-4.073 2.046-4.776 4.688-.448 1.684-.433 1.55-.172 1.55.116 0 .356-.387.532-.86.176-.473.568-1.158.871-1.522.447-.536.516-.56.363-.132-.434 1.214-.445 2.963-.024 3.776.58 1.122.733 1.175 2.053.708 1.046-.37 4.607-.589 4.895-.301.065.065-.512.48-1.282.92-.771.441-1.64.988-1.93 1.214-.506.395-.485.413.478.421.629.005.944.112.838.284-.172.277.705.141 1.882-.291zm-520.19-.402c1.196-.912 2.09-2.776 1.898-3.958-.082-.505-.914-2.003-1.889-3.401-.958-1.375-2.056-3.184-2.439-4.02l-.696-1.521-.735 1.453c-1.775 3.512-1.995 6.945-.607 9.503 1 1.843 1.312 1.9 1.196.22-.052-.742-.003-2.022.107-2.845l.2-1.495.322 1.986c.283 1.757 1.313 4.76 1.631 4.76.065 0 .52-.307 1.012-.682zm-27.52.153c-.098-.158.24-.267.844-.27l1.007-.006-.661-.516c-.364-.283-1.167-.786-1.786-1.118-.618-.331-1.124-.692-1.124-.801 0-.359 3.61-.208 4.762.198 1.496.527 1.508.525 2.01-.446.326-.63.401-1.272.3-2.538-.153-1.905.024-1.886 1.03.11l.65 1.286-.166-1.19c-.233-1.684-1.084-3.34-2.12-4.13-.835-.639-3.291-1.573-3.291-1.254 0 .082.315.522.701.98.833.987 1.42 2.3 1.404 3.139-.008.434-.116.311-.384-.44-.76-2.134-2.195-3.288-4.728-3.801-.747-.152-1.538-.345-1.756-.43-.341-.134-.386.263-.322 2.824.08 3.15.511 5.05 1.456 6.414l.554.799-.608-.53c-.334-.29-.887-1.064-1.228-1.72-.487-.932-.624-1.059-.633-.584-.029 1.397 1.585 3.615 2.898 3.982 1.241.347 1.382.353 1.19.043zm446.75-3.512c.002-1.43.22-2.998.635-4.575.66-2.513 1.137-5.936.828-5.936-.62 0-3.4 3.656-3.978 5.23-.2.543-.367.81-.37.591-.005-.218.16-.868.366-1.445.476-1.336.27-1.593-.261-.324-.5 1.198-.503 1.892-.015 3.376.213.644.51 2.1.66 3.233s.465 2.428.696 2.876l.422.814.506-.831c.388-.639.507-1.338.51-3.009zm-345.39-.643c.207-1.38.494-2.728.637-2.996.39-.729.314-2.561-.143-3.445-.555-1.072-.713-.984-.245.137.211.504.377 1.13.369 1.389-.008.26-.216-.012-.463-.604-.5-1.201-2.025-3.351-3.07-4.328l-.686-.642v1.435c0 .79.313 2.686.694 4.214.443 1.772.706 3.592.729 5.027.027 1.738.15 2.42.543 3l.508.752.375-.715c.206-.394.544-1.844.751-3.224zm305.96 3.362a1.841 1.841 0 0 0-.827-.26c-.588-.007-6.11-1.907-7.923-2.728-.81-.367-2.417-1.187-3.572-1.822a77.154 77.154 0 0 0-4.344-2.174l-2.246-1.02-2.645.181c-2.355.163-5.56.652-7.125 1.088-.448.125-.478.1-.158-.13.56-.4 5.279-1.867 6.008-1.867 1.382 0 .435-.485-2.106-1.08-2.215-.518-3.39-.631-6.416-.616-3.939.02-3.532-.058-10.716 2.07-1.819.54-4.497 1.176-5.95 1.416-2.4.396-2.554.455-1.672.639 1.23.255 12.08 1.4 18.333 1.935 5.298.453 8.538.966 15.747 2.49 6.877 1.453 10.67 2.009 14.288 2.094 1.195.028 1.599-.038 1.323-.216zm-263.32-.54c1.413-.153 6.081-.98 10.373-1.84 8.924-1.788 10.105-1.972 16.272-2.522 12.797-1.142 20.854-2.151 17.76-2.224-1.239-.03-6.644-1.315-10.212-2.429-4.534-1.416-7.207-1.747-10.812-1.34-2.452.276-5.077.798-6.394 1.271-.218.079.675.418 1.985.754 2.363.606 4.734 1.446 4.563 1.617-.05.049-1.23-.144-2.624-.429-1.393-.285-3.775-.548-5.292-.585l-2.758-.068-5.411 2.75c-5.614 2.85-6.63 3.277-10.835 4.537l-2.514.754 1.664.014c.916.008 2.82-.11 4.234-.261zm330.65-.525c1.018-.27 2.294-.675 2.834-.902 1.084-.456 2.727-1.8 3.138-2.567.348-.65-.129-1.552-.82-1.552-1.153 0-3.186 1.047-4.45 2.29-.724.714-2.101 1.756-3.06 2.317-.959.56-1.744 1.052-1.744 1.092 0 .169 2.39-.227 4.101-.678zm-399.39.174c0-.054-.76-.542-1.69-1.086-.928-.543-2.332-1.616-3.12-2.385-2.297-2.243-5.245-2.901-5.245-1.171 0 .777 1.503 2.277 3.031 3.025 1.63.798 7.023 2.039 7.023 1.617zm372.87-.757c1.39-.966 2.588-2.14 3.015-2.956.428-.817.322-3.72-.212-5.785-.233-.902-1.63-2.84-2.048-2.841-.094 0-.133 1.08-.086 2.402.068 1.886-.037 2.808-.485 4.284-.605 1.992-1.335 5.485-1.146 5.485.062 0 .494-.265.961-.59zm24.92-2.262c1.584-1.2 2.52-2.514 2.52-3.538 0-1.318-1.4-.882-3.743 1.164-1.345 1.175-3.666 4.377-3.666 5.057 0 .307 3.421-1.57 4.889-2.683zm-395.88.95c-.828-1.56-4.21-5.031-5.37-5.512-1.14-.472-1.677-.172-1.478.825.23 1.147 1.02 2.16 2.583 3.307 1.322.97 4.4 2.734 4.794 2.746.109.003-.13-.611-.53-1.365zm21.49.38c-.09-.546-.483-2.123-.872-3.506-.548-1.945-.708-3.096-.707-5.093 0-1.419-.079-2.58-.175-2.58-.31 0-1.443 1.49-1.735 2.28-.58 1.565-.943 5.031-.628 5.985.312.944 1.371 2.102 2.933 3.207 1.255.886 1.373.857 1.183-.293zm213.76-1.51c7.684-3.78 12.943-8.232 17.021-14.406 2.662-4.029 3.987-7.46 4.837-12.524.29-1.732.604-3.468.697-3.858l.168-.709-.763.689c-1.225 1.104-3.18 2.343-5.008 3.172-2.275 1.031-2.398.97-.439-.223 1.883-1.145 4.419-3.532 5.957-5.607 1.157-1.561 3.356-7.401 3.356-8.916 0-1.234-.722-1.956-2.12-2.118-1.928-.223-1.96-.274-.834-1.348.966-.92 1.8-2.756 1.486-3.265-.069-.111-.69.115-1.379.504-1.198.675-1.447.71-5.62.78-4.956.085-7.94.543-10.847 1.664-2.626 1.013-5.69 3.048-7.395 4.914l-1.373 1.502.18 2.544c.423 5.96-1.448 11.144-5.481 15.194-.994.998-1.806 1.86-1.806 1.919s.399.104.886.104c2.1 0 3.78 1.024 4.902 2.986.436.762 1.209 1.86 1.719 2.44.9 1.027.937 1.042 1.312.528 1.228-1.681 3.573-3.34 6.178-4.37 2.434-.961 7.57-3.62 8.982-4.649l1.288-.939-1.322 1.221c-1.362 1.257-4.57 3.314-8.713 5.588-2.54 1.395-4.802 3.406-5.082 4.52-.103.412.015 1.213.294 1.988.844 2.347.034 5.67-2.003 8.216-.436.546-.74.992-.674.992.277 0 3.511-1.935 5.275-3.156 1.049-.725 2.799-2.128 3.889-3.116 1.617-1.467 1.825-1.597 1.13-.71-2.288 2.927-6.575 6.434-11.711 9.58-1.717 1.053-.48.588 3.012-1.13zm5.064 1.23c-.082-.081-.295 0-.475.181-.259.261-.229.292.148.148.261-.1.408-.247.327-.329zm103.07-2.322c2.45-1.525 4.196-5.227 4.207-8.92l.004-1.27-.948.74c-.521.408-2.391 1.456-4.155 2.329-3.366 1.666-4.069 2.292-4.322 3.852-.163 1.009.216 2.766.758 3.507.31.425.47.348 1.902-.928.86-.766 1.9-1.925 2.312-2.575.412-.65.75-.994.75-.765 0 .639-.768 2.33-1.617 3.565-.42.612-.765 1.176-.765 1.254 0 .215.81-.127 1.874-.789zm-293.98-.746c-.89-1.32-1.827-3.279-1.836-3.84-.003-.208.44.262.986 1.042s1.644 1.95 2.44 2.599l1.448 1.18.478-1.033c.69-1.488.519-3.83-.347-4.756-.355-.379-1.877-1.27-3.383-1.982s-3.34-1.725-4.076-2.254l-1.337-.96.174 1.88c.374 4.022 2.057 7.19 4.546 8.556.723.396 1.4.724 1.504.727.104.003-.165-.518-.597-1.159zm330.48-1.685c0-.112-.414-.427-.92-.7-.506-.272-1.122-.719-1.37-.993-.373-.412-.187-.377 1.077.201 1.734.794 2.966.858 5.023.26 1.784-.518 2.346-1.099 1.604-1.656-1.039-.78-4.027-2.164-5.903-2.734-1.056-.321-1.872-.632-1.814-.69.216-.216 4.008.723 5.58 1.38 2.457 1.03 2.53 1.042 2.363.4-.231-.883-1.792-2.07-3.382-2.571-1.256-.396-1.702-.419-3.119-.156-.909.168-2.605.383-3.77.477-1.164.095-2.205.224-2.314.287-.11.064.159.561.596 1.105.437.544.948 1.52 1.135 2.168.29 1.005.551 1.305 1.784 2.046 1.738 1.044 3.43 1.624 3.43 1.176zm-366.39-.848c1.885-.706 3.27-1.885 3.486-2.97.096-.475.54-1.32.988-1.878.448-.558.734-1.094.635-1.193-.099-.099-1.45-.32-3.003-.49-1.553-.172-3.3-.392-3.882-.489-1.366-.228-3.941.703-4.961 1.794-.838.896-.99 1.684-.265 1.376 1.938-.822 5.06-1.758 6.216-1.862l1.391-.125-1.323.38c-2.55.733-7.011 2.874-7.011 3.365 0 .408 1.183 1.003 2.838 1.427 1.821.467 3.125.278 4.802-.696 1.455-.845 1.222-.387-.357.7-2.021 1.393-1.918 1.546.446.66zm382.48-1.451c1.995-2.183 3.12-4.905 2.026-4.905-1.381 0-2.61 1.522-3.401 4.215-.772 2.626-.514 2.756 1.375.69zm-398.96-.954c-.3-1.082-.786-2.356-1.08-2.833-.856-1.384-2.872-2.13-2.863-1.06.007.864 1.422 3.233 2.752 4.607.808.835 1.53 1.458 1.603 1.384.073-.073-.113-1.017-.412-2.098zm404.94-.272c4.519-1.334 7.426-3.958 5.84-5.273-.913-.759-3.643.838-7.4 4.328-1.398 1.3-1.511 1.477-.954 1.487.348.007 1.48-.237 2.514-.543zm-411.13-1.738c-2.131-1.962-4.978-3.96-5.981-4.197-.89-.21-1.65.486-1.407 1.292.282.939 1.738 2.288 3.36 3.113 1.484.754 5.48 1.884 5.748 1.625.073-.07-.701-.895-1.72-1.833zm373.34.54c1.795-.83 2.012-.998 1.52-1.18-1.086-.401-3.655-.55-4.837-.279-1.395.32-1.719.184-.639-.27.42-.176 2.609-.387 4.863-.47 4.929-.18 5.17-.381 2.457-2.044-1.954-1.198-3.777-2.028-3.777-1.72 0 .106.33.388.734.627.404.239.97.697 1.257 1.018.42.471.214.41-1.065-.31-1.437-.81-1.789-.895-3.704-.895-1.883 0-2.234.08-3.175.733-.583.403-1.505.805-2.051.894-.546.088-.992.263-.992.39 0 .523 2.064 2.468 3.113 2.934 1.213.539 2.703.685 3.766.37.51-.152.57-.131.265.088-.219.157-.927.423-1.574.591-.969.252-1.085.344-.661.52.841.348 2.276.03 4.5-.997zm-193.97.47c.283-.893 1.583-2.393 2.955-3.41 1.768-1.312 2.476-2.185 3.619-4.458.884-1.76 1.83-2.84 3.365-3.845l.653-.428-1.288-.817c-.708-.45-1.957-.942-2.776-1.096-1.725-.322-5.863-1.339-7.97-1.957-2.942-.863-7.353-.4-11.396 1.198-2.125.84-2.395.882-5.67.882-3.754 0-3.564-.062-6.218 2.026-1.224.962-3.213 1.821-4.729 2.042l-1.225.178 2.187.885c3.343 1.353 5.633 1.869 10.179 2.292 5.71.533 9.002 1.61 13.167 4.307 1.626 1.052 4.533 2.674 4.81 2.684.1.003.251-.214.336-.483zm-138.01-.007c.24-.152.027-.275-.669-.386-.56-.09-1.255-.34-1.542-.555-.474-.355-.429-.364.476-.093 1.526.458 3.7-.307 5.153-1.812.618-.64 1.124-1.326 1.124-1.523 0-.206-.407-.424-.962-.514-.53-.086-1.404-.462-1.943-.836-1.854-1.284-5.023-1.146-7.28.317-1.006.651-1.032.655-.53.079.291-.334.886-.839 1.323-1.123l.794-.515-.794.168c-1.094.232-5.027 2.652-5.027 3.093 0 .28.871.39 3.969.499 2.99.105 4.196.25 4.894.592.51.25.67.39.356.314-.903-.22-4.365-.156-5.383.1l-.926.233 1.19.54c.656.297 1.727.788 2.382 1.091 1.231.57 2.78.72 3.395.331zm234.7-1.231c1.106-.094 3.202-.034 4.657.132s3.777.358 5.16.426l2.513.124-2.224-.678c-1.223-.373-2.414-.802-2.646-.953-.349-.227-.352-.253-.018-.153 1.218.366 3.637.74 6.21.962 3.444.296 5.515-.034 9.25-1.474 2.403-.927 7.022-3.241 7.023-3.519 0-.083-1.577-.112-3.506-.063-1.928.049-3.446.033-3.373-.034.072-.067 1.323-.26 2.778-.427 3.583-.412 6.535-1.244 8.024-2.26.68-.465 2.486-1.55 4.014-2.413l2.778-1.569-1.53-.08c-3.84-.2-19.72 2.614-27.574 4.884-5.9 1.706-12.38 4.567-15.678 6.922-1.243.887-1.062 1.084.635.69.822-.192 2.4-.424 3.506-.517zm-137.18.114c-.099-.16-.97-.8-1.934-1.422-7.074-4.563-17.227-7.657-33.498-10.207-5.558-.871-9.928-1.26-9.928-.884 0 .133.863.703 1.918 1.267a62.553 62.553 0 0 1 3.853 2.288c2.6 1.695 7.096 2.877 11.008 2.893.716.003 1.231.075 1.146.16-.086.086-1.842.158-3.904.161l-3.75.005.884.544c1.627 1.002 6.152 3.038 8.424 3.79 1.948.644 2.64.74 5.16.72 2.537-.02 6.697-.538 8.229-1.022.424-.135.437-.117.08.115-.231.151-1.422.58-2.645.952l-2.225.677 2.646-.143c1.455-.078 3.837-.24 5.292-.358 2.668-.216 7.046.043 8.14.483.827.332 1.317.324 1.104-.02zm136.39-3.326c1.822-1.216 6.695-3.55 9.28-4.446 6.862-2.378 15.962-4.234 23.49-4.79 1.351-.1 2.415-.224 2.363-.276-.051-.051-1.276-.343-2.721-.648-3.686-.779-10.94-.986-14.424-.413-5.39.887-11.045 3.332-14.927 6.453-1.325 1.066-5.19 4.923-5.49 5.48-.273.509-.263.51.356.06.35-.254 1.282-.893 2.072-1.42zm-138.08 1.003c-.146-.273-1.316-1.552-2.6-2.844-4.672-4.702-9.99-7.566-16.732-9.01-3.567-.764-11.297-.676-15.478.177l-3.175.647 1.852.205c11.929 1.318 17.969 2.577 25.167 5.248 3.319 1.23 8.066 3.67 9.831 5.052 1.484 1.161 1.473 1.157 1.135.525zm248.56-.457c1.282-.13 1.653-.238 1.204-.353-.54-.138-.408-.221.786-.497 1.98-.457 3.534-1.435 4.492-2.826a33.228 33.228 0 0 1 1.86-2.391c1.063-1.228 1.31-2.14.736-2.713-.243-.243-.6.007-1.571 1.096-.753.844-3.065 2.651-5.76 4.502-4.648 3.192-5.287 3.722-4.217 3.498.34-.071 1.451-.213 2.47-.316zm-358.65-.303c-.002-.11-1.874-1.449-4.16-2.977-2.458-1.644-4.886-3.514-5.948-4.58L88.915 61.8l-.265.696c-.386 1.015-.373 1.05.935 2.522.659.743 1.513 1.825 1.897 2.406.817 1.233 2.25 2.132 4.378 2.742 1.66.477 2.028.747.662.487-.473-.09-.777-.073-.675.037.102.11 1.114.29 2.249.398 1.135.108 2.213.214 2.394.234.182.02.33-.052.327-.162zm356.06-1.856c2.502-3.39 3.64-6.438 3.01-8.066-.317-.822-.823-.975-.823-.249 0 .747-.968 4.258-1.619 5.871-.82 2.033-1.15 2.294-.494.39 1.06-3.075 1.647-8.023 1.077-9.073-.528-.974-2.946-3.315-3.176-3.075-.428.45-1.609 3.526-1.609 4.194 0 1.15-.495 1.005-.58-.17l-.081-1.13-.488.72c-.268.394-.582 1.478-.697 2.407-.115.929-.342 1.937-.505 2.24-.405.757-.37 2.012.087 3.106.415.992 1.995 3.394 2.14 3.25.048-.049-.142-.918-.423-1.931s-.5-2.321-.485-2.907c.025-.995.05-.957.386.576.568 2.589 2.117 5.331 3.027 5.36.073.003.637-.679 1.253-1.513zm-5.362.147c-1.16-1.373-1.97-3.356-1.973-4.823-.004-1.832-.688-2.53-2.48-2.53h-1.326l.677.727c.905.973 2.332 2.995 2.332 3.305 0 .136-.465-.34-1.034-1.06-1.354-1.713-4.017-3.502-5.214-3.502-.492 0-.896.07-.896.156 0 .085.257 1.037.57 2.116.369 1.268.881 2.325 1.45 2.99.805.94.99 1.026 2.165 1.008.96-.015 1.783.22 3.247.927 1.078.52 2.2 1.128 2.49 1.351.812.622.809.302-.008-.665zm-349.05.484c.675-.512 2.083-3.683 2.34-5.27.21-1.3.217-1.274.118.475-.057 1.019-.288 2.388-.513 3.043l-.41 1.19.8-.925c.91-1.054 2.102-3.423 2.102-4.177 0-.277-.166-.85-.37-1.273s-.446-1.431-.541-2.24c-.095-.81-.435-1.882-.755-2.382l-.581-.909-.135 1.456-.134 1.455-.198-1.323c-.18-1.21-1.58-4.63-1.894-4.63-.289 0-2.69 2.735-3.055 3.478-.342.699-.335 1.147.064 3.9.248 1.71.69 3.805.983 4.655.293.851.484 1.595.425 1.654-.202.202-1.691-4.032-2.147-6.105-.406-1.841-.502-2.031-.852-1.68-.64.64-.5 2.819.295 4.553.891 1.947 3.373 5.437 3.848 5.411.084-.004.358-.165.61-.356zm8.887-2.546c1.968 0 2.983-1.2 4.097-4.848.335-1.098.337-1.297.014-1.42-1.172-.45-3.59.98-5.81 3.437-.684.757-1.086 1.078-.894.714.525-.994 2.196-3.175 2.433-3.175.114 0 .208-.119.208-.264s-.541-.265-1.203-.265c-1.576 0-2.575.889-2.337 2.08.217 1.082-.511 3.13-1.735 4.876l-1.017 1.451 2.487-1.293c1.967-1.023 2.752-1.293 3.757-1.293zm352.08-1.919c2.903-1.92 4.573-3.253 4.352-3.475-.394-.394-4.143 1.053-5.857 2.26-.649.457-3.125 3.878-3.125 4.317 0 .101.446-.161.992-.584.546-.422 2.183-1.555 3.638-2.518zm-365.91.911c-1.035-1.766-2.296-2.936-4.054-3.763-1.24-.583-3.818-1.32-4.008-1.145-.215.199 1.692 1.676 5.049 3.911 1.84 1.225 3.429 2.364 3.532 2.53.103.168.24.252.304.187.064-.064-.306-.838-.823-1.72zm318.64-3.05c.677-.535 1.888-2.956 1.874-3.747-.014-.785-.017-.787-.273-.146-.369.925-1.335 2.444-1.468 2.31-.062-.062.159-.573.49-1.136.527-.892.622-1.494.74-4.667.116-3.164.081-3.624-.263-3.491-.218.084-.992.275-1.72.426-2.063.427-3.462 1.371-4.365 2.946-.434.757-.79 1.224-.792 1.037-.005-.65.825-2.312 1.514-3.031.382-.399.643-.775.58-.837-.233-.233-2.669.797-3.546 1.5-.69.552-1.044 1.157-1.451 2.475-.297.959-.539 1.917-.539 2.128 0 .623.447.164.616-.633.086-.403.459-1.09.829-1.527l.673-.794-.265.745c-.607 1.705-.036 4.68.899 4.68.196 0 .863-.18 1.481-.398 1.264-.445 3.894-.523 4.498-.132.353.228.353.257 0 .26-.218.004-1.145.465-2.06 1.028l-1.663 1.023.83.166c.457.092.938.1 1.068.02.13-.08.238-.024.238.127 0 .328 1.553.078 2.075-.333zm-272.78-.094c-.26-.32-.267-.39-.026-.245.186.112.703.123 1.149.025l.811-.178-1.678-1.032c-.922-.568-1.856-1.04-2.074-1.05-.265-.013-.22-.095.132-.247.867-.372 2.712-.294 4.535.192 1.932.514 1.96.5 2.526-1.339.233-.757.238-1.293.019-2.114-.161-.605-.252-1.14-.202-1.191.154-.155.971 1.226 1.345 2.272.303.851.354.894.364.31.018-1.04-.715-3.266-1.335-4.054-.568-.722-2.163-1.654-3.474-2.03-.876-.251-.943.012-.179.703.642.58 1.265 1.708 1.585 2.87.207.75.194.771-.165.296-.214-.283-.389-.615-.389-.739 0-.452-1.206-1.839-2.058-2.365-.481-.297-1.683-.742-2.67-.987l-1.796-.446.047 3.451c.048 3.434.28 4.58 1.113 5.501.23.255.295.464.144.464-.345 0-1.058-1.074-1.553-2.34l-.38-.967.144 1.148c.081.646.528 1.747 1.022 2.52.746 1.166 1.053 1.415 2.043 1.657.641.156 1.21.302 1.265.324.054.021-.065-.162-.265-.408zm162.98-1.179c.586-.67.594-.736.188-1.521-.234-.451-.513-.82-.622-.82-.108 0-.486.529-.84 1.176-.63 1.155-.634 1.188-.146 1.726.273.302.567.457.652.345.086-.113.432-.52.768-.906zm-38.575-.128c.134-.352.403-.7.597-.775.221-.085.312-.42.243-.893-.087-.59.078-.937.748-1.577.472-.451.96-.82 1.084-.82.315 0 .283-1.257-.037-1.455-.144-.089-.453-.055-.687.076-.284.159-.74.076-1.38-.25-.527-.269-1.221-.488-1.544-.488-.604 0-1.533.962-1.83 1.896-.13.412-.314.493-.832.363-.927-.233-1.931.473-1.931 1.357 0 .507.401 1.06 1.485 2.045 1.387 1.26 1.564 1.344 2.663 1.256.958-.077 1.223-.214 1.421-.735zm2.297.272c-.088-.088-.317-.097-.508-.02-.21.084-.148.146.16.16.28.01.436-.052.348-.14zm16.44-.648c.53-.445 1.23-1.031 1.557-1.303.472-.392.595-.769.595-1.816 0-1.72-.189-2.158-.93-2.158-.813 0-1.91 1.342-2.273 2.778l-.288 1.147-1.316-.391c-.723-.215-1.634-.354-2.024-.309l-.71.082.556.555c.305.305 1.044.633 1.642.729.719.115 1.248.395 1.562.826.26.358.518.655.571.66.054.005.53-.356 1.059-.8zm-10.02-2.433c0-.284-.58-.245-1.582.104-.728.254-.905.235-1.103-.12-.36-.642-1.02-1.24-1.368-1.24-.392.003-2.296 1.733-2.296 2.087 0 .145.501.562 1.114.928l1.114.664 2.06-1.112c1.134-.612 2.061-1.202 2.062-1.311zm34.663-2.613c.533-.825 1.3-2.495 1.703-3.71 1.67-5.032.603-11.788-2.756-17.442-.57-.961-2.122-3.106-3.449-4.767-2.86-3.582-4.552-6.821-5.17-9.899-.485-2.406-.377-4.143.429-6.913 1.32-4.538 1.636-7.844.985-10.279-.402-1.504-.705-1.574-5.98-1.39-6.26.22-10.278 1.764-13.865 5.333-2.05 2.039-2.006 1.801-.869 4.783 1.073 2.81 1.716 6.462 1.84 10.45l.112 3.573-.264-2.61c-.362-3.579-1.546-8.082-2.88-10.955l-1.115-2.4-.983.348c-4.157 1.466-6.45 4.04-6.457 7.246-.004 1.9 1.371 6.602 2.758 9.43.983 2.003.997 2.067.272 1.203-.872-1.039-2.908-4.82-3.605-6.694-.257-.691-.551-1.257-.654-1.257-.103 0-.533.625-.956 1.39-.714 1.287-.77 1.592-.77 4.184 0 2.661.043 2.87.867 4.365 2.903 5.265 3.994 8.422 4.838 14.006.712 4.705 1.36 6.95 2.903 10.054 1.604 3.226 2.112 3.92 2.702 3.694.395-.152.377-.271-.18-1.152-2.053-3.252-3.339-6.7-4.008-10.744-.52-3.14-.521-3.539-.017-4.043.336-.336.421-.315.678.164.226.422.192.799-.148 1.649-.413 1.032-.412 1.224.02 3.054.253 1.073.968 2.994 1.589 4.268 1.08 2.217 4.182 6.682 4.641 6.682.121 0-.35-.948-1.047-2.108-1.451-2.415-2.286-5.266-1.996-6.815.236-1.258.801-2.347 1.322-2.547.578-.222 1.619.228 1.85.8.108.266.305 2.27.439 4.452.133 2.183.336 4.445.45 5.027l.206 1.059.45-.847c.276-.52.449-1.448.449-2.408 0-2.652.647-3.757 2.2-3.757.848 0 .944-.392 1.151-4.677.122-2.522.077-3.707-.162-4.284-.737-1.78-.288-3.676.72-3.044.623.39.732 2.229.196 3.267-.233.449-.353.93-.267 1.068.085.138.161 2.158.168 4.49.012 3.76.063 4.239.451 4.24.24 0 .765.173 1.165.381.4.21.728.294.728.188 0-.363 1.538-1.1 2.297-1.1.418 0 1.026.186 1.35.414.733.513.69.638 1.223-3.589.914-7.252 1.157-16.783.56-21.96-.216-1.869.272-.17.829 2.884.622 3.417.622 13.211 0 18.242-.24 1.942-.437 3.705-.437 3.917 0 .212.746-.395 1.658-1.348 1.46-1.526 1.777-1.734 2.64-1.734.754 0 1.081.153 1.414.66 1.02 1.556-.45 3.944-3.016 4.904-1.716.641-3.49 1.588-3.49 1.862 0 .454 1.175.432 1.942-.035 1.765-1.076 2.908-.597 4.672 1.956.364.527.738.96.83.965.368.015 2.352-4.243 2.889-6.2.477-1.742.526-2.293.299-3.425-.424-2.116.414-3.461 1.24-1.99.343.613.327.8-.16 1.852-.3.645-.664 2.248-.812 3.566-.148 1.317-.58 3.32-.959 4.45l-.69 2.056.534.678c.294.374.538.871.543 1.106.013.578 2.72-2.318 3.96-4.236zm-8.207 2.613c.003-.255-.114-.463-.257-.463s-.423-.387-.621-.86c-.54-1.294-1.082-1.642-2.1-1.35-.47.135-.843.39-.828.566.014.177.044.678.066 1.115.021.436.188.795.37.797.182.003.926.281 1.654.62 1.36.635 1.707.549 1.715-.425zm-41.8-.29c0-.341.238-.836.529-1.099s.529-.55.529-.636c0-.087-.626-.504-1.39-.928-.796-.442-2.945-2.304-5.037-4.366-2.007-1.977-3.992-3.893-4.412-4.256-.926-.804-1.185-1.59-.73-2.214.323-.441.38-.436 1.062.1.442.348.833 1.017 1.014 1.734.232.924.68 1.53 2.143 2.912 2.08 1.962 8.36 6.72 8.877 6.725.185.003.469-.288.63-.643.268-.587.138-.836-1.414-2.712-3.812-4.61-8.608-11.454-11.017-15.724-1.38-2.446-.958-2.059 1.083.996 2.006 3.002 3.92 5.486 9.361 12.14l3.251 3.977 1.033-.098c.609-.058 1.367.073 1.844.32.516.267 1.013.345 1.367.214.512-.19.457-.28-.667-1.123-1.233-.923-3.407-3.455-4.65-5.414-2.648-4.18-3.14-5.503-2.178-5.872.64-.245 1.153.627 1.153 1.96 0 .78.223 1.5.702 2.264.987 1.574 2.995 4.161 3.229 4.161.108 0 .148-.405.09-.9-.2-1.722 1.81-2.647 3.394-1.562 1.375.942 3.726 4.24 5.846 8.199.832 1.554 1.326 2.196 1.754 2.278.327.063.595.071.595.02 0-.053-.549-.84-1.22-1.75-2.416-3.28-3.721-6.612-4.886-12.473-.97-4.88-1.393-6.362-2.536-8.871-1.994-4.38-4.676-7.628-10.507-12.722-5.708-4.988-7.31-5.748-12.866-6.101-2.561-.163-4.245-.426-5.953-.93-3.79-1.12-4.308-1.207-5.407-.911-1.337.36-2.25 1.114-3.094 2.552-.82 1.401-.768 2.387.292 5.42 1.438 4.117 4.125 8.493 7.81 12.722l1.454 1.668-1.718-1.563c-3.989-3.629-7.191-7.922-9.152-12.27-.61-1.352-1.169-2.689-1.242-2.971-.074-.283-.449-.657-.832-.832-1.03-.468-1.389.05-2.139 3.078-.442 1.784-.986 3.165-1.735 4.405-1.505 2.492-1.692 3.486-1.045 5.565.284.914.456 1.904.382 2.2-.22.88 2.717 5.044 5.246 7.434 3.058 2.89 5.623 4.28 11.184 6.06 6.56 2.1 11.457 4.728 15.023 8.065 1.29 1.206 2.105 1.745 3.026 1.998 1.777.489 1.923.472 1.923-.226zm30.21.256c3.584-3.745 3.921-4.181 3.921-5.087 0-.669-.783-1.427-1.473-1.427-.624 0-1.805 1.19-2.098 2.115-.234.737-.662.665-.662-.112 0-.703-.623-1.474-1.19-1.474-.198 0-.551.19-.785.424-.45.45-.38.96.315 2.327.215.421.383 1.403.374 2.182-.016 1.322.025 1.417.615 1.417.348 0 .79-.165.983-.366zm6.404.023c.446-.326.444-.372-.038-.969-.482-.594-.572-.61-1.776-.306-1.251.315-3.315 1.242-3.315 1.49 0 .304 4.687.108 5.13-.215zm-58.824-1.12c3.616-1.412 5.553-1.807 8.848-1.804 2.248.003 3.3.131 4.62.566.939.309 1.74.529 1.781.488.168-.167-4.465-2.746-6.797-3.783-1.383-.615-4.525-1.727-6.983-2.472-2.458-.744-5.197-1.718-6.086-2.163-2.237-1.121-4.942-3.167-6.535-4.942-1.463-1.631-3.94-5.462-3.952-6.113-.006-.328-.062-.315-.284.065-.345.592-.091 1.81.707 3.393.339.672.994 2.339 1.457 3.705 1.041 3.072 1.711 4.42 3.211 6.452 1.557 2.11 6.782 7.54 7.254 7.54.206 0 1.447-.419 2.76-.932zm120.56-.673c3.235-1.384 6.486-3.343 6.933-4.179.39-.729.117-1.273-.797-1.592-2.02-.704-5.031 1.341-9.64 6.548-.788.89-.788.891-.127.692.364-.109 1.998-.77 3.632-1.47zm-155.77.849c0-.5-5.364-5.625-6.672-6.375-1.583-.908-3.337-1.078-4.024-.39-.61.609-.525.885.59 1.946 1.137 1.081 3.709 2.496 7.284 4.006 2.602 1.1 2.822 1.163 2.822.813zm71.437-.284c0-.337-1.239-1.19-2.48-1.707-1.264-.528-1.202-.534-1.036.102.096.365.361.529.855.529.423 0 .972.272 1.339.661.62.661 1.323.881 1.323.415zm8.351-2.03c-.095-.379-.276-2.154-.403-3.945s-.371-3.52-.543-3.84c-.29-.542-.343-.553-.75-.146-.33.33-.437.933-.437 2.478 0 1.808.112 2.275.98 4.092.984 2.062 1.475 2.64 1.154 1.361zm-8.615-.013c0-.404-3.506-5.397-4.14-5.896-1.596-1.255-2.65-.259-1.822 1.722.618 1.48 1.11 1.926 3.246 2.944 1.053.501 1.982 1.022 2.066 1.157.173.28.65.334.65.073zm12.779-1.603c.078-.406.258-1.184.4-1.73.255-.976.246-.992-.5-.992-.987 0-1.567 1.074-1.567 2.904v1.343l.763-.394c.475-.246.815-.672.904-1.131zm66.888-3.492c.607-2.372.665-6.275.12-8.083-.635-2.112-1.775-2.946-3.076-2.25-.706.378-.662 1.645.132 3.753.866 2.3 1.469 5.623 1.495 8.24l.022 2.153.403-.926c.221-.51.628-1.808.904-2.887zm-53.538 1.932c1.494-.626 2.566-3.237 1.498-3.647-.68-.26-.84-.202-1.838.675-.855.75-3.3 3.913-3.3 4.268 0 .132 1.548-.42 3.64-1.296zm-95.008-1.096c.053-2.733.679-5.952 1.566-8.061 1.014-2.409.71-3.911-.79-3.911-2.297 0-3.402 5.824-2.06 10.848.525 1.964 1.026 3.44 1.166 3.439.04 0 .093-1.042.118-2.315zm158.93-7.276c1.47-2.37 2.088-3.894 1.976-4.872-.077-.67-.2-.758-1.152-.829-.841-.061-1.191.054-1.653.545-.609.649-1.071 2.452-.992 3.87.026.453.068 1.36.093 2.014.025.655.157 1.19.292 1.19.135 0 .781-.863 1.436-1.918zm-168.9-1.6c.006-3.557-.622-4.684-2.609-4.684-1.881 0-1.506 1.956 1.233 6.427.656 1.07 1.004 1.429 1.155 1.19.12-.187.219-1.507.22-2.933zm174.17 1.479c.89-.57 1.017-.738.621-.82-.301-.062-.821.22-1.318.717-1.01 1.01-.774 1.044.697.103zm11.697-.123c.374-.17.638-.438.587-.595-.125-.376-3.02-.491-5.344-.212l-1.852.223 1.72.424c2.09.515 3.975.577 4.889.16zm-200.1-.512c2.17-.453 2.032-.672-.53-.838-3.641-.236-5.613.192-3.955.858.833.335 2.828.326 4.485-.02zm133.44-8.02c-.182-3.12-.925-6.938-2.03-10.44-1.028-3.253-3.79-8.923-5.437-11.158-.702-.953-1.625-2.424-2.05-3.269l-.773-1.535-.458 2.261c-.252 1.244-.584 2.656-.738 3.137-1.281 4.002.269 9.354 3.953 13.652 3.447 4.02 6.006 8.165 6.893 11.162l.35 1.185.222-1.185c.122-.651.152-2.366.068-3.81zm80.753 2.296c.144-.44-.975-.843-1.866-.672-.484.092-.715.302-.715.65 0 .445.162.501 1.236.431.688-.045 1.285-.226 1.345-.41zm-228.95-.3c.194-.314-1.953-.892-2.91-.782-.477.054-.803.263-.857.55-.077.406.143.464 1.768.464 1.02 0 1.92-.104 1.999-.232zm215.79-1.798c1.382-1.28 2.378-2.585 2.378-3.117 0-.08-.289-.145-.641-.145-.45 0-.986.414-1.798 1.39-1.133 1.36-2.588 3.481-2.588 3.773 0 .32 1.112-.479 2.649-1.901zm-204.22.578c-1.828-3.097-3.64-4.842-4.32-4.16-.385.384.669 1.96 2.103 3.147.557.46 1.305 1.08 1.662 1.377.966.804 1.166.673.555-.364zm205.21-11.712c1.598-2.289 1.813-3.637.335-2.102-.634.66-1.947 3.624-1.605 3.624.115 0 .686-.685 1.27-1.522zm-207.27.071c-.518-1.519-1.44-2.887-2.021-2.999-.395-.076-.418.011-.171.66.268.707 2.258 3.525 2.488 3.525.06 0-.074-.534-.296-1.186zm200.46-5.608c.586-1.897.403-2.713-.424-1.887-.645.646-.853 3.654-.252 3.654.072 0 .376-.795.676-1.767zm-193.98-1.537c-.213-.64-.542-1.091-.84-1.149-.423-.081-.465.025-.313.79.096.487.376 1.47.621 2.186l.446 1.301.218-1.036a3.924 3.924 0 0 0-.132-2.092z" fill="#fff" fill-opacity=".55"/></svg>