<svg width="456.907" height="323.214" viewBox="0 0 120.89 85.517" xmlns="http://www.w3.org/2000/svg"><path d="M120.798 72.226c-.219.666-.644 1.136-1.307 1.44-.38.176-.51.199-1.082.188a14.241 14.241 0 0 1-.824-.033c-.142-.017-.234.06-.484.411-.17.238-.31.47-.312.514 0 .044.308.285.688.535.745.492.916.71.916 1.174 0 .24-.127.468-.873 1.569l-.873 1.288.761.518c.51.346.856.644 1.049.899.957 1.268.8 2.935-.381 4.028-.727.673-1.784.921-2.777.652-.476-.128-.808-.333-3.38-2.089-.475-.324-1.53-1.04-2.343-1.589-.813-.549-2.922-1.977-4.687-3.172a4529.113 4529.113 0 0 0-4.687-3.172c-.813-.55-1.82-1.23-2.236-1.515-.416-.284-1.357-.922-2.09-1.418a6605.693 6605.693 0 0 1-5.878-3.976l-2.596-1.756a2719.07 2719.07 0 0 1-2.632-1.78l-3.1-2.098c-.932-.63-2.133-1.443-2.668-1.807-2.491-1.691-3.094-2.1-4.543-3.08l-4.07-2.756-2.52-1.708c-1.497-1.065-3.945-2.616-5.381-3.603 0-.022-.948-.682-2.108-1.465-1.16-.784-2.753-1.86-3.539-2.393a68.453 68.453 0 0 0-1.45-.968c-.011 0-.17.226-.354.503-.337.506-.538.664-.967.756-.329.071-.658-.057-1.321-.514-.587-.404-.74-.597-.823-1.036-.058-.308.03-.55.41-1.135.161-.25.281-.463.265-.476-.194-.162-2.736-1.848-2.785-1.848-.037 0-.208.209-.381.463-.613.905-1.16.988-2.162.33-.719-.472-.884-.69-.923-1.222-.028-.384-.012-.428.333-.942.2-.297.357-.544.35-.55a163.118 163.118 0 0 0-2.825-1.9c-.017 0-.39.535-.83 1.19-.994 1.475-1.275 1.71-1.913 1.59-.25-.047-1.973-1.148-2.444-1.56-.248-.219-.449-.74-.382-.995.03-.119-.014-.147-.298-.187-.402-.058-.948-.212-1.168-.33a3.253 3.253 0 0 1-.463-.364l-.302-.28-.228.351c-.342.528-1.092 1.191-1.646 1.456-.406.193-.595.237-1.139.265-.767.04-1.271-.103-1.903-.538-.354-.244-.965-.903-1.038-1.12-.017-.052-.35.244-.774.686-.955 1.001-1.755 1.597-2.922 2.179-1.064.53-1.869.807-3.064 1.054-.731.151-1.018.17-2.416.167-1.445-.003-1.67-.021-2.524-.201-5.683-1.2-10.124-5.4-11.327-10.715-.27-1.19-.362-2.43-.26-3.484.098-.995.233-1.697.47-2.42l.16-.495-.503-.118c-.735-.172-1.246-.45-1.739-.945-.766-.769-1.09-1.74-1.015-3.038.023-.4.09-.863.15-1.031.267-.757 1-1.398 1.87-1.633 1.172-.317 2.24.182 2.754 1.288.203.435.218.69.059 1.026-.343.722-1.407.696-1.777-.044-.176-.35-.306-.431-.574-.354-.369.105-.476.256-.527.741-.048.466.037.992.226 1.39.168.354.587.604 1.161.693.737.114.948.05 1.221-.368.688-1.052 2.115-2.462 3.085-3.05.469-.284.506-.391.494-1.43-.019-1.683-.636-3.134-1.86-4.369-.548-.554-.754-.707-1.334-.993-.387-.19-.92-.387-1.226-.451-2.247-.472-4.634 1.22-3.89 2.756.175.362.654.822 1.083 1.04.266.136.345.147.576.078.426-.128.482-.246.297-.627-.321-.66-.14-1.284.44-1.505.381-.146.797-.068 1.044.195.3.318.552.993.582 1.554.026.476.006.572-.197.986-.266.541-.592.848-1.204 1.134-.543.254-1.275.336-1.824.204-.465-.112-1.354-.685-1.851-1.193-.7-.717-1.041-1.532-1.04-2.481.001-.643.122-1.085.472-1.721.14-.256.246-.47.234-.478a54.79 54.79 0 0 0-.595-.29C1.59 10.32.894 9.617.482 8.787c-.895-1.807-.527-3.862.934-5.215.854-.79 1.805-1.16 2.989-1.16 1.166 0 2.132.382 3.017 1.19l.397.364.22-.32a3.377 3.377 0 0 1 3.226-1.41c1.296.184 2.689 1.117 3.058 2.05.137.345.172.57.174 1.118.003.634-.015.724-.235 1.17-.423.859-1.117 1.245-2.143 1.193-.883-.045-1.26-.346-1.26-1.005 0-.64.493-1.053 1.148-.963.459.063.615-.077.559-.5-.047-.352-.31-.604-.95-.913C10.593 3.894 9.742 4.28 9.3 5.44c-.205.54-.19 1.86.027 2.447.482 1.299 1.572 2.353 2.982 2.882.834.313 1.578.427 2.51.383 1.263-.059 2.243-.367 3.185-1.004l.332-.224.114-.692c.156-.947.477-1.898.99-2.934.237-.48.43-.935.43-1.01 0-.263-.412-1.004-.705-1.268-.475-.43-1.139-.458-1.968-.086-.483.217-.578.339-.584.746-.005.368.047.435.34.435.645 0 1.115.424 1.115 1.004 0 .904-.858 1.241-2.035.8-1.02-.383-1.602-1.577-1.354-2.779.185-.897.582-1.417 1.41-1.85 1.338-.698 2.662-.775 3.756-.216.391.199.983.743 1.225 1.127l.201.317.473-.446C24.672.312 28.846-.65 33.175.438c4.11 1.033 7.764 4.018 9.56 7.808.457.965.74 1.791.98 2.868.18.81.198 1.02.2 2.402.002 1.302-.02 1.613-.156 2.215-.299 1.328-.787 2.514-1.458 3.541-.2.307-.364.57-.364.584 0 .014.146.047.323.074.475.071 1.284.504 1.7.909.947.922 1.133 2.416.473 3.79-.131.274-.323.597-.426.72l-.188.222.393.163c.476.197 1 .752 1.347 1.425.218.422.258.46.523.504.195.031.612.266 1.298.728 1.43.964 1.552 1.097 1.551 1.689 0 .371-.084.537-.818 1.615-.311.457-.555.841-.54.853.013.013.653.448 1.422.967l1.397.945.2-.276c.253-.35.704-.543 1.12-.48.38.056 1.501.825 1.664 1.14.172.333.156.843-.037 1.17-.156.266-.157.28-.031.398.163.154 2.616 1.802 2.68 1.8.025 0 .121-.116.213-.257.196-.303.534-.463.977-.463.267 0 .422.068.96.421.796.523.925.7.925 1.274 0 .339-.037.484-.17.671-.094.131-.159.248-.144.26l1.288.873c.694.469 1.602 1.085 2.019 1.37.416.283 1.65 1.117 2.74 1.853 1.09.736 2.223 1.503 2.516 1.705.293.202.569.346.613.32a108.353 108.353 0 0 0 5.344 3.653c0 .034.69.527 1.533 1.096a7980.545 7980.545 0 0 1 10.69 7.232l4.939 3.345c1.785 1.209 3.835 2.598 4.556 3.088.72.49 1.356.908 1.413.93.07.027.356-.34.924-1.185 1.193-1.776 1.37-1.842 2.629-.989l.704.478.685-1.029-.212-.334c-.252-.396-.496-1.143-.496-1.518 0-.356.188-.974.398-1.305.745-1.18 2.649-1.387 4.03-.436.457.314.896.837 1.153 1.375.202.422.224.535.224 1.153 0 .567-.028.743-.163 1.017-.465.944-1.604 1.49-2.704 1.3a9.66 9.66 0 0 0-.51-.081c-.09 0-.733 1.033-.657 1.058.041.014.36.224.71.467 1.193.83 1.194.991.017 2.718-.462.677-.838 1.257-.835 1.288.004.063 1.366.986 1.397.947.01-.014.385-.571.832-1.239.875-1.306 1.067-1.489 1.564-1.49.25 0 .42.08 1.006.47.389.257.727.468.753.468.026 0 .192-.22.37-.487l.322-.487-.206-.324c-.513-.804-.609-1.77-.254-2.544.946-2.065 4.241-1.665 5.337.648.208.439.232.557.232 1.139 0 .564-.026.702-.201 1.058-.237.483-.579.803-1.13 1.06-.336.158-.503.187-1.049.188-.357 0-.733-.023-.837-.052-.173-.049-.216-.011-.523.45a7.158 7.158 0 0 0-.334.53c0 .014.307.233.683.487.77.52 1.029.877.946 1.31-.024.128-.417.782-.873 1.453-.455.671-.828 1.246-.828 1.278 0 .063 1.257.927 1.35.927.03 0 .43-.557.885-1.237.729-1.086.867-1.253 1.136-1.373.43-.192.69-.122 1.436.387.346.236.653.444.681.461.059.036.713-.872.713-.989 0-.041-.064-.166-.143-.276-.275-.387-.447-.899-.484-1.444-.05-.746.143-1.267.661-1.775.498-.489 1.005-.682 1.797-.685 1.291-.005 2.455.729 3.043 1.918.3.607.389 1.371.219 1.889zM43.51 28.104c-.23-.413-.32-.417-.366-.017-.062.557-.46.959-1.008 1.02-.427.049-.805-.133-1.052-.507-.165-.25-.19-.362-.188-.836.003-.56.172-1.094.442-1.392.136-.15.15-.133-.253-.308-.718-.313-1.176-1.028-1.22-1.907-.022-.47-.003-.585.14-.827.32-.544 1.068-.72 1.58-.372.281.19.496.565.496.863 0 .298.137.218.327-.192.459-.984-.004-1.567-1.243-1.568-1.273 0-2.39.91-2.871 2.342-.773 2.302.475 5.025 2.547 5.556.393.1.479.101.822.004.21-.06.56-.121.779-.136.641-.044 1.17-.38 1.29-.818.067-.244.005-.497-.222-.905zm-3.261-16.463c-.48-1.95-1.352-3.46-2.853-4.94-.827-.815-1.782-1.486-2.922-2.053-1.72-.856-2.91-1.145-4.724-1.146-1.031 0-1.295.024-1.983.187-2.432.575-4.065 1.874-5.188 4.128-.54 1.081-.716 1.748-.72 2.706-.001.667.021.806.186 1.16.362.78 1.135 1.322 2.244 1.575.97.222 1.353.241 1.614.082.283-.172.588-.566.676-.876.067-.232.054-.252-.47-.753-.62-.593-.758-.863-.757-1.492.001-.368.04-.522.213-.822.385-.671 1.199-1.023 1.919-.829.616.166 1.445.845 1.929 1.58.662 1.006.843 2.015.558 3.114-.247.953-.58 1.523-1.335 2.277-.491.492-.795.727-1.23.953-.316.165-.518.301-.448.303.482.008 1.578.56 2.137 1.078.176.161.325.294.333.294.008 0-.046-.218-.12-.485-.347-1.25.016-2.757.968-4.022.841-1.118 2.232-1.78 3.51-1.673 1.64.137 3.392 1.497 3.392 2.634 0 .725-.39 1.34-1.042 1.644-.672.313-1.215.208-1.945-.378-.59-.473-.795-.5-1.107-.143-.118.134-.271.39-.34.57-.116.305-.116.35-.004.746.566 1.98 1.916 3.116 3.382 2.845 1.81-.334 3.705-2.495 4.183-4.767.173-.825.18-.908.15-1.875a7.488 7.488 0 0 0-.207-1.622zm-.44 22.144c-.103-.31-.18-.702-.18-.928 0-.315-.04-.446-.204-.672-.715-.984-2.02-1.541-3.395-1.45-1.49.098-2.803.825-3.537 1.96-.595.922-.675 1.978-.219 2.888.276.55.596.827.953.827.271 0 .462-.1.796-.42.367-.35.355-.454-.045-.4-.889.123-1.552-.673-1.231-1.475.153-.383.445-.628.914-.768.81-.24 1.67-.058 2.178.462l.278.285.188-.276c.35-.512.942-.884 1.56-.978.37-.056.866.188 1.103.542.343.51.088 1.318-.498 1.58-.395.177-.269.305.34.344.408.026.535.006.726-.114.214-.135.253-.209.449-.853a8.835 8.835 0 0 0-.175-.554zm-3.923-6.918c-.146-1.047-.05-2.31.237-3.122l.104-.295-.805-.04c-1.151-.057-1.997-.319-2.931-.905-.493-.31-1.293-1.07-1.694-1.609l-.302-.407-.003.624a4.34 4.34 0 0 1-1.145 2.955c-.372.411-1.105.941-1.453 1.052-.252.079-.195.15.2.251.774.198 2.034.933 2.597 1.514.637.657 1.253 1.705 1.447 2.46.05.2.11.353.134.342.023-.01.414-.204.869-.431.926-.461 1.653-.674 2.547-.747l.603-.049-.163-.515a7.9 7.9 0 0 1-.242-1.078zm-7.14 3.331c-.45-1.191-1.816-1.828-3.61-1.683l-.613.05-.335.345c-.336.346-.472.67-.39.929.025.076.267.255.54.398.806.424 1.158.93 1.158 1.666 0 .892-.617 1.595-1.519 1.73-.854.128-2.382-.785-3.091-1.848-.857-1.283-.793-3.08.162-4.533.627-.953 1.836-1.864 2.728-2.056.387-.083.384-.108-.064-.4a5.426 5.426 0 0 1-.802-.677c-.208-.22-.393-.4-.41-.4-.018 0-.033.074-.033.164 0 .326-.304 1.251-.598 1.817-.357.688-1.17 1.55-1.792 1.902-.483.272-1.38.516-1.894.514-1.329-.005-2.956-.86-3.244-1.707-.227-.663-.112-1.283.33-1.785.332-.378.754-.563 1.294-.566.334-.002.51.05 1.003.298.598.3.598.3.82.173.244-.139.62-.794.62-1.077 0-.395-.738-1.551-1.363-2.135-.996-.931-2.233-.952-3.612-.061-1.027.663-2.385 2.321-2.885 3.521-.513 1.233-.678 3.01-.4 4.314.324 1.523 1.036 3.059 1.939 4.183 2.401 2.99 6.07 4.644 9.53 4.297 2.477-.248 4.468-1.389 5.679-3.252.976-1.503 1.282-2.98.852-4.12zm-.425-10.095a2.524 2.524 0 0 0-1.107-1.148c-.424-.23-.502-.247-1.105-.247-.562.001-.704.028-1.056.2-.502.246-.954.725-1.192 1.264-.157.356-.177.487-.153 1.022.033.733.208 1.15.679 1.621a2.381 2.381 0 0 0 2.116.675c.9-.164 1.588-.745 1.893-1.597.18-.503.144-1.336-.075-1.79zm-5.377-3.598c-1.517-.458-2.819-1.364-3.565-2.48-.349-.521-.805-1.507-.805-1.738 0-.069-.039-.104-.09-.082-1.705.73-2.174.847-3.606.895-.625.021-1.136.044-1.136.051 0 .007.077.174.172.37.398.826.676 1.942.741 2.973.037.589.068.734.147.704.295-.113 1.47-.122 2.082-.015 1.775.31 3.227 1.327 4.405 3.086.205.305.391.536.415.512.024-.023.042-.145.042-.27 0-.125.052-.403.116-.618.338-1.151 1.2-2.193 2.24-2.705l.575-.283-.61-.122a14.689 14.689 0 0 1-1.123-.278z" fill="#fff" fill-opacity=".534"/></svg>