<?xml version="1.0" encoding="UTF-8" standalone="no"?>
<!-- Created with Inkscape (http://www.inkscape.org/) -->

<svg
   xmlns:dc="http://purl.org/dc/elements/1.1/"
   xmlns:cc="http://creativecommons.org/ns#"
   xmlns:rdf="http://www.w3.org/1999/02/22-rdf-syntax-ns#"
   xmlns:svg="http://www.w3.org/2000/svg"
   xmlns="http://www.w3.org/2000/svg"
   xmlns:sodipodi="http://sodipodi.sourceforge.net/DTD/sodipodi-0.dtd"
   xmlns:inkscape="http://www.inkscape.org/namespaces/inkscape"
   width="120.88573mm"
   height="85.516571mm"
   viewBox="0 0 120.88573 85.516571"
   version="1.1"
   id="svg6465"
   inkscape:version="0.92.4 (5da689c313, 2019-01-14)"
   sodipodi:docname="key.svg">
  <defs
     id="defs6459" />
  <sodipodi:namedview
     id="base"
     pagecolor="#ffffff"
     bordercolor="#666666"
     borderopacity="1.0"
     inkscape:pageopacity="0.0"
     inkscape:pageshadow="2"
     inkscape:zoom="0.7"
     inkscape:cx="283.55484"
     inkscape:cy="-36.138627"
     inkscape:document-units="mm"
     inkscape:current-layer="layer1"
     showgrid="false"
     fit-margin-top="0"
     fit-margin-left="0"
     fit-margin-right="0"
     fit-margin-bottom="0"
     inkscape:pagecheckerboard="true"
     inkscape:window-width="1920"
     inkscape:window-height="1017"
     inkscape:window-x="1072"
     inkscape:window-y="394"
     inkscape:window-maximized="1" />
  <metadata
     id="metadata6462">
    <rdf:RDF>
      <cc:Work
         rdf:about="">
        <dc:format>image/svg+xml</dc:format>
        <dc:type
           rdf:resource="http://purl.org/dc/dcmitype/StillImage" />
        <dc:title></dc:title>
      </cc:Work>
    </rdf:RDF>
  </metadata>
  <g
     inkscape:label="Layer 1"
     inkscape:groupmode="layer"
     id="layer1"
     transform="translate(-32.911512,-17.02654)">
    <path
       style="fill:#ffffff;stroke-width:1;fill-opacity:0.53439152"
       d="m 153.71172,89.253168 c -0.21859,0.66594 -0.64427,1.13591 -1.30702,1.4407 -0.38067,0.17534 -0.51061,0.19784 -1.08164,0.18727 -0.35694,-0.007 -0.72791,-0.0215 -0.82439,-0.0331 -0.14222,-0.0171 -0.23384,0.0607 -0.48426,0.41155 -0.16984,0.23797 -0.30999,0.46892 -0.31134,0.51325 -0.001,0.0443 0.30789,0.28526 0.68722,0.5354 0.7452,0.49144 0.91637,0.7106 0.91637,1.17366 0,0.23959 -0.12745,0.46867 -0.8728,1.56894 l -0.87284,1.28836 0.76089,0.51794 c 0.5089,0.34635 0.85613,0.64408 1.04845,0.89879 0.95736,1.26801 0.79967,2.935522 -0.38094,4.028552 -0.72682,0.67292 -1.78353,0.92099 -2.77724,0.652 -0.47526,-0.12864 -0.80712,-0.33382 -3.37894,-2.08906 -0.47594,-0.32478 -1.53052,-1.039852 -2.34356,-1.588982 -0.81305,-0.54909 -2.92223,-1.97681 -4.68711,-3.17263 -1.76487,-1.19581 -3.87407,-2.62326 -4.68711,-3.17209 -0.81302,-0.54885 -1.81896,-1.23036 -2.23539,-1.51448 -0.41645,-0.28409 -1.35746,-0.9222 -2.09117,-1.41794 -1.81597,-1.22698 -4.22674,-2.85788 -5.87691,-3.97578 -0.75355,-0.51047 -1.92172,-1.30069 -2.59594,-1.75602 -0.67423,-0.45532 -1.85862,-1.25656 -2.63199,-1.78051 -0.77336,-0.52398 -2.16869,-1.46816 -3.10071,-2.09824 -0.93198,-0.63011 -2.13263,-1.443 -2.66804,-1.80654 -2.49079,-1.69118 -3.09415,-2.10026 -4.5429,-3.08007 -0.85268,-0.5767 -2.68407,-1.81712 -4.06973,-2.75652 l -2.51937,-1.70799 c -1.498064,-1.06417 -3.945827,-2.61548 -5.381836,-3.60224 7.34e-4,-0.0227 -0.948211,-0.68225 -2.108267,-1.46573 -1.160059,-0.7835 -2.752434,-1.86011 -3.538601,-2.39248 -0.786161,-0.53241 -1.438501,-0.96797 -1.449635,-0.96796 -0.01166,1.9e-4 -0.170586,0.22606 -0.354271,0.50241 -0.33689,0.50671 -0.538253,0.66422 -0.96678,0.75652 -0.329137,0.0709 -0.658158,-0.0571 -1.321734,-0.51423 -0.58697,-0.40436 -0.739976,-0.59717 -0.822375,-1.03637 -0.0578,-0.30781 0.0295,-0.54966 0.409332,-1.13462 0.161699,-0.24907 0.281536,-0.46324 0.265727,-0.47626 -0.194751,-0.16186 -2.735883,-1.84737 -2.785106,-1.84737 -0.03696,2e-5 -0.208535,0.20839 -0.381235,0.46312 -0.61326,0.90439 -1.159807,0.98778 -2.161842,0.32992 -0.719058,-0.47208 -0.884532,-0.69125 -0.922967,-1.22248 -0.0278,-0.38425 -0.0125,-0.42766 0.332895,-0.94211 0.199086,-0.29662 0.356571,-0.5438 0.350007,-0.54923 -0.09351,-0.0772 -2.804262,-1.90099 -2.825521,-1.90099 -0.01621,-1.2e-4 -0.38983,0.5354 -0.830174,1.18978 -0.993267,1.47605 -1.274682,1.71014 -1.912153,1.59055 -0.25002,-0.0469 -1.973567,-1.14752 -2.444222,-1.56055 -0.248302,-0.21806 -0.448752,-0.73985 -0.382081,-0.99477 0.03086,-0.11825 -0.0137,-0.14628 -0.297598,-0.18695 -0.402365,-0.0577 -0.948338,-0.21147 -1.167966,-0.32902 -0.0881,-0.0474 -0.296517,-0.21138 -0.463065,-0.36481 l -0.302767,-0.27907 -0.227108,0.35056 c -0.342113,0.52796 -1.092063,1.19089 -1.646624,1.45556 -0.405713,0.19363 -0.594451,0.23762 -1.138386,0.26532 -0.767518,0.0391 -1.271475,-0.1034 -1.903189,-0.53806 -0.354655,-0.24402 -0.965126,-0.90263 -1.038115,-1.11995 -0.01744,-0.052 -0.350996,0.24386 -0.77366,0.68632 -0.955956,1.00072 -1.755614,1.59687 -2.922147,2.17841 -1.064616,0.53074 -1.86927,0.80756 -3.06465,1.05432 -0.730895,0.15089 -1.017407,0.17075 -2.415657,0.16734 -1.444993,-0.003 -1.669975,-0.0215 -2.523832,-0.20159 -5.68353,-1.19902 -10.123877,-5.39937 -11.327217,-10.71502 -0.269495,-1.19049 -0.361824,-2.43025 -0.259439,-3.48372 0.09669,-0.99532 0.232603,-1.69764 0.46835,-2.42077 l 0.161145,-0.49429 -0.503077,-0.11807 c -0.734899,-0.17247 -1.246429,-0.45044 -1.738964,-0.94498 -0.76591,-0.76903 -1.090149,-1.73945 -1.015187,-3.03827 0.023,-0.39919 0.0904,-0.86317 0.149601,-1.03107 0.267066,-0.75698 1.000557,-1.39738 1.870054,-1.63273 1.172377,-0.31734 2.239431,0.18171 2.754701,1.28836 0.202625,0.43516 0.217103,0.6906 0.05811,1.02559 -0.34263,0.72206 -1.406285,0.69602 -1.776457,-0.0435 -0.175572,-0.35076 -0.306498,-0.43165 -0.574335,-0.3548 -0.368289,0.10561 -0.475547,0.25673 -0.526349,0.74146 -0.04879,0.46561 0.0366,0.99178 0.225643,1.39007 0.168,0.35406 0.587062,0.60412 1.161315,0.69301 0.737034,0.11408 0.947477,0.0507 1.22098,-0.36782 0.687542,-1.05206 2.114152,-2.4626 3.084614,-3.04995 0.469031,-0.28387 0.506326,-0.39176 0.494514,-1.43012 -0.0192,-1.68334 -0.636733,-3.13381 -1.860109,-4.36876 -0.548825,-0.55403 -0.754701,-0.7073 -1.334025,-0.99316 -0.387368,-0.1912 -0.92002,-0.38738 -1.225862,-0.45161 -2.247064,-0.47181 -4.634255,1.21951 -3.890316,2.75629 0.175148,0.36179 0.653841,0.82175 1.083183,1.04079 0.2658,0.13556 0.344475,0.14611 0.575479,0.0769 0.426216,-0.12769 0.482097,-0.24554 0.297027,-0.62647 -0.32108,-0.66089 -0.139,-1.2846 0.439513,-1.50553 0.381827,-0.14583 0.797628,-0.0682 1.044969,0.19508 0.298952,0.31822 0.55185,0.99365 0.582112,1.55467 0.0256,0.47514 0.006,0.57127 -0.197482,0.98533 -0.266445,0.5413 -0.591946,0.84788 -1.204229,1.1344 -0.542304,0.25378 -1.274372,0.3356 -1.823654,0.20383 -0.465451,-0.11166 -1.354502,-0.68492 -1.851066,-1.19348 -0.699953,-0.71693 -1.041184,-1.53108 -1.039824,-2.48092 9.17e-4,-0.6427 0.122135,-1.08492 0.471693,-1.72087 0.140569,-0.25547 0.245726,-0.47041 0.233977,-0.47746 -0.01178,-0.007 -0.279495,-0.13804 -0.594918,-0.29105 -0.798911,-0.38747 -1.495422,-1.08836 -1.907151,-1.91926 -0.895208,-1.80662 -0.526775,-3.86232 0.934729,-5.21542 0.853439,-0.79014 1.804655,-1.15911 2.988141,-1.15911 1.166098,0 2.132422,0.38116 3.017754,1.1903 l 0.397074,0.3629 0.21962,-0.31919 c 0.708587,-1.02991 1.981229,-1.58615 3.225761,-1.4099 1.29581,0.18351 2.689136,1.11694 3.058197,2.04881 0.136871,0.34557 0.171841,0.57034 0.174088,1.11899 0.003,0.6337 -0.0155,0.7237 -0.23479,1.1692 -0.422896,0.85908 -1.116959,1.24553 -2.143577,1.19361 -0.882884,-0.0447 -1.260629,-0.34605 -1.260068,-1.00538 5.87e-4,-0.63952 0.493795,-1.05308 1.148528,-0.96303 0.458531,0.0631 0.614485,-0.0763 0.558418,-0.49897 -0.0468,-0.35269 -0.309154,-0.60513 -0.95006,-0.91411 -1.022447,-0.49296 -1.873764,-0.10556 -2.314576,1.05321 -0.205086,0.53922 -0.19054,1.86038 0.027,2.44683 0.481985,1.29938 1.571959,2.35303 2.981587,2.88216 0.834422,0.31324 1.578919,0.42695 2.510647,0.38349 1.263108,-0.0589 2.242891,-0.36782 3.184838,-1.00408 l 0.332301,-0.22446 0.114052,-0.69162 c 0.156193,-0.94714 0.476809,-1.89836 0.98912,-2.93457 0.237343,-0.48009 0.431505,-0.93439 0.431506,-1.00953 -1.5e-4,-0.2627 -0.412558,-1.00421 -0.705476,-1.2683 -0.475684,-0.42889 -1.139273,-0.45786 -1.968072,-0.0859 -0.482897,0.21672 -0.578683,0.33899 -0.584299,0.74594 -0.005,0.3687 0.0471,0.43557 0.340272,0.43557 0.644645,0 1.114898,0.4233 1.114896,1.0036 4e-6,0.90427 -0.858066,1.24148 -2.035604,0.79993 -1.019933,-0.38244 -1.601909,-1.57699 -1.353643,-2.7785 0.185329,-0.897 0.582027,-1.41732 1.410507,-1.85007 1.337779,-0.69878 2.66114,-0.77511 3.75586,-0.21662 0.390741,0.19934 0.982298,0.74367 1.224849,1.12706 l 0.200801,0.3174 0.47288,-0.44609 c 2.926823,-2.76101 7.101431,-3.72304 11.431263,-2.63429 4.108235,1.03303 7.763022,4.01851 9.558808,7.8083 0.457319,0.96512 0.739555,1.79129 0.979687,2.86787 0.180879,0.81089 0.198251,1.01914 0.200359,2.40215 0.002,1.30153 -0.0199,1.61272 -0.155429,2.21475 -0.29913,1.32837 -0.787235,2.51397 -1.458025,3.54153 -0.200215,0.30679 -0.364117,0.56927 -0.364078,0.58341 -3.8e-5,0.0141 0.145486,0.0474 0.323289,0.0741 0.474081,0.0711 1.284031,0.50426 1.69936,0.90884 0.946649,0.92206 1.133052,2.41592 0.473035,3.79088 -0.130991,0.27289 -0.32267,0.59629 -0.426355,0.71847 l -0.187829,0.22253 0.393663,0.1632 c 0.475381,0.19709 1.000245,0.75248 1.346959,1.4255 0.217233,0.42168 0.257396,0.46037 0.522485,0.50335 0.194747,0.0316 0.612411,0.26593 1.297984,0.72814 1.429491,0.96395 1.551739,1.09701 1.551513,1.68864 -1.32e-4,0.37175 -0.08389,0.53721 -0.81848,1.61545 -0.311394,0.45715 -0.55478,0.84111 -0.540803,0.8533 0.01367,0.0125 0.65414,0.4473 1.422637,0.96698 l 1.397261,0.94483 0.199792,-0.27585 c 0.253073,-0.34933 0.704182,-0.54316 1.119333,-0.4809 0.380011,0.057 1.502135,0.82523 1.664793,1.13976 0.172501,0.33355 0.15655,0.84428 -0.0366,1.17161 -0.156428,0.26494 -0.157782,0.27929 -0.0316,0.39779 0.163414,0.1537 2.61636,1.80126 2.679904,1.80004 0.02558,-7.1e-4 0.121543,-0.11652 0.213157,-0.2578 0.195937,-0.30238 0.534015,-0.46238 0.977065,-0.46239 0.267498,0 0.422224,0.0678 0.959708,0.42078 0.796751,0.52316 0.925342,0.7002 0.925338,1.2738 7e-6,0.33913 -0.0368,0.48422 -0.170107,0.67116 -0.09363,0.13117 -0.158455,0.24765 -0.143795,0.25906 0.014,0.0115 0.593736,0.40434 1.287808,0.87365 0.694064,0.46931 1.602625,1.08557 2.019064,1.36942 0.416429,0.28384 1.649494,1.11809 2.740151,1.85388 1.090648,0.7358 2.222785,1.50298 2.515818,1.70488 0.29307,0.20188 0.56886,0.34621 0.61296,0.32063 2.63671,1.93581 5.34414,3.65244 5.34414,3.65244 3e-5,0.0337 0.68964,0.52686 1.53255,1.09594 1.95642,1.32085 6.01816,4.06752 7.69744,5.20524 0.71389,0.48365 2.06054,1.39581 2.99254,2.02699 l 4.9395,3.34516 c 1.7847,1.20867 3.83475,2.59822 4.55565,3.08792 0.72091,0.48966 1.35685,0.90807 1.41325,0.92968 0.0708,0.0272 0.35668,-0.33902 0.92468,-1.18459 1.19281,-1.77578 1.37003,-1.84246 2.62844,-0.98919 l 0.70471,0.47788 0.34208,-0.51429 0.34207,-0.51429 -0.21203,-0.33417 c -0.25161,-0.39655 -0.4953,-1.14363 -0.4953,-1.51848 0,-0.35571 0.18817,-0.97328 0.39765,-1.30513 0.74512,-1.18038 2.64867,-1.38624 4.03002,-0.43584 0.4571,0.31448 0.89574,0.83763 1.15285,1.37493 0.20234,0.42285 0.22428,0.53572 0.22428,1.15374 0,0.56627 -0.0283,0.74256 -0.16343,1.01674 -0.46501,0.94361 -1.60338,1.49067 -2.70348,1.2991 -0.25409,-0.0442 -0.48334,-0.0804 -0.50953,-0.0804 -0.091,0 -0.73334,1.0333 -0.65807,1.05861 0.0417,0.0137 0.36123,0.22415 0.71022,0.46698 1.1928,0.82994 1.19382,0.99111 0.0171,2.71762 -0.46146,0.67707 -0.83736,1.25675 -0.8353,1.28819 0.004,0.0626 1.36649,0.98558 1.3973,0.94656 0.0101,-0.0135 0.38514,-0.57067 0.83264,-1.23866 0.87502,-1.30625 1.06675,-1.48883 1.56379,-1.48927 0.24914,-2.2e-4 0.42005,0.0794 1.00604,0.46848 0.38828,0.25777 0.72707,0.46873 0.75295,0.46866 0.0258,-2e-5 0.19216,-0.21902 0.36958,-0.48673 l 0.3226,-0.48676 -0.20677,-0.32449 c -0.51219,-0.8038 -0.60843,-1.76894 -0.25366,-2.54387 0.94556,-2.06535 4.24146,-1.66502 5.3372,0.64828 0.20762,0.43833 0.23184,0.55726 0.23184,1.13845 0,0.56428 -0.0263,0.70246 -0.20119,1.05868 -0.23698,0.48265 -0.57833,0.80309 -1.12954,1.06033 -0.33637,0.15701 -0.50298,0.1868 -1.04889,0.18757 -0.35693,5.1e-4 -0.73377,-0.0229 -0.83743,-0.0521 -0.17295,-0.0486 -0.216,-0.0115 -0.52279,0.44982 -0.1839,0.27653 -0.33436,0.51474 -0.33437,0.52934 -2.8e-4,0.0145 0.3076,0.23406 0.68357,0.48761 0.77034,0.51959 1.0285,0.87727 0.94589,1.31071 -0.0243,0.12756 -0.41714,0.78111 -0.87289,1.45229 -0.45575,0.67119 -0.82868,1.24632 -0.82867,1.27809 -3e-5,0.0633 1.25727,0.92681 1.34942,0.92681 0.0313,4e-5 0.4301,-0.55636 0.8861,-1.23638 0.7283,-1.08605 0.86638,-1.25304 1.13542,-1.37338 0.43002,-0.19233 0.6908,-0.12214 1.43629,0.38657 0.34637,0.23635 0.65303,0.44412 0.6815,0.46171 0.0584,0.036 0.71268,-0.87196 0.71269,-0.98903 -2e-5,-0.0416 -0.0644,-0.16607 -0.14323,-0.2767 -0.27523,-0.38651 -0.44681,-0.89833 -0.48394,-1.44358 -0.0508,-0.74598 0.14325,-1.26703 0.6612,-1.77533 0.49755,-0.48829 1.00455,-0.68138 1.7972,-0.68448 1.29104,-0.005 2.45478,0.72847 3.04253,1.9177 0.30025,0.6075 0.38883,1.37144 0.21899,1.88882 z M 76.42413,45.131478 c -0.229882,-0.41294 -0.320437,-0.41701 -0.365592,-0.0165 -0.06269,0.55659 -0.460005,0.95835 -1.008707,1.02023 -0.427039,0.0481 -0.804298,-0.13395 -1.051515,-0.50744 -0.165258,-0.24972 -0.190557,-0.36206 -0.1883,-0.83601 0.003,-0.5601 0.172345,-1.09411 0.442473,-1.39261 0.135235,-0.14943 0.149363,-0.1323 -0.253182,-0.30748 -0.718702,-0.31275 -1.176253,-1.02821 -1.219479,-1.90694 -0.02309,-0.46936 -0.004,-0.58537 0.138865,-0.8269 0.321347,-0.54459 1.06843,-0.72065 1.580865,-0.37246 0.280734,0.19084 0.495751,0.56488 0.495752,0.8626 2e-6,0.29831 0.136312,0.21866 0.327108,-0.19117 0.458218,-0.98426 -0.004,-1.56686 -1.243798,-1.56798 -1.273025,-0.001 -2.390275,0.91006 -2.87071,2.34128 -0.772909,2.30245 0.475343,5.0255 2.546988,5.55622 0.393593,0.10084 0.479149,0.10125 0.821847,0.004 0.210384,-0.0597 0.560983,-0.12087 0.779115,-0.13588 0.641424,-0.0442 1.17061,-0.37948 1.290595,-0.81772 0.06695,-0.24435 0.005,-0.49709 -0.22234,-0.90522 z m -3.261529,-16.46287 c -0.479408,-1.95004 -1.351143,-3.45935 -2.85289,-4.93949 -0.827082,-0.81517 -1.781493,-1.48596 -2.921969,-2.05366 -1.718778,-0.85555 -2.910444,-1.1446 -4.723163,-1.14568 -1.031865,-7.2e-4 -1.295101,0.0242 -1.983008,0.18693 -2.432499,0.57543 -4.065094,1.87429 -5.188799,4.12812 -0.538999,1.08098 -0.715944,1.74737 -0.71871,2.70608 -0.002,0.66647 0.0202,0.80542 0.18517,1.16016 0.362181,0.77907 1.134823,1.32121 2.244236,1.57471 0.96956,0.22155 1.352851,0.24107 1.614097,0.0822 0.282706,-0.17192 0.587222,-0.56682 0.676117,-0.87679 0.06641,-0.23143 0.05373,-0.25165 -0.470186,-0.75231 -0.620962,-0.5934 -0.757853,-0.86324 -0.756911,-1.49211 5.78e-4,-0.3685 0.04019,-0.52186 0.212435,-0.82219 0.385101,-0.67101 1.199209,-1.02283 1.919221,-0.82895 0.615768,0.16582 1.444947,0.84498 1.928812,1.57974 0.6624,1.00597 0.84341,2.01535 0.558502,3.11447 -0.246864,0.95236 -0.581259,1.52267 -1.334949,2.2768 -0.491607,0.49191 -0.795086,0.72717 -1.229584,0.9532 -0.31728,0.16506 -0.519062,0.30112 -0.448403,0.30236 0.48152,0.008 1.577077,0.56118 2.136957,1.07822 0.175152,0.16174 0.324939,0.29407 0.332813,0.29411 0.0081,3e-5 -0.0462,-0.21834 -0.120158,-0.48518 -0.34671,-1.25034 0.01581,-2.75648 0.967933,-4.02169 0.841108,-1.11766 2.231504,-1.78054 3.509921,-1.67336 1.640587,0.13754 3.391763,1.49781 3.391763,2.63463 0,0.72516 -0.389784,1.34029 -1.041552,1.64382 -0.672513,0.31315 -1.21459,0.20785 -1.944943,-0.37782 -0.589476,-0.4727 -0.795072,-0.49933 -1.107388,-0.14362 -0.118248,0.13461 -0.270825,0.39108 -0.33935,0.56977 -0.116551,0.30527 -0.116784,0.35087 -0.004,0.7467 0.565232,1.97987 1.915849,3.11609 3.381913,2.84507 1.809576,-0.33452 3.704954,-2.49473 4.182631,-4.76705 0.173493,-0.82526 0.18007,-0.90799 0.149141,-1.87484 -0.0202,-0.63179 -0.08189,-1.11701 -0.206115,-1.62246 z m -0.438755,22.14441 c -0.104118,-0.31017 -0.180278,-0.70223 -0.180272,-0.92812 -5e-6,-0.31535 -0.0396,-0.44557 -0.204513,-0.67234 -0.715314,-0.98363 -2.019285,-1.54061 -3.394885,-1.45008 -1.490859,0.0981 -2.802709,0.82567 -3.53683,1.96153 -0.595237,0.92098 -0.675328,1.97706 -0.218925,2.88667 0.275811,0.5497 0.595675,0.8275 0.952822,0.8275 0.271333,0 0.461812,-0.10046 0.795832,-0.41976 0.367071,-0.35091 0.355426,-0.45442 -0.04511,-0.39955 -0.888387,0.12177 -1.55217,-0.67415 -1.23122,-1.47629 0.153128,-0.38282 0.445389,-0.62803 0.91422,-0.76727 0.810281,-0.24063 1.669993,-0.0583 2.178034,0.46201 l 0.277745,0.28445 0.18805,-0.27571 c 0.349364,-0.51232 0.942765,-0.88412 1.561162,-0.97811 0.368376,-0.056 0.865404,0.18819 1.102425,0.54168 0.342544,0.5108 0.088,1.31844 -0.498288,1.58092 -0.395287,0.17698 -0.26888,0.30472 0.340045,0.34359 0.408379,0.0261 0.535371,0.006 0.726249,-0.1143 0.213865,-0.13487 0.252491,-0.20835 0.448726,-0.85322 0.0028,-0.009 -0.0761,-0.25818 -0.175252,-0.55353 z m -3.923814,-6.91794 c -0.145643,-1.04712 -0.04981,-2.30917 0.237194,-3.12253 l 0.103892,-0.29455 -0.804582,-0.0401 c -1.151381,-0.0574 -1.99771,-0.31878 -2.931813,-0.90535 -0.49249,-0.30928 -1.29283,-1.06929 -1.693539,-1.60824 l -0.302581,-0.40698 -0.003,0.62331 c -0.005,1.11872 -0.395903,2.12806 -1.144166,2.95493 -0.372331,0.41144 -1.104868,0.94147 -1.453848,1.05194 -0.25111,0.0795 -0.194815,0.15023 0.200201,0.25148 0.774016,0.19837 2.033979,0.93283 2.59729,1.51398 0.636698,0.65691 1.252816,1.70504 1.446504,2.46076 0.0509,0.19854 0.111229,0.35225 0.134099,0.3416 0.02291,-0.0107 0.414092,-0.20485 0.869373,-0.43154 0.92614,-0.46114 1.653026,-0.67429 2.546726,-0.7468 l 0.60352,-0.049 -0.163587,-0.51514 c -0.09,-0.28333 -0.198796,-0.76833 -0.241842,-1.07779 z m -7.140416,3.33109 c -0.449345,-1.19134 -1.815487,-1.82841 -3.61003,-1.68345 l -0.612926,0.0495 -0.33503,0.34555 c -0.335513,0.34604 -0.47122,0.67018 -0.389013,0.92917 0.02411,0.076 0.266577,0.25517 0.538746,0.39822 0.806703,0.42395 1.15878,0.93014 1.158781,1.66616 -3e-6,0.892 -0.616773,1.5944 -1.518778,1.72966 -0.854004,0.12808 -2.381993,-0.78539 -3.09179,-1.84833 -0.85675,-1.283 -0.792227,-3.07938 0.162789,-4.53237 0.626498,-0.95313 1.835826,-1.86481 2.727662,-2.05621 0.387477,-0.0832 0.383541,-0.10796 -0.0636,-0.40013 -0.23367,-0.15269 -0.594981,-0.45748 -0.802896,-0.67732 -0.20793,-0.21982 -0.392419,-0.39971 -0.410009,-0.39971 -0.01766,2e-4 -0.03211,0.0736 -0.03203,0.16368 7e-6,0.32629 -0.304518,1.25136 -0.598224,1.81733 -0.357097,0.68811 -1.169879,1.55059 -1.791999,1.90158 -0.483068,0.27254 -1.38076,0.51656 -1.893789,0.51481 -1.329279,-0.005 -2.956504,-0.86054 -3.244923,-1.707 -0.226093,-0.66356 -0.111574,-1.28391 0.32952,-1.78501 0.333261,-0.37862 0.754897,-0.56308 1.294707,-0.5664 0.334122,-0.002 0.509362,0.05 1.003031,0.29786 0.597729,0.30018 0.598323,0.3003 0.821007,0.1731 0.24286,-0.13873 0.619424,-0.79386 0.619768,-1.07747 -10e-7,-0.39454 -0.738408,-1.55086 -1.36336,-2.13497 -0.996063,-0.93097 -2.232653,-0.95172 -3.61219,-0.0606 -1.027007,0.66343 -2.385393,2.3214 -2.884831,3.52112 -0.513405,1.23326 -0.678323,3.00977 -0.400518,4.31429 0.32419,1.52233 1.036328,3.05837 1.939039,4.18235 2.401477,2.99012 6.069945,4.64419 9.530727,4.29732 2.476253,-0.2482 4.467662,-1.3886 5.678236,-3.25174 0.976489,-1.50293 1.282183,-2.98092 0.852229,-4.12084 z m -0.424886,-10.0953 c -0.24153,-0.49892 -0.605428,-0.87653 -1.106523,-1.14823 -0.423831,-0.2298 -0.502125,-0.24729 -1.10514,-0.2467 -0.561782,7.2e-4 -0.703671,0.0274 -1.055885,0.19989 -0.50185,0.24575 -0.954117,0.72512 -1.192311,1.26372 -0.157313,0.35568 -0.177006,0.48739 -0.152766,1.02238 0.0332,0.73231 0.208124,1.15004 0.678834,1.62075 0.564452,0.56446 1.34837,0.81439 2.115824,0.67462 0.900237,-0.16396 1.588291,-0.74452 1.89281,-1.59708 0.179565,-0.50262 0.144671,-1.33588 -0.07481,-1.78935 z m -5.376912,-3.59792 c -1.516842,-0.45875 -2.818376,-1.36436 -3.564854,-2.48043 -0.348418,-0.52094 -0.805325,-1.50679 -0.805327,-1.73763 -1.4e-5,-0.0692 -0.03844,-0.10441 -0.09011,-0.0823 -1.704663,0.73062 -2.173484,0.84701 -3.605474,0.8951 -0.624647,0.021 -1.135715,0.044 -1.135718,0.0512 4.65e-4,0.007 0.0772,0.17326 0.171509,0.36905 0.398202,0.8266 0.676447,1.94242 0.741433,2.97342 0.0371,0.58905 0.0674,0.73466 0.14639,0.70433 0.29583,-0.11351 1.469572,-0.12203 2.082462,-0.0151 1.775016,0.30964 3.227238,1.32698 4.404991,3.08585 0.20455,0.30547 0.391137,0.53617 0.41463,0.51268 0.02384,-0.0233 0.04272,-0.14499 0.04272,-0.26999 -10e-7,-0.125 0.05181,-0.40353 0.11511,-0.61894 0.338271,-1.15094 1.201045,-2.19207 2.241229,-2.70458 l 0.574439,-0.28302 -0.610532,-0.12234 c -0.335801,-0.0673 -0.841091,-0.19207 -1.122874,-0.27729 z"
       id="path7021"
       inkscape:connector-curvature="0"
       sodipodi:nodetypes="cccccccsccccscscccscccccccsccsssccscccscccccscccccccccccccccccccccccccccccscccccccccccccccccccscsccccssccccccccccccccccccccccccssccscccsscccccscsccccccccccscsccccccscsccsscccccccsscccccccscccsccsccccccccscccccscccccscccssccccscscccccccccccccccssccccsccccccccccccccccccccccccscccsccccccccccccscccssccccccccccccccccccccccccsccccccccccccccccsccccccssccccccccscccccccccccccsccccccccsccsccccccsccccc" />
  </g>
</svg>
