<?xml version="1.0" encoding="UTF-8"?>
<svg width="120.89mm" height="85.517mm" version="1.1" viewBox="0 0 120.89 85.517" xmlns="http://www.w3.org/2000/svg" xmlns:cc="http://creativecommons.org/ns#" xmlns:dc="http://purl.org/dc/elements/1.1/" xmlns:rdf="http://www.w3.org/1999/02/22-rdf-syntax-ns#">
<metadata>
<rdf:RDF>
<cc:Work rdf:about="">
<dc:format>image/svg+xml</dc:format>
<dc:type rdf:resource="http://purl.org/dc/dcmitype/StillImage"/>
<dc:title/>
</cc:Work>
</rdf:RDF>
</metadata>
<g transform="translate(-32.912 -17.027)">
<path d="m153.71 89.253c-0.21859 0.66594-0.64427 1.1359-1.307 1.4407-0.38067 0.17534-0.51061 0.19784-1.0816 0.18727-0.35694-7e-3 -0.72791-0.0215-0.82439-0.0331-0.14222-0.0171-0.23384 0.0607-0.48426 0.41155-0.16984 0.23797-0.30999 0.46892-0.31134 0.51325-1e-3 0.0443 0.30789 0.28526 0.68722 0.5354 0.7452 0.49144 0.91637 0.7106 0.91637 1.1737 0 0.23959-0.12745 0.46867-0.8728 1.5689l-0.87284 1.2884 0.76089 0.51794c0.5089 0.34635 0.85613 0.64408 1.0484 0.89879 0.95736 1.268 0.79967 2.9355-0.38094 4.0286-0.72682 0.67292-1.7835 0.92099-2.7772 0.652-0.47526-0.12864-0.80712-0.33382-3.3789-2.0891-0.47594-0.32478-1.5305-1.0399-2.3436-1.589-0.81305-0.54909-2.9222-1.9768-4.6871-3.1726-1.7649-1.1958-3.8741-2.6233-4.6871-3.1721-0.81302-0.54885-1.819-1.2304-2.2354-1.5145-0.41645-0.28409-1.3575-0.9222-2.0912-1.4179-1.816-1.227-4.2267-2.8579-5.8769-3.9758-0.75355-0.51047-1.9217-1.3007-2.5959-1.756-0.67423-0.45532-1.8586-1.2566-2.632-1.7805-0.77336-0.52398-2.1687-1.4682-3.1007-2.0982-0.93198-0.63011-2.1326-1.443-2.668-1.8065-2.4908-1.6912-3.0942-2.1003-4.5429-3.0801-0.85268-0.5767-2.6841-1.8171-4.0697-2.7565l-2.5194-1.708c-1.4981-1.0642-3.9458-2.6155-5.3818-3.6022 7.34e-4 -0.0227-0.94821-0.68225-2.1083-1.4657-1.1601-0.7835-2.7524-1.8601-3.5386-2.3925-0.78616-0.53241-1.4385-0.96797-1.4496-0.96796-0.01166 1.9e-4 -0.17059 0.22606-0.35427 0.50241-0.33689 0.50671-0.53825 0.66422-0.96678 0.75652-0.32914 0.0709-0.65816-0.0571-1.3217-0.51423-0.58697-0.40436-0.73998-0.59717-0.82238-1.0364-0.0578-0.30781 0.0295-0.54966 0.40933-1.1346 0.1617-0.24907 0.28154-0.46324 0.26573-0.47626-0.19475-0.16186-2.7359-1.8474-2.7851-1.8474-0.03696 2e-5 -0.20854 0.20839-0.38124 0.46312-0.61326 0.90439-1.1598 0.98778-2.1618 0.32992-0.71906-0.47208-0.88453-0.69125-0.92297-1.2225-0.0278-0.38425-0.0125-0.42766 0.3329-0.94211 0.19909-0.29662 0.35657-0.5438 0.35001-0.54923-0.09351-0.0772-2.8043-1.901-2.8255-1.901-0.01621-1.2e-4 -0.38983 0.5354-0.83017 1.1898-0.99327 1.476-1.2747 1.7101-1.9122 1.5906-0.25002-0.0469-1.9736-1.1475-2.4442-1.5606-0.2483-0.21806-0.44875-0.73985-0.38208-0.99477 0.03086-0.11825-0.0137-0.14628-0.2976-0.18695-0.40236-0.0577-0.94834-0.21147-1.168-0.32902-0.0881-0.0474-0.29652-0.21138-0.46306-0.36481l-0.30277-0.27907-0.22711 0.35056c-0.34211 0.52796-1.0921 1.1909-1.6466 1.4556-0.40571 0.19363-0.59445 0.23762-1.1384 0.26532-0.76752 0.0391-1.2715-0.1034-1.9032-0.53806-0.35466-0.24402-0.96513-0.90263-1.0381-1.12-0.01744-0.052-0.351 0.24386-0.77366 0.68632-0.95596 1.0007-1.7556 1.5969-2.9221 2.1784-1.0646 0.53074-1.8693 0.80756-3.0646 1.0543-0.7309 0.15089-1.0174 0.17075-2.4157 0.16734-1.445-3e-3 -1.67-0.0215-2.5238-0.20159-5.6835-1.199-10.124-5.3994-11.327-10.715-0.2695-1.1905-0.36182-2.4302-0.25944-3.4837 0.09669-0.99532 0.2326-1.6976 0.46835-2.4208l0.16114-0.49429-0.50308-0.11807c-0.7349-0.17247-1.2464-0.45044-1.739-0.94498-0.76591-0.76903-1.0901-1.7394-1.0152-3.0383 0.023-0.39919 0.0904-0.86317 0.1496-1.0311 0.26707-0.75698 1.0006-1.3974 1.8701-1.6327 1.1724-0.31734 2.2394 0.18171 2.7547 1.2884 0.20262 0.43516 0.2171 0.6906 0.05811 1.0256-0.34263 0.72206-1.4063 0.69602-1.7765-0.0435-0.17557-0.35076-0.3065-0.43165-0.57434-0.3548-0.36829 0.10561-0.47555 0.25673-0.52635 0.74146-0.04879 0.46561 0.0366 0.99178 0.22564 1.3901 0.168 0.35406 0.58706 0.60412 1.1613 0.69301 0.73703 0.11408 0.94748 0.0507 1.221-0.36782 0.68754-1.0521 2.1142-2.4626 3.0846-3.05 0.46903-0.28387 0.50633-0.39176 0.49451-1.4301-0.0192-1.6833-0.63673-3.1338-1.8601-4.3688-0.54882-0.55403-0.7547-0.7073-1.334-0.99316-0.38737-0.1912-0.92002-0.38738-1.2259-0.45161-2.2471-0.47181-4.6343 1.2195-3.8903 2.7563 0.17515 0.36179 0.65384 0.82175 1.0832 1.0408 0.2658 0.13556 0.34448 0.14611 0.57548 0.0769 0.42622-0.12769 0.4821-0.24554 0.29703-0.62647-0.32108-0.66089-0.139-1.2846 0.43951-1.5055 0.38183-0.14583 0.79763-0.0682 1.045 0.19508 0.29895 0.31822 0.55185 0.99365 0.58211 1.5547 0.0256 0.47514 6e-3 0.57127-0.19748 0.98533-0.26644 0.5413-0.59195 0.84788-1.2042 1.1344-0.5423 0.25378-1.2744 0.3356-1.8237 0.20383-0.46545-0.11166-1.3545-0.68492-1.8511-1.1935-0.69995-0.71693-1.0412-1.5311-1.0398-2.4809 9.17e-4 -0.6427 0.12214-1.0849 0.47169-1.7209 0.14057-0.25547 0.24573-0.47041 0.23398-0.47746-0.01178-7e-3 -0.2795-0.13804-0.59492-0.29105-0.79891-0.38747-1.4954-1.0884-1.9072-1.9193-0.89521-1.8066-0.52678-3.8623 0.93473-5.2154 0.85344-0.79014 1.8047-1.1591 2.9881-1.1591 1.1661 0 2.1324 0.38116 3.0178 1.1903l0.39707 0.3629 0.21962-0.31919c0.70859-1.0299 1.9812-1.5862 3.2258-1.4099 1.2958 0.18351 2.6891 1.1169 3.0582 2.0488 0.13687 0.34557 0.17184 0.57034 0.17409 1.119 3e-3 0.6337-0.0155 0.7237-0.23479 1.1692-0.4229 0.85908-1.117 1.2455-2.1436 1.1936-0.88288-0.0447-1.2606-0.34605-1.2601-1.0054 5.87e-4 -0.63952 0.4938-1.0531 1.1485-0.96303 0.45853 0.0631 0.61448-0.0763 0.55842-0.49897-0.0468-0.35269-0.30915-0.60513-0.95006-0.91411-1.0224-0.49296-1.8738-0.10556-2.3146 1.0532-0.20509 0.53922-0.19054 1.8604 0.027 2.4468 0.48198 1.2994 1.572 2.353 2.9816 2.8822 0.83442 0.31324 1.5789 0.42695 2.5106 0.38349 1.2631-0.0589 2.2429-0.36782 3.1848-1.0041l0.3323-0.22446 0.11405-0.69162c0.15619-0.94714 0.47681-1.8984 0.98912-2.9346 0.23734-0.48009 0.4315-0.93439 0.43151-1.0095-1.5e-4 -0.2627-0.41256-1.0042-0.70548-1.2683-0.47568-0.42889-1.1393-0.45786-1.9681-0.0859-0.4829 0.21672-0.57868 0.33899-0.5843 0.74594-5e-3 0.3687 0.0471 0.43557 0.34027 0.43557 0.64464 0 1.1149 0.4233 1.1149 1.0036 4e-6 0.90427-0.85807 1.2415-2.0356 0.79993-1.0199-0.38244-1.6019-1.577-1.3536-2.7785 0.18533-0.897 0.58203-1.4173 1.4105-1.8501 1.3378-0.69878 2.6611-0.77511 3.7559-0.21662 0.39074 0.19934 0.9823 0.74367 1.2248 1.1271l0.2008 0.3174 0.47288-0.44609c2.9268-2.761 7.1014-3.723 11.431-2.6343 4.1082 1.033 7.763 4.0185 9.5588 7.8083 0.45732 0.96512 0.73956 1.7913 0.97969 2.8679 0.18088 0.81089 0.19825 1.0191 0.20036 2.4022 2e-3 1.3015-0.0199 1.6127-0.15543 2.2148-0.29913 1.3284-0.78724 2.514-1.458 3.5415-0.20022 0.30679-0.36412 0.56927-0.36408 0.58341-3.8e-5 0.0141 0.14549 0.0474 0.32329 0.0741 0.47408 0.0711 1.284 0.50426 1.6994 0.90884 0.94665 0.92206 1.1331 2.4159 0.47304 3.7909-0.13099 0.27289-0.32267 0.59629-0.42636 0.71847l-0.18783 0.22253 0.39366 0.1632c0.47538 0.19709 1.0002 0.75248 1.347 1.4255 0.21723 0.42168 0.2574 0.46037 0.52248 0.50335 0.19475 0.0316 0.61241 0.26593 1.298 0.72814 1.4295 0.96395 1.5517 1.097 1.5515 1.6886-1.32e-4 0.37175-0.08389 0.53721-0.81848 1.6154-0.31139 0.45715-0.55478 0.84111-0.5408 0.8533 0.01367 0.0125 0.65414 0.4473 1.4226 0.96698l1.3973 0.94483 0.19979-0.27585c0.25307-0.34933 0.70418-0.54316 1.1193-0.4809 0.38001 0.057 1.5021 0.82523 1.6648 1.1398 0.1725 0.33355 0.15655 0.84428-0.0366 1.1716-0.15643 0.26494-0.15778 0.27929-0.0316 0.39779 0.16341 0.1537 2.6164 1.8013 2.6799 1.8 0.02558-7.1e-4 0.12154-0.11652 0.21316-0.2578 0.19594-0.30238 0.53402-0.46238 0.97706-0.46239 0.2675 0 0.42222 0.0678 0.95971 0.42078 0.79675 0.52316 0.92534 0.7002 0.92534 1.2738 7e-6 0.33913-0.0368 0.48422-0.17011 0.67116-0.09363 0.13117-0.15846 0.24765-0.1438 0.25906 0.014 0.0115 0.59374 0.40434 1.2878 0.87365 0.69406 0.46931 1.6026 1.0856 2.0191 1.3694 0.41643 0.28384 1.6495 1.1181 2.7402 1.8539 1.0906 0.7358 2.2228 1.503 2.5158 1.7049 0.29307 0.20188 0.56886 0.34621 0.61296 0.32063 2.6367 1.9358 5.3441 3.6524 5.3441 3.6524 3e-5 0.0337 0.68964 0.52686 1.5326 1.0959 1.9564 1.3208 6.0182 4.0675 7.6974 5.2052 0.71389 0.48365 2.0605 1.3958 2.9925 2.027l4.9395 3.3452c1.7847 1.2087 3.8348 2.5982 4.5556 3.0879 0.72091 0.48966 1.3568 0.90807 1.4132 0.92968 0.0708 0.0272 0.35668-0.33902 0.92468-1.1846 1.1928-1.7758 1.37-1.8425 2.6284-0.98919l0.70471 0.47788 0.68415-1.0286-0.21203-0.33417c-0.25161-0.39655-0.4953-1.1436-0.4953-1.5185 0-0.35571 0.18817-0.97328 0.39765-1.3051 0.74512-1.1804 2.6487-1.3862 4.03-0.43584 0.4571 0.31448 0.89574 0.83763 1.1528 1.3749 0.20234 0.42285 0.22428 0.53572 0.22428 1.1537 0 0.56627-0.0283 0.74256-0.16343 1.0167-0.46501 0.94361-1.6034 1.4907-2.7035 1.2991-0.25409-0.0442-0.48334-0.0804-0.50953-0.0804-0.091 0-0.73334 1.0333-0.65807 1.0586 0.0417 0.0137 0.36123 0.22415 0.71022 0.46698 1.1928 0.82994 1.1938 0.99111 0.0171 2.7176-0.46146 0.67707-0.83736 1.2568-0.8353 1.2882 4e-3 0.0626 1.3665 0.98558 1.3973 0.94656 0.0101-0.0135 0.38514-0.57067 0.83264-1.2387 0.87502-1.3062 1.0668-1.4888 1.5638-1.4893 0.24914-2.2e-4 0.42005 0.0794 1.006 0.46848 0.38828 0.25777 0.72707 0.46873 0.75295 0.46866 0.0258-2e-5 0.19216-0.21902 0.36958-0.48673l0.3226-0.48676-0.20677-0.32449c-0.51219-0.8038-0.60843-1.7689-0.25366-2.5439 0.94556-2.0654 4.2415-1.665 5.3372 0.64828 0.20762 0.43833 0.23184 0.55726 0.23184 1.1384 0 0.56428-0.0263 0.70246-0.20119 1.0587-0.23698 0.48265-0.57833 0.80309-1.1295 1.0603-0.33637 0.15701-0.50298 0.1868-1.0489 0.18757-0.35693 5.1e-4 -0.73377-0.0229-0.83743-0.0521-0.17295-0.0486-0.216-0.0115-0.52279 0.44982-0.1839 0.27653-0.33436 0.51474-0.33437 0.52934-2.8e-4 0.0145 0.3076 0.23406 0.68357 0.48761 0.77034 0.51959 1.0285 0.87727 0.94589 1.3107-0.0243 0.12756-0.41714 0.78111-0.87289 1.4523-0.45575 0.67119-0.82868 1.2463-0.82867 1.2781-3e-5 0.0633 1.2573 0.92681 1.3494 0.92681 0.0313 4e-5 0.4301-0.55636 0.8861-1.2364 0.7283-1.086 0.86638-1.253 1.1354-1.3734 0.43002-0.19233 0.6908-0.12214 1.4363 0.38657 0.34637 0.23635 0.65303 0.44412 0.6815 0.46171 0.0584 0.036 0.71268-0.87196 0.71269-0.98903-2e-5 -0.0416-0.0644-0.16607-0.14323-0.2767-0.27523-0.38651-0.44681-0.89833-0.48394-1.4436-0.0508-0.74598 0.14325-1.267 0.6612-1.7753 0.49755-0.48829 1.0046-0.68138 1.7972-0.68448 1.291-5e-3 2.4548 0.72847 3.0425 1.9177 0.30025 0.6075 0.38883 1.3714 0.21899 1.8888zm-77.288-44.122c-0.22988-0.41294-0.32044-0.41701-0.36559-0.0165-0.06269 0.55659-0.46 0.95835-1.0087 1.0202-0.42704 0.0481-0.8043-0.13395-1.0515-0.50744-0.16526-0.24972-0.19056-0.36206-0.1883-0.83601 3e-3 -0.5601 0.17234-1.0941 0.44247-1.3926 0.13524-0.14943 0.14936-0.1323-0.25318-0.30748-0.7187-0.31275-1.1763-1.0282-1.2195-1.9069-0.02309-0.46936-4e-3 -0.58537 0.13886-0.8269 0.32135-0.54459 1.0684-0.72065 1.5809-0.37246 0.28073 0.19084 0.49575 0.56488 0.49575 0.8626 2e-6 0.29831 0.13631 0.21866 0.32711-0.19117 0.45822-0.98426-4e-3 -1.5669-1.2438-1.568-1.273-1e-3 -2.3903 0.91006-2.8707 2.3413-0.77291 2.3024 0.47534 5.0255 2.547 5.5562 0.39359 0.10084 0.47915 0.10125 0.82185 4e-3 0.21038-0.0597 0.56098-0.12087 0.77912-0.13588 0.64142-0.0442 1.1706-0.37948 1.2906-0.81772 0.06695-0.24435 5e-3 -0.49709-0.22234-0.90522zm-3.2615-16.463c-0.47941-1.95-1.3511-3.4594-2.8529-4.9395-0.82708-0.81517-1.7815-1.486-2.922-2.0537-1.7188-0.85555-2.9104-1.1446-4.7232-1.1457-1.0319-7.2e-4 -1.2951 0.0242-1.983 0.18693-2.4325 0.57543-4.0651 1.8743-5.1888 4.1281-0.539 1.081-0.71594 1.7474-0.71871 2.7061-2e-3 0.66647 0.0202 0.80542 0.18517 1.1602 0.36218 0.77907 1.1348 1.3212 2.2442 1.5747 0.96956 0.22155 1.3529 0.24107 1.6141 0.0822 0.28271-0.17192 0.58722-0.56682 0.67612-0.87679 0.06641-0.23143 0.05373-0.25165-0.47019-0.75231-0.62096-0.5934-0.75785-0.86324-0.75691-1.4921 5.78e-4 -0.3685 0.04019-0.52186 0.21244-0.82219 0.3851-0.67101 1.1992-1.0228 1.9192-0.82895 0.61577 0.16582 1.4449 0.84498 1.9288 1.5797 0.6624 1.006 0.84341 2.0154 0.5585 3.1145-0.24686 0.95236-0.58126 1.5227-1.3349 2.2768-0.49161 0.49191-0.79509 0.72717-1.2296 0.9532-0.31728 0.16506-0.51906 0.30112-0.4484 0.30236 0.48152 8e-3 1.5771 0.56118 2.137 1.0782 0.17515 0.16174 0.32494 0.29407 0.33281 0.29411 0.0081 3e-5 -0.0462-0.21834-0.12016-0.48518-0.34671-1.2503 0.01581-2.7565 0.96793-4.0217 0.84111-1.1177 2.2315-1.7805 3.5099-1.6734 1.6406 0.13754 3.3918 1.4978 3.3918 2.6346 0 0.72516-0.38978 1.3403-1.0416 1.6438-0.67251 0.31315-1.2146 0.20785-1.9449-0.37782-0.58948-0.4727-0.79507-0.49933-1.1074-0.14362-0.11825 0.13461-0.27082 0.39108-0.33935 0.56977-0.11655 0.30527-0.11678 0.35087-4e-3 0.7467 0.56523 1.9799 1.9158 3.1161 3.3819 2.8451 1.8096-0.33452 3.705-2.4947 4.1826-4.767 0.17349-0.82526 0.18007-0.90799 0.14914-1.8748-0.0202-0.63179-0.08189-1.117-0.20612-1.6225zm-0.43876 22.144c-0.10412-0.31017-0.18028-0.70223-0.18027-0.92812-5e-6 -0.31535-0.0396-0.44557-0.20451-0.67234-0.71531-0.98363-2.0193-1.5406-3.3949-1.4501-1.4909 0.0981-2.8027 0.82567-3.5368 1.9615-0.59524 0.92098-0.67533 1.9771-0.21892 2.8867 0.27581 0.5497 0.59568 0.8275 0.95282 0.8275 0.27133 0 0.46181-0.10046 0.79583-0.41976 0.36707-0.35091 0.35543-0.45442-0.04511-0.39955-0.88839 0.12177-1.5522-0.67415-1.2312-1.4763 0.15313-0.38282 0.44539-0.62803 0.91422-0.76727 0.81028-0.24063 1.67-0.0583 2.178 0.46201l0.27774 0.28445 0.18805-0.27571c0.34936-0.51232 0.94276-0.88412 1.5612-0.97811 0.36838-0.056 0.8654 0.18819 1.1024 0.54168 0.34254 0.5108 0.088 1.3184-0.49829 1.5809-0.39529 0.17698-0.26888 0.30472 0.34004 0.34359 0.40838 0.0261 0.53537 6e-3 0.72625-0.1143 0.21386-0.13487 0.25249-0.20835 0.44873-0.85322 0.0028-9e-3 -0.0761-0.25818-0.17525-0.55353zm-3.9238-6.9179c-0.14564-1.0471-0.04981-2.3092 0.23719-3.1225l0.10389-0.29455-0.80458-0.0401c-1.1514-0.0574-1.9977-0.31878-2.9318-0.90535-0.49249-0.30928-1.2928-1.0693-1.6935-1.6082l-0.30258-0.40698-3e-3 0.62331c-5e-3 1.1187-0.3959 2.1281-1.1442 2.9549-0.37233 0.41144-1.1049 0.94147-1.4538 1.0519-0.25111 0.0795-0.19482 0.15023 0.2002 0.25148 0.77402 0.19837 2.034 0.93283 2.5973 1.514 0.6367 0.65691 1.2528 1.705 1.4465 2.4608 0.0509 0.19854 0.11123 0.35225 0.1341 0.3416 0.02291-0.0107 0.41409-0.20485 0.86937-0.43154 0.92614-0.46114 1.653-0.67429 2.5467-0.7468l0.60352-0.049-0.16359-0.51514c-0.09-0.28333-0.1988-0.76833-0.24184-1.0778zm-7.1404 3.3311c-0.44934-1.1913-1.8155-1.8284-3.61-1.6834l-0.61293 0.0495-0.33503 0.34555c-0.33551 0.34604-0.47122 0.67018-0.38901 0.92917 0.02411 0.076 0.26658 0.25517 0.53875 0.39822 0.8067 0.42395 1.1588 0.93014 1.1588 1.6662-3e-6 0.892-0.61677 1.5944-1.5188 1.7297-0.854 0.12808-2.382-0.78539-3.0918-1.8483-0.85675-1.283-0.79223-3.0794 0.16279-4.5324 0.6265-0.95313 1.8358-1.8648 2.7277-2.0562 0.38748-0.0832 0.38354-0.10796-0.0636-0.40013-0.23367-0.15269-0.59498-0.45748-0.8029-0.67732-0.20793-0.21982-0.39242-0.39971-0.41001-0.39971-0.01766 2e-4 -0.03211 0.0736-0.03203 0.16368 7e-6 0.32629-0.30452 1.2514-0.59822 1.8173-0.3571 0.68811-1.1699 1.5506-1.792 1.9016-0.48307 0.27254-1.3808 0.51656-1.8938 0.51481-1.3293-5e-3 -2.9565-0.86054-3.2449-1.707-0.22609-0.66356-0.11157-1.2839 0.32952-1.785 0.33326-0.37862 0.7549-0.56308 1.2947-0.5664 0.33412-2e-3 0.50936 0.05 1.003 0.29786 0.59773 0.30018 0.59832 0.3003 0.82101 0.1731 0.24286-0.13873 0.61942-0.79386 0.61977-1.0775-1e-6 -0.39454-0.73841-1.5509-1.3634-2.135-0.99606-0.93097-2.2327-0.95172-3.6122-0.0606-1.027 0.66343-2.3854 2.3214-2.8848 3.5211-0.5134 1.2333-0.67832 3.0098-0.40052 4.3143 0.32419 1.5223 1.0363 3.0584 1.939 4.1824 2.4015 2.9901 6.0699 4.6442 9.5307 4.2973 2.4763-0.2482 4.4677-1.3886 5.6782-3.2517 0.97649-1.5029 1.2822-2.9809 0.85223-4.1208zm-0.42489-10.095c-0.24153-0.49892-0.60543-0.87653-1.1065-1.1482-0.42383-0.2298-0.50212-0.24729-1.1051-0.2467-0.56178 7.2e-4 -0.70367 0.0274-1.0559 0.19989-0.50185 0.24575-0.95412 0.72512-1.1923 1.2637-0.15731 0.35568-0.17701 0.48739-0.15277 1.0224 0.0332 0.73231 0.20812 1.15 0.67883 1.6208 0.56445 0.56446 1.3484 0.81439 2.1158 0.67462 0.90024-0.16396 1.5883-0.74452 1.8928-1.5971 0.17956-0.50262 0.14467-1.3359-0.07481-1.7894zm-5.3769-3.5979c-1.5168-0.45875-2.8184-1.3644-3.5649-2.4804-0.34842-0.52094-0.80532-1.5068-0.80533-1.7376-1.4e-5 -0.0692-0.03844-0.10441-0.09011-0.0823-1.7047 0.73062-2.1735 0.84701-3.6055 0.8951-0.62465 0.021-1.1357 0.044-1.1357 0.0512 4.65e-4 7e-3 0.0772 0.17326 0.17151 0.36905 0.3982 0.8266 0.67645 1.9424 0.74143 2.9734 0.0371 0.58905 0.0674 0.73466 0.14639 0.70433 0.29583-0.11351 1.4696-0.12203 2.0825-0.0151 1.775 0.30964 3.2272 1.327 4.405 3.0858 0.20455 0.30547 0.39114 0.53617 0.41463 0.51268 0.02384-0.0233 0.04272-0.14499 0.04272-0.26999-1e-6 -0.125 0.05181-0.40353 0.11511-0.61894 0.33827-1.1509 1.201-2.1921 2.2412-2.7046l0.57444-0.28302-0.61053-0.12234c-0.3358-0.0673-0.84109-0.19207-1.1229-0.27729z" fill="#fff" fill-opacity=".53439"/>
</g>
</svg>
