<?xml version="1.0" encoding="UTF-8" standalone="no"?>
<!-- Created with Inkscape (http://www.inkscape.org/) -->

<svg
   width="37.775253mm"
   height="66.921669mm"
   viewBox="0 0 37.775253 66.921669"
   version="1.1"
   id="svg5"
   sodipodi:docname="rose.svg"
   inkscape:version="1.1 (c68e22c387, 2021-05-23)"
   xmlns:inkscape="http://www.inkscape.org/namespaces/inkscape"
   xmlns:sodipodi="http://sodipodi.sourceforge.net/DTD/sodipodi-0.dtd"
   xmlns="http://www.w3.org/2000/svg"
   xmlns:svg="http://www.w3.org/2000/svg">
  <sodipodi:namedview
     id="namedview7"
     pagecolor="#505050"
     bordercolor="#eeeeee"
     borderopacity="1"
     inkscape:pageshadow="0"
     inkscape:pageopacity="0"
     inkscape:pagecheckerboard="0"
     inkscape:document-units="mm"
     showgrid="false"
     inkscape:zoom="0.67081229"
     inkscape:cx="64.846755"
     inkscape:cy="-96.152085"
     inkscape:window-width="1920"
     inkscape:window-height="1027"
     inkscape:window-x="1072"
     inkscape:window-y="424"
     inkscape:window-maximized="1"
     inkscape:current-layer="layer1"
     fit-margin-top="0"
     fit-margin-left="0"
     fit-margin-right="0"
     fit-margin-bottom="0" />
  <defs
     id="defs2" />
  <g
     inkscape:label="Layer 1"
     inkscape:groupmode="layer"
     id="layer1"
     transform="translate(-34.717601,-101.93926)">
    <path
       style="fill:#ffffff;stroke-width:0.676459"
       d="m 50.097587,165.69559 c -2.107455,-3.89423 -3.728269,-9.3206 -4.402494,-14.73934 -0.478922,-3.84896 -0.641774,-4.12241 -3.578667,-6.01036 -3.144144,-2.02114 -4.410872,-4.02337 -6.360074,-10.05285 -1.602787,-4.95806 -1.412067,-5.64689 1.001343,-3.61616 1.126228,0.94765 2.441858,1.57175 2.923579,1.38692 0.488426,-0.18732 1.22199,0.42353 1.65833,1.38114 0.430342,0.94453 1.081427,1.71732 1.446866,1.71732 0.365472,0 1.04584,1.84654 1.512026,4.10347 1.044296,5.0561 1.795308,3.77159 1.863748,-3.18784 0.04631,-4.70201 -0.01785,-4.8911 -2.320045,-6.91304 -1.302185,-1.14332 -2.367596,-2.33162 -2.367596,-2.64063 0,-0.30899 -0.348731,-0.91052 -0.774859,-1.33668 -0.426193,-0.42616 -1.316739,-2.31348 -1.979,-4.19405 -0.93128,-2.64449 -1.004368,-3.41919 -0.322665,-3.41919 0.484825,0 1.260424,0.4566 1.723587,1.01468 0.463163,0.55812 1.185375,1.01996 1.604861,1.02638 1.330843,0.0201 3.796163,3.1483 4.243244,5.38362 0.742345,3.71172 1.571414,0.82196 1.58259,-5.51612 0.01125,-6.24696 -0.74101,-7.99671 -3.437011,-7.99671 -0.772721,0 -1.577925,-0.67482 -1.939328,-1.62543 -0.339886,-0.89397 -0.941169,-1.82518 -1.336197,-2.06928 -2.441536,-1.50898 2.011114,-6.45218 5.811859,-6.45218 3.294002,0 4.595416,1.44797 4.733439,5.26644 0.105491,2.92422 -0.09054,3.47394 -1.512267,4.23474 -1.477131,0.79057 -1.631652,1.30096 -1.612564,5.32615 l 0.0201,4.45177 1.671918,-2.70583 c 0.919557,-1.4882 2.078783,-2.62761 2.576118,-2.53201 0.497319,0.0957 2.018496,-0.90836 3.380422,-2.23104 2.335675,-2.26839 2.476062,-2.31665 2.473086,-0.85031 -0.0016,0.85503 -0.744209,3.37406 -1.65008,5.59778 -1.537932,3.77573 -1.860918,4.1148 -4.881673,5.12535 -3.842588,1.28543 -3.834162,1.26008 -4.91546,14.81189 -0.896865,11.24104 -0.903202,12.88665 -0.04969,12.88665 0.372033,0 0.676461,-0.55459 0.676461,-1.23241 0,-0.67785 0.486239,-2.65949 1.080558,-4.40369 0.908428,-2.66612 0.950689,-3.71251 0.2654,-6.56919 -0.815834,-3.40073 -0.687669,-4.23384 1.400023,-9.10321 0.319013,-0.74409 0.682314,-2.11391 0.807327,-3.04407 0.202523,-1.50674 0.398035,-1.34096 1.793024,1.52044 1.498759,3.07414 1.548578,4.38396 0.291499,7.6599 -0.854557,2.22696 0.992966,0.34615 5.165019,-5.25801 l 4.098661,-5.50561 -1.514004,-1.6116 c -1.209849,-1.28781 -1.329298,-1.72574 -0.594593,-2.1798 0.604145,-0.37338 0.767608,-1.17299 0.47672,-2.33199 -0.738807,-2.94367 0.203649,-5.10464 2.677701,-6.13826 3.546264,-1.48175 6.494221,-0.35906 7.996199,3.04525 1.427425,3.23529 1.127869,4.36192 -1.571625,5.91122 -1.102284,0.63261 -2.144473,1.6869 -2.316041,2.34288 -0.211255,0.80774 -0.97243,1.19267 -2.358526,1.19267 -1.462175,0 -2.426114,0.53293 -3.375469,1.86616 l -1.328831,1.86616 4.495956,-0.0592 c 2.472765,-0.0327 5.180875,-0.28406 6.017971,-0.5588 2.057057,-0.67514 1.916912,-0.0255 -0.621579,2.8846 -3.702282,4.2434 -4.032262,4.34934 -8.426265,2.70534 l -3.894305,-1.45705 -2.273056,2.6337 c -2.284892,2.64739 -6.244194,8.93471 -6.256046,9.93447 -0.0016,0.2949 1.010944,-0.27556 2.254338,-1.26766 1.307219,-1.04304 3.338193,-1.90053 4.815597,-2.03309 1.405232,-0.12608 3.324846,-0.73371 4.265822,-1.35026 1.682306,-1.10231 1.702681,-1.09424 1.217921,0.48221 -0.271125,0.88178 -0.657099,2.29342 -0.857677,3.13695 -0.547394,2.30192 -3.484883,3.99322 -7.600573,4.37614 -2.796892,0.26022 -3.988136,0.72575 -4.974702,1.94406 -1.923682,2.37567 -1.293679,7.50901 1.649164,13.43759 2.641696,5.32201 2.42946,6.5285 -0.270738,1.53902 z m 6.935563,-18.65636 c 2.149506,-1.00647 3.433504,-2.2063 2.915473,-2.72436 -0.221306,-0.2213 0.0201,-0.92481 0.539532,-1.56329 0.70079,-0.86362 0.715585,-1.02469 0.05773,-0.62899 -0.849186,0.51081 -3.207712,1.0314 -5.715519,1.26157 -0.653448,0.0601 -2.316313,1.2645 -3.695318,2.67673 l -2.507275,2.56768 3.357088,-0.39875 c 1.846413,-0.21928 4.118134,-0.75506 5.04824,-1.19059 z m -13.214493,-5.73217 c -0.512708,-2.48788 -1.461709,-4.62993 -2.591234,-5.84868 -0.980229,-1.0577 -1.782201,-1.67334 -1.782201,-1.36814 0,0.30522 -0.802744,-0.18308 -1.783826,-1.08501 l -1.783761,-1.63995 0.471846,2.02938 c 0.259531,1.11615 0.637497,2.84813 0.839907,3.84886 0.20254,1.0007 0.944981,2.34161 1.650145,2.97981 0.705166,0.63814 1.282664,1.49362 1.283339,1.90101 0.0013,0.64395 3.009596,2.8729 4.11204,3.0465 0.215951,0.0339 0.02863,-1.70469 -0.416255,-3.86378 z m 8.246255,-4.83827 c 1.265489,-2.88167 1.351056,-3.63188 0.64766,-5.67792 l -0.810463,-2.35752 -0.699392,1.80419 c -1.465906,3.78139 -1.948479,5.92555 -1.738285,7.72321 0.310427,2.65477 0.937422,2.29504 2.60048,-1.49196 z m 0.909474,1.24301 c 0,-0.37205 -0.304396,-0.48833 -0.676461,-0.25838 -0.372032,0.22985 -0.676429,0.72247 -0.676429,1.09452 0,0.37205 0.304397,0.48833 0.676429,0.25837 0.372065,-0.22984 0.676461,-0.72246 0.676461,-1.09451 z m 13.923806,-3.97892 c 0.527069,0 0.958327,-0.33174 0.958327,-0.73716 0,-0.40543 0.62833,-1.24594 1.396308,-1.86781 1.334704,-1.08079 1.199798,-1.12364 -3.056841,-0.97099 -2.449255,0.0878 -5.132343,0.52407 -5.962409,0.96935 -1.445242,0.77528 -1.365818,0.87569 1.873027,2.3674 1.860275,0.85679 3.483758,1.26109 3.60779,0.89848 0.124145,-0.36258 0.656729,-0.65927 1.183798,-0.65927 z m -21.356076,-6.73202 c -0.69042,-2.56411 -2.72461,-5.44424 -3.845129,-5.44424 -0.249801,0 -1.017505,-0.50988 -1.706107,-1.13308 -1.211232,-1.09611 -1.21932,-1.05485 -0.249271,1.26701 0.551528,1.32003 0.86784,2.53499 0.702914,2.69993 -0.164974,0.16496 0.943179,1.59352 2.46249,3.17468 1.519326,1.58114 2.903943,2.73322 3.077006,2.56014 0.173015,-0.17302 -0.02573,-1.57902 -0.441968,-3.12444 z m 20.778272,-2.47065 c -0.224747,-0.22475 -0.808244,-0.24878 -1.296558,-0.0534 -0.539611,0.21615 -0.379333,0.37624 0.408713,0.40871 0.713078,0.0294 1.112608,-0.13057 0.887845,-0.3553 z m -13.76684,-1.96799 c 1.34763,-0.56306 2.496597,-1.40018 2.55325,-1.86027 0.05676,-0.46008 0.13717,-1.17574 0.179287,-1.59039 0.04197,-0.41465 0.404918,-1.17564 0.806619,-1.69117 0.401702,-0.51546 0.906949,-1.43522 1.122755,-2.04384 0.355195,-1.00172 0.206334,-1.01369 -1.5727,-0.12623 -1.080783,0.53918 -2.14436,1.27041 -2.363478,1.62498 -0.219071,0.35455 -0.670962,0.47622 -1.004062,0.27037 -0.3331,-0.20589 -1.382623,1.159 -2.33225,3.03303 -1.924164,3.7971 -1.562601,4.12722 2.610531,2.38356 z m 11.573899,-0.97876 c 0.542056,-1.70783 -0.77256,-4.76208 -2.049676,-4.76208 -0.708752,0 -0.956768,0.40481 -0.725331,1.18381 1.168585,3.93354 1.273048,5.09586 0.410064,4.56245 -0.567834,-0.35092 -0.715039,-0.27728 -0.41521,0.2079 0.626594,1.01387 2.308997,0.29256 2.780153,-1.19202 z m 6.471083,-0.88223 c 0.773414,-0.72051 1.263368,-1.45288 1.088809,-1.62744 -0.44898,-0.449 -5.443351,2.18012 -6.453427,3.39719 -0.737151,0.88823 -0.544726,0.92239 1.558757,0.27682 1.31981,-0.40508 3.032446,-1.326 3.805861,-2.04657 z m -2.742011,-2.90384 c 0,-0.46401 -0.958665,-1.17785 -2.130306,-1.5863 -2.826128,-0.98518 -2.845264,-0.97626 -1.628564,0.76082 0.579155,0.82685 1.053012,2.0917 1.053012,2.81066 0,1.26441 0.04422,1.26711 1.352937,0.083 0.744113,-0.67342 1.352921,-1.60402 1.352921,-2.06806 z m 1.269027,-1.81589 c -0.806009,-0.29816 -1.624207,-0.38335 -1.818223,-0.18911 -0.194033,0.19403 0.0016,0.35275 0.436437,0.35275 0.434057,0 0.7989,0.68491 0.810704,1.52203 0.0201,1.49403 0.0402,1.49751 1.029035,0.18956 0.919218,-1.21592 0.879112,-1.38019 -0.457953,-1.87479 z m -2.621948,-1.86597 c 0.824919,-0.53313 0.737488,-0.65767 -0.467425,-0.66608 -0.815159,-0.005 -1.67023,0.29405 -1.900187,0.66608 -0.532279,0.86127 1.034905,0.86127 2.367612,0 z m 3.382303,0.41063 c 0,-0.14618 -0.472442,-0.44715 -1.049844,-0.66873 -0.60199,-0.23111 -0.873516,-0.11755 -0.636532,0.26585 0.397248,0.64278 1.686376,0.95074 1.686376,0.40288 z m -24.35255,-3.38232 c 0,-0.14617 -0.456618,-0.44105 -1.01469,-0.65523 -0.558106,-0.21415 -1.014675,-0.0945 -1.014675,0.26587 0,0.36037 0.456569,0.65524 1.014675,0.65524 0.558072,0 1.01469,-0.11964 1.01469,-0.26588 z m 5.411653,-1.78731 c 0,-0.961 -0.32379,-0.81368 -1.755395,0.79869 -1.281747,1.44357 -1.280493,1.44706 0.233415,0.65264 0.837125,-0.43926 1.522029,-1.09236 1.522029,-1.45133 z m -5.435807,-0.24186 c -1.301124,-1.23749 -4.034594,-2.04323 -4.034594,-1.18925 0,0.36611 0.837094,0.97142 1.860243,1.34509 2.659095,0.97121 3.310245,0.92451 2.174351,-0.15599 z m 4.736865,-3.02247 c -0.01785,-0.86929 -0.309992,-0.76382 -1.352937,0.48808 -0.731715,0.87834 -1.320261,2.09597 -1.307894,2.70584 0.01785,0.86929 0.309975,0.76382 1.352936,-0.4881 0.731715,-0.87834 1.320261,-2.09597 1.307895,-2.70582 z m -2.36729,0.62511 c 0.565035,-1.09257 0.844683,-2.46243 0.62148,-3.04406 -0.494843,-1.2895 -2.945722,-1.37857 -4.602332,-0.16721 -1.53753,1.12428 -1.146425,3.50573 0.576389,3.50958 0.707545,0.001 1.412855,0.38206 1.567345,0.84557 0.412363,1.23713 0.697799,1.05946 1.837118,-1.14384 z m -3.952324,-1.0819 c -0.55669,-1.45067 1.408754,-2.63841 3.109844,-1.87936 1.429209,0.63774 1.410892,0.68616 -0.648496,1.71354 -1.71016,0.85315 -2.185319,0.88514 -2.461348,0.16588 z"
       id="path1059-1"
       sodipodi:nodetypes="csssscsscscssssscscsscsccccscsccssssssssssscssscsssssccscscscssssssssccsscscscssscssscscscccsscsssscscssssssscscssssssccscssssccsssssssssssssssssssssssscssccscsccscssscsssssssssssscsscccscscssscssssssss" />
  </g>
</svg>
