<?xml version="1.0" encoding="UTF-8" standalone="no"?>
<!-- Created with Inkscape (http://www.inkscape.org/) -->

<svg
   width="177.2191mm"
   height="50.742451mm"
   viewBox="0 0 177.2191 50.742451"
   version="1.1"
   id="svg5"
   inkscape:version="1.1 (c68e22c387, 2021-05-23)"
   sodipodi:docname="three-flowers.svg"
   xmlns:inkscape="http://www.inkscape.org/namespaces/inkscape"
   xmlns:sodipodi="http://sodipodi.sourceforge.net/DTD/sodipodi-0.dtd"
   xmlns="http://www.w3.org/2000/svg"
   xmlns:svg="http://www.w3.org/2000/svg">
  <sodipodi:namedview
     id="namedview7"
     pagecolor="#505050"
     bordercolor="#eeeeee"
     borderopacity="1"
     inkscape:pageshadow="0"
     inkscape:pageopacity="0"
     inkscape:pagecheckerboard="0"
     inkscape:document-units="mm"
     showgrid="false"
     fit-margin-top="0"
     fit-margin-left="0"
     fit-margin-right="0"
     fit-margin-bottom="0"
     inkscape:zoom="0.67081229"
     inkscape:cx="196.03099"
     inkscape:cy="169.19785"
     inkscape:window-width="1920"
     inkscape:window-height="1027"
     inkscape:window-x="1072"
     inkscape:window-y="424"
     inkscape:window-maximized="1"
     inkscape:current-layer="layer1" />
  <defs
     id="defs2" />
  <g
     inkscape:label="Layer 1"
     inkscape:groupmode="layer"
     id="layer1"
     transform="translate(-15.689281,-19.735861)">
    <path
       style="fill:#ffffff;stroke-width:0.264583;fill-opacity:0.68065268"
       d="m 86.525906,70.30215 c -0.713055,-0.286896 -1.182283,-1.711206 -1.004718,-3.04976 0.119123,-0.89798 0.03258,-1.730579 -0.284388,-2.736122 -0.704143,-2.233803 -1.031078,-1.878807 -0.899808,0.977032 0.09216,2.005079 -1.37618,3.535847 -2.715432,2.830875 -0.784672,-0.413049 -0.968245,-0.738918 -0.973016,-1.727245 -0.0044,-0.912617 1.095761,-2.467697 1.745808,-2.467697 0.472843,0 0.793406,-0.822873 1.175637,-3.017806 0.197014,-1.131327 0.209661,-1.862876 0.03753,-2.170457 -0.22134,-0.395512 -0.35819,-0.271468 -0.927603,0.840796 -1.181007,2.306923 -4.120912,4.588452 -5.935456,4.60624 -0.326009,0.0032 -1.348312,0.523094 -2.271787,1.155327 -3.729948,2.553623 -8.218959,2.664169 -10.786287,0.265623 l -0.686229,-0.641115 -1.430438,0.737468 c -1.271286,0.655415 -1.71009,0.73724 -3.943977,0.735452 -2.087751,-0.0016 -2.724468,-0.105561 -3.758685,-0.613286 -2.224936,-1.092279 -4.025934,-3.836466 -4.35801,-6.640322 -0.0875,-0.738804 -0.205629,-1.343306 -0.262501,-1.343306 -0.05687,0 -0.887333,0.665028 -1.845469,1.477839 -3.800041,3.223675 -6.330532,4.420526 -12.000336,5.675812 -2.110052,0.467165 -4.467057,1.083387 -5.237789,1.369386 -2.583224,0.958567 -2.847243,0.14937 -0.736584,-2.257573 0.788678,-0.899391 2.187661,-2.583165 3.108853,-3.74172 3.905266,-4.911537 7.655291,-6.761215 12.965005,-6.394913 l 2.294273,0.158277 -0.885698,-1.316144 C 46.42167,52.290932 45.874977,51.03677 45.693936,50.227786 l -0.329171,-1.47088 -1.476282,1.451867 c -2.937574,2.88899 -5.572586,3.594589 -11.500266,3.079517 -4.438224,-0.385649 -4.395809,-0.375502 -4.395809,-1.051595 0,-0.360799 0.362001,-0.714348 1.124479,-1.098227 0.618464,-0.311375 2.291829,-1.401286 3.71859,-2.422025 1.42676,-1.020741 3.247162,-2.121313 4.045336,-2.445716 l 1.451227,-0.589822 -1.096376,-0.147053 c -0.625337,-0.08387 -1.522801,0.0034 -2.088914,0.203134 -0.545899,0.192603 -1.991995,0.554305 -3.213545,0.803783 -4.925922,1.006015 -7.907768,-0.111696 -13.068922,-4.89875 -1.74625,-1.619673 -3.175,-3.145996 -3.175,-3.391829 0,-0.533712 -0.02471,-0.53382 6.112391,0.02653 6.270812,0.572564 8.30655,1.273617 12.955953,4.461669 1.028734,0.705395 2.157701,1.282536 2.508814,1.282536 0.570489,0 0.526325,-0.07468 -0.415219,-0.702151 -3.379324,-2.252073 -4.941319,-4.189561 -6.57968,-8.161391 -0.540239,-1.309687 -1.281194,-2.835976 -1.646567,-3.391751 -0.753471,-1.14612 -0.738058,-1.918549 0.03715,-1.861747 0.2865,0.02099 1.949686,0.675836 3.695968,1.455208 7.35221,3.281317 9.113575,5.16123 9.735317,10.390551 l 0.301213,2.533407 0.934831,0.157712 c 0.514157,0.08674 1.323451,0.256752 1.798431,0.377799 0.779322,0.198609 0.900898,0.147963 1.245775,-0.518951 0.210193,-0.406472 0.977466,-1.27426 1.705049,-1.928419 l 1.322877,-1.189381 -0.882108,-1.82159 c -0.879141,-1.815457 -1.586508,-2.630424 -3.313168,-3.81713 -0.73768,-0.506996 -1.201007,-0.613978 -2.446129,-0.564806 -1.731277,0.06837 -2.589061,-0.335381 -3.101382,-1.4598 -0.273825,-0.60098 -0.246605,-0.806114 0.183819,-1.385353 0.936662,-1.260503 3.104158,-0.902535 3.801433,0.627819 0.258305,0.566916 1.476457,1.363821 1.717019,1.123258 0.0563,-0.0563 -0.62063,-1.118776 -1.504289,-2.361061 -1.248076,-1.754604 -1.782254,-2.293821 -2.393492,-2.416069 -1.902867,-0.380573 -2.871589,-3.08516 -1.440815,-4.022638 1.290315,-0.845448 3.072696,0.485493 3.187737,2.380353 0.03133,0.515981 0.178702,1.088678 0.327504,1.27266 0.148799,0.183982 0.938697,1.269759 1.755328,2.412839 1.133869,1.587133 1.482794,1.931058 1.47637,1.455208 -0.0046,-0.342715 -0.183224,-0.854234 -0.396875,-1.136709 C 45.7462,30.6407 45.878137,29.02156 46.63351,28.26619 c 1.996411,-1.996413 3.945458,1.093224 2.163466,3.429537 -0.676897,0.887456 -0.690436,0.975514 -0.431128,2.803869 0.147243,1.038201 0.428575,2.194651 0.625181,2.569887 0.346115,0.660582 0.368139,0.625688 0.693523,-1.098786 0.402794,-2.134723 1.497653,-3.893555 3.136289,-5.038272 1.076743,-0.752188 1.299112,-0.801881 3.571875,-0.798206 2.579196,0.0042 3.926565,0.422382 6.022433,1.869314 l 0.952947,0.657889 1.296012,-0.646257 c 4.90629,-2.446529 10.786129,-1.528887 14.723544,2.297841 l 1.176025,1.142967 1.098744,-0.53215 c 0.604305,-0.292683 1.095539,-0.597991 1.091628,-0.678462 -0.0039,-0.08047 -0.757327,-0.481208 -1.674254,-0.890525 -2.116254,-0.944698 -4.389504,-2.723491 -5.449541,-4.264204 -0.45353,-0.659183 -1.306214,-2.421329 -1.894856,-3.915881 -0.58864,-1.494553 -1.305907,-3.122893 -1.593922,-3.618534 -0.458893,-0.789696 -0.47593,-0.948905 -0.137721,-1.287113 0.338207,-0.338207 0.593755,-0.318738 2.065947,0.157396 0.924001,0.298838 2.692032,0.742878 3.928959,0.986755 2.98645,0.588819 4.24216,1.219261 5.780011,2.901916 1.543275,1.68859 2.025676,3.141149 1.823511,5.490772 -0.112869,1.311771 -0.07982,1.545183 0.162266,1.146023 1.43196,-2.361056 3.507246,-4.031259 5.860254,-4.716369 1.475539,-0.429624 4.315074,-0.369856 5.442194,0.114549 l 0.944279,0.405824 0.596609,-1.12462 c 0.848897,-1.600182 2.520365,-3.191629 4.238145,-4.035237 1.34041,-0.658282 1.75108,-0.72623 4.38919,-0.72623 2.70215,0 3.02129,0.05618 4.45989,0.785096 0.85221,0.431803 2.00623,1.303994 2.56448,1.938201 0.55825,0.634208 1.5669,1.518666 2.24144,1.965463 0.67454,0.446797 1.46689,1.137591 1.76078,1.535098 0.39432,0.533345 0.84651,0.765529 1.72559,0.88602 2.63868,0.36167 5.68724,2.701642 7.07847,5.43318 l 0.59386,1.165975 0.30493,-0.874728 c 0.16771,-0.4811 0.30493,-1.815145 0.30493,-2.964545 0,-1.851199 -0.0709,-2.15635 -0.62121,-2.672498 -1.30373,-1.222861 -1.66536,-3.150168 -0.74702,-3.981255 1.5412,-1.394764 3.60401,0.816465 2.83861,3.04285 -0.17517,0.509556 -0.24736,1.129256 -0.16042,1.377113 0.27263,0.777201 2.78444,-4.652025 2.70698,-5.851077 -0.0795,-1.230081 0.73525,-2.63186 1.66533,-2.865293 1.06429,-0.267121 1.99065,0.492829 1.99065,1.63306 0,1.252361 -0.35455,1.844012 -1.56167,2.606037 -0.76811,0.484886 -1.3036,1.206351 -2.23759,3.014729 -0.6753,1.307513 -1.22782,2.455789 -1.22782,2.551723 0,0.09593 0.35718,-0.07991 0.79375,-0.390774 0.43656,-0.31086 0.79375,-0.723095 0.79375,-0.916077 0,-0.192983 0.34542,-0.720656 0.76761,-1.172609 1.33714,-1.431417 3.46572,-0.971649 3.46572,0.748589 0,1.36186 -2.01974,2.716778 -3.39783,2.27939 -0.5963,-0.189256 -2.79911,1.687021 -3.60063,3.066881 l -0.51618,0.888618 0.64847,-0.459452 c 4.80253,-3.402709 8.83732,-3.939367 13.43648,-1.787157 l 1.67782,0.785144 1.10145,-0.751644 c 4.13831,-2.824016 8.99803,-2.438955 11.23975,0.890586 0.48283,0.717128 0.9442,1.635488 1.02526,2.0408 0.18654,0.932695 0.33366,0.923638 1.28851,-0.07932 1.28421,-1.348905 4.35954,-3.548639 6.38853,-4.569621 1.97556,-0.994093 4.24521,-1.695082 7.88233,-2.434483 1.16417,-0.236667 2.95357,-0.696032 3.97645,-1.02081 1.02287,-0.324779 2.00514,-0.542052 2.18281,-0.482829 0.37856,0.126189 0.4343,1.021914 0.0773,1.242544 -0.13515,0.08352 -1.16565,1.310941 -2.29002,2.727594 -6.28242,7.915605 -9.49842,9.553326 -17.07129,8.693393 l -1.74765,-0.198451 -0.17296,1.26188 c -0.14133,1.031116 -0.0906,1.307995 0.27764,1.514052 0.92674,0.518626 2.68186,2.325857 2.9965,3.085465 0.17931,0.432909 0.36268,0.787104 0.40748,0.787104 0.0448,0 0.7745,-0.729636 1.62155,-1.621414 3.43038,-3.611518 6.05091,-4.268415 13.9755,-3.50329 2.16758,0.209283 2.38868,0.282088 2.46399,0.811384 0.0649,0.455875 -0.16374,0.705586 -1.05834,1.156071 -0.62758,0.316026 -2.30841,1.409747 -3.73517,2.430486 -1.42676,1.020741 -3.24776,2.121556 -4.04667,2.446256 l -1.45255,0.590362 1.04111,0.166481 c 0.65087,0.104076 1.45594,0.02014 2.14781,-0.223986 2.04845,-0.722733 5.62278,-1.260671 7.28566,-1.096489 2.67043,0.26366 5.30644,1.793674 9.0106,5.230017 3.28366,3.046243 3.77326,3.82579 2.36648,3.767939 -2.76554,-0.113729 -8.50914,-0.709237 -10.18646,-1.056153 -2.4095,-0.498351 -5.58063,-1.98909 -8.06252,-3.790159 -1.10852,-0.804442 -2.11171,-1.332545 -2.51354,-1.323195 -0.62313,0.0145 -0.6345,0.03705 -0.16682,0.330729 1.8068,1.134571 4.41769,3.482502 5.16154,4.641687 0.48008,0.748143 1.39215,2.55657 2.02683,4.018724 0.63468,1.462154 1.40502,3.011051 1.71188,3.441994 0.66161,0.929137 0.59011,1.72339 -0.15,1.666415 -0.71045,-0.05469 -6.9693,-2.807547 -8.31588,-3.6576 -1.6392,-1.034783 -3.13831,-2.477993 -3.86887,-3.724601 -0.71542,-1.220769 -1.4212,-4.112183 -1.42844,-5.851988 -0.005,-1.198751 0.11514,-1.12158 -2.42485,-1.557682 l -0.96503,-0.165692 -0.29178,1.36049 c -0.32824,1.530516 -0.83856,2.640803 -1.80996,3.937807 -0.60075,0.802132 -0.62848,0.947319 -0.29949,1.568249 0.19941,0.376351 1.06831,1.204883 1.9309,1.841177 1.49586,1.103426 1.63038,1.149226 2.91042,0.99087 1.13862,-0.140862 1.48245,-0.07137 2.26811,0.458364 0.73254,0.493924 0.943,0.826606 1.00721,1.59213 0.067,0.798248 -0.0394,1.04674 -0.6073,1.418839 -0.99708,0.653309 -2.62696,0.136962 -3.33025,-1.055031 -0.49408,-0.837396 -1.83216,-1.730349 -1.83216,-1.222666 0,0.135763 0.74414,1.229304 1.65365,2.430089 1.24578,1.644767 1.86162,2.235857 2.49689,2.396567 1.62328,0.410649 2.55708,2.721825 1.5191,3.759796 -1.27401,1.274013 -3.55297,-0.382895 -3.55297,-2.583178 0,-0.320789 -0.77391,-1.64561 -1.71979,-2.944048 -1.04063,-1.428493 -1.71609,-2.15786 -1.71042,-1.846919 0.005,0.282634 0.17953,0.811533 0.3875,1.175335 1.05495,1.845445 -0.34382,4.378201 -2.05803,3.726463 -0.92382,-0.351237 -1.37931,-1.604679 -1.00037,-2.752868 0.16511,-0.500284 0.51136,-1.100711 0.76945,-1.334283 0.40973,-0.370797 0.44227,-0.676608 0.25649,-2.410531 -0.11702,-1.092222 -0.38249,-2.37403 -0.58993,-2.848465 -0.37018,-0.846645 -0.37755,-0.82518 -0.39874,1.160042 -0.0436,4.081307 -1.67437,7.242834 -4.43544,8.598607 -1.34699,0.661416 -1.83678,0.755827 -3.92111,0.755827 -2.05766,0 -2.57924,-0.09769 -3.83222,-0.717788 l -1.45039,-0.717788 -0.66569,0.621437 c -2.6989,2.519484 -8.10528,2.165274 -11.58023,-0.758706 -0.44193,-0.371861 -1.08398,-0.678727 -1.42678,-0.681924 -0.72781,-0.0068 -2.7945,-0.900168 -3.4457,-1.489498 -0.41568,-0.37619 -0.47411,-0.318532 -0.75208,0.742154 -0.42275,1.613138 -1.31696,2.881206 -2.67229,3.789534 -0.63884,0.428146 -1.78946,1.300975 -2.55693,1.939618 -1.60518,1.335736 -2.17647,1.316633 -2.17647,-0.07278 0,-0.513826 -0.1863,-2.013807 -0.41401,-3.333292 -0.22771,-1.319485 -0.33776,-2.746251 -0.24456,-3.17059 l 0.16946,-0.771525 -1.67367,0.779595 c -3.30691,1.540349 -7.78355,1.599761 -11.40401,0.151347 -1.60066,-0.640366 -1.69543,-0.648282 -2.97298,-0.248364 -0.72578,0.227197 -2.62929,0.473802 -4.230018,0.548007 -5.297431,0.245576 -8.552738,-0.875067 -12.293581,-4.232082 -1.231678,-1.105299 -2.270247,-1.978803 -2.307934,-1.941115 -0.03768,0.03768 0.05262,0.507251 0.200681,1.043479 0.155908,0.564653 0.888651,1.644044 1.74112,2.56481 1.323147,1.429158 1.578065,1.58985 2.522106,1.58985 0.807953,0 1.228574,0.17839 1.823582,0.773398 1.380705,1.380704 0.860624,3.195352 -0.915791,3.195352 -0.982716,0 -2.135939,-1.026515 -2.412865,-2.147758 -0.09408,-0.380899 -0.53898,-0.96457 -0.988677,-1.297046 -0.491847,-0.363638 -0.762833,-0.456673 -0.680111,-0.233494 0.07563,0.204054 0.33987,0.986596 0.587189,1.738981 0.267925,0.815071 0.709031,1.537915 1.091367,1.78843 2.384198,1.562188 1.392568,5.225625 -1.138801,4.207138 z m 36.815414,-3.665326 c 1.80956,-1.264976 2.81151,-2.764923 2.81151,-4.208936 0,-0.778788 -1.24796,-3.325707 -1.62955,-3.325707 -0.1224,0 -0.22458,0.26789 -0.22707,0.595312 -0.005,0.595763 -0.92643,4.392594 -1.11148,4.577641 -0.054,0.054 -0.0499,-1.005144 0.009,-2.353646 0.15532,-3.551118 0.0793,-3.732638 -0.94255,-2.251802 -1.30686,1.893802 -1.55221,3.171761 -1.13,5.885849 0.1949,1.252842 0.389,2.277896 0.43134,2.277896 0.0423,0 0.84727,-0.538472 1.78874,-1.196607 z M 71.551108,65.41646 c 2.994628,-1.120434 4.613717,-3.437742 4.583946,-6.560739 -0.01185,-1.244565 -0.353449,-3.381705 -0.576093,-3.60435 -0.06911,-0.06911 -0.649785,0.164746 -1.290378,0.51969 -0.640594,0.354943 -1.591133,0.723355 -2.11231,0.818692 -0.685622,0.125418 -1.083836,0.405233 -1.44041,1.012153 -0.76341,1.29939 -3.039459,3.59669 -4.288819,4.328864 -0.620395,0.363574 -1.378868,1.01337 -1.685494,1.443987 -0.544277,0.764363 -0.545851,0.79602 -0.06634,1.33404 1.225031,1.374524 4.258985,1.686777 6.875902,0.707663 z m 70.967982,0.05506 c 0.54964,-0.280405 1.15006,-0.69143 1.33427,-0.913389 0.4921,-0.592939 -0.25745,-1.506543 -2.45121,-2.987717 -1.59637,-1.077828 -4.13682,-3.893246 -4.13682,-4.58456 0,-0.113316 -0.44649,-0.288753 -0.99219,-0.389859 -0.5457,-0.101105 -1.56245,-0.468997 -2.25943,-0.817538 -1.59199,-0.796105 -1.64318,-0.704943 -1.64318,2.92685 0,2.407848 0.0652,2.756805 0.72527,3.879577 1.62679,2.76733 6.64433,4.304353 9.42329,2.886636 z M 61.080145,64.45719 c 1.668032,-0.87139 1.937041,-1.322539 0.70267,-1.178433 -1.385057,0.161697 -3.876334,-0.399801 -5.667322,-1.277334 -1.884169,-0.92319 -3.292242,-2.415273 -3.959598,-4.195843 -0.855009,-2.281237 -1.549517,-2.031134 -1.315604,0.473774 0.293473,3.142729 2.143713,5.985714 4.320852,6.6392 0.409644,0.12296 1.594414,0.233794 2.632824,0.246304 1.574605,0.01897 2.120112,-0.09851 3.286178,-0.707668 z m 92.110985,0.419346 c 1.42068,-0.425646 2.98619,-2.067539 3.6416,-3.819266 0.6575,-1.757323 0.77098,-4.937175 0.16793,-4.705765 -0.20515,0.07872 -0.45011,0.461938 -0.54436,0.851593 -0.30259,1.250968 -1.90702,3.379729 -3.18555,4.226592 -1.71477,1.135816 -3.63057,1.718976 -5.74425,1.748517 -1.05069,0.01469 -1.75492,0.133141 -1.70501,0.286795 0.0468,0.143979 0.7142,0.590463 1.48318,0.992188 1.56705,0.818637 3.98,0.990534 5.88646,0.419346 z M 36.159906,63.47541 c 3.628792,-0.789286 6.52803,-2.134463 9.221298,-4.278456 1.050869,-0.836551 1.869662,-1.562012 1.819537,-1.612135 -0.128942,-0.128945 -5.5108,1.478608 -7.423931,2.217515 -1.434576,0.554075 -1.530318,0.564219 -0.936485,0.09922 0.363802,-0.284872 2.245043,-1.325412 4.180531,-2.312308 l 3.519075,-1.794359 -2.156323,-0.07727 c -1.374177,-0.04924 -2.663158,0.07007 -3.553634,0.328938 -2.156654,0.626957 -4.976943,2.81989 -7.332536,5.701459 -1.130107,1.382448 -2.057152,2.591695 -2.060094,2.687214 -0.0029,0.09552 0.381601,0.06585 0.854544,-0.06593 0.472942,-0.131781 2.213551,-0.534033 3.868018,-0.89389 z m 42.047732,-1.175044 c 1.816651,-0.936376 3.291253,-2.888102 3.859406,-5.108149 l 0.35424,-1.384189 -1.309306,-1.177176 C 80.391859,53.983403 79.407654,52.867105 78.924855,52.15019 l -0.877816,-1.303483 -0.571638,1.283467 c -0.565864,1.2705 -0.567171,1.310918 -0.129219,4.00117 0.430284,2.643161 0.340524,4.629692 -0.280686,6.211983 -0.230532,0.587187 -0.06858,0.581094 1.142142,-0.04296 z m 53.094762,0.04296 c -0.59459,-1.385467 -0.73403,-3.336574 -0.39797,-5.568694 0.4643,-3.083981 0.45088,-3.374178 -0.24104,-5.213078 -0.8372,-2.225 -0.68398,-5.157565 0.38707,-7.408333 0.88122,-1.851848 3.11453,-4.201218 5.02424,-5.285359 0.72761,-0.41306 1.8587,-1.255758 2.51354,-1.872665 1.22084,-1.150106 2.55048,-1.918296 4.29948,-2.483982 0.54571,-0.176499 0.99219,-0.417625 0.99219,-0.535834 0,-0.336492 -2.09724,-1.233954 -3.73552,-1.598527 -3.52133,-0.783613 -7.26734,0.465923 -10.30362,3.436928 -1.4882,1.4562 -1.57158,1.605399 -1.57709,2.821799 -0.003,0.706369 -0.21709,1.760556 -0.47531,2.34264 -0.31066,0.700267 -0.4088,1.326883 -0.29008,1.852083 0.0987,0.436563 0.19351,1.966828 0.21073,3.400589 0.0275,2.286659 -0.048,2.757866 -0.6141,3.836459 -0.35498,0.676291 -0.90006,2.07532 -1.2113,3.108952 -0.49051,1.628987 -0.52421,2.034109 -0.25302,3.041221 0.66833,2.482007 2.5708,5.06048 4.47771,6.068767 1.18504,0.626602 1.44383,0.638961 1.19409,0.05703 z m -14.29559,-0.812684 c 2.08462,-0.975511 4.35825,-3.035721 5.73511,-5.196774 0.55285,-0.86773 0.95898,-1.623893 0.90251,-1.680366 -0.0565,-0.05647 -0.49746,0.194762 -0.97996,0.5583 -2.7765,2.091944 -6.56374,1.985378 -11.19602,-0.31504 -1.16417,-0.57813 -2.60753,-1.105214 -3.20748,-1.171297 -0.95246,-0.104912 -1.29671,0.02313 -2.7142,1.009603 -0.89287,0.621366 -1.97958,1.277292 -2.41492,1.457616 -0.93276,0.386363 -0.9507,0.501909 -0.28152,1.813605 1.5145,2.968662 5.30582,4.629631 10.11933,4.433252 1.88763,-0.07701 2.60417,-0.238328 4.03715,-0.908899 z M 64.970698,60.962678 c 0.915016,-0.397822 1.894192,-1.147734 2.85822,-2.189001 0.806516,-0.871133 1.430348,-1.618647 1.386295,-1.661147 -0.04405,-0.0425 -1.330251,-0.200742 -2.85822,-0.35165 -2.209422,-0.218215 -3.13018,-0.198128 -4.497917,0.09812 -3.516522,0.761675 -5.014574,0.416071 -7.189745,-1.658691 l -1.541505,-1.470348 v 1.315747 c 0,2.79377 2.076781,5.283978 5.257316,6.303904 1.747798,0.56048 4.821864,0.379862 6.585556,-0.386937 z m 37.720562,0.356513 c 0.4552,-0.260258 0.44337,-0.323662 -0.20373,-1.092706 -0.37783,-0.449027 -0.92158,-1.346779 -1.20832,-1.995003 l -0.52134,-1.178592 -1.259288,0.240988 C 94.813122,58.190522 89.791333,54.708272 88.561031,49.709472 88.381953,48.981868 87.877636,47.928644 87.440324,47.36897 87.003016,46.8093 86.255065,45.621165 85.778212,44.728672 l -0.867003,-1.622716 -1.064985,1.119532 c -1.273185,1.338397 -1.725525,2.783321 -1.535094,4.903623 0.255254,2.842088 1.940857,5.465625 5.55157,8.64067 3.758496,3.304996 5.730719,4.010166 10.905752,3.899353 1.891768,-0.04051 3.657038,-0.197982 3.922808,-0.349943 z m 47.18203,0.03477 c 3.43647,-1.020522 5.79867,-4.101169 5.34139,-6.965959 -0.0803,-0.502946 -0.24974,-0.413387 -1.57255,0.831123 -2.1643,2.036178 -3.69152,2.387761 -7.19129,1.655516 -1.35909,-0.284361 -2.38621,-0.318198 -4.23323,-0.139462 -1.34131,0.1298 -2.59176,0.239223 -2.77878,0.243166 -0.9272,0.01955 1.64803,2.823885 3.43792,3.743764 2.10711,1.082916 4.69167,1.316326 6.99654,0.631852 z m 27.05576,-2.689072 c -1.48683,-3.613693 -2.77494,-5.206834 -5.91431,-7.314819 -1.23543,-0.829556 -1.45314,-0.753007 -0.74626,0.262398 0.28442,0.408561 0.95312,1.516745 1.486,2.46263 l 0.96889,1.719792 -2.38319,-2.509602 c -2.46951,-2.6005 -2.59804,-2.619306 -2.10226,-0.307578 0.61849,2.883929 2.90146,5.122455 7.05581,6.918455 1.27631,0.551767 2.35859,0.96761 2.40507,0.924094 0.0465,-0.04352 -0.2999,-1.013431 -0.76975,-2.15537 z M 100.7911,55.407506 c 1.42906,-0.441654 4.19506,-1.900381 4.19506,-2.212386 0,-0.05383 -0.88757,-0.536543 -1.97238,-1.072687 -2.69974,-1.33428 -4.661126,-3.185705 -5.811987,-5.486138 -0.508031,-1.0155 -1.399592,-2.387013 -1.981247,-3.047804 -0.955813,-1.085861 -1.766901,-2.498008 -2.256187,-3.928139 -0.154035,-0.450226 -0.295579,-0.338315 -1.003927,0.79375 -1.984761,3.171986 -2.643008,7.007638 -1.689156,9.84281 0.781066,2.321591 3.224356,4.621249 5.719051,5.38285 1.192758,0.364135 3.089685,0.256561 4.800773,-0.272256 z M 61.276903,55.29086 c 0.988893,-0.514519 1.805472,-1.441886 2.289336,-2.599938 0.692177,-1.65661 0.538803,-2.019346 -0.450392,-1.065205 -1.065477,1.027721 -1.99684,1.391047 -3.565853,1.391047 -1.295122,0 -3.315944,-0.960186 -3.604739,-1.712778 -0.08524,-0.222139 -0.29437,-0.403889 -0.46473,-0.403889 -0.472615,0 -0.07938,2.638851 0.512,3.435832 0.271481,0.365866 0.779783,0.812284 1.129557,0.992039 0.860134,0.44204 3.275372,0.420471 4.154821,-0.03711 z M 151.2969,55.26124 c 1.14078,-0.589918 2.06716,-2.71026 1.69559,-3.880956 -0.16063,-0.506103 -0.21149,-0.493154 -1.00288,0.255336 -1.20053,1.135467 -1.80979,1.381141 -3.42518,1.381141 -1.45231,0 -2.98257,-0.730591 -3.81189,-1.819921 -0.28954,-0.380307 -0.32759,-0.361095 -0.33505,0.169159 -0.0204,1.450853 1.47785,3.570552 2.902,4.10569 0.81347,0.305666 3.22623,0.178004 3.97741,-0.210449 z M 73.344922,54.615654 c 2.2753,-1.101455 3.501096,-3.662648 3.272301,-6.837196 -0.161753,-2.24431 -1.05188,-4.052345 -2.881892,-5.853718 -1.419556,-1.397342 -1.952996,-1.669953 -1.722697,-0.880372 0.625546,2.144683 0.107966,7.718311 -0.945047,10.17687 -0.481126,1.123328 -2.152899,2.946053 -3.534339,3.853471 -0.431741,0.283596 -0.103558,0.321818 2.034167,0.236913 1.953253,-0.07758 2.836082,-0.240231 3.777507,-0.695968 z m 47.169528,0.106151 c 1.29152,-0.523042 3.20565,-2.420594 4.62329,-4.583261 1.41578,-2.159823 1.52814,-2.841874 1.00216,-6.083422 -0.58476,-3.603831 -2.66533,-6.076963 -5.93144,-7.050592 -1.04296,-0.310905 -1.05418,-0.306538 -1.77762,0.692141 l -0.72803,1.005023 0.71514,1.535139 c 0.55833,1.198549 0.73548,2.028237 0.80796,3.784097 0.11973,2.900971 -0.51069,4.702054 -2.35041,6.715004 -1.22355,1.33876 -1.90978,1.7985 -3.82352,2.561555 l -0.78978,0.314902 1.40333,0.652203 c 2.38547,1.108652 4.83635,1.272265 6.84892,0.457211 z m 18.94518,-0.771745 c -0.90682,-0.820623 -1.8458,-1.970788 -2.16729,-2.65472 -0.83137,-1.768676 -1.52421,-7.094316 -1.18767,-9.129253 0.14415,-0.871606 0.20864,-1.58474 0.14331,-1.58474 -0.0653,0 -0.62167,0.41208 -1.23631,0.915733 -2.38286,1.952578 -3.8101,5.404022 -3.31476,8.015971 0.81706,4.308316 2.72009,5.788543 7.53173,5.858386 l 1.83103,0.02658 z M 51.591258,53.479785 c 0.06159,-0.851321 -0.122211,-1.520656 -0.756655,-2.755371 -1.395204,-2.715258 -1.411693,-5.638316 -0.04265,-7.560953 0.420598,-0.590675 0.444556,-0.730031 0.125503,-0.730031 -0.661581,0 -2.64494,1.681835 -3.290708,2.790431 -0.529122,0.908346 -0.596797,1.327838 -0.51416,3.187065 0.113062,2.543792 0.895816,4.1523 2.633046,5.410743 1.464252,1.060698 1.747952,1.008147 1.845628,-0.341884 z m 14.710839,0.440822 c 2.459786,-1.225762 4.023646,-3.574442 4.023646,-6.042898 0,-2.703727 -1.203047,-4.693783 -3.523991,-5.829316 -1.52682,-0.747004 -4.2432,-1.127993 -5.868466,-0.823093 l -0.988529,0.185449 2.116276,1.55334 c 2.87153,2.107695 3.369918,3.105288 3.369918,6.745383 0,2.16829 -0.101457,2.84879 -0.562118,3.770313 -0.6654,1.331087 -0.472392,1.390451 1.433264,0.440822 z m 77.438193,0.220636 c -0.83694,-1.974736 -0.96357,-2.704629 -0.86067,-4.960938 0.15875,-3.48135 0.5646,-4.155514 4.05235,-6.731473 1.19866,-0.885299 1.21568,-0.91729 0.61181,-1.149573 -0.9789,-0.376536 -4.27174,-0.03112 -5.69251,0.597133 -2.57638,1.139256 -3.77659,2.968564 -3.78638,5.771058 -0.003,0.914373 0.17855,2.104689 0.40398,2.645833 0.57285,1.3751 2.12971,2.91818 3.69125,3.658563 1.58473,0.751388 1.83835,0.778574 1.58017,0.169397 z m 14.76266,-0.264583 c 1.9507,-1.480072 2.83946,-3.320093 2.83946,-5.878629 0,-1.910303 -0.80604,-3.520015 -2.35583,-4.704705 -1.63121,-1.246942 -1.92448,-1.118322 -1.12653,0.494054 1.08644,2.195288 0.77324,5.501323 -0.71981,7.598116 -0.39482,0.554475 -0.47745,0.996104 -0.36803,1.966894 0.0804,0.713579 0.27669,1.251874 0.45644,1.251874 0.17343,0 0.74686,-0.327422 1.2743,-0.727604 z m 29.1655,-2.077591 c -1.01864,-0.929322 -2.68552,-2.136846 -3.70416,-2.683388 -1.7478,-0.937758 -1.98617,-0.993709 -4.23334,-0.993709 -1.30968,0 -2.73561,0.09833 -3.16873,0.218506 -0.7138,0.198062 -0.47134,0.324176 2.59139,1.347849 1.85838,0.621138 3.51231,1.262776 3.67539,1.42586 0.21897,0.218972 0.0494,0.228293 -0.6483,0.03564 -1.30371,-0.359973 -6.3989,-1.282078 -6.50462,-1.177179 -0.17152,0.170196 3.35097,1.999679 4.82987,2.508494 1.95381,0.672211 8.37085,1.468599 8.8823,1.102342 0.0728,-0.0521 -0.70115,-0.855094 -1.7198,-1.784417 z m -106.273794,0.0019 c -0.433155,-0.970505 -0.582753,-1.831295 -0.593373,-3.414326 -0.01251,-1.863632 0.08007,-2.289696 0.774398,-3.56407 0.458489,-0.841507 1.252715,-1.78294 1.897301,-2.248958 0.735907,-0.53204 1.05573,-0.935001 0.951169,-1.198431 -0.08664,-0.218281 -0.212101,-1.617265 -0.278807,-3.108854 -0.06671,-1.491588 -0.180412,-2.711979 -0.252677,-2.711979 -0.07227,0 -0.841719,0.3786 -1.709897,0.841333 -2.991085,1.594194 -4.18411,3.736192 -4.18411,7.512264 0,3.279005 1.218208,6.571301 3.247681,8.777092 0.774692,0.841994 0.814036,0.607465 0.148315,-0.88411 z m 31.334904,0.0054 c 1.61451,-0.550122 3.49068,-2.235571 4.35939,-3.916244 0.57156,-1.105786 0.70211,-1.721183 0.70855,-3.339928 0.007,-1.685949 -0.116,-2.24301 -0.81589,-3.704167 -0.45307,-0.945885 -1.17789,-2.132515 -1.6107,-2.636956 l -0.78693,-0.917168 -0.39631,0.784876 c -0.21797,0.431681 -0.4685,1.499248 -0.55674,2.372373 -0.2536,2.50942 -0.91187,4.066257 -2.31083,5.465213 -1.48501,1.485019 -3.54186,2.226617 -5.51254,1.987547 -3.37729,-0.409707 -5.11637,-0.724535 -5.968098,-1.080413 -0.51629,-0.21577 -0.93872,-0.287218 -0.93872,-0.158824 0,0.454374 2.533598,2.826504 3.837268,3.592714 3.1647,1.86 7.23171,2.491298 9.99155,1.550927 z m 43.46109,-1.824085 c 1.41158,-2.885163 1.01208,-5.584831 -1.06037,-7.165565 -1.13717,-0.867358 -3.43876,-1.175097 -4.76808,-0.637527 l -0.79375,0.320987 0.66317,0.191146 c 2.31492,0.667223 3.4052,2.021019 3.56195,4.422867 0.0552,0.845376 0.22842,1.872219 0.38499,2.281876 0.15658,0.409654 0.28468,1.231781 0.28468,1.826945 0,1.066093 0.008,1.07501 0.53025,0.602247 0.29164,-0.263927 0.83036,-1.093269 1.19716,-1.842976 z M 39.211845,51.417905 c 1.414751,-0.43697 2.08066,-0.849722 3.474564,-2.153653 0.948413,-0.887193 1.689632,-1.647833 1.647156,-1.690309 -0.04248,-0.04248 -1.266066,0.326395 -2.719089,0.819714 -1.453023,0.493318 -2.757649,0.901904 -2.899169,0.907965 -0.415256,0.01781 0.645602,-0.645943 2.721996,-1.703041 1.064538,-0.541959 1.87973,-1.04117 1.811539,-1.109361 -0.269372,-0.269372 -4.730443,0.694756 -6.050039,1.307537 -0.770652,0.357867 -2.353686,1.351359 -3.517853,2.20776 l -2.116667,1.557089 0.926042,0.163607 c 2.07446,0.366504 4.968341,0.234196 6.72152,-0.307308 z m 14.751993,-0.978241 c 0.123047,-0.692621 0.33914,-2.062451 0.480203,-3.044071 0.408715,-2.844115 1.184235,-3.939908 3.226374,-4.558803 l 1.145953,-0.347297 -0.744829,-0.29259 c -1.039715,-0.408429 -3.243823,-0.365032 -4.096957,0.08066 -2.988344,1.561184 -3.547102,5.024083 -1.365681,8.463828 0.445831,0.703 0.88274,1.206047 0.970907,1.11788 0.08817,-0.08817 0.260983,-0.726993 0.38403,-1.419611 z m 7.08311,0.866862 c 0.746612,-0.386088 2.249099,-1.968018 2.054252,-2.162865 -0.0564,-0.0564 -0.533718,0.07761 -1.06071,0.297804 -1.687441,0.705059 -3.957624,0.341746 -5.266581,-0.842841 -0.709594,-0.642173 -0.783725,-0.311047 -0.196213,0.876422 0.558234,1.128289 2.068635,2.202355 3.111707,2.212774 0.334647,0.0033 0.945544,-0.168241 1.357545,-0.381294 z m 88.900002,0 c 0.99147,-0.512712 2.13504,-1.896941 2.13504,-2.584352 0,-0.511223 -0.0332,-0.519803 -0.4727,-0.122084 -1.38875,1.2568 -3.70606,1.555081 -5.55652,0.71523 l -1.13442,-0.514874 0.47297,0.810514 c 1.0472,1.794568 2.97597,2.512438 4.55563,1.695566 z M 61.025845,48.228379 c 1.091994,-0.380669 1.051962,-0.703476 -0.149495,-1.205476 -0.919705,-0.384278 -2.794963,-0.370811 -3.188674,0.02291 -0.253912,0.253913 0.319448,0.689811 1.426292,1.084345 0.563925,0.201009 1.037315,0.3707 1.051981,0.377087 0.01466,0.0064 0.401616,-0.119097 0.859896,-0.278855 z m 89.005625,-0.414916 c 0.88304,-0.444842 0.92655,-0.767086 0.13229,-0.979935 -1.022,-0.273886 -2.06818,-0.183211 -3.00272,0.260257 -1.1259,0.534276 -1.13588,0.81442 -0.04,1.122506 0.95355,0.268073 1.81543,0.14878 2.91041,-0.402828 z m 19.50417,-1.589956 c 0.7955,-0.219223 1.9345,-0.655659 2.5311,-0.969854 1.35954,-0.715981 4.86641,-3.156484 4.87768,-3.394477 0.0141,-0.297556 -3.405,-0.563327 -5.12192,-0.398132 -2.61624,0.251725 -4.00339,0.871979 -5.88359,2.630805 -0.93516,0.874805 -1.66133,1.629532 -1.61369,1.677167 0.0476,0.04764 1.31624,-0.330787 2.81913,-0.840943 1.50288,-0.510157 2.78884,-0.871228 2.85768,-0.802381 0.1154,0.115398 -2.25369,1.424358 -3.96326,2.189766 -0.40019,0.179168 -0.72761,0.395139 -0.72761,0.479938 0,0.23086 2.57793,-0.118126 4.22448,-0.571889 z M 63.446576,46.422532 c 0,-0.134326 -0.343355,-0.587587 -0.763013,-1.007242 -0.754819,-0.754822 -2.33416,-1.39436 -3.44337,-1.39436 -0.932336,0 -2.341803,0.704472 -2.682266,1.340636 -0.283668,0.530037 -0.265211,0.570267 0.177141,0.386128 1.902018,-0.791769 4.133435,-0.681165 5.469228,0.271087 0.938446,0.668991 1.24228,0.767741 1.24228,0.403751 z m 84.407054,-1.10926 c 0.97597,-0.219284 2.53868,-0.03204 3.81269,0.456848 0.8446,0.324104 -0.13429,-0.905013 -1.07707,-1.352392 -1.50425,-0.713814 -3.66899,-0.302857 -4.90255,0.930709 -1.03122,1.031219 -0.93828,1.412481 0.18303,0.750888 0.51232,-0.302276 1.40508,-0.656 1.9839,-0.786053 z m -38.27399,0.113593 c 1.62581,-1.142666 2.41926,-2.90803 2.4125,-5.367623 -0.004,-1.45751 -0.15562,-2.31934 -0.5655,-3.214448 -1.26114,-2.754135 -3.89147,-4.575274 -6.37421,-4.413263 l -1.22632,0.08002 1.7517,1.792902 c 2.11048,2.160118 2.72211,3.62777 2.67098,6.409181 -0.0366,1.991019 -0.52217,3.647179 -1.45232,4.953461 l -0.58208,0.817457 1.14955,-0.154186 c 0.63225,-0.08481 1.62932,-0.491382 2.2157,-0.903505 z M 88.577943,44.727516 c 0.0079,-0.939316 1.406488,-4.0371 2.681864,-5.939989 0.979109,-1.460857 1.290937,-2.168388 1.290937,-2.929119 0,-1.224112 1.198195,-3.662816 2.131965,-4.339225 0.372218,-0.269628 1.146124,-0.650835 1.719791,-0.847127 0.921407,-0.315277 1.0525,-0.466086 1.124202,-1.293277 0.12015,-1.386109 -0.785773,-1.894308 -3.376822,-1.894308 -1.577364,0 -2.269204,0.134458 -3.298531,0.641062 -3.701225,1.821633 -5.922127,6.76414 -5.188763,11.54733 0.332518,2.168768 2.300486,6.503054 2.680372,5.903291 0.127014,-0.200531 0.232757,-0.582417 0.234985,-0.848638 z m 16.093427,0.787553 c 0.58687,-0.325662 1.63234,-1.666888 1.63596,-2.098759 0.001,-0.114261 -0.2485,-0.07382 -0.55435,0.08986 -0.55541,0.297244 -2.51011,0.222854 -3.58383,-0.136395 -0.50339,-0.168423 -0.58867,-0.068 -0.74922,0.882295 -0.0996,0.589794 -0.10488,1.195785 -0.0116,1.346645 0.23735,0.384032 2.52602,0.325361 3.26309,-0.08365 z M 32.337801,44.894778 c 0.362352,-0.202782 0.08408,-0.356103 -1.349129,-0.743342 -1.973541,-0.533231 -4.839026,-1.628635 -5.222715,-1.996514 -0.133142,-0.127656 0.224046,-0.10296 0.79375,0.05488 1.354652,0.375311 6.301204,1.264155 6.413009,1.152353 0.173247,-0.173246 -3.352996,-2.001859 -4.860463,-2.520506 -1.951083,-0.671269 -8.851095,-1.459309 -8.851095,-1.010869 0,0.09861 0.797677,0.899218 1.772616,1.779137 1.672694,1.509665 4.033465,2.983276 5.597312,3.493876 0.880213,0.287394 5.09557,0.133004 5.706715,-0.209012 z M 98.617042,43.06385 c -0.501875,-2.149179 -0.404863,-5.353135 0.20374,-6.728992 0.5717,-1.292421 1.853488,-2.536475 2.878478,-2.79373 0.92001,-0.230909 0.79728,-0.509873 -0.5008,-1.138262 -2.407828,-1.165611 -5.586934,-0.378356 -6.611541,1.637244 -0.994698,1.95676 -0.51317,5.401999 1.075965,7.698328 0.67442,0.974548 2.94435,2.928779 3.156038,2.717094 0.0549,-0.05489 -0.036,-0.681146 -0.20188,-1.391682 z M 70.474905,41.261678 c -0.896356,-3.083354 -3.518115,-5.111979 -7.378306,-5.709076 -4.190323,-0.648161 -7.465103,0.883272 -9.212314,4.308089 -0.507246,0.994285 -0.510598,1.047033 -0.0535,0.841621 0.268216,-0.120531 1.321101,-0.253646 2.339747,-0.295807 1.018646,-0.04216 2.795215,-0.273542 3.94793,-0.514173 3.767159,-0.786405 7.851937,0.28249 9.746631,2.55048 1.028269,1.230861 1.209149,0.88052 0.60981,-1.181134 z m 71.108925,-0.90456 c 2.18601,-0.817894 4.43881,-0.96384 6.794,-0.440148 1.0914,0.242681 2.64691,0.426469 3.45668,0.408416 0.80977,-0.01804 1.80009,0.09181 2.20073,0.244123 0.68154,0.259123 0.7166,0.23862 0.54483,-0.318629 -0.51903,-1.68383 -2.76674,-3.790161 -4.74703,-4.448454 -1.54768,-0.514482 -4.70842,-0.382231 -6.85337,0.286757 -2.4038,0.749719 -4.39994,2.64057 -5.03102,4.765645 -0.74407,2.505573 -0.60239,2.71667 0.87051,1.296985 0.7947,-0.76599 1.8552,-1.45442 2.76467,-1.794695 z M 37.977942,41.073265 c -2.222563,-3.529986 -2.186829,-3.637147 0.340485,-1.021085 l 2.428272,2.513542 -0.181304,-1.322917 c -0.366537,-2.674535 -1.542409,-4.459815 -4.0211,-6.105077 -1.428303,-0.948053 -5.64147,-2.891551 -5.64147,-2.602361 0,0.554491 2.077273,4.974453 2.801689,5.961351 0.986152,1.343478 4.766001,4.394716 5.068901,4.091816 0.05352,-0.05352 -0.304443,-0.735391 -0.795473,-1.515269 z m 62.776688,0.367978 c 0.62191,-1.406433 1.62648,-2.573192 2.69704,-3.132477 0.90559,-0.473101 1.47707,-0.468942 2.40977,0.01754 0.71788,0.374441 0.73698,0.367684 0.56514,-0.200067 -0.72674,-2.401198 -2.73021,-3.718322 -4.51903,-2.970906 -1.65336,0.690819 -2.451628,3.027532 -2.072068,6.065412 0.10151,0.812498 0.224808,1.477266 0.273988,1.477266 0.0492,0 0.33951,-0.565546 0.64516,-1.25677 z M 77.548069,38.827127 c 0.237257,-0.455498 0.731608,-1.184981 1.098556,-1.621075 l 0.667178,-0.792898 -1.326086,-1.240398 c -2.593234,-2.425667 -6.149311,-3.476575 -9.520079,-2.813418 -1.852261,0.364411 -3.962729,1.204556 -3.962729,1.577504 0,0.139406 0.446485,0.397875 0.992188,0.574374 1.686007,0.545312 3.000846,1.309729 4.270915,2.483011 0.670555,0.619455 1.806329,1.465812 2.523945,1.880798 0.717616,0.414983 1.908241,1.363237 2.645834,2.107232 l 1.341077,1.352716 0.418912,-1.339834 c 0.230402,-0.736909 0.613032,-1.712513 0.850289,-2.168012 z m 27.697321,3.1807 c 0.58503,-0.234083 1.06324,-0.501973 1.0627,-0.595313 -0.003,-0.522578 -1.12215,-1.889501 -1.54694,-1.889501 -0.58912,0 -1.78134,0.886984 -2.17109,1.61525 -0.23722,0.443246 -0.15316,0.569283 0.59698,0.895167 0.48019,0.208608 0.90043,0.383948 0.93387,0.389644 0.0334,0.0057 0.53945,-0.181165 1.12448,-0.415247 z m 52.12827,-3.148865 c 0,-3.555282 -1.0518,-5.907145 -3.0781,-6.882723 -1.18091,-0.568556 -3.20028,-0.624799 -4.74232,-0.132082 -1.09665,0.350405 -3.2908,1.609842 -3.29161,1.889374 -2.6e-4,0.09 0.86925,0.219458 1.93224,0.287677 3.3474,0.214823 5.99342,2.039195 7.59593,5.237222 1.07357,2.142472 1.58386,2.013773 1.58386,-0.399468 z m -104.789704,0.32458 c 1.408129,-2.996096 4.274942,-4.934228 7.63047,-5.158636 1.816714,-0.121496 1.903151,-0.15549 1.507366,-0.592827 -0.845214,-0.933951 -3.548753,-1.912743 -5.329497,-1.929496 -1.449814,-0.01364 -1.832571,0.09192 -2.802536,0.77292 -1.78861,1.255756 -2.410402,2.66019 -2.535169,5.726156 -0.09694,2.382129 -0.06716,2.578857 0.388816,2.568842 0.331039,-0.0073 0.706967,-0.464412 1.14055,-1.386959 z M 126.66211,36.90053 c -0.44496,-2.814843 -2.35257,-5.415933 -4.88704,-6.663647 -0.94494,-0.465195 -1.77204,-0.79185 -1.83799,-0.7259 -0.066,0.06595 0.009,0.587126 0.16677,1.158168 0.26585,0.962826 0.16319,3.26328 -0.18627,4.173943 -0.10979,0.286121 0.20979,0.511856 1.18169,0.834669 1.63268,0.542287 3.61585,1.975998 4.66521,3.372644 l 0.78522,1.045101 0.15787,-0.954368 c 0.0868,-0.524904 0.0664,-1.533178 -0.0455,-2.24061 z m 40.3794,0.359767 c 2.02532,-0.52739 3.41174,-1.350593 5.44613,-3.233696 1.43859,-1.331615 4.54827,-5.092037 4.36358,-5.276726 -0.0375,-0.03752 -1.66712,0.276211 -3.62133,0.697184 -3.90127,0.840407 -5.77854,1.496561 -7.78644,2.721555 -1.46674,0.894844 -4.36309,3.161706 -4.36464,3.416033 -0.001,0.217113 5.76891,-1.485404 7.71639,-2.276737 0.84868,-0.344846 1.54304,-0.589371 1.54304,-0.54339 0,0.190866 -3.93729,2.40252 -6.14355,3.450948 -1.3081,0.621622 -2.21552,1.193077 -2.01886,1.271407 0.73285,0.291902 3.34099,0.17045 4.86568,-0.226578 z M 118.0111,35.421972 c 0.3235,-0.624649 0.59651,-1.763071 0.66625,-2.778126 0.10406,-1.514744 0.0268,-1.893134 -0.64809,-3.173665 -0.4881,-0.926107 -1.1814,-1.742496 -1.90988,-2.248959 -0.629,-0.437296 -1.82824,-1.479649 -2.66499,-2.31634 -2.05514,-2.055003 -3.51089,-2.686644 -6.22484,-2.700917 -1.87994,-0.0099 -2.32534,0.08883 -3.90129,0.864669 -2.41711,1.189941 -3.824978,3.180779 -4.292168,6.069483 -0.23696,1.465142 0.0762,1.468649 2.973648,0.03331 6.5201,-3.229904 12.06703,-1.114905 12.67574,4.833157 0.15337,1.498675 0.27579,1.773833 1.12338,2.524898 1.07736,0.954665 1.1543,0.915972 2.20224,-1.107508 z m -5.43654,-3.409571 c -1.3768,-3.007314 -4.97636,-3.644994 -9.52636,-1.687638 -1.51732,0.652737 -1.15554,1.150172 0.50339,0.692121 3.00465,-0.829624 6.91676,1.061893 8.7914,4.250665 l 0.71296,1.212756 0.0797,-1.534052 c 0.0614,-1.18151 -0.0675,-1.855741 -0.56112,-2.933852 z m -30.342567,-0.03662 c 0,-0.363991 -2.015408,-4.10625 -2.818606,-5.233657 -0.669692,-0.940015 -0.770207,-1.198913 -0.38554,-0.993045 0.656929,0.351578 3.942749,4.102998 4.321111,4.933413 0.155832,0.342013 0.384982,0.559018 0.509226,0.482233 0.321212,-0.198521 0.280323,-3.369147 -0.05492,-4.258344 -0.33241,-0.881686 -1.643095,-2.297893 -2.778512,-3.002207 -0.791591,-0.491035 -6.730262,-1.89954 -6.730262,-1.596252 0,0.53545 1.939539,4.943228 2.590279,5.88664 0.992918,1.439491 1.404715,1.805396 3.347281,2.974263 1.509578,0.908332 1.99994,1.106188 1.99994,0.806956 z"
       id="path860"
       sodipodi:nodetypes="csssssssssssscscssssssssscsscsssssscsssssssssssssscsssscssssssssssssscssssssscscsscsssssssssssssscssssssssscsscssscssssssssssscsscssssssssssscscsssssssscscssssssssssssssscsssssscsssssssscsssssscssscsssssssssscsssssssssssssssscccsscsccssccsssssssssssssssssscsssssssssssssssssssssssscssscssssscsscssssssssssssssscsscssssssssssssssssssssssscssssssscsssscssssssssssssssssscsssssssssssssssssssssssssssssssssssssssssssssscsssscssssssssscsssssssssssssscssssssssscssssssssssssssssssssssscsssssscsscccscsscsssscssccssscsssscssssscsssscssssscscssssssssscssscscssssssssssssssssssssssssssssssssssssssssssscssscssscssssssssscccssccccssssssssssscsssssscssssssssssssssssssssscssssssssscssssssscssssssscssscsssssssssssssssssscscsccsssccccssssscssssssssssssscsssscssscsccssssssssssss" />
  </g>
</svg>
