<svg width="799.364" height="591.824" viewBox="0 0 211.499 156.587" xmlns="http://www.w3.org/2000/svg"><path style="fill:#e6e6e6;stroke-width:1" d="M25.532 39.641c-2.508-.1-4.476-.302-4.828-.494-.52-.282-.595-.533-.593-1.968.004-2.778 1.682-5.62 4.033-6.832 2.199-1.133 9.82-1.371 11.925-.373.534.254 1.615 1.157 2.403 2.008 1.62 1.75 2.01 2.927 2.01 6.08V39.9l-5.359-.045a366.38 366.38 0 0 1-9.59-.215zm49.183-1.659c.081-1.055.221-3.049.312-4.431.09-1.383.314-2.871.499-3.308.184-.436 1.095-1.537 2.025-2.446l1.692-1.652 21.299.001h21.299l1.685 1.629c.926.895 1.84 2 2.03 2.455.19.454.417 2.012.505 3.462.087 1.45.223 3.44.3 4.423l.142 1.786H74.567l.148-1.919z" transform="translate(5.275 -26.145)"/></svg>