<svg xmlns="http://www.w3.org/2000/svg" width="799.364" height="591.824" viewBox="0 0 211.499 156.587"><path d="M-2.707 75.42c-2.571-2.607-3.184-4.985-1.961-7.611.813-1.746 2.95-3.67 4.517-4.064 1.328-.334 1.305-.287 2.145-4.341.711-3.427 2.183-5.993 5.13-8.943 3.047-3.05 5.798-4.601 8.889-5.011 3.654-.485 39.35-.786 92.73-.782 29.905.003 59.29.12 65.3.26 10.57.247 10.989.277 12.789.903 3.798 1.32 7.46 4.231 9.782 7.773 1.495 2.281 2.176 3.995 2.715 6.833.55 2.897.598 2.98 1.925 3.313 1.416.357 3.576 2.209 4.397 3.77.416.79.572 1.558.573 2.808.001 2.114-.443 3.039-2.448 5.093l-1.485 1.521h-60.157l-2.184-1.764c-7.288-5.883-17.293-10.605-26.893-12.692-2.725-.592-3.957-.696-9.668-.816-9.359-.197-14.841.464-21.49 2.59-7.91 2.528-13.32 5.337-20.164 10.467l-2.957 2.215H-1.207Z" style="fill:#fff;stroke-width:1" transform="translate(5.275 -26.145)"/></svg>