<svg width="621.053" height="621.053" viewBox="0 0 164.32 164.32" xmlns="http://www.w3.org/2000/svg"><path style="fill:#efe9a3;fill-opacity:.76867;stroke:none;stroke-width:42.5;stroke-linecap:round;stroke-linejoin:round;stop-color:#000" d="M35.74 121.46c-8.267 11.654 77.097 117.55 66.097 126.667-11.001 9.117-99.206-94.426-112.192-88.467-12.985 5.96 7.994 140.35-6.091 142.745-14.085 2.395-38.701-131.378-52.927-132.71-14.225-1.332-63.252 125.544-76.648 120.575-13.395-4.968 32.173-133.127 20.52-141.394-11.654-8.266-117.55 77.098-126.667 66.098-9.117-11.001 94.426-99.206 88.467-112.192-5.959-12.985-140.35 7.994-142.745-6.09-2.395-14.086 131.378-38.702 132.71-52.928 1.333-14.225-125.543-63.252-120.575-76.648 4.969-13.395 133.128 32.173 141.394 20.52 8.266-11.654-77.098-117.55-66.097-126.667 11-9.117 99.205 94.426 112.19 88.467 12.986-5.959-7.993-140.35 6.092-142.745 14.086-2.395 38.702 131.378 52.927 132.71 14.225 1.333 63.252-125.543 76.648-120.575C42.239-176.205-3.33-48.046 8.323-39.78c11.654 8.267 117.55-77.098 126.667-66.097 9.117 11-94.426 99.205-88.467 112.191 5.959 12.986 140.35-7.994 142.745 6.091 2.395 14.086-131.378 38.702-132.71 52.927-1.332 14.225 125.544 63.252 120.575 76.648-4.968 13.396-133.127-32.173-141.394-20.52Z" transform="matrix(.33144 0 0 .33144 101.579 64.08)"/></svg>