<svg xmlns="http://www.w3.org/2000/svg" width="799.364" height="591.824" viewBox="0 0 211.499 156.587"><path style="opacity:1;vector-effect:none;fill:#fff;fill-opacity:1;stroke:none;stroke-width:5.15905523;stroke-linecap:butt;stroke-linejoin:miter;stroke-miterlimit:4;stroke-dasharray:none;stroke-dashoffset:0;stroke-opacity:1" d="M400.572 231.824A140.714 140.714 0 0 0 259.857 372.54a140.714 140.714 0 0 0 140.715 140.715 140.714 140.714 0 0 0 140.713-140.715 140.714 140.714 0 0 0-140.713-140.715zm-6.342 40.211c5.36.013 5.706 1.951 5.706 10.451v8.252l-3.125.625c-1.72.344-4.532.632-6.25.643-13.618.076-33.134 8.96-46.004 20.941-13.934 12.972-22.5 29.237-26.016 49.4-.85 4.874-2.063 9.486-2.697 10.25-1.37 1.65-12.468 1.878-15.158.311-2.672-1.556-2.234-9.91 1.222-23.314 4.706-18.25 10.186-28.604 23.047-43.547 15.884-18.456 41.733-31.947 64.705-33.77 1.828-.145 3.334-.245 4.57-.242z" transform="scale(.26458)"/></svg>