<?xml version="1.0" encoding="UTF-8" standalone="no"?>
<!-- Created with Inkscape (http://www.inkscape.org/) -->

<svg
   width="211.49852mm"
   height="156.58688mm"
   viewBox="0 0 211.49852 156.58688"
   version="1.1"
   id="svg1390"
   inkscape:version="1.1 (c68e22c387, 2021-05-23)"
   sodipodi:docname="camera-outer-ring.svg"
   xmlns:inkscape="http://www.inkscape.org/namespaces/inkscape"
   xmlns:sodipodi="http://sodipodi.sourceforge.net/DTD/sodipodi-0.dtd"
   xmlns="http://www.w3.org/2000/svg"
   xmlns:svg="http://www.w3.org/2000/svg"
   xmlns:rdf="http://www.w3.org/1999/02/22-rdf-syntax-ns#"
   xmlns:cc="http://creativecommons.org/ns#"
   xmlns:dc="http://purl.org/dc/elements/1.1/">
  <defs
     id="defs1384" />
  <sodipodi:namedview
     id="base"
     pagecolor="#ffffff"
     bordercolor="#666666"
     borderopacity="1.0"
     inkscape:pageopacity="0.0"
     inkscape:pageshadow="2"
     inkscape:zoom="0.98994949"
     inkscape:cx="380.32243"
     inkscape:cy="259.10413"
     inkscape:document-units="mm"
     inkscape:current-layer="layer1"
     showgrid="false"
     fit-margin-top="0"
     fit-margin-left="0"
     fit-margin-right="0"
     fit-margin-bottom="0"
     inkscape:window-width="1920"
     inkscape:window-height="1027"
     inkscape:window-x="1072"
     inkscape:window-y="424"
     inkscape:window-maximized="1"
     inkscape:pagecheckerboard="0" />
  <metadata
     id="metadata1387">
    <rdf:RDF>
      <cc:Work
         rdf:about="">
        <dc:format>image/svg+xml</dc:format>
        <dc:type
           rdf:resource="http://purl.org/dc/dcmitype/StillImage" />
      </cc:Work>
    </rdf:RDF>
  </metadata>
  <g
     inkscape:label="Layer 1"
     inkscape:groupmode="layer"
     id="layer1"
     transform="translate(5.2745045,-26.1454)">
    <path
       style="opacity:1;vector-effect:none;fill:#cccccc;fill-opacity:1;stroke:none;stroke-width:5.15905523;stroke-linecap:butt;stroke-linejoin:miter;stroke-miterlimit:4;stroke-dasharray:none;stroke-dashoffset:0;stroke-opacity:1"
       d="M 399.03125 150.4082 A 221.2234 221.2234 0 0 0 177.80664 371.63086 A 221.2234 221.2234 0 0 0 399.03125 592.85547 A 221.2234 221.2234 0 0 0 620.25391 371.63086 A 221.2234 221.2234 0 0 0 399.03125 150.4082 z M 399.03125 215.05859 A 156.57363 156.57363 0 0 1 555.60352 371.63086 A 156.57363 156.57363 0 0 1 399.03125 528.20508 A 156.57363 156.57363 0 0 1 242.45703 371.63086 A 156.57363 156.57363 0 0 1 399.03125 215.05859 z "
       transform="matrix(0.26458333,0,0,0.26458333,-5.2745045,26.1454)"
       id="path1984" />
  </g>
</svg>
