<svg xmlns="http://www.w3.org/2000/svg" width="799.364" height="591.824" viewBox="0 0 211.499 156.587"><path style="fill:#fff;stroke-width:1" d="M22.093 176.41c-8.403-.327-10.853-1.16-14.706-4.992-2.492-2.479-4.048-4.857-5.173-7.905-.544-1.472-.638-1.998-.4-2.236.17-.17 1.171-.396 2.224-.502 2.452-.246 23.599-.276 35.152-.05l8.895.174 1.82 2.399c2.228 2.934 7.906 8.705 10.95 11.128 1.236.984 2.288 1.897 2.336 2.027.105.281-33.68.246-41.098-.043zm115.755.072c0-.114.599-.655 1.33-1.201 3.721-2.778 10.756-9.905 12.494-12.659.458-.723 1.126-1.381 1.614-1.587.672-.284 5.16-.352 23.059-.352 12.224 0 22.427.083 22.675.185.419.173.413.316-.085 2.115-1.618 5.837-6.952 11.296-12.536 12.83-.769.21-3.873.467-7.408.612-7.375.303-41.143.35-41.143.057z" transform="translate(5.275 -26.145)"/></svg>