<svg xmlns="http://www.w3.org/2000/svg" width="799.364" height="591.824" viewBox="0 0 211.499 156.587"><path d="M1.521 155.37c-.109-.11-.198-16.62-.198-36.69V82.19l24.937.114c13.715.063 25.205.206 25.532.318.328.111.596.314.596.45 0 .135-.886 1.415-1.968 2.843-4.248 5.61-7.177 10.934-9.643 17.526-2.997 8.015-3.3 10.19-3.14 22.596.127 9.862.317 11.715 1.697 16.522.65 2.263 2.475 6.963 4.082 10.512.477 1.053.776 2.005.664 2.117-.264.264-42.298.444-42.559.182z" style="fill:#fff;stroke-width:1" transform="translate(5.275 -26.145)"/></svg>