<svg xmlns="http://www.w3.org/2000/svg" width="799.364" height="591.824" viewBox="0 0 211.499 156.587"><path style="fill:#fff;stroke-width:1" d="M150.819 154.561c-104.062 18.78-52.031 9.39 0 0zm9.722.714c-1.707-.09-3.22-.28-3.363-.424-.17-.17.107-1.082.8-2.638 2.872-6.446 4.511-11.704 5.153-16.527.522-3.915.519-18.795-.004-22.231-1.212-7.974-5.592-17.736-12.082-26.93-2.466-3.494-2.529-3.623-1.901-3.92.263-.126 11.76-.267 25.548-.315l25.07-.088-.066 36.595-.068 36.594-17.991.024c-9.896.013-19.388-.05-21.095-.14z" transform="translate(5.275 -26.145)"/></svg>