<?xml version="1.0" encoding="UTF-8" standalone="no"?>
<!-- Created with Inkscape (http://www.inkscape.org/) -->

<svg
   xmlns:dc="http://purl.org/dc/elements/1.1/"
   xmlns:cc="http://creativecommons.org/ns#"
   xmlns:rdf="http://www.w3.org/1999/02/22-rdf-syntax-ns#"
   xmlns:svg="http://www.w3.org/2000/svg"
   xmlns="http://www.w3.org/2000/svg"
   xmlns:sodipodi="http://sodipodi.sourceforge.net/DTD/sodipodi-0.dtd"
   xmlns:inkscape="http://www.inkscape.org/namespaces/inkscape"
   width="211.49852mm"
   height="156.58688mm"
   viewBox="0 0 211.49852 156.58688"
   version="1.1"
   id="svg1390"
   inkscape:version="0.92.4 (5da689c313, 2019-01-14)"
   sodipodi:docname="camera-L1.svg">
  <defs
     id="defs1384" />
  <sodipodi:namedview
     id="base"
     pagecolor="#ffffff"
     bordercolor="#666666"
     borderopacity="1.0"
     inkscape:pageopacity="0.0"
     inkscape:pageshadow="2"
     inkscape:zoom="0.98994949"
     inkscape:cx="380.3296"
     inkscape:cy="282.08049"
     inkscape:document-units="mm"
     inkscape:current-layer="layer1"
     showgrid="false"
     fit-margin-top="0"
     fit-margin-left="0"
     fit-margin-right="0"
     fit-margin-bottom="0"
     inkscape:window-width="1920"
     inkscape:window-height="1017"
     inkscape:window-x="1072"
     inkscape:window-y="394"
     inkscape:window-maximized="1" />
  <metadata
     id="metadata1387">
    <rdf:RDF>
      <cc:Work
         rdf:about="">
        <dc:format>image/svg+xml</dc:format>
        <dc:type
           rdf:resource="http://purl.org/dc/dcmitype/StillImage" />
        <dc:title></dc:title>
      </cc:Work>
    </rdf:RDF>
  </metadata>
  <g
     inkscape:label="Layer 1"
     inkscape:groupmode="layer"
     id="layer1"
     transform="translate(5.2745045,-26.1454)">
    <path
       inkscape:connector-curvature="0"
       id="path1980"
       d="m 1.5213529,155.37032 c -0.10914,-0.10978 -0.19844,-16.62027 -0.19844,-36.68999 v -36.4904 l 24.9369801,0.11428 c 13.71534,0.0628 25.20487,0.2057 25.53229,0.31744 0.32742,0.11174 0.59532,0.31408 0.59532,0.44965 0,0.13557 -0.88526,1.41544 -1.96724,2.84416 -4.24864,5.61019 -7.17734,10.93307 -9.64294,17.52596 -2.99724,8.01446 -3.29944,10.18906 -3.14007,22.59559 0.12668,9.86159 0.31698,11.71458 1.6968,16.52192 0.64952,2.26296 2.47473,6.96296 4.08241,10.51242 0.47667,1.05241 0.77528,2.00491 0.66357,2.11667 -0.26427,0.26439 -42.2980401,0.44444 -42.5586801,0.1823 z"
       style="fill:#ffffff;stroke-width:1"
       sodipodi:nodetypes="csccssssscccc" />
  </g>
</svg>
