<?xml version="1.0" encoding="UTF-8" standalone="no"?>
<!-- Created with Inkscape (http://www.inkscape.org/) -->

<svg
   xmlns:dc="http://purl.org/dc/elements/1.1/"
   xmlns:cc="http://creativecommons.org/ns#"
   xmlns:rdf="http://www.w3.org/1999/02/22-rdf-syntax-ns#"
   xmlns:svg="http://www.w3.org/2000/svg"
   xmlns="http://www.w3.org/2000/svg"
   xmlns:sodipodi="http://sodipodi.sourceforge.net/DTD/sodipodi-0.dtd"
   xmlns:inkscape="http://www.inkscape.org/namespaces/inkscape"
   width="211.49852mm"
   height="156.58688mm"
   viewBox="0 0 211.49852 156.58688"
   version="1.1"
   id="svg1390"
   sodipodi:docname="camera.svg"
   inkscape:version="0.92.4 (5da689c313, 2019-01-14)">
  <defs
     id="defs1384" />
  <sodipodi:namedview
     id="base"
     pagecolor="#ffffff"
     bordercolor="#666666"
     borderopacity="1.0"
     inkscape:pageopacity="0.0"
     inkscape:pageshadow="2"
     inkscape:zoom="0.98994949"
     inkscape:cx="380.3296"
     inkscape:cy="258.63411"
     inkscape:document-units="mm"
     inkscape:current-layer="layer1"
     showgrid="false"
     fit-margin-top="0"
     fit-margin-left="0"
     fit-margin-right="0"
     fit-margin-bottom="0"
     inkscape:window-width="1920"
     inkscape:window-height="1017"
     inkscape:window-x="1072"
     inkscape:window-y="394"
     inkscape:window-maximized="1" />
  <metadata
     id="metadata1387">
    <rdf:RDF>
      <cc:Work
         rdf:about="">
        <dc:format>image/svg+xml</dc:format>
        <dc:type
           rdf:resource="http://purl.org/dc/dcmitype/StillImage" />
        <dc:title></dc:title>
      </cc:Work>
    </rdf:RDF>
  </metadata>
  <g
     inkscape:label="Layer 1"
     inkscape:groupmode="layer"
     id="layer1"
     transform="translate(5.2745045,-26.1454)">
    <path
       style="opacity:1;vector-effect:none;fill:#ffffff;fill-opacity:1;stroke:none;stroke-width:5.15905523;stroke-linecap:butt;stroke-linejoin:miter;stroke-miterlimit:4;stroke-dasharray:none;stroke-dashoffset:0;stroke-opacity:1"
       d="M 400.57227 231.82422 A 140.71429 140.71429 0 0 0 259.85742 372.53906 A 140.71429 140.71429 0 0 0 400.57227 513.25391 A 140.71429 140.71429 0 0 0 541.28516 372.53906 A 140.71429 140.71429 0 0 0 400.57227 231.82422 z M 394.23047 272.03516 C 399.58979 272.04799 399.93555 273.98629 399.93555 282.48633 L 399.93555 290.73828 L 396.81055 291.36328 C 395.09181 291.70707 392.27932 291.99452 390.56055 292.00586 C 376.94332 292.08153 357.42729 300.96545 344.55664 312.94727 C 330.62303 325.91868 322.05632 342.18422 318.54102 362.34766 C 317.69145 367.22087 316.47807 371.83336 315.84375 372.59766 C 314.4745 374.24753 303.37585 374.4752 300.68555 372.9082 C 298.01391 371.35213 298.45198 362.99837 301.9082 349.59375 C 306.6139 331.34328 312.09433 320.9895 324.95508 306.04688 C 340.8393 287.59129 366.68785 274.1004 389.66016 272.27734 C 391.48821 272.13227 392.9937 272.03219 394.23047 272.03516 z "
       transform="matrix(0.26458333,0,0,0.26458333,-5.2745045,26.1454)"
       id="path1994" />
    <path
       inkscape:connector-curvature="0"
       id="path1972"
       d="m -2.7070171,75.42091 c -2.57117,-2.60809 -3.18378,-4.98616 -1.96094,-7.612137 0.81315,-1.746195 2.95037,-3.668893 4.51662996,-4.063283 1.32804004,-0.334404 1.30493004,-0.287634 2.14571004,-4.34163 0.71081,-3.427275 2.18235,-5.992826 5.12921,-8.942501 3.0470701,-3.049977 5.7988001,-4.601351 8.8894101,-5.011682 3.65353,-0.485069 39.34928,-0.785897 92.730747,-0.781492 29.90453,0.0024 59.28932,0.119409 65.29954,0.259868 10.56969,0.247018 10.98865,0.276585 12.78854,0.902526 3.79832,1.320927 7.4609,4.231381 9.78236,7.773514 1.49491,2.280973 2.17589,3.994835 2.71488,6.832724 0.55021,2.896907 0.59817,2.97946 1.92505,3.313573 1.41548,0.35642 3.57553,2.208295 4.39667,3.769381 0.41602,0.790909 0.57259,1.557859 0.57322,2.807909 0.001,2.11476 -0.44336,3.03929 -2.44837,5.09323 l -1.48511,1.52135 h -30.0782 -30.07819 l -2.18461,-1.76382 c -7.28703,-5.88345 -17.29274,-10.605876 -26.89242,-12.692518 -2.72484,-0.592288 -3.95676,-0.69629 -9.6682,-0.816215 -9.358787,-0.196512 -14.840897,0.464103 -21.489197,2.589527 -7.91052,2.528943 -13.32115,5.337496 -20.16517,10.467336 l -2.95609,2.21569 H 28.785633 -1.2071971 Z"
       style="fill:#ffffff;stroke-width:1"
       sodipodi:nodetypes="csscsscsscccccsccccsssccccc" />
    <path
       style="opacity:1;vector-effect:none;fill:#ffffff;fill-opacity:1;stroke:none;stroke-width:5.15905523;stroke-linecap:butt;stroke-linejoin:miter;stroke-miterlimit:4;stroke-dasharray:none;stroke-dashoffset:0;stroke-opacity:1"
       d="M 399.03125 150.4082 A 221.2234 221.2234 0 0 0 177.80664 371.63086 A 221.2234 221.2234 0 0 0 399.03125 592.85547 A 221.2234 221.2234 0 0 0 620.25391 371.63086 A 221.2234 221.2234 0 0 0 399.03125 150.4082 z M 399.03125 215.05859 A 156.57363 156.57363 0 0 1 555.60352 371.63086 A 156.57363 156.57363 0 0 1 399.03125 528.20508 A 156.57363 156.57363 0 0 1 242.45703 371.63086 A 156.57363 156.57363 0 0 1 399.03125 215.05859 z "
       transform="matrix(0.26458333,0,0,0.26458333,-5.2745045,26.1454)"
       id="path1984" />
    <path
       style="fill:#ffffff;stroke-width:1"
       d="m 22.092703,176.40981 c -8.40224,-0.32701 -10.85311,-1.15897 -14.7056601,-4.9919 -2.4916,-2.47891 -4.04798,-4.85708 -5.17313,-7.90464 -0.54359,-1.47234 -0.63794,-1.99865 -0.40081,-2.23578 0.17058,-0.17058 1.17186,-0.39655 2.22508,-0.50216 2.45211,-0.24589 23.5984101,-0.27589 35.1517801,-0.0499 l 8.89517,0.17401 1.82045,2.39831 c 2.22736,2.93438 7.90514,8.70518 10.94858,11.12794 1.23693,0.98467 2.28865,1.89699 2.33715,2.02738 0.10455,0.28103 -33.67983,0.24544 -41.09861,-0.0433 z m 115.755207,0.0723 c 0,-0.11446 0.59884,-0.65518 1.33076,-1.2016 3.72028,-2.77745 10.755,-9.90472 12.49382,-12.65818 0.45703,-0.72372 1.12558,-1.38139 1.61379,-1.5875 0.67126,-0.28341 5.15965,-0.3519 23.0585,-0.3519 12.22376,0 22.42745,0.0833 22.67488,0.18508 0.41933,0.17252 0.41357,0.31606 -0.0849,2.11479 -1.61761,5.83733 -6.95173,11.29651 -12.53582,12.82974 -0.76846,0.21099 -3.87344,0.46782 -7.40834,0.61278 -7.37478,0.30242 -41.14271,0.34903 -41.14271,0.0568 z"
       id="path1978"
       inkscape:connector-curvature="0"
       sodipodi:nodetypes="cscscccsscccccccscccscc" />
    <path
       inkscape:connector-curvature="0"
       id="path1980"
       d="m 1.5213529,155.37032 c -0.10914,-0.10978 -0.19844,-16.62027 -0.19844,-36.68999 v -36.4904 l 24.9369801,0.11428 c 13.71534,0.0628 25.20487,0.2057 25.53229,0.31744 0.32742,0.11174 0.59532,0.31408 0.59532,0.44965 0,0.13557 -0.88526,1.41544 -1.96724,2.84416 -4.24864,5.61019 -7.17734,10.93307 -9.64294,17.52596 -2.99724,8.01446 -3.29944,10.18906 -3.14007,22.59559 0.12668,9.86159 0.31698,11.71458 1.6968,16.52192 0.64952,2.26296 2.47473,6.96296 4.08241,10.51242 0.47667,1.05241 0.77528,2.00491 0.66357,2.11667 -0.26427,0.26439 -42.2980401,0.44444 -42.5586801,0.1823 z"
       style="fill:#ffffff;stroke-width:1"
       sodipodi:nodetypes="csccssssscccc" />
    <path
       style="fill:#ffffff;stroke-width:1"
       d="m 150.81891,154.56116 c -104.062276,18.78075 -52.031138,9.39038 0,0 z m 9.72239,0.71336 c -1.70692,-0.09 -3.22033,-0.28046 -3.36314,-0.42327 -0.16982,-0.16982 0.10691,-1.08251 0.79984,-2.63797 2.87193,-6.44677 4.51125,-11.70422 5.15348,-16.5277 0.52119,-3.91437 0.51825,-18.79448 -0.004,-22.23083 -1.21276,-7.97379 -5.59254,-17.73549 -12.08278,-26.9302 -2.46598,-3.49356 -2.52833,-3.62217 -1.90066,-3.92043 0.26302,-0.12499 11.75982,-0.26652 25.54843,-0.31452 l 25.07021,-0.0873 -0.0671,36.59444 -0.0671,36.59443 -17.99168,0.0235 c -9.89542,0.0129 -19.38823,-0.0502 -21.09515,-0.14015 z"
       id="path1982"
       inkscape:connector-curvature="0"
       sodipodi:nodetypes="cccssccccccccccc" />
    <path
       style="fill:#ffffff;stroke-width:1"
       d="m 25.532293,39.641396 c -2.50848,-0.101259 -4.4759,-0.302668 -4.82865,-0.494319 -0.51932,-0.282144 -0.59498,-0.533337 -0.59273,-1.967768 0.004,-2.778671 1.6821,-5.621015 4.03307,-6.832661 2.19861,-1.13312 9.82038,-1.371032 11.92517,-0.372242 0.53373,0.253269 1.61478,1.156485 2.40235,2.007148 1.62091,1.750776 2.00975,2.92711 2.00975,6.079983 v 1.83906 l -5.35782,-0.04416 c -2.94679,-0.02429 -7.26281,-0.121056 -9.59114,-0.215044 z m 49.18267,-1.659028 c 0.0812,-1.055026 0.22148,-3.049323 0.31176,-4.431771 0.0903,-1.382448 0.31474,-2.870729 0.4988,-3.307292 0.18406,-0.436562 1.09573,-1.537185 2.02592,-2.445828 l 1.69126,-1.652077 21.298957,7.67e-4 21.29896,7.67e-4 1.68505,1.62802 c 0.92677,0.895411 1.84045,1.999963 2.0304,2.454559 0.18994,0.454597 0.41699,2.012896 0.50455,3.462887 0.0876,1.44999 0.2229,3.440018 0.30073,4.422284 l 0.14152,1.785937 H 100.53511 74.567353 l 0.14761,-1.918229 z"
       id="path1946"
       inkscape:connector-curvature="0"
       sodipodi:nodetypes="cccsccscsccccsccccccccccccc" />
  </g>
</svg>
