<?xml version="1.0" encoding="UTF-8" standalone="no"?>
<!-- Created with Inkscape (http://www.inkscape.org/) -->

<svg
   xmlns:dc="http://purl.org/dc/elements/1.1/"
   xmlns:cc="http://creativecommons.org/ns#"
   xmlns:rdf="http://www.w3.org/1999/02/22-rdf-syntax-ns#"
   xmlns:svg="http://www.w3.org/2000/svg"
   xmlns="http://www.w3.org/2000/svg"
   xmlns:sodipodi="http://sodipodi.sourceforge.net/DTD/sodipodi-0.dtd"
   xmlns:inkscape="http://www.inkscape.org/namespaces/inkscape"
   width="211.49852mm"
   height="156.58688mm"
   viewBox="0 0 211.49852 156.58688"
   version="1.1"
   id="svg1390"
   inkscape:version="0.92.4 (5da689c313, 2019-01-14)"
   sodipodi:docname="camera-bottom1.svg">
  <defs
     id="defs1384" />
  <sodipodi:namedview
     id="base"
     pagecolor="#ffffff"
     bordercolor="#666666"
     borderopacity="1.0"
     inkscape:pageopacity="0.0"
     inkscape:pageshadow="2"
     inkscape:zoom="0.98994949"
     inkscape:cx="380.3296"
     inkscape:cy="258.98862"
     inkscape:document-units="mm"
     inkscape:current-layer="layer1"
     showgrid="false"
     fit-margin-top="0"
     fit-margin-left="0"
     fit-margin-right="0"
     fit-margin-bottom="0"
     inkscape:window-width="1920"
     inkscape:window-height="1017"
     inkscape:window-x="1072"
     inkscape:window-y="394"
     inkscape:window-maximized="1" />
  <metadata
     id="metadata1387">
    <rdf:RDF>
      <cc:Work
         rdf:about="">
        <dc:format>image/svg+xml</dc:format>
        <dc:type
           rdf:resource="http://purl.org/dc/dcmitype/StillImage" />
        <dc:title></dc:title>
      </cc:Work>
    </rdf:RDF>
  </metadata>
  <g
     inkscape:label="Layer 1"
     inkscape:groupmode="layer"
     id="layer1"
     transform="translate(5.2745045,-26.1454)">
    <path
       style="fill:#ffffff;stroke-width:1"
       d="m 22.092703,176.40981 c -8.40224,-0.32701 -10.85311,-1.15897 -14.7056601,-4.9919 -2.4916,-2.47891 -4.04798,-4.85708 -5.17313,-7.90464 -0.54359,-1.47234 -0.63794,-1.99865 -0.40081,-2.23578 0.17058,-0.17058 1.17186,-0.39655 2.22508,-0.50216 2.45211,-0.24589 23.5984101,-0.27589 35.1517801,-0.0499 l 8.89517,0.17401 1.82045,2.39831 c 2.22736,2.93438 7.90514,8.70518 10.94858,11.12794 1.23693,0.98467 2.28865,1.89699 2.33715,2.02738 0.10455,0.28103 -33.67983,0.24544 -41.09861,-0.0433 z m 115.755207,0.0723 c 0,-0.11446 0.59884,-0.65518 1.33076,-1.2016 3.72028,-2.77745 10.755,-9.90472 12.49382,-12.65818 0.45703,-0.72372 1.12558,-1.38139 1.61379,-1.5875 0.67126,-0.28341 5.15965,-0.3519 23.0585,-0.3519 12.22376,0 22.42745,0.0833 22.67488,0.18508 0.41933,0.17252 0.41357,0.31606 -0.0849,2.11479 -1.61761,5.83733 -6.95173,11.29651 -12.53582,12.82974 -0.76846,0.21099 -3.87344,0.46782 -7.40834,0.61278 -7.37478,0.30242 -41.14271,0.34903 -41.14271,0.0568 z"
       id="path1978"
       inkscape:connector-curvature="0"
       sodipodi:nodetypes="cscscccsscccccccscccscc" />
  </g>
</svg>
