<?xml version="1.0" encoding="UTF-8" standalone="no"?>
<!-- Created with Inkscape (http://www.inkscape.org/) -->

<svg
   xmlns:dc="http://purl.org/dc/elements/1.1/"
   xmlns:cc="http://creativecommons.org/ns#"
   xmlns:rdf="http://www.w3.org/1999/02/22-rdf-syntax-ns#"
   xmlns:svg="http://www.w3.org/2000/svg"
   xmlns="http://www.w3.org/2000/svg"
   xmlns:sodipodi="http://sodipodi.sourceforge.net/DTD/sodipodi-0.dtd"
   xmlns:inkscape="http://www.inkscape.org/namespaces/inkscape"
   width="211.49852mm"
   height="156.58688mm"
   viewBox="0 0 211.49852 156.58688"
   version="1.1"
   id="svg1390"
   inkscape:version="0.92.4 (5da689c313, 2019-01-14)"
   sodipodi:docname="camera-R1.svg">
  <defs
     id="defs1384" />
  <sodipodi:namedview
     id="base"
     pagecolor="#ffffff"
     bordercolor="#666666"
     borderopacity="1.0"
     inkscape:pageopacity="0.0"
     inkscape:pageshadow="2"
     inkscape:zoom="0.98994949"
     inkscape:cx="380.3296"
     inkscape:cy="282.08049"
     inkscape:document-units="mm"
     inkscape:current-layer="layer1"
     showgrid="false"
     fit-margin-top="0"
     fit-margin-left="0"
     fit-margin-right="0"
     fit-margin-bottom="0"
     inkscape:window-width="1920"
     inkscape:window-height="1017"
     inkscape:window-x="1072"
     inkscape:window-y="394"
     inkscape:window-maximized="1" />
  <metadata
     id="metadata1387">
    <rdf:RDF>
      <cc:Work
         rdf:about="">
        <dc:format>image/svg+xml</dc:format>
        <dc:type
           rdf:resource="http://purl.org/dc/dcmitype/StillImage" />
        <dc:title></dc:title>
      </cc:Work>
    </rdf:RDF>
  </metadata>
  <g
     inkscape:label="Layer 1"
     inkscape:groupmode="layer"
     id="layer1"
     transform="translate(5.2745045,-26.1454)">
    <path
       style="fill:#ffffff;stroke-width:1"
       d="m 150.81891,154.56116 c -104.062276,18.78075 -52.031138,9.39038 0,0 z m 9.72239,0.71336 c -1.70692,-0.09 -3.22033,-0.28046 -3.36314,-0.42327 -0.16982,-0.16982 0.10691,-1.08251 0.79984,-2.63797 2.87193,-6.44677 4.51125,-11.70422 5.15348,-16.5277 0.52119,-3.91437 0.51825,-18.79448 -0.004,-22.23083 -1.21276,-7.97379 -5.59254,-17.73549 -12.08278,-26.9302 -2.46598,-3.49356 -2.52833,-3.62217 -1.90066,-3.92043 0.26302,-0.12499 11.75982,-0.26652 25.54843,-0.31452 l 25.07021,-0.0873 -0.0671,36.59444 -0.0671,36.59443 -17.99168,0.0235 c -9.89542,0.0129 -19.38823,-0.0502 -21.09515,-0.14015 z"
       id="path1982"
       inkscape:connector-curvature="0"
       sodipodi:nodetypes="cccssccccccccccc" />
  </g>
</svg>
