<svg width="799.364" height="591.824" viewBox="0 0 211.499 156.587" xmlns="http://www.w3.org/2000/svg"><path style="opacity:1;vector-effect:none;fill:#ccc;fill-opacity:1;stroke:none;stroke-width:5.15905523;stroke-linecap:butt;stroke-linejoin:miter;stroke-miterlimit:4;stroke-dasharray:none;stroke-dashoffset:0;stroke-opacity:1" d="M399.031 150.408a221.223 221.223 0 0 0-221.224 221.223A221.223 221.223 0 0 0 399.03 592.855a221.223 221.223 0 0 0 221.223-221.224A221.223 221.223 0 0 0 399.03 150.408zm0 64.65a156.574 156.574 0 0 1 156.573 156.573A156.574 156.574 0 0 1 399.03 528.205a156.574 156.574 0 0 1-156.574-156.574 156.574 156.574 0 0 1 156.574-156.572z" transform="scale(.26458)"/></svg>