<?xml version="1.0" encoding="UTF-8" standalone="no"?>
<!-- Created with Inkscape (http://www.inkscape.org/) -->

<svg
   width="164.32022mm"
   height="164.32022mm"
   viewBox="0 0 164.32022 164.32022"
   version="1.1"
   id="svg1390"
   sodipodi:docname="camera-flash.svg"
   inkscape:version="1.1 (c68e22c387, 2021-05-23)"
   xmlns:inkscape="http://www.inkscape.org/namespaces/inkscape"
   xmlns:sodipodi="http://sodipodi.sourceforge.net/DTD/sodipodi-0.dtd"
   xmlns="http://www.w3.org/2000/svg"
   xmlns:svg="http://www.w3.org/2000/svg"
   xmlns:rdf="http://www.w3.org/1999/02/22-rdf-syntax-ns#"
   xmlns:cc="http://creativecommons.org/ns#"
   xmlns:dc="http://purl.org/dc/elements/1.1/">
  <defs
     id="defs1384" />
  <sodipodi:namedview
     id="base"
     pagecolor="#ffffff"
     bordercolor="#666666"
     borderopacity="1.0"
     inkscape:pageopacity="0.0"
     inkscape:pageshadow="2"
     inkscape:zoom="0.98994949"
     inkscape:cx="392.94934"
     inkscape:cy="307.08637"
     inkscape:document-units="mm"
     inkscape:current-layer="layer1"
     showgrid="false"
     fit-margin-top="0"
     fit-margin-left="0"
     fit-margin-right="0"
     fit-margin-bottom="0"
     inkscape:window-width="1920"
     inkscape:window-height="1120"
     inkscape:window-x="-11"
     inkscape:window-y="-11"
     inkscape:window-maximized="1"
     inkscape:pagecheckerboard="0" />
  <metadata
     id="metadata1387">
    <rdf:RDF>
      <cc:Work
         rdf:about="">
        <dc:format>image/svg+xml</dc:format>
        <dc:type
           rdf:resource="http://purl.org/dc/dcmitype/StillImage" />
      </cc:Work>
    </rdf:RDF>
  </metadata>
  <g
     inkscape:label="Layer 1"
     inkscape:groupmode="layer"
     id="layer1"
     transform="translate(8.5874256,-20.183625)">
    <path
       sodipodi:type="star"
       style="fill:#efe9a3;fill-opacity:0.76867;stroke:none;stroke-width:42.5;stroke-linecap:round;stroke-linejoin:round;stop-color:#000000"
       id="path949"
       inkscape:flatsided="false"
       sodipodi:sides="12"
       sodipodi:cx="-58.588848"
       sodipodi:cy="54.548237"
       sodipodi:r1="115.65061"
       sodipodi:r2="251.41437"
       sodipodi:arg1="0.61698"
       sodipodi:arg2="0.87877939"
       inkscape:rounded="0.1"
       inkscape:randomized="0"
       d="m 35.739199,121.46074 c -8.26639,11.65332 77.098131,117.54991 66.097311,126.66665 -11.000822,9.11674 -99.2055652,-94.42607 -112.191126,-88.4672 -12.985562,5.95887 7.9939822,140.35027 -6.091376,142.74519 -14.085358,2.39492 -38.701502,-131.37816 -52.926763,-132.7104 -14.225261,-1.33225 -63.252145,125.54389 -76.647885,120.57527 -13.39573,-4.96862 32.1726,-133.12758 20.51929,-141.39397 -11.65332,-8.26639 -117.54992,77.09813 -126.66665,66.09731 -9.11674,-11.00082 94.42607,-99.20556 88.4672,-112.19112 -5.95887,-12.985563 -140.35028,7.99398 -142.74519,-6.091377 -2.39492,-14.085358 131.37816,-38.701502 132.7104,-52.926763 1.33225,-14.225262 -125.54389,-63.252145 -120.57527,-76.647881 4.96862,-13.395737 133.12757,32.17259528 141.39396,20.519281 8.2664,-11.653314 -77.09812,-117.54991 -66.0973,-126.66665 11.00082,-9.11674 99.20556,94.426074 112.19112,88.467203 12.985561,-5.958871 -7.99398,-140.350273 6.09138,-142.745193 14.085354,-2.39491 38.701498,131.378161 52.926759,132.710408 C -33.57968,-59.266255 15.447204,-186.14239 28.84294,-181.17377 42.238676,-176.20515 -3.3296555,-48.046201 8.3236586,-39.77981 19.976973,-31.51342 125.87357,-116.87794 134.99031,-105.87712 144.10705,-94.8763 40.564235,-6.6715561 46.523106,6.3140051 52.481977,19.299566 186.87338,-1.6799775 189.2683,12.405381 191.66321,26.490739 57.890137,51.106883 56.55789,65.332144 55.225643,79.557405 182.10178,128.58429 177.13316,141.98002 172.16454,155.37576 44.005589,109.80743 35.739199,121.46074 Z"
       transform="matrix(0.33143922,0,0,0.33143922,92.991327,84.26431)" />
  </g>
</svg>
