<svg xmlns="http://www.w3.org/2000/svg" width="799.364" height="591.824" viewBox="0 0 211.499 156.587"><path style="opacity:1;vector-effect:none;fill:#fff;fill-opacity:1;stroke:none;stroke-width:5.15905523;stroke-linecap:butt;stroke-linejoin:miter;stroke-miterlimit:4;stroke-dasharray:none;stroke-dashoffset:0;stroke-opacity:1" d="M400.572 231.824A140.714 140.714 0 0 0 259.857 372.54a140.714 140.714 0 0 0 140.715 140.715 140.714 140.714 0 0 0 140.713-140.715 140.714 140.714 0 0 0-140.713-140.715zm-6.342 40.211c5.36.013 5.706 1.951 5.706 10.451v8.252l-3.125.625c-1.72.344-4.532.632-6.25.643-13.618.076-33.134 8.96-46.004 20.941-13.934 12.972-22.5 29.237-26.016 49.4-.85 4.874-2.063 9.486-2.697 10.25-1.37 1.65-12.468 1.878-15.158.311-2.672-1.556-2.234-9.91 1.222-23.314 4.706-18.25 10.186-28.604 23.047-43.547 15.884-18.456 41.733-31.947 64.705-33.77 1.828-.145 3.334-.245 4.57-.242z" transform="scale(.26458)"/><path d="M-2.707 75.42c-2.571-2.607-3.184-4.985-1.961-7.611.813-1.746 2.95-3.67 4.517-4.064 1.328-.334 1.305-.287 2.145-4.341.711-3.427 2.183-5.993 5.13-8.943 3.047-3.05 5.798-4.601 8.889-5.011 3.654-.485 39.35-.786 92.73-.782 29.905.003 59.29.12 65.3.26 10.57.247 10.989.277 12.789.903 3.798 1.32 7.46 4.231 9.782 7.773 1.495 2.281 2.176 3.995 2.715 6.833.55 2.897.598 2.98 1.925 3.313 1.416.357 3.576 2.209 4.397 3.77.416.79.572 1.558.573 2.808.001 2.114-.443 3.039-2.448 5.093l-1.485 1.521h-60.157l-2.184-1.764c-7.288-5.883-17.293-10.605-26.893-12.692-2.725-.592-3.957-.696-9.668-.816-9.359-.197-14.841.464-21.49 2.59-7.91 2.528-13.32 5.337-20.164 10.467l-2.957 2.215H-1.207Z" style="fill:#fff;stroke-width:1" transform="translate(5.275 -26.145)"/><path style="opacity:1;vector-effect:none;fill:#fff;fill-opacity:1;stroke:none;stroke-width:5.15905523;stroke-linecap:butt;stroke-linejoin:miter;stroke-miterlimit:4;stroke-dasharray:none;stroke-dashoffset:0;stroke-opacity:1" d="M399.031 150.408a221.223 221.223 0 0 0-221.224 221.223A221.223 221.223 0 0 0 399.03 592.855a221.223 221.223 0 0 0 221.223-221.224A221.223 221.223 0 0 0 399.03 150.408zm0 64.65a156.574 156.574 0 0 1 156.573 156.573A156.574 156.574 0 0 1 399.03 528.205a156.574 156.574 0 0 1-156.574-156.574 156.574 156.574 0 0 1 156.574-156.572z" transform="scale(.26458)"/><path style="fill:#fff;stroke-width:1" d="M22.093 176.41c-8.403-.327-10.853-1.16-14.706-4.992-2.492-2.479-4.048-4.857-5.173-7.905-.544-1.472-.638-1.998-.4-2.236.17-.17 1.171-.396 2.224-.502 2.452-.246 23.599-.276 35.152-.05l8.895.174 1.82 2.399c2.228 2.934 7.906 8.705 10.95 11.128 1.236.984 2.288 1.897 2.336 2.027.105.281-33.68.246-41.098-.043zm115.755.072c0-.114.599-.655 1.33-1.201 3.721-2.778 10.756-9.905 12.494-12.659.458-.723 1.126-1.381 1.614-1.587.672-.284 5.16-.352 23.059-.352 12.224 0 22.427.083 22.675.185.419.173.413.316-.085 2.115-1.618 5.837-6.952 11.296-12.536 12.83-.769.21-3.873.467-7.408.612-7.375.303-41.143.35-41.143.057zM1.521 155.37c-.109-.11-.198-16.62-.198-36.69V82.19l24.937.114c13.715.063 25.205.206 25.532.318.328.111.596.314.596.45 0 .135-.886 1.415-1.968 2.843-4.248 5.61-7.177 10.934-9.643 17.526-2.997 8.015-3.3 10.19-3.14 22.596.127 9.862.317 11.715 1.697 16.522.65 2.263 2.475 6.963 4.082 10.512.477 1.053.776 2.005.664 2.117-.264.264-42.298.444-42.559.182zM150.819 154.561c-104.062 18.78-52.031 9.39 0 0zm9.722.714c-1.707-.09-3.22-.28-3.363-.424-.17-.17.107-1.082.8-2.638 2.872-6.446 4.511-11.704 5.153-16.527.522-3.915.519-18.795-.004-22.231-1.212-7.974-5.592-17.736-12.082-26.93-2.466-3.494-2.529-3.623-1.901-3.92.263-.126 11.76-.267 25.548-.315l25.07-.088-.066 36.595-.068 36.594-17.991.024c-9.896.013-19.388-.05-21.095-.14zM25.532 39.641c-2.508-.1-4.476-.302-4.828-.494-.52-.282-.595-.533-.593-1.968.004-2.778 1.682-5.62 4.033-6.832 2.199-1.133 9.82-1.371 11.925-.373.534.254 1.615 1.157 2.403 2.008 1.62 1.75 2.01 2.927 2.01 6.08V39.9l-5.359-.045a366.38 366.38 0 0 1-9.59-.215zm49.183-1.659c.081-1.055.221-3.049.312-4.431.09-1.383.314-2.871.499-3.308.184-.436 1.095-1.537 2.025-2.446l1.692-1.652 21.299.001h21.299l1.685 1.629c.926.895 1.84 2 2.03 2.455.19.454.417 2.012.505 3.462.087 1.45.223 3.44.3 4.423l.142 1.786H74.567l.148-1.919z" transform="translate(5.275 -26.145)"/></svg>