<svg xmlns="http://www.w3.org/2000/svg" width="402.606" height="283.222" viewBox="0 0 106.523 74.936"><path style="fill:#fff;stroke-width:.26458296" d="M59.918 161.141c-2.323-.49-4.619-1.285-5.101-1.767-1.408-1.408 1.514-51.587 3.06-52.542 3.398-2.1 20.525-1.838 22.71.348.366.366 1.189 10.409 1.827 22.317 1.68 31.34 1.75 29.628-1.278 30.78-3.675 1.397-16.26 1.91-21.218.864zm10.25-29.1c-.167-1.329-.732-2.415-1.256-2.415-.525 0-1.09 1.086-1.256 2.414-.215 1.72.145 2.415 1.256 2.415 1.11 0 1.47-.694 1.255-2.415zm.174-16.664c0-1.908-.477-2.862-1.43-2.862-.954 0-1.431.954-1.431 2.862 0 1.908.477 2.861 1.43 2.861.954 0 1.431-.953 1.431-2.861zm66.84 45.764c-2.323-.49-4.61-1.277-5.083-1.75-1.408-1.408 1.48-51.593 3.024-52.548.93-.574 2.363-.8 3.536-.577.887.17 2.325 1.39 2.325 1.39-.498 1.036.006 3.728.014 6.641.01 3.894-.275 8.38.673 11.728.527 1.863 5.71 1.123 5.023 3.13-.25.727.66 5.66 2.273 8.173.768 1.196-.34 8.704.619 9.932.855 1.095 2.597-.843 3.625-.187.65.414 1.548 2.22 2.173 2.649.783.538 3.404-.13 4.066.299 1.991 1.29 1.441 3.403 1.463 5.204.042 3.568-.272 4.2-2.512 5.052-3.675 1.397-16.26 1.91-21.218.864zm-51.918-4.509c-.259-.918-.738-8.966-1.064-17.885-.327-8.919-.823-17.396-1.102-18.84-.422-2.182-.174-2.622 1.477-2.622 1.48 0 1.984-.606 1.984-2.385 0-1.908.476-2.385 2.384-2.385s2.385.477 2.385 2.385.477 2.385 2.385 2.385c1.925 0 2.384-.473 2.384-2.451 0-1.997.399-2.395 2.147-2.147 1.408.2 2.146.96 2.146 2.213 0 1.372.736 1.992 2.623 2.21 2.259.26 2.623-.039 2.623-2.147 0-1.812.496-2.448 1.908-2.448s1.908.636 1.908 2.448c0 2.108.364 2.406 2.623 2.146 1.887-.217 2.623-.837 2.623-2.21 0-1.251.738-2.012 2.146-2.212 1.748-.248 2.147.15 2.147 2.147 0 1.978.46 2.45 2.384 2.45 1.908 0 2.385-.476 2.385-2.384s.477-2.385 2.385-2.385 2.384.477 2.384 2.385c0 1.779.504 2.385 1.984 2.385 1.65 0 1.899.44 1.477 2.623-.28 1.443-.775 9.92-1.102 18.839-.326 8.919-.805 16.967-1.064 17.885-.33 1.175-1.44 1.67-3.744 1.67h-3.274l-.015-7.87c-.013-6.356-.427-8.603-2.15-11.685-2.308-4.125-8.742-8.108-13.097-8.108-4.355 0-10.789 3.983-13.096 8.108-1.724 3.082-2.138 5.329-2.15 11.685l-.016 7.87h-3.275c-2.303 0-3.413-.495-3.744-1.67zm8.608 1.034c-1.424-1.424-.59-4.134 1.271-4.134 1.4 0 1.908.636 1.908 2.385 0 2.244-1.731 3.197-3.18 1.749zm24.165-1.68c0-1.845.489-2.454 1.974-2.454 1.5 0 1.9.514 1.67 2.137-.453 3.17-3.644 3.449-3.644.318zm-24.801-6.746c0-1.75.508-2.385 1.907-2.385 1.4 0 1.908.636 1.908 2.385 0 1.749-.508 2.384-1.908 2.384-1.399 0-1.907-.635-1.907-2.384zm24.8 0c0-1.75.51-2.385 1.908-2.385 1.4 0 1.908.636 1.908 2.385 0 1.749-.508 2.384-1.908 2.384-1.399 0-1.907-.635-1.907-2.384zm-23.846-5.667c0-1.28.466-2.617 1.037-2.97 1.597-.987 3.042 1.055 2.332 3.294-.889 2.8-3.37 2.56-3.37-.324zm23.34.324c-.711-2.239.734-4.28 2.331-3.294.57.353 1.037 1.689 1.037 2.97 0 2.884-2.48 3.123-3.369.324zm-15.617-8.854c-.847-1.022-.748-1.453.438-1.908 2.783-1.068 4.24-.615 4.24 1.32 0 2.237-2.996 2.614-4.678.588zm6.585-.589c0-1.934 1.456-2.387 4.239-1.32 1.186.456 1.285.887.438 1.909-1.682 2.026-4.677 1.65-4.677-.589zM55.08 97.74c0-6.984.245-8.182 1.845-9.039 2.883-1.542 3.879-1.183 3.879 1.398 0 2.013.445 2.384 2.861 2.384 2.544 0 2.862-.318 2.862-2.861 0-2.417.37-2.862 2.385-2.862 2.013 0 2.384.445 2.384 2.862 0 2.543.318 2.861 2.862 2.861 2.417 0 2.862-.37 2.862-2.384 0-2.581.996-2.94 3.878-1.398 1.6.857 1.845 2.055 1.845 9.039v8.05l-2.447-.93c-1.346-.511-6.469-.93-11.384-.93-4.916 0-10.04.419-11.385.93l-2.447.93z" transform="translate(-54.444 -86.76)"/></svg>