<?xml version="1.0" encoding="UTF-8" standalone="no"?>
<!-- Created with Inkscape (http://www.inkscape.org/) -->

<svg
   xmlns:dc="http://purl.org/dc/elements/1.1/"
   xmlns:cc="http://creativecommons.org/ns#"
   xmlns:rdf="http://www.w3.org/1999/02/22-rdf-syntax-ns#"
   xmlns:svg="http://www.w3.org/2000/svg"
   xmlns="http://www.w3.org/2000/svg"
   xmlns:sodipodi="http://sodipodi.sourceforge.net/DTD/sodipodi-0.dtd"
   xmlns:inkscape="http://www.inkscape.org/namespaces/inkscape"
   width="106.52275mm"
   height="74.935799mm"
   viewBox="0 0 106.52275 74.935799"
   version="1.1"
   id="svg5"
   inkscape:version="0.92.4 (5da689c313, 2019-01-14)"
   sodipodi:docname="castle.svg">
  <metadata
     id="metadata8">
    <rdf:RDF>
      <cc:Work
         rdf:about="">
        <dc:format>image/svg+xml</dc:format>
        <dc:type
           rdf:resource="http://purl.org/dc/dcmitype/StillImage" />
        <dc:title></dc:title>
      </cc:Work>
    </rdf:RDF>
  </metadata>
  <sodipodi:namedview
     id="namedview7"
     pagecolor="#505050"
     bordercolor="#eeeeee"
     borderopacity="1"
     inkscape:pageshadow="0"
     inkscape:pageopacity="0"
     inkscape:pagecheckerboard="0"
     inkscape:document-units="mm"
     showgrid="false"
     inkscape:zoom="0.94867185"
     inkscape:cx="207.09169"
     inkscape:cy="31.773077"
     inkscape:window-width="1920"
     inkscape:window-height="1017"
     inkscape:window-x="1072"
     inkscape:window-y="394"
     inkscape:window-maximized="1"
     inkscape:current-layer="layer1"
     fit-margin-top="0"
     fit-margin-left="0"
     fit-margin-right="0"
     fit-margin-bottom="0" />
  <defs
     id="defs2" />
  <g
     inkscape:label="Layer 1"
     inkscape:groupmode="layer"
     id="layer1"
     transform="translate(-54.443954,-86.760082)">
    <path
       style="fill:#ffffff;stroke-width:0.26458296"
       d="m 59.918038,161.14138 c -2.323243,-0.48981 -4.61871,-1.2852 -5.101037,-1.7675 -1.408248,-1.40825 1.514347,-51.58666 3.060265,-52.54212 3.397353,-2.09966 20.52448,-1.83734 22.709664,0.3479 0.366548,0.36655 1.188599,10.40929 1.826776,22.3172 1.679614,31.34038 1.750709,29.62815 -1.278067,30.77969 -3.674268,1.39696 -16.260389,1.91002 -21.217601,0.8649 z M 70.16726,132.04014 c -0.166021,-1.32788 -0.731077,-2.41436 -1.255715,-2.41436 -0.524637,0 -1.089707,1.08648 -1.255714,2.41436 -0.215124,1.7207 0.145652,2.41439 1.255714,2.41439 1.11006,0 1.470828,-0.69369 1.255715,-2.41439 z m 0.175106,-16.66333 c 0,-1.90778 -0.476944,-2.86165 -1.430828,-2.86165 -0.953884,0 -1.430827,0.95387 -1.430827,2.86165 0,1.90778 0.476943,2.86166 1.430827,2.86166 0.953884,0 1.430828,-0.95388 1.430828,-2.86166 z m 66.840344,45.76457 c -2.32321,-0.48981 -4.6108,-1.2773 -5.08347,-1.74995 -1.40863,-1.40863 1.47944,-51.59347 3.02409,-52.54814 0.92893,-0.57409 2.36258,-0.80086 3.5355,-0.57701 0.88713,0.16944 2.32538,1.39053 2.32538,1.39053 -0.49835,1.03539 0.006,3.72764 0.0141,6.6402 0.0101,3.89383 -0.27483,8.37939 0.67264,11.72848 0.52699,1.86275 5.70971,1.12252 5.02283,3.12866 -0.24934,0.72825 0.66103,5.6605 2.27336,8.17353 0.76746,1.19615 -0.34102,8.70412 0.61841,9.93228 0.85553,1.0952 2.59741,-0.8429 3.62578,-0.18711 0.65031,0.41464 1.54744,2.21956 2.17237,2.64884 0.78365,0.5383 3.40418,-0.12979 4.06676,0.29923 1.9909,1.28923 1.44061,3.40352 1.46223,5.20427 0.0428,3.56734 -0.27147,4.19948 -2.51216,5.05136 -3.67424,1.39696 -16.26037,1.91002 -21.2176,0.8649 z m -51.919188,-4.50903 c -0.258315,-0.91811 -0.73713,-8.96651 -1.06402,-17.88536 -0.326887,-8.91881 -0.822441,-17.39648 -1.101223,-18.83923 -0.421859,-2.18318 -0.174169,-2.62317 1.476679,-2.62317 1.479877,0 1.983564,-0.60557 1.983564,-2.38471 0,-1.90779 0.47694,-2.38472 2.384712,-2.38472 1.90777,0 2.38471,0.47693 2.38471,2.38472 0,1.90774 0.47695,2.38471 2.38472,2.38471 1.92497,0 2.38471,-0.47253 2.38471,-2.45105 0,-1.99626 0.39827,-2.39453 2.14624,-2.14627 1.40871,0.20009 2.146236,0.9604 2.146236,2.21261 0,1.37211 0.73653,1.9925 2.62318,2.20957 2.25865,0.25994 2.62319,-0.0382 2.62319,-2.14623 0,-1.81214 0.49557,-2.44806 1.90777,-2.44806 1.4122,0 1.90777,0.63592 1.90777,2.44806 0,2.10787 0.36454,2.40613 2.62318,2.14623 1.88666,-0.21703 2.62319,-0.83746 2.62319,-2.20957 0,-1.25221 0.73752,-2.01252 2.14624,-2.21261 1.74797,-0.2484 2.14624,0.14998 2.14624,2.14627 0,1.97852 0.45974,2.45105 2.38471,2.45105 1.90777,0 2.38472,-0.47697 2.38472,-2.38471 0,-1.90779 0.47694,-2.38472 2.38471,-2.38472 1.90777,0 2.38471,0.47693 2.38471,2.38472 0,1.77914 0.50369,2.38471 1.98357,2.38471 1.65084,0 1.89853,0.43999 1.47668,2.62317 -0.27879,1.44275 -0.77433,9.92042 -1.10123,18.83923 -0.32689,8.91885 -0.8057,16.96725 -1.06401,17.88536 -0.33042,1.17437 -1.44045,1.66929 -3.744,1.66929 h -3.27432 l -0.0155,-7.86954 c -0.0126,-6.35607 -0.4262,-8.60339 -2.15017,-11.68511 -2.30771,-4.12511 -8.74101,-8.10803 -13.09635,-8.10803 -4.35534,0 -10.788636,3.98292 -13.096296,8.10803 -1.72397,3.08172 -2.13749,5.32904 -2.15017,11.68511 l -0.0159,7.86954 h -3.27432 c -2.303555,0 -3.413568,-0.49492 -3.743995,-1.66929 z m 8.608122,1.03337 c -1.42324,-1.42324 -0.58931,-4.13351 1.27184,-4.13351 1.39904,0 1.90777,0.63592 1.90777,2.38471 0,2.24452 -1.73155,3.19687 -3.17961,1.7488 z m 24.165086,-1.67885 c 0,-1.84625 0.48931,-2.45466 1.97411,-2.45466 1.49936,0 1.9008,0.51381 1.6693,2.13649 -0.45233,3.17048 -3.64341,3.44913 -3.64341,0.31799 z m -24.801016,-6.74713 c 0,-1.74879 0.50874,-2.38472 1.90777,-2.38472 1.39904,0 1.90777,0.63593 1.90777,2.38472 0,1.74879 -0.50873,2.38472 -1.90777,2.38472 -1.39903,0 -1.90777,-0.63593 -1.90777,-2.38472 z m 24.801016,0 c 0,-1.74879 0.50873,-2.38472 1.90777,-2.38472 1.39903,0 1.90777,0.63593 1.90777,2.38472 0,1.74879 -0.50874,2.38472 -1.90777,2.38472 -1.39904,0 -1.90777,-0.63593 -1.90777,-2.38472 z m -23.847126,-5.66703 c 0,-1.28062 0.46665,-2.61683 1.037,-2.96931 1.59698,-0.98697 3.04269,1.055 2.33207,3.29396 -0.88837,2.79899 -3.36907,2.55997 -3.36907,-0.32447 z m 23.339706,0.32447 c -0.71062,-2.23896 0.73509,-4.28093 2.33207,-3.29396 0.57035,0.35259 1.037,1.68869 1.037,2.96931 0,2.88462 -2.4807,3.12364 -3.36907,0.32447 z m -15.61618,-8.8545 c -0.84756,-1.02125 -0.74853,-1.4524 0.43816,-1.90778 2.78314,-1.06798 4.23882,-0.61487 4.23882,1.31945 0,2.23813 -2.99507,2.61491 -4.67698,0.58833 z m 6.58474,-0.58833 c 0,-1.93432 1.45568,-2.38743 4.23882,-1.31945 1.18669,0.45538 1.28572,0.88653 0.43816,1.90778 -1.68191,2.02658 -4.67698,1.6498 -4.67698,-0.58833 z M 55.080313,97.739718 c 0,-6.983377 0.244652,-8.181793 1.845059,-9.038289 2.882129,-1.542499 3.878252,-1.183598 3.878252,1.397245 0,2.013776 0.445146,2.384719 2.861655,2.384719 2.543692,0 2.861656,-0.317982 2.861656,-2.861655 0,-2.416517 0.370953,-2.861656 2.384711,-2.861656 2.013759,0 2.384712,0.445139 2.384712,2.861656 0,2.543709 0.317946,2.861655 2.861655,2.861655 2.41651,0 2.861656,-0.370943 2.861656,-2.384719 0,-2.580843 0.996123,-2.939744 3.878252,-1.397245 1.600422,0.856496 1.845058,2.054912 1.845058,9.038289 v 8.050842 l -2.446808,-0.93029 c -1.345747,-0.51162 -6.468783,-0.93026 -11.384525,-0.93026 -4.915741,0 -10.03878,0.41864 -11.384524,0.93026 l -2.446809,0.93029 z"
       id="path836"
       sodipodi:nodetypes="sssssssssssssssssscssasssssssssssccssssssssssssssssscsssssssssscssssccssssssscssccssssssssssssssscssccssssssssssssssssssscssscs"
       inkscape:connector-curvature="0" />
  </g>
</svg>
