<svg xmlns="http://www.w3.org/2000/svg" width="576.41" height="736.278" viewBox="0 0 152.508 194.807"><path style="fill:#fff;stroke-width:.14986099;fill-opacity:1" d="M113.153 85.446c-51.792 94.643-25.896 47.321 0 0zm-8.432 12.229c-.394-.01-.788.04-1.109.162-.508.193-.644.389-.647.928-.001.226-.07.412-.152.412-.083 0-.15.134-.15.3 0 .164.067.299.15.299.192 0 .203 4.55.011 4.91-.076.143-.209.895-.295 1.672-.086.777-.213 1.45-.281 1.499-.069.047-.255.643-.415 1.323-.159.68-.333 1.236-.386 1.236-.052 0-.216.624-.362 1.387-.147.762-.314 1.42-.372 1.46-.057.042-.198.649-.314 1.35-.165 1.007-.2 2.992-.163 9.487l.043 7.714c3.098.043 5.968.105 8.512.177l.1-7.675c.08-6.149.06-8.477-.08-9.554-.103-.783-.235-1.457-.293-1.499-.058-.04-.228-.664-.377-1.385-.15-.722-.316-1.312-.371-1.312-.056 0-.222-.522-.371-1.161s-.332-1.2-.41-1.248c-.076-.048-.22-.84-.317-1.761-.098-.921-.23-1.675-.295-1.675-.065 0-.117-.91-.117-2.023 0-1.249.057-2.023.15-2.023.244 0 .187-2.231-.064-2.482-.313-.314-.969-.501-1.625-.518zm-1.344 6.072.017 1.274c.017 1.28-.353 3.901-.571 4.045-.064.042-.2.43-.303.863-.103.433-.239.787-.303.787-.063 0-.238.59-.387 1.311-.15.722-.318 1.345-.375 1.386-.057.042-.206.615-.332 1.274-.125.66-.236 1.03-.244.824-.02-.506.45-3.053.581-3.147.058-.04.228-.664.378-1.386.15-.72.323-1.311.385-1.311s.197-.47.3-1.044c.102-.574.243-1.008.312-.965.07.043.133-.043.139-.193.006-.149.099-1.046.207-1.994z" transform="translate(-29.05 -3.599)"/></svg>