<?xml version="1.0" encoding="UTF-8" standalone="no"?>
<!-- Created with Inkscape (http://www.inkscape.org/) -->

<svg
   xmlns:dc="http://purl.org/dc/elements/1.1/"
   xmlns:cc="http://creativecommons.org/ns#"
   xmlns:rdf="http://www.w3.org/1999/02/22-rdf-syntax-ns#"
   xmlns:svg="http://www.w3.org/2000/svg"
   xmlns="http://www.w3.org/2000/svg"
   xmlns:sodipodi="http://sodipodi.sourceforge.net/DTD/sodipodi-0.dtd"
   xmlns:inkscape="http://www.inkscape.org/namespaces/inkscape"
   width="152.50838mm"
   height="194.80701mm"
   viewBox="0 0 152.50838 194.80701"
   version="1.1"
   id="svg3145"
   inkscape:version="0.92.4 (5da689c313, 2019-01-14)"
   sodipodi:docname="dinner-chairL.svg">
  <metadata
     id="metadata10">
    <rdf:RDF>
      <cc:Work
         rdf:about="">
        <dc:format>image/svg+xml</dc:format>
        <dc:type
           rdf:resource="http://purl.org/dc/dcmitype/StillImage" />
        <dc:title></dc:title>
      </cc:Work>
    </rdf:RDF>
  </metadata>
  <sodipodi:namedview
     id="namedview3147"
     pagecolor="#505050"
     bordercolor="#eeeeee"
     borderopacity="1"
     inkscape:pageshadow="0"
     inkscape:pageopacity="0"
     inkscape:pagecheckerboard="0"
     inkscape:document-units="mm"
     showgrid="false"
     fit-margin-top="0"
     fit-margin-left="0"
     fit-margin-right="0"
     fit-margin-bottom="0"
     inkscape:zoom="0.94867184"
     inkscape:cx="97.145934"
     inkscape:cy="354.83906"
     inkscape:window-width="1920"
     inkscape:window-height="1017"
     inkscape:window-x="1072"
     inkscape:window-y="394"
     inkscape:window-maximized="1"
     inkscape:current-layer="layer1"
     inkscape:snap-global="false"
     showguides="false" />
  <defs
     id="defs3142" />
  <g
     inkscape:label="Layer 1"
     inkscape:groupmode="layer"
     id="layer1"
     transform="translate(-29.050399,-3.598509)">
    <path
       style="fill:#ffffff;fill-opacity:1;stroke-width:0.14986099"
       d="m 66.589231,198.09488 -0.394863,-0.3106 v -12.94325 c 0,-8.46718 -0.05183,-12.97528 -0.149865,-13.03587 -0.08242,-0.0509 -0.149859,-0.45955 -0.149859,-0.90801 v -0.81539 h -1.849568 c -1.017261,0 -2.77023,-0.0441 -3.895487,-0.0981 -1.841503,-0.0883 -2.027555,-0.12202 -1.862075,-0.33719 0.138911,-0.18064 0.108342,-0.17498 -0.12509,0.0232 -0.257374,0.21848 -0.613398,0.26225 -2.13294,0.26225 h -1.823996 v 1.20773 c 0,0.66426 -0.05717,1.17241 -0.127044,1.12922 -0.06988,-0.0432 -0.215902,2.71777 -0.324504,6.13546 -0.108597,3.41769 -0.253738,6.21397 -0.322533,6.21397 -0.06879,0 -0.124065,0.42148 -0.122819,0.93663 0.0011,0.51515 -0.07838,3.28008 -0.176944,6.1443 l -0.179216,5.20767 h -1.3317 -1.3317 l 0.09171,-3.25947 c 0.05047,-1.79272 0.15234,-3.49551 0.226442,-3.78399 0.127033,-0.49457 0.458748,-9.49938 0.453599,-12.31359 -0.0011,-0.71433 0.05641,-1.32126 0.128268,-1.34875 0.07185,-0.0275 0.162093,-1.44999 0.200535,-3.16117 l 0.0699,-3.11123 -6.307369,0.0391 -6.307375,0.0391 -0.04401,1.0865 c -0.02424,0.59757 -0.09856,1.08649 -0.165208,1.08649 -0.06664,0 -0.165787,0.65751 -0.220314,1.46114 -0.185486,2.73369 -0.449306,5.35732 -0.546268,5.43247 -0.09038,0.07 -0.361066,2.17425 -0.553779,4.30484 -0.04639,0.51314 -0.129383,0.90518 -0.184381,0.87117 -0.055,-0.034 -0.220388,0.82749 -0.367528,1.91439 -0.147146,1.08691 -0.321083,2.04362 -0.386531,2.12604 -0.06545,0.0824 -0.201447,0.7403 -0.302216,1.46194 -0.100769,0.72165 -0.235363,1.3443 -0.299095,1.3837 -0.06373,0.0394 -0.239447,0.81455 -0.390479,1.72261 -0.151026,0.90803 -0.320896,1.65098 -0.377491,1.65098 -0.05658,0 -0.221345,0.67438 -0.366129,1.49861 -0.144778,0.82424 -0.320375,1.49862 -0.390201,1.49862 -0.06983,0 -0.126971,0.10115 -0.126971,0.22478 0,0.2491 -0.88914,0.30261 -2.152067,0.1295 -0.544399,-0.0746 -0.695289,-0.15593 -0.695289,-0.37465 0,-0.15366 0.05562,-0.27936 0.123612,-0.27936 0.06799,0 0.25082,-0.66955 0.406298,-1.4879 0.155472,-0.81834 0.325954,-1.46115 0.378845,-1.42847 0.0529,0.0327 0.216423,-0.62964 0.36341,-1.47184 0.146982,-0.84222 0.311205,-1.56501 0.364934,-1.60622 0.109678,-0.0841 0.618909,-3.03605 0.613987,-3.55921 -0.0017,-0.18545 0.05432,-0.33718 0.124552,-0.33718 0.07025,0 0.215936,-0.72495 0.323751,-1.61101 0.107815,-0.88605 0.245797,-1.64472 0.306617,-1.68593 0.11195,-0.0759 0.590657,-4.71313 0.590657,-5.72173 0,-0.3011 0.05763,-0.56993 0.128058,-0.59742 0.175115,-0.0683 0.463188,-6.4464 0.575891,-12.75066 0.0512,-2.86422 0.149797,-5.20767 0.219091,-5.20767 0.06929,0 0.125985,-1.71966 0.125985,-3.82146 0,-2.44772 -0.05387,-3.82145 -0.149859,-3.82145 -0.094,0 -0.149327,-0.93567 -0.148421,-2.51017 0.0017,-2.63358 -0.37352,-7.84194 -0.601594,-8.35475 -0.07332,-0.16485 -0.245508,-1.345 -0.382651,-2.62257 -0.137143,-1.27756 -0.309302,-2.34532 -0.382577,-2.3728 -0.07328,-0.0275 -0.132782,-0.22979 -0.132238,-0.44958 0.0017,-0.61237 -0.343587,-2.78774 -0.455672,-2.87233 -0.0546,-0.0412 -0.219782,-0.88418 -0.367064,-1.87326 -0.147282,-0.98909 -0.316687,-1.83206 -0.376466,-1.87327 -0.05978,-0.0412 -0.226119,-0.78302 -0.369652,-1.64847 -0.143532,-0.86545 -0.309409,-1.60726 -0.368615,-1.64847 -0.05921,-0.0412 -0.229784,-0.73245 -0.379066,-1.53608 -0.149275,-0.80363 -0.320465,-1.46114 -0.380413,-1.46114 -0.05995,0 -0.195517,-0.50578 -0.301259,-1.12396 -0.105748,-0.61817 -0.239617,-1.12396 -0.297504,-1.12396 -0.05788,0 -0.227796,-0.59007 -0.377587,-1.31128 -0.149786,-0.72121 -0.314847,-1.345 -0.366792,-1.38621 -0.05194,-0.0412 -0.21866,-0.61443 -0.370479,-1.27382 -0.151824,-0.65939 -0.333476,-1.23596 -0.403681,-1.28127 -0.0702,-0.0453 -0.170805,-0.29819 -0.22356,-0.56197 -0.07144,-0.35722 -0.04225,-0.47961 0.1143,-0.47961 0.11562,0 0.320421,-0.12871 0.455117,-0.28602 0.134697,-0.15731 0.616015,-0.36907 1.069597,-0.47058 1.577105,-0.35294 2.786785,0.25197 3.23626,1.61831 0.115235,0.35029 0.258852,0.63691 0.319146,0.63691 0.06029,0 0.14773,0.15173 0.194299,0.33718 0.04656,0.18545 0.19375,0.47207 0.327081,0.63691 0.133326,0.16485 0.199714,0.21543 0.147526,0.1124 -0.07393,-0.14596 0.42832,-0.1874 2.274264,-0.18764 1.303034,-1.5e-4 4.134763,-0.0446 6.292733,-0.0987 l 3.923574,-0.0984 0.0926,-0.36896 c 0.08644,-0.34438 0.166239,-0.46605 0.63261,-0.96446 0.346922,-0.37077 0.582512,-0.51924 0.983668,-0.61992 0.416493,-0.10453 1.678073,0.0333 1.542832,0.16847 -0.04169,0.0417 0.192068,0.20836 0.519494,0.37035 0.327421,0.162 0.595308,0.38303 0.595308,0.49118 0,0.10816 0.06239,0.21913 0.138633,0.2466 0.126245,0.0455 0.319004,3.06428 0.562977,8.81682 0.05069,1.19515 0.141855,2.2067 0.202602,2.24791 0.06075,0.0412 0.16876,1.35625 0.240031,2.9223 l 0.129576,2.84735 c 0.05172,1.42576 0.241092,1.36842 0.217236,2.87971 -0.32712,-0.0802 0.0079,0.49333 0.0079,1.5874 0,0.62025 0.05922,1.1502 0.131604,1.17767 0.07238,0.0275 0.21777,1.98626 0.323093,4.35285 0.105323,2.3666 0.241124,4.27223 0.30178,4.23475 0.06066,-0.0375 0.156328,1.19576 0.2126,2.74056 0.05624,1.5448 0.131094,2.91271 0.166268,3.0398 0.06408,0.23155 1.305656,0.3513 7.181942,0.6927 0.906653,0.0527 1.682185,0.14132 1.723396,0.19696 0.07001,0.0945 3.749898,0.37361 7.343191,0.55688 0.865448,0.0441 1.607256,0.12984 1.648467,0.19044 0.0709,0.10425 1.032158,0.17996 5.132739,0.40424 0.968476,0.053 1.760869,0.14182 1.760869,0.19744 0,0.0556 1.331887,0.18243 2.959754,0.2818 1.627861,0.0994 3.347519,0.22088 3.821452,0.27001 l 0.861704,0.0893 v 8.00706 c 0,6.36575 -0.0384,7.98398 -0.187327,7.89451 -0.126982,-0.0763 -0.120984,-0.0308 0.01863,0.14133 0.173042,0.21333 0.188097,2.27683 0.09422,12.91682 l -0.111962,12.66282 h -1.155934 c -1.100907,0 -1.175418,-0.0219 -1.565211,-0.45934 l -0.409272,-0.45933 -0.102547,-12.76589 -0.102548,-12.7659 -3.484266,-0.0402 c -2.151999,-0.0249 -3.484266,-0.0965 -3.484266,-0.18733 0,-0.0912 -1.110581,-0.1471 -2.922291,-0.1471 h -2.922286 v 14.01199 14.01201 h -1.778123 c -1.571957,0 -1.823905,-0.036 -2.172985,-0.3106 z M 66.194368,165.2057 c 0,-2.59055 -0.02719,-2.91671 -0.24314,-2.91671 -0.209026,0 -0.214644,-0.0368 -0.04005,-0.26226 0.193421,-0.24977 0.18838,-0.24977 -0.10585,0 -0.282624,0.23993 -0.802503,0.26226 -6.104251,0.26226 H 53.90577 v 2.91905 2.91905 l 2.809895,0.0407 c 1.545443,0.0224 4.310377,0.0213 6.144301,-0.002 l 3.334407,-0.043 v -2.91672 z m -14.686377,0.15544 v -2.77243 H 45.28876 39.069529 v 2.77243 2.77243 h 6.219231 6.219231 z m 31.470803,-1.73833 v -2.38607 l -6.406557,0.0391 -6.406552,0.0391 -0.04129,2.35848 -0.04123,2.35848 5.511181,0.0393 c 3.031154,0.0216 5.93267,0.0164 6.44782,-0.0116 l 0.936633,-0.0507 v -2.38608 z M 67.9927,159.96615 c 0.193579,-0.20606 0.318245,-0.37466 0.277033,-0.37466 -0.04123,0 -0.233313,0.1686 -0.426898,0.37466 -0.19358,0.20605 -0.318245,0.37465 -0.277034,0.37465 0.04123,0 0.233313,-0.1686 0.426899,-0.37465 z m 3.746522,-3.41336 c 0,-0.0228 -0.48892,-0.51174 -1.086493,-1.08649 l -1.086492,-1.04501 1.045009,1.08649 c 0.970601,1.00914 1.127976,1.15494 1.127976,1.04501 z m 1.273819,-1.60699 c 0.149185,-0.16484 0.237527,-0.29972 0.196316,-0.29972 -0.04123,0 -0.19699,0.13488 -0.346175,0.29972 -0.149185,0.16485 -0.237527,0.29972 -0.196315,0.29972 0.04123,0 0.196989,-0.13487 0.346174,-0.29972 z m -22.104492,-1.77944 c 0.04123,-0.0516 0.05585,-1.7906 0.03251,-3.86443 l -0.04242,-3.77062 -4.153682,0.0831 c -2.284527,0.0457 -4.176156,0.14085 -4.203632,0.21142 -0.02747,0.0706 -0.848071,0.1283 -1.823543,0.1283 -0.975471,0 -1.880256,0.041 -2.010631,0.091 -0.250735,0.0962 -0.325234,0.58615 -0.109418,0.71953 0.0702,0.0434 0.173711,1.24439 0.230028,2.66888 0.0563,1.4245 0.141788,2.90541 0.189944,3.2909 l 0.08755,0.70091 5.864187,-0.0826 c 3.225301,-0.0454 5.897905,-0.12479 5.939116,-0.17639 z m -3.722501,-10.65902 h 3.272918 v -2.32284 -2.32285 h -6.36909 c -4.146154,0 -6.369096,0.0523 -6.369096,0.14986 0,0.0824 0.05731,0.14986 0.127361,0.14986 0.07004,0 0.209491,0.92727 0.30988,2.06059 0.100389,1.13333 0.213613,2.15546 0.251608,2.27141 0.05759,0.17576 0.520921,0.19445 2.786292,0.1124 1.494462,-0.0541 4.190022,-0.0984 5.990127,-0.0984 z m -7.666936,-7.33019 c 0,-0.0764 1.07543,-0.14271 2.435241,-0.15009 2.86146,-0.0155 6.277191,-0.1795 5.959654,-0.28609 2.540995,0.0612 1.487153,-0.0524 1.998846,-0.12103 l 0.09653,-1.4321 v -1.40962 c 0,-0.83984 -0.06058,-1.40962 -0.149865,-1.40962 -0.08242,0 -0.149859,-0.13942 -0.149859,-0.30982 0,-0.22348 -0.07308,-0.2891 -0.262256,-0.23546 -0.14424,0.0409 -1.898545,0.12083 -3.89846,0.17763 -1.999915,0.0568 -3.672969,0.16276 -3.717902,0.23546 -0.04492,0.0727 -0.250294,0.13219 -0.456351,0.13219 -0.211609,0 -0.334348,-0.0652 -0.282035,-0.14986 0.05092,-0.0824 0.0252,-0.14986 -0.05724,-0.14986 -0.08242,0 -0.191541,0.0674 -0.242483,0.14986 -0.05092,0.0824 -0.678716,0.15061 -1.395058,0.15151 -1.821107,0.002 -2.426394,0.11894 -2.426394,0.46755 0,0.15406 0.05477,0.28011 0.121726,0.28011 0.06695,0 0.208334,0.82611 0.314195,1.83579 0.265779,2.53511 0.175234,2.36032 1.222645,2.36032 0.488987,0 0.889067,-0.0616 0.889066,-0.13687 z m 4.420899,-7.654 c 0.08242,-0.0638 1.350612,-0.15025 2.818198,-0.19212 1.467586,-0.0419 2.700839,-0.10862 2.740555,-0.14834 0.03971,-0.0397 0.0023,-0.9337 -0.08323,-1.98663 -0.0855,-1.05292 -0.155455,-2.10693 -0.155455,-2.34223 0,-0.40796 -0.03172,-0.42782 -0.683218,-0.42782 -0.37577,0 -0.647893,0.0572 -0.604716,0.12702 0.04316,0.0699 -1.975967,0.21622 -4.486981,0.32524 -2.511021,0.10901 -4.565491,0.25417 -4.565491,0.32256 0,0.0684 -0.56479,0.12435 -1.255083,0.12435 -0.690299,0 -1.472315,0.0434 -1.737811,0.0966 -0.445279,0.0891 -0.475621,0.13207 -0.39113,0.55452 0.05035,0.25189 0.151937,0.49528 0.225689,0.54086 0.07375,0.0456 0.221101,0.50413 0.327449,1.01901 0.106348,0.51487 0.243168,0.93614 0.304051,0.93614 0.06088,0 0.157398,0.31145 0.21448,0.6921 l 0.103788,0.69211 3.539525,-0.10867 c 1.94674,-0.0598 3.60696,-0.16086 3.689383,-0.22465 z"
       id="path3437"
       sodipodi:nodetypes="ccssscscssscsssscsccccscssccccsscsssssssssssssssssscsscscsssscssscsssssssssssssssssssssssccssssssssssccscsscssscssssscsssccssccccsscccsccssssscccscccscccccccccccccccsccccssssssscssssssssscssscsssccssccccssssscccsccccsssssssssscsssssccscsscsssccsssscccc"
       inkscape:connector-curvature="0" />
  </g>
</svg>
