<svg xmlns="http://www.w3.org/2000/svg" width="576.41" height="736.278" viewBox="0 0 152.508 194.807"><path d="M113.153 85.446c-51.792 94.643-25.896 47.321 0 0zm4.421 24.976c-1.269.02-3.096.266-3.222.435-.041.055-.291.188-.556.295-.399.161-.52.33-.712.99-.127.436-.23.861-.23.945 0 .083-.058.174-.128.201-.07.028-.165.337-.21.688-.06.459-.035.608.09.533.104-.063.096-.01-.02.134-.14.172-.165.515-.092 1.228.055.544.146.99.2.99.055 0 .183.407.286.906.107.517.31 1.012.472 1.15.157.135.255.292.22.35-.037.06.034.19.157.292.123.102.223.261.224.354 0 .093.192.297.426.454.234.157.554.479.711.714.157.235.392.46.522.502.13.042.365.194.524.338.159.144.475.38.701.526.37.238.413.353.416 1.123.002.472.038 2.19.08 3.818.05 1.873.024 2.96-.068 2.96-.08 0-.19.142-.246.317-.085.268-.187.306-.656.243-.584-.079-.941.091-1.104.526-.054.144-.168.262-.253.262-.085 0-.155.17-.155.375v.124c3.327.122 5.992.227 7.496.243.006-.079.102-.142.222-.142.123 0 .225.067.225.15.295 0 .602.007.9.01l-.002-.005c0-.08.101-.107.225-.06.054.021.1.046.138.07.649.007 1.319.018 1.998.036.222-.09.256-.95.038-.95-.083 0-.15-.133-.15-.296 0-.243.074-.282.412-.215.227.044.637-.014.912-.13.465-.197.482-.229.251-.46-.23-.23-.226-.248.068-.248.173 0 .36-.118.414-.262.055-.145.187-.351.295-.46.25-.254.25-.477 0-.477-.353 0-1.002-.37-1.003-.574 0-.11-.084-.172-.187-.138-.22.073-.562-.234-.568-.513-.003-.124-.063-.098-.159.067-.085.146-.213.23-.284.185-.072-.045-.173-.012-.225.072-.052.083-.225.152-.385.152s-.295.084-.3.187c-.005.103-.073.029-.15-.165-.131-.326-.212-.348-1.078-.3-.514.03-.978.11-1.03.181-.05.071-.14.054-.196-.037-.056-.091-.03-.166.057-.166s.158-.067.158-.15c0-.082-.202-.15-.45-.15-.246 0-.449.068-.449.15 0 .265-.371.16-.572-.162-.115-.184-.287-.277-.419-.227-.126.049-.183.022-.132-.062.05-.081-.009-.148-.13-.148-.271 0-.726.428-.627.59.04.062-.095.203-.298.312-.203.109-.37.315-.37.46 0 .49-.18.736-.54.736h-.359v-2.325c0-1.55.06-2.42.18-2.613.142-.228.138-.368-.02-.665-.165-.307-.167-.46-.013-.833.104-.252.242-.458.306-.458s.435-.286.824-.636c.39-.35.8-.691.915-.757.113-.066.206-.179.206-.25 0-.072.27-.404.6-.737.33-.333.6-.67.6-.75 0-.08.094-.24.211-.357.258-.258.687-1.654.687-2.235 0-.232.068-.422.15-.422.086 0 .15-.45.15-1.049 0-.6-.064-1.049-.15-1.049-.082 0-.15-.17-.15-.38 0-.208-.1-.62-.223-.914-.124-.295-.193-.586-.155-.648.125-.202-.735-1.008-1.194-1.12-.246-.06-.485-.169-.531-.243-.126-.203-2.165-.456-3.517-.435zm-1.124.294c.008.008-.037.069-.13.187h-.001c-.196.25-.319.33-.319.206 0-.031.118-.149.263-.262.118-.093.18-.138.187-.13zm-.674.675-.44.487c-.243.267-.462.487-.488.487-.116 0-.014-.124.44-.534zm-1.303 1.274c.041 0-.047.134-.196.3-.15.164-.305.299-.346.299-.041 0 .047-.135.196-.3.15-.165.305-.3.346-.3zm-1.17 1.198c.008.008-.038.069-.13.188h-.001c-.196.25-.319.329-.319.205 0-.03.118-.15.262-.262.12-.094.18-.139.188-.131zm4.478.3c1.037 0 1.837.063 1.89.15.06.096-.544.15-1.705.15-1.037 0-1.837-.064-1.89-.15-.06-.097.544-.15 1.705-.15zm2.49.334c.247-.003.618.05.824.115.492.158-.002.158-.749 0-.508-.107-.51-.11-.075-.115zm1.439.277c.131-.007.394.123.584.288.19.165.273.3.184.3-.089 0-.252-.09-.363-.201-.11-.11-.3-.24-.423-.288-.186-.073-.183-.089.018-.099zm-.178 2.704c.053.002.097.016.122.041.05.05-.038.085-.196.079-.175-.007-.21-.043-.09-.09a.41.41 0 0 1 .165-.03zm5.708 13.844c.961.315-.417-.853 1.774 1.262-2.133.024-.067-.001-.103-.001-.874-.934-1.395-3.78-1.67-1.261z" style="fill:#fff;stroke-width:.14986099;fill-opacity:1" transform="translate(-29.05 -3.599)"/></svg>