<svg xmlns="http://www.w3.org/2000/svg" width="576.41" height="736.278" viewBox="0 0 152.508 194.807"><path style="opacity:.98999999;vector-effect:none;fill:#fff;fill-opacity:1;stroke:none;stroke-width:2.4000001;stroke-linecap:butt;stroke-linejoin:miter;stroke-miterlimit:4;stroke-dasharray:none;stroke-dashoffset:0;stroke-opacity:1" d="M94.28 131.75a551.448 551.448 0 0 0-44.27 1.708l-2.831.792c-2.83.792 11.295 2.65 14.642 2.789 3.347.14 26.217 1.674 31.934 1.674 1.36 0 4.48-.034 8.411-.083l-.463 48.472s-.278 2.091-1.394 3.765c-1.115 1.673-.697 2.23-1.534 2.65-.07.034-.02.068.115.1-3.839.513-6.177 1.466-6.11 2.49.111 1.551 5.602 2.79 12.301 2.778 6.7-.013 12.101-1.273 12.101-2.824-.108-.205-.088-.007-.007-.093-.118-.795-1.678-1.54-4.296-2.055-.158-.226-.278-.4-.578-.815-1.812-2.51-2.37-2.51-2.789-4.184-.411-1.647-1.478-48.874-1.512-50.366 12.607-.176 28.981-.441 32.75-.533 15.466-.432 36.67-4.055 12.044-4.884-16.2-.082-22.922-.694-29.203-.694-3.534 0-13.9-.662-29.31-.687z" transform="translate(-29.05 -3.599)"/></svg>