<svg xmlns="http://www.w3.org/2000/svg" width="576.41" height="736.278" viewBox="0 0 152.508 194.807"><path style="fill:#fff;fill-opacity:1;stroke-width:.14986099" d="m144.446 197.427.395-.31v-12.943c0-8.468.052-12.976.15-13.036.082-.051.15-.46.15-.908v-.816h1.85c1.017 0 2.77-.044 3.895-.098 1.841-.088 2.027-.122 1.862-.337-.139-.18-.108-.175.125.023.257.219.613.262 2.133.262h1.824v1.208c0 .664.057 1.173.127 1.13.07-.044.216 2.717.324 6.135.11 3.418.254 6.214.323 6.214s.124.421.123.936c-.001.516.078 3.28.177 6.145l.179 5.207H160.746l-.091-3.259c-.05-1.793-.153-3.496-.227-3.784-.127-.495-.458-9.5-.453-12.314 0-.714-.057-1.32-.129-1.348-.071-.028-.162-1.45-.2-3.162l-.07-3.11 6.307.038 6.308.04.044 1.086c.024.598.098 1.086.165 1.086s.166.658.22 1.462c.186 2.733.45 5.357.546 5.432.09.07.362 2.174.554 4.305.047.513.13.905.185.871.055-.034.22.828.367 1.914.147 1.087.321 2.044.387 2.126.065.083.201.74.302 1.462.1.722.235 1.345.299 1.384.064.04.24.815.39 1.723.152.908.321 1.65.378 1.65.057 0 .221.675.366 1.5.145.824.32 1.498.39 1.498s.127.101.127.225c0 .249.89.302 2.152.13.545-.075.696-.157.696-.375 0-.154-.056-.28-.124-.28s-.25-.67-.406-1.488c-.156-.818-.326-1.46-.38-1.428-.052.033-.216-.63-.363-1.472s-.31-1.565-.364-1.606c-.11-.084-.62-3.036-.614-3.56.002-.185-.055-.337-.125-.337s-.216-.725-.324-1.61c-.108-.887-.246-1.645-.306-1.687-.112-.075-.591-4.713-.591-5.721 0-.301-.058-.57-.128-.598-.175-.068-.463-6.446-.576-12.75-.051-2.865-.15-5.208-.22-5.208-.068 0-.125-1.72-.125-3.821 0-2.448.054-3.822.15-3.822.094 0 .15-.936.148-2.51-.002-2.634.374-7.842.602-8.355.073-.165.245-1.345.382-2.622.138-1.278.31-2.346.383-2.373.073-.028.133-.23.132-.45-.002-.612.344-2.788.456-2.872.055-.041.22-.884.367-1.873.147-.99.317-1.832.377-1.874.06-.04.226-.783.37-1.648.143-.866.309-1.607.368-1.649.059-.04.23-.732.379-1.536.15-.803.32-1.46.38-1.46s.196-.507.302-1.125c.105-.618.24-1.124.297-1.124.058 0 .228-.59.378-1.311s.314-1.345.366-1.386c.052-.041.219-.615.37-1.274.153-.66.334-1.236.405-1.281.07-.046.17-.299.223-.562.072-.358.042-.48-.114-.48-.116 0-.32-.129-.455-.286-.135-.157-.616-.369-1.07-.47-1.577-.353-2.787.251-3.236 1.618-.115.35-.259.637-.32.637-.06 0-.147.151-.194.337a1.99 1.99 0 0 1-.327.637c-.133.165-.2.215-.147.112.074-.146-.429-.187-2.274-.187-1.304 0-4.135-.045-6.293-.1l-3.924-.098-.092-.368c-.087-.345-.167-.467-.633-.965-.347-.37-.583-.52-.984-.62-.416-.104-1.678.033-1.542.169.041.041-.193.208-.52.37s-.595.383-.595.491c0 .108-.063.22-.139.247-.126.045-.319 3.064-.563 8.817-.05 1.195-.142 2.206-.203 2.247-.06.042-.168 1.357-.24 2.923l-.13 2.847.056.834c.862 3.476 3.017-.338-.617 2.588.327-.08.337-.049.337 1.045 0 .62-.06 1.15-.132 1.178-.072.027-.218 1.986-.323 4.353-.105 2.366-.241 4.272-.302 4.234-.06-.037-.156 1.196-.212 2.741-.057 1.545-.131 2.913-.167 3.04-.064.231-1.305.351-7.182.693-.906.052-1.682.14-1.723.197-.07.094-3.75.373-7.343.556-.866.044-1.607.13-1.649.19-.07.105-1.032.18-5.132.405-.969.053-1.761.142-1.761.198 0 .055-1.332.182-2.96.281-1.628.1-3.348.221-3.821.27l-.862.09v8.007c0 6.365.038 7.984.187 7.894.127-.076.121-.03-.018.142-.173.213-.189 2.276-.095 12.916l.112 12.663h1.156c1.101 0 1.176-.022 1.565-.46l.41-.459.102-12.765.103-12.766 3.484-.04c2.152-.025 3.484-.097 3.484-.188s1.111-.147 2.923-.147h2.922v28.024h1.778c1.572 0 1.824-.036 2.173-.31zm.395-32.889c0-2.59.027-2.916.243-2.916.21 0 .215-.037.04-.263-.193-.25-.188-.25.106 0 .283.24.803.263 6.104.263h5.796v5.838l-2.81.04c-1.546.023-4.31.022-6.144-.002l-3.335-.043v-2.916zm14.686.156v-2.773h12.439v5.545h-12.439zm-31.47-1.739v-2.386l6.406.04 6.407.038.041 2.359.041 2.358-5.51.04c-3.032.021-5.934.016-6.449-.012l-.936-.05v-2.387zm14.986-3.656c-.194-.206-.319-.375-.277-.375.04 0 .233.169.427.375.193.206.318.374.277.374-.042 0-.234-.168-.427-.374zm-3.747-3.414c0-.022.49-.511 1.087-1.086l1.086-1.045-1.045 1.086c-.97 1.01-1.128 1.155-1.128 1.045zm-1.274-1.607c-.149-.164-.237-.3-.196-.3.041 0 .197.135.346.3.15.165.238.3.197.3-.042 0-.197-.135-.347-.3zm22.105-1.78c-.041-.05-.056-1.79-.033-3.864l.043-3.77 4.153.083c2.285.046 4.177.14 4.204.211.028.071.848.129 1.824.129.975 0 1.88.04 2.01.09.251.097.325.587.11.72-.07.044-.174 1.245-.23 2.67-.057 1.424-.142 2.904-.19 3.29l-.088.7-5.864-.082c-3.225-.045-5.898-.125-5.94-.176zm3.722-10.658h-3.273v-4.646h6.37c4.146 0 6.369.052 6.369.15 0 .082-.058.15-.128.15s-.21.927-.31 2.06c-.1 1.134-.213 2.156-.251 2.272-.058.176-.521.194-2.787.112-1.494-.054-4.19-.098-5.99-.098zm7.667-7.33c0-.077-1.075-.143-2.435-.15-2.861-.016-6.277-.18-5.96-.286-3.605 1.59-1.245-1.445-2.095-1.554v-1.41c0-.84.06-1.409.15-1.409.082 0 .15-.14.15-.31 0-.223.073-.289.262-.235.144.04 1.899.12 3.898.177 2 .057 3.673.163 3.718.236.045.073.25.132.457.132.211 0 .334-.065.282-.15-.051-.082-.025-.15.057-.15s.192.068.242.15c.051.083.68.15 1.396.152 1.82.002 2.426.119 2.426.467 0 .154-.055.28-.122.28s-.208.827-.314 1.836c-.266 2.535-.175 2.36-1.223 2.36-.489 0-.889-.061-.889-.136zm-4.42-7.654c-.083-.064-1.351-.15-2.819-.192-1.467-.042-2.7-.109-2.74-.149-.04-.04-.002-.933.083-1.986s.155-2.107.155-2.343c0-.408.032-.427.684-.427.375 0 .647.057.604.127-.043.07 1.976.216 4.487.325 2.511.109 4.566.254 4.566.322 0 .069.565.125 1.255.125s1.472.043 1.738.096c.445.09.475.132.39.555-.05.252-.151.495-.225.54-.074.046-.221.505-.327 1.02-.107.515-.244.936-.304.936-.061 0-.158.311-.215.692l-.104.692-3.54-.109c-1.946-.06-3.606-.16-3.689-.224z" transform="translate(-29.05 -3.599)"/></svg>