<?xml version="1.0" encoding="UTF-8" standalone="no"?>
<!-- Created with Inkscape (http://www.inkscape.org/) -->

<svg
   xmlns:dc="http://purl.org/dc/elements/1.1/"
   xmlns:cc="http://creativecommons.org/ns#"
   xmlns:rdf="http://www.w3.org/1999/02/22-rdf-syntax-ns#"
   xmlns:svg="http://www.w3.org/2000/svg"
   xmlns="http://www.w3.org/2000/svg"
   xmlns:sodipodi="http://sodipodi.sourceforge.net/DTD/sodipodi-0.dtd"
   xmlns:inkscape="http://www.inkscape.org/namespaces/inkscape"
   width="152.50838mm"
   height="194.80701mm"
   viewBox="0 0 152.50838 194.80701"
   version="1.1"
   id="svg3145"
   inkscape:version="0.92.4 (5da689c313, 2019-01-14)"
   sodipodi:docname="dinner-wineL.svg">
  <metadata
     id="metadata10">
    <rdf:RDF>
      <cc:Work
         rdf:about="">
        <dc:format>image/svg+xml</dc:format>
        <dc:type
           rdf:resource="http://purl.org/dc/dcmitype/StillImage" />
        <dc:title></dc:title>
      </cc:Work>
    </rdf:RDF>
  </metadata>
  <sodipodi:namedview
     id="namedview3147"
     pagecolor="#505050"
     bordercolor="#eeeeee"
     borderopacity="1"
     inkscape:pageshadow="0"
     inkscape:pageopacity="0"
     inkscape:pagecheckerboard="0"
     inkscape:document-units="mm"
     showgrid="false"
     fit-margin-top="0"
     fit-margin-left="0"
     fit-margin-right="0"
     fit-margin-bottom="0"
     inkscape:zoom="0.94867184"
     inkscape:cx="97.145934"
     inkscape:cy="354.83906"
     inkscape:window-width="1920"
     inkscape:window-height="1017"
     inkscape:window-x="1072"
     inkscape:window-y="394"
     inkscape:window-maximized="1"
     inkscape:current-layer="layer1"
     inkscape:snap-global="false"
     showguides="false" />
  <defs
     id="defs3142" />
  <g
     inkscape:label="Layer 1"
     inkscape:groupmode="layer"
     id="layer1"
     transform="translate(-29.050399,-3.598509)">
    <path
       sodipodi:nodetypes="cccccsscccsccccccccccsscsccsscccscccscscsccccccccccccssscsccccccsssssccssccscccsscsccccsccscccccccsssccscccccccscccsscccsccssscccccssscc"
       inkscape:connector-curvature="0"
       id="path832"
       d="m 113.15314,85.445554 c -51.792047,94.643616 -25.896024,47.321806 0,0 z M 93.071166,109.87972 c -1.232992,5.2e-4 -2.465882,0.0679 -2.510443,0.20154 -0.03392,0.10181 -0.174231,0.18507 -0.311608,0.18552 -1.003871,0.003 -2.122868,0.75723 -2.122868,1.42988 0,0.20232 -0.06187,0.36794 -0.137459,0.36794 -0.562126,0 -0.582666,5.13248 -0.02222,5.54488 0.056,0.0412 0.192603,0.29975 0.303855,0.57464 0.11126,0.2749 0.309986,0.60712 0.441317,0.73846 0.131334,0.13133 0.238747,0.2867 0.238747,0.3452 0,0.16451 2.206078,2.31577 2.578653,2.51457 0.395325,0.21096 0.616493,1.1176 0.350883,1.43764 -0.13679,0.16481 -0.123092,0.31533 0.06098,0.67128 0.205708,0.3978 0.22425,0.94112 0.13901,4.09432 -0.06499,2.40376 -0.154723,3.67322 -0.2651,3.74602 -0.01718,0.0113 -0.04259,0.0217 -0.0677,0.032 0.513181,-8.4e-4 1.046641,-0.005 1.54926,-0.004 l 0.03204,-3.88245 c 0.02735,-3.30263 0.06748,-3.92018 0.262517,-4.0628 0.293518,-0.21471 0.296413,-0.60241 0.0052,-0.71417 -0.123634,-0.0474 -0.224792,-0.17851 -0.224792,-0.29145 0,-0.23746 0.87345,-1.30276 1.068152,-1.30276 0.152799,0 0.390268,-0.20066 1.53479,-1.29657 0.464084,-0.44437 0.843875,-0.86094 0.843875,-0.92604 0,-0.0651 0.125346,-0.25312 0.278537,-0.41754 0.153191,-0.16444 0.360479,-0.54822 0.460955,-0.85266 0.100473,-0.30444 0.233291,-0.55346 0.295071,-0.55346 0.180382,0 0.464055,-1.81453 0.464055,-2.96933 0,-1.18069 -0.250168,-2.57554 -0.461989,-2.57555 -0.07559,0 -0.139308,-0.15148 -0.14211,-0.33693 -0.0026,-0.18546 -0.09423,-0.45453 -0.203086,-0.5979 -0.226822,-0.29874 -1.14146,-0.71365 -1.573549,-0.71365 -0.160626,0 -0.32018,-0.084 -0.354499,-0.18707 -0.04456,-0.13377 -1.277451,-0.19999 -2.510441,-0.19947 z m -0.149346,3.85041 c 0.285205,0 0.570153,0.008 0.786516,0.0227 0.432721,0.0302 0.07892,0.0548 -0.786516,0.0548 -0.865445,0 -1.219753,-0.0246 -0.787033,-0.0548 0.216366,-0.0151 0.501828,-0.0227 0.787033,-0.0227 z m 2.085662,0.15141 c 0.05206,0.002 0.09654,0.0159 0.121439,0.0408 0.0498,0.0498 -0.03839,0.0861 -0.196371,0.0791 -0.17458,-0.007 -0.2105,-0.0425 -0.09095,-0.0904 0.05409,-0.0217 0.113819,-0.0316 0.165882,-0.0295 z m -4.201811,5.2e-4 c 0.08149,0.001 0.157525,0.012 0.208254,0.0326 v -5.2e-4 c 0.101468,0.0411 -0.01783,0.0722 -0.265099,0.0692 -0.247267,-0.003 -0.330293,-0.0369 -0.184484,-0.0749 0.07291,-0.0188 0.159843,-0.0274 0.241329,-0.0264 z m -1.639178,0.2806 c 0.08729,0 0.158647,0.0675 0.158647,0.14987 0,0.0825 -0.02978,0.14986 -0.06615,0.14986 -0.03635,0 -0.107725,-0.0675 -0.158647,-0.14986 -0.05094,-0.0825 -0.02114,-0.14987 0.06615,-0.14987 z m -0.299723,0.31161 c 0.20178,0.0102 0.202965,0.0231 0.0088,0.0951 -0.123635,0.0458 -0.35967,0.14538 -0.524516,0.22118 -0.294907,0.13565 -0.295034,0.13424 -0.0088,-0.0951 0.159991,-0.12823 0.396026,-0.22818 0.524515,-0.22118 z m 0.907955,2.53573 c 0.08242,0 0.149863,0.0675 0.149863,0.14986 0,0.0825 -0.06744,0.14986 -0.149863,0.14986 -0.08242,0 -0.149862,-0.0675 -0.149862,-0.14986 0,-0.0825 0.06744,-0.14986 0.149862,-0.14986 z m -5.980512,5.32422 c -0.128746,-0.0161 -0.163814,0.13298 -0.163814,0.59997 -3e-6,0.36832 -0.06744,0.66972 -0.149863,0.66972 -0.08242,0 -0.149862,0.36122 -0.149862,0.80305 0,0.44183 -0.04227,1.10951 -0.09353,1.48363 -0.08216,0.59946 -0.144439,0.69036 -0.524518,0.76637 -0.344805,0.069 -0.43098,0.16598 -0.43098,0.48317 0,0.33437 -0.03518,0.36743 -0.223242,0.21136 -0.122745,-0.10186 -0.1861,-0.24515 -0.14056,-0.31885 0.121976,-0.19736 -0.330057,-0.32821 -0.760677,-0.22014 -0.309502,0.0777 -0.374137,0.18414 -0.374137,0.61547 0,0.28691 0.05948,0.52193 0.132292,0.52193 0.07281,0 0.167738,0.13488 0.210839,0.29972 0.05094,0.1948 0.0047,0.29973 -0.132292,0.29973 -0.115919,0 -0.216226,-0.0845 -0.222726,-0.18759 -0.0084,-0.13306 -0.03534,-0.12799 -0.09302,0.0171 -0.06859,0.17247 -0.101568,0.17247 -0.210839,0 -0.0948,-0.14953 -0.130074,-0.15422 -0.131775,-0.0171 -0.0013,0.10303 -0.105982,0.18759 -0.233061,0.18759 -0.127085,0 -0.361445,0.12115 -0.520383,0.26923 -0.225303,0.20991 -0.269174,0.3915 -0.198953,0.82423 0.05543,0.34161 0.173551,0.55501 0.30644,0.55501 0.132067,0 0.20533,0.13064 0.188619,0.33693 -0.06629,0.81838 -0.03119,0.86116 0.717269,0.86816 l 0.712103,0.007 -0.588595,0.2098 c -0.208214,0.0742 -0.409181,0.18233 -0.550355,0.28474 2.830809,-0.0642 5.557698,-0.10613 8.155059,-0.12661 0.09648,-0.13256 0.248259,-0.23736 0.370002,-0.24339 0.156292,-0.007 0.183173,-0.0413 0.06925,-0.0873 -0.103026,-0.0416 -0.187068,-0.17158 -0.187068,-0.28835 0,-0.1168 -0.114647,-0.21187 -0.254765,-0.21187 -0.191825,0 -0.212293,-0.043 -0.08268,-0.1726 0.129611,-0.12958 0.27029,-0.10748 0.569992,0.0889 0.575416,0.37703 1.415933,0.20688 1.415933,-0.2868 0,-0.20719 -0.100949,-0.37746 -0.240294,-0.40566 -0.195331,-0.0394 -0.165883,-0.12803 0.158128,-0.47698 0.562076,-0.6053 0.46986,-1.06525 -0.217556,-1.08365 -0.288481,-0.008 -0.625674,0.0564 -0.749308,0.14263 -0.185581,0.12932 -0.192347,0.11965 -0.03772,-0.0537 0.228213,-0.25593 0.247144,-0.99427 0.02894,-1.12913 -0.341857,-0.21128 -0.865724,0.0757 -0.965314,0.52917 -0.09777,0.44513 -0.374655,0.63227 -0.374655,0.25321 0,-0.10809 -0.143526,-0.35029 -0.318844,-0.53847 -0.241107,-0.25875 -0.441904,-0.32778 -0.824238,-0.28318 l -0.505396,0.0589 v -1.76837 c 0,-1.66835 -0.01694,-1.76785 -0.299723,-1.76785 -0.258143,0 -0.303729,-0.10941 -0.327628,-0.78703 l -0.02739,-0.78652 -0.05529,0.78652 c -0.03928,0.56147 -0.116985,0.78703 -0.271819,0.78703 -0.144603,0 -0.21749,0.16218 -0.218591,0.48679 -0.003,1.13302 -0.184457,2.0374 -0.39274,1.9575 -0.153762,-0.059 -0.205155,-0.43242 -0.205155,-1.48621 0,-0.83853 -0.06059,-1.40767 -0.149863,-1.40767 -0.08242,0 -0.149862,-0.26256 -0.149862,-0.58342 0,-0.38035 -0.07824,-0.61353 -0.224793,-0.66973 -0.02239,-0.009 -0.04258,-0.0142 -0.06098,-0.0165 z m 1.302761,3.28301 c 0.01019,-2.3e-4 0.02089,0.003 0.03204,0.01 0.08242,0.0509 0.14986,0.29089 0.14986,0.5333 0,0.24241 -0.06744,0.4408 -0.14986,0.4408 -0.08242,0 -0.149863,-0.23997 -0.149863,-0.5333 0,-0.27774 0.04646,-0.44904 0.117822,-0.45062 z"
       style="fill:#ffffff;stroke-width:0.14986099;fill-opacity:1" />
  </g>
</svg>
