<svg xmlns="http://www.w3.org/2000/svg" width="576.41" height="736.278" viewBox="0 0 152.508 194.807"><path style="fill:#fff;fill-opacity:1;stroke-width:.14986099" d="m66.59 198.095-.396-.31V184.84c0-8.467-.051-12.975-.15-13.036-.082-.05-.15-.46-.15-.908v-.815h-1.849a98.7 98.7 0 0 1-3.895-.098c-1.842-.089-2.028-.122-1.862-.338.138-.18.108-.175-.126.024-.257.218-.613.262-2.133.262h-1.824v1.208c0 .664-.057 1.172-.127 1.129-.07-.043-.215 2.718-.324 6.135-.109 3.418-.254 6.214-.323 6.214-.068 0-.124.422-.122.937 0 .515-.079 3.28-.177 6.144l-.18 5.208H50.29l.092-3.26c.05-1.792.152-3.495.226-3.784.127-.494.459-9.499.454-12.313-.001-.714.056-1.321.128-1.349.072-.027.162-1.45.2-3.161l.07-3.111-6.307.039-6.307.039-.044 1.086c-.025.598-.099 1.087-.165 1.087-.067 0-.166.657-.22 1.461-.186 2.734-.45 5.357-.547 5.433-.09.07-.361 2.174-.554 4.304-.046.513-.13.906-.184.872-.055-.034-.22.827-.368 1.914-.147 1.087-.32 2.044-.386 2.126-.066.082-.202.74-.302 1.462-.101.722-.236 1.344-.3 1.384-.063.039-.239.814-.39 1.722-.151.908-.321 1.651-.378 1.651-.056 0-.22.675-.366 1.499-.144.824-.32 1.498-.39 1.498s-.127.102-.127.225c0 .25-.889.303-2.152.13-.544-.075-.695-.156-.695-.375 0-.154.055-.28.123-.28s.251-.669.407-1.487c.155-.819.326-1.461.379-1.429.052.033.216-.63.363-1.472s.311-1.565.365-1.606c.11-.084.619-3.036.614-3.559-.002-.185.054-.337.124-.337s.216-.725.324-1.611c.108-.886.246-1.645.307-1.686.112-.076.59-4.713.59-5.722 0-.3.058-.57.129-.597.175-.069.463-6.447.575-12.75.052-2.865.15-5.209.22-5.209.069 0 .125-1.72.125-3.821 0-2.448-.053-3.821-.15-3.821-.093 0-.149-.936-.148-2.51.002-2.634-.373-7.843-.601-8.355-.074-.165-.246-1.345-.383-2.623-.137-1.278-.31-2.345-.383-2.373-.073-.027-.132-.23-.132-.45.002-.612-.343-2.787-.456-2.872-.054-.04-.22-.884-.367-1.873s-.316-1.832-.376-1.873c-.06-.041-.226-.783-.37-1.649-.143-.865-.31-1.607-.368-1.648-.06-.041-.23-.733-.38-1.536-.149-.804-.32-1.461-.38-1.461s-.195-.506-.301-1.124c-.106-.618-.24-1.124-.298-1.124-.057 0-.227-.59-.377-1.312-.15-.72-.315-1.345-.367-1.386-.052-.041-.219-.614-.37-1.274-.152-.659-.334-1.236-.404-1.28-.07-.046-.17-.3-.224-.563-.071-.357-.042-.48.115-.48.115 0 .32-.128.455-.285.134-.158.616-.37 1.07-.471 1.576-.353 2.786.252 3.236 1.618.115.35.258.637.319.637.06 0 .147.152.194.337.047.186.194.472.327.637.133.165.2.216.148.113-.074-.146.428-.188 2.274-.188 1.303 0 4.135-.045 6.293-.099l3.923-.098.093-.369c.086-.344.166-.466.632-.964.347-.371.583-.52.984-.62.417-.105 1.678.033 1.543.168-.042.042.192.208.52.37.327.162.595.383.595.492 0 .108.062.219.138.246.127.046.32 3.064.563 8.817.051 1.195.142 2.207.203 2.248.06.041.169 1.356.24 2.922l.13 2.848c.051 1.425.24 1.368.217 2.88-.327-.08.008.493.008 1.587 0 .62.059 1.15.131 1.177.073.028.218 1.987.323 4.353.106 2.367.242 4.272.302 4.235.06-.038.156 1.196.213 2.74.056 1.545.13 2.913.166 3.04.064.232 1.306.352 7.182.693.907.053 1.682.141 1.723.197.07.094 3.75.374 7.344.557.865.044 1.607.13 1.648.19.07.105 1.032.18 5.133.405.968.053 1.76.141 1.76.197 0 .056 1.333.182 2.96.282 1.628.1 3.348.22 3.822.27l.862.09v8.006c0 6.366-.039 7.984-.188 7.895-.127-.077-.12-.031.019.141.173.213.188 2.277.094 12.917l-.112 12.663h-1.156c-1.1 0-1.175-.022-1.565-.46l-.41-.46-.102-12.765-.102-12.766-3.485-.04c-2.152-.025-3.484-.097-3.484-.187 0-.092-1.11-.147-2.922-.147H70.54v28.024h-1.778c-1.572 0-1.824-.036-2.173-.311zm-.396-32.89c0-2.59-.027-2.916-.243-2.916-.209 0-.214-.037-.04-.262.194-.25.189-.25-.106 0-.282.24-.802.262-6.104.262h-5.795v5.839l2.81.04c1.545.022 4.31.021 6.144-.002l3.334-.043v-2.917zm-14.686.156v-2.772H39.07v5.545h12.438zm31.47-1.738v-2.386l-6.406.039-6.406.039-.042 2.358-.04 2.359 5.51.04c3.031.02 5.933.016 6.448-.012l.937-.051v-2.386zm-14.985-3.657c.193-.206.318-.375.277-.375-.041 0-.234.17-.427.375-.194.206-.318.375-.277.375.041 0 .233-.169.427-.375zm3.746-3.413c0-.023-.489-.512-1.086-1.087l-1.087-1.045 1.045 1.087c.97 1.009 1.128 1.155 1.128 1.045zm1.274-1.607c.15-.165.238-.3.196-.3-.04 0-.197.135-.346.3-.149.165-.237.3-.196.3.041 0 .197-.135.346-.3zm-22.104-1.78c.04-.051.055-1.79.032-3.864l-.042-3.77-4.154.082c-2.285.046-4.176.141-4.204.212-.027.07-.848.128-1.823.128-.976 0-1.88.041-2.01.091-.252.096-.326.586-.11.72.07.043.173 1.244.23 2.669.056 1.424.142 2.905.19 3.29l.087.701 5.864-.082c3.226-.046 5.898-.125 5.94-.177zm-3.723-10.659h3.273v-4.645h-6.37c-4.145 0-6.368.052-6.368.15 0 .082.057.15.127.15s.21.927.31 2.06.214 2.155.252 2.271c.057.176.52.195 2.786.113 1.494-.054 4.19-.099 5.99-.099zm-7.667-7.33c0-.076 1.076-.143 2.435-.15 2.862-.015 6.278-.18 5.96-.286 2.541.061 1.487-.052 1.999-.121l.096-1.432v-1.41c0-.84-.06-1.41-.15-1.41-.082 0-.15-.139-.15-.31 0-.223-.072-.288-.262-.235-.144.041-1.898.121-3.898.178-2 .057-3.673.163-3.718.235-.045.073-.25.133-.456.133-.212 0-.335-.066-.282-.15.05-.083.025-.15-.058-.15-.082 0-.191.067-.242.15-.051.082-.679.15-1.395.151-1.821.002-2.427.12-2.427.468 0 .154.055.28.122.28s.209.826.314 1.836c.266 2.535.176 2.36 1.223 2.36.489 0 .89-.062.89-.137zm4.421-7.654c.082-.064 1.35-.15 2.818-.192 1.468-.042 2.701-.109 2.74-.148.04-.04.003-.934-.082-1.987-.086-1.053-.156-2.107-.156-2.342 0-.408-.032-.428-.683-.428-.376 0-.648.057-.605.127.043.07-1.976.216-4.487.325-2.51.11-4.565.254-4.565.323 0 .068-.565.124-1.255.124s-1.473.044-1.738.097c-.446.089-.476.132-.391.554.05.252.152.496.225.541.074.046.221.504.328 1.02.106.514.243.935.304.935.06 0 .157.312.214.692l.104.693 3.54-.11c1.946-.059 3.607-.16 3.689-.224z" transform="translate(-29.05 -3.599)"/></svg>