<?xml version="1.0" encoding="UTF-8" standalone="no"?>
<!-- Created with Inkscape (http://www.inkscape.org/) -->

<svg
   xmlns:dc="http://purl.org/dc/elements/1.1/"
   xmlns:cc="http://creativecommons.org/ns#"
   xmlns:rdf="http://www.w3.org/1999/02/22-rdf-syntax-ns#"
   xmlns:svg="http://www.w3.org/2000/svg"
   xmlns="http://www.w3.org/2000/svg"
   xmlns:sodipodi="http://sodipodi.sourceforge.net/DTD/sodipodi-0.dtd"
   xmlns:inkscape="http://www.inkscape.org/namespaces/inkscape"
   width="152.50838mm"
   height="194.80701mm"
   viewBox="0 0 152.50838 194.80701"
   version="1.1"
   id="svg3145"
   inkscape:version="0.92.4 (5da689c313, 2019-01-14)"
   sodipodi:docname="dinner-wineC.svg">
  <metadata
     id="metadata10">
    <rdf:RDF>
      <cc:Work
         rdf:about="">
        <dc:format>image/svg+xml</dc:format>
        <dc:type
           rdf:resource="http://purl.org/dc/dcmitype/StillImage" />
        <dc:title></dc:title>
      </cc:Work>
    </rdf:RDF>
  </metadata>
  <sodipodi:namedview
     id="namedview3147"
     pagecolor="#505050"
     bordercolor="#eeeeee"
     borderopacity="1"
     inkscape:pageshadow="0"
     inkscape:pageopacity="0"
     inkscape:pagecheckerboard="0"
     inkscape:document-units="mm"
     showgrid="false"
     fit-margin-top="0"
     fit-margin-left="0"
     fit-margin-right="0"
     fit-margin-bottom="0"
     inkscape:zoom="0.94867184"
     inkscape:cx="97.145934"
     inkscape:cy="354.83906"
     inkscape:window-width="1920"
     inkscape:window-height="1017"
     inkscape:window-x="1072"
     inkscape:window-y="394"
     inkscape:window-maximized="1"
     inkscape:current-layer="layer1"
     inkscape:snap-global="false"
     showguides="false" />
  <defs
     id="defs3142" />
  <g
     inkscape:label="Layer 1"
     inkscape:groupmode="layer"
     id="layer1"
     transform="translate(-29.050399,-3.598509)">
    <path
       style="fill:#ffffff;stroke-width:0.14986099;fill-opacity:1"
       d="m 113.15314,85.445554 c -51.792047,94.643616 -25.896024,47.321806 0,0 z m -8.43256,12.229229 c -0.39381,-0.0103 -0.78803,0.04044 -1.10846,0.162264 -0.50837,0.193289 -0.6445,0.388472 -0.6475,0.927592 -10e-4,0.226658 -0.0695,0.411861 -0.15193,0.411861 -0.0825,0 -0.14986,0.134872 -0.14986,0.299723 0,0.164848 0.0675,0.299722 0.14986,0.299722 0.19248,0 0.203,4.550495 0.0114,4.910295 -0.0762,0.14313 -0.20907,0.8952 -0.29507,1.67173 -0.086,0.77654 -0.21262,1.45092 -0.28112,1.49862 -0.0685,0.0477 -0.25498,0.64343 -0.41445,1.32343 -0.15947,0.67999 -0.33312,1.2361 -0.38602,1.2361 -0.0529,0 -0.2161,0.62406 -0.36277,1.38648 -0.14667,0.76241 -0.31405,1.41969 -0.37155,1.46089 -0.0575,0.0412 -0.19856,0.64817 -0.31368,1.34876 -0.16578,1.0073 -0.19981,2.99254 -0.16381,9.48779 l 0.0429,7.71426 c 3.09885,0.0426 5.96847,0.10427 8.51214,0.17621 l 0.10025,-7.67446 c 0.0801,-6.14893 0.0606,-8.47717 -0.0806,-9.55394 -0.10264,-0.78303 -0.23448,-1.45742 -0.29248,-1.49862 -0.058,-0.0412 -0.22746,-0.66475 -0.37672,-1.38596 -0.14927,-0.7212 -0.31636,-1.31155 -0.37156,-1.31155 -0.0551,0 -0.22198,-0.52238 -0.37052,-1.16117 -0.14854,-0.63878 -0.33248,-1.20038 -0.40928,-1.24798 -0.0767,-0.0476 -0.2199,-0.84025 -0.31781,-1.76113 -0.0979,-0.92088 -0.23057,-1.67432 -0.29507,-1.67432 -0.0645,0 -0.1173,-0.91041 -0.1173,-2.02313 0,-1.24884 0.0574,-2.02313 0.14986,-2.02313 0.24493,0 0.18776,-2.231209 -0.0636,-2.482539 -0.31312,-0.313113 -0.96888,-0.500629 -1.62523,-0.517798 z m -1.34358,6.072497 0.017,1.27382 c 0.0172,1.27987 -0.35293,3.90134 -0.57103,4.04472 -0.0643,0.0422 -0.20072,0.43079 -0.30334,0.86351 -0.1026,0.43273 -0.23861,0.78652 -0.3023,0.78652 -0.0637,0 -0.23832,0.59033 -0.38758,1.31154 -0.14926,0.72121 -0.31785,1.34476 -0.37465,1.38597 -0.0568,0.0412 -0.20594,0.61443 -0.33177,1.27382 -0.12582,0.65939 -0.23642,1.03031 -0.24443,0.82424 -0.0208,-0.50628 0.44971,-3.0532 0.58137,-3.14709 0.0578,-0.0412 0.22744,-0.66476 0.37723,-1.38597 0.14979,-0.7212 0.32341,-1.31155 0.38551,-1.31155 0.0621,0 0.19663,-0.46934 0.29921,-1.04334 0.10257,-0.574 0.24345,-1.00842 0.31315,-0.96532 0.0697,0.0431 0.1325,-0.0436 0.1385,-0.19275 0.006,-0.1491 0.099,-1.04684 0.2067,-1.99471 z"
       id="path3417"
       inkscape:connector-curvature="0"
       sodipodi:nodetypes="cccccsssccccsccccccccccssccssscccccccscccccssccccc" />
  </g>
</svg>
