<svg xmlns="http://www.w3.org/2000/svg" width="576.41" height="736.278" viewBox="0 0 152.508 194.807"><path style="fill:#fff;stroke-width:.149861;fill-opacity:1" d="M93.932 61.33c-.199-.041-.457-.17-.573-.286-.116-.116-.29-.21-.388-.21-.235 0-.944-.761-1.169-1.255-.099-.217-.229-.394-.289-.394-.06 0-.23-.456-.378-1.012-.149-.556-.327-1.05-.396-1.098-.07-.048-.206-.84-.304-1.76-.098-.922-.23-1.675-.295-1.675-.065 0-.118-.133-.118-.295 0-.162-.202-.501-.45-.754-.247-.253-.449-.525-.449-.605a.148.148 0 0 0-.15-.145c-.082 0-.15.094-.15.21 0 .114-.1.247-.224.294a.366.366 0 0 0-.225.31c0 .124-.135.297-.3.385-.165.089-.3.259-.3.379s-.135.302-.3.405c-.164.103-.3.27-.3.372 0 .227-2.38 2.59-2.608 2.59-.092 0-.25.136-.354.3-.102.165-.271.3-.374.3-.103 0-.272.135-.375.3-.103.165-.283.3-.4.3-.117 0-.302.088-.41.195-.11.107-.502.316-.873.463-.37.148-.711.33-.757.404-.046.074-.485.214-.975.31-.49.097-.936.246-.992.33-.142.215-3.997.222-4.137.007-.06-.09-.318-.205-.576-.255-.87-.169-3.053-1.93-3.053-2.464 0-.11-.099-.237-.22-.283-.12-.046-.26-.212-.309-.369-.158-.498-.524-.736-1.13-.736-.324 0-.59-.068-.59-.15 0-.083-.34-.15-.756-.15-.951 0-2.832-.42-3.105-.693-.113-.113-.297-.206-.41-.206-.111 0-.32-.118-.465-.262-.144-.145-.3-.269-.348-.276-.362-.054-.824-.415-1.696-1.323-.557-.579-1.012-1.105-1.012-1.17 0-.064-.135-.251-.3-.416-.165-.165-.3-.405-.3-.533 0-.129-.06-.196-.134-.15-.075.045-.257-.254-.405-.666-.148-.412-.316-.749-.373-.749-.057 0-.225-.455-.373-1.012-.148-.556-.316-1.045-.372-1.086-.057-.041-.19-.564-.296-1.162-.106-.597-.245-1.086-.309-1.086s-.137-.219-.163-.486c-.04-.412-.151-.535-.734-.81-.787-.373-2.05-1.57-2.162-2.05-.14-.6.1-.713 1.74-.822l1.558-.103.04-3.416c.032-2.657.082-3.392.226-3.306.143.086.145.062.008-.107-.114-.14-.194-1.063-.225-2.583-.035-1.72-.101-2.396-.241-2.482-.317-.196-.4-1.13-.124-1.406.148-.147.177-.259.077-.292-.236-.08-.256-1.953-.021-2.032a.297.297 0 0 0 .185-.265c0-.112.123-.292.272-.4.194-.14.283-.429.312-1.009.052-1.03.328-1.884.61-1.884.12 0 .322.202.45.45.126.247.277.47.336.497.058.026.151.447.206.936.06.521.214 1.018.374 1.203.354.408.506 1.44.314 2.134-.102.368-.102.578 0 .64.091.057.11.342.048.714-.057.34-.135 2.29-.172 4.332-.05 2.83-.11 3.69-.247 3.613-.128-.073-.126-.044.008.1.132.143.187.85.187 2.4v2.197l.695.095c.383.053.922.096 1.2.096.276 0 .503.06.503.132 0 .073.14.17.313.214.246.065.29.154.206.418a2.04 2.04 0 0 1-.388.639c-.154.166-.281.36-.281.432 0 .072-.065.09-.143.042-.08-.049-.251.075-.382.276-.132.2-.455.451-.719.558-.264.107-.522.256-.573.331-.052.076-.403.172-.78.215-.676.076-.684.083-.594.545.05.258.138.503.196.544.058.04.195.429.304.861.11.433.248.787.307.787.06 0 .224.37.366.821.142.452.302.795.355.762.053-.033.222.245.376.617.24.58 1.033 1.482 2.167 2.464.154.134.558.366.899.516.34.15.619.317.619.37 0 .054.286.183.637.288.35.104.67.239.711.298.073.106 1.982.625 2.05.557.062-.062-.3-1.372-.4-1.448-.139-.103-.45-1.736-.45-2.356 0-.28-.058-.473-.129-.43-.07.044-.173-1.284-.227-2.95a740.58 740.58 0 0 0-.192-5.303l-.094-2.273-.541-.097c-.753-.134-1.515-.415-1.515-.558 0-.066-.098-.12-.218-.12s-.592-.365-1.05-.81c-.584-.572-.83-.927-.83-1.2 0-.234.084-.387.212-.387.117 0 .236-.071.265-.158.029-.087.72-.221 1.534-.298.815-.077 1.489-.158 1.496-.18.008-.021-.02-2.823-.06-6.226-.056-4.545-.123-6.217-.253-6.297-.397-.245-.71-1.977-.357-1.977.086 0 .086-.187 0-.486-.3-1.043-.102-2.362.41-2.736.13-.096.23-.37.221-.611-.033-.952.159-2.001.423-2.306l.276-.318.376.349c.207.192.423.6.48.905.058.306.165.557.239.557.073 0 .133.2.133.444 0 .464.415 1.5.674 1.686.083.06.15.666.15 1.349 0 .683.056 1.328.125 1.435.14.217-.189 1.68-.378 1.68-.067 0-.122.678-.122 1.507 0 .83.057 1.473.127 1.43.069-.043.166 2.085.216 4.728.05 2.644.12 4.837.157 4.874.037.036.683.106 1.435.155 1.75.114 2.334.52 1.73 1.205-.914 1.04-1.415 1.537-1.55 1.537-.086 0-.228.134-.316.3-.089.164-.256.299-.371.299-.116 0-.251.065-.3.144-.125.203.21 5.3.354 5.396.106.072.47 1.627.535 2.288.014.143.173.418.353.61.18.191.328.4.328.462 0 .165.85.99 1.019.99.079 0 .226.101.328.224.102.123.228.197.28.166.149-.09.466.314.35.443-.057.063-.021.067.08.01.208-.12 1.39.193 1.39.367 0 .062.489.196 1.086.298 1.128.193 3.191.03 3.391-.267.093-.138.58-.378.817-.403.069-.007.211-.131.317-.275.105-.144.26-.262.343-.262.163 0 .784-.709 1.389-1.586.206-.298.478-.656.604-.794.126-.139.357-.587.513-.997.157-.41.362-.821.455-.915.094-.094.256-.549.36-1.012.103-.462.24-.84.302-.84.064 0 .207-.389.318-.862.112-.474.247-.896.301-.937.112-.085.594-2.398.594-2.85 0-.164.06-.297.132-.297.073 0 .18-.45.24-1 .058-.55.138-1.081.175-1.18.038-.099-.033-.281-.157-.406-.124-.124-.185-.268-.134-.319.052-.05-.008-.092-.131-.092-.124 0-.32-.186-.437-.413-.117-.226-.272-.455-.346-.508-.073-.053.009-.249.182-.435.276-.296.503-.347 1.819-.41l1.504-.073.018-1.366c.012-.95.052-1.23.132-.917.063.248.122-1.96.132-4.908.01-2.946-.04-5.357-.112-5.357-.07 0-.247-.374-.39-.832-.233-.737-.237-.86-.04-1.086.122-.14.198-.356.169-.48-.03-.123-.096-.41-.148-.635-.15-.651.071-1.695.455-2.142.278-.323.364-.628.41-1.447.033-.571.132-1.085.22-1.142.09-.057.21-.256.268-.441.058-.185.185-.337.282-.336.2 0 .702.811.702 1.135 0 .117.067.213.15.213.082 0 .15.131.15.292 0 .616.336 1.82.575 2.06.34.34.36 2.384.024 2.596-.14.089-.156.143-.043.145.35.004.473.507.305 1.242-.09.39-.219.708-.287.708-.069 0-.125 2.394-.125 5.32s.039 5.32.086 5.32c.047 0 .176-.09.287-.201.111-.111.629-.285 1.15-.386.523-.101 1.067-.246 1.21-.323.143-.076.84-.139 1.548-.139 1.23 0 1.307-.02 1.737-.45.247-.247.63-.493.85-.547.22-.054.449-.172.507-.262.067-.102.702-.165 1.672-.165 1.477 0 1.556-.015 1.415-.278-.245-.457-.009-1.288.411-1.448.202-.077.367-.2.367-.272 0-.074.404-.22.899-.324.495-.105.9-.25.9-.32a.13.13 0 0 0-.13-.13c-.152 0-.62-1.165-.62-1.541 0-.142-.068-.257-.15-.257-.214 0-.188-1.311.027-1.383.126-.042.183-.744.195-2.396.013-1.7.072-2.403.216-2.577.146-.175.169-.452.085-1.026-.102-.702-.143-1.382-.223-3.708-.026-.735.202-1.499.446-1.499.084 0 .153-.1.153-.224s-.1-.225-.222-.225-.267-.182-.323-.403c-.11-.442.178-1.74.404-1.82.205-.073.174-.632-.032-.587-.096.02-.281-.165-.412-.412-.132-.247-.29-.472-.351-.5-.17-.075-.135-1.523.037-1.523.082 0 .15-.093.15-.206 0-.113.253-.423.562-.688.514-.441.632-.478 1.386-.423.674.05.92.148 1.349.543.51.468.524.514.524 1.6 0 1.036-.031 1.148-.424 1.512-.336.312-.403.475-.325.787.054.216.166.435.248.486.082.05.187.375.234.72.069.515.026.682-.237.927-.393.366-.396.453-.032.873.248.285.289.57.29 2.009 0 1.855-.083 2.546-.29 2.417-.076-.046-.138.15-.138.436 0 .287-.038.62-.083.739-.053.137.034.248.235.3.282.074.318.192.32 1.032.004 1.672.083 3.322.201 4.19.124.914-.237 2.486-.626 2.722-.364.222-.202.52.336.621.293.055.655.223.805.373.15.15.35.298.445.33.28.093.379 1.094.132 1.34-.184.185.006.213 1.414.213.937 0 1.673.065 1.734.153.06.084.302.239.54.344.238.105.564.356.723.559.271.345.38.368 1.702.368.778 0 1.413.058 1.413.13 0 .07.342.169.76.218.864.102 1.788.403 1.788.581 0 .066.067.12.15.12.097 0 .15-1.817.15-5.151 0-4.196-.042-5.27-.225-5.789-.254-.72-.293-1.438-.085-1.567.076-.047.095-.27.04-.496-.259-1.075-.012-2.493.515-2.957.093-.082.206-.58.25-1.108.044-.526.137-.998.208-1.049.07-.05.246-.276.39-.503.144-.227.332-.412.416-.412.268 0 .6 1.034.61 1.898.007.549.094.923.257 1.104.676.75.696.807.705 2.09.005.702.059 1.425.12 1.607.136.405-.143 1.503-.464 1.824-.208.208-.224.7-.138 4.137.054 2.145.098 4.898.098 6.119 0 1.441.053 2.187.15 2.126.082-.05.15-.03.15.046s.624.174 1.386.217c.762.043 1.512.13 1.665.192.414.17.224 1.05-.348 1.608-.278.272-.456.6-.456.84-.002.753.351 2.704.475 2.627.069-.043.125.088.125.29 0 .524.464 2.708.595 2.797.06.042.228.564.373 1.162.145.597.309 1.086.364 1.086.056 0 .191.304.3.675.11.37.25.674.31.674.061 0 .222.283.358.628.24.612.237.638-.09 1.01-.292.332-.295.348-.025.122.418-.35.643-.33.803.076.145.369.81 1.214 1.283 1.63.986.866 1.232 1.046 1.535 1.125.185.048.303.14.263.205-.077.125 1.534.45 2.232.45.672 0 2.485-.335 2.417-.446-.035-.057.304-.22.753-.361.45-.142.818-.315.818-.384 0-.07.162-.167.361-.217.47-.118 1.737-1.45 1.737-1.827 0-.105.093-.284.206-.397.217-.217.693-2.085.693-2.718 0-.203.066-.392.147-.42.08-.027.191-1.101.248-2.41.09-2.087.074-2.36-.134-2.36-.13 0-.462-.22-.739-.487a7.648 7.648 0 0 0-.912-.753c-.224-.146-.408-.358-.408-.47 0-.114-.102-.245-.225-.292-.347-.134-.275-.807.112-1.05.186-.115.908-.254 1.605-.309.697-.054 1.29-.12 1.317-.148.027-.027.12-2.266.208-4.976.148-4.616.116-7.19-.109-8.725-.053-.366-.03-.714.053-.798.094-.093.1-.366.017-.736-.164-.729.064-1.837.466-2.269.185-.198.33-.637.392-1.19.054-.481.15-.876.21-.876.062 0 .154-.185.204-.412.222-.996.917-1.213 1.092-.34.05.249.142.453.204.453.063 0 .142.479.175 1.065.047.84.122 1.11.354 1.28.253.186.296.407.307 1.595.007.759.063 1.532.123 1.72.118.363-.141 1.335-.434 1.628-.206.205-.376 4.476-.376 9.45v3.175l.636.079c.35.043 1.036.12 1.523.172 1.515.161 1.679.714.553 1.864-.404.413-.811.75-.904.75-.093 0-.206.095-.25.212-.045.116-.532.33-1.082.477-.55.147-1.05.339-1.111.426-.06.088-.111 1.154-.113 2.37 0 1.215-.059 2.21-.128 2.21-.07 0-.168 1.298-.218 2.885-.093 2.925-.33 5.219-.554 5.357-.068.042-.172.346-.232.675-.06.33-.173.724-.251.876-.118.227-.095.263.132.2.151-.042.629-.156 1.062-.254.432-.098.786-.233.786-.3 0-.068.203-.168.452-.223.248-.054.534-.179.637-.277.102-.097.472-.304.822-.46.35-.155.637-.34.637-.41 0-.069.084-.127.187-.13.103-.001.457-.237.786-.524.328-.286.641-.521.695-.521.054 0 .206-.27.338-.6.132-.33.302-.6.38-.6.076 0 .216-.235.312-.524.095-.288.221-.524.28-.524.059 0 .237-.388.395-.862.158-.474.344-.901.413-.95.136-.096.555-1.561.558-1.953.001-.179-.196-.269-.747-.342-.412-.055-.75-.16-.75-.234 0-.074-.143-.18-.32-.236-.175-.056-.68-.458-1.123-.893-1.309-1.288-1.084-1.703 1.069-1.969l1.049-.13.043-5.469c.037-4.765.01-5.6-.214-6.472-.191-.747-.214-1.053-.089-1.204.116-.139.125-.387.029-.796-.166-.708.079-2.148.385-2.265.12-.047.277-.536.385-1.205.178-1.105.517-1.695.973-1.695.251 0 .509.806.522 1.633.009.588.248 1.568.278 1.143.006-.08.129.021.273.225.203.286.264.688.27 1.767.006 1.048.063 1.431.225 1.534.12.075.15.138.067.14-.082 0-.276.396-.43.878-.262.82-.273 1.239-.169 6.37l.111 5.492.919.002c1.52.003 2.033.135 2.137.552.116.461-.33 1.317-.798 1.53-.19.087-.346.22-.346.294 0 .076-.283.25-.629.389-.91.364-1.096.661-1.31 2.098-.105.704-.241 1.28-.303 1.28s-.222.44-.355.98c-.133.54-.345 1.083-.471 1.21-.126.126-.23.354-.23.507 0 .153-.103.382-.23.509-.126.126-.33.468-.451.76-.122.29-.28.53-.352.53-.072 0-.17.117-.218.262-.192.57-1.49 1.985-1.821 1.985-.084 0-.236.135-.34.3-.102.165-.284.3-.404.3-.12 0-.338.13-.486.287-.147.158-.47.337-.718.398-.247.06-.487.168-.534.239-.118.179-2.027.569-2.8.572-.35.002-.637.07-.637.152 0 .083-.339.15-.753.15-.667 0-.77.043-.897.379-.15.395-.297.603-.86 1.216-.186.202-.337.415-.337.473 0 .347-2.23 1.828-2.753 1.828-.135 0-.245.061-.245.136 0 .22-1.73.355-3.087.242-.693-.058-1.23-.152-1.195-.21.035-.057-.384-.188-.932-.292-.547-.104-1.034-.252-1.081-.328-.047-.076-.384-.243-.748-.372-.364-.128-.699-.282-.743-.341-.045-.06-.317-.24-.606-.4-.288-.16-.6-.362-.693-.45a13.546 13.546 0 0 0-.65-.532c-.558-.434-1.991-1.862-2.59-2.58-.227-.27-.547-.654-.712-.853-.165-.198-.3-.4-.3-.45 0-.048-.169-.285-.375-.524-.206-.24-.374-.492-.374-.562 0-.07-.068-.127-.15-.127-.083 0-.15.072-.15.16 0 .088-.224.375-.497.637-.472.453-.507.562-.685 2.123-.103.905-.236 1.68-.296 1.724-.06.042-.229.6-.377 1.239-.148.638-.323 1.16-.39 1.16-.066 0-.159.153-.205.34-.102.406-.872 1.257-1.596 1.766-.426.298-.7.366-1.445.357-.652-.008-.995-.084-1.173-.262-.138-.139-.33-.253-.428-.254-.277-.004-1.343-1.157-1.233-1.334.057-.092.013-.126-.104-.082-.194.075-.713-.844-.713-1.264 0-.1-.059-.146-.13-.102-.126.077-.708-1.654-.643-1.91.017-.068-.038-.08-.122-.029-.085.052-.154.024-.154-.064 0-.237-.215-.192-.577.122-.178.154-.643.369-1.034.476-.392.108-.748.25-.793.316-.045.066-.66.165-1.367.219-1.156.089-1.278.127-1.212.378.04.153.132.279.205.279.073 0 .133.202.133.45 0 .247-.054.45-.12.45s-.201.225-.301.5c-.202.56-.691.848-1.437.848-.684 0-1.44-.286-1.44-.544 0-.118-.1-.254-.224-.301-.258-.1-.328-1.553-.075-1.553.082 0 .15-.091.15-.202 0-.146-.34-.23-1.217-.297-.67-.052-1.293-.149-1.386-.216-.094-.067-.54-.25-.994-.406-.453-.156-.913-.372-1.022-.48-.388-.386-.592-.201-.857.777-.145.536-.316.974-.38.974-.063 0-.193.236-.288.524-.096.289-.22.525-.275.525-.056 0-.188.195-.294.434-.329.743-1.373 1.664-1.886 1.664-.12 0-.24.064-.268.143-.06.174-1.111.307-1.61.204zm1.335-2.292c0-.081.156-.186.345-.234.19-.048.578-.386.862-.753.284-.367.632-.808.773-.98.14-.174.33-.544.423-.824.093-.28.23-.51.307-.51.076 0 .138-.1.138-.224s-.065-.225-.144-.225c-.08 0-.221-.286-.315-.637-.093-.35-.298-.757-.455-.905-.157-.147-.285-.352-.285-.454 0-.23-.867-1.591-1.265-1.986-.233-.232-.504-.289-1.385-.289-.802 0-1.095.053-1.096.196 0 .108-.057.162-.125.12-.068-.043-.252.729-.407 1.714-.156.986-.337 1.792-.402 1.792s-.05.118.034.262c.084.144.248.834.365 1.532.117.699.284 1.294.373 1.324.089.03.161.13.161.223s.186.35.412.57c.308.3.575.406 1.05.418.35.01.636-.05.636-.13zm22.63.007c0-.077.135-.183.302-.236.31-.099.746-.94.746-1.441 0-.155.06-.282.132-.282.072 0 .211-.556.308-1.236.097-.68.2-1.354.23-1.499.028-.144-.007-.226-.078-.182-.072.044-.175-.26-.23-.674-.055-.415-.153-.755-.216-.755-.064 0-.161-.387-.216-.861l-.1-.862-1.077.015c-1.51.02-1.555.03-1.653.322-.125.373-.44.841-.659.982a.439.439 0 0 0-.187.326c0 .114-.104.31-.23.437-.127.127-.337.486-.467.798-.13.312-.313.615-.406.674-.296.185-.206 1.5.13 1.883.164.188.265.363.224.389-.042.025.175.352.48.725.307.373.51.732.45.797-.058.065-.031.075.061.023.092-.053.288.038.435.2.148.163.36.297.47.297.11 0 .202.067.202.15 0 .082.303.15.674.15.37 0 .674-.063.674-.14zm-2.829-.273c.187-.237.181-.243-.056-.056-.145.113-.263.23-.263.262 0 .123.123.044.32-.206zm22.46-.543c0-.031-.118-.15-.262-.263-.238-.186-.243-.18-.057.057.196.25.32.329.32.206zm-58.595-.693c0-.082.131-.15.292-.15.307 0 1.078-.298 1.206-.467.041-.054.34-.208.662-.343.57-.237.598-.234.974.096l.387.34-.362-.412c-.2-.226-.335-.431-.3-.455 1.178-.825 2.985-2.494 2.985-2.757 0-.072.186-.307.412-.522.472-.447.623-.632 1.023-1.253.158-.245.44-.569.625-.719.43-.348.425-.485-.037-.913-.206-.19-.374-.483-.374-.649a.72.72 0 0 0-.225-.488.713.713 0 0 1-.225-.482c0-.382.438-1.304.782-1.648.147-.147.267-.364.267-.482 0-.117.084-.303.187-.412.222-.234.503-.804.646-1.31.057-.2.23-.5.384-.665.155-.166.282-.39.282-.499 0-.108.061-.196.137-.196.075 0 .379-.33.674-.732l.537-.732v-5.697l-.5-.058c-.276-.033-.572.017-.659.11-.086.091-.242.802-.347 1.577-.104.776-.236 1.444-.293 1.485-.057.042-.222.868-.367 1.836-.145.969-.313 1.761-.373 1.761s-.232.54-.383 1.199c-.15.66-.325 1.199-.388 1.199-.064 0-.223.37-.355.824-.132.453-.294.824-.361.824s-.21.27-.32.6c-.108.33-.244.6-.3.6-.057 0-.23.303-.382.673-.153.371-.324.675-.38.675-.056 0-.214.236-.351.524-.137.289-.313.525-.392.525-.078 0-.143.1-.143.223s-.135.308-.3.411c-.164.103-.3.255-.3.339-.003.214-1.281 1.575-1.48 1.575-.09 0-.25.134-.352.3-.103.164-.256.3-.339.3-.083 0-.352.105-.597.233s-.56.203-.7.166c-.174-.045-.23.002-.173.148.054.14-.079.274-.386.39-.257.097-.468.218-.468.269 0 .05-.523.22-1.161.375-.64.156-1.199.335-1.244.397-.045.062-.775.159-1.622.214l-1.54.101.39.335c.214.185.607.424.873.533.265.108.572.284.68.39.11.107.463.237.787.288.324.052.59.153.59.225 0 .072.606.131 1.348.131.8 0 1.349-.06 1.349-.15zm56.797.018c0-.208.713-.292.913-.108.133.122.152.116.074-.022-.058-.103-.039-.188.042-.188.082 0 .237-.086.346-.193.11-.106.451-.311.76-.456.31-.145.562-.33.562-.412 0-.08.147-.202.327-.268.22-.082-.176-.154-1.23-.223-.855-.056-1.592-.158-1.637-.228-.045-.07-.401-.173-.79-.23-.39-.058-.746-.166-.792-.24-.046-.074-.174-.1-.284-.057-.11.042-.296-.018-.412-.134-.115-.116-.46-.294-.766-.394-.306-.101-.595-.247-.643-.325-.048-.078-.317-.237-.598-.355a3.402 3.402 0 0 1-.842-.522c-.183-.17-.403-.31-.49-.311-.18-.003-.91-.73-.91-.905 0-.062-.168-.286-.374-.498-.711-.732-.926-1.02-1.139-1.53-.118-.281-.28-.511-.362-.511-.08 0-.147-.089-.147-.197 0-.108-.118-.327-.263-.487-.404-.448-.685-1.071-.592-1.314.047-.122-.077-.37-.28-.56-.2-.188-.364-.396-.364-.461 0-.066-.17-.491-.378-.946-.208-.454-.418-1.03-.468-1.278-.05-.249-.144-.452-.21-.452-.064 0-.24-.675-.39-1.499-.15-.824-.324-1.498-.387-1.498s-.115-.152-.114-.338c.002-.57-.505-3.63-.616-3.709-.057-.04-.128-.243-.157-.45-.053-.381-.144-.401-.99-.217-.334.073-.336.093-.336 2.838v2.765l.487.541c.268.298.633.703.813.9.179.197.413.613.52.925.107.311.314.727.461.923.147.197.266.437.266.534 0 .097.122.307.271.467.149.16.368.51.486.778.119.267.256.487.306.487.05 0 .21.264.355.586l.265.587-.563.912c-.31.501-.62.912-.691.912-.071 0-.129.096-.129.213 0 .186.345.606 1.5 1.826.164.173.298.381.298.462 0 .081.302.411.67.734.37.322.673.67.675.774.002.103.067.187.144.187.076 0 .464.337.861.748.398.412.804.75.902.75.1 0 .234.086.3.19.066.103.389.322.717.486.329.164.687.383.798.486.11.103.465.23.789.281.323.052.588.153.588.225 0 .072.641.13 1.424.13.783 0 1.424-.059 1.424-.132zM73.987 53.34c0-.082.24-.15.533-.15.762 0 2.614-.445 2.614-.628 0-.086.196-.126.44-.09.25.036.429-.001.413-.087-.016-.083.106-.18.271-.215.165-.035.334-.106.375-.159.041-.052.295-.196.564-.32.46-.21.34-.224-1.916-.224-1.432 0-2.449-.061-2.513-.15-.058-.083-.465-.272-.903-.422-.438-.15-.917-.385-1.065-.524a23.143 23.143 0 0 0-.812-.703c-.298-.247-.543-.533-.545-.636-.002-.103-.08-.188-.175-.188-.122 0-.149.438-.092 1.536.086 1.688.35 2.81.662 2.81.11 0 .2.068.2.15 0 .085.426.15.975.15.55 0 .974-.065.974-.15zm65.724.016c-.045-.074.073-.173.264-.22.291-.074.376-.242.524-1.046.238-1.294.235-3.59-.004-3.17a1.929 1.929 0 0 1-.467.51 4.289 4.289 0 0 0-.6.562c-.168.193-.387.35-.487.35-.1 0-.214.085-.254.188-.04.103-.401.283-.803.4-.402.116-.779.284-.838.374-.069.106-.942.163-2.495.163-2.317 0-2.833.085-1.745.29.29.054.526.16.526.235 0 .076.27.21.6.299.33.089.599.216.599.282 0 .154 2.086.617 2.777.617.286 0 .52.068.52.15 0 .085.427.15.983.15.54 0 .945-.06.9-.134zm-74.64-.915c.149-.165.237-.3.196-.3-.042 0-.197.135-.346.3-.15.165-.238.3-.197.3.041 0 .197-.135.346-.3zm11.464-1.396c0-.026-.22-.245-.487-.487l-.487-.44.44.487c.41.454.534.556.534.44zm53.8-.01c0-.03-.118-.149-.262-.262-.238-.186-.243-.181-.057.057.196.25.319.329.319.205zm-6.575-.955c.186-.237.181-.243-.057-.056-.144.113-.262.23-.262.262 0 .123.123.044.32-.206zm1.499-1.498c.186-.238.18-.243-.057-.057-.144.113-.262.231-.262.262 0 .124.123.044.319-.205zm-29.57-.036c.107 0 .163-.055.122-.12-.04-.065.125-.25.366-.412.721-.483.9-1.053.84-2.686-.028-.792-.115-1.504-.193-1.582-.09-.089-.29-.004-.543.23-.27.25-.574.372-.932.372h-.531v-1.48l-.412.214c-.532.277-.883.275-.991-.008-.048-.123-.257-.225-.466-.225-.378 0-.38.003-.378 1.387 0 1.333.197 2.51.419 2.51.058 0 .196.203.306.451.236.533.965 1.296 1.335 1.397.144.04.397.045.561.013.165-.032.388-.06.496-.06zm22.11-.489c.63-.608 1.146-1.405 1.146-1.764 0-.092.086-.254.19-.358.156-.156.24-2.152.126-2.973-.023-.164-.765-.138-.765.027 0 .276-.614.335-.982.094-.365-.24-.367-.238-.367.288 0 .29-.067.527-.15.527-.082 0-.15.102-.15.225 0 .367-.829.276-1.278-.14-.603-.56-.814-.363-.853.793-.073 2.146-.048 2.262.648 2.992 1.048 1.1 1.538 1.158 2.436.29zm10.138.58c0-.03-.118-.149-.262-.262-.238-.186-.243-.18-.057.057.196.25.32.329.32.205zm-.73-2.004c.186-.237.181-.243-.057-.056-.144.113-.262.231-.262.262 0 .123.123.044.319-.206zm-56.198-.15c.186-.237.181-.242-.057-.056-.25.196-.329.32-.205.32.03 0 .149-.119.262-.263zm.28-.693c0-.03-.117-.149-.262-.262-.237-.186-.243-.181-.056.057.196.25.319.329.319.205zm51.853-1.948c0-.03-.118-.149-.263-.262-.237-.186-.243-.181-.056.057.195.25.319.329.319.205zm-21.13-.393c0-.082.09-.15.201-.15.525 0 1.109-.937.674-1.081-.103-.035-.2-.543-.242-1.262l-.07-1.203.629-.661c.616-.648.622-.665.317-.868-.219-.145-.312-.367-.313-.75-.003-.77-.148-1.218-.395-1.218-.16 0-.206.208-.189.862.013.474-.017 1.165-.065 1.536-.048.37-.128.996-.177 1.389-.05.393-.154.676-.23.628-.078-.048-.14-.021-.14.06 0 .08.083.173.185.208.328.109-.227.514-1.009.735-.787.222-1.046.547-.541.679.21.055.315.202.315.446 0 .2.084.459.187.576.215.243.862.3.862.074zm8.761-.048c.11-.11.166-.37.124-.585-.056-.297-.002-.41.241-.486.173-.055.314-.147.314-.204 0-.187-.525-.436-1.135-.54l-.6-.1-.181-1.155c-.1-.636-.182-1.34-.182-1.566 0-.226-.067-.411-.15-.411-.082 0-.148-.32-.147-.712.002-.515.042-.65.147-.487.118.182.146.16.148-.112.001-.186-.065-.338-.148-.338-.082 0-.151-.151-.154-.337-.008-.57-.284.055-.392.889-.051.397-.2.845-.332.996-.22.252-.213.293.079.525.174.137.405.503.513.812.108.31.25.562.317.562.066 0 .12.236.12.525 0 .288-.053.524-.116.524-.185 0-.435 1.297-.314 1.624.06.164.25.342.42.396.17.054.31.161.31.238 0 .214.893.167 1.118-.058zm11.62-.3c0-.027-.186-.213-.413-.412l-.412-.364.363.412c.34.386.461.481.461.364zm-22.78-.392c0-.16-.068-.334-.152-.385-.084-.052-.107-.174-.05-.271.055-.098.05-.132-.011-.077-.132.118-.686-.323-.686-.546 0-.084-.192-.282-.425-.438-.233-.156-.486-.494-.562-.75-.115-.39-.21-.463-.586-.455-.248.005-.532-.062-.632-.15-.5-.438-.642-.534-.786-.534-.22 0-.195.41.031.5.147.06.145.107-.01.216-.32.225-.492 1.238-.252 1.479.112.112.277.203.367.203.09 0 .241.169.335.375.212.465.477.48.675.037.199-.443.097-.7-.343-.868-.445-.169-.5-.743-.07-.743.159 0 .378.088.487.196.109.107.317.24.463.296a.72.72 0 0 1 .367.366c.055.146.188.355.296.464.108.109.197.345.2.525.001.214.169.413.486.578.645.335.858.331.858-.018zm13.463-.032c.027-.07.138-.127.245-.127.108 0 .24-.237.295-.527.12-.643.984-1.549 1.594-1.67.368-.074.438-.04.438.212 0 .192-.161.367-.45.486-.32.133-.449.288-.449.543 0 .223.088.357.234.357.128 0 .192.067.141.15-.05.082.046.15.216.15.17 0 .308-.092.308-.203 0-.258.508-.847.73-.847.257 0 .207-.894-.055-.995-.139-.053-.225-.28-.225-.594 0-.28-.03-.509-.067-.509-.037 0-.253.173-.48.383-.273.253-.521.357-.728.305-.326-.082-.637.181-.985.836-.244.458-.92 1.173-1.111 1.175-.165 0-.525.69-.525 1.005 0 .218.783.101.874-.13zm7.967-.925c0-.027-.185-.212-.412-.412l-.412-.364.364.413c.34.385.46.48.46.363zm-1.049-1.075c-.152-.184-.142-.225.057-.225.211 0 .243-.243.243-1.843 0-1.154.063-1.906.167-2.01.272-.272.028-.461-.844-.657-.452-.1-.821-.236-.821-.3 0-.063-.128-.156-.283-.205-.156-.05-.463-.256-.683-.46-.509-.472-.683-.467-.683.019 0 .263.097.414.3.467.165.043.3.138.3.21 0 .074.151.134.337.135.466.003.649.155.766.635.058.235.204.412.34.412.194 0 .219.104.133.562-.13.694-.144.709-.727.727-1.138.035-1.313.073-1.4.3-.051.132-.013.29.085.35.13.08.136.219.02.523l-.157.414.725-.1c.684-.094.747-.073 1.089.36.199.252.438.459.531.46.093 0 .253.102.356.226.102.123.22.224.261.224.041 0-.009-.1-.112-.224zm-27.281-.58c.156-.412.71-.594 1.406-.464l.482.09-.004-.672c-.002-.37-.044-.713-.094-.763-.05-.05-.486-.105-.968-.124-.874-.035-.879-.037-.985-.56-.076-.368-.044-.594.106-.76.118-.13.214-.339.214-.463 0-.252.598-.575 1.065-.575.166 0 .264-.06.22-.133-.046-.073.051-.167.215-.21.2-.053.298-.205.298-.467 0-.497-.362-.512-.679-.028-.13.198-.409.404-.62.457-.212.053-.483.194-.603.314s-.381.226-.581.236c-.2.01-.449.027-.552.037-.274.028-.35 4.142-.079 4.314.409.259 1.019.138 1.159-.23zm6-1.251c.042-.046-.008-.114-.111-.15-.25-.09-.237-.314.037-.588.343-.343.276-.462-.337-.606-.415-.098-.574-.22-.61-.464-.03-.209-.153-.333-.33-.333a.566.566 0 0 1-.434-.262c-.145-.248-.153-.248-.157.005-.003.147-.108.307-.234.355a.854.854 0 0 0-.37.35c-.191.359.138 1.201.47 1.201.14 0 .276.05.304.113.027.061.252.23.5.374.408.238 1.06.24 1.273.005zm1.866.028c.22-.168.29-.404.29-.98 0-.419-.075-.808-.168-.865-.292-.18-.472-.839-.31-1.13.206-.366.021-.987-.413-1.39a1.096 1.096 0 0 1-.365-.788c0-.293-.101-.506-.29-.607-.405-.217-.609-.193-.609.07 0 .123-.067.224-.15.224-.215 0-.185.413.036.487.248.083-.221.562-.55.562-.15 0-.235.134-.235.375 0 .206.067.375.15.375.082 0 .15.127.15.283 0 .333.28.466.983.466.637 0 .73.288.634 1.958-.066 1.128-.053 1.189.243 1.184.172-.003.444-.103.604-.225zm11.66-.145c-.04-.206-.132-.375-.205-.375-.072 0-.132-.236-.132-.525 0-.288.067-.524.15-.524.082 0 .15-.3.15-.666v-.666l.712-.046c.682-.044.72-.07.903-.633.18-.552.17-.61-.187-.982-.209-.217-.38-.527-.382-.687-.003-.436-.221-.698-.539-.645a.889.889 0 0 1-.507-.084c-.174-.101-.186-.089-.054.055.285.309.057 1.386-.363 1.716-.333.262-.36.364-.277 1.068.076.645.041.836-.207 1.122-.208.24-.298.56-.298 1.06 0 .828.268 1.186.889 1.186.365 0 .409-.047.346-.374zm1.012-4.43c0-.087.067-.117.15-.066.082.05.15.122.15.158 0 .037-.068.067-.15.067-.083 0-.15-.072-.15-.16zm1.156 4.542c1.217-.563 1.598-1.27 1.019-1.894-.207-.224-.377-.47-.377-.549a.147.147 0 0 0-.15-.142c-.082 0-.15.094-.15.208 0 .115-.16.25-.356.298-.197.05-.393.226-.436.392-.05.19-.251.337-.538.395-.388.077-.437.134-.314.363.08.15.146.44.146.644 0 .331.15.499.482.535.059.007.362-.106.674-.25zm-9.817-1.46c.206-.413.225-.607.095-.978-.223-.64-.638-.544-.67.154-.013.288-.041.59-.063.673-.05.189.157.676.286.67.053-.001.211-.235.352-.519zm3.185.224c.24 0 .126-1.365-.128-1.534-.273-.182-.39-.13-.39.169 0 .156-.102.322-.226.37-.293.112-.29.395.004.395.138 0 .268.193.326.485.053.266.125.401.159.3a.289.289 0 0 1 .255-.185zm8.173-.956c0-.031-.118-.15-.262-.262-.238-.187-.243-.181-.057.056.196.25.32.33.32.206zm-.899-.9c0-.03-.118-.148-.262-.262-.238-.186-.243-.18-.057.057.196.25.319.329.319.206zm-11.51-1.741c.245 0 .111-.922-.18-1.233-.464-.5-.392-.865.171-.865h.47l-.109-.712c-.145-.947-.145-.96-.02-1.349.08-.25.05-.337-.121-.337-.126 0-.302-.135-.39-.3-.124-.23-.314-.3-.831-.3h-.671l.097.609c.105.658-.146 1.34-.494 1.34-.11 0-.2-.053-.2-.117 0-.065-.196-.192-.437-.282l-.438-.166-.085.695c-.047.382-.034 1.065.028 1.518l.114.825.93-.049.932-.048.265.573c.409.882.542.989.707.563.077-.2.195-.365.262-.365zm5.604-.045.313-.63.998.047.998.047v-.543c0-.372.055-.509.173-.435.096.059.133.042.084-.038s-.104-.564-.123-1.078c-.034-.953-.178-1.237-.476-.939-.092.092-.305.168-.474.17-.254.001-.268.027-.083.147.192.124.187.146-.037.148-.144 0-.262-.066-.262-.148 0-.082-.094-.15-.21-.15-.297 0-.404-.382-.296-1.06l.094-.588h-.55c-.779 0-1.217.475-1.243 1.348-.01.371-.042.877-.069 1.124-.045.408-.006.454.427.496.466.045.473.056.31.525-.09.263-.262.55-.38.639-.236.175-.126 1.113.13 1.113.076 0 .138.101.138.225 0 .396.216.228.538-.42zm-13.667.257c.05-.13.091-.361.091-.514 0-.328.473-.512.985-.383.306.077.364.037.364-.253 0-.246.13-.394.45-.515.247-.093.449-.277.449-.407 0-.131.067-.238.15-.238.082 0 .15-.135.15-.3 0-.2-.1-.3-.3-.3-.165 0-.3.068-.3.15 0 .083-.168.15-.374.15s-.375-.067-.375-.15c0-.089-.55-.15-1.349-.15-.742 0-1.348.06-1.348.131 0 .072-.268.174-.595.226-.662.106-1.354.385-1.354.546 0 .058.682.172 1.515.255.992.098 1.56.222 1.646.358a.825.825 0 0 1-.163 1.072c-.165.141-.3.325-.3.408 0 .246.559.173.658-.086zm21.371.11c0-.07-.105-.338-.235-.598-.474-.95-.216-1.123 1.93-1.302 1.395-.116 1.45-.335.168-.663-.489-.126-.911-.28-.938-.342-.077-.175-2.723-.14-2.723.035 0 .083-.135.15-.3.15-.165 0-.3-.067-.3-.15 0-.082-.134-.15-.3-.15-.216 0-.299.1-.299.363 0 .56.155.836.47.836.16 0 .332.118.386.263.053.144.169.311.257.372.108.074.1.11-.026.112-.103.001-.188.104-.188.227 0 .124.039.225.086.225.047 0 .187-.101.31-.225.288-.287.953-.296.953-.012a.36.36 0 0 0 .187.3c.146.068.147.106.005.173-.144.068-.144.13 0 .294.203.231.558.29.558.093zm25.646-2.982c.186-.238.18-.243-.057-.057-.144.113-.262.231-.262.263 0 .123.123.044.319-.206zM71.664 46.147c-.05-.083-.02-.15.066-.15.088 0 .16.067.16.15 0 .082-.03.15-.067.15-.036 0-.108-.068-.159-.15z" transform="translate(-29.05 -3.599)"/></svg>