<?xml version="1.0" encoding="UTF-8" standalone="no"?>
<!-- Created with Inkscape (http://www.inkscape.org/) -->

<svg
   xmlns:dc="http://purl.org/dc/elements/1.1/"
   xmlns:cc="http://creativecommons.org/ns#"
   xmlns:rdf="http://www.w3.org/1999/02/22-rdf-syntax-ns#"
   xmlns:svg="http://www.w3.org/2000/svg"
   xmlns="http://www.w3.org/2000/svg"
   xmlns:sodipodi="http://sodipodi.sourceforge.net/DTD/sodipodi-0.dtd"
   xmlns:inkscape="http://www.inkscape.org/namespaces/inkscape"
   width="152.50838mm"
   height="194.80701mm"
   viewBox="0 0 152.50838 194.80701"
   version="1.1"
   id="svg3145"
   inkscape:version="0.92.4 (5da689c313, 2019-01-14)"
   sodipodi:docname="dinner-wineR.svg">
  <metadata
     id="metadata10">
    <rdf:RDF>
      <cc:Work
         rdf:about="">
        <dc:format>image/svg+xml</dc:format>
        <dc:type
           rdf:resource="http://purl.org/dc/dcmitype/StillImage" />
        <dc:title></dc:title>
      </cc:Work>
    </rdf:RDF>
  </metadata>
  <sodipodi:namedview
     id="namedview3147"
     pagecolor="#505050"
     bordercolor="#eeeeee"
     borderopacity="1"
     inkscape:pageshadow="0"
     inkscape:pageopacity="0"
     inkscape:pagecheckerboard="0"
     inkscape:document-units="mm"
     showgrid="false"
     fit-margin-top="0"
     fit-margin-left="0"
     fit-margin-right="0"
     fit-margin-bottom="0"
     inkscape:zoom="0.94867184"
     inkscape:cx="97.145934"
     inkscape:cy="354.83906"
     inkscape:window-width="1920"
     inkscape:window-height="1017"
     inkscape:window-x="1072"
     inkscape:window-y="394"
     inkscape:window-maximized="1"
     inkscape:current-layer="layer1"
     inkscape:snap-global="false"
     showguides="false" />
  <defs
     id="defs3142" />
  <g
     inkscape:label="Layer 1"
     inkscape:groupmode="layer"
     id="layer1"
     transform="translate(-29.050399,-3.598509)">
    <path
       sodipodi:nodetypes="ccccccscccccsccccccccccccscccssccsccscccsscccsscsccccccscccccsssscccsccsscscccsccscscssssssccccccccsccccsccscscscccsccscscscccccccscccccccccccccc"
       inkscape:connector-curvature="0"
       id="path834"
       d="m 113.15314,85.445554 c -51.792047,94.643616 -25.896024,47.321806 0,0 z m 4.42092,24.976766 c -1.26894,0.0191 -3.09628,0.26565 -3.22202,0.4346 -0.0412,0.0554 -0.2915,0.18812 -0.55604,0.29508 -0.39887,0.16129 -0.52013,0.33046 -0.71159,0.98908 -0.12699,0.4368 -0.23099,0.86218 -0.23099,0.94568 0,0.0835 -0.0575,0.17404 -0.12764,0.20154 -0.0701,0.0275 -0.16463,0.33698 -0.21032,0.6873 -0.06,0.459 -0.0348,0.608 0.0899,0.5333 0.1048,-0.0628 0.0968,-0.01 -0.0202,0.13436 -0.1391,0.17178 -0.16447,0.51486 -0.0915,1.22783 0.0557,0.54412 0.14601,0.98908 0.20051,0.98908 0.0546,0 0.18323,0.40805 0.28628,0.90693 0.10684,0.51728 0.30953,1.01188 0.47181,1.15083 0.15653,0.13399 0.25521,0.29145 0.21911,0.34985 -0.0361,0.0584 0.0349,0.18959 0.15761,0.29145 0.12273,0.10185 0.22346,0.26109 0.22376,0.35399 2.3e-4,0.0929 0.19202,0.29726 0.42633,0.45423 0.23431,0.15697 0.5541,0.47812 0.71107,0.71314 0.15697,0.23503 0.3917,0.46111 0.52141,0.50281 0.12971,0.0417 0.36575,0.19349 0.52452,0.33745 0.15877,0.14395 0.47445,0.38101 0.70125,0.52658 0.37027,0.23766 0.41248,0.35247 0.41548,1.12293 0.002,0.47194 0.0379,2.18999 0.0806,3.81785 0.049,1.8728 0.0241,2.95951 -0.0682,2.95951 -0.0802,0 -0.1911,0.14274 -0.2465,0.31729 -0.085,0.26796 -0.18703,0.30568 -0.65526,0.24288 -0.58484,-0.0784 -0.9417,0.0913 -1.10484,0.52607 -0.0541,0.14424 -0.16769,0.26251 -0.25269,0.26251 -0.085,0 -0.15452,0.1686 -0.15452,0.37466 v 0.12351 c 3.32642,0.12207 5.99138,0.22698 7.49515,0.24339 0.006,-0.0787 0.1027,-0.14211 0.22221,-0.14211 0.12363,0 0.22479,0.0675 0.22479,0.14986 0.29545,10e-6 0.60238,0.007 0.90072,0.01 -10e-5,-0.002 -0.002,-0.003 -0.002,-0.005 0,-0.0798 0.10116,-0.10641 0.2248,-0.0589 0.0536,0.0206 0.0992,0.0451 0.13797,0.0682 0.64886,0.008 1.31849,0.0191 1.99833,0.0367 0.22155,-0.0894 0.2552,-0.94981 0.0372,-0.94981 -0.0825,0 -0.14987,-0.13331 -0.14987,-0.2961 0,-0.24263 0.0745,-0.28148 0.41238,-0.21498 0.22666,0.0446 0.63681,-0.0139 0.91158,-0.13022 0.46489,-0.19682 0.48247,-0.2286 0.25166,-0.45941 -0.2308,-0.23084 -0.22606,-0.24804 0.0672,-0.24804 0.17332,0 0.35984,-0.11828 0.41444,-0.26252 0.0546,-0.14424 0.18691,-0.351 0.29456,-0.45992 0.25019,-0.25339 0.25104,-0.47645 0.001,-0.47645 -0.35391,0 -1.00204,-0.37122 -1.00304,-0.57464 -6.4e-4,-0.10993 -0.0848,-0.17208 -0.18706,-0.13798 -0.2212,0.0737 -0.56193,-0.23365 -0.56793,-0.51315 -0.003,-0.12316 -0.0631,-0.0979 -0.15916,0.0672 -0.085,0.14598 -0.21304,0.22931 -0.28474,0.18501 -0.0717,-0.0443 -0.17248,-0.012 -0.22428,0.0718 -0.0518,0.0838 -0.22499,0.15244 -0.38499,0.15244 -0.15998,0 -0.29575,0.084 -0.30075,0.18707 -0.005,0.10303 -0.0728,0.0289 -0.15038,-0.16485 -0.13056,-0.32592 -0.21097,-0.34832 -1.07694,-0.29972 -0.51474,0.0289 -0.97789,0.11027 -1.02939,0.18086 -0.0515,0.0707 -0.13997,0.054 -0.19637,-0.0372 -0.0564,-0.0913 -0.031,-0.16588 0.0563,-0.16588 0.0873,0 0.15864,-0.0675 0.15864,-0.14986 0,-0.0825 -0.2023,-0.14986 -0.44958,-0.14986 -0.24727,0 -0.44959,0.0675 -0.44959,0.14986 0,0.26506 -0.3714,0.15987 -0.57257,-0.16226 -0.11475,-0.18371 -0.28708,-0.27736 -0.41858,-0.22686 -0.12591,0.0484 -0.18348,0.0217 -0.13178,-0.062 0.0503,-0.0814 -0.009,-0.14831 -0.13125,-0.14831 -0.27005,0 -0.72511,0.42837 -0.62581,0.58911 0.0392,0.0633 -0.0949,0.20386 -0.29817,0.31264 -0.20325,0.10877 -0.36948,0.31574 -0.36948,0.45992 0,0.48971 -0.181,0.73639 -0.54054,0.73639 h -0.35864 v -2.32492 c 0,-1.55051 0.0597,-2.42092 0.17984,-2.61328 0.1421,-0.22755 0.13771,-0.36815 -0.0212,-0.66507 -0.1644,-0.30717 -0.16642,-0.45997 -0.0119,-0.83303 0.10414,-0.25141 0.24141,-0.45733 0.30541,-0.45733 0.064,0 0.43502,-0.28636 0.82424,-0.63666 0.38923,-0.3503 0.80093,-0.69116 0.91468,-0.75706 0.11371,-0.0659 0.2067,-0.17831 0.2067,-0.25011 0,-0.0718 0.26976,-0.40338 0.59945,-0.73639 0.3297,-0.333 0.59944,-0.67054 0.59944,-0.75034 0,-0.0798 0.0953,-0.24048 0.21188,-0.35709 0.25805,-0.25805 0.68729,-1.65345 0.68729,-2.23449 0,-0.23231 0.0675,-0.42219 0.14987,-0.42219 0.0857,0 0.14986,-0.44959 0.14986,-1.04903 0,-0.59945 -0.0643,-1.04904 -0.14986,-1.04904 -0.0825,0 -0.14987,-0.1706 -0.14987,-0.3793 0,-0.20871 -0.10067,-0.6206 -0.22376,-0.91519 -0.12309,-0.29459 -0.19261,-0.58581 -0.15451,-0.64751 0.12466,-0.20171 -0.73494,-1.00819 -1.19372,-1.11982 -0.24644,-0.06 -0.48564,-0.16908 -0.53124,-0.24288 -0.12555,-0.20315 -2.165,-0.45594 -3.51658,-0.43564 z m -1.12396,0.29404 c 0.008,0.008 -0.0375,0.0682 -0.13074,0.18707 h -5.2e-4 C 116.12307,111.153 116,111.23244 116,111.1091 c 0,-0.0311 0.11827,-0.14888 0.26251,-0.262 0.11886,-0.0932 0.17985,-0.13847 0.18759,-0.13074 z m -0.67438,0.67438 -0.44028,0.48679 c -0.24209,0.26788 -0.46151,0.48731 -0.48731,0.48731 -0.11577,0 -0.0137,-0.12405 0.44028,-0.53433 z m -1.30276,1.27382 c 0.0412,0 -0.0467,0.13488 -0.19586,0.29973 -0.14918,0.16485 -0.30503,0.29972 -0.34623,0.29972 -0.0412,0 0.0472,-0.13487 0.19637,-0.29972 0.14919,-0.16485 0.30452,-0.29973 0.34572,-0.29973 z m -1.16996,1.19838 c 0.008,0.008 -0.0375,0.0687 -0.13074,0.18759 h -5.1e-4 c -0.19577,0.24957 -0.31833,0.32901 -0.31833,0.20567 0,-0.0311 0.11775,-0.1494 0.262,-0.26252 0.11885,-0.0932 0.17985,-0.13848 0.18758,-0.13074 z m 4.47777,0.29972 c 1.03724,0 1.83744,0.0635 1.89084,0.14987 0.0598,0.0968 -0.54459,0.14986 -1.70532,0.14986 -1.03723,0 -1.83745,-0.0635 -1.89084,-0.14986 -0.0598,-0.0968 0.5446,-0.14987 1.70532,-0.14987 z m 2.49028,0.33431 c 0.24727,-0.003 0.61819,0.0492 0.82424,0.11524 0.49139,0.15737 -0.002,0.15737 -0.74931,0 -0.50826,-0.10719 -0.51061,-0.11024 -0.0749,-0.11524 z m 1.43868,0.27699 c 0.13163,-0.007 0.39439,0.123 0.58446,0.28784 0.19049,0.16485 0.27306,0.29972 0.18397,0.29972 -0.0892,0 -0.25238,-0.0901 -0.36277,-0.2005 -0.11039,-0.11039 -0.30106,-0.23984 -0.42323,-0.28784 -0.18638,-0.0732 -0.18324,-0.0892 0.0176,-0.0992 z m -0.17725,2.70423 c 0.0521,0.002 0.097,0.0159 0.12195,0.0408 0.0498,0.0498 -0.0389,0.0855 -0.19689,0.0786 -0.17449,-0.007 -0.20998,-0.0425 -0.0904,-0.0904 0.0541,-0.0217 0.11331,-0.0311 0.16537,-0.0289 z m 5.70766,13.84361 c 0.9612,0.31499 -0.41669,-0.85263 1.77353,1.26194 -2.13227,0.0245 -0.0663,-8.6e-4 -0.10283,-0.001 -0.87397,-0.93375 -1.39499,-3.77988 -1.6707,-1.26094 z"
       style="fill:#ffffff;stroke-width:0.14986099;fill-opacity:1" />
  </g>
</svg>
