<?xml version="1.0" encoding="UTF-8" standalone="no"?>
<!-- Created with Inkscape (http://www.inkscape.org/) -->

<svg
   xmlns:dc="http://purl.org/dc/elements/1.1/"
   xmlns:cc="http://creativecommons.org/ns#"
   xmlns:rdf="http://www.w3.org/1999/02/22-rdf-syntax-ns#"
   xmlns:svg="http://www.w3.org/2000/svg"
   xmlns="http://www.w3.org/2000/svg"
   xmlns:sodipodi="http://sodipodi.sourceforge.net/DTD/sodipodi-0.dtd"
   xmlns:inkscape="http://www.inkscape.org/namespaces/inkscape"
   width="152.50838mm"
   height="194.80701mm"
   viewBox="0 0 152.50838 194.80701"
   version="1.1"
   id="svg3145"
   inkscape:version="0.92.4 (5da689c313, 2019-01-14)"
   sodipodi:docname="dinner-chairR.svg">
  <metadata
     id="metadata10">
    <rdf:RDF>
      <cc:Work
         rdf:about="">
        <dc:format>image/svg+xml</dc:format>
        <dc:type
           rdf:resource="http://purl.org/dc/dcmitype/StillImage" />
        <dc:title></dc:title>
      </cc:Work>
    </rdf:RDF>
  </metadata>
  <sodipodi:namedview
     id="namedview3147"
     pagecolor="#505050"
     bordercolor="#eeeeee"
     borderopacity="1"
     inkscape:pageshadow="0"
     inkscape:pageopacity="0"
     inkscape:pagecheckerboard="0"
     inkscape:document-units="mm"
     showgrid="false"
     fit-margin-top="0"
     fit-margin-left="0"
     fit-margin-right="0"
     fit-margin-bottom="0"
     inkscape:zoom="0.94867184"
     inkscape:cx="97.145934"
     inkscape:cy="354.83906"
     inkscape:window-width="1920"
     inkscape:window-height="1017"
     inkscape:window-x="1072"
     inkscape:window-y="394"
     inkscape:window-maximized="1"
     inkscape:current-layer="layer1"
     inkscape:snap-global="false"
     showguides="false" />
  <defs
     id="defs3142" />
  <g
     inkscape:label="Layer 1"
     inkscape:groupmode="layer"
     id="layer1"
     transform="translate(-29.050399,-3.598509)">
    <path
       style="fill:#ffffff;fill-opacity:1;stroke-width:0.14986099"
       d="m 144.44619,197.42742 0.39487,-0.3106 v -12.94325 c 0,-8.46718 0.0518,-12.97528 0.14986,-13.03587 0.0824,-0.0509 0.14986,-0.45955 0.14986,-0.90801 v -0.81539 h 1.84957 c 1.01726,0 2.77023,-0.0441 3.89548,-0.0981 1.84151,-0.0883 2.02756,-0.12202 1.86208,-0.33719 -0.13891,-0.18064 -0.10834,-0.17498 0.12509,0.0232 0.25737,0.21848 0.6134,0.26225 2.13294,0.26225 h 1.824 v 1.20773 c 0,0.66426 0.0572,1.17241 0.12704,1.12922 0.0699,-0.0432 0.2159,2.71777 0.3245,6.13546 0.1086,3.41769 0.25374,6.21397 0.32254,6.21397 0.0688,0 0.12406,0.42148 0.12282,0.93663 -0.001,0.51515 0.0784,3.28008 0.17694,6.1443 l 0.17922,5.20767 h 1.3317 1.3317 l -0.0917,-3.25947 c -0.0505,-1.79272 -0.15233,-3.49551 -0.22644,-3.78399 -0.12703,-0.49457 -0.45875,-9.49938 -0.4536,-12.31359 0.001,-0.71433 -0.0564,-1.32126 -0.12826,-1.34875 -0.0718,-0.0275 -0.1621,-1.44999 -0.20054,-3.16117 l -0.0699,-3.11123 6.30737,0.0391 6.30737,0.0391 0.044,1.0865 c 0.0242,0.59757 0.0986,1.08649 0.16521,1.08649 0.0666,0 0.16579,0.65751 0.22032,1.46114 0.18548,2.73369 0.4493,5.35732 0.54626,5.43247 0.0904,0.07 0.36107,2.17425 0.55378,4.30484 0.0464,0.51314 0.12939,0.90518 0.18438,0.87117 0.055,-0.034 0.22039,0.82749 0.36753,1.91439 0.14715,1.08691 0.32109,2.04362 0.38653,2.12604 0.0654,0.0824 0.20145,0.7403 0.30222,1.46194 0.10077,0.72165 0.23536,1.3443 0.29909,1.3837 0.0637,0.0394 0.23945,0.81455 0.39048,1.72261 0.15103,0.90803 0.3209,1.65098 0.37749,1.65098 0.0566,0 0.22135,0.67438 0.36613,1.49861 0.14478,0.82424 0.32038,1.49862 0.3902,1.49862 0.0698,0 0.12698,0.10115 0.12698,0.22478 0,0.2491 0.88914,0.30261 2.15206,0.1295 0.5444,-0.0746 0.69529,-0.15593 0.69529,-0.37465 0,-0.15366 -0.0556,-0.27936 -0.12361,-0.27936 -0.068,0 -0.25082,-0.66955 -0.4063,-1.4879 -0.15547,-0.81834 -0.32595,-1.46115 -0.37884,-1.42847 -0.0529,0.0327 -0.21643,-0.62964 -0.36341,-1.47184 -0.14699,-0.84222 -0.31121,-1.56501 -0.36494,-1.60622 -0.10968,-0.0841 -0.61891,-3.03605 -0.61398,-3.55921 0.002,-0.18545 -0.0543,-0.33718 -0.12456,-0.33718 -0.0702,0 -0.21593,-0.72495 -0.32375,-1.61101 -0.10781,-0.88605 -0.24579,-1.64472 -0.30661,-1.68593 -0.11195,-0.0759 -0.59066,-4.71313 -0.59066,-5.72173 0,-0.3011 -0.0576,-0.56993 -0.12806,-0.59742 -0.17511,-0.0683 -0.46319,-6.4464 -0.57589,-12.75066 -0.0512,-2.86422 -0.1498,-5.20767 -0.21909,-5.20767 -0.0693,0 -0.12599,-1.71966 -0.12599,-3.82146 0,-2.44772 0.0539,-3.82145 0.14986,-3.82145 0.094,0 0.14933,-0.93567 0.14842,-2.51017 -0.002,-2.63358 0.37352,-7.84194 0.6016,-8.35475 0.0733,-0.16485 0.24551,-1.345 0.38265,-2.62257 0.13714,-1.27756 0.3093,-2.34532 0.38258,-2.3728 0.0733,-0.0275 0.13278,-0.22979 0.13223,-0.44958 -0.002,-0.61237 0.34359,-2.78774 0.45568,-2.87233 0.0546,-0.0412 0.21978,-0.88418 0.36706,-1.87326 0.14728,-0.98909 0.31669,-1.83206 0.37647,-1.87327 0.0598,-0.0412 0.22611,-0.78302 0.36965,-1.64847 0.14353,-0.86545 0.30941,-1.60726 0.36861,-1.64847 0.0592,-0.0412 0.22979,-0.73245 0.37907,-1.53608 0.14927,-0.80363 0.32046,-1.46114 0.38041,-1.46114 0.0599,0 0.19552,-0.50578 0.30126,-1.12396 0.10575,-0.61817 0.23962,-1.12396 0.29751,-1.12396 0.0579,0 0.22779,-0.59007 0.37758,-1.31128 0.14979,-0.72121 0.31485,-1.345 0.36679,-1.38621 0.0519,-0.0412 0.21866,-0.61443 0.37048,-1.27382 0.15183,-0.65939 0.33348,-1.23596 0.40368,-1.28127 0.0702,-0.0453 0.17081,-0.29819 0.22356,-0.56197 0.0714,-0.35722 0.0422,-0.47961 -0.1143,-0.47961 -0.11562,0 -0.32042,-0.12871 -0.45511,-0.28602 -0.1347,-0.15731 -0.61602,-0.36907 -1.0696,-0.47058 -1.5771,-0.35294 -2.78678,0.25197 -3.23626,1.61831 -0.11523,0.35029 -0.25885,0.63691 -0.31915,0.63691 -0.0603,0 -0.14773,0.15173 -0.19429,0.33718 -0.0466,0.18545 -0.19375,0.47207 -0.32709,0.63691 -0.13332,0.16485 -0.19971,0.21543 -0.14752,0.1124 0.0739,-0.14596 -0.42832,-0.1874 -2.27427,-0.18764 -1.30303,-1.5e-4 -4.13476,-0.0446 -6.29273,-0.0987 l -3.92357,-0.0984 -0.0926,-0.36896 c -0.0864,-0.34438 -0.16624,-0.46605 -0.63261,-0.96446 -0.34693,-0.37077 -0.58251,-0.51924 -0.98367,-0.61992 -0.41649,-0.10453 -1.67807,0.0333 -1.54283,0.16847 0.0417,0.0417 -0.19207,0.20836 -0.5195,0.37035 -0.32742,0.162 -0.5953,0.38303 -0.5953,0.49118 0,0.10816 -0.0624,0.21913 -0.13864,0.2466 -0.12624,0.0455 -0.319,3.06428 -0.56297,8.81682 -0.0507,1.19515 -0.14186,2.2067 -0.20261,2.24791 -0.0608,0.0412 -0.16876,1.35625 -0.24003,2.9223 l -0.12957,2.84735 0.0554,0.83395 c 0.86132,3.47554 3.01676,-0.33767 -0.61776,2.58809 0.32712,-0.0802 0.33719,-0.049 0.33719,1.04507 0,0.62025 -0.0592,1.1502 -0.13161,1.17767 -0.0724,0.0275 -0.21777,1.98626 -0.32309,4.35285 -0.10532,2.3666 -0.24113,4.27223 -0.30178,4.23475 -0.0607,-0.0375 -0.15633,1.19576 -0.2126,2.74056 -0.0562,1.5448 -0.1311,2.91271 -0.16627,3.0398 -0.0641,0.23155 -1.30566,0.3513 -7.18194,0.6927 -0.90665,0.0527 -1.68219,0.14132 -1.7234,0.19696 -0.07,0.0945 -3.7499,0.37361 -7.34319,0.55688 -0.86545,0.0441 -1.60725,0.12984 -1.64847,0.19044 -0.0709,0.10425 -1.03215,0.17996 -5.13273,0.40424 -0.96848,0.053 -1.76087,0.14182 -1.76087,0.19744 0,0.0556 -1.33189,0.18243 -2.95976,0.2818 -1.62786,0.0994 -3.34752,0.22088 -3.82145,0.27001 l -0.8617,0.0893 v 8.00706 c 0,6.36575 0.0384,7.98398 0.18732,7.89451 0.12699,-0.0763 0.12099,-0.0308 -0.0186,0.14133 -0.17304,0.21333 -0.18809,2.27683 -0.0942,12.91682 l 0.11197,12.66282 h 1.15593 c 1.10091,0 1.17542,-0.0219 1.56521,-0.45934 l 0.40927,-0.45933 0.10255,-12.76589 0.10255,-12.7659 3.48426,-0.0402 c 2.152,-0.0249 3.48427,-0.0965 3.48427,-0.18733 0,-0.0912 1.11058,-0.1471 2.92229,-0.1471 h 2.92229 v 14.01199 14.01201 h 1.77812 c 1.57196,0 1.8239,-0.036 2.17298,-0.3106 z m 0.39487,-32.88918 c 0,-2.59055 0.0272,-2.91671 0.24313,-2.91671 0.20903,0 0.21465,-0.0368 0.0401,-0.26226 -0.19343,-0.24977 -0.18838,-0.24977 0.10584,0 0.28263,0.23993 0.80251,0.26226 6.10426,0.26226 h 5.7953 v 2.91905 2.91905 l -2.80989,0.0407 c -1.54545,0.0224 -4.31038,0.0213 -6.1443,-0.002 l -3.33441,-0.043 v -2.91672 z m 14.68637,0.15544 v -2.77243 h 6.21923 6.21923 v 2.77243 2.77243 h -6.21923 -6.21923 z m -31.4708,-1.73833 v -2.38607 l 6.40656,0.0391 6.40655,0.0391 0.0413,2.35848 0.0412,2.35848 -5.51118,0.0393 c -3.03116,0.0216 -5.93267,0.0164 -6.44782,-0.0116 l -0.93664,-0.0507 v -2.38608 z m 14.98609,-3.65666 c -0.19358,-0.20606 -0.31824,-0.37466 -0.27703,-0.37466 0.0412,0 0.23331,0.1686 0.4269,0.37466 0.19358,0.20605 0.31824,0.37465 0.27703,0.37465 -0.0412,0 -0.23331,-0.1686 -0.4269,-0.37465 z m -3.74652,-3.41336 c 0,-0.0228 0.48892,-0.51174 1.08649,-1.08649 l 1.0865,-1.04501 -1.04501,1.08649 c -0.9706,1.00914 -1.12798,1.15494 -1.12798,1.04501 z m -1.27382,-1.60699 c -0.14918,-0.16484 -0.23753,-0.29972 -0.19631,-0.29972 0.0412,0 0.19699,0.13488 0.34617,0.29972 0.14919,0.16485 0.23753,0.29972 0.19632,0.29972 -0.0412,0 -0.19699,-0.13487 -0.34618,-0.29972 z m 22.10449,-1.77944 c -0.0412,-0.0516 -0.0559,-1.7906 -0.0325,-3.86443 l 0.0424,-3.77062 4.15369,0.0831 c 2.28452,0.0457 4.17615,0.14085 4.20363,0.21142 0.0275,0.0706 0.84807,0.1283 1.82354,0.1283 0.97547,0 1.88026,0.041 2.01063,0.091 0.25074,0.0962 0.32524,0.58615 0.10942,0.71953 -0.0702,0.0434 -0.17371,1.24439 -0.23003,2.66888 -0.0563,1.4245 -0.14179,2.90541 -0.18994,3.2909 l -0.0876,0.70091 -5.86419,-0.0826 c -3.2253,-0.0454 -5.8979,-0.12479 -5.93911,-0.17639 z m 3.7225,-10.65902 h -3.27291 v -2.32284 -2.32285 h 6.36909 c 4.14615,0 6.36909,0.0523 6.36909,0.14986 0,0.0824 -0.0573,0.14986 -0.12736,0.14986 -0.07,0 -0.20949,0.92727 -0.30988,2.06059 -0.10039,1.13333 -0.21361,2.15546 -0.25161,2.27141 -0.0576,0.17576 -0.52092,0.19445 -2.78629,0.1124 -1.49446,-0.0541 -4.19002,-0.0984 -5.99013,-0.0984 z m 7.66694,-7.33019 c 0,-0.0764 -1.07543,-0.14271 -2.43524,-0.15009 -2.86146,-0.0155 -6.27719,-0.1795 -5.95965,-0.28609 -3.60583,1.59078 -1.24528,-1.44409 -2.09538,-1.55313 v -1.40962 c 0,-0.83984 0.0606,-1.40962 0.14986,-1.40962 0.0824,0 0.14986,-0.13942 0.14986,-0.30982 0,-0.22348 0.0731,-0.2891 0.26226,-0.23546 0.14424,0.0409 1.89855,0.12083 3.89846,0.17763 1.99991,0.0568 3.67297,0.16276 3.7179,0.23546 0.0449,0.0727 0.2503,0.13219 0.45635,0.13219 0.21161,0 0.33435,-0.0652 0.28204,-0.14986 -0.0509,-0.0824 -0.0252,-0.14986 0.0572,-0.14986 0.0824,0 0.19154,0.0674 0.24248,0.14986 0.0509,0.0824 0.67872,0.15061 1.39506,0.15151 1.82111,0.002 2.42639,0.11894 2.42639,0.46755 0,0.15406 -0.0548,0.28011 -0.12172,0.28011 -0.0669,0 -0.20834,0.82611 -0.3142,1.83579 -0.26578,2.53511 -0.17523,2.36032 -1.22264,2.36032 -0.48899,0 -0.88907,-0.0616 -0.88907,-0.13687 z m -4.4209,-7.654 c -0.0824,-0.0638 -1.35061,-0.15025 -2.8182,-0.19212 -1.46758,-0.0419 -2.70083,-0.10862 -2.74055,-0.14834 -0.0397,-0.0397 -0.002,-0.9337 0.0832,-1.98663 0.0855,-1.05292 0.15545,-2.10693 0.15545,-2.34223 0,-0.40796 0.0317,-0.42782 0.68322,-0.42782 0.37577,0 0.6479,0.0572 0.60472,0.12702 -0.0432,0.0699 1.97596,0.21622 4.48698,0.32524 2.51102,0.10901 4.56549,0.25417 4.56549,0.32256 0,0.0684 0.56479,0.12435 1.25508,0.12435 0.6903,0 1.47232,0.0434 1.73781,0.0966 0.44528,0.0891 0.47562,0.13207 0.39113,0.55452 -0.0504,0.25189 -0.15193,0.49528 -0.22569,0.54086 -0.0738,0.0456 -0.2211,0.50413 -0.32744,1.01901 -0.10635,0.51487 -0.24317,0.93614 -0.30406,0.93614 -0.0609,0 -0.15739,0.31145 -0.21448,0.6921 l -0.10378,0.69211 -3.53953,-0.10867 c -1.94674,-0.0598 -3.60696,-0.16086 -3.68938,-0.22465 z"
       id="path3437-8"
       sodipodi:nodetypes="ccssscscssscsssscsccccscssccccsscsssssssssssssssssscsscscsssscssscsssssssssssssssssssssssccsssssssssscccscsscssscssssscsssccssccccsscccsccssssscccscccscccccccccccccccsccccssssssscssssssssscssscsssccssccccssssscccccccsssssssssscsssssccscsscsssccssssccccc"
       inkscape:connector-curvature="0" />
  </g>
</svg>
