<svg xmlns="http://www.w3.org/2000/svg" width="576.41" height="736.278" viewBox="0 0 152.508 194.807"><path style="fill:#fff;stroke-width:.14986099;fill-opacity:1" d="M113.153 85.446c-51.792 94.643-25.896 47.321 0 0zm-8.432 12.229c-.394-.01-.788.04-1.109.162-.508.193-.644.389-.647.928-.001.226-.07.412-.152.412-.083 0-.15.134-.15.3 0 .164.067.299.15.299.192 0 .203 4.55.011 4.91-.076.143-.209.895-.295 1.672-.086.777-.213 1.45-.281 1.499-.069.047-.255.643-.415 1.323-.159.68-.333 1.236-.386 1.236-.052 0-.216.624-.362 1.387-.147.762-.314 1.42-.372 1.46-.057.042-.198.649-.314 1.35-.165 1.007-.2 2.992-.163 9.487l.043 7.714c3.098.043 5.968.105 8.512.177l.1-7.675c.08-6.149.06-8.477-.08-9.554-.103-.783-.235-1.457-.293-1.499-.058-.04-.228-.664-.377-1.385-.15-.722-.316-1.312-.371-1.312-.056 0-.222-.522-.371-1.161s-.332-1.2-.41-1.248c-.076-.048-.22-.84-.317-1.761-.098-.921-.23-1.675-.295-1.675-.065 0-.117-.91-.117-2.023 0-1.249.057-2.023.15-2.023.244 0 .187-2.231-.064-2.482-.313-.314-.969-.501-1.625-.518zm-1.344 6.072.017 1.274c.017 1.28-.353 3.901-.571 4.045-.064.042-.2.43-.303.863-.103.433-.239.787-.303.787-.063 0-.238.59-.387 1.311-.15.722-.318 1.345-.375 1.386-.057.042-.206.615-.332 1.274-.125.66-.236 1.03-.244.824-.02-.506.45-3.053.581-3.147.058-.04.228-.664.378-1.386.15-.72.323-1.311.385-1.311s.197-.47.3-1.044c.102-.574.243-1.008.312-.965.07.043.133-.043.139-.193.006-.149.099-1.046.207-1.994z" transform="translate(-29.05 -3.599)"/><path style="fill:#fff;fill-opacity:1;stroke-width:.14986099" d="m66.59 198.095-.396-.31V184.84c0-8.467-.051-12.975-.15-13.036-.082-.05-.15-.46-.15-.908v-.815h-1.849a98.7 98.7 0 0 1-3.895-.098c-1.842-.089-2.028-.122-1.862-.338.138-.18.108-.175-.126.024-.257.218-.613.262-2.133.262h-1.824v1.208c0 .664-.057 1.172-.127 1.129-.07-.043-.215 2.718-.324 6.135-.109 3.418-.254 6.214-.323 6.214-.068 0-.124.422-.122.937 0 .515-.079 3.28-.177 6.144l-.18 5.208H50.29l.092-3.26c.05-1.792.152-3.495.226-3.784.127-.494.459-9.499.454-12.313-.001-.714.056-1.321.128-1.349.072-.027.162-1.45.2-3.161l.07-3.111-6.307.039-6.307.039-.044 1.086c-.025.598-.099 1.087-.165 1.087-.067 0-.166.657-.22 1.461-.186 2.734-.45 5.357-.547 5.433-.09.07-.361 2.174-.554 4.304-.046.513-.13.906-.184.872-.055-.034-.22.827-.368 1.914-.147 1.087-.32 2.044-.386 2.126-.066.082-.202.74-.302 1.462-.101.722-.236 1.344-.3 1.384-.063.039-.239.814-.39 1.722-.151.908-.321 1.651-.378 1.651-.056 0-.22.675-.366 1.499-.144.824-.32 1.498-.39 1.498s-.127.102-.127.225c0 .25-.889.303-2.152.13-.544-.075-.695-.156-.695-.375 0-.154.055-.28.123-.28s.251-.669.407-1.487c.155-.819.326-1.461.379-1.429.052.033.216-.63.363-1.472s.311-1.565.365-1.606c.11-.084.619-3.036.614-3.559-.002-.185.054-.337.124-.337s.216-.725.324-1.611c.108-.886.246-1.645.307-1.686.112-.076.59-4.713.59-5.722 0-.3.058-.57.129-.597.175-.069.463-6.447.575-12.75.052-2.865.15-5.209.22-5.209.069 0 .125-1.72.125-3.821 0-2.448-.053-3.821-.15-3.821-.093 0-.149-.936-.148-2.51.002-2.634-.373-7.843-.601-8.355-.074-.165-.246-1.345-.383-2.623-.137-1.278-.31-2.345-.383-2.373-.073-.027-.132-.23-.132-.45.002-.612-.343-2.787-.456-2.872-.054-.04-.22-.884-.367-1.873s-.316-1.832-.376-1.873c-.06-.041-.226-.783-.37-1.649-.143-.865-.31-1.607-.368-1.648-.06-.041-.23-.733-.38-1.536-.149-.804-.32-1.461-.38-1.461s-.195-.506-.301-1.124c-.106-.618-.24-1.124-.298-1.124-.057 0-.227-.59-.377-1.312-.15-.72-.315-1.345-.367-1.386-.052-.041-.219-.614-.37-1.274-.152-.659-.334-1.236-.404-1.28-.07-.046-.17-.3-.224-.563-.071-.357-.042-.48.115-.48.115 0 .32-.128.455-.285.134-.158.616-.37 1.07-.471 1.576-.353 2.786.252 3.236 1.618.115.35.258.637.319.637.06 0 .147.152.194.337.047.186.194.472.327.637.133.165.2.216.148.113-.074-.146.428-.188 2.274-.188 1.303 0 4.135-.045 6.293-.099l3.923-.098.093-.369c.086-.344.166-.466.632-.964.347-.371.583-.52.984-.62.417-.105 1.678.033 1.543.168-.042.042.192.208.52.37.327.162.595.383.595.492 0 .108.062.219.138.246.127.046.32 3.064.563 8.817.051 1.195.142 2.207.203 2.248.06.041.169 1.356.24 2.922l.13 2.848c.051 1.425.24 1.368.217 2.88-.327-.08.008.493.008 1.587 0 .62.059 1.15.131 1.177.073.028.218 1.987.323 4.353.106 2.367.242 4.272.302 4.235.06-.038.156 1.196.213 2.74.056 1.545.13 2.913.166 3.04.064.232 1.306.352 7.182.693.907.053 1.682.141 1.723.197.07.094 3.75.374 7.344.557.865.044 1.607.13 1.648.19.07.105 1.032.18 5.133.405.968.053 1.76.141 1.76.197 0 .056 1.333.182 2.96.282 1.628.1 3.348.22 3.822.27l.862.09v8.006c0 6.366-.039 7.984-.188 7.895-.127-.077-.12-.031.019.141.173.213.188 2.277.094 12.917l-.112 12.663h-1.156c-1.1 0-1.175-.022-1.565-.46l-.41-.46-.102-12.765-.102-12.766-3.485-.04c-2.152-.025-3.484-.097-3.484-.187 0-.092-1.11-.147-2.922-.147H70.54v28.024h-1.778c-1.572 0-1.824-.036-2.173-.311zm-.396-32.89c0-2.59-.027-2.916-.243-2.916-.209 0-.214-.037-.04-.262.194-.25.189-.25-.106 0-.282.24-.802.262-6.104.262h-5.795v5.839l2.81.04c1.545.022 4.31.021 6.144-.002l3.334-.043v-2.917zm-14.686.156v-2.772H39.07v5.545h12.438zm31.47-1.738v-2.386l-6.406.039-6.406.039-.042 2.358-.04 2.359 5.51.04c3.031.02 5.933.016 6.448-.012l.937-.051v-2.386zm-14.985-3.657c.193-.206.318-.375.277-.375-.041 0-.234.17-.427.375-.194.206-.318.375-.277.375.041 0 .233-.169.427-.375zm3.746-3.413c0-.023-.489-.512-1.086-1.087l-1.087-1.045 1.045 1.087c.97 1.009 1.128 1.155 1.128 1.045zm1.274-1.607c.15-.165.238-.3.196-.3-.04 0-.197.135-.346.3-.149.165-.237.3-.196.3.041 0 .197-.135.346-.3zm-22.104-1.78c.04-.051.055-1.79.032-3.864l-.042-3.77-4.154.082c-2.285.046-4.176.141-4.204.212-.027.07-.848.128-1.823.128-.976 0-1.88.041-2.01.091-.252.096-.326.586-.11.72.07.043.173 1.244.23 2.669.056 1.424.142 2.905.19 3.29l.087.701 5.864-.082c3.226-.046 5.898-.125 5.94-.177zm-3.723-10.659h3.273v-4.645h-6.37c-4.145 0-6.368.052-6.368.15 0 .082.057.15.127.15s.21.927.31 2.06.214 2.155.252 2.271c.057.176.52.195 2.786.113 1.494-.054 4.19-.099 5.99-.099zm-7.667-7.33c0-.076 1.076-.143 2.435-.15 2.862-.015 6.278-.18 5.96-.286 2.541.061 1.487-.052 1.999-.121l.096-1.432v-1.41c0-.84-.06-1.41-.15-1.41-.082 0-.15-.139-.15-.31 0-.223-.072-.288-.262-.235-.144.041-1.898.121-3.898.178-2 .057-3.673.163-3.718.235-.045.073-.25.133-.456.133-.212 0-.335-.066-.282-.15.05-.083.025-.15-.058-.15-.082 0-.191.067-.242.15-.051.082-.679.15-1.395.151-1.821.002-2.427.12-2.427.468 0 .154.055.28.122.28s.209.826.314 1.836c.266 2.535.176 2.36 1.223 2.36.489 0 .89-.062.89-.137zm4.421-7.654c.082-.064 1.35-.15 2.818-.192 1.468-.042 2.701-.109 2.74-.148.04-.04.003-.934-.082-1.987-.086-1.053-.156-2.107-.156-2.342 0-.408-.032-.428-.683-.428-.376 0-.648.057-.605.127.043.07-1.976.216-4.487.325-2.51.11-4.565.254-4.565.323 0 .068-.565.124-1.255.124s-1.473.044-1.738.097c-.446.089-.476.132-.391.554.05.252.152.496.225.541.074.046.221.504.328 1.02.106.514.243.935.304.935.06 0 .157.312.214.692l.104.693 3.54-.11c1.946-.059 3.607-.16 3.689-.224zM144.446 197.427l.395-.31v-12.943c0-8.468.052-12.976.15-13.036.082-.051.15-.46.15-.908v-.816h1.85c1.017 0 2.77-.044 3.895-.098 1.841-.088 2.027-.122 1.862-.337-.139-.18-.108-.175.125.023.257.219.613.262 2.133.262h1.824v1.208c0 .664.057 1.173.127 1.13.07-.044.216 2.717.324 6.135.11 3.418.254 6.214.323 6.214s.124.421.123.936c-.001.516.078 3.28.177 6.145l.179 5.207H160.746l-.091-3.259c-.05-1.793-.153-3.496-.227-3.784-.127-.495-.458-9.5-.453-12.314 0-.714-.057-1.32-.129-1.348-.071-.028-.162-1.45-.2-3.162l-.07-3.11 6.307.038 6.308.04.044 1.086c.024.598.098 1.086.165 1.086s.166.658.22 1.462c.186 2.733.45 5.357.546 5.432.09.07.362 2.174.554 4.305.047.513.13.905.185.871.055-.034.22.828.367 1.914.147 1.087.321 2.044.387 2.126.065.083.201.74.302 1.462.1.722.235 1.345.299 1.384.064.04.24.815.39 1.723.152.908.321 1.65.378 1.65.057 0 .221.675.366 1.5.145.824.32 1.498.39 1.498s.127.101.127.225c0 .249.89.302 2.152.13.545-.075.696-.157.696-.375 0-.154-.056-.28-.124-.28s-.25-.67-.406-1.488c-.156-.818-.326-1.46-.38-1.428-.052.033-.216-.63-.363-1.472s-.31-1.565-.364-1.606c-.11-.084-.62-3.036-.614-3.56.002-.185-.055-.337-.125-.337s-.216-.725-.324-1.61c-.108-.887-.246-1.645-.306-1.687-.112-.075-.591-4.713-.591-5.721 0-.301-.058-.57-.128-.598-.175-.068-.463-6.446-.576-12.75-.051-2.865-.15-5.208-.22-5.208-.068 0-.125-1.72-.125-3.821 0-2.448.054-3.822.15-3.822.094 0 .15-.936.148-2.51-.002-2.634.374-7.842.602-8.355.073-.165.245-1.345.382-2.622.138-1.278.31-2.346.383-2.373.073-.028.133-.23.132-.45-.002-.612.344-2.788.456-2.872.055-.041.22-.884.367-1.873.147-.99.317-1.832.377-1.874.06-.04.226-.783.37-1.648.143-.866.309-1.607.368-1.649.059-.04.23-.732.379-1.536.15-.803.32-1.46.38-1.46s.196-.507.302-1.125c.105-.618.24-1.124.297-1.124.058 0 .228-.59.378-1.311s.314-1.345.366-1.386c.052-.041.219-.615.37-1.274.153-.66.334-1.236.405-1.281.07-.046.17-.299.223-.562.072-.358.042-.48-.114-.48-.116 0-.32-.129-.455-.286-.135-.157-.616-.369-1.07-.47-1.577-.353-2.787.251-3.236 1.618-.115.35-.259.637-.32.637-.06 0-.147.151-.194.337a1.99 1.99 0 0 1-.327.637c-.133.165-.2.215-.147.112.074-.146-.429-.187-2.274-.187-1.304 0-4.135-.045-6.293-.1l-3.924-.098-.092-.368c-.087-.345-.167-.467-.633-.965-.347-.37-.583-.52-.984-.62-.416-.104-1.678.033-1.542.169.041.041-.193.208-.52.37s-.595.383-.595.491c0 .108-.063.22-.139.247-.126.045-.319 3.064-.563 8.817-.05 1.195-.142 2.206-.203 2.247-.06.042-.168 1.357-.24 2.923l-.13 2.847.056.834c.862 3.476 3.017-.338-.617 2.588.327-.08.337-.049.337 1.045 0 .62-.06 1.15-.132 1.178-.072.027-.218 1.986-.323 4.353-.105 2.366-.241 4.272-.302 4.234-.06-.037-.156 1.196-.212 2.741-.057 1.545-.131 2.913-.167 3.04-.064.231-1.305.351-7.182.693-.906.052-1.682.14-1.723.197-.07.094-3.75.373-7.343.556-.866.044-1.607.13-1.649.19-.07.105-1.032.18-5.132.405-.969.053-1.761.142-1.761.198 0 .055-1.332.182-2.96.281-1.628.1-3.348.221-3.821.27l-.862.09v8.007c0 6.365.038 7.984.187 7.894.127-.076.121-.03-.018.142-.173.213-.189 2.276-.095 12.916l.112 12.663h1.156c1.101 0 1.176-.022 1.565-.46l.41-.459.102-12.765.103-12.766 3.484-.04c2.152-.025 3.484-.097 3.484-.188s1.111-.147 2.923-.147h2.922v28.024h1.778c1.572 0 1.824-.036 2.173-.31zm.395-32.889c0-2.59.027-2.916.243-2.916.21 0 .215-.037.04-.263-.193-.25-.188-.25.106 0 .283.24.803.263 6.104.263h5.796v5.838l-2.81.04c-1.546.023-4.31.022-6.144-.002l-3.335-.043v-2.916zm14.686.156v-2.773h12.439v5.545h-12.439zm-31.47-1.739v-2.386l6.406.04 6.407.038.041 2.359.041 2.358-5.51.04c-3.032.021-5.934.016-6.449-.012l-.936-.05v-2.387zm14.986-3.656c-.194-.206-.319-.375-.277-.375.04 0 .233.169.427.375.193.206.318.374.277.374-.042 0-.234-.168-.427-.374zm-3.747-3.414c0-.022.49-.511 1.087-1.086l1.086-1.045-1.045 1.086c-.97 1.01-1.128 1.155-1.128 1.045zm-1.274-1.607c-.149-.164-.237-.3-.196-.3.041 0 .197.135.346.3.15.165.238.3.197.3-.042 0-.197-.135-.347-.3zm22.105-1.78c-.041-.05-.056-1.79-.033-3.864l.043-3.77 4.153.083c2.285.046 4.177.14 4.204.211.028.071.848.129 1.824.129.975 0 1.88.04 2.01.09.251.097.325.587.11.72-.07.044-.174 1.245-.23 2.67-.057 1.424-.142 2.904-.19 3.29l-.088.7-5.864-.082c-3.225-.045-5.898-.125-5.94-.176zm3.722-10.658h-3.273v-4.646h6.37c4.146 0 6.369.052 6.369.15 0 .082-.058.15-.128.15s-.21.927-.31 2.06c-.1 1.134-.213 2.156-.251 2.272-.058.176-.521.194-2.787.112-1.494-.054-4.19-.098-5.99-.098zm7.667-7.33c0-.077-1.075-.143-2.435-.15-2.861-.016-6.277-.18-5.96-.286-3.605 1.59-1.245-1.445-2.095-1.554v-1.41c0-.84.06-1.409.15-1.409.082 0 .15-.14.15-.31 0-.223.073-.289.262-.235.144.04 1.899.12 3.898.177 2 .057 3.673.163 3.718.236.045.073.25.132.457.132.211 0 .334-.065.282-.15-.051-.082-.025-.15.057-.15s.192.068.242.15c.051.083.68.15 1.396.152 1.82.002 2.426.119 2.426.467 0 .154-.055.28-.122.28s-.208.827-.314 1.836c-.266 2.535-.175 2.36-1.223 2.36-.489 0-.889-.061-.889-.136zm-4.42-7.654c-.083-.064-1.351-.15-2.819-.192-1.467-.042-2.7-.109-2.74-.149-.04-.04-.002-.933.083-1.986s.155-2.107.155-2.343c0-.408.032-.427.684-.427.375 0 .647.057.604.127-.043.07 1.976.216 4.487.325 2.511.109 4.566.254 4.566.322 0 .069.565.125 1.255.125s1.472.043 1.738.096c.445.09.475.132.39.555-.05.252-.151.495-.225.54-.074.046-.221.505-.327 1.02-.107.515-.244.936-.304.936-.061 0-.158.311-.215.692l-.104.692-3.54-.109c-1.946-.06-3.606-.16-3.689-.224z" transform="translate(-29.05 -3.599)"/><path style="fill:#fff;stroke-width:.149861;fill-opacity:1" d="M93.932 61.33c-.199-.041-.457-.17-.573-.286-.116-.116-.29-.21-.388-.21-.235 0-.944-.761-1.169-1.255-.099-.217-.229-.394-.289-.394-.06 0-.23-.456-.378-1.012-.149-.556-.327-1.05-.396-1.098-.07-.048-.206-.84-.304-1.76-.098-.922-.23-1.675-.295-1.675-.065 0-.118-.133-.118-.295 0-.162-.202-.501-.45-.754-.247-.253-.449-.525-.449-.605a.148.148 0 0 0-.15-.145c-.082 0-.15.094-.15.21 0 .114-.1.247-.224.294a.366.366 0 0 0-.225.31c0 .124-.135.297-.3.385-.165.089-.3.259-.3.379s-.135.302-.3.405c-.164.103-.3.27-.3.372 0 .227-2.38 2.59-2.608 2.59-.092 0-.25.136-.354.3-.102.165-.271.3-.374.3-.103 0-.272.135-.375.3-.103.165-.283.3-.4.3-.117 0-.302.088-.41.195-.11.107-.502.316-.873.463-.37.148-.711.33-.757.404-.046.074-.485.214-.975.31-.49.097-.936.246-.992.33-.142.215-3.997.222-4.137.007-.06-.09-.318-.205-.576-.255-.87-.169-3.053-1.93-3.053-2.464 0-.11-.099-.237-.22-.283-.12-.046-.26-.212-.309-.369-.158-.498-.524-.736-1.13-.736-.324 0-.59-.068-.59-.15 0-.083-.34-.15-.756-.15-.951 0-2.832-.42-3.105-.693-.113-.113-.297-.206-.41-.206-.111 0-.32-.118-.465-.262-.144-.145-.3-.269-.348-.276-.362-.054-.824-.415-1.696-1.323-.557-.579-1.012-1.105-1.012-1.17 0-.064-.135-.251-.3-.416-.165-.165-.3-.405-.3-.533 0-.129-.06-.196-.134-.15-.075.045-.257-.254-.405-.666-.148-.412-.316-.749-.373-.749-.057 0-.225-.455-.373-1.012-.148-.556-.316-1.045-.372-1.086-.057-.041-.19-.564-.296-1.162-.106-.597-.245-1.086-.309-1.086s-.137-.219-.163-.486c-.04-.412-.151-.535-.734-.81-.787-.373-2.05-1.57-2.162-2.05-.14-.6.1-.713 1.74-.822l1.558-.103.04-3.416c.032-2.657.082-3.392.226-3.306.143.086.145.062.008-.107-.114-.14-.194-1.063-.225-2.583-.035-1.72-.101-2.396-.241-2.482-.317-.196-.4-1.13-.124-1.406.148-.147.177-.259.077-.292-.236-.08-.256-1.953-.021-2.032a.297.297 0 0 0 .185-.265c0-.112.123-.292.272-.4.194-.14.283-.429.312-1.009.052-1.03.328-1.884.61-1.884.12 0 .322.202.45.45.126.247.277.47.336.497.058.026.151.447.206.936.06.521.214 1.018.374 1.203.354.408.506 1.44.314 2.134-.102.368-.102.578 0 .64.091.057.11.342.048.714-.057.34-.135 2.29-.172 4.332-.05 2.83-.11 3.69-.247 3.613-.128-.073-.126-.044.008.1.132.143.187.85.187 2.4v2.197l.695.095c.383.053.922.096 1.2.096.276 0 .503.06.503.132 0 .073.14.17.313.214.246.065.29.154.206.418a2.04 2.04 0 0 1-.388.639c-.154.166-.281.36-.281.432 0 .072-.065.09-.143.042-.08-.049-.251.075-.382.276-.132.2-.455.451-.719.558-.264.107-.522.256-.573.331-.052.076-.403.172-.78.215-.676.076-.684.083-.594.545.05.258.138.503.196.544.058.04.195.429.304.861.11.433.248.787.307.787.06 0 .224.37.366.821.142.452.302.795.355.762.053-.033.222.245.376.617.24.58 1.033 1.482 2.167 2.464.154.134.558.366.899.516.34.15.619.317.619.37 0 .054.286.183.637.288.35.104.67.239.711.298.073.106 1.982.625 2.05.557.062-.062-.3-1.372-.4-1.448-.139-.103-.45-1.736-.45-2.356 0-.28-.058-.473-.129-.43-.07.044-.173-1.284-.227-2.95a740.58 740.58 0 0 0-.192-5.303l-.094-2.273-.541-.097c-.753-.134-1.515-.415-1.515-.558 0-.066-.098-.12-.218-.12s-.592-.365-1.05-.81c-.584-.572-.83-.927-.83-1.2 0-.234.084-.387.212-.387.117 0 .236-.071.265-.158.029-.087.72-.221 1.534-.298.815-.077 1.489-.158 1.496-.18.008-.021-.02-2.823-.06-6.226-.056-4.545-.123-6.217-.253-6.297-.397-.245-.71-1.977-.357-1.977.086 0 .086-.187 0-.486-.3-1.043-.102-2.362.41-2.736.13-.096.23-.37.221-.611-.033-.952.159-2.001.423-2.306l.276-.318.376.349c.207.192.423.6.48.905.058.306.165.557.239.557.073 0 .133.2.133.444 0 .464.415 1.5.674 1.686.083.06.15.666.15 1.349 0 .683.056 1.328.125 1.435.14.217-.189 1.68-.378 1.68-.067 0-.122.678-.122 1.507 0 .83.057 1.473.127 1.43.069-.043.166 2.085.216 4.728.05 2.644.12 4.837.157 4.874.037.036.683.106 1.435.155 1.75.114 2.334.52 1.73 1.205-.914 1.04-1.415 1.537-1.55 1.537-.086 0-.228.134-.316.3-.089.164-.256.299-.371.299-.116 0-.251.065-.3.144-.125.203.21 5.3.354 5.396.106.072.47 1.627.535 2.288.014.143.173.418.353.61.18.191.328.4.328.462 0 .165.85.99 1.019.99.079 0 .226.101.328.224.102.123.228.197.28.166.149-.09.466.314.35.443-.057.063-.021.067.08.01.208-.12 1.39.193 1.39.367 0 .062.489.196 1.086.298 1.128.193 3.191.03 3.391-.267.093-.138.58-.378.817-.403.069-.007.211-.131.317-.275.105-.144.26-.262.343-.262.163 0 .784-.709 1.389-1.586.206-.298.478-.656.604-.794.126-.139.357-.587.513-.997.157-.41.362-.821.455-.915.094-.094.256-.549.36-1.012.103-.462.24-.84.302-.84.064 0 .207-.389.318-.862.112-.474.247-.896.301-.937.112-.085.594-2.398.594-2.85 0-.164.06-.297.132-.297.073 0 .18-.45.24-1 .058-.55.138-1.081.175-1.18.038-.099-.033-.281-.157-.406-.124-.124-.185-.268-.134-.319.052-.05-.008-.092-.131-.092-.124 0-.32-.186-.437-.413-.117-.226-.272-.455-.346-.508-.073-.053.009-.249.182-.435.276-.296.503-.347 1.819-.41l1.504-.073.018-1.366c.012-.95.052-1.23.132-.917.063.248.122-1.96.132-4.908.01-2.946-.04-5.357-.112-5.357-.07 0-.247-.374-.39-.832-.233-.737-.237-.86-.04-1.086.122-.14.198-.356.169-.48-.03-.123-.096-.41-.148-.635-.15-.651.071-1.695.455-2.142.278-.323.364-.628.41-1.447.033-.571.132-1.085.22-1.142.09-.057.21-.256.268-.441.058-.185.185-.337.282-.336.2 0 .702.811.702 1.135 0 .117.067.213.15.213.082 0 .15.131.15.292 0 .616.336 1.82.575 2.06.34.34.36 2.384.024 2.596-.14.089-.156.143-.043.145.35.004.473.507.305 1.242-.09.39-.219.708-.287.708-.069 0-.125 2.394-.125 5.32s.039 5.32.086 5.32c.047 0 .176-.09.287-.201.111-.111.629-.285 1.15-.386.523-.101 1.067-.246 1.21-.323.143-.076.84-.139 1.548-.139 1.23 0 1.307-.02 1.737-.45.247-.247.63-.493.85-.547.22-.054.449-.172.507-.262.067-.102.702-.165 1.672-.165 1.477 0 1.556-.015 1.415-.278-.245-.457-.009-1.288.411-1.448.202-.077.367-.2.367-.272 0-.074.404-.22.899-.324.495-.105.9-.25.9-.32a.13.13 0 0 0-.13-.13c-.152 0-.62-1.165-.62-1.541 0-.142-.068-.257-.15-.257-.214 0-.188-1.311.027-1.383.126-.042.183-.744.195-2.396.013-1.7.072-2.403.216-2.577.146-.175.169-.452.085-1.026-.102-.702-.143-1.382-.223-3.708-.026-.735.202-1.499.446-1.499.084 0 .153-.1.153-.224s-.1-.225-.222-.225-.267-.182-.323-.403c-.11-.442.178-1.74.404-1.82.205-.073.174-.632-.032-.587-.096.02-.281-.165-.412-.412-.132-.247-.29-.472-.351-.5-.17-.075-.135-1.523.037-1.523.082 0 .15-.093.15-.206 0-.113.253-.423.562-.688.514-.441.632-.478 1.386-.423.674.05.92.148 1.349.543.51.468.524.514.524 1.6 0 1.036-.031 1.148-.424 1.512-.336.312-.403.475-.325.787.054.216.166.435.248.486.082.05.187.375.234.72.069.515.026.682-.237.927-.393.366-.396.453-.032.873.248.285.289.57.29 2.009 0 1.855-.083 2.546-.29 2.417-.076-.046-.138.15-.138.436 0 .287-.038.62-.083.739-.053.137.034.248.235.3.282.074.318.192.32 1.032.004 1.672.083 3.322.201 4.19.124.914-.237 2.486-.626 2.722-.364.222-.202.52.336.621.293.055.655.223.805.373.15.15.35.298.445.33.28.093.379 1.094.132 1.34-.184.185.006.213 1.414.213.937 0 1.673.065 1.734.153.06.084.302.239.54.344.238.105.564.356.723.559.271.345.38.368 1.702.368.778 0 1.413.058 1.413.13 0 .07.342.169.76.218.864.102 1.788.403 1.788.581 0 .066.067.12.15.12.097 0 .15-1.817.15-5.151 0-4.196-.042-5.27-.225-5.789-.254-.72-.293-1.438-.085-1.567.076-.047.095-.27.04-.496-.259-1.075-.012-2.493.515-2.957.093-.082.206-.58.25-1.108.044-.526.137-.998.208-1.049.07-.05.246-.276.39-.503.144-.227.332-.412.416-.412.268 0 .6 1.034.61 1.898.007.549.094.923.257 1.104.676.75.696.807.705 2.09.005.702.059 1.425.12 1.607.136.405-.143 1.503-.464 1.824-.208.208-.224.7-.138 4.137.054 2.145.098 4.898.098 6.119 0 1.441.053 2.187.15 2.126.082-.05.15-.03.15.046s.624.174 1.386.217c.762.043 1.512.13 1.665.192.414.17.224 1.05-.348 1.608-.278.272-.456.6-.456.84-.002.753.351 2.704.475 2.627.069-.043.125.088.125.29 0 .524.464 2.708.595 2.797.06.042.228.564.373 1.162.145.597.309 1.086.364 1.086.056 0 .191.304.3.675.11.37.25.674.31.674.061 0 .222.283.358.628.24.612.237.638-.09 1.01-.292.332-.295.348-.025.122.418-.35.643-.33.803.076.145.369.81 1.214 1.283 1.63.986.866 1.232 1.046 1.535 1.125.185.048.303.14.263.205-.077.125 1.534.45 2.232.45.672 0 2.485-.335 2.417-.446-.035-.057.304-.22.753-.361.45-.142.818-.315.818-.384 0-.07.162-.167.361-.217.47-.118 1.737-1.45 1.737-1.827 0-.105.093-.284.206-.397.217-.217.693-2.085.693-2.718 0-.203.066-.392.147-.42.08-.027.191-1.101.248-2.41.09-2.087.074-2.36-.134-2.36-.13 0-.462-.22-.739-.487a7.648 7.648 0 0 0-.912-.753c-.224-.146-.408-.358-.408-.47 0-.114-.102-.245-.225-.292-.347-.134-.275-.807.112-1.05.186-.115.908-.254 1.605-.309.697-.054 1.29-.12 1.317-.148.027-.027.12-2.266.208-4.976.148-4.616.116-7.19-.109-8.725-.053-.366-.03-.714.053-.798.094-.093.1-.366.017-.736-.164-.729.064-1.837.466-2.269.185-.198.33-.637.392-1.19.054-.481.15-.876.21-.876.062 0 .154-.185.204-.412.222-.996.917-1.213 1.092-.34.05.249.142.453.204.453.063 0 .142.479.175 1.065.047.84.122 1.11.354 1.28.253.186.296.407.307 1.595.007.759.063 1.532.123 1.72.118.363-.141 1.335-.434 1.628-.206.205-.376 4.476-.376 9.45v3.175l.636.079c.35.043 1.036.12 1.523.172 1.515.161 1.679.714.553 1.864-.404.413-.811.75-.904.75-.093 0-.206.095-.25.212-.045.116-.532.33-1.082.477-.55.147-1.05.339-1.111.426-.06.088-.111 1.154-.113 2.37 0 1.215-.059 2.21-.128 2.21-.07 0-.168 1.298-.218 2.885-.093 2.925-.33 5.219-.554 5.357-.068.042-.172.346-.232.675-.06.33-.173.724-.251.876-.118.227-.095.263.132.2.151-.042.629-.156 1.062-.254.432-.098.786-.233.786-.3 0-.068.203-.168.452-.223.248-.054.534-.179.637-.277.102-.097.472-.304.822-.46.35-.155.637-.34.637-.41 0-.069.084-.127.187-.13.103-.001.457-.237.786-.524.328-.286.641-.521.695-.521.054 0 .206-.27.338-.6.132-.33.302-.6.38-.6.076 0 .216-.235.312-.524.095-.288.221-.524.28-.524.059 0 .237-.388.395-.862.158-.474.344-.901.413-.95.136-.096.555-1.561.558-1.953.001-.179-.196-.269-.747-.342-.412-.055-.75-.16-.75-.234 0-.074-.143-.18-.32-.236-.175-.056-.68-.458-1.123-.893-1.309-1.288-1.084-1.703 1.069-1.969l1.049-.13.043-5.469c.037-4.765.01-5.6-.214-6.472-.191-.747-.214-1.053-.089-1.204.116-.139.125-.387.029-.796-.166-.708.079-2.148.385-2.265.12-.047.277-.536.385-1.205.178-1.105.517-1.695.973-1.695.251 0 .509.806.522 1.633.009.588.248 1.568.278 1.143.006-.08.129.021.273.225.203.286.264.688.27 1.767.006 1.048.063 1.431.225 1.534.12.075.15.138.067.14-.082 0-.276.396-.43.878-.262.82-.273 1.239-.169 6.37l.111 5.492.919.002c1.52.003 2.033.135 2.137.552.116.461-.33 1.317-.798 1.53-.19.087-.346.22-.346.294 0 .076-.283.25-.629.389-.91.364-1.096.661-1.31 2.098-.105.704-.241 1.28-.303 1.28s-.222.44-.355.98c-.133.54-.345 1.083-.471 1.21-.126.126-.23.354-.23.507 0 .153-.103.382-.23.509-.126.126-.33.468-.451.76-.122.29-.28.53-.352.53-.072 0-.17.117-.218.262-.192.57-1.49 1.985-1.821 1.985-.084 0-.236.135-.34.3-.102.165-.284.3-.404.3-.12 0-.338.13-.486.287-.147.158-.47.337-.718.398-.247.06-.487.168-.534.239-.118.179-2.027.569-2.8.572-.35.002-.637.07-.637.152 0 .083-.339.15-.753.15-.667 0-.77.043-.897.379-.15.395-.297.603-.86 1.216-.186.202-.337.415-.337.473 0 .347-2.23 1.828-2.753 1.828-.135 0-.245.061-.245.136 0 .22-1.73.355-3.087.242-.693-.058-1.23-.152-1.195-.21.035-.057-.384-.188-.932-.292-.547-.104-1.034-.252-1.081-.328-.047-.076-.384-.243-.748-.372-.364-.128-.699-.282-.743-.341-.045-.06-.317-.24-.606-.4-.288-.16-.6-.362-.693-.45a13.546 13.546 0 0 0-.65-.532c-.558-.434-1.991-1.862-2.59-2.58-.227-.27-.547-.654-.712-.853-.165-.198-.3-.4-.3-.45 0-.048-.169-.285-.375-.524-.206-.24-.374-.492-.374-.562 0-.07-.068-.127-.15-.127-.083 0-.15.072-.15.16 0 .088-.224.375-.497.637-.472.453-.507.562-.685 2.123-.103.905-.236 1.68-.296 1.724-.06.042-.229.6-.377 1.239-.148.638-.323 1.16-.39 1.16-.066 0-.159.153-.205.34-.102.406-.872 1.257-1.596 1.766-.426.298-.7.366-1.445.357-.652-.008-.995-.084-1.173-.262-.138-.139-.33-.253-.428-.254-.277-.004-1.343-1.157-1.233-1.334.057-.092.013-.126-.104-.082-.194.075-.713-.844-.713-1.264 0-.1-.059-.146-.13-.102-.126.077-.708-1.654-.643-1.91.017-.068-.038-.08-.122-.029-.085.052-.154.024-.154-.064 0-.237-.215-.192-.577.122-.178.154-.643.369-1.034.476-.392.108-.748.25-.793.316-.045.066-.66.165-1.367.219-1.156.089-1.278.127-1.212.378.04.153.132.279.205.279.073 0 .133.202.133.45 0 .247-.054.45-.12.45s-.201.225-.301.5c-.202.56-.691.848-1.437.848-.684 0-1.44-.286-1.44-.544 0-.118-.1-.254-.224-.301-.258-.1-.328-1.553-.075-1.553.082 0 .15-.091.15-.202 0-.146-.34-.23-1.217-.297-.67-.052-1.293-.149-1.386-.216-.094-.067-.54-.25-.994-.406-.453-.156-.913-.372-1.022-.48-.388-.386-.592-.201-.857.777-.145.536-.316.974-.38.974-.063 0-.193.236-.288.524-.096.289-.22.525-.275.525-.056 0-.188.195-.294.434-.329.743-1.373 1.664-1.886 1.664-.12 0-.24.064-.268.143-.06.174-1.111.307-1.61.204zm1.335-2.292c0-.081.156-.186.345-.234.19-.048.578-.386.862-.753.284-.367.632-.808.773-.98.14-.174.33-.544.423-.824.093-.28.23-.51.307-.51.076 0 .138-.1.138-.224s-.065-.225-.144-.225c-.08 0-.221-.286-.315-.637-.093-.35-.298-.757-.455-.905-.157-.147-.285-.352-.285-.454 0-.23-.867-1.591-1.265-1.986-.233-.232-.504-.289-1.385-.289-.802 0-1.095.053-1.096.196 0 .108-.057.162-.125.12-.068-.043-.252.729-.407 1.714-.156.986-.337 1.792-.402 1.792s-.05.118.034.262c.084.144.248.834.365 1.532.117.699.284 1.294.373 1.324.089.03.161.13.161.223s.186.35.412.57c.308.3.575.406 1.05.418.35.01.636-.05.636-.13zm22.63.007c0-.077.135-.183.302-.236.31-.099.746-.94.746-1.441 0-.155.06-.282.132-.282.072 0 .211-.556.308-1.236.097-.68.2-1.354.23-1.499.028-.144-.007-.226-.078-.182-.072.044-.175-.26-.23-.674-.055-.415-.153-.755-.216-.755-.064 0-.161-.387-.216-.861l-.1-.862-1.077.015c-1.51.02-1.555.03-1.653.322-.125.373-.44.841-.659.982a.439.439 0 0 0-.187.326c0 .114-.104.31-.23.437-.127.127-.337.486-.467.798-.13.312-.313.615-.406.674-.296.185-.206 1.5.13 1.883.164.188.265.363.224.389-.042.025.175.352.48.725.307.373.51.732.45.797-.058.065-.031.075.061.023.092-.053.288.038.435.2.148.163.36.297.47.297.11 0 .202.067.202.15 0 .082.303.15.674.15.37 0 .674-.063.674-.14zm-2.829-.273c.187-.237.181-.243-.056-.056-.145.113-.263.23-.263.262 0 .123.123.044.32-.206zm22.46-.543c0-.031-.118-.15-.262-.263-.238-.186-.243-.18-.057.057.196.25.32.329.32.206zm-58.595-.693c0-.082.131-.15.292-.15.307 0 1.078-.298 1.206-.467.041-.054.34-.208.662-.343.57-.237.598-.234.974.096l.387.34-.362-.412c-.2-.226-.335-.431-.3-.455 1.178-.825 2.985-2.494 2.985-2.757 0-.072.186-.307.412-.522.472-.447.623-.632 1.023-1.253.158-.245.44-.569.625-.719.43-.348.425-.485-.037-.913-.206-.19-.374-.483-.374-.649a.72.72 0 0 0-.225-.488.713.713 0 0 1-.225-.482c0-.382.438-1.304.782-1.648.147-.147.267-.364.267-.482 0-.117.084-.303.187-.412.222-.234.503-.804.646-1.31.057-.2.23-.5.384-.665.155-.166.282-.39.282-.499 0-.108.061-.196.137-.196.075 0 .379-.33.674-.732l.537-.732v-5.697l-.5-.058c-.276-.033-.572.017-.659.11-.086.091-.242.802-.347 1.577-.104.776-.236 1.444-.293 1.485-.057.042-.222.868-.367 1.836-.145.969-.313 1.761-.373 1.761s-.232.54-.383 1.199c-.15.66-.325 1.199-.388 1.199-.064 0-.223.37-.355.824-.132.453-.294.824-.361.824s-.21.27-.32.6c-.108.33-.244.6-.3.6-.057 0-.23.303-.382.673-.153.371-.324.675-.38.675-.056 0-.214.236-.351.524-.137.289-.313.525-.392.525-.078 0-.143.1-.143.223s-.135.308-.3.411c-.164.103-.3.255-.3.339-.003.214-1.281 1.575-1.48 1.575-.09 0-.25.134-.352.3-.103.164-.256.3-.339.3-.083 0-.352.105-.597.233s-.56.203-.7.166c-.174-.045-.23.002-.173.148.054.14-.079.274-.386.39-.257.097-.468.218-.468.269 0 .05-.523.22-1.161.375-.64.156-1.199.335-1.244.397-.045.062-.775.159-1.622.214l-1.54.101.39.335c.214.185.607.424.873.533.265.108.572.284.68.39.11.107.463.237.787.288.324.052.59.153.59.225 0 .072.606.131 1.348.131.8 0 1.349-.06 1.349-.15zm56.797.018c0-.208.713-.292.913-.108.133.122.152.116.074-.022-.058-.103-.039-.188.042-.188.082 0 .237-.086.346-.193.11-.106.451-.311.76-.456.31-.145.562-.33.562-.412 0-.08.147-.202.327-.268.22-.082-.176-.154-1.23-.223-.855-.056-1.592-.158-1.637-.228-.045-.07-.401-.173-.79-.23-.39-.058-.746-.166-.792-.24-.046-.074-.174-.1-.284-.057-.11.042-.296-.018-.412-.134-.115-.116-.46-.294-.766-.394-.306-.101-.595-.247-.643-.325-.048-.078-.317-.237-.598-.355a3.402 3.402 0 0 1-.842-.522c-.183-.17-.403-.31-.49-.311-.18-.003-.91-.73-.91-.905 0-.062-.168-.286-.374-.498-.711-.732-.926-1.02-1.139-1.53-.118-.281-.28-.511-.362-.511-.08 0-.147-.089-.147-.197 0-.108-.118-.327-.263-.487-.404-.448-.685-1.071-.592-1.314.047-.122-.077-.37-.28-.56-.2-.188-.364-.396-.364-.461 0-.066-.17-.491-.378-.946-.208-.454-.418-1.03-.468-1.278-.05-.249-.144-.452-.21-.452-.064 0-.24-.675-.39-1.499-.15-.824-.324-1.498-.387-1.498s-.115-.152-.114-.338c.002-.57-.505-3.63-.616-3.709-.057-.04-.128-.243-.157-.45-.053-.381-.144-.401-.99-.217-.334.073-.336.093-.336 2.838v2.765l.487.541c.268.298.633.703.813.9.179.197.413.613.52.925.107.311.314.727.461.923.147.197.266.437.266.534 0 .097.122.307.271.467.149.16.368.51.486.778.119.267.256.487.306.487.05 0 .21.264.355.586l.265.587-.563.912c-.31.501-.62.912-.691.912-.071 0-.129.096-.129.213 0 .186.345.606 1.5 1.826.164.173.298.381.298.462 0 .081.302.411.67.734.37.322.673.67.675.774.002.103.067.187.144.187.076 0 .464.337.861.748.398.412.804.75.902.75.1 0 .234.086.3.19.066.103.389.322.717.486.329.164.687.383.798.486.11.103.465.23.789.281.323.052.588.153.588.225 0 .072.641.13 1.424.13.783 0 1.424-.059 1.424-.132zM73.987 53.34c0-.082.24-.15.533-.15.762 0 2.614-.445 2.614-.628 0-.086.196-.126.44-.09.25.036.429-.001.413-.087-.016-.083.106-.18.271-.215.165-.035.334-.106.375-.159.041-.052.295-.196.564-.32.46-.21.34-.224-1.916-.224-1.432 0-2.449-.061-2.513-.15-.058-.083-.465-.272-.903-.422-.438-.15-.917-.385-1.065-.524a23.143 23.143 0 0 0-.812-.703c-.298-.247-.543-.533-.545-.636-.002-.103-.08-.188-.175-.188-.122 0-.149.438-.092 1.536.086 1.688.35 2.81.662 2.81.11 0 .2.068.2.15 0 .085.426.15.975.15.55 0 .974-.065.974-.15zm65.724.016c-.045-.074.073-.173.264-.22.291-.074.376-.242.524-1.046.238-1.294.235-3.59-.004-3.17a1.929 1.929 0 0 1-.467.51 4.289 4.289 0 0 0-.6.562c-.168.193-.387.35-.487.35-.1 0-.214.085-.254.188-.04.103-.401.283-.803.4-.402.116-.779.284-.838.374-.069.106-.942.163-2.495.163-2.317 0-2.833.085-1.745.29.29.054.526.16.526.235 0 .076.27.21.6.299.33.089.599.216.599.282 0 .154 2.086.617 2.777.617.286 0 .52.068.52.15 0 .085.427.15.983.15.54 0 .945-.06.9-.134zm-74.64-.915c.149-.165.237-.3.196-.3-.042 0-.197.135-.346.3-.15.165-.238.3-.197.3.041 0 .197-.135.346-.3zm11.464-1.396c0-.026-.22-.245-.487-.487l-.487-.44.44.487c.41.454.534.556.534.44zm53.8-.01c0-.03-.118-.149-.262-.262-.238-.186-.243-.181-.057.057.196.25.319.329.319.205zm-6.575-.955c.186-.237.181-.243-.057-.056-.144.113-.262.23-.262.262 0 .123.123.044.32-.206zm1.499-1.498c.186-.238.18-.243-.057-.057-.144.113-.262.231-.262.262 0 .124.123.044.319-.205zm-29.57-.036c.107 0 .163-.055.122-.12-.04-.065.125-.25.366-.412.721-.483.9-1.053.84-2.686-.028-.792-.115-1.504-.193-1.582-.09-.089-.29-.004-.543.23-.27.25-.574.372-.932.372h-.531v-1.48l-.412.214c-.532.277-.883.275-.991-.008-.048-.123-.257-.225-.466-.225-.378 0-.38.003-.378 1.387 0 1.333.197 2.51.419 2.51.058 0 .196.203.306.451.236.533.965 1.296 1.335 1.397.144.04.397.045.561.013.165-.032.388-.06.496-.06zm22.11-.489c.63-.608 1.146-1.405 1.146-1.764 0-.092.086-.254.19-.358.156-.156.24-2.152.126-2.973-.023-.164-.765-.138-.765.027 0 .276-.614.335-.982.094-.365-.24-.367-.238-.367.288 0 .29-.067.527-.15.527-.082 0-.15.102-.15.225 0 .367-.829.276-1.278-.14-.603-.56-.814-.363-.853.793-.073 2.146-.048 2.262.648 2.992 1.048 1.1 1.538 1.158 2.436.29zm10.138.58c0-.03-.118-.149-.262-.262-.238-.186-.243-.18-.057.057.196.25.32.329.32.205zm-.73-2.004c.186-.237.181-.243-.057-.056-.144.113-.262.231-.262.262 0 .123.123.044.319-.206zm-56.198-.15c.186-.237.181-.242-.057-.056-.25.196-.329.32-.205.32.03 0 .149-.119.262-.263zm.28-.693c0-.03-.117-.149-.262-.262-.237-.186-.243-.181-.056.057.196.25.319.329.319.205zm51.853-1.948c0-.03-.118-.149-.263-.262-.237-.186-.243-.181-.056.057.195.25.319.329.319.205zm-21.13-.393c0-.082.09-.15.201-.15.525 0 1.109-.937.674-1.081-.103-.035-.2-.543-.242-1.262l-.07-1.203.629-.661c.616-.648.622-.665.317-.868-.219-.145-.312-.367-.313-.75-.003-.77-.148-1.218-.395-1.218-.16 0-.206.208-.189.862.013.474-.017 1.165-.065 1.536-.048.37-.128.996-.177 1.389-.05.393-.154.676-.23.628-.078-.048-.14-.021-.14.06 0 .08.083.173.185.208.328.109-.227.514-1.009.735-.787.222-1.046.547-.541.679.21.055.315.202.315.446 0 .2.084.459.187.576.215.243.862.3.862.074zm8.761-.048c.11-.11.166-.37.124-.585-.056-.297-.002-.41.241-.486.173-.055.314-.147.314-.204 0-.187-.525-.436-1.135-.54l-.6-.1-.181-1.155c-.1-.636-.182-1.34-.182-1.566 0-.226-.067-.411-.15-.411-.082 0-.148-.32-.147-.712.002-.515.042-.65.147-.487.118.182.146.16.148-.112.001-.186-.065-.338-.148-.338-.082 0-.151-.151-.154-.337-.008-.57-.284.055-.392.889-.051.397-.2.845-.332.996-.22.252-.213.293.079.525.174.137.405.503.513.812.108.31.25.562.317.562.066 0 .12.236.12.525 0 .288-.053.524-.116.524-.185 0-.435 1.297-.314 1.624.06.164.25.342.42.396.17.054.31.161.31.238 0 .214.893.167 1.118-.058zm11.62-.3c0-.027-.186-.213-.413-.412l-.412-.364.363.412c.34.386.461.481.461.364zm-22.78-.392c0-.16-.068-.334-.152-.385-.084-.052-.107-.174-.05-.271.055-.098.05-.132-.011-.077-.132.118-.686-.323-.686-.546 0-.084-.192-.282-.425-.438-.233-.156-.486-.494-.562-.75-.115-.39-.21-.463-.586-.455-.248.005-.532-.062-.632-.15-.5-.438-.642-.534-.786-.534-.22 0-.195.41.031.5.147.06.145.107-.01.216-.32.225-.492 1.238-.252 1.479.112.112.277.203.367.203.09 0 .241.169.335.375.212.465.477.48.675.037.199-.443.097-.7-.343-.868-.445-.169-.5-.743-.07-.743.159 0 .378.088.487.196.109.107.317.24.463.296a.72.72 0 0 1 .367.366c.055.146.188.355.296.464.108.109.197.345.2.525.001.214.169.413.486.578.645.335.858.331.858-.018zm13.463-.032c.027-.07.138-.127.245-.127.108 0 .24-.237.295-.527.12-.643.984-1.549 1.594-1.67.368-.074.438-.04.438.212 0 .192-.161.367-.45.486-.32.133-.449.288-.449.543 0 .223.088.357.234.357.128 0 .192.067.141.15-.05.082.046.15.216.15.17 0 .308-.092.308-.203 0-.258.508-.847.73-.847.257 0 .207-.894-.055-.995-.139-.053-.225-.28-.225-.594 0-.28-.03-.509-.067-.509-.037 0-.253.173-.48.383-.273.253-.521.357-.728.305-.326-.082-.637.181-.985.836-.244.458-.92 1.173-1.111 1.175-.165 0-.525.69-.525 1.005 0 .218.783.101.874-.13zm7.967-.925c0-.027-.185-.212-.412-.412l-.412-.364.364.413c.34.385.46.48.46.363zm-1.049-1.075c-.152-.184-.142-.225.057-.225.211 0 .243-.243.243-1.843 0-1.154.063-1.906.167-2.01.272-.272.028-.461-.844-.657-.452-.1-.821-.236-.821-.3 0-.063-.128-.156-.283-.205-.156-.05-.463-.256-.683-.46-.509-.472-.683-.467-.683.019 0 .263.097.414.3.467.165.043.3.138.3.21 0 .074.151.134.337.135.466.003.649.155.766.635.058.235.204.412.34.412.194 0 .219.104.133.562-.13.694-.144.709-.727.727-1.138.035-1.313.073-1.4.3-.051.132-.013.29.085.35.13.08.136.219.02.523l-.157.414.725-.1c.684-.094.747-.073 1.089.36.199.252.438.459.531.46.093 0 .253.102.356.226.102.123.22.224.261.224.041 0-.009-.1-.112-.224zm-27.281-.58c.156-.412.71-.594 1.406-.464l.482.09-.004-.672c-.002-.37-.044-.713-.094-.763-.05-.05-.486-.105-.968-.124-.874-.035-.879-.037-.985-.56-.076-.368-.044-.594.106-.76.118-.13.214-.339.214-.463 0-.252.598-.575 1.065-.575.166 0 .264-.06.22-.133-.046-.073.051-.167.215-.21.2-.053.298-.205.298-.467 0-.497-.362-.512-.679-.028-.13.198-.409.404-.62.457-.212.053-.483.194-.603.314s-.381.226-.581.236c-.2.01-.449.027-.552.037-.274.028-.35 4.142-.079 4.314.409.259 1.019.138 1.159-.23zm6-1.251c.042-.046-.008-.114-.111-.15-.25-.09-.237-.314.037-.588.343-.343.276-.462-.337-.606-.415-.098-.574-.22-.61-.464-.03-.209-.153-.333-.33-.333a.566.566 0 0 1-.434-.262c-.145-.248-.153-.248-.157.005-.003.147-.108.307-.234.355a.854.854 0 0 0-.37.35c-.191.359.138 1.201.47 1.201.14 0 .276.05.304.113.027.061.252.23.5.374.408.238 1.06.24 1.273.005zm1.866.028c.22-.168.29-.404.29-.98 0-.419-.075-.808-.168-.865-.292-.18-.472-.839-.31-1.13.206-.366.021-.987-.413-1.39a1.096 1.096 0 0 1-.365-.788c0-.293-.101-.506-.29-.607-.405-.217-.609-.193-.609.07 0 .123-.067.224-.15.224-.215 0-.185.413.036.487.248.083-.221.562-.55.562-.15 0-.235.134-.235.375 0 .206.067.375.15.375.082 0 .15.127.15.283 0 .333.28.466.983.466.637 0 .73.288.634 1.958-.066 1.128-.053 1.189.243 1.184.172-.003.444-.103.604-.225zm11.66-.145c-.04-.206-.132-.375-.205-.375-.072 0-.132-.236-.132-.525 0-.288.067-.524.15-.524.082 0 .15-.3.15-.666v-.666l.712-.046c.682-.044.72-.07.903-.633.18-.552.17-.61-.187-.982-.209-.217-.38-.527-.382-.687-.003-.436-.221-.698-.539-.645a.889.889 0 0 1-.507-.084c-.174-.101-.186-.089-.054.055.285.309.057 1.386-.363 1.716-.333.262-.36.364-.277 1.068.076.645.041.836-.207 1.122-.208.24-.298.56-.298 1.06 0 .828.268 1.186.889 1.186.365 0 .409-.047.346-.374zm1.012-4.43c0-.087.067-.117.15-.066.082.05.15.122.15.158 0 .037-.068.067-.15.067-.083 0-.15-.072-.15-.16zm1.156 4.542c1.217-.563 1.598-1.27 1.019-1.894-.207-.224-.377-.47-.377-.549a.147.147 0 0 0-.15-.142c-.082 0-.15.094-.15.208 0 .115-.16.25-.356.298-.197.05-.393.226-.436.392-.05.19-.251.337-.538.395-.388.077-.437.134-.314.363.08.15.146.44.146.644 0 .331.15.499.482.535.059.007.362-.106.674-.25zm-9.817-1.46c.206-.413.225-.607.095-.978-.223-.64-.638-.544-.67.154-.013.288-.041.59-.063.673-.05.189.157.676.286.67.053-.001.211-.235.352-.519zm3.185.224c.24 0 .126-1.365-.128-1.534-.273-.182-.39-.13-.39.169 0 .156-.102.322-.226.37-.293.112-.29.395.004.395.138 0 .268.193.326.485.053.266.125.401.159.3a.289.289 0 0 1 .255-.185zm8.173-.956c0-.031-.118-.15-.262-.262-.238-.187-.243-.181-.057.056.196.25.32.33.32.206zm-.899-.9c0-.03-.118-.148-.262-.262-.238-.186-.243-.18-.057.057.196.25.319.329.319.206zm-11.51-1.741c.245 0 .111-.922-.18-1.233-.464-.5-.392-.865.171-.865h.47l-.109-.712c-.145-.947-.145-.96-.02-1.349.08-.25.05-.337-.121-.337-.126 0-.302-.135-.39-.3-.124-.23-.314-.3-.831-.3h-.671l.097.609c.105.658-.146 1.34-.494 1.34-.11 0-.2-.053-.2-.117 0-.065-.196-.192-.437-.282l-.438-.166-.085.695c-.047.382-.034 1.065.028 1.518l.114.825.93-.049.932-.048.265.573c.409.882.542.989.707.563.077-.2.195-.365.262-.365zm5.604-.045.313-.63.998.047.998.047v-.543c0-.372.055-.509.173-.435.096.059.133.042.084-.038s-.104-.564-.123-1.078c-.034-.953-.178-1.237-.476-.939-.092.092-.305.168-.474.17-.254.001-.268.027-.083.147.192.124.187.146-.037.148-.144 0-.262-.066-.262-.148 0-.082-.094-.15-.21-.15-.297 0-.404-.382-.296-1.06l.094-.588h-.55c-.779 0-1.217.475-1.243 1.348-.01.371-.042.877-.069 1.124-.045.408-.006.454.427.496.466.045.473.056.31.525-.09.263-.262.55-.38.639-.236.175-.126 1.113.13 1.113.076 0 .138.101.138.225 0 .396.216.228.538-.42zm-13.667.257c.05-.13.091-.361.091-.514 0-.328.473-.512.985-.383.306.077.364.037.364-.253 0-.246.13-.394.45-.515.247-.093.449-.277.449-.407 0-.131.067-.238.15-.238.082 0 .15-.135.15-.3 0-.2-.1-.3-.3-.3-.165 0-.3.068-.3.15 0 .083-.168.15-.374.15s-.375-.067-.375-.15c0-.089-.55-.15-1.349-.15-.742 0-1.348.06-1.348.131 0 .072-.268.174-.595.226-.662.106-1.354.385-1.354.546 0 .058.682.172 1.515.255.992.098 1.56.222 1.646.358a.825.825 0 0 1-.163 1.072c-.165.141-.3.325-.3.408 0 .246.559.173.658-.086zm21.371.11c0-.07-.105-.338-.235-.598-.474-.95-.216-1.123 1.93-1.302 1.395-.116 1.45-.335.168-.663-.489-.126-.911-.28-.938-.342-.077-.175-2.723-.14-2.723.035 0 .083-.135.15-.3.15-.165 0-.3-.067-.3-.15 0-.082-.134-.15-.3-.15-.216 0-.299.1-.299.363 0 .56.155.836.47.836.16 0 .332.118.386.263.053.144.169.311.257.372.108.074.1.11-.026.112-.103.001-.188.104-.188.227 0 .124.039.225.086.225.047 0 .187-.101.31-.225.288-.287.953-.296.953-.012a.36.36 0 0 0 .187.3c.146.068.147.106.005.173-.144.068-.144.13 0 .294.203.231.558.29.558.093zm25.646-2.982c.186-.238.18-.243-.057-.057-.144.113-.262.231-.262.263 0 .123.123.044.319-.206zM71.664 46.147c-.05-.083-.02-.15.066-.15.088 0 .16.067.16.15 0 .082-.03.15-.067.15-.036 0-.108-.068-.159-.15z" transform="translate(-29.05 -3.599)"/><path style="opacity:.98999999;vector-effect:none;fill:#fff;fill-opacity:1;stroke:none;stroke-width:2.4000001;stroke-linecap:butt;stroke-linejoin:miter;stroke-miterlimit:4;stroke-dasharray:none;stroke-dashoffset:0;stroke-opacity:1" d="M94.28 131.75a551.448 551.448 0 0 0-44.27 1.708l-2.831.792c-2.83.792 11.295 2.65 14.642 2.789 3.347.14 26.217 1.674 31.934 1.674 1.36 0 4.48-.034 8.411-.083l-.463 48.472s-.278 2.091-1.394 3.765c-1.115 1.673-.697 2.23-1.534 2.65-.07.034-.02.068.115.1-3.839.513-6.177 1.466-6.11 2.49.111 1.551 5.602 2.79 12.301 2.778 6.7-.013 12.101-1.273 12.101-2.824-.108-.205-.088-.007-.007-.093-.118-.795-1.678-1.54-4.296-2.055-.158-.226-.278-.4-.578-.815-1.812-2.51-2.37-2.51-2.789-4.184-.411-1.647-1.478-48.874-1.512-50.366 12.607-.176 28.981-.441 32.75-.533 15.466-.432 36.67-4.055 12.044-4.884-16.2-.082-22.922-.694-29.203-.694-3.534 0-13.9-.662-29.31-.687z" transform="translate(-29.05 -3.599)"/><path d="M113.153 85.446c-51.792 94.643-25.896 47.321 0 0zM93.071 109.88c-1.233 0-2.466.068-2.51.201-.034.102-.175.185-.312.186-1.004.003-2.123.757-2.123 1.43 0 .202-.062.368-.137.368-.562 0-.583 5.132-.022 5.544.056.042.192.3.303.575.112.275.31.607.442.739.131.13.238.286.238.345 0 .164 2.207 2.316 2.58 2.514.394.211.616 1.118.35 1.438-.137.165-.123.315.061.671.206.398.224.941.139 4.095-.065 2.403-.155 3.673-.265 3.746-.017.01-.043.021-.068.032.513-.001 1.047-.005 1.55-.004l.032-3.883c.027-3.302.067-3.92.262-4.063.294-.214.296-.602.005-.714-.123-.047-.225-.178-.225-.291 0-.238.874-1.303 1.069-1.303.152 0 .39-.2 1.534-1.297.464-.444.844-.86.844-.926 0-.065.126-.253.279-.417.153-.165.36-.548.46-.853.101-.304.234-.553.296-.553.18 0 .464-1.815.464-2.97 0-1.18-.25-2.575-.462-2.575-.076 0-.14-.152-.142-.337a1.186 1.186 0 0 0-.203-.598c-.227-.299-1.142-.714-1.574-.714-.16 0-.32-.084-.354-.187-.045-.133-1.278-.2-2.51-.2zm-.15 3.85c.286 0 .571.008.787.023.433.03.08.055-.786.055s-1.22-.025-.787-.055c.216-.015.502-.023.787-.023zm2.086.152c.053.002.097.015.122.04.05.05-.038.086-.196.08-.175-.008-.211-.043-.091-.091a.414.414 0 0 1 .165-.03zm-4.201 0a.613.613 0 0 1 .208.033c.101.04-.018.071-.265.068-.247-.003-.33-.037-.185-.075a.956.956 0 0 1 .242-.026zm-1.64.28c.088 0 .16.068.16.15 0 .083-.03.15-.067.15-.036 0-.108-.067-.159-.15-.05-.082-.02-.15.066-.15zm-.3.312c.203.01.204.023.01.095a9.25 9.25 0 0 0-.525.222c-.295.135-.295.134-.009-.096.16-.128.396-.228.525-.22zm.909 2.536a.15.15 0 0 1 .15.15.15.15 0 0 1-.15.15.15.15 0 0 1-.15-.15.15.15 0 0 1 .15-.15zm-5.98 5.324c-.13-.016-.165.133-.165.6 0 .369-.067.67-.15.67-.082 0-.15.361-.15.803 0 .442-.042 1.11-.093 1.484-.082.599-.144.69-.524.766-.345.069-.431.166-.431.483 0 .334-.036.368-.224.211-.122-.101-.186-.245-.14-.318.122-.198-.33-.329-.76-.22-.31.077-.375.184-.375.615 0 .287.06.522.132.522.073 0 .168.135.211.3.051.194.005.3-.132.3-.116 0-.216-.085-.223-.188-.008-.133-.035-.128-.093.017-.068.172-.101.172-.21 0-.096-.15-.13-.154-.132-.017-.002.103-.106.187-.234.187-.127 0-.361.121-.52.27-.225.21-.27.391-.199.824.056.341.174.555.307.555.132 0 .205.13.188.337-.066.818-.031.86.717.868l.713.007-.59.21c-.207.074-.408.182-.55.284 2.831-.064 5.558-.106 8.156-.126.096-.133.248-.238.37-.244.156-.007.183-.04.069-.087a.333.333 0 0 1-.187-.288c0-.117-.115-.212-.255-.212-.192 0-.212-.043-.083-.173.13-.13.27-.107.57.09.576.376 1.416.206 1.416-.288 0-.207-.1-.377-.24-.405-.195-.04-.166-.128.158-.477.562-.606.47-1.065-.217-1.084-.289-.008-.626.057-.75.143-.185.13-.192.12-.037-.054.228-.256.247-.994.029-1.13-.342-.21-.866.077-.966.53-.098.445-.374.632-.374.253 0-.108-.144-.35-.32-.538-.24-.259-.441-.328-.824-.283l-.505.059v-1.769c0-1.668-.017-1.768-.3-1.768-.258 0-.303-.11-.327-.787l-.028-.786-.055.786c-.04.562-.117.787-.272.787-.144 0-.217.163-.218.487-.003 1.133-.185 2.038-.393 1.958-.154-.06-.205-.433-.205-1.487 0-.838-.06-1.407-.15-1.407-.083 0-.15-.263-.15-.584 0-.38-.078-.613-.225-.67a.245.245 0 0 0-.06-.016zm1.302 3.283c.01 0 .02.003.032.01.082.051.15.291.15.534 0 .242-.068.44-.15.44-.082 0-.15-.24-.15-.533 0-.278.047-.449.118-.45z" style="fill:#fff;stroke-width:.14986099;fill-opacity:1" transform="translate(-29.05 -3.599)"/><path d="M113.153 85.446c-51.792 94.643-25.896 47.321 0 0zm4.421 24.976c-1.269.02-3.096.266-3.222.435-.041.055-.291.188-.556.295-.399.161-.52.33-.712.99-.127.436-.23.861-.23.945 0 .083-.058.174-.128.201-.07.028-.165.337-.21.688-.06.459-.035.608.09.533.104-.063.096-.01-.02.134-.14.172-.165.515-.092 1.228.055.544.146.99.2.99.055 0 .183.407.286.906.107.517.31 1.012.472 1.15.157.135.255.292.22.35-.037.06.034.19.157.292.123.102.223.261.224.354 0 .093.192.297.426.454.234.157.554.479.711.714.157.235.392.46.522.502.13.042.365.194.524.338.159.144.475.38.701.526.37.238.413.353.416 1.123.002.472.038 2.19.08 3.818.05 1.873.024 2.96-.068 2.96-.08 0-.19.142-.246.317-.085.268-.187.306-.656.243-.584-.079-.941.091-1.104.526-.054.144-.168.262-.253.262-.085 0-.155.17-.155.375v.124c3.327.122 5.992.227 7.496.243.006-.079.102-.142.222-.142.123 0 .225.067.225.15.295 0 .602.007.9.01l-.002-.005c0-.08.101-.107.225-.06.054.021.1.046.138.07.649.007 1.319.018 1.998.036.222-.09.256-.95.038-.95-.083 0-.15-.133-.15-.296 0-.243.074-.282.412-.215.227.044.637-.014.912-.13.465-.197.482-.229.251-.46-.23-.23-.226-.248.068-.248.173 0 .36-.118.414-.262.055-.145.187-.351.295-.46.25-.254.25-.477 0-.477-.353 0-1.002-.37-1.003-.574 0-.11-.084-.172-.187-.138-.22.073-.562-.234-.568-.513-.003-.124-.063-.098-.159.067-.085.146-.213.23-.284.185-.072-.045-.173-.012-.225.072-.052.083-.225.152-.385.152s-.295.084-.3.187c-.005.103-.073.029-.15-.165-.131-.326-.212-.348-1.078-.3-.514.03-.978.11-1.03.181-.05.071-.14.054-.196-.037-.056-.091-.03-.166.057-.166s.158-.067.158-.15c0-.082-.202-.15-.45-.15-.246 0-.449.068-.449.15 0 .265-.371.16-.572-.162-.115-.184-.287-.277-.419-.227-.126.049-.183.022-.132-.062.05-.081-.009-.148-.13-.148-.271 0-.726.428-.627.59.04.062-.095.203-.298.312-.203.109-.37.315-.37.46 0 .49-.18.736-.54.736h-.359v-2.325c0-1.55.06-2.42.18-2.613.142-.228.138-.368-.02-.665-.165-.307-.167-.46-.013-.833.104-.252.242-.458.306-.458s.435-.286.824-.636c.39-.35.8-.691.915-.757.113-.066.206-.179.206-.25 0-.072.27-.404.6-.737.33-.333.6-.67.6-.75 0-.08.094-.24.211-.357.258-.258.687-1.654.687-2.235 0-.232.068-.422.15-.422.086 0 .15-.45.15-1.049 0-.6-.064-1.049-.15-1.049-.082 0-.15-.17-.15-.38 0-.208-.1-.62-.223-.914-.124-.295-.193-.586-.155-.648.125-.202-.735-1.008-1.194-1.12-.246-.06-.485-.169-.531-.243-.126-.203-2.165-.456-3.517-.435zm-1.124.294c.008.008-.037.069-.13.187h-.001c-.196.25-.319.33-.319.206 0-.031.118-.149.263-.262.118-.093.18-.138.187-.13zm-.674.675-.44.487c-.243.267-.462.487-.488.487-.116 0-.014-.124.44-.534zm-1.303 1.274c.041 0-.047.134-.196.3-.15.164-.305.299-.346.299-.041 0 .047-.135.196-.3.15-.165.305-.3.346-.3zm-1.17 1.198c.008.008-.038.069-.13.188h-.001c-.196.25-.319.329-.319.205 0-.03.118-.15.262-.262.12-.094.18-.139.188-.131zm4.478.3c1.037 0 1.837.063 1.89.15.06.096-.544.15-1.705.15-1.037 0-1.837-.064-1.89-.15-.06-.097.544-.15 1.705-.15zm2.49.334c.247-.003.618.05.824.115.492.158-.002.158-.749 0-.508-.107-.51-.11-.075-.115zm1.439.277c.131-.007.394.123.584.288.19.165.273.3.184.3-.089 0-.252-.09-.363-.201-.11-.11-.3-.24-.423-.288-.186-.073-.183-.089.018-.099zm-.178 2.704c.053.002.097.016.122.041.05.05-.038.085-.196.079-.175-.007-.21-.043-.09-.09a.41.41 0 0 1 .165-.03zm5.708 13.844c.961.315-.417-.853 1.774 1.262-2.133.024-.067-.001-.103-.001-.874-.934-1.395-3.78-1.67-1.261z" style="fill:#fff;stroke-width:.14986099;fill-opacity:1" transform="translate(-29.05 -3.599)"/></svg>