<svg xmlns="http://www.w3.org/2000/svg" width="576.41" height="736.278" viewBox="0 0 152.508 194.807"><path d="M113.153 85.446c-51.792 94.643-25.896 47.321 0 0zM93.071 109.88c-1.233 0-2.466.068-2.51.201-.034.102-.175.185-.312.186-1.004.003-2.123.757-2.123 1.43 0 .202-.062.368-.137.368-.562 0-.583 5.132-.022 5.544.056.042.192.3.303.575.112.275.31.607.442.739.131.13.238.286.238.345 0 .164 2.207 2.316 2.58 2.514.394.211.616 1.118.35 1.438-.137.165-.123.315.061.671.206.398.224.941.139 4.095-.065 2.403-.155 3.673-.265 3.746-.017.01-.043.021-.068.032.513-.001 1.047-.005 1.55-.004l.032-3.883c.027-3.302.067-3.92.262-4.063.294-.214.296-.602.005-.714-.123-.047-.225-.178-.225-.291 0-.238.874-1.303 1.069-1.303.152 0 .39-.2 1.534-1.297.464-.444.844-.86.844-.926 0-.065.126-.253.279-.417.153-.165.36-.548.46-.853.101-.304.234-.553.296-.553.18 0 .464-1.815.464-2.97 0-1.18-.25-2.575-.462-2.575-.076 0-.14-.152-.142-.337a1.186 1.186 0 0 0-.203-.598c-.227-.299-1.142-.714-1.574-.714-.16 0-.32-.084-.354-.187-.045-.133-1.278-.2-2.51-.2zm-.15 3.85c.286 0 .571.008.787.023.433.03.08.055-.786.055s-1.22-.025-.787-.055c.216-.015.502-.023.787-.023zm2.086.152c.053.002.097.015.122.04.05.05-.038.086-.196.08-.175-.008-.211-.043-.091-.091a.414.414 0 0 1 .165-.03zm-4.201 0a.613.613 0 0 1 .208.033c.101.04-.018.071-.265.068-.247-.003-.33-.037-.185-.075a.956.956 0 0 1 .242-.026zm-1.64.28c.088 0 .16.068.16.15 0 .083-.03.15-.067.15-.036 0-.108-.067-.159-.15-.05-.082-.02-.15.066-.15zm-.3.312c.203.01.204.023.01.095a9.25 9.25 0 0 0-.525.222c-.295.135-.295.134-.009-.096.16-.128.396-.228.525-.22zm.909 2.536a.15.15 0 0 1 .15.15.15.15 0 0 1-.15.15.15.15 0 0 1-.15-.15.15.15 0 0 1 .15-.15zm-5.98 5.324c-.13-.016-.165.133-.165.6 0 .369-.067.67-.15.67-.082 0-.15.361-.15.803 0 .442-.042 1.11-.093 1.484-.082.599-.144.69-.524.766-.345.069-.431.166-.431.483 0 .334-.036.368-.224.211-.122-.101-.186-.245-.14-.318.122-.198-.33-.329-.76-.22-.31.077-.375.184-.375.615 0 .287.06.522.132.522.073 0 .168.135.211.3.051.194.005.3-.132.3-.116 0-.216-.085-.223-.188-.008-.133-.035-.128-.093.017-.068.172-.101.172-.21 0-.096-.15-.13-.154-.132-.017-.002.103-.106.187-.234.187-.127 0-.361.121-.52.27-.225.21-.27.391-.199.824.056.341.174.555.307.555.132 0 .205.13.188.337-.066.818-.031.86.717.868l.713.007-.59.21c-.207.074-.408.182-.55.284 2.831-.064 5.558-.106 8.156-.126.096-.133.248-.238.37-.244.156-.007.183-.04.069-.087a.333.333 0 0 1-.187-.288c0-.117-.115-.212-.255-.212-.192 0-.212-.043-.083-.173.13-.13.27-.107.57.09.576.376 1.416.206 1.416-.288 0-.207-.1-.377-.24-.405-.195-.04-.166-.128.158-.477.562-.606.47-1.065-.217-1.084-.289-.008-.626.057-.75.143-.185.13-.192.12-.037-.054.228-.256.247-.994.029-1.13-.342-.21-.866.077-.966.53-.098.445-.374.632-.374.253 0-.108-.144-.35-.32-.538-.24-.259-.441-.328-.824-.283l-.505.059v-1.769c0-1.668-.017-1.768-.3-1.768-.258 0-.303-.11-.327-.787l-.028-.786-.055.786c-.04.562-.117.787-.272.787-.144 0-.217.163-.218.487-.003 1.133-.185 2.038-.393 1.958-.154-.06-.205-.433-.205-1.487 0-.838-.06-1.407-.15-1.407-.083 0-.15-.263-.15-.584 0-.38-.078-.613-.225-.67a.245.245 0 0 0-.06-.016zm1.302 3.283c.01 0 .02.003.032.01.082.051.15.291.15.534 0 .242-.068.44-.15.44-.082 0-.15-.24-.15-.533 0-.278.047-.449.118-.45z" style="fill:#fff;stroke-width:.14986099;fill-opacity:1" transform="translate(-29.05 -3.599)"/></svg>