<?xml version="1.0" encoding="UTF-8" standalone="no"?>
<!-- Created with Inkscape (http://www.inkscape.org/) -->

<svg
   width="179.96582mm"
   height="47.811943mm"
   viewBox="0 0 179.96582 47.811943"
   version="1.1"
   id="svg5"
   inkscape:version="1.1 (c68e22c387, 2021-05-23)"
   sodipodi:docname="drinks.svg"
   xmlns:inkscape="http://www.inkscape.org/namespaces/inkscape"
   xmlns:sodipodi="http://sodipodi.sourceforge.net/DTD/sodipodi-0.dtd"
   xmlns="http://www.w3.org/2000/svg"
   xmlns:svg="http://www.w3.org/2000/svg">
  <sodipodi:namedview
     id="namedview7"
     pagecolor="#505050"
     bordercolor="#eeeeee"
     borderopacity="1"
     inkscape:pageshadow="0"
     inkscape:pageopacity="0"
     inkscape:pagecheckerboard="0"
     inkscape:document-units="mm"
     showgrid="false"
     height="50mm"
     fit-margin-top="0"
     fit-margin-left="0"
     fit-margin-right="0"
     fit-margin-bottom="0"
     inkscape:zoom="0.945921"
     inkscape:cx="259.00683"
     inkscape:cy="-126.86049"
     inkscape:window-width="1920"
     inkscape:window-height="1120"
     inkscape:window-x="-11"
     inkscape:window-y="-11"
     inkscape:window-maximized="1"
     inkscape:current-layer="layer1" />
  <defs
     id="defs2" />
  <g
     inkscape:label="Layer 1"
     inkscape:groupmode="layer"
     id="layer1"
     transform="translate(-2.7501339,0.82906591)">
    <path
       style="fill:#ffffff;stroke-width:0.0693017"
       d="m 108.36176,46.944218 c -3.78434,-0.0164 -4.25167,-0.03026 -4.28888,-0.127195 -0.023,-0.05984 0.001,-0.149736 0.0544,-0.199777 0.0528,-0.05004 1.00049,-0.424966 2.10586,-0.833162 1.10536,-0.408197 2.11111,-0.784253 2.23498,-0.83568 l 0.22524,-0.0935 v -5.529482 -5.529587 l -4.15812,-4.16022 c -2.73642,-2.737797 -4.15811,-4.207803 -4.15811,-4.299387 0,-0.07654 0.0486,-0.208479 0.10788,-0.293192 0.10771,-0.153773 0.11155,-0.154024 2.35217,-0.154024 1.23436,0 2.26068,-0.02651 2.28071,-0.05892 0.02,-0.0324 -0.22562,-0.366157 -0.54588,-0.741673 l -0.5823,-0.682755 -0.43758,-0.0072 c -0.69587,-0.01141 -1.15272,-0.308752 -1.43664,-0.934996 -0.15431,-0.340391 -0.1802,-0.673119 -0.0797,-1.023718 0.0758,-0.264437 0.0936,-0.239894 -1.69337,-2.333466 -0.609847,-0.714475 -1.137157,-1.34897 -1.171787,-1.409986 -0.0484,-0.08533 0.0131,-0.179819 0.26658,-0.409307 0.18126,-0.164104 0.38112,-0.298352 0.44413,-0.298334 0.124647,3.7e-5 0.148087,0.02604 1.811577,2.00972 0.6233,0.743261 1.16229,1.370757 1.19776,1.394431 0.0355,0.02368 0.19246,0.01431 0.34886,-0.02085 0.371,-0.08336 0.86215,0.0338 1.21587,0.290041 0.50154,0.363318 0.70085,1.089037 0.49123,1.788687 -0.0734,0.244947 -0.0708,0.308344 0.0168,0.411078 0.057,0.0668 0.45087,0.531012 0.87527,1.031567 0.4244,0.500552 0.82182,0.929358 0.88317,0.9529 0.0614,0.02355 2.69565,0.0428 5.854,0.0428 h 5.74245 l 0.10788,0.154025 c 0.0593,0.08471 0.10788,0.216648 0.10788,0.293191 0,0.09158 -1.4217,1.56159 -4.15811,4.299386 l -4.1581,4.160221 v 5.529584 5.52959 l 0.25988,0.108941 c 0.14293,0.05992 1.00833,0.382541 1.92312,0.716939 2.55909,0.93548 2.46021,0.89365 2.46021,1.040738 0,0.229224 -0.22558,0.275386 -1.2602,0.257884 -0.54565,-0.0092 -2.90331,-0.02507 -5.23922,-0.03518 z m 1.53462,-14.529675 c 0.17829,-0.05366 0.47713,-0.195715 0.66408,-0.315683 0.33731,-0.216453 6.33199,-6.174959 6.3178,-6.279684 -0.008,-0.05841 -9.29355,-0.05268 -9.35199,0.0058 -0.0191,0.01909 0.0384,0.112574 0.12777,0.207711 l 0.16251,0.172983 h 1.568 c 1.12716,0 1.59139,0.02339 1.65117,0.08316 0.0521,0.05209 0.0832,0.311087 0.0832,0.693018 0,0.335422 0.0234,0.609648 0.052,0.609391 0.0286,-2.62e-4 0.40509,-0.312113 0.83666,-0.693017 l 0.78467,-0.692554 h 1.38318 c 1.15752,0 1.38961,0.01673 1.42255,0.10261 0.0265,0.06904 -0.87554,1.032799 -2.75691,2.945564 -3.05011,3.100985 -3.10975,3.149819 -3.63958,2.979529 -0.21121,-0.06789 -0.83985,-0.667008 -3.07228,-2.928024 -1.5437,-1.56347 -2.80672,-2.892703 -2.80672,-2.95385 0,-0.0976 0.18551,-0.115409 1.51901,-0.145829 l 1.51902,-0.03465 -0.17886,-0.207906 -0.17886,-0.207906 -1.92291,-0.02051 c -1.05759,-0.01128 -1.97097,-0.0021 -2.02972,0.02048 -0.0764,0.02932 0.74061,0.88964 2.86971,3.021806 1.63709,1.639447 3.13006,3.09479 3.31771,3.234097 0.34115,0.253251 0.91668,0.494541 1.18977,0.498806 0.0797,0.0013 0.29079,-0.04164 0.46909,-0.0953 z"
       id="path1116"
       sodipodi:nodetypes="cccsscccsssssscssssssssscsssssscssscccsssccccsssscssssscssssssscccccssccc" />
    <path
       style="fill:#ffffff;stroke-width:0.0693017"
       d="m 167.55521,46.931221 c -1.46073,-0.06679 -3.15319,-0.238378 -3.44482,-0.349255 -0.10669,-0.04056 -0.15538,-0.09395 -0.11818,-0.129565 0.0348,-0.03332 0.46867,-0.221261 0.96418,-0.417648 1.18042,-0.467829 3.17849,-1.403675 3.18375,-1.491189 0.002,-0.03783 -0.19857,-0.140668 -0.44633,-0.228545 -2.29724,-0.814801 -4.24928,-2.527825 -5.26815,-4.623116 -0.383,-0.787637 -0.7355,-1.890148 -0.91071,-2.848417 -0.21564,-1.179421 -0.21671,-3.341392 -0.002,-4.658283 0.45696,-2.8067 1.57587,-6.735898 3.20065,-11.23945 0.50721,-1.405879 0.46757,-1.347233 1.00148,-1.481346 1.67395,-0.420483 7.43192,-0.52275 9.9232,-0.176246 0.28846,0.04012 0.54017,0.05725 0.55936,0.03806 0.0192,-0.0192 -0.70373,-0.274826 -1.60647,-0.568078 -1.00082,-0.325108 -1.6568,-0.573374 -1.6809,-0.636155 -0.0869,-0.226493 0.68503,-1.461012 1.13476,-1.81478 0.10019,-0.0788 0.23252,-0.142327 0.29409,-0.141169 0.13776,0.0026 2.29494,2.979619 2.29494,3.167144 0,0.08158 0.0844,0.170196 0.2203,0.231358 0.19377,0.08719 0.25256,0.186853 0.48772,0.826806 1.5761,4.289118 2.63011,7.828645 3.24001,10.880388 0.87093,4.357949 0.0742,8.118405 -2.24111,10.577289 -1.02646,1.090119 -2.16126,1.846049 -3.61501,2.408081 -0.3418,0.132138 -0.61569,0.262638 -0.60868,0.290013 0.0187,0.07304 2.30454,1.148826 3.07118,1.445396 1.28418,0.496789 1.31687,0.531827 0.62128,0.665824 -1.3209,0.25444 -7.22264,0.4115 -10.25423,0.27289 z m 5.26694,-3.072285 c 3.18706,-0.743593 5.53107,-2.616759 6.57605,-5.255123 0.24075,-0.607838 0.51544,-1.657215 0.62569,-2.390283 0.28379,-1.887025 -0.22023,-5.245183 -1.44902,-9.654328 -0.57357,-2.058118 -1.89919,-5.931315 -2.10416,-6.14795 -0.0622,-0.0658 -0.21487,-0.06272 -0.70324,0.0142 -2.06765,0.325622 -7.28591,0.326311 -9.2941,0.0013 -0.33787,-0.0547 -0.63887,-0.07489 -0.66889,-0.04487 -0.10411,0.104106 -0.79874,1.993301 -1.3552,3.685708 -1.45278,4.4185 -2.3714,8.900909 -2.27887,11.119774 0.15999,3.836925 2.06688,6.683047 5.41121,8.076498 1.93792,0.807456 3.54726,0.990227 5.24053,0.595158 z m -2.63348,-0.670078 c -3.75179,-0.336051 -6.29696,-2.833835 -7.37983,-7.24245 -0.2738,-1.114735 -0.46492,-2.697481 -0.34071,-2.821687 0.0227,-0.02268 0.23367,0.06451 0.46884,0.193769 0.68675,0.377483 2.20903,0.691208 4.20243,0.866063 1.40219,0.123004 5.47955,0.164946 6.96483,0.07165 2.81701,-0.17695 4.6474,-0.522366 5.39709,-1.018486 0.34322,-0.227134 0.40172,-0.149844 0.34781,0.459574 -0.15994,1.808215 -0.62046,3.52724 -1.32745,4.955081 -1.36756,2.761941 -3.49891,4.255902 -6.46849,4.534064 -0.86122,0.08068 -0.98899,0.08084 -1.86452,0.0024 z m -1.83649,-9.28566 c -2.29807,-0.136601 -4.38819,-0.449571 -5.21078,-0.78025 -0.71198,-0.286212 -0.80367,-0.657333 -0.23418,-0.947864 2.18797,-1.11622 12.01323,-1.287476 15.73364,-0.274241 1.16826,0.318175 1.43177,0.733194 0.71156,1.120691 -0.99003,0.532668 -3.80467,0.866938 -7.70841,0.91546 -1.23877,0.0154 -2.72009,0 -3.29183,-0.03379 z m 6.64528,-13.860922 c 0.89764,-0.05867 1.08238,-0.08934 1.00487,-0.166846 -0.19133,-0.191333 -6.1693,-0.326449 -8.15139,-0.18424 -1.22656,0.088 -1.61247,0.139723 -1.61247,0.216119 0,0.229529 5.91708,0.320703 8.75899,0.134967 z m 4.51624,4.422452 c -0.20061,-0.286422 -0.13864,-0.431011 0.30113,-0.702447 0.53962,-0.33307 1.29421,-1.153532 1.61906,-1.760383 0.49187,-0.918858 0.68272,-2.263466 0.46961,-3.308452 -0.12199,-0.598158 -0.61294,-1.592865 -1.03749,-2.102063 -1.41704,-1.699569 -3.88153,-2.213255 -5.86297,-1.222053 -1.17921,0.589889 -1.96071,1.492967 -2.4568,2.839 -0.15467,0.419683 -0.20375,0.488028 -0.36383,0.506711 -0.31528,0.0368 -0.4716,-0.09316 -0.42357,-0.352147 0.12907,-0.695875 0.73951,-1.798343 1.36153,-2.458961 0.67975,-0.721916 1.70552,-1.332863 2.6471,-1.576606 1.80134,-0.466298 3.78547,0.03694 5.14083,1.303863 1.00662,0.940948 1.55428,2.002402 1.75876,3.408762 0.28941,1.990514 -0.72872,4.196815 -2.45011,5.309407 -0.48294,0.312135 -0.55692,0.324273 -0.70325,0.115369 z m -0.69751,-2.663357 c -1.04401,-1.434477 -1.24382,-1.756541 -1.0898,-1.756541 0.0381,0 0.64208,0.185005 1.34215,0.41112 0.70007,0.226114 1.50675,0.485735 1.79262,0.576931 0.64328,0.205215 0.67439,0.304665 0.29661,0.948117 -0.2837,0.483209 -1.02074,1.32102 -1.16213,1.32102 -0.048,0 -0.57877,-0.675293 -1.17945,-1.500647 z m 0.72824,-1.434246 c -1.16415,-0.387288 -1.69789,-0.596047 -1.69789,-0.664083 0,-0.131454 3.61567,-1.302542 3.71496,-1.203248 0.20251,0.202504 0.25045,1.955203 0.063,2.305343 -0.0433,0.08094 -0.14038,0.137693 -0.22874,0.133728 -0.0844,-0.0038 -0.91754,-0.261073 -1.85138,-0.57174 z m -1.8702,-1.101941 c 0.001,-0.152256 2.18389,-3.065065 2.31524,-3.090359 0.28557,-0.055 1.36125,1.353401 1.38169,1.809059 l 0.01,0.217636 -1.73255,0.57461 c -0.9529,0.316035 -1.78712,0.574852 -1.85382,0.575145 -0.0667,2.62e-4 -0.12085,-0.03845 -0.12032,-0.08609 z m -0.9647,-0.34492 c -0.0536,-0.08664 -0.54478,-0.770883 -1.0915,-1.520553 -0.54672,-0.749667 -0.99404,-1.394511 -0.99404,-1.432983 0,-0.228336 1.18669,-0.727909 1.92841,-0.811826 0.40323,-0.04562 0.42261,-0.04071 0.46119,0.116868 0.0222,0.09047 0.0315,0.974907 0.0208,1.965417 -0.0166,1.535366 -0.0348,1.803855 -0.12343,1.820763 -0.0572,0.01089 -0.14782,-0.05105 -0.20142,-0.137686 z m 0.57924,0.06668 c -0.0185,-0.04821 -0.0253,-0.929214 -0.0151,-1.957777 l 0.0185,-1.870117 0.22689,-0.02185 c 0.52332,-0.05037 1.92405,0.453872 2.1189,0.762769 0.0505,0.07994 -0.19472,0.466932 -1.0359,1.635291 -0.60609,0.841806 -1.14194,1.532534 -1.19079,1.534946 -0.0489,0.0024 -0.10393,-0.03506 -0.12244,-0.08327 z"
       id="path1116-6"
       sodipodi:nodetypes="csssccsscssssscscssssssssscccsssscssssscccsssssscsscccssssscsssssssssssssssssssssssssssssssssssscscsssssssssssccssscss" />
    <path
       style="fill:#ffffff;stroke-width:0.0693017"
       d="m 9.6225602,46.937495 c -0.074749,-0.07474 -0.052912,-0.357285 0.03166,-0.409545 0.042792,-0.02647 1.0497708,-0.08514 2.2376608,-0.130399 l 2.159812,-0.08228 0.368466,-0.200545 c 0.202655,-0.1103 0.458063,-0.309233 0.567565,-0.442077 0.437448,-0.530706 0.75486,-1.474001 0.777781,-2.311446 l 0.01337,-0.487946 -0.762312,-0.160421 C 11.563655,41.986212 9.1106896,40.229827 7.8749834,37.599268 7.3251494,36.428796 7.108486,35.288656 7.1705416,33.892348 c 0.096239,-2.16552 1.0870112,-4.35926 2.7791534,-6.153521 0.300621,-0.318764 0.53451,-0.590313 0.519764,-0.603443 -0.01475,-0.01312 -0.463419,0.144984 -0.9970468,0.351366 -1.9227782,0.743648 -3.8392749,1.249233 -5.3643258,1.415138 -0.8927628,0.09712 -1.3579525,0.06665 -1.3579525,-0.08896 0,-0.06471 1.0630056,-1.343323 2.3622348,-2.841376 1.2992291,-1.498054 2.5402697,-2.93358 2.7578512,-3.190057 l 0.3956238,-0.46632 -0.098537,-0.291497 c -0.3103361,-0.918054 0.8119279,-1.470836 1.3371998,-0.65865 l 0.1717536,0.265564 1.1801699,-0.04202 c 3.364667,-0.119784 7.959719,-0.182341 8.032704,-0.109357 0.05566,0.05568 -0.112235,0.259227 -0.618995,0.750304 -1.349213,1.307432 -3.149622,2.521425 -5.696455,3.84104 -0.657501,0.340677 -1.195459,0.630903 -1.195459,0.644948 0,0.01404 0.03622,0.104965 0.08043,0.202049 l 0.08042,0.176513 5.203841,-4e-5 5.203841,-3.9e-5 0.589062,0.606432 c 1.38597,1.426826 2.415545,3.410704 2.742397,5.284304 0.201239,1.153543 0.06701,2.74797 -0.328768,3.904258 -0.679511,1.985366 -2.31293,3.766658 -4.430065,4.831134 -0.731107,0.36759 -2.053575,0.799348 -3.018116,0.985353 l -0.802553,0.154766 0.03643,0.49243 c 0.08468,1.144859 0.551627,2.213975 1.159201,2.654103 0.402252,0.291384 0.745051,0.339786 2.964641,0.418603 1.078843,0.03831 1.991029,0.08788 2.027084,0.110169 0.106691,0.06594 0.07473,0.360508 -0.04402,0.406089 -0.150249,0.05766 -13.1617171,0.05358 -13.2194357,-0.0042 z M 5.7269762,28.022231 c 0.1698019,-0.02313 0.354234,-0.0777 0.4098492,-0.121281 0.1122061,-0.08792 1.3806568,-3.345176 1.3446956,-3.453054 -0.021179,-0.06354 -2.6215096,3.456949 -2.6785126,3.62632 -0.018216,0.05408 0.071489,0.06441 0.2945349,0.03391 0.1763869,-0.02412 0.459631,-0.06277 0.6294329,-0.08589 z M 8.2590346,27.26761 8.488926,27.148729 8.4424475,25.757318 c -0.044093,-1.319446 -0.063971,-1.507948 -0.1502202,-1.421734 -0.062019,0.06202 -1.0541798,3.23843 -1.021681,3.270927 0.038961,0.03899 0.6880623,-0.18354 0.9885028,-0.338901 z m 2.5647524,-0.242794 c 0,-0.03811 -0.02935,-0.0693 -0.0652,-0.0693 -0.03585,0 -0.08449,0.03118 -0.108043,0.0693 -0.02356,0.03812 0.0058,0.0693 0.0652,0.0693 0.05942,0 0.108043,-0.03118 0.108043,-0.0693 z m -0.779646,-0.492685 c 0.161995,-0.06936 0.294535,-0.172595 0.294535,-0.229412 0,-0.105651 -0.9265557,-2.542672 -1.0412339,-2.738639 -0.043443,-0.07425 -0.064188,0.02247 -0.065995,0.307503 -0.00289,0.477627 0.1279207,2.485235 0.1776375,2.724032 0.03672,0.176456 0.086198,0.17151 0.6350424,-0.06348 z m 1.805512,-0.804513 c 0.04966,-0.02046 0.08085,-0.09245 0.06932,-0.16 -0.02667,-0.15587 -1.880094,-2.182632 -1.911061,-2.089746 -0.022263,0.06688 1.039225,2.248394 1.177005,2.418846 0.05342,0.0661 0.123981,0.06091 0.321453,-0.02363 0.139154,-0.05956 0.293639,-0.125035 0.343305,-0.14548 z m 1.189849,-0.642264 c 0.360863,-0.184093 0.384442,-0.243667 0.158692,-0.400915 -0.487388,-0.339496 -2.527945,-1.548695 -2.559757,-1.516874 -0.06253,0.06251 1.877767,2.043839 2.007285,2.049746 0.06824,0.0031 0.245425,-0.05627 0.39378,-0.131957 z m 1.749789,-0.981034 c 0.186615,-0.119748 0.313524,-0.243496 0.282022,-0.274998 -0.106842,-0.106846 -3.378364,-1.055983 -3.500025,-1.015428 -0.03853,0.01283 0.377871,0.269192 0.925298,0.569675 0.547434,0.300484 1.15125,0.634273 1.341833,0.741755 0.439088,0.247629 0.535565,0.2455 0.950872,-0.021 z m 1.827197,-1.24627 c 0.282579,-0.195341 0.513765,-0.377646 0.513765,-0.405119 0,-0.02747 -0.584733,-0.07059 -1.29941,-0.09581 -0.714677,-0.02523 -1.782786,-0.06545 -2.373584,-0.08941 -0.620679,-0.02517 -1.049878,-0.01773 -1.016613,0.01765 0.07595,0.08076 3.212046,0.915555 3.465502,0.922481 0.129446,0.0035 0.372038,-0.115922 0.71034,-0.349792 z"
       id="path1116-6-7"
       sodipodi:nodetypes="csscssscsssssssssscsscsssssscccssssscsssssccssssssscsssssssssssssssssssssssssssssssssssssscsss" />
    <path
       style="fill:#ffffff;stroke-width:0.264583"
       d="m 72.148809,46.841647 c -1.05185,-0.2188 -1.44321,-0.45276 -1.18661,-0.70936 0.29964,-0.29965 2.19578,-0.62576 3.67477,-0.63201 1.16983,-0.005 1.53391,-0.10655 1.6818,-0.46934 0.39153,-0.96044 0.5954,-6.44763 0.40057,-10.78177 -0.237,-5.27245 -0.58034,-6.38328 -2.42474,-7.845066 -4.13637,-3.278286 -5.034075,-4.091964 -5.876405,-5.326335 -1.3945,-2.043534 -1.65989,-3.348769 -1.27251,-6.258339 0.41203,-3.094688 2.685885,-10.6937224 3.081495,-10.2981094 0.0655,0.06546 -0.35373,1.56858 -0.931535,3.340263 -2.0195,6.1921874 -2.36497,9.6270174 -1.19956,11.9268434 0.83044,1.638779 3.656345,4.271486 5.619835,5.235605 2.17229,1.066655 4.85916,1.079786 6.98828,0.03416 1.86127,-0.914083 4.14386,-2.865556 5.29502,-4.526907 0.76011,-1.096986 0.904,-1.554325 0.99485,-3.162067 0.0584,-1.033775 -0.0435,-2.718849 -0.22658,-3.744608 -0.36391,-2.039505 -1.94136,-7.2377684 -2.56203,-8.4428324 -0.3097,-0.601303 -0.31735,-0.733646 -0.0372,-0.643516 0.50058,0.161032 2.51875,6.3447144 3.02377,9.2648354 0.23346,1.349927 0.37224,3.002289 0.30838,3.671915 -0.25324,2.655899 -2.03238,4.971346 -6.2288,8.10642 -1.54023,1.150679 -2.20491,1.850774 -2.70376,2.847798 -0.65849,1.3161 -0.66146,1.35538 -0.66146,8.75569 0,5.57084 0.0832,7.53388 0.33181,7.83362 0.22023,0.26546 1.021,0.44916 2.38125,0.54626 2.11093,0.15068 2.97548,0.36073 2.97548,0.72292 0,0.11438 -0.20836,0.29961 -0.46302,0.41162 -0.63639,0.2799 -9.75378,0.39805 -10.98313,0.14232 z m 2.40312,-22.086524 c -1.63397,-0.672049 -2.91077,-1.603532 -4.63663,-3.382622 -1.424685,-1.468625 -1.930745,-2.71129 -1.930745,-4.741029 v -1.627401 l 0.92436,0.705046 c 1.311825,1.000581 3.022635,1.725536 4.102715,1.738525 0.63879,0.0077 2.07569,-0.571892 4.63229,-1.868438 3.06121,-1.552447 4.06281,-1.930941 5.75489,-2.17471 1.47397,-0.212347 2.12924,-0.21453 2.33598,-0.0078 0.15805,0.158042 0.35344,1.251468 0.4342,2.429835 0.18941,2.763283 -0.26252,4.002781 -2.1214,5.818395 -1.89446,1.850375 -2.96203,2.593289 -4.61561,3.211974 -1.82958,0.684532 -3.0291,0.659511 -4.88005,-0.101791 z"
       id="path1992" />
    <path
       style="fill:#ffffff;stroke-width:0.0300109"
       d="m 38.924682,46.955629 c -0.253312,-0.06008 -0.487472,-0.348161 -0.487076,-0.599235 4.21e-4,-0.263601 0.166479,-0.530523 0.377549,-0.606846 0.05636,-0.02037 0.102394,-0.04447 0.102301,-0.05353 0,-0.009 -0.111492,-0.0495 -0.247589,-0.08987 -0.334042,-0.09908 -0.835189,-0.353012 -1.134191,-0.574708 -0.94723,-0.702328 -1.515628,-1.742888 -1.620048,-2.965785 -0.02253,-0.263903 -0.0291,-4.104167 -0.02181,-12.757034 0.0098,-11.644865 0.01355,-12.394612 0.06291,-12.634565 0.179273,-0.871485 0.584683,-1.620173 1.193993,-2.205006 0.458371,-0.439955 0.948505,-0.732081 1.511778,-0.901039 0.447474,-0.134224 0.440472,-0.130075 0.225081,-0.133416 -0.222818,-0.0034 -0.39351,-0.06977 -0.516096,-0.2005 -0.328798,-0.350644 -0.164741,-0.943775 0.292921,-1.059016 0.08906,-0.02243 1.0434,-0.03267 3.045689,-0.03267 2.7658,0 2.914807,-0.0027 2.893187,-0.05252 -0.06171,-0.142191 -0.112301,-0.502738 -0.266377,-1.898186 -0.172108,-1.5588375 -0.174254,-1.6149965 -0.06945,-1.8172135 0.118204,-0.228049 0.508847,-0.4834322 0.869567,-0.568479 0.242025,-0.057073 0.787542,-0.05698 1.05733,2.997e-4 0.115061,0.024378 0.304136,0.089966 0.420153,0.1457538 0.34522,0.166011 0.526051,0.3955915 0.526051,0.6678645 0,0.0776 -0.08657,0.777025 -0.192379,1.5542575 -0.105803,0.777229 -0.200727,1.483439 -0.210932,1.569353 -0.01021,0.08591 -0.03783,0.210833 -0.06138,0.277601 l -0.04283,0.121387 h 2.70136 c 1.8476,0 2.742358,0.01035 2.831073,0.03267 0.577496,0.145417 0.63036,0.975914 0.07693,1.20863 l -0.105034,0.04417 0.09003,0.01976 c 0.812991,0.178451 1.455457,0.523207 2.01181,1.079557 0.610811,0.61081 1.004791,1.393205 1.141513,2.266901 0.03906,0.24965 0.04348,1.858173 0.03545,12.934675 l -0.0092,12.649572 -0.06401,0.255091 c -0.253857,1.011753 -0.765761,1.806857 -1.537815,2.388584 -0.30927,0.233029 -0.825244,0.494666 -1.166948,0.591731 l -0.249384,0.07084 0.144347,0.07376 c 0.09535,0.04873 0.177445,0.12286 0.241878,0.218443 0.08491,0.125963 0.09754,0.169647 0.09754,0.337562 0,0.319841 -0.179998,0.565708 -0.467073,0.637995 -0.15218,0.03832 -13.319664,0.04153 -13.480898,0.0033 z m 11.862217,-9.835952 c 0.205236,-0.06356 0.356458,-0.141732 0.578274,-0.298911 l 0.188132,-0.133312 -0.05308,-0.09379 c -0.02919,-0.05158 -0.145823,-0.192374 -0.259167,-0.312877 -0.345175,-0.366961 -0.725836,-0.511058 -1.138291,-0.430896 -0.218343,0.04244 -0.517306,0.156765 -0.715468,0.273606 -0.07735,0.04561 -0.147923,0.07564 -0.156824,0.06674 -0.0089,-0.0089 -0.128258,0.09028 -0.26525,0.220413 -0.136988,0.130128 -0.308896,0.28702 -0.382017,0.348648 -0.07312,0.06162 -0.121918,0.11205 -0.108429,0.11205 0.02219,0 0.1214,-0.08535 0.605351,-0.52076 l 0.153898,-0.138462 0.116201,0.20113 c 0.130951,0.226676 0.452989,0.571578 0.611378,0.654794 0.244516,0.12847 0.521283,0.145778 0.825297,0.05162 z m -9.785923,-0.04829 c 0.217572,-0.09961 0.493562,-0.363652 0.668113,-0.639197 l 0.137516,-0.217084 0.370763,0.328127 c 0.203921,0.180474 0.383323,0.328129 0.39867,0.328129 0.08603,0 0.02558,-0.09331 -0.175422,-0.270772 -0.124756,-0.110154 -0.292351,-0.259771 -0.372434,-0.3325 l -0.145611,-0.132224 0.212378,-0.145111 c 0.530385,-0.362396 0.821505,-0.875864 0.771778,-1.361231 -0.01869,-0.182389 -0.110896,-0.52321 -0.163488,-0.604281 -0.02084,-0.03212 -0.0582,-0.02395 -0.187702,0.04106 -0.415405,0.208558 -0.765718,0.507087 -0.896983,0.764385 -0.129001,0.252854 -0.133833,0.634558 -0.0118,0.927377 0.02342,0.05618 0.03834,0.106387 0.03315,0.111586 -0.01021,0.01021 -0.456963,-0.494558 -0.620685,-0.701386 -0.05552,-0.07015 -0.09532,-0.132436 -0.08844,-0.138432 0.0069,-0.006 0.101347,-0.05284 0.209928,-0.104119 0.417215,-0.197018 0.761202,-0.540189 0.901755,-0.899618 0.05401,-0.138122 0.06677,-0.231135 0.06668,-0.485933 0,-0.173312 -0.0154,-0.351688 -0.03406,-0.396388 l -0.03394,-0.08128 -0.158775,0.04572 c -0.08733,0.02515 -0.294953,0.111507 -0.46139,0.191904 -0.244811,0.118258 -0.334897,0.181056 -0.471653,0.328769 -0.249453,0.269441 -0.335347,0.584218 -0.262406,0.961644 0.01435,0.07428 0.02307,0.138121 0.01938,0.141876 -0.0037,0.0037 -0.07474,-0.09753 -0.157849,-0.225081 -0.168619,-0.258757 -0.413459,-0.69585 -0.396446,-0.707734 0.0061,-0.0042 0.0853,-0.02519 0.176085,-0.04655 0.285161,-0.06711 0.641588,-0.257517 0.853968,-0.456188 0.29049,-0.27174 0.435424,-0.613031 0.436142,-1.027043 l 3.61e-4,-0.204957 -0.08253,0.01578 c -0.04539,0.0086 -0.143301,0.02421 -0.217578,0.03451 -0.838395,0.116242 -1.269068,0.488487 -1.317533,1.13878 l -0.01797,0.241211 -0.116175,-0.285102 c -0.137414,-0.337237 -0.258936,-0.684775 -0.258936,-0.740524 0,-0.02846 0.04978,-0.03975 0.175262,-0.03975 0.0964,0 0.277273,-0.02609 0.401954,-0.05797 0.427852,-0.109424 0.751363,-0.322965 0.942893,-0.622371 0.115578,-0.180678 0.2676,-0.612377 0.240509,-0.682978 -0.01517,-0.03954 -0.08031,-0.04711 -0.401686,-0.04674 -0.569731,6.6e-4 -0.860516,0.08351 -1.095366,0.312112 -0.155513,0.15137 -0.254779,0.332664 -0.315047,0.575369 l -0.05152,0.207471 -0.03906,-0.16506 C 39.428746,31.793149 39.307445,31.039064 39.317844,31.03 c 0.0027,-0.0024 0.07242,0.007 0.154946,0.02072 0.561617,0.09349 1.132152,-0.06672 1.473793,-0.413859 0.156017,-0.158532 0.371874,-0.534356 0.371874,-0.647469 0,-0.08624 -0.434302,-0.178991 -0.840304,-0.179464 -0.408616,-4.81e-4 -0.596618,0.06662 -0.824152,0.294153 -0.13985,0.139854 -0.193836,0.228269 -0.338912,0.555045 -0.02601,0.05859 -0.03365,-0.04331 -0.03488,-0.465168 -8.7e-4,-0.297108 0.0099,-0.558472 0.02417,-0.580806 0.01857,-0.02931 0.04141,-0.0324 0.08207,-0.01114 0.117833,0.06174 0.498307,0.126732 0.741848,0.126732 0.555264,0 0.966051,-0.243661 1.255236,-0.744545 0.09976,-0.172788 0.10006,-0.17232 -0.185113,-0.284368 -0.350892,-0.13787 -0.562121,-0.178625 -0.855309,-0.165026 -0.216396,0.01008 -0.299931,0.02804 -0.420151,0.09058 -0.18849,0.09804 -0.405296,0.318738 -0.523755,0.53316 -0.07413,0.134178 -0.08849,0.148215 -0.07682,0.07503 0.008,-0.04951 0.02881,-0.198071 0.04646,-0.330118 0.03056,-0.22866 0.121201,-0.741166 0.134131,-0.758412 0.0033,-0.0045 0.08983,0.0334 0.192165,0.08417 0.533856,0.264876 1.124691,0.272796 1.523427,0.02043 0.146388,-0.09266 0.421827,-0.367819 0.498202,-0.497705 l 0.05319,-0.09046 -0.211367,-0.125566 c -0.316227,-0.187868 -0.686035,-0.307101 -0.960394,-0.309649 -0.191866,-0.0017 -0.253871,0.01154 -0.420153,0.09048 -0.176634,0.08383 -0.410972,0.285484 -0.553484,0.476311 -0.02466,0.03301 -0.04525,0.04593 -0.04577,0.02872 -0.0019,-0.06063 0.287087,-1.025744 0.317634,-1.060977 0.0057,-0.0065 0.0619,0.02224 0.124955,0.06397 0.625477,0.413919 1.230924,0.459424 1.727474,0.129836 0.161882,-0.107447 0.439924,-0.385154 0.439924,-0.439388 0,-0.04966 -0.466843,-0.356746 -0.690249,-0.454035 -0.201737,-0.08784 -0.254654,-0.09806 -0.510184,-0.0984 -0.253058,-3.31e-4 -0.304662,0.0093 -0.459094,0.08505 -0.0957,0.04699 -0.254168,0.159667 -0.352166,0.250396 l -0.178175,0.164958 0.147006,-0.355431 c 0.08085,-0.195488 0.18158,-0.432681 0.223839,-0.527092 l 0.07684,-0.17166 0.218357,0.164388 c 0.551613,0.415281 1.109965,0.484877 1.613859,0.201163 0.174883,-0.09847 0.450163,-0.331043 0.450163,-0.38033 0,-0.04004 -0.242166,-0.277433 -0.416116,-0.407911 l -0.101001,-0.07576 0.165539,-0.273006 c 0.09105,-0.150149 0.201928,-0.327982 0.246396,-0.395176 0.07467,-0.112833 0.08042,-0.185662 0.01466,-0.185662 -0.01483,0 -0.138346,0.180245 -0.274485,0.400542 l -0.247523,0.40054 -0.174627,-0.07096 c -0.429963,-0.174709 -0.868538,-0.09064 -1.243164,0.23828 l -0.107249,0.09416 0.124438,-0.247506 c 0.06844,-0.136126 0.140873,-0.251823 0.160957,-0.257106 0.224346,-0.05898 0.514932,-0.159532 0.63321,-0.219104 0.210821,-0.106174 0.42074,-0.314777 0.500648,-0.497492 0.08512,-0.194644 0.11189,-0.602264 0.05898,-0.898306 -0.04261,-0.238465 -0.05121,-0.220321 0.328937,-0.69413 0.166525,-0.207548 0.197856,-0.26267 0.164859,-0.290053 -0.0324,-0.0269 -0.0909,0.02915 -0.286006,0.274055 -0.134896,0.169327 -0.260545,0.332328 -0.279219,0.362228 -0.01867,0.0299 -0.06905,0.05437 -0.111957,0.05437 -0.144127,0 -0.540021,0.117714 -0.72189,0.214655 -0.480098,0.255891 -0.6529,0.769649 -0.478549,1.422775 l 0.0636,0.238248 -0.130778,0.249605 -0.130778,0.249607 0.01383,-0.239094 c 0.02746,-0.474321 -0.1425,-0.910294 -0.440682,-1.130433 -0.06707,-0.04951 -0.116148,-0.106188 -0.109052,-0.12595 0.0072,-0.01975 0.135148,-0.234253 0.284557,-0.476666 0.14941,-0.242412 0.271652,-0.453449 0.271652,-0.468967 0,-0.01552 -0.0219,-0.02385 -0.04866,-0.01852 -0.02677,0.0053 -0.17335,0.209181 -0.325745,0.452986 -0.152392,0.243808 -0.283743,0.449953 -0.29189,0.458098 -0.0081,0.0081 -0.08776,-0.01854 -0.176939,-0.05933 -0.08917,-0.04077 -0.24668,-0.09383 -0.350022,-0.117886 -0.172574,-0.04019 -0.190107,-0.03963 -0.214995,0.0069 -0.06461,0.120724 -0.126162,0.451787 -0.126799,0.682024 -0.0019,0.686054 0.326216,1.055391 1.114709,1.254708 l 0.265629,0.06715 -0.06165,0.133078 c -0.03392,0.07319 -0.140505,0.322145 -0.236879,0.553229 l -0.175224,0.420151 -8.7e-4,-0.241284 c -0.0029,-0.815139 -0.460352,-1.295015 -1.37161,-1.439038 -0.156366,-0.02471 -0.17273,7.81e-4 -0.2194,0.341611 -0.0591,0.431639 0.04671,0.868232 0.272619,1.124879 0.202038,0.229526 0.736904,0.438914 1.121178,0.438914 0.05847,0 0.106306,0.0088 0.106306,0.0194 0,0.01061 -0.04161,0.149096 -0.09247,0.307611 -0.137413,0.42827 -0.237484,0.816364 -0.237571,0.921326 0,0.0511 -0.01951,0.132144 -0.04327,0.180065 -0.02376,0.04793 -0.08027,0.312827 -0.125605,0.588667 l -0.08242,0.501525 -0.06441,-0.201418 c -0.09164,-0.286593 -0.180019,-0.444724 -0.347606,-0.621923 -0.275142,-0.290923 -0.636966,-0.419557 -1.122417,-0.399051 -0.148554,0.0062 -0.288831,0.023 -0.311726,0.03716 -0.03234,0.02 -0.03756,0.07674 -0.02344,0.254018 0.05006,0.628241 0.275951,1.044175 0.673368,1.239874 0.193163,0.09511 0.214072,0.0988 0.561444,0.0988 0.198447,0 0.414831,-0.01074 0.480854,-0.02389 l 0.120048,-0.02389 v 0.556539 c 0,0.306095 -0.0016,0.556555 -0.0033,0.556572 -0.0019,2.1e-5 -0.04537,-0.08437 -0.09669,-0.187528 -0.190808,-0.383548 -0.452893,-0.6444 -0.763064,-0.759467 -0.217654,-0.08075 -0.777747,-0.08264 -1.005034,-0.0034 -0.181593,0.06331 -0.189531,0.09135 -0.112248,0.396428 0.129876,0.512637 0.470776,0.951861 0.816883,1.052475 0.239654,0.06967 0.639639,0.04459 0.946589,-0.05937 0.128271,-0.04344 0.237939,-0.07898 0.243713,-0.07898 0.0058,0 0.01991,0.08441 0.03142,0.187567 0.02078,0.186245 0.124464,0.75685 0.155565,0.856051 0.0089,0.02848 -0.01476,0.01127 -0.05264,-0.03825 -0.424981,-0.555533 -0.87274,-0.785462 -1.377179,-0.707197 -0.217606,0.03377 -0.574765,0.155072 -0.673042,0.228596 -0.05775,0.0432 -0.05763,0.046 0.0088,0.231156 0.09819,0.273998 0.236197,0.493381 0.439878,0.699261 0.336157,0.339785 0.684355,0.422259 1.140411,0.270112 0.132051,-0.04405 0.319793,-0.12725 0.417215,-0.184871 0.09742,-0.05763 0.186907,-0.094 0.198858,-0.08083 0.01194,0.01313 0.05246,0.118483 0.09001,0.234022 0.03755,0.115538 0.120246,0.337808 0.183777,0.493924 0.06353,0.156117 0.115512,0.28892 0.115512,0.295123 0,0.0062 -0.0843,-0.06502 -0.187343,-0.158258 -0.103031,-0.09324 -0.287996,-0.219299 -0.411019,-0.280118 -0.192013,-0.09493 -0.258553,-0.112063 -0.470033,-0.121043 -0.373461,-0.01586 -0.74841,0.115711 -1.046083,0.36709 l -0.118761,0.100285 0.130327,0.200028 c 0.154549,0.237212 0.407322,0.50128 0.591862,0.61831 0.07299,0.04629 0.220841,0.108018 0.328549,0.137176 0.166744,0.04514 0.223423,0.04788 0.381555,0.01848 0.245804,-0.04572 0.500659,-0.17487 0.747624,-0.37889 0.110976,-0.09168 0.207666,-0.166686 0.214866,-0.166686 0.0072,0 0.07046,0.104662 0.140562,0.232585 0.07011,0.127926 0.19011,0.327312 0.26667,0.443094 0.07656,0.115777 0.149529,0.227215 0.162145,0.247629 0.0126,0.02041 -0.06491,-0.01797 -0.172295,-0.0853 -0.543121,-0.340536 -1.068254,-0.355365 -1.538632,-0.04345 -0.195796,0.129836 -0.354062,0.268504 -0.433038,0.379415 l -0.06165,0.08657 0.173616,0.182017 c 0.426214,0.446842 0.913723,0.640655 1.318677,0.524256 0.249005,-0.07157 0.424136,-0.192502 0.698367,-0.482206 l 0.237355,-0.25075 0.25732,0.305898 c 0.141521,0.168244 0.306947,0.363341 0.367612,0.433549 l 0.110299,0.127648 -0.172887,-0.07645 c -0.613443,-0.271295 -1.142488,-0.189849 -1.58721,0.244348 -0.176455,0.172281 -0.348608,0.410323 -0.348608,0.482035 0,0.05325 0.278497,0.257774 0.501765,0.368478 0.402785,0.199713 0.727958,0.225235 1.041404,0.08173 z m 8.951773,-1.664484 c 0.140843,-0.169976 0.250644,-0.314479 0.244002,-0.32112 -0.0066,-0.0066 -0.09482,0.09255 -0.195961,0.220439 -0.101134,0.127887 -0.313385,0.371042 -0.471665,0.540355 -0.158281,0.169308 -0.287127,0.31722 -0.286322,0.32869 0.0023,0.03269 0.427465,-0.427462 0.709946,-0.768364 z m -0.670082,0.616654 c 0.12457,-0.215092 0.208803,-0.543905 0.190644,-0.744168 -0.02918,-0.321764 -0.187176,-0.581596 -0.500051,-0.822348 -0.179929,-0.138455 -0.538118,-0.346677 -0.59636,-0.346677 -0.06937,0 -0.170932,0.419996 -0.170932,0.706822 0,0.253393 0.0076,0.286967 0.112434,0.499159 0.132635,0.268353 0.374037,0.532164 0.650434,0.710806 0.105471,0.06817 0.202615,0.123947 0.215868,0.123947 0.01326,0 0.05734,-0.05739 0.09796,-0.127541 z m 2.409831,-0.190465 c 0.326677,-0.08938 0.917039,-0.577162 0.850045,-0.702338 -0.05969,-0.111532 -0.382416,-0.367302 -0.598669,-0.474465 -0.21292,-0.105511 -0.237838,-0.110763 -0.525188,-0.110763 -0.281962,0 -0.316342,0.0069 -0.526322,0.105033 -0.123563,0.05778 -0.323328,0.175759 -0.44393,0.262197 -0.120592,0.08644 -0.208572,0.140456 -0.195496,0.120048 0.01313,-0.02041 0.127091,-0.192422 0.253354,-0.382241 0.453929,-0.6824 0.494964,-0.792412 0.486921,-1.305471 -0.01021,-0.650944 -0.396021,-0.998446 -1.262605,-1.137212 -0.136249,-0.02182 -0.254804,-0.03259 -0.263455,-0.02393 -0.03158,0.03158 -0.01456,0.297804 0.03019,0.472094 0.07519,0.292834 0.180816,0.474619 0.388806,0.669185 0.220076,0.205869 0.527249,0.369005 0.840727,0.446499 0.115538,0.02857 0.215004,0.05498 0.221029,0.05869 0.02792,0.01722 -0.428144,0.776559 -0.633973,1.055567 l -0.118323,0.16039 0.113177,0.164323 c 0.229523,0.333256 0.607947,0.60896 0.914631,0.666362 0.147857,0.02767 0.238253,0.0192 0.469081,-0.04395 z M 50.25485,34.830624 c 0.09113,-0.260778 0.08335,-0.665711 -0.01677,-0.872291 -0.141236,-0.291429 -0.46327,-0.530961 -0.945629,-0.703361 l -0.286751,-0.102487 -0.03223,0.1503 c -0.09217,0.429762 0.02789,0.878313 0.32232,1.20421 0.199764,0.221113 0.723523,0.547005 0.84588,0.526315 0.02558,-0.0044 0.07443,-0.09178 0.113177,-0.202682 z m 2.295783,-0.494071 c 0.09525,-0.04755 0.254848,-0.166142 0.354687,-0.263531 0.174739,-0.170455 0.417496,-0.505572 0.417496,-0.576338 0,-0.06065 -0.419326,-0.313987 -0.624744,-0.377436 -0.531655,-0.164211 -0.99137,-0.01329 -1.478209,0.485275 -0.114331,0.11709 -0.207882,0.204077 -0.207882,0.193309 0,-0.01074 0.03211,-0.08328 0.07136,-0.161134 0.136147,-0.270077 0.352847,-0.855594 0.456276,-1.232858 0.220466,-0.804158 0.298308,-1.484714 0.27336,-2.389956 -0.01962,-0.711911 -0.08511,-1.21871 -0.250144,-1.935699 -0.131918,-0.573102 -0.430961,-1.508016 -0.458106,-1.432171 -0.01562,0.04365 -0.04053,0.02525 -0.13681,-0.100988 -0.137195,-0.179903 -0.361967,-0.357573 -0.572526,-0.452555 -0.216522,-0.09767 -0.530226,-0.09162 -0.806344,0.01552 -0.189176,0.07341 -0.681714,0.373095 -0.723008,0.439911 -0.0343,0.05549 0.345097,0.386494 0.57097,0.498126 0.446283,0.220564 0.967763,0.154546 1.477084,-0.186989 0.109065,-0.07313 0.208061,-0.122475 0.219993,-0.109649 0.04161,0.04473 0.272754,0.80138 0.373017,1.221069 0.104078,0.435665 0.207666,1.025599 0.240231,1.368179 l 0.01854,0.195071 -0.121692,-0.245057 c -0.275968,-0.555728 -0.720185,-0.784783 -1.301513,-0.671106 -0.184822,0.03614 -0.641963,0.196314 -0.692696,0.242705 -0.03759,0.03437 0.102991,0.262219 0.283952,0.460225 0.107606,0.117727 0.221217,0.201262 0.381506,0.280482 l 0.228269,0.112819 0.391694,-6.91e-4 c 0.340455,-6e-4 0.419745,-0.01061 0.606073,-0.07616 l 0.214371,-0.07546 0.01821,0.13287 c 0.02834,0.206844 0.02139,0.944761 -0.01234,1.309922 -0.03691,0.399498 -0.09929,0.778653 -0.187622,1.140412 -0.05328,0.218188 -0.0675,0.249913 -0.074,0.16506 -0.05811,-0.75826 -0.391081,-1.117085 -1.120038,-1.207004 -0.142368,-0.01756 -0.347889,-0.02192 -0.461246,-0.0098 l -0.204454,0.0219 0.01543,0.109769 c 0.04722,0.33616 0.295988,0.732253 0.57707,0.918824 0.280926,0.186466 0.848245,0.346204 1.098904,0.309418 0.04752,-0.007 0.08641,-0.0023 0.08641,0.01048 0,0.08666 -0.236956,0.706834 -0.499359,1.306931 -0.04227,0.09668 0.464016,0.498407 0.769457,0.610534 0.242004,0.08884 0.557382,0.07117 0.788381,-0.04417 z m 0.400649,-1.561248 c 0.08451,-0.03771 0.209452,-0.11896 0.277642,-0.180572 0.165483,-0.149502 0.377017,-0.472842 0.468703,-0.716428 l 0.07451,-0.197979 -0.07316,-0.04795 c -0.04024,-0.02637 -0.171727,-0.08336 -0.29219,-0.126667 -0.176516,-0.06344 -0.274357,-0.07897 -0.504125,-0.08003 -0.258649,-0.0012 -0.303203,0.0073 -0.480174,0.09205 -0.107288,0.05134 -0.258385,0.149664 -0.33577,0.218497 -0.157398,0.14001 -0.389455,0.436742 -0.479349,0.612948 -0.07156,0.140271 -0.07207,0.139703 0.289929,0.32156 0.42324,0.21262 0.741118,0.244156 1.053981,0.104556 z m 0.116148,-1.596901 c 0.303605,-0.09877 0.601806,-0.494047 0.734804,-0.97399 0.09128,-0.32936 0.08763,-0.34529 -0.09104,-0.398352 -0.37343,-0.110896 -0.806675,-0.08128 -1.115502,0.07628 -0.215078,0.109728 -0.433278,0.367704 -0.593171,0.70131 -0.189142,0.39464 -0.195391,0.426214 -0.09466,0.478304 0.09861,0.051 0.381293,0.134413 0.569584,0.168076 0.174477,0.0312 0.394639,0.01194 0.589989,-0.05163 z m -1.387703,-0.144342 c 0.07137,-0.02886 0.06595,-0.138258 -0.01874,-0.378144 -0.197505,-0.559492 -0.578256,-0.804576 -1.195568,-0.769573 -0.153305,0.0088 -0.376214,0.03856 -0.495357,0.06636 l -0.216624,0.05055 0.05654,0.148803 c 0.237728,0.625654 0.760991,0.944595 1.502114,0.915577 0.173313,-0.0068 0.338748,-0.0219 0.367633,-0.03357 z m 1.201874,-1.455644 c 0.453529,-0.140082 0.758166,-0.639669 0.779447,-1.278246 l 0.0069,-0.206982 -0.193924,-0.02756 c -0.603945,-0.08585 -1.184543,0.205463 -1.423495,0.714261 -0.104994,0.22356 -0.188229,0.500565 -0.203966,0.6788 -0.0093,0.104888 -0.009,0.105087 0.155782,0.139659 0.273073,0.05727 0.657523,0.04856 0.879259,-0.01992 z m -1.854034,-1.238041 c 0.248145,-0.08698 0.464592,-0.193269 0.464592,-0.228138 0,-0.05909 -0.243058,-0.390745 -0.377882,-0.515617 -0.308457,-0.285694 -0.657043,-0.363903 -1.067185,-0.239432 -0.21393,0.06492 -0.582784,0.232388 -0.696678,0.316302 -0.05441,0.04008 -0.05421,0.04414 0.0069,0.143037 0.146536,0.237104 0.470758,0.482212 0.769331,0.581604 0.186105,0.06195 0.642949,0.03267 0.900901,-0.05776 z m 1.209896,-0.24743 c 0.464589,-0.05079 0.779997,-0.297809 0.938526,-0.735022 0.05935,-0.163713 0.07081,-0.252965 0.07126,-0.5552 l 5.41e-4,-0.360132 -0.184559,-0.0089 c -0.37123,-0.01781 -0.813867,0.144634 -1.059298,0.388767 -0.230206,0.228989 -0.390035,0.676924 -0.391212,1.096398 l -5.1e-4,0.185842 0.127541,0.01101 c 0.131773,0.01141 0.223698,0.0072 0.497715,-0.0228 z m -12.839674,-0.17718 c 0,-0.244652 -0.07832,-0.604924 -0.177643,-0.817175 -0.201598,-0.430803 -0.658339,-0.690415 -1.247872,-0.709291 l -0.210076,-0.0068 4.8e-4,0.375137 c 6.61e-4,0.516002 0.06877,0.719756 0.32701,0.977989 0.148929,0.148929 0.218765,0.194396 0.377774,0.245963 0.253487,0.08221 0.290636,0.08759 0.63773,0.09243 l 0.292605,0.0041 v -0.162418 z m 12.440938,-1.310565 c 0.271875,-0.08375 0.436006,-0.18193 0.582684,-0.348564 0.191761,-0.217851 0.252079,-0.412214 0.254297,-0.819407 10e-4,-0.189819 -0.0089,-0.395768 -0.02199,-0.457666 -0.02891,-0.136354 -0.07556,-0.142222 -0.423414,-0.05325 -0.318655,0.0815 -0.560416,0.217915 -0.750986,0.42375 -0.219715,0.237319 -0.28946,0.441042 -0.309429,0.903804 -0.0084,0.193306 -0.0065,0.374198 0.0042,0.401985 0.01666,0.04341 0.05008,0.04793 0.237687,0.03207 0.120061,-0.01021 0.312181,-0.04738 0.426928,-0.08271 z m -0.855195,-0.353769 c -0.06654,-0.167031 -0.181902,-0.434036 -0.256343,-0.593344 -0.07445,-0.159306 -0.135356,-0.294427 -0.135356,-0.300271 0,-0.0058 0.03768,-0.01061 0.08373,-0.01061 0.268978,0 0.805734,-0.227605 1.003568,-0.42555 0.30808,-0.308254 0.391141,-0.816983 0.22452,-1.3751 -0.03707,-0.124159 -0.04742,-0.134287 -0.128364,-0.125592 -0.04843,0.0052 -0.182586,0.04336 -0.298127,0.08478 -0.115538,0.04142 -0.230795,0.08188 -0.256119,0.08987 -0.03316,0.01048 -0.124067,-0.111838 -0.324714,-0.436931 -0.153269,-0.248322 -0.293317,-0.460545 -0.311222,-0.471611 -0.03849,-0.02379 -0.0251,4.5e-4 0.126706,0.229243 0.165773,0.249862 0.420229,0.680092 0.420229,0.71052 0,0.01481 -0.06759,0.0774 -0.150213,0.139085 -0.193411,0.144394 -0.344873,0.375067 -0.407706,0.620927 -0.03943,0.154293 -0.04557,0.264081 -0.02936,0.52519 0.03047,0.490627 0.02848,0.482154 0.204272,0.870315 0.08971,0.198072 0.201247,0.458125 0.247863,0.577894 0.04661,0.119769 0.0899,0.212619 0.0962,0.206321 0.0062,-0.0062 -0.043,-0.148105 -0.109544,-0.315137 z m -1.278661,-0.353696 c 0.213087,-0.0652 0.460817,-0.196222 0.642434,-0.339778 0.24972,-0.197394 0.250395,-0.207982 0.03868,-0.605578 l -0.182157,-0.342078 0.06402,-0.194257 c 0.04703,-0.142704 0.06467,-0.273891 0.06646,-0.494363 0.0021,-0.264108 -0.007,-0.320228 -0.07623,-0.467834 -0.09551,-0.20368 -0.275773,-0.382911 -0.491172,-0.488383 -0.182784,-0.0895 -0.464482,-0.169103 -0.599398,-0.169376 -0.07892,-3e-4 -0.114398,-0.03155 -0.262925,-0.232584 -0.197691,-0.267582 -0.413517,-0.532042 -0.413517,-0.506694 0,0.0096 0.102845,0.148901 0.228528,0.309691 0.331979,0.424692 0.313573,0.380708 0.261486,0.624844 -0.02825,0.132422 -0.04084,0.31584 -0.03403,0.496178 0.01287,0.340731 0.100365,0.555495 0.299788,0.735659 0.145286,0.131256 0.471017,0.286855 0.741279,0.354101 0.105365,0.02621 0.194981,0.05149 0.199143,0.05616 0.01943,0.02182 0.34455,0.685176 0.34455,0.703005 0,0.01114 -0.08694,-0.06323 -0.193208,-0.165267 -0.364698,-0.350199 -0.791697,-0.472581 -1.172286,-0.335985 -0.09904,0.03555 -0.200323,0.07071 -0.225082,0.07812 -0.03126,0.0094 -0.107633,-0.08989 -0.249882,-0.324778 -0.112674,-0.186052 -0.232446,-0.371697 -0.266157,-0.412538 l -0.06129,-0.07426 0.05445,0.09003 c 0.02995,0.04951 0.116758,0.191319 0.192924,0.315114 0.07616,0.123801 0.168048,0.273933 0.204191,0.333643 l 0.06572,0.108561 -0.112528,0.07467 c -0.06189,0.04108 -0.197772,0.14602 -0.301958,0.233214 l -0.189431,0.158535 0.0994,0.102778 c 0.129465,0.133882 0.37941,0.299035 0.541177,0.357592 0.284358,0.102938 0.502223,0.108973 0.787022,0.02183 z M 46.273054,11.983552 c 0.201585,-0.104914 0.267315,-0.257709 0.267315,-0.62141 0,-0.363702 -0.06573,-0.516496 -0.267315,-0.621411 -0.120883,-0.06292 -0.171332,-0.06884 -0.586354,-0.06884 -0.411297,0 -0.466684,0.0064 -0.587752,0.06752 -0.07352,0.03714 -0.164159,0.113416 -0.201429,0.169498 -0.06068,0.09131 -0.06776,0.138704 -0.06776,0.453227 0,0.314523 0.007,0.361918 0.06776,0.453227 0.03727,0.05609 0.127913,0.132356 0.201429,0.169498 0.121069,0.06116 0.176455,0.06752 0.587752,0.06752 0.415022,0 0.465467,-0.006 0.586354,-0.06884 z m -0.27288,-1.794135 c 0.164583,-0.07434 0.343027,-0.2415845 0.429836,-0.4028445 0.05168,-0.09599 0.06462,-0.171164 0.06462,-0.375135 0,-0.203972 -0.013,-0.279148 -0.06462,-0.375136 -0.08681,-0.16126 -0.265253,-0.328498 -0.429836,-0.402844 -0.153856,-0.0695 -0.441609,-0.08264 -0.603242,-0.02755 -0.401134,0.136724 -0.651646,0.56373 -0.567766,0.967778 0.05896,0.28398 0.284911,0.5446715 0.555787,0.6412255 0.154909,0.05522 0.464994,0.04238 0.615221,-0.02549 z"
       id="path2558"
       sodipodi:nodetypes="csscsssscsssssscssscssssscscscsssscssscssssccsscssssssssscsssscscsssscsssssssscsscscssssccsssscccscssssssssscsccssssssccssscsscscssscsccsccssssscscsscsssscsssscsscscsssssssssscccsscsscssssccsccscssssssscsscsscssssscsssscsssssccsscssssssssssscsssssssssssscssscsscssssccsssscsssssssssssssscscssscssssscssssssscsscsscssssssssssssssssssscssssscsccssscsccsscssscccsscssccsssccssssssssssscscscsssscsscsssssssscssscssccsscccccsccssscccccsscssscccccssssscsssssssssssscccsscsccscssssssssssscsscssscsscssccssssssscssssssscssssss" />
    <path
       style="fill:#ffffff;stroke-width:0.0372128"
       d="m 139.06733,46.948142 c -2.65264,-0.182543 -4.59985,-0.562564 -5.41453,-1.056704 -0.46118,-0.279716 -0.57962,-0.573609 -0.39284,-0.974764 0.34578,-0.742708 1.74577,-1.217969 3.93302,-1.335174 l 0.47007,-0.0252 0.0219,-0.153362 c 0.0115,-0.08435 0.12367,-0.496654 0.24817,-0.916226 0.80393,-2.710552 1.11096,-4.467382 1.0681,-6.111939 -0.0222,-0.853834 -0.0788,-1.228574 -0.27514,-1.821811 -0.24598,-0.743458 -0.54572,-1.142877 -1.33002,-1.772405 -2.90842,-2.334477 -5.00906,-6.677293 -5.51105,-11.393453 -0.0859,-0.807107 -0.11348,-2.227047 -0.0579,-2.977277 0.0862,-1.161785 0.24433,-1.999696 0.57942,-3.069788 0.86719,-2.769382 1.46159,-5.85516 1.93462,-10.0432092 l 0.12977,-1.1493709 -0.12434,-0.1377221 c -0.15213,-0.1684505 -0.30709,-0.4877655 -0.36292,-0.7481316 -0.0969,-0.4519731 0.0256,-1.1200387 0.25868,-1.4099376 0.15953,-0.1985178 0.27691,-0.2434641 0.50073,-0.1918011 0.13848,0.031972 0.19765,0.032021 0.23604,0 0.0281,-0.02337 0.0941,-0.1868557 0.14654,-0.3633008 0.20841,-0.70149609 0.24804,-0.81092049 0.35331,-0.97557519 0.24137,-0.3775237 0.5465,-0.3935655 1.13125,-0.059487 0.58367,0.3334473 0.68921,0.3273226 0.96828,-0.056197 0.28162,-0.387023 0.5103,-0.47676108 0.82579,-0.3240366 0.1893,0.091639 0.39866,0.3295889 0.71743,0.815394 0.36582,0.55750139 0.31412,0.55321049 0.56136,0.04656 0.25701,-0.5266908 0.5277,-0.8421769 0.97799,-1.13983032 0.45972,-0.3038866 0.73844,-0.4324595 0.93751,-0.4324595 0.35687,0 0.52485,0.1829792 0.94807,1.03267882 0.30993,0.6222492 0.48824,0.85153159 0.62335,0.80153129 0.0358,-0.013322 0.17213,-0.12148949 0.30287,-0.24050219 0.50555,-0.4602012 0.81507,-0.5091474 1.33206,-0.2106601 0.39353,0.2272019 0.4883,0.2543122 0.88896,0.2543122 0.31763,0 0.35429,0.00773 0.46044,0.09705 0.1667,0.14025479 0.18531,0.19180769 0.23987,0.66417599 0.0569,0.4933473 0.10016,0.5801004 0.34853,0.6989173 0.407,0.1947796 0.43675,0.4774059 0.11956,1.1359293 -0.10591,0.2197567 -0.22256,0.4851571 -0.25935,0.5897841 l -0.0669,0.1902321 0.1166,0.1791719 c 0.18047,0.2774391 0.16101,0.5699711 -0.0584,0.8809987 -0.10526,0.1490372 0.43081,3.8628735 0.88496,6.1318595 0.31727,1.58513 0.55857,2.518167 1.11597,4.315184 0.15887,0.5122 0.32393,1.31999 0.41478,2.029876 0.0942,0.736805 0.0946,2.879602 3.6e-4,3.684059 -0.56801,4.854878 -2.61838,9.066315 -5.55787,11.415761 -0.62345,0.498308 -0.83157,0.737557 -1.07563,1.23656 -0.34694,0.709311 -0.49991,1.487147 -0.49984,2.541673 0,1.599926 0.31561,3.286329 1.132,6.050303 0.11414,0.386588 0.20762,0.747816 0.20762,0.802734 v 0.09985 l 0.67914,0.04429 c 1.37061,0.0894 2.3319,0.296622 3.02119,0.651244 0.69614,0.358155 0.98683,0.936616 0.67565,1.344578 -0.5006,0.656313 -2.57184,1.136546 -5.85814,1.358249 -0.65166,0.04396 -2.00801,0.04253 -2.66705,-0.0028 z m 2.60331,-29.784671 c 0.19946,-1.347253 0.25296,-3.729019 0.11792,-5.246993 -0.10772,-1.209934 -0.0462,-1.621377 0.27448,-1.836098 0.17788,-0.119105 0.36846,-0.09271 1.00474,0.139153 0.2763,0.100685 0.55262,0.188777 0.61401,0.195755 l 0.11167,0.01266 -0.007,-0.26049 c -0.005,-0.183242 -0.086,-0.569469 -0.27319,-1.302445 -0.18663,-0.7305489 -0.27224,-1.1382878 -0.28638,-1.3642842 -0.0194,-0.3098369 -0.0164,-0.3260613 0.0762,-0.4186429 0.13551,-0.1355183 0.24117,-0.1209303 0.5233,0.072265 l 0.24659,0.1685806 V 7.0073588 c 0,-0.6008919 0.11003,-0.8647644 0.42861,-1.028582 0.11661,-0.059947 0.1881,-0.1220815 0.19266,-0.1674571 0.0462,-0.4587096 0.0561,-0.4975198 0.15262,-0.594019 0.10723,-0.1072798 0.13979,-0.1085627 0.85289,-0.033353 0.31681,0.033403 0.46918,-0.0028 0.6235,-0.1483958 0.17035,-0.1606484 0.17461,-0.3102497 0.0148,-0.5430072 -0.16588,-0.2426468 -0.13913,-0.4220227 0.15509,-1.0433082 0.1273,-0.2687833 0.23915,-0.5601854 0.24921,-0.6495025 0.0183,-0.161997 0.0183,-0.161997 -0.16298,-0.2542596 -0.31501,-0.1603358 -0.43415,-0.3480023 -0.47667,-0.7508517 -0.0728,-0.689913 -0.0717,-0.6884361 -0.5372,-0.6884361 -0.37351,0 -0.5399,-0.047086 -0.86559,-0.24492949 -0.44185,-0.2684002 -0.55773,-0.251245 -1.00127,0.14823129 -0.29719,0.2676749 -0.47027,0.3444664 -0.68537,0.3041102 -0.22826,-0.04281 -0.38917,-0.2478866 -0.74086,-0.94406889 -0.33015,-0.65354508 -0.50991,-0.90069982 -0.6551,-0.90069982 -0.23018,0 -1.08095,0.56993492 -1.34419,0.90048442 -0.13305,0.1670706 -0.34199,0.5636836 -0.50964,0.96748529 -0.0561,0.1352551 -0.20716,0.2300241 -0.321,0.2014518 -0.13667,-0.034291 -0.29785,-0.215428 -0.59796,-0.67182689 -0.3298,-0.5015804 -0.54411,-0.7277659 -0.68957,-0.7277659 -0.10394,0 -0.16885,0.05975 -0.42204,0.3887614 -0.15756,0.2048414 -0.3052,0.2807662 -0.54601,0.280929 -0.20995,0 -0.39657,-0.074732 -0.92511,-0.3711671 -0.11035,-0.061855 -0.23714,-0.1124604 -0.28191,-0.1124604 -0.176,0 -0.32522,0.2686173 -0.48579,0.87449909 -0.12351,0.4660644 -0.2548,0.7155972 -0.41728,0.7930745 -0.10591,0.050474 -0.14752,0.051642 -0.31453,0.00888 -0.18325,-0.046971 -0.19568,-0.045441 -0.2582,0.031758 -0.20115,0.2484244 -0.29761,0.7880305 -0.20528,1.1484285 0.19392,0.756937 0.70203,1.1030004 1.41926,0.9666187 0.24666,-0.046905 0.25033,-0.037481 0.26595,0.6837011 0.0214,0.9860105 0.16184,1.7195739 0.34834,1.8194002 0.0382,0.020377 0.14703,0.037054 0.24201,0.037054 0.14012,0 0.1927,0.019933 0.27835,0.1055858 0.1217,0.1217856 0.12861,0.1605168 0.18259,1.0480069 0.0523,0.8575348 0.21336,1.3823107 0.49801,1.6218307 0.15082,0.126934 0.23714,0.112806 0.41687,-0.0682 0.12335,-0.124203 0.17928,-0.226063 0.26067,-0.474462 0.12763,-0.3893562 0.17065,-0.4763642 0.29977,-0.6054799 0.13338,-0.1334624 0.34003,-0.1399916 0.45795,-0.014473 0.19611,0.208759 0.20129,0.6199599 0.0252,2.0041719 -0.18853,1.481928 -0.24856,2.137631 -0.25311,2.765013 -0.003,0.539551 0.0378,0.841176 0.12384,0.894311 0.0204,0.01266 0.0934,-0.03339 0.16232,-0.102264 0.34332,-0.34331 0.56676,-2.007139 0.53617,-3.992345 l -0.0115,-0.781467 0.10443,-0.223167 c 0.1773,-0.3786702 0.34211,-0.5017319 0.57084,-0.4262348 0.0855,0.028255 0.15427,0.091162 0.21775,0.1994569 0.34802,0.5938549 0.46807,1.6360379 0.57686,5.0085039 0.0566,1.752198 0.0972,2.271121 0.22676,2.897903 0.12319,0.595455 0.24986,1.116679 0.28549,1.174333 0.0312,0.05042 0.0722,-0.115536 0.13733,-0.555635 z"
       id="path2558-3"
       sodipodi:nodetypes="cssscccscsscsscssssscssssssssssssssccsscscssscsscsscssssccccssscccssscsscssscsssssssssssssssscsssssssssssscsssssscscccsscscscc" />
  </g>
</svg>
