<svg width="680.186" height="180.707" viewBox="0 0 179.966 47.812" xmlns="http://www.w3.org/2000/svg"><path style="fill:#fff;stroke-width:.0693017" d="M108.362 46.944c-3.785-.016-4.252-.03-4.29-.127-.022-.06.002-.15.055-.2.053-.05 1-.425 2.106-.833 1.105-.408 2.111-.784 2.235-.836l.225-.093v-11.06l-4.158-4.16c-2.736-2.737-4.158-4.207-4.158-4.299 0-.076.049-.208.108-.293.108-.154.112-.154 2.352-.154 1.235 0 2.26-.026 2.28-.059.02-.032-.225-.366-.545-.742l-.582-.682-.438-.008c-.696-.01-1.153-.308-1.437-.935a1.427 1.427 0 0 1-.08-1.023c.077-.265.094-.24-1.693-2.334-.61-.714-1.137-1.349-1.171-1.41-.049-.085.013-.18.266-.409.181-.164.381-.298.444-.298.125 0 .148.026 1.812 2.01.623.743 1.162 1.37 1.198 1.394.035.023.192.014.349-.021.37-.083.862.034 1.215.29.502.363.701 1.089.492 1.789-.074.245-.071.308.016.41l.876 1.032c.424.5.822.93.883.953.061.024 2.696.043 5.854.043h5.742l.108.154c.06.085.108.217.108.293 0 .092-1.422 1.562-4.158 4.3l-4.158 4.16V44.855l.26.109c.143.06 1.008.383 1.923.717 2.559.935 2.46.894 2.46 1.04 0 .23-.225.276-1.26.259-.546-.01-2.903-.026-5.24-.036zm1.534-14.53c.179-.053.478-.195.664-.315.338-.217 6.332-6.175 6.318-6.28-.008-.058-9.293-.053-9.352.006-.019.02.039.113.128.208l.163.173h1.568c1.127 0 1.59.023 1.65.083.053.052.084.31.084.693 0 .335.023.61.052.61.029-.001.405-.313.837-.694l.784-.692h1.383c1.158 0 1.39.016 1.423.102.026.07-.876 1.033-2.757 2.946-3.05 3.1-3.11 3.15-3.64 2.98-.21-.069-.84-.668-3.072-2.929-1.543-1.563-2.807-2.892-2.807-2.954 0-.097.186-.115 1.52-.145l1.519-.035-.18-.208-.178-.208-1.923-.02c-1.058-.012-1.971-.002-2.03.02-.076.03.74.89 2.87 3.022 1.637 1.64 3.13 3.095 3.318 3.234.34.253.916.495 1.19.499.08.001.29-.042.468-.095zM167.555 46.931c-1.46-.067-3.153-.238-3.445-.349-.106-.04-.155-.094-.118-.13.035-.033.469-.22.964-.417 1.18-.468 3.179-1.404 3.184-1.491.002-.038-.198-.141-.446-.229-2.297-.815-4.25-2.528-5.268-4.623-.383-.788-.736-1.89-.911-2.849-.216-1.179-.217-3.34-.002-4.658.457-2.806 1.576-6.736 3.2-11.24.508-1.405.468-1.346 1.002-1.48 1.674-.421 7.432-.523 9.923-.177.289.04.54.057.56.038.019-.019-.704-.275-1.607-.568-1-.325-1.657-.573-1.68-.636-.088-.227.684-1.461 1.134-1.815.1-.079.233-.142.294-.141.138.003 2.295 2.98 2.295 3.167 0 .082.084.17.22.232.194.087.253.186.488.826 1.576 4.29 2.63 7.829 3.24 10.88.871 4.359.074 8.12-2.241 10.578-1.026 1.09-2.161 1.846-3.615 2.408-.342.132-.616.263-.609.29.019.073 2.305 1.149 3.071 1.446 1.285.496 1.317.531.622.665-1.321.255-7.223.412-10.254.273zm5.267-3.072c3.187-.744 5.531-2.617 6.576-5.255.241-.608.516-1.657.626-2.39.284-1.887-.22-5.246-1.45-9.655-.573-2.058-1.898-5.931-2.103-6.148-.062-.066-.215-.062-.704.014-2.067.326-7.285.327-9.294.002-.338-.055-.639-.075-.669-.045-.104.104-.798 1.993-1.355 3.686-1.453 4.418-2.371 8.9-2.279 11.12.16 3.836 2.067 6.682 5.412 8.076 1.938.807 3.547.99 5.24.595zm-2.633-.67c-3.752-.336-6.297-2.834-7.38-7.243-.274-1.114-.465-2.697-.34-2.821.022-.023.233.064.468.193.687.378 2.209.692 4.202.867 1.403.123 5.48.164 6.965.071 2.817-.177 4.648-.522 5.397-1.018.344-.227.402-.15.348.46-.16 1.808-.62 3.527-1.327 4.954-1.368 2.762-3.5 4.256-6.469 4.534-.861.081-.989.081-1.864.003zm-1.837-9.286c-2.298-.136-4.388-.45-5.21-.78-.713-.286-.804-.657-.235-.948 2.188-1.116 12.013-1.287 15.734-.274 1.168.318 1.432.733.711 1.12-.99.533-3.804.867-7.708.916-1.239.015-2.72 0-3.292-.034zm6.645-13.86c.898-.06 1.083-.09 1.005-.168-.191-.19-6.169-.326-8.151-.184-1.227.088-1.613.14-1.613.216 0 .23 5.918.321 8.76.135zm4.517 4.422c-.2-.287-.139-.431.3-.703.54-.333 1.295-1.153 1.62-1.76.492-.919.683-2.264.47-3.309-.122-.598-.613-1.592-1.038-2.102-1.417-1.7-3.882-2.213-5.863-1.222-1.18.59-1.96 1.493-2.457 2.84-.154.419-.204.487-.364.506-.315.037-.471-.093-.423-.352.129-.696.74-1.798 1.361-2.46.68-.721 1.706-1.332 2.647-1.576a5.575 5.575 0 0 1 5.141 1.304c1.007.941 1.555 2.003 1.76 3.409.288 1.99-.73 4.197-2.451 5.31-.483.311-.557.324-.703.115zm-.698-2.664c-1.044-1.434-1.244-1.756-1.09-1.756.038 0 .642.185 1.343.41.7.227 1.506.487 1.792.578.643.205.675.305.297.948-.284.483-1.021 1.321-1.162 1.321-.048 0-.58-.675-1.18-1.5zm.728-1.434c-1.164-.387-1.697-.596-1.697-.664 0-.131 3.615-1.302 3.714-1.203.203.202.25 1.955.063 2.305a.262.262 0 0 1-.228.134c-.085-.004-.918-.261-1.852-.572zm-1.87-1.102c.001-.152 2.184-3.065 2.315-3.09.286-.055 1.362 1.353 1.382 1.809l.01.218-1.732.574c-.953.316-1.788.575-1.854.575-.067 0-.121-.038-.12-.086zm-.964-.345c-.054-.086-.545-.77-1.092-1.52s-.994-1.395-.994-1.433c0-.229 1.187-.728 1.928-.812.404-.046.423-.04.462.117.022.09.031.975.02 1.965-.016 1.536-.034 1.804-.123 1.821-.057.01-.148-.051-.201-.138zm.579.067c-.019-.048-.026-.93-.015-1.958l.018-1.87.227-.022c.523-.05 1.924.454 2.119.763.05.08-.195.467-1.036 1.635-.606.842-1.142 1.533-1.19 1.535a.135.135 0 0 1-.123-.083zM9.623 46.937c-.075-.074-.053-.357.031-.409.043-.027 1.05-.085 2.238-.13l2.16-.083.368-.2c.203-.11.458-.31.568-.442.437-.531.755-1.474.778-2.312l.013-.488-.762-.16c-3.453-.727-5.906-2.483-7.142-5.114-.55-1.17-.767-2.31-.704-3.707.096-2.165 1.087-4.359 2.779-6.153.3-.319.534-.59.52-.604-.015-.013-.464.145-.998.352-1.922.743-3.839 1.249-5.364 1.415-.893.097-1.358.067-1.358-.09 0-.064 1.063-1.342 2.362-2.84 1.3-1.499 2.54-2.934 2.758-3.19l.396-.467-.099-.291c-.31-.918.812-1.471 1.338-.659l.171.266 1.18-.042c3.365-.12 7.96-.183 8.033-.11.056.056-.112.26-.619.75-1.35 1.308-3.15 2.522-5.696 3.842-.658.34-1.196.63-1.196.645 0 .014.036.104.08.202l.081.176h10.408l.589.606c1.386 1.427 2.415 3.411 2.742 5.285.201 1.153.067 2.748-.329 3.904-.68 1.985-2.312 3.767-4.43 4.831-.73.368-2.053.8-3.018.985l-.802.155.036.493c.085 1.145.552 2.214 1.16 2.654.402.291.744.34 2.964.418 1.079.039 1.991.088 2.027.11.107.066.075.361-.044.407-.15.057-13.162.053-13.22-.005zM5.727 28.022c.17-.023.354-.077.41-.121.112-.088 1.38-3.345 1.345-3.453-.022-.064-2.622 3.457-2.679 3.626-.018.054.071.065.295.034l.629-.086zm2.532-.754.23-.12-.047-1.39c-.044-1.32-.064-1.509-.15-1.422-.062.062-1.054 3.238-1.021 3.27.039.04.688-.183.988-.338zm2.565-.243c0-.038-.03-.07-.065-.07-.036 0-.085.032-.108.07-.024.038.005.07.065.07.06 0 .108-.032.108-.07zm-.78-.493c.162-.07.295-.172.295-.23 0-.105-.927-2.542-1.042-2.738-.043-.074-.064.023-.066.308-.002.477.128 2.485.178 2.724.037.176.086.171.635-.064zm1.806-.804c.05-.02.08-.093.069-.16-.027-.156-1.88-2.183-1.911-2.09-.022.067 1.04 2.248 1.177 2.419.053.066.124.06.321-.024l.344-.145zm1.19-.643c.36-.184.384-.243.158-.4-.487-.34-2.528-1.55-2.56-1.517-.062.062 1.878 2.043 2.008 2.05.068.002.245-.057.394-.133zm1.75-.98c.186-.12.313-.244.281-.276-.107-.107-3.378-1.056-3.5-1.015-.038.013.378.27.926.57.547.3 1.15.634 1.341.741.44.248.536.246.951-.02zm1.826-1.247c.283-.195.514-.378.514-.405 0-.028-.584-.07-1.3-.096-.714-.025-1.782-.065-2.373-.09-.62-.024-1.05-.017-1.016.018.076.081 3.212.916 3.465.923.13.003.372-.116.71-.35z" transform="translate(-2.75 .83)"/><path style="fill:#fff;stroke-width:.264583" d="M72.149 46.842c-1.052-.22-1.443-.453-1.187-.71.3-.3 2.196-.625 3.675-.632 1.17-.005 1.534-.106 1.682-.47.391-.96.595-6.447.4-10.78-.237-5.273-.58-6.384-2.424-7.846-4.137-3.278-5.034-4.092-5.877-5.326-1.394-2.044-1.66-3.349-1.272-6.259.412-3.094 2.686-10.693 3.081-10.298.066.066-.354 1.569-.931 3.34-2.02 6.193-2.365 9.628-1.2 11.927.83 1.64 3.656 4.272 5.62 5.236 2.172 1.067 4.86 1.08 6.988.034 1.861-.914 4.144-2.865 5.295-4.527.76-1.097.904-1.554.995-3.162.058-1.034-.043-2.719-.227-3.744-.363-2.04-1.94-7.238-2.562-8.443-.31-.602-.317-.734-.037-.644.5.161 2.519 6.345 3.024 9.265.233 1.35.372 3.002.308 3.672-.253 2.656-2.032 4.971-6.228 8.106-1.54 1.151-2.205 1.851-2.704 2.848-.659 1.316-.662 1.356-.662 8.756 0 5.57.084 7.534.332 7.834.22.265 1.021.449 2.381.546 2.111.15 2.976.36 2.976.723 0 .114-.208.3-.463.411-.636.28-9.754.398-10.983.143zm2.403-22.087c-1.634-.672-2.91-1.603-4.637-3.382-1.424-1.47-1.93-2.712-1.93-4.742v-1.627l.924.705c1.312 1 3.023 1.726 4.103 1.739.638.007 2.075-.572 4.632-1.869 3.061-1.552 4.063-1.93 5.755-2.175 1.474-.212 2.129-.214 2.336-.007.158.158.353 1.251.434 2.43.19 2.763-.263 4.002-2.121 5.818-1.895 1.85-2.962 2.593-4.616 3.212-1.83.684-3.03.66-4.88-.102z" transform="translate(-2.75 .83)"/><path style="fill:#fff;stroke-width:.0300109" d="M38.925 46.956c-.254-.06-.488-.349-.487-.6 0-.263.166-.53.377-.606.057-.02.103-.045.102-.054 0-.009-.111-.05-.247-.09a4.326 4.326 0 0 1-1.134-.575c-.948-.702-1.516-1.742-1.62-2.965-.023-.264-.03-4.105-.022-12.757.01-11.645.013-12.395.063-12.635.179-.871.584-1.62 1.194-2.205.458-.44.948-.732 1.511-.901.448-.134.441-.13.226-.133-.223-.004-.394-.07-.517-.2-.328-.352-.164-.945.293-1.06.09-.022 1.044-.033 3.046-.033 2.766 0 2.915-.002 2.893-.052-.061-.142-.112-.503-.266-1.898-.172-1.56-.174-1.615-.07-1.818.119-.228.51-.483.87-.568.242-.057.788-.057 1.057 0 .115.025.304.09.42.146.346.166.527.396.527.668 0 .078-.087.777-.193 1.554-.106.777-.2 1.484-.21 1.57a1.57 1.57 0 0 1-.062.277l-.043.122h2.701c1.848 0 2.743.01 2.831.032.578.146.63.976.077 1.209l-.105.044.09.02c.813.178 1.456.523 2.012 1.08a4.066 4.066 0 0 1 1.142 2.266c.039.25.043 1.858.035 12.935l-.009 12.65-.064.255c-.254 1.011-.766 1.806-1.538 2.388-.31.233-.825.495-1.167.592l-.25.07.145.074a.648.648 0 0 1 .242.219c.085.126.098.17.098.337 0 .32-.18.566-.467.638-.153.039-13.32.042-13.481.004zm11.862-9.836c.205-.064.356-.142.578-.3l.188-.133-.053-.093a2.542 2.542 0 0 0-.259-.313c-.345-.367-.726-.511-1.138-.431a2.564 2.564 0 0 0-.716.273c-.077.046-.148.076-.157.067-.008-.009-.128.09-.265.22s-.309.288-.382.35c-.073.06-.122.111-.108.111.022 0 .121-.085.605-.52l.154-.139.116.201c.131.227.453.572.612.655.244.129.52.146.825.052zM41 37.07c.218-.1.494-.363.668-.639l.138-.217.37.328c.204.18.384.328.399.328.086 0 .026-.093-.175-.27-.125-.11-.293-.26-.373-.333l-.145-.132.212-.145c.53-.363.821-.876.772-1.361-.019-.183-.111-.524-.164-.605-.02-.032-.058-.024-.187.041-.416.209-.766.507-.897.765-.13.253-.134.634-.012.927.023.056.038.106.033.112-.01.01-.457-.495-.62-.702-.056-.07-.096-.132-.09-.138.008-.006.102-.053.21-.104.418-.197.762-.54.902-.9.054-.138.067-.231.067-.486 0-.173-.015-.352-.034-.396l-.034-.082-.159.046a3.958 3.958 0 0 0-.461.192c-.245.118-.335.181-.472.329-.25.27-.335.584-.262.962a.705.705 0 0 1 .02.141 2.013 2.013 0 0 1-.159-.225c-.168-.258-.413-.696-.396-.707.006-.005.085-.026.176-.047.285-.067.642-.257.854-.456.29-.272.435-.613.436-1.027v-.205l-.082.016a5.63 5.63 0 0 1-.218.034c-.838.116-1.269.489-1.317 1.139l-.018.241-.116-.285c-.138-.337-.26-.685-.26-.74 0-.029.05-.04.176-.04.096 0 .277-.026.402-.058.428-.11.751-.323.943-.623.116-.18.268-.612.24-.683-.015-.04-.08-.047-.401-.046-.57 0-.86.083-1.096.312a1.148 1.148 0 0 0-.315.575l-.051.208-.04-.165c-.036-.157-.158-.91-.147-.92.003-.002.072.007.155.02.561.094 1.132-.066 1.474-.413.156-.159.371-.534.371-.648 0-.086-.434-.179-.84-.18-.408 0-.596.068-.824.295-.14.14-.194.228-.339.555-.026.059-.034-.043-.035-.465 0-.297.01-.559.024-.58.019-.03.042-.033.082-.012.118.062.499.127.742.127.556 0 .966-.244 1.256-.745.1-.173.1-.172-.186-.284-.35-.138-.562-.179-.855-.165-.216.01-.3.028-.42.09a1.439 1.439 0 0 0-.524.534c-.074.134-.088.148-.077.075.008-.05.03-.198.047-.33.03-.23.121-.742.134-.759.003-.004.09.033.192.084.534.265 1.125.273 1.524.02.146-.092.421-.367.498-.497l.053-.09-.211-.126c-.317-.188-.686-.307-.96-.31a.747.747 0 0 0-.421.09 1.736 1.736 0 0 0-.553.477c-.025.033-.046.046-.046.029-.002-.06.287-1.026.317-1.061.006-.007.062.022.125.064.626.414 1.231.46 1.728.13.162-.108.44-.386.44-.44 0-.05-.467-.357-.69-.454-.202-.088-.255-.098-.51-.098-.254 0-.305.01-.46.085-.095.047-.254.16-.352.25l-.178.165.147-.355c.08-.196.181-.433.224-.527l.077-.172.218.164c.552.416 1.11.485 1.614.202.175-.099.45-.331.45-.38 0-.04-.242-.278-.416-.409l-.101-.075.165-.273c.091-.15.202-.328.247-.396.074-.112.08-.185.014-.185-.014 0-.138.18-.274.4l-.248.4-.174-.07c-.43-.175-.869-.09-1.243.238l-.108.094.125-.247c.068-.136.14-.252.16-.257a4.2 4.2 0 0 0 .634-.22c.21-.106.42-.314.5-.497.086-.195.113-.602.06-.898-.043-.239-.052-.22.329-.694.166-.208.197-.263.164-.29-.032-.027-.09.029-.286.274-.134.169-.26.332-.279.362-.018.03-.069.054-.112.054-.144 0-.54.118-.722.215-.48.256-.653.77-.478 1.423l.063.238-.13.25-.131.25.014-.24c.027-.474-.143-.91-.441-1.13-.067-.05-.116-.107-.109-.126.007-.02.135-.235.285-.477a5.41 5.41 0 0 0 .271-.469c0-.016-.022-.024-.048-.019-.027.006-.174.21-.326.453-.153.244-.284.45-.292.459-.008.008-.088-.019-.177-.06a2.236 2.236 0 0 0-.35-.118c-.173-.04-.19-.04-.215.007-.065.121-.126.452-.127.682-.002.686.326 1.056 1.115 1.255l.265.067-.061.133c-.034.073-.14.322-.237.553l-.175.42-.001-.24c-.003-.816-.46-1.296-1.372-1.44-.156-.024-.173.001-.22.342-.058.432.048.868.273 1.125.202.23.737.439 1.122.439.058 0 .106.008.106.02 0 .01-.042.148-.093.307-.137.428-.237.816-.237.921 0 .051-.02.132-.043.18-.024.048-.08.313-.126.589l-.082.501-.065-.201c-.091-.287-.18-.445-.347-.622-.276-.291-.637-.42-1.123-.4a1.321 1.321 0 0 0-.312.038c-.032.02-.037.077-.023.254.05.628.276 1.044.673 1.24.194.095.214.099.562.099.198 0 .415-.011.48-.024l.12-.024v.556c0 .307 0 .557-.003.557-.002 0-.045-.084-.096-.187-.191-.384-.453-.645-.763-.76-.218-.08-.778-.083-1.005-.003-.182.063-.19.091-.113.396.13.513.471.952.817 1.053.24.07.64.044.947-.06.128-.043.238-.079.244-.079.005 0 .02.085.031.188.02.186.124.757.156.856.008.028-.015.011-.053-.038-.425-.556-.873-.786-1.377-.708-.218.034-.575.155-.673.229-.058.043-.058.046.008.231.099.274.237.494.44.7.337.34.685.422 1.14.27.133-.045.32-.128.418-.185.097-.058.187-.094.199-.081.012.013.052.118.09.234.037.115.12.338.184.494.063.156.115.289.115.295 0 .006-.084-.065-.187-.158a2.174 2.174 0 0 0-.411-.28.908.908 0 0 0-.47-.122 1.53 1.53 0 0 0-1.046.368l-.12.1.131.2c.155.237.408.501.592.618.073.046.22.108.329.137a.67.67 0 0 0 .381.019c.246-.046.5-.175.748-.38.11-.09.207-.166.215-.166.007 0 .07.105.14.233s.19.327.267.443c.076.116.15.227.162.248.013.02-.065-.018-.172-.086-.543-.34-1.068-.355-1.539-.043-.196.13-.354.268-.433.38l-.062.086.174.182c.426.447.914.64 1.319.524.249-.071.424-.192.698-.482l.237-.25.258.305.367.434.11.127-.172-.076c-.614-.272-1.143-.19-1.587.244-.177.172-.349.41-.349.482 0 .053.278.258.502.369.403.2.728.225 1.041.081zm8.952-1.664c.14-.17.25-.315.244-.321-.007-.007-.095.092-.196.22s-.314.371-.472.54c-.158.17-.287.318-.286.33.002.032.427-.428.71-.77zm-.67.617c.124-.216.208-.544.19-.745-.029-.321-.187-.581-.5-.822-.18-.138-.538-.347-.596-.347-.07 0-.171.42-.171.707 0 .254.008.287.112.5.133.268.374.532.65.71.106.068.203.124.217.124.013 0 .057-.057.098-.127zm2.41-.19c.326-.09.917-.578.85-.703-.06-.112-.383-.368-.6-.475-.212-.105-.237-.11-.524-.11-.282 0-.317.006-.527.105a3.388 3.388 0 0 0-.444.262c-.12.086-.208.14-.195.12l.253-.382c.454-.683.495-.793.487-1.306-.01-.65-.396-.998-1.262-1.137a1.077 1.077 0 0 0-.264-.024c-.031.032-.014.298.03.472.076.293.181.475.39.67.22.205.526.368.84.446.115.028.215.055.22.058.029.018-.427.777-.633 1.056l-.118.16.113.165c.23.333.608.609.914.666.148.028.239.02.47-.044zm-1.438-1.003c.091-.261.083-.666-.017-.873-.141-.291-.463-.53-.946-.703l-.286-.103-.033.15c-.092.43.028.88.323 1.205.2.221.723.547.846.526.025-.004.074-.091.113-.202zm2.296-.494c.095-.048.254-.167.354-.264.175-.17.418-.506.418-.576 0-.061-.42-.314-.625-.378-.532-.164-.991-.013-1.478.486-.114.117-.208.204-.208.193 0-.01.032-.083.071-.161.136-.27.353-.856.457-1.233.22-.804.298-1.485.273-2.39a8.871 8.871 0 0 0-.25-1.936c-.132-.573-.431-1.508-.458-1.432-.016.044-.04.025-.137-.101a1.604 1.604 0 0 0-.573-.453c-.216-.097-.53-.091-.806.016-.19.073-.682.373-.723.44-.034.055.345.386.571.498.446.22.968.155 1.477-.187.11-.073.208-.122.22-.11.042.045.273.802.373 1.221.104.436.208 1.026.24 1.369l.019.195-.122-.245c-.276-.556-.72-.785-1.301-.671-.185.036-.642.196-.693.242-.038.035.103.262.284.46.108.118.221.202.381.281l.229.113h.391c.34-.002.42-.012.606-.077l.215-.076.018.133c.028.207.021.945-.012 1.31-.037.4-.1.779-.188 1.14-.053.219-.067.25-.074.166-.058-.759-.391-1.117-1.12-1.207a2.441 2.441 0 0 0-.461-.01l-.205.022.016.11c.047.336.296.732.577.918.28.187.848.347 1.099.31.047-.007.086-.002.086.01 0 .087-.237.707-.5 1.307-.041.097.465.499.77.61.242.09.558.072.789-.043zm.4-1.562a1.27 1.27 0 0 0 .278-.18c.165-.15.377-.473.469-.717l.074-.198-.073-.048a1.995 1.995 0 0 0-.292-.126 1.25 1.25 0 0 0-.504-.08c-.259-.002-.304.007-.48.092-.108.051-.259.15-.336.218-.158.14-.39.437-.48.613-.071.14-.072.14.29.322.424.212.741.244 1.054.104zm.116-1.597c.304-.098.602-.494.735-.974.092-.329.088-.345-.09-.398-.374-.11-.807-.081-1.116.076-.215.11-.434.368-.593.702-.19.394-.196.426-.095.478.098.051.381.134.57.168.174.031.394.012.59-.052zm-1.387-.144c.071-.029.066-.138-.019-.378-.198-.56-.578-.805-1.196-.77a3.56 3.56 0 0 0-.495.067l-.217.05.057.15c.238.625.761.944 1.502.915.173-.007.339-.022.368-.034zm1.202-1.456c.453-.14.758-.64.779-1.278l.007-.207-.194-.027c-.604-.086-1.185.205-1.423.714-.105.223-.189.5-.204.679-.01.105-.01.105.155.14.273.057.658.048.88-.02zm-1.854-1.238c.248-.087.464-.193.464-.228 0-.059-.243-.39-.378-.515-.308-.286-.657-.364-1.067-.24-.214.065-.583.233-.697.316-.054.04-.054.045.007.144.147.237.471.482.77.581.186.062.643.033.9-.058zm1.21-.247c.464-.05.78-.298.938-.735.06-.164.07-.253.071-.555v-.36l-.184-.01c-.371-.017-.814.145-1.06.39-.23.228-.39.676-.39 1.096v.186l.127.01c.132.012.223.008.497-.022zm-12.84-.177c0-.245-.079-.605-.178-.817-.201-.431-.658-.69-1.248-.71l-.21-.006v.375c.001.516.07.72.328.978.149.149.218.194.377.246.254.082.291.087.638.092l.293.004v-.162zm12.44-1.31c.273-.085.437-.183.583-.35.192-.217.252-.412.255-.819a3.316 3.316 0 0 0-.022-.457c-.03-.137-.076-.143-.424-.054-.318.082-.56.218-.75.424-.22.237-.29.441-.31.904-.009.193-.007.374.004.402.017.043.05.048.238.032.12-.01.312-.047.427-.083zm-.854-.355a13.5 13.5 0 0 0-.257-.593 6.39 6.39 0 0 1-.135-.3c0-.006.038-.01.084-.01.269 0 .805-.228 1.003-.426.308-.309.391-.817.225-1.375-.037-.125-.048-.135-.129-.126a1.883 1.883 0 0 0-.298.085c-.115.041-.23.082-.256.09-.033.01-.124-.112-.325-.437a5.23 5.23 0 0 0-.31-.472c-.04-.024-.026 0 .126.23.166.25.42.68.42.71 0 .015-.068.077-.15.139a1.146 1.146 0 0 0-.408.62c-.04.155-.045.265-.03.526.031.49.03.482.205.87.09.198.201.458.248.578.047.12.09.213.096.207a1.973 1.973 0 0 0-.11-.316zm-1.28-.353c.214-.065.462-.196.643-.34.25-.197.25-.208.039-.606l-.182-.342.064-.194c.047-.143.065-.274.066-.494.002-.264-.007-.32-.076-.468a1.066 1.066 0 0 0-.491-.489c-.183-.089-.465-.169-.6-.169-.078 0-.114-.031-.262-.232-.198-.268-.414-.533-.414-.507 0 .01.103.149.229.31.332.424.313.38.261.624-.028.133-.04.316-.034.497.013.34.1.555.3.735.145.131.47.287.741.354.105.026.195.052.2.056.019.022.344.686.344.703 0 .012-.087-.063-.193-.165-.365-.35-.792-.472-1.173-.336-.099.036-.2.07-.225.078-.031.01-.107-.09-.25-.324a6.085 6.085 0 0 0-.266-.413l-.061-.074.054.09a70.202 70.202 0 0 0 .397.649l.066.108-.112.075a4.494 4.494 0 0 0-.302.233l-.19.159.1.102c.13.134.38.3.54.358.285.103.503.109.788.022zm-3.43-13.914c.2-.105.266-.258.266-.622s-.065-.516-.267-.621c-.12-.063-.171-.07-.586-.07-.412 0-.467.007-.588.068a.617.617 0 0 0-.201.17c-.061.091-.068.139-.068.453 0 .315.007.362.068.453a.616.616 0 0 0 .2.17c.122.061.177.067.589.067.415 0 .465-.006.586-.068zM46 10.189c.165-.074.343-.241.43-.402.052-.096.065-.172.065-.376 0-.204-.013-.279-.065-.375a1.014 1.014 0 0 0-.43-.403.997.997 0 0 0-.603-.027.862.862 0 0 0-.568.968.901.901 0 0 0 .556.64c.155.056.465.043.615-.025z" transform="translate(-2.75 .83)"/><path style="fill:#fff;stroke-width:.0372128" d="M139.067 46.948c-2.652-.182-4.6-.562-5.414-1.057-.461-.28-.58-.573-.393-.974.346-.743 1.746-1.218 3.933-1.336l.47-.025.022-.153c.011-.084.124-.497.248-.916.804-2.71 1.111-4.468 1.068-6.112-.022-.854-.079-1.229-.275-1.822-.246-.743-.546-1.143-1.33-1.772-2.908-2.335-5.009-6.678-5.511-11.394-.086-.807-.113-2.227-.058-2.977.086-1.162.244-2 .58-3.07.867-2.77 1.461-5.855 1.934-10.043l.13-1.15-.124-.137a1.84 1.84 0 0 1-.363-.748c-.097-.452.025-1.12.258-1.41.16-.199.277-.244.501-.192.139.032.198.032.236 0 .028-.024.094-.187.147-.363.208-.702.248-.811.353-.976.241-.378.546-.394 1.131-.06.584.334.69.328.968-.056.282-.387.51-.476.826-.324.19.092.399.33.718.816.366.557.314.553.561.046.257-.526.528-.842.978-1.14.46-.303.738-.432.938-.432.356 0 .524.183.948 1.033.31.622.488.851.623.801.036-.013.172-.121.303-.24.505-.46.815-.51 1.332-.211.393.227.488.254.889.254.318 0 .354.008.46.097.167.14.186.192.24.665.057.493.1.58.349.698.407.195.436.478.12 1.136a7.98 7.98 0 0 0-.26.59l-.067.19.117.18c.18.277.16.57-.059.88-.105.15.431 3.863.885 6.132.317 1.586.559 2.519 1.116 4.316.159.512.324 1.32.415 2.03.094.736.095 2.88 0 3.684-.568 4.854-2.618 9.066-5.558 11.415-.623.499-.831.738-1.075 1.237-.347.71-.5 1.487-.5 2.542 0 1.6.316 3.286 1.132 6.05.114.386.208.748.208.803v.1l.679.044c1.37.09 2.332.296 3.02.65.697.36.988.938.677 1.346-.501.656-2.572 1.136-5.859 1.358-.651.044-2.008.042-2.667-.003zm2.604-29.785c.2-1.347.253-3.729.118-5.247-.108-1.21-.047-1.62.274-1.836.178-.119.369-.092 1.005.14.276.1.552.188.614.195l.111.013-.007-.26c-.005-.184-.086-.57-.273-1.303-.186-.73-.272-1.138-.286-1.364-.02-.31-.017-.326.076-.419.136-.135.241-.12.523.072l.247.169v-.316c0-.6.11-.864.429-1.028.116-.06.188-.122.192-.168.046-.458.056-.497.153-.594.107-.107.14-.108.853-.033.317.033.469-.003.623-.148.17-.161.175-.31.015-.543-.166-.243-.14-.422.155-1.044.127-.269.24-.56.25-.65.018-.161.018-.161-.164-.254-.315-.16-.434-.348-.476-.75-.073-.69-.072-.689-.537-.689-.374 0-.54-.047-.866-.245-.442-.268-.558-.251-1.001.148-.298.268-.47.345-.686.305-.228-.043-.389-.248-.74-.944-.33-.654-.51-.901-.656-.901-.23 0-1.08.57-1.344.9-.133.167-.342.564-.51.968-.056.135-.207.23-.32.201-.137-.034-.298-.215-.598-.672-.33-.501-.545-.727-.69-.727-.104 0-.169.06-.422.388-.158.205-.305.281-.546.281-.21 0-.397-.074-.925-.37a.893.893 0 0 0-.282-.113c-.176 0-.325.268-.486.874-.123.466-.255.716-.417.793-.106.05-.148.052-.315.01-.183-.048-.195-.046-.258.03-.201.25-.298.789-.205 1.15.194.756.702 1.102 1.42.966.246-.047.25-.038.265.684.021.986.162 1.72.348 1.82.039.02.147.036.242.036.14 0 .193.02.279.106.121.122.128.16.182 1.048.053.857.214 1.382.498 1.622.151.126.237.112.417-.069.124-.124.18-.226.26-.474.128-.39.172-.476.3-.606.134-.133.34-.14.459-.014.196.209.2.62.025 2.004-.189 1.482-.249 2.138-.253 2.765-.003.54.037.841.124.894.02.013.093-.033.162-.102.343-.343.567-2.007.536-3.992l-.011-.782.104-.223c.177-.378.342-.502.57-.426.086.028.155.091.219.2.348.593.468 1.635.576 5.008.057 1.752.098 2.271.227 2.898.123.595.25 1.117.286 1.174.03.05.072-.115.137-.555z" transform="translate(-2.75 .83)"/></svg>