<?xml version="1.0" encoding="UTF-8" standalone="no"?>
<!-- Created with Inkscape (http://www.inkscape.org/) -->

<svg
   xmlns:dc="http://purl.org/dc/elements/1.1/"
   xmlns:cc="http://creativecommons.org/ns#"
   xmlns:rdf="http://www.w3.org/1999/02/22-rdf-syntax-ns#"
   xmlns:svg="http://www.w3.org/2000/svg"
   xmlns="http://www.w3.org/2000/svg"
   xmlns:sodipodi="http://sodipodi.sourceforge.net/DTD/sodipodi-0.dtd"
   xmlns:inkscape="http://www.inkscape.org/namespaces/inkscape"
   width="87.20372mm"
   height="83.613754mm"
   viewBox="0 0 87.20372 83.613754"
   version="1.1"
   id="svg8"
   inkscape:version="0.92.4 (5da689c313, 2019-01-14)"
   sodipodi:docname="heart.svg">
  <defs
     id="defs2" />
  <sodipodi:namedview
     id="base"
     pagecolor="#ffffff"
     bordercolor="#666666"
     borderopacity="1.0"
     inkscape:pageopacity="0.0"
     inkscape:pageshadow="2"
     inkscape:zoom="1.4"
     inkscape:cx="91.696987"
     inkscape:cy="130.41122"
     inkscape:document-units="mm"
     inkscape:current-layer="layer1"
     showgrid="false"
     fit-margin-top="0"
     fit-margin-left="0"
     fit-margin-right="0"
     fit-margin-bottom="0"
     inkscape:window-width="1920"
     inkscape:window-height="1017"
     inkscape:window-x="1072"
     inkscape:window-y="394"
     inkscape:window-maximized="1" />
  <metadata
     id="metadata5">
    <rdf:RDF>
      <cc:Work
         rdf:about="">
        <dc:format>image/svg+xml</dc:format>
        <dc:type
           rdf:resource="http://purl.org/dc/dcmitype/StillImage" />
        <dc:title />
      </cc:Work>
    </rdf:RDF>
  </metadata>
  <g
     inkscape:label="Layer 1"
     inkscape:groupmode="layer"
     id="layer1"
     transform="translate(-65.399849,-24.119579)">
    <path
       style="fill:#ffffff;fill-opacity:1;stroke-width:1"
       d="m 112.01638,107.07664 c -0.23644,-0.70234 -0.23915,-0.71686 -0.16938,-0.90404 0.0407,-0.10923 0.0388,-0.10976 -0.0389,-0.0104 -0.0753,0.0964 -0.0926,0.0781 -0.21833,-0.23016 -0.21945,-0.53821 -0.85114,-1.78309 -1.22391,-2.41199 -1.3463,-2.27132 -3.79696,-4.937019 -7.00719,-7.622059 -0.39558,-0.33086 -0.80824,-0.67045 -0.91701,-0.75464 -0.17906,-0.1386 -0.18995,-0.16305 -0.11508,-0.25827 0.0754,-0.0959 0.0739,-0.0983 -0.016,-0.0279 -0.0845,0.0662 -0.12362,0.0595 -0.27225,-0.0463 -0.0955,-0.068 -0.16759,-0.15455 -0.16026,-0.19237 0.007,-0.0378 -0.0204,-0.0618 -0.0616,-0.0534 -0.0601,0.0123 -1.49625,-1.09175 -2.543053,-1.95516 -0.110762,-0.0914 -0.389319,-0.319 -0.619015,-0.50586 -1.318413,-1.07261 -2.022113,-1.68855 -1.989471,-1.74137 0.02077,-0.0336 0.0094,-0.0428 -0.02597,-0.021 -0.08191,0.0506 -0.483866,-0.30167 -0.434799,-0.38107 0.02088,-0.0338 0.01022,-0.0438 -0.02408,-0.0226 -0.03386,0.0209 -0.199109,-0.0851 -0.36722,-0.23565 -0.168117,-0.15054 -0.578116,-0.51941 -0.911112,-0.81971 -0.332994,-0.30031 -0.696071,-0.62728 -0.806833,-0.7266 -1.962164,-1.75941 -2.531713,-2.28306 -2.531713,-2.32763 0,-0.0294 -0.03237,-0.047 -0.07192,-0.0391 -0.03956,0.008 -0.0689,-0.0275 -0.06521,-0.0786 0.0037,-0.0512 -0.02586,-0.09 -0.06566,-0.0863 -0.0398,0.004 -0.262912,-0.16375 -0.495794,-0.37209 -1.48333,-1.32701 -1.861897,-1.67783 -1.861897,-1.72539 0,-0.0294 -0.02589,-0.0554 -0.05754,-0.0576 -0.102196,-0.007 -0.263822,-0.18783 -0.235116,-0.26264 0.01683,-0.0439 -0.0037,-0.0605 -0.05194,-0.042 -0.08857,0.034 -0.801068,-0.5791 -0.862521,-0.74218 -0.02105,-0.0558 -0.05883,-0.0888 -0.08396,-0.0733 -0.06563,0.0406 -0.242458,-0.17039 -0.190678,-0.22747 0.0238,-0.0262 0.01305,-0.0304 -0.02391,-0.009 -0.03909,0.0224 -0.273869,-0.16027 -0.561333,-0.4367 -0.271772,-0.26135 -0.493983,-0.46501 -0.493805,-0.45259 0,0.0124 -0.187398,-0.16132 -0.416833,-0.38608 -0.229437,-0.22476 -0.466423,-0.4446 -0.526643,-0.48854 -0.06022,-0.0439 -0.09286,-0.1068 -0.07254,-0.13967 0.02031,-0.0329 0.0011,-0.0562 -0.0427,-0.0519 -0.21358,0.0212 -5.929868,-5.65868 -7.806428,-7.75664 -0.139949,-0.15646 -0.293291,-0.32663 -0.34076,-0.37816 -0.04747,-0.0515 -0.163986,-0.18284 -0.258925,-0.2918 -0.09494,-0.10897 -0.330876,-0.37897 -0.524304,-0.60001 -0.193427,-0.22103 -0.565783,-0.66081 -0.827458,-0.97727 -0.261673,-0.31647 -0.561516,-0.67896 -0.666315,-0.80555 -0.668968,-0.80804 -1.228439,-1.56439 -1.204566,-1.62846 0.01535,-0.0412 0.0051,-0.0608 -0.02283,-0.0435 -0.0835,0.0516 -1.301431,-1.61564 -2.385412,-3.26545 -1.041844,-1.58568 -2.380896,-3.95183 -2.305477,-4.07386 0.02477,-0.0401 0.0182,-0.0538 -0.01575,-0.0328 -0.06583,0.0407 -1.062082,-1.98392 -1.073951,-2.18249 -0.0042,-0.0695 -0.02332,-0.11653 -0.0426,-0.10463 -0.01929,0.0119 -0.07447,-0.0747 -0.122644,-0.19253 -0.845142,-2.0665 -1.041233,-2.63081 -1.453997,-4.18434 -1.57906,-5.94317 -1.137659,-12.39073 1.219071,-17.80704 0.383834,-0.88214 0.759429,-1.5925 1.334787,-2.52446 0.534452,-0.86571 1.686962,-2.40234 1.785484,-2.38056 0.03935,0.009 0.05595,-0.009 0.03689,-0.0403 -0.04538,-0.0734 0.7629,-0.95608 0.86613,-0.94582 0.04364,0.004 0.06323,-0.0182 0.04353,-0.0501 -0.04793,-0.0775 0.373472,-0.45914 0.452853,-0.41007 0.03687,0.0228 0.04574,0.0117 0.02173,-0.0272 -0.04093,-0.0662 0.388132,-0.49762 1.000022,-1.00544 0.236895,-0.1966 0.334008,-0.24651 0.389704,-0.20028 0.0562,0.0466 0.06595,0.0401 0.04023,-0.0269 -0.03846,-0.10022 0.188588,-0.28931 0.279741,-0.23297 0.03138,0.0194 0.04059,0.009 0.02048,-0.0239 -0.03556,-0.0575 0.189721,-0.22794 1.140802,-0.86281 0.588019,-0.39252 2.423386,-1.30168 2.517964,-1.24729 0.03921,0.0226 0.05191,0.0196 0.02822,-0.007 -0.08694,-0.0959 1.476678,-0.67907 2.762336,-1.03026 4.226445,-1.15451 9.318472,-0.86551 13.83641,0.78531 0.442573,0.16171 0.774704,0.31346 0.755188,0.34503 -0.02142,0.0346 0.01505,0.0405 0.09465,0.0153 0.09632,-0.0306 0.117994,-0.0225 0.08462,0.0315 -0.02815,0.0455 -0.02157,0.0582 0.01764,0.034 0.131182,-0.0811 1.606572,0.6 3.000417,1.38507 1.302291,0.7335 3.675294,2.38931 3.642334,2.54151 -0.009,0.0402 0.0123,0.0556 0.0468,0.0343 0.0722,-0.0446 0.29693,0.1377 0.25443,0.20646 -0.0156,0.0252 0.002,0.0646 0.039,0.0875 0.0445,0.0275 0.0519,0.0165 0.0217,-0.0323 -0.0306,-0.0496 -0.0194,-0.0643 0.0343,-0.0448 0.044,0.016 0.0728,0.0601 0.0641,0.0981 -0.009,0.038 0.01,0.0531 0.0416,0.0336 0.10916,-0.0675 1.97465,1.64281 3.05599,2.80171 1.2714,1.36259 3.27633,3.81537 3.27633,4.00817 0,0.03 0.0194,0.0632 0.0431,0.0737 0.0603,0.0268 0.44091,0.55065 0.87991,1.21112 0.20436,0.30746 0.3845,0.55843 0.40033,0.55772 0.0158,-6.5e-4 0.20641,-0.2321 0.42354,-0.5142 0.51664,-0.67126 0.96629,-1.18153 1.0253,-1.16354 0.0259,0.008 0.0441,-0.005 0.0404,-0.0288 -0.0183,-0.11593 0.0159,-0.13645 0.1075,-0.0646 0.0913,0.0716 0.0933,0.0695 0.0217,-0.0217 -0.0705,-0.0899 -0.0364,-0.14842 0.31647,-0.54357 0.98259,-1.10046 3.4566,-3.56267 3.49319,-3.47653 0.005,0.0121 0.12586,-0.0878 0.26827,-0.22192 0.42829,-0.40346 0.44887,-0.41796 0.52824,-0.37211 0.0418,0.0241 0.0567,0.0227 0.0333,-0.003 -0.0549,-0.0606 0.0676,-0.21068 0.13691,-0.16784 0.0288,0.0178 0.0487,0.0111 0.0442,-0.015 -0.0198,-0.11385 0.0111,-0.14311 0.0856,-0.0812 0.0636,0.0528 0.0785,0.0458 0.0719,-0.0337 -0.01,-0.11921 1.27612,-1.1257 1.38631,-1.08499 0.0392,0.0145 0.0651,-0.003 0.0575,-0.0383 -0.0146,-0.0687 1.00397,-0.7799 1.77001,-1.23591 0.8302,-0.49422 2.74434,-1.42978 3.65372,-1.78581 2.47566,-0.96923 4.54859,-1.48862 6.86539,-1.72017 1.15131,-0.11506 3.72565,-0.0825 4.75747,0.0602 1.85093,0.25593 3.36619,0.64486 4.77573,1.22581 0.5799,0.23901 2.1021,0.98816 2.33753,1.15042 0.091,0.0627 0.51496,0.33646 0.94219,0.60835 1.32556,0.8436 3.01118,2.34993 4.12701,3.68803 0.26031,0.31217 0.45683,0.59644 0.4367,0.63172 -0.0201,0.0353 -0.0153,0.0448 0.0108,0.0212 0.0948,-0.086 1.30303,1.69203 1.89615,2.79041 0.14952,0.27691 0.25472,0.50347 0.23377,0.50347 -0.021,0 0.004,0.0422 0.0556,0.0937 0.0516,0.0516 0.0796,0.13058 0.0623,0.17561 -0.0173,0.045 -0.01,0.0685 0.0166,0.0522 0.0485,-0.03 0.30891,0.4693 0.29407,0.56389 -0.004,0.0281 0.0164,0.0669 0.0463,0.0863 0.11428,0.0741 0.95351,2.17186 0.90214,2.25499 -0.018,0.0292 -0.01,0.053 0.0188,0.053 0.0645,0 0.40733,1.09561 0.67526,2.15771 1.02734,4.07236 1.09751,8.70246 0.19814,13.07346 -0.25994,1.26337 -1.24172,4.36949 -1.41105,4.46425 -0.0467,0.0261 -0.0717,0.0688 -0.0556,0.0949 0.0445,0.072 -0.0883,0.41023 -0.14689,0.37402 -0.0282,-0.0174 -0.0371,0.005 -0.0197,0.0505 0.0754,0.19648 -1.35168,3.15779 -2.33214,4.8394 -0.61536,1.05541 -1.29631,2.14107 -1.44839,2.3092 -0.0591,0.0653 -0.10745,0.13935 -0.10745,0.1645 0,0.0702 -1.43194,2.06218 -1.56456,2.1765 -0.0643,0.0554 -0.0958,0.10069 -0.0702,0.10069 0.0737,0 -0.0893,0.14355 -0.16624,0.14647 -0.038,0.002 -0.0615,0.037 -0.0523,0.0791 0.009,0.0421 -0.0271,0.12505 -0.0808,0.18439 -0.10958,0.12108 -0.22404,0.14676 -0.16027,0.0359 0.0228,-0.0396 0.0192,-0.0518 -0.008,-0.0271 -0.0776,0.0706 -0.0839,0.22065 -0.007,0.17341 0.0689,-0.0425 -0.18435,0.29672 -0.52435,0.7024 -0.10609,0.12658 -0.23655,0.23047 -0.28991,0.23085 -0.0632,6.6e-4 -0.0919,0.0406 -0.0825,0.11508 0.0263,0.20652 -2.21855,2.78241 -4.53643,5.20536 -1.0808,1.1298 -3.79044,3.79741 -5.28853,5.20649 -0.33228,0.31255 -0.73592,0.69316 -0.89697,0.84581 -0.16105,0.15265 -0.30993,0.26043 -0.33085,0.23951 -0.0209,-0.0209 -0.038,-0.006 -0.038,0.0325 0,0.0388 -0.0299,0.052 -0.0664,0.0295 -0.0386,-0.0238 -0.0509,-0.0159 -0.0294,0.0189 0.0204,0.0329 -0.33521,0.41239 -0.79016,0.84321 -0.74286,0.70344 -0.97506,0.89746 -0.86935,0.72642 0.0198,-0.0321 -0.002,-0.0426 -0.0505,-0.024 -0.0471,0.0181 -0.0737,0.0641 -0.059,0.10237 0.0214,0.0556 -1.89769,1.96599 -2.01845,2.00929 -0.0182,0.007 -0.82739,0.8062 -1.79827,1.77707 -0.97088,0.97087 -1.78631,1.75219 -1.81206,1.73628 -0.0257,-0.0159 -0.0397,-0.007 -0.031,0.02 0.0252,0.0781 -2.21302,2.43221 -2.27568,2.39348 -0.0311,-0.0192 -0.0391,-0.007 -0.0178,0.0278 0.05,0.081 -1.3966,1.69124 -1.47554,1.64245 -0.0332,-0.0205 -0.042,-0.009 -0.0201,0.0268 0.0219,0.0354 -0.30121,0.47834 -0.73044,1.00143 -1.33623,1.62841 -2.69065,3.47542 -3.6063,4.917879 -0.20428,0.32182 -0.38966,0.57384 -0.41195,0.56007 -0.0223,-0.0138 -0.0593,0.005 -0.0822,0.0423 -0.026,0.0421 -0.0167,0.052 0.0248,0.0263 0.1095,-0.0677 0.075,0.0553 -0.0464,0.16506 -0.062,0.0561 -0.10971,0.11842 -0.10595,0.13838 0.0166,0.0879 -0.0866,0.23357 -0.14142,0.1997 -0.0332,-0.0205 -0.0449,-0.0122 -0.0259,0.0185 0.019,0.0307 -0.0834,0.26127 -0.22748,0.51236 -0.91302,1.59093 -1.80651,3.42063 -2.35131,4.81501 -0.12054,0.3085 -0.22961,0.55046 -0.24238,0.53769 -0.0422,-0.0422 0.34354,-1.41367 0.38957,-1.38522 0.0248,0.0153 0.0334,-0.0175 0.0192,-0.0729 -0.0335,-0.13035 0.56224,-1.88552 1.03478,-3.0489 0.55817,-1.37419 1.19291,-2.7234 1.26134,-2.6811 0.0333,0.0206 0.0427,0.009 0.0212,-0.0255 -0.0522,-0.0844 0.14005,-0.47739 0.21183,-0.43303 0.0313,0.0193 0.039,0.006 0.0171,-0.0293 -0.0567,-0.0917 0.18387,-0.542179 0.26331,-0.493089 0.0395,0.0244 0.0481,0.0136 0.0222,-0.0282 -0.10553,-0.17074 2.5477,-4.58634 2.8182,-4.69013 0.0486,-0.0186 0.0807,-0.0712 0.0713,-0.11684 -0.0289,-0.14028 2.21229,-3.2409 2.32119,-3.21128 0.032,0.009 0.0436,-0.008 0.0259,-0.0364 -0.0178,-0.0287 0.0681,-0.17823 0.19084,-0.33228 0.93056,-1.1683 1.51189,-1.88739 1.7415,-2.15421 0.14784,-0.17179 0.48009,-0.56594 0.73834,-0.87588 0.25825,-0.30994 0.571,-0.67019 0.69499,-0.80053 0.12399,-0.13035 0.22544,-0.24793 0.22544,-0.26129 0,-0.0796 0.71572,-0.81124 0.76426,-0.78124 0.0334,0.0206 0.0417,0.008 0.0191,-0.0282 -0.0359,-0.0581 0.3519,-0.51543 1.40018,-1.6514 0.17567,-0.19037 0.53621,-0.58319 0.80119,-0.87294 0.26955,-0.29473 0.51412,-0.5144 0.55519,-0.49865 0.0404,0.0155 0.0903,8.7e-4 0.11097,-0.0326 0.0229,-0.037 0.003,-0.0474 -0.0517,-0.0265 -0.0491,0.0188 -0.0893,0.0164 -0.0893,-0.005 0,-0.065 1.28965,-1.43977 1.35216,-1.44142 0.0939,-0.002 0.2054,-0.0893 0.17596,-0.13692 -0.0413,-0.0669 0.14034,-0.29999 0.20341,-0.26102 0.0303,0.0187 0.0513,0.0127 0.0468,-0.0134 -0.0208,-0.11954 0.0133,-0.14164 0.10608,-0.0689 0.0898,0.0704 0.0927,0.0687 0.027,-0.0153 -0.0755,-0.0967 -0.0196,-0.16851 0.91124,-1.17157 0.11748,-0.12659 0.35494,-0.38551 0.52769,-0.57539 0.17275,-0.18988 0.60944,-0.6691 0.97042,-1.06493 0.36098,-0.39583 0.97976,-1.08198 1.37507,-1.52479 0.39532,-0.44279 0.74486,-0.83327 0.77678,-0.86772 0.32404,-0.34981 1.9648,-2.30474 2.57899,-3.07281 0.61653,-0.77103 0.83103,-0.99404 0.90945,-0.94558 0.0271,0.0168 0.034,-0.009 0.0153,-0.0582 -0.0221,-0.0575 0.27926,-0.50975 0.85492,-1.28323 1.77406,-2.38367 3.10279,-4.44585 4.27314,-6.63189 0.24567,-0.45887 0.47439,-0.8693 0.50827,-0.91205 0.0339,-0.0428 0.0669,-0.1138 0.0733,-0.15789 0.006,-0.0441 0.10567,-0.24808 0.22044,-0.45331 0.11477,-0.20522 0.20878,-0.38615 0.2089,-0.40205 0,-0.0253 0.34175,-0.79754 0.70081,-1.58458 0.065,-0.14241 0.12437,-0.28873 0.13202,-0.32516 0.008,-0.0364 0.14239,-0.41188 0.29944,-0.83432 0.52824,-1.42087 1.10042,-3.54799 1.33646,-4.96841 0.63831,-3.84123 0.16774,-8.41392 -1.24643,-12.11194 -0.34386,-0.89917 -0.90944,-2.11092 -1.25563,-2.69017 -0.18823,-0.31495 -0.20523,-0.37238 -0.13628,-0.46031 0.0702,-0.0895 0.0685,-0.0924 -0.0153,-0.027 -0.0811,0.0633 -0.11098,0.0448 -0.21643,-0.13388 -0.0673,-0.11406 -0.10511,-0.23528 -0.084,-0.26938 0.0221,-0.0358 0.0115,-0.0455 -0.025,-0.0229 -0.0373,0.023 -0.16256,-0.10928 -0.30482,-0.32196 -0.13284,-0.1986 -0.29231,-0.41742 -0.3544,-0.48628 -0.0652,-0.0723 -0.0944,-0.15509 -0.0692,-0.19589 0.0269,-0.0435 0.0199,-0.056 -0.0183,-0.0324 -0.0594,0.0367 -0.2815,-0.21732 -0.29466,-0.33702 -0.003,-0.0316 -0.0343,-0.0575 -0.0685,-0.0575 -0.091,0 -0.22786,-0.20775 -0.18568,-0.28178 0.0199,-0.0349 0.0143,-0.0436 -0.0123,-0.0194 -0.0626,0.0568 -1.24045,-1.11203 -1.1949,-1.18573 0.0189,-0.0306 0.008,-0.0396 -0.0233,-0.02 -0.0317,0.0196 -0.10695,-0.01 -0.16713,-0.065 -0.0602,-0.0554 -0.32301,-0.26276 -0.5841,-0.46091 -0.26108,-0.19815 -0.47469,-0.38931 -0.47469,-0.42481 0,-0.0355 -0.0156,-0.0489 -0.0347,-0.0299 -0.0191,0.0191 -0.33398,-0.14856 -0.6998,-0.3725 -1.18031,-0.72258 -2.53959,-1.27785 -3.83983,-1.56861 -1.89585,-0.42395 -4.25121,-0.43511 -6.38682,-0.0303 -2.18931,0.41503 -4.60593,1.36111 -6.44074,2.52148 -0.82535,0.52197 -1.9066,1.27561 -2.36029,1.64515 -0.1794,0.14612 -0.35107,0.25028 -0.3815,0.23148 -0.0304,-0.0188 -0.0482,1.1e-4 -0.0395,0.042 0.009,0.0419 -0.0166,0.0697 -0.0561,0.0618 -0.0396,-0.008 -0.0719,0.008 -0.0719,0.0345 0,0.0269 -0.30424,0.31788 -0.67608,0.64666 -0.7928,0.70097 -1.9933,1.88639 -2.63008,2.59704 -0.24737,0.27608 -0.47609,0.48569 -0.50825,0.46581 -0.0322,-0.0199 -0.0422,-0.01 -0.0223,0.0224 0.0199,0.0322 -0.0504,0.1587 -0.1562,0.28111 -0.17667,0.20437 -0.20123,0.21559 -0.30061,0.13734 -0.0992,-0.0781 -0.10177,-0.077 -0.0313,0.013 0.094,0.12004 0.10875,0.0952 -0.54607,0.92036 -1.08878,1.37201 -2.55496,3.47589 -3.66705,5.26199 -0.60227,0.96729 -0.73614,1.16243 -0.81942,1.19438 -0.0475,0.0182 -0.0717,0.0567 -0.0539,0.0856 0.029,0.0469 -1.4582,2.45324 -1.49002,2.41102 -0.007,-0.01 -0.22743,-0.43156 -0.48948,-0.9379 -0.26205,-0.50635 -0.54113,-1.03184 -0.6202,-1.16777 -0.0791,-0.13592 -0.12979,-0.2611 -0.11272,-0.27817 0.0171,-0.0171 -0.0108,-0.0799 -0.062,-0.13964 -0.0905,-0.10575 -0.17917,-0.26906 -1.09114,-2.01061 -0.95464,-1.82304 -1.94501,-3.50543 -2.89599,-4.91957 -0.47363,-0.70431 -1.7455,-2.41182 -2.04825,-2.74982 -0.10745,-0.11995 -0.17753,-0.24694 -0.15574,-0.2822 0.0225,-0.0364 0.0137,-0.0481 -0.0203,-0.027 -0.033,0.0204 -0.18381,-0.11156 -0.33518,-0.29319 -0.15137,-0.18163 -0.39038,-0.45076 -0.53112,-0.59805 -0.16272,-0.17029 -0.23972,-0.294 -0.21144,-0.33974 0.027,-0.0437 0.021,-0.0574 -0.0155,-0.0349 -0.0329,0.0204 -0.0924,-0.002 -0.13211,-0.05 -0.0609,-0.0734 -0.0552,-0.0814 0.0366,-0.0515 0.0838,0.0273 0.0902,0.0222 0.0277,-0.0221 -0.0446,-0.0317 -0.1158,-0.0443 -0.15823,-0.028 -0.0721,0.0277 -0.10598,-0.0512 -0.0792,-0.1841 0.006,-0.0316 -0.007,-0.0392 -0.0291,-0.0168 -0.0224,0.0224 -0.40649,-0.30128 -0.853498,-0.71932 -0.922183,-0.86243 -1.28481,-1.17585 -2.021054,-1.74679 -0.541742,-0.42012 -1.896103,-1.34054 -2.315942,-1.57393 -0.134496,-0.0748 -0.24454,-0.15274 -0.24454,-0.17329 0,-0.0206 -0.03237,-0.0381 -0.07192,-0.039 -0.101822,-0.002 -0.912395,-0.45252 -0.877515,-0.4874 0.01585,-0.0159 -0.0036,-0.0293 -0.04311,-0.0298 -0.03956,-4.4e-4 -0.388993,-0.14656 -0.776528,-0.32451 -3.383571,-1.55375 -7.047941,-2.06603 -10.550923,-1.47502 -2.572319,0.43399 -4.898864,1.5379 -6.60206,3.13258 -0.267044,0.25003 -1.018055,1.01028 -1.187792,1.2024 -0.459854,0.5205 -1.582322,2.08651 -1.582322,2.20757 0,0.0249 -0.05985,0.13547 -0.133009,0.24566 -0.142945,0.21533 -0.61628,1.25245 -0.892379,1.9553 -0.618326,1.57403 -1.074952,3.42383 -1.306725,5.29358 -0.126359,1.01935 -0.173758,3.41192 -0.08969,4.52699 0.07537,0.99966 0.306539,2.72735 0.437472,3.26953 0.04585,0.18988 0.134753,0.58046 0.197549,0.86795 0.211579,0.9686 0.855216,2.78834 1.551602,4.38681 0.22508,0.51663 0.391962,0.96728 0.370854,1.00144 -0.02112,0.0342 -0.01226,0.046 0.01964,0.0262 0.06529,-0.0403 0.196464,0.20757 0.169037,0.31947 -0.0098,0.0399 -0.0059,0.0501 0.0087,0.0225 0.01455,-0.0276 0.08864,0.0726 0.16464,0.2225 0.114933,0.22673 0.125841,0.28843 0.06481,0.36657 -0.06368,0.0815 -0.06132,0.0846 0.01785,0.0228 0.07856,-0.0613 0.110198,-0.0293 0.22776,0.23015 0.07509,0.1657 0.184554,0.3723 0.243254,0.45911 0.0587,0.0868 0.08814,0.18791 0.06543,0.22467 -0.02292,0.0371 -0.0164,0.0514 0.01468,0.0322 0.03079,-0.019 0.155995,0.15175 0.27824,0.3795 0.646405,1.20429 1.747736,2.95153 2.872331,4.55689 0.769746,1.09882 1.018373,1.43603 2.269651,3.07834 0.664993,0.87281 2.08568,2.64541 2.421064,3.02079 0.05655,0.0633 0.108168,0.14097 0.114709,0.17262 0.0065,0.0316 0.04944,0.0786 0.09533,0.10423 0.04589,0.0257 0.06594,0.075 0.04456,0.10958 -0.02138,0.0346 -0.01298,0.0469 0.01864,0.0274 0.03163,-0.0195 0.339871,0.29216 0.684972,0.69268 0.345107,0.40052 0.743984,0.85713 0.886392,1.01469 0.14241,0.15756 0.255377,0.32059 0.251039,0.36228 -0.0043,0.0417 0.01226,0.0634 0.03689,0.0481 0.02463,-0.0152 0.142047,0.0822 0.260927,0.21639 0.118882,0.13423 0.34875,0.38647 0.510813,0.56053 1.92191,2.06408 2.394615,2.59763 2.357922,2.66141 -0.02268,0.0394 -0.02075,0.0532 0.0043,0.0306 0.02506,-0.0226 0.09561,-0.0143 0.156782,0.0184 0.08954,0.0479 0.0977,0.0758 0.04184,0.14314 -0.05561,0.067 -0.05315,0.0774 0.01233,0.0523 0.05111,-0.0196 0.265139,0.15772 0.571337,0.47338 2.707948,2.79163 3.45275,3.58714 3.415275,3.64778 -0.02468,0.0399 -0.01755,0.053 0.0172,0.0315 0.06213,-0.0384 1.085467,0.96759 1.207404,1.18693 0.0387,0.0696 0.07129,0.11079 0.07241,0.0915 0.0011,-0.0193 0.254487,0.22522 0.56304,0.54339 0.71652,0.73884 0.704853,0.7256 0.704853,0.80003 0,0.0347 0.01416,0.0489 0.03148,0.0315 0.02794,-0.0279 1.140995,1.11486 2.642786,2.71341 0.767125,0.81655 2.327685,2.3636 3.627532,3.59612 0.63222,0.59948 1.14301,1.11086 1.1351,1.1364 -0.008,0.0255 0.018,0.04 0.0575,0.032 0.0396,-0.008 0.0648,0.0199 0.0561,0.0618 -0.009,0.0419 0.007,0.0619 0.0355,0.0445 0.0679,-0.042 0.25192,0.16392 0.19624,0.2196 -0.0238,0.0238 -0.0129,0.0346 0.0242,0.0241 0.0995,-0.0283 2.27506,2.08118 2.24018,2.17206 -0.0184,0.048 0.002,0.064 0.0543,0.0437 0.0741,-0.0284 0.11045,0.0391 0.0902,0.16732 -0.004,0.0237 0.0126,0.0401 0.0363,0.0363 0.13004,-0.0205 0.1958,0.016 0.16646,0.0924 -0.019,0.0495 -0.003,0.0798 0.037,0.0719 0.0384,-0.008 0.0627,0.0206 0.054,0.0625 -0.009,0.0437 0.0118,0.0592 0.0489,0.0362 0.0374,-0.0231 0.19803,0.10239 0.38104,0.29781 0.95929,1.02431 1.39837,1.50519 1.39837,1.53149 0,0.0162 0.0971,0.1298 0.21577,0.25239 0.5798,0.59891 1.80177,2.1822 2.52539,3.272089 1.19576,1.80104 2.05298,3.65805 2.58547,5.60092 0.19052,0.69517 0.38805,1.62107 0.35326,1.65586 -0.01,0.01 -0.11958,-0.28576 -0.24435,-0.65639 z m 7.12524,-12.216159 c -0.0471,-0.0471 -0.0617,-0.0358 -0.0551,0.0427 0.005,0.0614 -0.0234,0.10011 -0.0672,0.091 -0.0436,-0.009 -0.0591,0.0118 -0.0363,0.0487 0.0278,0.045 0.0675,0.0368 0.13128,-0.0269 0.0672,-0.0672 0.0744,-0.10841 0.0273,-0.1555 z m -17.04881,-2.15818 c 0,-0.0476 -0.11172,-0.0745 -0.13734,-0.0331 -0.0166,0.0269 0.007,0.0489 0.0536,0.0489 0.0461,0 0.0838,-0.007 0.0838,-0.0158 z m 28.52013,-8.11547 c 0,-0.0566 -0.0194,-0.0597 -0.0767,-0.0121 -0.0422,0.035 -0.0767,0.0691 -0.0767,0.0758 0,0.007 0.0345,0.0121 0.0767,0.0121 0.0422,0 0.0767,-0.0341 0.0767,-0.0758 z m -37.668816,-1.07752 c 0,-0.0119 -0.03653,-0.052 -0.08119,-0.0891 -0.06217,-0.0516 -0.0912,-0.0512 -0.123969,0.002 -0.02615,0.0423 -0.01851,0.0542 0.01968,0.0306 0.03435,-0.0212 0.07872,-0.0123 0.09859,0.0199 0.03557,0.0576 0.08689,0.0793 0.08689,0.0367 z m 35.566396,-0.079 c 0.0716,-0.0913 0.0695,-0.0933 -0.0217,-0.0217 -0.0958,0.0752 -0.12632,0.12242 -0.079,0.12242 0.0119,0 0.0572,-0.0453 0.10069,-0.10069 z m -35.417755,-0.0575 c -0.01318,-0.0132 -0.03636,-0.0154 -0.0515,-0.005 -0.01514,0.0105 -0.0885,-0.0326 -0.163024,-0.0959 l -0.135506,-0.11507 0.100935,0.11987 c 0.05551,0.0659 0.139659,0.11987 0.187002,0.11987 0.04734,0 0.07528,-0.0108 0.06209,-0.024 z m -5.039448,-0.84166 c 0,-0.0119 -0.04531,-0.0573 -0.100693,-0.10069 -0.09126,-0.0716 -0.09329,-0.0695 -0.02172,0.0217 0.07517,0.0958 0.12242,0.12633 0.12242,0.079 z m 42.381523,-0.89807 c 0,-0.0676 -0.0211,-0.0931 -0.0517,-0.0626 -0.0284,0.0284 -0.0343,0.0799 -0.013,0.11425 0.0541,0.0875 0.0648,0.079 0.0648,-0.0517 z M 87.8673,77.954561 c -0.03801,-0.0501 -0.07505,-0.1005 -0.08231,-0.11199 -0.0073,-0.0115 -0.0094,0.0295 -0.0048,0.0911 0.0047,0.0616 0.04168,0.112 0.08231,0.112 0.05813,0 0.05914,-0.0194 0.0048,-0.0911 z m -10.478772,-6.03679 c -0.09398,-0.10385 -0.29123,-0.1519 -0.232328,-0.0566 0.01662,0.0269 0.05138,0.0358 0.07726,0.0198 0.02587,-0.016 0.07904,0.009 0.118147,0.0566 0.03911,0.0471 0.08489,0.0857 0.101746,0.0857 0.01685,0 -0.01231,-0.0475 -0.06482,-0.10549 z m 0.100471,-0.11508 c 0.01629,-0.0264 -0.0069,-0.048 -0.05161,-0.048 -0.04469,0 -0.06791,0.0216 -0.05161,0.048 0.01629,0.0264 0.03952,0.048 0.05161,0.048 0.01209,0 0.03531,-0.0216 0.05161,-0.048 z m 24.718891,-32.74923 c -0.0339,-0.0633 -0.0745,-0.11508 -0.0904,-0.11508 -0.0158,0 -0.001,0.0518 0.0328,0.11508 0.0339,0.0633 0.0745,0.11508 0.0904,0.11508 0.0158,0 0.001,-0.0518 -0.0328,-0.11508 z m 42.30481,-0.46231 c -0.0532,-0.0622 -0.0985,-0.11308 -0.10048,-0.11308 -0.002,0 -0.004,0.0499 -0.004,0.11085 0,0.061 0.0203,0.0983 0.0452,0.0829 0.0249,-0.0154 0.0452,10e-4 0.0452,0.0364 0,0.0354 0.0249,0.049 0.0553,0.0302 0.0318,-0.0197 0.0142,-0.0822 -0.0416,-0.14725 z m -43.85836,-1.4139 c 0,-0.0476 -0.11172,-0.0745 -0.13734,-0.0331 -0.0166,0.0269 0.008,0.0489 0.0536,0.0489 0.0461,0 0.0838,-0.007 0.0838,-0.0158 z m 43.95973,-6.37723 c 0,-0.014 -0.0259,-0.0414 -0.0575,-0.0609 -0.0316,-0.0196 -0.0575,-0.008 -0.0575,0.0254 0,0.0335 0.0259,0.0609 0.0575,0.0609 0.0317,0 0.0575,-0.0114 0.0575,-0.0254 z m -70.919169,-2.61744 c 0.0182,-0.0295 0.01111,-0.0672 -0.01579,-0.0838 -0.02689,-0.0166 -0.04889,0.007 -0.04889,0.0536 0,0.097 0.01814,0.1055 0.06467,0.0302 z m 4.269926,-2.32882 c 0,-0.0461 -0.03503,-0.0674 -0.08154,-0.0495 -0.0671,0.0258 -0.06795,0.0399 -0.0048,0.0799 0.04221,0.0268 0.07891,0.0491 0.08154,0.0495 0.0026,4.4e-4 0.0048,-0.0355 0.0048,-0.0799 z m 52.091903,55.66342 c 0,-0.0317 0.0274,-0.0575 0.0609,-0.0575 0.0335,0 0.0449,0.0259 0.0254,0.0575 -0.0195,0.0316 -0.047,0.0575 -0.0609,0.0575 -0.014,0 -0.0254,-0.0259 -0.0254,-0.0575 z"
       id="path826"
       inkscape:connector-curvature="0" />
  </g>
</svg>
