<svg xmlns="http://www.w3.org/2000/svg" width="329.589" height="316.02" viewBox="0 0 87.204 83.614"><path style="fill:#fff;fill-opacity:1;stroke-width:1" d="M112.016 107.077c-.236-.703-.239-.717-.169-.904.04-.11.039-.11-.039-.01-.075.096-.093.077-.218-.231-.22-.538-.851-1.783-1.224-2.412-1.346-2.271-3.797-4.937-7.007-7.622a53.94 53.94 0 0 0-.917-.755c-.18-.138-.19-.163-.115-.258.075-.096.073-.098-.016-.028-.085.066-.124.06-.273-.046-.095-.068-.167-.155-.16-.192.007-.038-.02-.062-.062-.054-.06.012-1.496-1.092-2.543-1.955l-.619-.506c-1.318-1.073-2.022-1.688-1.99-1.741.022-.034.01-.043-.025-.021-.082.05-.484-.302-.435-.381.021-.034.01-.044-.024-.023-.034.021-.199-.085-.367-.236a464.98 464.98 0 0 1-1.718-1.546c-1.962-1.76-2.532-2.283-2.532-2.328 0-.029-.032-.047-.072-.039-.04.008-.069-.027-.065-.078.004-.051-.026-.09-.066-.087-.04.004-.262-.163-.495-.372-1.484-1.327-1.862-1.677-1.862-1.725 0-.03-.026-.055-.058-.058-.102-.007-.264-.187-.235-.262.017-.044-.004-.06-.052-.042-.088.034-.8-.58-.862-.742-.021-.056-.06-.09-.084-.074-.066.04-.243-.17-.191-.227.024-.026.013-.03-.024-.01-.039.023-.274-.16-.561-.436-.272-.261-.494-.465-.494-.452 0 .012-.187-.162-.417-.387a9.188 9.188 0 0 0-.527-.488c-.06-.044-.092-.107-.072-.14.02-.033.001-.056-.043-.052-.213.022-5.93-5.658-7.806-7.756a53.72 53.72 0 0 0-.341-.378 18.887 18.887 0 0 1-.259-.292 56.788 56.788 0 0 1-1.352-1.577l-.666-.806c-.669-.808-1.228-1.565-1.205-1.629.016-.04.006-.06-.022-.043-.084.052-1.302-1.616-2.386-3.266-1.042-1.585-2.38-3.951-2.305-4.073.024-.04.018-.054-.016-.033-.066.04-1.062-1.984-1.074-2.183-.004-.07-.023-.116-.043-.104-.019.012-.074-.075-.122-.193-.845-2.066-1.041-2.63-1.454-4.184-1.58-5.943-1.138-12.39 1.219-17.807.384-.882.76-1.593 1.335-2.525.534-.865 1.687-2.402 1.785-2.38.04.009.056-.01.037-.04-.045-.074.763-.957.866-.946.044.004.063-.019.044-.05-.048-.078.373-.46.453-.41.036.022.045.011.021-.028-.04-.066.388-.497 1-1.005.237-.197.334-.247.39-.2.056.046.066.04.04-.027-.038-.1.189-.29.28-.233.031.02.04.009.02-.024-.035-.058.19-.228 1.141-.863.588-.393 2.424-1.302 2.518-1.247.04.022.052.02.028-.007-.087-.096 1.477-.68 2.763-1.03 4.226-1.155 9.318-.866 13.836.785.443.161.775.313.755.345-.021.034.015.04.095.015.096-.03.118-.022.085.032-.029.045-.022.058.017.034.131-.082 1.607.6 3 1.385 1.303.733 3.676 2.389 3.643 2.541-.009.04.012.056.047.034.072-.044.297.138.254.207-.015.025.002.065.04.087.044.028.051.017.021-.032-.03-.05-.02-.064.034-.045.044.016.073.06.064.098-.009.038.01.054.042.034.11-.067 1.975 1.643 3.056 2.802 1.271 1.362 3.276 3.815 3.276 4.008 0 .03.02.063.043.074.06.026.441.55.88 1.21.205.308.385.56.4.558.016 0 .207-.232.424-.514.517-.671.966-1.181 1.025-1.163.026.008.045-.005.04-.03-.017-.115.017-.136.108-.064.092.072.094.07.022-.021-.07-.09-.036-.149.317-.544.982-1.1 3.456-3.563 3.493-3.477.005.013.126-.087.268-.221.428-.404.449-.418.528-.373.042.025.057.023.034-.003-.055-.06.067-.21.136-.167.03.017.05.01.045-.015-.02-.114.01-.143.085-.082.064.053.079.046.072-.033-.01-.12 1.276-1.126 1.386-1.085.04.014.066-.003.058-.039-.015-.068 1.004-.78 1.77-1.235.83-.495 2.744-1.43 3.654-1.786 2.475-.97 4.548-1.489 6.865-1.72 1.151-.116 3.726-.083 4.758.06 1.85.256 3.366.645 4.775 1.226.58.239 2.102.988 2.338 1.15.09.063.515.336.942.608 1.326.844 3.011 2.35 4.127 3.688.26.313.457.597.437.632-.02.035-.016.045.01.021.095-.086 1.304 1.692 1.897 2.79.15.278.254.504.233.504-.02 0 .004.042.056.094.052.051.08.13.062.175-.017.045-.01.069.017.053.048-.03.309.469.294.564-.004.028.016.066.046.086.115.074.954 2.172.902 2.255-.018.029-.01.053.02.053.064 0 .407 1.095.674 2.158 1.028 4.072 1.098 8.702.199 13.073-.26 1.263-1.242 4.37-1.411 4.464-.047.026-.072.07-.056.095.044.072-.088.41-.147.374-.028-.017-.037.005-.02.05.076.197-1.351 3.158-2.332 4.84-.615 1.055-1.296 2.141-1.448 2.31-.06.065-.108.139-.108.164 0 .07-1.432 2.062-1.564 2.176-.064.056-.096.101-.07.101.073 0-.09.144-.167.146-.038.002-.061.037-.052.08.01.042-.027.125-.08.184-.11.121-.225.147-.161.036.023-.04.02-.052-.008-.027-.078.07-.084.22-.007.173.069-.042-.184.297-.524.703-.106.126-.237.23-.29.23-.063.001-.092.041-.083.115.027.207-2.218 2.783-4.536 5.206-1.081 1.13-3.79 3.797-5.289 5.206l-.897.846c-.16.153-.31.26-.33.24-.021-.021-.039-.006-.039.032 0 .039-.03.052-.066.03-.039-.024-.05-.016-.03.019.021.032-.335.412-.79.843-.742.703-.975.897-.869.726.02-.032-.002-.042-.05-.024-.047.018-.074.064-.06.103.022.055-1.897 1.966-2.018 2.009-.018.007-.827.806-1.798 1.777-.97.97-1.786 1.752-1.812 1.736-.026-.016-.04-.007-.031.02.025.078-2.213 2.432-2.276 2.394-.03-.02-.039-.007-.018.027.05.081-1.396 1.692-1.475 1.643-.033-.02-.042-.01-.02.027.022.035-.301.478-.73 1.001-1.337 1.629-2.691 3.476-3.607 4.918-.204.322-.39.574-.412.56-.022-.014-.06.005-.082.042-.026.042-.017.052.025.027.11-.068.075.055-.047.165-.062.056-.11.118-.106.138.017.088-.086.234-.141.2-.033-.02-.045-.012-.026.018.019.031-.083.262-.227.513-.913 1.59-1.807 3.42-2.352 4.815-.12.308-.23.55-.242.537-.042-.042.343-1.413.39-1.385.024.015.033-.017.019-.073-.034-.13.562-1.885 1.034-3.049.559-1.374 1.193-2.723 1.262-2.68.033.02.042.008.02-.026-.051-.085.141-.478.213-.433.031.019.039.006.017-.03-.057-.091.184-.542.263-.493.04.025.048.014.022-.028-.105-.17 2.548-4.586 2.819-4.69.048-.019.08-.071.07-.117-.028-.14 2.213-3.24 2.322-3.211.032.009.044-.008.026-.037-.018-.028.068-.178.19-.332.931-1.168 1.513-1.887 1.742-2.154.148-.172.48-.566.739-.876.258-.31.57-.67.695-.8a1.97 1.97 0 0 0 .225-.262c0-.08.716-.81.764-.78.034.02.042.007.02-.03-.036-.057.351-.515 1.4-1.65l.8-.873c.27-.295.515-.515.556-.5.04.016.09.002.111-.032.023-.037.003-.047-.052-.026-.049.019-.089.016-.089-.005 0-.065 1.29-1.44 1.352-1.442.094-.002.206-.089.176-.137-.041-.066.14-.3.204-.26.03.018.05.012.046-.014-.02-.12.014-.142.106-.069.09.07.093.069.027-.015-.075-.097-.02-.169.912-1.172.117-.126.355-.385.527-.575l.97-1.065c.362-.396.98-1.082 1.376-1.525.395-.443.745-.833.777-.868.324-.35 1.964-2.304 2.579-3.072.616-.771.83-.994.909-.946.027.017.034-.009.015-.058-.022-.058.28-.51.855-1.283 1.774-2.384 3.103-4.446 4.273-6.632.246-.46.475-.87.509-.912a.4.4 0 0 0 .073-.158c.006-.044.106-.248.22-.454.115-.205.21-.386.21-.402 0-.025.341-.797.7-1.584.065-.143.124-.289.132-.325.008-.037.143-.412.3-.835.528-1.42 1.1-3.548 1.336-4.968.638-3.841.168-8.414-1.246-12.112-.344-.9-.91-2.11-1.256-2.69-.188-.315-.205-.373-.136-.46.07-.09.068-.093-.016-.027-.08.063-.11.044-.216-.134-.067-.114-.105-.236-.084-.27.022-.036.011-.045-.025-.023-.037.023-.163-.109-.305-.322a6.068 6.068 0 0 0-.354-.486c-.065-.072-.095-.155-.07-.196.027-.043.02-.056-.018-.032-.06.037-.281-.217-.294-.337-.003-.032-.035-.058-.069-.058-.09 0-.228-.207-.186-.281.02-.035.015-.044-.012-.02-.063.057-1.24-1.112-1.195-1.186.02-.03.008-.04-.023-.02-.032.02-.107-.01-.167-.065a13.99 13.99 0 0 0-.584-.46c-.261-.199-.475-.39-.475-.425 0-.036-.016-.05-.035-.03-.019.019-.334-.149-.7-.373a12.967 12.967 0 0 0-3.84-1.568c-1.895-.424-4.25-.435-6.386-.03-2.19.414-4.606 1.36-6.44 2.52-.826.523-1.908 1.276-2.361 1.646-.18.146-.351.25-.382.231-.03-.018-.048 0-.04.042.01.042-.016.07-.055.062-.04-.008-.072.008-.072.035 0 .027-.304.318-.676.646a39.09 39.09 0 0 0-2.63 2.597c-.248.277-.476.486-.509.466-.032-.02-.042-.01-.022.023.02.032-.05.158-.156.28-.177.205-.201.216-.3.138-.1-.078-.103-.077-.032.013.094.12.109.095-.546.92-1.089 1.373-2.555 3.476-3.667 5.262-.602.968-.736 1.163-.82 1.195-.047.018-.071.057-.053.085.029.047-1.459 2.454-1.49 2.411-.007-.01-.228-.431-.49-.937a45.362 45.362 0 0 0-.62-1.168c-.08-.136-.13-.261-.113-.278.017-.017-.01-.08-.062-.14-.09-.106-.18-.27-1.091-2.01-.955-1.824-1.945-3.506-2.896-4.92-.474-.704-1.746-2.412-2.048-2.75-.108-.12-.178-.247-.156-.282.022-.037.014-.048-.02-.027-.033.02-.184-.112-.335-.293-.152-.182-.39-.451-.532-.598-.162-.17-.24-.294-.211-.34.027-.044.02-.058-.016-.035-.032.02-.092-.002-.132-.05-.06-.073-.055-.081.037-.052.084.028.09.023.028-.022-.045-.031-.116-.044-.159-.028-.072.028-.106-.05-.079-.184.006-.031-.007-.039-.029-.017-.022.023-.406-.3-.853-.719-.923-.862-1.285-1.176-2.021-1.747-.542-.42-1.897-1.34-2.316-1.574-.135-.074-.245-.152-.245-.173 0-.02-.032-.038-.072-.039-.102-.002-.912-.452-.877-.487.015-.016-.004-.03-.043-.03-.04 0-.39-.147-.777-.325-3.384-1.553-7.048-2.066-10.55-1.475-2.573.434-4.9 1.538-6.603 3.133-.267.25-1.018 1.01-1.188 1.202-.46.52-1.582 2.087-1.582 2.208 0 .025-.06.135-.133.246-.143.215-.616 1.252-.892 1.955-.619 1.574-1.075 3.424-1.307 5.293-.127 1.02-.174 3.412-.09 4.527.075 1 .307 2.728.438 3.27.045.19.134.58.197.868.212.969.855 2.788 1.552 4.387.225.516.392.967.37 1.001-.02.034-.012.046.02.026.066-.04.197.208.17.32-.01.04-.007.05.008.022.015-.027.089.073.165.223.115.227.125.288.064.366-.063.082-.06.085.018.023.079-.061.11-.03.228.23.075.166.185.373.243.46.059.086.088.187.066.224-.023.037-.017.052.014.032.031-.019.156.152.279.38.646 1.204 1.747 2.951 2.872 4.557.77 1.099 1.018 1.436 2.27 3.078.665.873 2.085 2.645 2.42 3.02a.575.575 0 0 1 .115.173c.007.032.05.08.096.105.046.025.066.075.044.11-.021.034-.013.046.019.027.032-.02.34.292.685.692.345.4.744.858.886 1.015.143.158.256.32.251.362-.004.042.013.064.037.048.025-.015.142.083.261.217.119.134.349.386.51.56 1.923 2.064 2.396 2.598 2.359 2.662-.023.04-.02.053.004.03.025-.022.096-.014.157.019.09.048.098.076.042.143-.056.067-.053.077.012.052.051-.02.265.158.571.474 2.708 2.791 3.453 3.587 3.416 3.647-.025.04-.018.053.017.032.062-.039 1.085.967 1.207 1.187.039.07.072.11.073.091 0-.019.254.226.563.544.716.739.705.725.705.8 0 .034.014.049.031.031.028-.028 1.141 1.115 2.643 2.714.767.816 2.328 2.363 3.627 3.596.633.6 1.143 1.11 1.136 1.136-.008.026.018.04.057.032.04-.008.065.02.056.062-.009.042.007.062.036.044.068-.042.252.164.196.22-.024.024-.013.035.024.024.1-.028 2.275 2.081 2.24 2.172-.018.048.002.064.055.044.074-.028.11.039.09.167-.004.024.012.04.036.037.13-.021.196.016.167.092-.02.05-.003.08.037.072.038-.008.062.02.054.062-.01.044.011.06.048.037.038-.024.198.102.381.297.96 1.025 1.399 1.506 1.399 1.532 0 .016.097.13.216.252.58.6 1.801 2.182 2.525 3.272 1.196 1.801 2.053 3.658 2.585 5.601.191.695.388 1.621.354 1.656-.01.01-.12-.286-.245-.656zm7.126-12.217c-.047-.047-.062-.035-.055.043.005.062-.024.1-.068.091-.043-.009-.059.012-.036.049.028.045.068.037.131-.027.068-.067.075-.108.028-.156zm-17.05-2.158c0-.047-.11-.074-.137-.033-.016.027.007.05.054.05.046 0 .084-.008.084-.017zm28.52-8.115c0-.057-.018-.06-.076-.012a.36.36 0 0 0-.076.076c0 .007.034.012.076.012a.076.076 0 0 0 .077-.076zm-37.668-1.078c0-.012-.036-.052-.081-.089-.062-.051-.091-.051-.124.002-.026.043-.019.054.02.03.034-.02.078-.011.098.02.036.058.087.08.087.037zm35.567-.079c.071-.091.069-.093-.022-.021-.096.075-.127.122-.08.122.013 0 .058-.045.102-.1zm-35.418-.057a.042.042 0 0 0-.052-.005c-.015.01-.088-.033-.163-.096l-.135-.115.1.12c.056.066.14.12.188.12.047 0 .075-.011.062-.024zm-5.04-.842c0-.012-.045-.057-.1-.1-.092-.072-.094-.07-.022.021.075.096.122.126.122.08zm42.382-.898c0-.068-.021-.093-.052-.063a.097.097 0 0 0-.013.115c.054.087.065.079.065-.052zm-42.568-3.678a3.13 3.13 0 0 1-.082-.112c-.007-.012-.01.03-.005.09.005.062.042.113.082.113.059 0 .06-.02.005-.091zM77.39 71.918c-.094-.104-.292-.152-.233-.057a.057.057 0 0 0 .077.02c.026-.016.08.009.119.057.039.047.084.085.101.085s-.012-.047-.064-.105zm.1-.115c.016-.027-.007-.048-.052-.048-.044 0-.068.021-.051.048.016.026.04.048.051.048.012 0 .036-.022.052-.048zm24.719-32.75c-.034-.063-.075-.115-.09-.115-.016 0-.002.052.032.115.034.064.075.116.09.116.016 0 .002-.052-.032-.116zm42.305-.462a2.12 2.12 0 0 0-.1-.113.813.813 0 0 0-.005.11c0 .062.02.1.045.084.025-.016.046 0 .046.036s.025.05.055.03c.032-.02.014-.082-.042-.147zm-43.859-1.414c0-.047-.111-.074-.137-.033-.017.027.008.05.054.05s.083-.008.083-.017zm43.96-6.377c0-.014-.026-.041-.057-.06-.032-.02-.058-.009-.058.025 0 .033.026.06.058.06.031 0 .057-.011.057-.025zm-70.92-2.617c.02-.03.012-.068-.015-.084-.027-.017-.049.007-.049.053 0 .097.018.106.065.03zm4.27-2.33c0-.045-.034-.067-.08-.049-.068.026-.069.04-.006.08.043.027.08.05.082.05a.335.335 0 0 0 .005-.08zm52.093 55.664c0-.032.027-.057.06-.057.034 0 .046.026.026.057-.02.032-.047.058-.06.058-.015 0-.026-.026-.026-.058z" transform="translate(-65.4 -24.12)"/></svg>