<?xml version="1.0" encoding="UTF-8" standalone="no"?>
<!-- Created with Inkscape (http://www.inkscape.org/) -->

<svg
   xmlns:dc="http://purl.org/dc/elements/1.1/"
   xmlns:cc="http://creativecommons.org/ns#"
   xmlns:rdf="http://www.w3.org/1999/02/22-rdf-syntax-ns#"
   xmlns:svg="http://www.w3.org/2000/svg"
   xmlns="http://www.w3.org/2000/svg"
   xmlns:xlink="http://www.w3.org/1999/xlink"
   xmlns:sodipodi="http://sodipodi.sourceforge.net/DTD/sodipodi-0.dtd"
   xmlns:inkscape="http://www.inkscape.org/namespaces/inkscape"
   width="148.67064mm"
   height="255.58835mm"
   viewBox="0 0 148.67064 255.58835"
   version="1.1"
   id="svg1398"
   inkscape:version="0.92.4 (5da689c313, 2019-01-14)"
   sodipodi:docname="quill.svg">
  <defs
     id="defs1392">
    <linearGradient
       inkscape:collect="always"
       id="linearGradient874">
      <stop
         style="stop-color:#000000;stop-opacity:1"
         offset="0"
         id="stop870" />
      <stop
         style="stop-color:#005000;stop-opacity:1"
         offset="1"
         id="stop872" />
    </linearGradient>
    <linearGradient
       inkscape:collect="always"
       xlink:href="#linearGradient874"
       id="linearGradient876"
       x1="163.24763"
       y1="248.14439"
       x2="43.510887"
       y2="39.674164"
       gradientUnits="userSpaceOnUse" />
  </defs>
  <sodipodi:namedview
     id="base"
     pagecolor="#ffffff"
     bordercolor="#666666"
     borderopacity="1.0"
     inkscape:pageopacity="0.0"
     inkscape:pageshadow="2"
     inkscape:zoom="0.49497475"
     inkscape:cx="422.92419"
     inkscape:cy="558.66077"
     inkscape:document-units="mm"
     inkscape:current-layer="layer1"
     showgrid="false"
     inkscape:window-width="1920"
     inkscape:window-height="1017"
     inkscape:window-x="1072"
     inkscape:window-y="394"
     inkscape:window-maximized="1"
     fit-margin-top="0"
     fit-margin-left="0"
     fit-margin-right="0"
     fit-margin-bottom="0" />
  <metadata
     id="metadata1395">
    <rdf:RDF>
      <cc:Work
         rdf:about="">
        <dc:format>image/svg+xml</dc:format>
        <dc:type
           rdf:resource="http://purl.org/dc/dcmitype/StillImage" />
        <dc:title></dc:title>
      </cc:Work>
    </rdf:RDF>
  </metadata>
  <g
     inkscape:label="Layer 1"
     inkscape:groupmode="layer"
     id="layer1"
     transform="translate(-26.940175,-22.490225)">
    <path
       style="opacity:1;vector-effect:none;fill:#000080;fill-opacity:1;stroke:none;stroke-width:7.80472422;stroke-linecap:butt;stroke-linejoin:miter;stroke-miterlimit:4;stroke-dasharray:none;stroke-dashoffset:0;stroke-opacity:1"
       d=""
       id="path2023"
       inkscape:connector-curvature="0"
       transform="scale(0.26458333)" />
    <path
       style="fill:url(#linearGradient876);stroke-width:1;fill-opacity:1"
       d="m 169.63192,277.66006 c 0.30243,-0.7881 0.16015,-6.59127 -0.24921,-10.16481 -0.83212,-7.26408 -2.75129,-17.24072 -5.75811,-29.93309 -1.65832,-7.00009 -1.66709,-7.05775 -1.32773,-8.73125 0.498,-2.45577 1.91286,-5.06565 4.21229,-7.77003 2.84301,-3.34372 4.90624,-6.53511 4.49244,-6.94891 -0.0829,-0.0829 -0.15075,-0.0236 -0.15075,0.13172 0,0.64974 -2.52852,3.56922 -4.69894,5.42548 -2.66581,2.27993 -3.57351,3.46727 -4.44578,5.81539 -0.51402,1.38374 -0.61959,1.52631 -0.63107,0.85221 -0.0199,-1.1674 0.94486,-4.79857 1.96588,-7.39934 0.48413,-1.2332 0.82433,-2.24218 0.75599,-2.24218 -0.22923,0 -1.86715,3.81358 -2.61367,6.08542 -0.7036,2.14118 -0.7513,2.2121 -0.99554,1.47989 -0.50932,-1.52697 0.9244,-5.51599 5.5528,-15.44944 4.87019,-10.45235 6.69423,-15.11274 8.17255,-20.88074 2.11035,-8.23403 2.26119,-17.20825 0.40818,-24.28409 l -0.48502,-1.85208 -0.18808,1.32291 c -1.13351,7.97299 -2.60904,11.85764 -8.49209,22.3573 -2.97685,5.31287 -3.97053,7.38845 -5.57347,11.64166 -0.63069,1.67349 -1.15131,2.91448 -1.15693,2.75775 -0.006,-0.15672 0.88792,-3.37141 1.98564,-7.14375 4.98499,-17.13096 6.41691,-24.95804 6.13159,-33.51614 -0.16253,-4.87506 -0.68865,-7.48795 -2.14042,-10.63011 -0.91609,-1.98277 -1.8648,-3.14989 -1.12905,-1.38899 0.99785,2.38819 1.35991,4.99248 1.34918,9.70458 -0.0155,6.80078 -0.92527,10.92414 -5.2832,23.94479 -3.07004,9.17271 -3.72665,11.54789 -4.2028,15.20283 l -0.32884,2.52425 -0.20485,-1.63932 c -0.43526,-3.48314 0.58184,-8.22759 4.24291,-19.79193 4.64265,-14.66487 5.81767,-21.34088 4.74388,-26.95304 -0.21009,-1.09806 -0.62721,-2.50752 -0.92692,-3.13213 -0.44622,-0.92992 -0.51558,-0.99186 -0.38286,-0.34191 0.67735,3.31722 0.54239,9.67717 -0.30038,14.15521 -1.32243,7.02664 -3.88658,14.52656 -7.14317,20.89315 -1.73637,3.39459 -2.49513,4.47466 -1.67911,2.39018 4.56885,-11.67094 7.2565,-20.99677 8.1569,-28.30348 0.32479,-2.6357 0.35936,-10.11095 0.0441,-9.53194 -0.11886,0.21828 -0.36325,1.7661 -0.54309,3.43959 -0.4553,4.23676 -1.48332,10.13052 -2.42289,13.89062 -2.02904,8.12017 -5.2864,15.03125 -8.91638,18.91771 l -1.35917,1.45521 2.0893,-4.53863 c 5.3333,-11.58564 7.50514,-19.93005 7.49561,-28.79887 -0.009,-8.03699 -1.64767,-14.12892 -5.87493,-21.83567 -5.69887,-10.38966 -13.1608,-20.34431 -23.33755,-31.13363 -3.51777,-3.729516 -9.826,-9.869244 -10.14011,-9.869244 -0.0901,0 0.0151,0.34603 0.23379,0.768959 1.17928,2.280465 2.57403,9.468652 2.90543,14.973755 0.0788,1.30968 0.21135,3.45281 0.29447,4.7625 0.13051,2.05632 -0.094,9.01447 -0.28412,8.80521 -0.037,-0.0407 -0.26657,-2.27662 -0.51025,-4.96876 -1.23219,-13.61319 -3.10307,-23.136519 -5.14632,-26.196359 -0.87562,-1.311264 -8.43883,-8.913807 -8.02545,-8.06718 1.14807,2.351288 2.86995,11.956754 4.03152,22.489589 0.69992,6.34675 0.62784,7.40716 -0.1349,1.98437 -2.65,-18.840789 -6.5349,-32.920817 -10.1721,-36.866715 C 98.777498,62.530364 84.987648,51.80831 73.986198,44.103701 62.797958,36.268273 48.475058,27.716094 39.838918,23.714409 l -2.55676,-1.184709 0.7499,1.237461 c 0.41244,0.680604 0.8292,1.628515 0.92613,2.106469 l 0.17624,0.869006 -1.61576,-1.044317 c -1.98017,-1.279843 -5.33067,-2.519343 -7.87368,-2.912823 -3.036,-0.469761 -3.17166,-0.435966 -2.08387,0.519127 1.74074,1.528389 3.57512,4.769542 4.21909,7.454687 0.14552,0.606764 0.0879,0.727605 -0.34726,0.727605 -0.63466,0 -1.74592,-0.461735 -2.7447,-1.140443 -0.40856,-0.277632 -0.78897,-0.458647 -0.84537,-0.402255 -0.18589,0.185895 2.10609,5.314179 4.03624,9.031023 3.60868,6.949169 8.66002,13.883315 15.89259,21.816282 1.89158,2.074773 3.7925,4.396492 4.22425,5.159376 2.14455,3.789328 10.42044,11.652152 24.00179,22.803811 5.04419,4.14179 6.08552,5.064942 4.86327,4.311377 -0.38114,-0.234989 -3.00052,-1.820391 -5.82084,-3.523115 -12.86454,-7.766775 -18.59436,-12.563367 -23.00965,-19.262035 l -1.54809,-2.348685 0.147,1.422644 c 1.76794,17.110551 8.21523,29.59557 19.76003,38.264865 1.19044,0.89393 2.16611,1.91822 2.88096,3.02453 1.53151,2.37018 4.42879,5.16101 7.35753,7.08719 4.12252,2.7113 7.58157,4.25825 20.108342,8.99282 2.40109,0.90751 6.12179,2.53066 8.26822,3.607 2.14644,1.07634 3.9026,1.8866 3.9026,1.80059 0,-0.37023 -10.216,-18.24528 -15.483012,-27.09081 -6.10644,-10.255268 -23.10167,-37.653505 -26.95704,-43.45781 -0.26582,-0.400183 -0.42049,-0.727605 -0.34371,-0.727605 0.0768,0 1.73958,2.291954 3.69512,5.09323 16.98843,24.335584 31.414332,47.281735 42.790862,68.064065 2.94742,5.38427 6.33884,11.57552 7.53649,13.75833 11.48435,20.93126 24.18579,50.18157 29.46947,67.86562 2.34968,7.86419 5.66252,21.23274 7.16275,28.90437 1.66077,8.49258 2.42545,17.60964 1.93632,23.08625 l -0.2363,2.64584 3.43003,3.9026 c 1.88651,2.14643 3.46,3.90261 3.49663,3.90261 0.0366,0 0.13888,-0.18833 0.22721,-0.41852 z M 157.6409,212.43441 c 0.69143,-4.38514 2.45431,-8.98648 7.59203,-19.81624 1.96754,-4.14735 4.14513,-8.86634 4.83909,-10.48665 2.26391,-5.28594 3.95383,-11.25286 3.95383,-13.96054 0,-0.65239 0.11907,-1.25975 0.26459,-1.34969 0.40662,-0.25131 0.32425,4.41934 -0.12274,6.95925 -0.97344,5.53131 -2.52072,9.48439 -8.12528,20.75898 -4.30096,8.65213 -6.56603,13.96523 -7.66073,17.96951 -0.70836,2.59109 -1.15404,2.5462 -0.74079,-0.0746 z m -45.18172,-104.9409 c 0.0671,-0.25743 0.12638,-0.11086 0.13177,0.3257 0.005,0.43656 -0.0495,0.64719 -0.12197,0.46805 -0.0725,-0.17913 -0.0769,-0.53631 -0.01,-0.79375 z m 41.32384,126.34871 c -0.10078,-0.4813 -0.3201,-1.01717 -0.48738,-1.19082 -0.74942,-0.77793 -7.19666,-2.20466 -11.54895,-2.5557 -1.4378,-0.11596 -1.54626,-0.0988 -0.66146,0.10465 3.76576,0.86594 4.97902,1.18521 6.74688,1.77545 1.0914,0.36439 2.91807,1.1303 4.05925,1.70202 l 2.07489,1.0395 z m -0.77291,-3.8055 c -0.10608,-0.42265 -0.33226,-0.85541 -0.50263,-0.96168 -0.70781,-0.44151 -4.98226,-1.25528 -7.32121,-1.3938 -2.84948,-0.16877 -2.59955,0.15553 0.48434,0.62845 1.60427,0.24602 4.38701,1.14867 7.02974,2.28027 0.44823,0.19192 0.48175,0.13205 0.30976,-0.55324 z m -0.52218,-2.42741 c -0.0783,-0.25466 -0.49735,-1.9513 -0.93126,-3.77031 -0.43391,-1.81901 -1.6578,-6.26166 -2.71977,-9.87255 l -1.93083,-6.56528 -3.96875,-1.94079 c -2.18282,-1.06745 -5.63563,-2.68106 -7.67292,-3.58581 -7.39411,-3.2837 -11.87741,-6.2417 -16.92907,-11.16951 -1.60307,-1.56377 -2.92796,-2.84461 -2.94418,-2.84631 -0.14607,-0.0153 0.84774,5.16477 1.36738,7.12726 2.46631,9.31419 6.71832,15.09608 15.33087,20.84696 1.30969,0.87452 5.41734,3.3499 9.12812,5.50086 3.71079,2.15095 7.73329,4.54706 8.93891,5.32467 1.20561,0.77761 2.25543,1.41383 2.33293,1.41383 0.0775,0 0.0769,-0.20836 -0.001,-0.46302 z m -6.24332,-21.95005 c 0,-0.0707 -0.90765,-2.70637 -2.01701,-5.85717 -3.36447,-9.55585 -7.22336,-19.04037 -12.28832,-30.20269 -2.84698,-6.27429 -11.28579,-23.2055 -14.93712,-29.96915 l -2.82373,-5.2306 -2.55388,-1.21762 c -3.26602,-1.55713 -7.40047,-3.20477 -14.857022,-5.92074 -9.05323,-3.29753 -12.85019,-5.2205 -15.78092,-7.99226 -0.77935,-0.73708 -1.417,-1.20322 -1.417,-1.03588 0,0.42287 2.38989,6.83912 3.56163,9.56208 1.63576,3.80128 5.17628,10.41309 9.13837,17.06562 4.62607,7.76741 7.68918,13.63209 9.673372,18.52084 4.39319,10.82415 8.76952,17.6495 15.35558,23.94864 4.51113,4.3146 8.69764,7.10394 18.33899,12.21869 3.28727,1.7439 7.01865,3.86102 8.29195,4.7047 1.27331,0.84369 2.31511,1.47616 2.31511,1.40554 z"
       id="path1957"
       inkscape:connector-curvature="0"
       sodipodi:nodetypes="cssccssccccsccsssccscccscscscccsccccccccscccscssscsscsscccssccccccsscsscccsscssccsccccsscsssssscccsccccsscscccccccccccccsscccccccccsccccsccscssccssssccccsscssscs" />
  </g>
</svg>
