<?xml version="1.0" encoding="UTF-8" standalone="no"?>
<!-- Created with Inkscape (http://www.inkscape.org/) -->

<svg
   xmlns:dc="http://purl.org/dc/elements/1.1/"
   xmlns:cc="http://creativecommons.org/ns#"
   xmlns:rdf="http://www.w3.org/1999/02/22-rdf-syntax-ns#"
   xmlns:svg="http://www.w3.org/2000/svg"
   xmlns="http://www.w3.org/2000/svg"
   xmlns:sodipodi="http://sodipodi.sourceforge.net/DTD/sodipodi-0.dtd"
   xmlns:inkscape="http://www.inkscape.org/namespaces/inkscape"
   width="210mm"
   height="297mm"
   viewBox="0 0 210 297"
   version="1.1"
   id="svg1398"
   inkscape:version="0.92.4 (5da689c313, 2019-01-14)"
   sodipodi:docname="quill_scroll.svg">
  <defs
     id="defs1392" />
  <sodipodi:namedview
     id="base"
     pagecolor="#ffffff"
     bordercolor="#666666"
     borderopacity="1.0"
     inkscape:pageopacity="0.0"
     inkscape:pageshadow="2"
     inkscape:zoom="0.35"
     inkscape:cx="948.10806"
     inkscape:cy="271.24566"
     inkscape:document-units="mm"
     inkscape:current-layer="layer1"
     showgrid="false"
     inkscape:window-width="1920"
     inkscape:window-height="1017"
     inkscape:window-x="1072"
     inkscape:window-y="394"
     inkscape:window-maximized="1" />
  <metadata
     id="metadata1395">
    <rdf:RDF>
      <cc:Work
         rdf:about="">
        <dc:format>image/svg+xml</dc:format>
        <dc:type
           rdf:resource="http://purl.org/dc/dcmitype/StillImage" />
        <dc:title></dc:title>
      </cc:Work>
    </rdf:RDF>
  </metadata>
  <g
     inkscape:label="Layer 1"
     inkscape:groupmode="layer"
     id="layer1">
    <path
       style="fill:#000000;stroke-width:1"
       d="m -139.37748,251.74635 c 0.10093,-0.1633 -0.0644,-0.64507 -0.3674,-1.0706 -1.97099,-2.768 -11.7195,-7.92948 -21.70755,-11.49336 -18.3358,-6.54247 -27.23877,-8.86533 -46.16979,-12.04607 -17.5913,-2.95564 -32.25471,-4.29093 -51.06459,-4.65008 -7.22904,-0.13802 -10.6848,0.11588 -6.61458,0.486 1.16417,0.10586 4.14073,0.31619 6.61458,0.4674 2.47386,0.1512 5.0337,0.31878 5.68855,0.3724 0.65484,0.0536 2.79885,0.20294 4.76447,0.33184 1.96562,0.1289 3.81109,0.35699 4.10104,0.50687 0.28996,0.14988 1.83688,0.35235 3.43761,0.44993 1.60073,0.0976 4.63682,0.46583 6.74688,0.81834 2.11005,0.35251 5.38427,0.82765 7.27604,1.05587 14.96197,1.805 39.32397,6.91765 49.60937,10.41112 1.67349,0.56841 5.19157,1.81624 7.81795,2.77296 2.62639,0.95671 6.19317,2.11016 7.92619,2.5632 3.35903,0.87811 6.05371,1.91514 8.20065,3.15595 1.30285,0.75297 7.47551,3.98656 10.04874,5.2641 1.49563,0.74254 3.41245,1.0562 3.69184,0.60413 z m 2.10611,-3.88682 c 0.30243,-0.78811 0.16015,-6.59127 -0.24921,-10.16482 -0.83212,-7.26407 -2.75129,-17.24071 -5.75811,-29.93309 -1.65832,-7.00009 -1.66709,-7.05775 -1.32773,-8.73125 0.498,-2.45577 1.91286,-5.06565 4.21229,-7.77003 2.84301,-3.34372 4.90624,-6.53511 4.49244,-6.94891 -0.0829,-0.0829 -0.15075,-0.0236 -0.15075,0.13172 0,0.64974 -2.52852,3.56922 -4.69894,5.42548 -2.66581,2.27993 -3.57351,3.46727 -4.44578,5.81539 -0.51402,1.38374 -0.61959,1.52631 -0.63107,0.85221 -0.0199,-1.1674 0.94486,-4.79857 1.96588,-7.39934 0.48413,-1.2332 0.82433,-2.24218 0.75599,-2.24218 -0.22923,0 -1.86715,3.81358 -2.61367,6.08542 -0.7036,2.14118 -0.7513,2.2121 -0.99554,1.47989 -0.50932,-1.52697 0.9244,-5.51599 5.5528,-15.44943 4.87019,-10.45236 6.69423,-15.11275 8.17255,-20.88075 2.11035,-8.23403 2.26119,-17.20825 0.40818,-24.28409 l -0.48502,-1.85208 -0.18808,1.32291 c -1.13351,7.97299 -2.60904,11.85764 -8.49209,22.3573 -2.97685,5.31287 -3.97053,7.38845 -5.57347,11.64166 -0.63069,1.67349 -1.15131,2.91448 -1.15693,2.75775 -0.006,-0.15672 0.88792,-3.37141 1.98564,-7.14375 4.98499,-17.13096 6.41691,-24.95804 6.13159,-33.51614 -0.16253,-4.87506 -0.68865,-7.48795 -2.14042,-10.63011 -0.91609,-1.98277 -1.8648,-3.14989 -1.12905,-1.38899 0.99785,2.38819 1.35991,4.99248 1.34918,9.70458 -0.0155,6.80078 -0.92527,10.92414 -5.2832,23.94479 -3.07004,9.17271 -3.72665,11.54789 -4.2028,15.20283 l -0.32884,2.52425 -0.20485,-1.63932 c -0.43526,-3.48314 0.58184,-8.22759 4.24291,-19.79193 4.64265,-14.66487 5.81767,-21.34088 4.74388,-26.95304 -0.21009,-1.09806 -0.62721,-2.50752 -0.92692,-3.13213 -0.44622,-0.92992 -0.51558,-0.99186 -0.38286,-0.34191 0.67735,3.31722 0.54239,9.67717 -0.30038,14.15521 -1.32243,7.02664 -3.88658,14.52656 -7.14317,20.89315 -1.73637,3.39459 -2.49513,4.47466 -1.67911,2.39018 4.56885,-11.67094 7.2565,-20.99677 8.1569,-28.30348 0.32479,-2.6357 0.35936,-10.11095 0.0441,-9.53194 -0.11886,0.21828 -0.36325,1.7661 -0.54309,3.43959 -0.4553,4.23676 -1.48332,10.13052 -2.42289,13.89062 -2.02904,8.12017 -5.2864,15.03125 -8.91638,18.91771 l -1.35917,1.45521 2.0893,-4.53863 c 5.3333,-11.58564 7.50514,-19.93005 7.49561,-28.79887 -0.009,-8.03699 -1.64767,-14.12892 -5.87493,-21.83567 -5.69887,-10.38966 -13.1608,-20.344303 -23.33755,-31.133626 -3.51777,-3.729516 -9.826,-9.869244 -10.14011,-9.869244 -0.0901,0 0.0151,0.34603 0.23379,0.768959 1.17928,2.280465 2.57403,9.468652 2.90543,14.97375 0.0788,1.309687 0.21135,3.452812 0.29447,4.7625 0.13051,2.056326 -0.094,9.014471 -0.28412,8.805211 -0.037,-0.0407 -0.26657,-2.276619 -0.51025,-4.968759 -1.23219,-13.613187 -3.10307,-23.136516 -5.14632,-26.196356 -0.87562,-1.311264 -8.43883,-8.913807 -8.02545,-8.06718 1.14807,2.351288 2.86995,11.956754 4.03152,22.489584 0.69992,6.346759 0.62784,7.407169 -0.1349,1.984375 -2.65,-18.840789 -6.5349,-32.920817 -10.1721,-36.866715 -2.76362,-2.998171 -16.55347,-13.720225 -27.55492,-21.424834 -11.18824,-7.8354285 -25.51114,-16.3876075 -34.14728,-20.3892926 l -2.55676,-1.184709 0.7499,1.237461 c 0.41244,0.680604 0.8292,1.628515 0.92613,2.106469 l 0.17624,0.869006 -1.61576,-1.044317 c -1.98017,-1.279843 -5.33067,-2.519343 -7.87368,-2.912823 -3.036,-0.469761 -3.17166,-0.435966 -2.08387,0.519127 1.74074,1.528389 3.57512,4.7695421 4.21909,7.45468712 0.14552,0.60676398 0.0879,0.72760498 -0.34726,0.72760498 -0.63466,0 -1.74592,-0.461735 -2.7447,-1.14044298 -0.40856,-0.277632 -0.78897,-0.458647 -0.84537,-0.402255 -0.18589,0.185895 2.10609,5.31417898 4.03624,9.03102298 3.60868,6.9491695 8.66002,13.8833155 15.89259,21.8162825 1.89158,2.074773 3.7925,4.396492 4.22425,5.159376 2.14455,3.789328 10.42044,11.652152 24.00179,22.803811 5.04419,4.14179 6.08552,5.064942 4.86327,4.311377 -0.38114,-0.234989 -3.00052,-1.820391 -5.82084,-3.523115 -12.86454,-7.766775 -18.59436,-12.563367 -23.00965,-19.262035 l -1.54809,-2.348685 0.147,1.422644 c 1.76794,17.110551 8.21523,29.59557 19.76003,38.26486 1.19044,0.893934 2.16611,1.918224 2.88096,3.024537 1.53151,2.370175 4.42879,5.161005 7.35753,7.087184 4.12252,2.7113 7.58157,4.25825 20.10834,8.99282 2.40109,0.90751 6.12179,2.53066 8.26822,3.607 2.14644,1.07634 3.9026,1.8866 3.9026,1.80059 0,-0.37023 -10.216,-18.245279 -15.48301,-27.090803 -6.10644,-10.255271 -23.10167,-37.653508 -26.95704,-43.457813 -0.26582,-0.400183 -0.42049,-0.727605 -0.34371,-0.727605 0.0768,0 1.73958,2.291954 3.69512,5.09323 16.98843,24.335584 31.41433,47.281732 42.79086,68.064061 2.94742,5.38427 6.33884,11.57552 7.53649,13.75833 11.48435,20.93126 24.18579,50.18157 29.46947,67.86563 2.34968,7.86419 5.66252,21.23274 7.16275,28.90437 1.66077,8.49258 2.42545,17.60964 1.93632,23.08625 l -0.2363,2.64584 3.43003,3.9026 c 1.88651,2.14643 3.46,3.90261 3.49663,3.90261 0.0366,0 0.13888,-0.18833 0.22721,-0.41852 z m -11.99102,-65.22566 c 0.69143,-4.38513 2.45431,-8.98648 7.59203,-19.81624 1.96754,-4.14735 4.14513,-8.86634 4.83909,-10.48665 2.26391,-5.28594 3.95383,-11.25286 3.95383,-13.96054 0,-0.65239 0.11907,-1.25975 0.26459,-1.34969 0.40662,-0.25131 0.32425,4.41934 -0.12274,6.95925 -0.97344,5.53131 -2.52072,9.48439 -8.12528,20.75898 -4.30096,8.65213 -6.56603,13.96524 -7.66073,17.96951 -0.70836,2.5911 -1.15404,2.54621 -0.74079,-0.0746 z M -194.44411,77.692978 c 0.0671,-0.257432 0.12638,-0.110868 0.13177,0.325694 0.005,0.436563 -0.0495,0.647187 -0.12197,0.468056 -0.0725,-0.179131 -0.0769,-0.536318 -0.01,-0.79375 z m -71.84315,145.566212 c -0.0814,-0.0814 -2.03602,-0.17977 -4.34358,-0.21856 -2.5876,-0.0435 -3.63784,0.003 -2.74034,0.12186 1.74577,0.2308 7.29376,0.30653 7.08392,0.0967 z m -11.91257,-0.56353 c -0.25466,-0.0666 -0.67138,-0.0666 -0.92604,0 -0.25466,0.0666 -0.0463,0.121 0.46302,0.121 0.50933,0 0.71769,-0.0545 0.46302,-0.121 z m 10.78177,-0.34678 c 0.51018,-0.21923 0.50837,-0.22806 -0.0505,-0.24599 -0.31883,-0.0102 -0.65328,0.10047 -0.74322,0.24599 -0.19341,0.31294 0.0655,0.31294 0.79375,0 z m -23.28333,0 c 0.0899,-0.14552 0.0445,-0.26459 -0.10106,-0.26459 -0.14552,0 -0.33817,0.11907 -0.4281,0.26459 -0.0899,0.14552 -0.0445,0.26458 0.10106,0.26458 0.14552,0 0.33816,-0.11906 0.4281,-0.26458 z m 3.37344,-0.1914 c -0.47294,-0.0587 -1.24685,-0.0587 -1.71979,0 -0.47294,0.0587 -0.086,0.10671 0.85989,0.10671 0.94589,0 1.33284,-0.048 0.8599,-0.10671 z m 134.20768,-18.1158 c -0.10078,-0.4813 -0.3201,-1.01717 -0.48738,-1.19082 -0.74942,-0.77793 -7.19666,-2.20466 -11.54895,-2.5557 -1.4378,-0.11596 -1.54626,-0.0988 -0.66146,0.10465 3.76576,0.86594 4.97902,1.18521 6.74688,1.77545 1.0914,0.36439 2.91807,1.1303 4.05925,1.70202 l 2.07489,1.0395 z m -0.77291,-3.8055 c -0.10608,-0.42265 -0.33226,-0.85541 -0.50263,-0.96168 -0.70781,-0.44151 -4.98226,-1.25528 -7.32121,-1.3938 -2.84948,-0.16877 -2.59955,0.15553 0.48434,0.62845 1.60427,0.24602 4.38701,1.14867 7.02974,2.28027 0.44823,0.19192 0.48175,0.13205 0.30976,-0.55324 z m -0.52218,-2.42741 c -0.0783,-0.25466 -0.49735,-1.9513 -0.93126,-3.77031 -0.43391,-1.81901 -1.6578,-6.26166 -2.71977,-9.87255 l -1.93083,-6.56527 -3.96875,-1.9408 c -2.18282,-1.06745 -5.63563,-2.68106 -7.67292,-3.58581 -7.39411,-3.2837 -11.87741,-6.2417 -16.92907,-11.16951 -1.60307,-1.56377 -2.92796,-2.84461 -2.94418,-2.84631 -0.14607,-0.0153 0.84774,5.16477 1.36738,7.12726 2.46631,9.31419 6.71832,15.09608 15.33087,20.84696 1.30969,0.87452 5.41734,3.3499 9.12812,5.50086 3.71079,2.15095 7.73329,4.54706 8.93891,5.32467 1.20561,0.77761 2.25543,1.41383 2.33293,1.41383 0.0775,0 0.0769,-0.20836 -0.001,-0.46302 z m -6.24332,-21.95005 c 0,-0.0707 -0.90765,-2.70637 -2.01701,-5.85717 -3.36447,-9.55585 -7.22336,-19.04037 -12.28832,-30.20269 -2.84698,-6.27429 -11.28579,-23.2055 -14.93712,-29.96915 l -2.82373,-5.2306 -2.55388,-1.21762 c -3.26602,-1.55713 -7.40047,-3.20477 -14.85702,-5.92074 -9.05323,-3.29753 -12.85019,-5.2205 -15.78092,-7.99226 -0.77935,-0.73708 -1.417,-1.20322 -1.417,-1.03588 0,0.42287 2.38989,6.83912 3.56163,9.56208 1.63576,3.80128 5.17628,10.41309 9.13837,17.06562 4.62607,7.76741 7.68918,13.63209 9.67337,18.52084 4.39319,10.82415 8.76952,17.6495 15.35558,23.94864 4.51113,4.3146 8.69764,7.10394 18.33899,12.21869 3.28727,1.7439 7.01865,3.86102 8.29195,4.7047 1.27331,0.84369 2.31511,1.47617 2.31511,1.40554 z"
       id="path1957"
       inkscape:connector-curvature="0"
       sodipodi:nodetypes="ccssccccsccssccccsccssccssccccsccsssccscccscscscccsccccccccscccscssscsscsscccssccccccsscsscccsscssccsccccsscsssssscccsccccsscsccccccccccscccsscccccccscsccsscccccsscccccccccsccccsccscssccssssccccsscssscs" />
    <path
       style="fill:none;stroke:#000000;stroke-width:2.065;stroke-linecap:butt;stroke-linejoin:miter;stroke-opacity:1;stroke-miterlimit:4;stroke-dasharray:none"
       d="m -23.252448,47.904799 c 0,0 7.216276,21.381564 13.3634756,34.477769 6.147199,13.096208 10.9580505,22.985182 13.0962068,34.745042 2.1381561,11.75985 7.4835466,16.57071 5.0781209,25.92514 -2.4054258,9.35443 -3.2072344,19.77795 -4.8108515,24.5888 -1.6036171,4.81085 -7.4835466,26.19241 -7.4835466,26.19241 0,0 -0.2672697,3.20723 -3.4745038,9.6217 -3.2072344,6.41447 -4.5435824,8.55263 -4.5435824,11.22532 0,2.6727 -2.138156,3.74178 1.336348,5.34539 3.4745038,1.60362 13.8980154,6.94901 16.3034409,7.21628 2.4054257,0.26727 12.2943981,6.41447 18.9761361,9.08716 6.681739,2.6727 12.561667,5.61266 15.501632,5.3454 2.939965,-0.26727 5.078122,-1.06908 10.156243,-3.74178 5.078121,-2.67269 20.579752,-10.15624 26.459682,-14.69982 5.879931,-4.54358 10.95805,-8.01809 12.294399,-10.69078 1.336347,-2.6727 1.870887,-3.74178 1.870887,-3.74178 l -7.483549,-14.16528 22.18337,5.07812 1.60362,-5.61266 v -3.74177 l 7.21628,11.49259 c 0,0 1.33634,-1.06908 8.28535,0 6.94901,1.06907 6.94901,1.60361 11.22532,2.13815 4.27632,0.53454 20.31249,2.93997 20.31249,2.93997 l -0.53454,-12.56167 8.55262,13.36347 12.02713,1.33635 c 0,0 0.26727,-0.53454 -0.53454,-2.67269 -0.80181,-2.13816 -0.80181,-4.54358 -0.80181,-4.54358 l 7.75082,6.68173 13.36348,2.13816 13.36347,2.13816 4.27631,1.87088 4.81085,-1.33634 8.01809,0.8018 c 0,0 4.00904,-5.61266 8.28536,-6.41447 4.27631,-0.8018 9.08716,-4.27631 9.08716,-4.27631 l 8.55262,-5.34539 8.8199,-5.87993 c 0,0 11.49258,-7.48354 14.1653,-10.69078 2.67268,-3.20723 3.20722,-5.07812 3.20722,-5.07812 0,0 -5.07812,-12.82894 -5.87994,-18.4416 -0.80179,-5.61266 -2.13815,-11.75986 -3.20723,-20.04521 -1.06907,-8.28536 -1.60361,-15.7689 -2.93997,-21.38156 -1.33634,-5.61266 -2.40542,-12.02713 -3.20723,-18.174331 -0.8018,-6.147197 1.87089,-23.519717 1.87089,-28.597839 0,-5.078121 2.6727,-18.708867 2.6727,-18.708867 0,0 2.40543,-16.30344 3.74177,-20.847023 1.33635,-4.543581 7.21627,-7.483545 3.20722,-12.294397 -4.00902,-4.810851 -4.2763,-8.2853553 -10.4235,-9.8889723 C 256.31147,6.4780233 246.4225,6.745293 246.4225,6.745293 l -14.43255,5.34539 -23.25245,11.225321 5.87993,49.979399 c 0,0 0.53454,19.243408 1.87088,22.183373 1.33635,2.939963 1.87089,10.958054 1.87089,10.958054 0,0 -1.60362,16.03617 -2.40542,21.9161 -0.80181,5.87992 -2.93997,22.45064 -5.07812,28.59784 -2.13816,6.14719 -5.3454,18.44159 -8.01809,23.78698 -2.6727,5.34539 -6.41447,9.08717 -6.41447,9.08717 l 5.34539,5.87993 c 0,0 4.54358,4.54358 8.01809,5.34539 3.4745,0.80181 9.08716,1.06907 9.08716,1.06907 l 1.60362,-8.01808 1.33634,-7.48355 5.61267,14.43256 c 0,0 4.00904,0.26727 8.55262,-2.40543 4.54358,-2.67269 6.94901,-8.55262 6.94901,-8.55262 0,0 6.41446,-8.55263 9.08716,-11.22532 2.6727,-2.6727 5.07812,-4.81086 5.07812,-4.81086 l -4.81085,-4.54358 -3.20723,-10.69078"
       id="path1974"
       inkscape:connector-curvature="0" />
    <path
       style="fill:none;stroke:#000000;stroke-width:2.065;stroke-linecap:butt;stroke-linejoin:miter;stroke-opacity:1;stroke-miterlimit:4;stroke-dasharray:none"
       d="m 196.4431,189.82492 c 14.69982,-11.49259 16.30344,-14.9671 16.30344,-14.9671 l 14.16529,-16.03617 c 0,0 2.40542,-5.07812 5.07812,-5.34539 2.67269,-0.26727 9.88897,2.40543 9.88897,2.40543 l 14.43255,6.1472 4.81086,6.41446 c 0,0 -2.93997,-5.87993 -2.6727,-8.81989 0.26727,-2.93996 -2.13816,-17.63979 -2.13816,-17.63979 0,0 4.27632,15.7689 5.34539,18.70887 1.06908,2.93996 2.40543,9.35443 2.40543,9.35443 l 12.56167,6.41447"
       id="path1976"
       inkscape:connector-curvature="0" />
    <path
       style="fill:none;stroke:#000000;stroke-width:2.065;stroke-linecap:butt;stroke-linejoin:miter;stroke-opacity:1;stroke-miterlimit:4;stroke-dasharray:none"
       d="m 230.47098,154.17225 c 0.18899,7.843 -0.18899,17.52864 -1.55915,21.92261 -1.37017,4.39398 -2.50409,6.00038 -1.51191,8.50447 0.99219,2.50409 0.42523,3.63802 2.83482,3.68527 2.4096,0.0472 8.64621,-2.69308 8.64621,-2.69308 0,0 3.26004,-1.74815 4.58296,-3.63802 1.32292,-1.88989 2.07887,-5.29167 2.07887,-5.29167 l -2.50409,-4.44122"
       id="path1980"
       inkscape:connector-curvature="0" />
    <path
       style="fill:none;stroke:#000000;stroke-width:2.065;stroke-linecap:butt;stroke-linejoin:miter;stroke-opacity:1;stroke-miterlimit:4;stroke-dasharray:none"
       d="m 255.22842,172.17336 c 0,0 -2.59859,-0.28348 -6.47284,-0.37798 -3.87426,-0.0945 -6.89807,0.51972 -6.89807,0.51972 0,0 -5.33891,0.66146 -7.08705,1.51191 -1.74814,0.85044 -4.29948,3.49628 -5.38616,4.53571 -1.08668,1.03944 -2.26786,4.39397 -2.26786,4.39397"
       id="path1982"
       inkscape:connector-curvature="0" />
    <path
       style="fill:none;stroke:#000000;stroke-width:2.065;stroke-linecap:butt;stroke-linejoin:miter;stroke-opacity:1;stroke-miterlimit:4;stroke-dasharray:none"
       d="m 245.54278,176.66183 c 0,0 -1.37016,-1.6064 -2.83482,-1.7009 -1.46466,-0.0945 -3.49628,-0.75595 -5.71689,0.18899 -2.22061,0.94494 -4.34673,2.22061 -5.05543,3.59078 -0.70871,1.37016 -0.94494,2.3151 -0.94494,2.3151"
       id="path1984"
       inkscape:connector-curvature="0" />
    <path
       style="fill:none;stroke:#000000;stroke-width:2.065;stroke-linecap:butt;stroke-linejoin:miter;stroke-opacity:1;stroke-miterlimit:4;stroke-dasharray:none"
       d="m 230.51823,177.18154 c 0.47247,3.87426 0.47247,3.87426 0.47247,3.87426 0,0 -0.18899,0.99219 1.46465,1.41741 1.65365,0.42522 2.55134,1.37016 3.54353,-0.0472 0.99219,-1.41741 1.27567,-3.44903 1.27567,-3.44903 0,0 -0.18899,-0.75595 1.70089,-1.65364 1.88988,-0.8977 3.2128,-1.6064 3.2128,-1.6064 l 3.35454,0.94494"
       id="path1986"
       inkscape:connector-curvature="0" />
    <path
       style="fill:none;stroke:#000000;stroke-width:2.06500006;stroke-linecap:butt;stroke-linejoin:miter;stroke-miterlimit:4;stroke-dasharray:none;stroke-opacity:1"
       d="m -23.252448,47.904799 c 13.229841,-9.087162 12.962571,-9.621703 19.3770399,-10.690781 6.4144686,-1.069078 6.5481032,-1.603615 14.4325541,-2.00452 7.884451,-0.400905 3.340869,-4.009043 11.091685,-0.801809 7.750817,3.207234 32.205979,12.561668 39.021352,14.566188 6.815372,2.004523 22.450639,5.479026 22.450639,5.479026 0,0 4.276312,8.418989 4.543583,10.156243 0.267269,1.737251 0.267269,4.00904 0.267269,4.00904 0,0 0,-3.340867 0.400905,-6.147196 0.400904,-2.806333 1.135895,-5.14494 1.135895,-5.14494 0,0 -1.269531,-0.334086 5.679478,1.002261 6.949008,1.336346 15.367998,2.806329 15.367998,2.806329 0,0 1.73725,-0.267269 4.54358,-0.133633 2.80633,0.133633 4.67722,1.469983 6.94901,1.870885 2.27179,0.400904 13.36347,1.202713 15.50163,1.202713 2.13816,0 8.55263,1.069078 10.02261,1.069078 1.46998,0 5.87993,-0.801809 9.6217,-0.668173 3.74177,0.133636 9.48807,-0.935442 9.48807,-0.935442 l 8.28535,0.400904 c 0,0 0.26727,-1.06908 2.2718,-1.469982 2.00452,-0.400905 8.41898,-1.202714 8.41898,-1.202714 l 6.01357,-1.737252 0.93544,6.414469 1.46999,4.543581 1.60361,6.414468 1.60362,8.018087 -1.06908,-11.626226 0.66817,-14.699824 15.10073,-5.078118"
       id="path1988"
       inkscape:connector-curvature="0"
       sodipodi:nodetypes="csssscscscsccsssscccccccccccc" />
    <path
       style="fill:none;stroke:#000000;stroke-width:2.065;stroke-linecap:butt;stroke-linejoin:miter;stroke-opacity:1;stroke-miterlimit:4;stroke-dasharray:none"
       d="m 83.388088,194.63577 c 0,0 -8.552622,-1.60362 -15.635264,-1.73725 -7.082641,-0.13364 -22.584274,-3.60814 -22.584274,-3.60814 0,0 -17.773423,-1.87089 -22.851545,-2.00452 -5.078121,-0.13364 -4.810851,0.53454 -9.354433,1.20271 -4.543582,0.66817 -4.8108514,1.73725 -9.0871639,4.00904 -4.27631238,2.27179 -7.6171815,7.08264 -7.6171815,7.08264 l -5.2117556,7.34992"
       id="path1990"
       inkscape:connector-curvature="0" />
    <path
       style="fill:none;stroke:#000000;stroke-width:2.065;stroke-linecap:butt;stroke-linejoin:miter;stroke-opacity:1;stroke-miterlimit:4;stroke-dasharray:none"
       d="m 18.976136,187.55313 c 1.336348,32.47324 1.469983,33.40869 1.469983,33.40869 0,0 3.474503,4.67721 8.151719,5.07812 4.677217,0.4009 13.363477,2.27179 16.570712,1.20271 3.207234,-1.06908 11.893494,-3.34087 14.432555,-4.94449 2.53906,-1.60361 6.013563,-4.27631 7.34991,-6.14719 1.33635,-1.87089 2.672697,-4.27632 2.672697,-4.27632 l -6.548104,-10.69078"
       id="path1992"
       inkscape:connector-curvature="0" />
    <path
       style="fill:none;stroke:#000000;stroke-width:2.065;stroke-linecap:butt;stroke-linejoin:miter;stroke-opacity:1;stroke-miterlimit:4;stroke-dasharray:none"
       d="m 90.871637,208.80105 c -11.091685,-5.21175 -13.363474,-6.81537 -20.579752,-7.21627 -7.216277,-0.40091 -7.216277,-0.40091 -7.216277,-0.40091 0,0 -6.013564,-0.66817 -11.893495,0.26727 -5.879928,0.93544 -8.68626,1.73725 -12.828936,2.80633 -4.142677,1.06908 -9.755339,3.87541 -11.225321,4.94449 -1.469982,1.06907 -5.211755,6.01356 -5.34539,6.5481 -0.133635,0.53454 -1.336347,5.21176 -1.336347,5.21176"
       id="path1994"
       inkscape:connector-curvature="0" />
    <path
       style="fill:none;stroke:#000000;stroke-width:2.065;stroke-linecap:butt;stroke-linejoin:miter;stroke-opacity:1;stroke-miterlimit:4;stroke-dasharray:none"
       d="m 32.874151,206.26199 c 0.267271,6.1472 -1.870885,11.8935 -0.400905,12.6953 1.469983,0.80181 2.806332,1.46999 6.280835,0.93545 3.474503,-0.53454 5.345391,-3.47451 5.345391,-3.47451 l -3.741775,-5.07812"
       id="path1996"
       inkscape:connector-curvature="0" />
    <path
       style="fill:none;stroke:#000000;stroke-width:2.065;stroke-linecap:butt;stroke-linejoin:miter;stroke-opacity:1;stroke-miterlimit:4;stroke-dasharray:none"
       d="m 69.623712,211.87465 c -6.815373,-2.93996 -10.557148,-3.0736 -14.29892,-3.0736 -3.741774,0 -9.087162,-0.66816 -12.02713,0.93545 -2.939965,1.60361 -5.34539,1.73725 -6.681737,3.34087 -1.336347,1.60361 -3.875407,2.53905 -3.207234,4.00904 0.668173,1.46998 1.202711,2.40543 3.207234,2.40543 2.004521,0 1.870887,0.4009 4.677217,-1.33635 2.80633,-1.73726 2.80633,-1.73726 2.80633,-1.73726"
       id="path1998"
       inkscape:connector-curvature="0" />
    <path
       style="opacity:1;vector-effect:none;fill:#ffffff;fill-opacity:1;stroke:none;stroke-width:7.80472422;stroke-linecap:butt;stroke-linejoin:miter;stroke-miterlimit:4;stroke-dasharray:none;stroke-dashoffset:0;stroke-opacity:1"
       d="m 791.50427,802.67589 c -5.00025,-1.99873 -30.91067,-7.09446 -57.57869,-11.32383 l -48.48733,-7.68976 -17.38022,-14.83302 c -9.55911,-8.15816 -18.08575,-14.83302 -18.94809,-14.83302 -1.50739,0 -0.0386,16.17702 2.35214,25.90645 1.15082,4.68339 1.12195,4.69024 -13.75002,3.25695 -8.1968,-0.78996 -16.72154,-2.12311 -18.94387,-2.96257 -2.22234,-0.83948 -12.5142,-14.80575 -22.87079,-31.03617 -10.35659,-16.2304 -19.26068,-29.50985 -19.78686,-29.50985 -0.52619,0 -0.32673,12.72792 0.44327,28.28427 0.77,15.55635 0.89441,28.28427 0.2765,28.28427 -4.76604,0 -75.35326,-10.95755 -91.63415,-14.22474 -11.2392,-2.25545 -27.52373,-4.75053 -36.18783,-5.54463 l -15.7529,-1.44383 -15.32995,-24.65918 c -8.43146,-13.56255 -15.90334,-24.69948 -16.60418,-24.74873 -0.70085,-0.0493 -1.65185,8.54364 -2.11334,19.09533 -0.4811,10.9999 -1.862,20.20784 -3.2367,21.58254 -1.84993,1.84993 -11.75053,0.2587 -43.34352,-6.96626 -45.57584,-10.42267 -59.18092,-12.58118 -97.8321,-15.52166 -14.61988,-1.11223 -40.53029,-4.71161 -57.5787,-7.99863 -32.2813,-6.22397 -89.69317,-12.33285 -115.197233,-12.25747 -32.528662,0.0962 -64.575462,12.14953 -86.0626294,32.36973 -10.4783876,9.86055 -11.4959236,16.06832 9.6180179,-58.67742 8.6316785,-30.55711 17.2555475,-65.10433 19.1641495,-76.77159 1.908604,-11.66726 5.751423,-32.12285 8.539595,-45.45686 6.524194,-31.20095 5.733317,-43.13869 -4.88535,-73.74114 C 23.959534,468.47664 18.321786,448.61769 15.865164,437.12409 9.4114104,406.92942 0.08490232,381.7085 -25.715295,324.68143 -45.191131,281.6333 -81.267527,190.5866 -81.267527,184.48317 c 0,-2.23081 33.786267,-26.17125 45.585134,-32.30095 9.53428,-4.95321 42.7089586,-11.63524 67.090992,-13.51344 9.770652,-0.75265 21.692301,-3.06635 26.735813,-5.18876 l 9.102258,-3.83042 39.38506,15.40892 c 93.07298,36.41365 133.9704,49.58635 194.94856,62.79123 7.45545,1.61448 8.68786,2.90505 15.91542,16.66632 4.60098,8.76026 8.35305,19.16705 9.09137,25.21596 1.01498,8.31541 2.04984,10.41312 5.37171,10.88872 3.75176,0.53716 4.30163,-1.02209 6.2366,-17.68499 1.16713,-10.05075 2.66832,-18.82034 3.33595,-19.48797 0.66763,-0.66764 16.95304,1.7506 36.1898,5.37385 19.23676,3.62325 40.06322,6.4272 46.28103,6.23099 6.56569,-0.20718 16.67919,1.31587 24.12418,3.63302 7.57002,2.35605 24.44967,4.86687 41.22283,6.13182 15.62207,1.17815 37.04056,3.04166 47.59665,4.14116 13.50128,1.40625 28.77878,1.28154 51.51778,-0.42055 17.77869,-1.33079 41.95202,-2.47113 53.71852,-2.53408 12.92474,-0.0692 22.52185,-1.03225 24.24366,-2.4329 1.56751,-1.27513 10.12312,-3.41942 19.01246,-4.7651 8.88935,-1.34566 20.3687,-3.62933 25.50967,-5.07481 l 9.34722,-2.62814 2.07072,11.43385 c 1.1389,6.28862 5.39164,24.61634 9.45056,40.72827 4.05891,16.11193 7.80226,31.33998 8.31852,33.84011 0.68172,3.30124 2.37004,4.54569 6.16711,4.54569 3.97945,0 4.9298,-0.77817 3.97838,-3.25754 -2.17704,-5.6733 -3.86177,-61.75764 -2.34111,-77.93574 l 1.46006,-15.53336 24.18978,-8.09195 c 16.73414,-5.5979 24.41403,-7.3485 24.91737,-5.67984 1.79144,5.93891 7.37597,64.28784 9.29932,97.16232 1.16362,19.88875 2.89174,39.88977 3.84028,44.44671 0.94855,4.55694 3.15285,14.64931 4.89845,22.42748 1.74558,7.77818 3.1896,18.92648 3.20889,24.77401 0.0772,23.4173 -14.40108,134.75617 -22.13066,170.18543 -4.8208,22.09659 -27.06844,92.25186 -34.26228,108.04196 -3.04854,6.69141 -10.30192,18.35502 -16.11862,25.91914 l -10.57583,13.75297 11.4423,13.03294 c 12.48658,14.22241 24.8286,24.90665 34.34527,29.73203 7.56614,3.83635 26.87862,7.51086 39.47561,7.51086 h 9.47984 l 3.55636,-18.68782 c 1.95598,-10.2783 4.17045,-19.85996 4.92106,-21.2926 0.79374,-1.51499 4.34519,5.24708 8.48857,16.16244 l 7.12386,18.76722 8.06712,0.60454 c 18.20921,1.36459 41.86472,-12.89686 52.66428,-31.75029 8.44567,-14.74407 36.56514,-49.93291 49.38887,-61.80542 6.46422,-5.98473 11.75312,-11.76769 11.75312,-12.85104 0,-1.08334 -4.30751,-5.65168 -9.57225,-10.15185 -8.10485,-6.9278 -10.23686,-10.35867 -13.9078,-22.38053 -2.38454,-7.80915 -3.56268,-14.19844 -2.61811,-14.19844 5.70989,0 16.07522,7.85527 22.99582,17.42713 6.62096,9.15747 8.8019,10.87879 12.58161,9.93016 3.5897,-0.90095 4.82623,-0.13576 5.75401,3.56085 0.89661,3.5724 6.51312,7.33894 23.27878,15.61118 12.1609,6.00022 22.0971,12.15543 22.0971,13.68852 0,5.88351 -26.6199,28.67124 -58.58885,50.15455 -53.085,35.67338 -82.96032,53.69606 -95.52668,57.62773 -15.21047,4.75897 -18.43748,6.58333 -29.21122,16.5142 l -8.99749,8.29359 -19.50035,0.0931 c -10.7252,0.0513 -20.86406,0.7144 -22.53081,1.47371 -1.66675,0.75931 -7.12157,-0.25476 -12.12183,-2.25351 z"
       id="path2001"
       inkscape:connector-curvature="0"
       transform="scale(0.26458333)" />
    <path
       style="opacity:1;vector-effect:none;fill:#f9f9f9;fill-opacity:1;stroke:none;stroke-width:7.80472422;stroke-linecap:butt;stroke-linejoin:miter;stroke-miterlimit:4;stroke-dasharray:none;stroke-dashoffset:0;stroke-opacity:1"
       d="m 771.30122,686.78715 c 0,-0.73242 1.80754,-5.91745 4.01676,-11.52226 9.22411,-23.40176 30.51291,-94.80809 34.23704,-114.83699 5.12275,-27.55084 13.04501,-85.16849 17.39289,-126.49633 3.64907,-34.68551 3.07769,-47.42107 -3.21258,-71.60538 -2.41757,-9.29487 -4.68912,-28.63857 -6.04977,-51.51777 -1.66036,-27.91888 -14.64954,-149.96344 -22.78613,-214.095416 -0.71065,-5.6013 0.19415,-6.182356 38.8498,-24.949021 21.76757,-10.567785 52.5413,-24.124284 68.38607,-30.125552 26.40362,-10.000471 30.19853,-10.910122 45.45687,-10.896134 20.45601,0.01875 40.19007,3.079003 51.16728,7.934743 6.44015,2.848798 11.04315,7.634436 20.72025,21.542457 6.8425,9.834036 12.438,19.267315 12.4345,20.962844 0,1.695529 -3.6521,8.537603 -8.1079,15.20461 -4.4558,6.667009 -8.9729,15.305429 -10.0379,19.196489 -3.6529,13.34504 -21.92461,126.26063 -23.21082,143.43807 -0.70721,9.44493 -2.72172,32.15394 -4.47665,50.46447 -4.32596,45.13532 -2.80712,74.21793 6.17459,118.23101 3.85483,18.88985 8.91668,50.25508 11.24848,69.70052 8.7322,72.81959 18.9373,123.09491 31.8403,156.86029 0.4848,1.26881 -6.8329,-1.69795 -16.2617,-6.59278 -16.8394,-8.74197 -17.1814,-9.06936 -19.29647,-18.46939 -1.18426,-5.26332 -7.53659,-28.20698 -14.11626,-50.98592 -11.53022,-39.91781 -12.15924,-41.44003 -17.38574,-42.07331 -4.44533,-0.53864 -5.22346,0.008 -4.31728,3.03045 2.08689,6.96167 7.34457,49.28615 7.34457,59.12403 v 9.8407 l -25.75888,-11.04644 c -34.48208,-14.78728 -53.57578,-20.89573 -65.31547,-20.89573 -8.56175,0 -10.61768,0.89714 -16.91471,7.38098 -3.94258,4.05954 -7.16833,8.12355 -7.16833,9.03113 0,1.97582 -67.09979,78.58647 -77.54376,88.535 -4.01998,3.82927 -7.30905,6.36305 -7.30905,5.63063 z"
       id="path2003"
       inkscape:connector-curvature="0"
       transform="scale(0.26458333)" />
    <path
       style="opacity:1;vector-effect:none;fill:#999999;fill-opacity:1;stroke:none;stroke-width:7.80472422;stroke-linecap:butt;stroke-linejoin:miter;stroke-miterlimit:4;stroke-dasharray:none;stroke-dashoffset:0;stroke-opacity:1"
       d="m 815.03338,758.49425 c -26.39251,-2.65632 -36.21815,-7.94392 -57.01723,-30.68343 l -8.6903,-9.50105 16.61267,-13.9234 c 9.13698,-7.65787 21.18903,-18.48954 26.78234,-24.07038 12.55667,-12.52866 64.40475,-71.78758 69.9202,-79.91416 l 4.03626,-5.9471 -0.77688,23.57143 c -0.90556,27.47569 -2.29293,36.92625 -8.06713,54.95211 -4.98278,15.55522 -5.11491,20.02513 -0.9293,31.43741 4.93364,13.45182 9.96043,14.54419 32.59708,7.08366 13.33453,-4.39475 26.15232,-11.80511 32.23469,-18.63587 4.31614,-4.84723 10.44045,-19.55911 10.44045,-25.08017 0,-1.39987 -1.28331,-4.65005 -2.8518,-7.22261 -1.5685,-2.57256 -2.85421,-5.25306 -2.85714,-5.95665 -0.006,-1.46415 34.59902,-0.28962 37.10537,1.2594 1.02583,0.63399 -3.29161,6.11455 -11.66983,14.81369 -15.48831,16.08159 -33.7912,39.44805 -42.27744,53.9737 -9.92163,16.98252 -24.0048,27.13444 -41.52951,29.93676 l -5.47936,0.87618 -3.65478,-9.79022 c -9.87764,-26.45973 -21.43286,-54.9048 -22.05229,-54.28536 -0.38177,0.38176 -2.85715,12.47792 -5.50085,26.88033 -6.72107,36.61527 -7.81192,41.21755 -9.70789,40.95758 -0.91703,-0.12574 -3.91733,-0.45507 -6.66733,-0.73185 z"
       id="path2005"
       inkscape:connector-curvature="0"
       transform="scale(0.26458333)" />
    <path
       style="opacity:1;vector-effect:none;fill:#cccccc;fill-opacity:1;stroke:none;stroke-width:7.80472422;stroke-linecap:butt;stroke-linejoin:miter;stroke-miterlimit:4;stroke-dasharray:none;stroke-dashoffset:0;stroke-opacity:1"
       d="M 143.16403,907.88393 C 132.02391,905.27037 90.470616,887.353 60.273421,872.14232 43.119733,863.5018 24.825108,855.11658 19.618701,853.50849 14.412296,851.90039 3.0542755,847.2087 -5.6213431,843.0825 -45.728475,824.0072 -43.85567,825.07758 -42.884413,821.78517 c 0.494005,-1.6746 1.463729,-6.73578 2.154941,-11.24707 1.169056,-7.62999 7.368356,-23.59866 9.831315,-25.32431 0.595857,-0.41748 6.59956,-8.47334 13.341562,-17.90192 15.0697905,-21.07483 23.5833634,-29.23261 41.477863,-39.74448 11.818959,-6.94288 16.047025,-8.59108 28.381258,-11.06372 7.971351,-1.59801 14.650197,-2.71275 14.84188,-2.47721 0.373557,0.45904 5.120304,111.89448 5.064931,118.90518 -0.02509,3.17695 1.680274,5.84268 7.047117,11.01563 10.795373,10.40535 18.186766,13.49869 38.734776,16.21073 37.05362,4.89053 43.42453,5.2509 53.05279,3.00105 17.90427,-4.18378 49.19546,-15.1703 58.24044,-20.44861 12.0525,-7.03336 29.77959,-24.63288 34.93599,-34.68457 l 4.03076,-7.85744 -10.35958,-16.84429 c -5.69775,-9.26436 -10.08754,-17.11631 -9.75507,-17.44878 1.26455,-1.26455 33.67107,2.17999 40.96856,4.35461 7.77421,2.31668 44.23816,18.4972 46.39746,20.58842 2.33083,2.25733 -6.00997,15.34622 -14.31299,22.46083 -15.31696,13.12464 -38.18646,30.0585 -51.8705,38.40781 -18.00228,10.98409 -92.58716,49.67863 -102.71976,53.29089 -10.365,3.69511 -16.71537,4.48257 -23.4353,2.90601 z"
       id="path2007"
       inkscape:connector-curvature="0"
       transform="scale(0.26458333)" />
    <path
       style="opacity:1;vector-effect:none;fill:#b3b3b3;fill-opacity:1;stroke:none;stroke-width:7.80472422;stroke-linecap:butt;stroke-linejoin:miter;stroke-miterlimit:4;stroke-dasharray:none;stroke-dashoffset:0;stroke-opacity:1"
       d="m 80.726188,808.02616 c -0.198023,-2.66084 -4.217467,-91.26297 -4.238219,-93.42469 -0.02452,-2.55357 0.862611,-2.65518 15.331122,-1.75607 33.533309,2.08384 76.443889,6.92554 96.785719,10.92056 33.11332,6.50327 46.68918,8.41158 71.42857,10.04049 24.0253,1.58188 50.76615,5.04507 52.28878,6.77187 1.4834,1.68233 20.11532,37.44784 19.50832,37.44784 -0.30869,0 -7.86692,-3.27048 -16.79609,-7.26774 -8.92916,-3.99726 -20.87638,-8.45485 -26.54938,-9.90576 -10.53385,-2.6941 -48.31356,-5.68364 -71.82589,-5.68364 -27.23591,0 -75.68122,11.21371 -100.80867,23.33434 -15.78386,7.61359 -20.238467,11.22017 -31.171251,25.23709 -2.144919,2.75 -3.923774,4.67857 -3.953011,4.28571 z"
       id="path2009"
       inkscape:connector-curvature="0"
       transform="scale(0.26458333)" />
    <path
       style="opacity:1;vector-effect:none;fill:#999999;fill-opacity:1;stroke:none;stroke-width:7.80472422;stroke-linecap:butt;stroke-linejoin:miter;stroke-miterlimit:4;stroke-dasharray:none;stroke-dashoffset:0;stroke-opacity:1"
       d="m 871.17161,660.82514 c 2.0013,-7.99126 3.78743,-30.44677 4.17111,-52.43963 l 0.40494,-23.21207 5.1054,-0.002 c 6.69741,-0.003 24.24557,5.31409 42.38747,12.84316 l 14.5756,6.04902 3.68157,12.33852 c 2.02486,6.78618 4.8923,16.03494 6.37209,20.5528 l 2.69052,8.21429 h -14.05008 c -15.6103,0 -44.94923,4.48157 -51.49344,7.86572 -2.32681,1.20324 -6.59837,4.26497 -9.49236,6.80385 -5.22024,4.57968 -5.25462,4.58747 -4.35282,0.98655 z"
       id="path2011"
       inkscape:connector-curvature="0"
       transform="scale(0.26458333)" />
    <path
       style="opacity:1;vector-effect:none;fill:#808080;fill-opacity:1;stroke:none;stroke-width:7.80472422;stroke-linecap:butt;stroke-linejoin:miter;stroke-miterlimit:4;stroke-dasharray:none;stroke-dashoffset:0;stroke-opacity:1"
       d="m 125.03338,852.04023 c -22.11171,-2.9947 -29.067124,-5.38772 -37.699055,-12.97041 l -5.253695,-4.61509 2.72006,-9.66791 c 3.498587,-12.43503 15.78133,-27.93721 27.23487,-34.37341 l 7.71647,-4.33619 -0.94275,9.90304 c -3.06755,32.22289 -3.10209,31.24483 1.22365,34.64746 12.67558,9.97062 38.44197,5.80642 48.89838,-7.90265 l 3.55436,-4.66001 -6.6613,-8.94802 -6.66129,-8.94802 6.86372,-3.19591 c 6.28531,-2.92658 8.9705,-3.19536 31.86372,-3.18948 25.0794,0.006 36.55631,1.44562 51.73623,6.48758 l 6.79648,2.25742 -2.24467,4.34071 c -5.45601,10.55078 -24.31615,26.5351 -38.46544,32.6002 -3.84282,1.64722 -16.32969,5.85347 -27.7486,9.34721 -24.21018,7.40738 -29.8905,7.69834 -62.93114,3.22348 z"
       id="path2013"
       inkscape:connector-curvature="0"
       transform="scale(0.26458333)" />
    <path
       style="opacity:1;vector-effect:none;fill:#999999;fill-opacity:1;stroke:none;stroke-width:7.80472422;stroke-linecap:butt;stroke-linejoin:miter;stroke-miterlimit:4;stroke-dasharray:none;stroke-dashoffset:0;stroke-opacity:1"
       d="m 126.91162,805.81828 c 0.44276,-2.32138 1.22068,-8.59684 1.72872,-13.94547 1.05396,-11.09607 -0.25305,-10.07489 20.67875,-16.15661 28.12022,-8.17031 66.02222,-13.53935 80.3799,-11.38629 6.20447,0.93042 6.61562,1.32102 13.84689,13.15456 4.09891,6.70762 7.20542,12.44281 6.90337,12.74487 -0.30206,0.30205 -3.73348,-0.42519 -7.62539,-1.61609 -8.82346,-2.69992 -47.807,-5.40545 -61.8398,-4.29179 -6.35678,0.50448 -13.94214,2.27701 -19.28571,4.50665 -4.84431,2.02131 -11.53625,4.65551 -14.87098,5.85376 -3.33473,1.19826 -9.36111,5.1438 -13.39195,8.76788 l -7.32881,6.58923 z"
       id="path2015"
       inkscape:connector-curvature="0"
       transform="scale(0.26458333)" />
    <path
       style="opacity:1;vector-effect:none;fill:#4d4d4d;fill-opacity:1;stroke:none;stroke-width:7.80472422;stroke-linecap:butt;stroke-linejoin:miter;stroke-miterlimit:4;stroke-dasharray:none;stroke-dashoffset:0;stroke-opacity:1"
       d="m 133.11193,822.55653 c -1.30035,-1.43687 -2.36427,-2.98837 -2.36427,-3.44779 0,-1.18218 17.14408,-15.36829 18.57277,-15.36829 1.23576,0 9.99866,11.31575 9.99866,12.91153 0,0.50605 -3.14057,2.62941 -6.97904,4.71857 -8.19482,4.46018 -15.83835,4.93163 -19.22812,1.18598 z"
       id="path2017"
       inkscape:connector-curvature="0"
       transform="scale(0.26458333)" />
    <path
       style="opacity:1;vector-effect:none;fill:#999999;fill-opacity:1;stroke:none;stroke-width:7.80472422;stroke-linecap:butt;stroke-linejoin:miter;stroke-miterlimit:4;stroke-dasharray:none;stroke-dashoffset:0;stroke-opacity:1"
       d="m 864.76868,699.59724 c -2.06068,-6.44392 -2.04622,-7.43643 0.18198,-12.48675 l 2.42059,-5.48641 1.629,4.67295 c 1.19317,3.42273 3.26921,5.41737 7.75964,7.45538 12.63103,5.73268 19.33012,2.47522 22.98088,-11.17457 1.44618,-5.40709 2.60965,-6.7443 8.43756,-9.69752 7.33472,-3.71679 9.35692,-4.05889 12.4434,-2.10508 1.67501,1.06032 1.36718,2.60482 -1.81581,9.1106 -2.84661,5.81827 -5.79151,9.1829 -11.44582,13.07718 -8.33829,5.74279 -29.06402,13.5852 -35.98262,13.61546 -3.98059,0.0174 -4.56974,-0.60494 -6.6088,-6.98124 z"
       id="path2019"
       inkscape:connector-curvature="0"
       transform="scale(0.26458333)" />
    <path
       style="opacity:1;vector-effect:none;fill:#999999;fill-opacity:1;stroke:none;stroke-width:7.80472422;stroke-linecap:butt;stroke-linejoin:miter;stroke-miterlimit:4;stroke-dasharray:none;stroke-dashoffset:0;stroke-opacity:1"
       d="m 882.38293,686.71384 c -2.55446,-0.8809 -4.76873,-1.7259 -4.9206,-1.87777 -0.34781,-0.34781 0.43704,-2.67212 2.03188,-6.01736 0.88887,-1.86445 1.50379,-2.75025 2.82953,-4.07599 2.18749,-2.18749 6.3147,-4.90565 10.76458,-7.08951 4.96334,-2.43584 7.5823,-3.2681 10.80291,-3.433 l 2.58161,-0.13218 -3.36328,1.6504 c -4.09178,2.00789 -6.39173,3.50768 -7.97538,5.20073 -1.49424,1.59746 -2.02614,2.7971 -2.51989,5.6833 -0.46869,2.73971 -1.40299,5.69137 -2.55798,8.08122 -0.92088,1.90545 -2.25163,3.67717 -2.73162,3.6368 -0.1635,-0.0137 -2.3873,-0.74574 -4.94176,-1.62664 z"
       id="path2021"
       inkscape:connector-curvature="0"
       transform="scale(0.26458333)" />
    <path
       style="opacity:1;vector-effect:none;fill:#000080;fill-opacity:1;stroke:none;stroke-width:7.80472422;stroke-linecap:butt;stroke-linejoin:miter;stroke-miterlimit:4;stroke-dasharray:none;stroke-dashoffset:0;stroke-opacity:1"
       d=""
       id="path2023"
       inkscape:connector-curvature="0"
       transform="scale(0.26458333)" />
    <path
       style="opacity:1;vector-effect:none;fill:#999999;fill-opacity:1;stroke:none;stroke-width:7.80472422;stroke-linecap:butt;stroke-linejoin:miter;stroke-miterlimit:4;stroke-dasharray:none;stroke-dashoffset:0;stroke-opacity:1"
       d="m 913.46857,656.786 c -1.84708,-0.2551 -3.779,-0.49877 -4.29315,-0.54148 -0.55966,-0.0465 0.67285,-0.31113 3.07117,-0.65945 2.20329,-0.31999 4.02944,-0.54727 4.05812,-0.50507 0.24401,0.35905 1.15354,2.02386 1.15354,2.11146 0,0.14439 -0.0321,0.14112 -3.98968,-0.40546 z"
       id="path2025"
       inkscape:connector-curvature="0"
       transform="scale(0.26458333)" />
  </g>
</svg>
