<svg xmlns="http://www.w3.org/2000/svg" xmlns:xlink="http://www.w3.org/1999/xlink" width="561.905" height="966.003" viewBox="0 0 148.671 255.588"><defs><linearGradient id="a"><stop style="stop-color:#000;stop-opacity:1" offset="0"/><stop style="stop-color:#005000;stop-opacity:1" offset="1"/></linearGradient><linearGradient xlink:href="#a" id="b" x1="163.248" y1="248.144" x2="43.511" y2="39.674" gradientUnits="userSpaceOnUse"/></defs><path style="fill:url(#b);stroke-width:1;fill-opacity:1" d="M169.632 277.66c.302-.788.16-6.591-.25-10.165-.831-7.264-2.75-17.24-5.757-29.933-1.659-7-1.667-7.058-1.328-8.731.498-2.456 1.913-5.066 4.212-7.77 2.843-3.344 4.906-6.535 4.493-6.949-.083-.083-.151-.024-.151.132 0 .65-2.529 3.569-4.7 5.425-2.665 2.28-3.573 3.467-4.445 5.816-.514 1.383-.62 1.526-.63.852-.02-1.168.944-4.799 1.965-7.4.484-1.233.824-2.242.756-2.242-.23 0-1.867 3.814-2.614 6.086-.703 2.14-.751 2.212-.995 1.48-.51-1.527.924-5.516 5.553-15.45 4.87-10.452 6.694-15.113 8.172-20.88 2.11-8.235 2.261-17.209.408-24.285l-.485-1.852-.188 1.323c-1.133 7.973-2.609 11.858-8.492 22.357-2.977 5.313-3.97 7.389-5.573 11.642-.631 1.674-1.152 2.915-1.157 2.758-.006-.157.888-3.372 1.985-7.144 4.985-17.13 6.417-24.958 6.132-33.516-.163-4.875-.689-7.488-2.14-10.63-.917-1.983-1.865-3.15-1.13-1.39.998 2.389 1.36 4.993 1.35 9.705-.016 6.801-.926 10.925-5.284 23.945-3.07 9.173-3.726 11.548-4.202 15.203l-.33 2.524-.204-1.639c-.435-3.483.582-8.228 4.243-19.792 4.642-14.665 5.817-21.34 4.744-26.953-.21-1.098-.628-2.508-.927-3.132-.446-.93-.516-.992-.383-.342.677 3.317.542 9.677-.3 14.155-1.323 7.027-3.887 14.527-7.144 20.893-1.736 3.395-2.495 4.475-1.679 2.39 4.57-11.67 7.257-20.996 8.157-28.303.325-2.636.36-10.11.044-9.532-.119.218-.363 1.766-.543 3.44-.455 4.236-1.483 10.13-2.423 13.89-2.029 8.12-5.286 15.032-8.916 18.918l-1.36 1.455 2.09-4.538c5.333-11.586 7.505-19.93 7.496-28.8-.01-8.036-1.648-14.128-5.875-21.835-5.7-10.39-13.161-20.344-23.338-31.134-3.518-3.73-9.826-9.869-10.14-9.869-.09 0 .015.346.234.77 1.18 2.28 2.574 9.468 2.905 14.973.08 1.31.212 3.453.295 4.762.13 2.057-.094 9.015-.284 8.806-.037-.041-.267-2.277-.51-4.97-1.233-13.612-3.104-23.136-5.147-26.196-.876-1.31-8.439-8.913-8.025-8.067 1.148 2.352 2.87 11.957 4.031 22.49.7 6.347.628 7.407-.135 1.984-2.65-18.84-6.535-32.92-10.172-36.866-2.764-2.999-16.553-13.72-27.555-21.425-11.188-7.836-25.51-16.388-34.147-20.39l-2.557-1.184.75 1.237c.412.68.83 1.629.926 2.107l.176.869-1.615-1.045c-1.98-1.28-5.331-2.519-7.874-2.913-3.036-.47-3.172-.435-2.084.52 1.74 1.528 3.575 4.77 4.22 7.454.145.607.087.728-.348.728-.635 0-1.746-.462-2.745-1.14-.408-.278-.789-.46-.845-.403-.186.186 2.106 5.314 4.036 9.031 3.609 6.95 8.66 13.884 15.893 21.817 1.891 2.074 3.792 4.396 4.224 5.159 2.145 3.79 10.42 11.652 24.002 22.804 5.044 4.141 6.085 5.065 4.863 4.311-.381-.235-3-1.82-5.82-3.523-12.865-7.767-18.595-12.563-23.01-19.262l-1.549-2.349.147 1.423c1.768 17.11 8.216 29.595 19.76 38.265 1.19.894 2.167 1.918 2.881 3.024 1.532 2.37 4.43 5.161 7.358 7.087 4.122 2.712 7.582 4.259 20.108 8.993 2.401.908 6.122 2.531 8.269 3.607 2.146 1.077 3.902 1.887 3.902 1.8 0-.37-10.216-18.244-15.483-27.09-6.106-10.255-23.102-37.653-26.957-43.458-.266-.4-.42-.727-.344-.727.077 0 1.74 2.292 3.695 5.093 16.989 24.335 31.415 47.282 42.791 68.064a23165.94 23165.94 0 0 0 7.537 13.758c11.484 20.932 24.186 50.182 29.47 67.866 2.349 7.864 5.662 21.233 7.162 28.904 1.66 8.493 2.425 17.61 1.936 23.087l-.236 2.645 3.43 3.903c1.887 2.146 3.46 3.903 3.497 3.903.036 0 .139-.189.227-.419zm-11.991-65.226c.691-4.385 2.454-8.986 7.592-19.816 1.967-4.147 4.145-8.866 4.839-10.486 2.264-5.286 3.954-11.253 3.954-13.961 0-.652.119-1.26.264-1.35.407-.251.325 4.42-.122 6.96-.974 5.53-2.521 9.484-8.126 20.759-4.3 8.652-6.566 13.965-7.66 17.969-.709 2.591-1.154 2.546-.741-.075zm-45.182-104.94c.067-.258.127-.111.132.325.005.437-.05.647-.122.468-.073-.179-.077-.536-.01-.793zm41.324 126.348c-.1-.481-.32-1.017-.487-1.19-.75-.779-7.197-2.205-11.55-2.556-1.437-.116-1.546-.1-.66.104 3.765.866 4.978 1.186 6.746 1.776 1.092.364 2.918 1.13 4.06 1.702l2.074 1.04zm-.773-3.805c-.106-.423-.332-.856-.503-.962-.707-.441-4.982-1.255-7.32-1.394-2.85-.169-2.6.156.484.629 1.604.246 4.387 1.148 7.03 2.28.448.192.481.132.31-.553zm-.522-2.428c-.078-.254-.497-1.951-.931-3.77-.434-1.819-1.658-6.262-2.72-9.873l-1.93-6.565-3.97-1.94a278.66 278.66 0 0 0-7.673-3.586c-7.394-3.284-11.877-6.242-16.929-11.17-1.603-1.564-2.928-2.845-2.944-2.846-.146-.016.848 5.165 1.368 7.127 2.466 9.314 6.718 15.096 15.33 20.847 1.31.874 5.418 3.35 9.129 5.5 3.71 2.152 7.733 4.548 8.938 5.326 1.206.777 2.256 1.413 2.333 1.413.078 0 .077-.208 0-.463zm-6.243-21.95c0-.07-.908-2.706-2.017-5.857-3.365-9.556-7.224-19.04-12.289-30.203-2.847-6.274-11.286-23.205-14.937-29.969l-2.824-5.23-2.553-1.218c-3.266-1.557-7.4-3.205-14.857-5.92-9.054-3.298-12.85-5.221-15.781-7.993-.78-.737-1.417-1.203-1.417-1.036 0 .423 2.39 6.84 3.561 9.562 1.636 3.802 5.177 10.413 9.139 17.066 4.626 7.767 7.689 13.632 9.673 18.52 4.393 10.825 8.77 17.65 15.356 23.95 4.51 4.314 8.697 7.103 18.339 12.218 3.287 1.744 7.018 3.861 8.291 4.705 1.274.843 2.316 1.476 2.316 1.405z" transform="translate(-26.94 -22.49)"/></svg>