<svg xmlns="http://www.w3.org/2000/svg" width="210mm" height="297mm" viewBox="0 0 210 297"><path style="fill:#000;stroke-width:1" d="M-139.377 251.746c.1-.163-.065-.645-.368-1.07-1.97-2.768-11.72-7.93-21.707-11.494-18.336-6.542-27.24-8.865-46.17-12.046-17.592-2.955-32.255-4.29-51.065-4.65-7.229-.138-10.685.116-6.614.486 1.164.106 4.14.316 6.614.468 2.474.15 5.034.318 5.689.372.655.054 2.799.203 4.764.332 1.966.129 3.811.357 4.101.507.29.15 1.837.352 3.438.45 1.6.097 4.637.466 6.747.818 2.11.353 5.384.828 7.276 1.056 14.962 1.805 39.324 6.918 49.61 10.411 1.673.568 5.19 1.816 7.817 2.773 2.626.957 6.193 2.11 7.926 2.563 3.36.878 6.054 1.915 8.2 3.156 1.304.753 7.476 3.987 10.05 5.264 1.495.743 3.412 1.056 3.692.604zm2.106-3.886c.302-.789.16-6.592-.25-10.165-.832-7.264-2.75-17.241-5.758-29.933-1.658-7-1.667-7.058-1.327-8.732.498-2.455 1.912-5.065 4.212-7.77 2.843-3.343 4.906-6.535 4.492-6.949-.083-.082-.15-.023-.15.132 0 .65-2.529 3.57-4.7 5.426-2.665 2.28-3.573 3.467-4.445 5.815-.514 1.384-.62 1.526-.631.852-.02-1.167.945-4.798 1.966-7.4.484-1.232.824-2.241.756-2.241-.23 0-1.868 3.813-2.614 6.085-.704 2.141-.751 2.212-.996 1.48-.509-1.527.925-5.516 5.553-15.45 4.87-10.452 6.694-15.112 8.173-20.88 2.11-8.234 2.261-17.208.408-24.284l-.485-1.852-.188 1.323c-1.134 7.973-2.61 11.857-8.492 22.357-2.977 5.313-3.97 7.388-5.574 11.642-.63 1.673-1.151 2.914-1.157 2.757-.006-.156.888-3.371 1.986-7.143 4.985-17.131 6.417-24.958 6.132-33.517-.163-4.875-.69-7.488-2.14-10.63-.917-1.982-1.866-3.15-1.13-1.389.998 2.388 1.36 4.993 1.35 9.705-.016 6.8-.926 10.924-5.284 23.945-3.07 9.172-3.727 11.548-4.203 15.203l-.329 2.524-.204-1.64c-.436-3.483.581-8.227 4.243-19.791 4.642-14.665 5.817-21.341 4.743-26.954-.21-1.098-.627-2.507-.927-3.132-.446-.93-.515-.992-.382-.342.677 3.318.542 9.678-.3 14.156-1.323 7.026-3.887 14.526-7.144 20.893-1.736 3.394-2.495 4.474-1.679 2.39 4.569-11.671 7.256-20.997 8.157-28.304.325-2.635.36-10.11.044-9.531-.119.218-.363 1.766-.543 3.44-.455 4.236-1.483 10.13-2.423 13.89-2.03 8.12-5.286 15.031-8.916 18.917l-1.36 1.456 2.09-4.539c5.333-11.586 7.505-19.93 7.495-28.799-.009-8.037-1.647-14.129-5.875-21.836-5.698-10.39-13.16-20.344-23.337-31.133-3.518-3.73-9.826-9.87-10.14-9.87-.09 0 .015.347.234.77 1.179 2.28 2.574 9.468 2.905 14.973.079 1.31.211 3.453.294 4.763.131 2.056-.094 9.014-.284 8.805-.037-.04-.266-2.277-.51-4.969-1.232-13.613-3.103-23.136-5.146-26.196-.876-1.311-8.44-8.914-8.026-8.067 1.148 2.351 2.87 11.957 4.032 22.49.7 6.346.628 7.407-.135 1.984-2.65-18.841-6.535-32.921-10.172-36.867-2.764-2.998-16.554-13.72-27.555-21.425-11.188-7.835-25.511-16.387-34.147-20.39l-2.557-1.184.75 1.238c.412.68.829 1.628.926 2.106l.176.87-1.616-1.045c-1.98-1.28-5.33-2.52-7.873-2.913-3.036-.47-3.172-.436-2.084.52 1.74 1.527 3.575 4.769 4.219 7.454.145.607.088.727-.347.727-.635 0-1.746-.461-2.745-1.14-.409-.278-.789-.459-.845-.402-.186.186 2.106 5.314 4.036 9.03 3.609 6.95 8.66 13.884 15.892 21.817 1.892 2.075 3.793 4.396 4.225 5.16 2.144 3.789 10.42 11.652 24.001 22.803 5.045 4.142 6.086 5.065 4.864 4.312-.381-.235-3-1.82-5.821-3.524-12.865-7.766-18.594-12.563-23.01-19.262l-1.548-2.348.147 1.422c1.768 17.11 8.215 29.596 19.76 38.265 1.19.894 2.166 1.918 2.881 3.025 1.532 2.37 4.429 5.16 7.358 7.087 4.122 2.711 7.581 4.258 20.108 8.993 2.401.907 6.122 2.53 8.268 3.607 2.147 1.076 3.903 1.886 3.903 1.8 0-.37-10.216-18.245-15.483-27.09-6.107-10.256-23.102-37.654-26.957-43.458-.266-.4-.42-.728-.344-.728.077 0 1.74 2.292 3.695 5.093 16.989 24.336 31.415 47.282 42.791 68.064a23165.94 23165.94 0 0 0 7.537 13.759c11.484 20.931 24.185 50.181 29.469 67.865 2.35 7.865 5.663 21.233 7.163 28.905 1.66 8.492 2.425 17.61 1.936 23.086l-.236 2.646 3.43 3.902c1.886 2.147 3.46 3.903 3.496 3.903.037 0 .14-.188.228-.418zm-11.991-65.226c.691-4.385 2.454-8.987 7.592-19.816 1.967-4.148 4.145-8.867 4.839-10.487 2.264-5.286 3.954-11.253 3.954-13.96 0-.653.119-1.26.264-1.35.407-.252.324 4.42-.123 6.959-.973 5.531-2.52 9.484-8.125 20.759-4.3 8.652-6.566 13.965-7.66 17.97-.709 2.59-1.155 2.546-.741-.075zm-45.182-104.941c.067-.257.126-.11.132.326.005.436-.05.647-.122.468-.073-.18-.077-.537-.01-.794zm-71.843 145.566c-.082-.081-2.036-.18-4.344-.218-2.587-.044-3.638.003-2.74.121 1.746.231 7.294.307 7.084.097zm-11.913-.563a2.171 2.171 0 0 0-.926 0c-.255.066-.046.12.463.12.51 0 .718-.054.463-.12zm10.782-.347c.51-.22.508-.228-.05-.246-.32-.01-.654.1-.744.246-.193.313.066.313.794 0zm-23.283 0c.09-.146.044-.265-.101-.265-.146 0-.339.12-.429.265-.09.145-.044.264.102.264.145 0 .338-.119.428-.264zm3.373-.192a8.42 8.42 0 0 0-1.72 0c-.473.06-.086.107.86.107s1.333-.048.86-.107zm134.208-18.115c-.101-.482-.32-1.017-.488-1.191-.75-.778-7.196-2.205-11.549-2.556-1.437-.116-1.546-.099-.661.105 3.766.866 4.979 1.185 6.747 1.775 1.091.365 2.918 1.13 4.06 1.702l2.074 1.04zm-.773-3.806c-.106-.422-.332-.855-.503-.961-.708-.442-4.982-1.256-7.321-1.394-2.85-.17-2.6.155.484.628 1.605.246 4.387 1.149 7.03 2.28.448.192.482.132.31-.553zm-.522-2.427c-.079-.255-.498-1.952-.932-3.77-.434-1.82-1.657-6.262-2.72-9.873l-1.93-6.565-3.969-1.941a278.66 278.66 0 0 0-7.673-3.586c-7.394-3.284-11.877-6.242-16.929-11.17-1.603-1.563-2.928-2.844-2.944-2.846-.146-.015.848 5.165 1.367 7.127 2.467 9.315 6.719 15.097 15.331 20.847 1.31.875 5.417 3.35 9.128 5.501 3.711 2.151 7.734 4.547 8.94 5.325 1.205.778 2.255 1.414 2.332 1.414.078 0 .077-.209 0-.463zm-6.244-21.95c0-.071-.907-2.707-2.017-5.857-3.364-9.556-7.223-19.04-12.288-30.203-2.847-6.274-11.286-23.206-14.937-29.97l-2.824-5.23-2.554-1.218c-3.266-1.557-7.4-3.204-14.857-5.92-9.053-3.298-12.85-5.22-15.78-7.993-.78-.737-1.418-1.203-1.418-1.035 0 .422 2.39 6.839 3.562 9.562 1.636 3.801 5.176 10.413 9.138 17.065 4.626 7.768 7.69 13.632 9.674 18.521 4.393 10.824 8.77 17.65 15.355 23.949 4.511 4.314 8.698 7.104 18.34 12.218 3.287 1.744 7.018 3.862 8.291 4.705 1.274.844 2.315 1.476 2.315 1.406z"/><path style="fill:none;stroke:#000;stroke-width:2.065;stroke-linecap:butt;stroke-linejoin:miter;stroke-opacity:1;stroke-miterlimit:4;stroke-dasharray:none" d="M-23.252 47.905s7.216 21.381 13.363 34.478c6.147 13.096 10.958 22.985 13.096 34.745 2.138 11.76 7.484 16.57 5.078 25.925-2.405 9.354-3.207 19.778-4.81 24.589-1.604 4.81-7.484 26.192-7.484 26.192s-.267 3.207-3.475 9.622c-3.207 6.414-4.543 8.552-4.543 11.225s-2.138 3.742 1.336 5.345c3.475 1.604 13.898 6.95 16.304 7.217 2.405.267 12.294 6.414 18.976 9.087 6.682 2.673 12.561 5.612 15.501 5.345 2.94-.267 5.079-1.069 10.157-3.742 5.078-2.672 20.58-10.156 26.46-14.7 5.88-4.543 10.957-8.017 12.294-10.69l1.87-3.742-7.483-14.165 22.183 5.078 1.604-5.613v-3.742l7.216 11.493s1.337-1.069 8.286 0c6.949 1.07 6.949 1.604 11.225 2.138 4.276.535 20.313 2.94 20.313 2.94l-.535-12.561 8.553 13.363 12.027 1.336s.267-.534-.535-2.672c-.802-2.139-.802-4.544-.802-4.544l7.751 6.682 13.364 2.138 13.363 2.138 4.276 1.871 4.811-1.336 8.018.801s4.01-5.612 8.286-6.414c4.276-.802 9.087-4.276 9.087-4.276l8.553-5.346 8.82-5.88s11.492-7.483 14.165-10.69c2.672-3.208 3.207-5.079 3.207-5.079s-5.078-12.828-5.88-18.441c-.802-5.613-2.138-11.76-3.207-20.045-1.07-8.286-1.604-15.77-2.94-21.382-1.337-5.613-2.406-12.027-3.207-18.174-.802-6.147 1.87-23.52 1.87-28.598 0-5.078 2.673-18.709 2.673-18.709s2.406-16.303 3.742-20.847c1.336-4.544 7.216-7.484 3.207-12.294-4.009-4.811-4.276-8.286-10.423-9.89-6.148-1.603-16.036-1.336-16.036-1.336l-14.433 5.346-23.252 11.225 5.88 49.98s.534 19.243 1.87 22.183c1.337 2.94 1.871 10.958 1.871 10.958s-1.603 16.036-2.405 21.916c-.802 5.88-2.94 22.45-5.078 28.598-2.138 6.147-5.346 18.441-8.018 23.787-2.673 5.345-6.415 9.087-6.415 9.087l5.345 5.88s4.544 4.543 8.019 5.345c3.474.802 9.087 1.07 9.087 1.07l1.603-8.019 1.337-7.483 5.612 14.432s4.01.268 8.553-2.405c4.544-2.673 6.949-8.553 6.949-8.553s6.414-8.552 9.087-11.225 5.078-4.811 5.078-4.811l-4.81-4.544-3.208-10.69"/><path style="fill:none;stroke:#000;stroke-width:2.065;stroke-linecap:butt;stroke-linejoin:miter;stroke-opacity:1;stroke-miterlimit:4;stroke-dasharray:none" d="M196.443 189.825c14.7-11.493 16.304-14.967 16.304-14.967l14.165-16.036s2.405-5.078 5.078-5.346c2.673-.267 9.889 2.406 9.889 2.406l14.432 6.147 4.811 6.414s-2.94-5.88-2.672-8.82c.267-2.94-2.139-17.64-2.139-17.64s4.277 15.77 5.346 18.71c1.069 2.94 2.405 9.354 2.405 9.354l12.562 6.414"/><path style="fill:none;stroke:#000;stroke-width:2.065;stroke-linecap:butt;stroke-linejoin:miter;stroke-opacity:1;stroke-miterlimit:4;stroke-dasharray:none" d="M230.471 154.172c.189 7.843-.189 17.529-1.56 21.923-1.37 4.394-2.503 6-1.511 8.504.992 2.504.425 3.638 2.835 3.686 2.41.047 8.646-2.693 8.646-2.693s3.26-1.749 4.583-3.639c1.323-1.89 2.079-5.291 2.079-5.291l-2.504-4.441"/><path style="fill:none;stroke:#000;stroke-width:2.065;stroke-linecap:butt;stroke-linejoin:miter;stroke-opacity:1;stroke-miterlimit:4;stroke-dasharray:none" d="M255.228 172.173s-2.598-.283-6.472-.378c-3.875-.094-6.898.52-6.898.52s-5.34.662-7.088 1.512c-1.748.85-4.299 3.496-5.386 4.536-1.086 1.04-2.268 4.394-2.268 4.394"/><path style="fill:none;stroke:#000;stroke-width:2.065;stroke-linecap:butt;stroke-linejoin:miter;stroke-opacity:1;stroke-miterlimit:4;stroke-dasharray:none" d="M245.543 176.662s-1.37-1.607-2.835-1.701c-1.465-.095-3.496-.756-5.717.189-2.22.945-4.347 2.22-5.055 3.59-.71 1.37-.945 2.316-.945 2.316"/><path style="fill:none;stroke:#000;stroke-width:2.065;stroke-linecap:butt;stroke-linejoin:miter;stroke-opacity:1;stroke-miterlimit:4;stroke-dasharray:none" d="m230.518 177.182.473 3.874s-.19.992 1.464 1.417c1.654.425 2.552 1.37 3.544-.047s1.276-3.449 1.276-3.449-.19-.756 1.7-1.654a82.383 82.383 0 0 0 3.213-1.606l3.355.945"/><path style="fill:none;stroke:#000;stroke-width:2.06500006;stroke-linecap:butt;stroke-linejoin:miter;stroke-miterlimit:4;stroke-dasharray:none;stroke-opacity:1" d="M-23.252 47.905c13.23-9.087 12.962-9.622 19.377-10.691 6.414-1.07 6.548-1.604 14.432-2.005 7.885-.4 3.341-4.009 11.092-.801 7.75 3.207 32.206 12.561 39.021 14.566 6.816 2.004 22.45 5.479 22.45 5.479s4.277 8.419 4.544 10.156c.268 1.737.268 4.01.268 4.01s0-3.342.4-6.148c.401-2.806 1.136-5.145 1.136-5.145s-1.27-.334 5.68 1.002a1085.404 1085.404 0 0 0 15.368 2.807s1.737-.268 4.544-.134c2.806.134 4.677 1.47 6.949 1.87 2.271.402 13.363 1.204 15.501 1.204s8.553 1.069 10.023 1.069c1.47 0 5.88-.802 9.621-.668 3.742.133 9.489-.936 9.489-.936l8.285.401s.267-1.07 2.272-1.47c2.004-.4 8.419-1.203 8.419-1.203l6.013-1.737.936 6.414 1.47 4.544 1.603 6.415 1.604 8.018-1.07-11.627.669-14.7 15.1-5.078"/><path style="fill:none;stroke:#000;stroke-width:2.065;stroke-linecap:butt;stroke-linejoin:miter;stroke-opacity:1;stroke-miterlimit:4;stroke-dasharray:none" d="M83.388 194.636s-8.553-1.604-15.635-1.737c-7.083-.134-22.584-3.609-22.584-3.609s-17.774-1.87-22.852-2.004c-5.078-.134-4.81.534-9.354 1.203-4.544.668-4.811 1.737-9.088 4.009-4.276 2.271-7.617 7.082-7.617 7.082l-5.212 7.35"/><path style="fill:none;stroke:#000;stroke-width:2.065;stroke-linecap:butt;stroke-linejoin:miter;stroke-opacity:1;stroke-miterlimit:4;stroke-dasharray:none" d="M18.976 187.553c1.336 32.473 1.47 33.409 1.47 33.409s3.475 4.677 8.152 5.078c4.677.4 13.363 2.272 16.57 1.203 3.208-1.07 11.894-3.341 14.433-4.945 2.54-1.603 6.014-4.276 7.35-6.147 1.336-1.87 2.673-4.276 2.673-4.276l-6.548-10.691"/><path style="fill:none;stroke:#000;stroke-width:2.065;stroke-linecap:butt;stroke-linejoin:miter;stroke-opacity:1;stroke-miterlimit:4;stroke-dasharray:none" d="M90.872 208.801c-11.092-5.212-13.364-6.815-20.58-7.216l-7.216-.401s-6.014-.668-11.894.267c-5.88.936-8.686 1.737-12.829 2.806-4.142 1.07-9.755 3.876-11.225 4.945-1.47 1.069-5.212 6.014-5.346 6.548-.133.535-1.336 5.212-1.336 5.212"/><path style="fill:none;stroke:#000;stroke-width:2.065;stroke-linecap:butt;stroke-linejoin:miter;stroke-opacity:1;stroke-miterlimit:4;stroke-dasharray:none" d="M32.874 206.262c.267 6.147-1.87 11.893-.4 12.695 1.47.802 2.806 1.47 6.28.936 3.475-.535 5.345-3.475 5.345-3.475l-3.741-5.078"/><path style="fill:none;stroke:#000;stroke-width:2.065;stroke-linecap:butt;stroke-linejoin:miter;stroke-opacity:1;stroke-miterlimit:4;stroke-dasharray:none" d="M69.624 211.875c-6.816-2.94-10.557-3.074-14.3-3.074-3.741 0-9.086-.668-12.026.936-2.94 1.603-5.346 1.737-6.682 3.34-1.336 1.604-3.875 2.54-3.207 4.01.668 1.47 1.202 2.405 3.207 2.405 2.004 0 1.87.4 4.677-1.337l2.806-1.737"/><path style="opacity:1;vector-effect:none;fill:#fff;fill-opacity:1;stroke:none;stroke-width:7.80472422;stroke-linecap:butt;stroke-linejoin:miter;stroke-miterlimit:4;stroke-dasharray:none;stroke-dashoffset:0;stroke-opacity:1" d="M791.504 802.676c-5-1.999-30.91-7.095-57.578-11.324l-48.488-7.69-17.38-14.833c-9.56-8.158-18.086-14.833-18.948-14.833-1.507 0-.039 16.177 2.352 25.907 1.15 4.683 1.122 4.69-13.75 3.257-8.197-.79-16.721-2.123-18.944-2.963-2.222-.84-12.514-14.806-22.87-31.036-10.357-16.23-19.261-29.51-19.787-29.51-.527 0-.327 12.728.443 28.284.77 15.557.894 28.285.276 28.285-4.766 0-75.353-10.958-91.634-14.225-11.239-2.256-27.524-4.75-36.188-5.545l-15.753-1.444-15.33-24.659c-8.431-13.562-15.903-24.7-16.604-24.749-.7-.049-1.652 8.544-2.113 19.096-.481 11-1.862 20.208-3.237 21.582-1.85 1.85-11.75.26-43.343-6.966-45.576-10.423-59.181-12.581-97.832-15.522-14.62-1.112-40.53-4.711-57.58-7.998-32.28-6.224-89.692-12.333-115.196-12.258-32.529.097-64.576 12.15-86.063 32.37-10.478 9.86-11.496 16.068 9.618-58.677 8.632-30.557 17.256-65.105 19.164-76.772 1.909-11.667 5.752-32.123 8.54-45.457 6.524-31.2 5.733-43.138-4.886-73.74-4.433-12.78-10.071-32.638-12.528-44.132-6.454-30.195-15.78-55.416-41.58-112.443-19.476-43.048-55.553-134.094-55.553-140.198 0-2.23 33.787-26.171 45.586-32.3 9.534-4.954 42.709-11.636 67.09-13.514 9.771-.753 21.693-3.067 26.736-5.189l9.103-3.83 39.385 15.409c93.073 36.413 133.97 49.586 194.948 62.79 7.456 1.615 8.688 2.906 15.916 16.667 4.6 8.76 8.353 19.167 9.091 25.216 1.015 8.315 2.05 10.413 5.372 10.889 3.752.537 4.301-1.022 6.236-17.685 1.168-10.051 2.669-18.82 3.336-19.488.668-.668 16.953 1.75 36.19 5.374 19.237 3.623 40.063 6.427 46.281 6.23 6.566-.207 16.68 1.316 24.124 3.634 7.57 2.356 24.45 4.867 41.223 6.131 15.622 1.179 37.04 3.042 47.597 4.142 13.501 1.406 28.779 1.281 51.518-.42 17.778-1.332 41.952-2.472 53.718-2.535 12.925-.07 22.522-1.032 24.244-2.433 1.567-1.275 10.123-3.42 19.012-4.765 8.89-1.346 20.369-3.63 25.51-5.075l9.347-2.628 2.07 11.434c1.14 6.289 5.393 24.616 9.451 40.728 4.06 16.112 7.803 31.34 8.319 33.84.682 3.302 2.37 4.546 6.167 4.546 3.98 0 4.93-.778 3.978-3.258-2.177-5.673-3.861-61.757-2.34-77.935l1.46-15.534 24.19-8.092c16.733-5.598 24.413-7.348 24.917-5.68 1.791 5.94 7.376 64.288 9.299 97.163 1.163 19.889 2.892 39.89 3.84 44.447.949 4.557 3.153 14.649 4.899 22.427 1.745 7.778 3.19 18.927 3.208 24.774.078 23.417-14.4 134.756-22.13 170.185-4.821 22.097-27.069 92.252-34.262 108.042-3.049 6.692-10.302 18.355-16.12 25.92l-10.575 13.753 11.442 13.032c12.487 14.223 24.829 24.907 34.346 29.733 7.566 3.836 26.878 7.51 39.475 7.51h9.48l3.556-18.687c1.956-10.279 4.17-19.86 4.922-21.293.793-1.515 4.345 5.247 8.488 16.162l7.124 18.768 8.067.604c18.21 1.365 41.865-12.897 52.664-31.75 8.446-14.744 36.565-49.933 49.39-61.806 6.463-5.984 11.752-11.767 11.752-12.85 0-1.084-4.307-5.652-9.572-10.152-8.105-6.928-10.237-10.36-13.908-22.381-2.384-7.81-3.562-14.198-2.618-14.198 5.71 0 16.075 7.855 22.996 17.427 6.621 9.157 8.802 10.879 12.582 9.93 3.59-.901 4.826-.136 5.754 3.56.896 3.573 6.513 7.34 23.278 15.612 12.161 6 22.098 12.155 22.098 13.688 0 5.884-26.62 28.672-58.59 50.155-53.084 35.673-82.96 53.696-95.526 57.628-15.21 4.759-18.438 6.583-29.211 16.514l-8.998 8.294-19.5.093c-10.725.05-20.864.714-22.53 1.473-1.668.76-7.122-.254-12.123-2.253z" transform="scale(.26458)"/><path style="opacity:1;vector-effect:none;fill:#f9f9f9;fill-opacity:1;stroke:none;stroke-width:7.80472422;stroke-linecap:butt;stroke-linejoin:miter;stroke-miterlimit:4;stroke-dasharray:none;stroke-dashoffset:0;stroke-opacity:1" d="M771.301 686.787c0-.732 1.808-5.917 4.017-11.522 9.224-23.402 30.513-94.808 34.237-114.837 5.123-27.55 13.045-85.169 17.393-126.496 3.649-34.686 3.078-47.421-3.213-71.606-2.417-9.295-4.689-28.638-6.05-51.518-1.66-27.918-14.649-149.963-22.786-214.095-.71-5.601.195-6.182 38.85-24.949 21.768-10.568 52.542-24.124 68.386-30.126 26.404-10 30.199-10.91 45.457-10.896 20.456.019 40.19 3.08 51.167 7.935 6.44 2.849 11.044 7.634 20.72 21.542 6.843 9.835 12.439 19.268 12.435 20.963 0 1.696-3.652 8.538-8.108 15.205s-8.973 15.305-10.038 19.196c-3.653 13.345-21.924 126.261-23.21 143.439-.708 9.444-2.722 32.153-4.477 50.464-4.326 45.135-2.807 74.218 6.175 118.231 3.854 18.89 8.916 50.255 11.248 69.7 8.732 72.82 18.937 123.095 31.84 156.86.485 1.27-6.833-1.697-16.261-6.592-16.84-8.742-17.182-9.07-19.297-18.47-1.184-5.263-7.536-28.206-14.116-50.985-11.53-39.918-12.16-41.44-17.386-42.074-4.445-.538-5.223.008-4.317 3.03 2.087 6.963 7.344 49.287 7.344 59.125v9.84l-25.758-11.046c-34.483-14.787-53.576-20.896-65.316-20.896-8.562 0-10.618.898-16.915 7.381-3.942 4.06-7.168 8.124-7.168 9.032 0 1.975-67.1 78.586-77.544 88.535-4.02 3.829-7.309 6.363-7.309 5.63z" transform="scale(.26458)"/><path style="opacity:1;vector-effect:none;fill:#999;fill-opacity:1;stroke:none;stroke-width:7.80472422;stroke-linecap:butt;stroke-linejoin:miter;stroke-miterlimit:4;stroke-dasharray:none;stroke-dashoffset:0;stroke-opacity:1" d="M815.033 758.494c-26.392-2.656-36.218-7.944-57.017-30.683l-8.69-9.501 16.613-13.924c9.136-7.658 21.189-18.49 26.782-24.07 12.557-12.529 64.405-71.788 69.92-79.914l4.036-5.947-.777 23.571c-.905 27.476-2.292 36.926-8.067 54.952-4.982 15.555-5.115 20.025-.929 31.438 4.934 13.451 9.96 14.544 32.597 7.083 13.335-4.394 26.152-11.805 32.235-18.636 4.316-4.847 10.44-19.559 10.44-25.08 0-1.4-1.283-4.65-2.852-7.222-1.568-2.573-2.854-5.253-2.857-5.957-.006-1.464 34.6-.29 37.106 1.26 1.025.633-3.292 6.114-11.67 14.813-15.488 16.082-33.791 39.448-42.278 53.974-9.921 16.982-24.004 27.134-41.53 29.937l-5.478.876-3.655-9.79c-9.878-26.46-21.433-54.905-22.053-54.286-.381.382-2.857 12.478-5.5 26.88-6.721 36.616-7.812 41.218-9.708 40.958-.917-.126-3.918-.455-6.668-.732z" transform="scale(.26458)"/><path style="opacity:1;vector-effect:none;fill:#ccc;fill-opacity:1;stroke:none;stroke-width:7.80472422;stroke-linecap:butt;stroke-linejoin:miter;stroke-miterlimit:4;stroke-dasharray:none;stroke-dashoffset:0;stroke-opacity:1" d="M143.164 907.884c-11.14-2.614-52.693-20.531-82.89-35.742-17.154-8.64-35.449-17.025-40.655-18.634-5.207-1.608-16.565-6.3-25.24-10.426-40.107-19.075-38.235-18.004-37.263-21.297.494-1.674 1.463-6.736 2.155-11.247 1.169-7.63 7.368-23.599 9.83-25.324.597-.418 6.6-8.474 13.342-17.902 15.07-21.075 23.584-29.233 41.478-39.745 11.82-6.942 16.047-8.59 28.382-11.063 7.97-1.598 14.65-2.713 14.841-2.478.374.46 5.12 111.895 5.065 118.906-.025 3.177 1.68 5.842 7.047 11.015 10.796 10.406 18.187 13.499 38.735 16.211 37.054 4.89 43.425 5.25 53.053 3.001 17.904-4.184 49.195-15.17 58.24-20.449 12.053-7.033 29.78-24.632 34.936-34.684l4.031-7.858-10.36-16.844c-5.697-9.264-10.087-17.116-9.754-17.449 1.264-1.264 33.67 2.18 40.968 4.355 7.774 2.317 44.238 18.497 46.398 20.588 2.33 2.258-6.01 15.347-14.313 22.461-15.317 13.125-38.187 30.059-51.87 38.408-18.003 10.984-92.588 49.679-102.72 53.29-10.366 3.696-16.716 4.483-23.436 2.907z" transform="scale(.26458)"/><path style="opacity:1;vector-effect:none;fill:#b3b3b3;fill-opacity:1;stroke:none;stroke-width:7.80472422;stroke-linecap:butt;stroke-linejoin:miter;stroke-miterlimit:4;stroke-dasharray:none;stroke-dashoffset:0;stroke-opacity:1" d="M80.726 808.026c-.198-2.66-4.217-91.263-4.238-93.425-.025-2.553.863-2.655 15.331-1.756 33.533 2.084 76.444 6.926 96.786 10.921 33.113 6.503 46.689 8.412 71.428 10.04 24.026 1.582 50.767 5.046 52.29 6.772 1.483 1.683 20.114 37.448 19.507 37.448-.308 0-7.866-3.27-16.796-7.268-8.929-3.997-20.876-8.454-26.549-9.905-10.534-2.694-48.314-5.684-71.826-5.684-27.236 0-75.681 11.214-100.809 23.334-15.783 7.614-20.238 11.22-31.17 25.237-2.146 2.75-3.925 4.679-3.954 4.286z" transform="scale(.26458)"/><path style="opacity:1;vector-effect:none;fill:#999;fill-opacity:1;stroke:none;stroke-width:7.80472422;stroke-linecap:butt;stroke-linejoin:miter;stroke-miterlimit:4;stroke-dasharray:none;stroke-dashoffset:0;stroke-opacity:1" d="M871.172 660.825c2-7.991 3.787-30.447 4.17-52.44l.406-23.212 5.105-.002c6.697-.003 24.246 5.315 42.388 12.844l14.575 6.049 3.682 12.338c2.025 6.786 4.892 16.035 6.372 20.553l2.69 8.214h-14.05c-15.61 0-44.949 4.482-51.493 7.866-2.327 1.203-6.599 4.265-9.493 6.804-5.22 4.58-5.254 4.587-4.352.986z" transform="scale(.26458)"/><path style="opacity:1;vector-effect:none;fill:gray;fill-opacity:1;stroke:none;stroke-width:7.80472422;stroke-linecap:butt;stroke-linejoin:miter;stroke-miterlimit:4;stroke-dasharray:none;stroke-dashoffset:0;stroke-opacity:1" d="M125.033 852.04c-22.111-2.994-29.067-5.387-37.699-12.97l-5.253-4.615 2.72-9.668c3.498-12.435 15.781-27.937 27.235-34.374l7.716-4.336-.943 9.903c-3.067 32.223-3.102 31.245 1.224 34.648 12.676 9.97 38.442 5.806 48.898-7.903l3.555-4.66-6.662-8.948-6.66-8.948 6.863-3.196c6.285-2.926 8.97-3.195 31.864-3.19 25.079.007 36.556 1.446 51.736 6.488l6.796 2.258-2.244 4.34c-5.456 10.551-24.317 26.535-38.466 32.6-3.843 1.648-16.33 5.854-27.748 9.348-24.21 7.407-29.891 7.698-62.932 3.223z" transform="scale(.26458)"/><path style="opacity:1;vector-effect:none;fill:#999;fill-opacity:1;stroke:none;stroke-width:7.80472422;stroke-linecap:butt;stroke-linejoin:miter;stroke-miterlimit:4;stroke-dasharray:none;stroke-dashoffset:0;stroke-opacity:1" d="M126.912 805.818c.442-2.321 1.22-8.597 1.728-13.945 1.054-11.096-.253-10.075 20.68-16.157 28.12-8.17 66.021-13.54 80.379-11.386 6.204.93 6.616 1.32 13.847 13.154 4.099 6.708 7.205 12.443 6.903 12.745-.302.302-3.733-.425-7.625-1.616-8.824-2.7-47.807-5.405-61.84-4.292-6.357.505-13.942 2.277-19.286 4.507-4.844 2.021-11.536 4.656-14.87 5.854-3.335 1.198-9.362 5.144-13.393 8.768l-7.328 6.589z" transform="scale(.26458)"/><path style="opacity:1;vector-effect:none;fill:#4d4d4d;fill-opacity:1;stroke:none;stroke-width:7.80472422;stroke-linecap:butt;stroke-linejoin:miter;stroke-miterlimit:4;stroke-dasharray:none;stroke-dashoffset:0;stroke-opacity:1" d="M133.112 822.557c-1.3-1.437-2.364-2.989-2.364-3.448 0-1.182 17.144-15.369 18.572-15.369 1.236 0 10 11.316 10 12.912 0 .506-3.141 2.63-6.98 4.719-8.195 4.46-15.838 4.931-19.228 1.186z" transform="scale(.26458)"/><path style="opacity:1;vector-effect:none;fill:#999;fill-opacity:1;stroke:none;stroke-width:7.80472422;stroke-linecap:butt;stroke-linejoin:miter;stroke-miterlimit:4;stroke-dasharray:none;stroke-dashoffset:0;stroke-opacity:1" d="M864.769 699.597c-2.061-6.444-2.047-7.436.182-12.487l2.42-5.486 1.63 4.673c1.192 3.423 3.268 5.417 7.759 7.455 12.63 5.733 19.33 2.476 22.98-11.174 1.447-5.407 2.61-6.744 8.438-9.698 7.335-3.716 9.357-4.059 12.444-2.105 1.675 1.06 1.367 2.605-1.816 9.11-2.847 5.82-5.792 9.184-11.446 13.078-8.338 5.743-29.064 13.585-35.983 13.615-3.98.018-4.57-.604-6.608-6.98z" transform="scale(.26458)"/><path style="opacity:1;vector-effect:none;fill:#999;fill-opacity:1;stroke:none;stroke-width:7.80472422;stroke-linecap:butt;stroke-linejoin:miter;stroke-miterlimit:4;stroke-dasharray:none;stroke-dashoffset:0;stroke-opacity:1" d="M882.383 686.714c-2.555-.881-4.769-1.726-4.92-1.878-.348-.348.436-2.672 2.031-6.017.89-1.865 1.504-2.75 2.83-4.076 2.187-2.188 6.314-4.906 10.764-7.09 4.964-2.436 7.583-3.268 10.803-3.433l2.582-.132-3.363 1.65c-4.092 2.008-6.392 3.508-7.976 5.201-1.494 1.598-2.026 2.797-2.52 5.683-.468 2.74-1.403 5.692-2.558 8.082-.92 1.905-2.251 3.677-2.731 3.636-.164-.013-2.388-.745-4.942-1.626zM913.469 656.786c-1.848-.255-3.78-.499-4.294-.541-.56-.047.673-.312 3.072-.66 2.203-.32 4.029-.547 4.058-.505.244.359 1.153 2.024 1.153 2.111 0 .145-.032.142-3.99-.405z" transform="scale(.26458)"/></svg>