<svg xmlns="http://www.w3.org/2000/svg" width="497.837" height="290.124" viewBox="0 0 131.719 76.762"><path style="opacity:.94800002;vector-effect:none;fill:gray;fill-opacity:1;stroke:none;stroke-width:3.59999967;stroke-linecap:butt;stroke-linejoin:miter;stroke-miterlimit:4;stroke-dasharray:none;stroke-dashoffset:0;stroke-opacity:1" d="M180.833 58.036a44.318 13.418 34.489 0 0-19.298-16.1A44.318 13.418 34.489 0 0 117.409 27.9a44.318 13.418 34.489 0 0 .183 6.87 44.318 13.418 34.489 0 1 37.88 16.344 44.318 13.418 34.489 0 1 28.747 29.284 44.318 13.418 34.489 0 0 6.246-2.309 44.318 13.418 34.489 0 0-9.632-20.053z" transform="translate(-59.528 -12.838)"/><path style="opacity:1;vector-effect:none;fill:#666;fill-opacity:1;stroke:none;stroke-width:13.60629845;stroke-linecap:butt;stroke-linejoin:miter;stroke-miterlimit:4;stroke-dasharray:none;stroke-dashoffset:0;stroke-opacity:1" d="M147.52 25.932a50.714 167.5 77.128 0 0-94.174 12.435 50.714 167.5 77.128 0 0-151.994 86.754 50.714 167.5 77.128 0 0 19.572 17.08A50.714 167.5 77.128 0 1 63.346 78.723 50.714 167.5 77.128 0 1 218.36 73.77a50.714 167.5 77.128 0 0 9.573-23.28 50.714 167.5 77.128 0 0-80.414-24.558Z" transform="matrix(.26458 0 0 .26458 26.6 -6.843)"/><path style="opacity:1;vector-effect:none;fill:#ccc;fill-opacity:1;stroke:none;stroke-width:13.60629749;stroke-linecap:butt;stroke-linejoin:miter;stroke-miterlimit:4;stroke-dasharray:none;stroke-dashoffset:0;stroke-opacity:1" d="M224.969 44.555a50.714 167.5 77.128 0 1 2.965 5.935 50.714 167.5 77.128 0 1-27.85 38.37 38.621 21.328 72.886 0 0 .033.064 50.714 167.5 77.128 0 1-124.13 48.441 50.714 167.5 77.128 0 1-132.999 10.293 38.621 21.328 82.098 0 0 .002-.025 50.714 167.5 77.128 0 1-10.308-1.887 50.714 167.5 77.128 0 1-.27-.072 50.714 167.5 77.128 0 1-8.625-2.367 50.714 167.5 77.128 0 1-.336-.118 50.714 167.5 77.128 0 1-22.1-18.068 50.714 167.5 77.128 0 1 .618-8.935 38.621 21.328 82.098 0 0-1.856 26.21 38.621 21.328 82.098 0 0 19.258 34.143 50.714 167.5 77.128 0 0 166.615 1.184 50.714 167.5 77.128 0 0 149.875-74.016 38.621 21.328 72.886 0 0 1.327-36.78 38.621 21.328 72.886 0 0-12.22-22.372Zm-317.91 62.004a38.621 21.328 82.098 0 0-.579.753 50.714 167.5 77.128 0 1 .579-.753zm-2.28 3.306a38.621 21.328 82.098 0 0-1.412 2.744 50.714 167.5 77.128 0 1 1.412-2.744z" transform="matrix(.26458 0 0 .26458 26.6 -6.843)"/><path style="opacity:1;vector-effect:none;fill:#e6e6e6;fill-opacity:1;stroke:none;stroke-width:3.59999943;stroke-linecap:butt;stroke-linejoin:miter;stroke-miterlimit:4;stroke-dasharray:none;stroke-dashoffset:0;stroke-opacity:1" d="M191.09 76.448a44.318 13.418 34.489 0 1-.625 1.641 44.318 13.418 34.489 0 1-12.459 1.456 5.643 10.219 30.247 0 0-.007.018 44.318 13.418 34.489 0 1-31.675-15.479 44.318 13.418 34.489 0 1-25.84-24.041 5.643 10.219 39.459 0 0 .005-.004 44.318 13.418 34.489 0 1-1.48-2.345 44.318 13.418 34.489 0 1-.035-.065 44.318 13.418 34.489 0 1-1.085-2.103 44.318 13.418 34.489 0 1-.037-.087 44.318 13.418 34.489 0 1-.444-7.54 44.318 13.418 34.489 0 1 1.85-1.48 5.643 10.219 39.459 0 0-5.434 4.336 5.643 10.219 39.459 0 0-3.194 9.867 44.318 13.418 34.489 0 0 29.63 32.642 44.318 13.418 34.489 0 0 41.268 15.906 5.643 10.219 30.247 0 0 7.396-6.334 5.643 10.219 30.247 0 0 2.165-6.388zm-69.046-50.764a5.643 10.219 39.459 0 0-.25.022 44.318 13.418 34.489 0 1 .25-.022zm-1.052.149a5.643 10.219 39.459 0 0-.787.217 44.318 13.418 34.489 0 1 .787-.217z" transform="translate(-59.528 -12.838)"/></svg>