<?xml version="1.0" encoding="UTF-8" standalone="no"?>
<!-- Created with Inkscape (http://www.inkscape.org/) -->

<svg
   xmlns:dc="http://purl.org/dc/elements/1.1/"
   xmlns:cc="http://creativecommons.org/ns#"
   xmlns:rdf="http://www.w3.org/1999/02/22-rdf-syntax-ns#"
   xmlns:svg="http://www.w3.org/2000/svg"
   xmlns="http://www.w3.org/2000/svg"
   xmlns:sodipodi="http://sodipodi.sourceforge.net/DTD/sodipodi-0.dtd"
   xmlns:inkscape="http://www.inkscape.org/namespaces/inkscape"
   width="131.71925mm"
   height="76.761894mm"
   viewBox="0 0 131.71925 76.761894"
   version="1.1"
   id="svg8"
   inkscape:version="0.92.4 (5da689c313, 2019-01-14)"
   sodipodi:docname="rings.svg">
  <defs
     id="defs2" />
  <sodipodi:namedview
     id="base"
     pagecolor="#ffffff"
     bordercolor="#666666"
     borderopacity="1.0"
     inkscape:pageopacity="0.0"
     inkscape:pageshadow="2"
     inkscape:zoom="1.4"
     inkscape:cx="255.63791"
     inkscape:cy="197.86211"
     inkscape:document-units="mm"
     inkscape:current-layer="layer1"
     showgrid="false"
     fit-margin-top="0"
     fit-margin-left="0"
     fit-margin-right="0"
     fit-margin-bottom="0"
     inkscape:window-width="1920"
     inkscape:window-height="1017"
     inkscape:window-x="1072"
     inkscape:window-y="394"
     inkscape:window-maximized="1" />
  <metadata
     id="metadata5">
    <rdf:RDF>
      <cc:Work
         rdf:about="">
        <dc:format>image/svg+xml</dc:format>
        <dc:type
           rdf:resource="http://purl.org/dc/dcmitype/StillImage" />
        <dc:title></dc:title>
      </cc:Work>
    </rdf:RDF>
  </metadata>
  <g
     inkscape:label="Layer 1"
     inkscape:groupmode="layer"
     id="layer1"
     transform="translate(-59.527938,-12.837699)">
    <path
       inkscape:connector-curvature="0"
       style="opacity:0.94800002;vector-effect:none;fill:#808080;fill-opacity:1;stroke:none;stroke-width:3.59999967;stroke-linecap:butt;stroke-linejoin:miter;stroke-miterlimit:4;stroke-dasharray:none;stroke-dashoffset:0;stroke-opacity:1"
       d="m 180.83343,58.036099 a 44.317707,13.418155 34.488776 0 0 -19.29848,-16.101015 44.317707,13.418155 34.488776 0 0 -44.12629,-14.035496 44.317707,13.418155 34.488776 0 0 0.18337,6.870625 44.317707,13.418155 34.488776 0 1 37.88047,16.343846 44.317707,13.418155 34.488776 0 1 28.74632,29.284117 44.317707,13.418155 34.488776 0 0 6.24659,-2.309051 44.317707,13.418155 34.488776 0 0 -9.63198,-20.053026 z"
       id="path844-4-7" />
    <g
       id="g928"
       transform="translate(20.728054,-18.125213)">
      <g
         id="g953">
        <path
           inkscape:connector-curvature="0"
           style="opacity:1;vector-effect:none;fill:#666666;fill-opacity:1;stroke:none;stroke-width:13.60629845;stroke-linecap:butt;stroke-linejoin:miter;stroke-miterlimit:4;stroke-dasharray:none;stroke-dashoffset:0;stroke-opacity:1"
           d="M 147.51953,25.931641 A 50.714286,167.5 77.127693 0 0 53.345703,38.367188 50.714286,167.5 77.127693 0 0 -98.648438,125.12109 50.714286,167.5 77.127693 0 0 -79.076172,142.20117 50.714286,167.5 77.127693 0 1 63.345703,78.722656 50.714286,167.5 77.127693 0 1 218.36133,73.769531 50.714286,167.5 77.127693 0 0 227.93359,50.490234 50.714286,167.5 77.127693 0 0 147.51953,25.931641 Z"
           transform="matrix(0.26458333,0,0,0.26458333,65.399849,24.119579)"
           id="path844-4" />
        <path
           inkscape:connector-curvature="0"
           style="opacity:1;vector-effect:none;fill:#cccccc;fill-opacity:1;stroke:none;stroke-width:13.60629749;stroke-linecap:butt;stroke-linejoin:miter;stroke-miterlimit:4;stroke-dasharray:none;stroke-dashoffset:0;stroke-opacity:1"
           d="m 224.96875,44.554688 a 50.714285,167.5 77.127693 0 1 2.96484,5.935546 50.714285,167.5 77.127693 0 1 -27.84961,38.369141 38.621442,21.327936 72.885502 0 0 0.0332,0.06445 50.714287,167.5 77.127693 0 1 -124.130862,48.441405 50.714287,167.5 77.127693 0 1 -132.998047,10.29297 38.621442,21.327936 82.097668 0 0 0.002,-0.0254 50.714285,167.5 77.127693 0 1 -10.308593,-1.88672 50.714287,167.5 77.127693 0 1 -0.269532,-0.0723 50.714285,167.5 77.127693 0 1 -8.625,-2.36719 50.714287,167.5 77.127693 0 1 -0.335937,-0.11719 50.714285,167.5 77.127693 0 1 -22.09961,-18.06836 50.714285,167.5 77.127693 0 1 0.617188,-8.93554 38.621442,21.327936 82.097668 0 0 -1.855469,26.21093 38.621442,21.327936 82.097668 0 0 19.257813,34.14258 50.714287,167.5 77.127693 0 0 166.615234,1.1836 A 50.714287,167.5 77.127693 0 0 235.86133,103.70703 38.621442,21.327936 72.885502 0 0 237.1875,66.927734 38.621442,21.327936 72.885502 0 0 224.96875,44.554688 Z M -92.941406,106.55859 a 38.621442,21.327936 82.097668 0 0 -0.578125,0.75391 50.714285,167.5 77.127693 0 1 0.578125,-0.75391 z m -2.279297,3.30664 a 38.621442,21.327936 82.097668 0 0 -1.412109,2.74415 50.714285,167.5 77.127693 0 1 1.412109,-2.74415 z"
           transform="matrix(0.26458333,0,0,0.26458333,65.399849,24.119579)"
           id="path844-9" />
      </g>
    </g>
    <path
       inkscape:connector-curvature="0"
       style="opacity:1;vector-effect:none;fill:#e6e6e6;fill-opacity:1;stroke:none;stroke-width:3.59999943;stroke-linecap:butt;stroke-linejoin:miter;stroke-miterlimit:4;stroke-dasharray:none;stroke-dashoffset:0;stroke-opacity:1"
       d="m 191.08932,76.448274 a 44.317707,13.418154 34.488776 0 1 -0.62391,1.640851 44.317707,13.418154 34.488776 0 1 -12.45934,1.456034 5.6430163,10.21859 30.246585 0 0 -0.007,0.01801 44.317707,13.418155 34.488776 0 1 -31.67553,-15.478718 44.317707,13.418155 34.488776 0 1 -25.83961,-24.041655 5.6430163,10.21859 39.458751 0 0 0.005,-0.0042 44.317707,13.418154 34.488776 0 1 -1.48031,-2.344579 44.317707,13.418155 34.488776 0 1 -0.0342,-0.06542 44.317707,13.418154 34.488776 0 1 -1.08505,-2.103 44.317707,13.418155 34.488776 0 1 -0.0374,-0.08639 44.317707,13.418154 34.488776 0 1 -0.44396,-7.539663 44.317707,13.418154 34.488776 0 1 1.8498,-1.48132 5.6430163,10.21859 39.458751 0 0 -5.43417,4.33644 5.6430163,10.21859 39.458751 0 0 -3.19399,9.867403 44.317707,13.418155 34.488776 0 0 29.6308,32.641672 44.317707,13.418155 34.488776 0 0 41.26714,15.906017 5.6430163,10.21859 30.246585 0 0 7.3963,-6.333549 5.6430163,10.21859 30.246585 0 0 2.16476,-6.387975 z M 122.04444,25.683575 a 5.6430163,10.21859 39.458751 0 0 -0.25035,0.02259 44.317707,13.418154 34.488776 0 1 0.25035,-0.02259 z m -1.05209,0.148987 a 5.6430163,10.21859 39.458751 0 0 -0.7872,0.216964 44.317707,13.418154 34.488776 0 1 0.7872,-0.216964 z"
       id="path844-9-2" />
  </g>
</svg>
