<svg xmlns="http://www.w3.org/2000/svg" width="497.837" height="290.124" viewBox="0 0 131.719 76.762"><path style="opacity:1;vector-effect:none;fill:#666;fill-opacity:1;stroke:none;stroke-width:13.60629845;stroke-linecap:butt;stroke-linejoin:miter;stroke-miterlimit:4;stroke-dasharray:none;stroke-dashoffset:0;stroke-opacity:1" d="M147.52 25.932a50.714 167.5 77.128 0 0-94.174 12.435 50.714 167.5 77.128 0 0-151.994 86.754 50.714 167.5 77.128 0 0 19.572 17.08A50.714 167.5 77.128 0 1 63.346 78.723 50.714 167.5 77.128 0 1 218.36 73.77a50.714 167.5 77.128 0 0 9.573-23.28 50.714 167.5 77.128 0 0-80.414-24.558Z" transform="matrix(.26458 0 0 .26458 26.6 -6.843)"/><path style="opacity:1;vector-effect:none;fill:#ccc;fill-opacity:1;stroke:none;stroke-width:13.60629749;stroke-linecap:butt;stroke-linejoin:miter;stroke-miterlimit:4;stroke-dasharray:none;stroke-dashoffset:0;stroke-opacity:1" d="M224.969 44.555a50.714 167.5 77.128 0 1 2.965 5.935 50.714 167.5 77.128 0 1-27.85 38.37 38.621 21.328 72.886 0 0 .033.064 50.714 167.5 77.128 0 1-124.13 48.441 50.714 167.5 77.128 0 1-132.999 10.293 38.621 21.328 82.098 0 0 .002-.025 50.714 167.5 77.128 0 1-10.308-1.887 50.714 167.5 77.128 0 1-.27-.072 50.714 167.5 77.128 0 1-8.625-2.367 50.714 167.5 77.128 0 1-.336-.118 50.714 167.5 77.128 0 1-22.1-18.068 50.714 167.5 77.128 0 1 .618-8.935 38.621 21.328 82.098 0 0-1.856 26.21 38.621 21.328 82.098 0 0 19.258 34.143 50.714 167.5 77.128 0 0 166.615 1.184 50.714 167.5 77.128 0 0 149.875-74.016 38.621 21.328 72.886 0 0 1.327-36.78 38.621 21.328 72.886 0 0-12.22-22.372Zm-317.91 62.004a38.621 21.328 82.098 0 0-.579.753 50.714 167.5 77.128 0 1 .579-.753zm-2.28 3.306a38.621 21.328 82.098 0 0-1.412 2.744 50.714 167.5 77.128 0 1 1.412-2.744z" transform="matrix(.26458 0 0 .26458 26.6 -6.843)"/></svg>