<svg xmlns="http://www.w3.org/2000/svg" xmlns:xlink="http://www.w3.org/1999/xlink" width="1141.205" height="895.887" viewBox="0 0 301.944 237.037"><defs><linearGradient id="a"><stop style="stop-color:#f9f9f9;stop-opacity:1" offset="0"/><stop style="stop-color:#e0e3e1;stop-opacity:1" offset="1"/></linearGradient><linearGradient xlink:href="#a" id="b" x1="571.276" y1="448.824" x2="994.134" y2="454.538" gradientUnits="userSpaceOnUse"/></defs><path style="opacity:1;vector-effect:none;fill:url(#b);fill-opacity:1;stroke:none;stroke-width:7.80472422;stroke-linecap:butt;stroke-linejoin:miter;stroke-miterlimit:4;stroke-dasharray:none;stroke-dashoffset:0;stroke-opacity:1" d="M791.504 802.676c-5-1.999-30.91-7.095-57.578-11.324l-48.488-7.69-17.38-14.833c-9.56-8.158-18.086-14.833-18.948-14.833-1.507 0-.039 16.177 2.352 25.907 1.15 4.683 1.122 4.69-13.75 3.257-8.197-.79-16.721-2.123-18.944-2.963-2.222-.84-12.514-14.806-22.87-31.036-10.357-16.23-19.261-29.51-19.787-29.51-.527 0-.327 12.728.443 28.284.77 15.557.894 28.285.276 28.285-4.766 0-75.353-10.958-91.634-14.225-11.239-2.256-27.524-4.75-36.188-5.545l-15.753-1.444-15.33-24.659c-8.431-13.562-15.903-24.7-16.604-24.749-.7-.049-1.652 8.544-2.113 19.096-.481 11-1.862 20.208-3.237 21.582-1.85 1.85-11.75.26-43.343-6.966-45.576-10.423-59.181-12.581-97.832-15.522-14.62-1.112-40.53-4.711-57.58-7.998-32.28-6.224-89.692-12.333-115.196-12.258-32.529.097-64.576 12.15-86.063 32.37-10.478 9.86-11.496 16.068 9.618-58.677 8.632-30.557 17.256-65.105 19.164-76.772 1.909-11.667 5.752-32.123 8.54-45.457 6.524-31.2 5.733-43.138-4.886-73.74-4.433-12.78-10.071-32.638-12.528-44.132-6.454-30.195-15.78-55.416-41.58-112.443-19.476-43.048-55.553-134.094-55.553-140.198 0-2.23 33.787-26.171 45.586-32.3 9.534-4.954 42.709-11.636 67.09-13.514 9.771-.753 21.693-3.067 26.736-5.189l9.103-3.83 39.385 15.409c93.073 36.413 133.97 49.586 194.948 62.79 7.456 1.615 8.688 2.906 15.916 16.667 4.6 8.76 8.353 19.167 9.091 25.216 1.015 8.315 2.05 10.413 5.372 10.889 3.752.537 4.301-1.022 6.236-17.685 1.168-10.051 2.669-18.82 3.336-19.488.668-.668 16.953 1.75 36.19 5.374 19.237 3.623 40.063 6.427 46.281 6.23 6.566-.207 16.68 1.316 24.124 3.634 7.57 2.356 24.45 4.867 41.223 6.131 15.622 1.179 37.04 3.042 47.597 4.142 13.501 1.406 28.779 1.281 51.518-.42 17.778-1.332 41.952-2.472 53.718-2.535 12.925-.07 22.522-1.032 24.244-2.433 1.567-1.275 10.123-3.42 19.012-4.765 8.89-1.346 20.369-3.63 25.51-5.075l9.347-2.628 2.07 11.434c1.14 6.289 5.393 24.616 9.451 40.728 4.06 16.112 7.803 31.34 8.319 33.84.682 3.302 2.37 4.546 6.167 4.546 3.98 0 4.93-.778 3.978-3.258-2.177-5.673-3.861-61.757-2.34-77.935l1.46-15.534 24.19-8.092c16.733-5.598 24.413-7.348 24.917-5.68 1.791 5.94 7.376 64.288 9.299 97.163 1.163 19.889 2.892 39.89 3.84 44.447.949 4.557 3.153 14.649 4.899 22.427 1.745 7.778 3.19 18.927 3.208 24.774.078 23.417-14.4 134.756-22.13 170.185-4.821 22.097-27.069 92.252-34.262 108.042-3.049 6.692-10.302 18.355-16.12 25.92l-10.575 13.753 11.442 13.032c12.487 14.223 24.829 24.907 34.346 29.733 7.566 3.836 26.878 7.51 39.475 7.51h9.48l3.556-18.687c1.956-10.279 4.17-19.86 4.922-21.293.793-1.515 4.345 5.247 8.488 16.162l7.124 18.768 8.067.604c18.21 1.365 41.865-12.897 52.664-31.75 8.446-14.744 36.565-49.933 49.39-61.806 6.463-5.984 11.752-11.767 11.752-12.85 0-1.084-4.307-5.652-9.572-10.152-8.105-6.928-10.237-10.36-13.908-22.381-2.384-7.81-3.562-14.198-2.618-14.198 5.71 0 16.075 7.855 22.996 17.427 6.621 9.157 8.802 10.879 12.582 9.93 3.59-.901 4.826-.136 5.754 3.56.896 3.573 6.513 7.34 23.278 15.612 12.161 6 22.098 12.155 22.098 13.688 0 5.884-26.62 28.672-58.59 50.155-53.084 35.673-82.96 53.696-95.526 57.628-15.21 4.759-18.438 6.583-29.211 16.514l-8.998 8.294-19.5.093c-10.725.05-20.864.714-22.53 1.473-1.668.76-7.122-.254-12.123-2.253z" transform="matrix(.26458 0 0 .26458 24.23 -5.69)"/><path style="opacity:1;vector-effect:none;fill:#f9f9f9;fill-opacity:1;stroke:none;stroke-width:7.80472422;stroke-linecap:butt;stroke-linejoin:miter;stroke-miterlimit:4;stroke-dasharray:none;stroke-dashoffset:0;stroke-opacity:1" d="M771.301 686.787c0-.732 1.808-5.917 4.017-11.522 9.224-23.402 30.513-94.808 34.237-114.837 5.123-27.55 13.045-85.169 17.393-126.496 3.649-34.686 3.078-47.421-3.213-71.606-2.417-9.295-4.689-28.638-6.05-51.518-1.66-27.918-14.649-149.963-22.786-214.095-.71-5.601.195-6.182 38.85-24.949 21.768-10.568 52.542-24.124 68.386-30.126 26.404-10 30.199-10.91 45.457-10.896 20.456.019 40.19 3.08 51.167 7.935 6.44 2.849 11.044 7.634 20.72 21.542 6.843 9.835 12.439 19.268 12.435 20.963 0 1.696-3.652 8.538-8.108 15.205s-8.973 15.305-10.038 19.196c-3.653 13.345-21.924 126.261-23.21 143.439-.708 9.444-2.722 32.153-4.477 50.464-4.326 45.135-2.807 74.218 6.175 118.231 3.854 18.89 8.916 50.255 11.248 69.7 8.732 72.82 18.937 123.095 31.84 156.86.485 1.27-6.833-1.697-16.261-6.592-16.84-8.742-17.182-9.07-19.297-18.47-1.184-5.263-7.536-28.206-14.116-50.985-11.53-39.918-12.16-41.44-17.386-42.074-4.445-.538-5.223.008-4.317 3.03 2.087 6.963 7.344 49.287 7.344 59.125v9.84l-25.758-11.046c-34.483-14.787-53.576-20.896-65.316-20.896-8.562 0-10.618.898-16.915 7.381-3.942 4.06-7.168 8.124-7.168 9.032 0 1.975-67.1 78.586-77.544 88.535-4.02 3.829-7.309 6.363-7.309 5.63z" transform="matrix(.26458 0 0 .26458 24.23 -5.69)"/><path style="opacity:1;vector-effect:none;fill:#f9f9f9;fill-opacity:1;stroke:none;stroke-width:7.80472422;stroke-linecap:butt;stroke-linejoin:miter;stroke-miterlimit:4;stroke-dasharray:none;stroke-dashoffset:0;stroke-opacity:1" d="M815.033 758.494c-26.392-2.656-36.218-7.944-57.017-30.683l-8.69-9.501 16.613-13.924c9.136-7.658 21.189-18.49 26.782-24.07 12.557-12.529 64.405-71.788 69.92-79.914l4.036-5.947-.777 23.571c-.905 27.476-2.292 36.926-8.067 54.952-4.982 15.555-5.115 20.025-.929 31.438 4.934 13.451 9.96 14.544 32.597 7.083 13.335-4.394 26.152-11.805 32.235-18.636 4.316-4.847 10.44-19.559 10.44-25.08 0-1.4-1.283-4.65-2.852-7.222-1.568-2.573-2.854-5.253-2.857-5.957-.006-1.464 34.6-.29 37.106 1.26 1.025.633-3.292 6.114-11.67 14.813-15.488 16.082-33.791 39.448-42.278 53.974-9.921 16.982-24.004 27.134-41.53 29.937l-5.478.876-3.655-9.79c-9.878-26.46-21.433-54.905-22.053-54.286-.381.382-2.857 12.478-5.5 26.88-6.721 36.616-7.812 41.218-9.708 40.958-.917-.126-3.918-.455-6.668-.732zM143.164 907.884c-11.14-2.614-52.693-20.531-82.89-35.742-17.154-8.64-35.449-17.025-40.655-18.634-5.207-1.608-16.565-6.3-25.24-10.426-40.107-19.075-38.235-18.004-37.263-21.297.494-1.674 1.463-6.736 2.155-11.247 1.169-7.63 7.368-23.599 9.83-25.324.597-.418 6.6-8.474 13.342-17.902 15.07-21.075 23.584-29.233 41.478-39.745 11.82-6.942 16.047-8.59 28.382-11.063 7.97-1.598 14.65-2.713 14.841-2.478.374.46 5.12 111.895 5.065 118.906-.025 3.177 1.68 5.842 7.047 11.015 10.796 10.406 18.187 13.499 38.735 16.211 37.054 4.89 43.425 5.25 53.053 3.001 17.904-4.184 49.195-15.17 58.24-20.449 12.053-7.033 29.78-24.632 34.936-34.684l4.031-7.858-10.36-16.844c-5.697-9.264-10.087-17.116-9.754-17.449 1.264-1.264 33.67 2.18 40.968 4.355 7.774 2.317 44.238 18.497 46.398 20.588 2.33 2.258-6.01 15.347-14.313 22.461-15.317 13.125-38.187 30.059-51.87 38.408-18.003 10.984-92.588 49.679-102.72 53.29-10.366 3.696-16.716 4.483-23.436 2.907z" transform="matrix(.26458 0 0 .26458 24.23 -5.69)"/><path style="opacity:1;vector-effect:none;fill:#f9f9f9;fill-opacity:1;stroke:none;stroke-width:7.80472422;stroke-linecap:butt;stroke-linejoin:miter;stroke-miterlimit:4;stroke-dasharray:none;stroke-dashoffset:0;stroke-opacity:1" d="M80.726 808.026c-.198-2.66-4.217-91.263-4.238-93.425-.025-2.553.863-2.655 15.331-1.756 33.533 2.084 76.444 6.926 96.786 10.921 33.113 6.503 46.689 8.412 71.428 10.04 24.026 1.582 50.767 5.046 52.29 6.772 1.483 1.683 20.114 37.448 19.507 37.448-.308 0-7.866-3.27-16.796-7.268-8.929-3.997-20.876-8.454-26.549-9.905-10.534-2.694-48.314-5.684-71.826-5.684-27.236 0-75.681 11.214-100.809 23.334-15.783 7.614-20.238 11.22-31.17 25.237-2.146 2.75-3.925 4.679-3.954 4.286zM871.172 660.825c2-7.991 3.787-30.447 4.17-52.44l.406-23.212 5.105-.002c6.697-.003 24.246 5.315 42.388 12.844l14.575 6.049 3.682 12.338c2.025 6.786 4.892 16.035 6.372 20.553l2.69 8.214h-14.05c-15.61 0-44.949 4.482-51.493 7.866-2.327 1.203-6.599 4.265-9.493 6.804-5.22 4.58-5.254 4.587-4.352.986z" transform="matrix(.26458 0 0 .26458 24.23 -5.69)"/><path style="opacity:1;vector-effect:none;fill:#f9f9f9;fill-opacity:1;stroke:none;stroke-width:7.80472422;stroke-linecap:butt;stroke-linejoin:miter;stroke-miterlimit:4;stroke-dasharray:none;stroke-dashoffset:0;stroke-opacity:1" d="M125.033 852.04c-22.111-2.994-29.067-5.387-37.699-12.97l-5.253-4.615 2.72-9.668c3.498-12.435 15.781-27.937 27.235-34.374l7.716-4.336-.943 9.903c-3.067 32.223-3.102 31.245 1.224 34.648 12.676 9.97 38.442 5.806 48.898-7.903l3.555-4.66-6.662-8.948-6.66-8.948 6.863-3.196c6.285-2.926 8.97-3.195 31.864-3.19 25.079.007 36.556 1.446 51.736 6.488l6.796 2.258-2.244 4.34c-5.456 10.551-24.317 26.535-38.466 32.6-3.843 1.648-16.33 5.854-27.748 9.348-24.21 7.407-29.891 7.698-62.932 3.223z" transform="matrix(.26458 0 0 .26458 24.23 -5.69)"/><path style="opacity:1;vector-effect:none;fill:#f9f9f9;fill-opacity:1;stroke:none;stroke-width:7.80472422;stroke-linecap:butt;stroke-linejoin:miter;stroke-miterlimit:4;stroke-dasharray:none;stroke-dashoffset:0;stroke-opacity:1" d="M126.912 805.818c.442-2.321 1.22-8.597 1.728-13.945 1.054-11.096-.253-10.075 20.68-16.157 28.12-8.17 66.021-13.54 80.379-11.386 6.204.93 6.616 1.32 13.847 13.154 4.099 6.708 7.205 12.443 6.903 12.745-.302.302-3.733-.425-7.625-1.616-8.824-2.7-47.807-5.405-61.84-4.292-6.357.505-13.942 2.277-19.286 4.507-4.844 2.021-11.536 4.656-14.87 5.854-3.335 1.198-9.362 5.144-13.393 8.768l-7.328 6.589z" transform="matrix(.26458 0 0 .26458 24.23 -5.69)"/><path style="opacity:1;vector-effect:none;fill:#f9f9f9;fill-opacity:1;stroke:none;stroke-width:7.80472422;stroke-linecap:butt;stroke-linejoin:miter;stroke-miterlimit:4;stroke-dasharray:none;stroke-dashoffset:0;stroke-opacity:1" d="M133.112 822.557c-1.3-1.437-2.364-2.989-2.364-3.448 0-1.182 17.144-15.369 18.572-15.369 1.236 0 10 11.316 10 12.912 0 .506-3.141 2.63-6.98 4.719-8.195 4.46-15.838 4.931-19.228 1.186zM864.769 699.597c-2.061-6.444-2.047-7.436.182-12.487l2.42-5.486 1.63 4.673c1.192 3.423 3.268 5.417 7.759 7.455 12.63 5.733 19.33 2.476 22.98-11.174 1.447-5.407 2.61-6.744 8.438-9.698 7.335-3.716 9.357-4.059 12.444-2.105 1.675 1.06 1.367 2.605-1.816 9.11-2.847 5.82-5.792 9.184-11.446 13.078-8.338 5.743-29.064 13.585-35.983 13.615-3.98.018-4.57-.604-6.608-6.98z" transform="matrix(.26458 0 0 .26458 24.23 -5.69)"/><path style="opacity:1;vector-effect:none;fill:#f9f9f9;fill-opacity:1;stroke:none;stroke-width:7.80472422;stroke-linecap:butt;stroke-linejoin:miter;stroke-miterlimit:4;stroke-dasharray:none;stroke-dashoffset:0;stroke-opacity:1" d="M882.383 686.714c-2.555-.881-4.769-1.726-4.92-1.878-.348-.348.436-2.672 2.031-6.017.89-1.865 1.504-2.75 2.83-4.076 2.187-2.188 6.314-4.906 10.764-7.09 4.964-2.436 7.583-3.268 10.803-3.433l2.582-.132-3.363 1.65c-4.092 2.008-6.392 3.508-7.976 5.201-1.494 1.598-2.026 2.797-2.52 5.683-.468 2.74-1.403 5.692-2.558 8.082-.92 1.905-2.251 3.677-2.731 3.636-.164-.013-2.388-.745-4.942-1.626z" transform="matrix(.26458 0 0 .26458 24.23 -5.69)"/><path style="opacity:1;vector-effect:none;fill:#999;fill-opacity:1;stroke:none;stroke-width:7.80472422;stroke-linecap:butt;stroke-linejoin:miter;stroke-miterlimit:4;stroke-dasharray:none;stroke-dashoffset:0;stroke-opacity:1" d="M913.469 656.786c-1.848-.255-3.78-.499-4.294-.541-.56-.047.673-.312 3.072-.66 2.203-.32 4.029-.547 4.058-.505.244.359 1.153 2.024 1.153 2.111 0 .145-.032.142-3.99-.405z" transform="matrix(.26458 0 0 .26458 24.23 -5.69)"/></svg>