<?xml version="1.0" encoding="UTF-8" standalone="no"?>
<!-- Created with Inkscape (http://www.inkscape.org/) -->

<svg
   xmlns:dc="http://purl.org/dc/elements/1.1/"
   xmlns:cc="http://creativecommons.org/ns#"
   xmlns:rdf="http://www.w3.org/1999/02/22-rdf-syntax-ns#"
   xmlns:svg="http://www.w3.org/2000/svg"
   xmlns="http://www.w3.org/2000/svg"
   xmlns:sodipodi="http://sodipodi.sourceforge.net/DTD/sodipodi-0.dtd"
   xmlns:inkscape="http://www.inkscape.org/namespaces/inkscape"
   width="301.94388mm"
   height="237.03674mm"
   viewBox="0 0 301.94388 237.03674"
   version="1.1"
   id="svg1398"
   inkscape:version="0.92.4 (5da689c313, 2019-01-14)"
   sodipodi:docname="scroll.svg">
  <defs
     id="defs1392" />
  <sodipodi:namedview
     id="base"
     pagecolor="#ffffff"
     bordercolor="#666666"
     borderopacity="1.0"
     inkscape:pageopacity="0.0"
     inkscape:pageshadow="2"
     inkscape:zoom="0.49497475"
     inkscape:cx="372.03428"
     inkscape:cy="352.96293"
     inkscape:document-units="mm"
     inkscape:current-layer="layer1"
     showgrid="false"
     inkscape:window-width="1920"
     inkscape:window-height="1017"
     inkscape:window-x="1072"
     inkscape:window-y="394"
     inkscape:window-maximized="1"
     fit-margin-top="0"
     fit-margin-left="0"
     fit-margin-right="0"
     fit-margin-bottom="0" />
  <metadata
     id="metadata1395">
    <rdf:RDF>
      <cc:Work
         rdf:about="">
        <dc:format>image/svg+xml</dc:format>
        <dc:type
           rdf:resource="http://purl.org/dc/dcmitype/StillImage" />
        <dc:title></dc:title>
      </cc:Work>
    </rdf:RDF>
  </metadata>
  <g
     inkscape:label="Layer 1"
     inkscape:groupmode="layer"
     id="layer1"
     transform="translate(24.230734,-5.6907031)">
    <path
       style="opacity:1;vector-effect:none;fill:#ffffff;fill-opacity:1;stroke:none;stroke-width:7.80472422;stroke-linecap:butt;stroke-linejoin:miter;stroke-miterlimit:4;stroke-dasharray:none;stroke-dashoffset:0;stroke-opacity:1"
       d="m 791.50427,802.67589 c -5.00025,-1.99873 -30.91067,-7.09446 -57.57869,-11.32383 l -48.48733,-7.68976 -17.38022,-14.83302 c -9.55911,-8.15816 -18.08575,-14.83302 -18.94809,-14.83302 -1.50739,0 -0.0386,16.17702 2.35214,25.90645 1.15082,4.68339 1.12195,4.69024 -13.75002,3.25695 -8.1968,-0.78996 -16.72154,-2.12311 -18.94387,-2.96257 -2.22234,-0.83948 -12.5142,-14.80575 -22.87079,-31.03617 -10.35659,-16.2304 -19.26068,-29.50985 -19.78686,-29.50985 -0.52619,0 -0.32673,12.72792 0.44327,28.28427 0.77,15.55635 0.89441,28.28427 0.2765,28.28427 -4.76604,0 -75.35326,-10.95755 -91.63415,-14.22474 -11.2392,-2.25545 -27.52373,-4.75053 -36.18783,-5.54463 l -15.7529,-1.44383 -15.32995,-24.65918 c -8.43146,-13.56255 -15.90334,-24.69948 -16.60418,-24.74873 -0.70085,-0.0493 -1.65185,8.54364 -2.11334,19.09533 -0.4811,10.9999 -1.862,20.20784 -3.2367,21.58254 -1.84993,1.84993 -11.75053,0.2587 -43.34352,-6.96626 -45.57584,-10.42267 -59.18092,-12.58118 -97.8321,-15.52166 -14.61988,-1.11223 -40.53029,-4.71161 -57.5787,-7.99863 -32.2813,-6.22397 -89.69317,-12.33285 -115.197233,-12.25747 -32.528662,0.0962 -64.575462,12.14953 -86.0626294,32.36973 -10.4783876,9.86055 -11.4959236,16.06832 9.6180179,-58.67742 8.6316785,-30.55711 17.2555475,-65.10433 19.1641495,-76.77159 1.908604,-11.66726 5.751423,-32.12285 8.539595,-45.45686 6.524194,-31.20095 5.733317,-43.13869 -4.88535,-73.74114 C 23.959534,468.47664 18.321786,448.61769 15.865164,437.12409 9.4114104,406.92942 0.08490232,381.7085 -25.715295,324.68143 -45.191131,281.6333 -81.267527,190.5866 -81.267527,184.48317 c 0,-2.23081 33.786267,-26.17125 45.585134,-32.30095 9.53428,-4.95321 42.7089586,-11.63524 67.090992,-13.51344 9.770652,-0.75265 21.692301,-3.06635 26.735813,-5.18876 l 9.102258,-3.83042 39.38506,15.40892 c 93.07298,36.41365 133.9704,49.58635 194.94856,62.79123 7.45545,1.61448 8.68786,2.90505 15.91542,16.66632 4.60098,8.76026 8.35305,19.16705 9.09137,25.21596 1.01498,8.31541 2.04984,10.41312 5.37171,10.88872 3.75176,0.53716 4.30163,-1.02209 6.2366,-17.68499 1.16713,-10.05075 2.66832,-18.82034 3.33595,-19.48797 0.66763,-0.66764 16.95304,1.7506 36.1898,5.37385 19.23676,3.62325 40.06322,6.4272 46.28103,6.23099 6.56569,-0.20718 16.67919,1.31587 24.12418,3.63302 7.57002,2.35605 24.44967,4.86687 41.22283,6.13182 15.62207,1.17815 37.04056,3.04166 47.59665,4.14116 13.50128,1.40625 28.77878,1.28154 51.51778,-0.42055 17.77869,-1.33079 41.95202,-2.47113 53.71852,-2.53408 12.92474,-0.0692 22.52185,-1.03225 24.24366,-2.4329 1.56751,-1.27513 10.12312,-3.41942 19.01246,-4.7651 8.88935,-1.34566 20.3687,-3.62933 25.50967,-5.07481 l 9.34722,-2.62814 2.07072,11.43385 c 1.1389,6.28862 5.39164,24.61634 9.45056,40.72827 4.05891,16.11193 7.80226,31.33998 8.31852,33.84011 0.68172,3.30124 2.37004,4.54569 6.16711,4.54569 3.97945,0 4.9298,-0.77817 3.97838,-3.25754 -2.17704,-5.6733 -3.86177,-61.75764 -2.34111,-77.93574 l 1.46006,-15.53336 24.18978,-8.09195 c 16.73414,-5.5979 24.41403,-7.3485 24.91737,-5.67984 1.79144,5.93891 7.37597,64.28784 9.29932,97.16232 1.16362,19.88875 2.89174,39.88977 3.84028,44.44671 0.94855,4.55694 3.15285,14.64931 4.89845,22.42748 1.74558,7.77818 3.1896,18.92648 3.20889,24.77401 0.0772,23.4173 -14.40108,134.75617 -22.13066,170.18543 -4.8208,22.09659 -27.06844,92.25186 -34.26228,108.04196 -3.04854,6.69141 -10.30192,18.35502 -16.11862,25.91914 l -10.57583,13.75297 11.4423,13.03294 c 12.48658,14.22241 24.8286,24.90665 34.34527,29.73203 7.56614,3.83635 26.87862,7.51086 39.47561,7.51086 h 9.47984 l 3.55636,-18.68782 c 1.95598,-10.2783 4.17045,-19.85996 4.92106,-21.2926 0.79374,-1.51499 4.34519,5.24708 8.48857,16.16244 l 7.12386,18.76722 8.06712,0.60454 c 18.20921,1.36459 41.86472,-12.89686 52.66428,-31.75029 8.44567,-14.74407 36.56514,-49.93291 49.38887,-61.80542 6.46422,-5.98473 11.75312,-11.76769 11.75312,-12.85104 0,-1.08334 -4.30751,-5.65168 -9.57225,-10.15185 -8.10485,-6.9278 -10.23686,-10.35867 -13.9078,-22.38053 -2.38454,-7.80915 -3.56268,-14.19844 -2.61811,-14.19844 5.70989,0 16.07522,7.85527 22.99582,17.42713 6.62096,9.15747 8.8019,10.87879 12.58161,9.93016 3.5897,-0.90095 4.82623,-0.13576 5.75401,3.56085 0.89661,3.5724 6.51312,7.33894 23.27878,15.61118 12.1609,6.00022 22.0971,12.15543 22.0971,13.68852 0,5.88351 -26.6199,28.67124 -58.58885,50.15455 -53.085,35.67338 -82.96032,53.69606 -95.52668,57.62773 -15.21047,4.75897 -18.43748,6.58333 -29.21122,16.5142 l -8.99749,8.29359 -19.50035,0.0931 c -10.7252,0.0513 -20.86406,0.7144 -22.53081,1.47371 -1.66675,0.75931 -7.12157,-0.25476 -12.12183,-2.25351 z"
       id="path2001"
       inkscape:connector-curvature="0"
       transform="scale(0.26458333)" />
    <path
       style="opacity:1;vector-effect:none;fill:#f9f9f9;fill-opacity:1;stroke:none;stroke-width:7.80472422;stroke-linecap:butt;stroke-linejoin:miter;stroke-miterlimit:4;stroke-dasharray:none;stroke-dashoffset:0;stroke-opacity:1"
       d="m 771.30122,686.78715 c 0,-0.73242 1.80754,-5.91745 4.01676,-11.52226 9.22411,-23.40176 30.51291,-94.80809 34.23704,-114.83699 5.12275,-27.55084 13.04501,-85.16849 17.39289,-126.49633 3.64907,-34.68551 3.07769,-47.42107 -3.21258,-71.60538 -2.41757,-9.29487 -4.68912,-28.63857 -6.04977,-51.51777 -1.66036,-27.91888 -14.64954,-149.96344 -22.78613,-214.095416 -0.71065,-5.6013 0.19415,-6.182356 38.8498,-24.949021 21.76757,-10.567785 52.5413,-24.124284 68.38607,-30.125552 26.40362,-10.000471 30.19853,-10.910122 45.45687,-10.896134 20.45601,0.01875 40.19007,3.079003 51.16728,7.934743 6.44015,2.848798 11.04315,7.634436 20.72025,21.542457 6.8425,9.834036 12.438,19.267315 12.4345,20.962844 0,1.695529 -3.6521,8.537603 -8.1079,15.20461 -4.4558,6.667009 -8.9729,15.305429 -10.0379,19.196489 -3.6529,13.34504 -21.92461,126.26063 -23.21082,143.43807 -0.70721,9.44493 -2.72172,32.15394 -4.47665,50.46447 -4.32596,45.13532 -2.80712,74.21793 6.17459,118.23101 3.85483,18.88985 8.91668,50.25508 11.24848,69.70052 8.7322,72.81959 18.9373,123.09491 31.8403,156.86029 0.4848,1.26881 -6.8329,-1.69795 -16.2617,-6.59278 -16.8394,-8.74197 -17.1814,-9.06936 -19.29647,-18.46939 -1.18426,-5.26332 -7.53659,-28.20698 -14.11626,-50.98592 -11.53022,-39.91781 -12.15924,-41.44003 -17.38574,-42.07331 -4.44533,-0.53864 -5.22346,0.008 -4.31728,3.03045 2.08689,6.96167 7.34457,49.28615 7.34457,59.12403 v 9.8407 l -25.75888,-11.04644 c -34.48208,-14.78728 -53.57578,-20.89573 -65.31547,-20.89573 -8.56175,0 -10.61768,0.89714 -16.91471,7.38098 -3.94258,4.05954 -7.16833,8.12355 -7.16833,9.03113 0,1.97582 -67.09979,78.58647 -77.54376,88.535 -4.01998,3.82927 -7.30905,6.36305 -7.30905,5.63063 z"
       id="path2003"
       inkscape:connector-curvature="0"
       transform="scale(0.26458333)" />
    <path
       style="opacity:1;vector-effect:none;fill:#f9f9f9;fill-opacity:1;stroke:none;stroke-width:7.80472422;stroke-linecap:butt;stroke-linejoin:miter;stroke-miterlimit:4;stroke-dasharray:none;stroke-dashoffset:0;stroke-opacity:1"
       d="m 815.03338,758.49425 c -26.39251,-2.65632 -36.21815,-7.94392 -57.01723,-30.68343 l -8.6903,-9.50105 16.61267,-13.9234 c 9.13698,-7.65787 21.18903,-18.48954 26.78234,-24.07038 12.55667,-12.52866 64.40475,-71.78758 69.9202,-79.91416 l 4.03626,-5.9471 -0.77688,23.57143 c -0.90556,27.47569 -2.29293,36.92625 -8.06713,54.95211 -4.98278,15.55522 -5.11491,20.02513 -0.9293,31.43741 4.93364,13.45182 9.96043,14.54419 32.59708,7.08366 13.33453,-4.39475 26.15232,-11.80511 32.23469,-18.63587 4.31614,-4.84723 10.44045,-19.55911 10.44045,-25.08017 0,-1.39987 -1.28331,-4.65005 -2.8518,-7.22261 -1.5685,-2.57256 -2.85421,-5.25306 -2.85714,-5.95665 -0.006,-1.46415 34.59902,-0.28962 37.10537,1.2594 1.02583,0.63399 -3.29161,6.11455 -11.66983,14.81369 -15.48831,16.08159 -33.7912,39.44805 -42.27744,53.9737 -9.92163,16.98252 -24.0048,27.13444 -41.52951,29.93676 l -5.47936,0.87618 -3.65478,-9.79022 c -9.87764,-26.45973 -21.43286,-54.9048 -22.05229,-54.28536 -0.38177,0.38176 -2.85715,12.47792 -5.50085,26.88033 -6.72107,36.61527 -7.81192,41.21755 -9.70789,40.95758 -0.91703,-0.12574 -3.91733,-0.45507 -6.66733,-0.73185 z"
       id="path2005"
       inkscape:connector-curvature="0"
       transform="scale(0.26458333)" />
    <path
       style="opacity:1;vector-effect:none;fill:#f9f9f9;fill-opacity:1;stroke:none;stroke-width:7.80472422;stroke-linecap:butt;stroke-linejoin:miter;stroke-miterlimit:4;stroke-dasharray:none;stroke-dashoffset:0;stroke-opacity:1"
       d="M 143.16403,907.88393 C 132.02391,905.27037 90.470616,887.353 60.273421,872.14232 43.119733,863.5018 24.825108,855.11658 19.618701,853.50849 14.412296,851.90039 3.0542755,847.2087 -5.6213431,843.0825 -45.728475,824.0072 -43.85567,825.07758 -42.884413,821.78517 c 0.494005,-1.6746 1.463729,-6.73578 2.154941,-11.24707 1.169056,-7.62999 7.368356,-23.59866 9.831315,-25.32431 0.595857,-0.41748 6.59956,-8.47334 13.341562,-17.90192 15.0697905,-21.07483 23.5833634,-29.23261 41.477863,-39.74448 11.818959,-6.94288 16.047025,-8.59108 28.381258,-11.06372 7.971351,-1.59801 14.650197,-2.71275 14.84188,-2.47721 0.373557,0.45904 5.120304,111.89448 5.064931,118.90518 -0.02509,3.17695 1.680274,5.84268 7.047117,11.01563 10.795373,10.40535 18.186766,13.49869 38.734776,16.21073 37.05362,4.89053 43.42453,5.2509 53.05279,3.00105 17.90427,-4.18378 49.19546,-15.1703 58.24044,-20.44861 12.0525,-7.03336 29.77959,-24.63288 34.93599,-34.68457 l 4.03076,-7.85744 -10.35958,-16.84429 c -5.69775,-9.26436 -10.08754,-17.11631 -9.75507,-17.44878 1.26455,-1.26455 33.67107,2.17999 40.96856,4.35461 7.77421,2.31668 44.23816,18.4972 46.39746,20.58842 2.33083,2.25733 -6.00997,15.34622 -14.31299,22.46083 -15.31696,13.12464 -38.18646,30.0585 -51.8705,38.40781 -18.00228,10.98409 -92.58716,49.67863 -102.71976,53.29089 -10.365,3.69511 -16.71537,4.48257 -23.4353,2.90601 z"
       id="path2007"
       inkscape:connector-curvature="0"
       transform="scale(0.26458333)" />
    <path
       style="opacity:1;vector-effect:none;fill:#f9f9f9;fill-opacity:1;stroke:none;stroke-width:7.80472422;stroke-linecap:butt;stroke-linejoin:miter;stroke-miterlimit:4;stroke-dasharray:none;stroke-dashoffset:0;stroke-opacity:1"
       d="m 80.726188,808.02616 c -0.198023,-2.66084 -4.217467,-91.26297 -4.238219,-93.42469 -0.02452,-2.55357 0.862611,-2.65518 15.331122,-1.75607 33.533309,2.08384 76.443889,6.92554 96.785719,10.92056 33.11332,6.50327 46.68918,8.41158 71.42857,10.04049 24.0253,1.58188 50.76615,5.04507 52.28878,6.77187 1.4834,1.68233 20.11532,37.44784 19.50832,37.44784 -0.30869,0 -7.86692,-3.27048 -16.79609,-7.26774 -8.92916,-3.99726 -20.87638,-8.45485 -26.54938,-9.90576 -10.53385,-2.6941 -48.31356,-5.68364 -71.82589,-5.68364 -27.23591,0 -75.68122,11.21371 -100.80867,23.33434 -15.78386,7.61359 -20.238467,11.22017 -31.171251,25.23709 -2.144919,2.75 -3.923774,4.67857 -3.953011,4.28571 z"
       id="path2009"
       inkscape:connector-curvature="0"
       transform="scale(0.26458333)" />
    <path
       style="opacity:1;vector-effect:none;fill:#f9f9f9;fill-opacity:1;stroke:none;stroke-width:7.80472422;stroke-linecap:butt;stroke-linejoin:miter;stroke-miterlimit:4;stroke-dasharray:none;stroke-dashoffset:0;stroke-opacity:1"
       d="m 871.17161,660.82514 c 2.0013,-7.99126 3.78743,-30.44677 4.17111,-52.43963 l 0.40494,-23.21207 5.1054,-0.002 c 6.69741,-0.003 24.24557,5.31409 42.38747,12.84316 l 14.5756,6.04902 3.68157,12.33852 c 2.02486,6.78618 4.8923,16.03494 6.37209,20.5528 l 2.69052,8.21429 h -14.05008 c -15.6103,0 -44.94923,4.48157 -51.49344,7.86572 -2.32681,1.20324 -6.59837,4.26497 -9.49236,6.80385 -5.22024,4.57968 -5.25462,4.58747 -4.35282,0.98655 z"
       id="path2011"
       inkscape:connector-curvature="0"
       transform="scale(0.26458333)" />
    <path
       style="opacity:1;vector-effect:none;fill:#f9f9f9;fill-opacity:1;stroke:none;stroke-width:7.80472422;stroke-linecap:butt;stroke-linejoin:miter;stroke-miterlimit:4;stroke-dasharray:none;stroke-dashoffset:0;stroke-opacity:1"
       d="m 125.03338,852.04023 c -22.11171,-2.9947 -29.067124,-5.38772 -37.699055,-12.97041 l -5.253695,-4.61509 2.72006,-9.66791 c 3.498587,-12.43503 15.78133,-27.93721 27.23487,-34.37341 l 7.71647,-4.33619 -0.94275,9.90304 c -3.06755,32.22289 -3.10209,31.24483 1.22365,34.64746 12.67558,9.97062 38.44197,5.80642 48.89838,-7.90265 l 3.55436,-4.66001 -6.6613,-8.94802 -6.66129,-8.94802 6.86372,-3.19591 c 6.28531,-2.92658 8.9705,-3.19536 31.86372,-3.18948 25.0794,0.006 36.55631,1.44562 51.73623,6.48758 l 6.79648,2.25742 -2.24467,4.34071 c -5.45601,10.55078 -24.31615,26.5351 -38.46544,32.6002 -3.84282,1.64722 -16.32969,5.85347 -27.7486,9.34721 -24.21018,7.40738 -29.8905,7.69834 -62.93114,3.22348 z"
       id="path2013"
       inkscape:connector-curvature="0"
       transform="scale(0.26458333)" />
    <path
       style="opacity:1;vector-effect:none;fill:#f9f9f9;fill-opacity:1;stroke:none;stroke-width:7.80472422;stroke-linecap:butt;stroke-linejoin:miter;stroke-miterlimit:4;stroke-dasharray:none;stroke-dashoffset:0;stroke-opacity:1"
       d="m 126.91162,805.81828 c 0.44276,-2.32138 1.22068,-8.59684 1.72872,-13.94547 1.05396,-11.09607 -0.25305,-10.07489 20.67875,-16.15661 28.12022,-8.17031 66.02222,-13.53935 80.3799,-11.38629 6.20447,0.93042 6.61562,1.32102 13.84689,13.15456 4.09891,6.70762 7.20542,12.44281 6.90337,12.74487 -0.30206,0.30205 -3.73348,-0.42519 -7.62539,-1.61609 -8.82346,-2.69992 -47.807,-5.40545 -61.8398,-4.29179 -6.35678,0.50448 -13.94214,2.27701 -19.28571,4.50665 -4.84431,2.02131 -11.53625,4.65551 -14.87098,5.85376 -3.33473,1.19826 -9.36111,5.1438 -13.39195,8.76788 l -7.32881,6.58923 z"
       id="path2015"
       inkscape:connector-curvature="0"
       transform="scale(0.26458333)" />
    <path
       style="opacity:1;vector-effect:none;fill:#f9f9f9;fill-opacity:1;stroke:none;stroke-width:7.80472422;stroke-linecap:butt;stroke-linejoin:miter;stroke-miterlimit:4;stroke-dasharray:none;stroke-dashoffset:0;stroke-opacity:1"
       d="m 133.11193,822.55653 c -1.30035,-1.43687 -2.36427,-2.98837 -2.36427,-3.44779 0,-1.18218 17.14408,-15.36829 18.57277,-15.36829 1.23576,0 9.99866,11.31575 9.99866,12.91153 0,0.50605 -3.14057,2.62941 -6.97904,4.71857 -8.19482,4.46018 -15.83835,4.93163 -19.22812,1.18598 z"
       id="path2017"
       inkscape:connector-curvature="0"
       transform="scale(0.26458333)" />
    <path
       style="opacity:1;vector-effect:none;fill:#f9f9f9;fill-opacity:1;stroke:none;stroke-width:7.80472422;stroke-linecap:butt;stroke-linejoin:miter;stroke-miterlimit:4;stroke-dasharray:none;stroke-dashoffset:0;stroke-opacity:1"
       d="m 864.76868,699.59724 c -2.06068,-6.44392 -2.04622,-7.43643 0.18198,-12.48675 l 2.42059,-5.48641 1.629,4.67295 c 1.19317,3.42273 3.26921,5.41737 7.75964,7.45538 12.63103,5.73268 19.33012,2.47522 22.98088,-11.17457 1.44618,-5.40709 2.60965,-6.7443 8.43756,-9.69752 7.33472,-3.71679 9.35692,-4.05889 12.4434,-2.10508 1.67501,1.06032 1.36718,2.60482 -1.81581,9.1106 -2.84661,5.81827 -5.79151,9.1829 -11.44582,13.07718 -8.33829,5.74279 -29.06402,13.5852 -35.98262,13.61546 -3.98059,0.0174 -4.56974,-0.60494 -6.6088,-6.98124 z"
       id="path2019"
       inkscape:connector-curvature="0"
       transform="scale(0.26458333)" />
    <path
       style="opacity:1;vector-effect:none;fill:#f9f9f9;fill-opacity:1;stroke:none;stroke-width:7.80472422;stroke-linecap:butt;stroke-linejoin:miter;stroke-miterlimit:4;stroke-dasharray:none;stroke-dashoffset:0;stroke-opacity:1"
       d="m 882.38293,686.71384 c -2.55446,-0.8809 -4.76873,-1.7259 -4.9206,-1.87777 -0.34781,-0.34781 0.43704,-2.67212 2.03188,-6.01736 0.88887,-1.86445 1.50379,-2.75025 2.82953,-4.07599 2.18749,-2.18749 6.3147,-4.90565 10.76458,-7.08951 4.96334,-2.43584 7.5823,-3.2681 10.80291,-3.433 l 2.58161,-0.13218 -3.36328,1.6504 c -4.09178,2.00789 -6.39173,3.50768 -7.97538,5.20073 -1.49424,1.59746 -2.02614,2.7971 -2.51989,5.6833 -0.46869,2.73971 -1.40299,5.69137 -2.55798,8.08122 -0.92088,1.90545 -2.25163,3.67717 -2.73162,3.6368 -0.1635,-0.0137 -2.3873,-0.74574 -4.94176,-1.62664 z"
       id="path2021"
       inkscape:connector-curvature="0"
       transform="scale(0.26458333)" />
    <path
       style="opacity:1;vector-effect:none;fill:#000080;fill-opacity:1;stroke:none;stroke-width:7.80472422;stroke-linecap:butt;stroke-linejoin:miter;stroke-miterlimit:4;stroke-dasharray:none;stroke-dashoffset:0;stroke-opacity:1"
       d=""
       id="path2023"
       inkscape:connector-curvature="0"
       transform="scale(0.26458333)" />
    <path
       style="opacity:1;vector-effect:none;fill:#999999;fill-opacity:1;stroke:none;stroke-width:7.80472422;stroke-linecap:butt;stroke-linejoin:miter;stroke-miterlimit:4;stroke-dasharray:none;stroke-dashoffset:0;stroke-opacity:1"
       d="m 913.46857,656.786 c -1.84708,-0.2551 -3.779,-0.49877 -4.29315,-0.54148 -0.55966,-0.0465 0.67285,-0.31113 3.07117,-0.65945 2.20329,-0.31999 4.02944,-0.54727 4.05812,-0.50507 0.24401,0.35905 1.15354,2.02386 1.15354,2.11146 0,0.14439 -0.0321,0.14112 -3.98968,-0.40546 z"
       id="path2025"
       inkscape:connector-curvature="0"
       transform="scale(0.26458333)" />
  </g>
</svg>
