<svg xmlns="http://www.w3.org/2000/svg" width="1141.205" height="895.887" viewBox="0 0 301.944 237.037"><g style="fill:#c8b8a0;fill-opacity:.54826957"><g style="font-style:normal;font-weight:400;font-size:68.70259857px;line-height:1.25;font-family:sans-serif;letter-spacing:0;word-spacing:0;fill:#c8b8a0;fill-opacity:.54826959;stroke:none;stroke-width:1.36500001;stroke-miterlimit:4;stroke-dasharray:none;stroke-opacity:1"><path d="M102.507 143.238q.067.067.1.201.034.1.034.168 0 .369-.604.369-.335.034-2.013-.067-1.644-.134-2.28-.134-1.074 0-3.221.167-.805.068-1.14.034-.571 0-.571-.403 0-.167.1-.268.101-.134 1.443-1.174 1.04-.805 1.04-1.443.067-.369.134-1.04.1-.704.1-1.61 0-3.69-1.14-7.246-1.644-5.099-5.535-9.493-2.348-2.617-5.367-4.462-2.986-1.879-6.71-3.12-1.912 3.388-3.254 7.414-1.778 5.367-1.778 10.03 0 5.1.235 7.313.403 3.858 1.778 6.91.872 1.846 2.617 3.221.94.738 2.415 1.476.403.202.403.47 0 .235-.336.335-.973.302-1.878.638-.873.335-2.047.906-1.14.57-1.979 1.174-.57.402-1.073.838-.269.202-.437.202-.301 0-.301-.537 0-1.04-.101-2.382-.1-1.342-.503-4.26-.604-3.456-1.107-6.844-.503-3.388-.503-6.373 0-6.14 1.576-12.11 1.376-5.234 3.59-9.092-.738-.134-1.577-.234-.805-.101-1.879-.101-1.912 0-3.992.47-2.046.436-3.59 1.476-2.045 1.375-2.045 3.22 0 1.912 1.543 2.214.134.034.402.034.705 0 1.208-.336.537-.335.604-1.006.1-.671.369-.671.201 0 .302.369.134.369.134.94 0 .301-.067.67l-.134.671q-.436 1.241-1.476 2.08-1.04.805-2.583.805-.202.034-.37.034-1.777 0-3.019-1.309-1.207-1.342-1.207-3.422 0-3.455 3.757-5.736 2.482-1.51 5.569-2.113 1.073-.202 2.381-.302 1.309-.1 2.684-.1 2.717 0 4.26.335 4.865-6.441 10.769-9.964 6.81-4.059 14.794-4.059 1.107 0 1.107.302 0 .134-.235.37-1.107 1.24-1.41 2.247-.402 1.409-.402 5.132v35.626q0 .638 1.007 1.41 1.342 1.04 1.409 1.14zm-7.112-16.907V99.829q-4.83.906-9.594 4.227-2.617 1.812-4.227 3.455-1.61 1.644-3.422 4.328 2.885.973 5.267 2.28 2.113 1.175 4.327 2.953 2.45 1.946 4.227 4.126 1.644 2.013 3.422 5.133z" style="font-style:normal;font-variant:normal;font-weight:400;font-stretch:normal;font-family:Harrington;-inkscape-font-specification:Harrington;fill:#c8b8a0;fill-opacity:.54826959;stroke:none;stroke-width:1.36500001;stroke-miterlimit:4;stroke-dasharray:none;stroke-opacity:1" transform="matrix(1.0013 .01927 -.0198 .99833 24.23 -5.69)" aria-label="A"/></g></g></svg>