<svg xmlns="http://www.w3.org/2000/svg" width="1141.205" height="895.887" viewBox="0 0 301.944 237.037"><g style="font-style:normal;font-weight:400;font-size:68.70259857px;line-height:1.25;font-family:sans-serif;letter-spacing:0;word-spacing:0;opacity:1;vector-effect:none;fill:#c8b8a0;fill-opacity:.54827001;stroke:none;stroke-width:1.36500001;stroke-linecap:butt;stroke-linejoin:miter;stroke-miterlimit:4;stroke-dasharray:none;stroke-dashoffset:0;stroke-opacity:1"><path d="M179.168 103.492q0 2.852-1.778 4.932-1.744 2.08-5.334 3.79-2.683 1.275-6.34 2.08-1.912.403-6.474 1.107-4.53.705-6.575 1.241-3.456.94-6.676 3.355-2.684 2.046-4.328 4.428 1.04 6.038 5.905 10.869 5.4 5.367 12.143 5.367 4.83 0 8.152-1.845 3.321-1.845 3.321-4.864 0-.973-.235-1.677-.201-.738-.369-1.275-.1-.201 0-.335.1-.135.403-.135.906.135 1.744.94 1.14 1.107 1.14 2.683 0 4.26-4.897 6.978-4.462 2.482-10.533 2.482-9.762 0-15.868-6.776-6.206-6.877-6.206-17.98 0-9.83 6.441-16.975 6.609-7.313 16.102-7.313 4.193 0 7.18 1.61 3.354 1.812 3.354 4.83 0 1.544-.973 2.651-.973 1.107-2.65 1.375-.134.034-.336.034h-.369q-.67 0-1.174-.1-.503-.135-.872-.403-.302-.134-.302-.336 0-.201.302-.402.67-.47.906-.772.57-.704.704-1.778.034-.134.034-.235v-.234q0-1.845-2.315-2.919-1.946-.906-4.428-.906-3.858 0-7.112 1.61-3.22 1.577-5.703 4.63-2.314 2.851-3.354 6.541-1.04 3.657-1.04 8.051 0 .873.033 1.913.067 1.006.201 2.28 1.242-1.744 3.825-4.025 3.455-3.052 6.508-4.227 2.65-1.006 5.468-1.543 1.576-.302 5.367-.771 3.79-.47 6.072-.906 3.69-.704 5.636-1.71 3.019-1.578 3.019-4.127 0-1.744-1.007-2.348-.268-.202-.939-.202-.402 0-.604.135-.369.302-.57.302-.168 0-.168-.336 0-.033.101-.57.134-.537.839-1.107.704-.57 1.61-.57 1.409 0 2.214 1.073.805 1.04.805 2.415z" style="font-style:normal;font-variant:normal;font-weight:400;font-stretch:normal;font-family:Harrington;-inkscape-font-specification:Harrington;vector-effect:none;fill:#c8b8a0;fill-opacity:.54827001;stroke:none;stroke-width:1.36500001;stroke-linecap:butt;stroke-linejoin:miter;stroke-miterlimit:4;stroke-dasharray:none;stroke-dashoffset:0;stroke-opacity:1" transform="matrix(1.00094 .03379 -.03368 .99793 24.23 -5.69)" aria-label="E"/></g></svg>