<svg xmlns="http://www.w3.org/2000/svg" width="78.886" height="132.703" viewBox="0 0 20.872 35.111"><path style="fill:#fff;stroke-width:.0789015" d="M93.407 158.326c-.904-.066-1.262-.164-1.262-.345 0-.164-.45-.66-.73-.804-.127-.066-.212-.14-.189-.163.024-.023.21.051.414.165.407.228.53.215.308-.031-.249-.275-.004-.171.274.117l.267.274.242-.452.242-.452-.002-5.444c-.002-5.686-.012-5.901-.356-7.013-.193-.626-.712-1.418-1.092-1.669-.157-.103-.658-.317-1.113-.475a13.14 13.14 0 0 1-1.045-.4c-.188-.097-.253-.096-.494.005-.152.064-.277.148-.277.188 0 .039-.08.16-.178.269-.097.108-.23.298-.295.42-.066.123-.265.296-.443.386-.22.111-.355.245-.42.42-.106.287-.37.398-.624.263a.808.808 0 0 0-.303-.088c-.079-.001-.245-.092-.368-.2-.168-.148-.213-.244-.18-.382.067-.261-.192-.467-.607-.485-.52-.022-.685-.098-.685-.317 0-.106-.035-.192-.079-.192-.043 0-.079-.117-.079-.26 0-.144-.043-.304-.097-.358-.055-.055-.1-.314-.102-.597-.005-.456-.029-.524-.26-.756-.177-.177-.241-.302-.209-.405.04-.122.008-.149-.18-.149-.312 0-.466-.144-.527-.494-.04-.229-.024-.308.07-.344.151-.058.16-.187.013-.187-.06 0-.153-.053-.206-.118-.13-.156.046-.432.42-.663.255-.158.526-.158.526 0 0 .039.036.07.079.07.043 0 .079-.104.079-.231 0-.29.077-.338.55-.345l.376-.006.09-.385c.048-.212.088-.453.088-.536 0-.082.09-.209.2-.281.163-.106.24-.114.4-.042.26.12.351.114.3-.018-.045-.12.163-.365.312-.365.054 0 .092-.095.086-.217-.007-.175-.05-.222-.224-.242-.252-.03-.347-.212-.219-.418.078-.124.057-.163-.145-.267-.132-.069-.236-.186-.236-.267 0-.106-.089-.163-.334-.215-.243-.051-.341-.114-.36-.228a1.443 1.443 0 0 0-.115-.34c-.12-.24.003-.44.289-.475.327-.039.342-.23.037-.486-.24-.202-.256-.242-.165-.393.055-.091.079-.203.051-.247-.081-.132.038-.466.167-.466.066 0 .207-.057.313-.126.154-.101.177-.156.114-.273-.06-.114-.045-.164.07-.226.107-.057.148-.167.148-.4 0-.194.054-.38.139-.473.076-.084.118-.207.093-.272-.07-.18.171-.687.347-.733.199-.052.193-.113-.045-.463-.242-.357-.243-.39-.013-.608.1-.095.206-.237.234-.313.07-.191.282-.26.46-.15.24.152.317.105.178-.108-.105-.16-.114-.24-.043-.395.075-.164.143-.194.44-.194.194 0 .372.032.396.07.023.038.15.085.28.104.179.027.247 0 .282-.109.025-.08.097-.144.159-.144s.113-.036.113-.079c0-.043-.064-.079-.142-.079a.384.384 0 0 1-.237-.094c-.135-.136-.12-.59.022-.644.065-.024.14-.191.17-.37.046-.295.087-.343.415-.489.38-.169 1.002-.202 1.144-.06.044.043.144.08.222.08.237 0 .847-.346.85-.481.003-.173.255-.387.456-.387.123 0 .173-.057.191-.217.027-.236-.01-.23.87-.14.204.02.393.003.419-.04.026-.042.134-.077.24-.077.158 0 .193.04.193.218s.048.232.267.3c.203.064.301.06.406-.017.28-.205.59.211.59.794 0 .157.054.28.152.34.141.089.149.076.108-.177-.088-.538.324-.646 1.03-.271.402.213.568.476.445.706a.732.732 0 0 0-.079.193c0 .093.222.039.319-.078.142-.171.488-.112.594.102.048.098.146.242.218.322.073.08.132.226.132.325 0 .16.027.175.256.132.833-.156.826-.157 1.045.062.144.144.202.277.187.424-.033.309.061.412.373.412.252 0 .288.03.435.375.092.213.149.486.132.631-.018.158.006.257.061.257.137 0 .584.454.67.68.082.216.021.59-.11.676-.057.036-.051.114.018.243.056.104.09.25.075.322-.015.08.054.173.171.233.15.076.2.165.205.373.005.15.018.31.03.353.048.18-.01.284-.2.357-.245.093-.233.34.017.377a.627.627 0 0 1 .312.182c.117.13.125.185.047.31a.638.638 0 0 0-.095.27c0 .066-.07.164-.158.218a.367.367 0 0 0-.157.277c0 .098-.036.178-.08.178-.145 0-.08.14.085.183.09.023.183.114.206.202.035.133.065.144.188.067.123-.077.184-.056.371.123.255.243.386.264.622.099.148-.104.179-.102.288.02.179.198.248.55.135.686-.076.091-.07.14.03.241.151.15.161.286.032.415-.073.074-.041.095.143.095.221 0 .583.24.583.385 0 .167-.275.586-.407.62-.106.029-.135.084-.101.192a.314.314 0 0 1-.044.263c-.114.137-.038.275.153.275.079 0 .182.047.23.104.108.13.029.652-.117.773-.06.05-.108.174-.108.278 0 .104-.033.25-.073.326-.04.075-.09.194-.112.263-.042.141-.657.258-.957.183-.246-.062-.622.306-.55.536.063.196-.3.529-.582.533-.218.003-.488.136-.488.24 0 .041.098.057.217.035.357-.065.44.052.456.646l.015.538.33.08c.356.088.483.216.427.432-.029.11.006.13.187.104.258-.038.534.204.618.542.044.178.02.22-.172.29-.123.045-.179.084-.124.088.134.009.124.202-.027.492-.112.216-.154.238-.394.199-.225-.037-.27-.02-.27.101 0 .08-.128.248-.284.373-.237.19-.289.287-.31.577-.016.192-.077.386-.139.431a.642.642 0 0 0-.174.28c-.138.434-.275.551-.644.551-.193 0-.453-.053-.578-.118-.125-.064-.28-.097-.343-.073-.064.024-.14.006-.168-.04-.028-.046-.087-.084-.13-.084-.044 0-.061.03-.04.065.058.092-.391.566-.536.566-.066 0-.241-.107-.39-.237-.148-.13-.323-.237-.388-.237-.127 0-.215-.16-.215-.39 0-.077-.074-.234-.163-.347a1.235 1.235 0 0 1-.206-.478l-.044-.27-.41.022c-.47.027-.795.174-1.135.514-.454.454-.449.386-.449 5.841 0 2.756.03 5.288.067 5.627.06.56.077.604.182.474s.111-.114.064.171c-.049.3-.044.309.094.187.199-.175.623-.383.779-.383.094 0 .053.088-.154.33-.314.366-.361.507-.13.383.35-.187.364-.063.032.273l-.35.355-.686-.012a32.103 32.103 0 0 1-1.515-.072zm1.853-13.587a8.49 8.49 0 0 1 .481-.61c.311-.35.384-.62.217-.805-.1-.11-.107-.163-.031-.254s.062-.146-.068-.277c-.09-.09-.236-.163-.325-.163-.192 0-.425-.478-.35-.716.07-.221-.079-.187-.183.043-.242.53-.332 1.144-.288 1.95.074 1.322.135 1.415.547.832zm-2.715-4.14c-.064-1.035-.13-1.501-.29-2.042a252.26 252.26 0 0 1-.247-.839c-.102-.355-.231-.033-.189.47a.272.272 0 0 1-.138.255c-.1.053-.139.136-.113.236.025.093-.043.263-.174.435-.168.22-.27.28-.47.28-.464 0-.59.327-.33.861.13.27 1.887 1.834 1.968 1.753.037-.037.03-.669-.017-1.409zm-1.428 1.183c-.007-.15-.613-.936-.806-1.044-.262-.146-.48-.045-.521.243a.694.694 0 0 1-.104.282c-.093.113.106.231.723.43.471.151.712.181.708.088zm3.892-.837c.095-.102.255-.228.355-.28.227-.12.81-.906 1.076-1.45.19-.389.44-1.383.553-2.2.051-.367.05-.37-.229-.47-.154-.056-.28-.121-.28-.145 0-.025-.09-.142-.2-.26a.584.584 0 0 0-.473-.217c-.154 0-.273.04-.273.091 0 .05-.093.288-.207.528-.516 1.091-.74 2.195-.74 3.662 0 .784.019.927.122.927.067 0 .2-.084.296-.186zm2.107-.682c0-.088.052-.158.118-.158.065 0 .118-.033.118-.074 0-.04.098-.085.217-.098.122-.014.217-.074.217-.136 0-.158.264-.235.64-.188.198.025.347.006.38-.047.083-.135.293-.106.476.066.117.11.197.132.28.077.098-.064.082-.104-.099-.24-.12-.09-.217-.202-.217-.25 0-.196-.42-.688-.587-.688a.426.426 0 0 1-.262-.091c-.12-.121-.593.266-1.35 1.104l-.568.631.178.125c.25.175.459.16.459-.033zm-3.83-2.359c-.137-1.053-.138-1.057-.445-1.364-.257-.256-.694-.522-.727-.442a4.61 4.61 0 0 1-.097.18c-.071.126-.049.27.107.71.223.625.906 2.108 1.11 2.407l.134.197.027-.316c.015-.173-.035-.79-.11-1.372zm.819 1.077c.043-.141.1-.399.128-.573.027-.173.121-.608.209-.966.188-.768.154-.967-.166-.967-.123 0-.272-.017-.33-.038-.057-.02-.189.027-.291.106l-.186.144.131.979c.207 1.542.334 1.872.505 1.315zm3.996-.818c.141-.104.141-.115-.006-.391-.163-.306-.377-.465-.543-.401-.111.043-.515 1.03-.515 1.261 0 .124.058.11.459-.11.252-.14.525-.3.605-.36zm-6.35-.955c0-.031-.06-.21-.131-.398-.106-.278-.197-.372-.485-.503-.292-.133-.385-.145-.53-.068-.206.11-.495.129-.69.043-.107-.047-.137-.022-.137.115 0 .166.022.173.426.122.246-.03.446-.021.473.022.025.04.17.098.323.126.182.035.277.096.277.18 0 .161.226.418.367.418.059 0 .106-.026.106-.057zm3.295-.876c.017-.051-.026-.115-.097-.143-.165-.063-.217-.009-.153.16.055.144.2.134.25-.017zm7.711-1.987c.027-.043-.006-.079-.074-.079-.068 0-.123.036-.123.08 0 .042.033.078.074.078.04 0 .096-.036.123-.079z" transform="translate(-82.792 -123.3)"/></svg>