<?xml version="1.0" encoding="UTF-8" standalone="no"?>
<!-- Created with Inkscape (http://www.inkscape.org/) -->

<svg
   xmlns:dc="http://purl.org/dc/elements/1.1/"
   xmlns:cc="http://creativecommons.org/ns#"
   xmlns:rdf="http://www.w3.org/1999/02/22-rdf-syntax-ns#"
   xmlns:svg="http://www.w3.org/2000/svg"
   xmlns="http://www.w3.org/2000/svg"
   xmlns:sodipodi="http://sodipodi.sourceforge.net/DTD/sodipodi-0.dtd"
   xmlns:inkscape="http://www.inkscape.org/namespaces/inkscape"
   width="20.871979mm"
   height="35.111012mm"
   viewBox="0 0 20.871979 35.111012"
   version="1.1"
   id="svg5"
   inkscape:version="0.92.4 (5da689c313, 2019-01-14)"
   sodipodi:docname="tree.svg">
  <metadata
     id="metadata8">
    <rdf:RDF>
      <cc:Work
         rdf:about="">
        <dc:format>image/svg+xml</dc:format>
        <dc:type
           rdf:resource="http://purl.org/dc/dcmitype/StillImage" />
        <dc:title />
      </cc:Work>
    </rdf:RDF>
  </metadata>
  <sodipodi:namedview
     id="namedview7"
     pagecolor="#505050"
     bordercolor="#eeeeee"
     borderopacity="1"
     inkscape:pageshadow="0"
     inkscape:pageopacity="0"
     inkscape:pagecheckerboard="0"
     inkscape:document-units="mm"
     showgrid="false"
     inkscape:zoom="1.3416246"
     inkscape:cx="-372.17264"
     inkscape:cy="60.9385"
     inkscape:window-width="1920"
     inkscape:window-height="1017"
     inkscape:window-x="1072"
     inkscape:window-y="394"
     inkscape:window-maximized="1"
     inkscape:current-layer="layer1"
     fit-margin-top="0"
     fit-margin-left="0"
     fit-margin-right="0"
     fit-margin-bottom="0" />
  <defs
     id="defs2" />
  <g
     inkscape:label="Layer 1"
     inkscape:groupmode="layer"
     id="layer1"
     transform="translate(-82.792392,-123.30015)">
    <path
       style="fill:#ffffff;stroke-width:0.0789015"
       d="m 93.407289,158.32643 c -0.904592,-0.0663 -1.262421,-0.16431 -1.262421,-0.34567 0,-0.16364 -0.449382,-0.65888 -0.729162,-0.80357 -0.127776,-0.0661 -0.213117,-0.13934 -0.189651,-0.16281 0.02345,-0.0234 0.209701,0.0506 0.413842,0.16476 0.406984,0.22747 0.530831,0.21499 0.30815,-0.0311 -0.248756,-0.27488 -0.0044,-0.17112 0.274385,0.11655 l 0.266331,0.27478 0.242285,-0.45229 0.242285,-0.45232 -0.002,-5.4442 c -0.002,-5.6853 -0.01268,-5.90096 -0.356038,-7.01242 -0.193367,-0.62604 -0.712082,-1.41844 -1.092549,-1.66899 -0.157036,-0.10341 -0.657884,-0.31732 -1.112999,-0.47533 -0.45511,-0.15802 -0.925095,-0.3378 -1.044411,-0.3995 -0.188213,-0.0974 -0.253627,-0.0968 -0.494122,0.005 -0.152461,0.0637 -0.277194,0.14795 -0.277194,0.18723 0,0.0393 -0.07989,0.16035 -0.177526,0.26909 -0.09764,0.1087 -0.230822,0.29795 -0.295963,0.4205 -0.06513,0.12258 -0.264299,0.29619 -0.442584,0.38588 -0.220564,0.11096 -0.35451,0.24491 -0.419167,0.41923 -0.106581,0.28735 -0.371387,0.39898 -0.624759,0.26337 -0.08798,-0.047 -0.224432,-0.0868 -0.303234,-0.088 -0.0788,-0.001 -0.24442,-0.0915 -0.368056,-0.20019 -0.168103,-0.1478 -0.2132,-0.2439 -0.178807,-0.38093 0.06564,-0.26155 -0.192672,-0.46789 -0.607609,-0.48537 -0.520281,-0.0219 -0.685172,-0.0983 -0.685172,-0.31712 0,-0.10552 -0.03549,-0.19192 -0.07891,-0.19192 -0.04339,0 -0.07889,-0.11715 -0.07889,-0.26038 0,-0.14327 -0.04364,-0.30402 -0.097,-0.35737 -0.05492,-0.0549 -0.0994,-0.31414 -0.102565,-0.5978 -0.0051,-0.45578 -0.02847,-0.52378 -0.260635,-0.75591 -0.176283,-0.17627 -0.240451,-0.30115 -0.207732,-0.40423 0.03893,-0.12273 0.0071,-0.14915 -0.179604,-0.14915 -0.31249,0 -0.466991,-0.14447 -0.528234,-0.49415 -0.04007,-0.22884 -0.02402,-0.30766 0.07011,-0.34378 0.151404,-0.0581 0.160681,-0.18779 0.01344,-0.18779 -0.05977,0 -0.152746,-0.053 -0.206585,-0.1179 -0.12909,-0.15552 0.046,-0.43149 0.420703,-0.66307 0.254838,-0.15748 0.525786,-0.15726 0.525786,6.1e-4 0,0.0388 0.03549,0.0705 0.07889,0.0705 0.04339,0 0.07891,-0.10447 0.07891,-0.23204 0,-0.28917 0.07676,-0.33728 0.549602,-0.34441 l 0.377003,-0.006 0.08901,-0.38559 c 0.04893,-0.21211 0.08901,-0.45311 0.08901,-0.53558 0,-0.0824 0.09022,-0.20909 0.200482,-0.28134 0.162069,-0.10613 0.238379,-0.11413 0.398225,-0.0414 0.261514,0.11911 0.352222,0.11368 0.301648,-0.0181 -0.0462,-0.12032 0.162406,-0.36523 0.311134,-0.36523 0.05389,0 0.09165,-0.0947 0.08653,-0.21699 -0.0072,-0.17467 -0.05097,-0.22192 -0.224241,-0.24238 -0.252097,-0.0299 -0.347317,-0.21138 -0.218775,-0.4172 0.07779,-0.12455 0.05684,-0.1632 -0.145349,-0.26772 -0.131988,-0.0682 -0.236257,-0.18601 -0.236257,-0.26677 0,-0.10628 -0.08846,-0.16324 -0.334275,-0.21508 -0.243031,-0.0513 -0.341061,-0.11353 -0.359124,-0.22819 -0.01374,-0.0867 -0.06576,-0.23988 -0.11576,-0.34035 -0.119066,-0.23922 0.0032,-0.43997 0.289197,-0.47395 0.327242,-0.0389 0.341845,-0.22945 0.03727,-0.48646 -0.239703,-0.20227 -0.256569,-0.24225 -0.165585,-0.39246 0.05569,-0.0919 0.079,-0.20333 0.05173,-0.24743 -0.08149,-0.13194 0.0381,-0.46571 0.166842,-0.46571 0.06579,0 0.206446,-0.0569 0.312562,-0.12651 0.154206,-0.101 0.177207,-0.1558 0.114567,-0.27284 -0.06084,-0.11368 -0.04524,-0.16414 0.06969,-0.22565 0.107457,-0.0575 0.148051,-0.16702 0.148051,-0.39945 0,-0.19476 0.05435,-0.38023 0.138676,-0.47344 0.07628,-0.0842 0.11807,-0.20696 0.09289,-0.2726 -0.06866,-0.17894 0.171881,-0.68702 0.346922,-0.7328 0.199137,-0.0521 0.193315,-0.11322 -0.04408,-0.46311 -0.24217,-0.35685 -0.24294,-0.3907 -0.01389,-0.60774 0.100875,-0.0956 0.206587,-0.2367 0.23492,-0.31363 0.07018,-0.19061 0.282023,-0.25925 0.458969,-0.1487 0.241367,0.15081 0.318054,0.10386 0.178501,-0.10915 -0.105193,-0.16055 -0.113752,-0.23914 -0.04295,-0.3945 0.07468,-0.1639 0.14307,-0.19402 0.440493,-0.19402 0.193652,0 0.371509,0.0314 0.395237,0.0697 0.0237,0.0383 0.149666,0.0854 0.279876,0.10446 0.178934,0.0263 0.247892,-4.2e-4 0.282437,-0.10929 0.02511,-0.0791 0.09657,-0.14402 0.158738,-0.14402 0.06218,0 0.113028,-0.0355 0.113028,-0.0788 0,-0.0433 -0.0639,-0.0788 -0.142013,-0.0788 -0.07811,0 -0.18463,-0.0426 -0.236711,-0.0947 -0.135295,-0.13526 -0.119595,-0.58897 0.02224,-0.64341 0.06431,-0.0246 0.140412,-0.19171 0.169109,-0.37116 0.04709,-0.29428 0.08782,-0.34212 0.415644,-0.48784 0.380035,-0.16893 1.002361,-0.20207 1.143532,-0.0608 0.04396,0.0439 0.144277,0.08 0.222877,0.08 0.236149,0 0.846758,-0.34583 0.849085,-0.4809 0.0032,-0.17295 0.255671,-0.38701 0.456822,-0.38701 0.122524,0 0.172627,-0.0569 0.19104,-0.21699 0.02708,-0.2353 -0.01102,-0.22921 0.869485,-0.13964 0.204108,0.0207 0.392612,0.003 0.418893,-0.0395 0.02625,-0.0426 0.134449,-0.0773 0.240374,-0.0773 0.157595,0 0.192599,0.0395 0.192599,0.2174 0,0.17805 0.04842,0.23255 0.267522,0.30113 0.202349,0.0632 0.301118,0.0592 0.405406,-0.0172 0.280583,-0.20516 0.589499,0.21051 0.589499,0.79323 0,0.15706 0.05486,0.27966 0.152404,0.34058 0.141892,0.0886 0.149349,0.0762 0.108136,-0.1776 -0.08724,-0.53763 0.324374,-0.64584 1.030872,-0.27106 0.401843,0.21318 0.567735,0.47664 0.444781,0.70637 -0.04358,0.0815 -0.07926,0.16819 -0.07926,0.19275 0,0.0933 0.221781,0.0392 0.318913,-0.0777 0.142058,-0.17118 0.487621,-0.11171 0.593623,0.10206 0.04823,0.0974 0.146707,0.24216 0.218805,0.32181 0.07209,0.0797 0.131068,0.22596 0.131068,0.32512 0,0.16065 0.0279,0.17502 0.256429,0.13209 0.832991,-0.15631 0.826261,-0.1567 1.045169,0.0622 0.143431,0.14341 0.201905,0.27638 0.186434,0.42386 -0.03237,0.30844 0.06161,0.41206 0.373612,0.41206 0.252039,0 0.287375,0.0305 0.43532,0.37477 0.0914,0.21275 0.14822,0.48564 0.1314,0.63121 -0.0181,0.15793 0.006,0.25643 0.0611,0.25643 0.13677,0 0.58419,0.4541 0.67012,0.68014 0.0823,0.21659 0.0213,0.58969 -0.11066,0.67578 -0.0566,0.0368 -0.0506,0.11428 0.0186,0.24352 0.0557,0.10417 0.0897,0.24919 0.0753,0.32216 -0.0157,0.0791 0.0536,0.17302 0.17112,0.23244 0.15021,0.0759 0.19911,0.16502 0.20502,0.37336 0.005,0.15051 0.0174,0.30911 0.0291,0.3525 0.0489,0.18129 -0.009,0.28446 -0.20037,0.35724 -0.2442,0.0928 -0.23234,0.34115 0.0181,0.37701 0.0927,0.0136 0.23274,0.0951 0.31129,0.18195 0.1173,0.12953 0.12575,0.18501 0.0477,0.31012 -0.0524,0.0838 -0.0951,0.20576 -0.0951,0.27107 0,0.0654 -0.071,0.1631 -0.1578,0.21731 -0.0868,0.0542 -0.1578,0.17878 -0.1578,0.27683 0,0.0981 -0.0355,0.17827 -0.079,0.17827 -0.14538,0 -0.0808,0.13889 0.0848,0.18219 0.0901,0.0234 0.18241,0.11443 0.20532,0.20209 0.0349,0.13361 0.0654,0.14448 0.18874,0.0675 0.12288,-0.0767 0.18399,-0.0565 0.37102,0.12274 0.2542,0.24353 0.3853,0.26435 0.62177,0.0987 0.14749,-0.10326 0.17866,-0.10115 0.28757,0.0196 0.17876,0.19839 0.24826,0.55077 0.13541,0.68671 -0.0759,0.0915 -0.0697,0.141 0.0306,0.24132 0.15036,0.15036 0.16063,0.28563 0.0316,0.41475 -0.0737,0.0737 -0.0418,0.0947 0.14297,0.0947 0.22059,0 0.58296,0.23961 0.58296,0.38546 0,0.16721 -0.27507,0.58617 -0.4076,0.62083 -0.10553,0.0276 -0.13497,0.0833 -0.101,0.1908 0.0266,0.0835 0.006,0.20181 -0.0439,0.26292 -0.11428,0.13783 -0.0377,0.27583 0.15308,0.27583 0.079,0 0.18217,0.0466 0.22947,0.10356 0.10809,0.13028 0.0296,0.65166 -0.11625,0.7727 -0.0595,0.0495 -0.10824,0.17473 -0.10824,0.27849 0,0.10386 -0.0331,0.25031 -0.0732,0.32567 -0.0402,0.0753 -0.0904,0.19389 -0.11141,0.26341 -0.0426,0.14085 -0.65709,0.25807 -0.9576,0.18263 -0.24554,-0.0616 -0.62196,0.30607 -0.54892,0.53618 0.0622,0.19596 -0.3013,0.52837 -0.58254,0.53273 -0.2178,0.003 -0.48795,0.13647 -0.48795,0.24035 0,0.0408 0.0977,0.0563 0.21698,0.0346 0.35687,-0.0652 0.43955,0.0522 0.45567,0.64652 l 0.0151,0.5376 0.33001,0.0806 c 0.35571,0.087 0.48329,0.21594 0.42688,0.43164 -0.0288,0.11035 0.006,0.12998 0.18745,0.10341 0.25767,-0.0377 0.5338,0.20486 0.61763,0.54279 0.0442,0.17807 0.0192,0.22008 -0.17169,0.28966 -0.12289,0.0447 -0.17896,0.0841 -0.1247,0.0876 0.13436,0.009 0.12394,0.20193 -0.0266,0.49278 -0.11156,0.21588 -0.15423,0.2373 -0.3945,0.19831 -0.22479,-0.0365 -0.26935,-0.0196 -0.26935,0.10144 0,0.0799 -0.12802,0.24786 -0.28438,0.37333 -0.23682,0.18998 -0.28871,0.28644 -0.31037,0.57692 -0.0151,0.19185 -0.0764,0.38569 -0.13814,0.43077 -0.0617,0.0451 -0.14009,0.17059 -0.17441,0.2789 -0.13752,0.43459 -0.27454,0.55202 -0.64431,0.55202 -0.19244,0 -0.452405,-0.0531 -0.577686,-0.11775 -0.125286,-0.0648 -0.279705,-0.0978 -0.343157,-0.0735 -0.06345,0.0243 -0.138812,0.006 -0.167459,-0.04 -0.02867,-0.0463 -0.08759,-0.0842 -0.130992,-0.0842 -0.04339,0 -0.06072,0.0294 -0.03848,0.0654 0.05715,0.0924 -0.391961,0.56583 -0.536757,0.56583 -0.06603,0 -0.241369,-0.10658 -0.389643,-0.23669 -0.148278,-0.13014 -0.32324,-0.23672 -0.388815,-0.23672 -0.126992,0 -0.215003,-0.15976 -0.215003,-0.39032 0,-0.0774 -0.07316,-0.23371 -0.162565,-0.34737 -0.0894,-0.11367 -0.18233,-0.3285 -0.206491,-0.47741 l -0.04396,-0.27074 -0.409166,0.0228 c -0.46966,0.0261 -0.795455,0.1735 -1.135852,0.5139 -0.453746,0.45375 -0.448491,0.38526 -0.448343,5.84108 7.6e-5,2.75564 0.02995,5.28776 0.06639,5.62693 0.06014,0.55982 0.07696,0.6035 0.182285,0.47343 0.105283,-0.12998 0.111261,-0.11413 0.06461,0.17121 -0.04912,0.30054 -0.04499,0.30884 0.09373,0.18704 0.198762,-0.17454 0.622696,-0.38319 0.778585,-0.38319 0.09408,0 0.05294,0.0882 -0.153883,0.3298 -0.313453,0.36621 -0.361099,0.50694 -0.129694,0.38308 0.34891,-0.18672 0.363552,-0.0626 0.03225,0.27339 l -0.350032,0.35505 -0.686722,-0.0121 c -0.377696,-0.006 -1.059524,-0.0386 -1.515178,-0.0722 z m 1.853181,-13.58779 c 0.129633,-0.1835 0.346037,-0.45791 0.480894,-0.60979 0.31077,-0.35001 0.38334,-0.61983 0.216347,-0.80436 -0.100014,-0.1105 -0.10649,-0.16331 -0.03116,-0.25406 0.07621,-0.0918 0.0627,-0.14688 -0.06802,-0.27762 -0.08969,-0.0897 -0.235901,-0.16309 -0.32491,-0.16309 -0.191416,0 -0.424646,-0.47816 -0.349191,-0.7159 0.07023,-0.22126 -0.0792,-0.18638 -0.183648,0.0429 -0.24166,0.53037 -0.332096,1.14398 -0.287344,1.94976 0.07343,1.32215 0.134887,1.41564 0.547048,0.83221 z m -2.715263,-4.13955 c -0.06469,-1.03524 -0.130977,-1.50122 -0.290517,-2.04211 -0.113676,-0.38543 -0.224546,-0.76293 -0.246362,-0.83888 -0.101977,-0.35492 -0.231378,-0.0335 -0.188989,0.46938 0.0086,0.10175 -0.04861,0.20733 -0.138404,0.25538 -0.09947,0.0533 -0.138963,0.13572 -0.112831,0.23569 0.02453,0.0937 -0.04352,0.26351 -0.174283,0.43499 -0.167746,0.21993 -0.269981,0.28122 -0.469055,0.28122 -0.465126,0 -0.590724,0.32593 -0.331613,0.86057 0.130781,0.26987 1.887385,1.83358 1.968556,1.7524 0.03714,-0.0371 0.02975,-0.66835 -0.0165,-1.40864 z m -1.428467,1.18244 c -0.0063,-0.15036 -0.612602,-0.93576 -0.805656,-1.04331 -0.262546,-0.14628 -0.479586,-0.0453 -0.521097,0.24262 -0.0151,0.10417 -0.06168,0.2311 -0.103713,0.28232 -0.09292,0.11322 0.105404,0.23105 0.722764,0.42954 0.471329,0.15154 0.711479,0.18169 0.707708,0.0888 z m 3.892073,-0.8362 c 0.09556,-0.1019 0.255289,-0.22827 0.354932,-0.28087 0.226929,-0.11986 0.809981,-0.90529 1.075993,-1.44961 0.190046,-0.38887 0.440079,-1.38264 0.55361,-2.20037 0.05084,-0.36611 0.04952,-0.36887 -0.228885,-0.46953 -0.154002,-0.0557 -0.280011,-0.12108 -0.280011,-0.14538 0,-0.0243 -0.0902,-0.14145 -0.20045,-0.26029 -0.14405,-0.15535 -0.277251,-0.21617 -0.473407,-0.21617 -0.153589,0 -0.272963,0.0399 -0.272963,0.091 0,0.0501 -0.09301,0.2876 -0.206675,0.52788 -0.516249,1.09126 -0.739331,2.19529 -0.739834,3.66152 -2.35e-4,0.78432 0.01848,0.92707 0.121799,0.92707 0.06718,0 0.200323,-0.0833 0.295888,-0.18525 z m 2.106847,-0.68266 c 0,-0.0876 0.05263,-0.1578 0.118357,-0.1578 0.06508,0 0.118341,-0.0331 0.118341,-0.0737 0,-0.0404 0.09764,-0.0848 0.216983,-0.0986 0.121421,-0.0136 0.216979,-0.0735 0.216979,-0.13541 0,-0.15799 0.26405,-0.23552 0.640535,-0.1881 0.197143,0.0249 0.346361,0.006 0.379436,-0.0472 0.08317,-0.13451 0.292797,-0.10553 0.475286,0.066 0.117828,0.11065 0.197149,0.13254 0.281247,0.0773 0.09763,-0.064 0.08102,-0.10386 -0.09985,-0.23964 -0.119337,-0.0897 -0.216985,-0.20241 -0.216985,-0.25071 0,-0.19541 -0.420085,-0.68805 -0.586709,-0.68805 -0.0939,0 -0.211798,-0.0411 -0.261973,-0.0912 -0.120802,-0.12078 -0.593711,0.2663 -1.349435,1.10461 l -0.56873,0.63088 0.17801,0.1247 c 0.249593,0.1748 0.458505,0.15972 0.458505,-0.0332 z m -3.830479,-2.35821 c -0.136035,-1.05366 -0.137152,-1.0571 -0.44424,-1.36421 -0.256543,-0.25653 -0.69436,-0.52271 -0.726746,-0.44184 -0.0051,0.0121 -0.04875,0.0928 -0.09757,0.17974 -0.07067,0.1256 -0.04867,0.2705 0.10785,0.71011 0.222483,0.62492 0.905949,2.1079 1.108998,2.40632 l 0.134359,0.19743 0.02689,-0.31561 c 0.0148,-0.17358 -0.03453,-0.79095 -0.109509,-1.37194 z m 0.819455,1.07606 c 0.04313,-0.141 0.100739,-0.39845 0.128079,-0.57203 0.02734,-0.17358 0.121421,-0.60869 0.209095,-0.96692 0.187829,-0.76749 0.153808,-0.96617 -0.165469,-0.96617 -0.123716,0 -0.272225,-0.0171 -0.330014,-0.038 -0.05779,-0.021 -0.188925,0.0266 -0.291408,0.10552 l -0.186326,0.14372 0.131611,0.97929 c 0.207203,1.54176 0.334008,1.87222 0.504431,1.31462 z m 3.99629,-0.81777 c 0.141469,-0.10341 0.141303,-0.11473 -0.0057,-0.39085 -0.162782,-0.30601 -0.377403,-0.46465 -0.542733,-0.4012 -0.111835,0.0429 -0.515879,1.03116 -0.515879,1.26178 0,0.12379 0.05842,0.1096 0.459231,-0.11066 0.252581,-0.13889 0.524805,-0.30041 0.604937,-0.35901 z m -6.350568,-0.95487 c 0,-0.0311 -0.05868,-0.21022 -0.130419,-0.39803 -0.106113,-0.27787 -0.196475,-0.37159 -0.484875,-0.50297 -0.291626,-0.13285 -0.385528,-0.14478 -0.529707,-0.0676 -0.205999,0.11021 -0.495457,0.12848 -0.689461,0.0432 -0.108257,-0.0475 -0.138072,-0.0228 -0.138072,0.11473 0,0.16613 0.02243,0.17254 0.42638,0.12213 0.24556,-0.0306 0.445953,-0.0216 0.472541,0.0214 0.02536,0.0411 0.170817,0.0981 0.323183,0.12666 0.18187,0.0341 0.277028,0.096 0.277028,0.18027 0,0.16049 0.225872,0.41686 0.367285,0.41686 0.05836,0 0.106129,-0.0254 0.106129,-0.0566 z m 3.295772,-0.87544 c 0.0172,-0.0515 -0.02651,-0.11579 -0.0971,-0.14297 -0.164592,-0.0631 -0.217437,-0.009 -0.153098,0.15954 0.05524,0.14402 0.199845,0.13436 0.250199,-0.0168 z m 7.71097,-1.98737 c 0.0269,-0.0435 -0.006,-0.0789 -0.0741,-0.0789 -0.0676,0 -0.12304,0.0355 -0.12304,0.0789 0,0.0433 0.0334,0.0788 0.0741,0.0788 0.0408,0 0.0962,-0.0355 0.12304,-0.0788 z"
       id="path3107"
       sodipodi:nodetypes="cssscscccccsssscsssssscssssssscsssssscsssscccsscssccscsccscsccssscssscssssscscscssscccssscssscssscssssssssssssssscsssccsccssscssssccssscsssssssssccssssscssscsscscsscsscssssscscsssssccssssssssssccccccsssssscsccsssssscssssscscsscsssssssssscsscsscsscssssscscscccscscscsccsssscccssscccssccsssssscccsssscscccsssss"
       inkscape:connector-curvature="0" />
  </g>
</svg>
