<?xml version="1.0" encoding="UTF-8"?>
<svg width="77.924mm" height="68.516mm" version="1.1" viewBox="0 0 77.924 68.516" xmlns="http://www.w3.org/2000/svg">
<g transform="translate(-45.966 -35.311)">
<path d="m73.909 102.64c-1.562-0.18075-3.06-0.40975-3.3288-0.50888-0.70681-0.26064-1.9798-2.9237-3.3487-7.0058-1.0772-3.2121-1.3153-3.5953-2.4379-3.9247-0.68427-0.20074-1.3747-0.23443-1.5342-0.07483-0.24012 0.24012 1.8322 6.8283 2.9048 9.2345 0.60645 1.3606-1.3585 0.27824-3.1869-1.7554-1.5793-1.7566-5.4221-8.791-6.0891-11.146l-0.24394-0.86142 2.7184 0.75378c7.3787 2.046 21.189 3.0694 32.472 2.4062 7.403-0.43512 14.806-1.476 18.504-2.6016 1.9244-0.58584 1.9409-0.58303 1.6824 0.28643-0.62134 2.0901-3.8432 8.3538-5.289 10.282-0.86643 1.1558-2.1703 2.3852-2.8976 2.732s-1.3222 0.54895-1.3222 0.44925 0.38289-1.1465 0.85086-2.3263c1.2175-3.0693 2.4845-7.262 2.2619-7.4847-0.10443-0.10442-0.80442-0.07452-1.5556 0.0664-1.2653 0.23737-1.4202 0.44082-2.1049 2.7647-0.40648 1.3797-1.3505 3.8321-2.0978 5.4499-1.0981 2.3772-1.5389 2.948-2.298 2.9757-0.51659 0.0189-2.0029 0.16691-3.3029 0.32905l-2.3636 0.29482 0.23162-1.2419c0.55726-2.9879 1.3628-8.9702 1.2356-9.1762-0.0766-0.12421-0.74515-0.15497-1.4856-0.06854l-1.3463 0.15717-0.67619 4.8247c-0.37191 2.6536-0.79209 5.0122-0.93374 5.2414-0.15061 0.2437-2.0852 0.4167-4.6598 0.4167h-4.4023l-0.47053-2.7896c-0.25879-1.5343-0.60985-3.8163-0.78013-5.0711-0.17028-1.2548-0.38583-2.3516-0.47899-2.4373-0.09315-0.08572-0.77656-0.28595-1.5187-0.44503l-1.3493-0.28923 0.26631 1.9661c0.14647 1.0814 0.52216 3.506 0.83487 5.3882 0.31271 1.8821 0.52618 3.4437 0.47439 3.4701-0.0518 0.0264-1.3722-0.0998-2.9342-0.28058zm-0.60857-19.646c-6.8546-0.61232-16.723-2.5535-18.02-3.5448-1.0051-0.76798-1.6441-9.7216-1.0951-15.344 0.2489-2.549 0.45254-4.8504 0.45254-5.1143 0-0.32682 0.64366-0.22603 2.0193 0.3162 5.3287 2.1004 15.77 3.3637 27.801 3.3637 12.031 0 22.472-1.2634 27.801-3.3637 1.1978-0.47214 2.0193-0.62044 2.0193-0.36454 0 0.23727 0.19961 2.6188 0.44357 5.2922 0.53217 5.8317-0.0843 14.442-1.0893 15.214-0.84129 0.6462-6.8142 2.0955-11.684 2.835-3.9511 0.60002-24.247 1.1028-28.647 0.70974zm3.9181-7.15c-0.14465-2.5104-0.26383-5.9792-0.26484-7.7086l-0.0018-3.1443h-2.84l0.0025 4.3614c0.0013 2.3988 0.11968 5.8676 0.26299 7.7086l0.26056 3.3471h2.8437l-0.26311-4.5643zm17.308-1.9301c0.14063-3.5719 0.14446-7.0505 9e-3 -7.7302-0.21937-1.0968-0.38921-1.2219-1.5107-1.1127l-1.2635 0.12302-0.11037 7.6072-0.11038 7.6072h2.7308zm-30.743 4.1359c-0.13788-0.62778-0.28369-4.051-0.32401-7.6071-0.04412-3.8906-0.23988-6.5845-0.49154-6.7638-0.23003-0.16394-0.81448-0.30087-1.2988-0.30428-0.78301-0.0055-0.90926 0.27473-1.1395 2.5295-0.14244 1.3946-0.11133 4.8165 0.06914 7.6041l0.3281 5.0684 1.2171 0.25936c0.66943 0.14265 1.3686 0.28097 1.5537 0.30737 0.18509 0.02642 0.22371-0.46564 0.08582-1.0934zm44.003 0.44159c0.11163-0.09765 0.263-3.5403 0.33651-7.6503l0.13371-7.4728-0.94509 0.0063c-0.51979 0.0034-1.1512 0.14034-1.4032 0.30429-0.30296 0.19711-0.515 2.8656-0.626 7.8783l-0.16787 7.5802 1.2346-0.23419c0.67901-0.12881 1.3259-0.31409 1.4374-0.41174zm-35.703-22.858c-6.245-0.58228-14.973-2.2344-15.713-2.9743-0.50869-0.50869 2.9907-8.6843 4.8358-11.298 0.7631-1.0809 0.82081-1.0947 2.0101-0.47972 0.88181 0.456 1.1502 0.82416 0.95932 1.3157-0.49155 1.2657-2.2952 9.0748-2.1333 9.2366 0.0882 0.0882 0.70686 0.26967 1.3748 0.40326l1.2144 0.24288 1.146-4.7015c0.63031-2.5858 1.3485-4.6979 1.596-4.6935 0.2475 0.0044 1.9106 0.27188 3.6957 0.59442s3.4876 0.5928 3.7833 0.60059c0.42548 0.01119 0.48436 0.79686 0.28233 3.767-0.1404 2.0641-0.34015 4.1636-0.4439 4.6657-0.1708 0.82654-0.03444 0.91286 1.442 0.91286h1.6306l0.0029-1.7243c0.0015-0.94836 0.1197-2.9613 0.26248-4.4731l0.2596-2.7488 12.255 0.22336 0.72848 8.7229h1.36c1.355 0 1.36-0.0072 1.3392-1.9271-0.0115-1.0599-0.15536-3.1352-0.31977-4.6118l-0.29892-2.6846 4.05-0.66481c2.2275-0.36565 4.1892-0.52567 4.3592-0.35562 0.17006 0.17006 0.76807 2.2043 1.3289 4.5205 0.56085 2.3162 1.1035 4.2951 1.2058 4.3974 0.10234 0.10234 0.74669 0.06295 1.4319-0.08756 1.4158-0.31097 1.4312 0.14301-0.21124-6.2298-0.53711-2.084-0.97655-3.8593-0.97655-3.9453 0-0.08595 0.54375-0.43747 1.2083-0.78114 1.2009-0.621 1.2143-0.61539 2.1761 0.90812 2.1575 3.4177 5.1218 10.394 4.6269 10.888-0.78313 0.78314-9.3731 2.3743-16.126 2.9871-5.2898 0.48002-19.167 0.47662-24.343-6e-3zm3.0429-14.619c-3.8864-0.47631-7.7703-1.3438-9.7847-2.1855-1.1911-0.49766-1.3818-0.72337-0.99992-1.1835 0.6729-0.81079 6.0407-2.1676 10.757-2.7192 5.7856-0.67653 18.835-0.24524 23.592 0.77975 3.8654 0.83286 6.4343 1.8901 6.0608 2.4943-0.33221 0.53752-3.8904 1.6342-7.4204 2.2869-3.9271 0.72623-17.878 1.0574-22.205 0.52712zm23.024-2.6115c1.864-0.72357 0.13352-1.3921-3.625-1.4004-3.8928-0.0086-5.7939 1.0461-3.1707 1.7591 1.001 0.27208 5.827 0.01734 6.7957-0.35871z" fill="#fff" stroke-width=".40571"/>
</g>
</svg>
