<svg width="294.516" height="258.958" viewBox="0 0 77.924 68.516" xmlns="http://www.w3.org/2000/svg"><path d="M27.943 67.329c-1.562-.18-3.06-.41-3.329-.509-.707-.26-1.98-2.924-3.348-7.006-1.078-3.212-1.316-3.595-2.438-3.924-.685-.201-1.375-.235-1.535-.075-.24.24 1.833 6.828 2.905 9.234.607 1.36-1.358.279-3.187-1.755-1.579-1.757-5.422-8.791-6.089-11.146l-.244-.862 2.719.754c7.378 2.046 21.189 3.07 32.472 2.406 7.403-.435 14.806-1.476 18.504-2.601 1.924-.586 1.94-.583 1.682.286-.621 2.09-3.843 8.354-5.289 10.282-.866 1.156-2.17 2.385-2.898 2.732s-1.322.55-1.322.45.383-1.147.851-2.327c1.218-3.07 2.485-7.262 2.262-7.484-.104-.105-.804-.075-1.556.066-1.265.237-1.42.44-2.104 2.765-.407 1.38-1.351 3.832-2.098 5.45-1.098 2.377-1.54 2.948-2.298 2.975-.517.02-2.003.167-3.303.33l-2.364.294.232-1.242c.557-2.988 1.363-8.97 1.235-9.176-.076-.124-.745-.155-1.485-.069l-1.346.158-.677 4.824c-.372 2.654-.792 5.013-.933 5.242-.151.243-2.086.416-4.66.416H33.9l-.471-2.79a194.73 194.73 0 0 1-.78-5.07c-.17-1.255-.386-2.352-.48-2.438-.092-.085-.776-.286-1.518-.445l-1.35-.289.267 1.966c.147 1.082.522 3.506.835 5.388.313 1.883.526 3.444.474 3.47-.051.027-1.372-.1-2.934-.28zm-.609-19.646c-6.854-.612-16.723-2.553-18.02-3.545C8.31 43.37 7.67 34.417 8.22 28.794c.25-2.549.453-4.85.453-5.114 0-.327.644-.226 2.02.316 5.328 2.1 15.77 3.364 27.8 3.364 12.031 0 22.472-1.264 27.801-3.364 1.198-.472 2.02-.62 2.02-.364 0 .237.2 2.618.443 5.292.532 5.831-.084 14.442-1.09 15.214-.84.646-6.813 2.095-11.683 2.835-3.951.6-24.247 1.103-28.647.71zm3.919-7.15c-.145-2.51-.264-5.98-.265-7.709l-.002-3.144h-2.84l.002 4.362c.002 2.398.12 5.867.263 7.708l.26 3.347h2.845l-.263-4.564zm17.308-1.93c.14-3.572.144-7.05.009-7.73-.22-1.097-.39-1.222-1.511-1.113l-1.264.123-.11 7.607-.11 7.607h2.73zm-30.743 4.136c-.138-.628-.284-4.051-.324-7.607-.045-3.89-.24-6.585-.492-6.764-.23-.164-.814-.301-1.299-.304-.783-.006-.91.274-1.14 2.53-.142 1.394-.11 4.816.07 7.603l.328 5.069 1.217.259a39.4 39.4 0 0 0 1.554.307c.185.027.223-.465.086-1.093zm44.003.441c.111-.097.263-3.54.336-7.65l.134-7.473-.945.007c-.52.003-1.152.14-1.404.304-.302.197-.515 2.865-.626 7.878l-.167 7.58 1.234-.234c.68-.129 1.326-.314 1.438-.412zM26.118 20.322c-6.245-.582-14.973-2.234-15.713-2.974-.51-.509 2.99-8.684 4.835-11.298.763-1.08.821-1.095 2.01-.48.882.456 1.15.825.96 1.316-.492 1.266-2.295 9.075-2.134 9.237.089.088.707.27 1.375.403l1.215.243 1.146-4.702c.63-2.585 1.348-4.698 1.596-4.693.247.004 1.91.272 3.695.594s3.488.593 3.784.6c.425.012.484.798.282 3.768-.14 2.064-.34 4.163-.444 4.666-.17.826-.034.912 1.442.912h1.63l.004-1.724c.001-.948.12-2.961.262-4.473l.26-2.749 12.255.224.728 8.722h1.36c1.355 0 1.36-.007 1.34-1.927-.012-1.06-.156-3.135-.32-4.611l-.3-2.685 4.05-.665c2.228-.366 4.19-.526 4.36-.355.17.17.768 2.204 1.329 4.52.56 2.316 1.103 4.295 1.206 4.397.102.103.746.063 1.431-.087 1.416-.311 1.432.143-.21-6.23-.538-2.084-.977-3.86-.977-3.945 0-.086.543-.438 1.208-.781 1.2-.621 1.214-.616 2.176.908 2.158 3.417 5.122 10.394 4.627 10.888-.783.783-9.373 2.374-16.126 2.987-5.29.48-19.167.476-24.343-.006zM29.16 5.703c-3.886-.476-7.77-1.343-9.784-2.185-1.191-.498-1.382-.723-1-1.184.673-.81 6.04-2.167 10.757-2.719 5.785-.676 18.835-.245 23.592.78 3.865.833 6.434 1.89 6.06 2.494-.332.538-3.89 1.634-7.42 2.287-3.927.726-17.878 1.058-22.205.527zm23.024-2.611c1.864-.724.134-1.392-3.625-1.4-3.892-.01-5.793 1.046-3.17 1.759 1 .272 5.827.017 6.795-.36z" fill="#fff"/></svg>