<?xml version="1.0" encoding="UTF-8" standalone="no"?>
<!-- Created with Inkscape (http://www.inkscape.org/) -->

<svg
   width="77.9244mm"
   height="68.516296mm"
   viewBox="0 0 77.9244 68.516297"
   version="1.1"
   id="svg5"
   inkscape:version="1.1 (c68e22c387, 2021-05-23)"
   sodipodi:docname="barrel.svg"
   xmlns:inkscape="http://www.inkscape.org/namespaces/inkscape"
   xmlns:sodipodi="http://sodipodi.sourceforge.net/DTD/sodipodi-0.dtd"
   xmlns="http://www.w3.org/2000/svg"
   xmlns:svg="http://www.w3.org/2000/svg">
  <sodipodi:namedview
     id="namedview7"
     pagecolor="#505050"
     bordercolor="#eeeeee"
     borderopacity="1"
     inkscape:pageshadow="0"
     inkscape:pageopacity="0"
     inkscape:pagecheckerboard="0"
     inkscape:document-units="mm"
     showgrid="false"
     fit-margin-top="0"
     fit-margin-left="0"
     fit-margin-right="0"
     fit-margin-bottom="0"
     inkscape:zoom="0.94867184"
     inkscape:cx="167.07569"
     inkscape:cy="118.58684"
     inkscape:window-width="1920"
     inkscape:window-height="1027"
     inkscape:window-x="1072"
     inkscape:window-y="424"
     inkscape:window-maximized="1"
     inkscape:current-layer="layer1" />
  <defs
     id="defs2" />
  <g
     inkscape:label="Layer 1"
     inkscape:groupmode="layer"
     id="layer1"
     transform="translate(-45.966445,-35.310601)">
    <path
       style="fill:#ffffff;stroke-width:0.405714"
       d="m 73.908519,102.6399 c -1.562002,-0.18075 -3.059968,-0.40975 -3.328815,-0.50888 -0.706812,-0.26064 -1.97975,-2.923739 -3.348732,-7.005829 -1.077213,-3.21208 -1.315274,-3.595325 -2.43792,-3.924655 -0.684273,-0.200739 -1.374669,-0.234428 -1.534213,-0.07483 -0.240115,0.240117 1.832239,6.82832 2.904777,9.234544 0.606448,1.36057 -1.358514,0.27824 -3.186921,-1.755383 C 61.39735,96.848254 57.55455,89.813844 56.887547,87.458403 l -0.243939,-0.861423 2.718364,0.753778 c 7.378681,2.046044 21.189018,3.069396 32.472119,2.406211 7.40296,-0.43512 14.806289,-1.476029 18.503619,-2.601598 1.92441,-0.585839 1.94088,-0.583033 1.68241,0.286426 -0.62134,2.090083 -3.84321,8.353817 -5.28895,10.282402 -0.86643,1.155823 -2.17033,2.385231 -2.89755,2.732011 -0.72722,0.34678 -1.32222,0.54895 -1.32222,0.44925 0,-0.0997 0.38289,-1.146534 0.85086,-2.326293 1.21749,-3.069273 2.48454,-7.262014 2.26187,-7.484681 -0.10443,-0.104425 -0.80442,-0.07452 -1.55562,0.0664 -1.2653,0.237372 -1.42019,0.440824 -2.10487,2.764738 -0.40648,1.37967 -1.3505,3.832144 -2.097819,5.449937 -1.09814,2.377249 -1.53892,2.947999 -2.29802,2.975659 -0.51659,0.0189 -2.00289,0.16691 -3.30289,0.32905 l -2.36363,0.29482 0.23162,-1.24191 c 0.55726,-2.987927 1.36282,-8.970188 1.23565,-9.176186 -0.0766,-0.124206 -0.74515,-0.154966 -1.4856,-0.06854 l -1.34627,0.157174 -0.67619,4.82469 c -0.37191,2.653562 -0.792089,5.012192 -0.933736,5.241382 -0.150612,0.2437 -2.0852,0.4167 -4.6598,0.4167 h -4.40226 l -0.470527,-2.78961 c -0.25879,-1.534283 -0.609849,-3.816272 -0.780133,-5.071092 -0.170283,-1.25482 -0.385827,-2.351607 -0.478986,-2.437294 -0.09315,-0.08572 -0.776557,-0.28595 -1.51866,-0.445026 l -1.349278,-0.289232 0.266313,1.966123 c 0.146472,1.081376 0.522163,3.506034 0.834868,5.388157 0.312707,1.882124 0.526184,3.443654 0.474394,3.470074 -0.0518,0.0264 -1.372165,-0.0998 -2.934167,-0.28058 z M 73.299947,82.994048 C 66.445337,82.381727 56.576906,80.440512 55.279674,79.44927 54.274619,78.681287 53.635567,69.7277 54.184535,64.105594 c 0.248896,-2.548984 0.452537,-4.850401 0.452537,-5.114258 0,-0.326822 0.643658,-0.226032 2.019318,0.316203 5.328721,2.100385 15.770148,3.363745 27.800711,3.363745 12.03056,0 22.471989,-1.26336 27.800719,-3.363745 1.19782,-0.472138 2.01931,-0.620439 2.01931,-0.364537 0,0.237272 0.19961,2.618781 0.44357,5.292242 0.53217,5.83173 -0.0843,14.442099 -1.0893,15.214026 -0.84129,0.646197 -6.81425,2.095476 -11.68404,2.83504 -3.951089,0.600023 -24.246654,1.102843 -28.647413,0.709738 z M 77.21807,75.844059 C 77.073423,73.3337 76.954239,69.86484 76.953225,68.135481 l -0.0018,-3.144289 h -1.42 -1.420002 l 0.0025,4.361433 c 0.0013,2.398788 0.119683,5.867649 0.262992,7.708578 l 0.26056,3.347147 h 1.421856 1.421856 l -0.263114,-4.564291 z m 17.307601,-1.930121 c 0.14063,-3.57193 0.14446,-7.050511 0.009,-7.730184 -0.21937,-1.096833 -0.38921,-1.221932 -1.51069,-1.112733 l -1.26354,0.123025 -0.11037,7.60715 -0.11038,7.607151 h 1.36539 1.3654 z m -30.743386,4.135854 c -0.137884,-0.627778 -0.283687,-4.050995 -0.324008,-7.607149 -0.04412,-3.890586 -0.239882,-6.584454 -0.49154,-6.763811 -0.230026,-0.16394 -0.814483,-0.300869 -1.298794,-0.304285 -0.783006,-0.0055 -0.909257,0.274726 -1.13953,2.529503 -0.142439,1.394644 -0.111326,4.816474 0.06914,7.604066 l 0.328101,5.068351 1.217144,0.259365 c 0.669428,0.142653 1.368579,0.28097 1.553666,0.307374 0.185087,0.02642 0.223709,-0.465636 0.08582,-1.093414 z m 44.003415,0.441593 c 0.11163,-0.09765 0.263,-3.54029 0.33651,-7.650302 l 0.13371,-7.47275 -0.94509,0.0063 c -0.51979,0.0034 -1.15123,0.140338 -1.4032,0.304286 -0.30296,0.197112 -0.515,2.865573 -0.626,7.878281 l -0.16787,7.580205 1.23457,-0.23419 c 0.67901,-0.128806 1.32586,-0.314088 1.43743,-0.411743 z M 72.082803,55.633357 c -6.244983,-0.582281 -14.973235,-2.234445 -15.71311,-2.974319 -0.508687,-0.508688 2.99068,-8.684251 4.835815,-11.297899 0.763102,-1.08094 0.820807,-1.094712 2.01007,-0.479721 0.881812,0.456004 1.150239,0.824161 0.959322,1.315747 -0.491549,1.265667 -2.295161,9.074769 -2.133315,9.236614 0.0882,0.0882 0.70686,0.269673 1.374786,0.403259 l 1.214408,0.242881 1.14602,-4.701517 c 0.630311,-2.585835 1.348516,-4.697924 1.59601,-4.693534 0.247495,0.0044 1.910563,0.271878 3.695708,0.594417 1.785145,0.322539 3.487638,0.592804 3.783319,0.600589 0.425478,0.01119 0.484363,0.796856 0.282333,3.767016 -0.140399,2.064074 -0.340153,4.163646 -0.443902,4.665718 -0.170798,0.826536 -0.03444,0.912859 1.441954,0.912859 h 1.630588 l 0.0029,-1.724289 c 0.0015,-0.948357 0.119698,-2.961255 0.262483,-4.473106 l 0.259602,-2.748822 6.127522,0.111679 6.127525,0.111678 0.36424,4.361433 0.36424,4.361433 h 1.36005 c 1.35496,0 1.35997,-0.0072 1.33922,-1.927145 -0.0115,-1.05993 -0.15536,-3.135225 -0.31977,-4.611767 l -0.29892,-2.684629 4.05005,-0.66481 c 2.22752,-0.365646 4.189179,-0.525674 4.359229,-0.355619 0.17006,0.170055 0.76807,2.204296 1.32892,4.520538 0.56085,2.31624 1.10346,4.295081 1.2058,4.397422 0.10234,0.10234 0.74669,0.06295 1.43189,-0.08756 1.41583,-0.310966 1.43121,0.143006 -0.21124,-6.229755 -0.53711,-2.083962 -0.97655,-3.859347 -0.97655,-3.945299 0,-0.08595 0.54375,-0.437466 1.20834,-0.78114 1.20089,-0.621002 1.21434,-0.615391 2.17608,0.908117 2.15748,3.417652 5.12177,10.393538 4.62688,10.888426 -0.78313,0.783135 -9.37306,2.374306 -16.125599,2.987053 -5.28983,0.480019 -19.167211,0.476622 -24.34288,-0.006 z m 3.04286,-14.619009 c -3.886367,-0.476306 -7.770306,-1.343805 -9.784677,-2.185463 -1.191067,-0.497659 -1.381774,-0.723374 -0.999925,-1.183475 0.672896,-0.810791 6.040675,-2.167622 10.757267,-2.719153 5.785608,-0.676534 18.835123,-0.245235 23.592173,0.779747 3.865389,0.832859 6.434259,1.890052 6.060829,2.494276 -0.33221,0.537525 -3.89044,1.634154 -7.420439,2.286943 -3.92713,0.726229 -17.878381,1.057415 -22.205228,0.527125 z m 23.024308,-2.611533 c 1.864029,-0.723573 0.13352,-1.392099 -3.62502,-1.400396 -3.89278,-0.0086 -5.793869,1.046127 -3.1707,1.759105 1.00102,0.272077 5.82696,0.01734 6.79572,-0.358709 z"
       id="path1754" />
  </g>
</svg>
