<svg width="235.302" height="182.956" viewBox="0 0 62.257 48.407" xmlns="http://www.w3.org/2000/svg"><path d="M1.962 47.994a3.842 3.842 0 0 1-1.345-1.186l-.512-.775L.052 31.66 0 17.287h16.897l-.656 1.105c-2.642 4.447-2.913 10.6-.683 15.518 3.017 6.653 10.229 10.742 17.431 9.882 7.157-.854 12.667-5.582 14.707-12.618.574-1.98.612-6.548.072-8.507-.426-1.545-1.258-3.524-1.925-4.58l-.504-.799h16.918l-.052 14.373-.053 14.373-.516.779c-.31.47-.85.941-1.357 1.186l-.842.408H2.794zm27.725-8.723c-.211-.05-.86-.182-1.44-.296-.582-.113-1.792-.555-2.69-.982-1.345-.64-1.921-1.069-3.27-2.433-2.565-2.594-3.637-5.175-3.642-8.772-.014-8.593 8.514-14.586 16.704-11.738 2.881 1.002 5.575 3.402 6.933 6.175.991 2.026 1.333 3.454 1.33 5.563-.007 3.599-1.079 6.18-3.643 8.768-1.748 1.765-3.42 2.768-5.575 3.347-1.093.293-4.032.523-4.707.367zM.013 11.188c.005-3.814.172-4.51 1.32-5.475.875-.737 1.724-.91 4.487-.91L8.269 4.8V3.073h6.53V4.8h7.98L25.17 0h11.914l2.392 4.802h9.931l-.063-1.345-.064-1.345 2.785.001v2.69h3.41c3.72.002 4.527.137 5.448.911 1.146.965 1.314 1.661 1.319 5.475l.004 3.41H43.204l-1.07-.871c-3.248-2.646-6.846-3.931-11.006-3.931-4.228 0-7.906 1.337-11.168 4.059l-.891.743H.009l.004-3.41z" fill="#fff"/></svg>