<?xml version="1.0" encoding="UTF-8" standalone="no"?>
<!-- Created with Inkscape (http://www.inkscape.org/) -->

<svg
   width="62.256676mm"
   height="48.407173mm"
   viewBox="0 0 62.256674 48.407172"
   version="1.1"
   id="svg5"
   inkscape:version="1.1 (c68e22c387, 2021-05-23)"
   sodipodi:docname="camera.svg"
   xmlns:inkscape="http://www.inkscape.org/namespaces/inkscape"
   xmlns:sodipodi="http://sodipodi.sourceforge.net/DTD/sodipodi-0.dtd"
   xmlns="http://www.w3.org/2000/svg"
   xmlns:svg="http://www.w3.org/2000/svg">
  <sodipodi:namedview
     id="namedview7"
     pagecolor="#505050"
     bordercolor="#eeeeee"
     borderopacity="1"
     inkscape:pageshadow="0"
     inkscape:pageopacity="0"
     inkscape:pagecheckerboard="0"
     inkscape:document-units="mm"
     showgrid="false"
     fit-margin-top="0"
     fit-margin-left="0"
     fit-margin-right="0"
     fit-margin-bottom="0"
     inkscape:zoom="1.8973437"
     inkscape:cx="185.78606"
     inkscape:cy="139.93248"
     inkscape:window-width="1920"
     inkscape:window-height="1027"
     inkscape:window-x="1072"
     inkscape:window-y="424"
     inkscape:window-maximized="1"
     inkscape:current-layer="layer1" />
  <defs
     id="defs2" />
  <g
     inkscape:label="Layer 1"
     inkscape:groupmode="layer"
     id="layer1"
     transform="translate(-60.269666,-71.375628)">
    <path
       style="fill:#ffffff;stroke-width:0.192092"
       d="m 62.232363,119.37062 c -0.486985,-0.24105 -1.04467,-0.73305 -1.344644,-1.18627 l -0.512553,-0.77439 -0.05275,-14.37302 -0.05275,-14.373016 h 8.448562 8.448563 l -0.656167,1.10453 c -2.641898,4.44711 -2.912815,10.600346 -0.683216,15.517616 3.016606,6.65299 10.229134,10.74217 17.430535,9.88234 7.157177,-0.85455 12.667047,-5.58211 14.706527,-12.61846 0.57372,-1.97934 0.61237,-6.548266 0.072,-8.507456 -0.42609,-1.54479 -1.25767,-3.5239 -1.92456,-4.58031 l -0.50391,-0.79826 h 8.45917 8.45917 l -0.0528,14.373016 -0.0528,14.37302 -0.51558,0.77897 c -0.31051,0.46913 -0.85035,0.94102 -1.35727,1.18642 l -0.84169,0.40745 -28.320918,-1.5e-4 -28.320921,-1.5e-4 z m 27.724945,-8.72354 c -0.2113,-0.0486 -0.859611,-0.18143 -1.440685,-0.29504 -0.581082,-0.11362 -1.791257,-0.5559 -2.689288,-0.98285 -1.345084,-0.63949 -1.921352,-1.06815 -3.270523,-2.4328 -2.564759,-2.59418 -3.636063,-5.17441 -3.641944,-8.771586 -0.01404,-8.59316 8.513972,-14.585833 16.703678,-11.737729 2.881522,1.002092 5.575584,3.401469 6.933094,6.174729 0.99156,2.02563 1.33294,3.45411 1.32949,5.563 -0.006,3.599046 -1.07794,6.180076 -3.64195,8.768206 -1.748521,1.76498 -3.419622,2.76809 -5.575623,3.34687 -1.093018,0.29342 -4.031163,0.52267 -4.706249,0.3672 z M 60.283339,82.565006 c 0.0047,-3.814226 0.172428,-4.510361 1.319055,-5.475182 0.876307,-0.737363 1.724872,-0.909592 4.487504,-0.9108 l 2.449171,-0.0011 v -0.864413 -0.864414 h 3.265561 3.265562 v 0.864414 0.864413 h 3.989463 3.989462 l 1.196046,-2.401148 1.19604,-2.401148 H 91.398 97.354792 l 1.19604,2.401148 1.196046,2.401148 h 4.965682 4.96569 l -0.0638,-1.345075 -0.0638,-1.345076 1.39267,4.42e-4 1.39267,4.24e-4 v 1.344642 1.344643 l 3.40963,0.0011 c 3.71973,0.0012 4.52739,0.136193 5.44796,0.9108 1.14663,0.964822 1.31433,1.660957 1.31905,5.475182 l 0.004,3.409623 h -9.52113 -9.5215 l -1.0697,-0.871365 C 99.156184,82.4574 95.558141,81.172336 91.39808,81.172336 c -4.228036,0 -7.905977,1.336654 -11.167987,4.058714 l -0.891072,0.743579 h -9.52999 -9.529911 l 0.0042,-3.409627 z"
       id="path1580" />
  </g>
</svg>
