<?xml version="1.0" encoding="UTF-8"?>
<svg width="62.257mm" height="48.407mm" version="1.1" viewBox="0 0 62.257 48.407" xmlns="http://www.w3.org/2000/svg">
<g transform="translate(-60.27 -71.376)">
<path d="m62.232 119.37c-0.48698-0.24105-1.0447-0.73305-1.3446-1.1863l-0.51255-0.77439-0.05275-14.373-0.05275-14.373h16.897l-0.65617 1.1045c-2.6419 4.4471-2.9128 10.6-0.68322 15.518 3.0166 6.653 10.229 10.742 17.431 9.8823 7.1572-0.85455 12.667-5.5821 14.707-12.618 0.57372-1.9793 0.61237-6.5483 0.072-8.5075-0.42609-1.5448-1.2577-3.5239-1.9246-4.5803l-0.50391-0.79826h16.918l-0.0528 14.373-0.0528 14.373-0.51558 0.77897c-0.31051 0.46913-0.85035 0.94102-1.3573 1.1864l-0.84169 0.40745-56.642-3e-4zm27.725-8.7235c-0.2113-0.0486-0.85961-0.18143-1.4407-0.29504-0.58108-0.11362-1.7913-0.5559-2.6893-0.98285-1.3451-0.63949-1.9214-1.0682-3.2705-2.4328-2.5648-2.5942-3.6361-5.1744-3.6419-8.7716-0.01404-8.5932 8.514-14.586 16.704-11.738 2.8815 1.0021 5.5756 3.4015 6.9331 6.1747 0.99156 2.0256 1.3329 3.4541 1.3295 5.563-6e-3 3.599-1.0779 6.1801-3.642 8.7682-1.7485 1.765-3.4196 2.7681-5.5756 3.3469-1.093 0.29342-4.0312 0.52267-4.7062 0.3672zm-29.674-28.082c0.0047-3.8142 0.17243-4.5104 1.3191-5.4752 0.87631-0.73736 1.7249-0.90959 4.4875-0.9108l2.4492-0.0011v-1.7288h6.5311v1.7288h7.9789l2.3921-4.8023h11.914l2.3921 4.8023h9.9314l-0.0638-1.3451-0.0638-1.3451 2.7853 8.66e-4v2.6893l3.4096 0.0011c3.7197 0.0012 4.5274 0.13619 5.448 0.9108 1.1466 0.96482 1.3143 1.661 1.319 5.4752l4e-3 3.4096h-19.043l-1.0697-0.87136c-3.2481-2.6459-6.8462-3.9309-11.006-3.9309-4.228 0-7.906 1.3367-11.168 4.0587l-0.89107 0.74358h-19.06l0.0042-3.4096z" fill="#fff" stroke-width=".19209"/>
</g>
</svg>
