<?xml version="1.0" encoding="UTF-8"?>
<svg width="31.024mm" height="24.727mm" version="1.1" viewBox="0 0 31.024 24.727" xmlns="http://www.w3.org/2000/svg" xmlns:cc="http://creativecommons.org/ns#" xmlns:dc="http://purl.org/dc/elements/1.1/" xmlns:rdf="http://www.w3.org/1999/02/22-rdf-syntax-ns#">
<metadata>
<rdf:RDF>
<cc:Work rdf:about="">
<dc:format>image/svg+xml</dc:format>
<dc:type rdf:resource="http://purl.org/dc/dcmitype/StillImage"/>
<dc:title/>
</cc:Work>
</rdf:RDF>
</metadata>
<g transform="translate(-19.054 -23.304)">
<path d="m23.031 47.996c-0.40283-0.07142-0.67619-0.29518-0.76542-0.62655-0.05383-0.19992-0.11232-1.0284-0.11371-1.6109-6.21e-4 -0.25965-0.01174-0.49974-0.02471-0.53354-0.01297-0.0338-0.14556-0.12555-0.29465-0.20389-0.48182-0.25319-0.71072-0.57124-0.99771-1.3863-0.24815-0.70475-0.37526-1.334-0.5035-2.4924-0.14107-1.2744-0.17632-1.8874-0.17702-3.0785-6.36e-4 -1.0864 0.0064-1.2151 0.08634-1.5713 0.3086-1.3757 0.89099-2.4538 1.9042-3.5252l0.372-0.39334-0.21215-0.02526c-0.11668-0.01389-0.48276-0.02779-0.8135-0.03088-0.33074-0.0031-0.8766-0.01993-1.213-0.03741-0.57975-0.03014-0.62111-0.03765-0.79322-0.14405-0.243-0.15024-0.34864-0.36194-0.40412-0.80991-0.02379-0.19205-0.03385-0.55868-0.02236-0.81474 0.02977-0.6634 0.14785-0.94565 0.46701-1.1163 0.14858-0.07944 0.21328-0.08636 0.80177-0.08568 0.49482 5.7e-4 0.67776 0.01501 0.8058 0.06362 0.49914 0.18948 0.96889 0.61312 1.4222 1.2826 0.17189 0.25386 0.29912 0.40819 0.30997 0.37598 0.01012-0.03005 0.08185-0.29905 0.15939-0.59779 0.209-0.80519 0.6348-2.0602 0.90824-2.677 0.53274-1.2016 1.2449-2.4123 1.7947-3.0512 0.7673-0.89152 1.9944-1.2887 4.8033-1.5548 0.67093-0.06356 6.9147-0.0624 7.8952 0.0015 1.7731 0.1155 3.3163 0.42958 4.0475 0.82373 0.58721 0.31655 0.93366 0.65702 1.4193 1.3948 1.006 1.5282 1.5658 2.785 2.117 4.7527 0.13148 0.4694 0.2471 0.87799 0.25694 0.90798 0.01034 0.03153 0.13584-0.12394 0.29751-0.36857 0.1538-0.2327 0.41243-0.55776 0.57474-0.72236 0.50307-0.51014 0.97976-0.67559 1.8564-0.64434 0.38724 0.01381 0.47443 0.02939 0.623 0.11134 0.34335 0.1894 0.49582 0.71857 0.45221 1.5694-0.0397 0.77455-0.14842 1.0446-0.47948 1.191-0.20853 0.09224-0.81964 0.14105-1.8732 0.14961-0.37342 3e-3 -0.77497 0.01688-0.89233 0.03078l-0.21338 0.02526 0.3656 0.38797c1.0189 1.0812 1.6911 2.3422 1.9234 3.6081 0.13965 0.76092 0.11753 2.2482-0.06116 4.1125-0.13648 1.4239-0.31998 2.3689-0.60162 3.0981-0.28816 0.74613-0.51504 1.0398-0.97463 1.2614l-0.27095 0.13066-0.0261 0.83926c-0.03061 0.98405-0.07155 1.3185-0.19065 1.557-0.07361 0.14743-0.12918 0.19571-0.3573 0.31038l-0.27013 0.13579-1.0691 0.01323c-0.66808 0.0083-1.1554-0.0027-1.2991-0.02928-0.30266-0.05595-0.62191-0.25038-0.73974-0.45053-0.11444-0.19438-0.1716-0.64948-0.17204-1.3697l-3.19e-4 -0.51717-0.37827 0.0237c-3.2818 0.20561-4.1185 0.22515-8.746 0.20429-3.8879-0.01753-4.2163-0.02439-5.7156-0.11939-0.87488-0.05544-1.6269-0.10115-1.6713-0.10159-0.07778-7.65e-4 -0.0821 0.0282-0.12368 0.82883-0.05655 1.0887-0.09786 1.1915-0.56505 1.4066l-0.2394 0.11019-1.1057 0.0073c-0.60814 4e-3 -1.1897-0.0076-1.2924-0.02581zm14.863-6.1719c0.5538-0.06167 0.68006-0.12988 1.1445-0.61827 0.64476-0.67801 0.82028-1.0602 0.64919-1.4137-0.13633-0.28162-0.24822-0.33723-0.75156-0.37349-0.59994-0.04322-7.6137-0.04173-8.4363 0.0018-0.7943 0.04202-0.9093 0.08048-1.0483 0.35054-0.1951 0.37919-0.04617 0.71798 0.62293 1.417 0.47062 0.49169 0.62411 0.58142 1.0866 0.63521 0.43056 0.05009 6.2842 0.05082 6.7329 8.42e-4zm-12.195-2.4617c0.35366-0.09212 0.59469-0.24134 0.93644-0.57978 0.24697-0.24457 0.34623-0.3778 0.46317-0.62166 0.13589-0.28338 0.15025-0.34459 0.16517-0.7037 0.02194-0.52814-0.04288-0.88254-0.22966-1.2557-0.39752-0.79422-1.4431-1.2935-2.3231-1.1093-1.2334 0.25812-2.009 1.4528-1.725 2.6574 0.17976 0.76262 0.829 1.4348 1.5556 1.6107 0.30766 0.07447 0.87551 0.07549 1.1574 0.0021zm18.918-0.01165c0.73968-0.19309 1.3641-0.869 1.5292-1.6553 0.07189-0.34243 0.07189-0.5499 0-0.89233-0.26753-1.2742-1.5621-2.0317-2.7932-1.6344-0.56879 0.18358-1.0423 0.57878-1.2873 1.0745-0.17685 0.35782-0.21888 0.54814-0.21788 0.98669 0.0016 0.71247 0.13882 1.0471 0.62879 1.5335 0.35252 0.34997 0.5964 0.50513 0.9386 0.59715 0.28828 0.07752 0.8861 0.07268 1.2018-0.0097zm-19.014-7.4935c2.4248-0.19108 6.5306-0.34943 9.0591-0.3494 2.6048 3.6e-5 6.4166 0.15093 8.8263 0.34941 0.24539 0.02021 0.5902 0.03702 0.76624 0.03736 0.31422 6.01e-4 0.32008-0.0011 0.32008-0.09471 0-0.2749-0.52533-2.0193-0.84173-2.7951-0.22312-0.54704-0.9585-2.0574-1.2018-2.4683-0.11476-0.19382-0.24043-0.35173-0.3244-0.40763-0.55882-0.37204-2.2746-0.71184-4.4216-0.87568-0.88898-0.06784-5.6396-0.06683-6.5373 0.0014-1.8874 0.14343-3.5757 0.46945-4.2261 0.81607-0.14938 0.07961-0.23283 0.16556-0.3812 0.39266-0.22762 0.3484-0.96357 1.8113-1.1712 2.3281-0.33014 0.82172-0.84899 2.4809-0.93304 2.9836l-0.02856 0.17083 0.30509-0.02523c0.1678-0.01387 0.52332-0.04243 0.79006-0.06345z" fill="#fff"/>
</g>
</svg>
