<?xml version="1.0" encoding="UTF-8" standalone="no"?>
<!-- Created with Inkscape (http://www.inkscape.org/) -->

<svg
   xmlns:dc="http://purl.org/dc/elements/1.1/"
   xmlns:cc="http://creativecommons.org/ns#"
   xmlns:rdf="http://www.w3.org/1999/02/22-rdf-syntax-ns#"
   xmlns:svg="http://www.w3.org/2000/svg"
   xmlns="http://www.w3.org/2000/svg"
   xmlns:sodipodi="http://sodipodi.sourceforge.net/DTD/sodipodi-0.dtd"
   xmlns:inkscape="http://www.inkscape.org/namespaces/inkscape"
   width="31.02425mm"
   height="24.727146mm"
   viewBox="0 0 31.02425 24.727146"
   version="1.1"
   id="svg8"
   inkscape:version="0.92.4 (5da689c313, 2019-01-14)"
   sodipodi:docname="car.svg">
  <defs
     id="defs2" />
  <sodipodi:namedview
     id="base"
     pagecolor="#ffffff"
     bordercolor="#666666"
     borderopacity="1.0"
     inkscape:pageopacity="0.0"
     inkscape:pageshadow="2"
     inkscape:zoom="5.6"
     inkscape:cx="63.888168"
     inkscape:cy="27.989101"
     inkscape:document-units="mm"
     inkscape:current-layer="layer1"
     showgrid="false"
     fit-margin-top="0"
     fit-margin-left="0"
     fit-margin-right="0"
     fit-margin-bottom="0"
     inkscape:window-width="1920"
     inkscape:window-height="1017"
     inkscape:window-x="1072"
     inkscape:window-y="394"
     inkscape:window-maximized="1" />
  <metadata
     id="metadata5">
    <rdf:RDF>
      <cc:Work
         rdf:about="">
        <dc:format>image/svg+xml</dc:format>
        <dc:type
           rdf:resource="http://purl.org/dc/dcmitype/StillImage" />
        <dc:title></dc:title>
      </cc:Work>
    </rdf:RDF>
  </metadata>
  <g
     inkscape:label="Layer 1"
     inkscape:groupmode="layer"
     id="layer1"
     transform="translate(-19.053657,-23.304255)">
    <path
       style="fill:#ffffff;stroke-width:0.99999994"
       d="m 23.030915,47.996067 c -0.402834,-0.07142 -0.676188,-0.295177 -0.765416,-0.626547 -0.05383,-0.199925 -0.112317,-1.028388 -0.113713,-1.61086 -6.21e-4,-0.25965 -0.01174,-0.499744 -0.02471,-0.533542 -0.01297,-0.0338 -0.145563,-0.12555 -0.294651,-0.203894 -0.481823,-0.253191 -0.710721,-0.57124 -0.997711,-1.386296 -0.24815,-0.704754 -0.375262,-1.333986 -0.503498,-2.492431 -0.14107,-1.274383 -0.176319,-1.887409 -0.177018,-3.078531 -6.36e-4,-1.08641 0.0064,-1.215081 0.08634,-1.571281 0.308597,-1.375657 0.890987,-2.453797 1.904227,-3.525166 l 0.371998,-0.393339 -0.212151,-0.02526 c -0.116683,-0.01389 -0.48276,-0.02779 -0.813505,-0.03088 -0.330745,-0.0031 -0.876595,-0.01993 -1.213,-0.03741 -0.57975,-0.03014 -0.621113,-0.03765 -0.793215,-0.144051 -0.243003,-0.150237 -0.348636,-0.361941 -0.40412,-0.809911 -0.02379,-0.192046 -0.03385,-0.558678 -0.02236,-0.814739 0.02977,-0.663395 0.14785,-0.945647 0.467007,-1.116294 0.148576,-0.07944 0.213285,-0.08636 0.801772,-0.08568 0.494825,5.7e-4 0.677756,0.01501 0.805795,0.06362 0.499145,0.18948 0.968894,0.613115 1.422179,1.282569 0.171892,0.253865 0.299119,0.408186 0.30997,0.375979 0.01012,-0.03005 0.08185,-0.29905 0.159389,-0.597788 0.208997,-0.805193 0.634803,-2.060239 0.908241,-2.676998 0.532741,-1.201637 1.244876,-2.412325 1.794727,-3.051187 0.767305,-0.891517 1.994396,-1.288727 4.80333,-1.554842 0.670934,-0.06356 6.914734,-0.0624 7.895205,0.0015 1.77306,0.115503 3.316315,0.429584 4.047467,0.823734 0.587206,0.316552 0.933661,0.657018 1.41934,1.394803 1.005981,1.528167 1.565786,2.784966 2.116964,4.752723 0.131481,0.4694 0.247105,0.87799 0.256942,0.907979 0.01034,0.03153 0.135836,-0.123941 0.297514,-0.368572 0.153795,-0.232704 0.412427,-0.557764 0.574739,-0.722356 0.503074,-0.510142 0.979756,-0.675591 1.856426,-0.644335 0.387243,0.01381 0.474433,0.02939 0.622995,0.111341 0.343349,0.189402 0.495825,0.718574 0.45221,1.569397 -0.0397,0.77455 -0.14842,1.044598 -0.479484,1.191044 -0.208532,0.09224 -0.819636,0.141052 -1.873213,0.149613 -0.373422,0.003 -0.774972,0.01688 -0.892333,0.03078 l -0.213384,0.02526 0.365596,0.387971 c 1.018877,1.081235 1.691083,2.342228 1.923408,3.608128 0.139649,0.760922 0.117532,2.248175 -0.06116,4.11249 -0.136477,1.4239 -0.319981,2.368886 -0.601615,3.098131 -0.288156,0.74613 -0.515044,1.03978 -0.974634,1.261416 l -0.270951,0.130665 -0.0261,0.839262 c -0.03061,0.984054 -0.07155,1.318471 -0.190651,1.557007 -0.07361,0.147433 -0.129182,0.195707 -0.3573,0.310377 l -0.270132,0.13579 -1.069148,0.01323 c -0.668077,0.0083 -1.155423,-0.0027 -1.299131,-0.02928 -0.302664,-0.05595 -0.621912,-0.250385 -0.739738,-0.450529 -0.114436,-0.194385 -0.171598,-0.649479 -0.172041,-1.369694 l -3.19e-4,-0.517171 -0.378271,0.0237 c -3.281778,0.205607 -4.11851,0.225152 -8.745998,0.204292 -3.887939,-0.01753 -4.216323,-0.02439 -5.715612,-0.119391 -0.874875,-0.05544 -1.626947,-0.101152 -1.671273,-0.101588 -0.07778,-7.65e-4 -0.0821,0.0282 -0.123685,0.828832 -0.05655,1.088687 -0.09786,1.191534 -0.565052,1.406582 l -0.239395,0.110194 -1.105716,0.0073 c -0.608144,0.004 -1.189713,-0.0076 -1.292376,-0.02581 z m 14.863182,-6.171942 c 0.553795,-0.06167 0.680063,-0.129883 1.144501,-0.618267 0.644763,-0.678008 0.820285,-1.060221 0.649187,-1.413662 -0.136332,-0.281624 -0.248224,-0.337229 -0.751562,-0.373488 -0.599939,-0.04322 -7.613742,-0.04173 -8.436304,0.0018 -0.794303,0.04202 -0.909295,0.08048 -1.048251,0.350544 -0.195103,0.379189 -0.04617,0.717978 0.622933,1.417033 0.470622,0.491688 0.624108,0.581417 1.086567,0.635211 0.430563,0.05009 6.284176,0.05082 6.732929,8.42e-4 z M 25.699231,39.362392 c 0.353658,-0.09212 0.594689,-0.241345 0.936445,-0.579777 0.246969,-0.244567 0.346233,-0.377798 0.463167,-0.621656 0.135886,-0.283381 0.150251,-0.344586 0.165167,-0.703695 0.02194,-0.528135 -0.04288,-0.882542 -0.229659,-1.255712 -0.397521,-0.794223 -1.443068,-1.293501 -2.323089,-1.109339 -1.233412,0.258115 -2.008954,1.452832 -1.725018,2.657376 0.179764,0.762617 0.829001,1.434846 1.555633,1.610725 0.30766,0.07447 0.875513,0.07549 1.157354,0.0021 z m 18.918081,-0.01165 c 0.739675,-0.193089 1.36407,-0.869005 1.529164,-1.655345 0.07189,-0.342432 0.07189,-0.5499 0,-0.892333 -0.267528,-1.274228 -1.562123,-2.031735 -2.793219,-1.634397 -0.568788,0.183577 -1.042258,0.578784 -1.287252,1.074471 -0.176854,0.357822 -0.21888,0.548141 -0.217881,0.986694 0.0016,0.712471 0.138819,1.047066 0.628786,1.533487 0.352519,0.349969 0.596395,0.505127 0.938602,0.597151 0.288276,0.07752 0.886103,0.07268 1.2018,-0.0097 z M 25.603594,31.857246 c 2.424773,-0.191077 6.530576,-0.349433 9.059118,-0.349397 2.604821,3.6e-5 6.416604,0.150932 8.826335,0.349406 0.245391,0.02021 0.5902,0.03702 0.766242,0.03736 0.314222,6.01e-4 0.320076,-0.0011 0.320076,-0.09471 0,-0.274903 -0.525329,-2.019322 -0.841727,-2.795059 -0.223121,-0.547045 -0.958495,-2.057384 -1.201776,-2.468257 -0.11476,-0.193817 -0.240427,-0.351728 -0.324397,-0.407631 -0.558822,-0.37204 -2.274568,-0.711837 -4.421589,-0.875679 -0.888975,-0.06784 -5.639623,-0.06683 -6.537307,0.0014 -1.88737,0.14343 -3.575709,0.469449 -4.226144,0.816073 -0.149383,0.07961 -0.23283,0.165564 -0.381203,0.392665 -0.227619,0.348396 -0.963568,1.811309 -1.171177,2.328056 -0.330136,0.821719 -0.848992,2.480889 -0.933039,2.983622 l -0.02856,0.170833 0.305092,-0.02523 c 0.1678,-0.01387 0.523325,-0.04243 0.790055,-0.06345 z"
       id="path839"
       inkscape:connector-curvature="0" />
  </g>
</svg>
