<svg width="117.256" height="93.456" viewBox="0 0 31.024 24.727" xmlns="http://www.w3.org/2000/svg"><path d="M3.977 24.692c-.403-.071-.676-.295-.765-.627-.054-.2-.113-1.028-.114-1.61 0-.26-.012-.5-.025-.534-.013-.034-.145-.126-.294-.204-.482-.253-.711-.571-.998-1.386-.248-.705-.375-1.334-.504-2.493-.14-1.274-.176-1.887-.177-3.078 0-1.086.007-1.215.087-1.571.308-1.376.89-2.454 1.904-3.526l.372-.393-.212-.025a11.233 11.233 0 0 0-.814-.031c-.33-.003-.876-.02-1.213-.037-.58-.03-.62-.038-.793-.145-.243-.15-.349-.361-.404-.81a5.968 5.968 0 0 1-.023-.814c.03-.664.148-.946.467-1.116.15-.08.214-.087.802-.086.495 0 .678.015.806.063.5.19.969.614 1.422 1.283.172.254.3.408.31.376.01-.03.082-.299.16-.598.209-.805.634-2.06.908-2.677.533-1.201 1.245-2.412 1.795-3.05C7.44.71 8.668.312 11.477.046c.67-.063 6.915-.062 7.895.002 1.773.115 3.316.43 4.048.823.587.317.933.658 1.419 1.395 1.006 1.528 1.566 2.785 2.117 4.753.131.47.247.878.257.908.01.032.136-.124.297-.369a5.79 5.79 0 0 1 .575-.722c.503-.51.98-.676 1.856-.644.388.014.475.03.623.111.344.19.496.719.453 1.57-.04.774-.149 1.044-.48 1.19-.208.093-.82.141-1.873.15-.373.003-.775.017-.892.03l-.214.026.366.388c1.019 1.081 1.691 2.342 1.923 3.608.14.761.118 2.248-.06 4.113-.137 1.424-.32 2.369-.603 3.098-.288.746-.515 1.04-.974 1.261l-.271.13-.026.84c-.03.984-.072 1.319-.19 1.557-.074.148-.13.196-.358.31l-.27.136-1.07.013c-.667.009-1.155-.002-1.298-.029-.303-.056-.622-.25-.74-.45-.115-.195-.172-.65-.172-1.37v-.517l-.379.023c-3.282.206-4.118.226-8.746.205-3.888-.018-4.216-.025-5.715-.12-.875-.055-1.627-.1-1.672-.101-.078-.001-.082.028-.123.829-.057 1.088-.098 1.191-.565 1.406l-.24.11-1.106.008c-.608.004-1.19-.008-1.292-.026zM18.84 18.52c.554-.062.68-.13 1.145-.618.644-.678.82-1.06.649-1.414-.137-.281-.249-.337-.752-.373-.6-.044-7.614-.042-8.436.001-.794.042-.91.08-1.048.351-.196.38-.047.718.622 1.417.471.492.625.581 1.087.635.43.05 6.284.051 6.733.001zM6.645 16.058c.354-.092.595-.24.936-.58.247-.244.347-.377.464-.621.136-.283.15-.345.165-.704.022-.528-.043-.882-.23-1.255-.397-.795-1.443-1.294-2.323-1.11-1.233.258-2.009 1.453-1.725 2.658.18.762.829 1.434 1.556 1.61.307.075.875.076 1.157.002zm18.918-.011c.74-.193 1.364-.87 1.53-1.656.071-.342.071-.55 0-.892a2.171 2.171 0 0 0-2.794-1.634c-.569.183-1.042.579-1.287 1.074-.177.358-.22.548-.218.987.001.712.139 1.047.629 1.533.352.35.596.506.938.598.288.077.886.072 1.202-.01zM6.549 8.553c2.425-.19 6.53-.35 9.06-.35 2.604 0 6.416.152 8.825.35.246.02.59.037.767.038.314 0 .32-.001.32-.095 0-.275-.526-2.02-.842-2.795-.223-.547-.959-2.058-1.202-2.468-.115-.194-.24-.352-.324-.408-.559-.372-2.275-.712-4.422-.876-.889-.068-5.64-.067-6.537.002-1.888.143-3.576.47-4.226.816-.15.08-.233.165-.381.392-.228.349-.964 1.812-1.172 2.328-.33.822-.849 2.481-.933 2.984l-.028.17.305-.024.79-.064z" fill="#fff"/></svg>