<?xml version="1.0" encoding="UTF-8" standalone="no"?>
<!-- Created with Inkscape (http://www.inkscape.org/) -->

<svg
   xmlns:dc="http://purl.org/dc/elements/1.1/"
   xmlns:cc="http://creativecommons.org/ns#"
   xmlns:rdf="http://www.w3.org/1999/02/22-rdf-syntax-ns#"
   xmlns:svg="http://www.w3.org/2000/svg"
   xmlns="http://www.w3.org/2000/svg"
   xmlns:sodipodi="http://sodipodi.sourceforge.net/DTD/sodipodi-0.dtd"
   xmlns:inkscape="http://www.inkscape.org/namespaces/inkscape"
   width="21.363386mm"
   height="32.826778mm"
   viewBox="0 0 21.363386 32.826778"
   version="1.1"
   id="svg1429"
   inkscape:version="0.92.4 (5da689c313, 2019-01-14)"
   sodipodi:docname="cocktails.svg">
  <defs
     id="defs1423" />
  <sodipodi:namedview
     id="base"
     pagecolor="#ffffff"
     bordercolor="#666666"
     borderopacity="1.0"
     inkscape:pageopacity="0.0"
     inkscape:pageshadow="2"
     inkscape:zoom="3.959798"
     inkscape:cx="-29.364366"
     inkscape:cy="40.791877"
     inkscape:document-units="mm"
     inkscape:current-layer="layer1"
     showgrid="false"
     inkscape:pagecheckerboard="true"
     fit-margin-top="0"
     fit-margin-left="0"
     fit-margin-right="0"
     fit-margin-bottom="0"
     inkscape:window-width="1920"
     inkscape:window-height="1017"
     inkscape:window-x="1072"
     inkscape:window-y="394"
     inkscape:window-maximized="1" />
  <metadata
     id="metadata1426">
    <rdf:RDF>
      <cc:Work
         rdf:about="">
        <dc:format>image/svg+xml</dc:format>
        <dc:type
           rdf:resource="http://purl.org/dc/dcmitype/StillImage" />
        <dc:title></dc:title>
      </cc:Work>
    </rdf:RDF>
  </metadata>
  <g
     inkscape:label="Layer 1"
     inkscape:groupmode="layer"
     id="layer1"
     transform="translate(-89.10402,-118.81282)">
    <path
       inkscape:connector-curvature="0"
       style="fill:#ffffff;stroke-width:0.0693017"
       d="m 95.306663,151.5879 c -1.46073,-0.0668 -3.15319,-0.23838 -3.44482,-0.34926 -0.10669,-0.0406 -0.15538,-0.094 -0.11818,-0.12956 0.0348,-0.0333 0.46867,-0.22126 0.96418,-0.41765 1.18042,-0.46783 3.17849,-1.40367 3.18375,-1.49119 0.002,-0.0378 -0.19857,-0.14067 -0.44633,-0.22854 -2.29724,-0.8148 -4.24928,-2.52783 -5.26815,-4.62312 -0.383,-0.78764 -0.7355,-1.89015 -0.91071,-2.84842 -0.21564,-1.17942 -0.21671,-3.34139 -0.002,-4.65828 0.45696,-2.8067 1.57587,-6.7359 3.20065,-11.23945 0.50721,-1.40588 0.46757,-1.34723 1.00148,-1.48135 1.67395,-0.42048 7.431917,-0.52275 9.923197,-0.17624 0.28846,0.0401 0.54017,0.0572 0.55936,0.0381 0.0192,-0.0192 -0.70373,-0.27483 -1.60647,-0.56808 -1.00082,-0.32511 -1.6568,-0.57337 -1.6809,-0.63615 -0.0869,-0.2265 0.68503,-1.46102 1.13476,-1.81478 0.10019,-0.0788 0.23252,-0.14233 0.29409,-0.14117 0.13776,0.003 2.29494,2.97962 2.29494,3.16714 0,0.0816 0.0844,0.1702 0.2203,0.23136 0.19377,0.0872 0.25256,0.18685 0.48772,0.8268 1.5761,4.28912 2.63011,7.82865 3.24001,10.88039 0.87093,4.35795 0.0742,8.11841 -2.24111,10.57729 -1.02646,1.09012 -2.16126,1.84605 -3.61501,2.40808 -0.3418,0.13214 -0.61569,0.26264 -0.60868,0.29002 0.0187,0.073 2.30454,1.14882 3.07118,1.44539 1.28418,0.49679 1.31687,0.53183 0.62128,0.66583 -1.3209,0.25444 -7.222637,0.4115 -10.254227,0.27289 z m 5.266937,-3.07229 c 3.18706,-0.74359 5.53107,-2.61675 6.57605,-5.25512 0.24075,-0.60784 0.51544,-1.65721 0.62569,-2.39028 0.28379,-1.88703 -0.22023,-5.24518 -1.44902,-9.65433 -0.57357,-2.05812 -1.89919,-5.93131 -2.10416,-6.14795 -0.0622,-0.0658 -0.21487,-0.0627 -0.70324,0.0142 -2.06765,0.32562 -7.285907,0.32631 -9.294097,10e-4 -0.33787,-0.0547 -0.63887,-0.0749 -0.66889,-0.0449 -0.10411,0.1041 -0.79874,1.9933 -1.3552,3.6857 -1.45278,4.41851 -2.3714,8.90092 -2.27887,11.11978 0.15999,3.83693 2.06688,6.68305 5.41121,8.0765 1.93792,0.80746 3.54726,0.99023 5.240527,0.59516 z m -2.633477,-0.67007 c -3.75179,-0.33605 -6.29696,-2.83384 -7.37983,-7.24245 -0.2738,-1.11474 -0.46492,-2.69748 -0.34071,-2.82169 0.0227,-0.0227 0.23367,0.0645 0.46884,0.19377 0.68675,0.37748 2.20903,0.69121 4.20243,0.86606 1.40219,0.12301 5.479547,0.16495 6.964827,0.0717 2.81701,-0.17695 4.6474,-0.52236 5.39709,-1.01848 0.34322,-0.22714 0.40172,-0.14985 0.34781,0.45957 -0.15994,1.80821 -0.62046,3.52724 -1.32745,4.95508 -1.36756,2.76194 -3.49891,4.2559 -6.468487,4.53406 -0.86122,0.0807 -0.98899,0.0808 -1.86452,0.002 z m -1.83649,-9.28566 c -2.29807,-0.1366 -4.38819,-0.44957 -5.21078,-0.78025 -0.71198,-0.28622 -0.80367,-0.65734 -0.23418,-0.94787 2.18797,-1.11622 12.013227,-1.28747 15.733637,-0.27424 1.16826,0.31818 1.43177,0.7332 0.71156,1.12069 -0.99003,0.53267 -3.80467,0.86694 -7.708407,0.91546 -1.23877,0.0154 -2.72009,0 -3.29183,-0.0338 z m 6.645277,-13.86093 c 0.89764,-0.0587 1.08238,-0.0893 1.00487,-0.16684 -0.19133,-0.19134 -6.169297,-0.32645 -8.151387,-0.18424 -1.22656,0.088 -1.61247,0.13972 -1.61247,0.21612 0,0.22953 5.917081,0.3207 8.758987,0.13496 z m 4.51624,4.42246 c -0.20061,-0.28643 -0.13864,-0.43102 0.30113,-0.70245 0.53962,-0.33307 1.29421,-1.15353 1.61906,-1.76038 0.49187,-0.91886 0.68272,-2.26347 0.46961,-3.30846 -0.12199,-0.59815 -0.61294,-1.59286 -1.03749,-2.10206 -1.41704,-1.69957 -3.88153,-2.21325 -5.86297,-1.22205 -1.17921,0.58989 -1.96071,1.49296 -2.4568,2.839 -0.15467,0.41968 -0.20375,0.48803 -0.363826,0.50671 -0.315281,0.0368 -0.471601,-0.0932 -0.423571,-0.35215 0.12907,-0.69587 0.739507,-1.79834 1.361527,-2.45896 0.67975,-0.72192 1.70552,-1.33286 2.6471,-1.57661 1.80134,-0.46629 3.78547,0.0369 5.14083,1.30387 1.00662,0.94095 1.55428,2.0024 1.75876,3.40876 0.28941,1.99051 -0.72872,4.19682 -2.45011,5.30941 -0.48294,0.31213 -0.55692,0.32427 -0.70325,0.11537 z m -0.69751,-2.66336 c -1.04401,-1.43448 -1.24382,-1.75654 -1.0898,-1.75654 0.0381,0 0.64208,0.185 1.34215,0.41112 0.70007,0.22611 1.50675,0.48573 1.79262,0.57693 0.64328,0.20521 0.67439,0.30466 0.29661,0.94812 -0.2837,0.48321 -1.02074,1.32102 -1.16213,1.32102 -0.048,0 -0.57877,-0.6753 -1.17945,-1.50065 z m 0.72824,-1.43425 c -1.16415,-0.38728 -1.69789,-0.59604 -1.69789,-0.66408 0,-0.13145 3.61567,-1.30254 3.71496,-1.20325 0.20251,0.20251 0.25045,1.9552 0.063,2.30534 -0.0433,0.0809 -0.14038,0.1377 -0.22874,0.13373 -0.0844,-0.004 -0.91754,-0.26107 -1.85138,-0.57174 z m -1.8702,-1.10194 c 0.001,-0.15225 2.18389,-3.06506 2.31524,-3.09036 0.28557,-0.055 1.36125,1.3534 1.38169,1.80906 l 0.01,0.21764 -1.73255,0.57461 c -0.9529,0.31603 -1.78712,0.57485 -1.85382,0.57514 -0.0667,2.7e-4 -0.12085,-0.0384 -0.12032,-0.0861 z m -0.9647,-0.34492 c -0.0536,-0.0866 -0.54478,-0.77088 -1.0915,-1.52055 -0.54672,-0.74967 -0.99404,-1.39451 -0.99404,-1.43298 0,-0.22834 1.18669,-0.72791 1.92841,-0.81183 0.40323,-0.0456 0.42261,-0.0407 0.46119,0.11687 0.0222,0.0905 0.0315,0.9749 0.0208,1.96542 -0.0166,1.53536 -0.0348,1.80385 -0.12343,1.82076 -0.0572,0.0109 -0.14782,-0.0511 -0.20142,-0.13769 z m 0.57924,0.0667 c -0.0185,-0.0482 -0.0253,-0.92921 -0.0151,-1.95777 l 0.0185,-1.87012 0.22689,-0.0219 c 0.52332,-0.0504 1.92405,0.45387 2.1189,0.76277 0.0505,0.0799 -0.19472,0.46693 -1.0359,1.63529 -0.60609,0.8418 -1.14194,1.53253 -1.19079,1.53494 -0.0489,0.002 -0.10393,-0.0351 -0.12244,-0.0833 z"
       id="path1116-6"
       sodipodi:nodetypes="csssccsscssssscscssssssssscccsssscssssscccsssssscsscccssssscsssssssssssssssssssssssssssssssssssscscsssssssssssccssscss" />
  </g>
</svg>
