<?xml version="1.0" encoding="UTF-8"?>
<svg width="21.363mm" height="32.827mm" version="1.1" viewBox="0 0 21.363 32.827" xmlns="http://www.w3.org/2000/svg" xmlns:cc="http://creativecommons.org/ns#" xmlns:dc="http://purl.org/dc/elements/1.1/" xmlns:rdf="http://www.w3.org/1999/02/22-rdf-syntax-ns#">
<metadata>
<rdf:RDF>
<cc:Work rdf:about="">
<dc:format>image/svg+xml</dc:format>
<dc:type rdf:resource="http://purl.org/dc/dcmitype/StillImage"/>
<dc:title/>
</cc:Work>
</rdf:RDF>
</metadata>
<g transform="translate(-89.104 -118.81)">
<path d="m95.307 151.59c-1.4607-0.0668-3.1532-0.23838-3.4448-0.34926-0.10669-0.0406-0.15538-0.094-0.11818-0.12956 0.0348-0.0333 0.46867-0.22126 0.96418-0.41765 1.1804-0.46783 3.1785-1.4037 3.1838-1.4912 2e-3 -0.0378-0.19857-0.14067-0.44633-0.22854-2.2972-0.8148-4.2493-2.5278-5.2682-4.6231-0.383-0.78764-0.7355-1.8902-0.91071-2.8484-0.21564-1.1794-0.21671-3.3414-2e-3 -4.6583 0.45696-2.8067 1.5759-6.7359 3.2006-11.239 0.50721-1.4059 0.46757-1.3472 1.0015-1.4814 1.674-0.42048 7.4319-0.52275 9.9232-0.17624 0.28846 0.0401 0.54017 0.0572 0.55936 0.0381 0.0192-0.0192-0.70373-0.27483-1.6065-0.56808-1.0008-0.32511-1.6568-0.57337-1.6809-0.63615-0.0869-0.2265 0.68503-1.461 1.1348-1.8148 0.10019-0.0788 0.23252-0.14233 0.29409-0.14117 0.13776 3e-3 2.2949 2.9796 2.2949 3.1671 0 0.0816 0.0844 0.1702 0.2203 0.23136 0.19377 0.0872 0.25256 0.18685 0.48772 0.8268 1.5761 4.2891 2.6301 7.8286 3.24 10.88 0.87093 4.358 0.0742 8.1184-2.2411 10.577-1.0265 1.0901-2.1613 1.846-3.615 2.4081-0.3418 0.13214-0.61569 0.26264-0.60868 0.29002 0.0187 0.073 2.3045 1.1488 3.0712 1.4454 1.2842 0.49679 1.3169 0.53183 0.62128 0.66583-1.3209 0.25444-7.2226 0.4115-10.254 0.27289zm5.2669-3.0723c3.1871-0.74359 5.5311-2.6168 6.576-5.2551 0.24075-0.60784 0.51544-1.6572 0.62569-2.3903 0.28379-1.887-0.22023-5.2452-1.449-9.6543-0.57357-2.0581-1.8992-5.9313-2.1042-6.148-0.0622-0.0658-0.21487-0.0627-0.70324 0.0142-2.0676 0.32562-7.2859 0.32631-9.2941 1e-3 -0.33787-0.0547-0.63887-0.0749-0.66889-0.0449-0.10411 0.1041-0.79874 1.9933-1.3552 3.6857-1.4528 4.4185-2.3714 8.9009-2.2789 11.12 0.15999 3.8369 2.0669 6.683 5.4112 8.0765 1.9379 0.80746 3.5473 0.99023 5.2405 0.59516zm-2.6335-0.67007c-3.7518-0.33605-6.297-2.8338-7.3798-7.2424-0.2738-1.1147-0.46492-2.6975-0.34071-2.8217 0.0227-0.0227 0.23367 0.0645 0.46884 0.19377 0.68675 0.37748 2.209 0.69121 4.2024 0.86606 1.4022 0.12301 5.4795 0.16495 6.9648 0.0717 2.817-0.17695 4.6474-0.52236 5.3971-1.0185 0.34322-0.22714 0.40172-0.14985 0.34781 0.45957-0.15994 1.8082-0.62046 3.5272-1.3274 4.9551-1.3676 2.7619-3.4989 4.2559-6.4685 4.5341-0.86122 0.0807-0.98899 0.0808-1.8645 2e-3zm-1.8365-9.2857c-2.2981-0.1366-4.3882-0.44957-5.2108-0.78025-0.71198-0.28622-0.80367-0.65734-0.23418-0.94787 2.188-1.1162 12.013-1.2875 15.734-0.27424 1.1683 0.31818 1.4318 0.7332 0.71156 1.1207-0.99003 0.53267-3.8047 0.86694-7.7084 0.91546-1.2388 0.0154-2.7201 0-3.2918-0.0338zm6.6453-13.861c0.89764-0.0587 1.0824-0.0893 1.0049-0.16684-0.19133-0.19134-6.1693-0.32645-8.1514-0.18424-1.2266 0.088-1.6125 0.13972-1.6125 0.21612 0 0.22953 5.9171 0.3207 8.759 0.13496zm4.5162 4.4225c-0.20061-0.28643-0.13864-0.43102 0.30113-0.70245 0.53962-0.33307 1.2942-1.1535 1.6191-1.7604 0.49187-0.91886 0.68272-2.2635 0.46961-3.3085-0.12199-0.59815-0.61294-1.5929-1.0375-2.1021-1.417-1.6996-3.8815-2.2132-5.863-1.222-1.1792 0.58989-1.9607 1.493-2.4568 2.839-0.15467 0.41968-0.20375 0.48803-0.36383 0.50671-0.31528 0.0368-0.4716-0.0932-0.42357-0.35215 0.12907-0.69587 0.73951-1.7983 1.3615-2.459 0.67975-0.72192 1.7055-1.3329 2.6471-1.5766 1.8013-0.46629 3.7855 0.0369 5.1408 1.3039 1.0066 0.94095 1.5543 2.0024 1.7588 3.4088 0.28941 1.9905-0.72872 4.1968-2.4501 5.3094-0.48294 0.31213-0.55692 0.32427-0.70325 0.11537zm-0.69751-2.6634c-1.044-1.4345-1.2438-1.7565-1.0898-1.7565 0.0381 0 0.64208 0.185 1.3422 0.41112 0.70007 0.22611 1.5068 0.48573 1.7926 0.57693 0.64328 0.20521 0.67439 0.30466 0.29661 0.94812-0.2837 0.48321-1.0207 1.321-1.1621 1.321-0.048 0-0.57877-0.6753-1.1794-1.5006zm0.72824-1.4342c-1.1642-0.38728-1.6979-0.59604-1.6979-0.66408 0-0.13145 3.6157-1.3025 3.715-1.2032 0.20251 0.20251 0.25045 1.9552 0.063 2.3053-0.0433 0.0809-0.14038 0.1377-0.22874 0.13373-0.0844-4e-3 -0.91754-0.26107-1.8514-0.57174zm-1.8702-1.1019c1e-3 -0.15225 2.1839-3.0651 2.3152-3.0904 0.28557-0.055 1.3612 1.3534 1.3817 1.8091l0.01 0.21764-1.7326 0.57461c-0.9529 0.31603-1.7871 0.57485-1.8538 0.57514-0.0667 2.7e-4 -0.12085-0.0384-0.12032-0.0861zm-0.9647-0.34492c-0.0536-0.0866-0.54478-0.77088-1.0915-1.5206s-0.99404-1.3945-0.99404-1.433c0-0.22834 1.1867-0.72791 1.9284-0.81183 0.40323-0.0456 0.42261-0.0407 0.46119 0.11687 0.0222 0.0905 0.0315 0.9749 0.0208 1.9654-0.0166 1.5354-0.0348 1.8038-0.12343 1.8208-0.0572 0.0109-0.14782-0.0511-0.20142-0.13769zm0.57924 0.0667c-0.0185-0.0482-0.0253-0.92921-0.0151-1.9578l0.0185-1.8701 0.22689-0.0219c0.52332-0.0504 1.924 0.45387 2.1189 0.76277 0.0505 0.0799-0.19472 0.46693-1.0359 1.6353-0.60609 0.8418-1.1419 1.5325-1.1908 1.5349-0.0489 2e-3 -0.10393-0.0351-0.12244-0.0833z" fill="#fff" stroke-width=".069302"/>
</g>
</svg>
