<svg width="80.742" height="124.071" viewBox="0 0 21.363 32.827" xmlns="http://www.w3.org/2000/svg"><path d="M6.203 32.78c-1.46-.067-3.153-.238-3.445-.35-.106-.04-.155-.093-.118-.129.035-.033.469-.221.964-.417 1.18-.468 3.179-1.404 3.184-1.492.002-.037-.199-.14-.446-.228-2.298-.815-4.25-2.528-5.269-4.623-.383-.788-.735-1.89-.91-2.849-.216-1.18-.217-3.341-.002-4.658.457-2.807 1.576-6.736 3.2-11.239.508-1.406.468-1.347 1.002-1.481 1.674-.42 7.432-.523 9.923-.177.289.04.54.058.56.038.019-.019-.704-.274-1.607-.568-1-.325-1.657-.573-1.681-.636-.087-.226.685-1.46 1.135-1.815.1-.078.232-.142.294-.14.138.002 2.295 2.979 2.295 3.166 0 .082.084.17.22.232.194.087.253.187.488.827 1.576 4.289 2.63 7.828 3.24 10.88.87 4.358.074 8.118-2.241 10.577-1.027 1.09-2.162 1.846-3.615 2.408-.342.132-.616.262-.609.29.019.073 2.305 1.148 3.071 1.445 1.284.497 1.317.532.622.666-1.321.254-7.223.411-10.254.273zm5.267-3.072c3.187-.744 5.531-2.617 6.576-5.255.24-.608.515-1.658.626-2.39.283-1.888-.22-5.246-1.45-9.655-.573-2.058-1.899-5.931-2.104-6.148-.062-.066-.214-.063-.703.014-2.067.326-7.286.327-9.294.001-.338-.054-.639-.075-.669-.045-.104.104-.799 1.994-1.355 3.686-1.453 4.419-2.371 8.9-2.279 11.12.16 3.837 2.067 6.683 5.411 8.077 1.938.807 3.548.99 5.24.595zm-2.634-.67c-3.751-.336-6.297-2.834-7.38-7.243-.273-1.114-.464-2.697-.34-2.821.023-.023.234.064.469.193.686.378 2.209.692 4.202.866 1.402.123 5.48.165 6.965.072 2.817-.177 4.647-.522 5.397-1.018.343-.228.402-.15.348.46-.16 1.807-.62 3.526-1.328 4.954-1.367 2.762-3.498 4.256-6.468 4.534-.861.081-.989.081-1.865.002zM7 19.752c-2.298-.137-4.388-.45-5.21-.78-.713-.287-.805-.658-.235-.948 2.188-1.116 12.013-1.288 15.734-.274 1.168.318 1.432.733.711 1.12-.99.533-3.804.867-7.708.916-1.239.015-2.72 0-3.292-.034zM13.645 5.89c.898-.059 1.083-.09 1.005-.167-.191-.191-6.17-.326-8.151-.184-1.227.088-1.613.14-1.613.216 0 .23 5.917.32 8.76.135zm4.516 4.422c-.2-.286-.138-.43.302-.702.54-.333 1.294-1.154 1.619-1.76.492-.92.682-2.264.47-3.309-.123-.598-.614-1.593-1.038-2.102C18.097.74 15.632.227 13.65 1.218c-1.18.59-1.961 1.493-2.457 2.839-.155.42-.204.488-.364.507-.315.036-.471-.094-.423-.352.129-.696.74-1.799 1.361-2.46.68-.721 1.706-1.332 2.647-1.576a5.574 5.574 0 0 1 5.14 1.304c1.008.94 1.555 2.002 1.76 3.409.29 1.99-.729 4.196-2.45 5.309-.483.312-.557.324-.704.115zm-.697-2.663c-1.044-1.434-1.244-1.756-1.09-1.756.038 0 .642.185 1.342.41.7.227 1.507.486 1.793.578.643.205.674.304.297.948-.284.483-1.021 1.32-1.163 1.32-.048 0-.578-.675-1.179-1.5zm.728-1.434c-1.164-.387-1.698-.596-1.698-.664 0-.132 3.616-1.303 3.715-1.203.203.202.25 1.955.063 2.305a.262.262 0 0 1-.229.134c-.084-.004-.917-.261-1.85-.572zm-1.87-1.102c0-.152 2.184-3.065 2.315-3.09.286-.055 1.361 1.353 1.382 1.809l.01.217-1.733.575c-.953.316-1.787.575-1.854.575-.066 0-.12-.038-.12-.086zm-.965-.345c-.053-.087-.545-.77-1.091-1.52s-.994-1.395-.994-1.434c0-.228 1.186-.728 1.928-.811.403-.046.423-.041.461.116.022.09.032.975.021 1.966-.017 1.535-.035 1.804-.123 1.82-.058.012-.148-.05-.202-.137zm.58.067c-.019-.048-.026-.93-.016-1.958l.019-1.87.227-.022c.523-.05 1.924.454 2.119.763.05.08-.195.467-1.036 1.635-.606.842-1.142 1.532-1.191 1.535a.136.136 0 0 1-.122-.083z" fill="#fff"/></svg>