<?xml version="1.0" encoding="UTF-8"?>
<svg width="69.256mm" height="75.341mm" version="1.1" viewBox="0 0 69.256 75.341" xmlns="http://www.w3.org/2000/svg">
<g transform="translate(-51.159 -66.981)">
<path d="m82.907 142.28c-5.3003-0.54254-9.0838-1.5519-13.513-3.6049-1.0153-0.47065-2.2779-1.0357-2.8059-1.2557-4.7132-1.964-11.878-6.0674-13.664-7.8251-1.4417-1.4195-1.7695-2.1321-1.7663-3.8396 0.0028-1.4741 0.22347-2.0735 1.2121-3.2925 1.1547-1.4238 4.0013-3.115 7.2031-4.2794 2.3934-0.87044 2.5179-0.88583 2.797-0.34598 0.1267 0.24502 0.23037 0.50739 0.23037 0.58304 0 0.0757-0.81408 0.41542-1.8091 0.75503-8.8465 3.0196-10.874 7.1908-5.2495 10.799 7.6664 4.9178 27.106 7.0639 43.972 4.8544 8.395-1.0998 15.166-3.3507 18.016-5.9894 2.408-2.2294 2.1365-4.6708-0.75552-6.7938-0.70879-0.5203-0.72106-0.54212-0.46433-0.8258 0.56273-0.62181 0.75036-0.62017 1.5902 0.0139 0.90043 0.67983 1.6611 1.5678 2.1653 2.528 0.29193 0.55585 0.34897 0.88197 0.34872 1.9936-2.9e-4 1.1762-0.0491 1.4225-0.42439 2.1413-0.74361 1.4242-2.0762 2.531-5.5703 4.6265-3.2984 1.9781-5.8777 3.3074-10.1 5.2049-6.3626 2.8596-8.64 3.5933-13.291 4.2822-1.4264 0.21127-6.9148 0.39398-8.1223 0.27038zm-0.66455-7.9046c-2.7628-0.31872-4.8901-1.1607-6.1726-2.443-0.43028-0.43023-1.261-1.0918-1.846-1.4702-7.6692-4.9604-12.503-14.185-12.571-23.989-0.01116-1.6118 0.01033-1.7415 0.38108-2.3028 1.3062-1.9773 6.1706-3.476 13.79-4.2487 3.5343-0.35842 8.8893-0.5579 12.251-0.45637 11.848 0.3578 19.732 2.0861 21.463 4.7046 0.36853 0.55747 0.3929 0.70034 0.3929 2.3028v1.7084l0.66456-0.0229c0.3655-0.0126 1.2294-0.0413 1.9198-0.0637 2.1449-0.0697 3.949 0.58254 5.3957 1.9507 2.0326 1.9224 2.1501 4.6928 0.3083 7.2738-2.1212 2.9726-6.8176 5.654-13.248 7.564l-1.8332 0.5445-1.6983 1.6508c-1.7355 1.687-2.8267 2.5802-4.3054 3.5245-0.45925 0.29327-1.1903 0.88842-1.6245 1.3226-1.8263 1.8261-4.9571 2.6411-9.9766 2.5971-1.2012-0.0105-2.6825-0.0767-3.2917-0.14693zm25.86-13.481c5.3043-1.4537 8.5058-3.938 8.8045-6.8319 0.11152-1.0805-0.24129-1.9479-1.0996-2.7034-0.37071-0.32631-0.94716-0.6672-1.281-0.75752-0.89365-0.24179-2.1886-0.0802-2.9546 0.3687-0.92437 0.54172-2.4157 2.2422-2.605 2.9703-0.39351 1.5134-1.4148 4.2728-2.0735 5.6024-0.63771 1.2872-0.84545 1.8554-0.67834 1.8554 0.0268 0 0.87615-0.22679 1.8875-0.50398zm-13.603-10.936c7.341-0.66657 12.322-1.9637 13.739-3.5778 0.62038-0.70659 0.57342-1.1475-0.20129-1.8898-1.3152-1.2602-5.0275-2.3479-10.298-3.0176-11.512-1.4625-26.412-0.57744-32.425 1.9261-1.3368 0.55652-2.4171 1.492-2.4171 2.0932 0 1.8545 5.1843 3.5731 13.24 4.3888 4.7097 0.47692 13.551 0.51403 18.364 0.0771zm-12.183-12.927c0.5489-1.9165 0.64845-2.4336 0.65586-3.4067 0.01457-1.9097-0.47691-3.1044-2.3682-5.7568-2.2755-3.1913-2.6277-4.8753-1.6087-7.6913 0.42307-1.1692 1.2165-2.621 2.1279-3.8934 0.60401-0.84336 0.64783-0.76278 0.23604 0.43411-0.43025 1.2505-0.7413 3.0645-0.7413 4.323 0 2.061 0.64933 3.6975 2.4827 6.2573 1.7408 2.4306 2.102 3.8108 1.5092 5.7679-0.35607 1.1756-1.004 2.4295-1.8585 3.5967-0.3686 0.50347-0.50695 0.62093-0.43485 0.3692zm6.9175-3.4982c0.8347-1.6575 1.184-3.0162 1.1888-4.6241 0.0056-1.8208-0.36104-3.0335-1.651-5.4641-2.0575-3.8768-2.3683-4.6772-2.4942-6.424-0.06086-0.84472-0.01663-1.455 0.15524-2.1413 0.50545-2.0186 2.1674-4.7404 4.2831-7.0147l0.8243-0.88607-0.56844 1.2553c-1.4018 3.0955-1.8646 5.0531-1.7458 7.3839 0.10288 2.0186 0.53173 3.3161 1.964 5.942 1.2681 2.3251 1.7537 3.5302 1.8964 4.7069 0.1904 1.5701-0.57168 3.7135-2.0179 5.6755-0.74909 1.0163-2.0155 2.4787-2.2142 2.5569-0.07329 0.02886 0.0976-0.40597 0.37976-0.96627z" fill="#fff" stroke-width=".14768"/>
</g>
</svg>
