<?xml version="1.0" encoding="UTF-8" standalone="no"?>
<!-- Created with Inkscape (http://www.inkscape.org/) -->

<svg
   width="69.256042mm"
   height="75.341202mm"
   viewBox="0 0 69.256041 75.3412"
   version="1.1"
   id="svg5"
   inkscape:version="1.1 (c68e22c387, 2021-05-23)"
   sodipodi:docname="coffee.svg"
   xmlns:inkscape="http://www.inkscape.org/namespaces/inkscape"
   xmlns:sodipodi="http://sodipodi.sourceforge.net/DTD/sodipodi-0.dtd"
   xmlns="http://www.w3.org/2000/svg"
   xmlns:svg="http://www.w3.org/2000/svg">
  <sodipodi:namedview
     id="namedview7"
     pagecolor="#505050"
     bordercolor="#eeeeee"
     borderopacity="1"
     inkscape:pageshadow="0"
     inkscape:pageopacity="0"
     inkscape:pagecheckerboard="0"
     inkscape:document-units="mm"
     showgrid="false"
     fit-margin-top="0"
     fit-margin-left="0"
     fit-margin-right="0"
     fit-margin-bottom="0"
     inkscape:zoom="1.3416246"
     inkscape:cx="90.561847"
     inkscape:cy="144.97349"
     inkscape:window-width="1920"
     inkscape:window-height="1027"
     inkscape:window-x="1072"
     inkscape:window-y="424"
     inkscape:window-maximized="1"
     inkscape:current-layer="layer1" />
  <defs
     id="defs2" />
  <g
     inkscape:label="Layer 1"
     inkscape:groupmode="layer"
     id="layer1"
     transform="translate(-51.158911,-66.981058)">
    <path
       style="fill:#ffffff;stroke-width:0.147678"
       d="m 82.907162,142.2822 c -5.300336,-0.54254 -9.08376,-1.55187 -13.512531,-3.60486 -1.015286,-0.47065 -2.277934,-1.03571 -2.80588,-1.2557 -4.713222,-1.96396 -11.878383,-6.06745 -13.66353,-7.82512 -1.441737,-1.41954 -1.769546,-2.13213 -1.766286,-3.83962 0.0028,-1.47413 0.223473,-2.07354 1.212052,-3.29251 1.154679,-1.42377 4.001309,-3.11498 7.203059,-4.27941 2.393394,-0.87044 2.517856,-0.88583 2.797028,-0.34598 0.1267,0.24502 0.230372,0.50739 0.230372,0.58304 0,0.0757 -0.814078,0.41542 -1.809058,0.75503 -8.846547,3.01957 -10.874238,7.19079 -5.249513,10.7989 7.666422,4.9178 27.106029,7.06392 43.971912,4.85445 8.395023,-1.09976 15.165623,-3.35069 18.015803,-5.98945 2.408,-2.22938 2.13648,-4.67085 -0.75552,-6.79378 -0.70879,-0.5203 -0.72106,-0.54212 -0.46433,-0.8258 0.56273,-0.62181 0.75036,-0.62017 1.59018,0.0139 0.90043,0.67983 1.66106,1.56785 2.16531,2.52795 0.29193,0.55585 0.34897,0.88197 0.34872,1.99365 -2.9e-4,1.17625 -0.0491,1.42252 -0.42439,2.14134 -0.74361,1.4242 -2.07617,2.53097 -5.57034,4.62649 -3.29837,1.9781 -5.87773,3.30735 -10.09975,5.20486 -6.362623,2.85957 -8.640016,3.59332 -13.291015,4.28223 -1.426355,0.21127 -6.91483,0.39398 -8.122293,0.27038 z m -0.664548,-7.90455 c -2.762757,-0.31872 -4.890077,-1.16068 -6.172568,-2.44303 -0.43028,-0.43023 -1.260968,-1.09182 -1.845974,-1.47021 -7.669201,-4.96044 -12.502856,-14.18472 -12.570716,-23.98923 -0.01116,-1.61184 0.01033,-1.74153 0.381084,-2.3028 1.306201,-1.97728 6.170561,-3.47596 13.790214,-4.248674 3.534329,-0.358424 8.889322,-0.557896 12.251239,-0.456368 11.847607,0.357804 19.732437,2.086102 21.463437,4.704642 0.36853,0.55747 0.3929,0.70034 0.3929,2.3028 v 1.70844 l 0.66456,-0.0229 c 0.3655,-0.0126 1.22941,-0.0413 1.91981,-0.0637 2.14494,-0.0697 3.94905,0.58254 5.39569,1.95071 2.03264,1.9224 2.15007,4.69279 0.3083,7.27379 -2.12122,2.97263 -6.81755,5.65395 -13.24833,7.564 l -1.83321,0.5445 -1.6983,1.65076 c -1.735521,1.68695 -2.826738,2.58023 -4.305447,3.52448 -0.459254,0.29327 -1.190262,0.88842 -1.624454,1.32257 -1.826311,1.82611 -4.957125,2.64111 -9.976584,2.59708 -1.201234,-0.0105 -2.682483,-0.0767 -3.291651,-0.14693 z m 25.860006,-13.48123 c 5.30432,-1.45374 8.50579,-3.93795 8.80447,-6.83187 0.11152,-1.08051 -0.24129,-1.94794 -1.09955,-2.70341 -0.37071,-0.32631 -0.94716,-0.6672 -1.281,-0.75752 -0.89365,-0.24179 -2.18855,-0.0802 -2.95455,0.3687 -0.92437,0.54172 -2.41566,2.24215 -2.605,2.97034 -0.39351,1.51342 -1.4148,4.27279 -2.07354,5.60238 -0.63771,1.28716 -0.84545,1.85536 -0.67834,1.85536 0.0268,0 0.87615,-0.22679 1.88751,-0.50398 z M 94.499883,109.96041 c 7.340977,-0.66657 12.322017,-1.96367 13.739257,-3.57781 0.62038,-0.70659 0.57342,-1.14749 -0.20129,-1.8898 -1.31519,-1.26016 -5.02748,-2.34791 -10.298497,-3.01759 -11.511683,-1.46252 -26.411592,-0.57744 -32.425468,1.92614 -1.336821,0.55652 -2.417087,1.49203 -2.417087,2.09321 0,1.85452 5.184259,3.57306 13.239518,4.38878 4.709682,0.47692 13.551294,0.51403 18.363567,0.0771 z M 82.31663,97.033528 c 0.548899,-1.91653 0.648451,-2.433614 0.655858,-3.406709 0.01457,-1.909698 -0.476908,-3.104369 -2.368232,-5.756846 -2.275482,-3.191251 -2.627715,-4.875288 -1.608697,-7.691298 0.423074,-1.169164 1.216522,-2.62097 2.127852,-3.89343 0.604011,-0.843364 0.647831,-0.762778 0.236043,0.434109 -0.430253,1.250547 -0.7413,3.064483 -0.7413,4.323029 0,2.060974 0.649327,3.697535 2.482676,6.257319 1.740806,2.430584 2.101959,3.810846 1.509195,5.767909 -0.356073,1.17561 -1.004017,2.429528 -1.858543,3.596721 -0.368599,0.503471 -0.506948,0.620929 -0.434852,0.369196 z m 6.917475,-3.498179 c 0.834696,-1.657486 1.18401,-3.016248 1.188766,-4.624108 0.0056,-1.820807 -0.361042,-3.033506 -1.651045,-5.464084 -2.057547,-3.87678 -2.36831,-4.677177 -2.494157,-6.423995 -0.06086,-0.84472 -0.01663,-1.454993 0.155239,-2.141332 0.505447,-2.018588 2.167387,-4.740449 4.283121,-7.014705 l 0.824303,-0.886067 -0.56844,1.255263 c -1.401784,3.095517 -1.864633,5.053082 -1.745841,7.383901 0.102879,2.018611 0.53173,3.316104 1.963973,5.942047 1.268135,2.325059 1.753667,3.530184 1.89637,4.706949 0.190397,1.570056 -0.571683,3.713481 -2.017896,5.675523 -0.749086,1.016268 -2.015469,2.478668 -2.214154,2.556877 -0.07329,0.02886 0.0976,-0.405973 0.379761,-0.966269 z"
       id="path836" />
  </g>
</svg>
