<svg width="261.755" height="284.753" viewBox="0 0 69.256 75.341" xmlns="http://www.w3.org/2000/svg"><path d="M31.748 75.299c-5.3-.543-9.084-1.552-13.513-3.605a104.065 104.065 0 0 0-2.806-1.256c-4.713-1.964-11.878-6.067-13.664-7.825-1.442-1.42-1.77-2.132-1.766-3.84C.002 57.3.222 56.7 1.21 55.482c1.155-1.424 4.001-3.115 7.203-4.28 2.393-.87 2.518-.885 2.797-.345.127.245.23.507.23.583 0 .076-.814.415-1.809.755-8.846 3.02-10.874 7.19-5.25 10.799 7.667 4.918 27.107 7.064 43.973 4.854 8.395-1.1 15.166-3.35 18.016-5.99 2.408-2.229 2.136-4.67-.756-6.793-.709-.52-.72-.542-.464-.826.563-.622.75-.62 1.59.014.9.68 1.661 1.568 2.165 2.528.292.556.35.882.35 1.994-.001 1.176-.05 1.422-.425 2.141-.744 1.424-2.076 2.531-5.57 4.627-3.299 1.978-5.878 3.307-10.1 5.204-6.363 2.86-8.64 3.594-13.292 4.283-1.426.211-6.914.394-8.122.27zm-.665-7.905c-2.762-.318-4.89-1.16-6.172-2.443-.43-.43-1.261-1.091-1.846-1.47-7.67-4.96-12.503-14.185-12.571-23.989-.011-1.612.01-1.741.38-2.303 1.307-1.977 6.172-3.476 13.79-4.248 3.535-.359 8.89-.558 12.252-.457 11.848.358 19.732 2.086 21.463 4.705.368.557.393.7.393 2.303V41.2l.664-.023 1.92-.063c2.145-.07 3.95.582 5.396 1.95 2.032 1.923 2.15 4.693.308 7.274-2.121 2.973-6.817 5.654-13.248 7.564l-1.833.545-1.698 1.65c-1.736 1.687-2.827 2.58-4.306 3.525-.459.293-1.19.888-1.624 1.322-1.827 1.827-4.957 2.642-9.977 2.598-1.201-.011-2.682-.077-3.292-.147zm25.86-13.48c5.305-1.454 8.506-3.939 8.805-6.832.111-1.081-.241-1.948-1.1-2.704-.37-.326-.947-.667-1.28-.757-.894-.242-2.19-.08-2.955.368-.925.542-2.416 2.242-2.605 2.97-.394 1.514-1.415 4.273-2.074 5.603-.637 1.287-.845 1.855-.678 1.855.027 0 .876-.226 1.887-.504zM43.34 42.976c7.341-.666 12.322-1.963 13.74-3.577.62-.707.573-1.148-.202-1.89-1.315-1.26-5.027-2.348-10.298-3.018-11.512-1.462-26.412-.577-32.425 1.926-1.337.557-2.417 1.492-2.417 2.094 0 1.854 5.184 3.573 13.24 4.388 4.71.477 13.551.514 18.364.077zM31.157 30.05c.55-1.916.649-2.433.656-3.406.015-1.91-.477-3.105-2.368-5.757-2.275-3.191-2.628-4.875-1.609-7.691.423-1.17 1.217-2.621 2.128-3.894.604-.843.648-.763.236.434-.43 1.25-.74 3.065-.74 4.323 0 2.061.648 3.698 2.482 6.258 1.74 2.43 2.102 3.81 1.509 5.768-.356 1.175-1.004 2.429-1.859 3.596-.368.504-.506.621-.434.37zm6.918-3.498c.835-1.657 1.184-3.016 1.189-4.624.005-1.82-.361-3.033-1.651-5.464-2.058-3.877-2.369-4.677-2.494-6.424-.061-.845-.017-1.455.155-2.141.505-2.019 2.167-4.74 4.283-7.015l.824-.886-.568 1.255c-1.402 3.096-1.865 5.053-1.746 7.384.103 2.019.532 3.316 1.964 5.942 1.268 2.325 1.754 3.53 1.896 4.707.19 1.57-.571 3.714-2.018 5.676-.749 1.016-2.015 2.478-2.214 2.556-.073.03.098-.406.38-.966z" fill="#fff"/></svg>