<svg width="257.45" height="275.751" viewBox="0 0 68.117 72.959" xmlns="http://www.w3.org/2000/svg"><path d="M5.186 72.818c-1.614-.49-2.735-1.964-2.735-3.594 0-1.443 1.293-3.062 2.718-3.404.444-.106 1.108-.152 1.477-.102l.669.092v-2.132c0-2.061.012-2.145.373-2.505.235-.235.547-.373.843-.373.296 0 .608.138.843.373l.373.373-.002 4.225c0 4.116-.01 4.245-.359 4.993-.766 1.646-2.598 2.541-4.2 2.054zm1.756-2.663c.754-.754.22-2.06-.843-2.06-.625 0-1.216.592-1.216 1.217s.591 1.216 1.216 1.216c.296 0 .608-.138.843-.373zm49.515 2.576c-.239-.167-.644-1.182-1.506-3.777l-1.179-3.548-2.418-.793-1.69 1.125c-5.477 3.646-12.134 5.316-18.453 4.63-8.368-.91-15.883-5.461-20.443-12.38-3.518-5.339-5.212-12.134-4.522-18.14l.146-1.268-1.205-2.397-2.47-1.258C.682 33.889.22 33.593.102 33.249c-.31-.905-.056-1.151 2.637-2.546l2.494-1.292 1.23-2.432c1.014-2.004 1.304-2.458 1.648-2.576.774-.265 1.195.03 1.862 1.31.335.64.648 1.204.697 1.253.05.05.546-.523 1.105-1.27 3.71-4.97 9.531-8.792 15.64-10.27 1.375-.334 2.228-.472 4.789-.777l.646-.077v-2.68l-.461-.192c-.254-.105-.73-.495-1.056-.866a3.487 3.487 0 0 1 0-4.647c.327-.371.802-.761 1.056-.866l.46-.191V2.937c0-2.125.012-2.204.374-2.565.494-.494 1.192-.494 1.686 0 .362.361.373.44.373 2.565V5.13l.461.19c1.189.493 2.128 2.3 1.909 3.671-.188 1.177-1.167 2.502-2.056 2.785-.286.09-.314.218-.314 1.448v1.348l.646.08c.355.044 1.056.122 1.558.172 2.437.247 6.28 1.34 8.301 2.36.493.248.895.414.895.368 0-.045-.301-.532-.67-1.081-.57-.851-.924-1.167-2.394-2.142-1.847-1.224-2.247-1.601-2.253-2.12-.006-.632.203-.843 2.085-2.1l1.894-1.265L46.61 6.95c1.256-1.881 1.467-2.09 2.1-2.084.518.005.895.406 2.12 2.253 1.126 1.699 1.17 1.743 2.868 2.869 1.83 1.213 2.252 1.606 2.249 2.095-.004.603-.42 1.02-2.18 2.193l-1.79 1.193-1.257 1.88-1.256 1.881.928.637c3.454 2.372 6.864 6.447 8.811 10.532 2.813 5.901 3.52 11.95 2.128 18.223-.404 1.82-1.237 4.376-1.762 5.405l-.31.61.65 1.99.652 1.99 3.548 1.178c3.713 1.234 4.007 1.397 4.007 2.221 0 .825-.295.988-4.002 2.22l-3.545 1.178-1.178 3.545c-1.232 3.707-1.395 4.002-2.22 4.002-.213 0-.535-.103-.715-.229zm-23.606-7.22v-2.28h-3.669l.505.92c.696 1.268 1.597 2.438 2.38 3.09.363.303.688.55.722.55.034 0 .062-1.025.062-2.28zm3.606 1.358c.666-.641 1.685-2.078 2.23-3.143l.252-.494h-3.656v2.287c0 2.593-.054 2.531 1.174 1.35zm21.453-1.21c.465-1.411.748-2.04.983-2.187.182-.115 1.134-.47 2.116-.79s1.786-.619 1.786-.666c0-.047-.803-.348-1.786-.667-.982-.32-1.934-.675-2.116-.789-.235-.148-.518-.776-.983-2.188-.36-1.09-.692-1.98-.739-1.98-.046 0-.379.89-.738 1.98-.466 1.412-.748 2.04-.984 2.188-.181.114-1.134.47-2.116.789-.982.32-1.786.62-1.786.667 0 .047.804.347 1.786.667s1.935.674 2.116.789c.236.148.518.776.984 2.188.36 1.089.692 1.98.738 1.98.047 0 .38-.891.739-1.98zm-29.96.284a25.221 25.221 0 0 1-.942-1.77l-.446-.941H23.38l.29.32c.763.846 4.538 3.462 4.725 3.275.03-.03-.17-.427-.443-.884zm14.409-.664a20.427 20.427 0 0 0 1.672-1.344l.751-.691-3.212-.012-.446.94a25.18 25.18 0 0 1-.94 1.767c-.272.454-.494.858-.494.898 0 .121 1.694-.868 2.669-1.558zm-21.543-1.28c-.546-.625-.749-.755-1.183-.76-.316-.004-.467.047-.38.13.183.173 2.07 1.383 2.156 1.383.036 0-.231-.339-.593-.753zm26.848.184c.732-.443.864-.647.416-.647-.151 0-.507.24-.79.532-.621.64-.539.666.374.115zM17.95 60.059c-.676-1.098-2.192-4.354-2.576-5.53l-.335-1.025h-4.106l.643 1.178c.962 1.763 2.275 3.62 3.492 4.94l1.086 1.178h2.252zm7.193-1.121a56.419 56.419 0 0 1-.848-3.648l-.338-1.786h-3.155c-2.114 0-3.154.053-3.154.16 0 .624 1.968 4.642 3.067 6.262l.593.874h4.346zm7.706-1.786v-3.648h-3.192c-2.624 0-3.192.037-3.192.211 0 .48.65 3.339 1.17 5.147l.558 1.938h4.656zm7.632 1.71c.541-1.866 1.184-4.65 1.184-5.128 0-.199-.44-.23-3.192-.23h-3.192V60.8h4.637zm6.934 1.064c1.099-1.62 3.066-5.638 3.066-6.262 0-.107-1.04-.16-3.154-.16h-3.154l-.338 1.786a56.425 56.425 0 0 1-.848 3.648l-.51 1.862h4.345zm7.206-3.863.85-2.56h-2.364l-.493 1.38c-.272.759-.863 2.13-1.313 3.049-.45.918-.82 1.694-.82 1.723 0 .03.74-.19 1.646-.49l1.645-.543zm-40.317-5.075c0-.045-.135-.849-.3-1.786-.25-1.411-.611-4.504-.612-5.237 0-.144-.59-.19-2.444-.19H8.505l.103 1.026c.144 1.427.617 3.856 1.006 5.169l.327 1.102h2.182c1.2 0 2.182-.038 2.182-.083zm9.212-.942c-.156-1.605-.386-4.911-.391-5.625l-.005-.646h-7.327l.102 1.254c.15 1.84.64 4.946.924 5.853.045.144.866.19 3.428.19h3.369zm9.333-2.623v-3.648h-7.296l.003.798c.003.829.22 3.895.39 5.549l.098.95h6.805zm9.335 2.699c.17-1.654.386-4.72.39-5.549l.003-.798h-7.296v7.297h6.805zm9.239.342c.25-1.132.715-4.239.812-5.435l.102-1.254H45.01l-.004.646c-.006.714-.235 4.02-.392 5.627l-.1 1.03 6.792-.083.118-.532zm7.163-.798c.424-1.514.784-3.417.936-4.94l.095-.95h-2.44c-1.85 0-2.44.045-2.44.19 0 .732-.36 3.825-.61 5.236-.166.937-.302 1.74-.302 1.786 0 .046.983.084 2.184.084h2.183zm-45.192-8.437c.009-.667.358-3.915.52-4.846.115-.658.189-1.217.163-1.244-.025-.026-.531.197-1.125.496l-1.08.544-1.212 2.42c-.666 1.332-1.333 2.491-1.482 2.578-.195.113.354.158 1.972.162 1.233.002 2.243-.047 2.244-.11zm9.728-.456c.001-.68.257-4.432.394-5.779l.097-.953-6.778.082-.193.836c-.244 1.056-.622 3.67-.753 5.206l-.1 1.178h7.331l.002-.57zm9.727-3.078v-3.648h-6.805l-.098.95c-.171 1.653-.387 4.72-.39 5.548l-.003.798h7.296zm9.724 2.85c-.003-.828-.219-3.895-.39-5.548l-.097-.95h-6.805v7.296h7.296l-.003-.798zm9.662-.456c-.097-1.196-.562-4.302-.812-5.434l-.118-.532-6.792-.082.1 1.03c.157 1.606.387 4.912.391 5.626l.005.646h7.328zm7.29.38c-.193-1.737-.548-3.638-.937-5.016l-.396-1.406H56.01c-1.201 0-2.184.038-2.184.083s.136.85.301 1.786c.25 1.412.61 4.505.611 5.237 0 .144.59.19 2.443.19h2.443zM9.33 35.795l.718-1.445 1.444-.718c.795-.395 1.445-.755 1.445-.8 0-.047-.65-.407-1.445-.802l-1.444-.718-.718-1.444c-.395-.795-.755-1.445-.801-1.445-.046 0-.406.65-.801 1.445l-.718 1.444-1.445.718c-.794.395-1.444.755-1.444.801 0 .046.65.406 1.444.801l1.445.718.718 1.445c.395.794.755 1.444.8 1.444.047 0 .407-.65.802-1.444zm14.965-5.966c.186-.982.568-2.624.848-3.648l.51-1.862h-4.345l-.593.874c-1.099 1.62-3.066 5.637-3.066 6.262 0 .107 1.04.16 3.154.16h3.154zm8.554-1.862v-3.648h-4.637l-.563 1.938c-.541 1.866-1.184 4.649-1.184 5.127 0 .2.44.231 3.192.231h3.192zm8.816 3.417c0-.456-.636-3.228-1.176-5.127l-.552-1.938H35.28v7.296h3.192c2.753 0 3.192-.032 3.192-.23zm8.816.07c0-.624-1.967-4.641-3.066-6.261l-.593-.874h-4.346l.51 1.862c.282 1.024.663 2.665.85 3.648l.337 1.785h3.154c2.115 0 3.155-.052 3.155-.16zm6.537.08c0-.043-.2-.476-.445-.96-.676-1.339-2.142-3.444-3.43-4.925l-1.156-1.33h-2.27l.396.625c.665 1.055 1.98 3.837 2.5 5.292l.494 1.38h1.955c1.076 0 1.956-.037 1.956-.081zM15.727 29.68c.58-1.508 1.92-4.26 2.405-4.942l.298-.418h-2.257l-.747.798a23.735 23.735 0 0 0-2.628 3.314l-.758 1.132 1.55.782c.853.43 1.56.773 1.573.76.013-.012.266-.654.564-1.426zm5.025-8.498.596-.696-.505.26c-.278.144-.778.46-1.112.702l-.608.44.517-.005c.423-.004.625-.132 1.112-.702zm6.255-.235c.245-.517.67-1.314.943-1.77.273-.457.472-.855.443-.884-.187-.187-3.962 2.429-4.725 3.274l-.29.32h3.183zm5.842-1.345c0-2.13-.018-2.275-.266-2.14-.816.447-2.318 2.328-3.137 3.932l-.253.494h3.656zm5.836 1.792c-.82-1.604-2.32-3.485-3.138-3.932-.248-.135-.266.01-.266 2.14v2.286h3.656zm5.778.173c-.763-.845-4.538-3.461-4.725-3.274-.03.029.17.427.443.883.273.457.697 1.254.943 1.771l.445.94h3.184zm3.89-.144c-.376-.254-.883-.57-1.127-.7-.427-.229-.422-.212.152.459.494.577.686.697 1.128.7l.532.005-.684-.463zm1.114-6.594c.6-.923.937-1.26 1.86-1.86.62-.404 1.127-.768 1.127-.81 0-.041-.507-.405-1.127-.809-.923-.6-1.26-.937-1.86-1.86-.403-.62-.767-1.127-.81-1.127-.041 0-.405.507-.808 1.127-.6.923-.938 1.26-1.86 1.86-.62.404-1.127.768-1.127.81 0 .041.507.405 1.126.809.923.6 1.26.937 1.86 1.86.404.62.768 1.127.81 1.127.042 0 .406-.507.809-1.127zm-14.56-5.475c.755-.754.22-2.059-.842-2.059-.296 0-.608.138-.843.373a1.225 1.225 0 0 0-.373.843c0 .297.138.608.373.843.235.236.547.373.843.373.296 0 .608-.137.843-.373zM60.9 24.128c-.805-.212-2.079-1.49-2.329-2.335-.42-1.424-.124-2.56.95-3.639.906-.909 1.787-1.226 2.97-1.07l.76.101V14.51c0-1.564.065-2.798.158-2.971.197-.369 3.04-1.812 3.57-1.812.505 0 1.136.635 1.136 1.143 0 .665-.27.964-1.374 1.52l-1.058.532-.002 4.217c-.002 4.115-.01 4.234-.36 4.976-.827 1.749-2.514 2.517-4.421 2.013zm1.978-2.614c.754-.754.22-2.06-.843-2.06-.625 0-1.216.592-1.216 1.217 0 .625.59 1.216 1.216 1.216.296 0 .607-.138.843-.373z" fill="#fff"/></svg>