<?xml version="1.0" encoding="UTF-8"?>
<svg width="68.117mm" height="72.959mm" version="1.1" viewBox="0 0 68.117 72.959" xmlns="http://www.w3.org/2000/svg">
<g transform="translate(-33.165 -74.262)">
<path d="m38.351 147.08c-1.6137-0.49087-2.7351-1.9643-2.7351-3.5938 0-1.443 1.2927-3.0622 2.7177-3.404 0.44418-0.10656 1.1088-0.15245 1.477-0.10199l0.66943 0.0918v-2.1321c0-2.061 0.01243-2.1445 0.3731-2.5052 0.23519-0.23518 0.54677-0.3731 0.84293-0.3731 0.29616 0 0.60774 0.13792 0.84294 0.3731l0.3731 0.3731-0.0017 4.225c-0.0011 4.1164-0.01069 4.2448-0.35933 4.9935-0.76622 1.6455-2.5979 2.541-4.2003 2.0536zm1.7559-2.6631c0.75397-0.75398 0.21971-2.059-0.84293-2.059-0.6249 0-1.216 0.59112-1.216 1.216s0.59113 1.216 1.216 1.216c0.29616 0 0.60775-0.13792 0.84293-0.3731zm49.515 2.5764c-0.23884-0.16729-0.6435-1.1823-1.5058-3.777l-1.1791-3.5482-2.4181-0.79273-1.6891 1.1244c-5.4779 3.6464-12.135 5.3166-18.454 4.6298-8.3678-0.90947-15.883-5.4608-20.443-12.38-3.5181-5.3384-5.212-12.134-4.5215-18.14l0.14574-1.2676-1.2054-2.3974-2.4703-1.2578c-2.0338-1.0356-2.4956-1.3317-2.6136-1.6758-0.31031-0.90491-0.05527-1.1511 2.6372-2.5461l2.4938-1.292 1.2303-2.4321c1.0137-2.0039 1.3039-2.4573 1.6483-2.5754 0.77389-0.26539 1.1942 0.03022 1.8621 1.3094 0.33442 0.64058 0.64799 1.2046 0.69683 1.2535 0.04883 0.0488 0.54581-0.5232 1.1044-1.2712 3.7105-4.9688 9.5313-8.7911 15.64-10.27 1.3757-0.3331 2.228-0.47122 4.7892-0.77607l0.64602-0.07689v-2.6806l-0.46123-0.19105c-0.25367-0.10508-0.7288-0.49503-1.0558-0.86655-1.1825-1.3433-1.1825-3.3034 0-4.6467 0.32703-0.37152 0.80216-0.76148 1.0558-0.86655l0.46123-0.19104v-2.1925c0-2.1252 0.01143-2.204 0.37311-2.5656 0.49361-0.49361 1.1923-0.49361 1.6859 0 0.36164 0.36164 0.37311 0.44043 0.37311 2.5656v2.1925l0.46123 0.19104c1.1885 0.49228 2.1279 2.299 1.9085 3.6706-0.18809 1.1763-1.1671 2.5022-2.0558 2.7843-0.28624 0.09085-0.314 0.21886-0.314 1.4481v1.3485l0.64602 0.07991c0.35531 0.04395 1.0564 0.12146 1.558 0.17225 2.4367 0.24672 6.2808 1.3392 8.3014 2.3592 0.49216 0.24844 0.89484 0.41438 0.89484 0.36875 0-0.04561-0.30143-0.53228-0.66984-1.0815-0.57107-0.85126-0.92408-1.167-2.3941-2.1415-1.8471-1.2245-2.2475-1.6014-2.2529-2.1201-0.0065-0.63223 0.20301-0.84327 2.0845-2.0999l1.8939-1.2649 1.2649-1.8939c1.2566-1.8815 1.4677-2.091 2.0999-2.0845 0.51881 0.0052 0.89566 0.4058 2.1206 2.2535 1.126 1.6985 1.1698 1.7423 2.8683 2.8683 1.83 1.2131 2.2513 1.6058 2.2481 2.095-4e-3 0.60341-0.41873 1.0208-2.1796 2.1936l-1.7907 1.1927-1.2561 1.8807-1.2561 1.8807 0.92757 0.63686c3.4545 2.3718 6.8639 6.4469 8.8114 10.532 2.8131 5.9007 3.5194 11.949 2.1279 18.223-0.40364 1.8199-1.2367 4.376-1.7615 5.4047l-0.31098 0.60956 0.65104 1.9898 0.65103 1.9898 3.5488 1.1793c3.7122 1.2336 4.0064 1.3967 4.0064 2.221 0 0.82411-0.29439 0.98739-4.0022 2.2196l-3.5446 1.178-1.178 3.5446c-1.2322 3.7078-1.3954 4.0022-2.2196 4.0022-0.2136 0-0.53534-0.10295-0.71498-0.22877zm-23.606-7.2194v-2.2801h-3.6687l0.5043 0.91856c0.69677 1.2691 1.5975 2.4387 2.3807 3.0913 0.36322 0.30263 0.68813 0.55025 0.72202 0.55025 0.0339 0 0.06162-1.026 0.06162-2.2801zm3.6057 1.3568c0.666-0.64096 1.6857-2.0782 2.2298-3.1428l0.25248-0.49401h-3.6559v2.2876c0 2.5924-0.05377 2.5305 1.1736 1.3492zm21.453-1.2091c0.46588-1.4116 0.74839-2.04 0.98366-2.188 0.18153-0.1142 1.1338-0.46914 2.1161-0.78876s1.7861-0.61978 1.7861-0.66702c0-0.0472-0.80373-0.34739-1.7861-0.66701-0.98233-0.31963-1.9346-0.67457-2.1161-0.78876-0.23526-0.14799-0.51778-0.7764-0.98366-2.188-0.35948-1.0892-0.69173-1.9804-0.73835-1.9804-0.04659 0-0.37886 0.89117-0.73834 1.9804-0.46588 1.4116-0.74839 2.04-0.98365 2.188-0.18153 0.11419-1.1338 0.46913-2.1161 0.78876-0.98233 0.31962-1.7861 0.61977-1.7861 0.66701 0 0.0472 0.80372 0.3474 1.7861 0.66702s1.9346 0.67456 2.1161 0.78876c0.23526 0.14799 0.51778 0.77639 0.98365 2.188 0.35948 1.0892 0.69173 1.9804 0.73834 1.9804 0.04659 0 0.37887-0.89118 0.73835-1.9804zm-29.959 0.28376c-0.27314-0.45653-0.6973-1.2534-0.94258-1.7708l-0.44596-0.94072h-3.1833l0.28957 0.32065c0.76356 0.84554 4.5383 3.4615 4.7252 3.2746 0.02953-0.0295-0.16981-0.4272-0.44294-0.88374zm14.408-0.66472c0.50636-0.35869 1.2588-0.96324 1.672-1.3434l0.75139-0.69126-3.2122-0.012-0.44596 0.94072c-0.24528 0.5174-0.66827 1.3123-0.93997 1.7665-0.27171 0.45417-0.49402 0.85819-0.49402 0.89784 0 0.12137 1.6938-0.86763 2.6687-1.5582zm-21.543-1.2799c-0.54595-0.62446-0.7481-0.75435-1.1829-0.76002-0.31538-4e-3 -0.46685 0.0475-0.38001 0.12958 0.18358 0.17342 2.0698 1.3836 2.1565 1.3836 0.03568 0-0.23142-0.33893-0.59358-0.75318zm26.848 0.18427c0.73266-0.44254 0.86419-0.64712 0.41603-0.64712-0.15081 0-0.50624 0.2394-0.78984 0.53201-0.62122 0.64094-0.53877 0.66633 0.37381 0.11511zm-29.713-4.1242c-0.67522-1.0974-2.1919-4.3535-2.5754-5.5292l-0.33471-1.026h-4.1068l0.6432 1.178c0.96261 1.763 2.2755 3.6204 3.492 4.9401l1.0858 1.178h2.2519zm7.1935-1.121c-0.28076-1.0241-0.66259-2.6656-0.84851-3.6478l-0.33804-1.7857-3.1541-3e-4c-2.1142-1.5e-4 -3.1541 0.0526-3.1541 0.1603 0 0.62404 1.9674 4.6414 3.0665 6.2616l0.59291 0.87403h4.3458zm7.7057-1.786v-3.6481h-3.1921c-2.6237 0-3.1921 0.0376-3.1921 0.21127 0 0.48069 0.64996 3.3387 1.1705 5.1469l0.55791 1.938h4.6558zm7.6319 1.71c0.54154-1.866 1.1844-4.649 1.1844-5.1275 0-0.19889-0.4397-0.23066-3.1921-0.23066h-3.1921v7.2962h4.6374zm6.9341 1.064c1.0991-1.6202 3.0665-5.6375 3.0665-6.2616 0-0.10766-1.0399-0.16051-3.1541-0.1603l-3.1541 3.1e-4 -0.33804 1.7857c-0.18592 0.98216-0.56775 2.6237-0.84851 3.6478l-0.51048 1.862h4.3458zm7.2065-3.863 0.84985-2.5592h-2.3641l-0.49341 1.3794c-0.27138 0.75865-0.86215 2.1307-1.3128 3.049-0.45068 0.9183-0.81942 1.6938-0.81942 1.7233 0 0.0295 0.74027-0.19088 1.6451-0.48979l1.6451-0.54348zm-40.317-5.0744c0-0.0457-0.13548-0.84944-0.30106-1.786-0.24956-1.4116-0.61035-4.5048-0.61084-5.237-9.8e-5 -0.14412-0.59037-0.19-2.4443-0.19h-2.4442l0.10328 1.026c0.14356 1.4262 0.6165 3.8556 1.0061 5.1682l0.32712 1.102h2.1819c1.2001 0 2.1819-0.0374 2.1819-0.0831zm9.2116-0.94288c-0.15622-1.6044-0.38606-4.9107-0.39095-5.6242l-0.0046-0.64601h-7.3278l0.1025 1.254c0.15041 1.8403 0.64088 4.9459 0.92422 5.8522 0.04516 0.1445 0.86613 0.19 3.4279 0.19h3.3685zm9.3329-2.6221v-3.6481h-7.2962l0.0034 0.79802c0.0034 0.82839 0.21906 3.895 0.38984 5.5482l0.09815 0.95002h6.8048zm9.335 2.6981c0.17078-1.6531 0.38626-4.7198 0.38984-5.5482l0.0034-0.79802h-7.2962v7.2962h6.8048zm9.2391 0.34201c0.25066-1.1315 0.715-4.2383 0.81219-5.4342l0.1019-1.254h-7.3278l-0.0046 0.64601c-0.0052 0.71409-0.23477 4.0203-0.39124 5.6271l-0.1002 1.029 6.7918-0.082 0.11785-0.53201zm7.1629-0.79802c0.42377-1.5132 0.78451-3.4166 0.93625-4.9401l0.09462-0.95002h-2.4396c-1.8503 0-2.4396 0.0459-2.4397 0.19-4.54e-4 0.73223-0.36127 3.8254-0.61084 5.237-0.16558 0.9366-0.30106 1.7403-0.30106 1.786 0 0.0457 0.98249 0.0831 2.1833 0.0831h2.1833zm-45.192-8.4362c0.0092-0.66756 0.35815-3.9152 0.52071-4.846 0.1149-0.65789 0.1882-1.2176 0.1629-1.2439-0.02528-0.0262-0.53187 0.19692-1.1257 0.49597l-1.0797 0.54372-1.2119 2.4203c-0.66657 1.3312-1.3335 2.491-1.482 2.5775-0.19492 0.11347 0.3535 0.15847 1.972 0.16181 1.2331 2e-3 2.2428-0.0467 2.2436-0.10939zm9.728-0.45601c0.0017-0.6796 0.25749-4.4322 0.39408-5.7791l0.09665-0.95299-6.7774 0.082-0.19314 0.83602c-0.24391 1.0557-0.62184 3.669-0.75294 5.2062l-0.10046 1.178h7.3319l0.0011-0.57002zm9.7269-3.0781v-3.6481h-6.8048l-0.09814 0.95002c-0.17078 1.6531-0.38626 4.7198-0.38984 5.5482l-0.0034 0.79802h7.2962zm9.7248 2.8501c-0.0034-0.82839-0.21905-3.895-0.38984-5.5482l-0.09814-0.95002h-6.8048v7.2962h7.2962l-0.0034-0.79802zm9.6614-0.45602c-0.09718-1.1958-0.56153-4.3026-0.81219-5.4342l-0.11786-0.53201-6.7918-0.082 0.1002 1.029c0.15647 1.6068 0.38634 4.913 0.39124 5.6271l0.0046 0.64602h7.3278zm7.291 0.38001c-0.19362-1.7377-0.54874-3.6379-0.93747-5.0161l-0.39655-1.406h-2.1833c-1.2008 0-2.1833 0.0374-2.1833 0.0831s0.13548 0.84945 0.30106 1.786c0.24956 1.4116 0.61035 4.5048 0.61084 5.237 9.7e-5 0.14412 0.59013 0.19001 2.4431 0.19001h2.443zm-50.197-4.6748 0.71765-1.4447 1.4447-0.71766c0.79459-0.39471 1.4447-0.75518 1.4447-0.80105 0-0.0458-0.65012-0.40633-1.4447-0.80105l-1.4447-0.71766-0.71765-1.4447c-0.39471-0.79459-0.75518-1.4447-0.80105-1.4447-0.04587 0-0.40634 0.65012-0.80105 1.4447l-0.71766 1.4447-1.4447 0.71766c-0.79459 0.39472-1.4447 0.75518-1.4447 0.80105 0 0.0459 0.65012 0.40634 1.4447 0.80105l1.4447 0.71766 0.71766 1.4447c0.39471 0.79458 0.75518 1.4447 0.80105 1.4447 0.04585 0 0.40634-0.65012 0.80105-1.4447zm14.965-5.9658c0.18592-0.98216 0.56775-2.6237 0.84851-3.6478l0.51048-1.862h-4.3458l-0.59291 0.87402c-1.0991 1.6202-3.0665 5.6375-3.0665 6.2616 0 0.10766 1.0399 0.16051 3.1541 0.1603l3.1541-3.1e-4zm8.5542-1.8617v-3.6481h-4.6374l-0.56244 1.938c-0.54154 1.866-1.1844 4.649-1.1844 5.1275 0 0.19889 0.4397 0.23066 3.1921 0.23066h3.1921zm8.8162 3.4174c0-0.45687-0.63605-3.2286-1.1767-5.1275l-0.55175-1.938h-4.6558v7.2962h3.1921c2.7524 0 3.1921-0.0318 3.1921-0.23066zm8.8162 0.07c0-0.62405-1.9674-4.6414-3.0665-6.2616l-0.59291-0.87402h-4.3458l0.51048 1.862c0.28076 1.0241 0.66259 2.6656 0.84851 3.6478l0.33804 1.7857 3.1541 3e-4c2.1142 1.5e-4 3.1541-0.0526 3.1541-0.1603zm6.5362 0.0803c0-0.0442-0.2-0.47653-0.44444-0.96076-0.67581-1.3388-2.142-3.4443-3.4297-4.9251l-1.1566-1.33h-2.2693l0.39491 0.62557c0.66576 1.0546 1.981 3.837 2.5012 5.2913l0.49341 1.3794h1.9553c1.0754 0 1.9552-0.0361 1.9552-0.0803zm-41.291-1.8556c0.58074-1.508 1.92-4.2596 2.4056-4.9423l0.29729-0.41801h-2.2567l-0.74731 0.79802c-1.0465 1.1175-1.7484 2.0029-2.6276 3.3146l-0.75847 1.1315 1.5506 0.78236c0.85285 0.43029 1.5608 0.7723 1.5733 0.76002 0.01247-0.0123 0.26594-0.65408 0.56329-1.4262zm5.0257-8.4984 0.59546-0.6961-0.50489 0.26109c-0.27769 0.1436-0.77822 0.45909-1.1123 0.70108l-0.60739 0.43999 0.51682-0.0052c0.42292-4e-3 0.62502-0.13147 1.1123-0.70108zm6.2548-0.23465c0.24528-0.5174 0.66944-1.3142 0.94258-1.7708 0.27314-0.45654 0.47246-0.85422 0.44294-0.88374-0.18688-0.18688-3.9617 2.429-4.7252 3.2746l-0.28957 0.32065h3.1833zm5.8421-1.3447c0-2.1307-0.01804-2.2756-0.26601-2.1399-0.81675 0.44683-2.318 2.328-3.1374 3.9313l-0.25248 0.49401h3.6559zm5.8355 1.7914c-0.8194-1.6033-2.3207-3.4844-3.1374-3.9313-0.248-0.13568-0.26601 0.0092-0.26601 2.1399v2.2854h3.6559zm5.7784 0.17336c-0.76356-0.84554-4.5383-3.4615-4.7252-3.2746-0.02953 0.02953 0.16981 0.4272 0.44294 0.88374 0.27314 0.45654 0.6973 1.2534 0.94258 1.7708l0.44596 0.94072h3.1833zm3.8905-0.14364c-0.37621-0.25464-0.88358-0.56984-1.1275-0.70043-0.42726-0.22877-0.4217-0.212 0.152 0.45866 0.49402 0.57751 0.6861 0.69683 1.1275 0.70043l0.53201 0.0046-0.68402-0.46299zm1.1132-6.5947c0.6002-0.92256 0.93753-1.2599 1.8601-1.8601 0.61982-0.40324 1.1269-0.76736 1.1269-0.80916 0-0.04182-0.50712-0.40592-1.1269-0.80916-0.92256-0.60019-1.2599-0.93753-1.8601-1.8601-0.40323-0.61982-0.76735-1.1269-0.80916-1.1269-0.04182 0-0.40592 0.50712-0.80916 1.1269-0.60019 0.92256-0.93753 1.2599-1.8601 1.8601-0.61981 0.40324-1.1269 0.76736-1.1269 0.80916 0 0.04182 0.50712 0.40592 1.1269 0.80916 0.92256 0.60019 1.2599 0.93753 1.8601 1.8601 0.40324 0.61981 0.76736 1.1269 0.80916 1.1269 0.04182 0 0.40592-0.50712 0.80916-1.1269zm-14.559-5.4744c0.75397-0.75397 0.21971-2.059-0.84293-2.059-0.29616 0-0.60774 0.13792-0.84293 0.3731-0.23519 0.23518-0.37311 0.54677-0.37311 0.84293 0 0.29616 0.13792 0.60774 0.37311 0.84294 0.23518 0.23518 0.54677 0.3731 0.84293 0.3731 0.29616 0 0.60774-0.13792 0.84293-0.3731zm25.991 14.775c-0.80449-0.2124-2.0789-1.4905-2.3285-2.3351-0.42081-1.4242-0.12428-2.56 0.95002-3.6389 0.90542-0.90927 1.7865-1.2268 2.9688-1.07l0.76044 0.10088v-2.6753c0-1.5638 0.06577-2.7982 0.1583-2.9711 0.19734-0.36872 3.0409-1.8123 3.57-1.8123 0.50464 0 1.1359 0.63526 1.1359 1.1431 0 0.66498-0.27054 0.96427-1.374 1.5199l-1.0581 0.53285-0.0017 4.2162c-0.0017 4.1152-0.01011 4.2344-0.36078 4.9762-0.82677 1.7488-2.5133 2.517-4.4206 2.0135zm1.9777-2.6146c0.75397-0.75397 0.21971-2.059-0.84293-2.059-0.6249 0-1.216 0.59113-1.216 1.216 0 0.6249 0.59113 1.216 1.216 1.216 0.29616 0 0.60774-0.13792 0.84293-0.3731z" fill="#fff" stroke-width=".152"/>
</g>
</svg>
