<?xml version="1.0" encoding="UTF-8" standalone="no"?>
<!-- Created with Inkscape (http://www.inkscape.org/) -->

<svg
   width="68.116631mm"
   height="72.959099mm"
   viewBox="0 0 68.116631 72.959099"
   version="1.1"
   id="svg5"
   inkscape:version="1.1 (c68e22c387, 2021-05-23)"
   sodipodi:docname="disco.svg"
   xmlns:inkscape="http://www.inkscape.org/namespaces/inkscape"
   xmlns:sodipodi="http://sodipodi.sourceforge.net/DTD/sodipodi-0.dtd"
   xmlns="http://www.w3.org/2000/svg"
   xmlns:svg="http://www.w3.org/2000/svg">
  <sodipodi:namedview
     id="namedview7"
     pagecolor="#505050"
     bordercolor="#eeeeee"
     borderopacity="1"
     inkscape:pageshadow="0"
     inkscape:pageopacity="0"
     inkscape:pagecheckerboard="0"
     inkscape:document-units="mm"
     showgrid="false"
     fit-margin-top="0"
     fit-margin-left="0"
     fit-margin-right="0"
     fit-margin-bottom="0"
     inkscape:zoom="0.94867184"
     inkscape:cx="311.48811"
     inkscape:cy="166.02158"
     inkscape:window-width="1920"
     inkscape:window-height="1027"
     inkscape:window-x="1072"
     inkscape:window-y="424"
     inkscape:window-maximized="1"
     inkscape:current-layer="layer1" />
  <defs
     id="defs2" />
  <g
     inkscape:label="Layer 1"
     inkscape:groupmode="layer"
     id="layer1"
     transform="translate(-33.164577,-74.261748)">
    <path
       style="fill:#ffffff;stroke-width:0.152004"
       d="m 38.350511,147.07883 c -1.613684,-0.49087 -2.735091,-1.96433 -2.735091,-3.59375 0,-1.44299 1.292706,-3.06216 2.717678,-3.40401 0.444179,-0.10656 1.108841,-0.15245 1.477027,-0.10199 l 0.669429,0.0918 v -2.13206 c 0,-2.06099 0.01243,-2.14449 0.3731,-2.50516 0.235187,-0.23518 0.546772,-0.3731 0.842931,-0.3731 0.296163,0 0.607745,0.13792 0.842935,0.3731 l 0.373101,0.3731 -0.0017,4.22503 c -0.0011,4.11637 -0.01069,4.24478 -0.359329,4.9935 -0.766216,1.64546 -2.597907,2.541 -4.200295,2.05358 z m 1.755941,-2.66314 c 0.75397,-0.75398 0.21971,-2.05897 -0.842932,-2.05897 -0.624904,0 -1.216033,0.59112 -1.216033,1.21603 0,0.62491 0.591129,1.21604 1.216033,1.21604 0.296161,0 0.607746,-0.13792 0.842932,-0.3731 z m 49.515477,2.57639 c -0.238844,-0.16729 -0.643496,-1.18232 -1.505757,-3.77699 l -1.179147,-3.54822 -1.209049,-0.39637 -1.209055,-0.39636 -1.689128,1.1244 c -5.477895,3.64645 -12.134743,5.31659 -18.453574,4.62982 -8.367753,-0.90947 -15.883379,-5.46077 -20.443125,-12.37992 -3.518061,-5.33845 -5.212014,-12.13447 -4.521528,-18.14003 l 0.145739,-1.26758 -0.602704,-1.19872 -0.602704,-1.19872 -2.470268,-1.25781 c -2.033848,-1.03559 -2.495594,-1.33166 -2.613615,-1.67581 -0.310313,-0.90491 -0.05527,-1.15114 2.637179,-2.54607 l 2.493833,-1.29204 1.230269,-2.43207 c 1.013696,-2.003927 1.303855,-2.457297 1.64828,-2.575409 0.773887,-0.265387 1.194234,0.03022 1.862072,1.309432 0.334419,0.640577 0.647994,1.204637 0.696827,1.253477 0.04883,0.0488 0.545808,-0.5232 1.104375,-1.271189 3.710491,-4.96881 9.531255,-8.791088 15.640185,-10.270315 1.375673,-0.333103 2.228001,-0.471219 4.789197,-0.776068 l 0.646018,-0.07689 V 87.492343 86.15206 L 65.55502,85.961014 c -0.253672,-0.105077 -0.728798,-0.495027 -1.055829,-0.866553 -1.182455,-1.343339 -1.182455,-3.303409 0,-4.646749 0.327031,-0.371525 0.802157,-0.761476 1.055829,-0.866553 l 0.461229,-0.191045 v -2.192529 c 0,-2.125197 0.01143,-2.203986 0.373106,-2.565629 0.493608,-0.493611 1.192251,-0.493611 1.685859,0 0.361645,0.361643 0.373106,0.440432 0.373106,2.565629 v 2.192529 l 0.461229,0.191045 c 1.188459,0.492276 2.127853,2.298964 1.908525,3.670558 -0.188093,1.176302 -1.167093,2.50224 -2.055759,2.784287 -0.286241,0.09085 -0.313995,0.218863 -0.313995,1.448141 v 1.348481 l 0.646018,0.07991 c 0.355308,0.04395 1.056427,0.121461 1.558037,0.172253 2.43667,0.246721 6.28075,1.339186 8.301418,2.359212 0.492161,0.248444 0.894836,0.414378 0.894836,0.368751 0,-0.04561 -0.30143,-0.532283 -0.669837,-1.081452 -0.571068,-0.851259 -0.924084,-1.167041 -2.394067,-2.141538 -1.847082,-1.224486 -2.247545,-1.601361 -2.252865,-2.120138 -0.0065,-0.63223 0.203006,-0.843268 2.084495,-2.09988 l 1.893944,-1.264937 1.264937,-1.893945 c 1.256613,-1.881488 1.467651,-2.090975 2.099875,-2.084495 0.518812,0.0052 0.895664,0.405795 2.120563,2.253497 1.126017,1.698533 1.1698,1.742316 2.868332,2.868332 1.829961,1.213145 2.251337,1.605819 2.248108,2.094992 -0.004,0.603407 -0.418733,1.020824 -2.179564,2.193582 l -1.790729,1.19267 -1.256101,1.880719 -1.256107,1.880719 0.927571,0.636861 c 3.454504,2.371822 6.863857,6.446901 8.811391,10.531951 2.813127,5.90067 3.519354,11.94871 2.127865,18.22274 -0.403635,1.81992 -1.236718,4.37597 -1.761527,5.40468 l -0.310979,0.60956 0.65104,1.9898 0.651033,1.98979 3.548831,1.17934 c 3.712182,1.23364 4.006372,1.39672 4.006372,2.22095 0,0.82411 -0.29439,0.98739 -4.002166,2.21955 l -3.544632,1.17795 -1.177951,3.54463 c -1.232162,3.70778 -1.39543,4.00217 -2.21955,4.00217 -0.213601,0 -0.53534,-0.10295 -0.714982,-0.22877 z m -23.60568,-7.21943 v -2.28006 H 64.18191 62.347571 l 0.504305,0.91856 c 0.69677,1.26913 1.5975,2.4387 2.380733,3.09131 0.363224,0.30263 0.688129,0.55025 0.722019,0.55025 0.0339,0 0.06162,-1.02603 0.06162,-2.28006 z m 3.605696,1.3568 c 0.666,-0.64096 1.685692,-2.0782 2.229802,-3.14285 l 0.252477,-0.49401 H 70.276271 68.44832 v 2.28761 c 0,2.59238 -0.05377,2.53053 1.173625,1.34925 z m 21.453312,-1.20913 c 0.465877,-1.4116 0.74839,-2.04 0.983655,-2.18799 0.181531,-0.1142 1.133777,-0.46914 2.116104,-0.78876 0.982327,-0.31962 1.786053,-0.61978 1.786053,-0.66702 0,-0.0472 -0.803726,-0.34739 -1.786053,-0.66701 -0.982327,-0.31963 -1.934573,-0.67457 -2.116104,-0.78876 -0.235265,-0.14799 -0.517778,-0.7764 -0.983655,-2.188 -0.359478,-1.08921 -0.691731,-1.98038 -0.738346,-1.98038 -0.04659,0 -0.378863,0.89117 -0.738341,1.98038 -0.465877,1.4116 -0.748389,2.04001 -0.983654,2.188 -0.181532,0.11419 -1.133778,0.46913 -2.116105,0.78876 -0.982327,0.31962 -1.786052,0.61977 -1.786052,0.66701 0,0.0472 0.803725,0.3474 1.786052,0.66702 0.982327,0.31962 1.934573,0.67456 2.116105,0.78876 0.235265,0.14799 0.517777,0.77639 0.983654,2.18799 0.359478,1.08921 0.691731,1.98039 0.738341,1.98039 0.04659,0 0.378868,-0.89118 0.738346,-1.98039 z m -29.958538,0.28376 c -0.273136,-0.45653 -0.697298,-1.25338 -0.942577,-1.77077 l -0.445959,-0.94072 h -1.591651 -1.591658 l 0.289568,0.32065 c 0.763561,0.84554 4.538339,3.46146 4.72522,3.27458 0.02953,-0.0295 -0.169806,-0.4272 -0.442943,-0.88374 z m 14.408412,-0.66472 c 0.506356,-0.35869 1.258778,-0.96324 1.672048,-1.34344 l 0.751393,-0.69126 -1.606094,-0.006 -1.606095,-0.006 -0.445959,0.94072 c -0.245278,0.5174 -0.668268,1.3123 -0.939974,1.76646 -0.271706,0.45417 -0.494016,0.85819 -0.494016,0.89784 0,0.12137 1.693787,-0.86763 2.668697,-1.55824 z m -21.542745,-1.27991 c -0.545946,-0.62446 -0.748102,-0.75435 -1.182898,-0.76002 -0.31538,-0.004 -0.466853,0.0475 -0.380011,0.12958 0.183577,0.17342 2.069771,1.38362 2.156492,1.38362 0.03568,0 -0.231416,-0.33893 -0.593583,-0.75318 z m 26.84807,0.18427 c 0.73266,-0.44254 0.864187,-0.64712 0.416027,-0.64712 -0.150807,0 -0.506235,0.2394 -0.789839,0.53201 -0.621223,0.64094 -0.53877,0.66633 0.373812,0.11511 z m -29.713357,-4.12421 c -0.67522,-1.09737 -2.191876,-4.35349 -2.575409,-5.52916 l -0.334712,-1.02603 h -2.053403 -2.053398 l 0.643203,1.17803 c 0.96261,1.76304 2.275518,3.62043 3.49195,4.94014 l 1.085847,1.17803 h 1.125936 1.125935 z m 7.193461,-1.12104 c -0.28076,-1.02413 -0.662592,-2.66563 -0.848513,-3.64779 l -0.338038,-1.78574 -3.15409,-3e-4 c -2.114232,-1.5e-4 -3.154084,0.0526 -3.154084,0.1603 0,0.62404 1.967423,4.64136 3.066518,6.26156 l 0.592911,0.87403 h 2.172883 2.172889 z m 7.705689,-1.78605 v -3.6481 h -3.192087 c -2.623713,0 -3.192087,0.0376 -3.192087,0.21127 0,0.48069 0.649959,3.33871 1.170488,5.14688 l 0.557912,1.93805 h 2.32789 2.327884 z m 7.631892,1.71005 c 0.541538,-1.86604 1.184351,-4.64901 1.184351,-5.12749 0,-0.19889 -0.439702,-0.23066 -3.192088,-0.23066 H 68.44832 v 3.6481 3.6481 h 2.318692 2.318689 z m 6.934072,1.06402 c 1.099095,-1.6202 3.066518,-5.63751 3.066518,-6.26156 0,-0.10766 -1.039852,-0.16051 -3.154089,-0.1603 l -3.154084,3.1e-4 -0.338038,1.78573 c -0.185921,0.98216 -0.567754,2.62366 -0.848514,3.64779 l -0.510475,1.86205 h 2.172883 2.172888 z m 7.206468,-3.86297 0.849847,-2.5592 h -1.182065 -1.182059 l -0.493413,1.37937 c -0.271378,0.75865 -0.862152,2.13069 -1.312839,3.04899 -0.450681,0.9183 -0.819421,1.69379 -0.819421,1.72332 0,0.0295 0.740272,-0.19088 1.645052,-0.48979 l 1.645058,-0.54348 z m -40.316936,-5.07441 c 0,-0.0457 -0.135479,-0.84944 -0.301063,-1.78604 -0.249564,-1.41162 -0.610347,-4.50478 -0.610835,-5.23701 -9.8e-5,-0.14412 -0.590366,-0.19 -2.44429,-0.19 h -2.44417 l 0.103285,1.02602 c 0.143562,1.42623 0.6165,3.85558 1.006117,5.16815 l 0.327122,1.10202 h 2.181914 c 1.200059,0 2.18192,-0.0374 2.18192,-0.0831 z m 9.211625,-0.94288 c -0.156225,-1.60441 -0.386055,-4.91068 -0.39095,-5.62416 l -0.0046,-0.64601 h -3.663922 -3.663921 l 0.102503,1.25403 c 0.15041,1.84026 0.640882,4.9459 0.924221,5.85216 0.04516,0.1445 0.866128,0.19 3.42791,0.19 h 3.3685 z m 9.332879,-2.62207 v -3.6481 h -3.648099 -3.6481 l 0.0034,0.79802 c 0.0034,0.82839 0.219058,3.89502 0.389835,5.54815 l 0.09815,0.95002 h 3.402385 3.402384 z m 9.33498,2.69807 c 0.170783,-1.65313 0.386256,-4.71976 0.389835,-5.54815 l 0.0034,-0.79802 h -3.6481 -3.648097 v 3.6481 3.64809 h 3.402382 3.402384 z m 9.239097,0.34201 c 0.250662,-1.13152 0.715005,-4.23831 0.812188,-5.43415 l 0.101905,-1.25403 h -3.663916 -3.663921 l -0.0046,0.64601 c -0.0052,0.71409 -0.234771,4.02026 -0.391243,5.62712 l -0.1002,1.02898 3.395882,-0.041 3.395887,-0.041 0.117853,-0.53201 z m 7.162886,-0.79802 c 0.423772,-1.51319 0.784508,-3.41663 0.936246,-4.94014 l 0.09462,-0.95002 H 90.34446 c -1.850288,0 -2.439643,0.0459 -2.43974,0.19 -4.54e-4,0.73223 -0.361271,3.82539 -0.610836,5.23701 -0.165583,0.9366 -0.301063,1.74032 -0.301063,1.78604 0,0.0457 0.982494,0.0831 2.18331,0.0831 h 2.183316 z m -45.191923,-8.43624 c 0.0092,-0.66756 0.358146,-3.91517 0.520713,-4.84601 0.114901,-0.65789 0.188202,-1.21764 0.162901,-1.24391 -0.02528,-0.0262 -0.53187,0.19692 -1.125701,0.49597 l -1.079688,0.54372 -1.211939,2.42032 c -0.666568,1.33117 -1.333452,2.49104 -1.481961,2.57749 -0.194924,0.11347 0.353498,0.15847 1.972042,0.16181 1.233138,0.002 2.242771,-0.0467 2.243633,-0.10939 z m 9.728029,-0.45601 c 0.0017,-0.6796 0.257487,-4.43223 0.394081,-5.77911 l 0.09665,-0.95299 -3.388718,0.041 -3.388717,0.041 -0.193142,0.83602 c -0.243906,1.05573 -0.621843,3.66897 -0.752939,5.20615 l -0.100464,1.17803 h 3.665956 3.665961 l 0.0011,-0.57002 z m 9.726931,-3.07808 v -3.6481 H 62.613865 59.21148 l -0.09814,0.95002 c -0.170783,1.65313 -0.386256,4.71977 -0.389836,5.54816 l -0.0034,0.79802 h 3.6481 3.6481 z m 9.724815,2.85008 c -0.0034,-0.82839 -0.219052,-3.89503 -0.389835,-5.54816 l -0.09814,-0.95002 H 71.850702 68.44832 v 3.6481 3.6481 h 3.648097 3.6481 l -0.0034,-0.79802 z m 9.66145,-0.45602 c -0.09718,-1.19583 -0.561526,-4.30263 -0.812188,-5.43415 l -0.117859,-0.53201 -3.395882,-0.041 -3.395881,-0.041 0.100199,1.02899 c 0.156472,1.60685 0.386343,4.91303 0.391243,5.62712 l 0.0046,0.64602 h 3.663922 3.663916 z m 7.290954,0.38001 c -0.193625,-1.7377 -0.548743,-3.63788 -0.937469,-5.01614 l -0.396552,-1.40603 h -2.183316 c -1.200816,0 -2.18331,0.0374 -2.18331,0.0831 0,0.0457 0.13548,0.84945 0.301063,1.78605 0.249565,1.41162 0.610347,4.50478 0.610836,5.23701 9.7e-5,0.14412 0.59013,0.19001 2.443129,0.19001 h 2.443004 z m -50.196829,-4.67479 0.717653,-1.44471 1.444705,-0.71766 c 0.794591,-0.39471 1.444711,-0.75518 1.444711,-0.80105 0,-0.0458 -0.65012,-0.40633 -1.444711,-0.80105 l -1.444705,-0.71766 -0.717653,-1.4447 c -0.394713,-0.79459 -0.755185,-1.44471 -0.801054,-1.44471 -0.04587,0 -0.406338,0.65012 -0.801049,1.44471 l -0.717657,1.4447 -1.444706,0.71766 c -0.794589,0.39472 -1.444707,0.75518 -1.444707,0.80105 0,0.0459 0.650118,0.40634 1.444707,0.80105 l 1.444706,0.71766 0.717657,1.44471 c 0.394711,0.79458 0.755184,1.4447 0.801049,1.4447 0.04585,0 0.406341,-0.65012 0.801054,-1.4447 z m 14.965408,-5.96581 c 0.185921,-0.98216 0.567753,-2.62366 0.848513,-3.64779 l 0.510476,-1.862048 h -2.172889 -2.172883 l -0.592911,0.874021 c -1.099095,1.620207 -3.066518,5.637517 -3.066518,6.261567 0,0.10766 1.039852,0.16051 3.154084,0.1603 l 3.15409,-3.1e-4 z m 8.554202,-1.86174 v -3.648098 h -2.318692 -2.318692 l -0.562439,1.938048 c -0.541539,1.86604 -1.184351,4.64901 -1.184351,5.12749 0,0.19889 0.439702,0.23066 3.192087,0.23066 h 3.192087 z m 8.816243,3.41744 c 0,-0.45687 -0.636051,-3.22858 -1.176653,-5.12749 L 73.104091,98.579522 H 70.776204 68.44832 v 3.648098 3.6481 h 3.192084 c 2.752386,0 3.192088,-0.0318 3.192088,-0.23066 z m 8.816239,0.07 c 0,-0.62405 -1.967423,-4.64136 -3.066518,-6.261567 l -0.592911,-0.874021 h -2.172888 -2.172883 l 0.510475,1.862048 c 0.28076,1.02413 0.662593,2.66563 0.848514,3.64779 l 0.338038,1.78574 3.154084,3e-4 c 2.114237,1.5e-4 3.154089,-0.0526 3.154089,-0.1603 z m 6.536178,0.0803 c 0,-0.0442 -0.199997,-0.47653 -0.444437,-0.96076 -0.675806,-1.33876 -2.142049,-3.4443 -3.42969,-4.925064 l -1.156575,-1.330034 h -1.134651 -1.134662 l 0.394908,0.625571 c 0.665764,1.054637 1.98097,3.836957 2.501189,5.291257 l 0.493413,1.37937 h 1.955255 c 1.075385,0 1.95525,-0.0361 1.95525,-0.0803 z m -41.291197,-1.85555 c 0.580737,-1.50801 1.919997,-4.259565 2.405557,-4.942299 l 0.297288,-0.418009 h -1.128331 -1.128332 l -0.747309,0.79802 c -1.046505,1.117518 -1.748364,2.002878 -2.627637,3.314608 l -0.758466,1.13151 1.550644,0.78236 c 0.852851,0.43029 1.560835,0.7723 1.573296,0.76002 0.01247,-0.0123 0.265938,-0.65408 0.56329,-1.42621 z m 5.025656,-8.498444 0.595462,-0.696098 -0.504891,0.261089 c -0.277692,0.143603 -0.778217,0.459086 -1.112286,0.701085 l -0.607388,0.439989 0.516818,-0.0052 c 0.422915,-0.004 0.62502,-0.13147 1.112285,-0.701079 z m 6.254774,-0.234651 c 0.245279,-0.517398 0.669441,-1.314246 0.942577,-1.770781 0.273137,-0.456536 0.472461,-0.854219 0.442943,-0.883737 -0.186881,-0.18688 -3.961659,2.429043 -4.72522,3.274581 l -0.289568,0.320653 h 1.591658 1.591651 z m 5.842107,-1.344695 c 0,-2.13068 -0.01804,-2.275558 -0.266006,-2.139878 -0.81675,0.446832 -2.31802,2.327959 -3.137424,3.931279 l -0.252477,0.49401 h 1.827957 1.82795 z m 5.835498,1.791401 c -0.8194,-1.60332 -2.320671,-3.484447 -3.13742,-3.931279 -0.248002,-0.13568 -0.266007,0.0092 -0.266007,2.139878 v 2.285411 h 1.827951 1.827953 z m 5.778378,0.173357 c -0.763562,-0.845538 -4.53834,-3.461461 -4.72522,-3.274581 -0.02953,0.02953 0.169806,0.427201 0.442942,0.883737 0.273137,0.456535 0.697299,1.253383 0.942577,1.770781 l 0.445959,0.940716 h 1.591652 1.591657 z m 3.890546,-0.143638 c -0.376208,-0.254643 -0.883575,-0.569839 -1.127475,-0.700429 -0.427259,-0.228768 -0.421703,-0.212004 0.152002,0.458655 0.494022,0.577514 0.686096,0.696833 1.127481,0.700429 l 0.532014,0.0046 -0.684022,-0.462987 z m 1.113165,-6.594725 c 0.600196,-0.922561 0.937533,-1.259898 1.860088,-1.860088 0.619815,-0.403239 1.126936,-0.767359 1.126936,-0.80916 0,-0.04182 -0.507121,-0.405922 -1.126936,-0.80916 -0.922555,-0.60019 -1.259892,-0.937528 -1.860088,-1.860083 -0.403233,-0.619815 -0.767354,-1.126936 -0.809155,-1.126936 -0.04182,0 -0.405921,0.507121 -0.80916,1.126936 -0.60019,0.922555 -0.937527,1.259893 -1.860088,1.860083 -0.619809,0.403238 -1.12693,0.767359 -1.12693,0.80916 0,0.04182 0.507121,0.405921 1.12693,0.80916 0.922561,0.60019 1.259898,0.937527 1.860088,1.860088 0.403239,0.61981 0.76736,1.12693 0.80916,1.12693 0.04182,0 0.405922,-0.50712 0.809155,-1.12693 z M 68.075214,83.614022 c 0.753973,-0.753973 0.219713,-2.05897 -0.842929,-2.05897 -0.296163,0 -0.607745,0.137915 -0.84293,0.373105 -0.23519,0.235185 -0.373106,0.546767 -0.373106,0.84293 0,0.296162 0.137916,0.607744 0.373106,0.842935 0.235185,0.235185 0.546767,0.3731 0.84293,0.3731 0.296162,0 0.607744,-0.137915 0.842929,-0.3731 z m 25.991043,14.774937 c -0.804489,-0.2124 -2.078883,-1.490453 -2.328453,-2.335146 -0.420807,-1.42423 -0.124282,-2.559984 0.950023,-3.638879 0.905418,-0.909273 1.78654,-1.226848 2.968818,-1.070014 l 0.760436,0.100877 v -2.675304 c 0,-1.563805 0.06577,-2.79819 0.158299,-2.971093 0.197336,-0.368722 3.040947,-1.812278 3.56995,-1.812278 0.50464,0 1.13588,0.635258 1.13588,1.143113 0,0.664977 -0.27054,0.964271 -1.373954,1.519942 l -1.05811,0.532853 -0.0017,4.216204 c -0.0017,4.115246 -0.01011,4.234404 -0.360782,4.976226 -0.826769,1.748842 -2.513346,2.517046 -4.420619,2.013499 z m 1.977718,-2.614608 c 0.753974,-0.753967 0.219714,-2.058964 -0.842929,-2.058964 -0.624905,0 -1.216035,0.59113 -1.216035,1.216035 0,0.624899 0.59113,1.216029 1.216035,1.216029 0.296162,0 0.607745,-0.137915 0.842929,-0.3731 z"
       id="path890" />
  </g>
</svg>
