<svg width="31.99mm" height="36.9mm" viewBox="0 0 31.99 36.9" xmlns="http://www.w3.org/2000/svg"><path d="M13.839 36.865c-4.869-.181-8.838-.994-11.598-2.374-.879-.44-1.974-1.2-2.207-1.533-.058-.083-.053-.1.108-.376.092-.16 2.72-4.643 5.84-9.963l5.673-9.674v-1.291L9.81 4.748V0h1.845v3.22l.63.3c1.404.672 2.972 1.639 3.556 2.194l.137.13.296-.25c.358-.305 1.292-.933 1.934-1.302.259-.149.839-.45 1.289-.671l.818-.401.001-1.61V0h1.846v4.803l-1.845 6.852v1.291l5.837 9.954c3.21 5.475 5.837 9.969 5.837 9.987 0 .057-.425.444-.772.703-2.051 1.532-5.598 2.617-10.036 3.069-2.097.214-4.97.294-7.344.206z" fill="#fff"/></svg>