<?xml version="1.0" encoding="UTF-8"?>
<svg width="31.99mm" height="36.9mm" version="1.1" viewBox="0 0 31.99 36.9" xmlns="http://www.w3.org/2000/svg" xmlns:cc="http://creativecommons.org/ns#" xmlns:dc="http://purl.org/dc/elements/1.1/" xmlns:rdf="http://www.w3.org/1999/02/22-rdf-syntax-ns#">
<metadata>
<rdf:RDF>
<cc:Work rdf:about="">
<dc:format>image/svg+xml</dc:format>
<dc:type rdf:resource="http://purl.org/dc/dcmitype/StillImage"/>
<dc:title/>
</cc:Work>
</rdf:RDF>
</metadata>
<g transform="translate(-17.145 -22.4)">
<path d="m30.984 59.265c-4.8688-0.18116-8.8384-0.9937-11.598-2.374-0.87889-0.43957-1.9738-1.2002-2.207-1.5332-0.05782-0.08254-0.05294-0.09954 0.10786-0.376 0.09262-0.15926 2.721-4.6426 5.8409-9.963l5.6725-9.6735v-1.2917l-1.8453-6.9054v-4.7484h1.8453l1e-6 1.6099 2e-6 1.6099 0.6303 0.30127c1.4031 0.67064 2.9715 1.6381 3.5551 2.1929l0.13708 0.13032 0.29599-0.25094c0.35872-0.30412 1.2925-0.93227 1.9341-1.301 0.2589-0.14881 0.83904-0.451 1.2892-0.67154l0.81845-0.40097 5.69e-4 -1.6099 5.7e-4 -1.6099h1.8453v4.8035l-1.8448 6.8519-2.85e-4 0.64514-2.84e-4 0.64514 5.8371 9.9545c3.2104 5.475 5.8371 9.9689 5.8371 9.9865 0 0.05722-0.42491 0.44459-0.77201 0.7038-2.0512 1.5318-5.5982 2.6164-10.036 3.0687-2.0968 0.21373-4.9691 0.29427-7.3435 0.20593z" fill="#fff"/>
</g>
</svg>
