<?xml version="1.0" encoding="UTF-8" standalone="no"?>
<!-- Created with Inkscape (http://www.inkscape.org/) -->

<svg
   width="52.301464mm"
   height="82.393906mm"
   viewBox="0 0 52.301463 82.393903"
   version="1.1"
   id="svg5"
   inkscape:version="1.1 (c68e22c387, 2021-05-23)"
   sodipodi:docname="drink.svg"
   xmlns:inkscape="http://www.inkscape.org/namespaces/inkscape"
   xmlns:sodipodi="http://sodipodi.sourceforge.net/DTD/sodipodi-0.dtd"
   xmlns="http://www.w3.org/2000/svg"
   xmlns:svg="http://www.w3.org/2000/svg">
  <sodipodi:namedview
     id="namedview7"
     pagecolor="#505050"
     bordercolor="#eeeeee"
     borderopacity="1"
     inkscape:pageshadow="0"
     inkscape:pageopacity="0"
     inkscape:pagecheckerboard="0"
     inkscape:document-units="mm"
     showgrid="false"
     fit-margin-top="0"
     fit-margin-left="0"
     fit-margin-right="0"
     fit-margin-bottom="0"
     inkscape:zoom="1.8973437"
     inkscape:cx="184.2049"
     inkscape:cy="162.06869"
     inkscape:window-width="1920"
     inkscape:window-height="1027"
     inkscape:window-x="1072"
     inkscape:window-y="424"
     inkscape:window-maximized="1"
     inkscape:current-layer="layer1" />
  <defs
     id="defs2" />
  <g
     inkscape:label="Layer 1"
     inkscape:groupmode="layer"
     id="layer1"
     transform="translate(-60.752581,-65.527895)">
    <path
       style="fill:#ffffff;stroke-width:0.113376"
       d="m 69.62776,147.84624 c -0.204146,-0.20415 -0.04578,-0.4786 0.3728,-0.64609 0.657437,-0.26305 2.778061,-0.77701 5.673953,-1.37514 3.844606,-0.79411 4.716079,-1.14525 6.218171,-2.50557 0.92586,-0.83849 1.685536,-1.8476 2.321938,-3.08438 0.979491,-1.90352 0.895689,-0.6176 0.994606,-15.26207 l 0.088,-13.02839 -4.230124,-5.56539 C 78.740536,103.31825 73.280376,96.145553 68.933414,90.439861 64.586449,84.734183 60.954158,79.893472 60.861655,79.682727 60.725161,79.371772 60.719222,79.237365 60.83011,78.969615 61.124341,78.259263 59.759554,78.308566 79.129998,78.308566 h 17.690514 l 2.595468,-6.37743 c 1.42751,-3.5076 2.60349,-6.388767 2.61328,-6.402594 0.01,-0.01387 0.60172,0.197026 1.31539,0.468573 0.90978,0.346163 1.28877,0.543471 1.26813,0.660201 -0.0162,0.09155 -1.07485,2.727641 -2.35257,5.857951 -1.27772,3.130324 -2.323124,5.714403 -2.323124,5.742394 0,0.028 2.783914,0.05089 6.186484,0.05089 4.02625,0 6.26265,0.0408 6.40461,0.116729 0.30774,0.1647 0.59183,0.763789 0.51235,1.080466 -0.0367,0.146174 -5.65298,7.493535 -12.48066,16.32749 l -12.413951,16.061724 4.29e-4,12.31624 c 4.29e-4,13.1539 0.01064,13.42418 0.563799,15.03035 0.752173,2.18396 2.688379,4.40536 4.707754,5.40118 0.936042,0.46159 1.510455,0.60977 6.122338,1.57937 2.441211,0.51324 3.985531,0.948 4.241891,1.19421 0.13139,0.12615 0.134,0.18569 0.0144,0.32974 -0.13057,0.15732 -1.92591,0.17575 -17.119577,0.17575 -9.335547,0 -17.007734,-0.0341 -17.049304,-0.0755 z M 95.033572,82.699808 c 0.514448,-1.262184 0.935356,-2.358402 0.935356,-2.436047 0,-0.112017 -3.330989,-0.141165 -16.108925,-0.141165 -9.621432,0 -16.093712,0.04147 -16.071139,0.103131 0.02079,0.05668 0.842819,1.153627 1.826747,2.437595 l 1.788954,2.334491 13.346824,-0.0013 13.346826,-0.0013 z m 13.232278,-0.111343 1.8747,-2.409255 -5.45964,-0.02948 c -3.00281,-0.01616 -5.481726,-0.0067 -5.50871,0.01966 -0.0526,0.05264 -1.802498,4.298518 -1.908152,4.629924 -0.05954,0.186727 0.207048,0.1984 4.531922,0.1984 h 4.59518 z"
       id="path1186"
       sodipodi:nodetypes="cssssscscccscccssssssssccsssscscccssccccccccsssscc" />
  </g>
</svg>
