<?xml version="1.0" encoding="UTF-8"?>
<svg width="52.301mm" height="82.394mm" version="1.1" viewBox="0 0 52.301 82.394" xmlns="http://www.w3.org/2000/svg">
<g transform="translate(-60.753 -65.528)">
<path d="m69.628 147.85c-0.20415-0.20415-0.04578-0.4786 0.3728-0.64609 0.65744-0.26305 2.7781-0.77701 5.674-1.3751 3.8446-0.79411 4.7161-1.1452 6.2182-2.5056 0.92586-0.83849 1.6855-1.8476 2.3219-3.0844 0.97949-1.9035 0.89569-0.6176 0.99461-15.262l0.088-13.028-4.2301-5.5654c-2.3266-3.061-7.7867-10.234-12.134-15.939-4.347-5.7057-7.9793-10.546-8.0718-10.757-0.13649-0.31096-0.14243-0.44536-0.031545-0.71311 0.29423-0.71035-1.0706-0.66105 18.3-0.66105h17.691l2.5955-6.3774c1.4275-3.5076 2.6035-6.3888 2.6133-6.4026 0.01-0.01387 0.60172 0.19703 1.3154 0.46857 0.90978 0.34616 1.2888 0.54347 1.2681 0.6602-0.0162 0.09155-1.0748 2.7276-2.3526 5.858-1.2777 3.1303-2.3231 5.7144-2.3231 5.7424 0 0.028 2.7839 0.05089 6.1865 0.05089 4.0262 0 6.2626 0.0408 6.4046 0.11673 0.30774 0.1647 0.59183 0.76379 0.51235 1.0805-0.0367 0.14617-5.653 7.4935-12.481 16.327l-12.414 16.062 4.29e-4 12.316c4.29e-4 13.154 0.01064 13.424 0.5638 15.03 0.75217 2.184 2.6884 4.4054 4.7078 5.4012 0.93604 0.46159 1.5105 0.60977 6.1223 1.5794 2.4412 0.51324 3.9855 0.948 4.2419 1.1942 0.13139 0.12615 0.134 0.18569 0.0144 0.32974-0.13057 0.15732-1.9259 0.17575-17.12 0.17575-9.3355 0-17.008-0.0341-17.049-0.0755zm25.406-65.146c0.51445-1.2622 0.93536-2.3584 0.93536-2.436 0-0.11202-3.331-0.14116-16.109-0.14116-9.6214 0-16.094 0.04147-16.071 0.10313 0.02079 0.05668 0.84282 1.1536 1.8267 2.4376l1.789 2.3345 26.694-0.0026zm13.232-0.11134 1.8747-2.4093-5.4596-0.02948c-3.0028-0.01616-5.4817-0.0067-5.5087 0.01966-0.0526 0.05264-1.8025 4.2985-1.9082 4.6299-0.05954 0.18673 0.20705 0.1984 4.5319 0.1984h4.5952z" fill="#fff" stroke-width=".11338"/>
</g>
</svg>
