<svg width="197.673" height="311.41" viewBox="0 0 52.301 82.394" xmlns="http://www.w3.org/2000/svg"><path d="M8.875 82.322c-.204-.204-.046-.479.373-.646.657-.263 2.778-.777 5.674-1.375 3.844-.794 4.716-1.145 6.218-2.506.926-.838 1.685-1.847 2.322-3.084.98-1.904.896-.618.995-15.262l.088-13.028-4.23-5.566c-2.327-3.06-7.787-10.234-12.135-15.939C3.833 19.211.201 14.37.11 14.16c-.137-.31-.143-.445-.032-.713.294-.71-1.07-.66 18.3-.66h17.691l2.596-6.378A1719.77 1719.77 0 0 1 41.277.005c.01-.014.602.197 1.315.469.91.346 1.29.543 1.268.66-.016.092-1.074 2.728-2.352 5.858-1.278 3.13-2.323 5.714-2.323 5.742 0 .028 2.784.051 6.186.051 4.026 0 6.263.041 6.405.117.308.165.592.764.512 1.08-.037.147-5.653 7.494-12.48 16.328L27.392 46.372v12.316c.001 13.154.011 13.424.564 15.03.753 2.184 2.689 4.405 4.708 5.4.936.462 1.51.61 6.122 1.58 2.442.513 3.986.948 4.242 1.194.132.126.134.186.015.33-.13.157-1.926.176-17.12.176-9.336 0-17.008-.034-17.05-.076zm25.406-65.146c.514-1.262.935-2.358.935-2.436 0-.112-3.33-.141-16.109-.141-9.621 0-16.094.041-16.07.103.02.057.842 1.154 1.826 2.438l1.79 2.334 26.693-.003zm13.232-.111 1.875-2.41-5.46-.03c-3.003-.015-5.482-.006-5.509.02-.052.053-1.802 4.299-1.908 4.63-.06.187.207.199 4.532.199h4.595z" fill="#fff"/></svg>