<?xml version="1.0" encoding="UTF-8"?>
<svg width="10.036mm" height="13.92mm" version="1.1" viewBox="0 0 10.036 13.92" xmlns="http://www.w3.org/2000/svg" xmlns:cc="http://creativecommons.org/ns#" xmlns:dc="http://purl.org/dc/elements/1.1/" xmlns:rdf="http://www.w3.org/1999/02/22-rdf-syntax-ns#">
<metadata>
<rdf:RDF>
<cc:Work rdf:about="">
<dc:format>image/svg+xml</dc:format>
<dc:type rdf:resource="http://purl.org/dc/dcmitype/StillImage"/>
<dc:title/>
</cc:Work>
</rdf:RDF>
</metadata>
<g transform="translate(-62.345 -134.72)">
<path d="m68.765 148.61c-0.62914-0.15299-1.0397-0.83328-0.98324-1.6291 0.01956-0.27558 0.04589-0.39995 0.15831-0.74781 0.08571-0.26521 0.27061-0.64983 0.43748-0.91001l0.09954-0.15519 0.19837 0.0678c0.1091 0.0373 0.63909 0.19745 1.1778 0.35589 0.53866 0.15843 0.98189 0.29003 0.98495 0.29243 0.0031 2e-3 -0.01266 0.1447-0.03494 0.3162-0.07323 0.56378-0.18846 0.97611-0.38365 1.3728-0.39032 0.79334-1.0238 1.1903-1.6546 1.0369zm-3.3226-3.2403c-0.66446-0.14451-1.2262-0.89898-1.4383-1.9318-0.04411-0.21479-0.1256-0.78123-0.11405-0.79278 0.0033-3e-3 0.3853-0.11762 0.84895-0.25411 0.46365-0.13648 0.99438-0.29712 1.1794-0.35697 0.18502-0.0599 0.33948-0.10513 0.34325-0.10062 0.0038 5e-3 0.07388 0.12008 0.1558 0.25682 0.42875 0.71561 0.6093 1.4522 0.50149 2.0461-0.10878 0.59923-0.51148 1.0515-1.021 1.1466-0.18266 0.0341-0.24639 0.0322-0.45555-0.0133zm5.2542-0.19237c-0.13466-0.0356-0.63048-0.1573-1.1018-0.27034-0.47133-0.11304-0.89003-0.21867-0.93045-0.23473-0.09793-0.0389-0.13873-0.10701-0.22189-0.37024-0.17911-0.56698-0.26139-1.1379-0.28137-1.9523-0.01797-0.73235 0.01212-1.1119 0.13158-1.6595 0.29682-1.3608 0.80304-2.2086 1.5376-2.5753 0.26791-0.13373 0.53903-0.17248 0.91353-0.13057 0.88146 0.0986 1.3849 0.7455 1.5554 1.9985 0.0825 0.60628 0.10419 1.1905 0.05859 1.5779-0.1368 1.162-0.54262 2.5577-0.9364 3.2205-0.14714 0.24767-0.34606 0.46646-0.42123 0.4633-0.03228-1e-3 -0.16887-0.0316-0.30354-0.0673zm-7.1538-3.3105c-0.42784-0.48689-0.86787-1.7037-1.0994-3.0402-0.12565-0.72521-0.12942-1.1948-0.01659-2.0676 0.15381-1.1898 0.63336-1.8586 1.4373-2.0043 1.1918-0.21611 2.0714 0.64943 2.5202 2.4799 0.16658 0.67938 0.17704 0.77724 0.17596 1.6464-1e-3 0.81417-0.02452 1.0965-0.13822 1.6595-0.04682 0.23181-0.19431 0.72477-0.23775 0.79461-0.05022 0.0807-0.17953 0.12523-0.73818 0.25397-0.29926 0.069-0.80996 0.19179-1.1349 0.27294-0.32494 0.0812-0.60251 0.14756-0.61681 0.14756-0.0143 0-0.08248-0.0643-0.15151-0.14283z" fill="#fff"/>
</g>
</svg>
