<?xml version="1.0" encoding="UTF-8" standalone="no"?>
<!-- Created with Inkscape (http://www.inkscape.org/) -->

<svg
   xmlns:dc="http://purl.org/dc/elements/1.1/"
   xmlns:cc="http://creativecommons.org/ns#"
   xmlns:rdf="http://www.w3.org/1999/02/22-rdf-syntax-ns#"
   xmlns:svg="http://www.w3.org/2000/svg"
   xmlns="http://www.w3.org/2000/svg"
   xmlns:sodipodi="http://sodipodi.sourceforge.net/DTD/sodipodi-0.dtd"
   xmlns:inkscape="http://www.inkscape.org/namespaces/inkscape"
   width="10.035752mm"
   height="13.920238mm"
   viewBox="0 0 10.035752 13.920238"
   version="1.1"
   id="svg4166"
   inkscape:version="0.92.4 (5da689c313, 2019-01-14)"
   sodipodi:docname="footsteps.svg">
  <defs
     id="defs4160" />
  <sodipodi:namedview
     id="base"
     pagecolor="#ffffff"
     bordercolor="#666666"
     borderopacity="1.0"
     inkscape:pageopacity="0.0"
     inkscape:pageshadow="2"
     inkscape:zoom="3.6203867"
     inkscape:cx="29.573464"
     inkscape:cy="-9.9074914"
     inkscape:document-units="mm"
     inkscape:current-layer="layer1"
     showgrid="false"
     fit-margin-top="0"
     fit-margin-left="0"
     fit-margin-right="0"
     fit-margin-bottom="0"
     inkscape:window-width="1920"
     inkscape:window-height="1017"
     inkscape:window-x="1072"
     inkscape:window-y="394"
     inkscape:window-maximized="1"
     inkscape:pagecheckerboard="true" />
  <metadata
     id="metadata4163">
    <rdf:RDF>
      <cc:Work
         rdf:about="">
        <dc:format>image/svg+xml</dc:format>
        <dc:type
           rdf:resource="http://purl.org/dc/dcmitype/StillImage" />
        <dc:title></dc:title>
      </cc:Work>
    </rdf:RDF>
  </metadata>
  <g
     inkscape:label="Layer 1"
     inkscape:groupmode="layer"
     id="layer1"
     transform="translate(-62.345223,-134.72226)">
    <path
       style="fill:#ffffff;stroke-width:1"
       d="m 68.764803,148.61003 c -0.629137,-0.15299 -1.039727,-0.83328 -0.98324,-1.62907 0.01956,-0.27558 0.04589,-0.39995 0.158306,-0.74781 0.08571,-0.26521 0.270614,-0.64983 0.437484,-0.91001 l 0.09954,-0.15519 0.198367,0.0678 c 0.109101,0.0373 0.639089,0.19745 1.177751,0.35589 0.538662,0.15843 0.981889,0.29003 0.984949,0.29243 0.0031,0.002 -0.01266,0.1447 -0.03494,0.3162 -0.07323,0.56378 -0.188462,0.97611 -0.383652,1.37283 -0.390324,0.79334 -1.023753,1.1903 -1.654561,1.0369 z m -3.322604,-3.24031 c -0.664456,-0.14451 -1.226196,-0.89898 -1.438299,-1.93177 -0.04411,-0.21479 -0.125602,-0.78123 -0.114052,-0.79278 0.0033,-0.003 0.3853,-0.11762 0.848951,-0.25411 0.463651,-0.13648 0.994382,-0.29712 1.179401,-0.35697 0.18502,-0.0599 0.339481,-0.10513 0.343246,-0.10062 0.0038,0.005 0.07388,0.12008 0.155804,0.25682 0.428753,0.71561 0.609297,1.45224 0.501492,2.04613 -0.108775,0.59923 -0.511483,1.05147 -1.020994,1.14656 -0.182655,0.0341 -0.24639,0.0322 -0.455549,-0.0133 z m 5.25417,-0.19237 c -0.134665,-0.0356 -0.630479,-0.1573 -1.101809,-0.27034 -0.471329,-0.11304 -0.890031,-0.21867 -0.93045,-0.23473 -0.09793,-0.0389 -0.138734,-0.10701 -0.221889,-0.37024 -0.179109,-0.56698 -0.261392,-1.13789 -0.281374,-1.95229 -0.01797,-0.73235 0.01212,-1.11187 0.131577,-1.65952 0.296816,-1.36076 0.803036,-2.20863 1.53758,-2.57529 0.267911,-0.13373 0.539029,-0.17248 0.913529,-0.13057 0.881461,0.0986 1.384906,0.7455 1.555416,1.99853 0.0825,0.60628 0.104194,1.1905 0.05859,1.5779 -0.136799,1.16197 -0.542623,2.55771 -0.936399,3.22053 -0.147136,0.24767 -0.346057,0.46646 -0.42123,0.4633 -0.03228,-0.001 -0.168871,-0.0316 -0.303537,-0.0673 z m -7.153818,-3.3105 c -0.427844,-0.48689 -0.867873,-1.70366 -1.09944,-3.04017 -0.125651,-0.72521 -0.12942,-1.19482 -0.01659,-2.06759 0.153808,-1.18981 0.633356,-1.85857 1.437253,-2.00433 1.191771,-0.21611 2.071369,0.64943 2.520192,2.47989 0.166579,0.67938 0.177039,0.77724 0.175965,1.64644 -0.001,0.81417 -0.02452,1.09651 -0.138223,1.65951 -0.04682,0.23181 -0.194311,0.72477 -0.237749,0.79461 -0.05022,0.0807 -0.179531,0.12523 -0.738179,0.25397 -0.299257,0.069 -0.809965,0.19179 -1.134906,0.27294 -0.324942,0.0812 -0.602506,0.14756 -0.616808,0.14756 -0.0143,0 -0.08248,-0.0643 -0.15151,-0.14283 z"
       id="path4530"
       inkscape:connector-curvature="0" />
  </g>
</svg>
