<?xml version="1.0" encoding="UTF-8" standalone="no"?>
<!-- Created with Inkscape (http://www.inkscape.org/) -->

<svg
   xmlns:dc="http://purl.org/dc/elements/1.1/"
   xmlns:cc="http://creativecommons.org/ns#"
   xmlns:rdf="http://www.w3.org/1999/02/22-rdf-syntax-ns#"
   xmlns:svg="http://www.w3.org/2000/svg"
   xmlns="http://www.w3.org/2000/svg"
   xmlns:sodipodi="http://sodipodi.sourceforge.net/DTD/sodipodi-0.dtd"
   xmlns:inkscape="http://www.inkscape.org/namespaces/inkscape"
   width="36.261738mm"
   height="43.45047mm"
   viewBox="0 0 36.261738 43.45047"
   version="1.1"
   id="svg4166"
   inkscape:version="0.92.4 (5da689c313, 2019-01-14)"
   sodipodi:docname="footsteps.svg">
  <defs
     id="defs4160" />
  <sodipodi:namedview
     id="base"
     pagecolor="#ffffff"
     bordercolor="#666666"
     borderopacity="1.0"
     inkscape:pageopacity="0.0"
     inkscape:pageshadow="2"
     inkscape:zoom="2.56"
     inkscape:cx="34.117634"
     inkscape:cy="81.581148"
     inkscape:document-units="mm"
     inkscape:current-layer="layer1"
     showgrid="false"
     fit-margin-top="0"
     fit-margin-left="0"
     fit-margin-right="0"
     fit-margin-bottom="0"
     inkscape:window-width="1920"
     inkscape:window-height="1017"
     inkscape:window-x="1072"
     inkscape:window-y="394"
     inkscape:window-maximized="1" />
  <metadata
     id="metadata4163">
    <rdf:RDF>
      <cc:Work
         rdf:about="">
        <dc:format>image/svg+xml</dc:format>
        <dc:type
           rdf:resource="http://purl.org/dc/dcmitype/StillImage" />
        <dc:title></dc:title>
      </cc:Work>
    </rdf:RDF>
  </metadata>
  <g
     inkscape:label="Layer 1"
     inkscape:groupmode="layer"
     id="layer1"
     transform="translate(-67.216174,-100.47739)">
    <path
       style="fill:#ffffff;stroke-width:1"
       d="m 91.709204,143.86028 c -1.89029,-0.33815 -3.36008,-1.66193 -3.94441,-3.55259 -0.0648,-0.20955 -0.11817,-0.48008 -0.11867,-0.60117 l -9.2e-4,-0.22017 1.12184,-0.0571 c 0.617,-0.0314 1.29842,-0.0795 1.51426,-0.10695 0.38798,-0.0493 0.39352,-0.0465 0.48933,0.24376 0.1471,0.44571 0.63538,0.96281 1.06355,1.12633 0.58251,0.22246 1.29916,0.14159 1.78596,-0.20154 0.21189,-0.14935 0.43059,-0.24591 0.48599,-0.21457 0.48689,0.27542 2.42907,1.59644 2.42907,1.65219 0,0.0394 -0.23687,0.30266 -0.52637,0.58507 -1.10564,1.07853 -2.81169,1.61289 -4.29963,1.34671 z m 3.89422,-3.3526 c -0.67497,-0.4488 -1.23739,-0.82409 -1.24982,-0.83399 -0.063,-0.0501 0.1917,-0.89003 0.26998,-0.89025 0.0808,-2.5e-4 2.75562,1.00747 2.83023,1.06625 0.079,0.0623 -0.47043,1.474 -0.5737,1.474 -0.0272,0 -0.60173,-0.3672 -1.27669,-0.81601 z m -3.64182,-1.02549 c -0.40423,-0.36441 -0.40509,-0.65247 -0.006,-2.14544 0.19165,-0.7176 0.41011,-1.42654 0.48548,-1.57543 0.34463,-0.68082 1.33901,-0.66001 1.7114,0.0358 0.15197,0.28395 0.12261,0.49373 -0.28283,2.02102 -0.32945,1.24103 -0.414,1.46215 -0.63634,1.66404 -0.19933,0.18101 -0.34061,0.23283 -0.63473,0.23283 -0.29366,0 -0.43612,-0.0521 -0.6366,-0.23283 z m 4.15027,-0.80592 c -0.72178,-0.28461 -1.32615,-0.52722 -1.34304,-0.53912 -0.0431,-0.0304 0.15002,-0.81269 0.23427,-0.94902 0.0559,-0.0904 0.3002,-0.052 1.24529,0.19568 1.81,0.47427 1.74895,0.44857 1.6872,0.71024 -0.16592,0.70304 -0.31678,1.11218 -0.40792,1.10633 -0.0569,-0.004 -0.69402,-0.2395 -1.4158,-0.52411 z m -8.51752,-0.23931 c 0.10762,-0.83331 0.2062,-1.09288 0.41395,-1.09008 0.3453,0.005 2.75755,0.38057 2.81578,0.4388 0.0316,0.0316 0.0126,0.24506 -0.0424,0.47426 l -0.1,0.41673 -0.81974,0.0561 c -0.45086,0.0309 -1.1588,0.0799 -1.57322,0.10895 l -0.75348,0.0528 z m 9.06785,-1.57596 c -0.79163,-0.20834 -1.45057,-0.38973 -1.46431,-0.40309 -0.0137,-0.0134 0.0189,-0.1985 0.0725,-0.41142 l 0.0975,-0.38714 1.45149,0.0485 c 0.96105,0.0321 1.48875,0.0833 1.56173,0.15143 0.0904,0.0844 0.0844,0.20843 -0.0328,0.68818 -0.0787,0.32188 -0.16638,0.60934 -0.1949,0.63879 -0.0285,0.0295 -0.69953,-0.1169 -1.49117,-0.32524 z m -7.15433,0.0532 c -0.81492,-0.12847 -1.4883,-0.23663 -1.4964,-0.24036 -0.0186,-0.009 0.32798,-1.30903 0.35913,-1.34758 0.0126,-0.0157 0.68817,0.15016 1.50116,0.36851 l 1.47817,0.39699 -0.1235,0.47815 c -0.0679,0.26299 -0.14901,0.50059 -0.18019,0.52801 -0.0312,0.0274 -0.72345,-0.0553 -1.53837,-0.18372 z m 0.47678,-1.81941 c -0.73895,-0.20182 -1.36297,-0.38636 -1.3867,-0.41009 -0.11077,-0.11077 0.27272,-1.28443 0.44076,-1.34891 0.0594,-0.0228 0.46548,0.1644 0.90241,0.416 0.43693,0.25159 1.00397,0.54061 1.26008,0.64226 0.25612,0.10166 0.47949,0.19541 0.49638,0.20835 0.0732,0.0561 -0.18405,0.87836 -0.27199,0.86933 -0.0536,-0.005 -0.70199,-0.17513 -1.44094,-0.37694 z m 8.05546,-2.87091 c -0.60984,-0.15484 -1.42024,-0.49592 -1.42024,-0.59774 0,-0.05 0.0808,-0.3301 0.17954,-0.62251 0.13686,-0.40526 0.21233,-0.5226 0.3175,-0.49362 0.0759,0.0209 0.61421,0.163 1.19629,0.31575 0.58209,0.15274 1.0899,0.30569 1.12848,0.33988 0.075,0.0665 -0.30355,0.88054 -0.45229,0.97247 -0.23958,0.14806 -0.58207,0.17901 -0.94928,0.0858 z m -3.52489,-1.18209 c -0.70131,-0.19227 -0.85488,-0.29468 -0.85739,-0.57177 -6.8e-4,-0.0789 0.12979,-0.67724 0.29001,-1.32974 0.39882,-1.62422 0.4707,-2.23373 0.4707,-3.99145 0,-1.68378 0.1323,-2.79835 0.5071,-4.2721 0.43193,-1.69841 0.82045,-2.44605 1.4475,-2.78547 0.47253,-0.25579 0.85068,-0.13859 1.42694,0.44226 0.8497,0.85646 1.3325,2.10255 1.41785,3.65943 0.0908,1.65628 -0.21792,2.62247 -1.55813,4.8765 -1.01823,1.71251 -1.31363,2.28855 -1.68341,3.28275 -0.15441,0.41515 -0.32997,0.78604 -0.39013,0.82421 -0.15542,0.0986 -0.2753,0.0835 -1.07104,-0.13462 z m -2.84835,-0.51175 c -0.78387,-0.14603 -0.99916,-0.23817 -1.22475,-0.52415 -0.16606,-0.2105 -0.18182,-0.29996 -0.13158,-0.74664 0.0314,-0.27912 0.0649,-0.51535 0.0746,-0.52496 0.0614,-0.0614 2.36614,0.62076 2.40059,0.71053 0.0235,0.0612 -0.0243,0.35871 -0.10612,0.6611 -0.16637,0.61464 -0.11207,0.5919 -1.01269,0.42412 z m -14.05467,-0.055 c -0.66829,-0.0615 -1.39076,-0.29352 -1.97548,-0.63456 -0.40538,-0.23643 -1.45352,-1.1858 -1.45352,-1.31654 0,-0.0401 0.56056,-0.43931 1.24568,-0.88708 1.22606,-0.80129 1.24907,-0.81196 1.4605,-0.67706 0.84214,0.53731 1.40406,0.60775 2.09631,0.26279 0.45606,-0.22727 0.81738,-0.62345 0.97133,-1.06509 l 0.0922,-0.26444 0.6865,0.051 c 0.37757,0.0281 1.05798,0.0762 1.512,0.10693 l 0.8255,0.0559 v 0.22915 c 0,0.65788 -0.60428,1.86374 -1.30541,2.60499 -1.12415,1.18846 -2.47804,1.68822 -4.15559,1.53397 z m 20.87609,-0.23147 c -0.62549,-0.17344 -1.15266,-0.36157 -1.1715,-0.41806 -0.026,-0.0781 0.48118,-1.12615 0.61448,-1.2696 0.0219,-0.0236 2.676486,0.6641 2.737676,0.70921 0.0574,0.0423 -0.870726,1.30565 -0.954916,1.29986 -0.0487,-0.003 -0.60026,-0.14798 -1.22574,-0.32141 z m -6.85045,-1.83142 c -0.57477,-0.15616 -1.06873,-0.30762 -1.09768,-0.33658 -0.054,-0.0539 -0.0258,-1.41585 0.0304,-1.47339 0.0244,-0.025 1.40999,0.31939 2.60634,0.64776 0.16516,0.0453 0.16363,0.0839 -0.042,1.05629 -0.10387,0.49112 -0.0843,0.48974 -1.49705,0.10592 z m 7.9877,-0.0622 c -0.6985,-0.18805 -1.28397,-0.35387 -1.30105,-0.3685 -0.0673,-0.0576 0.71534,-1.30306 0.81944,-1.30403 0.12441,-0.001 2.903046,0.74118 2.949986,0.78812 0.0165,0.0165 -0.16168,0.30287 -0.39591,0.6364 -0.32026,0.45603 -0.47259,0.60439 -0.61418,0.59817 -0.10356,-0.005 -0.75979,-0.16212 -1.458286,-0.35016 z m -26.01622,-0.80574 c -0.17112,-0.40152 -0.37029,-1.05254 -0.33333,-1.08951 0.0296,-0.0296 2.6261,-1.03008 2.75733,-1.06244 0.12284,-0.0303 0.37845,0.65422 0.3121,0.83576 -0.0303,0.0829 -2.44541,1.71836 -2.53758,1.71836 -0.0149,0 -0.10425,-0.18098 -0.19852,-0.40217 z m 27.216726,-1.07775 c -0.73671,-0.20157 -1.358646,-0.38566 -1.382066,-0.40908 -0.0234,-0.0234 0.0126,-0.15091 0.08,-0.2833 0.0674,-0.13239 0.20901,-0.49872 0.31463,-0.81408 0.14778,-0.44123 0.223406,-0.56374 0.328136,-0.53157 0.0749,0.023 0.63141,0.15858 1.23678,0.3013 0.60536,0.14273 1.241,0.297 1.41253,0.34282 l 0.31186,0.0833 -0.19547,0.57471 c -0.27183,0.79921 -0.44938,1.11625 -0.62093,1.10875 -0.0803,-0.004 -0.74876,-0.1713 -1.48548,-0.37287 z m -8.893316,-0.17401 c -0.73855,-0.20266 -1.35956,-0.38521 -1.38002,-0.40568 -0.0395,-0.0395 -0.20437,-1.51841 -0.1728,-1.54999 0.0102,-0.0102 0.3611,0.0731 0.77976,0.18515 0.41866,0.11204 1.09044,0.28594 1.49285,0.38643 0.7277,0.18173 0.73191,0.18433 0.78029,0.48245 0.0541,0.33305 -0.0252,1.28996 -0.10584,1.27783 -0.0283,-0.004 -0.6557,-0.17354 -1.39424,-0.37619 z m -14.2983,-0.0873 c -0.12747,-0.0692 -0.28517,-0.22957 -0.35044,-0.35645 -0.14163,-0.2753 -0.81479,-2.80741 -0.81479,-3.06485 0,-0.47768 0.48426,-0.93386 0.99063,-0.93318 0.32744,4.2e-4 0.73912,0.27017 0.85646,0.56116 0.15942,0.39536 0.77758,2.76017 0.77758,2.9747 0,0.70719 -0.81858,1.16634 -1.45944,0.81862 z m -4.67344,-0.83492 c -0.29127,-1.00193 -0.33619,-0.91076 0.55977,-1.13606 0.43419,-0.10918 1.10252,-0.28513 1.48518,-0.39099 l 0.69574,-0.19249 0.13431,0.46201 c 0.0739,0.25411 0.12104,0.50182 0.10482,0.55048 -0.0232,0.0697 -2.04517,0.9131 -2.70309,1.12747 -0.11113,0.0362 -0.16998,-0.0532 -0.27673,-0.42042 z m 8.3832,0.002 -1.26336,-0.093 -0.12047,-0.36263 c -0.0663,-0.19944 -0.10121,-0.41281 -0.0777,-0.47415 0.0235,-0.0613 0.22716,-0.13525 0.45249,-0.16424 0.22533,-0.029 0.88526,-0.12746 1.46651,-0.21881 0.58125,-0.0913 1.06786,-0.15504 1.08136,-0.14155 0.0455,0.0455 0.27187,1.19036 0.27335,1.38254 0.002,0.21925 0.1243,0.21439 -1.81221,0.0718 z m 20.374046,-1.19614 c -0.80481,-0.19574 -1.47995,-0.37255 -1.50031,-0.39291 -0.0203,-0.0204 -0.0131,-0.42985 0.0162,-0.90999 l 0.0532,-0.87298 0.34646,0.0467 c 0.19055,0.0257 0.90843,0.093 1.59529,0.14962 l 1.24883,0.10294 -6.8e-4,0.51622 c -6.8e-4,0.57095 -0.14553,1.58889 -0.2371,1.6666 -0.0322,0.0273 -0.71708,-0.11045 -1.52189,-0.30619 z m -8.696696,0.20485 c -0.1397,-0.0437 -0.76835,-0.21546 -1.397,-0.38174 -0.62865,-0.16629 -1.1752,-0.33284 -1.21456,-0.37011 -0.0789,-0.0747 0.011,-1.27378 0.10718,-1.42934 0.0421,-0.0681 0.13529,-0.0735 0.30867,-0.018 0.1366,0.0437 0.77314,0.20168 1.41452,0.35097 0.64138,0.14928 1.18576,0.30317 1.20975,0.34198 0.0586,0.0948 -0.058,1.60217 -0.12321,1.59293 -0.0282,-0.004 -0.16565,-0.043 -0.30535,-0.0867 z m -20.47786,-0.64947 c -0.1006,-0.16278 -0.29549,-1.1375 -0.25075,-1.2541 0.0353,-0.0919 0.26113,-0.12073 0.98916,-0.1261 0.5189,-0.004 1.05775,-0.0225 1.19745,-0.0414 0.1397,-0.0189 0.37957,-0.0518 0.53304,-0.073 0.29879,-0.0413 0.35267,0.0255 0.47386,0.58704 l 0.0548,0.254 -1.25052,0.32817 c -1.52733,0.40081 -1.68258,0.42972 -1.74705,0.32541 z m 6.96437,-0.45463 c -0.0631,-0.24912 -0.11546,-0.48639 -0.11631,-0.52727 -0.001,-0.0677 2.64011,-0.81467 2.88074,-0.81467 0.0565,0 0.16355,0.24184 0.2378,0.53742 0.0743,0.29558 0.15826,0.59806 0.1867,0.67217 0.0393,0.10241 -0.016,0.14536 -0.23053,0.179 -1.39885,0.21931 -1.95874,0.30215 -2.36728,0.35023 l -0.47636,0.0561 z m 12.49749,-1.44371 c -0.74507,-0.18746 -1.36309,-0.34809 -1.37338,-0.35697 -0.0293,-0.0252 0.28823,-1.32067 0.33521,-1.36766 0.0231,-0.0231 0.57088,0.1071 1.21738,0.28923 0.6465,0.18213 1.30273,0.35863 1.45829,0.39223 0.23728,0.0513 0.27499,0.0904 0.23407,0.24318 -0.0268,0.10015 -0.0924,0.40116 -0.1457,0.66892 -0.0714,0.35865 -0.13302,0.48487 -0.23406,0.47937 -0.0754,-0.004 -0.74675,-0.16084 -1.49181,-0.3483 z m -12.91447,-0.1639 c -0.0743,-0.30971 -0.0793,-0.45485 -0.0165,-0.4758 0.25054,-0.0835 1.56201,-0.74887 1.99957,-1.01447 0.37438,-0.22724 0.53191,-0.28166 0.63217,-0.21842 0.12636,0.0797 0.43192,0.93502 0.43439,1.21594 8.6e-4,0.0975 -0.34619,0.22309 -1.36926,0.49553 -0.75372,0.20072 -1.41609,0.38248 -1.47194,0.40391 -0.064,0.0246 -0.14102,-0.1256 -0.20845,-0.40669 z m 23.921126,-0.035 c -0.0931,-0.0139 -0.74083,-0.0711 -1.43933,-0.12703 -0.6985,-0.0559 -1.31287,-0.13571 -1.36527,-0.17726 -0.0524,-0.0416 -0.12011,-0.23093 -0.15048,-0.42084 -0.0304,-0.1899 -0.144466,-0.60076 -0.253566,-0.91302 l -0.19836,-0.56774 0.785736,-0.10545 c 0.43215,-0.058 1.1348,-0.19887 1.56144,-0.31305 0.42665,-0.11417 0.78891,-0.20759 0.80504,-0.20759 0.10942,0 0.60363,1.89582 0.65082,2.49658 0.0276,0.35145 -0.0198,0.39164 -0.39603,0.3354 z m -9.228656,-1.43401 c -0.0466,-0.0165 -0.6657,-0.18986 -1.37584,-0.3853 -0.71014,-0.19545 -1.29116,-0.39061 -1.29116,-0.43371 0,-0.0815 0.59094,-1.69838 0.64073,-1.7531 0.0156,-0.0171 0.40184,0.16071 0.85836,0.39521 0.71568,0.36762 1.20682,0.5845 1.81966,0.80352 0.13053,0.0466 0.12163,0.11216 -0.0968,0.71189 -0.22226,0.61026 -0.33153,0.74051 -0.55495,0.66149 z m -21.97467,-1.43175 c -0.19381,-0.11027 -0.66912,-0.9369 -0.58219,-1.01252 0.043,-0.0374 2.35113,-0.64692 2.44977,-0.64692 0.10732,0 0.45075,1.1063 0.36799,1.18543 -0.0401,0.0383 -0.32055,0.17087 -0.62324,0.29449 -0.67972,0.27763 -1.31548,0.34841 -1.61233,0.17952 z m 27.28848,-0.22484 c -0.28636,-0.45227 -1.0382,-1.16552 -1.42696,-1.35372 -0.53503,-0.259 -1.27612,-0.31182 -1.6808,-0.11979 -0.27887,0.13234 -0.82771,0.71603 -1.05476,1.12174 -0.0679,0.12134 -0.14266,0.11028 -0.69834,-0.10333 -0.90493,-0.34787 -2.10395,-0.99062 -2.10395,-1.12785 0,-0.219 0.75029,-1.28057 1.25928,-1.78171 0.545,-0.53661 1.40924,-1.03413 2.07736,-1.19588 0.89135,-0.21579 2.41263,-0.0811 3.30969,0.29313 1.225786,0.51131 2.771966,2.05035 3.501746,3.4856 0.0997,0.19605 0.18125,0.3755 0.18125,0.39876 0,0.0828 -1.14553,0.39433 -1.90013,0.51672 -1.135966,0.18424 -1.270896,0.17193 -1.464386,-0.13367 z m -23.99849,-0.82077 c -0.0696,-0.0815 -0.21528,-0.39582 -0.32369,-0.6985 -0.29621,-0.827 -0.90946,-2.01783 -1.84442,-3.58155 -0.60432,-1.01073 -0.91737,-1.63722 -1.11663,-2.23463 -0.53639,-1.60818 -0.4208,-3.48312 0.30406,-4.93203 0.3211,-0.64182 0.93615,-1.38107 1.30983,-1.57431 1.16256,-0.60118 2.03286,0.76426 2.6636,4.17899 0.17587,0.95211 0.20831,1.38666 0.2086,2.794 3.4e-4,1.81276 0.0843,2.51544 0.50585,4.23282 0.29146,1.18756 0.30277,1.311 0.13306,1.45184 -0.10121,0.084 -1.49089,0.51154 -1.6627,0.51154 -0.028,0 -0.10794,-0.0667 -0.17756,-0.14817 z m -4.30765,-0.7156 c -0.0552,-0.10701 -0.25142,-0.39751 -0.43612,-0.64555 -0.1847,-0.24803 -0.32274,-0.46406 -0.30675,-0.48004 0.0358,-0.0358 2.59485,-0.71998 2.69297,-0.71998 0.0995,0 0.73063,1.24749 0.66455,1.31357 -0.0299,0.0299 -0.54347,0.18611 -1.14132,0.3472 -0.59785,0.16109 -1.15136,0.31235 -1.23001,0.33613 -0.0916,0.0277 -0.17905,-0.0267 -0.24332,-0.15133 z m 7.22787,-0.39646 c -0.0969,-0.33229 -0.15194,-0.61874 -0.12223,-0.63656 0.0998,-0.0599 2.40007,-0.65372 2.42716,-0.62663 0.0147,0.0147 0.0535,0.26288 0.0861,0.55146 0.057,0.50377 0.0494,0.53464 -0.19063,0.77467 -0.28425,0.28424 -0.67029,0.41261 -1.46909,0.48849 l -0.55511,0.0527 z m -8.9835,-1.8863 c -0.24674,-0.33243 -0.41819,-0.63158 -0.381,-0.66477 0.0372,-0.0332 0.23907,-0.10285 0.44862,-0.1548 0.20955,-0.052 0.86619,-0.22485 1.4592,-0.38422 l 1.07819,-0.28976 0.38757,0.63837 c 0.21316,0.35111 0.35662,0.6652 0.3188,0.69797 -0.0703,0.0609 -2.63748,0.76458 -2.7826,0.76269 -0.0441,-5.9e-4 -0.28204,-0.27304 -0.52878,-0.60548 z m 8.49586,-0.0766 c -0.0812,-0.37571 -0.12561,-0.70508 -0.0987,-0.73195 0.0667,-0.0667 2.42879,-0.70024 2.61367,-0.70101 0.12687,-5.1e-4 0.14999,0.0907 0.16087,0.63439 0.007,0.34925 0.0165,0.68262 0.0212,0.74083 0.008,0.0954 -2.03977,0.71886 -2.41345,0.73497 -0.10258,0.004 -0.17213,-0.16173 -0.28351,-0.67723 z m -9.45628,-1.58174 c -0.35743,-0.81972 -0.49563,-1.29677 -0.3869,-1.33555 0.21887,-0.0781 2.96403,-0.72066 2.98453,-0.69862 0.0388,0.0417 0.62283,1.62681 0.60569,1.64395 -0.0228,0.0228 -2.91505,0.79239 -2.9778,0.79239 -0.0276,0 -0.12907,-0.18098 -0.22552,-0.40217 z m 9.23423,-0.0423 c -0.004,-0.10478 -0.0228,-0.2667 -0.0427,-0.35983 -0.0199,-0.0931 -0.014,-0.34596 0.0131,-0.56183 l 0.0493,-0.3925 1.48185,-0.39798 c 0.81502,-0.21889 1.49632,-0.38352 1.51399,-0.36585 0.0347,0.0347 -0.10549,1.51022 -0.14738,1.55104 -0.0389,0.0379 -2.66022,0.71745 -2.76745,0.71745 -0.0518,0 -0.0972,-0.0857 -0.10072,-0.1905 z m -9.93477,-2.20133 c -0.031,-0.15135 -0.0794,-0.64227 -0.10745,-1.09094 l -0.051,-0.81577 0.49903,-0.0499 c 1.50326,-0.15036 2.66644,-0.24284 2.69149,-0.21398 0.0156,0.018 0.0541,0.41943 0.0854,0.89201 l 0.057,0.85924 -1.45078,0.34726 c -0.79792,0.19099 -1.49949,0.34726 -1.55903,0.34726 -0.0595,0 -0.13365,-0.12382 -0.16468,-0.27516 z m 9.94125,-0.0934 c 0,-0.15615 -0.0239,-0.51272 -0.0532,-0.79237 l -0.0531,-0.50847 1.46576,-0.35152 c 1.05627,-0.25332 1.48258,-0.32431 1.52597,-0.25409 0.08,0.12945 0.19172,1.34276 0.12938,1.4051 -0.0655,0.0655 -2.67858,0.77861 -2.86665,0.78233 -0.11224,0.002 -0.14817,-0.0659 -0.14817,-0.28098 z m -0.36415,-2.56221 c -0.0782,-0.36032 -0.12984,-0.66744 -0.11479,-0.68249 0.015,-0.0151 0.58497,-0.18026 1.26649,-0.36713 0.68151,-0.18686 1.33354,-0.37565 1.44895,-0.41953 0.16815,-0.0639 0.21872,-0.0511 0.25457,0.0646 0.063,0.20317 0.2939,1.32534 0.27566,1.33941 -0.008,0.006 -0.60561,0.15143 -1.3274,0.32232 -0.72178,0.17089 -1.39085,0.33034 -1.48682,0.35433 -0.1568,0.0392 -0.1889,-0.0228 -0.31666,-0.61149 z m -9.66012,-0.22304 c 0.21138,-1.24196 0.57311,-2.51883 0.71356,-2.51883 0.044,0 0.43946,0.0934 0.87889,0.20758 0.43943,0.11418 1.12159,0.25272 1.51591,0.30789 l 0.71695,0.10029 -0.11282,0.27002 c -0.062,0.14851 -0.19099,0.56847 -0.28654,0.93325 -0.0955,0.36477 -0.18965,0.67916 -0.20913,0.69864 -0.0571,0.0571 -2.24914,0.27424 -2.77893,0.27533 l -0.48472,10e-4 z m 9.29337,-1.22767 c -0.0265,-0.0815 -0.13907,-0.39321 -0.25007,-0.69271 -0.111,-0.2995 -0.19287,-0.54933 -0.18193,-0.55517 0.0109,-0.006 0.30565,-0.11777 0.6549,-0.24874 0.34925,-0.13096 0.94896,-0.40501 1.33269,-0.60899 0.38374,-0.20399 0.73164,-0.37089 0.77312,-0.37089 0.10802,0 0.70714,1.70825 0.62717,1.78822 -0.0517,0.0517 -2.75248,0.83645 -2.87864,0.83645 -0.0159,0 -0.0507,-0.0667 -0.0772,-0.14817 z m -6.32793,-1.42438 c -0.7462,-0.11604 -1.89037,-0.40576 -1.98801,-0.5034 -0.082,-0.082 0.40982,-0.92715 0.98932,-1.69995 0.6738,-0.89855 1.5535,-1.64658 2.42719,-2.06391 0.89994,-0.42986 1.43961,-0.55012 2.45533,-0.54713 1.34472,0.004 2.27345,0.39934 3.26215,1.38873 0.67442,0.67491 1.24814,1.57377 1.12704,1.76576 -0.098,0.15531 -1.29381,0.76573 -2.07936,1.06141 l -0.5577,0.20992 -0.3909,-0.50336 c -0.56746,-0.73073 -0.80297,-0.85597 -1.53056,-0.8139 -0.92076,0.0532 -1.53802,0.43519 -2.20134,1.36213 -0.38332,0.53567 -0.34082,0.52601 -1.51316,0.3437 z"
       id="path4722"
       inkscape:connector-curvature="0" />
  </g>
</svg>
