<svg width="37.931" height="52.611" viewBox="0 0 10.036 13.92" xmlns="http://www.w3.org/2000/svg"><path d="M6.42 13.89c-.63-.153-1.04-.833-.983-1.63.02-.275.046-.399.158-.747.086-.265.27-.65.438-.91l.1-.155.197.068c.11.037.64.197 1.178.356.539.158.982.29.985.292.003.002-.012.145-.035.316-.073.564-.188.976-.383 1.373-.39.793-1.024 1.19-1.655 1.037zm-3.323-3.24c-.664-.145-1.226-.9-1.438-1.932-.044-.215-.125-.781-.114-.793.003-.003.385-.117.849-.254.464-.136.994-.297 1.18-.357.184-.06.339-.105.343-.1.003.004.074.12.155.256.43.716.61 1.452.502 2.046-.109.6-.512 1.052-1.021 1.147-.183.034-.246.032-.456-.013zm5.255-.193c-.135-.035-.63-.157-1.102-.27a23.78 23.78 0 0 1-.93-.235c-.099-.039-.14-.107-.223-.37-.179-.567-.26-1.138-.28-1.952-.019-.733.011-1.112.13-1.66.297-1.36.804-2.208 1.538-2.575.268-.134.54-.173.914-.13.881.098 1.385.745 1.555 1.998.083.606.104 1.19.059 1.578-.137 1.162-.543 2.557-.937 3.22-.147.248-.346.467-.42.464a2.568 2.568 0 0 1-.304-.068zm-7.154-3.31C.77 6.66.33 5.443.098 4.107-.027 3.38-.03 2.912.082 2.039.236.849.715.18 1.519.035c1.192-.216 2.072.65 2.52 2.48.167.679.177.777.176 1.646 0 .814-.024 1.097-.138 1.66-.047.231-.194.724-.238.794-.05.08-.18.125-.738.254-.3.07-.81.192-1.135.273-.325.081-.602.148-.617.148a.658.658 0 0 1-.151-.143z" fill="#fff"/></svg>