<?xml version="1.0" encoding="UTF-8"?>
<svg width="9.7039mm" height="9.636mm" version="1.1" viewBox="0 0 9.7039 9.636" xmlns="http://www.w3.org/2000/svg" xmlns:cc="http://creativecommons.org/ns#" xmlns:dc="http://purl.org/dc/elements/1.1/" xmlns:rdf="http://www.w3.org/1999/02/22-rdf-syntax-ns#">
<metadata>
<rdf:RDF>
<cc:Work rdf:about="">
<dc:format>image/svg+xml</dc:format>
<dc:type rdf:resource="http://purl.org/dc/dcmitype/StillImage"/>
<dc:title/>
</cc:Work>
</rdf:RDF>
</metadata>
<g transform="translate(-24.876 -28.524)">
<path d="m25.719 37.962-0.19836-0.19836v-4.8963h3.5965v5.293h-3.1998zm4.6196-2.4482v-2.6465h3.5965v4.8963l-0.39672 0.39672h-3.1998zm-5.3309-3.2858c-0.11542-0.08451-0.13172-0.18177-0.13172-0.786v-0.68956l0.22161-0.19796c0.19309-0.17248 0.27446-0.19796 0.63227-0.19796 0.39541 0 0.4088-0.0057 0.36076-0.15268-0.02744-0.08398-0.04832-0.29663-0.04638-0.47257 0.0074-0.67576 0.54814-1.2069 1.2286-1.2069 0.47745 0 0.60942 0.06486 1.2125 0.59598l0.53002 0.46675 0.20358-0.12385c0.11734-0.07139 0.33293-0.12385 0.50894-0.12385 0.17602 0 0.3916 0.05246 0.50894 0.12385l0.20358 0.12385 0.53002-0.46675c0.60311-0.53112 0.73508-0.59598 1.2125-0.59598 0.83332 0 1.3938 0.76233 1.1849 1.6117l-0.05424 0.22054h0.41148c0.35871 0 0.43989 0.02538 0.63309 0.19796l0.22161 0.19796v0.68956c0 0.60423-0.0163 0.7015-0.13172 0.786-0.19686 0.14413-9.2436 0.14413-9.4404 0zm3.7702-1.8963c0-0.01364-0.2758-0.2732-0.61288-0.5768-0.53097-0.47822-0.64602-0.552-0.86083-0.552-0.52304 0-0.76891 0.61363-0.3955 0.98704 0.15914 0.15914 0.20449 0.16656 1.0179 0.16656 0.46823 0 0.85132-0.01116 0.85132-0.02481zm3.7693-0.14176c0.36931-0.36931 0.12774-0.98704-0.38599-0.98704-0.22671 0-0.33066 0.06593-0.87034 0.552-0.33708 0.3036-0.61288 0.56316-0.61288 0.5768 0 0.01364 0.3831 0.02481 0.85132 0.02481 0.8134 0 0.85874-0.0074 1.0179-0.16656z" fill="#fff"/>
</g>
</svg>
