<?xml version="1.0" encoding="UTF-8" standalone="no"?>
<!-- Created with Inkscape (http://www.inkscape.org/) -->

<svg
   xmlns:dc="http://purl.org/dc/elements/1.1/"
   xmlns:cc="http://creativecommons.org/ns#"
   xmlns:rdf="http://www.w3.org/1999/02/22-rdf-syntax-ns#"
   xmlns:svg="http://www.w3.org/2000/svg"
   xmlns="http://www.w3.org/2000/svg"
   xmlns:sodipodi="http://sodipodi.sourceforge.net/DTD/sodipodi-0.dtd"
   xmlns:inkscape="http://www.inkscape.org/namespaces/inkscape"
   width="9.7038651mm"
   height="9.6360054mm"
   viewBox="0 0 9.7038652 9.6360051"
   version="1.1"
   id="svg8"
   inkscape:version="0.92.4 (5da689c313, 2019-01-14)"
   sodipodi:docname="gift.svg">
  <defs
     id="defs2" />
  <sodipodi:namedview
     id="base"
     pagecolor="#ffffff"
     bordercolor="#666666"
     borderopacity="1.0"
     inkscape:pageopacity="0.0"
     inkscape:pageshadow="2"
     inkscape:zoom="7.9195959"
     inkscape:cx="33.344982"
     inkscape:cy="-6.4645418"
     inkscape:document-units="mm"
     inkscape:current-layer="layer1"
     showgrid="false"
     fit-margin-top="0"
     fit-margin-left="0"
     fit-margin-right="0"
     fit-margin-bottom="0"
     inkscape:window-width="1920"
     inkscape:window-height="1017"
     inkscape:window-x="1072"
     inkscape:window-y="394"
     inkscape:window-maximized="1" />
  <metadata
     id="metadata5">
    <rdf:RDF>
      <cc:Work
         rdf:about="">
        <dc:format>image/svg+xml</dc:format>
        <dc:type
           rdf:resource="http://purl.org/dc/dcmitype/StillImage" />
        <dc:title></dc:title>
      </cc:Work>
    </rdf:RDF>
  </metadata>
  <g
     inkscape:label="Layer 1"
     inkscape:groupmode="layer"
     id="layer1"
     transform="translate(-24.875597,-28.524033)">
    <path
       style="fill:#ffffff;stroke-width:1"
       d="M 25.718617,37.96168 25.52026,37.763323 v -2.448151 -2.448151 h 1.798268 1.798269 v 2.646508 2.646509 h -1.599911 -1.599911 z m 4.619645,-2.448151 v -2.646508 h 1.798269 1.798268 v 2.448151 2.448151 l -0.198358,0.198357 -0.198357,0.198358 h -1.599911 -1.599911 z m -5.330941,-3.285821 c -0.115423,-0.08451 -0.131724,-0.181772 -0.131724,-0.786003 v -0.689564 l 0.221613,-0.197955 c 0.193093,-0.172479 0.274462,-0.197955 0.632271,-0.197955 0.395412,0 0.408805,-0.0057 0.360758,-0.152683 -0.02744,-0.08398 -0.04832,-0.296634 -0.04638,-0.472574 0.0074,-0.675765 0.548139,-1.206941 1.228597,-1.206941 0.477453,0 0.609419,0.06486 1.212533,0.595983 l 0.530019,0.466749 0.203578,-0.123854 c 0.117344,-0.07139 0.332928,-0.123853 0.508943,-0.123853 0.176016,0 0.3916,0.05246 0.508944,0.123853 l 0.203578,0.123854 0.530019,-0.466749 c 0.603114,-0.531119 0.735081,-0.595983 1.212534,-0.595983 0.833321,0 1.3938,0.76233 1.184919,1.611656 l -0.05424,0.220542 h 0.411476 c 0.358714,0 0.439894,0.02538 0.633089,0.197955 l 0.221614,0.197955 v 0.689564 c 0,0.604231 -0.0163,0.701497 -0.131724,0.786003 -0.196862,0.14413 -9.243555,0.14413 -9.440417,0 z m 3.77018,-1.896284 c 0,-0.01364 -0.275796,-0.273205 -0.612879,-0.576803 -0.530967,-0.478221 -0.646018,-0.551996 -0.860831,-0.551996 -0.523035,0 -0.768913,0.613632 -0.395502,0.987043 0.159142,0.159142 0.204491,0.166563 1.017887,0.166563 0.468229,0 0.851325,-0.01116 0.851325,-0.02481 z m 3.769269,-0.141756 c 0.369311,-0.369311 0.12774,-0.987043 -0.385992,-0.987043 -0.226714,0 -0.330658,0.06593 -0.870341,0.551996 -0.337083,0.303598 -0.612879,0.563159 -0.612879,0.576803 0,0.01364 0.383096,0.02481 0.851324,0.02481 0.813397,0 0.858745,-0.0074 1.017888,-0.166563 z"
       id="path865"
       inkscape:connector-curvature="0"
       sodipodi:nodetypes="cccccccccccccccccccccccsccsccscccsccssccsccsccccssscccscsscc" />
  </g>
</svg>
