<svg width="36.676" height="36.42" viewBox="0 0 9.704 9.636" xmlns="http://www.w3.org/2000/svg"><path d="M.843 9.438.645 9.24V4.343H4.24v5.293h-3.2zm4.62-2.448V4.343h3.596V9.24l-.397.396h-3.2zM.132 3.704C.016 3.619 0 3.522 0 2.918v-.69l.222-.198c.193-.172.274-.197.632-.197.395 0 .409-.006.36-.153a1.935 1.935 0 0 1-.046-.473A1.215 1.215 0 0 1 2.397 0c.477 0 .61.065 1.212.596l.53.467.204-.124a1.11 1.11 0 0 1 1.018 0l.203.124.53-.467C6.698.066 6.83 0 7.307 0 8.14 0 8.7.763 8.492 1.612l-.054.22h.411c.359 0 .44.026.633.199l.222.198v.69c0 .603-.017.7-.132.785-.197.144-9.244.144-9.44 0zm3.77-1.896c0-.014-.276-.273-.613-.577-.53-.478-.646-.552-.86-.552a.57.57 0 0 0-.396.987c.159.16.204.167 1.018.167.468 0 .85-.012.85-.025zm3.77-.142c.369-.37.127-.987-.387-.987-.226 0-.33.066-.87.552-.337.304-.613.563-.613.577 0 .013.383.025.851.025.814 0 .86-.008 1.018-.167z" fill="#fff"/></svg>