<?xml version="1.0" encoding="UTF-8" standalone="no"?>
<!-- Created with Inkscape (http://www.inkscape.org/) -->

<svg
   xmlns:dc="http://purl.org/dc/elements/1.1/"
   xmlns:cc="http://creativecommons.org/ns#"
   xmlns:rdf="http://www.w3.org/1999/02/22-rdf-syntax-ns#"
   xmlns:svg="http://www.w3.org/2000/svg"
   xmlns="http://www.w3.org/2000/svg"
   xmlns:sodipodi="http://sodipodi.sourceforge.net/DTD/sodipodi-0.dtd"
   xmlns:inkscape="http://www.inkscape.org/namespaces/inkscape"
   width="80.542801mm"
   height="39.851147mm"
   viewBox="0 0 80.5428 39.851147"
   version="1.1"
   id="svg8"
   inkscape:version="0.92.4 (5da689c313, 2019-01-14)"
   sodipodi:docname="guitar.svg">
  <defs
     id="defs2" />
  <sodipodi:namedview
     id="base"
     pagecolor="#ffffff"
     bordercolor="#666666"
     borderopacity="1.0"
     inkscape:pageopacity="0.0"
     inkscape:pageshadow="2"
     inkscape:zoom="1.4142136"
     inkscape:cx="81.639263"
     inkscape:cy="207.90305"
     inkscape:document-units="mm"
     inkscape:current-layer="layer1"
     showgrid="false"
     fit-margin-top="0"
     fit-margin-left="0"
     fit-margin-right="0"
     fit-margin-bottom="0"
     inkscape:window-width="1920"
     inkscape:window-height="1017"
     inkscape:window-x="1072"
     inkscape:window-y="394"
     inkscape:window-maximized="1"
     inkscape:pagecheckerboard="true" />
  <metadata
     id="metadata5">
    <rdf:RDF>
      <cc:Work
         rdf:about="">
        <dc:format>image/svg+xml</dc:format>
        <dc:type
           rdf:resource="http://purl.org/dc/dcmitype/StillImage" />
        <dc:title></dc:title>
      </cc:Work>
    </rdf:RDF>
  </metadata>
  <g
     inkscape:label="Layer 1"
     inkscape:groupmode="layer"
     id="layer1"
     transform="translate(29.0626,11.592544)">
    <path
       style="fill:#ffffff;stroke-width:0.99999994"
       d="m -21.295885,26.272049 c -1.103783,-0.820116 -1.815956,-1.545416 -2.736914,-2.787371 -2.641235,-3.561817 -4.65548,-9.596239 -4.989193,-14.9469708 -0.129756,-2.0804796 0.05548,-4.2346205 0.497966,-5.79097 0.487437,-1.7144591 1.753957,-3.8063566 2.938534,-4.8535571 0.731868,-0.6469917 1.928541,-1.4336396 2.772786,-1.8227216 1.4077,-0.6487603 3.466523,-1.1201891 5.482791,-1.2554525 1.774207,-0.1190214 2.684005,-0.012844 6.873064,0.8021158 3.0940471,0.6019328 3.7536027,0.6767867 5.2109249,0.5913908 1.2240232,-0.071727 2.9144939,-0.5621327 5.72278865,-1.6601748 3.35941295,-1.3135289 4.47003805,-1.5694094 5.89699955,-1.3586384 2.178527,0.3217839 4.1079999,1.7251348 5.6519039,4.1107666 0.299162,0.4622583 0.678742,1.1161638 0.843515,1.4531204 0.164776,0.3369581 0.433192,0.88586854 0.596481,1.21980538 0.163288,0.33393208 0.335389,0.62937949 0.382441,0.65654499 0.09227,0.0532725 6.186395,-1.40243362 12.406024,-2.96343187 0.840816,-0.2110284 2.632715,-0.6580958 3.981998,-0.9934839 3.839392,-0.9543519 4.057795,-1.0710995 5.211997,-2.786035 0.414999,-0.6166189 0.801868,-1.1456317 0.859705,-1.1755841 0.05784,-0.029955 0.555987,-0.079926 1.107001,-0.1110539 1.050306,-0.059331 1.231844,-0.1199409 1.18478,-0.3955656 -0.03838,-0.2247528 -0.380877,-0.7441658 -0.558213,-0.8465508 -0.217027,-0.1253005 -0.379303,-0.6751706 -0.295006,-0.9996199 0.22039,-0.8482467 1.276318,-1.0378697 1.772925,-0.318379 0.227658,0.3298346 0.25799,0.7251762 0.08948,1.1661292 -0.1106,0.2894049 -0.02336,1.1401522 0.125748,1.2262387 0.06023,0.034775 2.501263,-0.2209898 2.777384,-0.29101 0.143888,-0.036487 0.152241,-0.09289 0.06512,-0.439598 -0.05535,-0.2202861 -0.241025,-0.5687909 -0.416157,-0.7811267 -0.452416,-0.5485221 -0.563326,-1.0464619 -0.324774,-1.4580989 0.26259,-0.452919 1.112692,-0.582005 1.513553,-0.229718 0.424399,0.372974 0.467392,0.71944 0.191935,1.5467093 -0.101949,0.3061604 0.04423,0.9714263 0.238035,1.0833183 0.116905,0.067495 2.236073,-0.1848564 2.85938,-0.3404965 0.02399,-0.00599 0.03745,-0.1198177 0.02994,-0.2529348 -0.01881,-0.3329252 -0.270492,-0.7660288 -0.603239,-1.0380686 -0.66787,-0.5460237 -0.374756,-1.6032627 0.501534,-1.8089847 0.36759,-0.0863 0.907149,0.208198 1.070678,0.584381 0.115077,0.264724 0.106084,0.446856 -0.05122,1.0373722 -0.05407,0.2029695 -0.03927,0.5173933 0.03717,0.7896713 l 0.127015,0.4524157 0.784528,-0.1954871 c 0.872941,-0.2175189 1.289871,-0.2063032 1.528791,0.041129 0.46982,0.4865575 1.092744,1.7529892 1.270707,2.5833971 0.141519,0.6603568 0.192918,1.908285 0.0939,2.279676 -0.119182,0.4469946 -0.35775,0.6052427 -1.322126,0.8772671 l -0.798754,0.2252777 0.112724,0.4416625 c 0.111977,0.4387212 0.240123,0.6483918 0.593682,0.9713745 0.101427,0.092657 0.230562,0.3406945 0.286965,0.55119581 0.08304,0.30991765 0.06973,0.43958101 -0.06997,0.6815563 -0.369694,0.64032879 -1.331671,0.64061353 -1.741313,5.1223e-4 -0.189773,-0.2965393 -0.19864,-0.52884357 -0.0421,-1.10294404 0.05441,-0.1995594 0.05874,-0.5440755 0.0096,-0.7655952 -0.07843,-0.3536895 -0.111027,-0.399055 -0.267527,-0.3723307 -0.423245,0.072272 -2.538503,0.9483503 -2.616678,1.0837525 -0.106198,0.1839404 0.10499,0.83714715 0.339544,1.05022086 C 46.42417,0.10148 46.56587,0.31202904 46.588013,0.640124 46.616303,1.0593171 46.439606,1.3840816 46.074929,1.583132 45.658479,1.8104486 45.334641,1.800732 45.011094,1.551213 44.657,1.2781303 44.514952,0.79797468 44.648874,0.32679549 c 0.06446,-0.22678179 0.05789,-0.55274094 -0.0178,-0.88385996 L 44.51115,-1.0816438 44.204127,-0.96840725 c -0.168863,0.0622802 -0.789591,0.33044445 -1.379393,0.59592161 l -1.072371,0.48268504 0.137672,0.45054466 c 0.07572,0.2477992 0.211844,0.51687024 0.302497,0.59793434 0.09065,0.081065 0.234567,0.2094321 0.319819,0.2852568 0.08525,0.075833 0.195611,0.2894392 0.245249,0.4746878 0.15768,0.5884759 -0.124598,1.0468547 -0.759358,1.2330872 -0.432412,0.1268662 -0.72311,0.00893 -1.00631,-0.4082765 C 40.729517,2.3568462 40.714496,2.2227599 40.881713,1.7595522 41.009392,1.4058657 40.972098,0.79678076 40.817292,0.70740326 40.762481,0.67575826 40.271175,0.87017966 39.725497,1.1394482 39.17982,1.4087177 38.669211,1.6164273 38.590811,1.6010232 38.512409,1.5856186 37.931019,1.3089697 37.298824,0.98624314 36.019505,0.3331678 35.687743,0.26237654 34.595861,0.40947293 33.783506,0.51890909 30.554519,1.4200861 21.255694,4.132574 c -4.777125,1.3934997 -5.941879,1.7493145 -5.98803,1.82925 -0.02585,0.044777 -0.03356,0.2586603 -0.01714,0.4752923 0.246707,3.2531314 0.155002,4.5665707 -0.443955,6.3585707 -0.726901,2.174811 -2.235891,3.726777 -4.262224,4.38362 -0.7574647,0.245534 -2.120292,0.506336 -3.9847582,0.76255 -4.9818499,0.684607 -6.03281341,1.176621 -10.0926613,4.724925 -3.2946518,2.879527 -4.7757962,3.866444 -7.0386085,4.68997 -3.075835,1.11942 -6.086576,1.199845 -8.381094,0.223883 -0.650791,-0.276811 -1.873542,-0.959697 -2.343111,-1.308594 z m 10.514581,-11.905228 c 0.402247,-0.02769 0.8136268,-0.346473 0.866119,-0.671166 0.077808,-0.481313 -1.486997,-6.543309 -1.823693,-7.0649126 -0.359191,-0.556446 -1.168893,-0.5058908 -1.515602,0.094627 -0.144705,0.2506372 -0.164628,0.4092859 -0.103345,0.8229738 0.09923,0.6698353 1.152548,4.5956238 1.537079,5.7287948 0.334386,0.985407 0.471171,1.1288 1.039442,1.089683 z M -2.2727803,11.6465 c 1.0203557,0.213495 2.20701041,-0.05281 3.13359548,-0.703219 C 2.7221267,9.6367378 3.1619285,7.1661299 1.867092,5.29046 1.2766089,4.4351015 0.58334382,3.8921273 -0.24048724,3.6397797 -1.3568288,3.2978332 -2.924766,3.5407796 -3.8793576,4.2036117 c -0.4746082,0.3295469 -0.5725001,0.4407758 -1.01892,1.1577016 -0.7246791,1.163799 -0.8878253,1.9784805 -0.6293616,3.1427788 0.3487771,1.5711439 1.6225022,2.8008649 3.2548589,3.1424079 z"
       id="path826"
       inkscape:connector-curvature="0" />
  </g>
</svg>
