<svg width="304.414" height="150.618" viewBox="0 0 80.543 39.851" xmlns="http://www.w3.org/2000/svg"><path d="M7.767 37.865c-1.104-.82-1.816-1.545-2.737-2.787C2.39 31.516.375 25.48.04 20.13c-.129-2.08.056-4.235.499-5.791.487-1.715 1.754-3.807 2.938-4.854.732-.647 1.929-1.434 2.773-1.823 1.408-.648 3.467-1.12 5.483-1.255 1.774-.12 2.684-.013 6.873.802 3.094.602 3.754.677 5.211.591 1.224-.071 2.914-.562 5.723-1.66 3.36-1.313 4.47-1.57 5.897-1.358 2.178.321 4.108 1.725 5.652 4.11.299.463.678 1.117.843 1.453l.597 1.22c.163.334.335.63.382.657.092.053 6.187-1.403 12.406-2.964.84-.21 2.633-.658 3.982-.993 3.84-.954 4.058-1.071 5.212-2.786.415-.617.802-1.146.86-1.176.058-.03.556-.08 1.107-.11 1.05-.06 1.232-.12 1.185-.396-.039-.225-.381-.745-.559-.847-.217-.125-.379-.675-.295-1a.978.978 0 0 1 1.773-.318c.228.33.258.725.09 1.166-.11.29-.024 1.14.126 1.226.06.035 2.5-.22 2.777-.29.144-.037.152-.094.065-.44-.055-.22-.241-.569-.416-.781-.453-.549-.563-1.047-.325-1.458.263-.453 1.113-.582 1.514-.23.424.373.467.72.192 1.547-.102.306.044.971.238 1.083.117.067 2.236-.185 2.86-.34.023-.007.037-.12.029-.254-.019-.333-.27-.766-.603-1.038-.668-.546-.375-1.603.501-1.809.368-.086.907.209 1.071.585.115.264.106.447-.051 1.037-.054.203-.04.517.037.79l.127.452.785-.195c.872-.218 1.29-.207 1.528.04.47.487 1.093 1.754 1.271 2.584.142.66.193 1.909.094 2.28-.12.447-.358.605-1.322.877l-.799.225.113.442c.112.439.24.649.593.971.102.093.231.341.287.552.083.31.07.44-.07.681-.37.64-1.331.64-1.74 0-.19-.296-.2-.528-.043-1.102.054-.2.059-.544.01-.766-.079-.353-.111-.399-.268-.372-.423.072-2.538.948-2.617 1.084-.106.184.105.837.34 1.05.511.464.653.675.675 1.003.028.42-.148.744-.513.943-.417.227-.74.218-1.064-.032-.354-.273-.496-.753-.362-1.224.064-.227.058-.553-.018-.884l-.12-.525-.307.113c-.169.063-.79.33-1.38.596l-1.072.483.138.45c.076.248.212.517.303.599l.32.285c.085.076.195.29.245.474.157.589-.125 1.047-.76 1.234-.432.126-.723.008-1.006-.409-.262-.386-.277-.52-.11-.984.127-.353.09-.962-.065-1.052-.055-.031-.546.163-1.091.432-.546.27-1.057.477-1.135.462-.079-.015-.66-.292-1.292-.615-1.28-.653-1.611-.724-2.703-.577-.813.11-4.041 1.011-13.34 3.723-4.777 1.394-5.942 1.75-5.988 1.83-.026.044-.034.258-.017.475.246 3.253.155 4.567-.444 6.359-.727 2.174-2.236 3.726-4.262 4.383-.758.246-2.12.507-3.985.763-4.982.684-6.033 1.176-10.093 4.725-3.295 2.88-4.776 3.866-7.039 4.69-3.076 1.119-6.086 1.2-8.381.223-.65-.276-1.873-.96-2.343-1.308zM18.282 25.96c.402-.028.814-.346.866-.671.078-.481-1.487-6.543-1.824-7.065-.359-.557-1.168-.506-1.515.095-.145.25-.165.409-.104.823.1.67 1.153 4.595 1.538 5.728.334.986.47 1.13 1.039 1.09zm8.508-2.72c1.02.213 2.208-.053 3.134-.704 1.861-1.306 2.301-3.777 1.006-5.652-.59-.856-1.283-1.399-2.107-1.651-1.116-.342-2.684-.099-3.64.564-.474.33-.572.44-1.018 1.158-.725 1.163-.888 1.978-.63 3.142.35 1.571 1.623 2.801 3.256 3.143z" fill="#fff"/></svg>