<?xml version="1.0" encoding="UTF-8"?>
<svg width="80.543mm" height="39.851mm" version="1.1" viewBox="0 0 80.543 39.851" xmlns="http://www.w3.org/2000/svg" xmlns:cc="http://creativecommons.org/ns#" xmlns:dc="http://purl.org/dc/elements/1.1/" xmlns:rdf="http://www.w3.org/1999/02/22-rdf-syntax-ns#">
<metadata>
<rdf:RDF>
<cc:Work rdf:about="">
<dc:format>image/svg+xml</dc:format>
<dc:type rdf:resource="http://purl.org/dc/dcmitype/StillImage"/>
<dc:title/>
</cc:Work>
</rdf:RDF>
</metadata>
<g transform="translate(29.063 11.593)">
<path d="m-21.296 26.272c-1.1038-0.82012-1.816-1.5454-2.7369-2.7874-2.6412-3.5618-4.6555-9.5962-4.9892-14.947-0.12976-2.0805 0.05548-4.2346 0.49797-5.791 0.48744-1.7145 1.754-3.8064 2.9385-4.8536 0.73187-0.64699 1.9285-1.4336 2.7728-1.8227 1.4077-0.64876 3.4665-1.1202 5.4828-1.2555 1.7742-0.11902 2.684-0.012844 6.8731 0.80212 3.094 0.60193 3.7536 0.67679 5.2109 0.59139 1.224-0.071727 2.9145-0.56213 5.7228-1.6602 3.3594-1.3135 4.47-1.5694 5.897-1.3586 2.1785 0.32178 4.108 1.7251 5.6519 4.1108 0.29916 0.46226 0.67874 1.1162 0.84352 1.4531 0.16478 0.33696 0.43319 0.88587 0.59648 1.2198 0.16329 0.33393 0.33539 0.62938 0.38244 0.65654 0.09227 0.053272 6.1864-1.4024 12.406-2.9634 0.84082-0.21103 2.6327-0.6581 3.982-0.99348 3.8394-0.95435 4.0578-1.0711 5.212-2.786 0.415-0.61662 0.80187-1.1456 0.8597-1.1756 0.05784-0.029955 0.55599-0.079926 1.107-0.11105 1.0503-0.059331 1.2318-0.11994 1.1848-0.39557-0.03838-0.22475-0.38088-0.74417-0.55821-0.84655-0.21703-0.1253-0.3793-0.67517-0.29501-0.99962 0.22039-0.84825 1.2763-1.0379 1.7729-0.31838 0.22766 0.32983 0.25799 0.72518 0.08948 1.1661-0.1106 0.2894-0.02336 1.1402 0.12575 1.2262 0.06023 0.034775 2.5013-0.22099 2.7774-0.29101 0.14389-0.036487 0.15224-0.09289 0.06512-0.4396-0.05535-0.22029-0.24102-0.56879-0.41616-0.78113-0.45242-0.54852-0.56333-1.0465-0.32477-1.4581 0.26259-0.45292 1.1127-0.582 1.5136-0.22972 0.4244 0.37297 0.46739 0.71944 0.19194 1.5467-0.10195 0.30616 0.04423 0.97143 0.23804 1.0833 0.1169 0.067495 2.2361-0.18486 2.8594-0.3405 0.02399-0.00599 0.03745-0.11982 0.02994-0.25293-0.01881-0.33293-0.27049-0.76603-0.60324-1.0381-0.66787-0.54602-0.37476-1.6033 0.50153-1.809 0.36759-0.0863 0.90715 0.2082 1.0707 0.58438 0.11508 0.26472 0.10608 0.44686-0.05122 1.0374-0.05407 0.20297-0.03927 0.51739 0.03717 0.78967l0.12702 0.45242 0.78453-0.19549c0.87294-0.21752 1.2899-0.2063 1.5288 0.041129 0.46982 0.48656 1.0927 1.753 1.2707 2.5834 0.14152 0.66036 0.19292 1.9083 0.0939 2.2797-0.11918 0.44699-0.35775 0.60524-1.3221 0.87727l-0.79875 0.22528 0.11272 0.44166c0.11198 0.43872 0.24012 0.64839 0.59368 0.97137 0.10143 0.092657 0.23056 0.34069 0.28696 0.5512 0.08304 0.30992 0.06973 0.43958-0.06997 0.68156-0.36969 0.64033-1.3317 0.64061-1.7413 5.1223e-4 -0.18977-0.29654-0.19864-0.52884-0.0421-1.1029 0.05441-0.19956 0.05874-0.54408 0.0096-0.7656-0.07843-0.35369-0.11103-0.39906-0.26753-0.37233-0.42324 0.072272-2.5385 0.94835-2.6167 1.0838-0.1062 0.18394 0.10499 0.83715 0.33954 1.0502 0.5112 0.46438 0.6529 0.67493 0.67504 1.003 0.02829 0.41919-0.14841 0.74396-0.51308 0.94301-0.41645 0.22732-0.74029 0.2176-1.0638-0.031919-0.35409-0.27308-0.49614-0.75324-0.36222-1.2244 0.06446-0.22678 0.05789-0.55274-0.0178-0.88386l-0.11992-0.52458-0.30702 0.11324c-0.16886 0.06228-0.78959 0.33044-1.3794 0.59592l-1.0724 0.48269 0.13767 0.45054c0.07572 0.2478 0.21184 0.51687 0.3025 0.59793 0.09065 0.081065 0.23457 0.20943 0.31982 0.28526 0.08525 0.075833 0.19561 0.28944 0.24525 0.47469 0.15768 0.58848-0.1246 1.0469-0.75936 1.2331-0.43241 0.12687-0.72311 0.00893-1.0063-0.40828-0.26242-0.38659-0.27744-0.52067-0.11022-0.98388 0.12768-0.35369 0.090385-0.96277-0.064421-1.0521-0.054811-0.031645-0.54612 0.16278-1.0918 0.43204-0.54568 0.26927-1.0563 0.47698-1.1347 0.46158-0.078402-0.015405-0.65979-0.29205-1.292-0.61478-1.2793-0.65308-1.6111-0.72387-2.703-0.57677-0.81236 0.10944-4.0413 1.0106-13.34 3.7231-4.7771 1.3935-5.9419 1.7493-5.988 1.8292-0.02585 0.044777-0.03356 0.25866-0.01714 0.47529 0.24671 3.2531 0.155 4.5666-0.44396 6.3586-0.7269 2.1748-2.2359 3.7268-4.2622 4.3836-0.75746 0.24553-2.1203 0.50634-3.9848 0.76255-4.9818 0.68461-6.0328 1.1766-10.093 4.7249-3.2947 2.8795-4.7758 3.8664-7.0386 4.69-3.0758 1.1194-6.0866 1.1998-8.3811 0.22388-0.65079-0.27681-1.8735-0.9597-2.3431-1.3086zm10.515-11.905c0.40225-0.02769 0.81363-0.34647 0.86612-0.67117 0.077808-0.48131-1.487-6.5433-1.8237-7.0649-0.35919-0.55645-1.1689-0.50589-1.5156 0.094627-0.1447 0.25064-0.16463 0.40929-0.10334 0.82297 0.09923 0.66984 1.1525 4.5956 1.5371 5.7288 0.33439 0.98541 0.47117 1.1288 1.0394 1.0897zm8.5085-2.7203c1.0204 0.2135 2.207-0.05281 3.1336-0.70322 1.8613-1.3065 2.3011-3.7772 1.0063-5.6528-0.59048-0.85536-1.2837-1.3983-2.1076-1.6507-1.1163-0.34195-2.6843-0.099-3.6389 0.56383-0.47461 0.32955-0.5725 0.44078-1.0189 1.1577-0.72468 1.1638-0.88783 1.9785-0.62936 3.1428 0.34878 1.5711 1.6225 2.8009 3.2549 3.1424z" fill="#fff"/>
</g>
</svg>
