<?xml version="1.0" encoding="UTF-8" standalone="no"?>
<!-- Created with Inkscape (http://www.inkscape.org/) -->

<svg
   width="58.067245mm"
   height="76.966515mm"
   viewBox="0 0 58.067245 76.966515"
   version="1.1"
   id="svg5"
   inkscape:version="1.1 (c68e22c387, 2021-05-23)"
   sodipodi:docname="house.svg"
   xmlns:inkscape="http://www.inkscape.org/namespaces/inkscape"
   xmlns:sodipodi="http://sodipodi.sourceforge.net/DTD/sodipodi-0.dtd"
   xmlns="http://www.w3.org/2000/svg"
   xmlns:svg="http://www.w3.org/2000/svg">
  <sodipodi:namedview
     id="namedview7"
     pagecolor="#505050"
     bordercolor="#eeeeee"
     borderopacity="1"
     inkscape:pageshadow="0"
     inkscape:pageopacity="0"
     inkscape:pagecheckerboard="0"
     inkscape:document-units="mm"
     showgrid="false"
     fit-margin-top="0"
     fit-margin-left="0"
     fit-margin-right="0"
     fit-margin-bottom="0"
     inkscape:zoom="0.67081229"
     inkscape:cx="40.995075"
     inkscape:cy="237.77143"
     inkscape:window-width="1920"
     inkscape:window-height="1027"
     inkscape:window-x="1072"
     inkscape:window-y="424"
     inkscape:window-maximized="1"
     inkscape:current-layer="layer1" />
  <defs
     id="defs2" />
  <g
     inkscape:label="Layer 1"
     inkscape:groupmode="layer"
     id="layer1"
     transform="translate(-70.013594,-17.668223)">
    <path
       style="fill:#ffffff;stroke-width:0.36324"
       d="m 105.52954,94.122305 c -2.55756,-0.62098 -5.395,-1.87488 -7.960927,-3.51804 -8.747874,-5.60192 -14.699729,-5.89071 -23.557928,-1.14303 -1.66916,0.89461 -3.10758,1.55379 -3.196501,1.46487 -0.331578,-0.33157 1.411525,-4.77039 2.576852,-6.56199 0.664474,-1.02157 2.044615,-2.66854 3.066971,-3.65995 l 1.858836,-1.80255 v -9.14008 c 0,-5.02704 0.09981,-9.63892 0.221707,-10.2486 0.17025,-0.85124 2.456039,-3.24344 9.848511,-10.30695 5.29474,-5.05916 9.862322,-9.33408 10.150187,-9.49986 0.31929,-0.18387 0.834491,-0.0927 1.321149,0.23391 0.438773,0.29443 5.088543,4.65011 10.332833,9.67928 l 9.53507,9.14395 v 11.23605 c 0,6.17984 0.0973,11.23605 0.21637,11.23605 0.47212,0 2.63112,-1.71825 4.95982,-3.94731 l 2.45187,-2.34697 v 2.16273 c 0,6.22655 -4.01354,13.17002 -9.11791,15.77409 -3.42162,1.74557 -8.56732,2.2495 -12.70691,1.2444 z m -9.123302,-16.95523 c 0.268398,-0.2684 0.435889,-1.58443 0.435889,-3.42484 0,-3.87562 -0.238483,-4.13058 -3.863858,-4.13058 -4.010577,0 -4.127436,0.11148 -4.127436,3.93578 0,1.99193 0.163166,3.34692 0.435889,3.61964 0.271445,0.27145 1.614395,0.43589 3.559765,0.43589 1.945355,0 3.288305,-0.16444 3.559751,-0.43589 z m 12.709382,-3.1423 c 0.0677,-2.19214 -0.0446,-3.57679 -0.3169,-3.90484 -0.29963,-0.36102 -1.29749,-0.50828 -3.44431,-0.50828 -3.76816,0 -4.15339,0.38032 -4.15339,4.10036 0,3.84665 0.1009,3.93636 4.28777,3.81305 l 3.5219,-0.10365 z m -12.844295,-9.34281 c 0.712689,-0.7127 0.820597,-6.29892 0.134954,-6.9846 -0.271445,-0.27145 -1.614395,-0.43589 -3.559751,-0.43589 -1.945369,0 -3.288319,0.16444 -3.559765,0.43589 -0.272613,0.27261 -0.435889,1.62654 -0.435889,3.61436 0,3.8284 0.08869,3.91427 4.060509,3.93 2.062544,0.008 2.937878,-0.13766 3.359983,-0.55976 z m 12.527395,0.0626 c 0.27224,-0.32805 0.38463,-1.71269 0.3169,-3.90484 l -0.10489,-3.39657 -3.44486,-0.10557 c -4.19102,-0.12837 -4.36481,0.0199 -4.36481,3.72657 0,3.81889 0.36667,4.18867 4.1534,4.18867 2.14681,0 3.14467,-0.14726 3.4443,-0.50827 z m -37.339022,-7.98268 c -1.021504,-1.04084 -1.517676,-1.84367 -1.437775,-2.32637 0.172228,-1.04047 28.164019,-27.686276 29.084809,-27.686276 0.447078,0 3.410098,2.579283 7.719708,6.719956 3.84678,3.69598 7.09699,6.71995 7.22269,6.71995 0.12576,0 0.22856,-1.7163 0.22856,-3.81402 v -3.81404 h 3.63242 3.6324 v 7.47807 7.47806 l 3.26917,3.10297 c 2.15208,2.04268 3.26916,3.37135 3.26916,3.8884 0,0.8974 -2.81882,3.84261 -3.67772,3.84261 -0.30946,0 -5.77913,-4.99843 -12.15481,-11.10763 -6.37569,-6.10922 -11.95114,-11.35292 -12.389913,-11.6527 -0.488924,-0.33405 -1.000801,-0.42836 -1.322261,-0.24363 -0.288469,0.16578 -5.848986,5.40949 -12.356692,11.65268 -6.708929,6.43624 -12.119665,11.35128 -12.49608,11.35128 -0.365131,0 -1.365782,-0.71519 -2.223666,-1.58931 z M 117.26237,29.451491 c -0.98821,-0.692165 -1.8962,-2.373104 -1.8914,-3.5015 0.001,-0.459434 0.41058,-1.709715 0.9081,-2.778419 1.09999,-2.36293 1.12486,-3.083994 0.15334,-4.448374 -0.64406,-0.90448 -0.66739,-1.054975 -0.16359,-1.054975 1.06534,0 2.75613,1.108503 3.10985,2.038862 0.55665,1.464107 0.41133,2.581712 -0.59355,4.56474 -0.93241,1.840028 -1.0477,3.523026 -0.35008,5.110912 0.34588,0.787318 -0.10873,0.813966 -1.17267,0.06878 z"
       id="path836"
       sodipodi:nodetypes="sssssscsssssscssscssssssssssssssccsssssscsssscssssssssssscccccsssssssssscssssssss" />
  </g>
</svg>
