<svg width="219.466" height="290.899" viewBox="0 0 58.067 76.967" xmlns="http://www.w3.org/2000/svg"><path d="M35.516 76.454c-2.558-.621-5.395-1.875-7.96-3.518-8.749-5.602-14.7-5.89-23.559-1.143-1.67.895-3.107 1.554-3.196 1.465-.332-.332 1.411-4.77 2.577-6.562.664-1.022 2.044-2.669 3.067-3.66l1.858-1.803v-9.14c0-5.027.1-9.639.222-10.249.17-.851 2.456-3.243 9.849-10.307 5.294-5.059 9.862-9.334 10.15-9.5.319-.184.834-.092 1.32.234.44.295 5.09 4.65 10.334 9.68l9.535 9.144V52.33c0 6.18.097 11.236.216 11.236.472 0 2.631-1.719 4.96-3.948l2.452-2.347v2.163c0 6.227-4.014 13.17-9.118 15.774-3.422 1.746-8.567 2.25-12.707 1.244zm-9.123-16.955c.268-.268.436-1.584.436-3.425 0-3.875-.239-4.13-3.864-4.13-4.01 0-4.128.111-4.128 3.935 0 1.992.163 3.347.436 3.62.272.271 1.615.436 3.56.436s3.288-.165 3.56-.436zm12.709-3.142c.067-2.192-.045-3.577-.317-3.905-.3-.361-1.298-.508-3.444-.508-3.769 0-4.154.38-4.154 4.1 0 3.847.101 3.936 4.288 3.813l3.522-.104zm-12.844-9.343c.712-.713.82-6.299.135-6.985-.272-.271-1.615-.436-3.56-.436-1.946 0-3.288.165-3.56.436-.273.273-.436 1.627-.436 3.615 0 3.828.089 3.914 4.06 3.93 2.063.008 2.939-.138 3.36-.56zm12.527.063c.272-.329.384-1.713.317-3.905l-.105-3.397-3.445-.105c-4.191-.129-4.365.02-4.365 3.726 0 3.819.367 4.189 4.153 4.189 2.147 0 3.145-.147 3.445-.508zm-37.34-7.983C.426 38.053-.071 37.25.009 36.767.18 35.727 28.172 9.081 29.093 9.081c.447 0 3.41 2.58 7.72 6.72 3.846 3.696 7.097 6.72 7.222 6.72.126 0 .229-1.716.229-3.814v-3.814h7.265V29.85l3.269 3.103c2.152 2.043 3.27 3.372 3.27 3.889 0 .897-2.82 3.842-3.679 3.842-.31 0-5.779-4.998-12.155-11.108-6.375-6.109-11.95-11.353-12.39-11.653-.489-.334-1-.428-1.322-.243-.288.166-5.849 5.41-12.357 11.653-6.709 6.436-12.12 11.35-12.496 11.35-.365 0-1.366-.714-2.224-1.589zm45.804-27.31c-.989-.692-1.896-2.373-1.892-3.502.001-.46.41-1.71.908-2.778 1.1-2.363 1.125-3.084.154-4.448C45.775.15 45.75 0 46.255 0c1.065 0 2.756 1.108 3.11 2.038.557 1.465.411 2.582-.594 4.565-.932 1.84-1.047 3.523-.35 5.111.346.787-.108.814-1.172.069z" fill="#fff"/></svg>