<?xml version="1.0" encoding="UTF-8"?>
<svg width="58.067mm" height="76.967mm" version="1.1" viewBox="0 0 58.067 76.967" xmlns="http://www.w3.org/2000/svg">
<g transform="translate(-70.014 -17.668)">
<path d="m105.53 94.122c-2.5576-0.62098-5.395-1.8749-7.9609-3.518-8.7479-5.6019-14.7-5.8907-23.558-1.143-1.6692 0.89461-3.1076 1.5538-3.1965 1.4649-0.33158-0.33157 1.4115-4.7704 2.5769-6.562 0.66447-1.0216 2.0446-2.6685 3.067-3.66l1.8588-1.8026v-9.1401c0-5.027 0.09981-9.6389 0.22171-10.249 0.17025-0.85124 2.456-3.2434 9.8485-10.307 5.2947-5.0592 9.8623-9.3341 10.15-9.4999 0.31929-0.18387 0.83449-0.0927 1.3211 0.23391 0.43877 0.29443 5.0885 4.6501 10.333 9.6793l9.5351 9.144v11.236c0 6.1798 0.0973 11.236 0.21637 11.236 0.47212 0 2.6311-1.7182 4.9598-3.9473l2.4519-2.347v2.1627c0 6.2266-4.0135 13.17-9.1179 15.774-3.4216 1.7456-8.5673 2.2495-12.707 1.2444zm-9.1233-16.955c0.2684-0.2684 0.43589-1.5844 0.43589-3.4248 0-3.8756-0.23848-4.1306-3.8639-4.1306-4.0106 0-4.1274 0.11148-4.1274 3.9358 0 1.9919 0.16317 3.3469 0.43589 3.6196 0.27144 0.27145 1.6144 0.43589 3.5598 0.43589 1.9454 0 3.2883-0.16444 3.5598-0.43589zm12.709-3.1423c0.0677-2.1921-0.0446-3.5768-0.3169-3.9048-0.29963-0.36102-1.2975-0.50828-3.4443-0.50828-3.7682 0-4.1534 0.38032-4.1534 4.1004 0 3.8466 0.1009 3.9364 4.2878 3.813l3.5219-0.10365zm-12.844-9.3428c0.71269-0.7127 0.8206-6.2989 0.13495-6.9846-0.27144-0.27145-1.6144-0.43589-3.5598-0.43589-1.9454 0-3.2883 0.16444-3.5598 0.43589-0.27261 0.27261-0.43589 1.6265-0.43589 3.6144 0 3.8284 0.08869 3.9143 4.0605 3.93 2.0625 8e-3 2.9379-0.13766 3.36-0.55976zm12.527 0.0626c0.27224-0.32805 0.38463-1.7127 0.3169-3.9048l-0.10489-3.3966-3.4449-0.10557c-4.191-0.12837-4.3648 0.0199-4.3648 3.7266 0 3.8189 0.36667 4.1887 4.1534 4.1887 2.1468 0 3.1447-0.14726 3.4443-0.50827zm-37.339-7.9827c-1.0215-1.0408-1.5177-1.8437-1.4378-2.3264 0.17223-1.0405 28.164-27.686 29.085-27.686 0.44708 0 3.4101 2.5793 7.7197 6.72 3.8468 3.696 7.097 6.72 7.2227 6.72 0.12576 0 0.22856-1.7163 0.22856-3.814v-3.814h7.2648v14.956l3.2692 3.103c2.1521 2.0427 3.2692 3.3714 3.2692 3.8884 0 0.8974-2.8188 3.8426-3.6777 3.8426-0.30946 0-5.7791-4.9984-12.155-11.108-6.3757-6.1092-11.951-11.353-12.39-11.653-0.48892-0.33405-1.0008-0.42836-1.3223-0.24363-0.28847 0.16578-5.849 5.4095-12.357 11.653-6.7089 6.4362-12.12 11.351-12.496 11.351-0.36513 0-1.3658-0.71519-2.2237-1.5893zm45.803-27.31c-0.98821-0.69216-1.8962-2.3731-1.8914-3.5015 1e-3 -0.45943 0.41058-1.7097 0.9081-2.7784 1.1-2.3629 1.1249-3.084 0.15334-4.4484-0.64406-0.90448-0.66739-1.055-0.16359-1.055 1.0653 0 2.7561 1.1085 3.1098 2.0389 0.55665 1.4641 0.41133 2.5817-0.59355 4.5647-0.93241 1.84-1.0477 3.523-0.35008 5.1109 0.34588 0.78732-0.10873 0.81397-1.1727 0.06878z" fill="#fff" stroke-width=".36324"/>
</g>
</svg>
