<?xml version="1.0" encoding="UTF-8"?>
<svg width="77.924mm" height="68.516mm" version="1.1" viewBox="0 0 77.924 68.516" xmlns="http://www.w3.org/2000/svg">
<g transform="translate(-45.966 -35.311)">
<path d="m59.129 103.58c-3.0931-1.1389-4.3478-3.9356-3.1701-7.0656 0.86724-2.3047 2.6906-4.0727 8.696-8.4321 3.0166-2.1897 6.7511-4.9659 8.2989-6.1692 3.1344-2.4368 7.9014-6.5408 7.9014-6.8023 0-0.22343-7.5792-7.7508-8.5935-8.5347-0.74757-0.57777-1.0072-0.60924-5.0271-0.60924-3.4226 0-4.5057-0.09307-5.6251-0.48335-5.2748-1.8392-11.878-9.2892-14.251-16.078-1.3933-3.9864-1.7541-7.5124-1.0211-9.9806 0.35022-1.1793 0.5627-1.4511 1.5214-1.9463 0.92736-0.47899 1.5359-0.57176 3.6278-0.55302 6.2406 0.0559 12.532 3.0827 18.28 8.7948 2.4002 2.3851 2.9694 3.1233 3.9688 5.1474l1.1667 2.363 0.0024 4.4068c0.0024 4.3092 0.01768 4.4297 0.69387 5.4422 0.83736 1.2538 6.8366 7.5523 7.9458 8.3422l0.7929 0.5646 1.068-1.0253c0.58742-0.56389 2.1748-2.2429 3.5275-3.7312 2.8004-3.0811 3.0806-3.6928 3.692-8.0589 0.82071-5.8616 2.1999-7.7695 10.985-15.196 3.5486-2.9999 10.077-8.1734 10.766-8.5319 0.65571-0.34114 1.0362-0.0091 0.69184 0.6037-0.11702 0.20826-3.3084 3.7311-7.0919 7.8285-3.7836 4.0974-6.9172 7.6784-6.9637 7.9578-0.0576 0.34594 0.069 0.50779 0.39688 0.50737 0.26478-3.39e-4 3.7556-3.0456 7.7575-6.7672 8.0376-7.4747 8.3541-7.7381 8.7842-7.3081 0.45322 0.45323-0.0769 1.098-7.3682 8.9614-6.2818 6.7747-7.1594 7.9188-6.2949 8.2066 0.15421 0.05134 3.65-3.0344 7.7685-6.8572 4.1185-3.8228 7.7413-7.089 8.0507-7.2581 0.63115-0.34503 0.96604-0.23754 0.96604 0.31007 0 0.20251-3.2147 3.8503-7.1438 8.1063s-7.1438 7.8862-7.1438 8.0672c0 0.4653 0.45883 0.6919 0.8927 0.44087 0.20225-0.11702 3.4476-3.0716 7.212-6.5658 8.2117-7.6223 8.5566-7.9154 8.906-7.5661 0.17814 0.17815 0.10829 0.51051-0.21167 1.0071-0.839 1.3021-8.4332 10.7-10.862 13.441-5.5536 6.2689-7.2425 7.3439-12.692 8.0787-4.276 0.5766-4.9553 0.88543-7.7682 3.5319-1.3982 1.3154-3.0489 2.9237-3.6682 3.574l-1.126 1.1823 0.59683 0.64548c1.1034 1.1933 7.2236 5.9721 13.368 10.438 3.3535 2.4374 6.6621 5.0568 7.3525 5.8208 2.75 3.0434 3.1682 6.2227 1.1249 8.55-1.1188 1.2743-2.1976 1.7784-3.8058 1.7784-2.969 0-5.3783-1.8329-8.9678-6.8225-6.564-9.1242-12.661-16.929-13.083-16.747-0.90953 0.39238-6.8292 7.7899-12.342 15.424-2.3121 3.2015-4.7844 6.3906-5.494 7.0869-2.2795 2.237-5.083 3.2182-7.0869 2.4803z" fill="#fff" stroke-width=".26458"/>
</g>
</svg>
