<?xml version="1.0" encoding="UTF-8" standalone="no"?>
<!-- Created with Inkscape (http://www.inkscape.org/) -->

<svg
   width="77.9244mm"
   height="68.516296mm"
   viewBox="0 0 77.9244 68.516297"
   version="1.1"
   id="svg5"
   inkscape:version="1.1 (c68e22c387, 2021-05-23)"
   sodipodi:docname="knife-fork.svg"
   xmlns:inkscape="http://www.inkscape.org/namespaces/inkscape"
   xmlns:sodipodi="http://sodipodi.sourceforge.net/DTD/sodipodi-0.dtd"
   xmlns="http://www.w3.org/2000/svg"
   xmlns:svg="http://www.w3.org/2000/svg">
  <sodipodi:namedview
     id="namedview7"
     pagecolor="#505050"
     bordercolor="#eeeeee"
     borderopacity="1"
     inkscape:pageshadow="0"
     inkscape:pageopacity="0"
     inkscape:pagecheckerboard="0"
     inkscape:document-units="mm"
     showgrid="false"
     fit-margin-top="0"
     fit-margin-left="0"
     fit-margin-right="0"
     fit-margin-bottom="0"
     inkscape:zoom="0.94867184"
     inkscape:cx="167.07569"
     inkscape:cy="118.58684"
     inkscape:window-width="1920"
     inkscape:window-height="1027"
     inkscape:window-x="1072"
     inkscape:window-y="424"
     inkscape:window-maximized="1"
     inkscape:current-layer="layer1" />
  <defs
     id="defs2" />
  <g
     inkscape:label="Layer 1"
     inkscape:groupmode="layer"
     id="layer1"
     transform="translate(-45.966445,-35.310601)">
    <path
       style="fill:#ffffff;stroke-width:0.264583"
       d="m 59.128865,103.58456 c -3.09307,-1.13889 -4.347828,-3.935551 -3.170055,-7.065559 0.867239,-2.30474 2.690578,-4.072737 8.696011,-8.432059 3.016563,-2.189713 6.751054,-4.965854 8.298869,-6.1692 3.134352,-2.436799 7.901416,-6.540752 7.901416,-6.802308 0,-0.22343 -7.579227,-7.750797 -8.593489,-8.534692 -0.747572,-0.577773 -1.007197,-0.609237 -5.027084,-0.609237 -3.422613,0 -4.505729,-0.09307 -5.625065,-0.483354 C 56.334622,63.648945 49.731364,56.199 47.358308,49.409669 45.96497,45.423316 45.604213,41.897246 46.337181,39.429076 c 0.350217,-1.179311 0.562703,-1.451149 1.521354,-1.946297 0.927358,-0.478986 1.53593,-0.571755 3.627822,-0.553015 6.240646,0.0559 12.5318,3.082657 18.280197,8.794827 2.400218,2.38509 2.969389,3.123303 3.96875,5.147434 l 1.166677,2.363021 0.0024,4.406761 c 0.0024,4.309219 0.01768,4.429681 0.69387,5.442189 0.837361,1.253836 6.836621,7.552341 7.945823,8.342164 l 0.792904,0.564597 1.068043,-1.025252 c 0.587423,-0.563888 2.174796,-2.242945 3.527491,-3.731242 2.800422,-3.081144 3.080644,-3.692816 3.691967,-8.05887 0.820711,-5.861564 2.199907,-7.769496 10.984811,-15.196025 3.5486,-2.999895 10.07662,-8.173394 10.76571,-8.531894 0.65571,-0.341137 1.03618,-0.0091 0.69184,0.603696 -0.11702,0.208257 -3.30838,3.731076 -7.09192,7.828486 -3.78355,4.09741 -6.91722,7.678429 -6.96372,7.957821 -0.0576,0.345937 0.069,0.507789 0.39688,0.507371 0.26478,-3.39e-4 3.75564,-3.045563 7.75746,-6.767164 8.03756,-7.474742 8.35412,-7.738105 8.78417,-7.308055 0.45322,0.453226 -0.0769,1.097965 -7.36825,8.961402 -6.28185,6.774724 -7.15944,7.918831 -6.29491,8.206628 0.15421,0.05134 3.65005,-3.034424 7.76852,-6.857242 4.11848,-3.822819 7.74128,-7.088962 8.05068,-7.258095 0.63115,-0.345031 0.96604,-0.237542 0.96604,0.310068 0,0.202509 -3.21469,3.850327 -7.14375,8.106261 -3.92906,4.255934 -7.14375,7.886192 -7.14375,8.067239 0,0.465303 0.45883,0.691901 0.8927,0.440872 0.20225,-0.117017 3.44765,-3.07163 7.212,-6.565807 8.21166,-7.622313 8.55665,-7.915396 8.90598,-7.566065 0.17814,0.178147 0.10829,0.510514 -0.21167,1.007091 -0.839,1.302132 -8.43317,10.699536 -10.86201,13.44119 -5.55365,6.268927 -7.24246,7.343879 -12.69214,8.07874 -4.275994,0.576596 -4.955277,0.885434 -7.768243,3.531855 -1.398233,1.315447 -3.048939,2.923741 -3.668234,3.573984 l -1.125992,1.182261 0.596826,0.64548 c 1.103384,1.193332 7.223591,5.972131 13.367983,10.438025 3.35346,2.437376 6.66208,5.056751 7.3525,5.820833 2.74995,3.043365 3.16825,6.222723 1.12489,8.549981 -1.11884,1.27429 -2.19764,1.77839 -3.80581,1.77839 -2.96903,0 -5.37827,-1.83289 -8.967771,-6.822464 -6.563985,-9.124231 -12.661051,-16.928669 -13.083,-16.746636 -0.909532,0.392385 -6.829182,7.789863 -12.342452,15.423719 -2.312134,3.201459 -4.784449,6.390581 -5.494033,7.086941 -2.279488,2.23701 -5.082967,3.21817 -7.086949,2.48028 z"
       id="path1521" />
  </g>
</svg>
