<svg width="294.516" height="258.958" viewBox="0 0 77.924 68.516" xmlns="http://www.w3.org/2000/svg"><path d="M13.163 68.269c-3.093-1.139-4.348-3.936-3.17-7.066.867-2.304 2.69-4.072 8.696-8.432 3.016-2.19 6.751-4.966 8.299-6.169 3.134-2.437 7.901-6.54 7.901-6.802 0-.224-7.579-7.751-8.593-8.535-.748-.578-1.008-.61-5.027-.61-3.423 0-4.506-.092-5.626-.482-5.274-1.84-11.878-9.29-14.25-16.078C-.002 10.108-.363 6.582.37 4.114c.35-1.18.563-1.451 1.522-1.946.927-.48 1.536-.572 3.628-.553 6.24.055 12.532 3.082 18.28 8.794 2.4 2.385 2.969 3.124 3.968 5.148l1.167 2.363.002 4.407c.003 4.309.018 4.43.694 5.442.838 1.254 6.837 7.552 7.946 8.342l.793.565 1.068-1.026c.587-.564 2.175-2.243 3.528-3.73 2.8-3.082 3.08-3.694 3.692-8.06.82-5.861 2.2-7.77 10.985-15.196C61.192 5.664 67.72.491 68.41.132c.655-.34 1.036-.009.691.604-.117.208-3.308 3.731-7.091 7.828-3.784 4.098-6.918 7.679-6.964 7.958-.058.346.069.508.397.508.264 0 3.755-3.046 7.757-6.768 8.038-7.474 8.354-7.738 8.784-7.308.454.454-.077 1.098-7.368 8.962-6.282 6.774-7.16 7.919-6.295 8.206.155.052 3.65-3.034 7.769-6.857 4.118-3.823 7.741-7.089 8.05-7.258.632-.345.967-.237.967.31 0 .203-3.215 3.85-7.144 8.106s-7.144 7.887-7.144 8.068c0 .465.459.692.893.44.202-.117 3.447-3.071 7.212-6.565C77.135 8.743 77.48 8.45 77.83 8.8c.178.178.108.51-.212 1.007-.839 1.302-8.433 10.7-10.862 13.44-5.554 6.27-7.243 7.345-12.692 8.08-4.276.576-4.955.885-7.768 3.531-1.398 1.316-3.05 2.924-3.668 3.574l-1.126 1.183.596.645c1.104 1.193 7.224 5.972 13.368 10.438 3.354 2.437 6.662 5.057 7.353 5.82 2.75 3.044 3.168 6.224 1.125 8.55-1.119 1.275-2.198 1.78-3.806 1.78-2.969 0-5.378-1.834-8.968-6.823-6.564-9.124-12.66-16.93-13.083-16.747-.91.392-6.829 7.79-12.342 15.424-2.312 3.201-4.784 6.39-5.494 7.087-2.28 2.237-5.083 3.218-7.087 2.48z" fill="#fff"/></svg>