<?xml version="1.0" encoding="UTF-8" standalone="no"?>
<!-- Created with Inkscape (http://www.inkscape.org/) -->

<svg
   xmlns:dc="http://purl.org/dc/elements/1.1/"
   xmlns:cc="http://creativecommons.org/ns#"
   xmlns:rdf="http://www.w3.org/1999/02/22-rdf-syntax-ns#"
   xmlns:svg="http://www.w3.org/2000/svg"
   xmlns="http://www.w3.org/2000/svg"
   xmlns:sodipodi="http://sodipodi.sourceforge.net/DTD/sodipodi-0.dtd"
   xmlns:inkscape="http://www.inkscape.org/namespaces/inkscape"
   width="33.135872mm"
   height="28.530832mm"
   viewBox="0 0 33.135872 28.530832"
   version="1.1"
   id="svg8"
   inkscape:version="0.92.4 (5da689c313, 2019-01-14)"
   sodipodi:docname="leaf-arrow-left.svg">
  <defs
     id="defs2" />
  <sodipodi:namedview
     id="base"
     pagecolor="#ffffff"
     bordercolor="#666666"
     borderopacity="1.0"
     inkscape:pageopacity="0.0"
     inkscape:pageshadow="2"
     inkscape:zoom="1.979899"
     inkscape:cx="4.4882453"
     inkscape:cy="-15.578942"
     inkscape:document-units="mm"
     inkscape:current-layer="layer1"
     showgrid="false"
     showguides="false"
     fit-margin-top="0"
     fit-margin-left="0"
     fit-margin-right="0"
     fit-margin-bottom="0"
     inkscape:window-width="1920"
     inkscape:window-height="1017"
     inkscape:window-x="1072"
     inkscape:window-y="394"
     inkscape:window-maximized="1" />
  <metadata
     id="metadata5">
    <rdf:RDF>
      <cc:Work
         rdf:about="">
        <dc:format>image/svg+xml</dc:format>
        <dc:type
           rdf:resource="http://purl.org/dc/dcmitype/StillImage" />
        <dc:title></dc:title>
      </cc:Work>
    </rdf:RDF>
  </metadata>
  <g
     inkscape:label="Layer 1"
     inkscape:groupmode="layer"
     id="layer1"
     transform="translate(-34.619068,-131.07805)">
    <path
       style="fill:#ffffff;stroke-width:1"
       d="m 53.398849,131.12404 c 1.10142,0.13421 3.02851,0.63337 3.08014,0.79784 0.0125,0.04 -0.0952,0.11434 -0.2395,0.16519 -0.54346,0.19151 -1.8228,0.83515 -2.5619,1.28889 -3.05199,1.87363 -5.52435,4.4458 -6.83599,7.11195 -0.58829,1.1958 -0.52316,1.20831 0.58186,0.11177 1.53908,-1.52729 3.23384,-2.73199 5.54596,-3.94232 3.83867,-2.00942 8.51878,-3.43278 12.48476,-3.79698 0.96346,-0.0885 2.386,-0.0931 2.29608,-0.007 -0.0364,0.0347 -0.55224,0.25785 -1.1463,0.49595 -1.98667,0.79626 -3.85767,1.83031 -5.30432,2.93154 -0.89477,0.68114 -1.81333,1.60393 -3.11507,3.12944 -1.66865,1.95548 -2.40917,2.64582 -3.61478,3.36981 -1.09193,0.65574 -3.42664,1.53697 -3.74664,1.41418 -0.0913,-0.035 -0.10713,-0.24194 -0.10713,-1.40213 0,-0.88781 -0.025,-1.36103 -0.0718,-1.36103 -0.0689,0 -1.37031,0.74123 -4.97502,2.83347 -0.91694,0.5322 -1.679171,1.00366 -1.693841,1.04767 -0.0147,0.044 0.20247,0.21139 0.48254,0.37196 0.28006,0.16056 1.167711,0.67575 1.972571,1.14486 0.80485,0.4691 1.83965,1.06805 2.29957,1.33099 0.45991,0.26294 1.0685,0.61132 1.35243,0.77418 0.28392,0.16286 0.54262,0.27979 0.57489,0.25984 0.0323,-0.0199 0.0587,-0.64589 0.0587,-1.39099 0,-1.421 -0.007,-1.39011 0.31358,-1.35591 0.27266,0.0291 1.82211,0.58238 2.45842,0.8779 1.82232,0.84634 2.69839,1.58067 4.73185,3.96631 1.25605,1.47359 2.0105,2.23921 2.91431,2.95743 1.49859,1.19088 3.38236,2.23774 5.64399,3.13651 0.49824,0.19801 0.93568,0.38952 0.97209,0.4256 0.10319,0.10225 -1.53759,0.078 -2.64003,-0.0389 -1.99386,-0.21158 -4.23422,-0.69052 -6.31087,-1.34913 -2.12369,-0.67352 -3.39396,-1.19151 -5.40051,-2.20221 -2.74505,-1.38269 -4.4202,-2.55214 -6.13218,-4.28099 -0.38326,-0.38704 -0.71897,-0.70376 -0.74601,-0.70382 -0.15258,-2.7e-4 0.58497,1.5021 1.1801,2.40398 1.90555,2.88772 5.16248,5.53368 8.50907,6.91285 0.20773,0.0856 0.35268,0.18465 0.3282,0.22427 -0.0475,0.0767 -0.66446,0.2724 -1.54226,0.48905 -2.11066,0.52092 -4.40151,0.44542 -6.30058,-0.20765 -2.25687,-0.77612 -4.380101,-2.41061 -6.694891,-5.15379 -0.74482,-0.88267 -0.93249,-1.12228 -2.53785,-3.2403 -2.29514,-3.02808 -3.36297,-4.22159 -4.52135,-5.05347 -0.17714,-0.12722 -0.32207,-0.25291 -0.32207,-0.27932 0,-0.0264 0.30895,-0.30088 0.68656,-0.60992 1.09245,-0.89411 2.04948,-1.97961 3.91466,-4.4402 2.21341,-2.91999 2.91021,-3.76933 4.10927,-5.00888 2.197001,-2.27117 4.402251,-3.57848 6.829031,-4.04835 0.7172,-0.13887 2.47478,-0.19291 3.2403,-0.0996 z"
       id="path830-8"
       inkscape:connector-curvature="0" />
  </g>
</svg>
