<?xml version="1.0" encoding="UTF-8"?>
<svg width="33.136mm" height="28.531mm" version="1.1" viewBox="0 0 33.136 28.531" xmlns="http://www.w3.org/2000/svg" xmlns:cc="http://creativecommons.org/ns#" xmlns:dc="http://purl.org/dc/elements/1.1/" xmlns:rdf="http://www.w3.org/1999/02/22-rdf-syntax-ns#">
<metadata>
<rdf:RDF>
<cc:Work rdf:about="">
<dc:format>image/svg+xml</dc:format>
<dc:type rdf:resource="http://purl.org/dc/dcmitype/StillImage"/>
<dc:title/>
</cc:Work>
</rdf:RDF>
</metadata>
<g transform="translate(-34.619 -131.08)">
<path d="m53.399 131.12c1.1014 0.13421 3.0285 0.63337 3.0801 0.79784 0.0125 0.04-0.0952 0.11434-0.2395 0.16519-0.54346 0.19151-1.8228 0.83515-2.5619 1.2889-3.052 1.8736-5.5244 4.4458-6.836 7.112-0.58829 1.1958-0.52316 1.2083 0.58186 0.11177 1.5391-1.5273 3.2338-2.732 5.546-3.9423 3.8387-2.0094 8.5188-3.4328 12.485-3.797 0.96346-0.0885 2.386-0.0931 2.2961-7e-3 -0.0364 0.0347-0.55224 0.25785-1.1463 0.49595-1.9867 0.79626-3.8577 1.8303-5.3043 2.9315-0.89477 0.68114-1.8133 1.6039-3.1151 3.1294-1.6686 1.9555-2.4092 2.6458-3.6148 3.3698-1.0919 0.65574-3.4266 1.537-3.7466 1.4142-0.0913-0.035-0.10713-0.24194-0.10713-1.4021 0-0.88781-0.025-1.361-0.0718-1.361-0.0689 0-1.3703 0.74123-4.975 2.8335-0.91694 0.5322-1.6792 1.0037-1.6938 1.0477-0.0147 0.044 0.20247 0.21139 0.48254 0.37196 0.28006 0.16056 1.1677 0.67575 1.9726 1.1449 0.80485 0.4691 1.8396 1.068 2.2996 1.331 0.45991 0.26294 1.0685 0.61132 1.3524 0.77418 0.28392 0.16286 0.54262 0.27979 0.57489 0.25984 0.0323-0.0199 0.0587-0.64589 0.0587-1.391 0-1.421-7e-3 -1.3901 0.31358-1.3559 0.27266 0.0291 1.8221 0.58238 2.4584 0.8779 1.8223 0.84634 2.6984 1.5807 4.7318 3.9663 1.256 1.4736 2.0105 2.2392 2.9143 2.9574 1.4986 1.1909 3.3824 2.2377 5.644 3.1365 0.49824 0.19801 0.93568 0.38952 0.97209 0.4256 0.10319 0.10225-1.5376 0.078-2.64-0.0389-1.9939-0.21158-4.2342-0.69052-6.3109-1.3491-2.1237-0.67352-3.394-1.1915-5.4005-2.2022-2.745-1.3827-4.4202-2.5521-6.1322-4.281-0.38326-0.38704-0.71897-0.70376-0.74601-0.70382-0.15258-2.7e-4 0.58497 1.5021 1.1801 2.404 1.9056 2.8877 5.1625 5.5337 8.5091 6.9128 0.20773 0.0856 0.35268 0.18465 0.3282 0.22427-0.0475 0.0767-0.66446 0.2724-1.5423 0.48905-2.1107 0.52092-4.4015 0.44542-6.3006-0.20765-2.2569-0.77612-4.3801-2.4106-6.6949-5.1538-0.74482-0.88267-0.93249-1.1223-2.5378-3.2403-2.2951-3.0281-3.363-4.2216-4.5214-5.0535-0.17714-0.12722-0.32207-0.25291-0.32207-0.27932 0-0.0264 0.30895-0.30088 0.68656-0.60992 1.0924-0.89411 2.0495-1.9796 3.9147-4.4402 2.2134-2.92 2.9102-3.7693 4.1093-5.0089 2.197-2.2712 4.4023-3.5785 6.829-4.0484 0.7172-0.13887 2.4748-0.19291 3.2403-0.0996z" fill="#fff"/>
</g>
</svg>
