<svg width="125.238" height="107.834" viewBox="0 0 33.136 28.531" xmlns="http://www.w3.org/2000/svg"><path d="M18.78.04c1.101.134 3.029.633 3.08.798.013.04-.095.114-.24.165-.543.192-1.822.835-2.561 1.289-3.052 1.874-5.525 4.446-6.836 7.112-.589 1.196-.523 1.208.582.112 1.539-1.528 3.233-2.732 5.546-3.943 3.838-2.009 8.518-3.432 12.485-3.797.963-.088 2.386-.093 2.296-.007-.037.035-.553.258-1.147.496-1.986.797-3.857 1.83-5.304 2.932-.895.681-1.813 1.604-3.115 3.13-1.669 1.955-2.41 2.645-3.615 3.369-1.092.656-3.426 1.537-3.746 1.414-.092-.035-.108-.242-.108-1.402 0-.888-.025-1.36-.071-1.36-.07 0-1.37.74-4.975 2.833-.917.532-1.68 1.003-1.694 1.047-.015.044.202.212.482.372.28.16 1.168.676 1.973 1.145a412.796 412.796 0 0 0 3.652 2.105c.284.163.543.28.575.26.032-.02.059-.646.059-1.39 0-1.422-.007-1.39.313-1.357.273.03 1.822.583 2.459.878 1.822.847 2.698 1.58 4.731 3.967 1.256 1.473 2.01 2.239 2.915 2.957 1.498 1.19 3.382 2.238 5.644 3.136.498.198.935.39.972.426.103.102-1.538.078-2.64-.039-1.994-.211-4.234-.69-6.311-1.349-2.124-.673-3.394-1.191-5.4-2.202-2.746-1.383-4.42-2.552-6.133-4.281-.383-.387-.719-.704-.746-.704-.152 0 .585 1.502 1.18 2.404 1.906 2.888 5.163 5.534 8.51 6.913.207.085.352.184.328.224-.048.077-.665.272-1.543.49-2.11.52-4.401.445-6.3-.209-2.257-.776-4.38-2.41-6.695-5.153-.745-.883-.933-1.123-2.538-3.24-2.295-3.029-3.363-4.222-4.521-5.054C.145 14.4 0 14.274 0 14.247c0-.026.31-.3.687-.61 1.092-.893 2.05-1.979 3.915-4.44 2.213-2.92 2.91-3.769 4.109-5.008C10.908 1.917 13.113.61 15.54.14c.717-.139 2.475-.193 3.24-.1z" fill="#fff"/></svg>