<?xml version="1.0" encoding="UTF-8" standalone="no"?>
<!-- Created with Inkscape (http://www.inkscape.org/) -->

<svg
   xmlns:dc="http://purl.org/dc/elements/1.1/"
   xmlns:cc="http://creativecommons.org/ns#"
   xmlns:rdf="http://www.w3.org/1999/02/22-rdf-syntax-ns#"
   xmlns:svg="http://www.w3.org/2000/svg"
   xmlns="http://www.w3.org/2000/svg"
   xmlns:sodipodi="http://sodipodi.sourceforge.net/DTD/sodipodi-0.dtd"
   xmlns:inkscape="http://www.inkscape.org/namespaces/inkscape"
   width="26.51623mm"
   height="19.247025mm"
   viewBox="0 0 26.51623 19.247024"
   version="1.1"
   id="svg8"
   inkscape:version="0.92.4 (5da689c313, 2019-01-14)"
   sodipodi:docname="letter.svg">
  <defs
     id="defs2" />
  <sodipodi:namedview
     id="base"
     pagecolor="#ffffff"
     bordercolor="#666666"
     borderopacity="1.0"
     inkscape:pageopacity="0.0"
     inkscape:pageshadow="2"
     inkscape:zoom="3.959798"
     inkscape:cx="122.61228"
     inkscape:cy="4.1618423"
     inkscape:document-units="mm"
     inkscape:current-layer="layer1"
     showgrid="false"
     fit-margin-top="0"
     fit-margin-left="0"
     fit-margin-right="0"
     fit-margin-bottom="0"
     inkscape:window-width="1920"
     inkscape:window-height="1017"
     inkscape:window-x="1072"
     inkscape:window-y="394"
     inkscape:window-maximized="1" />
  <metadata
     id="metadata5">
    <rdf:RDF>
      <cc:Work
         rdf:about="">
        <dc:format>image/svg+xml</dc:format>
        <dc:type
           rdf:resource="http://purl.org/dc/dcmitype/StillImage" />
        <dc:title></dc:title>
      </cc:Work>
    </rdf:RDF>
  </metadata>
  <g
     inkscape:label="Layer 1"
     inkscape:groupmode="layer"
     id="layer1"
     transform="translate(-21.473865,-26.5319)">
    <path
       style="fill:#ffffff;stroke-width:0.99999994"
       d="m 23.295591,45.718265 c -0.699154,-0.172676 -1.263979,-0.630377 -1.63306,-1.323334 -0.179443,-0.336909 -0.188666,-0.74012 -0.188666,-8.248368 0,-7.508249 0.0092,-7.91146 0.188666,-8.248368 0.264061,-0.49578 0.653328,-0.892239 1.127025,-1.147848 L 23.194384,26.5319 h 11.537595 11.537596 l 0.404828,0.218447 c 0.473696,0.255609 0.862963,0.652068 1.127024,1.147848 0.179443,0.336908 0.188667,0.740119 0.188667,8.248368 v 7.894144 l -0.218447,0.404828 c -0.255609,0.473696 -0.652068,0.862963 -1.147847,1.127025 -0.339022,0.180568 -0.84074,0.189353 -11.689407,0.204679 -6.234349,0.0088 -11.471811,-0.01773 -11.638802,-0.05898 z m 22.720967,-1.149067 c 0,-0.01548 -1.695594,-1.721943 -3.767985,-3.792139 l -3.767985,-3.763995 -1.171195,1.156771 c -1.288565,1.272692 -1.770143,1.56513 -2.577414,1.56513 -0.80727,0 -1.288849,-0.292438 -2.577414,-1.56513 l -1.171196,-1.156771 -3.767984,3.763995 c -2.072391,2.070196 -3.767984,3.776659 -3.767984,3.792139 0,0.01548 5.07806,0.02814 11.284578,0.02814 6.206518,0 11.284579,-0.01266 11.284579,-0.02814 z M 26.408222,39.86541 30.127069,36.145544 26.382407,32.401908 22.637745,28.658273 v 7.463501 c 0,4.104926 0.01162,7.463501 0.02582,7.463501 0.0142,0 1.699296,-1.67394 3.744661,-3.719865 z m 20.417991,-3.743636 v -7.463501 l -3.744661,3.743635 -3.744663,3.743636 3.718848,3.719866 c 2.045366,2.045925 3.730463,3.719865 3.744661,3.719865 0.0142,0 0.02582,-3.358575 0.02582,-7.463501 z m -6.217808,-2.935515 c 2.956924,-2.936267 5.383409,-5.372826 5.392189,-5.414574 0.0088,-0.04175 -5.062097,-0.0759 -11.268615,-0.0759 -6.206518,0 -11.277394,0.03415 -11.268615,0.0759 0.0088,0.04175 2.435266,2.478307 5.39219,5.414574 l 5.376227,5.338667 h 0.500198 0.500199 z"
       id="path852"
       inkscape:connector-curvature="0" />
  </g>
</svg>
