<?xml version="1.0" encoding="UTF-8"?>
<svg width="26.516mm" height="19.247mm" version="1.1" viewBox="0 0 26.516 19.247" xmlns="http://www.w3.org/2000/svg" xmlns:cc="http://creativecommons.org/ns#" xmlns:dc="http://purl.org/dc/elements/1.1/" xmlns:rdf="http://www.w3.org/1999/02/22-rdf-syntax-ns#">
<metadata>
<rdf:RDF>
<cc:Work rdf:about="">
<dc:format>image/svg+xml</dc:format>
<dc:type rdf:resource="http://purl.org/dc/dcmitype/StillImage"/>
<dc:title/>
</cc:Work>
</rdf:RDF>
</metadata>
<g transform="translate(-21.474 -26.532)">
<path d="m23.296 45.718c-0.69915-0.17268-1.264-0.63038-1.6331-1.3233-0.17944-0.33691-0.18867-0.74012-0.18867-8.2484 0-7.5082 0.0092-7.9115 0.18867-8.2484 0.26406-0.49578 0.65333-0.89224 1.127-1.1478l0.40483-0.21845h23.075l0.40483 0.21845c0.4737 0.25561 0.86296 0.65207 1.127 1.1478 0.17944 0.33691 0.18867 0.74012 0.18867 8.2484v7.8941l-0.21845 0.40483c-0.25561 0.4737-0.65207 0.86296-1.1478 1.127-0.33902 0.18057-0.84074 0.18935-11.689 0.20468-6.2343 0.0088-11.472-0.01773-11.639-0.05898zm22.721-1.1491c0-0.01548-1.6956-1.7219-3.768-3.7921l-3.768-3.764-1.1712 1.1568c-1.2886 1.2727-1.7701 1.5651-2.5774 1.5651-0.80727 0-1.2888-0.29244-2.5774-1.5651l-1.1712-1.1568-3.768 3.764c-2.0724 2.0702-3.768 3.7767-3.768 3.7921s5.0781 0.02814 11.285 0.02814 11.285-0.01266 11.285-0.02814zm-19.608-4.7038 3.7188-3.7199-7.4893-7.4873v7.4635c0 4.1049 0.01162 7.4635 0.02582 7.4635s1.6993-1.6739 3.7447-3.7199zm20.418-3.7436v-7.4635l-7.4893 7.4873 3.7188 3.7199c2.0454 2.0459 3.7305 3.7199 3.7447 3.7199 0.0142 0 0.02582-3.3586 0.02582-7.4635zm-6.2178-2.9355c2.9569-2.9363 5.3834-5.3728 5.3922-5.4146 0.0088-0.04175-5.0621-0.0759-11.269-0.0759s-11.277 0.03415-11.269 0.0759c0.0088 0.04175 2.4353 2.4783 5.3922 5.4146l5.3762 5.3387h1.0004z" fill="#fff"/>
</g>
</svg>
