<svg width="100.218" height="72.745" viewBox="0 0 26.516 19.247" xmlns="http://www.w3.org/2000/svg"><path d="M1.822 19.186c-.7-.173-1.264-.63-1.633-1.323-.18-.337-.189-.74-.189-8.249C0 2.106.01 1.703.19 1.366A2.773 2.773 0 0 1 1.316.218L1.72 0h23.075l.405.218c.473.256.863.652 1.127 1.148.179.337.188.74.188 8.248v7.894l-.218.405a2.773 2.773 0 0 1-1.148 1.127c-.339.18-.84.19-11.689.205-6.234.009-11.472-.018-11.639-.06zm22.721-1.15c0-.015-1.696-1.721-3.768-3.791l-3.768-3.764-1.171 1.157c-1.289 1.272-1.77 1.565-2.578 1.565-.807 0-1.288-.293-2.577-1.565L9.51 10.48l-3.768 3.764c-2.073 2.07-3.768 3.777-3.768 3.792s5.078.028 11.285.028 11.285-.013 11.285-.028zM4.935 13.334l3.719-3.72-7.49-7.487v7.463c0 4.105.012 7.464.026 7.464s1.7-1.674 3.745-3.72zM25.353 9.59V2.126l-7.49 7.487 3.72 3.72c2.045 2.046 3.73 3.72 3.744 3.72.014 0 .026-3.359.026-7.463zm-6.218-2.936c2.957-2.936 5.384-5.373 5.392-5.415.01-.041-5.062-.075-11.269-.075s-11.277.034-11.269.075c.01.042 2.436 2.479 5.393 5.415l5.376 5.339h1z" fill="#fff"/></svg>