<?xml version="1.0" encoding="UTF-8"?>
<svg width="67.466mm" height="84.295mm" version="1.1" viewBox="0 0 67.466 84.295" xmlns="http://www.w3.org/2000/svg">
<g transform="translate(-52.463 -64.346)">
<path d="m53.498 148.43c-0.60535-0.26317-1.0346-0.98585-1.0353-1.743-5.39e-4 -0.75121 0.62441-1.5306 1.4004-1.7461 0.34762-0.0966 10.995-0.14438 31.798-0.14282 30.417 3e-3 31.292 0.01 31.871 0.27297 0.69561 0.31583 1.0813 0.94348 1.0813 1.7596 0 0.6621-0.37207 1.2172-1.0464 1.561-0.46089 0.23501-2.2773 0.24882-32.049 0.24377-26.776-4e-3 -31.63-0.0357-32.021-0.20544zm5.7678-6.2904c-0.13714-0.0404-0.24935-0.0998-0.24935-0.13188 0-0.0649 1.2893-1.8662 7.3369-10.251 5.3098-7.3617 8.7196-12.092 11.401-15.816 1.1849-1.6457 3.0611-4.248 4.1694-5.783l2.0151-2.7909 1.1106 0.0616c1.0126 0.0562 1.1795 0.0252 1.8917-0.34986 1.8449-0.9719 2.5732-3.1152 1.6931-4.9828-0.5641-1.1971-2.1011-2.1845-3.4004-2.1845-1.3207 0-2.7276 0.92692-3.3558 2.211-0.32514 0.66458-0.37306 0.92007-0.32662 1.7418 0.03587 0.63502 0.16364 1.1725 0.37514 1.5782l0.32071 0.61528-0.31975 0.45335c-0.17586 0.24935-1.983 2.7616-4.0158 5.5828-2.0328 2.8212-6.1433 8.5277-9.1343 12.681-2.991 4.1534-6.4559 8.9623-7.6997 10.686-1.2438 1.7241-2.6072 3.6155-3.0297 4.2033s-0.793 1.0942-0.82334 1.1255c-0.03032 0.0312-0.18313-0.22522-0.33954-0.56995-0.39271-0.86554-0.3896-2.2559 0.0069-3.0749 0.37981-0.7846 1.2968-1.5704 2.1089-1.8072l0.63411-0.18489 0.96044-2.6244c5.073-13.862 6.9069-26.467 5.1056-35.095-0.2436-1.1668-0.26169-1.439-0.10524-1.5836 0.10391-0.09607 3.6833-2.8229 7.9543-6.0595 4.271-3.2367 8.4269-6.3924 9.2354-7.0126 0.87697-0.67282 1.5538-1.0956 1.6777-1.0481 0.11425 0.04379 4.2295 2.9776 9.1451 6.5194 4.9155 3.5418 9.819 7.0748 10.897 7.8511 1.0775 0.77626 1.9611 1.4544 1.9635 1.5069 2e-3 0.05253-1.7071 5.1375-3.7988 11.3l-3.8031 11.204-1.0101 0.0953c-3.5747 0.33741-8.4254 1.7929-13.055 3.917-6.0053 2.7556-13.956 7.8563-19.963 12.807l-1.2219 1.007-0.07247 0.90283c-0.11445 1.4257-0.76017 2.4099-2.0028 3.0525-0.44253 0.22884-1.8255 0.37809-2.2752 0.24553zm47.554-47.262c-2.3742-1.7187-8.9535-6.46-17.597-12.681-2.3902-1.7203-4.4961-3.2705-4.6799-3.445-0.94469-0.89658 0.13092-2.5211 1.3599-2.0538 0.18024 0.0685 1.4979 0.97155 2.9281 2.0067 4.2839 3.1006 15.037 10.853 19.528 14.079 1.2387 0.88968 2.3447 1.7497 2.4579 1.9113 0.33355 0.47622 0.25279 1.06-0.21079 1.5236-0.74601 0.74602-1.0552 0.63652-3.7868-1.3409zm1.7098-3.9913c-0.78366-0.56941-2.6751-1.935-4.2033-3.0345-11.237-8.086-15.768-11.359-15.916-11.5-0.13227-0.12572 0.44218-1.5087 2.5116-6.0467 1.4757-3.2361 2.7182-5.9188 2.761-5.9616 0.04281-0.0428 1.7017 1.0929 3.6864 2.5239 1.9847 1.431 5.0512 3.6394 6.8145 4.9077 11.329 8.1487 15.744 11.36 15.744 11.452 0 0.09083-9.8544 8.7157-9.941 8.7008-0.0181-0.0037-0.67403-0.47156-1.4577-1.041z" fill="#fff" stroke-width=".14248"/>
</g>
</svg>
