<svg width="254.99" height="318.595" viewBox="0 0 67.466 84.295" xmlns="http://www.w3.org/2000/svg"><path d="M1.035 84.084C.43 83.821 0 83.098 0 82.341c0-.751.624-1.53 1.4-1.746.348-.097 10.995-.144 31.798-.143 30.417.003 31.292.01 31.871.273.696.316 1.081.944 1.081 1.76 0 .662-.372 1.217-1.046 1.56-.46.236-2.277.25-32.049.244-26.776-.004-31.63-.035-32.021-.205zm5.768-6.29c-.137-.04-.25-.1-.25-.132 0-.065 1.29-1.866 7.337-10.251 5.31-7.362 8.72-12.092 11.401-15.816a6501.44 6501.44 0 0 1 4.17-5.783l2.015-2.791 1.11.061c1.013.057 1.18.026 1.892-.35 1.845-.971 2.573-3.115 1.693-4.982-.564-1.197-2.1-2.185-3.4-2.185-1.32 0-2.728.927-3.356 2.211-.325.665-.373.92-.327 1.742.036.635.164 1.173.376 1.578l.32.616-.32.453c-.175.25-1.982 2.761-4.015 5.583-2.033 2.82-6.144 8.527-9.135 12.68a19782.338 19782.338 0 0 1-10.729 14.89 46.562 46.562 0 0 1-.823 1.125c-.03.032-.183-.225-.34-.57-.393-.865-.39-2.255.007-3.074.38-.785 1.297-1.57 2.109-1.808l.634-.184.96-2.625c5.074-13.862 6.907-26.467 5.106-35.095-.243-1.167-.262-1.439-.105-1.583.104-.097 3.683-2.823 7.954-6.06 4.271-3.237 8.427-6.392 9.236-7.013.877-.672 1.553-1.095 1.677-1.048.115.044 4.23 2.978 9.145 6.52l10.897 7.85c1.078.777 1.961 1.455 1.964 1.508.002.052-1.707 5.137-3.799 11.3l-3.803 11.204-1.01.095c-3.575.337-8.426 1.793-13.055 3.917-6.005 2.756-13.956 7.856-19.963 12.807l-1.222 1.007-.073.903c-.114 1.426-.76 2.41-2.002 3.052-.443.23-1.826.378-2.276.246zm47.554-47.262c-2.374-1.72-8.954-6.46-17.597-12.681-2.39-1.72-4.496-3.27-4.68-3.445-.945-.897.13-2.522 1.36-2.054.18.068 1.498.971 2.928 2.007 4.284 3.1 15.037 10.853 19.528 14.079 1.239.89 2.345 1.75 2.458 1.91.333.477.253 1.06-.211 1.524-.746.746-1.055.637-3.787-1.34zm1.71-3.992c-.784-.57-2.675-1.935-4.204-3.034-11.237-8.086-15.768-11.36-15.916-11.5-.132-.126.442-1.509 2.512-6.047 1.476-3.236 2.718-5.919 2.76-5.962.044-.042 1.703 1.093 3.687 2.524 1.985 1.431 5.052 3.64 6.815 4.908 11.329 8.149 15.744 11.36 15.744 11.452 0 .09-9.855 8.716-9.941 8.7a58.138 58.138 0 0 1-1.458-1.04z" fill="#fff"/></svg>