<?xml version="1.0" encoding="UTF-8" standalone="no"?>
<!-- Created with Inkscape (http://www.inkscape.org/) -->

<svg
   width="67.465721mm"
   height="84.294685mm"
   viewBox="0 0 67.46572 84.294683"
   version="1.1"
   id="svg5"
   inkscape:version="1.1 (c68e22c387, 2021-05-23)"
   sodipodi:docname="pen.svg"
   xmlns:inkscape="http://www.inkscape.org/namespaces/inkscape"
   xmlns:sodipodi="http://sodipodi.sourceforge.net/DTD/sodipodi-0.dtd"
   xmlns="http://www.w3.org/2000/svg"
   xmlns:svg="http://www.w3.org/2000/svg">
  <sodipodi:namedview
     id="namedview7"
     pagecolor="#505050"
     bordercolor="#eeeeee"
     borderopacity="1"
     inkscape:pageshadow="0"
     inkscape:pageopacity="0"
     inkscape:pagecheckerboard="0"
     inkscape:document-units="mm"
     showgrid="false"
     fit-margin-top="0"
     fit-margin-left="0"
     fit-margin-right="0"
     fit-margin-bottom="0"
     inkscape:zoom="0.94867184"
     inkscape:cx="218.72685"
     inkscape:cy="203.96937"
     inkscape:window-width="1920"
     inkscape:window-height="1027"
     inkscape:window-x="1072"
     inkscape:window-y="424"
     inkscape:window-maximized="1"
     inkscape:current-layer="layer1" />
  <defs
     id="defs2" />
  <g
     inkscape:label="Layer 1"
     inkscape:groupmode="layer"
     id="layer1"
     transform="translate(-52.46282,-64.346313)">
    <path
       style="fill:#ffffff;stroke-width:0.142483"
       d="m 53.498103,148.4348 c -0.605354,-0.26317 -1.03461,-0.98585 -1.035283,-1.74296 -5.39e-4,-0.75121 0.624406,-1.5306 1.400406,-1.74613 0.347617,-0.0966 10.994542,-0.14438 31.797873,-0.14282 30.416551,0.003 31.291641,0.01 31.871381,0.27297 0.69561,0.31583 1.08132,0.94348 1.08132,1.75961 0,0.6621 -0.37207,1.21717 -1.04637,1.561 -0.46089,0.23501 -2.27727,0.24882 -32.04882,0.24377 -26.775677,-0.004 -31.630019,-0.0357 -32.020507,-0.20544 z m 5.7678,-6.29044 c -0.13714,-0.0404 -0.249346,-0.0998 -0.249346,-0.13188 0,-0.0649 1.289261,-1.86616 7.336877,-10.25081 5.309754,-7.36166 8.719627,-12.09209 11.400582,-15.81575 1.184869,-1.64568 3.061115,-4.24805 4.169443,-5.78303 l 2.015137,-2.79088 1.110594,0.0616 c 1.012607,0.0562 1.179516,0.0252 1.89166,-0.34986 1.844887,-0.9719 2.573196,-3.11522 1.693147,-4.98279 -0.564103,-1.19711 -2.101068,-2.184501 -3.400351,-2.184501 -1.320728,0 -2.727602,0.926921 -3.355843,2.211001 -0.325144,0.66458 -0.373056,0.92007 -0.326619,1.74176 0.03587,0.63502 0.16364,1.17248 0.375139,1.57823 l 0.320713,0.61528 -0.319753,0.45335 c -0.175865,0.24935 -1.982986,2.7616 -4.015829,5.58279 -2.032844,2.82118 -6.143264,8.52767 -9.134268,12.68107 -2.991005,4.15343 -6.455861,8.96227 -7.699681,10.68632 -1.243822,1.72407 -2.607173,3.61553 -3.029671,4.20328 -0.422498,0.58775 -0.793001,1.09421 -0.823341,1.12548 -0.03032,0.0312 -0.183131,-0.22522 -0.339535,-0.56995 -0.392707,-0.86554 -0.389604,-2.25588 0.0069,-3.07487 0.379809,-0.7846 1.296817,-1.57039 2.10893,-1.8072 l 0.634106,-0.18489 0.960444,-2.62436 c 5.07301,-13.86167 6.906857,-26.46721 5.105574,-35.09486 -0.243601,-1.1668 -0.26169,-1.438958 -0.105242,-1.58359 0.103907,-0.09607 3.68334,-2.822854 7.954305,-6.059529 4.27096,-3.236675 8.426892,-6.392362 9.235397,-7.01265 0.876969,-0.672815 1.55381,-1.095631 1.677731,-1.048082 0.11425,0.04379 4.22952,2.97758 9.14506,6.519427 4.915535,3.541846 9.818967,7.074847 10.896507,7.851095 1.07753,0.776261 1.96109,1.454354 1.96346,1.506894 0.002,0.05253 -1.70707,5.137525 -3.79877,11.299985 l -3.803072,11.20447 -1.01008,0.0953 c -3.574659,0.33741 -8.425388,1.79286 -13.054525,3.917 -6.005279,2.75559 -13.956062,7.85631 -19.963419,12.80726 l -1.221865,1.00699 -0.07247,0.90283 c -0.11445,1.42574 -0.760173,2.40991 -2.002808,3.0525 -0.442532,0.22884 -1.825453,0.37809 -2.275183,0.24553 z M 106.82,94.881966 c -2.37423,-1.718714 -8.953532,-6.46 -17.5968,-12.680892 -2.390174,-1.720298 -4.496137,-3.270537 -4.679924,-3.444964 -0.944688,-0.896575 0.130915,-2.521064 1.359866,-2.053805 0.180245,0.0685 1.497907,0.971549 2.928138,2.006718 4.283891,3.100577 15.03692,10.852918 19.52844,14.078937 1.23869,0.889676 2.34473,1.749744 2.45786,1.911269 0.33355,0.476218 0.25279,1.06001 -0.21079,1.523588 -0.74601,0.746018 -1.05525,0.63652 -3.78679,-1.340851 z m 1.70981,-3.991276 c -0.78366,-0.569407 -2.67514,-1.934951 -4.20329,-3.034537 C 93.08908,79.770168 88.558733,76.496711 88.410522,76.355835 c -0.132273,-0.125717 0.44218,-1.508716 2.511622,-6.04674 1.475714,-3.236064 2.718156,-5.918778 2.760974,-5.961611 0.04281,-0.0428 1.701722,1.092936 3.68644,2.523909 1.98472,1.430972 5.051242,3.639415 6.814482,4.907664 11.32913,8.148656 15.7445,11.360203 15.7445,11.451845 0,0.09083 -9.85437,8.715743 -9.94104,8.700758 -0.0181,-0.0037 -0.67403,-0.471563 -1.45769,-1.04097 z"
       id="path971" />
  </g>
</svg>
