<?xml version="1.0" encoding="UTF-8" standalone="no"?>
<!-- Created with Inkscape (http://www.inkscape.org/) -->

<svg
   xmlns:dc="http://purl.org/dc/elements/1.1/"
   xmlns:cc="http://creativecommons.org/ns#"
   xmlns:rdf="http://www.w3.org/1999/02/22-rdf-syntax-ns#"
   xmlns:svg="http://www.w3.org/2000/svg"
   xmlns="http://www.w3.org/2000/svg"
   xmlns:sodipodi="http://sodipodi.sourceforge.net/DTD/sodipodi-0.dtd"
   xmlns:inkscape="http://www.inkscape.org/namespaces/inkscape"
   width="44.180336mm"
   height="28.045834mm"
   viewBox="0 0 44.180336 28.045834"
   version="1.1"
   id="svg8"
   inkscape:version="0.92.4 (5da689c313, 2019-01-14)"
   sodipodi:docname="pingpong.svg">
  <defs
     id="defs2" />
  <sodipodi:namedview
     id="base"
     pagecolor="#ffffff"
     bordercolor="#666666"
     borderopacity="1.0"
     inkscape:pageopacity="0.0"
     inkscape:pageshadow="2"
     inkscape:zoom="1.4142136"
     inkscape:cx="58.435304"
     inkscape:cy="-12.039403"
     inkscape:document-units="mm"
     inkscape:current-layer="layer1"
     showgrid="false"
     fit-margin-top="0"
     fit-margin-left="0"
     fit-margin-right="0"
     fit-margin-bottom="0"
     inkscape:window-width="1920"
     inkscape:window-height="1017"
     inkscape:window-x="1072"
     inkscape:window-y="394"
     inkscape:window-maximized="1"
     inkscape:pagecheckerboard="true" />
  <metadata
     id="metadata5">
    <rdf:RDF>
      <cc:Work
         rdf:about="">
        <dc:format>image/svg+xml</dc:format>
        <dc:type
           rdf:resource="http://purl.org/dc/dcmitype/StillImage" />
        <dc:title></dc:title>
      </cc:Work>
    </rdf:RDF>
  </metadata>
  <g
     inkscape:label="Layer 1"
     inkscape:groupmode="layer"
     id="layer1"
     transform="translate(22.923219,57.980339)">
    <path
       style="fill:#ffffff;stroke-width:0.99999994"
       d="m -4.4821299,-31.069 c -0.612382,-0.623972 -1.113422,-1.25654 -1.113422,-1.405707 0,-0.149167 0.332679,-0.589939 0.739287,-0.979496 l 0.739287,-0.708281 1.381604,1.398981 1.381603,1.398982 -0.746304,0.715007 c -0.41047,0.393256 -0.863831,0.715008 -1.007471,0.715008 -0.143639,0 -0.762203,-0.510522 -1.374584,-1.134494 z m 2.586429,-1.915075 c -3.19378,-3.205528 -4.747047,-4.239871 -5.923558,-3.944586 -0.377691,0.0948 -0.680985,0.07015 -0.673989,-0.05477 0.007,-0.124917 1.090885,-1.358214 2.40864,-2.740662 1.589616,-1.667656 2.349953,-2.311046 2.259332,-1.911827 -0.342751,1.509967 0.246843,2.326577 4.06175699,5.62568 2.03113201,1.756502 3.69296701,3.331591 3.69296701,3.500191 0,0.386792 -2.130332,2.575539 -2.5068,2.575539 -0.153977,0 -1.64723201,-1.372307 -3.318349,-3.049569 z m 2.83191299,-3.31216 -1.215655,-1.070062 1.040868,-0.940364 c 1.08070701,-0.976355 1.63315101,-2.292202 1.39774601,-3.329255 -0.09062,-0.399219 0.669716,0.244171 2.259333,1.911827 1.317755,1.382448 2.401642,2.587577 2.40864,2.678064 0.007,0.09049 -0.456922,0.152207 -1.030931,0.137155 -0.778068,-0.0204 -1.352341,0.19022 -2.256695,0.827667 -0.667173,0.470265 -1.252328,0.85503 -1.300347,0.85503 -0.04802,0 -0.634349,-0.481528 -1.30295901,-1.070062 z m -15.97743309,0.312796 c -2.768162,-0.956485 -5.506053,-3.528338 -7.01146,-6.586255 -0.78175,-1.587957 -0.87281,-2.009317 -0.870496,-4.027999 0.002,-1.749393 0.131193,-2.534159 0.5766,-3.502621 0.803746,-1.747612 2.790388,-3.772884 4.54724,-4.63566 1.981493,-0.973096 4.937713,-1.011815 7.262486,-0.09512 4.1955001,1.65435 7.4900351,5.630515 7.6671111,9.253411 0.05053,1.033803 -0.0874,1.224155 -4.042144,5.578625 l -4.0944561,4.508302 -1.329502,-0.0086 c -0.731226,-0.0048 -1.948646,-0.22257 -2.705379,-0.484045 z m 20.2935861,-3.992182 c -3.959109,-4.374899 -4.099232,-4.56878 -4.048729,-5.602062 0.177076,-3.622896 3.471612,-7.599061 7.6671099,-9.253411 2.324775,-0.916695 5.280993,-0.877976 7.262487,0.09512 1.756852,0.862776 3.743495,2.888048 4.547241,4.63566 0.445404,0.968462 0.574593,1.753228 0.576598,3.502621 0.0024,2.033165 -0.08628,2.435821 -0.90248,4.101043 -0.603298,1.230852 -1.499698,2.443284 -2.688495,3.636343 -2.171497,2.17928 -4.065289,3.130495 -6.567996,3.298973 l -1.744694,0.117449 z m -7.76913,-13.939756 c -1.563754,-1.563755 -0.527751,-4.064962 1.68371299,-4.064962 1.468109,0 2.38125001,0.894694 2.38125001,2.333144 0,2.191596 -2.52811801,3.268664 -4.064963,1.731818 z"
       id="path845"
       inkscape:connector-curvature="0"
       sodipodi:nodetypes="ssccccssscccscsssccscssscccsscscsssssccccsssacccsscsssss" />
  </g>
</svg>
