<?xml version="1.0" encoding="UTF-8"?>
<svg width="44.18mm" height="28.046mm" version="1.1" viewBox="0 0 44.18 28.046" xmlns="http://www.w3.org/2000/svg" xmlns:cc="http://creativecommons.org/ns#" xmlns:dc="http://purl.org/dc/elements/1.1/" xmlns:rdf="http://www.w3.org/1999/02/22-rdf-syntax-ns#">
<metadata>
<rdf:RDF>
<cc:Work rdf:about="">
<dc:format>image/svg+xml</dc:format>
<dc:type rdf:resource="http://purl.org/dc/dcmitype/StillImage"/>
<dc:title/>
</cc:Work>
</rdf:RDF>
</metadata>
<g transform="translate(22.923 57.98)">
<path d="m-4.4821-31.069c-0.61238-0.62397-1.1134-1.2565-1.1134-1.4057s0.33268-0.58994 0.73929-0.9795l0.73929-0.70828 2.7632 2.798-0.7463 0.71501c-0.41047 0.39326-0.86383 0.71501-1.0075 0.71501-0.14364 0-0.7622-0.51052-1.3746-1.1345zm2.5864-1.9151c-3.1938-3.2055-4.747-4.2399-5.9236-3.9446-0.37769 0.0948-0.68098 0.07015-0.67399-0.05477 7e-3 -0.12492 1.0909-1.3582 2.4086-2.7407 1.5896-1.6677 2.35-2.311 2.2593-1.9118-0.34275 1.51 0.24684 2.3266 4.0618 5.6257 2.0311 1.7565 3.693 3.3316 3.693 3.5002 0 0.38679-2.1303 2.5755-2.5068 2.5755-0.15398 0-1.6472-1.3723-3.3183-3.0496zm2.8319-3.3122-1.2157-1.0701 1.0409-0.94036c1.0807-0.97636 1.6332-2.2922 1.3977-3.3293-0.09062-0.39922 0.66972 0.24417 2.2593 1.9118 1.3178 1.3824 2.4016 2.5876 2.4086 2.6781 7e-3 0.09049-0.45692 0.15221-1.0309 0.13716-0.77807-0.0204-1.3523 0.19022-2.2567 0.82767-0.66717 0.47026-1.2523 0.85503-1.3003 0.85503-0.04802 0-0.63435-0.48153-1.303-1.0701zm-15.977 0.3128c-2.7682-0.95648-5.5061-3.5283-7.0115-6.5863-0.78175-1.588-0.87281-2.0093-0.8705-4.028 2e-3 -1.7494 0.13119-2.5342 0.5766-3.5026 0.80375-1.7476 2.7904-3.7729 4.5472-4.6357 1.9815-0.9731 4.9377-1.0118 7.2625-0.09512 4.1955 1.6544 7.49 5.6305 7.6671 9.2534 0.05053 1.0338-0.0874 1.2242-4.0421 5.5786l-4.0945 4.5083-1.3295-0.0086c-0.73123-0.0048-1.9486-0.22257-2.7054-0.48404zm20.294-3.9922c-3.9591-4.3749-4.0992-4.5688-4.0487-5.6021 0.17708-3.6229 3.4716-7.5991 7.6671-9.2534 2.3248-0.9167 5.281-0.87798 7.2625 0.09512 1.7569 0.86278 3.7435 2.888 4.5472 4.6357 0.4454 0.96846 0.57459 1.7532 0.5766 3.5026 0.0024 2.0332-0.08628 2.4358-0.90248 4.101-0.6033 1.2309-1.4997 2.4433-2.6885 3.6363-2.1715 2.1793-4.0653 3.1305-6.568 3.299l-1.7447 0.11745zm-7.7691-13.94c-1.5638-1.5638-0.52775-4.065 1.6837-4.065 1.4681 0 2.3813 0.89469 2.3813 2.3331 0 2.1916-2.5281 3.2687-4.065 1.7318z" fill="#fff"/>
</g>
</svg>
