<svg width="166.98" height="106.001" viewBox="0 0 44.18 28.046" xmlns="http://www.w3.org/2000/svg"><path d="M18.44 26.911c-.611-.624-1.113-1.257-1.113-1.406s.333-.59.74-.98l.74-.707 2.762 2.798-.746.715c-.41.393-.864.715-1.008.715-.143 0-.762-.511-1.374-1.135zm2.587-1.915c-3.194-3.206-4.747-4.24-5.923-3.945-.378.095-.681.07-.674-.054.007-.125 1.09-1.359 2.408-2.741 1.59-1.668 2.35-2.311 2.26-1.912-.343 1.51.246 2.327 4.061 5.626 2.032 1.756 3.693 3.331 3.693 3.5 0 .387-2.13 2.575-2.506 2.575-.154 0-1.648-1.372-3.319-3.05zm2.832-3.312-1.216-1.07 1.041-.94c1.081-.977 1.634-2.293 1.398-3.33-.09-.4.67.244 2.26 1.912 1.317 1.382 2.401 2.587 2.408 2.678.007.09-.457.152-1.03.137-.779-.02-1.353.19-2.258.828-.667.47-1.252.855-1.3.855-.048 0-.634-.482-1.303-1.07zm-15.977.312C5.114 21.04 2.376 18.468.871 15.41.089 13.822-.002 13.4 0 11.382c.001-1.75.13-2.534.576-3.502.804-1.748 2.79-3.773 4.547-4.636 1.982-.973 4.938-1.012 7.263-.095 4.195 1.654 7.49 5.63 7.667 9.253.05 1.034-.088 1.224-4.042 5.579l-4.095 4.508-1.33-.009c-.73-.004-1.948-.222-2.705-.484zm20.294-3.992c-3.959-4.375-4.099-4.569-4.048-5.602.177-3.623 3.471-7.599 7.667-9.253 2.324-.917 5.28-.878 7.262.095 1.757.863 3.744 2.888 4.547 4.636.446.968.575 1.753.577 3.502.002 2.033-.086 2.436-.903 4.101-.603 1.231-1.5 2.444-2.688 3.637-2.172 2.179-4.065 3.13-6.568 3.299l-1.745.117zm-7.769-13.94C18.843 2.5 19.88 0 22.091 0c1.468 0 2.381.895 2.381 2.333 0 2.192-2.528 3.27-4.065 1.732z" fill="#fff"/></svg>