<?xml version="1.0" encoding="UTF-8"?>
<svg width="6.2914mm" height="9.5432mm" version="1.1" viewBox="0 0 6.2914 9.5432" xmlns="http://www.w3.org/2000/svg" xmlns:cc="http://creativecommons.org/ns#" xmlns:dc="http://purl.org/dc/elements/1.1/" xmlns:rdf="http://www.w3.org/1999/02/22-rdf-syntax-ns#">
<metadata>
<rdf:RDF>
<cc:Work rdf:about="">
<dc:format>image/svg+xml</dc:format>
<dc:type rdf:resource="http://purl.org/dc/dcmitype/StillImage"/>
<dc:title/>
</cc:Work>
</rdf:RDF>
</metadata>
<g transform="translate(-25.485 -28.684)">
<path d="m28.255 38.213c-0.39976-0.07598-0.73214-0.3781-0.83845-0.76214-0.03658-0.13215-0.04197-0.36646-0.01159-0.5042 0.08466-0.38385 0.38172-0.69302 0.76736-0.79862 0.12248-0.03354 0.39659-0.03596 0.51433-0.0046 0.5326 0.14212 0.87563 0.64958 0.79531 1.1766-0.05564 0.36506-0.27746 0.659-0.615 0.81495-0.17366 0.08023-0.42896 0.11277-0.61196 0.07799zm0.0016-2.9476c-0.3245-0.0495-0.56593-0.26623-0.66104-0.59341-0.03336-0.11479-0.04168-0.3567-0.01712-0.49806 0.08714-0.50142 0.36844-0.86718 1.1026-1.4336 0.5188-0.4003 0.77376-0.63254 0.91517-0.83363 0.20505-0.2916 0.26189-0.56701 0.19081-0.9245-0.0868-0.43651-0.40871-0.72343-0.90619-0.8077-0.14583-0.0247-0.46618-0.0247-0.61201 0-0.27882 0.04723-0.49675 0.15846-0.66363 0.33871-0.12476 0.13475-0.19735 0.2609-0.42548 0.73938-0.11991 0.2515-0.27409 0.42897-0.44585 0.5132-0.25169 0.12343-0.60324 0.1157-0.86486-0.01902-0.11795-0.06073-0.24612-0.19302-0.30548-0.31529-0.06503-0.13394-0.08493-0.24502-0.07706-0.43006 0.0079-0.18513 0.03092-0.31237 0.08719-0.4812 0.19923-0.59782 0.69595-1.1247 1.387-1.4711 0.62286-0.31223 1.2745-0.41988 2.0614-0.34052 0.93278 0.09407 1.7204 0.4431 2.1829 0.96741 0.29148 0.33039 0.48187 0.74039 0.5456 1.1749 0.02493 0.16996 0.03346 0.47444 0.01755 0.62639-0.06303 0.60204-0.3947 1.1454-1.013 1.6594-0.13243 0.1101-0.31269 0.24573-0.63173 0.47534-0.35309 0.25411-0.4163 0.30367-0.54068 0.42394-0.14423 0.13946-0.20443 0.23477-0.2984 0.47245-0.15356 0.38838-0.18942 0.45655-0.29625 0.56339-0.08674 0.08674-0.21486 0.15203-0.34666 0.17666-0.12132 0.02267-0.29671 0.03039-0.38481 0.01695z" fill="#fff"/>
</g>
</svg>
