<?xml version="1.0" encoding="UTF-8" standalone="no"?>
<!-- Created with Inkscape (http://www.inkscape.org/) -->

<svg
   xmlns:dc="http://purl.org/dc/elements/1.1/"
   xmlns:cc="http://creativecommons.org/ns#"
   xmlns:rdf="http://www.w3.org/1999/02/22-rdf-syntax-ns#"
   xmlns:svg="http://www.w3.org/2000/svg"
   xmlns="http://www.w3.org/2000/svg"
   xmlns:sodipodi="http://sodipodi.sourceforge.net/DTD/sodipodi-0.dtd"
   xmlns:inkscape="http://www.inkscape.org/namespaces/inkscape"
   width="6.2913804mm"
   height="9.543211mm"
   viewBox="0 0 6.2913805 9.5432107"
   version="1.1"
   id="svg8"
   inkscape:version="0.92.4 (5da689c313, 2019-01-14)"
   sodipodi:docname="question-mark.svg">
  <defs
     id="defs2" />
  <sodipodi:namedview
     id="base"
     pagecolor="#ffffff"
     bordercolor="#666666"
     borderopacity="1.0"
     inkscape:pageopacity="0.0"
     inkscape:pageshadow="2"
     inkscape:zoom="11.2"
     inkscape:cx="19.209019"
     inkscape:cy="-1.0483317"
     inkscape:document-units="mm"
     inkscape:current-layer="layer1"
     showgrid="false"
     fit-margin-top="0"
     fit-margin-left="0"
     fit-margin-right="0"
     fit-margin-bottom="0"
     inkscape:window-width="1920"
     inkscape:window-height="1017"
     inkscape:window-x="1072"
     inkscape:window-y="394"
     inkscape:window-maximized="1" />
  <metadata
     id="metadata5">
    <rdf:RDF>
      <cc:Work
         rdf:about="">
        <dc:format>image/svg+xml</dc:format>
        <dc:type
           rdf:resource="http://purl.org/dc/dcmitype/StillImage" />
        <dc:title></dc:title>
      </cc:Work>
    </rdf:RDF>
  </metadata>
  <g
     inkscape:label="Layer 1"
     inkscape:groupmode="layer"
     id="layer1"
     transform="translate(-25.484835,-28.683665)">
    <path
       style="fill:#ffffff;stroke-width:1"
       d="M 28.255019,38.213096 C 27.85526,38.137116 27.522884,37.834991 27.41657,37.450955 27.37999,37.318808 27.3746,37.084499 27.40498,36.94676 c 0.08466,-0.383851 0.381722,-0.693018 0.767361,-0.798624 0.122476,-0.03354 0.396589,-0.03596 0.514331,-0.0046 0.532605,0.142122 0.875628,0.649584 0.795308,1.176565 -0.05564,0.365062 -0.277459,0.658995 -0.615004,0.81495 -0.173656,0.08023 -0.428956,0.11277 -0.611958,0.07799 z m 0.0016,-2.947554 c -0.324502,-0.0495 -0.565934,-0.266229 -0.66104,-0.59341 -0.03336,-0.114786 -0.04168,-0.356703 -0.01712,-0.498059 0.08714,-0.501425 0.368437,-0.867179 1.102596,-1.433642 0.518805,-0.400299 0.773763,-0.632541 0.915168,-0.833627 0.205051,-0.291598 0.261894,-0.567007 0.19081,-0.924497 -0.0868,-0.436506 -0.408712,-0.723432 -0.906194,-0.807697 -0.145827,-0.0247 -0.466183,-0.0247 -0.61201,0 -0.278819,0.04723 -0.496749,0.158457 -0.663633,0.338712 -0.124756,0.134751 -0.197348,0.260898 -0.425482,0.739385 -0.119909,0.2515 -0.274086,0.428967 -0.445849,0.513201 -0.251691,0.123432 -0.603237,0.115703 -0.864864,-0.01902 -0.11795,-0.06073 -0.246121,-0.193021 -0.30548,-0.315288 -0.06503,-0.133937 -0.08493,-0.245015 -0.07706,-0.430058 0.0079,-0.185131 0.03092,-0.312366 0.08719,-0.481204 0.199228,-0.59782 0.695954,-1.124657 1.386986,-1.471061 0.622855,-0.312228 1.274538,-0.419876 2.061437,-0.340522 0.932784,0.09407 1.720372,0.443104 2.182921,0.967407 0.291475,0.33039 0.481874,0.740386 0.5456,1.174866 0.02493,0.16996 0.03346,0.474439 0.01755,0.626388 -0.06303,0.60204 -0.394703,1.145352 -1.013,1.659387 -0.132429,0.110097 -0.312692,0.245732 -0.631734,0.475338 -0.353094,0.254111 -0.416297,0.303669 -0.540682,0.423945 -0.144227,0.139463 -0.204427,0.234774 -0.298404,0.472449 -0.153565,0.388375 -0.189416,0.456554 -0.296254,0.563392 -0.08674,0.08674 -0.214863,0.152033 -0.346657,0.176655 -0.121317,0.02267 -0.296707,0.03039 -0.384811,0.01695 z"
       id="path878"
       inkscape:connector-curvature="0" />
  </g>
</svg>
