<svg width="23.779" height="36.069" viewBox="0 0 6.291 9.543" xmlns="http://www.w3.org/2000/svg"><path d="M2.77 9.529a1.086 1.086 0 0 1-.838-.762 1.277 1.277 0 0 1-.012-.504c.085-.384.382-.693.767-.799.123-.033.397-.036.515-.005.532.143.875.65.795 1.177a1.056 1.056 0 0 1-1.227.893zm.002-2.948a.798.798 0 0 1-.661-.593 1.417 1.417 0 0 1-.018-.498c.088-.501.369-.867 1.103-1.434.519-.4.774-.632.915-.833a1.1 1.1 0 0 0 .191-.925c-.087-.436-.409-.723-.906-.807a2.537 2.537 0 0 0-.612 0 1.123 1.123 0 0 0-.664.338c-.125.135-.197.261-.425.74-.12.251-.274.429-.446.513a1.016 1.016 0 0 1-.865-.02.773.773 0 0 1-.305-.315.8.8 0 0 1-.078-.43c.008-.185.031-.312.088-.48C.288 1.237.785.711 1.476.364c.623-.312 1.274-.42 2.061-.34.933.094 1.72.443 2.183.967.291.33.482.74.546 1.175.024.17.033.474.017.626-.063.602-.395 1.146-1.013 1.66-.132.11-.313.245-.632.475-.353.254-.416.304-.54.424-.145.14-.205.235-.299.472-.153.389-.19.457-.296.564a.68.68 0 0 1-.347.176c-.12.023-.296.03-.384.017z" fill="#fff"/></svg>