<svg width="263.792" height="136.838" viewBox="0 0 69.795 36.205" xmlns="http://www.w3.org/2000/svg"><path d="M5.633 35.744c-2.41-.889-3.86-2.857-5.04-6.842C.266 27.803 0 26.421 0 25.829v-1.075l1.047 1.12c1.375 1.473 2.42 1.722 7.043 1.682 3.32-.028 4.637-.245 9.388-1.546 10.694-2.93 14.636-4.538 20.067-8.189 5.153-3.465 6.774-5.56 5.898-7.624-.377-.887-.291-.849.79.355 2.324 2.59 3.55 8.16 2.319 10.54-2.575 4.98-16.26 11.903-28.429 14.383-4.15.846-10.553.984-12.49.27zm47.361-2.288a57.256 57.256 0 0 1-4.78-1.31c-2.653-.875-8.497-3.475-8.497-3.78 0-.104.786-.717 1.746-1.362.961-.644 2.584-1.98 3.606-2.968l1.86-1.796 2.584 1.066c3.17 1.307 6.434 2.144 10.272 2.635 5.69.727 8.675-.408 9.686-3.684.374-1.209.388-1.167.229.677-.372 4.323-3.774 9.34-7.137 10.524-1.978.697-6.353.696-9.569-.001zM3.862 26.63c-1.662-.378-2.83-1.525-2.501-2.459.814-2.319 4.734-5.417 10.718-8.475 2.947-1.505 10.17-4.47 10.89-4.47.11 0 .203.538.208 1.195.009 1.306 1.005 3.749 2.232 5.472.43.604.722 1.144.65 1.2-.073.055-1.705.64-3.626 1.298-4.082 1.398-8.72 3.51-11.744 5.346-2.282 1.387-3.792 1.584-6.827.893zm59.758-1.784c0-.695-4.645-5.324-7.4-7.373-1.543-1.148-4.439-2.93-6.436-3.962-2.423-1.251-3.985-2.325-4.693-3.226-2.069-2.634-6.25-3.484-12.94-2.631-2.166.276-2.248.255-2.667-.663-.57-1.253-.53-3.511.077-4.311C31.073.688 36.454.238 41.923 1.646c11.634 2.994 24.671 12.136 26.47 18.56.589 2.102.19 3.198-1.547 4.257-1.252.763-3.226.997-3.226.382zM27.363 19.04c-3.526-4.311-4.237-7.537-2.56-11.615C26.605 3.044 29.433.307 32.427.05c.874-.075 1.259-.065.854.023-4.631 1.01-6.108 3.776-4.163 7.795.879 1.814 5.083 6.44 7.108 7.818.703.48 1.279.954 1.279 1.055-.003.547-6.894 4.413-7.866 4.413-.3 0-1.325-.951-2.276-2.114zm41.802 1.133c-.016-.236-.124-.733-.24-1.103-.202-.64-.191-.641.21-.017.231.362.34.859.24 1.104-.13.321-.189.326-.21.016zm-32.626-5.224c-.983-.79-2.68-2.352-3.77-3.472L30.784 9.44l1.432-.292c.787-.16 2.921-.287 4.742-.28 3.406.01 5.491.65 5.94 1.821.346.9-1.088 3.114-2.871 4.435l-1.702 1.26z" fill="#fff"/><path d="M6.073 26.963c-.664-.06-2.08-.324-2.58-.482-.581-.183-1.24-.551-1.59-.888-.335-.324-.599-.9-.55-1.201.176-1.086 1.859-2.979 4.167-4.687 3.46-2.561 8.56-5.152 14.986-7.614 1.757-.674 2.372-.867 2.463-.776.091.092.177.64.182 1.164.012 1.228.868 3.37 2.097 5.25.682 1.042.797 1.258.715 1.34-.035.035-1.222.471-2.638.97-5.522 1.945-8.74 3.392-12.927 5.812-.896.517-1.657.833-2.356.978-.531.11-1.5.175-1.97.134zM37.253 15.47a63.81 63.81 0 0 1-1.88-1.58c-.976-.864-3.327-3.16-3.996-3.901l-.477-.53.726-.152c1.068-.224 1.559-.275 3.5-.364 3.133-.143 5.408.112 6.665.748.399.202.857.603.996.87.382.739-.458 2.388-1.934 3.797-.374.357-1.577 1.3-2.325 1.822l-.211.147z" fill="#e6e6e6" fill-opacity=".769"/><path d="M64.081 25.124c-.331-.058-.391-.103-.436-.33-.149-.741-3.849-4.505-6.639-6.753-1.747-1.408-4.226-2.963-7.872-4.935-2.1-1.136-3.304-2-4.055-2.905-2.123-2.562-6.061-3.376-12.65-2.614-1.888.218-2.223.222-2.468.029-.563-.443-.958-2.107-.81-3.41.11-.956.248-1.299.71-1.763.674-.678 1.762-1.118 3.51-1.419.99-.17 3.83-.17 5.089 0 2.693.365 5.53 1.142 8.68 2.38 10.103 3.967 19.397 11.25 21.123 16.55.679 2.086.348 3.281-1.192 4.305-.927.616-2.238.996-2.99.865z" fill="#e6e6e6" fill-opacity=".769"/></svg>