<?xml version="1.0" encoding="UTF-8" standalone="no"?>
<!-- Created with Inkscape (http://www.inkscape.org/) -->

<svg
   width="69.795135mm"
   height="36.20517mm"
   viewBox="0 0 69.795135 36.20517"
   version="1.1"
   id="svg5"
   inkscape:version="1.1 (c68e22c387, 2021-05-23)"
   sodipodi:docname="rings.svg"
   xmlns:inkscape="http://www.inkscape.org/namespaces/inkscape"
   xmlns:sodipodi="http://sodipodi.sourceforge.net/DTD/sodipodi-0.dtd"
   xmlns="http://www.w3.org/2000/svg"
   xmlns:svg="http://www.w3.org/2000/svg">
  <sodipodi:namedview
     id="namedview7"
     pagecolor="#505050"
     bordercolor="#eeeeee"
     borderopacity="1"
     inkscape:pageshadow="0"
     inkscape:pageopacity="0"
     inkscape:pagecheckerboard="0"
     inkscape:document-units="mm"
     showgrid="false"
     fit-margin-top="0"
     fit-margin-left="0"
     fit-margin-right="0"
     fit-margin-bottom="0"
     inkscape:zoom="2.6832492"
     inkscape:cx="141.80569"
     inkscape:cy="60.933589"
     inkscape:window-width="1920"
     inkscape:window-height="1027"
     inkscape:window-x="1072"
     inkscape:window-y="424"
     inkscape:window-maximized="1"
     inkscape:current-layer="layer1" />
  <defs
     id="defs2" />
  <g
     inkscape:label="Layer 1"
     inkscape:groupmode="layer"
     id="layer1"
     transform="translate(-50.037604,-38.528625)">
    <path
       style="fill:#ffffff;stroke-width:0.367743"
       d="m 55.67058,74.273168 c -2.40931,-0.888763 -3.859287,-2.856859 -5.040795,-6.84203 -0.3257,-1.098571 -0.592181,-2.481322 -0.592181,-3.072778 v -1.075376 l 1.047226,1.12106 c 1.375002,1.471947 2.419744,1.721372 7.043139,1.681509 3.319647,-0.0286 4.636508,-0.245598 9.387391,-1.54675 10.693582,-2.928719 14.636092,-4.537546 20.066661,-8.188637 5.153228,-3.464631 6.773927,-5.559585 5.897916,-7.62379 -0.376489,-0.887154 -0.291113,-0.848774 0.789491,0.354898 2.324461,2.589195 3.550621,8.159983 2.319891,10.539956 -2.574991,4.979479 -16.259983,11.903177 -28.428594,14.382981 -4.150495,0.845818 -10.552638,0.983678 -12.490145,0.268957 z m 47.36061,-2.287466 c -1.29352,-0.280604 -3.444821,-0.870674 -4.780671,-1.311269 -2.65177,-0.874613 -8.496578,-3.473969 -8.496578,-3.778674 0,-0.104479 0.786053,-0.717421 1.746784,-1.36209 0.960731,-0.64467 2.58336,-1.980401 3.605843,-2.968286 l 1.859061,-1.79616 2.58493,1.065939 c 3.170091,1.307241 6.434231,2.14466 10.271741,2.635219 5.68882,0.727221 8.67435,-0.408247 9.686,-3.683823 0.37334,-1.208805 0.38724,-1.167609 0.22854,0.677219 -0.37185,4.322796 -3.77376,9.338973 -7.13708,10.523742 -1.97756,0.696623 -6.35273,0.695792 -9.56857,-0.0018 z m -49.132275,-6.82719 c -1.662505,-0.378439 -2.829423,-1.525708 -2.501387,-2.459269 0.814673,-2.318491 4.733887,-5.417434 10.717611,-8.47447 2.947577,-1.505895 10.169554,-4.470531 10.890399,-4.470531 0.109968,0 0.203564,0.537825 0.208006,1.195168 0.0089,1.306348 1.005162,3.748492 2.232485,5.472108 0.429894,0.60373 0.722201,1.143405 0.649572,1.199277 -0.07264,0.05587 -1.70416,0.640044 -3.625622,1.298157 -4.08235,1.398233 -8.719272,3.509288 -11.74393,5.34667 -2.281806,1.386125 -3.792392,1.583688 -6.827134,0.89289 z m 59.758375,-1.78429 c 0,-0.695404 -4.6453,-5.323506 -7.40074,-7.373343 -1.54218,-1.147258 -4.43816,-2.929973 -6.435521,-3.961588 -2.42317,-1.25154 -3.98462,-2.325072 -4.692595,-3.226264 -2.068824,-2.633449 -6.250105,-3.483562 -12.941131,-2.631111 -2.165139,0.275844 -2.247727,0.255305 -2.666143,-0.663017 -0.570589,-1.252307 -0.530103,-3.510861 0.07728,-4.310801 1.511804,-1.991105 6.892864,-2.440851 12.361972,-1.033209 11.634278,2.994443 24.670778,12.135894 26.469718,18.561104 0.58839,2.101502 0.19006,3.197054 -1.54758,4.256499 -1.25174,0.763186 -3.22526,0.996766 -3.22526,0.38173 z M 77.400313,57.568799 c -3.525867,-4.310894 -4.236675,-7.536448 -2.559612,-11.615201 1.801288,-4.380887 4.630245,-7.117749 7.623083,-7.374919 0.87457,-0.07515 1.259159,-0.06444 0.85464,0.02379 -4.631321,1.010267 -6.108511,3.775754 -4.16325,7.794127 0.878558,1.814861 5.082783,6.439561 7.107624,7.818477 0.703811,0.479295 1.279337,0.954187 1.278951,1.055316 -0.0022,0.546601 -6.893701,4.412927 -7.865908,4.412927 -0.300335,0 -1.324322,-0.951537 -2.275528,-2.114527 z m 41.802167,1.133309 c -0.016,-0.236281 -0.12425,-0.732736 -0.24067,-1.103231 -0.20117,-0.640323 -0.19079,-0.641125 0.2099,-0.01622 0.23184,0.361573 0.34015,0.858027 0.24066,1.103231 -0.13051,0.321774 -0.18894,0.326289 -0.20989,0.01622 z M 86.576241,53.478482 c -0.982762,-0.789413 -2.679523,-2.352041 -3.770579,-3.472506 l -1.983738,-2.03721 1.432122,-0.291738 c 0.787668,-0.160455 2.921485,-0.286666 4.741816,-0.280467 3.406603,0.01154 5.491513,0.650906 5.940767,1.821647 0.345356,0.899976 -1.088271,3.113961 -2.871877,4.435112 l -1.701669,1.26046 z"
       id="path2031" />
    <path
       style="fill:#e6e6e6;fill-opacity:0.76867;stroke-width:11.1999;stroke-linecap:round;stroke-linejoin:round;stop-color:#000000"
       d="m 38.34308,114.06593 c -2.507629,-0.22406 -7.860739,-1.22315 -9.750474,-1.81981 -2.196947,-0.69366 -4.685679,-2.08485 -6.006464,-3.3576 -1.26851,-1.22237 -2.26616,-3.3981 -2.08109,-4.53855 0.666305,-4.10595 7.024979,-11.258928 15.747716,-17.714851 13.078822,-9.679976 32.356012,-19.474377 56.640261,-28.777921 6.644091,-2.54542 8.964821,-3.275967 9.310061,-2.930729 0.34427,0.344265 0.66896,2.419623 0.68823,4.399044 0.0452,4.638563 3.2795,12.733851 7.92634,19.839034 2.57605,3.938882 3.01173,4.756211 2.70098,5.06697 -0.13081,0.130803 -4.61755,1.780781 -9.97055,3.666618 -20.869737,7.352318 -33.030438,12.819355 -48.858496,21.965125 -3.384405,1.95558 -6.261225,3.15014 -8.903867,3.69721 -2.007353,0.41555 -5.667137,0.6641 -7.442647,0.50546 z"
       id="path3071"
       transform="matrix(0.26458333,0,0,0.26458333,45.966445,35.310601)" />
    <path
       style="fill:#e6e6e6;fill-opacity:0.76867;stroke-width:11.1999;stroke-linecap:round;stroke-linejoin:round;stop-color:#000000"
       d="m 156.1901,70.631937 c -2.21202,-1.78081 -5.40995,-4.467555 -7.10651,-5.970544 -3.68557,-3.26506 -12.57214,-11.943247 -15.10022,-14.746128 l -1.8034,-1.99942 2.74258,-0.575468 c 4.03749,-0.847179 5.89228,-1.040136 13.22725,-1.376052 11.84261,-0.542351 20.4406,0.422518 25.1941,2.827288 1.50714,0.762451 3.23982,2.276404 3.76285,3.287826 1.44311,2.790665 -1.73229,9.024023 -7.30998,14.349596 -1.41326,1.349379 -5.96,4.911404 -8.78821,6.884884 l -0.7966,0.555856 z"
       id="path3110"
       transform="matrix(0.26458333,0,0,0.26458333,45.966445,35.310601)" />
    <path
       style="fill:#e6e6e6;fill-opacity:0.76867;stroke-width:11.1999;stroke-linecap:round;stroke-linejoin:round;stop-color:#000000"
       d="m 257.58803,107.12366 c -1.25162,-0.21807 -1.47883,-0.38977 -1.6503,-1.24712 -0.56004,-2.80024 -14.54402,-17.026769 -25.08867,-25.523854 -6.60452,-5.322054 -15.9763,-11.197062 -29.75292,-18.651616 -7.9366,-4.294507 -12.48916,-7.555679 -15.32596,-10.97857 -8.02511,-9.683143 -22.91079,-12.75916 -47.81415,-9.880442 -7.13704,0.825011 -8.40076,0.83995 -9.32838,0.110288 -2.12624,-1.672499 -3.61869,-7.965128 -3.05705,-12.889487 0.41214,-3.613569 0.93293,-4.908963 2.6792,-6.664128 2.54817,-2.561153 6.66129,-4.223142 13.26545,-5.360172 3.74417,-0.64463 14.47582,-0.645225 19.23581,-0.0011 10.17997,1.377636 20.8994,4.315866 32.80902,8.993067 38.1848,14.996097 73.31236,42.521028 79.83357,62.555248 2.56621,7.883801 1.31598,12.400352 -4.50347,16.269106 -3.50558,2.33052 -8.46114,3.76373 -11.30215,3.26874 z"
       id="path3149"
       transform="matrix(0.26458333,0,0,0.26458333,45.966445,35.310601)" />
  </g>
</svg>
