<?xml version="1.0" encoding="UTF-8"?>
<svg width="69.795mm" height="36.205mm" version="1.1" viewBox="0 0 69.795 36.205" xmlns="http://www.w3.org/2000/svg">
<g transform="translate(-50.038 -38.529)">
<path d="m55.671 74.273c-2.4093-0.88876-3.8593-2.8569-5.0408-6.842-0.3257-1.0986-0.59218-2.4813-0.59218-3.0728v-1.0754l1.0472 1.1211c1.375 1.4719 2.4197 1.7214 7.0431 1.6815 3.3196-0.0286 4.6365-0.2456 9.3874-1.5468 10.694-2.9287 14.636-4.5375 20.067-8.1886 5.1532-3.4646 6.7739-5.5596 5.8979-7.6238-0.37649-0.88715-0.29111-0.84877 0.78949 0.3549 2.3245 2.5892 3.5506 8.16 2.3199 10.54-2.575 4.9795-16.26 11.903-28.429 14.383-4.1505 0.84582-10.553 0.98368-12.49 0.26896zm47.361-2.2875c-1.2935-0.2806-3.4448-0.87067-4.7807-1.3113-2.6518-0.87461-8.4966-3.474-8.4966-3.7787 0-0.10448 0.78605-0.71742 1.7468-1.3621 0.96073-0.64467 2.5834-1.9804 3.6058-2.9683l1.8591-1.7962 2.5849 1.0659c3.1701 1.3072 6.4342 2.1447 10.272 2.6352 5.6888 0.72722 8.6744-0.40825 9.686-3.6838 0.37334-1.2088 0.38724-1.1676 0.22854 0.67722-0.37185 4.3228-3.7738 9.339-7.1371 10.524-1.9776 0.69662-6.3527 0.69579-9.5686-0.0018zm-49.132-6.8272c-1.6625-0.37844-2.8294-1.5257-2.5014-2.4593 0.81467-2.3185 4.7339-5.4174 10.718-8.4745 2.9476-1.5059 10.17-4.4705 10.89-4.4705 0.10997 0 0.20356 0.53782 0.20801 1.1952 0.0089 1.3063 1.0052 3.7485 2.2325 5.4721 0.42989 0.60373 0.7222 1.1434 0.64957 1.1993-0.07264 0.05587-1.7042 0.64004-3.6256 1.2982-4.0824 1.3982-8.7193 3.5093-11.744 5.3467-2.2818 1.3861-3.7924 1.5837-6.8271 0.89289zm59.758-1.7843c0-0.6954-4.6453-5.3235-7.4007-7.3733-1.5422-1.1473-4.4382-2.93-6.4355-3.9616-2.4232-1.2515-3.9846-2.3251-4.6926-3.2263-2.0688-2.6334-6.2501-3.4836-12.941-2.6311-2.1651 0.27584-2.2477 0.2553-2.6661-0.66302-0.57059-1.2523-0.5301-3.5109 0.07728-4.3108 1.5118-1.9911 6.8929-2.4409 12.362-1.0332 11.634 2.9944 24.671 12.136 26.47 18.561 0.58839 2.1015 0.19006 3.1971-1.5476 4.2565-1.2517 0.76319-3.2253 0.99677-3.2253 0.38173zm-36.257-5.8054c-3.5259-4.3109-4.2367-7.5364-2.5596-11.615 1.8013-4.3809 4.6302-7.1177 7.6231-7.3749 0.87457-0.07515 1.2592-0.06444 0.85464 0.02379-4.6313 1.0103-6.1085 3.7758-4.1632 7.7941 0.87856 1.8149 5.0828 6.4396 7.1076 7.8185 0.70381 0.4793 1.2793 0.95419 1.279 1.0553-0.0022 0.5466-6.8937 4.4129-7.8659 4.4129-0.30034 0-1.3243-0.95154-2.2755-2.1145zm41.802 1.1333c-0.016-0.23628-0.12425-0.73274-0.24067-1.1032-0.20117-0.64032-0.19079-0.64112 0.2099-0.01622 0.23184 0.36157 0.34015 0.85803 0.24066 1.1032-0.13051 0.32177-0.18894 0.32629-0.20989 0.01622zm-32.626-5.2236c-0.98276-0.78941-2.6795-2.352-3.7706-3.4725l-1.9837-2.0372 1.4321-0.29174c0.78767-0.16046 2.9215-0.28667 4.7418-0.28047 3.4066 0.01154 5.4915 0.65091 5.9408 1.8216 0.34536 0.89998-1.0883 3.114-2.8719 4.4351l-1.7017 1.2605z" fill="#fff" stroke-width=".36774"/>
<path transform="matrix(.26458 0 0 .26458 45.966 35.311)" d="m38.343 114.07c-2.5076-0.22406-7.8607-1.2232-9.7505-1.8198-2.1969-0.69366-4.6857-2.0848-6.0065-3.3576-1.2685-1.2224-2.2662-3.3981-2.0811-4.5386 0.6663-4.106 7.025-11.259 15.748-17.715 13.079-9.68 32.356-19.474 56.64-28.778 6.6441-2.5454 8.9648-3.276 9.3101-2.9307 0.34427 0.34426 0.66896 2.4196 0.68823 4.399 0.0452 4.6386 3.2795 12.734 7.9263 19.839 2.576 3.9389 3.0117 4.7562 2.701 5.067-0.13081 0.1308-4.6176 1.7808-9.9706 3.6666-20.87 7.3523-33.03 12.819-48.858 21.965-3.3844 1.9556-6.2612 3.1501-8.9039 3.6972-2.0074 0.41555-5.6671 0.6641-7.4426 0.50546z" fill="#e6e6e6" fill-opacity=".76867" stop-color="#000000" stroke-linecap="round" stroke-linejoin="round" stroke-width="11.2"/>
<path transform="matrix(.26458 0 0 .26458 45.966 35.311)" d="m156.19 70.632c-2.212-1.7808-5.41-4.4676-7.1065-5.9705-3.6856-3.2651-12.572-11.943-15.1-14.746l-1.8034-1.9994 2.7426-0.57547c4.0375-0.84718 5.8923-1.0401 13.227-1.3761 11.843-0.54235 20.441 0.42252 25.194 2.8273 1.5071 0.76245 3.2398 2.2764 3.7628 3.2878 1.4431 2.7907-1.7323 9.024-7.31 14.35-1.4133 1.3494-5.96 4.9114-8.7882 6.8849l-0.7966 0.55586z" fill="#e6e6e6" fill-opacity=".76867" stop-color="#000000" stroke-linecap="round" stroke-linejoin="round" stroke-width="11.2"/>
<path transform="matrix(.26458 0 0 .26458 45.966 35.311)" d="m257.59 107.12c-1.2516-0.21807-1.4788-0.38977-1.6503-1.2471-0.56004-2.8002-14.544-17.027-25.089-25.524-6.6045-5.3221-15.976-11.197-29.753-18.652-7.9366-4.2945-12.489-7.5557-15.326-10.979-8.0251-9.6831-22.911-12.759-47.814-9.8804-7.137 0.82501-8.4008 0.83995-9.3284 0.11029-2.1262-1.6725-3.6187-7.9651-3.057-12.889 0.41214-3.6136 0.93293-4.909 2.6792-6.6641 2.5482-2.5612 6.6613-4.2231 13.265-5.3602 3.7442-0.64463 14.476-0.64522 19.236-0.0011 10.18 1.3776 20.899 4.3159 32.809 8.9931 38.185 14.996 73.312 42.521 79.834 62.555 2.5662 7.8838 1.316 12.4-4.5035 16.269-3.5056 2.3305-8.4611 3.7637-11.302 3.2687z" fill="#e6e6e6" fill-opacity=".76867" stop-color="#000000" stroke-linecap="round" stroke-linejoin="round" stroke-width="11.2"/>
</g>
</svg>
