<svg width="149.431" height="53.08mm" viewBox="0 0 39.537 53.08" xmlns="http://www.w3.org/2000/svg"><defs><filter id="a" x="-.144" y="-.086" width="1.288" height="1.173" color-interpolation-filters="sRGB"><feGaussianBlur stdDeviation="1.63"/></filter></defs><path d="M19.7.515a4.028 13.302 77.128 0 0-7.479.988A4.028 13.302 77.128 0 0 .15 8.393a4.028 13.302 77.128 0 0 1.554 1.356 4.028 13.302 77.128 0 1 11.311-5.042 4.028 13.302 77.128 0 1 12.311-.393 4.028 13.302 77.128 0 0 .76-1.849A4.028 13.302 77.128 0 0 19.7.515z" fill="#666"/><path d="M36.412 14.076a13.302 4.028 34.489 0 0-5.793-4.833A13.302 4.028 34.489 0 0 17.374 5.03a13.302 4.028 34.489 0 0 .055 2.062 13.302 4.028 34.489 0 1 11.37 4.906 13.302 4.028 34.489 0 1 8.629 8.79 13.302 4.028 34.489 0 0 1.875-.693 13.302 4.028 34.489 0 0-2.891-6.02z" fill="gray" opacity=".948"/><path d="M71.964 98.724c0-.661.668-5.101 1.03-6.84.144-.698.464-.902 1.414-.902 1.526 0 1.382-.944-.173-1.128-.872-.103-1.034-.29-.872-1.001.11-.481.577-3.397 1.037-6.481.858-5.757.928-6.007 1.669-6.007.238 0 .509-.225.6-.5.092-.276-.138-.501-.512-.501-.687 0-.673-1.19.059-4.906l.217-1.101h18.294l.223 1.1c.31 1.529 1.442 8.818 1.442 9.285 0 .21-.724.437-1.609.504-2.225.17-2.195.899.043 1.044l1.838.12.685 4.686c.377 2.577.787 5.271.91 5.987.224 1.298.22 1.302-1.455 1.302-2.21 0-1.98.954.269 1.122 1.596.119 1.622.146 1.87 1.958.427 3.107.645 2.927-3.552 2.927h-3.804l-.001-4.305c-.001-3.59-.134-4.522-.798-5.61-2.358-3.869-8.058-3.869-10.417 0-.663 1.088-.796 2.02-.797 5.61l-.001 4.305h-3.804c-3.286 0-3.805-.091-3.805-.668zm14.017-15.151c0-.444-.465-.6-1.778-.6-1.696 0-2.503.39-1.949.945.141.14 1.037.256 1.992.256 1.275 0 1.735-.16 1.735-.601zm2.321-5.429c.227-3.482-2.782-5.358-4.695-2.927-.82 1.042-1.172 4.076-.546 4.702.156.156 1.373.231 2.703.167l2.42-.117zm-4.323-.55c0-1.283.82-2.631 1.602-2.631s1.601 1.348 1.601 2.632c0 1.334-.044 1.373-1.601 1.373-1.558 0-1.602-.039-1.602-1.373zm-8.81-10.64v-1.202h20.824v2.403H75.168zm-2.003-7.41v-5.406h4.005v4.806h6.407v-4.806h4.005v4.806h6.407v-4.806h4.005v10.813H73.166z" filter="url(#a)" transform="translate(-65.598 -50.227)"/><path d="M6.834 47.742c0-.638.645-4.926.994-6.606.14-.673.448-.87 1.366-.87 1.474 0 1.334-.911-.167-1.089-.842-.1-.999-.28-.842-.967.107-.464.557-3.28 1-6.258.83-5.558.897-5.8 1.613-5.8.23 0 .491-.218.58-.484.088-.265-.134-.483-.495-.483-.664 0-.65-1.148.057-4.737l.21-1.063h17.664l.216 1.063c.299 1.475 1.392 8.514 1.392 8.964 0 .203-.699.423-1.553.488-2.15.164-2.12.867.041 1.008l1.775.115.662 4.525c.363 2.489.759 5.09.878 5.782.216 1.252.212 1.257-1.405 1.257-2.133 0-1.913.921.26 1.083 1.541.115 1.566.14 1.806 1.89.411 3.001.622 2.827-3.43 2.827h-3.674V44.23c-.002-3.466-.13-4.367-.77-5.417-2.278-3.735-7.782-3.735-10.059 0-.64 1.05-.768 1.951-.77 5.417v4.157h-3.674c-3.172 0-3.674-.088-3.674-.645zm13.534-14.63c0-.429-.449-.58-1.717-.58-1.637 0-2.416.378-1.882.913.136.136 1.002.247 1.923.247 1.232 0 1.676-.154 1.676-.58zm2.242-5.242c.219-3.362-2.687-5.174-4.534-2.827-.792 1.007-1.132 3.936-.528 4.54.151.151 1.326.224 2.61.162l2.337-.113zm-4.175-.53c0-1.24.792-2.542 1.546-2.542s1.547 1.302 1.547 2.541c0 1.29-.043 1.326-1.547 1.326s-1.547-.037-1.547-1.326zM9.927 17.063v-1.16h20.108v2.32H9.927zM7.994 9.91V4.69h3.867v4.64h6.187V4.69h3.867v4.64h6.187V4.69h3.867v10.44H7.994z" fill="#fff"/><path d="M25.851 1.994a4.028 13.302 77.128 0 1 .235.471 4.028 13.302 77.128 0 1-2.211 3.048 3.067 1.694 72.886 0 0 .002.005 4.028 13.302 77.128 0 1-9.858 3.847 4.028 13.302 77.128 0 1-10.562.817 1.694 3.067-7.902 0 0 0-.002 4.028 13.302 77.128 0 1-.818-.15 4.028 13.302 77.128 0 1-.022-.005 4.028 13.302 77.128 0 1-.685-.188 4.028 13.302 77.128 0 1-.026-.01A4.028 13.302 77.128 0 1 .15 8.392a4.028 13.302 77.128 0 1 .049-.71 1.694 3.067-7.902 0 0-.148 2.082 1.694 3.067-7.902 0 0 1.53 2.712 4.028 13.302 77.128 0 0 13.232.094 4.028 13.302 77.128 0 0 11.903-5.878 3.067 1.694 72.886 0 0 .105-2.921 3.067 1.694 72.886 0 0-.97-1.777zM.604 6.918a1.694 3.067-7.902 0 0-.046.06 4.028 13.302 77.128 0 1 .046-.06zm-.181.263a1.694 3.067-7.902 0 0-.112.218 4.028 13.302 77.128 0 1 .112-.218z" fill="#ccc"/><path d="M39.492 19.602a13.302 4.028 34.489 0 1-.187.493 13.302 4.028 34.489 0 1-3.74.437 1.694 3.067 30.247 0 0-.002.005 13.302 4.028 34.489 0 1-9.508-4.646A13.302 4.028 34.489 0 1 18.3 8.675a1.694 3.067 39.459 0 0 .002-.002 13.302 4.028 34.489 0 1-.445-.703 13.302 4.028 34.489 0 1-.01-.02 13.302 4.028 34.489 0 1-.326-.631 13.302 4.028 34.489 0 1-.01-.026 13.302 4.028 34.489 0 1-.134-2.263 13.302 4.028 34.489 0 1 .555-.445 1.694 3.067 39.459 0 0-1.63 1.302 1.694 3.067 39.459 0 0-.96 2.961 13.302 4.028 34.489 0 0 8.894 9.798 13.302 4.028 34.489 0 0 12.387 4.774 1.694 3.067 30.247 0 0 2.22-1.9 1.694 3.067 30.247 0 0 .65-1.918zM18.768 4.365a1.694 3.067 39.459 0 0-.075.007 13.302 4.028 34.489 0 1 .075-.007zm-.316.045a1.694 3.067 39.459 0 0-.236.065 13.302 4.028 34.489 0 1 .236-.065z" fill="#e6e6e6"/></svg>