<?xml version="1.0" encoding="UTF-8" standalone="no"?>
<!-- Created with Inkscape (http://www.inkscape.org/) -->

<svg
   xmlns:dc="http://purl.org/dc/elements/1.1/"
   xmlns:cc="http://creativecommons.org/ns#"
   xmlns:rdf="http://www.w3.org/1999/02/22-rdf-syntax-ns#"
   xmlns:svg="http://www.w3.org/2000/svg"
   xmlns="http://www.w3.org/2000/svg"
   xmlns:sodipodi="http://sodipodi.sourceforge.net/DTD/sodipodi-0.dtd"
   xmlns:inkscape="http://www.inkscape.org/namespaces/inkscape"
   width="39.536667mm"
   height="53.080151mm"
   viewBox="0 0 39.536667 53.080151"
   version="1.1"
   id="svg933"
   inkscape:version="0.92.4 (5da689c313, 2019-01-14)"
   sodipodi:docname="finlarig.svg">
  <defs
     id="defs927">
    <filter
       inkscape:collect="always"
       style="color-interpolation-filters:sRGB"
       id="filter1593"
       x="-0.14385465"
       width="1.2877094"
       y="-0.08645241"
       height="1.1729048">
      <feGaussianBlur
         inkscape:collect="always"
         stdDeviation="1.6301788"
         id="feGaussianBlur1595" />
    </filter>
  </defs>
  <sodipodi:namedview
     id="base"
     pagecolor="#ffffff"
     bordercolor="#666666"
     borderopacity="1.0"
     inkscape:pageopacity="0.0"
     inkscape:pageshadow="2"
     inkscape:zoom="2.8"
     inkscape:cx="87.504952"
     inkscape:cy="108.64061"
     inkscape:document-units="mm"
     inkscape:current-layer="layer1"
     showgrid="false"
     fit-margin-top="0"
     fit-margin-left="0"
     fit-margin-right="0"
     fit-margin-bottom="0"
     inkscape:snap-global="false"
     inkscape:window-width="1920"
     inkscape:window-height="1017"
     inkscape:window-x="1072"
     inkscape:window-y="394"
     inkscape:window-maximized="1" />
  <metadata
     id="metadata930">
    <rdf:RDF>
      <cc:Work
         rdf:about="">
        <dc:format>image/svg+xml</dc:format>
        <dc:type
           rdf:resource="http://purl.org/dc/dcmitype/StillImage" />
        <dc:title></dc:title>
      </cc:Work>
    </rdf:RDF>
  </metadata>
  <g
     inkscape:label="Layer 1"
     inkscape:groupmode="layer"
     id="layer1"
     transform="translate(-65.598001,-50.226722)">
    <path
       inkscape:connector-curvature="0"
       style="opacity:1;vector-effect:none;fill:#666666;fill-opacity:1;stroke:none;stroke-width:3.59999967;stroke-linecap:butt;stroke-linejoin:miter;stroke-miterlimit:4;stroke-dasharray:none;stroke-dashoffset:0;stroke-opacity:1"
       d="m 85.297786,50.741525 a 4.0275699,13.302326 77.127693 0 0 -7.47899,0.987592 4.0275699,13.302326 77.127693 0 0 -12.070899,6.889723 4.0275699,13.302326 77.127693 0 0 1.554368,1.356447 4.0275699,13.302326 77.127693 0 1 11.310699,-5.041265 4.0275699,13.302326 77.127693 0 1 12.310856,-0.393362 4.0275699,13.302326 77.127693 0 0 0.760199,-1.848769 4.0275699,13.302326 77.127693 0 0 -6.386233,-1.950366 z"
       id="path844-4" />
    <path
       inkscape:connector-curvature="0"
       style="opacity:0.94800002;vector-effect:none;fill:#808080;fill-opacity:1;stroke:none;stroke-width:3.5999999;stroke-linecap:butt;stroke-linejoin:miter;stroke-miterlimit:4;stroke-dasharray:none;stroke-dashoffset:0;stroke-opacity:1"
       d="m 102.00889,64.302871 a 13.302326,4.0275701 34.488776 0 0 -5.792596,-4.832853 13.302326,4.0275701 34.488776 0 0 -13.24487,-4.21287 13.302326,4.0275701 34.488776 0 0 0.05504,2.062275 13.302326,4.0275701 34.488776 0 1 11.370135,4.905741 13.302326,4.0275701 34.488776 0 1 8.628441,8.789867 13.302326,4.0275701 34.488776 0 0 1.87497,-0.69308 13.302326,4.0275701 34.488776 0 0 -2.89112,-6.01908 z"
       id="path844-4-7" />
    <path
       style="fill:#000000;stroke-width:1;filter:url(#filter1593)"
       d="m 71.964426,98.724495 c 0,-0.661066 0.668223,-5.101102 1.02953,-6.84085 0.144853,-0.697697 0.464124,-0.901072 1.414316,-0.901072 1.526535,0 1.381828,-0.94396 -0.172949,-1.127989 -0.871754,-0.103255 -1.034087,-0.289703 -0.871381,-1.001186 0.110045,-0.4809 0.57625,-3.39736 1.036169,-6.481003 0.85854,-5.756527 0.928175,-6.007104 1.669171,-6.007104 0.238598,0 0.508925,-0.225269 0.600702,-0.500588 0.09176,-0.275331 -0.13895,-0.500598 -0.512694,-0.500598 -0.687279,0 -0.672956,-1.188654 0.05903,-4.905785 l 0.21689,-1.101309 h 9.14726 9.14724 l 0.22332,1.101309 c 0.309818,1.527934 1.442216,8.817208 1.442216,9.283663 0,0.209972 -0.724045,0.437177 -1.608971,0.504906 -2.225568,0.170328 -2.195618,0.898068 0.04297,1.04352 l 1.83803,0.119428 0.685121,4.686245 c 0.376831,2.57743 0.786212,5.271938 0.90973,5.987779 0.223881,1.297249 0.219066,1.301536 -1.455209,1.301536 -2.209091,0 -1.980561,0.954263 0.268658,1.121815 1.596895,0.118972 1.622734,0.146063 1.871117,1.95813 0.4259,3.107234 0.64447,2.927159 -3.55263,2.927159 h -3.804496 l -10e-4,-4.305093 c -0.001,-3.58919 -0.133803,-4.522129 -0.797293,-5.610286 -2.358408,-3.868102 -8.058202,-3.868102 -10.416619,0 -0.66346,1.088157 -0.796051,2.021096 -0.797293,5.610286 l -0.001,4.305093 h -3.804482 c -3.285174,0 -3.804506,-0.09113 -3.804506,-0.668025 z M 85.980985,83.573818 c 0,-0.443793 -0.464589,-0.600713 -1.778481,-0.600713 -1.695154,0 -2.502161,0.39155 -1.948384,0.945327 0.140916,0.140917 1.037028,0.256096 1.991487,0.256096 1.275573,0 1.735378,-0.159163 1.735378,-0.60071 z m 2.321477,-5.428649 c 0.226926,-3.48221 -2.782762,-5.358599 -4.695243,-2.927294 -0.819786,1.042197 -1.172114,4.075839 -0.546092,4.701881 0.156161,0.156141 1.37259,0.231233 2.703186,0.16686 l 2.419271,-0.117004 z m -4.323838,-0.549851 c 0,-1.283393 0.820688,-2.631677 1.601887,-2.631677 0.781199,0 1.601887,1.348284 1.601887,2.631677 0,1.334925 -0.04453,1.373045 -1.601887,1.373045 -1.557386,0 -1.601887,-0.03812 -1.601887,-1.373045 z M 75.168222,66.954289 v -1.201422 h 10.412289 10.412312 v 1.201422 1.201424 H 85.580511 75.168222 Z m -2.002374,-7.408753 v -5.406385 h 2.002374 2.00235 v 2.402848 2.402835 h 3.203793 3.203795 v -2.402835 -2.402848 h 2.002351 2.002371 v 2.402848 2.402835 h 3.203795 3.203774 v -2.402835 -2.402848 h 2.002372 2.002368 v 5.406385 5.406402 H 85.580511 73.165848 Z"
       id="path839-9"
       inkscape:connector-curvature="0"
       sodipodi:nodetypes="ccscccscscccccscccccsccscccsccsccsssssccccccssssscccccccccscccccccccccccccccccccccs" />
    <path
       style="fill:#ffffff;stroke-width:1"
       d="m 72.432146,97.969257 c 0,-0.638328 0.64524,-4.92565 0.99412,-6.605558 0.13987,-0.673701 0.44816,-0.87008 1.36567,-0.87008 1.47403,0 1.3343,-0.911492 -0.167,-1.089192 -0.84177,-0.0997 -0.99852,-0.279738 -0.84141,-0.96675 0.10626,-0.46436 0.55643,-3.280508 1.00053,-6.258089 0.82901,-5.558531 0.89625,-5.80049 1.61176,-5.80049 0.230391,0 0.491421,-0.217521 0.58004,-0.48337 0.0886,-0.265861 -0.13417,-0.48338 -0.49506,-0.48338 -0.66364,0 -0.649809,-1.14777 0.057,-4.73705 l 0.20943,-1.06343 h 8.83264 8.83262 l 0.215639,1.06343 c 0.299162,1.47538 1.392611,8.51394 1.392611,8.964351 0,0.20275 -0.699141,0.42214 -1.55363,0.48754 -2.14902,0.16447 -2.1201,0.867179 0.0415,1.007628 l 1.774811,0.115321 0.661559,4.525061 c 0.36387,2.488779 0.759171,5.09061 0.87844,5.781828 0.216181,1.25263 0.211529,1.256771 -1.40516,1.256771 -2.13311,0 -1.91244,0.921441 0.259419,1.083231 1.54197,0.114879 1.566921,0.141038 1.80676,1.890778 0.411242,3.000362 0.622292,2.826481 -3.430439,2.826481 h -3.67364 l -0.001,-4.15702 c -0.001,-3.46574 -0.1292,-4.366591 -0.76987,-5.41732 -2.27729,-3.735059 -7.78104,-3.735059 -10.05834,0 -0.64064,1.050729 -0.76867,1.95158 -0.76987,5.41732 l -0.001,4.15702 h -3.67364 c -3.17218,0 -3.67365,-0.088 -3.67365,-0.645049 z m 13.53446,-14.629569 c 0,-0.42853 -0.44861,-0.580051 -1.71731,-0.580051 -1.63685,0 -2.4161,0.378081 -1.88137,0.912812 0.13607,0.13607 1.00136,0.247288 1.92299,0.247288 1.2317,0 1.67569,-0.153689 1.67569,-0.580049 z m 2.24163,-5.24193 c 0.21912,-3.36244 -2.68705,-5.17429 -4.53375,-2.82661 -0.79159,1.00635 -1.1318,3.93565 -0.52731,4.54016 0.15079,0.15077 1.32538,0.223279 2.61021,0.16112 l 2.33606,-0.112979 z m -4.17512,-0.53094 c 0,-1.23925 0.79246,-2.54116 1.54679,-2.54116 0.75433,0 1.54679,1.30191 1.54679,2.54116 0,1.289011 -0.043,1.325819 -1.54679,1.325819 -1.50382,0 -1.54679,-0.0368 -1.54679,-1.325819 z m -8.507369,-10.27503 v -1.1601 h 10.054159 10.054181 v 1.1601 1.1601 H 85.579906 75.525747 Z m -1.933501,-7.15393 v -5.220431 h 1.933501 1.93348 v 2.320201 2.32019 h 3.093599 3.0936 v -2.32019 -2.320201 h 1.93348 1.9335 v 2.320201 2.32019 h 3.0936 3.09358 v -2.32019 -2.320201 h 1.933501 1.933498 v 5.220431 5.22045 H 85.579906 73.592246 Z"
       id="path839"
       inkscape:connector-curvature="0"
       sodipodi:nodetypes="ccscccscscccccscccccsccscccsccsccsssssccccccssssscccccccccscccccccccccccccccccccccs" />
    <path
       inkscape:connector-curvature="0"
       style="opacity:1;vector-effect:none;fill:#cccccc;fill-opacity:1;stroke:none;stroke-width:3.59999967;stroke-linecap:butt;stroke-linejoin:miter;stroke-miterlimit:4;stroke-dasharray:none;stroke-dashoffset:0;stroke-opacity:1"
       d="m 91.448561,52.220509 a 4.0275698,13.302326 77.127693 0 1 0.235458,0.471382 4.0275698,13.302326 77.127693 0 1 -2.211729,3.047157 3.067194,1.6937979 72.885502 0 0 0.0026,0.0051 4.0275699,13.302326 77.127693 0 1 -9.858084,3.847065 4.0275699,13.302326 77.127693 0 1 -10.562289,0.817435 3.067194,1.6937979 82.097668 0 0 1.59e-4,-0.002 4.0275698,13.302326 77.127693 0 1 -0.818676,-0.149838 4.0275699,13.302326 77.127693 0 1 -0.02141,-0.0057 4.0275698,13.302326 77.127693 0 1 -0.68497,-0.187995 4.0275699,13.302326 77.127693 0 1 -0.02668,-0.0093 4.0275698,13.302326 77.127693 0 1 -1.755082,-1.434933 4.0275698,13.302326 77.127693 0 1 0.04901,-0.709632 3.067194,1.6937979 82.097668 0 0 -0.147356,2.08159 3.067194,1.6937979 82.097668 0 0 1.529396,2.711497 4.0275699,13.302326 77.127693 0 0 13.23206,0.094 4.0275699,13.302326 77.127693 0 0 11.902601,-5.878085 3.067194,1.6937979 72.885502 0 0 0.10532,-2.920897 3.067194,1.6937979 72.885502 0 0 -0.970375,-1.776797 z m -25.24743,4.924156 a 3.067194,1.6937979 82.097668 0 0 -0.04591,0.05987 4.0275698,13.302326 77.127693 0 1 0.04591,-0.05987 z m -0.181014,0.262603 a 3.067194,1.6937979 82.097668 0 0 -0.112145,0.217931 4.0275698,13.302326 77.127693 0 1 0.112145,-0.217931 z"
       id="path844-9" />
    <path
       inkscape:connector-curvature="0"
       style="opacity:1;vector-effect:none;fill:#e6e6e6;fill-opacity:1;stroke:none;stroke-width:3.59999943;stroke-linecap:butt;stroke-linejoin:miter;stroke-miterlimit:4;stroke-dasharray:none;stroke-dashoffset:0;stroke-opacity:1"
       d="m 105.08729,69.829437 a 13.302326,4.0275698 34.488776 0 1 -0.18728,0.492514 13.302326,4.0275698 34.488776 0 1 -3.73977,0.437042 1.693798,3.0671942 30.246585 0 0 -0.002,0.0054 13.302326,4.0275701 34.488776 0 1 -9.507677,-4.646065 13.302326,4.0275701 34.488776 0 1 -7.755972,-7.216302 1.693798,3.0671942 39.458751 0 0 0.0015,-0.0013 13.302326,4.0275698 34.488776 0 1 -0.444327,-0.703745 13.302326,4.0275701 34.488776 0 1 -0.01027,-0.01964 13.302326,4.0275698 34.488776 0 1 -0.325686,-0.631232 13.302326,4.0275701 34.488776 0 1 -0.01123,-0.02593 13.302326,4.0275698 34.488776 0 1 -0.133258,-2.263092 13.302326,4.0275698 34.488776 0 1 0.555232,-0.444631 1.693798,3.0671942 39.458751 0 0 -1.631111,1.301619 1.693798,3.0671942 39.458751 0 0 -0.958702,2.961783 13.302326,4.0275701 34.488776 0 0 8.893929,9.797668 13.302326,4.0275701 34.488776 0 0 12.386672,4.774323 1.693798,3.0671942 30.246585 0 0 2.22006,-1.901068 1.693798,3.0671942 30.246585 0 0 0.64977,-1.917404 z M 84.362894,54.591993 a 1.693798,3.0671942 39.458751 0 0 -0.07515,0.0068 13.302326,4.0275698 34.488776 0 1 0.07515,-0.0068 z m -0.315793,0.04472 a 1.693798,3.0671942 39.458751 0 0 -0.236288,0.06512 13.302326,4.0275698 34.488776 0 1 0.236288,-0.06512 z"
       id="path844-9-2" />
  </g>
</svg>
