<?xml version="1.0" encoding="UTF-8"?>
<svg width="39.537mm" height="53.08mm" version="1.1" viewBox="0 0 39.537 53.08" xmlns="http://www.w3.org/2000/svg" xmlns:cc="http://creativecommons.org/ns#" xmlns:dc="http://purl.org/dc/elements/1.1/" xmlns:rdf="http://www.w3.org/1999/02/22-rdf-syntax-ns#">
<defs>
<filter id="a" x="-.14385" y="-.086452" width="1.2877" height="1.1729" color-interpolation-filters="sRGB">
<feGaussianBlur stdDeviation="1.6301788"/>
</filter>
</defs>
<metadata>
<rdf:RDF>
<cc:Work rdf:about="">
<dc:format>image/svg+xml</dc:format>
<dc:type rdf:resource="http://purl.org/dc/dcmitype/StillImage"/>
<dc:title/>
</cc:Work>
</rdf:RDF>
</metadata>
<g transform="translate(-65.598 -50.227)">
<path d="m85.298 50.742a4.0276 13.302 77.128 0 0-7.479 0.98759 4.0276 13.302 77.128 0 0-12.071 6.8897 4.0276 13.302 77.128 0 0 1.5544 1.3564 4.0276 13.302 77.128 0 1 11.311-5.0413 4.0276 13.302 77.128 0 1 12.311-0.39336 4.0276 13.302 77.128 0 0 0.7602-1.8488 4.0276 13.302 77.128 0 0-6.3862-1.9504z" fill="#666"/>
<path d="m102.01 64.303a13.302 4.0276 34.489 0 0-5.7926-4.8329 13.302 4.0276 34.489 0 0-13.245-4.2129 13.302 4.0276 34.489 0 0 0.05504 2.0623 13.302 4.0276 34.489 0 1 11.37 4.9057 13.302 4.0276 34.489 0 1 8.6284 8.7899 13.302 4.0276 34.489 0 0 1.875-0.69308 13.302 4.0276 34.489 0 0-2.8911-6.0191z" fill="#808080" opacity=".948"/>
<path d="m71.964 98.724c0-0.66107 0.66822-5.1011 1.0295-6.8408 0.14485-0.6977 0.46412-0.90107 1.4143-0.90107 1.5265 0 1.3818-0.94396-0.17295-1.128-0.87175-0.10326-1.0341-0.2897-0.87138-1.0012 0.11004-0.4809 0.57625-3.3974 1.0362-6.481 0.85854-5.7565 0.92818-6.0071 1.6692-6.0071 0.2386 0 0.50892-0.22527 0.6007-0.50059 0.09176-0.27533-0.13895-0.5006-0.51269-0.5006-0.68728 0-0.67296-1.1887 0.05903-4.9058l0.21689-1.1013h18.294l0.22332 1.1013c0.30982 1.5279 1.4422 8.8172 1.4422 9.2837 0 0.20997-0.72404 0.43718-1.609 0.50491-2.2256 0.17033-2.1956 0.89807 0.04297 1.0435l1.838 0.11943 0.68512 4.6862c0.37683 2.5774 0.78621 5.2719 0.90973 5.9878 0.22388 1.2972 0.21907 1.3015-1.4552 1.3015-2.2091 0-1.9806 0.95426 0.26866 1.1218 1.5969 0.11897 1.6227 0.14606 1.8711 1.9581 0.4259 3.1072 0.64447 2.9272-3.5526 2.9272h-3.8045l-1e-3 -4.3051c-1e-3 -3.5892-0.1338-4.5221-0.79729-5.6103-2.3584-3.8681-8.0582-3.8681-10.417 0-0.66346 1.0882-0.79605 2.0211-0.79729 5.6103l-1e-3 4.3051h-3.8045c-3.2852 0-3.8045-0.09113-3.8045-0.66802zm14.017-15.151c0-0.44379-0.46459-0.60071-1.7785-0.60071-1.6952 0-2.5022 0.39155-1.9484 0.94533 0.14092 0.14092 1.037 0.2561 1.9915 0.2561 1.2756 0 1.7354-0.15916 1.7354-0.60071zm2.3215-5.4286c0.22693-3.4822-2.7828-5.3586-4.6952-2.9273-0.81979 1.0422-1.1721 4.0758-0.54609 4.7019 0.15616 0.15614 1.3726 0.23123 2.7032 0.16686l2.4193-0.117zm-4.3238-0.54985c0-1.2834 0.82069-2.6317 1.6019-2.6317s1.6019 1.3483 1.6019 2.6317c0 1.3349-0.04453 1.373-1.6019 1.373-1.5574 0-1.6019-0.03812-1.6019-1.373zm-8.8104-10.641v-1.2014h20.825v2.4028h-20.825zm-2.0024-7.4088v-5.4064h4.0047v4.8057h6.4076v-4.8057h4.0047v4.8057h6.4076v-4.8057h4.0047v10.813h-24.829z" filter="url(#a)"/>
<path d="m72.432 97.969c0-0.63833 0.64524-4.9256 0.99412-6.6056 0.13987-0.6737 0.44816-0.87008 1.3657-0.87008 1.474 0 1.3343-0.91149-0.167-1.0892-0.84177-0.0997-0.99852-0.27974-0.84141-0.96675 0.10626-0.46436 0.55643-3.2805 1.0005-6.2581 0.82901-5.5585 0.89625-5.8005 1.6118-5.8005 0.23039 0 0.49142-0.21752 0.58004-0.48337 0.0886-0.26586-0.13417-0.48338-0.49506-0.48338-0.66364 0-0.64981-1.1478 0.057-4.737l0.20943-1.0634h17.665l0.21564 1.0634c0.29916 1.4754 1.3926 8.5139 1.3926 8.9644 0 0.20275-0.69914 0.42214-1.5536 0.48754-2.149 0.16447-2.1201 0.86718 0.0415 1.0076l1.7748 0.11532 0.66156 4.5251c0.36387 2.4888 0.75917 5.0906 0.87844 5.7818 0.21618 1.2526 0.21153 1.2568-1.4052 1.2568-2.1331 0-1.9124 0.92144 0.25942 1.0832 1.542 0.11488 1.5669 0.14104 1.8068 1.8908 0.41124 3.0004 0.62229 2.8265-3.4304 2.8265h-3.6736l-1e-3 -4.157c-1e-3 -3.4657-0.1292-4.3666-0.76987-5.4173-2.2773-3.7351-7.781-3.7351-10.058 0-0.64064 1.0507-0.76867 1.9516-0.76987 5.4173l-1e-3 4.157h-3.6736c-3.1722 0-3.6736-0.088-3.6736-0.64505zm13.534-14.63c0-0.42853-0.44861-0.58005-1.7173-0.58005-1.6368 0-2.4161 0.37808-1.8814 0.91281 0.13607 0.13607 1.0014 0.24729 1.923 0.24729 1.2317 0 1.6757-0.15369 1.6757-0.58005zm2.2416-5.2419c0.21912-3.3624-2.687-5.1743-4.5338-2.8266-0.79159 1.0064-1.1318 3.9356-0.52731 4.5402 0.15079 0.15077 1.3254 0.22328 2.6102 0.16112l2.3361-0.11298zm-4.1751-0.53094c0-1.2392 0.79246-2.5412 1.5468-2.5412s1.5468 1.3019 1.5468 2.5412c0 1.289-0.043 1.3258-1.5468 1.3258-1.5038 0-1.5468-0.0368-1.5468-1.3258zm-8.5074-10.275v-1.1601h20.108v2.3202h-20.108zm-1.9335-7.1539v-5.2204h3.867v4.6404h6.1872v-4.6404h3.867v4.6404h6.1872v-4.6404h3.867v10.441h-23.975z" fill="#fff"/>
<path d="m91.449 52.221a4.0276 13.302 77.128 0 1 0.23546 0.47138 4.0276 13.302 77.128 0 1-2.2117 3.0472 3.0672 1.6938 72.886 0 0 0.0026 0.0051 4.0276 13.302 77.128 0 1-9.8581 3.8471 4.0276 13.302 77.128 0 1-10.562 0.81744 3.0672 1.6938 82.098 0 0 1.59e-4 -2e-3 4.0276 13.302 77.128 0 1-0.81868-0.14984 4.0276 13.302 77.128 0 1-0.02141-0.0057 4.0276 13.302 77.128 0 1-0.68497-0.188 4.0276 13.302 77.128 0 1-0.02668-0.0093 4.0276 13.302 77.128 0 1-1.7551-1.4349 4.0276 13.302 77.128 0 1 0.04901-0.70963 3.0672 1.6938 82.098 0 0-0.14736 2.0816 3.0672 1.6938 82.098 0 0 1.5294 2.7115 4.0276 13.302 77.128 0 0 13.232 0.094 4.0276 13.302 77.128 0 0 11.903-5.8781 3.0672 1.6938 72.886 0 0 0.10532-2.9209 3.0672 1.6938 72.886 0 0-0.97038-1.7768zm-25.247 4.9242a3.0672 1.6938 82.098 0 0-0.04591 0.05987 4.0276 13.302 77.128 0 1 0.04591-0.05987zm-0.18101 0.2626a3.0672 1.6938 82.098 0 0-0.11214 0.21793 4.0276 13.302 77.128 0 1 0.11214-0.21793z" fill="#ccc"/>
<path d="m105.09 69.829a13.302 4.0276 34.489 0 1-0.18728 0.49251 13.302 4.0276 34.489 0 1-3.7398 0.43704 1.6938 3.0672 30.247 0 0-2e-3 0.0054 13.302 4.0276 34.489 0 1-9.5077-4.6461 13.302 4.0276 34.489 0 1-7.756-7.2163 1.6938 3.0672 39.459 0 0 0.0015-0.0013 13.302 4.0276 34.489 0 1-0.44433-0.70374 13.302 4.0276 34.489 0 1-0.01027-0.01964 13.302 4.0276 34.489 0 1-0.32569-0.63123 13.302 4.0276 34.489 0 1-0.01123-0.02593 13.302 4.0276 34.489 0 1-0.13326-2.2631 13.302 4.0276 34.489 0 1 0.55523-0.44463 1.6938 3.0672 39.459 0 0-1.6311 1.3016 1.6938 3.0672 39.459 0 0-0.9587 2.9618 13.302 4.0276 34.489 0 0 8.8939 9.7977 13.302 4.0276 34.489 0 0 12.387 4.7743 1.6938 3.0672 30.247 0 0 2.2201-1.9011 1.6938 3.0672 30.247 0 0 0.64977-1.9174zm-20.724-15.237a1.6938 3.0672 39.459 0 0-0.07515 0.0068 13.302 4.0276 34.489 0 1 0.07515-0.0068zm-0.31579 0.04472a1.6938 3.0672 39.459 0 0-0.23629 0.06512 13.302 4.0276 34.489 0 1 0.23629-0.06512z" fill="#e6e6e6"/>
</g>
</svg>
