<svg width="144.249" height="204.197" viewBox="0 0 38.166 54.027" xmlns="http://www.w3.org/2000/svg"><defs><filter id="a" x="-.059" y="-.04" width="1.118" height="1.081" color-interpolation-filters="sRGB"><feGaussianBlur stdDeviation=".793"/></filter></defs><path transform="rotate(45 180.93 -8.747) scale(1.06008 1.06106)" d="M84.807 99.636c1.738.816 2.815 2.475 2.89 4.452.009.22-.01.495-.04.612l-.057.213-1.098-.235c-.604-.13-1.275-.26-1.49-.29-.388-.052-.392-.056-.41-.361-.027-.469-.364-1.095-.736-1.363-.505-.366-1.218-.473-1.777-.268-.243.09-.48.126-.525.082-.399-.393-1.933-2.171-1.919-2.225.01-.038.308-.231.66-.429 1.347-.756 3.134-.83 4.502-.188zm-4.63 2.23c.537.609.983 1.117.992 1.13.048.064-.415.81-.491.79-.078-.021-2.401-1.687-2.458-1.763-.06-.08.836-1.302.936-1.275.026.007.486.51 1.022 1.118zm3.253 1.934c.296.456.223.735-.55 2.074-.37.643-.765 1.271-.876 1.396-.51.568-1.464.29-1.644-.478-.073-.314.01-.509.796-1.879.64-1.113.779-1.305 1.046-1.443.24-.123.389-.136.673-.06.284.076.408.163.555.39zm-4.217-.296c.623.462 1.144.852 1.157.868.034.04-.355.746-.472.856-.077.073-.303-.027-1.152-.511-1.625-.927-1.573-.886-1.446-1.123.343-.636.594-.992.68-.963.055.019.61.411 1.233.873zm8.165 2.436c-.32.777-.482 1.002-.682.945-.332-.094-2.565-1.08-2.606-1.152-.023-.039.051-.24.164-.447l.204-.377.806.158 1.548.302.742.144zm-9.167-.825c.711.406 1.3.752 1.31.768.01.017-.07.187-.176.379l-.194.349-1.39-.423c-.92-.28-1.416-.466-1.47-.55-.065-.105-.027-.224.21-.657.16-.29.319-.545.354-.566.035-.021.646.294 1.356.7zm6.925 1.8c.754.335 1.376.614 1.383.62.015.013-.656 1.18-.696 1.208-.016.012-.626-.323-1.354-.744l-1.326-.766.243-.43c.134-.236.274-.445.311-.463.037-.019.685.24 1.439.575zm-.932 1.634c.662.386 1.217.726 1.233.755.079.136-.595 1.17-.774 1.19-.064.006-.407-.28-.764-.636-.357-.356-.83-.782-1.051-.947a7.83 7.83 0 0 1-.426-.33c-.056-.073.405-.8.488-.769.05.019.633.351 1.294.737zm-8.524.688c.55.308 1.244.847 1.217.945-.013.049-.163.298-.334.555-.237.356-.34.45-.435.395-.068-.04-.55-.317-1.074-.615-.522-.298-.973-.577-1.002-.62-.055-.084.522-.772.689-.822.27-.081.609-.023.94.162zm3.099 2.055c.628.367.75.505.68.774-.02.076-.3.62-.624 1.21-.806 1.465-1.033 2.035-1.488 3.733-.436 1.626-.852 2.669-1.595 3.995-.857 1.529-1.426 2.15-2.12 2.316-.522.125-.857-.086-1.263-.797-.6-1.047-.743-2.375-.423-3.901.341-1.624.89-2.477 2.767-4.307 1.427-1.391 1.862-1.871 2.476-2.736.257-.36.522-.673.59-.695.176-.055.288-.009 1 .407zm2.619 1.231c.72.344.903.489 1.047.823.106.247.098.337-.066.756a4.876 4.876 0 0 1-.208.487c-.075.044-2.125-1.212-2.135-1.307-.007-.065.117-.34.274-.611.32-.551.261-.543 1.088-.148zm13.562 3.69c.63.233 1.267.644 1.744 1.125.33.333 1.097 1.522 1.063 1.648-.01.039-.655.28-1.433.534-1.392.457-1.417.461-1.586.276-.674-.737-1.199-.95-1.957-.796-.5.101-.95.39-1.214.777l-.157.232-.65-.227c-.358-.125-1.002-.348-1.433-.495l-.783-.267.06-.222c.17-.635 1.066-1.644 1.935-2.178 1.393-.857 2.83-.99 4.41-.406zm-20.225-5.179c.56.33 1.02.648 1.023.707.005.082-.756.963-.922 1.067-.027.018-2.413-1.334-2.46-1.393-.045-.056 1.178-1.036 1.258-1.009a25.2 25.2 0 0 1 1.1.628zm6.143 3.542c.515.3.952.574.973.61.038.065-.342 1.374-.41 1.415-.03.017-1.28-.674-2.35-1.3-.148-.087-.137-.124.313-1.01.228-.448.208-.451 1.474.285zm-7.732-2.007c.626.362 1.149.674 1.161.692.05.074-1.028 1.074-1.129 1.048-.12-.031-2.612-1.467-2.645-1.525-.012-.02.235-.25.547-.512.427-.358.613-.462.748-.419.099.032.692.353 1.318.716zm24.921 7.512c.062.432.085 1.112.04 1.138-.036.021-2.803.316-2.938.313-.127-.003-.196-.73-.085-.888.05-.072 2.806-1.027 2.896-1.003.014.004.053.202.087.44zM71.5 114.077c.66.386 1.213.725 1.23.753.016.029-.052.143-.151.253-.1.11-.331.428-.515.705-.257.388-.362.487-.454.429a52.349 52.349 0 0 0-1.117-.612 82.417 82.417 0 0 1-1.276-.696l-.28-.161.338-.505c.47-.702.723-.962.887-.91.076.024.679.359 1.338.744zm8.545 2.47c.661.387 1.214.724 1.228.75.028.048-.195 1.519-.234 1.541-.012.007-.33-.164-.705-.38-.376-.217-.98-.559-1.342-.76-.656-.364-.66-.368-.629-.668.034-.336.358-1.24.433-1.207.026.011.588.337 1.25.724zm13.79 3.785c.105.1.215.296.246.435.065.303.06 2.923-.007 3.172-.123.46-.709.776-1.198.644-.316-.085-.644-.452-.682-.763-.052-.423-.037-2.868.019-3.075.183-.683 1.092-.915 1.621-.413zm4.297 2.016c.023 1.043.09.967-.834.953-.448-.007-1.14-.01-1.536-.007l-.722.006-.01-.481c-.006-.265.013-.516.041-.56.04-.06 2.212-.352 2.903-.389.117-.006.15.096.158.478zm-8.097-2.171 1.197.416.022.382c.013.21-.009.425-.047.478-.04.053-.255.072-.48.041a77.5 77.5 0 0 0-1.473-.168c-.585-.062-1.072-.126-1.081-.143-.033-.056.045-1.22.093-1.406.055-.212-.064-.24 1.77.4zm-19.989-4.118c.727.397 1.334.743 1.348.768.014.025-.099.418-.251.874l-.278.83-.322-.135a51.864 51.864 0 0 0-1.502-.557l-1.18-.423.134-.499c.149-.55.552-1.497.66-1.548.039-.018.665.292 1.392.69zm8.454 2.053c.124.078.686.407 1.25.73.565.323 1.05.626 1.078.672.057.092-.34 1.227-.474 1.353-.058.055-.15.036-.302-.063-.121-.077-.695-.395-1.276-.705-.58-.31-1.067-.6-1.08-.643-.032-.107.47-1.533.531-1.507.027.011.15.084.273.163zm19.612 5.927c.055.183-.01 1.175-.083 1.276-.057.08-.283.05-.988-.134-.502-.13-1.027-.252-1.167-.27l-.534-.067c-.3-.038-.334-.116-.306-.69l.013-.26 1.293.008c1.58.008 1.737.02 1.772.137zm-6.845-1.363a5.54 5.54 0 0 1-.024.54c-.017.065-2.76.103-2.993.04-.055-.014-.096-.276-.09-.58.004-.305.001-.619-.007-.698-.012-.109.053-.136.269-.113 1.408.15 1.97.215 2.377.274l.475.07zm-12.445-1.84c.671.374 1.227.689 1.234.7.022.032-.62 1.201-.677 1.234-.029.016-.524-.251-1.101-.594a44.61 44.61 0 0 0-1.307-.757c-.216-.11-.243-.158-.164-.295.052-.09.193-.364.314-.608.162-.328.254-.434.35-.403.072.023.68.349 1.351.723zm12.432 3.5c-.008.319-.041.46-.107.464-.264.016-1.703.32-2.194.463-.42.122-.587.134-.667.047-.102-.11-.175-1.015-.105-1.287.024-.094.392-.126 1.45-.124.78 0 1.468-.003 1.527-.01.068-.006.104.159.096.448zm-23.115-6.157c.086.038.697.26 1.358.495.66.235 1.233.471 1.272.525.04.054.057.254.037.445-.02.192-.016.618.008.948l.045.6-.786-.102a15.067 15.067 0 0 0-1.59-.102c-.441 0-.815-.004-.83-.008-.106-.028-.093-1.987.017-2.58.064-.346.12-.373.47-.221zm8.543 3.774c.04.028.594.355 1.23.728.635.373 1.145.711 1.134.753-.02.079-1.01 1.488-1.072 1.528-.02.012-.347-.26-.727-.604a13.939 13.939 0 0 0-1.55-1.247c-.114-.08-.088-.14.278-.663.373-.532.512-.63.707-.495zm20.855 7.07c.159.157.404 1.078.3 1.129-.05.025-2.438.016-2.533-.01-.104-.027-.15-1.184-.049-1.24.049-.026.354-.082.678-.123.729-.092 1.361.004 1.604.244zm-26.417-6.845c.16.51.701 1.394 1.028 1.676.45.39 1.152.632 1.593.551.303-.055.985-.477 1.309-.81.097-.1.166-.07.648.28.784.57 1.775 1.502 1.74 1.634-.057.212-1.056 1.043-1.678 1.395-.665.378-1.628.634-2.316.618-.916-.023-2.351-.546-3.12-1.14-1.052-.811-2.147-2.698-2.48-4.273a2.94 2.94 0 0 1-.073-.432c.022-.08 1.209-.085 1.97-.007 1.144.116 1.271.163 1.38.508zm22.968 7.004c.046.096.106.438.132.758.072.876.356 2.185.855 3.937.322 1.133.462 1.819.5 2.447.102 1.693-.495 3.474-1.57 4.686-.477.537-1.262 1.091-1.673 1.181-1.279.28-1.766-1.264-1.491-4.726.076-.965.157-1.393.521-2.752.47-1.751.57-2.452.607-4.22.026-1.222.047-1.345.248-1.437.12-.055 1.572-.108 1.738-.063.027.007.087.092.133.189zm3.976 1.806c.025.117.14.449.254.736.114.288.192.532.172.543-.044.026-2.693.024-2.787-.002-.097-.026-.383-1.394-.302-1.44.036-.022.573-.04 1.192-.04.619-.001 1.193-.005 1.275-.007.096-.003.166.073.196.21zm-7.084-1.488c.007.346-.014.637-.047.646-.112.032-2.488.01-2.507-.022-.01-.018.017-.268.06-.555.075-.502.09-.53.385-.7.348-.2.754-.224 1.545-.091l.55.093zm8.189 4.147c.152.385.24.718.196.74-.045.023-.258.038-.474.034-.215-.004-.894-.007-1.508-.007l-1.117.001-.209-.717c-.115-.394-.172-.735-.127-.757.083-.04 2.745-.056 2.885-.016.042.012.202.337.354.722zm-8.226-2.125c-.02.384-.061.714-.094.733-.082.047-2.528.047-2.706 0-.123-.032-.122-.126.008-.654.084-.34.161-.664.172-.721.017-.094 2.156-.167 2.521-.085.1.022.124.2.099.727zm8.724 3.975c.133.885.143 1.381.028 1.39-.231.02-3.05-.07-3.063-.097-.027-.05-.18-1.733-.16-1.745.028-.016 3.021-.01 3.082.005.026.007.077.209.113.447zm-8.93-2.349a2.553 2.553 0 0 0-.052.359c-.005.095-.076.338-.158.54l-.15.366h-1.534c-.844.001-1.544-.016-1.557-.038-.024-.043.493-1.432.544-1.46.047-.027 2.755-.004 2.859.023.05.014.072.108.048.21zm9.026 4.698c-.009.154-.09.64-.178 1.082l-.162.8-.495-.08c-1.491-.244-2.638-.456-2.655-.49-.01-.022.056-.42.148-.884l.167-.845 1.492.04c.82.022 1.538.053 1.595.069.058.015.098.154.088.308zm-9.626-2.483c-.04.15-.11.502-.154.78l-.08.504-1.507-.04c-1.086-.028-1.516-.07-1.54-.15-.044-.145.163-1.346.239-1.39.08-.046 2.789-.059 2.971-.014.11.028.126.102.07.31zm-.312 2.57c-.017.368-.047.678-.065.688-.019.01-.612.023-1.319.027s-1.385.018-1.508.03c-.18.018-.225-.007-.23-.128-.008-.213.06-1.356.081-1.365.01-.004.624.01 1.366.032.741.022 1.429.041 1.528.043.161.003.176.07.147.672zm9.273 2.715c-.525 1.145-1.205 2.285-1.34 2.248-.043-.011-.401-.204-.796-.428s-1.018-.534-1.385-.69l-.666-.282.179-.231c.098-.128.331-.5.518-.828.187-.327.359-.607.383-.62.07-.04 2.243.317 2.755.453l.469.124zm-9.294-1.22c.005.086.033.416.062.734.03.318.044.58.032.584-.012.003-.325.034-.697.07-.37.037-1.021.146-1.444.244-.424.097-.803.169-.843.158-.105-.028-.241-1.833-.143-1.89.063-.036 2.875-.095 2.997-.063.015.004.031.078.036.164zm5.744 3.014c.69.305 1.72.881 1.79 1 .058.101-.636.79-1.396 1.387-.883.693-1.927 1.188-2.879 1.365-.98.183-1.532.16-2.513-.107-1.298-.352-2.092-.974-2.791-2.185-.477-.827-.799-1.844-.632-1.998.135-.124 1.448-.404 2.283-.487l.593-.058.247.587c.36.853.555 1.035 1.268 1.183.903.186 1.598-.023 2.48-.746.508-.419.465-.42 1.55.06z" filter="url(#a)"/><path d="M34.579 8.776c.652 1.806.24 3.74-1.104 5.192a2.69 2.69 0 0 1-.462.404l-.19.11-.61-.942a30.354 30.354 0 0 0-.85-1.258c-.237-.312-.237-.318-.034-.546.313-.35.517-1.032.444-1.484-.099-.616-.527-1.196-1.067-1.446-.236-.109-.429-.25-.43-.314-.004-.56.169-2.902.217-2.93.034-.02.38.054.77.164 1.487.418 2.803 1.629 3.316 3.05zm-4.85-1.696c-.052.809-.095 1.483-.098 1.5-.012.079-.866.278-.906.21-.04-.07-.505-2.89-.492-2.984.015-.1 1.512-.33 1.564-.24.013.024-.017.705-.068 1.514zm.932 3.666c-.113.533-.362.677-1.855 1.078-.717.193-1.44.358-1.607.368-.762.042-1.24-.83-.824-1.5.17-.274.366-.353 1.891-.766 1.24-.335 1.474-.373 1.76-.28.256.081.371.178.519.432.146.255.172.404.116.668zm-2.773-3.19c.115.766.207 1.411.205 1.432-.005.052-.779.276-.94.271-.105-.003-.194-.234-.452-1.176-.495-1.804-.486-1.739-.229-1.816.692-.208 1.122-.282 1.162-.2.025.051.14.72.254 1.488zm4.052 7.495c-.776.324-1.05.368-1.151.187-.169-.302-1.05-2.579-1.028-2.658.011-.043.206-.134.432-.2l.41-.122.46.681c.251.375.648.964.88 1.308l.423.627zM26.04 7.986c.215.79.388 1.451.383 1.47-.005.018-.181.083-.392.143l-.384.109-.684-1.281c-.453-.849-.672-1.331-.65-1.429.028-.12.138-.177.612-.315.319-.093.611-.16.651-.15.04.01.249.663.464 1.453zm3.623 6.17c.296.77.54 1.406.54 1.415.002.021-1.297.37-1.346.363-.02-.003-.214-.67-.432-1.484l-.395-1.479.476-.132c.261-.073.508-.121.547-.108.04.013.314.654.61 1.424zm-1.814.496c.195.741.347 1.374.338 1.406-.04.151-1.248.406-1.388.293-.05-.04-.09-.485-.091-.99 0-.504-.034-1.14-.074-1.412a7.831 7.831 0 0 1-.068-.534c.012-.092.853-.28.89-.2.022.05.198.696.393 1.437zm-6.514-5.54c.171.605.28 1.477.193 1.528-.044.025-.327.095-.63.156-.419.084-.558.077-.585-.028-.02-.077-.166-.614-.325-1.194s-.28-1.097-.27-1.147c.02-.099.914-.178 1.068-.095.248.134.446.415.55.78zm.739 3.643c.184.703.172.888-.067 1.028-.068.04-.65.227-1.296.414-1.606.467-2.17.71-3.692 1.588-1.458.842-2.49 1.285-3.953 1.697-1.687.475-2.529.513-3.136.14-.458-.282-.546-.668-.33-1.458.316-1.164 1.154-2.205 2.46-3.057 1.388-.907 2.38-1.123 5.002-1.09 1.992.026 2.638-.006 3.684-.183.437-.074.846-.107.91-.074.162.085.209.197.418.995zm.98 2.723c.266.751.294.984.16 1.322-.1.25-.17.308-.581.488a4.879 4.879 0 0 1-.492.197c-.084-.022-.646-2.36-.585-2.434.04-.05.322-.158.625-.238.616-.164.569-.2.874.665zm6.98 12.199c.282.61.442 1.35.439 2.028-.002.469-.3 1.851-.414 1.917-.034.02-.66-.266-1.39-.636-1.308-.66-1.328-.675-1.317-.926.044-.998-.176-1.52-.82-1.947-.426-.281-.95-.396-1.409-.308l-.275.052-.3-.62c-.164-.341-.462-.954-.663-1.363l-.364-.743.199-.114c.57-.33 1.916-.409 2.908-.172 1.592.38 2.701 1.302 3.406 2.832zM19.398 9.714c.162.628.263 1.179.223 1.223-.054.062-1.216.147-1.406.103-.032-.007-.763-2.65-.755-2.726.008-.07 1.566.102 1.603.177.022.044.172.594.335 1.223zm1.839 6.848c.152.576.268 1.08.257 1.119-.02.074-1.213.73-1.291.71-.034-.009-.428-1.38-.742-2.58-.044-.166-.01-.184.936-.493.477-.155.466-.171.84 1.244zm-4.048-6.887c.187.7.336 1.29.332 1.311-.017.088-1.487.032-1.54-.057-.063-.107-.81-2.885-.792-2.949.006-.022.343-.011.75.025.554.05.759.107.824.233.048.092.24.739.426 1.438zm12.31 22.934c-.262.35-.726.847-.777.834-.04-.011-2.205-1.76-2.299-1.857-.087-.091.378-.655.568-.688.087-.015 2.711 1.259 2.757 1.338.007.013-.105.181-.249.373zM14.956 9.577c.194.74.345 1.37.337 1.402-.009.032-.137.064-.285.072a8.232 8.232 0 0 0-.863.135c-.456.092-.6.088-.624-.019a52.356 52.356 0 0 0-.358-1.221 81.81 81.81 0 0 1-.409-1.395l-.084-.312.596-.118c.828-.164 1.191-.169 1.27-.016.037.071.226.734.42 1.473zm4.296 7.79c.194.74.346 1.37.339 1.397-.015.054-1.213.936-1.256.925-.014-.004-.117-.35-.23-.768a111.7 111.7 0 0 0-.411-1.486c-.207-.721-.207-.726.027-.917.262-.213 1.13-.623 1.16-.547.01.026.177.654.371 1.395zm7.074 12.425a.998.998 0 0 1-.134.482c-.167.26-2.024 2.11-2.247 2.238-.413.239-1.05.048-1.303-.391-.164-.284-.136-.775.058-1.023.262-.335 2.001-2.053 2.187-2.16.612-.354 1.42.126 1.439.854zm1.613 4.465c-.722.753-.62.747-1.263.083a80.444 80.444 0 0 0-1.081-1.09l-.515-.507.333-.347c.183-.191.374-.356.424-.366.072-.015 1.814 1.315 2.328 1.777.087.078.04.174-.225.45zm-4.19-7.261.552 1.14-.254.286c-.14.157-.307.294-.372.305-.065.01-.23-.13-.368-.31a77.39 77.39 0 0 0-.923-1.16c-.37-.458-.668-.848-.663-.866.016-.063.894-.831 1.06-.928.189-.112.124-.215.968 1.533zM12.526 9.95c.233.795.418 1.468.41 1.496-.007.028-.365.226-.796.44l-.782.391-.133-.323a51.906 51.906 0 0 0-.668-1.457l-.536-1.133.448-.257c.495-.285 1.449-.669 1.562-.628.04.014.263.676.495 1.471zm4.526 7.43c.032.142.198.772.368 1.4.17.627.3 1.184.287 1.237-.025.105-1.109.627-1.291.622-.08-.002-.132-.08-.17-.259-.03-.14-.212-.77-.404-1.4-.191-.63-.33-1.179-.308-1.219.052-.098 1.416-.75 1.44-.69.011.027.046.165.078.308zm9.677 18.058c-.09.169-.838.825-.961.844-.097.016-.235-.165-.604-.793a16.134 16.134 0 0 0-.634-1.017l-.33-.425c-.185-.238-.154-.318.271-.704l.193-.174.91.92c1.11 1.121 1.213 1.241 1.154 1.35zm-3.876-5.804c-.184.18-.364.343-.399.364-.058.035-2.025-1.879-2.146-2.087-.028-.049.128-.263.347-.475.219-.212.439-.436.489-.497.069-.086.134-.06.27.11.89 1.101 1.241 1.545 1.487 1.875l.287.384zm-7.5-10.1c.211.738.38 1.354.378 1.367-.007.038-1.287.41-1.352.394-.031-.008-.192-.548-.358-1.2a44.643 44.643 0 0 0-.39-1.458c-.074-.232-.058-.284.094-.325.1-.027.394-.12.652-.208.347-.117.487-.127.533-.037.034.067.234.727.444 1.466zm6.316 11.265c-.23.22-.354.296-.404.252-.197-.175-1.43-.978-1.878-1.224-.384-.21-.51-.32-.505-.438.006-.15.594-.842.836-.985.084-.049.366.189 1.113.939.551.552 1.04 1.035 1.086 1.072.053.044-.038.185-.248.384zM9.68 10.1c.034.088.308.677.609 1.31.3.633.539 1.205.529 1.271-.01.066-.14.22-.29.34-.149.122-.447.426-.663.677l-.393.456-.484-.628c-.266-.345-.74-.883-1.052-1.196-.312-.312-.574-.58-.582-.593-.055-.095 1.34-1.471 1.837-1.812.29-.2.349-.179.488.175zm3.372 8.71c.009.048.168.67.354 1.383.186.713.307 1.314.27 1.335-.07.041-1.767.338-1.839.322-.022-.005-.062-.428-.087-.94a13.94 13.94 0 0 0-.214-1.978c-.025-.137.037-.162.665-.273.64-.112.807-.083.85.15zm9.747 19.745c.001.223-.477 1.048-.586 1.01-.054-.018-1.736-1.712-1.785-1.797-.054-.093.733-.944.842-.912.054.016.309.192.567.393.58.45.96.965.962 1.306zm-13.84-23.52c-.248.474-.49 1.482-.458 1.913.043.593.368 1.261.737 1.515.254.176 1.034.36 1.499.353.139-.002.166.068.26.656.15.958.193 2.318.074 2.386-.19.11-1.484-.009-2.172-.2-.737-.203-1.6-.703-2.074-1.2-.633-.664-1.277-2.05-1.401-3.013-.17-1.317.39-3.426 1.267-4.776a2.94 2.94 0 0 1 .255-.356c.072-.041.914.795 1.397 1.387.728.892.785 1.015.617 1.335zM20.248 36.23c-.036.101-.235.385-.443.63-.568.67-1.293 1.796-2.18 3.388-.573 1.029-.959 1.613-1.377 2.084-1.124 1.269-2.806 2.106-4.423 2.203-.716.043-1.664-.12-2.018-.347-1.102-.706-.355-2.143 2.287-4.396.737-.629 1.097-.874 2.316-1.578 1.57-.907 2.136-1.33 3.412-2.555.883-.846.984-.917 1.191-.84.123.045 1.189 1.035 1.275 1.184.014.024-.004.126-.04.227zm1.534 4.089a6.9 6.9 0 0 0-.341.7c-.122.284-.24.512-.262.506-.05-.013-1.921-1.887-1.97-1.973-.05-.086.715-1.256.805-1.232.041.01.433.378.872.815.438.437.846.84.906.897.07.066.066.169-.01.287zm-3.957-6.062c-.24.25-.46.441-.49.424-.102-.056-1.767-1.751-1.757-1.788.006-.02.201-.178.435-.35.408-.302.438-.31.766-.223.388.104.692.374 1.158 1.028l.323.455zm2.858 8.723c-.165.38-.338.678-.385.663-.048-.016-.209-.156-.359-.311-.15-.156-.627-.638-1.062-1.072l-.79-.79.36-.654c.197-.36.397-.641.444-.625.088.03 1.981 1.902 2.052 2.028.022.039-.095.381-.26.761zm-4.314-7.319c-.285.258-.548.461-.585.452-.091-.025-1.82-1.754-1.914-1.913-.064-.11.004-.176.47-.457.298-.18.582-.356.63-.389.079-.054 1.643 1.407 1.843 1.723.055.087-.054.23-.444.584zm3.358 8.98c-.531.72-.875 1.078-.963 1.003-.177-.15-2.106-2.207-2.098-2.235.017-.055 1.098-1.353 1.121-1.347.031.008 2.144 2.129 2.176 2.183.014.023-.092.202-.236.396zm-4.654-7.976c-.089.056-.22.153-.29.217-.07.064-.293.185-.493.27l-.365.153-1.085-1.084c-.597-.596-1.08-1.104-1.074-1.128.013-.047 1.36-.664 1.417-.648.052.015 1.95 1.945 2.005 2.038.026.045-.026.127-.115.182zm3.061 9.705c-.115.102-.516.39-.89.638l-.682.452-.293-.407c-.881-1.227-1.543-2.188-1.53-2.224.007-.022.336-.256.73-.52l.715-.479 1.026 1.083c.564.596 1.05 1.125 1.08 1.177.03.051-.04.177-.156.28zm-5.051-8.563a9.902 9.902 0 0 0-.66.442l-.414.3-1.037-1.093c-.747-.788-1.022-1.122-.983-1.195.072-.134 1.067-.837 1.152-.814.09.024 2.014 1.93 2.111 2.091.058.096.017.162-.17.27zm-2.037 1.597c-.273.247-.513.446-.534.44-.02-.005-.448-.416-.951-.913a34.448 34.448 0 0 0-1.088-1.045c-.14-.114-.154-.164-.071-.253.144-.156 1-.917 1.022-.908.01.004.434.448.943.988.509.54.981 1.04 1.05 1.11.112.117.075.176-.371.58zm4.637 8.477c-1.182.438-2.468.763-2.538.641a11.886 11.886 0 0 1-.26-.864 16.327 16.327 0 0 0-.491-1.467l-.272-.671.29-.038c.16-.02.588-.118.952-.218.363-.1.683-.175.71-.168.077.02 1.361 1.81 1.627 2.269l.243.419zm-5.71-7.434c-.058.063-.271.317-.475.563-.204.245-.38.441-.39.435-.01-.006-.255-.206-.543-.443-.288-.237-.825-.62-1.193-.85-.369-.23-.687-.448-.708-.484-.054-.093 1.126-1.466 1.235-1.437.07.019 2.1 1.965 2.164 2.075.008.013-.033.077-.09.14zm1.93 6.192c.273.704.594 1.84.558 1.973-.03.112-1.008.109-1.967-.007-1.115-.134-2.202-.522-3-1.07-.823-.564-1.197-.971-1.702-1.853-.669-1.166-.791-2.168-.429-3.52.248-.92.74-1.867.966-1.858.184.007 1.31.738 1.96 1.27l.46.378-.24.59c-.35.857-.34 1.124.06 1.733.506.77 1.146 1.114 2.28 1.225.655.064.626.032 1.054 1.139z" fill="#fff"/></svg>