<svg width="144.249" height="204.197" viewBox="0 0 38.166 54.027" xmlns="http://www.w3.org/2000/svg"><defs><filter id="a" x="-.059" y="-.04" width="1.118" height="1.081" color-interpolation-filters="sRGB"><feGaussianBlur stdDeviation=".793"/></filter></defs><path transform="matrix(1.0601 0 0 1.0611 -69.62 -103.239)" d="M84.807 99.636c1.738.816 2.815 2.475 2.89 4.452.009.22-.01.495-.04.612l-.057.213-1.098-.235c-.604-.13-1.275-.26-1.49-.29-.388-.052-.392-.056-.41-.361-.027-.469-.364-1.095-.736-1.363-.505-.366-1.218-.473-1.777-.268-.243.09-.48.126-.525.082-.399-.393-1.933-2.171-1.919-2.225.01-.038.308-.231.66-.429 1.347-.756 3.134-.83 4.502-.188zm-4.63 2.23c.537.609.983 1.117.992 1.13.048.064-.415.81-.491.79-.078-.021-2.401-1.687-2.458-1.763-.06-.08.836-1.302.936-1.275.026.007.486.51 1.022 1.118zm3.253 1.934c.296.456.223.735-.55 2.074-.37.643-.765 1.271-.876 1.396-.51.568-1.464.29-1.644-.478-.073-.314.01-.509.796-1.879.64-1.113.779-1.305 1.046-1.443.24-.123.389-.136.673-.06.284.076.408.163.555.39zm-4.217-.296c.623.462 1.144.852 1.157.868.034.04-.355.746-.472.856-.077.073-.303-.027-1.152-.511-1.625-.927-1.573-.886-1.446-1.123.343-.636.594-.992.68-.963.055.019.61.411 1.233.873zm8.165 2.436c-.32.777-.482 1.002-.682.945-.332-.094-2.565-1.08-2.606-1.152-.023-.039.051-.24.164-.447l.204-.377.806.158 1.548.302.742.144zm-9.167-.825c.711.406 1.3.752 1.31.768.01.017-.07.187-.176.379l-.194.349-1.39-.423c-.92-.28-1.416-.466-1.47-.55-.065-.105-.027-.224.21-.657.16-.29.319-.545.354-.566.035-.021.646.294 1.356.7zm6.925 1.8c.754.335 1.376.614 1.383.62.015.013-.656 1.18-.696 1.208-.016.012-.626-.323-1.354-.744l-1.326-.766.243-.43c.134-.236.274-.445.311-.463.037-.019.685.24 1.439.575zm-.932 1.634c.662.386 1.217.726 1.233.755.079.136-.595 1.17-.774 1.19-.064.006-.407-.28-.764-.636-.357-.356-.83-.782-1.051-.947a7.83 7.83 0 0 1-.426-.33c-.056-.073.405-.8.488-.769.05.019.633.351 1.294.737zm-8.524.688c.55.308 1.244.847 1.217.945-.013.049-.163.298-.334.555-.237.356-.34.45-.435.395-.068-.04-.55-.317-1.074-.615-.522-.298-.973-.577-1.002-.62-.055-.084.522-.772.689-.822.27-.081.609-.023.94.162zm3.099 2.055c.628.367.75.505.68.774-.02.076-.3.62-.624 1.21-.806 1.465-1.033 2.035-1.488 3.733-.436 1.626-.852 2.669-1.595 3.995-.857 1.529-1.426 2.15-2.12 2.316-.522.125-.857-.086-1.263-.797-.6-1.047-.743-2.375-.423-3.901.341-1.624.89-2.477 2.767-4.307 1.427-1.391 1.862-1.871 2.476-2.736.257-.36.522-.673.59-.695.176-.055.288-.009 1 .407zm2.619 1.231c.72.344.903.489 1.047.823.106.247.098.337-.066.756a4.876 4.876 0 0 1-.208.487c-.075.044-2.125-1.212-2.135-1.307-.007-.065.117-.34.274-.611.32-.551.261-.543 1.088-.148zm13.562 3.69c.63.233 1.267.644 1.744 1.125.33.333 1.097 1.522 1.063 1.648-.01.039-.655.28-1.433.534-1.392.457-1.417.461-1.586.276-.674-.737-1.199-.95-1.957-.796-.5.101-.95.39-1.214.777l-.157.232-.65-.227c-.358-.125-1.002-.348-1.433-.495l-.783-.267.06-.222c.17-.635 1.066-1.644 1.935-2.178 1.393-.857 2.83-.99 4.41-.406zm-20.225-5.179c.56.33 1.02.648 1.023.707.005.082-.756.963-.922 1.067-.027.018-2.413-1.334-2.46-1.393-.045-.056 1.178-1.036 1.258-1.009a25.2 25.2 0 0 1 1.1.628zm6.143 3.542c.515.3.952.574.973.61.038.065-.342 1.374-.41 1.415-.03.017-1.28-.674-2.35-1.3-.148-.087-.137-.124.313-1.01.228-.448.208-.451 1.474.285zm-7.732-2.007c.626.362 1.149.674 1.161.692.05.074-1.028 1.074-1.129 1.048-.12-.031-2.612-1.467-2.645-1.525-.012-.02.235-.25.547-.512.427-.358.613-.462.748-.419.099.032.692.353 1.318.716zm24.921 7.512c.062.432.085 1.112.04 1.138-.036.021-2.803.316-2.938.313-.127-.003-.196-.73-.085-.888.05-.072 2.806-1.027 2.896-1.003.014.004.053.202.087.44zM71.5 114.077c.66.386 1.213.725 1.23.753.016.029-.052.143-.151.253-.1.11-.331.428-.515.705-.257.388-.362.487-.454.429a52.349 52.349 0 0 0-1.117-.612 82.417 82.417 0 0 1-1.276-.696l-.28-.161.338-.505c.47-.702.723-.962.887-.91.076.024.679.359 1.338.744zm8.545 2.47c.661.387 1.214.724 1.228.75.028.048-.195 1.519-.234 1.541-.012.007-.33-.164-.705-.38-.376-.217-.98-.559-1.342-.76-.656-.364-.66-.368-.629-.668.034-.336.358-1.24.433-1.207.026.011.588.337 1.25.724zm13.79 3.785c.105.1.215.296.246.435.065.303.06 2.923-.007 3.172-.123.46-.709.776-1.198.644-.316-.085-.644-.452-.682-.763-.052-.423-.037-2.868.019-3.075.183-.683 1.092-.915 1.621-.413zm4.297 2.016c.023 1.043.09.967-.834.953-.448-.007-1.14-.01-1.536-.007l-.722.006-.01-.481c-.006-.265.013-.516.041-.56.04-.06 2.212-.352 2.903-.389.117-.006.15.096.158.478zm-8.097-2.171 1.197.416.022.382c.013.21-.009.425-.047.478-.04.053-.255.072-.48.041a77.5 77.5 0 0 0-1.473-.168c-.585-.062-1.072-.126-1.081-.143-.033-.056.045-1.22.093-1.406.055-.212-.064-.24 1.77.4zm-19.989-4.118c.727.397 1.334.743 1.348.768.014.025-.099.418-.251.874l-.278.83-.322-.135a51.864 51.864 0 0 0-1.502-.557l-1.18-.423.134-.499c.149-.55.552-1.497.66-1.548.039-.018.665.292 1.392.69zm8.454 2.053c.124.078.686.407 1.25.73.565.323 1.05.626 1.078.672.057.092-.34 1.227-.474 1.353-.058.055-.15.036-.302-.063-.121-.077-.695-.395-1.276-.705-.58-.31-1.067-.6-1.08-.643-.032-.107.47-1.533.531-1.507.027.011.15.084.273.163zm19.612 5.927c.055.183-.01 1.175-.083 1.276-.057.08-.283.05-.988-.134-.502-.13-1.027-.252-1.167-.27l-.534-.067c-.3-.038-.334-.116-.306-.69l.013-.26 1.293.008c1.58.008 1.737.02 1.772.137zm-6.845-1.363a5.54 5.54 0 0 1-.024.54c-.017.065-2.76.103-2.993.04-.055-.014-.096-.276-.09-.58.004-.305.001-.619-.007-.698-.012-.109.053-.136.269-.113 1.408.15 1.97.215 2.377.274l.475.07zm-12.445-1.84c.671.374 1.227.689 1.234.7.022.032-.62 1.201-.677 1.234-.029.016-.524-.251-1.101-.594a44.61 44.61 0 0 0-1.307-.757c-.216-.11-.243-.158-.164-.295.052-.09.193-.364.314-.608.162-.328.254-.434.35-.403.072.023.68.349 1.351.723zm12.432 3.5c-.008.319-.041.46-.107.464-.264.016-1.703.32-2.194.463-.42.122-.587.134-.667.047-.102-.11-.175-1.015-.105-1.287.024-.094.392-.126 1.45-.124.78 0 1.468-.003 1.527-.01.068-.006.104.159.096.448zm-23.115-6.157c.086.038.697.26 1.358.495.66.235 1.233.471 1.272.525.04.054.057.254.037.445-.02.192-.016.618.008.948l.045.6-.786-.102a15.067 15.067 0 0 0-1.59-.102c-.441 0-.815-.004-.83-.008-.106-.028-.093-1.987.017-2.58.064-.346.12-.373.47-.221zm8.543 3.774c.04.028.594.355 1.23.728.635.373 1.145.711 1.134.753-.02.079-1.01 1.488-1.072 1.528-.02.012-.347-.26-.727-.604a13.939 13.939 0 0 0-1.55-1.247c-.114-.08-.088-.14.278-.663.373-.532.512-.63.707-.495zm20.855 7.07c.159.157.404 1.078.3 1.129-.05.025-2.438.016-2.533-.01-.104-.027-.15-1.184-.049-1.24.049-.026.354-.082.678-.123.729-.092 1.361.004 1.604.244zm-26.417-6.845c.16.51.701 1.394 1.028 1.676.45.39 1.152.632 1.593.551.303-.055.985-.477 1.309-.81.097-.1.166-.07.648.28.784.57 1.775 1.502 1.74 1.634-.057.212-1.056 1.043-1.678 1.395-.665.378-1.628.634-2.316.618-.916-.023-2.351-.546-3.12-1.14-1.052-.811-2.147-2.698-2.48-4.273a2.94 2.94 0 0 1-.073-.432c.022-.08 1.209-.085 1.97-.007 1.144.116 1.271.163 1.38.508zm22.968 7.004c.046.096.106.438.132.758.072.876.356 2.185.855 3.937.322 1.133.462 1.819.5 2.447.102 1.693-.495 3.474-1.57 4.686-.477.537-1.262 1.091-1.673 1.181-1.279.28-1.766-1.264-1.491-4.726.076-.965.157-1.393.521-2.752.47-1.751.57-2.452.607-4.22.026-1.222.047-1.345.248-1.437.12-.055 1.572-.108 1.738-.063.027.007.087.092.133.189zm3.976 1.806c.025.117.14.449.254.736.114.288.192.532.172.543-.044.026-2.693.024-2.787-.002-.097-.026-.383-1.394-.302-1.44.036-.022.573-.04 1.192-.04.619-.001 1.193-.005 1.275-.007.096-.003.166.073.196.21zm-7.084-1.488c.007.346-.014.637-.047.646-.112.032-2.488.01-2.507-.022-.01-.018.017-.268.06-.555.075-.502.09-.53.385-.7.348-.2.754-.224 1.545-.091l.55.093zm8.189 4.147c.152.385.24.718.196.74-.045.023-.258.038-.474.034-.215-.004-.894-.007-1.508-.007l-1.117.001-.209-.717c-.115-.394-.172-.735-.127-.757.083-.04 2.745-.056 2.885-.016.042.012.202.337.354.722zm-8.226-2.125c-.02.384-.061.714-.094.733-.082.047-2.528.047-2.706 0-.123-.032-.122-.126.008-.654.084-.34.161-.664.172-.721.017-.094 2.156-.167 2.521-.085.1.022.124.2.099.727zm8.724 3.975c.133.885.143 1.381.028 1.39-.231.02-3.05-.07-3.063-.097-.027-.05-.18-1.733-.16-1.745.028-.016 3.021-.01 3.082.005.026.007.077.209.113.447zm-8.93-2.349a2.553 2.553 0 0 0-.052.359c-.005.095-.076.338-.158.54l-.15.366h-1.534c-.844.001-1.544-.016-1.557-.038-.024-.043.493-1.432.544-1.46.047-.027 2.755-.004 2.859.023.05.014.072.108.048.21zm9.026 4.698c-.009.154-.09.64-.178 1.082l-.162.8-.495-.08c-1.491-.244-2.638-.456-2.655-.49-.01-.022.056-.42.148-.884l.167-.845 1.492.04c.82.022 1.538.053 1.595.069.058.015.098.154.088.308zm-9.626-2.483c-.04.15-.11.502-.154.78l-.08.504-1.507-.04c-1.086-.028-1.516-.07-1.54-.15-.044-.145.163-1.346.239-1.39.08-.046 2.789-.059 2.971-.014.11.028.126.102.07.31zm-.312 2.57c-.017.368-.047.678-.065.688-.019.01-.612.023-1.319.027s-1.385.018-1.508.03c-.18.018-.225-.007-.23-.128-.008-.213.06-1.356.081-1.365.01-.004.624.01 1.366.032.741.022 1.429.041 1.528.043.161.003.176.07.147.672zm9.273 2.715c-.525 1.145-1.205 2.285-1.34 2.248-.043-.011-.401-.204-.796-.428s-1.018-.534-1.385-.69l-.666-.282.179-.231c.098-.128.331-.5.518-.828.187-.327.359-.607.383-.62.07-.04 2.243.317 2.755.453l.469.124zm-9.294-1.22c.005.086.033.416.062.734.03.318.044.58.032.584-.012.003-.325.034-.697.07-.37.037-1.021.146-1.444.244-.424.097-.803.169-.843.158-.105-.028-.241-1.833-.143-1.89.063-.036 2.875-.095 2.997-.063.015.004.031.078.036.164zm5.744 3.014c.69.305 1.72.881 1.79 1 .058.101-.636.79-1.396 1.387-.883.693-1.927 1.188-2.879 1.365-.98.183-1.532.16-2.513-.107-1.298-.352-2.092-.974-2.791-2.185-.477-.827-.799-1.844-.632-1.998.135-.124 1.448-.404 2.283-.487l.593-.058.247.587c.36.853.555 1.035 1.268 1.183.903.186 1.598-.023 2.48-.746.508-.419.465-.42 1.55.06z" filter="url(#a)"/><path d="M20.215 3.892c1.738.816 2.815 2.475 2.89 4.452.009.22-.01.495-.04.612l-.057.213-1.098-.236c-.604-.129-1.275-.259-1.49-.288-.388-.053-.392-.057-.41-.362-.027-.469-.364-1.095-.736-1.363-.505-.366-1.218-.473-1.777-.268-.243.09-.48.126-.525.082-.399-.393-1.933-2.171-1.919-2.225.01-.038.308-.231.66-.429 1.347-.756 3.134-.83 4.502-.188zm-4.63 2.23c.537.609.983 1.117.992 1.13.048.064-.415.81-.491.79-.078-.021-2.401-1.687-2.458-1.763-.06-.08.836-1.302.936-1.275.026.007.486.51 1.022 1.118zm3.253 1.934c.296.456.223.735-.55 2.073-.37.644-.765 1.272-.876 1.397-.51.568-1.464.29-1.644-.478-.073-.314.01-.509.796-1.879.64-1.113.779-1.305 1.046-1.443.24-.123.389-.136.673-.06.284.076.408.163.555.39zm-4.217-.296c.623.462 1.144.852 1.157.868.034.04-.355.746-.472.856-.077.073-.303-.027-1.152-.511-1.625-.927-1.573-.886-1.446-1.123.343-.636.594-.992.68-.963.055.019.61.411 1.233.873zm8.165 2.436c-.32.777-.482 1.002-.682.945-.332-.094-2.565-1.08-2.606-1.152-.023-.039.051-.24.164-.447l.204-.377.806.158 1.548.302.742.144zM13.62 9.37c.711.406 1.3.752 1.31.768.01.017-.07.187-.176.379l-.194.349-1.39-.423c-.92-.28-1.416-.466-1.47-.55-.065-.105-.027-.224.21-.657.16-.29.319-.545.354-.566.035-.021.646.294 1.356.7zm6.925 1.8c.754.335 1.376.614 1.383.62.015.013-.656 1.18-.696 1.208-.016.012-.626-.323-1.354-.744l-1.326-.766.243-.43c.134-.236.274-.445.311-.463.037-.019.685.24 1.439.575zm-.932 1.634c.662.386 1.217.726 1.233.755.079.136-.595 1.17-.774 1.19-.064.006-.407-.28-.764-.636-.357-.356-.83-.782-1.051-.947a7.83 7.83 0 0 1-.426-.33c-.056-.073.405-.8.488-.769.05.019.633.351 1.294.737zm-8.524.688c.55.308 1.244.847 1.217.945-.013.049-.163.298-.334.555-.237.356-.34.45-.435.395-.068-.04-.55-.317-1.074-.615-.522-.298-.973-.577-1.002-.62-.055-.084.522-.772.689-.822.27-.081.609-.023.94.162zm3.099 2.054c.628.368.75.506.68.775-.02.076-.3.62-.624 1.21-.806 1.465-1.033 2.035-1.488 3.733-.436 1.626-.852 2.668-1.595 3.995-.857 1.529-1.426 2.15-2.12 2.316-.522.125-.857-.086-1.263-.797-.6-1.047-.743-2.375-.423-3.901.341-1.624.89-2.477 2.767-4.307 1.427-1.391 1.862-1.871 2.476-2.736.257-.36.522-.673.59-.695.176-.055.288-.009 1 .407zm2.619 1.232c.72.344.903.489 1.047.823.106.247.098.337-.066.756a4.876 4.876 0 0 1-.208.487c-.075.044-2.125-1.212-2.135-1.307-.007-.066.117-.34.274-.611.32-.551.261-.543 1.088-.148zm13.562 3.69c.63.233 1.267.644 1.744 1.125.33.333 1.097 1.521 1.063 1.648-.01.038-.655.28-1.433.534-1.392.457-1.417.461-1.586.276-.674-.737-1.199-.95-1.957-.796-.5.101-.95.39-1.214.777l-.157.232-.65-.227c-.358-.125-1.002-.348-1.433-.495l-.783-.267.06-.222c.17-.635 1.066-1.644 1.935-2.178 1.393-.857 2.83-.99 4.41-.406zM10.143 15.29c.56.33 1.02.648 1.023.707.005.082-.756.963-.922 1.067-.027.018-2.413-1.334-2.46-1.393-.045-.056 1.178-1.036 1.258-1.009a25.2 25.2 0 0 1 1.1.628zm6.143 3.542c.515.3.952.574.973.61.038.065-.342 1.374-.41 1.415-.03.017-1.28-.674-2.35-1.3-.148-.087-.137-.124.313-1.01.228-.448.208-.451 1.474.285zm-7.732-2.007c.626.362 1.149.674 1.161.692.05.074-1.028 1.074-1.129 1.048-.12-.031-2.612-1.467-2.645-1.525-.012-.02.235-.25.547-.512.427-.358.613-.462.748-.419.099.032.692.353 1.318.716zm24.921 7.512c.062.432.085 1.112.04 1.138-.036.021-2.803.316-2.938.313-.127-.003-.196-.73-.085-.888.05-.072 2.806-1.027 2.896-1.003.014.004.053.202.087.44zM6.907 18.333c.66.386 1.213.725 1.23.753.016.029-.052.143-.151.253-.1.11-.331.428-.515.705-.257.388-.362.487-.454.429A52.349 52.349 0 0 0 5.9 19.86a82.417 82.417 0 0 1-1.276-.696l-.28-.161.338-.505c.47-.702.723-.962.887-.91.076.024.679.359 1.338.744zm8.545 2.47c.661.387 1.214.724 1.228.75.028.048-.195 1.519-.234 1.541-.012.007-.33-.164-.705-.38-.376-.217-.98-.559-1.342-.76-.656-.364-.66-.368-.629-.668.034-.336.358-1.24.433-1.207.026.011.588.337 1.25.724zm13.79 3.785c.105.1.215.296.246.435.065.303.06 2.923-.007 3.171-.123.462-.709.777-1.198.645-.316-.085-.644-.452-.682-.763-.052-.423-.037-2.868.019-3.075.183-.683 1.092-.915 1.621-.413zm4.297 2.016c.022 1.043.09.967-.834.953-.448-.007-1.14-.01-1.536-.007l-.722.006-.01-.481c-.006-.265.013-.516.041-.56.04-.06 2.212-.352 2.903-.389.117-.006.15.096.158.478zm-8.097-2.172 1.197.417.022.382c.013.21-.009.425-.047.478-.04.053-.255.072-.48.041a77.5 77.5 0 0 0-1.473-.168c-.585-.062-1.072-.126-1.081-.143-.033-.056.045-1.22.093-1.406.055-.212-.064-.24 1.77.4zM5.453 20.315c.727.397 1.334.743 1.348.768.014.025-.099.418-.251.874l-.278.83-.322-.135a51.864 51.864 0 0 0-1.502-.557l-1.18-.423.134-.499c.149-.55.552-1.497.66-1.548.039-.018.665.292 1.392.69zm8.454 2.053c.123.078.686.407 1.25.73.565.323 1.05.626 1.078.672.057.092-.34 1.227-.474 1.353-.058.055-.15.036-.302-.063-.121-.077-.695-.395-1.276-.705-.58-.31-1.067-.6-1.08-.643-.032-.107.47-1.533.531-1.507.027.011.15.084.273.163zm19.612 5.927c.055.183-.01 1.175-.083 1.276-.057.08-.283.05-.988-.134-.502-.13-1.027-.252-1.167-.27l-.534-.067c-.3-.038-.334-.116-.306-.69l.013-.26 1.293.008c1.58.008 1.737.02 1.772.137zm-6.845-1.363a5.54 5.54 0 0 1-.024.54c-.017.065-2.76.103-2.993.04-.055-.014-.096-.276-.091-.58.005-.305.002-.619-.006-.698-.012-.109.053-.136.269-.113 1.408.15 1.97.215 2.377.274l.475.07zm-12.445-1.84c.671.374 1.227.689 1.234.7.022.032-.62 1.201-.677 1.234-.029.016-.524-.251-1.101-.594a44.61 44.61 0 0 0-1.307-.757c-.216-.11-.243-.158-.164-.295.052-.09.193-.364.314-.608.162-.328.254-.434.35-.403.072.023.68.349 1.351.723zm12.432 3.5c-.008.319-.041.46-.107.464-.264.016-1.703.32-2.194.463-.42.122-.587.134-.667.047-.102-.11-.175-1.015-.105-1.287.024-.094.392-.126 1.45-.124.78 0 1.468-.003 1.527-.01.068-.006.104.159.096.448zM3.546 22.435c.087.037.697.26 1.358.495.66.235 1.233.471 1.272.525.04.054.057.254.037.445-.02.192-.016.618.009.948l.044.6-.786-.102a15.067 15.067 0 0 0-1.59-.102c-.441 0-.815-.004-.83-.008-.106-.028-.093-1.987.017-2.58.064-.346.12-.373.47-.221zm8.543 3.774c.04.028.594.355 1.23.728.635.373 1.145.711 1.134.753-.02.079-1.01 1.488-1.072 1.528-.02.012-.347-.26-.727-.604a13.939 13.939 0 0 0-1.55-1.247c-.114-.08-.088-.14.278-.663.373-.532.512-.63.707-.495zm20.855 7.07c.159.157.404 1.078.3 1.129-.05.025-2.438.016-2.533-.01-.104-.027-.15-1.185-.049-1.24.049-.026.354-.082.678-.123.729-.092 1.361.004 1.604.244zM6.527 26.433c.16.511.701 1.395 1.028 1.677.45.389 1.152.632 1.593.551.303-.055.984-.477 1.309-.81.097-.1.166-.07.648.28.784.57 1.775 1.502 1.74 1.634-.057.212-1.056 1.043-1.678 1.395-.665.378-1.628.634-2.316.618-.916-.023-2.351-.546-3.12-1.14-1.052-.811-2.147-2.698-2.48-4.273a2.94 2.94 0 0 1-.073-.432c.022-.08 1.209-.085 1.97-.007 1.144.116 1.271.163 1.38.508zm22.968 7.005c.046.096.106.438.132.758.072.876.356 2.185.855 3.937.322 1.133.462 1.819.5 2.447.102 1.693-.495 3.474-1.57 4.686-.477.537-1.262 1.091-1.673 1.181-1.279.28-1.766-1.264-1.491-4.726.076-.965.157-1.393.521-2.752.47-1.751.57-2.452.607-4.22.026-1.222.047-1.345.248-1.437.12-.055 1.572-.108 1.738-.063.027.007.087.092.133.189zm3.976 1.806c.025.117.14.449.254.736.114.288.192.532.172.543-.044.026-2.693.024-2.788-.002-.096-.026-.382-1.394-.301-1.44.036-.022.573-.04 1.192-.04.619-.001 1.193-.005 1.275-.007.096-.003.166.073.196.21zm-7.084-1.488c.007.346-.014.637-.047.646-.112.032-2.488.01-2.507-.022-.01-.018.017-.268.06-.555.075-.502.09-.53.385-.7.348-.2.754-.224 1.545-.091l.55.093zm8.189 4.147c.152.385.24.718.196.74-.045.023-.258.038-.474.034-.215-.004-.894-.007-1.508-.007l-1.117.001-.209-.717c-.115-.394-.172-.735-.127-.757.083-.04 2.745-.056 2.885-.016.042.012.202.337.354.722zm-8.226-2.125c-.02.384-.061.714-.094.733-.082.047-2.528.047-2.706 0-.123-.032-.122-.126.008-.654.084-.34.161-.664.172-.721.017-.094 2.156-.167 2.521-.085.1.022.124.2.099.727zm8.724 3.975c.133.885.143 1.381.028 1.39-.231.02-3.05-.07-3.063-.097-.027-.05-.18-1.733-.16-1.745.028-.016 3.02-.01 3.082.005.026.007.077.209.113.447zm-8.93-2.349a2.553 2.553 0 0 0-.052.359c-.005.095-.076.338-.158.54l-.15.366H24.25c-.844.001-1.544-.016-1.557-.038-.024-.043.493-1.432.544-1.46.047-.027 2.755-.004 2.859.023.05.014.072.108.048.21zm9.026 4.698c-.009.154-.09.64-.178 1.082l-.162.8-.495-.08c-1.491-.244-2.638-.456-2.655-.49-.01-.022.056-.42.148-.884l.167-.845 1.492.04c.82.022 1.538.053 1.595.069.058.015.098.154.088.308zm-9.626-2.483c-.04.15-.11.502-.154.78l-.08.504-1.507-.04c-1.086-.028-1.516-.07-1.54-.15-.044-.145.163-1.346.239-1.39.08-.046 2.789-.059 2.971-.014.11.028.126.102.07.31zm-.312 2.57c-.017.368-.047.678-.066.688-.018.01-.611.023-1.318.027-.707.004-1.385.018-1.508.03-.18.018-.225-.007-.23-.128-.008-.213.06-1.356.081-1.365.01-.004.624.01 1.366.032.741.022 1.429.041 1.528.043.161.003.176.07.147.672zm9.273 2.715c-.525 1.145-1.205 2.285-1.34 2.248-.043-.011-.401-.204-.796-.428s-1.018-.534-1.385-.69l-.666-.282.179-.231c.098-.128.331-.5.518-.828.187-.327.359-.607.383-.62.07-.04 2.243.317 2.755.453l.469.124zm-9.294-1.22c.005.086.033.416.062.734.03.318.044.58.032.584-.012.003-.325.034-.697.07-.37.037-1.021.146-1.445.244-.423.097-.802.169-.842.158-.105-.028-.241-1.833-.143-1.89.063-.036 2.875-.095 2.997-.063.015.004.031.078.036.164zm5.744 3.014c.69.305 1.72.881 1.79 1 .058.101-.636.79-1.396 1.387-.883.693-1.927 1.188-2.879 1.365-.98.183-1.532.16-2.513-.107-1.298-.352-2.092-.974-2.791-2.185-.477-.827-.799-1.844-.632-1.998.135-.124 1.448-.404 2.283-.487l.593-.058.247.587c.36.853.555 1.035 1.268 1.183.903.186 1.598-.023 2.48-.746.508-.419.465-.42 1.55.06z" fill="#fff"/></svg>