<?xml version="1.0" encoding="UTF-8" standalone="no"?>
<!-- Created with Inkscape (http://www.inkscape.org/) -->

<svg
   xmlns:dc="http://purl.org/dc/elements/1.1/"
   xmlns:cc="http://creativecommons.org/ns#"
   xmlns:rdf="http://www.w3.org/1999/02/22-rdf-syntax-ns#"
   xmlns:svg="http://www.w3.org/2000/svg"
   xmlns="http://www.w3.org/2000/svg"
   xmlns:sodipodi="http://sodipodi.sourceforge.net/DTD/sodipodi-0.dtd"
   xmlns:inkscape="http://www.inkscape.org/namespaces/inkscape"
   width="38.166008mm"
   height="54.027088mm"
   viewBox="0 0 38.166008 54.027088"
   version="1.1"
   id="svg4166"
   inkscape:version="0.92.4 (5da689c313, 2019-01-14)"
   sodipodi:docname="footsteps.svg">
  <defs
     id="defs4160">
    <filter
       inkscape:collect="always"
       style="color-interpolation-filters:sRGB"
       id="filter856"
       x="-0.059118491"
       width="1.118237"
       y="-0.040401615"
       height="1.0808032">
      <feGaussianBlur
         inkscape:collect="always"
         stdDeviation="0.79307507"
         id="feGaussianBlur858" />
    </filter>
  </defs>
  <sodipodi:namedview
     id="base"
     pagecolor="#ffffff"
     bordercolor="#666666"
     borderopacity="1.0"
     inkscape:pageopacity="0.0"
     inkscape:pageshadow="2"
     inkscape:zoom="2.56"
     inkscape:cx="44.034571"
     inkscape:cy="103.6647"
     inkscape:document-units="mm"
     inkscape:current-layer="layer1"
     showgrid="false"
     fit-margin-top="0"
     fit-margin-left="0"
     fit-margin-right="0"
     fit-margin-bottom="0"
     inkscape:window-width="1920"
     inkscape:window-height="1017"
     inkscape:window-x="1072"
     inkscape:window-y="394"
     inkscape:window-maximized="1"
     inkscape:pagecheckerboard="true" />
  <metadata
     id="metadata4163">
    <rdf:RDF>
      <cc:Work
         rdf:about="">
        <dc:format>image/svg+xml</dc:format>
        <dc:type
           rdf:resource="http://purl.org/dc/dcmitype/StillImage" />
        <dc:title></dc:title>
      </cc:Work>
    </rdf:RDF>
  </metadata>
  <g
     inkscape:label="Layer 1"
     inkscape:groupmode="layer"
     id="layer1"
     transform="translate(-64.592318,-95.743712)">
    <path
       inkscape:connector-curvature="0"
       id="path842"
       d="m 84.80708,99.636281 c 1.73836,0.815869 2.815449,2.474949 2.89053,4.452429 0.0084,0.21918 -0.01011,0.4943 -0.04097,0.6114 l -0.0561,0.2129 -1.098393,-0.2352 c -0.604103,-0.12936 -1.274753,-0.25926 -1.490343,-0.28861 -0.38752,-0.0528 -0.392146,-0.0569 -0.409567,-0.3621 -0.02673,-0.4686 -0.364536,-1.09445 -0.735795,-1.36322 -0.505084,-0.36564 -1.218246,-0.47301 -1.777267,-0.26757 -0.243325,0.0894 -0.479564,0.12609 -0.524965,0.0815 -0.399016,-0.39205 -1.933112,-2.17073 -1.918683,-2.22458 0.0102,-0.0381 0.307133,-0.23105 0.659861,-0.428905 1.347111,-0.755619 3.133331,-0.830213 4.501678,-0.187995 z m -4.629244,2.230469 c 0.535813,0.6082 0.981936,1.11627 0.991381,1.12904 0.04789,0.0647 -0.415525,0.81009 -0.491195,0.79004 -0.07811,-0.0207 -2.400972,-1.68634 -2.457826,-1.76243 -0.06018,-0.0806 0.8359,-1.30202 0.935651,-1.27529 0.02627,0.007 0.486188,0.51043 1.021989,1.11864 z m 3.252311,1.93311 c 0.29614,0.45662 0.222415,0.73509 -0.549485,2.07389 -0.370848,0.64355 -0.765352,1.27179 -0.876689,1.3961 -0.509096,0.56843 -1.464207,0.29096 -1.64382,-0.47752 -0.0733,-0.31361 0.0094,-0.50864 0.796272,-1.87896 0.639426,-1.11347 0.778325,-1.30517 1.045342,-1.44264 0.239387,-0.12325 0.389265,-0.13674 0.673363,-0.0606 0.283654,0.076 0.407775,0.1632 0.554648,0.38966 z m -4.21744,-0.29571 c 0.623523,0.46173 1.144508,0.85249 1.157742,0.86836 0.03376,0.0405 -0.355248,0.74617 -0.471912,0.85605 -0.07739,0.0729 -0.303429,-0.0275 -1.152212,-0.51132 -1.625575,-0.92657 -1.573257,-0.88595 -1.445886,-1.12272 0.342226,-0.63614 0.593839,-0.99229 0.68036,-0.96305 0.05393,0.0186 0.608384,0.41096 1.231908,0.87268 z m 8.165354,2.43566 c -0.319629,0.77706 -0.482032,1.00227 -0.681978,0.9458 -0.33224,-0.0942 -2.56509,-1.08131 -2.606265,-1.15263 -0.02234,-0.0387 0.05126,-0.23997 0.163703,-0.44713 l 0.20445,-0.37664 0.806328,0.15797 c 0.443495,0.0868 1.139994,0.22274 1.547812,0.30194 l 0.741471,0.14402 z m -9.166759,-0.82467 c 0.710734,0.40613 1.300274,0.75188 1.310088,0.76834 0.0098,0.0165 -0.06963,0.18685 -0.176513,0.37864 l -0.194377,0.34871 -1.389479,-0.42252 c -0.919995,-0.27974 -1.416462,-0.46578 -1.469322,-0.55047 -0.06548,-0.10493 -0.02758,-0.22318 0.209796,-0.65625 0.159327,-0.29054 0.31842,-0.54551 0.35359,-0.56658 0.03516,-0.0211 0.645438,0.29397 1.356181,0.70011 z m 6.924322,1.80028 c 0.753901,0.33501 1.376343,0.61377 1.383201,0.61947 0.01564,0.0135 -0.655606,1.17954 -0.695672,1.20871 -0.01623,0.0119 -0.625857,-0.32315 -1.354632,-0.74448 l -1.325054,-0.76604 0.243046,-0.42989 c 0.133654,-0.23646 0.273495,-0.44497 0.31071,-0.46338 0.03723,-0.0184 0.684486,0.24065 1.438401,0.57561 z m -0.931432,1.63402 c 0.661536,0.3862 1.21653,0.72596 1.23331,0.75502 0.07833,0.13567 -0.595862,1.17008 -0.774865,1.18887 -0.06328,0.007 -0.40707,-0.27927 -0.763993,-0.63539 -0.356925,-0.3561 -0.82984,-0.78203 -1.050914,-0.9465 -0.221082,-0.16449 -0.412576,-0.31286 -0.425542,-0.32973 -0.05619,-0.0731 0.405115,-0.80079 0.487722,-0.76931 0.05048,0.0187 0.632743,0.35085 1.294282,0.73704 z m -8.524023,0.68818 c 0.548984,0.3074 1.243493,0.84661 1.21714,0.94496 -0.01294,0.0483 -0.163483,0.29794 -0.33454,0.55483 -0.237086,0.35603 -0.340354,0.44984 -0.43444,0.39462 -0.0679,-0.0398 -0.551094,-0.31641 -1.073805,-0.61461 -0.522724,-0.29819 -0.973644,-0.57736 -1.002061,-0.62037 -0.05523,-0.0836 0.521108,-0.77197 0.688573,-0.82227 0.269737,-0.081 0.608567,-0.0223 0.93914,0.16281 z m 3.098834,2.05412 c 0.627651,0.36723 0.749482,0.5059 0.680191,0.7742 -0.01976,0.0764 -0.30065,0.62057 -0.624291,1.20937 -0.805609,1.46565 -1.032793,2.03579 -1.487724,3.73361 -0.435794,1.62641 -0.852058,2.66876 -1.595522,3.99529 -0.856793,1.52875 -1.425578,2.15035 -2.11911,2.31592 -0.522633,0.12477 -0.857564,-0.0863 -1.263853,-0.79651 -0.599079,-1.0472 -0.742916,-2.37579 -0.422408,-3.90171 0.340971,-1.62334 0.88924,-2.47671 2.767169,-4.30706 1.426765,-1.39062 1.86119,-1.87058 2.475688,-2.7352 0.256597,-0.36104 0.522168,-0.67385 0.590157,-0.69515 0.175644,-0.055 0.287531,-0.009 0.999703,0.40724 z m 2.618845,1.23152 c 0.719365,0.34393 0.903471,0.48866 1.047357,0.82328 0.105921,0.2463 0.09799,0.3368 -0.06615,0.75525 -0.102571,0.26148 -0.196071,0.48099 -0.207928,0.48777 -0.0752,0.0434 -2.124851,-1.21201 -2.134893,-1.30764 -0.0069,-0.0652 0.116313,-0.3402 0.27361,-0.61111 0.319781,-0.55064 0.261446,-0.54272 1.087953,-0.14756 z m 13.561533,3.69074 c 0.629602,0.23237 1.267403,0.64348 1.743931,1.12423 0.330375,0.3333 1.097085,1.52159 1.063247,1.64788 -0.01038,0.0387 -0.655161,0.27926 -1.432828,0.53445 -1.391672,0.45666 -1.416659,0.46101 -1.58597,0.27598 -0.674379,-0.73696 -1.198921,-0.95044 -1.956865,-0.7964 -0.499342,0.10149 -0.950889,0.39065 -1.213898,0.7774 l -0.157501,0.23157 -0.649908,-0.22694 c -0.357432,-0.12487 -1.002208,-0.34743 -1.432805,-0.49463 l -0.782903,-0.26765 0.05931,-0.22134 c 0.170272,-0.63546 1.066061,-1.64383 1.93515,-2.17836 1.393442,-0.85701 2.830547,-0.98933 4.411013,-0.40615 z m -20.224663,-5.17955 c 0.559287,0.32942 1.019803,0.64758 1.02338,0.70703 0.0049,0.0822 -0.756253,0.96324 -0.922139,1.0673 -0.02726,0.0171 -2.413405,-1.3342 -2.460834,-1.39361 -0.0445,-0.0557 1.178983,-1.0358 1.258806,-1.00842 0.04626,0.0155 0.541507,0.2983 1.100787,0.6277 z m 6.14302,3.54205 c 0.514768,0.2996 0.952696,0.57374 0.973164,0.60921 0.03821,0.066 -0.341528,1.37428 -0.410705,1.41532 -0.03004,0.0178 -1.279282,-0.67344 -2.349879,-1.30026 -0.147807,-0.0865 -0.136339,-0.12339 0.313957,-1.00943 0.227442,-0.4475 0.208182,-0.45123 1.473454,0.28516 z m -7.731624,-2.00729 c 0.626028,0.36243 1.148631,0.67413 1.161343,0.69268 0.0501,0.0731 -1.028222,1.07352 -1.129026,1.04751 -0.12043,-0.0312 -2.612296,-1.46729 -2.645487,-1.52478 -0.01167,-0.0202 0.234559,-0.2507 0.547132,-0.51225 0.427376,-0.3576 0.612914,-0.46148 0.74807,-0.41882 0.09874,0.0316 0.691941,0.35324 1.317968,0.71566 z m 24.921198,7.51178 c 0.06137,0.43213 0.08526,1.11251 0.03999,1.13866 -0.03625,0.0209 -2.803222,0.31529 -2.938356,0.31258 -0.126497,-0.003 -0.19623,-0.72987 -0.08516,-0.88806 0.05072,-0.0722 2.806829,-1.02688 2.895859,-1.00303 0.01439,0.004 0.05386,0.2018 0.08767,0.43985 z m -26.568281,-6.00318 c 0.659437,0.38537 1.212535,0.72416 1.229096,0.75284 0.01655,0.0287 -0.05123,0.14251 -0.150598,0.25294 -0.09937,0.11044 -0.330966,0.42764 -0.514609,0.70491 -0.256943,0.38795 -0.3617,0.48671 -0.454535,0.42853 -0.06639,-0.0416 -0.568852,-0.3166 -1.116656,-0.61113 -0.547791,-0.29455 -1.121844,-0.60808 -1.27567,-0.69673 l -0.279674,-0.16118 0.337555,-0.50453 c 0.469418,-0.70163 0.722975,-0.96191 0.886738,-0.91027 0.07653,0.0246 0.678911,0.35926 1.338358,0.74464 z m 8.545247,2.46984 c 0.660932,0.3869 1.213534,0.72396 1.227999,0.74903 0.02793,0.0484 -0.195587,1.51957 -0.234255,1.5419 -0.01249,0.007 -0.329876,-0.16407 -0.70527,-0.38066 -0.375397,-0.21658 -0.979278,-0.55842 -1.341967,-0.75964 -0.655869,-0.36388 -0.659263,-0.36748 -0.628835,-0.66796 0.03394,-0.33571 0.358208,-1.23949 0.43296,-1.2069 0.0263,0.0112 0.588442,0.33733 1.249368,0.72423 z m 13.788502,3.785 c 0.105216,0.0998 0.216036,0.29555 0.246243,0.435 0.06555,0.30258 0.06041,2.92263 -0.0062,3.1713 -0.123633,0.4614 -0.70946,0.7767 -1.1984,0.64499 -0.316174,-0.0851 -0.64401,-0.45226 -0.682038,-0.76371 -0.05166,-0.42315 -0.0367,-2.86737 0.01883,-3.07459 0.183034,-0.68309 1.092558,-0.91473 1.621585,-0.41299 z m 4.298103,2.01604 c 0.02203,1.04318 0.08901,0.96674 -0.83473,0.95247 -0.447653,-0.007 -1.13875,-0.01 -1.53577,-0.007 l -0.721853,0.006 -0.01016,-0.48103 c -0.0056,-0.26458 0.01296,-0.51605 0.04123,-0.55886 0.04045,-0.0613 2.21181,-0.35265 2.902795,-0.38944 0.116713,-0.006 0.150419,0.0954 0.158488,0.47772 z m -8.097032,-2.17166 1.196242,0.41681 0.02251,0.38145 c 0.01242,0.20981 -0.0091,0.42494 -0.04767,0.47811 -0.03857,0.0531 -0.254425,0.0718 -0.47958,0.0415 -0.225158,-0.0303 -0.888085,-0.10601 -1.473172,-0.16821 -0.585075,-0.0622 -1.071601,-0.12662 -1.081149,-0.14315 -0.03217,-0.0557 0.04548,-1.22016 0.09379,-1.40618 0.05482,-0.21229 -0.06458,-0.23925 1.769044,0.39968 z M 70.04445,116.05922 c 0.726726,0.39737 1.333099,0.74289 1.347496,0.76783 0.01433,0.025 -0.0986,0.41859 -0.251171,0.87479 l -0.277331,0.82946 -0.322568,-0.13477 c -0.177405,-0.0742 -0.853406,-0.32495 -1.502207,-0.55742 l -1.179634,-0.42265 0.134264,-0.49846 c 0.14843,-0.55132 0.551806,-1.49708 0.660369,-1.54844 0.03817,-0.018 0.664059,0.29228 1.390785,0.68965 z m 8.453383,2.053 c 0.123629,0.0784 0.686404,0.40698 1.250597,0.7303 0.56419,0.32333 1.04901,0.62567 1.077383,0.67185 0.05688,0.0926 -0.340304,1.22753 -0.473468,1.3529 -0.05829,0.0549 -0.149704,0.036 -0.302812,-0.0625 -0.120635,-0.0776 -0.694597,-0.39492 -1.275483,-0.70512 -0.580889,-0.31019 -1.06689,-0.59974 -1.080018,-0.64343 -0.03207,-0.10674 0.470696,-1.53257 0.531292,-1.50677 0.0262,0.0112 0.148877,0.0844 0.272506,0.16278 z m 19.611998,5.9274 c 0.05504,0.18327 -0.009,1.17522 -0.08238,1.27627 -0.05788,0.0796 -0.283479,0.049 -0.988092,-0.13421 -0.502254,-0.13044 -1.027531,-0.25204 -1.167363,-0.26994 -0.139832,-0.0179 -0.380043,-0.0482 -0.533771,-0.0674 -0.299298,-0.0374 -0.334053,-0.1159 -0.305776,-0.68968 l 0.01281,-0.25953 1.292846,0.007 c 1.579025,0.008 1.736467,0.0204 1.771743,0.13785 z M 91.2651,122.67625 c -0.0035,0.25696 -0.01436,0.4997 -0.02412,0.5394 -0.01656,0.0657 -2.761003,0.1036 -2.993433,0.0413 -0.05457,-0.0146 -0.09538,-0.27593 -0.0906,-0.58065 0.0047,-0.30474 0.0019,-0.61864 -0.0064,-0.69759 -0.01145,-0.10909 0.05308,-0.13626 0.269004,-0.11323 1.407946,0.15021 1.970199,0.2151 2.377263,0.2744 l 0.474648,0.0691 z m -12.445308,-1.84007 c 0.671164,0.37391 1.226551,0.68902 1.234192,0.70026 0.02178,0.0319 -0.620223,1.20107 -0.677764,1.2343 -0.02829,0.0163 -0.523708,-0.25121 -1.101041,-0.59446 -0.577332,-0.34325 -1.16552,-0.68358 -1.307083,-0.7563 -0.215918,-0.11096 -0.242223,-0.15849 -0.163155,-0.29547 0.05181,-0.0898 0.19308,-0.36358 0.313865,-0.60842 0.161792,-0.32795 0.253981,-0.43392 0.350154,-0.40246 0.0718,0.0234 0.679677,0.34864 1.350832,0.72255 z m 12.431999,3.50082 c -0.0084,0.31839 -0.04113,0.45988 -0.107208,0.46386 -0.263615,0.0158 -1.702608,0.31907 -2.194001,0.46238 -0.420437,0.1226 -0.586684,0.13439 -0.66716,0.0474 -0.101427,-0.10969 -0.175202,-1.01495 -0.10488,-1.28694 0.0244,-0.0944 0.392134,-0.12589 1.450856,-0.12426 0.779988,0.001 1.466831,-0.003 1.526324,-0.009 0.06819,-0.007 0.103708,0.15782 0.09609,0.44679 z m -23.115092,-6.15743 c 0.08633,0.0375 0.697185,0.26041 1.357408,0.49522 0.660232,0.23478 1.233011,0.47088 1.272872,0.52458 0.03985,0.0537 0.05625,0.25415 0.03643,0.44545 -0.01979,0.1913 -0.01595,0.61768 0.0086,0.94754 l 0.04466,0.59973 -0.786255,-0.10151 c -0.432437,-0.0558 -1.147604,-0.10161 -1.589259,-0.10174 -0.441661,-1.5e-4 -0.815757,-0.004 -0.831337,-0.008 -0.105692,-0.0283 -0.09239,-1.98745 0.01752,-2.57995 0.0643,-0.34662 0.120489,-0.37317 0.469343,-0.22147 z m 8.543048,3.77369 c 0.04074,0.028 0.593878,0.35569 1.229237,0.72827 0.635356,0.37259 1.146067,0.71148 1.134912,0.75311 -0.02109,0.0787 -1.010377,1.48756 -1.072633,1.52753 -0.01949,0.0125 -0.346553,-0.25924 -0.726824,-0.6039 -0.596147,-0.54033 -1.014419,-0.87694 -1.549691,-1.24711 -0.114021,-0.0788 -0.08846,-0.13982 0.277753,-0.66258 0.372633,-0.53194 0.511891,-0.62947 0.707246,-0.49532 z m 20.855337,7.07043 c 0.158666,0.15668 0.403833,1.07816 0.300293,1.1287 -0.05121,0.025 -2.438452,0.0164 -2.533731,-0.009 -0.103663,-0.0278 -0.14906,-1.18526 -0.04864,-1.24028 0.04865,-0.0266 0.353852,-0.0821 0.678223,-0.12315 0.728415,-0.0922 1.360831,0.004 1.603854,0.2439 z m -26.41684,-6.8456 c 0.159546,0.51098 0.701165,1.39451 1.027969,1.67692 0.449765,0.38865 1.151932,0.63148 1.592524,0.55073 0.30362,-0.0556 0.984829,-0.4774 1.309148,-0.81052 0.09699,-0.0996 0.166341,-0.0696 0.647801,0.28055 0.784059,0.57023 1.775868,1.50141 1.74035,1.63396 -0.05668,0.21154 -1.05616,1.04275 -1.677511,1.39507 -0.665315,0.37727 -1.628874,0.63416 -2.316093,0.61748 -0.916828,-0.0223 -2.351411,-0.5461 -3.121047,-1.13976 -1.051682,-0.81114 -2.146844,-2.69792 -2.480287,-4.27315 -0.04556,-0.21517 -0.07789,-0.40961 -0.07187,-0.43208 0.02143,-0.08 1.208558,-0.0844 1.969122,-0.007 1.144944,0.11604 1.27209,0.16286 1.379892,0.50812 z m 22.96833,7.00407 c 0.04614,0.0967 0.105499,0.43805 0.131876,0.75848 0.07207,0.87548 0.356218,2.18446 0.854599,3.93688 0.322132,1.1327 0.462368,1.81887 0.500217,2.44749 0.101886,1.69221 -0.495036,3.47335 -1.570202,4.68528 -0.476274,0.53685 -1.261699,1.09172 -1.672661,1.18166 -1.278543,0.2798 -1.765786,-1.26436 -1.491237,-4.72599 0.07655,-0.96518 0.157682,-1.39332 0.521648,-2.75278 0.468848,-1.75108 0.569616,-2.45155 0.606921,-4.21952 0.02583,-1.22253 0.04686,-1.34469 0.247238,-1.4368 0.119502,-0.0549 1.572485,-0.10824 1.738441,-0.0638 0.02705,0.007 0.087,0.0924 0.13316,0.18908 z m 3.97566,1.80612 c 0.02562,0.11765 0.13997,0.44904 0.254179,0.73643 0.114211,0.28738 0.191635,0.53178 0.172054,0.54308 -0.04385,0.0253 -2.692777,0.0239 -2.787554,-0.002 -0.09611,-0.0258 -0.38286,-1.39408 -0.301929,-1.44081 0.03662,-0.0211 0.573121,-0.0391 1.192293,-0.04 0.619171,-8.7e-4 1.19297,-0.004 1.275095,-0.006 0.09565,-0.003 0.166038,0.0721 0.195862,0.20915 z m -7.084198,-1.48776 c 0.0076,0.34605 -0.01338,0.63698 -0.04669,0.64651 -0.111902,0.032 -2.487484,0.0103 -2.50664,-0.0229 -0.01039,-0.018 0.01636,-0.26777 0.05956,-0.55495 0.07533,-0.50136 0.09066,-0.52921 0.384634,-0.69894 0.348131,-0.20099 0.754242,-0.22507 1.545462,-0.0916 l 0.549835,0.0928 z m 8.189184,4.14713 c 0.152294,0.38496 0.240476,0.71829 0.195963,0.74073 -0.04453,0.0224 -0.257543,0.0375 -0.473399,0.0334 -0.215868,-0.004 -0.894871,-0.007 -1.508922,-0.007 l -1.116447,8.3e-4 -0.209142,-0.71693 c -0.115023,-0.39431 -0.172302,-0.73483 -0.127289,-0.7567 0.08367,-0.0406 2.745498,-0.0559 2.885184,-0.0165 0.04244,0.012 0.201762,0.33673 0.354052,0.72171 z m -8.226196,-2.1249 c -0.01881,0.38392 -0.06116,0.71356 -0.0941,0.73255 -0.08169,0.0472 -2.527267,0.0478 -2.706047,6.6e-4 -0.122679,-0.0323 -0.121404,-0.12643 0.0088,-0.65441 0.08363,-0.33916 0.160737,-0.66363 0.171263,-0.72108 0.01696,-0.0942 2.156322,-0.16643 2.521438,-0.0853 0.10012,0.0227 0.124406,0.20077 0.09857,0.72754 z m 8.724681,3.97531 c 0.133092,0.88429 0.143113,1.38086 0.02805,1.39018 -0.231626,0.0188 -3.049554,-0.071 -3.063651,-0.0976 -0.02669,-0.0503 -0.180558,-1.73258 -0.159566,-1.7447 0.02792,-0.0161 3.020808,-0.0109 3.08142,0.005 0.02666,0.007 0.07783,0.20822 0.113746,0.44684 z m -8.930529,-2.34914 c -0.02326,0.10225 -0.047,0.26351 -0.05189,0.35862 -0.0049,0.0951 -0.07602,0.3378 -0.158066,0.5393 l -0.149207,0.36636 -1.534362,8.9e-4 c -0.843902,4.9e-4 -1.544596,-0.0168 -1.557091,-0.0385 -0.02454,-0.0425 0.492769,-1.43146 0.543797,-1.46005 0.04738,-0.0265 2.755265,-0.004 2.858841,0.0233 0.05003,0.0134 0.07171,0.10793 0.04798,0.21007 z m 9.026504,4.69763 c -0.0092,0.15422 -0.08954,0.64093 -0.178567,1.08158 l -0.161875,0.80117 -0.494941,-0.081 c -1.490953,-0.24383 -2.638434,-0.45556 -2.655161,-0.48992 -0.01041,-0.0214 0.0563,-0.41914 0.148379,-0.88372 l 0.16733,-0.84471 1.491223,0.0401 c 0.820163,0.022 1.538274,0.0527 1.595785,0.0681 0.05747,0.0154 0.09705,0.15419 0.08785,0.30841 z m -9.626683,-2.48277 c -0.04041,0.15083 -0.109617,0.50144 -0.153694,0.77914 l -0.08031,0.50489 -1.506795,-0.0398 c -1.085843,-0.0287 -1.516,-0.0705 -1.539737,-0.14951 -0.04377,-0.14575 0.162344,-1.34663 0.238695,-1.39071 0.08022,-0.0463 2.788828,-0.0588 2.971453,-0.0137 0.108933,0.0271 0.126065,0.102 0.0704,0.30975 z m -0.311407,2.56916 c -0.01772,0.36828 -0.04733,0.6783 -0.06576,0.68894 -0.0184,0.0107 -0.611692,0.0227 -1.318356,0.0268 -0.706651,0.004 -1.385326,0.0177 -1.50816,0.0302 -0.178959,0.0182 -0.224493,-0.007 -0.229176,-0.12829 -0.0083,-0.21255 0.05914,-1.35625 0.0804,-1.36512 0.0093,-0.004 0.624168,0.0105 1.365593,0.0322 0.741415,0.0217 1.428956,0.0409 1.527865,0.0426 0.161603,0.003 0.176562,0.0709 0.147605,0.67262 z m 9.273232,2.71566 c -0.52562,1.14493 -1.205503,2.28467 -1.341167,2.24832 -0.0425,-0.0114 -0.400312,-0.20396 -0.795217,-0.42798 -0.394905,-0.22402 -1.017964,-0.5344 -1.384569,-0.68975 l -0.666563,-0.28243 0.178862,-0.23162 c 0.09832,-0.1274 0.331613,-0.49967 0.518319,-0.82729 0.186655,-0.32762 0.358967,-0.60693 0.382825,-0.6207 0.06993,-0.0404 2.243481,0.31722 2.755501,0.45329 l 0.468463,0.12449 z m -9.29445,-1.21946 c 0.0045,0.0856 0.03256,0.4158 0.06226,0.73383 0.0297,0.31802 0.04412,0.58053 0.03204,0.58334 -0.01208,0.003 -0.325716,0.0346 -0.696963,0.0708 -0.371245,0.0361 -1.021449,0.1456 -1.444898,0.24331 -0.423461,0.0977 -0.802703,0.16889 -0.84277,0.15816 -0.104339,-0.028 -0.240917,-1.83307 -0.142974,-1.88961 0.06332,-0.0366 2.875181,-0.0956 2.997042,-0.0629 0.01536,0.004 0.03171,0.0776 0.03622,0.16311 z m 5.743654,3.01363 c 0.69074,0.30522 1.720939,0.8812 1.789981,1.00078 0.05798,0.10043 -0.63582,0.78949 -1.39559,1.38597 -0.883402,0.69354 -1.926732,1.1884 -2.878664,1.36538 -0.980531,0.18229 -1.532938,0.15878 -2.513275,-0.107 -1.297864,-0.3519 -2.092627,-0.97414 -2.791565,-2.18571 -0.47676,-0.82647 -0.798289,-1.84319 -0.631624,-1.99729 0.134857,-0.12466 1.44791,-0.40478 2.28322,-0.48707 l 0.593028,-0.0584 0.247302,0.58738 c 0.358997,0.8527 0.554068,1.03462 1.267754,1.1823 0.903155,0.18692 1.598249,-0.0223 2.478877,-0.74597 0.5089,-0.4182 0.465348,-0.41987 1.550556,0.0597 z"
       style="fill:#000000;stroke-width:0.94288898;filter:url(#filter856)"
       transform="matrix(1.060085,0,0,1.0610556,-5.0276357,-7.4950221)" />
    <path
       style="fill:#ffffff;stroke-width:1"
       d="m 84.80708,99.636281 c 1.73836,0.815869 2.815449,2.474949 2.89053,4.452429 0.0084,0.21918 -0.01011,0.4943 -0.04097,0.6114 l -0.0561,0.2129 -1.098393,-0.2352 c -0.604103,-0.12936 -1.274753,-0.25926 -1.490343,-0.28861 -0.38752,-0.0528 -0.392146,-0.0569 -0.409567,-0.3621 -0.02673,-0.4686 -0.364536,-1.09445 -0.735795,-1.36322 -0.505084,-0.36564 -1.218246,-0.47301 -1.777267,-0.26757 -0.243325,0.0894 -0.479564,0.12609 -0.524965,0.0815 -0.399016,-0.39205 -1.933112,-2.17073 -1.918683,-2.22458 0.0102,-0.0381 0.307133,-0.23105 0.659861,-0.428905 1.347111,-0.755619 3.133331,-0.830213 4.501678,-0.187995 z m -4.629244,2.230469 c 0.535813,0.6082 0.981936,1.11627 0.991381,1.12904 0.04789,0.0647 -0.415525,0.81009 -0.491195,0.79004 -0.07811,-0.0207 -2.400972,-1.68634 -2.457826,-1.76243 -0.06018,-0.0806 0.8359,-1.30202 0.935651,-1.27529 0.02627,0.007 0.486188,0.51043 1.021989,1.11864 z m 3.252311,1.93311 c 0.29614,0.45662 0.222415,0.73509 -0.549485,2.07389 -0.370848,0.64355 -0.765352,1.27179 -0.876689,1.3961 -0.509096,0.56843 -1.464207,0.29096 -1.64382,-0.47752 -0.0733,-0.31361 0.0094,-0.50864 0.796272,-1.87896 0.639426,-1.11347 0.778325,-1.30517 1.045342,-1.44264 0.239387,-0.12325 0.389265,-0.13674 0.673363,-0.0606 0.283654,0.076 0.407775,0.1632 0.554648,0.38966 z m -4.21744,-0.29571 c 0.623523,0.46173 1.144508,0.85249 1.157742,0.86836 0.03376,0.0405 -0.355248,0.74617 -0.471912,0.85605 -0.07739,0.0729 -0.303429,-0.0275 -1.152212,-0.51132 -1.625575,-0.92657 -1.573257,-0.88595 -1.445886,-1.12272 0.342226,-0.63614 0.593839,-0.99229 0.68036,-0.96305 0.05393,0.0186 0.608384,0.41096 1.231908,0.87268 z m 8.165354,2.43566 c -0.319629,0.77706 -0.482032,1.00227 -0.681978,0.9458 -0.33224,-0.0942 -2.56509,-1.08131 -2.606265,-1.15263 -0.02234,-0.0387 0.05126,-0.23997 0.163703,-0.44713 l 0.20445,-0.37664 0.806328,0.15797 c 0.443495,0.0868 1.139994,0.22274 1.547812,0.30194 l 0.741471,0.14402 z m -9.166759,-0.82467 c 0.710734,0.40613 1.300274,0.75188 1.310088,0.76834 0.0098,0.0165 -0.06963,0.18685 -0.176513,0.37864 l -0.194377,0.34871 -1.389479,-0.42252 c -0.919995,-0.27974 -1.416462,-0.46578 -1.469322,-0.55047 -0.06548,-0.10493 -0.02758,-0.22318 0.209796,-0.65625 0.159327,-0.29054 0.31842,-0.54551 0.35359,-0.56658 0.03516,-0.0211 0.645438,0.29397 1.356181,0.70011 z m 6.924322,1.80028 c 0.753901,0.33501 1.376343,0.61377 1.383201,0.61947 0.01564,0.0135 -0.655606,1.17954 -0.695672,1.20871 -0.01623,0.0119 -0.625857,-0.32315 -1.354632,-0.74448 l -1.325054,-0.76604 0.243046,-0.42989 c 0.133654,-0.23646 0.273495,-0.44497 0.31071,-0.46338 0.03723,-0.0184 0.684486,0.24065 1.438401,0.57561 z m -0.931432,1.63402 c 0.661536,0.3862 1.21653,0.72596 1.23331,0.75502 0.07833,0.13567 -0.595862,1.17008 -0.774865,1.18887 -0.06328,0.007 -0.40707,-0.27927 -0.763993,-0.63539 -0.356925,-0.3561 -0.82984,-0.78203 -1.050914,-0.9465 -0.221082,-0.16449 -0.412576,-0.31286 -0.425542,-0.32973 -0.05619,-0.0731 0.405115,-0.80079 0.487722,-0.76931 0.05048,0.0187 0.632743,0.35085 1.294282,0.73704 z m -8.524023,0.68818 c 0.548984,0.3074 1.243493,0.84661 1.21714,0.94496 -0.01294,0.0483 -0.163483,0.29794 -0.33454,0.55483 -0.237086,0.35603 -0.340354,0.44984 -0.43444,0.39462 -0.0679,-0.0398 -0.551094,-0.31641 -1.073805,-0.61461 -0.522724,-0.29819 -0.973644,-0.57736 -1.002061,-0.62037 -0.05523,-0.0836 0.521108,-0.77197 0.688573,-0.82227 0.269737,-0.081 0.608567,-0.0223 0.93914,0.16281 z m 3.098834,2.05412 c 0.627651,0.36723 0.749482,0.5059 0.680191,0.7742 -0.01976,0.0764 -0.30065,0.62057 -0.624291,1.20937 -0.805609,1.46565 -1.032793,2.03579 -1.487724,3.73361 -0.435794,1.62641 -0.852058,2.66876 -1.595522,3.99529 -0.856793,1.52875 -1.425578,2.15035 -2.11911,2.31592 -0.522633,0.12477 -0.857564,-0.0863 -1.263853,-0.79651 -0.599079,-1.0472 -0.742916,-2.37579 -0.422408,-3.90171 0.340971,-1.62334 0.88924,-2.47671 2.767169,-4.30706 1.426765,-1.39062 1.86119,-1.87058 2.475688,-2.7352 0.256597,-0.36104 0.522168,-0.67385 0.590157,-0.69515 0.175644,-0.055 0.287531,-0.009 0.999703,0.40724 z m 2.618845,1.23152 c 0.719365,0.34393 0.903471,0.48866 1.047357,0.82328 0.105921,0.2463 0.09799,0.3368 -0.06615,0.75525 -0.102571,0.26148 -0.196071,0.48099 -0.207928,0.48777 -0.0752,0.0434 -2.124851,-1.21201 -2.134893,-1.30764 -0.0069,-0.0652 0.116313,-0.3402 0.27361,-0.61111 0.319781,-0.55064 0.261446,-0.54272 1.087953,-0.14756 z m 13.561533,3.69074 c 0.629602,0.23237 1.267403,0.64348 1.743931,1.12423 0.330375,0.3333 1.097085,1.52159 1.063247,1.64788 -0.01038,0.0387 -0.655161,0.27926 -1.432828,0.53445 -1.391672,0.45666 -1.416659,0.46101 -1.58597,0.27598 -0.674379,-0.73696 -1.198921,-0.95044 -1.956865,-0.7964 -0.499342,0.10149 -0.950889,0.39065 -1.213898,0.7774 l -0.157501,0.23157 -0.649908,-0.22694 c -0.357432,-0.12487 -1.002208,-0.34743 -1.432805,-0.49463 l -0.782903,-0.26765 0.05931,-0.22134 c 0.170272,-0.63546 1.066061,-1.64383 1.93515,-2.17836 1.393442,-0.85701 2.830547,-0.98933 4.411013,-0.40615 z m -20.224663,-5.17955 c 0.559287,0.32942 1.019803,0.64758 1.02338,0.70703 0.0049,0.0822 -0.756253,0.96324 -0.922139,1.0673 -0.02726,0.0171 -2.413405,-1.3342 -2.460834,-1.39361 -0.0445,-0.0557 1.178983,-1.0358 1.258806,-1.00842 0.04626,0.0155 0.541507,0.2983 1.100787,0.6277 z m 6.14302,3.54205 c 0.514768,0.2996 0.952696,0.57374 0.973164,0.60921 0.03821,0.066 -0.341528,1.37428 -0.410705,1.41532 -0.03004,0.0178 -1.279282,-0.67344 -2.349879,-1.30026 -0.147807,-0.0865 -0.136339,-0.12339 0.313957,-1.00943 0.227442,-0.4475 0.208182,-0.45123 1.473454,0.28516 z m -7.731624,-2.00729 c 0.626028,0.36243 1.148631,0.67413 1.161343,0.69268 0.0501,0.0731 -1.028222,1.07352 -1.129026,1.04751 -0.12043,-0.0312 -2.612296,-1.46729 -2.645487,-1.52478 -0.01167,-0.0202 0.234559,-0.2507 0.547132,-0.51225 0.427376,-0.3576 0.612914,-0.46148 0.74807,-0.41882 0.09874,0.0316 0.691941,0.35324 1.317968,0.71566 z m 24.921198,7.51178 c 0.06137,0.43213 0.08526,1.11251 0.03999,1.13866 -0.03625,0.0209 -2.803222,0.31529 -2.938356,0.31258 -0.126497,-0.003 -0.19623,-0.72987 -0.08516,-0.88806 0.05072,-0.0722 2.806829,-1.02688 2.895859,-1.00303 0.01439,0.004 0.05386,0.2018 0.08767,0.43985 z m -26.568281,-6.00318 c 0.659437,0.38537 1.212535,0.72416 1.229096,0.75284 0.01655,0.0287 -0.05123,0.14251 -0.150598,0.25294 -0.09937,0.11044 -0.330966,0.42764 -0.514609,0.70491 -0.256943,0.38795 -0.3617,0.48671 -0.454535,0.42853 -0.06639,-0.0416 -0.568852,-0.3166 -1.116656,-0.61113 -0.547791,-0.29455 -1.121844,-0.60808 -1.27567,-0.69673 l -0.279674,-0.16118 0.337555,-0.50453 c 0.469418,-0.70163 0.722975,-0.96191 0.886738,-0.91027 0.07653,0.0246 0.678911,0.35926 1.338358,0.74464 z m 8.545247,2.46984 c 0.660932,0.3869 1.213534,0.72396 1.227999,0.74903 0.02793,0.0484 -0.195587,1.51957 -0.234255,1.5419 -0.01249,0.007 -0.329876,-0.16407 -0.70527,-0.38066 -0.375397,-0.21658 -0.979278,-0.55842 -1.341967,-0.75964 -0.655869,-0.36388 -0.659263,-0.36748 -0.628835,-0.66796 0.03394,-0.33571 0.358208,-1.23949 0.43296,-1.2069 0.0263,0.0112 0.588442,0.33733 1.249368,0.72423 z m 13.788502,3.785 c 0.105216,0.0998 0.216036,0.29555 0.246243,0.435 0.06555,0.30258 0.06041,2.92263 -0.0062,3.1713 -0.123633,0.4614 -0.70946,0.7767 -1.1984,0.64499 -0.316174,-0.0851 -0.64401,-0.45226 -0.682038,-0.76371 -0.05166,-0.42315 -0.0367,-2.86737 0.01883,-3.07459 0.183034,-0.68309 1.092558,-0.91473 1.621585,-0.41299 z m 4.298103,2.01604 c 0.02203,1.04318 0.08901,0.96674 -0.83473,0.95247 -0.447653,-0.007 -1.13875,-0.01 -1.53577,-0.007 l -0.721853,0.006 -0.01016,-0.48103 c -0.0056,-0.26458 0.01296,-0.51605 0.04123,-0.55886 0.04045,-0.0613 2.21181,-0.35265 2.902795,-0.38944 0.116713,-0.006 0.150419,0.0954 0.158488,0.47772 z m -8.097032,-2.17166 1.196242,0.41681 0.02251,0.38145 c 0.01242,0.20981 -0.0091,0.42494 -0.04767,0.47811 -0.03857,0.0531 -0.254425,0.0718 -0.47958,0.0415 -0.225158,-0.0303 -0.888085,-0.10601 -1.473172,-0.16821 -0.585075,-0.0622 -1.071601,-0.12662 -1.081149,-0.14315 -0.03217,-0.0557 0.04548,-1.22016 0.09379,-1.40618 0.05482,-0.21229 -0.06458,-0.23925 1.769044,0.39968 z M 70.04445,116.05922 c 0.726726,0.39737 1.333099,0.74289 1.347496,0.76783 0.01433,0.025 -0.0986,0.41859 -0.251171,0.87479 l -0.277331,0.82946 -0.322568,-0.13477 c -0.177405,-0.0742 -0.853406,-0.32495 -1.502207,-0.55742 l -1.179634,-0.42265 0.134264,-0.49846 c 0.14843,-0.55132 0.551806,-1.49708 0.660369,-1.54844 0.03817,-0.018 0.664059,0.29228 1.390785,0.68965 z m 8.453383,2.053 c 0.123629,0.0784 0.686404,0.40698 1.250597,0.7303 0.56419,0.32333 1.04901,0.62567 1.077383,0.67185 0.05688,0.0926 -0.340304,1.22753 -0.473468,1.3529 -0.05829,0.0549 -0.149704,0.036 -0.302812,-0.0625 -0.120635,-0.0776 -0.694597,-0.39492 -1.275483,-0.70512 -0.580889,-0.31019 -1.06689,-0.59974 -1.080018,-0.64343 -0.03207,-0.10674 0.470696,-1.53257 0.531292,-1.50677 0.0262,0.0112 0.148877,0.0844 0.272506,0.16278 z m 19.611998,5.9274 c 0.05504,0.18327 -0.009,1.17522 -0.08238,1.27627 -0.05788,0.0796 -0.283479,0.049 -0.988092,-0.13421 -0.502254,-0.13044 -1.027531,-0.25204 -1.167363,-0.26994 -0.139832,-0.0179 -0.380043,-0.0482 -0.533771,-0.0674 -0.299298,-0.0374 -0.334053,-0.1159 -0.305776,-0.68968 l 0.01281,-0.25953 1.292846,0.007 c 1.579025,0.008 1.736467,0.0204 1.771743,0.13785 z M 91.2651,122.67625 c -0.0035,0.25696 -0.01436,0.4997 -0.02412,0.5394 -0.01656,0.0657 -2.761003,0.1036 -2.993433,0.0413 -0.05457,-0.0146 -0.09538,-0.27593 -0.0906,-0.58065 0.0047,-0.30474 0.0019,-0.61864 -0.0064,-0.69759 -0.01145,-0.10909 0.05308,-0.13626 0.269004,-0.11323 1.407946,0.15021 1.970199,0.2151 2.377263,0.2744 l 0.474648,0.0691 z m -12.445308,-1.84007 c 0.671164,0.37391 1.226551,0.68902 1.234192,0.70026 0.02178,0.0319 -0.620223,1.20107 -0.677764,1.2343 -0.02829,0.0163 -0.523708,-0.25121 -1.101041,-0.59446 -0.577332,-0.34325 -1.16552,-0.68358 -1.307083,-0.7563 -0.215918,-0.11096 -0.242223,-0.15849 -0.163155,-0.29547 0.05181,-0.0898 0.19308,-0.36358 0.313865,-0.60842 0.161792,-0.32795 0.253981,-0.43392 0.350154,-0.40246 0.0718,0.0234 0.679677,0.34864 1.350832,0.72255 z m 12.431999,3.50082 c -0.0084,0.31839 -0.04113,0.45988 -0.107208,0.46386 -0.263615,0.0158 -1.702608,0.31907 -2.194001,0.46238 -0.420437,0.1226 -0.586684,0.13439 -0.66716,0.0474 -0.101427,-0.10969 -0.175202,-1.01495 -0.10488,-1.28694 0.0244,-0.0944 0.392134,-0.12589 1.450856,-0.12426 0.779988,0.001 1.466831,-0.003 1.526324,-0.009 0.06819,-0.007 0.103708,0.15782 0.09609,0.44679 z m -23.115092,-6.15743 c 0.08633,0.0375 0.697185,0.26041 1.357408,0.49522 0.660232,0.23478 1.233011,0.47088 1.272872,0.52458 0.03985,0.0537 0.05625,0.25415 0.03643,0.44545 -0.01979,0.1913 -0.01595,0.61768 0.0086,0.94754 l 0.04466,0.59973 -0.786255,-0.10151 c -0.432437,-0.0558 -1.147604,-0.10161 -1.589259,-0.10174 -0.441661,-1.5e-4 -0.815757,-0.004 -0.831337,-0.008 -0.105692,-0.0283 -0.09239,-1.98745 0.01752,-2.57995 0.0643,-0.34662 0.120489,-0.37317 0.469343,-0.22147 z m 8.543048,3.77369 c 0.04074,0.028 0.593878,0.35569 1.229237,0.72827 0.635356,0.37259 1.146067,0.71148 1.134912,0.75311 -0.02109,0.0787 -1.010377,1.48756 -1.072633,1.52753 -0.01949,0.0125 -0.346553,-0.25924 -0.726824,-0.6039 -0.596147,-0.54033 -1.014419,-0.87694 -1.549691,-1.24711 -0.114021,-0.0788 -0.08846,-0.13982 0.277753,-0.66258 0.372633,-0.53194 0.511891,-0.62947 0.707246,-0.49532 z m 20.855337,7.07043 c 0.158666,0.15668 0.403833,1.07816 0.300293,1.1287 -0.05121,0.025 -2.438452,0.0164 -2.533731,-0.009 -0.103663,-0.0278 -0.14906,-1.18526 -0.04864,-1.24028 0.04865,-0.0266 0.353852,-0.0821 0.678223,-0.12315 0.728415,-0.0922 1.360831,0.004 1.603854,0.2439 z m -26.41684,-6.8456 c 0.159546,0.51098 0.701165,1.39451 1.027969,1.67692 0.449765,0.38865 1.151932,0.63148 1.592524,0.55073 0.30362,-0.0556 0.984829,-0.4774 1.309148,-0.81052 0.09699,-0.0996 0.166341,-0.0696 0.647801,0.28055 0.784059,0.57023 1.775868,1.50141 1.74035,1.63396 -0.05668,0.21154 -1.05616,1.04275 -1.677511,1.39507 -0.665315,0.37727 -1.628874,0.63416 -2.316093,0.61748 -0.916828,-0.0223 -2.351411,-0.5461 -3.121047,-1.13976 -1.051682,-0.81114 -2.146844,-2.69792 -2.480287,-4.27315 -0.04556,-0.21517 -0.07789,-0.40961 -0.07187,-0.43208 0.02143,-0.08 1.208558,-0.0844 1.969122,-0.007 1.144944,0.11604 1.27209,0.16286 1.379892,0.50812 z m 22.96833,7.00407 c 0.04614,0.0967 0.105499,0.43805 0.131876,0.75848 0.07207,0.87548 0.356218,2.18446 0.854599,3.93688 0.322132,1.1327 0.462368,1.81887 0.500217,2.44749 0.101886,1.69221 -0.495036,3.47335 -1.570202,4.68528 -0.476274,0.53685 -1.261699,1.09172 -1.672661,1.18166 -1.278543,0.2798 -1.765786,-1.26436 -1.491237,-4.72599 0.07655,-0.96518 0.157682,-1.39332 0.521648,-2.75278 0.468848,-1.75108 0.569616,-2.45155 0.606921,-4.21952 0.02583,-1.22253 0.04686,-1.34469 0.247238,-1.4368 0.119502,-0.0549 1.572485,-0.10824 1.738441,-0.0638 0.02705,0.007 0.087,0.0924 0.13316,0.18908 z m 3.97566,1.80612 c 0.02562,0.11765 0.13997,0.44904 0.254179,0.73643 0.114211,0.28738 0.191635,0.53178 0.172054,0.54308 -0.04385,0.0253 -2.692777,0.0239 -2.787554,-0.002 -0.09611,-0.0258 -0.38286,-1.39408 -0.301929,-1.44081 0.03662,-0.0211 0.573121,-0.0391 1.192293,-0.04 0.619171,-8.7e-4 1.19297,-0.004 1.275095,-0.006 0.09565,-0.003 0.166038,0.0721 0.195862,0.20915 z m -7.084198,-1.48776 c 0.0076,0.34605 -0.01338,0.63698 -0.04669,0.64651 -0.111902,0.032 -2.487484,0.0103 -2.50664,-0.0229 -0.01039,-0.018 0.01636,-0.26777 0.05956,-0.55495 0.07533,-0.50136 0.09066,-0.52921 0.384634,-0.69894 0.348131,-0.20099 0.754242,-0.22507 1.545462,-0.0916 l 0.549835,0.0928 z m 8.189184,4.14713 c 0.152294,0.38496 0.240476,0.71829 0.195963,0.74073 -0.04453,0.0224 -0.257543,0.0375 -0.473399,0.0334 -0.215868,-0.004 -0.894871,-0.007 -1.508922,-0.007 l -1.116447,8.3e-4 -0.209142,-0.71693 c -0.115023,-0.39431 -0.172302,-0.73483 -0.127289,-0.7567 0.08367,-0.0406 2.745498,-0.0559 2.885184,-0.0165 0.04244,0.012 0.201762,0.33673 0.354052,0.72171 z m -8.226196,-2.1249 c -0.01881,0.38392 -0.06116,0.71356 -0.0941,0.73255 -0.08169,0.0472 -2.527267,0.0478 -2.706047,6.6e-4 -0.122679,-0.0323 -0.121404,-0.12643 0.0088,-0.65441 0.08363,-0.33916 0.160737,-0.66363 0.171263,-0.72108 0.01696,-0.0942 2.156322,-0.16643 2.521438,-0.0853 0.10012,0.0227 0.124406,0.20077 0.09857,0.72754 z m 8.724681,3.97531 c 0.133092,0.88429 0.143113,1.38086 0.02805,1.39018 -0.231626,0.0188 -3.049554,-0.071 -3.063651,-0.0976 -0.02669,-0.0503 -0.180558,-1.73258 -0.159566,-1.7447 0.02792,-0.0161 3.020808,-0.0109 3.08142,0.005 0.02666,0.007 0.07783,0.20822 0.113746,0.44684 z m -8.930529,-2.34914 c -0.02326,0.10225 -0.047,0.26351 -0.05189,0.35862 -0.0049,0.0951 -0.07602,0.3378 -0.158066,0.5393 l -0.149207,0.36636 -1.534362,8.9e-4 c -0.843902,4.9e-4 -1.544596,-0.0168 -1.557091,-0.0385 -0.02454,-0.0425 0.492769,-1.43146 0.543797,-1.46005 0.04738,-0.0265 2.755265,-0.004 2.858841,0.0233 0.05003,0.0134 0.07171,0.10793 0.04798,0.21007 z m 9.026504,4.69763 c -0.0092,0.15422 -0.08954,0.64093 -0.178567,1.08158 l -0.161875,0.80117 -0.494941,-0.081 c -1.490953,-0.24383 -2.638434,-0.45556 -2.655161,-0.48992 -0.01041,-0.0214 0.0563,-0.41914 0.148379,-0.88372 l 0.16733,-0.84471 1.491223,0.0401 c 0.820163,0.022 1.538274,0.0527 1.595785,0.0681 0.05747,0.0154 0.09705,0.15419 0.08785,0.30841 z m -9.626683,-2.48277 c -0.04041,0.15083 -0.109617,0.50144 -0.153694,0.77914 l -0.08031,0.50489 -1.506795,-0.0398 c -1.085843,-0.0287 -1.516,-0.0705 -1.539737,-0.14951 -0.04377,-0.14575 0.162344,-1.34663 0.238695,-1.39071 0.08022,-0.0463 2.788828,-0.0588 2.971453,-0.0137 0.108933,0.0271 0.126065,0.102 0.0704,0.30975 z m -0.311407,2.56916 c -0.01772,0.36828 -0.04733,0.6783 -0.06576,0.68894 -0.0184,0.0107 -0.611692,0.0227 -1.318356,0.0268 -0.706651,0.004 -1.385326,0.0177 -1.50816,0.0302 -0.178959,0.0182 -0.224493,-0.007 -0.229176,-0.12829 -0.0083,-0.21255 0.05914,-1.35625 0.0804,-1.36512 0.0093,-0.004 0.624168,0.0105 1.365593,0.0322 0.741415,0.0217 1.428956,0.0409 1.527865,0.0426 0.161603,0.003 0.176562,0.0709 0.147605,0.67262 z m 9.273232,2.71566 c -0.52562,1.14493 -1.205503,2.28467 -1.341167,2.24832 -0.0425,-0.0114 -0.400312,-0.20396 -0.795217,-0.42798 -0.394905,-0.22402 -1.017964,-0.5344 -1.384569,-0.68975 l -0.666563,-0.28243 0.178862,-0.23162 c 0.09832,-0.1274 0.331613,-0.49967 0.518319,-0.82729 0.186655,-0.32762 0.358967,-0.60693 0.382825,-0.6207 0.06993,-0.0404 2.243481,0.31722 2.755501,0.45329 l 0.468463,0.12449 z m -9.29445,-1.21946 c 0.0045,0.0856 0.03256,0.4158 0.06226,0.73383 0.0297,0.31802 0.04412,0.58053 0.03204,0.58334 -0.01208,0.003 -0.325716,0.0346 -0.696963,0.0708 -0.371245,0.0361 -1.021449,0.1456 -1.444898,0.24331 -0.423461,0.0977 -0.802703,0.16889 -0.84277,0.15816 -0.104339,-0.028 -0.240917,-1.83307 -0.142974,-1.88961 0.06332,-0.0366 2.875181,-0.0956 2.997042,-0.0629 0.01536,0.004 0.03171,0.0776 0.03622,0.16311 z m 5.743654,3.01363 c 0.69074,0.30522 1.720939,0.8812 1.789981,1.00078 0.05798,0.10043 -0.63582,0.78949 -1.39559,1.38597 -0.883402,0.69354 -1.926732,1.1884 -2.878664,1.36538 -0.980531,0.18229 -1.532938,0.15878 -2.513275,-0.107 -1.297864,-0.3519 -2.092627,-0.97414 -2.791565,-2.18571 -0.47676,-0.82647 -0.798289,-1.84319 -0.631624,-1.99729 0.134857,-0.12466 1.44791,-0.40478 2.28322,-0.48707 l 0.593028,-0.0584 0.247302,0.58738 c 0.358997,0.8527 0.554068,1.03462 1.267754,1.1823 0.903155,0.18692 1.598249,-0.0223 2.478877,-0.74597 0.5089,-0.4182 0.465348,-0.41987 1.550556,0.0597 z"
       id="path4722"
       inkscape:connector-curvature="0" />
  </g>
</svg>
