<?xml version="1.0" encoding="UTF-8"?>
<svg width="38.166mm" height="54.027mm" version="1.1" viewBox="0 0 38.166 54.027" xmlns="http://www.w3.org/2000/svg" xmlns:cc="http://creativecommons.org/ns#" xmlns:dc="http://purl.org/dc/elements/1.1/" xmlns:rdf="http://www.w3.org/1999/02/22-rdf-syntax-ns#">
<defs>
<filter id="a" x="-.059118" y="-.040402" width="1.1182" height="1.0808" color-interpolation-filters="sRGB">
<feGaussianBlur stdDeviation="0.79307507"/>
</filter>
</defs>
<metadata>
<rdf:RDF>
<cc:Work rdf:about="">
<dc:format>image/svg+xml</dc:format>
<dc:type rdf:resource="http://purl.org/dc/dcmitype/StillImage"/>
<dc:title/>
</cc:Work>
</rdf:RDF>
</metadata>
<g transform="translate(-64.592 -95.744)">
<path transform="matrix(1.0601 0 0 1.0611 -5.0276 -7.495)" d="m84.807 99.636c1.7384 0.81587 2.8154 2.4749 2.8905 4.4524 0.0084 0.21918-0.01011 0.4943-0.04097 0.6114l-0.0561 0.2129-1.0984-0.2352c-0.6041-0.12936-1.2748-0.25926-1.4903-0.28861-0.38752-0.0528-0.39215-0.0569-0.40957-0.3621-0.02673-0.4686-0.36454-1.0944-0.7358-1.3632-0.50508-0.36564-1.2182-0.47301-1.7773-0.26757-0.24332 0.0894-0.47956 0.12609-0.52496 0.0815-0.39902-0.39205-1.9331-2.1707-1.9187-2.2246 0.0102-0.0381 0.30713-0.23105 0.65986-0.4289 1.3471-0.75562 3.1333-0.83021 4.5017-0.188zm-4.6292 2.2305c0.53581 0.6082 0.98194 1.1163 0.99138 1.129 0.04789 0.0647-0.41552 0.81009-0.4912 0.79004-0.07811-0.0207-2.401-1.6863-2.4578-1.7624-0.06018-0.0806 0.8359-1.302 0.93565-1.2753 0.02627 7e-3 0.48619 0.51043 1.022 1.1186zm3.2523 1.9331c0.29614 0.45662 0.22242 0.73509-0.54948 2.0739-0.37085 0.64355-0.76535 1.2718-0.87669 1.3961-0.5091 0.56843-1.4642 0.29096-1.6438-0.47752-0.0733-0.31361 0.0094-0.50864 0.79627-1.879 0.63943-1.1135 0.77832-1.3052 1.0453-1.4426 0.23939-0.12325 0.38926-0.13674 0.67336-0.0606 0.28365 0.076 0.40778 0.1632 0.55465 0.38966zm-4.2174-0.29571c0.62352 0.46173 1.1445 0.85249 1.1577 0.86836 0.03376 0.0405-0.35525 0.74617-0.47191 0.85605-0.07739 0.0729-0.30343-0.0275-1.1522-0.51132-1.6256-0.92657-1.5733-0.88595-1.4459-1.1227 0.34223-0.63614 0.59384-0.99229 0.68036-0.96305 0.05393 0.0186 0.60838 0.41096 1.2319 0.87268zm8.1654 2.4357c-0.31963 0.77706-0.48203 1.0023-0.68198 0.9458-0.33224-0.0942-2.5651-1.0813-2.6063-1.1526-0.02234-0.0387 0.05126-0.23997 0.1637-0.44713l0.20445-0.37664 0.80633 0.15797c0.4435 0.0868 1.14 0.22274 1.5478 0.30194l0.74147 0.14402zm-9.1668-0.82467c0.71073 0.40613 1.3003 0.75188 1.3101 0.76834 0.0098 0.0165-0.06963 0.18685-0.17651 0.37864l-0.19438 0.34871-1.3895-0.42252c-0.92-0.27974-1.4165-0.46578-1.4693-0.55047-0.06548-0.10493-0.02758-0.22318 0.2098-0.65625 0.15933-0.29054 0.31842-0.54551 0.35359-0.56658 0.03516-0.0211 0.64544 0.29397 1.3562 0.70011zm6.9243 1.8003c0.7539 0.33501 1.3763 0.61377 1.3832 0.61947 0.01564 0.0135-0.65561 1.1795-0.69567 1.2087-0.01623 0.0119-0.62586-0.32315-1.3546-0.74448l-1.3251-0.76604 0.24305-0.42989c0.13365-0.23646 0.2735-0.44497 0.31071-0.46338 0.03723-0.0184 0.68449 0.24065 1.4384 0.57561zm-0.93143 1.634c0.66154 0.3862 1.2165 0.72596 1.2333 0.75502 0.07833 0.13567-0.59586 1.1701-0.77486 1.1889-0.06328 7e-3 -0.40707-0.27927-0.76399-0.63539-0.35692-0.3561-0.82984-0.78203-1.0509-0.9465-0.22108-0.16449-0.41258-0.31286-0.42554-0.32973-0.05619-0.0731 0.40512-0.80079 0.48772-0.76931 0.05048 0.0187 0.63274 0.35085 1.2943 0.73704zm-8.524 0.68818c0.54898 0.3074 1.2435 0.84661 1.2171 0.94496-0.01294 0.0483-0.16348 0.29794-0.33454 0.55483-0.23709 0.35603-0.34035 0.44984-0.43444 0.39462-0.0679-0.0398-0.55109-0.31641-1.0738-0.61461-0.52272-0.29819-0.97364-0.57736-1.0021-0.62037-0.05523-0.0836 0.52111-0.77197 0.68857-0.82227 0.26974-0.081 0.60857-0.0223 0.93914 0.16281zm3.0988 2.0541c0.62765 0.36723 0.74948 0.5059 0.68019 0.7742-0.01976 0.0764-0.30065 0.62057-0.62429 1.2094-0.80561 1.4656-1.0328 2.0358-1.4877 3.7336-0.43579 1.6264-0.85206 2.6688-1.5955 3.9953-0.85679 1.5288-1.4256 2.1504-2.1191 2.3159-0.52263 0.12477-0.85756-0.0863-1.2639-0.79651-0.59908-1.0472-0.74292-2.3758-0.42241-3.9017 0.34097-1.6233 0.88924-2.4767 2.7672-4.3071 1.4268-1.3906 1.8612-1.8706 2.4757-2.7352 0.2566-0.36104 0.52217-0.67385 0.59016-0.69515 0.17564-0.055 0.28753-9e-3 0.9997 0.40724zm2.6188 1.2315c0.71936 0.34393 0.90347 0.48866 1.0474 0.82328 0.10592 0.2463 0.09799 0.3368-0.06615 0.75525-0.10257 0.26148-0.19607 0.48099-0.20793 0.48777-0.0752 0.0434-2.1249-1.212-2.1349-1.3076-0.0069-0.0652 0.11631-0.3402 0.27361-0.61111 0.31978-0.55064 0.26145-0.54272 1.088-0.14756zm13.562 3.6907c0.6296 0.23237 1.2674 0.64348 1.7439 1.1242 0.33038 0.3333 1.0971 1.5216 1.0632 1.6479-0.01038 0.0387-0.65516 0.27926-1.4328 0.53445-1.3917 0.45666-1.4167 0.46101-1.586 0.27598-0.67438-0.73696-1.1989-0.95044-1.9569-0.7964-0.49934 0.10149-0.95089 0.39065-1.2139 0.7774l-0.1575 0.23157-0.64991-0.22694c-0.35743-0.12487-1.0022-0.34743-1.4328-0.49463l-0.7829-0.26765 0.05931-0.22134c0.17027-0.63546 1.0661-1.6438 1.9352-2.1784 1.3934-0.85701 2.8305-0.98933 4.411-0.40615zm-20.225-5.1796c0.55929 0.32942 1.0198 0.64758 1.0234 0.70703 0.0049 0.0822-0.75625 0.96324-0.92214 1.0673-0.02726 0.0171-2.4134-1.3342-2.4608-1.3936-0.0445-0.0557 1.179-1.0358 1.2588-1.0084 0.04626 0.0155 0.54151 0.2983 1.1008 0.6277zm6.143 3.542c0.51477 0.2996 0.9527 0.57374 0.97316 0.60921 0.03821 0.066-0.34153 1.3743-0.4107 1.4153-0.03004 0.0178-1.2793-0.67344-2.3499-1.3003-0.14781-0.0865-0.13634-0.12339 0.31396-1.0094 0.22744-0.4475 0.20818-0.45123 1.4735 0.28516zm-7.7316-2.0073c0.62603 0.36243 1.1486 0.67413 1.1613 0.69268 0.0501 0.0731-1.0282 1.0735-1.129 1.0475-0.12043-0.0312-2.6123-1.4673-2.6455-1.5248-0.01167-0.0202 0.23456-0.2507 0.54713-0.51225 0.42738-0.3576 0.61291-0.46148 0.74807-0.41882 0.09874 0.0316 0.69194 0.35324 1.318 0.71566zm24.921 7.5118c0.06137 0.43213 0.08526 1.1125 0.03999 1.1387-0.03625 0.0209-2.8032 0.31529-2.9384 0.31258-0.1265-3e-3 -0.19623-0.72987-0.08516-0.88806 0.05072-0.0722 2.8068-1.0269 2.8959-1.003 0.01439 4e-3 0.05386 0.2018 0.08767 0.43985zm-26.568-6.0032c0.65944 0.38537 1.2125 0.72416 1.2291 0.75284 0.01655 0.0287-0.05123 0.14251-0.1506 0.25294-0.09937 0.11044-0.33097 0.42764-0.51461 0.70491-0.25694 0.38795-0.3617 0.48671-0.45454 0.42853-0.06639-0.0416-0.56885-0.3166-1.1167-0.61113-0.54779-0.29455-1.1218-0.60808-1.2757-0.69673l-0.27967-0.16118 0.33756-0.50453c0.46942-0.70163 0.72298-0.96191 0.88674-0.91027 0.07653 0.0246 0.67891 0.35926 1.3384 0.74464zm8.5452 2.4698c0.66093 0.3869 1.2135 0.72396 1.228 0.74903 0.02793 0.0484-0.19559 1.5196-0.23426 1.5419-0.01249 7e-3 -0.32988-0.16407-0.70527-0.38066-0.3754-0.21658-0.97928-0.55842-1.342-0.75964-0.65587-0.36388-0.65926-0.36748-0.62884-0.66796 0.03394-0.33571 0.35821-1.2395 0.43296-1.2069 0.0263 0.0112 0.58844 0.33733 1.2494 0.72423zm13.789 3.785c0.10522 0.0998 0.21604 0.29555 0.24624 0.435 0.06555 0.30258 0.06041 2.9226-0.0062 3.1713-0.12363 0.4614-0.70946 0.7767-1.1984 0.64499-0.31617-0.0851-0.64401-0.45226-0.68204-0.76371-0.05166-0.42315-0.0367-2.8674 0.01883-3.0746 0.18303-0.68309 1.0926-0.91473 1.6216-0.41299zm4.2981 2.016c0.02203 1.0432 0.08901 0.96674-0.83473 0.95247-0.44765-7e-3 -1.1388-0.01-1.5358-7e-3l-0.72185 6e-3 -0.01016-0.48103c-0.0056-0.26458 0.01296-0.51605 0.04123-0.55886 0.04045-0.0613 2.2118-0.35265 2.9028-0.38944 0.11671-6e-3 0.15042 0.0954 0.15849 0.47772zm-8.097-2.1717 1.1962 0.41681 0.02251 0.38145c0.01242 0.20981-0.0091 0.42494-0.04767 0.47811-0.03857 0.0531-0.25442 0.0718-0.47958 0.0415-0.22516-0.0303-0.88808-0.10601-1.4732-0.16821-0.58508-0.0622-1.0716-0.12662-1.0811-0.14315-0.03217-0.0557 0.04548-1.2202 0.09379-1.4062 0.05482-0.21229-0.06458-0.23925 1.769 0.39968zm-19.989-4.1178c0.72673 0.39737 1.3331 0.74289 1.3475 0.76783 0.01433 0.025-0.0986 0.41859-0.25117 0.87479l-0.27733 0.82946-0.32257-0.13477c-0.1774-0.0742-0.85341-0.32495-1.5022-0.55742l-1.1796-0.42265 0.13426-0.49846c0.14843-0.55132 0.55181-1.4971 0.66037-1.5484 0.03817-0.018 0.66406 0.29228 1.3908 0.68965zm8.4534 2.053c0.12363 0.0784 0.6864 0.40698 1.2506 0.7303 0.56419 0.32333 1.049 0.62567 1.0774 0.67185 0.05688 0.0926-0.3403 1.2275-0.47347 1.3529-0.05829 0.0549-0.1497 0.036-0.30281-0.0625-0.12064-0.0776-0.6946-0.39492-1.2755-0.70512-0.58089-0.31019-1.0669-0.59974-1.08-0.64343-0.03207-0.10674 0.4707-1.5326 0.53129-1.5068 0.0262 0.0112 0.14888 0.0844 0.27251 0.16278zm19.612 5.9274c0.05504 0.18327-9e-3 1.1752-0.08238 1.2763-0.05788 0.0796-0.28348 0.049-0.98809-0.13421-0.50225-0.13044-1.0275-0.25204-1.1674-0.26994s-0.38004-0.0482-0.53377-0.0674c-0.2993-0.0374-0.33405-0.1159-0.30578-0.68968l0.01281-0.25953 1.2928 7e-3c1.579 8e-3 1.7365 0.0204 1.7717 0.13785zm-6.8447-1.3634c-0.0035 0.25696-0.01436 0.4997-0.02412 0.5394-0.01656 0.0657-2.761 0.1036-2.9934 0.0413-0.05457-0.0146-0.09538-0.27593-0.0906-0.58065 0.0047-0.30474 0.0019-0.61864-0.0064-0.69759-0.01145-0.10909 0.05308-0.13626 0.269-0.11323 1.4079 0.15021 1.9702 0.2151 2.3773 0.2744l0.47465 0.0691zm-12.445-1.8401c0.67116 0.37391 1.2266 0.68902 1.2342 0.70026 0.02178 0.0319-0.62022 1.2011-0.67776 1.2343-0.02829 0.0163-0.52371-0.25121-1.101-0.59446-0.57733-0.34325-1.1655-0.68358-1.3071-0.7563-0.21592-0.11096-0.24222-0.15849-0.16316-0.29547 0.05181-0.0898 0.19308-0.36358 0.31386-0.60842 0.16179-0.32795 0.25398-0.43392 0.35015-0.40246 0.0718 0.0234 0.67968 0.34864 1.3508 0.72255zm12.432 3.5008c-0.0084 0.31839-0.04113 0.45988-0.10721 0.46386-0.26362 0.0158-1.7026 0.31907-2.194 0.46238-0.42044 0.1226-0.58668 0.13439-0.66716 0.0474-0.10143-0.10969-0.1752-1.015-0.10488-1.2869 0.0244-0.0944 0.39213-0.12589 1.4509-0.12426 0.77999 1e-3 1.4668-3e-3 1.5263-9e-3 0.06819-7e-3 0.10371 0.15782 0.09609 0.44679zm-23.115-6.1574c0.08633 0.0375 0.69718 0.26041 1.3574 0.49522 0.66023 0.23478 1.233 0.47088 1.2729 0.52458 0.03985 0.0537 0.05625 0.25415 0.03643 0.44545-0.01979 0.1913-0.01595 0.61768 0.0086 0.94754l0.04466 0.59973-0.78626-0.10151c-0.43244-0.0558-1.1476-0.10161-1.5893-0.10174-0.44166-1.5e-4 -0.81576-4e-3 -0.83134-8e-3 -0.10569-0.0283-0.09239-1.9874 0.01752-2.58 0.0643-0.34662 0.12049-0.37317 0.46934-0.22147zm8.543 3.7737c0.04074 0.028 0.59388 0.35569 1.2292 0.72827 0.63536 0.37259 1.1461 0.71148 1.1349 0.75311-0.02109 0.0787-1.0104 1.4876-1.0726 1.5275-0.01949 0.0125-0.34655-0.25924-0.72682-0.6039-0.59615-0.54033-1.0144-0.87694-1.5497-1.2471-0.11402-0.0788-0.08846-0.13982 0.27775-0.66258 0.37263-0.53194 0.51189-0.62947 0.70725-0.49532zm20.855 7.0704c0.15867 0.15668 0.40383 1.0782 0.30029 1.1287-0.05121 0.025-2.4385 0.0164-2.5337-9e-3 -0.10366-0.0278-0.14906-1.1853-0.04864-1.2403 0.04865-0.0266 0.35385-0.0821 0.67822-0.12315 0.72842-0.0922 1.3608 4e-3 1.6039 0.2439zm-26.417-6.8456c0.15955 0.51098 0.70116 1.3945 1.028 1.6769 0.44976 0.38865 1.1519 0.63148 1.5925 0.55073 0.30362-0.0556 0.98483-0.4774 1.3091-0.81052 0.09699-0.0996 0.16634-0.0696 0.6478 0.28055 0.78406 0.57023 1.7759 1.5014 1.7404 1.634-0.05668 0.21154-1.0562 1.0428-1.6775 1.3951-0.66532 0.37727-1.6289 0.63416-2.3161 0.61748-0.91683-0.0223-2.3514-0.5461-3.121-1.1398-1.0517-0.81114-2.1468-2.6979-2.4803-4.2732-0.04556-0.21517-0.07789-0.40961-0.07187-0.43208 0.02143-0.08 1.2086-0.0844 1.9691-7e-3 1.1449 0.11604 1.2721 0.16286 1.3799 0.50812zm22.968 7.0041c0.04614 0.0967 0.1055 0.43805 0.13188 0.75848 0.07207 0.87548 0.35622 2.1845 0.8546 3.9369 0.32213 1.1327 0.46237 1.8189 0.50022 2.4475 0.10189 1.6922-0.49504 3.4734-1.5702 4.6853-0.47627 0.53685-1.2617 1.0917-1.6727 1.1817-1.2785 0.2798-1.7658-1.2644-1.4912-4.726 0.07655-0.96518 0.15768-1.3933 0.52165-2.7528 0.46885-1.7511 0.56962-2.4516 0.60692-4.2195 0.02583-1.2225 0.04686-1.3447 0.24724-1.4368 0.1195-0.0549 1.5725-0.10824 1.7384-0.0638 0.02705 7e-3 0.087 0.0924 0.13316 0.18908zm3.9757 1.8061c0.02562 0.11765 0.13997 0.44904 0.25418 0.73643 0.11421 0.28738 0.19164 0.53178 0.17205 0.54308-0.04385 0.0253-2.6928 0.0239-2.7876-2e-3 -0.09611-0.0258-0.38286-1.3941-0.30193-1.4408 0.03662-0.0211 0.57312-0.0391 1.1923-0.04 0.61917-8.7e-4 1.193-4e-3 1.2751-6e-3 0.09565-3e-3 0.16604 0.0721 0.19586 0.20915zm-7.0842-1.4878c0.0076 0.34605-0.01338 0.63698-0.04669 0.64651-0.1119 0.032-2.4875 0.0103-2.5066-0.0229-0.01039-0.018 0.01636-0.26777 0.05956-0.55495 0.07533-0.50136 0.09066-0.52921 0.38463-0.69894 0.34813-0.20099 0.75424-0.22507 1.5455-0.0916l0.54984 0.0928zm8.1892 4.1471c0.15229 0.38496 0.24048 0.71829 0.19596 0.74073-0.04453 0.0224-0.25754 0.0375-0.4734 0.0334-0.21587-4e-3 -0.89487-7e-3 -1.5089-7e-3l-1.1164 8.3e-4 -0.20914-0.71693c-0.11502-0.39431-0.1723-0.73483-0.12729-0.7567 0.08367-0.0406 2.7455-0.0559 2.8852-0.0165 0.04244 0.012 0.20176 0.33673 0.35405 0.72171zm-8.2262-2.1249c-0.01881 0.38392-0.06116 0.71356-0.0941 0.73255-0.08169 0.0472-2.5273 0.0478-2.706 6.6e-4 -0.12268-0.0323-0.1214-0.12643 0.0088-0.65441 0.08363-0.33916 0.16074-0.66363 0.17126-0.72108 0.01696-0.0942 2.1563-0.16643 2.5214-0.0853 0.10012 0.0227 0.12441 0.20077 0.09857 0.72754zm8.7247 3.9753c0.13309 0.88429 0.14311 1.3809 0.02805 1.3902-0.23163 0.0188-3.0496-0.071-3.0637-0.0976-0.02669-0.0503-0.18056-1.7326-0.15957-1.7447 0.02792-0.0161 3.0208-0.0109 3.0814 5e-3 0.02666 7e-3 0.07783 0.20822 0.11375 0.44684zm-8.9305-2.3491c-0.02326 0.10225-0.047 0.26351-0.05189 0.35862-0.0049 0.0951-0.07602 0.3378-0.15807 0.5393l-0.14921 0.36636-1.5344 8.9e-4c-0.8439 4.9e-4 -1.5446-0.0168-1.5571-0.0385-0.02454-0.0425 0.49277-1.4315 0.5438-1.46 0.04738-0.0265 2.7553-4e-3 2.8588 0.0233 0.05003 0.0134 0.07171 0.10793 0.04798 0.21007zm9.0265 4.6976c-0.0092 0.15422-0.08954 0.64093-0.17857 1.0816l-0.16188 0.80117-0.49494-0.081c-1.491-0.24383-2.6384-0.45556-2.6552-0.48992-0.01041-0.0214 0.0563-0.41914 0.14838-0.88372l0.16733-0.84471 1.4912 0.0401c0.82016 0.022 1.5383 0.0527 1.5958 0.0681 0.05747 0.0154 0.09705 0.15419 0.08785 0.30841zm-9.6267-2.4828c-0.04041 0.15083-0.10962 0.50144-0.15369 0.77914l-0.08031 0.50489-1.5068-0.0398c-1.0858-0.0287-1.516-0.0705-1.5397-0.14951-0.04377-0.14575 0.16234-1.3466 0.2387-1.3907 0.08022-0.0463 2.7888-0.0588 2.9715-0.0137 0.10893 0.0271 0.12606 0.102 0.0704 0.30975zm-0.31141 2.5692c-0.01772 0.36828-0.04733 0.6783-0.06576 0.68894-0.0184 0.0107-0.61169 0.0227-1.3184 0.0268-0.70665 4e-3 -1.3853 0.0177-1.5082 0.0302-0.17896 0.0182-0.22449-7e-3 -0.22918-0.12829-0.0083-0.21255 0.05914-1.3562 0.0804-1.3651 0.0093-4e-3 0.62417 0.0105 1.3656 0.0322 0.74142 0.0217 1.429 0.0409 1.5279 0.0426 0.1616 3e-3 0.17656 0.0709 0.1476 0.67262zm9.2732 2.7157c-0.52562 1.1449-1.2055 2.2847-1.3412 2.2483-0.0425-0.0114-0.40031-0.20396-0.79522-0.42798s-1.018-0.5344-1.3846-0.68975l-0.66656-0.28243 0.17886-0.23162c0.09832-0.1274 0.33161-0.49967 0.51832-0.82729 0.18666-0.32762 0.35897-0.60693 0.38282-0.6207 0.06993-0.0404 2.2435 0.31722 2.7555 0.45329l0.46846 0.12449zm-9.2944-1.2195c0.0045 0.0856 0.03256 0.4158 0.06226 0.73383 0.0297 0.31802 0.04412 0.58053 0.03204 0.58334-0.01208 3e-3 -0.32572 0.0346-0.69696 0.0708-0.37124 0.0361-1.0214 0.1456-1.4449 0.24331-0.42346 0.0977-0.8027 0.16889-0.84277 0.15816-0.10434-0.028-0.24092-1.8331-0.14297-1.8896 0.06332-0.0366 2.8752-0.0956 2.997-0.0629 0.01536 4e-3 0.03171 0.0776 0.03622 0.16311zm5.7437 3.0136c0.69074 0.30522 1.7209 0.8812 1.79 1.0008 0.05798 0.10043-0.63582 0.78949-1.3956 1.386-0.8834 0.69354-1.9267 1.1884-2.8787 1.3654-0.98053 0.18229-1.5329 0.15878-2.5133-0.107-1.2979-0.3519-2.0926-0.97414-2.7916-2.1857-0.47676-0.82647-0.79829-1.8432-0.63162-1.9973 0.13486-0.12466 1.4479-0.40478 2.2832-0.48707l0.59303-0.0584 0.2473 0.58738c0.359 0.8527 0.55407 1.0346 1.2678 1.1823 0.90316 0.18692 1.5982-0.0223 2.4789-0.74597 0.5089-0.4182 0.46535-0.41987 1.5506 0.0597z" filter="url(#a)" stroke-width=".94289"/>
<path d="m84.807 99.636c1.7384 0.81587 2.8154 2.4749 2.8905 4.4524 0.0084 0.21918-0.01011 0.4943-0.04097 0.6114l-0.0561 0.2129-1.0984-0.2352c-0.6041-0.12936-1.2748-0.25926-1.4903-0.28861-0.38752-0.0528-0.39215-0.0569-0.40957-0.3621-0.02673-0.4686-0.36454-1.0944-0.7358-1.3632-0.50508-0.36564-1.2182-0.47301-1.7773-0.26757-0.24332 0.0894-0.47956 0.12609-0.52496 0.0815-0.39902-0.39205-1.9331-2.1707-1.9187-2.2246 0.0102-0.0381 0.30713-0.23105 0.65986-0.4289 1.3471-0.75562 3.1333-0.83021 4.5017-0.188zm-4.6292 2.2305c0.53581 0.6082 0.98194 1.1163 0.99138 1.129 0.04789 0.0647-0.41552 0.81009-0.4912 0.79004-0.07811-0.0207-2.401-1.6863-2.4578-1.7624-0.06018-0.0806 0.8359-1.302 0.93565-1.2753 0.02627 7e-3 0.48619 0.51043 1.022 1.1186zm3.2523 1.9331c0.29614 0.45662 0.22242 0.73509-0.54948 2.0739-0.37085 0.64355-0.76535 1.2718-0.87669 1.3961-0.5091 0.56843-1.4642 0.29096-1.6438-0.47752-0.0733-0.31361 0.0094-0.50864 0.79627-1.879 0.63943-1.1135 0.77832-1.3052 1.0453-1.4426 0.23939-0.12325 0.38926-0.13674 0.67336-0.0606 0.28365 0.076 0.40778 0.1632 0.55465 0.38966zm-4.2174-0.29571c0.62352 0.46173 1.1445 0.85249 1.1577 0.86836 0.03376 0.0405-0.35525 0.74617-0.47191 0.85605-0.07739 0.0729-0.30343-0.0275-1.1522-0.51132-1.6256-0.92657-1.5733-0.88595-1.4459-1.1227 0.34223-0.63614 0.59384-0.99229 0.68036-0.96305 0.05393 0.0186 0.60838 0.41096 1.2319 0.87268zm8.1654 2.4357c-0.31963 0.77706-0.48203 1.0023-0.68198 0.9458-0.33224-0.0942-2.5651-1.0813-2.6063-1.1526-0.02234-0.0387 0.05126-0.23997 0.1637-0.44713l0.20445-0.37664 0.80633 0.15797c0.4435 0.0868 1.14 0.22274 1.5478 0.30194l0.74147 0.14402zm-9.1668-0.82467c0.71073 0.40613 1.3003 0.75188 1.3101 0.76834 0.0098 0.0165-0.06963 0.18685-0.17651 0.37864l-0.19438 0.34871-1.3895-0.42252c-0.92-0.27974-1.4165-0.46578-1.4693-0.55047-0.06548-0.10493-0.02758-0.22318 0.2098-0.65625 0.15933-0.29054 0.31842-0.54551 0.35359-0.56658 0.03516-0.0211 0.64544 0.29397 1.3562 0.70011zm6.9243 1.8003c0.7539 0.33501 1.3763 0.61377 1.3832 0.61947 0.01564 0.0135-0.65561 1.1795-0.69567 1.2087-0.01623 0.0119-0.62586-0.32315-1.3546-0.74448l-1.3251-0.76604 0.24305-0.42989c0.13365-0.23646 0.2735-0.44497 0.31071-0.46338 0.03723-0.0184 0.68449 0.24065 1.4384 0.57561zm-0.93143 1.634c0.66154 0.3862 1.2165 0.72596 1.2333 0.75502 0.07833 0.13567-0.59586 1.1701-0.77486 1.1889-0.06328 7e-3 -0.40707-0.27927-0.76399-0.63539-0.35692-0.3561-0.82984-0.78203-1.0509-0.9465-0.22108-0.16449-0.41258-0.31286-0.42554-0.32973-0.05619-0.0731 0.40512-0.80079 0.48772-0.76931 0.05048 0.0187 0.63274 0.35085 1.2943 0.73704zm-8.524 0.68818c0.54898 0.3074 1.2435 0.84661 1.2171 0.94496-0.01294 0.0483-0.16348 0.29794-0.33454 0.55483-0.23709 0.35603-0.34035 0.44984-0.43444 0.39462-0.0679-0.0398-0.55109-0.31641-1.0738-0.61461-0.52272-0.29819-0.97364-0.57736-1.0021-0.62037-0.05523-0.0836 0.52111-0.77197 0.68857-0.82227 0.26974-0.081 0.60857-0.0223 0.93914 0.16281zm3.0988 2.0541c0.62765 0.36723 0.74948 0.5059 0.68019 0.7742-0.01976 0.0764-0.30065 0.62057-0.62429 1.2094-0.80561 1.4656-1.0328 2.0358-1.4877 3.7336-0.43579 1.6264-0.85206 2.6688-1.5955 3.9953-0.85679 1.5288-1.4256 2.1504-2.1191 2.3159-0.52263 0.12477-0.85756-0.0863-1.2639-0.79651-0.59908-1.0472-0.74292-2.3758-0.42241-3.9017 0.34097-1.6233 0.88924-2.4767 2.7672-4.3071 1.4268-1.3906 1.8612-1.8706 2.4757-2.7352 0.2566-0.36104 0.52217-0.67385 0.59016-0.69515 0.17564-0.055 0.28753-9e-3 0.9997 0.40724zm2.6188 1.2315c0.71936 0.34393 0.90347 0.48866 1.0474 0.82328 0.10592 0.2463 0.09799 0.3368-0.06615 0.75525-0.10257 0.26148-0.19607 0.48099-0.20793 0.48777-0.0752 0.0434-2.1249-1.212-2.1349-1.3076-0.0069-0.0652 0.11631-0.3402 0.27361-0.61111 0.31978-0.55064 0.26145-0.54272 1.088-0.14756zm13.562 3.6907c0.6296 0.23237 1.2674 0.64348 1.7439 1.1242 0.33038 0.3333 1.0971 1.5216 1.0632 1.6479-0.01038 0.0387-0.65516 0.27926-1.4328 0.53445-1.3917 0.45666-1.4167 0.46101-1.586 0.27598-0.67438-0.73696-1.1989-0.95044-1.9569-0.7964-0.49934 0.10149-0.95089 0.39065-1.2139 0.7774l-0.1575 0.23157-0.64991-0.22694c-0.35743-0.12487-1.0022-0.34743-1.4328-0.49463l-0.7829-0.26765 0.05931-0.22134c0.17027-0.63546 1.0661-1.6438 1.9352-2.1784 1.3934-0.85701 2.8305-0.98933 4.411-0.40615zm-20.225-5.1796c0.55929 0.32942 1.0198 0.64758 1.0234 0.70703 0.0049 0.0822-0.75625 0.96324-0.92214 1.0673-0.02726 0.0171-2.4134-1.3342-2.4608-1.3936-0.0445-0.0557 1.179-1.0358 1.2588-1.0084 0.04626 0.0155 0.54151 0.2983 1.1008 0.6277zm6.143 3.542c0.51477 0.2996 0.9527 0.57374 0.97316 0.60921 0.03821 0.066-0.34153 1.3743-0.4107 1.4153-0.03004 0.0178-1.2793-0.67344-2.3499-1.3003-0.14781-0.0865-0.13634-0.12339 0.31396-1.0094 0.22744-0.4475 0.20818-0.45123 1.4735 0.28516zm-7.7316-2.0073c0.62603 0.36243 1.1486 0.67413 1.1613 0.69268 0.0501 0.0731-1.0282 1.0735-1.129 1.0475-0.12043-0.0312-2.6123-1.4673-2.6455-1.5248-0.01167-0.0202 0.23456-0.2507 0.54713-0.51225 0.42738-0.3576 0.61291-0.46148 0.74807-0.41882 0.09874 0.0316 0.69194 0.35324 1.318 0.71566zm24.921 7.5118c0.06137 0.43213 0.08526 1.1125 0.03999 1.1387-0.03625 0.0209-2.8032 0.31529-2.9384 0.31258-0.1265-3e-3 -0.19623-0.72987-0.08516-0.88806 0.05072-0.0722 2.8068-1.0269 2.8959-1.003 0.01439 4e-3 0.05386 0.2018 0.08767 0.43985zm-26.568-6.0032c0.65944 0.38537 1.2125 0.72416 1.2291 0.75284 0.01655 0.0287-0.05123 0.14251-0.1506 0.25294-0.09937 0.11044-0.33097 0.42764-0.51461 0.70491-0.25694 0.38795-0.3617 0.48671-0.45454 0.42853-0.06639-0.0416-0.56885-0.3166-1.1167-0.61113-0.54779-0.29455-1.1218-0.60808-1.2757-0.69673l-0.27967-0.16118 0.33756-0.50453c0.46942-0.70163 0.72298-0.96191 0.88674-0.91027 0.07653 0.0246 0.67891 0.35926 1.3384 0.74464zm8.5452 2.4698c0.66093 0.3869 1.2135 0.72396 1.228 0.74903 0.02793 0.0484-0.19559 1.5196-0.23426 1.5419-0.01249 7e-3 -0.32988-0.16407-0.70527-0.38066-0.3754-0.21658-0.97928-0.55842-1.342-0.75964-0.65587-0.36388-0.65926-0.36748-0.62884-0.66796 0.03394-0.33571 0.35821-1.2395 0.43296-1.2069 0.0263 0.0112 0.58844 0.33733 1.2494 0.72423zm13.789 3.785c0.10522 0.0998 0.21604 0.29555 0.24624 0.435 0.06555 0.30258 0.06041 2.9226-0.0062 3.1713-0.12363 0.4614-0.70946 0.7767-1.1984 0.64499-0.31617-0.0851-0.64401-0.45226-0.68204-0.76371-0.05166-0.42315-0.0367-2.8674 0.01883-3.0746 0.18303-0.68309 1.0926-0.91473 1.6216-0.41299zm4.2981 2.016c0.02203 1.0432 0.08901 0.96674-0.83473 0.95247-0.44765-7e-3 -1.1388-0.01-1.5358-7e-3l-0.72185 6e-3 -0.01016-0.48103c-0.0056-0.26458 0.01296-0.51605 0.04123-0.55886 0.04045-0.0613 2.2118-0.35265 2.9028-0.38944 0.11671-6e-3 0.15042 0.0954 0.15849 0.47772zm-8.097-2.1717 1.1962 0.41681 0.02251 0.38145c0.01242 0.20981-0.0091 0.42494-0.04767 0.47811-0.03857 0.0531-0.25442 0.0718-0.47958 0.0415-0.22516-0.0303-0.88808-0.10601-1.4732-0.16821-0.58508-0.0622-1.0716-0.12662-1.0811-0.14315-0.03217-0.0557 0.04548-1.2202 0.09379-1.4062 0.05482-0.21229-0.06458-0.23925 1.769 0.39968zm-19.989-4.1178c0.72673 0.39737 1.3331 0.74289 1.3475 0.76783 0.01433 0.025-0.0986 0.41859-0.25117 0.87479l-0.27733 0.82946-0.32257-0.13477c-0.1774-0.0742-0.85341-0.32495-1.5022-0.55742l-1.1796-0.42265 0.13426-0.49846c0.14843-0.55132 0.55181-1.4971 0.66037-1.5484 0.03817-0.018 0.66406 0.29228 1.3908 0.68965zm8.4534 2.053c0.12363 0.0784 0.6864 0.40698 1.2506 0.7303 0.56419 0.32333 1.049 0.62567 1.0774 0.67185 0.05688 0.0926-0.3403 1.2275-0.47347 1.3529-0.05829 0.0549-0.1497 0.036-0.30281-0.0625-0.12064-0.0776-0.6946-0.39492-1.2755-0.70512-0.58089-0.31019-1.0669-0.59974-1.08-0.64343-0.03207-0.10674 0.4707-1.5326 0.53129-1.5068 0.0262 0.0112 0.14888 0.0844 0.27251 0.16278zm19.612 5.9274c0.05504 0.18327-9e-3 1.1752-0.08238 1.2763-0.05788 0.0796-0.28348 0.049-0.98809-0.13421-0.50225-0.13044-1.0275-0.25204-1.1674-0.26994s-0.38004-0.0482-0.53377-0.0674c-0.2993-0.0374-0.33405-0.1159-0.30578-0.68968l0.01281-0.25953 1.2928 7e-3c1.579 8e-3 1.7365 0.0204 1.7717 0.13785zm-6.8447-1.3634c-0.0035 0.25696-0.01436 0.4997-0.02412 0.5394-0.01656 0.0657-2.761 0.1036-2.9934 0.0413-0.05457-0.0146-0.09538-0.27593-0.0906-0.58065 0.0047-0.30474 0.0019-0.61864-0.0064-0.69759-0.01145-0.10909 0.05308-0.13626 0.269-0.11323 1.4079 0.15021 1.9702 0.2151 2.3773 0.2744l0.47465 0.0691zm-12.445-1.8401c0.67116 0.37391 1.2266 0.68902 1.2342 0.70026 0.02178 0.0319-0.62022 1.2011-0.67776 1.2343-0.02829 0.0163-0.52371-0.25121-1.101-0.59446-0.57733-0.34325-1.1655-0.68358-1.3071-0.7563-0.21592-0.11096-0.24222-0.15849-0.16316-0.29547 0.05181-0.0898 0.19308-0.36358 0.31386-0.60842 0.16179-0.32795 0.25398-0.43392 0.35015-0.40246 0.0718 0.0234 0.67968 0.34864 1.3508 0.72255zm12.432 3.5008c-0.0084 0.31839-0.04113 0.45988-0.10721 0.46386-0.26362 0.0158-1.7026 0.31907-2.194 0.46238-0.42044 0.1226-0.58668 0.13439-0.66716 0.0474-0.10143-0.10969-0.1752-1.015-0.10488-1.2869 0.0244-0.0944 0.39213-0.12589 1.4509-0.12426 0.77999 1e-3 1.4668-3e-3 1.5263-9e-3 0.06819-7e-3 0.10371 0.15782 0.09609 0.44679zm-23.115-6.1574c0.08633 0.0375 0.69718 0.26041 1.3574 0.49522 0.66023 0.23478 1.233 0.47088 1.2729 0.52458 0.03985 0.0537 0.05625 0.25415 0.03643 0.44545-0.01979 0.1913-0.01595 0.61768 0.0086 0.94754l0.04466 0.59973-0.78626-0.10151c-0.43244-0.0558-1.1476-0.10161-1.5893-0.10174-0.44166-1.5e-4 -0.81576-4e-3 -0.83134-8e-3 -0.10569-0.0283-0.09239-1.9874 0.01752-2.58 0.0643-0.34662 0.12049-0.37317 0.46934-0.22147zm8.543 3.7737c0.04074 0.028 0.59388 0.35569 1.2292 0.72827 0.63536 0.37259 1.1461 0.71148 1.1349 0.75311-0.02109 0.0787-1.0104 1.4876-1.0726 1.5275-0.01949 0.0125-0.34655-0.25924-0.72682-0.6039-0.59615-0.54033-1.0144-0.87694-1.5497-1.2471-0.11402-0.0788-0.08846-0.13982 0.27775-0.66258 0.37263-0.53194 0.51189-0.62947 0.70725-0.49532zm20.855 7.0704c0.15867 0.15668 0.40383 1.0782 0.30029 1.1287-0.05121 0.025-2.4385 0.0164-2.5337-9e-3 -0.10366-0.0278-0.14906-1.1853-0.04864-1.2403 0.04865-0.0266 0.35385-0.0821 0.67822-0.12315 0.72842-0.0922 1.3608 4e-3 1.6039 0.2439zm-26.417-6.8456c0.15955 0.51098 0.70116 1.3945 1.028 1.6769 0.44976 0.38865 1.1519 0.63148 1.5925 0.55073 0.30362-0.0556 0.98483-0.4774 1.3091-0.81052 0.09699-0.0996 0.16634-0.0696 0.6478 0.28055 0.78406 0.57023 1.7759 1.5014 1.7404 1.634-0.05668 0.21154-1.0562 1.0428-1.6775 1.3951-0.66532 0.37727-1.6289 0.63416-2.3161 0.61748-0.91683-0.0223-2.3514-0.5461-3.121-1.1398-1.0517-0.81114-2.1468-2.6979-2.4803-4.2732-0.04556-0.21517-0.07789-0.40961-0.07187-0.43208 0.02143-0.08 1.2086-0.0844 1.9691-7e-3 1.1449 0.11604 1.2721 0.16286 1.3799 0.50812zm22.968 7.0041c0.04614 0.0967 0.1055 0.43805 0.13188 0.75848 0.07207 0.87548 0.35622 2.1845 0.8546 3.9369 0.32213 1.1327 0.46237 1.8189 0.50022 2.4475 0.10189 1.6922-0.49504 3.4734-1.5702 4.6853-0.47627 0.53685-1.2617 1.0917-1.6727 1.1817-1.2785 0.2798-1.7658-1.2644-1.4912-4.726 0.07655-0.96518 0.15768-1.3933 0.52165-2.7528 0.46885-1.7511 0.56962-2.4516 0.60692-4.2195 0.02583-1.2225 0.04686-1.3447 0.24724-1.4368 0.1195-0.0549 1.5725-0.10824 1.7384-0.0638 0.02705 7e-3 0.087 0.0924 0.13316 0.18908zm3.9757 1.8061c0.02562 0.11765 0.13997 0.44904 0.25418 0.73643 0.11421 0.28738 0.19164 0.53178 0.17205 0.54308-0.04385 0.0253-2.6928 0.0239-2.7876-2e-3 -0.09611-0.0258-0.38286-1.3941-0.30193-1.4408 0.03662-0.0211 0.57312-0.0391 1.1923-0.04 0.61917-8.7e-4 1.193-4e-3 1.2751-6e-3 0.09565-3e-3 0.16604 0.0721 0.19586 0.20915zm-7.0842-1.4878c0.0076 0.34605-0.01338 0.63698-0.04669 0.64651-0.1119 0.032-2.4875 0.0103-2.5066-0.0229-0.01039-0.018 0.01636-0.26777 0.05956-0.55495 0.07533-0.50136 0.09066-0.52921 0.38463-0.69894 0.34813-0.20099 0.75424-0.22507 1.5455-0.0916l0.54984 0.0928zm8.1892 4.1471c0.15229 0.38496 0.24048 0.71829 0.19596 0.74073-0.04453 0.0224-0.25754 0.0375-0.4734 0.0334-0.21587-4e-3 -0.89487-7e-3 -1.5089-7e-3l-1.1164 8.3e-4 -0.20914-0.71693c-0.11502-0.39431-0.1723-0.73483-0.12729-0.7567 0.08367-0.0406 2.7455-0.0559 2.8852-0.0165 0.04244 0.012 0.20176 0.33673 0.35405 0.72171zm-8.2262-2.1249c-0.01881 0.38392-0.06116 0.71356-0.0941 0.73255-0.08169 0.0472-2.5273 0.0478-2.706 6.6e-4 -0.12268-0.0323-0.1214-0.12643 0.0088-0.65441 0.08363-0.33916 0.16074-0.66363 0.17126-0.72108 0.01696-0.0942 2.1563-0.16643 2.5214-0.0853 0.10012 0.0227 0.12441 0.20077 0.09857 0.72754zm8.7247 3.9753c0.13309 0.88429 0.14311 1.3809 0.02805 1.3902-0.23163 0.0188-3.0496-0.071-3.0637-0.0976-0.02669-0.0503-0.18056-1.7326-0.15957-1.7447 0.02792-0.0161 3.0208-0.0109 3.0814 5e-3 0.02666 7e-3 0.07783 0.20822 0.11375 0.44684zm-8.9305-2.3491c-0.02326 0.10225-0.047 0.26351-0.05189 0.35862-0.0049 0.0951-0.07602 0.3378-0.15807 0.5393l-0.14921 0.36636-1.5344 8.9e-4c-0.8439 4.9e-4 -1.5446-0.0168-1.5571-0.0385-0.02454-0.0425 0.49277-1.4315 0.5438-1.46 0.04738-0.0265 2.7553-4e-3 2.8588 0.0233 0.05003 0.0134 0.07171 0.10793 0.04798 0.21007zm9.0265 4.6976c-0.0092 0.15422-0.08954 0.64093-0.17857 1.0816l-0.16188 0.80117-0.49494-0.081c-1.491-0.24383-2.6384-0.45556-2.6552-0.48992-0.01041-0.0214 0.0563-0.41914 0.14838-0.88372l0.16733-0.84471 1.4912 0.0401c0.82016 0.022 1.5383 0.0527 1.5958 0.0681 0.05747 0.0154 0.09705 0.15419 0.08785 0.30841zm-9.6267-2.4828c-0.04041 0.15083-0.10962 0.50144-0.15369 0.77914l-0.08031 0.50489-1.5068-0.0398c-1.0858-0.0287-1.516-0.0705-1.5397-0.14951-0.04377-0.14575 0.16234-1.3466 0.2387-1.3907 0.08022-0.0463 2.7888-0.0588 2.9715-0.0137 0.10893 0.0271 0.12606 0.102 0.0704 0.30975zm-0.31141 2.5692c-0.01772 0.36828-0.04733 0.6783-0.06576 0.68894-0.0184 0.0107-0.61169 0.0227-1.3184 0.0268-0.70665 4e-3 -1.3853 0.0177-1.5082 0.0302-0.17896 0.0182-0.22449-7e-3 -0.22918-0.12829-0.0083-0.21255 0.05914-1.3562 0.0804-1.3651 0.0093-4e-3 0.62417 0.0105 1.3656 0.0322 0.74142 0.0217 1.429 0.0409 1.5279 0.0426 0.1616 3e-3 0.17656 0.0709 0.1476 0.67262zm9.2732 2.7157c-0.52562 1.1449-1.2055 2.2847-1.3412 2.2483-0.0425-0.0114-0.40031-0.20396-0.79522-0.42798s-1.018-0.5344-1.3846-0.68975l-0.66656-0.28243 0.17886-0.23162c0.09832-0.1274 0.33161-0.49967 0.51832-0.82729 0.18666-0.32762 0.35897-0.60693 0.38282-0.6207 0.06993-0.0404 2.2435 0.31722 2.7555 0.45329l0.46846 0.12449zm-9.2944-1.2195c0.0045 0.0856 0.03256 0.4158 0.06226 0.73383 0.0297 0.31802 0.04412 0.58053 0.03204 0.58334-0.01208 3e-3 -0.32572 0.0346-0.69696 0.0708-0.37124 0.0361-1.0214 0.1456-1.4449 0.24331-0.42346 0.0977-0.8027 0.16889-0.84277 0.15816-0.10434-0.028-0.24092-1.8331-0.14297-1.8896 0.06332-0.0366 2.8752-0.0956 2.997-0.0629 0.01536 4e-3 0.03171 0.0776 0.03622 0.16311zm5.7437 3.0136c0.69074 0.30522 1.7209 0.8812 1.79 1.0008 0.05798 0.10043-0.63582 0.78949-1.3956 1.386-0.8834 0.69354-1.9267 1.1884-2.8787 1.3654-0.98053 0.18229-1.5329 0.15878-2.5133-0.107-1.2979-0.3519-2.0926-0.97414-2.7916-2.1857-0.47676-0.82647-0.79829-1.8432-0.63162-1.9973 0.13486-0.12466 1.4479-0.40478 2.2832-0.48707l0.59303-0.0584 0.2473 0.58738c0.359 0.8527 0.55407 1.0346 1.2678 1.1823 0.90316 0.18692 1.5982-0.0223 2.4789-0.74597 0.5089-0.4182 0.46535-0.41987 1.5506 0.0597z" fill="#fff"/>
</g>
</svg>
