<?xml version="1.0" encoding="UTF-8" standalone="no"?>
<!-- Created with Inkscape (http://www.inkscape.org/) -->

<svg
   xmlns:dc="http://purl.org/dc/elements/1.1/"
   xmlns:cc="http://creativecommons.org/ns#"
   xmlns:rdf="http://www.w3.org/1999/02/22-rdf-syntax-ns#"
   xmlns:svg="http://www.w3.org/2000/svg"
   xmlns="http://www.w3.org/2000/svg"
   xmlns:sodipodi="http://sodipodi.sourceforge.net/DTD/sodipodi-0.dtd"
   xmlns:inkscape="http://www.inkscape.org/namespaces/inkscape"
   width="38.166008mm"
   height="54.027088mm"
   viewBox="0 0 38.166008 54.027088"
   version="1.1"
   id="svg4166"
   inkscape:version="0.92.4 (5da689c313, 2019-01-14)"
   sodipodi:docname="footstepsB.svg">
  <defs
     id="defs4160">
    <filter
       inkscape:collect="always"
       style="color-interpolation-filters:sRGB"
       id="filter856"
       x="-0.059118491"
       width="1.118237"
       y="-0.040401615"
       height="1.0808032">
      <feGaussianBlur
         inkscape:collect="always"
         stdDeviation="0.79307507"
         id="feGaussianBlur858" />
    </filter>
  </defs>
  <sodipodi:namedview
     id="base"
     pagecolor="#ffffff"
     bordercolor="#666666"
     borderopacity="1.0"
     inkscape:pageopacity="0.0"
     inkscape:pageshadow="2"
     inkscape:zoom="2.56"
     inkscape:cx="44.034571"
     inkscape:cy="76.321298"
     inkscape:document-units="mm"
     inkscape:current-layer="layer1"
     showgrid="false"
     fit-margin-top="0"
     fit-margin-left="0"
     fit-margin-right="0"
     fit-margin-bottom="0"
     inkscape:window-width="1920"
     inkscape:window-height="1017"
     inkscape:window-x="1072"
     inkscape:window-y="394"
     inkscape:window-maximized="1"
     inkscape:pagecheckerboard="true" />
  <metadata
     id="metadata4163">
    <rdf:RDF>
      <cc:Work
         rdf:about="">
        <dc:format>image/svg+xml</dc:format>
        <dc:type
           rdf:resource="http://purl.org/dc/dcmitype/StillImage" />
        <dc:title></dc:title>
      </cc:Work>
    </rdf:RDF>
  </metadata>
  <g
     inkscape:label="Layer 1"
     inkscape:groupmode="layer"
     id="layer1"
     transform="translate(-64.592318,-95.743712)">
    <path
       inkscape:connector-curvature="0"
       id="path842"
       d="m 84.80708,99.636281 c 1.73836,0.815869 2.815449,2.474949 2.89053,4.452429 0.0084,0.21918 -0.01011,0.4943 -0.04097,0.6114 l -0.0561,0.2129 -1.098393,-0.2352 c -0.604103,-0.12936 -1.274753,-0.25926 -1.490343,-0.28861 -0.38752,-0.0528 -0.392146,-0.0569 -0.409567,-0.3621 -0.02673,-0.4686 -0.364536,-1.09445 -0.735795,-1.36322 -0.505084,-0.36564 -1.218246,-0.47301 -1.777267,-0.26757 -0.243325,0.0894 -0.479564,0.12609 -0.524965,0.0815 -0.399016,-0.39205 -1.933112,-2.17073 -1.918683,-2.22458 0.0102,-0.0381 0.307133,-0.23105 0.659861,-0.428905 1.347111,-0.755619 3.133331,-0.830213 4.501678,-0.187995 z m -4.629244,2.230469 c 0.535813,0.6082 0.981936,1.11627 0.991381,1.12904 0.04789,0.0647 -0.415525,0.81009 -0.491195,0.79004 -0.07811,-0.0207 -2.400972,-1.68634 -2.457826,-1.76243 -0.06018,-0.0806 0.8359,-1.30202 0.935651,-1.27529 0.02627,0.007 0.486188,0.51043 1.021989,1.11864 z m 3.252311,1.93311 c 0.29614,0.45662 0.222415,0.73509 -0.549485,2.07389 -0.370848,0.64355 -0.765352,1.27179 -0.876689,1.3961 -0.509096,0.56843 -1.464207,0.29096 -1.64382,-0.47752 -0.0733,-0.31361 0.0094,-0.50864 0.796272,-1.87896 0.639426,-1.11347 0.778325,-1.30517 1.045342,-1.44264 0.239387,-0.12325 0.389265,-0.13674 0.673363,-0.0606 0.283654,0.076 0.407775,0.1632 0.554648,0.38966 z m -4.21744,-0.29571 c 0.623523,0.46173 1.144508,0.85249 1.157742,0.86836 0.03376,0.0405 -0.355248,0.74617 -0.471912,0.85605 -0.07739,0.0729 -0.303429,-0.0275 -1.152212,-0.51132 -1.625575,-0.92657 -1.573257,-0.88595 -1.445886,-1.12272 0.342226,-0.63614 0.593839,-0.99229 0.68036,-0.96305 0.05393,0.0186 0.608384,0.41096 1.231908,0.87268 z m 8.165354,2.43566 c -0.319629,0.77706 -0.482032,1.00227 -0.681978,0.9458 -0.33224,-0.0942 -2.56509,-1.08131 -2.606265,-1.15263 -0.02234,-0.0387 0.05126,-0.23997 0.163703,-0.44713 l 0.20445,-0.37664 0.806328,0.15797 c 0.443495,0.0868 1.139994,0.22274 1.547812,0.30194 l 0.741471,0.14402 z m -9.166759,-0.82467 c 0.710734,0.40613 1.300274,0.75188 1.310088,0.76834 0.0098,0.0165 -0.06963,0.18685 -0.176513,0.37864 l -0.194377,0.34871 -1.389479,-0.42252 c -0.919995,-0.27974 -1.416462,-0.46578 -1.469322,-0.55047 -0.06548,-0.10493 -0.02758,-0.22318 0.209796,-0.65625 0.159327,-0.29054 0.31842,-0.54551 0.35359,-0.56658 0.03516,-0.0211 0.645438,0.29397 1.356181,0.70011 z m 6.924322,1.80028 c 0.753901,0.33501 1.376343,0.61377 1.383201,0.61947 0.01564,0.0135 -0.655606,1.17954 -0.695672,1.20871 -0.01623,0.0119 -0.625857,-0.32315 -1.354632,-0.74448 l -1.325054,-0.76604 0.243046,-0.42989 c 0.133654,-0.23646 0.273495,-0.44497 0.31071,-0.46338 0.03723,-0.0184 0.684486,0.24065 1.438401,0.57561 z m -0.931432,1.63402 c 0.661536,0.3862 1.21653,0.72596 1.23331,0.75502 0.07833,0.13567 -0.595862,1.17008 -0.774865,1.18887 -0.06328,0.007 -0.40707,-0.27927 -0.763993,-0.63539 -0.356925,-0.3561 -0.82984,-0.78203 -1.050914,-0.9465 -0.221082,-0.16449 -0.412576,-0.31286 -0.425542,-0.32973 -0.05619,-0.0731 0.405115,-0.80079 0.487722,-0.76931 0.05048,0.0187 0.632743,0.35085 1.294282,0.73704 z m -8.524023,0.68818 c 0.548984,0.3074 1.243493,0.84661 1.21714,0.94496 -0.01294,0.0483 -0.163483,0.29794 -0.33454,0.55483 -0.237086,0.35603 -0.340354,0.44984 -0.43444,0.39462 -0.0679,-0.0398 -0.551094,-0.31641 -1.073805,-0.61461 -0.522724,-0.29819 -0.973644,-0.57736 -1.002061,-0.62037 -0.05523,-0.0836 0.521108,-0.77197 0.688573,-0.82227 0.269737,-0.081 0.608567,-0.0223 0.93914,0.16281 z m 3.098834,2.05412 c 0.627651,0.36723 0.749482,0.5059 0.680191,0.7742 -0.01976,0.0764 -0.30065,0.62057 -0.624291,1.20937 -0.805609,1.46565 -1.032793,2.03579 -1.487724,3.73361 -0.435794,1.62641 -0.852058,2.66876 -1.595522,3.99529 -0.856793,1.52875 -1.425578,2.15035 -2.11911,2.31592 -0.522633,0.12477 -0.857564,-0.0863 -1.263853,-0.79651 -0.599079,-1.0472 -0.742916,-2.37579 -0.422408,-3.90171 0.340971,-1.62334 0.88924,-2.47671 2.767169,-4.30706 1.426765,-1.39062 1.86119,-1.87058 2.475688,-2.7352 0.256597,-0.36104 0.522168,-0.67385 0.590157,-0.69515 0.175644,-0.055 0.287531,-0.009 0.999703,0.40724 z m 2.618845,1.23152 c 0.719365,0.34393 0.903471,0.48866 1.047357,0.82328 0.105921,0.2463 0.09799,0.3368 -0.06615,0.75525 -0.102571,0.26148 -0.196071,0.48099 -0.207928,0.48777 -0.0752,0.0434 -2.124851,-1.21201 -2.134893,-1.30764 -0.0069,-0.0652 0.116313,-0.3402 0.27361,-0.61111 0.319781,-0.55064 0.261446,-0.54272 1.087953,-0.14756 z m 13.561533,3.69074 c 0.629602,0.23237 1.267403,0.64348 1.743931,1.12423 0.330375,0.3333 1.097085,1.52159 1.063247,1.64788 -0.01038,0.0387 -0.655161,0.27926 -1.432828,0.53445 -1.391672,0.45666 -1.416659,0.46101 -1.58597,0.27598 -0.674379,-0.73696 -1.198921,-0.95044 -1.956865,-0.7964 -0.499342,0.10149 -0.950889,0.39065 -1.213898,0.7774 l -0.157501,0.23157 -0.649908,-0.22694 c -0.357432,-0.12487 -1.002208,-0.34743 -1.432805,-0.49463 l -0.782903,-0.26765 0.05931,-0.22134 c 0.170272,-0.63546 1.066061,-1.64383 1.93515,-2.17836 1.393442,-0.85701 2.830547,-0.98933 4.411013,-0.40615 z m -20.224663,-5.17955 c 0.559287,0.32942 1.019803,0.64758 1.02338,0.70703 0.0049,0.0822 -0.756253,0.96324 -0.922139,1.0673 -0.02726,0.0171 -2.413405,-1.3342 -2.460834,-1.39361 -0.0445,-0.0557 1.178983,-1.0358 1.258806,-1.00842 0.04626,0.0155 0.541507,0.2983 1.100787,0.6277 z m 6.14302,3.54205 c 0.514768,0.2996 0.952696,0.57374 0.973164,0.60921 0.03821,0.066 -0.341528,1.37428 -0.410705,1.41532 -0.03004,0.0178 -1.279282,-0.67344 -2.349879,-1.30026 -0.147807,-0.0865 -0.136339,-0.12339 0.313957,-1.00943 0.227442,-0.4475 0.208182,-0.45123 1.473454,0.28516 z m -7.731624,-2.00729 c 0.626028,0.36243 1.148631,0.67413 1.161343,0.69268 0.0501,0.0731 -1.028222,1.07352 -1.129026,1.04751 -0.12043,-0.0312 -2.612296,-1.46729 -2.645487,-1.52478 -0.01167,-0.0202 0.234559,-0.2507 0.547132,-0.51225 0.427376,-0.3576 0.612914,-0.46148 0.74807,-0.41882 0.09874,0.0316 0.691941,0.35324 1.317968,0.71566 z m 24.921198,7.51178 c 0.06137,0.43213 0.08526,1.11251 0.03999,1.13866 -0.03625,0.0209 -2.803222,0.31529 -2.938356,0.31258 -0.126497,-0.003 -0.19623,-0.72987 -0.08516,-0.88806 0.05072,-0.0722 2.806829,-1.02688 2.895859,-1.00303 0.01439,0.004 0.05386,0.2018 0.08767,0.43985 z m -26.568281,-6.00318 c 0.659437,0.38537 1.212535,0.72416 1.229096,0.75284 0.01655,0.0287 -0.05123,0.14251 -0.150598,0.25294 -0.09937,0.11044 -0.330966,0.42764 -0.514609,0.70491 -0.256943,0.38795 -0.3617,0.48671 -0.454535,0.42853 -0.06639,-0.0416 -0.568852,-0.3166 -1.116656,-0.61113 -0.547791,-0.29455 -1.121844,-0.60808 -1.27567,-0.69673 l -0.279674,-0.16118 0.337555,-0.50453 c 0.469418,-0.70163 0.722975,-0.96191 0.886738,-0.91027 0.07653,0.0246 0.678911,0.35926 1.338358,0.74464 z m 8.545247,2.46984 c 0.660932,0.3869 1.213534,0.72396 1.227999,0.74903 0.02793,0.0484 -0.195587,1.51957 -0.234255,1.5419 -0.01249,0.007 -0.329876,-0.16407 -0.70527,-0.38066 -0.375397,-0.21658 -0.979278,-0.55842 -1.341967,-0.75964 -0.655869,-0.36388 -0.659263,-0.36748 -0.628835,-0.66796 0.03394,-0.33571 0.358208,-1.23949 0.43296,-1.2069 0.0263,0.0112 0.588442,0.33733 1.249368,0.72423 z m 13.788502,3.785 c 0.105216,0.0998 0.216036,0.29555 0.246243,0.435 0.06555,0.30258 0.06041,2.92263 -0.0062,3.1713 -0.123633,0.4614 -0.70946,0.7767 -1.1984,0.64499 -0.316174,-0.0851 -0.64401,-0.45226 -0.682038,-0.76371 -0.05166,-0.42315 -0.0367,-2.86737 0.01883,-3.07459 0.183034,-0.68309 1.092558,-0.91473 1.621585,-0.41299 z m 4.298103,2.01604 c 0.02203,1.04318 0.08901,0.96674 -0.83473,0.95247 -0.447653,-0.007 -1.13875,-0.01 -1.53577,-0.007 l -0.721853,0.006 -0.01016,-0.48103 c -0.0056,-0.26458 0.01296,-0.51605 0.04123,-0.55886 0.04045,-0.0613 2.21181,-0.35265 2.902795,-0.38944 0.116713,-0.006 0.150419,0.0954 0.158488,0.47772 z m -8.097032,-2.17166 1.196242,0.41681 0.02251,0.38145 c 0.01242,0.20981 -0.0091,0.42494 -0.04767,0.47811 -0.03857,0.0531 -0.254425,0.0718 -0.47958,0.0415 -0.225158,-0.0303 -0.888085,-0.10601 -1.473172,-0.16821 -0.585075,-0.0622 -1.071601,-0.12662 -1.081149,-0.14315 -0.03217,-0.0557 0.04548,-1.22016 0.09379,-1.40618 0.05482,-0.21229 -0.06458,-0.23925 1.769044,0.39968 z M 70.04445,116.05922 c 0.726726,0.39737 1.333099,0.74289 1.347496,0.76783 0.01433,0.025 -0.0986,0.41859 -0.251171,0.87479 l -0.277331,0.82946 -0.322568,-0.13477 c -0.177405,-0.0742 -0.853406,-0.32495 -1.502207,-0.55742 l -1.179634,-0.42265 0.134264,-0.49846 c 0.14843,-0.55132 0.551806,-1.49708 0.660369,-1.54844 0.03817,-0.018 0.664059,0.29228 1.390785,0.68965 z m 8.453383,2.053 c 0.123629,0.0784 0.686404,0.40698 1.250597,0.7303 0.56419,0.32333 1.04901,0.62567 1.077383,0.67185 0.05688,0.0926 -0.340304,1.22753 -0.473468,1.3529 -0.05829,0.0549 -0.149704,0.036 -0.302812,-0.0625 -0.120635,-0.0776 -0.694597,-0.39492 -1.275483,-0.70512 -0.580889,-0.31019 -1.06689,-0.59974 -1.080018,-0.64343 -0.03207,-0.10674 0.470696,-1.53257 0.531292,-1.50677 0.0262,0.0112 0.148877,0.0844 0.272506,0.16278 z m 19.611998,5.9274 c 0.05504,0.18327 -0.009,1.17522 -0.08238,1.27627 -0.05788,0.0796 -0.283479,0.049 -0.988092,-0.13421 -0.502254,-0.13044 -1.027531,-0.25204 -1.167363,-0.26994 -0.139832,-0.0179 -0.380043,-0.0482 -0.533771,-0.0674 -0.299298,-0.0374 -0.334053,-0.1159 -0.305776,-0.68968 l 0.01281,-0.25953 1.292846,0.007 c 1.579025,0.008 1.736467,0.0204 1.771743,0.13785 z M 91.2651,122.67625 c -0.0035,0.25696 -0.01436,0.4997 -0.02412,0.5394 -0.01656,0.0657 -2.761003,0.1036 -2.993433,0.0413 -0.05457,-0.0146 -0.09538,-0.27593 -0.0906,-0.58065 0.0047,-0.30474 0.0019,-0.61864 -0.0064,-0.69759 -0.01145,-0.10909 0.05308,-0.13626 0.269004,-0.11323 1.407946,0.15021 1.970199,0.2151 2.377263,0.2744 l 0.474648,0.0691 z m -12.445308,-1.84007 c 0.671164,0.37391 1.226551,0.68902 1.234192,0.70026 0.02178,0.0319 -0.620223,1.20107 -0.677764,1.2343 -0.02829,0.0163 -0.523708,-0.25121 -1.101041,-0.59446 -0.577332,-0.34325 -1.16552,-0.68358 -1.307083,-0.7563 -0.215918,-0.11096 -0.242223,-0.15849 -0.163155,-0.29547 0.05181,-0.0898 0.19308,-0.36358 0.313865,-0.60842 0.161792,-0.32795 0.253981,-0.43392 0.350154,-0.40246 0.0718,0.0234 0.679677,0.34864 1.350832,0.72255 z m 12.431999,3.50082 c -0.0084,0.31839 -0.04113,0.45988 -0.107208,0.46386 -0.263615,0.0158 -1.702608,0.31907 -2.194001,0.46238 -0.420437,0.1226 -0.586684,0.13439 -0.66716,0.0474 -0.101427,-0.10969 -0.175202,-1.01495 -0.10488,-1.28694 0.0244,-0.0944 0.392134,-0.12589 1.450856,-0.12426 0.779988,0.001 1.466831,-0.003 1.526324,-0.009 0.06819,-0.007 0.103708,0.15782 0.09609,0.44679 z m -23.115092,-6.15743 c 0.08633,0.0375 0.697185,0.26041 1.357408,0.49522 0.660232,0.23478 1.233011,0.47088 1.272872,0.52458 0.03985,0.0537 0.05625,0.25415 0.03643,0.44545 -0.01979,0.1913 -0.01595,0.61768 0.0086,0.94754 l 0.04466,0.59973 -0.786255,-0.10151 c -0.432437,-0.0558 -1.147604,-0.10161 -1.589259,-0.10174 -0.441661,-1.5e-4 -0.815757,-0.004 -0.831337,-0.008 -0.105692,-0.0283 -0.09239,-1.98745 0.01752,-2.57995 0.0643,-0.34662 0.120489,-0.37317 0.469343,-0.22147 z m 8.543048,3.77369 c 0.04074,0.028 0.593878,0.35569 1.229237,0.72827 0.635356,0.37259 1.146067,0.71148 1.134912,0.75311 -0.02109,0.0787 -1.010377,1.48756 -1.072633,1.52753 -0.01949,0.0125 -0.346553,-0.25924 -0.726824,-0.6039 -0.596147,-0.54033 -1.014419,-0.87694 -1.549691,-1.24711 -0.114021,-0.0788 -0.08846,-0.13982 0.277753,-0.66258 0.372633,-0.53194 0.511891,-0.62947 0.707246,-0.49532 z m 20.855337,7.07043 c 0.158666,0.15668 0.403833,1.07816 0.300293,1.1287 -0.05121,0.025 -2.438452,0.0164 -2.533731,-0.009 -0.103663,-0.0278 -0.14906,-1.18526 -0.04864,-1.24028 0.04865,-0.0266 0.353852,-0.0821 0.678223,-0.12315 0.728415,-0.0922 1.360831,0.004 1.603854,0.2439 z m -26.41684,-6.8456 c 0.159546,0.51098 0.701165,1.39451 1.027969,1.67692 0.449765,0.38865 1.151932,0.63148 1.592524,0.55073 0.30362,-0.0556 0.984829,-0.4774 1.309148,-0.81052 0.09699,-0.0996 0.166341,-0.0696 0.647801,0.28055 0.784059,0.57023 1.775868,1.50141 1.74035,1.63396 -0.05668,0.21154 -1.05616,1.04275 -1.677511,1.39507 -0.665315,0.37727 -1.628874,0.63416 -2.316093,0.61748 -0.916828,-0.0223 -2.351411,-0.5461 -3.121047,-1.13976 -1.051682,-0.81114 -2.146844,-2.69792 -2.480287,-4.27315 -0.04556,-0.21517 -0.07789,-0.40961 -0.07187,-0.43208 0.02143,-0.08 1.208558,-0.0844 1.969122,-0.007 1.144944,0.11604 1.27209,0.16286 1.379892,0.50812 z m 22.96833,7.00407 c 0.04614,0.0967 0.105499,0.43805 0.131876,0.75848 0.07207,0.87548 0.356218,2.18446 0.854599,3.93688 0.322132,1.1327 0.462368,1.81887 0.500217,2.44749 0.101886,1.69221 -0.495036,3.47335 -1.570202,4.68528 -0.476274,0.53685 -1.261699,1.09172 -1.672661,1.18166 -1.278543,0.2798 -1.765786,-1.26436 -1.491237,-4.72599 0.07655,-0.96518 0.157682,-1.39332 0.521648,-2.75278 0.468848,-1.75108 0.569616,-2.45155 0.606921,-4.21952 0.02583,-1.22253 0.04686,-1.34469 0.247238,-1.4368 0.119502,-0.0549 1.572485,-0.10824 1.738441,-0.0638 0.02705,0.007 0.087,0.0924 0.13316,0.18908 z m 3.97566,1.80612 c 0.02562,0.11765 0.13997,0.44904 0.254179,0.73643 0.114211,0.28738 0.191635,0.53178 0.172054,0.54308 -0.04385,0.0253 -2.692777,0.0239 -2.787554,-0.002 -0.09611,-0.0258 -0.38286,-1.39408 -0.301929,-1.44081 0.03662,-0.0211 0.573121,-0.0391 1.192293,-0.04 0.619171,-8.7e-4 1.19297,-0.004 1.275095,-0.006 0.09565,-0.003 0.166038,0.0721 0.195862,0.20915 z m -7.084198,-1.48776 c 0.0076,0.34605 -0.01338,0.63698 -0.04669,0.64651 -0.111902,0.032 -2.487484,0.0103 -2.50664,-0.0229 -0.01039,-0.018 0.01636,-0.26777 0.05956,-0.55495 0.07533,-0.50136 0.09066,-0.52921 0.384634,-0.69894 0.348131,-0.20099 0.754242,-0.22507 1.545462,-0.0916 l 0.549835,0.0928 z m 8.189184,4.14713 c 0.152294,0.38496 0.240476,0.71829 0.195963,0.74073 -0.04453,0.0224 -0.257543,0.0375 -0.473399,0.0334 -0.215868,-0.004 -0.894871,-0.007 -1.508922,-0.007 l -1.116447,8.3e-4 -0.209142,-0.71693 c -0.115023,-0.39431 -0.172302,-0.73483 -0.127289,-0.7567 0.08367,-0.0406 2.745498,-0.0559 2.885184,-0.0165 0.04244,0.012 0.201762,0.33673 0.354052,0.72171 z m -8.226196,-2.1249 c -0.01881,0.38392 -0.06116,0.71356 -0.0941,0.73255 -0.08169,0.0472 -2.527267,0.0478 -2.706047,6.6e-4 -0.122679,-0.0323 -0.121404,-0.12643 0.0088,-0.65441 0.08363,-0.33916 0.160737,-0.66363 0.171263,-0.72108 0.01696,-0.0942 2.156322,-0.16643 2.521438,-0.0853 0.10012,0.0227 0.124406,0.20077 0.09857,0.72754 z m 8.724681,3.97531 c 0.133092,0.88429 0.143113,1.38086 0.02805,1.39018 -0.231626,0.0188 -3.049554,-0.071 -3.063651,-0.0976 -0.02669,-0.0503 -0.180558,-1.73258 -0.159566,-1.7447 0.02792,-0.0161 3.020808,-0.0109 3.08142,0.005 0.02666,0.007 0.07783,0.20822 0.113746,0.44684 z m -8.930529,-2.34914 c -0.02326,0.10225 -0.047,0.26351 -0.05189,0.35862 -0.0049,0.0951 -0.07602,0.3378 -0.158066,0.5393 l -0.149207,0.36636 -1.534362,8.9e-4 c -0.843902,4.9e-4 -1.544596,-0.0168 -1.557091,-0.0385 -0.02454,-0.0425 0.492769,-1.43146 0.543797,-1.46005 0.04738,-0.0265 2.755265,-0.004 2.858841,0.0233 0.05003,0.0134 0.07171,0.10793 0.04798,0.21007 z m 9.026504,4.69763 c -0.0092,0.15422 -0.08954,0.64093 -0.178567,1.08158 l -0.161875,0.80117 -0.494941,-0.081 c -1.490953,-0.24383 -2.638434,-0.45556 -2.655161,-0.48992 -0.01041,-0.0214 0.0563,-0.41914 0.148379,-0.88372 l 0.16733,-0.84471 1.491223,0.0401 c 0.820163,0.022 1.538274,0.0527 1.595785,0.0681 0.05747,0.0154 0.09705,0.15419 0.08785,0.30841 z m -9.626683,-2.48277 c -0.04041,0.15083 -0.109617,0.50144 -0.153694,0.77914 l -0.08031,0.50489 -1.506795,-0.0398 c -1.085843,-0.0287 -1.516,-0.0705 -1.539737,-0.14951 -0.04377,-0.14575 0.162344,-1.34663 0.238695,-1.39071 0.08022,-0.0463 2.788828,-0.0588 2.971453,-0.0137 0.108933,0.0271 0.126065,0.102 0.0704,0.30975 z m -0.311407,2.56916 c -0.01772,0.36828 -0.04733,0.6783 -0.06576,0.68894 -0.0184,0.0107 -0.611692,0.0227 -1.318356,0.0268 -0.706651,0.004 -1.385326,0.0177 -1.50816,0.0302 -0.178959,0.0182 -0.224493,-0.007 -0.229176,-0.12829 -0.0083,-0.21255 0.05914,-1.35625 0.0804,-1.36512 0.0093,-0.004 0.624168,0.0105 1.365593,0.0322 0.741415,0.0217 1.428956,0.0409 1.527865,0.0426 0.161603,0.003 0.176562,0.0709 0.147605,0.67262 z m 9.273232,2.71566 c -0.52562,1.14493 -1.205503,2.28467 -1.341167,2.24832 -0.0425,-0.0114 -0.400312,-0.20396 -0.795217,-0.42798 -0.394905,-0.22402 -1.017964,-0.5344 -1.384569,-0.68975 l -0.666563,-0.28243 0.178862,-0.23162 c 0.09832,-0.1274 0.331613,-0.49967 0.518319,-0.82729 0.186655,-0.32762 0.358967,-0.60693 0.382825,-0.6207 0.06993,-0.0404 2.243481,0.31722 2.755501,0.45329 l 0.468463,0.12449 z m -9.29445,-1.21946 c 0.0045,0.0856 0.03256,0.4158 0.06226,0.73383 0.0297,0.31802 0.04412,0.58053 0.03204,0.58334 -0.01208,0.003 -0.325716,0.0346 -0.696963,0.0708 -0.371245,0.0361 -1.021449,0.1456 -1.444898,0.24331 -0.423461,0.0977 -0.802703,0.16889 -0.84277,0.15816 -0.104339,-0.028 -0.240917,-1.83307 -0.142974,-1.88961 0.06332,-0.0366 2.875181,-0.0956 2.997042,-0.0629 0.01536,0.004 0.03171,0.0776 0.03622,0.16311 z m 5.743654,3.01363 c 0.69074,0.30522 1.720939,0.8812 1.789981,1.00078 0.05798,0.10043 -0.63582,0.78949 -1.39559,1.38597 -0.883402,0.69354 -1.926732,1.1884 -2.878664,1.36538 -0.980531,0.18229 -1.532938,0.15878 -2.513275,-0.107 -1.297864,-0.3519 -2.092627,-0.97414 -2.791565,-2.18571 -0.47676,-0.82647 -0.798289,-1.84319 -0.631624,-1.99729 0.134857,-0.12466 1.44791,-0.40478 2.28322,-0.48707 l 0.593028,-0.0584 0.247302,0.58738 c 0.358997,0.8527 0.554068,1.03462 1.267754,1.1823 0.903155,0.18692 1.598249,-0.0223 2.478877,-0.74597 0.5089,-0.4182 0.465348,-0.41987 1.550556,0.0597 z"
       style="fill:#000000;stroke-width:0.94288898;filter:url(#filter856)"
       transform="matrix(0.74959329,0.74959329,-0.75027961,0.75027961,111.40148,-34.75465)" />
    <path
       style="fill:#ffffff;stroke-width:1"
       d="m 99.170944,104.52136 c 0.6523,1.80611 0.24077,3.74088 -1.104426,5.19226 -0.149044,0.16092 -0.356672,0.34237 -0.461295,0.40335 l -0.190212,0.11088 -0.610369,-0.943 c -0.335694,-0.51863 -0.718062,-1.08471 -0.849754,-1.25791 -0.236683,-0.31135 -0.237055,-0.31752 -0.03356,-0.54565 0.312449,-0.35025 0.516127,-1.03166 0.443656,-1.48422 -0.0986,-0.6157 -0.526961,-1.1959 -1.067517,-1.44592 -0.235272,-0.10884 -0.428262,-0.24995 -0.428835,-0.31358 -0.0049,-0.55937 0.168021,-2.90185 0.216302,-2.92973 0.03415,-0.0197 0.380552,0.0538 0.769873,0.16331 1.486855,0.41825 2.802651,1.62855 3.316101,3.05024 z m -4.850546,-1.69619 c -0.05119,0.80894 -0.09499,1.48366 -0.09734,1.49937 -0.01189,0.0796 -0.86664,0.27899 -0.90597,0.21131 -0.04059,-0.0699 -0.505321,-2.89017 -0.491719,-2.98417 0.01444,-0.0995 1.511738,-0.3296 1.563372,-0.24016 0.01362,0.0235 -0.01714,0.70471 -0.06834,1.51365 z m 0.932816,3.66665 c -0.113477,0.53228 -0.362516,0.67706 -1.855006,1.07791 -0.717288,0.19283 -1.440477,0.35811 -1.607105,0.36728 -0.761926,0.042 -1.24109,-0.82961 -0.824698,-1.50001 0.169924,-0.27359 0.366309,-0.35302 1.891674,-0.76558 1.239485,-0.3352 1.473254,-0.37253 1.759269,-0.28093 0.256423,0.0821 0.371942,0.17856 0.51899,0.43329 0.146834,0.25431 0.172941,0.40374 0.116665,0.66773 z m -2.773082,-3.19128 c 0.114405,0.76739 0.206488,1.41209 0.204624,1.43267 -0.0048,0.0525 -0.77882,0.27642 -0.939011,0.27163 -0.106271,-0.003 -0.195111,-0.23401 -0.453179,-1.1763 -0.494271,-1.80464 -0.485999,-1.73892 -0.228513,-1.81628 0.691809,-0.20783 1.121563,-0.28175 1.162066,-0.19989 0.02498,0.0513 0.1396,0.72079 0.254013,1.48817 z m 4.051506,7.49605 c -0.775477,0.32345 -1.04956,0.36786 -1.151013,0.18655 -0.16832,-0.30154 -1.049191,-2.5784 -1.027875,-2.65794 0.01157,-0.0432 0.20593,-0.13344 0.431924,-0.20042 l 0.410892,-0.12175 0.458459,0.68186 c 0.252221,0.37497 0.648596,0.9636 0.880964,1.30797 l 0.422462,0.62614 z m -5.898748,-7.06501 c 0.215387,0.78974 0.387773,1.45109 0.383074,1.46967 -0.0047,0.0186 -0.181359,0.0829 -0.392553,0.14293 l -0.38402,0.10913 -0.683744,-1.28128 c -0.452728,-0.84834 -0.672233,-1.33095 -0.649726,-1.42821 0.0279,-0.1205 0.13831,-0.17731 0.612387,-0.31569 0.318104,-0.0928 0.610891,-0.16058 0.650658,-0.15061 0.03978,0.01 0.248526,0.66427 0.463913,1.45402 z m 3.623245,6.16923 c 0.2962,0.76997 0.53922,1.40722 0.540039,1.4161 0.0015,0.0206 -1.297644,0.37047 -1.346601,0.36277 -0.01989,-0.003 -0.214047,-0.67105 -0.431443,-1.4843 l -0.395283,-1.47862 0.475838,-0.13212 c 0.26171,-0.0727 0.508031,-0.12125 0.547364,-0.10796 0.03934,0.0133 0.31384,0.65417 0.610086,1.42413 z m -1.814049,0.4968 c 0.194692,0.74086 0.346886,1.37355 0.338202,1.40596 -0.04054,0.15132 -1.248709,0.40604 -1.38857,0.29275 -0.0497,-0.0398 -0.09037,-0.48532 -0.09094,-0.98952 -5.83e-4,-0.50418 -0.03381,-1.13976 -0.07383,-1.41238 -0.04002,-0.27264 -0.07051,-0.51296 -0.06775,-0.53406 0.01196,-0.0914 0.852703,-0.27978 0.888856,-0.19911 0.02247,0.0489 0.199328,0.6955 0.394029,1.43636 z m -6.514011,-5.54078 c 0.170826,0.60556 0.280639,1.47793 0.19246,1.52884 -0.0433,0.025 -0.326275,0.0951 -0.628879,0.15577 -0.419397,0.0841 -0.558752,0.0774 -0.586234,-0.0282 -0.01987,-0.0762 -0.165947,-0.61342 -0.3247,-1.19389 -0.15877,-0.58047 -0.280215,-1.09673 -0.269896,-1.14723 0.02006,-0.0982 0.914344,-0.17739 1.068327,-0.0945 0.248008,0.13346 0.44609,0.41455 0.548948,0.7792 z m 0.738724,3.64369 c 0.184146,0.70349 0.172239,0.88769 -0.06647,1.02841 -0.068,0.0401 -0.651401,0.22622 -1.296594,0.41371 -1.606023,0.46672 -2.169816,0.70923 -3.692041,1.58809 -1.458198,0.84189 -2.489594,1.2846 -3.953301,1.69689 -1.686834,0.47514 -2.528563,0.51249 -3.13604,0.13916 -0.457783,-0.28133 -0.545366,-0.66741 -0.330461,-1.45689 0.316869,-1.1641 1.154616,-2.20526 2.460238,-3.05762 1.388978,-0.90677 2.380086,-1.12251 5.002235,-1.08886 1.992192,0.0255 2.63876,-0.007 3.684654,-0.18351 0.436736,-0.0739 0.845713,-0.10725 0.90885,-0.0742 0.16309,0.0853 0.209679,0.19695 0.418934,0.99486 z m 0.980987,2.72262 c 0.265473,0.75186 0.293316,0.98439 0.158447,1.32274 -0.09926,0.24906 -0.168865,0.30744 -0.580818,0.48727 -0.257423,0.11236 -0.478754,0.20147 -0.491933,0.19788 -0.08386,-0.0225 -0.645476,-2.35952 -0.584956,-2.43424 0.04122,-0.051 0.322804,-0.15831 0.625592,-0.23865 0.61548,-0.16324 0.568631,-0.19889 0.873639,0.66496 z m 6.979705,12.1992 c 0.280885,0.60951 0.44118,1.3512 0.438195,2.0281 -0.0021,0.46928 -0.300171,1.85168 -0.413398,1.91705 -0.0347,0.02 -0.660736,-0.2658 -1.391076,-0.63525 -1.306968,-0.66115 -1.327712,-0.67574 -1.316597,-0.9263 0.04425,-0.99797 -0.175703,-1.51983 -0.820573,-1.94685 -0.424852,-0.28133 -0.948611,-0.39615 -1.40806,-0.30865 l -0.275115,0.0524 -0.299084,-0.62002 c -0.164446,-0.34104 -0.462998,-0.95434 -0.66339,-1.36291 l -0.364338,-0.74285 0.198449,-0.11457 c 0.569739,-0.32894 1.916182,-0.40855 2.908691,-0.17198 1.59131,0.37932 2.701061,1.30194 3.406249,2.83187 z M 83.988989,105.45885 c 0.162541,0.62841 0.263202,1.17902 0.223694,1.22358 -0.05466,0.0616 -1.215865,0.14636 -1.406746,0.10265 -0.03137,-0.007 -0.763113,-2.64996 -0.754641,-2.72551 0.0079,-0.0709 1.566088,0.10125 1.60317,0.17705 0.02175,0.0437 0.171974,0.59384 0.334523,1.22223 z m 1.839164,6.84838 c 0.152147,0.57584 0.267962,1.07935 0.257354,1.1189 -0.01965,0.0737 -1.213259,0.73027 -1.291194,0.71037 -0.03383,-0.009 -0.428395,-1.38078 -0.742193,-2.58103 -0.04335,-0.16568 -0.0092,-0.18366 0.935776,-0.49178 0.477256,-0.1556 0.466275,-0.17186 0.840251,1.24353 z m -4.047715,-6.88646 c 0.186392,0.69895 0.335522,1.28889 0.331394,1.311 -0.01626,0.0871 -1.486156,0.032 -1.539043,-0.0576 -0.06309,-0.10722 -0.809641,-2.88471 -0.792459,-2.94883 0.006,-0.0225 0.343129,-0.0114 0.749096,0.0247 0.555062,0.0493 0.759711,0.10708 0.825116,0.23281 0.04747,0.0922 0.239497,0.73906 0.425896,1.43799 z m 12.310317,22.93358 c -0.262167,0.34896 -0.726375,0.84695 -0.776877,0.83343 -0.04041,-0.0109 -2.205121,-1.75923 -2.298759,-1.8567 -0.08732,-0.0916 0.377341,-0.65485 0.567736,-0.68817 0.08692,-0.0152 2.710842,1.25861 2.756931,1.33843 0.0073,0.013 -0.104609,0.18078 -0.249029,0.37302 z m -14.541722,-23.0315 c 0.193794,0.73879 0.345333,1.36945 0.336764,1.40144 -0.0086,0.032 -0.136995,0.0645 -0.285345,0.0724 -0.148358,0.008 -0.536415,0.0684 -0.86233,0.13456 -0.456008,0.0926 -0.599916,0.0884 -0.624421,-0.0184 -0.01753,-0.0764 -0.178369,-0.6261 -0.357461,-1.22172 -0.179069,-0.59563 -0.363286,-1.22325 -0.409373,-1.3947 l -0.08379,-0.31173 0.595444,-0.11807 c 0.828056,-0.1642 1.191393,-0.16895 1.270676,-0.0166 0.03672,0.0715 0.226028,0.7341 0.419822,1.4729 z m 4.295961,7.78885 c 0.19377,0.74092 0.346181,1.37001 0.338682,1.39797 -0.01447,0.054 -1.212799,0.93619 -1.255931,0.92464 -0.01378,-0.004 -0.117242,-0.34927 -0.229534,-0.76787 -0.1123,-0.41859 -0.297591,-1.08731 -0.411767,-1.48606 -0.206467,-0.72107 -0.206322,-0.72602 0.02766,-0.91697 0.261382,-0.21338 1.129744,-0.62316 1.159557,-0.54726 0.01068,0.0265 0.177563,0.65462 0.371328,1.39555 z m 7.073544,12.42634 c 0.0038,0.14497 -0.05622,0.36174 -0.133471,0.48171 -0.167606,0.26031 -2.023895,2.10933 -2.246832,2.23806 -0.413681,0.23884 -1.050874,0.0476 -1.303473,-0.39132 -0.163394,-0.28374 -0.135588,-0.77518 0.05775,-1.0223 0.262684,-0.33574 2.001586,-2.05348 2.187379,-2.16074 0.612442,-0.3536 1.419367,0.12574 1.438661,0.8546 z m 1.613663,4.46477 c -0.722063,0.75322 -0.620649,0.74653 -1.263742,0.0833 -0.311588,-0.32149 -0.798146,-0.81229 -1.081003,-1.09091 l -0.51467,-0.50618 0.332955,-0.34733 c 0.183127,-0.19104 0.374067,-0.35573 0.424328,-0.36602 0.07195,-0.0147 1.813347,1.31463 2.327962,1.77722 0.08677,0.0783 0.0389,0.17382 -0.225731,0.44986 z m -4.189871,-7.26106 0.551141,1.1406 -0.253808,0.28564 c -0.139576,0.15714 -0.306913,0.29405 -0.371783,0.30437 -0.06482,0.0103 -0.230676,-0.12914 -0.368459,-0.30977 -0.137786,-0.18064 -0.553011,-0.70293 -0.922748,-1.16063 -0.369728,-0.4577 -0.668202,-0.84727 -0.663265,-0.86571 0.01664,-0.0621 0.894942,-0.83063 1.060639,-0.928 0.188875,-0.11135 0.12351,-0.21484 0.968286,1.53352 z M 77.11942,105.69538 c 0.23289,0.79485 0.417341,1.46794 0.409886,1.49576 -0.0075,0.0278 -0.365709,0.22627 -0.796175,0.44096 l -0.782619,0.39042 -0.132793,-0.32339 c -0.07298,-0.17791 -0.373675,-0.83322 -0.668066,-1.45638 l -0.535268,-1.13298 0.447403,-0.25753 c 0.494798,-0.28488 1.448781,-0.66841 1.561864,-0.62796 0.03972,0.0143 0.262888,0.67624 0.495777,1.47109 z m 4.525754,7.42913 c 0.03198,0.14286 0.197583,0.77314 0.367906,1.40071 0.170314,0.62757 0.299347,1.18417 0.286755,1.23689 -0.02526,0.1057 -1.108626,0.62737 -1.291437,0.62185 -0.08004,-0.002 -0.131313,-0.0804 -0.169926,-0.25831 -0.03043,-0.14017 -0.211904,-0.77041 -0.403308,-1.4005 -0.191413,-0.63009 -0.330325,-1.17848 -0.308714,-1.21866 0.0528,-0.0981 1.416523,-0.75086 1.441127,-0.68977 0.01061,0.0264 0.04559,0.16495 0.07759,0.3078 z m 9.676472,18.05908 c -0.09067,0.16851 -0.83737,0.82465 -0.96071,0.84421 -0.09721,0.0154 -0.235098,-0.1658 -0.603786,-0.79359 -0.262912,-0.44738 -0.548355,-0.90479 -0.634574,-1.01632 -0.08622,-0.11154 -0.234648,-0.30282 -0.329774,-0.4251 -0.18519,-0.23808 -0.154257,-0.31816 0.271461,-0.70389 l 0.192574,-0.17446 0.90923,0.91913 c 1.110883,1.1222 1.213443,1.2423 1.155337,1.35029 z m -3.875907,-5.804 c -0.184173,0.17922 -0.363495,0.34319 -0.398469,0.36436 -0.05817,0.0347 -2.02558,-1.87907 -2.14588,-2.08748 -0.02826,-0.0489 0.127668,-0.26255 0.346518,-0.47464 0.218807,-0.21216 0.438788,-0.4361 0.488745,-0.4978 0.06904,-0.0852 0.133883,-0.0588 0.27028,0.11015 0.889354,1.10178 1.241042,1.54524 1.486949,1.87501 l 0.286765,0.38449 z M 79.946703,115.2783 c 0.210191,0.73898 0.380092,1.35451 0.377547,1.36787 -0.0072,0.0379 -1.287848,0.41072 -1.352033,0.39353 -0.03153,-0.008 -0.192685,-0.54795 -0.358207,-1.1989 -0.165521,-0.65095 -0.340783,-1.30752 -0.389462,-1.45904 -0.07422,-0.23113 -0.05921,-0.28334 0.09356,-0.32429 0.100134,-0.0269 0.393618,-0.12056 0.652154,-0.20828 0.3463,-0.1175 0.48642,-0.12724 0.532179,-0.037 0.03422,0.0673 0.234078,0.72713 0.444262,1.4661 z M 86.262,126.54451 c -0.231075,0.21919 -0.354267,0.2961 -0.403806,0.25219 -0.197576,-0.17523 -1.429542,-0.97831 -1.878345,-1.22444 -0.383985,-0.21061 -0.509876,-0.31982 -0.50527,-0.43824 0.0058,-0.14928 0.593792,-0.84157 0.835843,-0.98417 0.084,-0.0495 0.366298,0.18827 1.113775,0.93805 0.550828,0.55224 1.039327,1.03508 1.085638,1.07291 0.05317,0.0433 -0.03826,0.18493 -0.247982,0.38387 z m -11.990877,-20.6988 c 0.03453,0.0876 0.308846,0.67712 0.609659,1.31 0.30084,0.63287 0.538908,1.20484 0.529122,1.27099 -0.0098,0.0661 -0.139936,0.21949 -0.289221,0.34074 -0.149263,0.12128 -0.448044,0.42549 -0.663931,0.6761 l -0.392493,0.45565 -0.484188,-0.62774 c -0.266323,-0.34524 -0.73963,-0.88333 -1.051835,-1.19572 -0.312195,-0.31241 -0.573999,-0.57966 -0.582187,-0.5935 -0.05472,-0.0947 1.34001,-1.47067 1.836688,-1.81191 0.290565,-0.19963 0.34907,-0.17868 0.488479,0.17527 z m 3.372445,8.70925 c 0.009,0.0486 0.168424,0.67144 0.354237,1.38416 0.185804,0.71273 0.3073,1.31349 0.269975,1.33504 -0.07056,0.0407 -1.766308,0.33742 -1.838593,0.32166 -0.02262,-0.005 -0.06174,-0.42836 -0.08692,-0.94097 -0.03947,-0.80361 -0.09721,-1.33739 -0.213957,-1.97763 -0.0249,-0.13635 0.03632,-0.16142 0.664915,-0.27212 0.63963,-0.11265 0.807065,-0.0831 0.850343,0.14986 z m 9.747401,19.7465 c 0.0014,0.22298 -0.476821,1.04792 -0.585772,1.01045 -0.05389,-0.0185 -1.735842,-1.71265 -1.785254,-1.79799 -0.05364,-0.093 0.732704,-0.9435 0.842616,-0.9114 0.05321,0.0156 0.308265,0.19216 0.566657,0.3925 0.580262,0.44987 0.959424,0.96508 0.961632,1.30655 z m -13.838956,-23.5201 c -0.248502,0.47413 -0.490269,1.48186 -0.458878,1.91264 0.04322,0.59285 0.368015,1.26107 0.73666,1.51551 0.254007,0.17538 1.033952,0.35881 1.498831,0.35259 0.13901,-0.002 0.166836,0.0684 0.259686,0.65644 0.1512,0.95763 0.194071,2.31739 0.07523,2.386 -0.18966,0.1095 -1.484153,-0.009 -2.172643,-0.19972 -0.737219,-0.20368 -1.600206,-0.70337 -2.074349,-1.2011 -0.632527,-0.66406 -1.276548,-2.04885 -1.400982,-3.01285 -0.170088,-1.31721 0.38967,-3.42576 1.267746,-4.7754 0.119932,-0.18436 0.234561,-0.34471 0.254707,-0.35634 0.07172,-0.0414 0.914259,0.7949 1.397329,1.38743 0.727545,0.89165 0.784344,1.01466 0.616436,1.33502 z m 11.288436,21.19369 c -0.03575,0.101 -0.235149,0.38434 -0.443076,0.62957 -0.568096,0.67002 -1.292762,1.79653 -2.179501,3.38809 -0.573159,1.02872 -0.959192,1.61308 -1.37693,2.08434 -1.124529,1.26862 -2.806073,2.10599 -4.423294,2.2027 -0.716387,0.0428 -1.664119,-0.1202 -2.01831,-0.34719 -1.101915,-0.70622 -0.354562,-2.14264 2.287316,-4.39625 0.736614,-0.62835 1.096724,-0.87373 2.31537,-1.57765 1.569726,-0.90667 2.136287,-1.33072 3.412809,-2.55449 0.882724,-0.84619 0.983975,-0.9177 1.190795,-0.84115 0.123321,0.0457 1.188452,1.03538 1.274377,1.18415 0.01418,0.0241 -0.0038,0.12686 -0.03954,0.22786 z m 1.534097,4.08833 c -0.06508,0.10131 -0.218546,0.41649 -0.341003,0.70047 -0.122449,0.28397 -0.240519,0.51153 -0.262355,0.50567 -0.0489,-0.0131 -1.920981,-1.88718 -1.969684,-1.97251 -0.04972,-0.0862 0.71504,-1.25648 0.80531,-1.2323 0.04081,0.011 0.432906,0.37761 0.871363,0.81479 0.438435,0.43721 0.846385,0.84073 0.905871,0.89739 0.06976,0.0655 0.06642,0.16839 -0.0094,0.28639 z m -3.95728,-6.06129 c -0.23932,0.25007 -0.459874,0.44095 -0.490166,0.42414 -0.101754,-0.0565 -1.7662,-1.75163 -1.756269,-1.78866 0.0054,-0.0201 0.20091,-0.17777 0.434524,-0.35029 0.407781,-0.30125 0.438314,-0.3101 0.766202,-0.22225 0.388288,0.10405 0.692479,0.37418 1.157578,1.02804 l 0.323173,0.45441 z m 2.858164,8.72309 c -0.164519,0.3799 -0.337865,0.67795 -0.385208,0.66235 -0.04733,-0.0156 -0.208627,-0.1556 -0.358361,-0.31113 -0.149813,-0.15547 -0.62782,-0.63772 -1.062019,-1.07192 l -0.790035,-0.78886 0.359061,-0.65483 c 0.197485,-0.36015 0.397767,-0.64144 0.445061,-0.62508 0.08787,0.0305 1.980887,1.90184 2.0518,2.02847 0.02152,0.0385 -0.09544,0.38077 -0.259973,0.76068 z m -4.314268,-7.31933 c -0.284773,0.25817 -0.547809,0.46132 -0.584529,0.45146 -0.09114,-0.0244 -1.820848,-1.75325 -1.913931,-1.913 -0.06391,-0.10959 0.0036,-0.17525 0.46896,-0.45652 0.298958,-0.18068 0.582916,-0.3556 0.630982,-0.38878 0.0786,-0.0546 1.642434,1.40707 1.843242,1.72261 0.05474,0.0868 -0.054,0.22994 -0.444749,0.58415 z m 3.358313,8.98025 c -0.531177,0.7194 -0.875219,1.07761 -0.963171,1.00284 -0.177078,-0.15049 -2.106156,-2.20656 -2.097315,-2.23534 0.01669,-0.0544 1.097445,-1.35279 1.120859,-1.34652 0.03113,0.008 2.143741,2.12833 2.175357,2.18243 0.0139,0.0238 -0.0922,0.20227 -0.235533,0.39639 z m -4.653745,-7.97593 c -0.08875,0.0559 -0.219564,0.1531 -0.290274,0.21689 -0.07071,0.0638 -0.292615,0.18511 -0.493113,0.26958 l -0.36456,0.15355 -1.085588,-1.08433 c -0.597075,-0.59638 -1.080314,-1.10408 -1.073806,-1.12825 0.0127,-0.0474 1.360636,-0.66376 1.416934,-0.64789 0.05224,0.0148 1.951095,1.94543 2.005031,2.03798 0.0259,0.0448 -0.02561,0.12702 -0.114615,0.18247 z m 3.060976,9.70443 c -0.115555,0.10255 -0.51652,0.38989 -0.891058,0.63853 l -0.680976,0.45205 -0.2927,-0.40725 c -0.881849,-1.22668 -1.543525,-2.18779 -1.531057,-2.22391 0.0078,-0.0225 0.336187,-0.25657 0.729804,-0.51997 l 0.715621,-0.47898 1.026099,1.08281 c 0.564386,0.5955 1.050459,1.12499 1.080236,1.17655 0.02975,0.0515 -0.0404,0.17765 -0.15596,0.28019 z m -5.051509,-8.56268 c -0.135227,0.0781 -0.432083,0.27706 -0.659613,0.44226 l -0.413799,0.30022 -1.037322,-1.0936 c -0.747513,-0.7881 -1.022123,-1.12183 -0.983039,-1.19448 0.07211,-0.13401 1.067006,-0.83742 1.152163,-0.8146 0.08946,0.024 2.013577,1.93042 2.110822,2.09145 0.05787,0.0962 0.01702,0.16126 -0.169246,0.26881 z m -2.036869,1.59648 c -0.272943,0.24788 -0.513097,0.44616 -0.533653,0.44065 -0.02058,-0.005 -0.448583,-0.41648 -0.951169,-0.91327 -0.502506,-0.49685 -0.992089,-0.96705 -1.087785,-1.04507 -0.139412,-0.11368 -0.15379,-0.16369 -0.07134,-0.25277 0.144427,-0.15616 1.000832,-0.91719 1.022137,-0.90843 0.0094,0.004 0.433929,0.44878 0.942851,0.98839 0.508916,0.5396 0.981504,1.03934 1.050241,1.11048 0.11215,0.11639 0.07471,0.17498 -0.371241,0.57999 z m 4.636904,8.47742 c -1.181257,0.43792 -2.467925,0.76309 -2.53815,0.64146 -0.02199,-0.0381 -0.138842,-0.42729 -0.259676,-0.86493 -0.120834,-0.43765 -0.341932,-1.09769 -0.491311,-1.46677 l -0.271624,-0.67104 0.290255,-0.0373 c 0.159608,-0.0206 0.587806,-0.11884 0.951489,-0.21848 0.363648,-0.0997 0.682993,-0.17534 0.7096,-0.1682 0.07801,0.0209 1.362072,1.81069 1.627909,2.26896 l 0.243225,0.41928 z m -5.70988,-7.43445 c -0.05735,0.0637 -0.270992,0.31703 -0.474872,0.56292 -0.203873,0.24587 -0.379299,0.44169 -0.389828,0.43514 -0.01066,-0.006 -0.254782,-0.20585 -0.54289,-0.44277 -0.288037,-0.23698 -0.825228,-0.61932 -1.193743,-0.84965 -0.368517,-0.23035 -0.68702,-0.44817 -0.707765,-0.48409 -0.05398,-0.0936 1.125822,-1.46653 1.235058,-1.43725 0.07065,0.0189 2.10066,1.96546 2.163706,2.07475 0.008,0.0137 -0.03245,0.0773 -0.08972,0.14094 z m 1.930418,6.19233 c 0.272604,0.70425 0.593786,1.83999 0.55805,1.97337 -0.03002,0.11201 -1.007847,0.10866 -1.96686,-0.007 -1.115067,-0.13426 -2.202731,-0.52208 -3.000992,-1.07006 -0.822239,-0.56444 -1.196226,-0.97167 -1.701494,-1.85281 -0.668897,-1.16656 -0.79089,-2.16853 -0.428404,-3.51947 0.247282,-0.92152 0.738857,-1.86781 0.965672,-1.85892 0.183506,0.007 1.310049,0.7376 1.958891,1.27007 l 0.460629,0.37804 -0.240472,0.59021 c -0.3491,0.8568 -0.339801,1.12337 0.06042,1.73245 0.506455,0.7708 1.145902,1.11436 2.280312,1.22535 0.655558,0.0641 0.625943,0.0322 1.054194,1.13862 z"
       id="path4722"
       inkscape:connector-curvature="0" />
  </g>
</svg>
