<?xml version="1.0" encoding="UTF-8" standalone="no"?>
<!-- Created with Inkscape (http://www.inkscape.org/) -->

<svg
   xmlns:dc="http://purl.org/dc/elements/1.1/"
   xmlns:cc="http://creativecommons.org/ns#"
   xmlns:rdf="http://www.w3.org/1999/02/22-rdf-syntax-ns#"
   xmlns:svg="http://www.w3.org/2000/svg"
   xmlns="http://www.w3.org/2000/svg"
   xmlns:sodipodi="http://sodipodi.sourceforge.net/DTD/sodipodi-0.dtd"
   xmlns:inkscape="http://www.inkscape.org/namespaces/inkscape"
   width="82.074402mm"
   height="124.81511mm"
   viewBox="0 0 82.074401 124.81511"
   version="1.1"
   id="svg5"
   inkscape:version="0.92.4 (5da689c313, 2019-01-14)"
   sodipodi:docname="lochay.svg">
  <metadata
     id="metadata844">
    <rdf:RDF>
      <cc:Work
         rdf:about="">
        <dc:format>image/svg+xml</dc:format>
        <dc:type
           rdf:resource="http://purl.org/dc/dcmitype/StillImage" />
        <dc:title></dc:title>
      </cc:Work>
    </rdf:RDF>
  </metadata>
  <sodipodi:namedview
     id="namedview7"
     pagecolor="#505050"
     bordercolor="#eeeeee"
     borderopacity="1"
     inkscape:pageshadow="0"
     inkscape:pageopacity="0"
     inkscape:pagecheckerboard="0"
     inkscape:document-units="mm"
     showgrid="false"
     fit-margin-top="0"
     fit-margin-left="0"
     fit-margin-right="0"
     fit-margin-bottom="0"
     inkscape:zoom="1.3416246"
     inkscape:cx="275.59123"
     inkscape:cy="152.66927"
     inkscape:window-width="1920"
     inkscape:window-height="1017"
     inkscape:window-x="1072"
     inkscape:window-y="394"
     inkscape:window-maximized="1"
     inkscape:current-layer="layer1"
     inkscape:snap-global="false" />
  <defs
     id="defs2">
    <filter
       inkscape:collect="always"
       style="color-interpolation-filters:sRGB"
       id="filter1558"
       x="-0.12736349"
       width="1.254727"
       y="-0.077030979"
       height="1.154062">
      <feGaussianBlur
         inkscape:collect="always"
         stdDeviation="3.2201253"
         id="feGaussianBlur1560" />
    </filter>
  </defs>
  <g
     inkscape:label="Layer 1"
     inkscape:groupmode="layer"
     id="layer1"
     transform="translate(-57.467019,-5.4242607)">
    <g
       id="g1520"
       style="fill:#000000;stroke-width:0.92764241;filter:url(#filter1558)"
       transform="matrix(1.0780016,0,0,1.0780016,-7.6834894,-5.2909915)">
      <path
         style="fill:#000000;stroke-width:0.33695683"
         d="m 78.316843,78.901615 v -9.14008 c 0,-5.02704 0.09981,-9.63892 0.221707,-10.2486 0.17025,-0.85124 2.456039,-3.24344 9.848511,-10.30695 5.29474,-5.05916 9.862322,-9.33408 10.150187,-9.49986 0.31929,-0.18387 0.834491,-0.0927 1.321149,0.23391 0.438773,0.29443 5.088543,4.65011 10.332833,9.67928 l 9.53507,9.14395 v 11.23605 c 0,4.659163 0.0561,15.096895 0.13478,19.951619 -0.21065,2.710436 -0.92427,1.554566 -1.9554,1.067031 -3.34223,-2.744961 -7.1668,-4.51761 -11.12142,-5.483214 -0.70665,-0.172544 -1.41745,-0.319318 -2.1304,-0.441267 -0.75242,-0.128701 -1.50723,-0.22975 -2.26206,-0.304257 -8.155497,-0.804994 -16.31369,1.488526 -21.494448,5.482585 -2.267813,2.035464 -2.209775,-8.663492 -2.580549,-11.370197 z m 18.089395,-1.73454 c 0.268398,-0.2684 0.435889,-1.58443 0.435889,-3.42484 0,-3.87562 -0.238483,-4.13058 -3.863858,-4.13058 -4.010577,0 -4.127436,0.11148 -4.127436,3.93578 0,1.99193 0.163166,3.34692 0.435889,3.61964 0.271445,0.27145 1.614395,0.43589 3.559765,0.43589 1.945355,0 3.288305,-0.16444 3.559751,-0.43589 z m 12.709382,-3.1423 c 0.0677,-2.19214 -0.0446,-3.57679 -0.3169,-3.90484 -0.29963,-0.36102 -1.29749,-0.50828 -3.44431,-0.50828 -3.76816,0 -4.15339,0.38032 -4.15339,4.10036 0,3.84665 0.1009,3.93636 4.28777,3.81305 l 3.5219,-0.10365 z m -12.844295,-9.34281 c 0.712689,-0.7127 0.820597,-6.29892 0.134954,-6.9846 -0.271445,-0.27145 -1.614395,-0.43589 -3.559751,-0.43589 -1.945369,0 -3.288319,0.16444 -3.559765,0.43589 -0.272613,0.27261 -0.435889,1.62654 -0.435889,3.61436 0,3.8284 0.08869,3.91427 4.060509,3.93 2.062544,0.008 2.937878,-0.13766 3.359983,-0.55976 z m 12.527395,0.0626 c 0.27224,-0.32805 0.38463,-1.71269 0.3169,-3.90484 l -0.10489,-3.39657 -3.44486,-0.10557 c -4.19102,-0.12837 -4.36481,0.0199 -4.36481,3.72657 0,3.81889 0.36667,4.18867 4.1534,4.18867 2.14681,0 3.14467,-0.14726 3.4443,-0.50827 z m -37.339022,-7.98268 c -1.021504,-1.04084 -1.517676,-1.84367 -1.437775,-2.32637 0.172228,-1.04047 28.164019,-27.686276 29.084809,-27.686276 0.447078,0 3.410098,2.579283 7.719708,6.719956 3.84678,3.69598 7.09699,6.71995 7.22269,6.71995 0.12576,0 0.22856,-1.7163 0.22856,-3.81402 v -3.81404 h 3.63242 3.6324 v 7.47807 7.47806 l 3.26917,3.10297 c 2.15208,2.04268 3.26916,3.37135 3.26916,3.8884 0,0.8974 -2.81882,3.84261 -3.67772,3.84261 -0.30946,0 -5.77913,-4.99843 -12.15481,-11.10763 -6.37569,-6.10922 -11.95114,-11.35292 -12.389913,-11.6527 -0.488924,-0.33405 -1.000801,-0.42836 -1.322261,-0.24363 -0.288469,0.16578 -5.848986,5.40949 -12.356692,11.65268 -6.708929,6.43624 -12.119665,11.35128 -12.49608,11.35128 -0.365131,0 -1.365782,-0.71519 -2.223666,-1.58931 z M 117.26237,29.451491 c -0.98821,-0.692165 -1.8962,-2.373104 -1.8914,-3.5015 0.001,-0.459434 0.41058,-1.709715 0.9081,-2.778419 1.09999,-2.36293 1.12486,-3.083994 0.15334,-4.448374 -0.64406,-0.90448 -0.66739,-1.054975 -0.16359,-1.054975 1.06534,0 2.75613,1.108503 3.10985,2.038862 0.55665,1.464107 0.41133,2.581712 -0.59355,4.56474 -0.93241,1.840028 -1.0477,3.523026 -0.35008,5.110912 0.34588,0.787318 -0.10873,0.813966 -1.17267,0.06878 z"
         id="path1516"
         sodipodi:nodetypes="ssssssscsccsssccsssssssssssccsssssscsssscssssssssssscccccsssssssssscssssssssc"
         inkscape:connector-curvature="0" />
      <path
         style="fill:#000000;stroke-width:0.92764235"
         d="m 68.193724,114.1955 c 0.64466,-5.10489 0.454434,-5.04932 8.679345,-2.53576 3.379351,1.03278 3.977229,1.42453 3.969538,2.60116 -0.156364,4.05458 -13.377584,5.80007 -12.648883,-0.0653 z m 47.684936,-1.06503 c -0.28061,-1.10503 0.2163,-1.45184 3.85778,-2.69279 4.48179,-1.52729 7.43711,-1.87522 8.22094,-0.96785 0.2677,0.30991 0.65554,2.17716 0.86186,4.14948 0.64564,6.95964 -11.65998,4.72311 -12.94058,-0.48884 z m -37.878231,-2.24989 c -1.410999,-0.42991 -1.869219,-0.86918 -1.620914,-1.55388 0.19047,-0.52499 0.346187,-1.07191 0.346187,-1.21536 0,-0.48265 2.857247,-0.2661 4.335559,0.3286 1.092901,0.43965 1.384734,0.91505 1.148466,1.87095 -0.342655,1.38638 -1.164032,1.49757 -4.209298,0.56969 z m -6.432142,-1.61552 c -1.948683,-0.25051 -2.463623,-1.40572 -1.41004,-3.1633 0.391745,-0.65352 1.031526,-0.66836 3.256583,-0.0755 1.580483,0.42108 2.663962,1.03785 2.524216,1.43693 -0.134777,0.38456 -0.543209,0.62903 -0.907911,0.54329 -0.364723,-0.0858 -0.596808,0.1598 -0.515741,0.54569 0.182229,0.86779 -0.485645,1.02936 -2.947107,0.71293 z m 42.553843,-0.22156 c -0.55189,-0.94486 0.17333,-1.4938 3.5259,-2.66921 3.92739,-1.37689 8.15491,-1.38281 7.89538,-0.011 -0.37471,1.98065 -10.449,4.3448 -11.42128,2.68024 z m -33.934824,-2.13332 c -1.500043,-0.41925 -3.081774,-0.99406 -3.515005,-1.27735 -1.324427,-0.86608 1.921017,-1.86073 5.285708,-1.61993 3.210049,0.22972 3.810507,1.05019 1.988098,2.71646 -0.873492,0.79864 -1.449229,0.82633 -3.758801,0.18082 z m 46.685614,-0.047 c 0.0283,-0.72653 0.16797,-0.87431 0.3561,-0.37679 0.17019,0.45018 0.14926,0.98809 -0.0465,1.19533 -0.19581,0.20724 -0.33516,-0.16111 -0.30957,-0.81854 z m -14.26241,-0.7276 c -0.0383,-0.25727 -0.0318,-0.69909 0.0156,-0.98184 0.0464,-0.28275 -0.15728,-0.35601 -0.45283,-0.16278 -0.29549,0.19323 -0.8495,-0.0467 -1.23116,-0.53335 -0.57197,-0.72923 -0.007,-1.22114 3.21615,-2.79957 2.15054,-1.05319 4.26833,-1.914893 4.70624,-1.914893 0.92384,0 1.84117,3.633423 1.09682,4.344313 -0.52724,0.5035 -5.9628,2.51586 -6.79562,2.51586 -0.26642,0 -0.51583,-0.2105 -0.55422,-0.46775 z m -41.001388,-1.8019 c -0.488719,-0.21077 -0.339907,-0.93866 0.499724,-2.44438 l 1.195688,-2.144232 1.710584,1.288782 c 2.176471,1.63979 2.151009,2.16669 -0.145693,3.0138 -1.984305,0.73191 -2.185625,0.74957 -3.26037,0.28603 z m 51.533408,-0.11052 c -0.8915,-0.10854 -1.62454,-0.38918 -1.62897,-0.62366 -0.005,-0.23448 -0.16798,-1.05776 -0.36345,-1.82953 -0.31258,-1.23411 -0.13545,-1.40321 1.47037,-1.40321 1.44742,0 1.90109,0.31755 2.18927,1.53237 0.50496,2.12876 0.20161,2.55155 -1.66722,2.32403 z m -43.175014,-1.94099 c -4.328923,-1.10537 -5.489882,-3.14095 -3.503108,-6.1422 0.635774,-0.960383 1.520251,-1.386071 2.879946,-1.386071 1.624411,0 2.127507,0.349092 2.920979,2.026861 0.52723,1.114784 1.652392,2.93896 2.500374,4.05374 l 1.541793,2.02687 -2.285852,-0.0639 c -1.257249,-0.0352 -3.081598,-0.26702 -4.054132,-0.51536 z m 6.886706,-0.8029 c -0.500059,-0.52909 -0.486617,-0.95732 0.05302,-1.690139 0.624279,-0.847771 0.592868,-0.874242 -0.230517,-0.19425 -0.767615,0.633899 -1.069004,0.633899 -1.54725,0 -1.308254,-1.734008 -2.534045,-4.918159 -2.147865,-5.579313 0.250132,-0.428213 0.144576,-0.528263 -0.270625,-0.256706 -0.399078,0.260984 -0.680463,0.05733 -0.680463,-0.492516 0,-1.329608 2.431122,-4.025952 3.831231,-4.249187 1.078935,-0.172022 1.212416,0.278509 1.575115,5.316618 0.217871,3.027509 0.537909,5.895113 0.711023,6.372453 0.417317,1.15064 -0.448041,1.66774 -1.293641,0.77304 z m 21.709168,-0.33295 c 0.009,-0.94341 0.0953,-0.96455 0.64504,-0.15592 0.53936,0.79335 0.58643,0.77204 0.30983,-0.1403 -0.2387,-0.7873 0.79982,-2.007933 3.87296,-4.552145 4.48821,-3.715735 5.25661,-3.752815 6.05662,-0.292259 0.33235,1.437585 0.002,1.751794 -4.09691,3.897817 -4.93503,2.583737 -6.80144,2.925487 -6.78754,1.242797 z m -2.36669,-1.281114 c 0,-1.230495 3.00709,-6.562452 4.10654,-7.281411 0.95397,-0.623821 4.84679,0.226447 4.41571,0.964483 -0.1936,0.331273 -0.6053,0.436555 -0.91511,0.233966 -0.30983,-0.202593 -0.49043,-0.114441 -0.40135,0.1959 0.15928,0.555073 -6.14511,7.012286 -6.84637,7.012286 -0.19759,0 -0.35942,-0.50634 -0.35942,-1.125206 z m -17.104493,-1.08906 c -0.344125,-0.957683 -0.548669,-3.724863 -0.454527,-6.149303 0.134326,-3.457772 0.37512,-4.449219 1.117403,-4.598959 0.7327,-0.147814 1.288972,1.115596 2.464472,5.597217 0.834996,3.183459 1.45076,5.859416 1.368399,5.94656 -0.08242,0.08713 -0.986813,0.335582 -2.009897,0.552089 -1.645981,0.34831 -1.932192,0.19313 -2.48585,-1.347604 z M 102.47699,99.3059 c -1.17127,-0.321005 -1.10361,-1.273733 0.53289,-7.506256 0.91275,-3.476095 2.30069,-4.485487 4.94612,-3.5971 0.99117,0.332854 1.21695,0.836292 1.07403,2.395004 -0.0996,1.085458 -0.4813,1.914406 -0.84838,1.842105 -0.36709,-0.07229 -0.63232,0.348664 -0.58941,0.935478 0.043,0.586814 -0.27326,0.989818 -0.70258,0.895566 -0.42933,-0.09426 -0.62386,0.09695 -0.4323,0.424909 0.46765,0.800601 -1.49203,5.066602 -2.28545,4.975147 -0.34518,-0.03976 -1.10789,-0.203956 -1.69492,-0.364853 z m -7.686284,-0.659984 c -0.598537,-1.024691 -2.150668,-8.23061 -2.150668,-9.984691 0,-1.583036 0.273341,-1.916733 1.841956,-2.248673 3.223747,-0.682196 6.817976,-0.43698 7.565606,0.516166 0.5611,0.715344 0.45225,1.986918 -0.51737,6.043863 -0.67536,2.825855 -1.559449,5.360632 -1.964613,5.63284 -0.942417,0.633155 -4.411538,0.662581 -4.774911,0.04053 z m 25.552074,-0.461943 c 0.40357,-0.514514 1.07076,-0.935478 1.48266,-0.935478 0.41188,0 0.90156,0.420964 1.08815,0.935478 0.25649,0.707195 -0.10536,0.935476 -1.48266,0.935476 -1.55265,0 -1.71347,-0.138267 -1.08815,-0.935476 z M 79.411877,92.622058 c 1.234564,-0.955172 1.794034,-0.850225 1.169286,0.219353 -0.213637,0.365829 -0.821411,0.665145 -1.350513,0.665145 -0.804525,0 -0.774871,-0.144773 0.181111,-0.884488 z m 34.435453,-1.313363 c -1.23287,-1.571821 -0.16731,-1.787481 1.90274,-0.385057 l 1.9403,1.314591 -1.54873,0.01063 c -0.85179,0.0059 -1.88424,-0.417242 -2.29431,-0.940043 z m -3.41249,-1.388143 c 0.10916,-0.600265 0.58924,-1.09139 1.06664,-1.09139 0.4774,0 0.95737,0.491125 1.06664,1.09139 0.13945,0.765748 -0.17889,1.091388 -1.06664,1.091388 -0.88775,0 -1.206,-0.32564 -1.06664,-1.091388 z"
         id="path1518"
         inkscape:connector-curvature="0"
         sodipodi:nodetypes="cccccccccccsccccccccccccccccccccccccccccccccscsccccccccccccsccccscsccccccccccscccccccccccccsccccsssccccccccccccccccccscccccccscscccscccccccccscsc" />
    </g>
    <g
       id="g1493">
      <path
         inkscape:connector-curvature="0"
         sodipodi:nodetypes="ssssssscsccsssccsssssssssssccsssssscsssscssssssssssscccccsssssssssscssssssssc"
         id="path836"
         d="m 78.316843,78.901615 v -9.14008 c 0,-5.02704 0.09981,-9.63892 0.221707,-10.2486 0.17025,-0.85124 2.456039,-3.24344 9.848511,-10.30695 5.29474,-5.05916 9.862322,-9.33408 10.150187,-9.49986 0.31929,-0.18387 0.834491,-0.0927 1.321149,0.23391 0.438773,0.29443 5.088543,4.65011 10.332833,9.67928 l 9.53507,9.14395 v 11.23605 c 0,4.659163 0.0561,15.096895 0.13478,19.951619 -0.21065,2.710436 -0.92427,1.554566 -1.9554,1.067031 -3.34223,-2.744961 -7.1668,-4.51761 -11.12142,-5.483214 -0.70665,-0.172544 -1.41745,-0.319318 -2.1304,-0.441267 -0.75242,-0.128701 -1.50723,-0.22975 -2.26206,-0.304257 -8.155497,-0.804994 -16.31369,1.488526 -21.494448,5.482585 -2.267813,2.035464 -2.209775,-8.663492 -2.580549,-11.370197 z m 18.089395,-1.73454 c 0.268398,-0.2684 0.435889,-1.58443 0.435889,-3.42484 0,-3.87562 -0.238483,-4.13058 -3.863858,-4.13058 -4.010577,0 -4.127436,0.11148 -4.127436,3.93578 0,1.99193 0.163166,3.34692 0.435889,3.61964 0.271445,0.27145 1.614395,0.43589 3.559765,0.43589 1.945355,0 3.288305,-0.16444 3.559751,-0.43589 z m 12.709382,-3.1423 c 0.0677,-2.19214 -0.0446,-3.57679 -0.3169,-3.90484 -0.29963,-0.36102 -1.29749,-0.50828 -3.44431,-0.50828 -3.76816,0 -4.15339,0.38032 -4.15339,4.10036 0,3.84665 0.1009,3.93636 4.28777,3.81305 l 3.5219,-0.10365 z m -12.844295,-9.34281 c 0.712689,-0.7127 0.820597,-6.29892 0.134954,-6.9846 -0.271445,-0.27145 -1.614395,-0.43589 -3.559751,-0.43589 -1.945369,0 -3.288319,0.16444 -3.559765,0.43589 -0.272613,0.27261 -0.435889,1.62654 -0.435889,3.61436 0,3.8284 0.08869,3.91427 4.060509,3.93 2.062544,0.008 2.937878,-0.13766 3.359983,-0.55976 z m 12.527395,0.0626 c 0.27224,-0.32805 0.38463,-1.71269 0.3169,-3.90484 l -0.10489,-3.39657 -3.44486,-0.10557 c -4.19102,-0.12837 -4.36481,0.0199 -4.36481,3.72657 0,3.81889 0.36667,4.18867 4.1534,4.18867 2.14681,0 3.14467,-0.14726 3.4443,-0.50827 z m -37.339022,-7.98268 c -1.021504,-1.04084 -1.517676,-1.84367 -1.437775,-2.32637 0.172228,-1.04047 28.164019,-27.686276 29.084809,-27.686276 0.447078,0 3.410098,2.579283 7.719708,6.719956 3.84678,3.69598 7.09699,6.71995 7.22269,6.71995 0.12576,0 0.22856,-1.7163 0.22856,-3.81402 v -3.81404 h 3.63242 3.6324 v 7.47807 7.47806 l 3.26917,3.10297 c 2.15208,2.04268 3.26916,3.37135 3.26916,3.8884 0,0.8974 -2.81882,3.84261 -3.67772,3.84261 -0.30946,0 -5.77913,-4.99843 -12.15481,-11.10763 -6.37569,-6.10922 -11.95114,-11.35292 -12.389913,-11.6527 -0.488924,-0.33405 -1.000801,-0.42836 -1.322261,-0.24363 -0.288469,0.16578 -5.848986,5.40949 -12.356692,11.65268 -6.708929,6.43624 -12.119665,11.35128 -12.49608,11.35128 -0.365131,0 -1.365782,-0.71519 -2.223666,-1.58931 z M 117.26237,29.451491 c -0.98821,-0.692165 -1.8962,-2.373104 -1.8914,-3.5015 0.001,-0.459434 0.41058,-1.709715 0.9081,-2.778419 1.09999,-2.36293 1.12486,-3.083994 0.15334,-4.448374 -0.64406,-0.90448 -0.66739,-1.054975 -0.16359,-1.054975 1.06534,0 2.75613,1.108503 3.10985,2.038862 0.55665,1.464107 0.41133,2.581712 -0.59355,4.56474 -0.93241,1.840028 -1.0477,3.523026 -0.35008,5.110912 0.34588,0.787318 -0.10873,0.813966 -1.17267,0.06878 z"
         style="fill:#ffffff;stroke-width:0.36324" />
      <path
         sodipodi:nodetypes="cccccccccccsccccccccccccccccccccccccccccccccscsccccccccccccsccccscsccccccccccscccccccccccccsccccsssccccccccccccccccccscccccccscscccscccccccccscsc"
         inkscape:connector-curvature="0"
         id="path1489"
         d="m 68.193724,114.1955 c 0.64466,-5.10489 0.454434,-5.04932 8.679345,-2.53576 3.379351,1.03278 3.977229,1.42453 3.969538,2.60116 -0.156364,4.05458 -13.377584,5.80007 -12.648883,-0.0653 z m 47.684936,-1.06503 c -0.28061,-1.10503 0.2163,-1.45184 3.85778,-2.69279 4.48179,-1.52729 7.43711,-1.87522 8.22094,-0.96785 0.2677,0.30991 0.65554,2.17716 0.86186,4.14948 0.64564,6.95964 -11.65998,4.72311 -12.94058,-0.48884 z m -37.878231,-2.24989 c -1.410999,-0.42991 -1.869219,-0.86918 -1.620914,-1.55388 0.19047,-0.52499 0.346187,-1.07191 0.346187,-1.21536 0,-0.48265 2.857247,-0.2661 4.335559,0.3286 1.092901,0.43965 1.384734,0.91505 1.148466,1.87095 -0.342655,1.38638 -1.164032,1.49757 -4.209298,0.56969 z m -6.432142,-1.61552 c -1.948683,-0.25051 -2.463623,-1.40572 -1.41004,-3.1633 0.391745,-0.65352 1.031526,-0.66836 3.256583,-0.0755 1.580483,0.42108 2.663962,1.03785 2.524216,1.43693 -0.134777,0.38456 -0.543209,0.62903 -0.907911,0.54329 -0.364723,-0.0858 -0.596808,0.1598 -0.515741,0.54569 0.182229,0.86779 -0.485645,1.02936 -2.947107,0.71293 z m 42.553843,-0.22156 c -0.55189,-0.94486 0.17333,-1.4938 3.5259,-2.66921 3.92739,-1.37689 8.15491,-1.38281 7.89538,-0.011 -0.37471,1.98065 -10.449,4.3448 -11.42128,2.68024 z m -33.934824,-2.13332 c -1.500043,-0.41925 -3.081774,-0.99406 -3.515005,-1.27735 -1.324427,-0.86608 1.921017,-1.86073 5.285708,-1.61993 3.210049,0.22972 3.810507,1.05019 1.988098,2.71646 -0.873492,0.79864 -1.449229,0.82633 -3.758801,0.18082 z m 46.685614,-0.047 c 0.0283,-0.72653 0.16797,-0.87431 0.3561,-0.37679 0.17019,0.45018 0.14926,0.98809 -0.0465,1.19533 -0.19581,0.20724 -0.33516,-0.16111 -0.30957,-0.81854 z m -14.26241,-0.7276 c -0.0383,-0.25727 -0.0318,-0.69909 0.0156,-0.98184 0.0464,-0.28275 -0.15728,-0.35601 -0.45283,-0.16278 -0.29549,0.19323 -0.8495,-0.0467 -1.23116,-0.53335 -0.57197,-0.72923 -0.007,-1.22114 3.21615,-2.79957 2.15054,-1.05319 4.26833,-1.914893 4.70624,-1.914893 0.92384,0 1.84117,3.633423 1.09682,4.344313 -0.52724,0.5035 -5.9628,2.51586 -6.79562,2.51586 -0.26642,0 -0.51583,-0.2105 -0.55422,-0.46775 z m -41.001388,-1.8019 c -0.488719,-0.21077 -0.339907,-0.93866 0.499724,-2.44438 l 1.195688,-2.144232 1.710584,1.288782 c 2.176471,1.63979 2.151009,2.16669 -0.145693,3.0138 -1.984305,0.73191 -2.185625,0.74957 -3.26037,0.28603 z m 51.533408,-0.11052 c -0.8915,-0.10854 -1.62454,-0.38918 -1.62897,-0.62366 -0.005,-0.23448 -0.16798,-1.05776 -0.36345,-1.82953 -0.31258,-1.23411 -0.13545,-1.40321 1.47037,-1.40321 1.44742,0 1.90109,0.31755 2.18927,1.53237 0.50496,2.12876 0.20161,2.55155 -1.66722,2.32403 z m -43.175014,-1.94099 c -4.328923,-1.10537 -5.489882,-3.14095 -3.503108,-6.1422 0.635774,-0.960383 1.520251,-1.386071 2.879946,-1.386071 1.624411,0 2.127507,0.349092 2.920979,2.026861 0.52723,1.114784 1.652392,2.93896 2.500374,4.05374 l 1.541793,2.02687 -2.285852,-0.0639 c -1.257249,-0.0352 -3.081598,-0.26702 -4.054132,-0.51536 z m 6.886706,-0.8029 c -0.500059,-0.52909 -0.486617,-0.95732 0.05302,-1.690139 0.624279,-0.847771 0.592868,-0.874242 -0.230517,-0.19425 -0.767615,0.633899 -1.069004,0.633899 -1.54725,0 -1.308254,-1.734008 -2.534045,-4.918159 -2.147865,-5.579313 0.250132,-0.428213 0.144576,-0.528263 -0.270625,-0.256706 -0.399078,0.260984 -0.680463,0.05733 -0.680463,-0.492516 0,-1.329608 2.431122,-4.025952 3.831231,-4.249187 1.078935,-0.172022 1.212416,0.278509 1.575115,5.316618 0.217871,3.027509 0.537909,5.895113 0.711023,6.372453 0.417317,1.15064 -0.448041,1.66774 -1.293641,0.77304 z m 21.709168,-0.33295 c 0.009,-0.94341 0.0953,-0.96455 0.64504,-0.15592 0.53936,0.79335 0.58643,0.77204 0.30983,-0.1403 -0.2387,-0.7873 0.79982,-2.007933 3.87296,-4.552145 4.48821,-3.715735 5.25661,-3.752815 6.05662,-0.292259 0.33235,1.437585 0.002,1.751794 -4.09691,3.897817 -4.93503,2.583737 -6.80144,2.925487 -6.78754,1.242797 z m -2.36669,-1.281114 c 0,-1.230495 3.00709,-6.562452 4.10654,-7.281411 0.95397,-0.623821 4.84679,0.226447 4.41571,0.964483 -0.1936,0.331273 -0.6053,0.436555 -0.91511,0.233966 -0.30983,-0.202593 -0.49043,-0.114441 -0.40135,0.1959 0.15928,0.555073 -6.14511,7.012286 -6.84637,7.012286 -0.19759,0 -0.35942,-0.50634 -0.35942,-1.125206 z m -17.104493,-1.08906 c -0.344125,-0.957683 -0.548669,-3.724863 -0.454527,-6.149303 0.134326,-3.457772 0.37512,-4.449219 1.117403,-4.598959 0.7327,-0.147814 1.288972,1.115596 2.464472,5.597217 0.834996,3.183459 1.45076,5.859416 1.368399,5.94656 -0.08242,0.08713 -0.986813,0.335582 -2.009897,0.552089 -1.645981,0.34831 -1.932192,0.19313 -2.48585,-1.347604 z M 102.47699,99.3059 c -1.17127,-0.321005 -1.10361,-1.273733 0.53289,-7.506256 0.91275,-3.476095 2.30069,-4.485487 4.94612,-3.5971 0.99117,0.332854 1.21695,0.836292 1.07403,2.395004 -0.0996,1.085458 -0.4813,1.914406 -0.84838,1.842105 -0.36709,-0.07229 -0.63232,0.348664 -0.58941,0.935478 0.043,0.586814 -0.27326,0.989818 -0.70258,0.895566 -0.42933,-0.09426 -0.62386,0.09695 -0.4323,0.424909 0.46765,0.800601 -1.49203,5.066602 -2.28545,4.975147 -0.34518,-0.03976 -1.10789,-0.203956 -1.69492,-0.364853 z m -7.686284,-0.659984 c -0.598537,-1.024691 -2.150668,-8.23061 -2.150668,-9.984691 0,-1.583036 0.273341,-1.916733 1.841956,-2.248673 3.223747,-0.682196 6.817976,-0.43698 7.565606,0.516166 0.5611,0.715344 0.45225,1.986918 -0.51737,6.043863 -0.67536,2.825855 -1.559449,5.360632 -1.964613,5.63284 -0.942417,0.633155 -4.411538,0.662581 -4.774911,0.04053 z m 25.552074,-0.461943 c 0.40357,-0.514514 1.07076,-0.935478 1.48266,-0.935478 0.41188,0 0.90156,0.420964 1.08815,0.935478 0.25649,0.707195 -0.10536,0.935476 -1.48266,0.935476 -1.55265,0 -1.71347,-0.138267 -1.08815,-0.935476 z M 79.411877,92.622058 c 1.234564,-0.955172 1.794034,-0.850225 1.169286,0.219353 -0.213637,0.365829 -0.821411,0.665145 -1.350513,0.665145 -0.804525,0 -0.774871,-0.144773 0.181111,-0.884488 z m 34.435453,-1.313363 c -1.23287,-1.571821 -0.16731,-1.787481 1.90274,-0.385057 l 1.9403,1.314591 -1.54873,0.01063 c -0.85179,0.0059 -1.88424,-0.417242 -2.29431,-0.940043 z m -3.41249,-1.388143 c 0.10916,-0.600265 0.58924,-1.09139 1.06664,-1.09139 0.4774,0 0.95737,0.491125 1.06664,1.09139 0.13945,0.765748 -0.17889,1.091388 -1.06664,1.091388 -0.88775,0 -1.206,-0.32564 -1.06664,-1.091388 z"
         style="fill:#ffffff;stroke-width:0.99999994" />
    </g>
  </g>
</svg>
