<?xml version="1.0" encoding="UTF-8"?>
<svg width="82.074mm" height="124.82mm" version="1.1" viewBox="0 0 82.074 124.82" xmlns="http://www.w3.org/2000/svg" xmlns:cc="http://creativecommons.org/ns#" xmlns:dc="http://purl.org/dc/elements/1.1/" xmlns:rdf="http://www.w3.org/1999/02/22-rdf-syntax-ns#">
<metadata>
<rdf:RDF>
<cc:Work rdf:about="">
<dc:format>image/svg+xml</dc:format>
<dc:type rdf:resource="http://purl.org/dc/dcmitype/StillImage"/>
<dc:title/>
</cc:Work>
</rdf:RDF>
</metadata>
<defs>
<filter id="a" x="-.12736" y="-.077031" width="1.2547" height="1.1541" color-interpolation-filters="sRGB">
<feGaussianBlur stdDeviation="3.2201253"/>
</filter>
</defs>
<g transform="translate(-57.467 -5.4243)">
<g transform="matrix(1.078 0 0 1.078 -7.6835 -5.291)" filter="url(#a)">
<path d="m78.317 78.902v-9.1401c0-5.027 0.09981-9.6389 0.22171-10.249 0.17025-0.85124 2.456-3.2434 9.8485-10.307 5.2947-5.0592 9.8623-9.3341 10.15-9.4999 0.31929-0.18387 0.83449-0.0927 1.3211 0.23391 0.43877 0.29443 5.0885 4.6501 10.333 9.6793l9.5351 9.144v11.236c0 4.6592 0.0561 15.097 0.13478 19.952-0.21065 2.7104-0.92427 1.5546-1.9554 1.067-3.3422-2.745-7.1668-4.5176-11.121-5.4832-0.70665-0.17254-1.4174-0.31932-2.1304-0.44127-0.75242-0.1287-1.5072-0.22975-2.2621-0.30426-8.1555-0.80499-16.314 1.4885-21.494 5.4826-2.2678 2.0355-2.2098-8.6635-2.5805-11.37zm18.089-1.7345c0.2684-0.2684 0.43589-1.5844 0.43589-3.4248 0-3.8756-0.23848-4.1306-3.8639-4.1306-4.0106 0-4.1274 0.11148-4.1274 3.9358 0 1.9919 0.16317 3.3469 0.43589 3.6196 0.27144 0.27145 1.6144 0.43589 3.5598 0.43589 1.9454 0 3.2883-0.16444 3.5598-0.43589zm12.709-3.1423c0.0677-2.1921-0.0446-3.5768-0.3169-3.9048-0.29963-0.36102-1.2975-0.50828-3.4443-0.50828-3.7682 0-4.1534 0.38032-4.1534 4.1004 0 3.8466 0.1009 3.9364 4.2878 3.813l3.5219-0.10365zm-12.844-9.3428c0.71269-0.7127 0.8206-6.2989 0.13495-6.9846-0.27144-0.27145-1.6144-0.43589-3.5598-0.43589-1.9454 0-3.2883 0.16444-3.5598 0.43589-0.27261 0.27261-0.43589 1.6265-0.43589 3.6144 0 3.8284 0.08869 3.9143 4.0605 3.93 2.0625 8e-3 2.9379-0.13766 3.36-0.55976zm12.527 0.0626c0.27224-0.32805 0.38463-1.7127 0.3169-3.9048l-0.10489-3.3966-3.4449-0.10557c-4.191-0.12837-4.3648 0.0199-4.3648 3.7266 0 3.8189 0.36667 4.1887 4.1534 4.1887 2.1468 0 3.1447-0.14726 3.4443-0.50827zm-37.339-7.9827c-1.0215-1.0408-1.5177-1.8437-1.4378-2.3264 0.17223-1.0405 28.164-27.686 29.085-27.686 0.44708 0 3.4101 2.5793 7.7197 6.72 3.8468 3.696 7.097 6.72 7.2227 6.72 0.12576 0 0.22856-1.7163 0.22856-3.814v-3.814h7.2648v14.956l3.2692 3.103c2.1521 2.0427 3.2692 3.3714 3.2692 3.8884 0 0.8974-2.8188 3.8426-3.6777 3.8426-0.30946 0-5.7791-4.9984-12.155-11.108-6.3757-6.1092-11.951-11.353-12.39-11.653-0.48892-0.33405-1.0008-0.42836-1.3223-0.24363-0.28847 0.16578-5.849 5.4095-12.357 11.653-6.7089 6.4362-12.12 11.351-12.496 11.351-0.36513 0-1.3658-0.71519-2.2237-1.5893zm45.803-27.31c-0.98821-0.69216-1.8962-2.3731-1.8914-3.5015 1e-3 -0.45943 0.41058-1.7097 0.9081-2.7784 1.1-2.3629 1.1249-3.084 0.15334-4.4484-0.64406-0.90448-0.66739-1.055-0.16359-1.055 1.0653 0 2.7561 1.1085 3.1098 2.0389 0.55665 1.4641 0.41133 2.5817-0.59355 4.5647-0.93241 1.84-1.0477 3.523-0.35008 5.1109 0.34588 0.78732-0.10873 0.81397-1.1727 0.06878z" stroke-width=".33696"/>
<path d="m68.194 114.2c0.64466-5.1049 0.45443-5.0493 8.6793-2.5358 3.3794 1.0328 3.9772 1.4245 3.9695 2.6012-0.15636 4.0546-13.378 5.8001-12.649-0.0653zm47.685-1.065c-0.28061-1.105 0.2163-1.4518 3.8578-2.6928 4.4818-1.5273 7.4371-1.8752 8.2209-0.96785 0.2677 0.30991 0.65554 2.1772 0.86186 4.1495 0.64564 6.9596-11.66 4.7231-12.941-0.48884zm-37.878-2.2499c-1.411-0.42991-1.8692-0.86918-1.6209-1.5539 0.19047-0.52499 0.34619-1.0719 0.34619-1.2154 0-0.48265 2.8572-0.2661 4.3356 0.3286 1.0929 0.43965 1.3847 0.91505 1.1485 1.871-0.34266 1.3864-1.164 1.4976-4.2093 0.56969zm-6.4321-1.6155c-1.9487-0.25051-2.4636-1.4057-1.41-3.1633 0.39174-0.65352 1.0315-0.66836 3.2566-0.0755 1.5805 0.42108 2.664 1.0378 2.5242 1.4369-0.13478 0.38456-0.54321 0.62903-0.90791 0.54329-0.36472-0.0858-0.59681 0.1598-0.51574 0.54569 0.18223 0.86779-0.48564 1.0294-2.9471 0.71293zm42.554-0.22156c-0.55189-0.94486 0.17333-1.4938 3.5259-2.6692 3.9274-1.3769 8.1549-1.3828 7.8954-0.011-0.37471 1.9806-10.449 4.3448-11.421 2.6802zm-33.935-2.1333c-1.5-0.41925-3.0818-0.99406-3.515-1.2774-1.3244-0.86608 1.921-1.8607 5.2857-1.6199 3.21 0.22972 3.8105 1.0502 1.9881 2.7165-0.87349 0.79864-1.4492 0.82633-3.7588 0.18082zm46.686-0.047c0.0283-0.72653 0.16797-0.87431 0.3561-0.37679 0.17019 0.45018 0.14926 0.98809-0.0465 1.1953-0.19581 0.20724-0.33516-0.16111-0.30957-0.81854zm-14.262-0.7276c-0.0383-0.25727-0.0318-0.69909 0.0156-0.98184 0.0464-0.28275-0.15728-0.35601-0.45283-0.16278-0.29549 0.19323-0.8495-0.0467-1.2312-0.53335-0.57197-0.72923-7e-3 -1.2211 3.2162-2.7996 2.1505-1.0532 4.2683-1.9149 4.7062-1.9149 0.92384 0 1.8412 3.6334 1.0968 4.3443-0.52724 0.5035-5.9628 2.5159-6.7956 2.5159-0.26642 0-0.51583-0.2105-0.55422-0.46775zm-41.001-1.8019c-0.48872-0.21077-0.33991-0.93866 0.49972-2.4444l1.1957-2.1442 1.7106 1.2888c2.1765 1.6398 2.151 2.1667-0.14569 3.0138-1.9843 0.73191-2.1856 0.74957-3.2604 0.28603zm51.533-0.11052c-0.8915-0.10854-1.6245-0.38918-1.629-0.62366-5e-3 -0.23448-0.16798-1.0578-0.36345-1.8295-0.31258-1.2341-0.13545-1.4032 1.4704-1.4032 1.4474 0 1.9011 0.31755 2.1893 1.5324 0.50496 2.1288 0.20161 2.5516-1.6672 2.324zm-43.175-1.941c-4.3289-1.1054-5.4899-3.141-3.5031-6.1422 0.63577-0.96038 1.5203-1.3861 2.8799-1.3861 1.6244 0 2.1275 0.34909 2.921 2.0269 0.52723 1.1148 1.6524 2.939 2.5004 4.0537l1.5418 2.0269-2.2859-0.0639c-1.2572-0.0352-3.0816-0.26702-4.0541-0.51536zm6.8867-0.8029c-0.50006-0.52909-0.48662-0.95732 0.05302-1.6901 0.62428-0.84777 0.59287-0.87424-0.23052-0.19425-0.76762 0.6339-1.069 0.6339-1.5472 0-1.3083-1.734-2.534-4.9182-2.1479-5.5793 0.25013-0.42821 0.14458-0.52826-0.27062-0.25671-0.39908 0.26098-0.68046 0.05733-0.68046-0.49252 0-1.3296 2.4311-4.026 3.8312-4.2492 1.0789-0.17202 1.2124 0.27851 1.5751 5.3166 0.21787 3.0275 0.53791 5.8951 0.71102 6.3725 0.41732 1.1506-0.44804 1.6677-1.2936 0.77304zm21.709-0.33295c9e-3 -0.94341 0.0953-0.96455 0.64504-0.15592 0.53936 0.79335 0.58643 0.77204 0.30983-0.1403-0.2387-0.7873 0.79982-2.0079 3.873-4.5521 4.4882-3.7157 5.2566-3.7528 6.0566-0.29226 0.33235 1.4376 2e-3 1.7518-4.0969 3.8978-4.935 2.5837-6.8014 2.9255-6.7875 1.2428zm-2.3667-1.2811c0-1.2305 3.0071-6.5625 4.1065-7.2814 0.95397-0.62382 4.8468 0.22645 4.4157 0.96448-0.1936 0.33127-0.6053 0.43656-0.91511 0.23397-0.30983-0.20259-0.49043-0.11444-0.40135 0.1959 0.15928 0.55507-6.1451 7.0123-6.8464 7.0123-0.19759 0-0.35942-0.50634-0.35942-1.1252zm-17.104-1.0891c-0.34412-0.95768-0.54867-3.7249-0.45453-6.1493 0.13433-3.4578 0.37512-4.4492 1.1174-4.599 0.7327-0.14781 1.289 1.1156 2.4645 5.5972 0.835 3.1835 1.4508 5.8594 1.3684 5.9466-0.08242 0.08713-0.98681 0.33558-2.0099 0.55209-1.646 0.34831-1.9322 0.19313-2.4858-1.3476zm13.385 0.52975c-1.1713-0.321-1.1036-1.2737 0.53289-7.5063 0.91275-3.4761 2.3007-4.4855 4.9461-3.5971 0.99117 0.33285 1.217 0.83629 1.074 2.395-0.0996 1.0855-0.4813 1.9144-0.84838 1.8421-0.36709-0.07229-0.63232 0.34866-0.58941 0.93548 0.043 0.58681-0.27326 0.98982-0.70258 0.89557-0.42933-0.09426-0.62386 0.09695-0.4323 0.42491 0.46765 0.8006-1.492 5.0666-2.2854 4.9751-0.34518-0.03976-1.1079-0.20396-1.6949-0.36485zm-7.6863-0.65998c-0.59854-1.0247-2.1507-8.2306-2.1507-9.9847 0-1.583 0.27334-1.9167 1.842-2.2487 3.2237-0.6822 6.818-0.43698 7.5656 0.51617 0.5611 0.71534 0.45225 1.9869-0.51737 6.0439-0.67536 2.8259-1.5594 5.3606-1.9646 5.6328-0.94242 0.63316-4.4115 0.66258-4.7749 0.04053zm25.552-0.46194c0.40357-0.51451 1.0708-0.93548 1.4827-0.93548 0.41188 0 0.90156 0.42096 1.0882 0.93548 0.25649 0.7072-0.10536 0.93548-1.4827 0.93548-1.5526 0-1.7135-0.13827-1.0882-0.93548zm-40.931-5.5619c1.2346-0.95517 1.794-0.85022 1.1693 0.21935-0.21364 0.36583-0.82141 0.66514-1.3505 0.66514-0.80452 0-0.77487-0.14477 0.18111-0.88449zm34.435-1.3134c-1.2329-1.5718-0.16731-1.7875 1.9027-0.38506l1.9403 1.3146-1.5487 0.01063c-0.85179 0.0059-1.8842-0.41724-2.2943-0.94004zm-3.4125-1.3881c0.10916-0.60026 0.58924-1.0914 1.0666-1.0914s0.95737 0.49112 1.0666 1.0914c0.13945 0.76575-0.17889 1.0914-1.0666 1.0914s-1.206-0.32564-1.0666-1.0914z" stroke-width=".92764"/>
</g>
<g fill="#fff">
<path d="m78.317 78.902v-9.1401c0-5.027 0.09981-9.6389 0.22171-10.249 0.17025-0.85124 2.456-3.2434 9.8485-10.307 5.2947-5.0592 9.8623-9.3341 10.15-9.4999 0.31929-0.18387 0.83449-0.0927 1.3211 0.23391 0.43877 0.29443 5.0885 4.6501 10.333 9.6793l9.5351 9.144v11.236c0 4.6592 0.0561 15.097 0.13478 19.952-0.21065 2.7104-0.92427 1.5546-1.9554 1.067-3.3422-2.745-7.1668-4.5176-11.121-5.4832-0.70665-0.17254-1.4174-0.31932-2.1304-0.44127-0.75242-0.1287-1.5072-0.22975-2.2621-0.30426-8.1555-0.80499-16.314 1.4885-21.494 5.4826-2.2678 2.0355-2.2098-8.6635-2.5805-11.37zm18.089-1.7345c0.2684-0.2684 0.43589-1.5844 0.43589-3.4248 0-3.8756-0.23848-4.1306-3.8639-4.1306-4.0106 0-4.1274 0.11148-4.1274 3.9358 0 1.9919 0.16317 3.3469 0.43589 3.6196 0.27144 0.27145 1.6144 0.43589 3.5598 0.43589 1.9454 0 3.2883-0.16444 3.5598-0.43589zm12.709-3.1423c0.0677-2.1921-0.0446-3.5768-0.3169-3.9048-0.29963-0.36102-1.2975-0.50828-3.4443-0.50828-3.7682 0-4.1534 0.38032-4.1534 4.1004 0 3.8466 0.1009 3.9364 4.2878 3.813l3.5219-0.10365zm-12.844-9.3428c0.71269-0.7127 0.8206-6.2989 0.13495-6.9846-0.27144-0.27145-1.6144-0.43589-3.5598-0.43589-1.9454 0-3.2883 0.16444-3.5598 0.43589-0.27261 0.27261-0.43589 1.6265-0.43589 3.6144 0 3.8284 0.08869 3.9143 4.0605 3.93 2.0625 8e-3 2.9379-0.13766 3.36-0.55976zm12.527 0.0626c0.27224-0.32805 0.38463-1.7127 0.3169-3.9048l-0.10489-3.3966-3.4449-0.10557c-4.191-0.12837-4.3648 0.0199-4.3648 3.7266 0 3.8189 0.36667 4.1887 4.1534 4.1887 2.1468 0 3.1447-0.14726 3.4443-0.50827zm-37.339-7.9827c-1.0215-1.0408-1.5177-1.8437-1.4378-2.3264 0.17223-1.0405 28.164-27.686 29.085-27.686 0.44708 0 3.4101 2.5793 7.7197 6.72 3.8468 3.696 7.097 6.72 7.2227 6.72 0.12576 0 0.22856-1.7163 0.22856-3.814v-3.814h7.2648v14.956l3.2692 3.103c2.1521 2.0427 3.2692 3.3714 3.2692 3.8884 0 0.8974-2.8188 3.8426-3.6777 3.8426-0.30946 0-5.7791-4.9984-12.155-11.108-6.3757-6.1092-11.951-11.353-12.39-11.653-0.48892-0.33405-1.0008-0.42836-1.3223-0.24363-0.28847 0.16578-5.849 5.4095-12.357 11.653-6.7089 6.4362-12.12 11.351-12.496 11.351-0.36513 0-1.3658-0.71519-2.2237-1.5893zm45.803-27.31c-0.98821-0.69216-1.8962-2.3731-1.8914-3.5015 1e-3 -0.45943 0.41058-1.7097 0.9081-2.7784 1.1-2.3629 1.1249-3.084 0.15334-4.4484-0.64406-0.90448-0.66739-1.055-0.16359-1.055 1.0653 0 2.7561 1.1085 3.1098 2.0389 0.55665 1.4641 0.41133 2.5817-0.59355 4.5647-0.93241 1.84-1.0477 3.523-0.35008 5.1109 0.34588 0.78732-0.10873 0.81397-1.1727 0.06878z" stroke-width=".36324"/>
<path d="m68.194 114.2c0.64466-5.1049 0.45443-5.0493 8.6793-2.5358 3.3794 1.0328 3.9772 1.4245 3.9695 2.6012-0.15636 4.0546-13.378 5.8001-12.649-0.0653zm47.685-1.065c-0.28061-1.105 0.2163-1.4518 3.8578-2.6928 4.4818-1.5273 7.4371-1.8752 8.2209-0.96785 0.2677 0.30991 0.65554 2.1772 0.86186 4.1495 0.64564 6.9596-11.66 4.7231-12.941-0.48884zm-37.878-2.2499c-1.411-0.42991-1.8692-0.86918-1.6209-1.5539 0.19047-0.52499 0.34619-1.0719 0.34619-1.2154 0-0.48265 2.8572-0.2661 4.3356 0.3286 1.0929 0.43965 1.3847 0.91505 1.1485 1.871-0.34266 1.3864-1.164 1.4976-4.2093 0.56969zm-6.4321-1.6155c-1.9487-0.25051-2.4636-1.4057-1.41-3.1633 0.39174-0.65352 1.0315-0.66836 3.2566-0.0755 1.5805 0.42108 2.664 1.0378 2.5242 1.4369-0.13478 0.38456-0.54321 0.62903-0.90791 0.54329-0.36472-0.0858-0.59681 0.1598-0.51574 0.54569 0.18223 0.86779-0.48564 1.0294-2.9471 0.71293zm42.554-0.22156c-0.55189-0.94486 0.17333-1.4938 3.5259-2.6692 3.9274-1.3769 8.1549-1.3828 7.8954-0.011-0.37471 1.9806-10.449 4.3448-11.421 2.6802zm-33.935-2.1333c-1.5-0.41925-3.0818-0.99406-3.515-1.2774-1.3244-0.86608 1.921-1.8607 5.2857-1.6199 3.21 0.22972 3.8105 1.0502 1.9881 2.7165-0.87349 0.79864-1.4492 0.82633-3.7588 0.18082zm46.686-0.047c0.0283-0.72653 0.16797-0.87431 0.3561-0.37679 0.17019 0.45018 0.14926 0.98809-0.0465 1.1953-0.19581 0.20724-0.33516-0.16111-0.30957-0.81854zm-14.262-0.7276c-0.0383-0.25727-0.0318-0.69909 0.0156-0.98184 0.0464-0.28275-0.15728-0.35601-0.45283-0.16278-0.29549 0.19323-0.8495-0.0467-1.2312-0.53335-0.57197-0.72923-7e-3 -1.2211 3.2162-2.7996 2.1505-1.0532 4.2683-1.9149 4.7062-1.9149 0.92384 0 1.8412 3.6334 1.0968 4.3443-0.52724 0.5035-5.9628 2.5159-6.7956 2.5159-0.26642 0-0.51583-0.2105-0.55422-0.46775zm-41.001-1.8019c-0.48872-0.21077-0.33991-0.93866 0.49972-2.4444l1.1957-2.1442 1.7106 1.2888c2.1765 1.6398 2.151 2.1667-0.14569 3.0138-1.9843 0.73191-2.1856 0.74957-3.2604 0.28603zm51.533-0.11052c-0.8915-0.10854-1.6245-0.38918-1.629-0.62366-5e-3 -0.23448-0.16798-1.0578-0.36345-1.8295-0.31258-1.2341-0.13545-1.4032 1.4704-1.4032 1.4474 0 1.9011 0.31755 2.1893 1.5324 0.50496 2.1288 0.20161 2.5516-1.6672 2.324zm-43.175-1.941c-4.3289-1.1054-5.4899-3.141-3.5031-6.1422 0.63577-0.96038 1.5203-1.3861 2.8799-1.3861 1.6244 0 2.1275 0.34909 2.921 2.0269 0.52723 1.1148 1.6524 2.939 2.5004 4.0537l1.5418 2.0269-2.2859-0.0639c-1.2572-0.0352-3.0816-0.26702-4.0541-0.51536zm6.8867-0.8029c-0.50006-0.52909-0.48662-0.95732 0.05302-1.6901 0.62428-0.84777 0.59287-0.87424-0.23052-0.19425-0.76762 0.6339-1.069 0.6339-1.5472 0-1.3083-1.734-2.534-4.9182-2.1479-5.5793 0.25013-0.42821 0.14458-0.52826-0.27062-0.25671-0.39908 0.26098-0.68046 0.05733-0.68046-0.49252 0-1.3296 2.4311-4.026 3.8312-4.2492 1.0789-0.17202 1.2124 0.27851 1.5751 5.3166 0.21787 3.0275 0.53791 5.8951 0.71102 6.3725 0.41732 1.1506-0.44804 1.6677-1.2936 0.77304zm21.709-0.33295c9e-3 -0.94341 0.0953-0.96455 0.64504-0.15592 0.53936 0.79335 0.58643 0.77204 0.30983-0.1403-0.2387-0.7873 0.79982-2.0079 3.873-4.5521 4.4882-3.7157 5.2566-3.7528 6.0566-0.29226 0.33235 1.4376 2e-3 1.7518-4.0969 3.8978-4.935 2.5837-6.8014 2.9255-6.7875 1.2428zm-2.3667-1.2811c0-1.2305 3.0071-6.5625 4.1065-7.2814 0.95397-0.62382 4.8468 0.22645 4.4157 0.96448-0.1936 0.33127-0.6053 0.43656-0.91511 0.23397-0.30983-0.20259-0.49043-0.11444-0.40135 0.1959 0.15928 0.55507-6.1451 7.0123-6.8464 7.0123-0.19759 0-0.35942-0.50634-0.35942-1.1252zm-17.104-1.0891c-0.34412-0.95768-0.54867-3.7249-0.45453-6.1493 0.13433-3.4578 0.37512-4.4492 1.1174-4.599 0.7327-0.14781 1.289 1.1156 2.4645 5.5972 0.835 3.1835 1.4508 5.8594 1.3684 5.9466-0.08242 0.08713-0.98681 0.33558-2.0099 0.55209-1.646 0.34831-1.9322 0.19313-2.4858-1.3476zm13.385 0.52975c-1.1713-0.321-1.1036-1.2737 0.53289-7.5063 0.91275-3.4761 2.3007-4.4855 4.9461-3.5971 0.99117 0.33285 1.217 0.83629 1.074 2.395-0.0996 1.0855-0.4813 1.9144-0.84838 1.8421-0.36709-0.07229-0.63232 0.34866-0.58941 0.93548 0.043 0.58681-0.27326 0.98982-0.70258 0.89557-0.42933-0.09426-0.62386 0.09695-0.4323 0.42491 0.46765 0.8006-1.492 5.0666-2.2854 4.9751-0.34518-0.03976-1.1079-0.20396-1.6949-0.36485zm-7.6863-0.65998c-0.59854-1.0247-2.1507-8.2306-2.1507-9.9847 0-1.583 0.27334-1.9167 1.842-2.2487 3.2237-0.6822 6.818-0.43698 7.5656 0.51617 0.5611 0.71534 0.45225 1.9869-0.51737 6.0439-0.67536 2.8259-1.5594 5.3606-1.9646 5.6328-0.94242 0.63316-4.4115 0.66258-4.7749 0.04053zm25.552-0.46194c0.40357-0.51451 1.0708-0.93548 1.4827-0.93548 0.41188 0 0.90156 0.42096 1.0882 0.93548 0.25649 0.7072-0.10536 0.93548-1.4827 0.93548-1.5526 0-1.7135-0.13827-1.0882-0.93548zm-40.931-5.5619c1.2346-0.95517 1.794-0.85022 1.1693 0.21935-0.21364 0.36583-0.82141 0.66514-1.3505 0.66514-0.80452 0-0.77487-0.14477 0.18111-0.88449zm34.435-1.3134c-1.2329-1.5718-0.16731-1.7875 1.9027-0.38506l1.9403 1.3146-1.5487 0.01063c-0.85179 0.0059-1.8842-0.41724-2.2943-0.94004zm-3.4125-1.3881c0.10916-0.60026 0.58924-1.0914 1.0666-1.0914s0.95737 0.49112 1.0666 1.0914c0.13945 0.76575-0.17889 1.0914-1.0666 1.0914s-1.206-0.32564-1.0666-1.0914z"/>
</g>
</g>
</svg>
