<svg width="310.201" height="471.761" viewBox="0 0 82.074 124.82" xmlns="http://www.w3.org/2000/svg"><defs><filter id="a" x="-.127" y="-.077" width="1.255" height="1.154" color-interpolation-filters="sRGB"><feGaussianBlur stdDeviation="3.22"/></filter></defs><g transform="translate(-65.15 -10.715) scale(1.078)" filter="url(#a)"><path d="M78.317 78.902v-9.14c0-5.027.1-9.639.222-10.25.17-.85 2.456-3.243 9.848-10.306 5.295-5.06 9.863-9.334 10.15-9.5.32-.184.835-.093 1.321.234.44.294 5.089 4.65 10.333 9.68l9.535 9.143V70c0 4.66.057 15.097.135 19.952-.21 2.71-.924 1.555-1.955 1.067-3.342-2.745-7.167-4.517-11.121-5.483a31.052 31.052 0 0 0-2.13-.441 32.147 32.147 0 0 0-2.263-.305c-8.155-.805-16.314 1.489-21.494 5.483-2.268 2.036-2.21-8.663-2.58-11.37zm18.089-1.734c.268-.269.436-1.585.436-3.425 0-3.876-.239-4.13-3.864-4.13-4.01 0-4.127.11-4.127 3.935 0 1.992.163 3.347.435 3.62.272.27 1.615.435 3.56.435 1.946 0 3.289-.164 3.56-.435zm12.709-3.143c.068-2.192-.045-3.577-.317-3.905-.3-.36-1.297-.508-3.444-.508-3.768 0-4.154.38-4.154 4.1 0 3.847.101 3.937 4.288 3.814l3.522-.104zm-12.844-9.343c.713-.712.82-6.299.135-6.984-.271-.272-1.614-.436-3.56-.436-1.945 0-3.288.164-3.56.436-.272.272-.436 1.626-.436 3.614 0 3.829.09 3.915 4.061 3.93 2.062.008 2.938-.137 3.36-.56zm12.527.063c.272-.328.385-1.713.317-3.905l-.105-3.396-3.445-.106c-4.19-.128-4.365.02-4.365 3.727 0 3.819.367 4.188 4.154 4.188 2.147 0 3.144-.147 3.444-.508zm-37.339-7.983c-1.022-1.04-1.518-1.843-1.438-2.326.172-1.04 28.164-27.686 29.085-27.686.447 0 3.41 2.58 7.72 6.72 3.847 3.696 7.097 6.72 7.223 6.72.125 0 .228-1.716.228-3.814v-3.814h7.265v14.956l3.27 3.103c2.151 2.043 3.268 3.371 3.268 3.888 0 .898-2.818 3.843-3.677 3.843-.31 0-5.78-4.999-12.155-11.108-6.376-6.11-11.951-11.353-12.39-11.653-.49-.334-1.001-.428-1.323-.244-.288.166-5.849 5.41-12.357 11.653-6.709 6.436-12.12 11.351-12.496 11.351-.365 0-1.365-.715-2.223-1.589zm45.803-27.31c-.988-.692-1.896-2.373-1.891-3.501 0-.46.41-1.71.908-2.779 1.1-2.362 1.125-3.084.153-4.448-.644-.904-.667-1.055-.164-1.055 1.066 0 2.757 1.109 3.11 2.039.557 1.464.412 2.582-.593 4.565-.933 1.84-1.048 3.523-.35 5.11.346.788-.11.814-1.173.07z"/><path d="M68.194 114.2c.645-5.105.454-5.05 8.68-2.536 3.379 1.033 3.977 1.425 3.969 2.601-.157 4.055-13.378 5.8-12.65-.065zm47.685-1.065c-.28-1.105.216-1.452 3.858-2.693 4.482-1.527 7.437-1.875 8.22-.968.268.31.656 2.178.863 4.15.645 6.96-11.66 4.723-12.941-.489zm-37.878-2.25c-1.411-.43-1.87-.87-1.62-1.554.19-.525.345-1.072.345-1.215 0-.483 2.857-.266 4.336.328 1.093.44 1.385.915 1.148 1.871-.342 1.387-1.164 1.498-4.209.57zm-6.432-1.615c-1.949-.25-2.464-1.406-1.41-3.164.392-.653 1.031-.668 3.256-.075 1.581.42 2.665 1.038 2.525 1.437-.135.384-.544.629-.908.543-.365-.086-.597.16-.516.546.182.867-.486 1.03-2.947.713zm42.554-.222c-.552-.945.173-1.494 3.526-2.67 3.927-1.376 8.155-1.382 7.895-.01-.375 1.98-10.449 4.345-11.42 2.68zm-33.935-2.133c-1.5-.42-3.082-.994-3.515-1.278-1.325-.866 1.92-1.86 5.286-1.62 3.21.23 3.81 1.05 1.988 2.717-.874.799-1.45.826-3.76.18zm46.686-.047c.028-.727.168-.875.356-.377.17.45.15.988-.047 1.195-.195.207-.335-.16-.31-.818zm-14.262-.728c-.038-.257-.032-.699.015-.982.047-.282-.157-.356-.452-.162-.296.193-.85-.047-1.232-.534-.572-.73-.007-1.22 3.217-2.8 2.15-1.053 4.268-1.914 4.706-1.914.924 0 1.841 3.633 1.097 4.344-.528.503-5.963 2.516-6.796 2.516a.575.575 0 0 1-.554-.468zm-41.001-1.802c-.489-.21-.34-.938.5-2.444l1.195-2.144 1.71 1.288c2.177 1.64 2.152 2.167-.145 3.014-1.984.732-2.185.75-3.26.286zm51.533-.11c-.892-.109-1.625-.39-1.63-.624-.004-.234-.167-1.058-.363-1.83-.312-1.234-.135-1.403 1.47-1.403 1.448 0 1.902.318 2.19 1.533.505 2.129.202 2.551-1.667 2.324zm-43.175-1.941c-4.329-1.106-5.49-3.141-3.503-6.142.636-.96 1.52-1.387 2.88-1.387 1.624 0 2.127.35 2.92 2.027.528 1.115 1.653 2.94 2.501 4.054l1.542 2.027-2.286-.064c-1.257-.035-3.082-.267-4.054-.515zm6.887-.803c-.5-.53-.487-.957.053-1.69.624-.848.592-.875-.23-.195-.769.634-1.07.634-1.548 0-1.308-1.734-2.534-4.918-2.148-5.579.25-.428.145-.528-.27-.257-.4.261-.681.058-.681-.492 0-1.33 2.431-4.026 3.831-4.25 1.079-.171 1.213.28 1.575 5.317.218 3.028.538 5.895.711 6.373.418 1.15-.448 1.668-1.293.773zm21.709-.333c.009-.944.095-.965.645-.156.539.793.586.772.31-.14-.24-.788.8-2.008 3.872-4.552 4.489-3.716 5.257-3.753 6.057-.293.332 1.438.002 1.752-4.097 3.898-4.935 2.584-6.801 2.926-6.787 1.243zm-2.367-1.281c0-1.23 3.007-6.563 4.106-7.282.954-.623 4.847.227 4.416.965a.647.647 0 0 1-.915.234c-.31-.203-.49-.115-.401.196.159.555-6.145 7.012-6.847 7.012-.197 0-.36-.506-.36-1.125zm-17.104-1.09c-.344-.957-.549-3.724-.455-6.149.135-3.457.375-4.449 1.118-4.599.732-.147 1.289 1.116 2.464 5.598.835 3.183 1.451 5.859 1.369 5.946-.083.087-.987.336-2.01.552-1.646.349-1.932.193-2.486-1.347zm13.385.53c-1.171-.32-1.104-1.273.533-7.506.913-3.476 2.3-4.485 4.946-3.597.991.333 1.217.836 1.074 2.395-.1 1.086-.481 1.914-.848 1.842-.368-.072-.633.349-.59.936.043.586-.273.99-.702.895-.43-.094-.624.097-.433.425.468.8-1.492 5.067-2.285 4.975-.345-.04-1.108-.204-1.695-.365zm-7.686-.66c-.599-1.024-2.151-8.23-2.151-9.984 0-1.583.273-1.917 1.842-2.249 3.224-.682 6.818-.437 7.566.516.56.716.452 1.987-.518 6.044-.675 2.826-1.56 5.36-1.964 5.633-.943.633-4.412.662-4.775.04zm25.552-.461c.403-.515 1.07-.936 1.482-.936.412 0 .902.421 1.089.936.256.707-.106.935-1.483.935-1.553 0-1.714-.138-1.088-.935zm-40.931-5.562c1.234-.956 1.794-.85 1.169.219-.214.366-.822.665-1.35.665-.805 0-.775-.145.18-.884zm34.435-1.314c-1.233-1.572-.168-1.787 1.902-.385l1.94 1.315-1.548.01c-.852.006-1.884-.417-2.294-.94zm-3.413-1.388c.11-.6.59-1.091 1.067-1.091s.957.49 1.066 1.091c.14.766-.179 1.092-1.066 1.092s-1.206-.326-1.067-1.092z"/></g><g fill="#fff"><path d="M20.85 73.478v-9.14c0-5.027.1-9.64.222-10.25.17-.85 2.456-3.243 9.848-10.306 5.295-5.06 9.863-9.335 10.15-9.5.32-.184.835-.093 1.321.234.44.294 5.089 4.65 10.333 9.679l9.535 9.144v11.236c0 4.66.057 15.097.135 19.952-.21 2.71-.924 1.555-1.955 1.067-3.342-2.745-7.167-4.518-11.121-5.483a31.052 31.052 0 0 0-2.13-.442 32.147 32.147 0 0 0-2.263-.304c-8.155-.805-16.314 1.489-21.494 5.483-2.268 2.035-2.21-8.664-2.58-11.37zm18.089-1.735c.268-.268.436-1.584.436-3.425 0-3.875-.239-4.13-3.864-4.13-4.01 0-4.127.111-4.127 3.936 0 1.992.163 3.347.435 3.62.272.27 1.615.435 3.56.435 1.946 0 3.289-.164 3.56-.436zm12.709-3.142c.068-2.192-.045-3.577-.317-3.905-.3-.36-1.297-.508-3.444-.508-3.768 0-4.154.38-4.154 4.1 0 3.847.101 3.937 4.288 3.813l3.522-.103zm-12.844-9.343c.713-.713.82-6.299.135-6.985-.271-.271-1.614-.435-3.56-.435-1.945 0-3.288.164-3.56.435-.272.273-.436 1.627-.436 3.615 0 3.828.09 3.914 4.061 3.93 2.062.008 2.938-.138 3.36-.56zm12.527.063c.272-.328.385-1.713.317-3.905l-.105-3.397-3.445-.105c-4.19-.129-4.365.02-4.365 3.726 0 3.82.367 4.189 4.154 4.189 2.147 0 3.144-.147 3.444-.508zm-37.339-7.983c-1.022-1.04-1.518-1.844-1.438-2.326.172-1.04 28.164-27.686 29.085-27.686.447 0 3.41 2.579 7.72 6.72 3.847 3.696 7.097 6.72 7.223 6.72.125 0 .228-1.717.228-3.814v-3.814h7.265v14.956l3.27 3.103c2.151 2.042 3.268 3.371 3.268 3.888 0 .897-2.818 3.843-3.677 3.843-.31 0-5.78-4.999-12.155-11.108-6.376-6.11-11.951-11.353-12.39-11.653-.49-.334-1.001-.429-1.323-.244-.288.166-5.849 5.41-12.357 11.653-6.709 6.436-12.12 11.351-12.496 11.351-.365 0-1.365-.715-2.223-1.59zm45.803-27.31c-.988-.692-1.896-2.373-1.891-3.501 0-.46.41-1.71.908-2.779 1.1-2.363 1.125-3.084.153-4.448-.644-.905-.667-1.055-.164-1.055 1.066 0 2.757 1.108 3.11 2.039.557 1.464.412 2.581-.593 4.564-.933 1.84-1.048 3.523-.35 5.111.345.788-.11.814-1.173.069z"/><path d="M10.727 108.776c.645-5.105.454-5.05 8.68-2.536 3.379 1.033 3.977 1.424 3.969 2.601-.157 4.055-13.378 5.8-12.65-.065zm47.685-1.065c-.28-1.105.216-1.452 3.858-2.693 4.482-1.527 7.437-1.875 8.22-.968.268.31.656 2.177.863 4.15.645 6.96-11.66 4.723-12.941-.49zm-37.878-2.25c-1.411-.43-1.87-.87-1.62-1.554.19-.525.345-1.072.345-1.215 0-.483 2.857-.267 4.336.328 1.093.44 1.385.915 1.148 1.871-.342 1.386-1.164 1.498-4.209.57zm-6.432-1.616c-1.949-.25-2.464-1.405-1.41-3.163.392-.654 1.031-.668 3.257-.075 1.58.42 2.664 1.037 2.524 1.436-.135.385-.544.63-.908.544-.365-.086-.597.16-.516.545.182.868-.486 1.03-2.947.713zm42.554-.221c-.552-.945.173-1.494 3.526-2.67 3.927-1.376 8.155-1.382 7.895-.01-.375 1.98-10.449 4.344-11.42 2.68zM22.72 101.49c-1.5-.419-3.082-.994-3.515-1.277-1.324-.866 1.92-1.86 5.286-1.62 3.21.23 3.81 1.05 1.988 2.717-.874.798-1.45.826-3.76.18zm46.686-.047c.028-.726.168-.874.356-.376.17.45.15.988-.046 1.195-.196.207-.336-.161-.31-.819zm-14.262-.727c-.038-.257-.032-.7.016-.982.046-.283-.158-.356-.453-.163-.296.193-.85-.046-1.232-.533-.571-.73-.007-1.221 3.217-2.8 2.15-1.053 4.268-1.915 4.706-1.915.924 0 1.841 3.634 1.097 4.345-.528.503-5.963 2.516-6.796 2.516a.575.575 0 0 1-.554-.468zm-41.001-1.802c-.489-.21-.34-.939.5-2.444l1.195-2.145 1.71 1.29c2.177 1.639 2.152 2.166-.145 3.013-1.984.732-2.185.75-3.26.286zm51.533-.11c-.892-.11-1.625-.39-1.63-.624-.004-.235-.167-1.058-.363-1.83-.312-1.234-.135-1.403 1.47-1.403 1.448 0 1.902.318 2.19 1.532.505 2.13.202 2.552-1.667 2.324zm-43.175-1.942c-4.329-1.105-5.49-3.14-3.503-6.142.636-.96 1.52-1.386 2.88-1.386 1.624 0 2.127.35 2.92 2.027.528 1.115 1.653 2.939 2.501 4.054l1.542 2.027-2.286-.064c-1.257-.035-3.082-.267-4.054-.516zm6.887-.802c-.5-.53-.487-.958.053-1.69.624-.848.592-.875-.23-.195-.769.634-1.07.634-1.548 0-1.308-1.734-2.534-4.918-2.148-5.58.25-.427.145-.527-.27-.256-.4.261-.681.057-.681-.492 0-1.33 2.431-4.026 3.831-4.25 1.079-.172 1.213.279 1.575 5.317.218 3.028.538 5.895.711 6.373.418 1.15-.448 1.667-1.293.773zm21.709-.333c.009-.944.095-.965.645-.156.539.793.586.772.31-.14-.24-.788.8-2.009 3.872-4.553 4.489-3.715 5.257-3.753 6.057-.292.332 1.438.002 1.752-4.097 3.898-4.935 2.583-6.801 2.925-6.787 1.243zm-2.367-1.282c0-1.23 3.007-6.562 4.106-7.28.954-.625 4.847.226 4.416.964a.647.647 0 0 1-.915.234c-.31-.203-.49-.115-.401.195.159.555-6.145 7.013-6.847 7.013-.197 0-.36-.507-.36-1.125zm-17.104-1.089c-.344-.957-.549-3.725-.455-6.149.135-3.458.375-4.45 1.118-4.599.732-.148 1.289 1.116 2.464 5.597.835 3.184 1.451 5.86 1.369 5.947-.083.087-.987.335-2.01.552-1.646.348-1.932.193-2.486-1.348zm13.385.53c-1.171-.32-1.104-1.274.533-7.506.913-3.476 2.3-4.486 4.946-3.597.991.333 1.217.836 1.074 2.395-.1 1.085-.481 1.914-.848 1.842-.368-.072-.633.348-.59.935.043.587-.273.99-.702.896-.43-.094-.624.097-.433.425.468.8-1.492 5.066-2.285 4.975-.345-.04-1.108-.204-1.695-.365zm-7.686-.66c-.599-1.025-2.151-8.23-2.151-9.985 0-1.583.273-1.916 1.842-2.248 3.224-.682 6.818-.437 7.566.516.56.715.452 1.987-.518 6.044-.675 2.826-1.56 5.36-1.964 5.633-.943.633-4.412.662-4.775.04zm25.552-.462c.403-.514 1.07-.935 1.482-.935.412 0 .902.42 1.089.935.256.707-.106.936-1.483.936-1.553 0-1.714-.139-1.088-.936zm-40.931-5.562c1.234-.955 1.794-.85 1.169.22-.214.365-.822.665-1.35.665-.805 0-.775-.145.18-.885zm34.435-1.313c-1.233-1.572-.168-1.788 1.902-.385l1.94 1.314-1.548.011c-.852.006-1.884-.417-2.294-.94zM52.969 84.5c.11-.6.59-1.092 1.067-1.092s.957.492 1.066 1.092c.14.766-.179 1.091-1.066 1.091s-1.206-.325-1.067-1.091z"/></g></svg>