<?xml version="1.0" encoding="UTF-8" standalone="no"?>
<!-- Created with Inkscape (http://www.inkscape.org/) -->

<svg
   xmlns:dc="http://purl.org/dc/elements/1.1/"
   xmlns:cc="http://creativecommons.org/ns#"
   xmlns:rdf="http://www.w3.org/1999/02/22-rdf-syntax-ns#"
   xmlns:svg="http://www.w3.org/2000/svg"
   xmlns="http://www.w3.org/2000/svg"
   xmlns:sodipodi="http://sodipodi.sourceforge.net/DTD/sodipodi-0.dtd"
   xmlns:inkscape="http://www.inkscape.org/namespaces/inkscape"
   width="54.227486mm"
   height="41.019173mm"
   viewBox="0 0 54.227485 41.019174"
   version="1.1"
   id="svg8"
   inkscape:version="0.92.4 (5da689c313, 2019-01-14)"
   sodipodi:docname="mountain.svg">
  <defs
     id="defs2" />
  <sodipodi:namedview
     id="base"
     pagecolor="#ffffff"
     bordercolor="#666666"
     borderopacity="1.0"
     inkscape:pageopacity="0.0"
     inkscape:pageshadow="2"
     inkscape:zoom="0.49497475"
     inkscape:cx="55.446817"
     inkscape:cy="-346.8456"
     inkscape:document-units="mm"
     inkscape:current-layer="layer1"
     showgrid="false"
     fit-margin-top="0"
     fit-margin-left="0"
     fit-margin-right="0"
     fit-margin-bottom="0"
     inkscape:window-width="1920"
     inkscape:window-height="1017"
     inkscape:window-x="1072"
     inkscape:window-y="394"
     inkscape:window-maximized="1" />
  <metadata
     id="metadata5">
    <rdf:RDF>
      <cc:Work
         rdf:about="">
        <dc:format>image/svg+xml</dc:format>
        <dc:type
           rdf:resource="http://purl.org/dc/dcmitype/StillImage" />
        <dc:title></dc:title>
      </cc:Work>
    </rdf:RDF>
  </metadata>
  <g
     inkscape:label="Layer 1"
     inkscape:groupmode="layer"
     id="layer1"
     transform="translate(-30.880656,-20.118928)">
    <path
       style="fill:#ffffff;stroke-width:0.99999994"
       d="m 30.880656,61.092531 c 0,-0.02506 2.551255,-4.864711 5.669454,-10.754761 3.118201,-5.890055 5.717258,-10.799627 5.775683,-10.91017 0.09374,-0.177362 0.316088,0.0086 1.891337,1.581802 l 1.785108,1.782791 6.556502,-11.32406 c 3.606078,-6.228233 6.597008,-11.335354 6.646511,-11.349157 0.0495,-0.0138 1.648627,2.977167 3.553613,6.646595 3.757098,7.237023 4.154782,8.004153 8.605057,16.599159 1.641546,3.170384 3.297044,6.357338 3.678889,7.082122 l 0.694254,1.317779 1.149031,-1.72442 1.149027,-1.724424 0.265895,0.460014 c 0.683366,1.182267 6.807125,12.249688 6.807125,12.30246 0,0.03292 -0.59141,0.05984 -1.314245,0.05984 H 82.479652 L 80.19778,57.028348 c -1.25503,-2.260371 -2.308858,-4.108728 -2.34184,-4.107465 -0.03296,0.0012 -0.564351,0.768809 -1.180811,1.705655 -0.616464,0.936847 -1.144863,1.704183 -1.174218,1.705188 -0.02937,8.07e-4 -2.176425,-4.093037 -4.771267,-9.097883 -2.594842,-5.004846 -4.764912,-9.099718 -4.822376,-9.099718 -0.05747,0 -0.680945,0.492375 -1.385503,1.094157 -0.704563,0.601787 -1.305115,1.094156 -1.334559,1.094156 -0.02945,0 -0.949144,-0.768577 -2.043769,-1.707949 -1.094625,-0.939373 -2.022786,-1.707838 -2.062582,-1.707701 -0.03978,1.09e-4 -0.972643,0.771798 -2.072989,1.714793 -1.29709,1.111607 -2.04786,1.686191 -2.134942,1.63393 -0.07387,-0.04433 -0.798946,-0.654018 -1.611283,-1.354849 -1.231077,-1.062099 -1.499551,-1.249749 -1.612595,-1.127135 -0.07459,0.08091 -1.251907,2.08056 -2.616265,4.443673 -1.364357,2.36311 -2.512681,4.296567 -2.551833,4.296567 -0.03915,0 -0.814583,-0.744561 -1.723181,-1.654582 -0.908597,-0.910017 -1.681175,-1.654578 -1.716837,-1.654578 -0.03566,0 -2.197872,4.034751 -4.804907,8.966112 l -4.740065,8.966107 -1.307651,8.07e-4 c -0.719208,3.51e-4 -1.307651,-0.01989 -1.307651,-0.04494 z M 57.034203,35.518824 c 1.064064,-0.910017 1.970815,-1.667658 2.015001,-1.683647 0.04419,-0.01598 0.976429,0.740579 2.071656,1.681267 1.095226,0.940683 2.024984,1.710335 2.066136,1.710335 0.06168,0 0.937581,-0.712244 1.514741,-1.231723 0.116304,-0.10468 -0.37923,-1.13309 -2.704541,-5.612862 -1.56581,-3.016584 -2.858886,-5.496776 -2.873491,-5.511539 -0.05301,-0.05357 -6.155923,10.566244 -6.124922,10.658114 0.06073,0.179957 1.847142,1.688408 1.973669,1.666569 0.0699,-0.01206 0.997688,-0.766493 2.061751,-1.676514 z"
       id="path826"
       inkscape:connector-curvature="0" />
  </g>
</svg>
