<svg width="204.952" height="155.032" viewBox="0 0 54.227 41.019" xmlns="http://www.w3.org/2000/svg"><path d="M0 40.974c0-.025 2.551-4.865 5.67-10.755l5.775-10.91c.094-.177.316.009 1.891 1.582l1.786 1.783 6.556-11.324C25.284 5.12 28.275.015 28.325 0c.05-.013 1.648 2.978 3.553 6.647 3.757 7.237 4.155 8.004 8.605 16.6 1.642 3.17 3.297 6.357 3.68 7.081l.693 1.318 2.299-3.449.265.46c.684 1.183 6.808 12.25 6.808 12.302 0 .033-.592.06-1.315.06H51.6l-2.282-4.11c-1.255-2.26-2.309-4.108-2.342-4.107-.033.001-.564.769-1.18 1.706-.617.936-1.145 1.704-1.175 1.705-.029 0-2.176-4.093-4.77-9.098s-4.766-9.1-4.823-9.1c-.058 0-.681.493-1.386 1.094-.704.602-1.305 1.095-1.334 1.095-.03 0-.95-.769-2.044-1.708-1.095-.94-2.023-1.708-2.063-1.708-.04 0-.972.772-2.073 1.715-1.297 1.111-2.048 1.686-2.135 1.634-.074-.045-.799-.654-1.611-1.355-1.231-1.062-1.5-1.25-1.613-1.127-.074.08-1.251 2.08-2.616 4.443-1.364 2.364-2.513 4.297-2.552 4.297-.039 0-.814-.745-1.723-1.655-.908-.91-1.681-1.654-1.717-1.654-.035 0-2.198 4.035-4.805 8.966l-4.74 8.966H1.308C.588 41.02 0 41 0 40.975zM26.154 15.4c1.064-.91 1.97-1.668 2.015-1.684.044-.016.976.741 2.072 1.682 1.095.94 2.025 1.71 2.066 1.71.061 0 .937-.712 1.515-1.232.116-.104-.38-1.133-2.705-5.613a872.151 872.151 0 0 0-2.873-5.511c-.054-.054-6.156 10.566-6.125 10.658.06.18 1.847 1.688 1.973 1.667.07-.013.998-.767 2.062-1.677z" fill="#fff"/></svg>