<?xml version="1.0" encoding="UTF-8"?>
<svg width="54.227mm" height="41.019mm" version="1.1" viewBox="0 0 54.227 41.019" xmlns="http://www.w3.org/2000/svg" xmlns:cc="http://creativecommons.org/ns#" xmlns:dc="http://purl.org/dc/elements/1.1/" xmlns:rdf="http://www.w3.org/1999/02/22-rdf-syntax-ns#">
<metadata>
<rdf:RDF>
<cc:Work rdf:about="">
<dc:format>image/svg+xml</dc:format>
<dc:type rdf:resource="http://purl.org/dc/dcmitype/StillImage"/>
<dc:title/>
</cc:Work>
</rdf:RDF>
</metadata>
<g transform="translate(-30.881 -20.119)">
<path d="m30.881 61.093c0-0.02506 2.5513-4.8647 5.6695-10.755 3.1182-5.8901 5.7173-10.8 5.7757-10.91 0.09374-0.17736 0.31609 0.0086 1.8913 1.5818l1.7851 1.7828 6.5565-11.324c3.6061-6.2282 6.597-11.335 6.6465-11.349 0.0495-0.0138 1.6486 2.9772 3.5536 6.6466 3.7571 7.237 4.1548 8.0042 8.6051 16.599 1.6415 3.1704 3.297 6.3573 3.6789 7.0821l0.69425 1.3178 2.2981-3.4488 0.2659 0.46001c0.68337 1.1823 6.8071 12.25 6.8071 12.302 0 0.03292-0.59141 0.05984-1.3142 0.05984h-1.3142l-2.2819-4.1098c-1.255-2.2604-2.3089-4.1087-2.3418-4.1075-0.03296 0.0012-0.56435 0.76881-1.1808 1.7057-0.61646 0.93685-1.1449 1.7042-1.1742 1.7052-0.02937 8.07e-4 -2.1764-4.093-4.7713-9.0979s-4.7649-9.0997-4.8224-9.0997c-0.05747 0-0.68094 0.49238-1.3855 1.0942-0.70456 0.60179-1.3051 1.0942-1.3346 1.0942-0.02945 0-0.94914-0.76858-2.0438-1.7079-1.0946-0.93937-2.0228-1.7078-2.0626-1.7077-0.03978 1.09e-4 -0.97264 0.7718-2.073 1.7148-1.2971 1.1116-2.0479 1.6862-2.1349 1.6339-0.07387-0.04433-0.79895-0.65402-1.6113-1.3548-1.2311-1.0621-1.4996-1.2497-1.6126-1.1271-0.07459 0.08091-1.2519 2.0806-2.6163 4.4437-1.3644 2.3631-2.5127 4.2966-2.5518 4.2966-0.03915 0-0.81458-0.74456-1.7232-1.6546-0.9086-0.91002-1.6812-1.6546-1.7168-1.6546-0.03566 0-2.1979 4.0348-4.8049 8.9661l-4.7401 8.9661-1.3077 8.07e-4c-0.71921 3.51e-4 -1.3077-0.01989-1.3077-0.04494zm26.154-25.574c1.0641-0.91002 1.9708-1.6677 2.015-1.6836 0.04419-0.01598 0.97643 0.74058 2.0717 1.6813 1.0952 0.94068 2.025 1.7103 2.0661 1.7103 0.06168 0 0.93758-0.71224 1.5147-1.2317 0.1163-0.10468-0.37923-1.1331-2.7045-5.6129-1.5658-3.0166-2.8589-5.4968-2.8735-5.5115-0.05301-0.05357-6.1559 10.566-6.1249 10.658 0.06073 0.17996 1.8471 1.6884 1.9737 1.6666 0.0699-0.01206 0.99769-0.76649 2.0618-1.6765z" fill="#fff"/>
</g>
</svg>
