<?xml version="1.0" encoding="UTF-8" standalone="no"?>
<!-- Created with Inkscape (http://www.inkscape.org/) -->

<svg
   xmlns:dc="http://purl.org/dc/elements/1.1/"
   xmlns:cc="http://creativecommons.org/ns#"
   xmlns:rdf="http://www.w3.org/1999/02/22-rdf-syntax-ns#"
   xmlns:svg="http://www.w3.org/2000/svg"
   xmlns="http://www.w3.org/2000/svg"
   xmlns:sodipodi="http://sodipodi.sourceforge.net/DTD/sodipodi-0.dtd"
   xmlns:inkscape="http://www.inkscape.org/namespaces/inkscape"
   width="85.352783mm"
   height="92.092987mm"
   viewBox="0 0 85.352783 92.092987"
   version="1.1"
   id="svg8"
   inkscape:version="0.92.4 (5da689c313, 2019-01-14)"
   sodipodi:docname="registry.svg">
  <defs
     id="defs2">
    <clipPath
       clipPathUnits="userSpaceOnUse"
       id="clipPath872">
      <rect
         y="-59.05357"
         x="-374.95236"
         height="238.125"
         width="263.82739"
         id="rect874"
         style="opacity:0.703;vector-effect:none;fill:#ffffff;fill-opacity:1;stroke:none;stroke-width:2.69927907;stroke-linecap:butt;stroke-linejoin:miter;stroke-miterlimit:4;stroke-dasharray:none;stroke-dashoffset:0;stroke-opacity:1" />
    </clipPath>
    <filter
       inkscape:collect="always"
       style="color-interpolation-filters:sRGB"
       id="filter1646"
       x="-0.050092641"
       width="1.1001853"
       y="-0.046075191"
       height="1.0921504">
      <feGaussianBlur
         inkscape:collect="always"
         stdDeviation="1.5607742"
         id="feGaussianBlur1648" />
    </filter>
  </defs>
  <sodipodi:namedview
     id="base"
     pagecolor="#ffffff"
     bordercolor="#666666"
     borderopacity="1.0"
     inkscape:pageopacity="0.0"
     inkscape:pageshadow="2"
     inkscape:zoom="1.4"
     inkscape:cx="117.74654"
     inkscape:cy="126.20397"
     inkscape:document-units="mm"
     inkscape:current-layer="layer1"
     showgrid="false"
     fit-margin-top="0"
     fit-margin-left="0"
     fit-margin-right="0"
     fit-margin-bottom="0"
     inkscape:pagecheckerboard="true"
     inkscape:snap-global="false"
     inkscape:window-width="1920"
     inkscape:window-height="1017"
     inkscape:window-x="1072"
     inkscape:window-y="394"
     inkscape:window-maximized="1" />
  <metadata
     id="metadata5">
    <rdf:RDF>
      <cc:Work
         rdf:about="">
        <dc:format>image/svg+xml</dc:format>
        <dc:type
           rdf:resource="http://purl.org/dc/dcmitype/StillImage" />
        <dc:title></dc:title>
      </cc:Work>
    </rdf:RDF>
  </metadata>
  <g
     inkscape:label="Layer 1"
     inkscape:groupmode="layer"
     id="layer1"
     transform="translate(-45.097772,-103.04144)">
    <path
       inkscape:connector-curvature="0"
       id="path1632"
       d="m 50.612128,188.93453 c 0.26199,-1.01 0.257,-2.12971 -0.0151,-3.39786 l -0.21217,-0.98867 0.91641,-1.53754 c 0.50402,-0.84565 0.98204,-1.60317 1.06225,-1.68338 0.088,-0.088 0.71902,0.0824 1.59213,0.43004 l 1.44629,0.57589 -0.55159,2.17597 -0.55159,2.17599 -0.9243,0.44161 c -0.61193,0.29238 -1.27005,0.80814 -1.94741,1.52618 l -1.02313,1.08457 z m 2.27494,-2.9634 c 0.91207,-0.48812 0.28145,-1.55989 -0.69692,-1.18446 -0.34645,0.13295 -0.32741,0.96091 0.0268,1.16725 0.34917,0.20337 0.32347,0.20271 0.67007,0.0172 z m 0.36742,3.493 c -0.10974,-0.11516 -0.19952,-0.3011 -0.19952,-0.41319 0,-0.48557 0.73648,-0.65565 3.61919,-0.83584 6.70136,-0.41886 12.98372,-1.5653 19.04603,-3.47565 4.69596,-1.47978 8.26211,-2.90865 14.76432,-5.91571 5.88654,-2.72232 8.9539,-3.98987 13.088372,-5.40859 5.23045,-1.79479 12.08186,-3.38783 17.79699,-4.13801 2.70552,-0.35513 3.14597,-0.3468 3.56005,0.0673 0.61172,0.61171 0.1587,0.79646 -3.01681,1.23028 -10.34897,1.4138 -19.45337,4.33515 -32.545902,10.44307 -10.08705,4.7058 -17.89704,6.97724 -28.01231,8.14705 -3.64908,0.42201 -7.83607,0.57672 -8.10041,0.29931 z m 1.07739,-8.71208 c -0.74619,-0.30659 -1.41428,-0.61274 -1.48463,-0.68034 -0.13224,-0.12706 0.32502,-1.44726 0.50127,-1.44726 0.28744,0 3.10445,1.21132 3.16125,1.35935 0.10345,0.26957 -0.40227,1.35583 -0.62379,1.33988 -0.10856,-0.008 -0.8079,-0.26505 -1.5541,-0.57163 z m 1.16781,-2.42618 c -0.36727,-0.14601 -0.71061,-0.30832 -0.76297,-0.36068 -0.0955,-0.0955 0.89304,-1.86874 3.85903,-6.92242 7.93468,-13.5197 18.10542,-26.76823 25.66011,-33.42519 6.05383,-5.33445 11.6822,-9.21634 24.664092,-17.01083 4.78445,-2.87263 9.0222,-5.43251 9.41725,-5.68862 l 0.71826,-0.46564 -0.55865,0.49487 c -0.88426,0.78332 -4.29838,3.38498 -6.80853,5.1883 -2.13869,1.53646 -3.76882,2.62475 -11.30769,7.54911 -13.354072,8.72284 -25.622142,21.18451 -35.534792,36.09555 -3.73274,5.61496 -7.25311,11.61381 -8.03204,13.68692 -0.23914,0.63647 -0.48239,1.14976 -0.54056,1.14066 -0.0582,-0.009 -0.40625,-0.13602 -0.77351,-0.28203 z m 3.30139,-2.98193 c 0,-0.14186 1.83492,-3.29898 3.47391,-5.97712 5.93854,-9.7037 12.24501,-17.7819 19.74996,-25.29851 5.80475,-5.81376 11.66804,-10.51872 18.634402,-14.95306 6.1351,-3.90521 16.32721,-11.51507 20.60842,-15.3871 2.24968,-2.03467 2.05089,-1.94191 2.5667,-1.19759 0.51968,0.74989 0.7987,1.81724 0.58127,2.22352 -0.083,0.15504 -1.31467,1.02885 -2.7371,1.9418 -1.42242,0.91294 -2.51466,1.68375 -2.42719,1.71291 0.22047,0.0735 3.46973,-1.03418 4.38762,-1.49572 0.41407,-0.20822 0.79116,-0.37857 0.83797,-0.37857 0.0468,0 0.0851,0.60856 0.0851,1.35237 v 1.35236 l -1.55625,0.74252 c -2.72147,1.29849 -6.62544,2.61809 -7.74546,2.61809 -0.1806,0 -0.28799,0.0404 -0.23865,0.0897 0.21822,0.21822 5.12391,-0.63222 7.30505,-1.26639 0.74581,-0.21684 1.38145,-0.36883 1.41253,-0.33774 0.12286,0.12286 -0.33526,1.20343 -0.75515,1.78115 -1.22423,1.68445 -6.74245,3.57802 -11.5968,3.97943 -1.29098,0.10675 -1.37568,0.13292 -0.87133,0.26918 0.31461,0.085 1.67423,0.10989 3.11248,0.057 2.48589,-0.0914 4.59207,-0.41097 6.38457,-0.96867 1.23464,-0.38413 1.23684,-0.38156 0.77484,0.90545 -0.86675,2.41459 -1.91802,4.07693 -3.7325,5.90209 -1.52627,1.53525 -2.68397,2.08109 -7.33746,3.4595 l -1.03749,0.30732 0.79806,-0.0783 c 0.80486,-0.0789 4.12887,-0.60915 4.86824,-0.77652 1.31014,-0.29656 -4.04174,2.09812 -5.55703,2.48647 -0.45202,0.11585 -0.79328,0.23921 -0.75835,0.27414 0.0349,0.0349 1.00458,-0.0609 2.15477,-0.21284 1.15019,-0.152 2.14386,-0.2221 2.20815,-0.15579 0.17048,0.17584 -1.59439,1.73596 -3.09668,2.7374 -2.31171,1.54101 -5.82898,3.12867 -9.27169,4.18513 -5.310472,1.62962 -8.950832,2.20982 -12.945262,2.0632 -2.40248,-0.0882 -4.43094,0.13492 -6.01348,0.6614 l -0.95769,0.3186 1.35672,-0.11122 c 2.55365,-0.20936 5.54596,-0.10008 7.28752,0.26613 1.29944,0.27324 2.17064,0.3406 4.38939,0.33937 2.58306,-10e-4 6.14518,-0.2953 7.511322,-0.61965 l 0.59316,-0.14084 -0.2293,0.5488 c -0.49394,1.18217 -2.063382,3.32617 -3.403732,4.64982 -2.06035,2.03467 -2.76002,2.4072 -8.44648,4.49727 -4.57152,1.68027 -5.86563,1.98875 -10.72296,2.55611 -1.52991,0.17869 -2.8168,0.36004 -2.85975,0.403 -0.043,0.043 1.7834,0.078 4.05857,0.0779 3.83956,-1.6e-4 4.25131,-0.0281 5.73281,-0.38896 0.87788,-0.21382 2.09893,-0.57468 2.71345,-0.80192 1.50182,-0.55537 1.12301,-0.26562 -2.47402,1.8924 -5.69753,3.41819 -10.72889,5.79917 -14.03989,6.64405 -0.6618,0.16888 -2.0652,0.45542 -3.11865,0.63676 -3.29831,0.56776 -4.86823,1.03832 -4.86823,1.45917 0,0.11447 0.18031,0.13662 0.51875,0.0637 2.20998,-0.47605 3.36263,-0.61395 5.38697,-0.6445 2.54804,-0.0384 2.8496,-0.0811 4.70862,-0.66612 1.21864,-0.3835 4.56311,-1.84108 4.99181,-2.1755 0.11185,-0.0873 0.23924,-0.12279 0.28308,-0.0789 0.0995,0.0995 -2.07717,1.78269 -3.35951,2.59774 -2.5399,1.61436 -4.73983,2.51579 -10.53455,4.31659 -1.31681,0.40922 -2.88299,0.98843 -3.48039,1.28714 -0.92263,0.46132 -1.25308,0.54309 -2.19469,0.54309 -0.60968,0 -1.10852,-0.0397 -1.10852,-0.0882 z m -4.95113,-0.3964 c -0.34429,-0.6433 -0.5037,-3.13186 -0.33029,-5.15598 0.23984,-2.79962 1.19772,-7.91303 1.43755,-7.67404 0.0511,0.0509 0.17628,0.89482 0.27815,1.87529 0.21183,2.03881 0.46747,3.30786 0.74203,3.68357 0.15027,0.20564 0.19006,-0.21668 0.19006,-2.01751 0,-2.38498 0.26474,-3.93412 0.90751,-5.31026 0.16402,-0.35115 0.25647,-0.49676 0.20546,-0.32358 -0.19522,0.66279 -0.28266,4.49671 -0.10958,4.8051 0.22264,0.39671 0.25058,0.30563 0.5912,-1.92769 0.98427,-6.45337 2.12235,-10.66206 3.49605,-12.92876 1.3272,-2.18994 3.45514,-4.817 6.2667,-7.73656 l 2.05025,-2.12902 0.10242,2.21935 c 0.0564,1.22064 0.18493,2.5822 0.28577,3.02569 0.18617,0.81876 0.75648,1.93294 0.91055,1.77887 0.0465,-0.0465 -0.003,-0.77691 -0.10926,-1.62327 -0.55669,-4.42266 0.48845,-9.3737 2.55126,-12.08586 2.0366,-2.67772 5.59258,-6.22373 8.80905,-8.78441 1.45172,-1.15572 4.44598,-3.21229 4.54001,-3.11825 0.0247,0.0247 -0.19483,0.83578 -0.48788,1.80238 -0.54083,1.78387 -0.88826,3.95004 -0.74976,4.67457 0.0517,0.2706 0.21907,-0.1857 0.52151,-1.42204 0.72228,-2.95268 1.78332,-5.1535 3.03942,-6.30445 0.47496,-0.43519 2.18059,-1.42715 6.38569,-3.71379 l 1.21818,-0.66242 -0.689,1.97673 c -0.72797,2.08851 -1.18871,4.01537 -1.18871,4.97126 0,0.50104 0.16081,0.25982 1.24579,-1.86874 1.35847,-2.66511 2.49309,-4.55949 3.73943,-6.2434 0.894342,-1.20833 1.343792,-1.48701 4.450102,-2.75927 4.2464,-1.7392 7.83684,-2.76034 11.70705,-3.32952 0.87429,-0.12858 1.60402,-0.21889 1.62161,-0.20067 0.0176,0.0182 -0.64709,1.18234 -1.47708,2.58694 -0.82998,1.40461 -1.62071,2.76932 -1.75717,3.03268 -0.13728,0.26495 0.94358,-0.69758 2.41974,-2.1548 l 2.66784,-2.63363 -1.11046,1.67595 c -0.61075,0.92177 -1.19906,1.84299 -1.30735,2.04716 -0.25447,0.47976 -0.31192,0.51159 3.09936,-1.71702 2.59952,-1.69829 2.67323,-1.73492 1.75575,-0.87244 -1.21704,1.14409 -4.87085,4.192 -6.3608,5.30601 -2.31042,1.72748 -4.74658,3.23662 -8.56313,5.30465 -7.439512,4.03118 -12.674862,7.41508 -20.191202,13.0507 -3.97274,2.97869 -6.35936,5.22874 -9.84606,9.28264 -6.34685,7.3793 -16.40151,21.98956 -20.79485,30.21664 -0.88204,1.65174 -0.92833,1.70621 -1.45005,1.70621 -0.37876,0 -0.59062,-0.0966 -0.71286,-0.32501 z"
       style="fill:#000000;stroke-width:0.96401286;filter:url(#filter1646)"
       transform="matrix(1.0374674,0,0,1.0371938,-3.2886702,-5.5451428)" />
    <path
       style="fill:#ffffff;stroke-width:1"
       d="m 50.612128,188.93453 c 0.26199,-1.01 0.257,-2.12971 -0.0151,-3.39786 l -0.21217,-0.98867 0.91641,-1.53754 c 0.50402,-0.84565 0.98204,-1.60317 1.06225,-1.68338 0.088,-0.088 0.71902,0.0824 1.59213,0.43004 l 1.44629,0.57589 -0.55159,2.17597 -0.55159,2.17599 -0.9243,0.44161 c -0.61193,0.29238 -1.27005,0.80814 -1.94741,1.52618 l -1.02313,1.08457 z m 2.27494,-2.9634 c 0.91207,-0.48812 0.28145,-1.55989 -0.69692,-1.18446 -0.34645,0.13295 -0.32741,0.96091 0.0268,1.16725 0.34917,0.20337 0.32347,0.20271 0.67007,0.0172 z m 0.36742,3.493 c -0.10974,-0.11516 -0.19952,-0.3011 -0.19952,-0.41319 0,-0.48557 0.73648,-0.65565 3.61919,-0.83584 6.70136,-0.41886 12.98372,-1.5653 19.04603,-3.47565 4.69596,-1.47978 8.26211,-2.90865 14.76432,-5.91571 5.88654,-2.72232 8.9539,-3.98987 13.088372,-5.40859 5.23045,-1.79479 12.08186,-3.38783 17.79699,-4.13801 2.70552,-0.35513 3.14597,-0.3468 3.56005,0.0673 0.61172,0.61171 0.1587,0.79646 -3.01681,1.23028 -10.34897,1.4138 -19.45337,4.33515 -32.545902,10.44307 -10.08705,4.7058 -17.89704,6.97724 -28.01231,8.14705 -3.64908,0.42201 -7.83607,0.57672 -8.10041,0.29931 z m 1.07739,-8.71208 c -0.74619,-0.30659 -1.41428,-0.61274 -1.48463,-0.68034 -0.13224,-0.12706 0.32502,-1.44726 0.50127,-1.44726 0.28744,0 3.10445,1.21132 3.16125,1.35935 0.10345,0.26957 -0.40227,1.35583 -0.62379,1.33988 -0.10856,-0.008 -0.8079,-0.26505 -1.5541,-0.57163 z m 1.16781,-2.42618 c -0.36727,-0.14601 -0.71061,-0.30832 -0.76297,-0.36068 -0.0955,-0.0955 0.89304,-1.86874 3.85903,-6.92242 7.93468,-13.5197 18.10542,-26.76823 25.66011,-33.42519 6.05383,-5.33445 11.6822,-9.21634 24.664092,-17.01083 4.78445,-2.87263 9.0222,-5.43251 9.41725,-5.68862 l 0.71826,-0.46564 -0.55865,0.49487 c -0.88426,0.78332 -4.29838,3.38498 -6.80853,5.1883 -2.13869,1.53646 -3.76882,2.62475 -11.30769,7.54911 -13.354072,8.72284 -25.622142,21.18451 -35.534792,36.09555 -3.73274,5.61496 -7.25311,11.61381 -8.03204,13.68692 -0.23914,0.63647 -0.48239,1.14976 -0.54056,1.14066 -0.0582,-0.009 -0.40625,-0.13602 -0.77351,-0.28203 z m 3.30139,-2.98193 c 0,-0.14186 1.83492,-3.29898 3.47391,-5.97712 5.93854,-9.7037 12.24501,-17.7819 19.74996,-25.29851 5.80475,-5.81376 11.66804,-10.51872 18.634402,-14.95306 6.1351,-3.90521 16.32721,-11.51507 20.60842,-15.3871 2.24968,-2.03467 2.05089,-1.94191 2.5667,-1.19759 0.51968,0.74989 0.7987,1.81724 0.58127,2.22352 -0.083,0.15504 -1.31467,1.02885 -2.7371,1.9418 -1.42242,0.91294 -2.51466,1.68375 -2.42719,1.71291 0.22047,0.0735 3.46973,-1.03418 4.38762,-1.49572 0.41407,-0.20822 0.79116,-0.37857 0.83797,-0.37857 0.0468,0 0.0851,0.60856 0.0851,1.35237 v 1.35236 l -1.55625,0.74252 c -2.72147,1.29849 -6.62544,2.61809 -7.74546,2.61809 -0.1806,0 -0.28799,0.0404 -0.23865,0.0897 0.21822,0.21822 5.12391,-0.63222 7.30505,-1.26639 0.74581,-0.21684 1.38145,-0.36883 1.41253,-0.33774 0.12286,0.12286 -0.33526,1.20343 -0.75515,1.78115 -1.22423,1.68445 -6.74245,3.57802 -11.5968,3.97943 -1.29098,0.10675 -1.37568,0.13292 -0.87133,0.26918 0.31461,0.085 1.67423,0.10989 3.11248,0.057 2.48589,-0.0914 4.59207,-0.41097 6.38457,-0.96867 1.23464,-0.38413 1.23684,-0.38156 0.77484,0.90545 -0.86675,2.41459 -1.91802,4.07693 -3.7325,5.90209 -1.52627,1.53525 -2.68397,2.08109 -7.33746,3.4595 l -1.03749,0.30732 0.79806,-0.0783 c 0.80486,-0.0789 4.12887,-0.60915 4.86824,-0.77652 1.31014,-0.29656 -4.04174,2.09812 -5.55703,2.48647 -0.45202,0.11585 -0.79328,0.23921 -0.75835,0.27414 0.0349,0.0349 1.00458,-0.0609 2.15477,-0.21284 1.15019,-0.152 2.14386,-0.2221 2.20815,-0.15579 0.17048,0.17584 -1.59439,1.73596 -3.09668,2.7374 -2.31171,1.54101 -5.82898,3.12867 -9.27169,4.18513 -5.310472,1.62962 -8.950832,2.20982 -12.945262,2.0632 -2.40248,-0.0882 -4.43094,0.13492 -6.01348,0.6614 l -0.95769,0.3186 1.35672,-0.11122 c 2.55365,-0.20936 5.54596,-0.10008 7.28752,0.26613 1.29944,0.27324 2.17064,0.3406 4.38939,0.33937 2.58306,-10e-4 6.14518,-0.2953 7.511322,-0.61965 l 0.59316,-0.14084 -0.2293,0.5488 c -0.49394,1.18217 -2.063382,3.32617 -3.403732,4.64982 -2.06035,2.03467 -2.76002,2.4072 -8.44648,4.49727 -4.57152,1.68027 -5.86563,1.98875 -10.72296,2.55611 -1.52991,0.17869 -2.8168,0.36004 -2.85975,0.403 -0.043,0.043 1.7834,0.078 4.05857,0.0779 3.83956,-1.6e-4 4.25131,-0.0281 5.73281,-0.38896 0.87788,-0.21382 2.09893,-0.57468 2.71345,-0.80192 1.50182,-0.55537 1.12301,-0.26562 -2.47402,1.8924 -5.69753,3.41819 -10.72889,5.79917 -14.03989,6.64405 -0.6618,0.16888 -2.0652,0.45542 -3.11865,0.63676 -3.29831,0.56776 -4.86823,1.03832 -4.86823,1.45917 0,0.11447 0.18031,0.13662 0.51875,0.0637 2.20998,-0.47605 3.36263,-0.61395 5.38697,-0.6445 2.54804,-0.0384 2.8496,-0.0811 4.70862,-0.66612 1.21864,-0.3835 4.56311,-1.84108 4.99181,-2.1755 0.11185,-0.0873 0.23924,-0.12279 0.28308,-0.0789 0.0995,0.0995 -2.07717,1.78269 -3.35951,2.59774 -2.5399,1.61436 -4.73983,2.51579 -10.53455,4.31659 -1.31681,0.40922 -2.88299,0.98843 -3.48039,1.28714 -0.92263,0.46132 -1.25308,0.54309 -2.19469,0.54309 -0.60968,0 -1.10852,-0.0397 -1.10852,-0.0882 z m -4.95113,-0.3964 c -0.34429,-0.6433 -0.5037,-3.13186 -0.33029,-5.15598 0.23984,-2.79962 1.19772,-7.91303 1.43755,-7.67404 0.0511,0.0509 0.17628,0.89482 0.27815,1.87529 0.21183,2.03881 0.46747,3.30786 0.74203,3.68357 0.15027,0.20564 0.19006,-0.21668 0.19006,-2.01751 0,-2.38498 0.26474,-3.93412 0.90751,-5.31026 0.16402,-0.35115 0.25647,-0.49676 0.20546,-0.32358 -0.19522,0.66279 -0.28266,4.49671 -0.10958,4.8051 0.22264,0.39671 0.25058,0.30563 0.5912,-1.92769 0.98427,-6.45337 2.12235,-10.66206 3.49605,-12.92876 1.3272,-2.18994 3.45514,-4.817 6.2667,-7.73656 l 2.05025,-2.12902 0.10242,2.21935 c 0.0564,1.22064 0.18493,2.5822 0.28577,3.02569 0.18617,0.81876 0.75648,1.93294 0.91055,1.77887 0.0465,-0.0465 -0.003,-0.77691 -0.10926,-1.62327 -0.55669,-4.42266 0.48845,-9.3737 2.55126,-12.08586 2.0366,-2.67772 5.59258,-6.22373 8.80905,-8.78441 1.45172,-1.15572 4.44598,-3.21229 4.54001,-3.11825 0.0247,0.0247 -0.19483,0.83578 -0.48788,1.80238 -0.54083,1.78387 -0.88826,3.95004 -0.74976,4.67457 0.0517,0.2706 0.21907,-0.1857 0.52151,-1.42204 0.72228,-2.95268 1.78332,-5.1535 3.03942,-6.30445 0.47496,-0.43519 2.18059,-1.42715 6.38569,-3.71379 l 1.21818,-0.66242 -0.689,1.97673 c -0.72797,2.08851 -1.18871,4.01537 -1.18871,4.97126 0,0.50104 0.16081,0.25982 1.24579,-1.86874 1.35847,-2.66511 2.49309,-4.55949 3.73943,-6.2434 0.894342,-1.20833 1.343792,-1.48701 4.450102,-2.75927 4.2464,-1.7392 7.83684,-2.76034 11.70705,-3.32952 0.87429,-0.12858 1.60402,-0.21889 1.62161,-0.20067 0.0176,0.0182 -0.64709,1.18234 -1.47708,2.58694 -0.82998,1.40461 -1.62071,2.76932 -1.75717,3.03268 -0.13728,0.26495 0.94358,-0.69758 2.41974,-2.1548 l 2.66784,-2.63363 -1.11046,1.67595 c -0.61075,0.92177 -1.19906,1.84299 -1.30735,2.04716 -0.25447,0.47976 -0.31192,0.51159 3.09936,-1.71702 2.59952,-1.69829 2.67323,-1.73492 1.75575,-0.87244 -1.21704,1.14409 -4.87085,4.192 -6.3608,5.30601 -2.31042,1.72748 -4.74658,3.23662 -8.56313,5.30465 -7.439512,4.03118 -12.674862,7.41508 -20.191202,13.0507 -3.97274,2.97869 -6.35936,5.22874 -9.84606,9.28264 -6.34685,7.3793 -16.40151,21.98956 -20.79485,30.21664 -0.88204,1.65174 -0.92833,1.70621 -1.45005,1.70621 -0.37876,0 -0.59062,-0.0966 -0.71286,-0.32501 z"
       id="path852"
       inkscape:connector-curvature="0" />
  </g>
</svg>
