<svg xmlns="http://www.w3.org/2000/svg" width="322.6" height="348.1" viewBox="0 0 85.4 92.1" version="1.1"><defs><clipPath clipPathUnits="userSpaceOnUse"/><filter id="a" x="-.1" width="1.1" y="0" height="1.1" color-interpolation-filters="sRGB"><feGaussianBlur stdDeviation="1.6"/></filter></defs><g stroke-width="1"><path d="M50.6 189c.3-1 .3-2.2 0-3.5l-.2-1 .9-1.5 1-1.7c.2 0 .8.1 1.7.5l1.4.5-.5 2.2-.6 2.2-1 .4a7 7 0 0 0-1.9 1.6l-1 1zm2.3-3c.9-.5.3-1.6-.7-1.2-.4.1-.3 1 0 1.2.4.2.3.2.7 0zm.4 3.5a.7.7 0 0 1-.2-.4c0-.5.7-.7 3.6-.9 6.7-.4 13-1.6 19-3.5 4.7-1.4 8.3-2.9 14.8-5.9a99 99 0 0 1 30.9-9.5c2.7-.4 3.1-.4 3.5 0 .6.7.2.8-3 1.3A107 107 0 0 0 89.4 181a84 84 0 0 1-36.1 8.5zm1-8.7-1.5-.7.5-1.5c.3 0 3.2 1.2 3.2 1.4.1.3-.4 1.3-.6 1.3l-1.6-.5zm1.2-2.5-.8-.3 3.9-7c8-13.5 18.1-26.7 25.7-33.4 6-5.3 11.6-9.2 24.6-17l9.4-5.7.8-.4-.6.4-6.8 5.2c-2.2 1.6-3.8 2.7-11.3 7.6a127 127 0 0 0-35.6 36 106.2 106.2 0 0 0-8.5 15l-.8-.4zm3.3-3A133.5 133.5 0 0 1 82 144c5.8-5.7 11.7-10.5 18.7-14.9 6-3.9 16.3-11.5 20.6-15.4 2.2-2 2-2 2.5-1.2.6.8.8 1.8.6 2.3l-2.7 1.9a16 16 0 0 0-2.4 1.7 25 25 0 0 0 5.2-1.9v2.7l-1.5.8a30.2 30.2 0 0 1-8 2.7 34.8 34.8 0 0 0 8.7-1.6c.2.1-.3 1.2-.7 1.8-1.2 1.7-6.8 3.5-11.6 4-1.3 0-1.4 0-.9.2h3.1c2.5 0 4.6-.3 6.4-.9 1.2-.4 1.2-.4.8 1-.9 2.3-2 4-3.7 5.8-1.6 1.5-2.7 2-7.4 3.5l-1 .3.8-.1c.8 0 4.1-.6 4.8-.8 1.4-.3-4 2.1-5.5 2.5l-.8.3 2.2-.2a10 10 0 0 1 2.2-.2c.2.2-1.6 1.8-3.1 2.8a38 38 0 0 1-9.3 4.1 37 37 0 0 1-13 2.1c-2.3 0-4.4.1-6 .7l-.9.3 1.4-.1c2.5-.2 5.5-.1 7.3.2a44.3 44.3 0 0 0 11.9-.3h.5l-.2.5c-.5 1.1-2 3.3-3.4 4.6-2 2-2.7 2.4-8.4 4.5-4.6 1.7-5.9 2-10.8 2.6-1.5.1-2.8.3-2.8.4a51.2 51.2 0 0 0 9.8-.3l2.7-.8a60.3 60.3 0 0 1-16.5 8.5l-3.1.6c-3.3.6-5 1-5 1.5h.6c2.2-.4 3.4-.6 5.4-.6 2.5 0 2.8 0 4.7-.7a36.2 36.2 0 0 0 5.3-2.2s-2.1 1.8-3.4 2.6a39.2 39.2 0 0 1-10.5 4.3l-3.5 1.3c-1 .5-1.2.5-2.2.5h-1.1zm-5-.4c-.3-.6-.5-3-.3-5.1.3-2.8 1.2-8 1.5-7.7l.2 1.9c.2 2 .5 3.3.8 3.7.1.2.2-.2.2-2a12 12 0 0 1 1-5.7c-.1.7-.2 4.5 0 4.8.2.4.2.3.6-1.9a39 39 0 0 1 3.5-13c1.3-2.1 3.4-4.7 6.2-7.7l2-2 .2 2.1c0 1.2.2 2.6.3 3 .1.9.7 2 .9 1.8l-.1-1.6a18 18 0 0 1 2.5-12 56.4 56.4 0 0 1 13.4-12l-.5 1.8c-.6 1.8-1 4-.8 4.7 0 .3.2-.2.5-1.4.8-3 1.8-5.2 3-6.3.6-.5 2.3-1.5 6.5-3.7l1.2-.7-.7 2c-.7 2-1.2 4-1.2 5 0 .4.2.2 1.3-2a43 43 0 0 1 3.7-6.2c.9-1.2 1.3-1.5 4.4-2.7a48.4 48.4 0 0 1 13.4-3.6 50.7 50.7 0 0 1-3.3 5.7c0 .2 1-.7 2.5-2.2l2.6-2.6-1 1.6a49 49 0 0 0-1.4 2.1c-.2.5-.3.5 3.1-1.7 2.6-1.7 2.7-1.8 1.8-.9a66.5 66.5 0 0 1-15 10.6c-7.4 4-12.6 7.4-20.1 13-4 3-6.4 5.3-9.9 9.3A215 215 0 0 0 56 173.6c-.9 1.6-1 1.7-1.4 1.7-.4 0-.6-.1-.8-.4z" transform="translate(-45.1 -103) matrix(1.03747 0 0 1.0372 -3.3 -5.5)" fill="#000" filter="url(#a)"/><path d="M50.6 189c.3-1 .3-2.2 0-3.5l-.2-1 .9-1.5 1-1.7c.2 0 .8.1 1.7.5l1.4.5-.5 2.2-.6 2.2-1 .4a7 7 0 0 0-1.9 1.6l-1 1zm2.3-3c.9-.5.3-1.6-.7-1.2-.4.1-.3 1 0 1.2.4.2.3.2.7 0zm.4 3.5a.7.7 0 0 1-.2-.4c0-.5.7-.7 3.6-.9 6.7-.4 13-1.6 19-3.5 4.7-1.4 8.3-2.9 14.8-5.9a99 99 0 0 1 30.9-9.5c2.7-.4 3.1-.4 3.5 0 .6.7.2.8-3 1.3A107 107 0 0 0 89.4 181a84 84 0 0 1-36.1 8.5zm1-8.7-1.5-.7.5-1.5c.3 0 3.2 1.2 3.2 1.4.1.3-.4 1.3-.6 1.3l-1.6-.5zm1.2-2.5-.8-.3 3.9-7c8-13.5 18.1-26.7 25.7-33.4 6-5.3 11.6-9.2 24.6-17l9.4-5.7.8-.4-.6.4-6.8 5.2c-2.2 1.6-3.8 2.7-11.3 7.6a127 127 0 0 0-35.6 36 106.2 106.2 0 0 0-8.5 15l-.8-.4zm3.3-3A133.5 133.5 0 0 1 82 144c5.8-5.7 11.7-10.5 18.7-14.9 6-3.9 16.3-11.5 20.6-15.4 2.2-2 2-2 2.5-1.2.6.8.8 1.8.6 2.3l-2.7 1.9a16 16 0 0 0-2.4 1.7 25 25 0 0 0 5.2-1.9v2.7l-1.5.8a30.2 30.2 0 0 1-8 2.7 34.8 34.8 0 0 0 8.7-1.6c.2.1-.3 1.2-.7 1.8-1.2 1.7-6.8 3.5-11.6 4-1.3 0-1.4 0-.9.2h3.1c2.5 0 4.6-.3 6.4-.9 1.2-.4 1.2-.4.8 1-.9 2.3-2 4-3.7 5.8-1.6 1.5-2.7 2-7.4 3.5l-1 .3.8-.1c.8 0 4.1-.6 4.8-.8 1.4-.3-4 2.1-5.5 2.5l-.8.3 2.2-.2a10 10 0 0 1 2.2-.2c.2.2-1.6 1.8-3.1 2.8a38 38 0 0 1-9.3 4.1 37 37 0 0 1-13 2.1c-2.3 0-4.4.1-6 .7l-.9.3 1.4-.1c2.5-.2 5.5-.1 7.3.2a44.3 44.3 0 0 0 11.9-.3h.5l-.2.5c-.5 1.1-2 3.3-3.4 4.6-2 2-2.7 2.4-8.4 4.5-4.6 1.7-5.9 2-10.8 2.6-1.5.1-2.8.3-2.8.4a51.2 51.2 0 0 0 9.8-.3l2.7-.8a60.3 60.3 0 0 1-16.5 8.5l-3.1.6c-3.3.6-5 1-5 1.5h.6c2.2-.4 3.4-.6 5.4-.6 2.5 0 2.8 0 4.7-.7a36.2 36.2 0 0 0 5.3-2.2s-2.1 1.8-3.4 2.6a39.2 39.2 0 0 1-10.5 4.3l-3.5 1.3c-1 .5-1.2.5-2.2.5h-1.1zm-5-.4c-.3-.6-.5-3-.3-5.1.3-2.8 1.2-8 1.5-7.7l.2 1.9c.2 2 .5 3.3.8 3.7.1.2.2-.2.2-2a12 12 0 0 1 1-5.7c-.1.7-.2 4.5 0 4.8.2.4.2.3.6-1.9a39 39 0 0 1 3.5-13c1.3-2.1 3.4-4.7 6.2-7.7l2-2 .2 2.1c0 1.2.2 2.6.3 3 .1.9.7 2 .9 1.8l-.1-1.6a18 18 0 0 1 2.5-12 56.4 56.4 0 0 1 13.4-12l-.5 1.8c-.6 1.8-1 4-.8 4.7 0 .3.2-.2.5-1.4.8-3 1.8-5.2 3-6.3.6-.5 2.3-1.5 6.5-3.7l1.2-.7-.7 2c-.7 2-1.2 4-1.2 5 0 .4.2.2 1.3-2a43 43 0 0 1 3.7-6.2c.9-1.2 1.3-1.5 4.4-2.7a48.4 48.4 0 0 1 13.4-3.6 50.7 50.7 0 0 1-3.3 5.7c0 .2 1-.7 2.5-2.2l2.6-2.6-1 1.6a49 49 0 0 0-1.4 2.1c-.2.5-.3.5 3.1-1.7 2.6-1.7 2.7-1.8 1.8-.9a66.5 66.5 0 0 1-15 10.6c-7.4 4-12.6 7.4-20.1 13-4 3-6.4 5.3-9.9 9.3A215 215 0 0 0 56 173.6c-.9 1.6-1 1.7-1.4 1.7-.4 0-.6-.1-.8-.4z" fill="#fff" transform="translate(-45.1 -103)"/></g></svg>