<svg width="608.544" height="408.425" viewBox="0 0 161.01 108.062" xmlns="http://www.w3.org/2000/svg"><path style="fill:#fff;stroke-width:.264583" d="M112.131 92.192c.258-.067.615-.063.794.01.18.072-.031.127-.468.122-.437-.006-.583-.065-.326-.132zM108.62 93.588c0-1.248.245-1.478 1.55-1.459.93.014 1.1.074.7.246-.471.202-.45.23.191.246.523.014.833.236 1.131.813l.41.793h-1.99c-1.93 0-1.991-.02-1.991-.64zM103.858 94.009c0-.286 1.035-1.223 1.769-1.6.317-.164 1.045-.298 1.616-.298h1.04L108 93.169l-.283 1.058h-1.93c-1.06 0-1.929-.098-1.929-.218zM114.042 94.305c-.538-.069-.938-.35-1.235-.868-.426-.742-.422-.769.134-.855.986-.152 2.472.343 3.393 1.131l.885.757-1.19-.031a24.702 24.702 0 0 1-1.987-.134zM99.665 94.046c.614-.74 2.313-1.406 3.582-1.406h1.262l-.788.764c-.67.65-1.06.785-2.583.896-1.551.114-1.75.08-1.473-.254zM88.512 96.073c1.181-.784 12.003-3.69 12.37-3.322.04.04-.538.45-1.284.913-1.002.623-1.777.879-2.979.983-1.54.133-1.59.12-.963-.262.364-.222.556-.408.428-.413-.128-.005-.605.22-1.058.499-.454.279-1.779.688-2.945.908-1.165.22-2.453.528-2.861.683-.925.352-1.229.356-.708.01zM127.67 96.32c-.945-.283-2.136-.574-2.645-.645-1.954-.273-2.552-.467-3.728-1.21-.667-.422-1.322-.765-1.455-.762-.133.002.15.255.63.562.479.307.826.602.77.657-.054.055-.803.026-1.665-.064-1.331-.139-1.741-.32-2.744-1.21-1.305-1.157-1.326-1.151 1.445-.406.582.157 1.17.256 1.307.222.75-.192 10.202 2.863 10.202 3.297 0 .17-.25.118-2.117-.44zM108.356 96.227c0-.791.123-1.516.274-1.609.151-.093 1.152-.087 2.225.013l1.95.183.29 1.147c.158.63.288 1.272.288 1.426 0 .177-.924.28-2.514.28h-2.513zM102.413 96.675c.88-2.109.988-2.183 3.17-2.183 2.209 0 2.177-.039 1.81 2.183l-.165.992H102zM96.417 97.469c.138-.255.662-.937 1.164-1.515.894-1.03.955-1.053 2.945-1.154l2.032-.102-.712 1.452c-.7 1.426-.737 1.456-2.062 1.615-.743.089-1.86.163-2.484.164-.999.002-1.104-.052-.883-.46zM91.662 97.395c1.966-1.866 2.282-2.028 4.358-2.239l1.82-.184-.997 1.077c-.549.593-1.155 1.302-1.347 1.577-.264.377-.825.544-2.278.68-1.06.1-2.166.24-2.457.314-.33.083.009-.378.901-1.225zM122.717 98.62l-2.175-.292-.749-1.19a176.47 176.47 0 0 1-.975-1.562c-.188-.312.07-.342 1.602-.186 1.629.166 1.936.292 2.84 1.166 1.127 1.087 2.184 2.456 1.849 2.394-.12-.022-1.195-.171-2.392-.33zM85.852 99.142c.794-.962 3.781-2.868 4.853-3.095.613-.13 1.39-.3 1.727-.376.45-.102.168.282-1.059 1.445-1.41 1.336-1.897 1.63-3.125 1.883-.8.165-1.753.369-2.117.454-.605.14-.629.114-.279-.31zM127.997 99.405c-1.526-.3-1.783-.458-3.244-1.988l-1.586-1.662.995.178c2.345.42 2.954.72 4.598 2.252 1.804 1.683 1.78 1.721-.763 1.22zM78.987 101.518c0-.147 3.29-2.295 4.895-3.196 1.747-.98 1.278-.545-1.323 1.226-1.958 1.334-3.572 2.224-3.572 1.97zM136.711 101.619c-.63-.28-1.727-1.017-2.436-1.638-.71-.62-1.683-1.353-2.162-1.627-1.09-.623-.788-.326 1.315 1.294.911.702 1.621 1.312 1.579 1.354-.043.043-.918-.184-1.945-.504-1.527-.476-2.2-.884-3.695-2.24l-1.829-1.659 1.455.429c.8.236 1.607.552 1.793.704.185.151.408.204.495.117.25-.251 2.689 1.071 4.922 2.67 2.582 1.846 2.683 2.065.508 1.1zM108.019 102.496c-.057-.11-.05-1.137.015-2.284l.119-2.085 1.595.167c.878.092 2.101.167 2.718.167 1.242 0 1.157-.158 1.595 2.976l.176 1.257h-3.057c-1.682 0-3.104-.09-3.161-.198zM117.055 103.028l-1.751-.092-.153-1.113a122.36 122.36 0 0 0-.333-2.237l-.18-1.124 2.085.148c3.222.23 3.171.206 3.777 1.825.297.794.616 1.746.71 2.116.187.748.45.718-4.155.477zM93.54 102.856c0-.135.43-1.105.956-2.155l.956-1.91 1.359-.162c.747-.09 1.937-.165 2.644-.166 1.047-.002 1.256.073 1.129.404-.086.224-.35 1.087-.587 1.919-.237.831-.518 1.605-.624 1.72-.287.312-5.834.644-5.834.35zM87.33 102.665a27.256 27.256 0 0 1 1.604-2.253c.87-1.075.916-1.095 3.207-1.35 1.278-.141 2.357-.233 2.396-.203.04.03-.407.873-.992 1.874-.585 1.001-1.064 1.956-1.064 2.121 0 .292-.647.414-4.194.793l-1.68.18zM124.513 103.655l-1.968-.3-.86-2.209-.86-2.209.843.148c.464.082 1.594.229 2.511.327l1.668.179 1.177 2.009c.646 1.105 1.176 2.1 1.176 2.213 0 .267-1.254.213-3.687-.158zM80.803 104.62c.113-.202.948-1.239 1.856-2.305 1.593-1.872 1.708-1.95 3.289-2.254.9-.174 1.91-.38 2.24-.46.51-.12.351.211-1.022 2.136-.895 1.254-1.642 2.284-1.661 2.288l-2.47.484c-1.98.387-2.398.408-2.232.11zM131.772 104.79a617.49 617.49 0 0 0-2.443-.499c-.034-.004-.377-.635-.762-1.399-.385-.763-.936-1.723-1.224-2.131-.288-.409-.472-.795-.408-.86.064-.063 1.077.077 2.25.313l2.135.428 1.318 1.753c1.42 1.89 2.055 2.963 1.723 2.914-.115-.017-1.28-.25-2.59-.52zM76.332 105.63c.275-.378 1.312-1.481 2.305-2.452 1.324-1.295 2.11-1.846 2.946-2.066.628-.164 1.34-.376 1.584-.47.243-.093-.462.897-1.568 2.2-1.957 2.307-2.06 2.385-3.888 2.923l-1.878.553zM72.097 107.336c1.18-1.203 1.53-1.47 1.176-.897-.118.19-.072.234.121.114.17-.105.25-.29.175-.41-.181-.293 3.143-2.972 4.602-3.709l1.169-.59-2.095 2.289c-1.73 1.89-2.463 2.473-4.211 3.347l-2.117 1.058zM99.498 107.92c.094-.619.314-1.84.49-2.712l.319-1.588 3.228-.074 3.229-.075-.152 2.456c-.084 1.35-.198 2.604-.254 2.786-.075.243-1.026.331-3.566.331h-3.464zM111.134 109.044c-3.358-.13-3.44-.146-3.42-.728.01-.327.04-1.547.065-2.712l.048-2.116h2.08c1.143 0 2.617.074 3.275.164l1.196.164.187 2.635c.102 1.45.146 2.656.098 2.68-.05.025-1.637-.014-3.529-.087zM91.28 109.238c.966-3.105 1.568-4.865 1.725-5.038.243-.267 6.09-.654 6.09-.402 0 .18-.66 3.49-.925 4.632-.144.62-.496.691-4.952.995-1.547.106-2.016.06-1.939-.187zM145.611 109.101c-.537-.395-1.765-1.641-2.73-2.769-.964-1.128-1.88-2.05-2.033-2.05-.155 0 .33.627 1.075 1.395 1.239 1.274 2.301 2.575 2.1 2.572-.044 0-.784-.287-1.643-.637-.996-.406-1.805-.957-2.234-1.52a73.029 73.029 0 0 0-1.975-2.41c-1.483-1.74-1.312-1.745 1.866-.048 1.67.892 5.8 4.57 6.446 5.74.329.596.293.585-.872-.273zM83.75 110.1c0-.183.524-1.44 1.166-2.795 1.075-2.27 1.234-2.473 2.05-2.612 1.437-.246 4.846-.614 4.94-.534.046.04-.09.412-.304.826-.214.413-.651 1.616-.972 2.672-.642 2.114-.518 2.028-3.308 2.305-.874.087-2.034.229-2.58.315-.706.112-.992.061-.992-.176zM126.664 110.233c-1.354-.185-2.49-.379-2.526-.431-.129-.19-1.223-5.35-1.15-5.424.143-.143 5.587.702 5.77.897.213.225 1.823 4.743 1.823 5.113 0 .303-.783.272-3.917-.155zM135.211 111.563a96.26 96.26 0 0 0-2.58-.515c-.607-.108-.992-.324-.992-.558 0-.21-.403-1.455-.897-2.766-.541-1.438-.777-2.384-.595-2.385.166 0 1.357.194 2.648.43l2.345.43 1.289 2.68c.708 1.473 1.29 2.768 1.292 2.877.005.262-.59.216-2.51-.193zM72.298 111.36c2.009-3.434 2.558-4.021 4.229-4.531 2.78-.849 2.607-.887 1.818.401a54.505 54.505 0 0 0-1.592 2.877l-.886 1.725-2.006.59c-1.104.325-2.124.59-2.268.59-.144 0 .173-.743.705-1.653zM141.05 112.897c-1.154-.318-2.188-.75-2.299-.96-.573-1.086-2.584-5.39-2.537-5.43.221-.179 4.595 1.346 4.864 1.697.393.513 2.732 4.949 2.732 5.182 0 .23-.432.153-2.76-.49zM68.214 113.447c1.756-2.883 3.123-4.536 4.234-5.118 1.74-.911 1.845-.732.616 1.046-.63.91-1.458 2.2-1.843 2.867-.574.995-.982 1.335-2.268 1.89l-1.568.676zM146.51 114.636c-1.662-.697-1.67-.705-2.992-3.212-.729-1.382-1.438-2.625-1.575-2.764-.59-.594-.142-.584 1.404.03 1.403.557 1.792.864 2.563 2.027.927 1.397 2.663 4.377 2.663 4.57 0 .18-.334.075-2.063-.65zM107.492 116.519c-.056-.11-.05-1.598.013-3.308l.114-3.109h3.257c1.792 0 3.446.073 3.676.161.35.134.418.682.418 3.307v3.147h-3.688c-2.029 0-3.734-.09-3.79-.198zM98.474 115.629c.072-.639.242-2.033.376-3.098.135-1.066.246-2.048.246-2.183 0-.139 1.565-.246 3.605-.246h3.605l-.116 3.038c-.064 1.67-.169 3.09-.232 3.153-.064.064-1.803.201-3.866.306l-3.75.19zM119.865 117.139l-3.44-.29-.153-3.175c-.085-1.746-.117-3.223-.07-3.281.11-.14 6.696.405 6.86.569.092.092.904 5.903.904 6.473 0 .041-.148.057-.33.034a314.29 314.29 0 0 0-3.77-.33zM81.688 116.915c.145-.618.55-2.095.899-3.282l.635-2.158 1.256-.17c2.733-.368 5.093-.565 5.099-.424.008.198-1.162 6.209-1.23 6.32-.05.081-5.927.82-6.62.833-.22.004-.231-.297-.039-1.119zM152.226 117.82c-.19-.265-.916-.815-1.614-1.221-.854-.498-1.447-1.095-1.82-1.832-.305-.6-1.074-1.9-1.71-2.887-.635-.987-1.155-1.856-1.155-1.93 0-.076.524.223 1.166.664.64.442 1.655 1.549 2.254 2.46.599.912 1.362 1.987 1.697 2.388.686.823 1.867 2.842 1.662 2.842-.074 0-.29-.217-.48-.483zM128.79 118.022c-1.785-.228-3.344-.526-3.465-.661-.228-.258-.978-6.157-.8-6.296.114-.088 5.753.587 6.215.744.326.11 1.517 5.413 1.382 6.154-.082.452-.237.454-3.332.059zM74.655 117.241c.932-3.036 1.576-4.424 2.13-4.588.565-.167 4.803-.963 5.13-.963.123 0 .058.47-.144 1.043-.203.574-.631 2.032-.953 3.241-.321 1.21-.603 2.224-.626 2.256-.06.082-5.507 1.131-5.88 1.132-.207 0-.095-.698.343-2.12zM68.297 120.591c.575-1.864 1.77-4.919 2.198-5.622.422-.692.828-.911 2.563-1.383 1.134-.308 2.095-.527 2.135-.487.04.04-.27.961-.692 2.045-.42 1.085-.91 2.547-1.087 3.25-.177.703-.454 1.316-.615 1.363-.162.046-1.28.38-2.486.742l-2.191.659zM143.347 120.751c-1.884-.521-2.447-.782-2.447-1.135 0-.374-.7-3.014-1.495-5.646-.135-.446-.048-.479.832-.313.54.101 1.74.418 2.664.703l1.681.52.937 2.898c.515 1.594.937 3.079.937 3.3 0 .508-.147.493-3.109-.327zM152.862 109.514c-.106-.582-.196-1.713-.2-2.513-.012-1.877-.756-3.535-1.836-4.094-.452-.234-1.503-.513-2.336-.621l-1.515-.197 1.825-.31c2.902-.493 3.828-1.737 3.889-5.23.052-2.96.397-3.063.578-.172.25 3.993 1.086 5.062 4.292 5.496l1.323.178-1.782.305c-1.341.229-1.975.49-2.566 1.056-.917.878-1.103 1.552-1.32 4.78-.138 2.053-.186 2.235-.352 1.322zM64.407 121.44c.27-.779.883-2.286 1.36-3.35.885-1.967 1.34-2.38 3.557-3.223l.637-.242-.87 2.038c-.479 1.121-1.072 2.65-1.319 3.397-.47 1.425-.364 1.345-3.53 2.66-.224.093-.172-.308.165-1.28zM149.499 122.749l-1.852-.789-1.1-3.349c-.603-1.842-1.08-3.366-1.057-3.387.022-.021.848.262 1.837.629 1.292.48 1.898.863 2.157 1.364.32.62 2.264 6.004 2.264 6.272 0 .184-.342.071-2.25-.74zM61.383 124.191c.191-.4.841-1.868 1.445-3.262.775-1.792 1.415-2.839 2.184-3.572.599-.57 1.016-.858.927-.64-2.372 5.822-2.747 6.576-3.656 7.367-1.178 1.024-1.347 1.044-.9.107zM97.935 122.356c.102-1.72.265-3.423.361-3.787l.175-.661 3.793-.074 3.793-.074-.163 3.614c-.09 1.987-.198 3.641-.24 3.676-.042.035-1.838.146-3.99.247l-3.915.184zM88.8 124.744c.012-.704.16-2.411.33-3.794l.308-2.513 1.985-.164c1.091-.09 2.797-.18 3.79-.199l1.808-.034-.14.727c-.076.4-.217 2.057-.313 3.681l-.173 2.953-2.817.168c-1.55.093-3.263.233-3.81.312l-.991.143.022-1.28zM120.064 125.899l-3.506-.257v-7.644l.728.14c.4.076 2.053.217 3.674.312l2.946.173.16.965c.087.531.16 2.245.162 3.81.002 2.123-.08 2.833-.328 2.801-.182-.024-1.908-.159-3.836-.3zM80.358 124.853c.22-1.948.759-5.488.836-5.492.023-.001 1.466-.18 3.207-.397 3.88-.484 3.938-.484 3.761-.025-.078.204-.286 1.84-.462 3.638-.176 1.798-.352 3.308-.393 3.356-.088.106-5.842.832-6.618.836-.524.002-.538-.083-.331-1.916zM155.941 126.574c-.214-.255-.604-1.179-.867-2.052a32.456 32.456 0 0 0-1.243-3.283c-.904-2.002-.817-2.497.113-.646.888 1.768 2.635 6.197 2.498 6.334-.061.062-.287-.097-.5-.353z" transform="translate(-24.305 -88.575)"/><path style="fill:#fff;stroke-width:.115118" d="M61.924 108.815c0-.168-.081-1.407-.18-2.754-.152-2.05-.223-2.54-.443-3.023-.618-1.36-1.383-1.813-3.435-2.03-.744-.08-1.353-.177-1.353-.217 0-.04.579-.139 1.285-.22.707-.08 1.489-.218 1.738-.306.734-.26 1.311-.799 1.688-1.579.324-.67.356-.862.522-3.16.098-1.347.178-2.612.178-2.811 0-.951.11-.023.289 2.438.223 3.073.353 3.587 1.101 4.342.67.677 1.13.855 2.725 1.056.776.097 1.41.207 1.41.245 0 .037-.6.134-1.335.214-.734.08-1.557.242-1.828.358-.852.365-1.645 1.338-1.828 2.246-.039.19-.153 1.485-.255 2.878-.1 1.393-.205 2.554-.231 2.58-.027.027-.048-.09-.048-.257z" transform="translate(-24.305 -88.575)"/><path style="fill:#fff;stroke-width:.264583" d="M129.193 126.783c-1.855-.248-3.418-.501-3.472-.562-.055-.061-.16-1.76-.233-3.775l-.134-3.663 1.092.145c.6.08 2.184.285 3.518.456 2.11.272 2.445.385 2.576.873.282 1.053.508 7.044.264 7.01l-3.611-.484zM72.499 127.648c.065-.41.244-1.578.398-2.597.258-1.713.799-4.364.891-4.366.022 0 1.264-.239 2.761-.53 1.497-.29 2.879-.528 3.07-.528.289 0 .292.338.018 1.919a69.308 69.308 0 0 0-.522 3.707c-.163 1.533-.27 1.805-.754 1.908-.31.066-1.576.31-2.813.544-1.237.233-2.456.483-2.71.556-.375.107-.437-.003-.34-.613zM144.868 129.742c-1.382-.375-2.55-.708-2.595-.74-.045-.032-.203-1.29-.35-2.798-.148-1.507-.367-3.187-.486-3.732-.151-.695-.126-.993.086-.994.259-.002 5.225 1.328 5.387 1.442.082.058.799 4.524.99 6.166.19 1.63.393 1.585-3.032.656zM61.933 131.335c.052-.254.35-1.773.663-3.373.314-1.601.683-3.123.822-3.383.239-.447 3.1-1.898 3.316-1.682.056.056-.134 1.337-.423 2.848-.289 1.51-.594 3.163-.678 3.672-.138.835-.315.998-1.8 1.657-1.932.857-2.024.87-1.9.261zM150.919 131.698l-2.02-.826-.18-1.984a47.294 47.294 0 0 0-.518-3.77c-.187-.983-.26-1.786-.162-1.786.306 0 3.56 1.362 3.882 1.625.487.398 1.674 7.667 1.24 7.601-.122-.018-1.132-.405-2.242-.86zM97.508 133.831c0-.636.078-2.603.173-4.372l.173-3.217h7.869l-.073 4.3-.072 4.299-4.035.073-4.035.073zM60.118 128.573c-.085-.21-.147-.148-.16.16-.011.28.051.435.139.348.088-.088.097-.317.02-.508zM59.853 129.632c-.084-.211-.147-.149-.16.16-.011.279.052.435.14.347.087-.088.097-.316.02-.507z" transform="translate(-24.305 -88.575)"/><path style="fill:#fff;stroke-width:.264583" d="M58.486 134.047c.473-2.738 1.544-6.443 2.113-7.313.746-1.14 2.465-2.497 2.161-1.705-.1.264-.427 1.746-.724 3.294a570.006 570.006 0 0 1-.657 3.386c-.065.315-.61.962-1.21 1.438-.874.692-1.062.763-.942.353.083-.281.211-1.107.285-1.834.09-.88-.016-.6-.315.838-.458 2.2-1.045 3.473-.711 1.543zM110.936 135.032l-3.903-.073V126.176l3.96.113c2.178.062 4.04.192 4.137.289.097.097.071 2.055-.058 4.352l-.234 4.175zM88.512 131.27c0-3.16.085-4.282.33-4.372.51-.186 7.378-.55 7.464-.396.041.075.015 2.005-.058 4.29l-.133 4.152-1.354.136c-.745.075-2.455.205-3.801.289l-2.448.152zM119.46 135.432l-3.053-.252.105-4.27c.058-2.35.135-4.305.172-4.346.148-.164 7.43.522 7.632.72.12.117.132 2.073.028 4.348l-.19 4.135-.821-.041c-.452-.023-2.195-.155-3.874-.294zM79.844 136.079c-.134-.35.163-8.035.317-8.189.111-.111 5.71-.843 6.5-.85l.66-.006-.077 4.314-.079 4.314-3.591.388c-3.014.325-3.615.33-3.73.029zM157.923 136.05c-.316-.39-.649-1.29-.745-2.016-.18-1.344-.864-5.127-1.099-6.072-.288-1.16.964.8 1.352 2.116.396 1.344 1.285 6.492 1.142 6.612-.043.036-.336-.252-.65-.64zM128.64 136.337l-3.133-.41.188-4.247c.103-2.336.224-4.289.269-4.339.108-.122 6.766.742 7.045.914.261.162.282 2.828.046 6.148-.16 2.247-.212 2.42-.728 2.383-.305-.022-1.965-.224-3.688-.45zM72.108 135.175c0-1.524.075-3.488.167-4.366l.167-1.596 2.81-.56c1.545-.308 2.988-.56 3.206-.56.34 0 .386.62.319 4.31l-.078 4.31-2.7.458c-1.485.253-2.968.53-3.296.617-.59.156-.595.13-.595-2.613zM138.518 137.864a239.765 239.765 0 0 0-3.24-.622l-.993-.176v-4.354c0-2.394.054-4.354.119-4.354.237 0 5.847 1.089 6.297 1.222.41.121.461.51.444 3.36-.011 1.773-.1 3.706-.199 4.296l-.179 1.073zM66.026 135.833c.002-2 .078-3.915.169-4.254.179-.668.604-.877 3.298-1.624l1.773-.491-.042 4.347-.042 4.348-1.058.272c-.582.15-1.586.445-2.23.656-1.957.641-1.872.789-1.868-3.254zM144.868 139.36l-2.778-.8.093-4.24c.051-2.333.129-4.28.172-4.325.044-.047 1.311.254 2.818.668l2.738.752.073 4.206c.04 2.314-.02 4.281-.132 4.372-.113.092-1.456-.193-2.984-.633zM61.528 138.192c.001-1.843.079-3.813.172-4.378.159-.959.283-1.079 1.878-1.802.94-.426 1.725-.737 1.746-.693.02.045 0 1.998-.047 4.339l-.083 4.256-1.835.815-1.834.815.003-3.352zM150.782 141.253l-1.892-.804.141-4.26c.078-2.342.155-4.278.172-4.3.017-.024.943.33 2.058.784l2.027.826.177 1.416c.246 1.967-.116 7.21-.495 7.172-.163-.016-1.148-.391-2.188-.834zM58.879 139.318v-4.141l.978-.896c.537-.492 1.043-.895 1.124-.895.08 0 .104 1.926.052 4.28-.088 3.984-.134 4.314-.662 4.767-1.538 1.32-1.492 1.416-1.492-3.115zM97.665 140.237c-.102-2.2-.113-4.073-.024-4.162.089-.089 1.892-.165 4.008-.169l3.847-.007-.038 3.96c-.021 2.177-.062 3.977-.091 3.998-.03.021-1.733.116-3.785.21l-3.73.17-.187-4zM155.328 143.49l-1.315-.881.083-4.281c.045-2.355.1-4.298.124-4.32.022-.02.666.366 1.43.858l1.39.896-.016 3.376c-.008 1.857-.098 3.794-.198 4.305l-.184.93-1.314-.883zM119.517 144.673l-3.524-.258.185-3.993c.1-2.197.229-4.044.284-4.106.2-.224 7.379.287 7.622.543.216.228-.537 7.997-.78 8.033-.145.022-1.85-.077-3.787-.219zM57.9 141.037c.06-2.412.228-4.6.374-4.86.184-.329.247.86.207 3.881-.037 2.818-.169 4.534-.373 4.86-.25.4-.293-.41-.208-3.88zM80.478 144.167c-.093-.764-.246-2.592-.34-4.063l-.168-2.675 2.617-.31c1.44-.17 3.045-.373 3.567-.45l.949-.14.286 4.05c.157 2.228.255 4.082.218 4.119-.071.071-6.153.853-6.665.856-.161.001-.37-.623-.464-1.387zM72.934 145.236c-.163-.936-.372-2.774-.465-4.084l-.169-2.381 2.748-.466c1.512-.256 2.946-.52 3.188-.586.372-.102.466.194.614 1.94.097 1.134.278 2.952.403 4.041.125 1.09.193 2.015.152 2.056-.065.065-1.634.368-5.346 1.034l-.828.148zM158.627 146.862c0-.156-.29-.662-.642-1.125-.624-.818-.64-.964-.595-5.122.044-4.062.07-4.259.51-3.86.78.704 1.013 2.272.953 6.418-.031 2.184-.095 3.97-.142 3.97-.046 0-.084-.126-.084-.281zM136.93 146.865c-1.236-.27-2.591-.496-3.01-.503-.745-.011-.76-.038-.602-1.136.088-.619.304-2.464.48-4.101.257-2.387.402-2.977.734-2.98.228 0 1.757.251 3.397.56l2.983.561-.126.83c-.07.457-.33 2.289-.578 4.071-.27 1.938-.567 3.23-.74 3.215-.158-.015-1.3-.248-2.537-.517zM143.705 148.418c-1.44-.404-2.673-.789-2.739-.855-.066-.065.066-1.288.293-2.717.227-1.428.487-3.21.577-3.961l.165-1.364 2.426.664c1.334.365 2.643.727 2.909.805.416.121.46.327.314 1.494-.274 2.194-.981 6.093-1.16 6.393-.11.182-1.06.026-2.785-.459zM62.484 148.366c-.232-1.181-.497-2.981-.589-4l-.166-1.852 1.491-.728c2.013-.982 2.273-.952 2.274.265.002.952.673 5.579.935 6.43.092.3-.368.631-1.699 1.222l-1.824.811zM149.348 150.281l-2.004-.8.471-2.16c.259-1.19.55-2.965.648-3.947.111-1.113.298-1.786.495-1.786.42 0 3.649 1.305 3.955 1.598.36.346-.976 7.949-1.39 7.911-.095-.009-1.074-.376-2.175-.816zM59.977 151.179c-.267-1.252-.687-3.809-.933-5.68-.117-.892-.033-1.06.883-1.787.557-.44 1.067-.801 1.134-.801.068 0 .196.789.286 1.754.09.964.36 2.74.6 3.944l.434 2.19-.891.81c-.49.447-.97.815-1.068.819-.097.004-.297-.558-.445-1.25zM109.877 153.565l-3.109-.088v-7.92l3.506.004c1.928.002 3.67.107 3.868.233.298.189.322.913.133 4.031-.215 3.541-.267 3.802-.76 3.815-.29.007-1.928-.026-3.638-.075zM90.098 153.94c-.001-.027-.233-1.772-.515-3.878-.282-2.105-.481-3.86-.442-3.9.117-.117 7.156-.582 7.259-.48.14.14.674 7.807.551 7.914-.108.094-6.85.433-6.853.345zM118.28 153.966c-1.599-.135-2.924-.267-2.944-.293-.02-.026.089-1.803.243-3.95l.279-3.902h.813c.963 0 6.58.52 6.678.618.038.037-.166 1.726-.451 3.752-.286 2.027-.52 3.777-.52 3.89 0 .23-.037.23-4.098-.115z" transform="translate(-24.305 -88.575)"/><path style="fill:#fff;stroke-width:.410997" d="M36.411 136.703c-.487-6.476-1.481-7.933-5.902-8.653-1.261-.205-2.364-.445-2.452-.532-.088-.088.898-.269 2.19-.402 4.438-.458 5.717-2.266 6.167-8.716l.315-4.516.46 4.799c.636 6.65 1.584 7.92 6.281 8.41 1.402.147 2.495.322 2.427.39-.067.067-1.303.312-2.748.545-4.453.717-5.449 2.237-6.082 9.283l-.332 3.699z" transform="translate(-24.305 -88.575)"/><path style="fill:#fff;stroke-width:.264583" d="M58.767 152.517c-.593-2.64-.84-6.196-.475-6.848.238-.425.3-.348.449.557.095.578.404 2.315.686 3.86.443 2.425.464 2.927.159 3.654l-.354.842zM82.308 154.521c-.188-.533-1.175-5.785-1.262-6.716l-.074-.793 3.307-.418c1.819-.23 3.396-.372 3.506-.316.109.057.204.543.21 1.08.007.537.226 2.268.486 3.846.328 1.987.385 2.896.186 2.955-.158.047-1.12.161-2.14.254a83.3 83.3 0 0 0-2.97.321c-.821.113-1.154.056-1.249-.213zM127.803 154.913c-1.164-.18-2.544-.334-3.065-.343-.521-.01-1.01-.08-1.085-.155-.076-.075.015-1.014.2-2.085.187-1.071.423-2.795.525-3.831.172-1.745.232-1.884.804-1.884 1.271 0 5.89.606 6.232.818.293.18.224.874-.385 3.868-.407 2.007-.824 3.713-.925 3.793-.102.08-1.137-.002-2.301-.181zM170.435 152.648c-.093-.51-.246-2.236-.34-3.837-.298-5.13-1.456-6.51-5.793-6.904-2.341-.212-2.162-.486.487-.745 3.931-.384 5.039-1.874 5.349-7.194.26-4.46.523-4.728.74-.752.233 4.31.47 5.188 1.734 6.453 1.038 1.037 2.636 1.596 4.592 1.606 1.845.009 1.498.453-.496.633-2.945.267-4.442 1.176-5.27 3.199-.12.291-.356 2.315-.525 4.498-.211 2.724-.361 3.678-.478 3.043zM74.54 152.766c-.46-1.855-.868-3.603-.907-3.884-.07-.516.41-.658 5.248-1.557l.82-.152.332 1.904c.182 1.047.541 2.824.798 3.949l.468 2.045-.958.167c-.526.092-1.768.333-2.76.535-.992.202-1.894.367-2.004.367-.11 0-.577-1.518-1.038-3.374zM158.008 150.782c-.073-.182-.133-.033-.133.33 0 .365.06.513.133.332.074-.182.074-.48 0-.662zM157.75 152.122c-.085-.212-.148-.149-.16.16-.012.278.05.435.138.347.088-.088.098-.316.021-.507zM157.485 153.18c-.085-.211-.148-.149-.16.16-.012.279.05.435.139.347.088-.088.097-.316.02-.507z" transform="translate(-24.305 -88.575)"/><path style="fill:#fff;stroke-width:.264583" d="M156.99 156.267c-.09-.09-.047-.583.095-1.096.142-.513.204-.987.138-1.053-.066-.066-.2.202-.3.594l-.178.713-.634-.933c-.564-.83-.603-1.047-.349-1.958.157-.563.542-2.329.857-3.923l.57-2.9.631.886c.53.745.626 1.182.603 2.766-.027 1.895-1.13 7.207-1.433 6.904zM69.745 157.232c-.465-.868-2.157-6.74-2.034-7.058.105-.274 3.817-1.442 4.58-1.442.153 0 .352.457.441 1.016.132.826.864 3.57 1.649 6.178.108.362-.237.556-1.797 1.007a138.68 138.68 0 0 0-2.258.667c-.18.06-.441-.106-.581-.368zM140.95 157.496c-2.17-.611-2.45-.758-2.343-1.224.173-.75 1.847-7.131 1.89-7.203.041-.068 1.393.283 3.888 1.01l1.766.515-.506 1.78c-.697 2.449-1.929 5.89-2.095 5.85-.075-.018-1.246-.346-2.6-.728zM65.01 157.264c-.786-2.046-1.633-4.72-1.633-5.152 0-.125.744-.58 1.653-1.011 1.513-.717 1.67-.744 1.834-.32.099.255.612 1.833 1.14 3.507.528 1.673 1.018 3.18 1.09 3.348.114.266-2.482 1.679-3.084 1.679-.118 0-.568-.923-1-2.05zM62.628 159.509a59.148 59.148 0 0 1-1.385-3.753l-.592-1.838 1.017-.88 1.018-.88.964 2.85c.53 1.569 1.147 3.275 1.37 3.793l.404.942-1 .84-1.001.84zM150.44 161.291c-.502-.354-1.018-.679-1.148-.722-.13-.043.176-1.087.68-2.32.504-1.233 1.126-2.896 1.382-3.697.256-.8.504-1.5.551-1.555.09-.103 2.753 1.54 2.753 1.7 0 .727-2.795 7.27-3.098 7.25-.115-.006-.62-.302-1.12-.656zM106.945 162.313c-.097-.097-.177-1.839-.177-3.871v-3.695l3.44.124c1.893.068 3.499.182 3.57.252.07.07-.013 1.756-.184 3.747l-.31 3.62h-3.082c-1.694 0-3.16-.08-3.257-.177zM99.246 162.187c-.154-.461-.68-5.56-.68-6.587v-.783H105.395l.18 2.712c.1 1.492.142 3.174.092 3.74l-.09 1.027-3.106.125c-2.462.099-3.131.05-3.226-.234zM91.88 162.588c-.217-.35-1.54-7.041-1.417-7.164.224-.224 6.78-.412 6.78-.195 0 .125.188 1.762.417 3.637.229 1.874.378 3.445.33 3.49-.222.216-5.985.434-6.11.232zM116.492 162.822c-2.035-.09-2.05-.095-2.035-.806.029-1.335.677-6.657.83-6.81.136-.136 6.567.321 6.724.478.036.036-.247 1.7-.627 3.7l-.692 3.635-1.075-.053c-.591-.03-1.997-.094-3.125-.144zM62.054 162.968c0-.174-.492-1.573-1.093-3.11-1.107-2.827-1.39-4.516-.85-5.056.22-.22.417.071.756 1.116.252.777.854 2.382 1.339 3.568.778 1.904.845 2.25.57 2.976-.308.818-.722 1.108-.722.506zM84.808 163.417c0-.072-.474-1.702-1.053-3.621-.58-1.92-1.026-3.511-.992-3.537.13-.1 4.9-.648 5.639-.648h.78l.705 3.24c.388 1.783.779 3.433.87 3.666.139.361-.235.47-2.506.728-2.978.338-3.443.362-3.443.172zM123.875 163.483c-2.398-.31-2.24.286-1.226-4.631.707-3.424.249-3.15 4.436-2.665l2.723.315-.174.811c-.096.446-.547 2.062-1.003 3.59l-.829 2.778-.925.034c-.51.02-1.86-.085-3.002-.232zM77.968 162.898c-.933-2.222-2.16-5.435-2.078-5.436.03 0 1.292-.241 2.805-.535 1.513-.293 2.791-.493 2.84-.443.128.127 2.424 7.183 2.363 7.258-.028.034-.983.24-2.124.458-1.14.218-2.276.46-2.524.54-.354.112-.626-.277-1.282-1.842zM131.294 164.606c-1.28-.258-2.376-.516-2.434-.574-.058-.057.365-1.574.94-3.369.575-1.795 1.045-3.436 1.045-3.647 0-.235.178-.334.464-.257.254.068 1.594.331 2.976.584 1.383.253 2.547.486 2.587.518.269.212-2.702 7.294-3.039 7.244a177.75 177.75 0 0 1-2.539-.5zM153.347 165.193c-.006-.332.284-1.188.646-1.902.844-1.667 2.256-5.216 2.241-5.637-.006-.178-.401.63-.878 1.793a78.502 78.502 0 0 1-1.478 3.383l-.61 1.267-.6-.87c-.461-.67-.537-.985-.33-1.375.147-.277.831-1.925 1.52-3.66l1.254-3.157.545.693c1.04 1.322 1.006 2.483-.156 5.38-.578 1.44-1.296 3.084-1.596 3.654-.45.852-.549.928-.558.431zM72.123 162.745c-.949-1.973-1.57-3.567-1.437-3.697.226-.222 4.111-1.375 4.216-1.25.03.034.672 1.55 1.427 3.37a852.51 852.51 0 0 0 1.493 3.58c.066.15-.648.478-1.587.729-.94.25-1.873.518-2.075.595-.26.1-.857-.876-2.037-3.327zM136.989 165.864c-1.06-.301-1.893-.63-1.852-.732l1.388-3.464c.723-1.803 1.353-3.334 1.4-3.4.168-.236 5.091 1.14 5.09 1.422 0 .157-.709 1.745-1.574 3.528-1.173 2.417-1.694 3.235-2.05 3.217-.261-.013-1.343-.27-2.402-.57zM69.368 166.244c-.859-1.427-2.816-5.205-2.816-5.436 0-.103 2.816-1.493 3.023-1.493.121 0 3.424 6.665 3.444 6.951.008.112-.606.492-1.365.844l-1.38.639zM142.222 167.565l-1.72-.685 1.613-3.187c.888-1.753 1.665-3.344 1.727-3.535.086-.267.556-.183 2.024.361 1.052.39 1.913.85 1.913 1.024 0 .319-3.277 6.196-3.64 6.528-.108.099-.97-.129-1.917-.506zM145.584 169.223c-.546-.372-.945-.759-.886-.86.059-.102.592-.981 1.185-1.955a55.231 55.231 0 0 0 1.783-3.175c.388-.772.745-1.448.792-1.5.123-.138 1.845.954 2.221 1.407.25.3.164.64-.417 1.65-1.155 2.005-3.274 5.108-3.488 5.108-.107 0-.643-.304-1.19-.675zM100.297 169.867c-.443-2.505-.873-5.937-.759-6.054.071-.073 1.482-.172 3.136-.22l3.006-.09.081 3.463.081 3.463-1.322.002c-.728 0-1.94.075-2.694.166l-1.37.165-.159-.895zM93.189 167.613c-.53-1.853-.929-3.403-.887-3.444.041-.042 1.395-.156 3.008-.254l2.933-.178.156.766c.386 1.89 1.01 5.963.923 6.038-.052.045-1.236.163-2.633.262l-2.538.18zM115.685 170.95c-1.135-.108-2.137-.269-2.226-.358-.13-.13.637-6.522.803-6.688.093-.093 5.8.415 5.912.526.122.122-1.069 4.997-1.494 6.115-.141.372-.409.66-.594.64-.186-.021-1.266-.126-2.401-.234zM147.692 171.07l-.483-.664 1.572-2.436c.865-1.34 1.77-2.824 2.012-3.297.241-.473.541-.86.666-.86.41 0 1.126 1.356.955 1.807-.228.598-3.94 6.132-4.106 6.122-.073-.005-.35-.307-.616-.672zM121.244 171.485c-.842-.108-1.575-.241-1.629-.296-.111-.114 1.654-6.354 1.854-6.555.152-.152 5.39.397 5.578.584.136.136-1.46 4.396-2.141 5.712-.466.902-.69.935-3.662.555zM64.964 167.782c-.156-.291-.342-.53-.415-.53-.073 0-.005.239.15.53.156.29.343.529.416.529.073 0 .005-.238-.15-.53z" transform="translate(-24.305 -88.575)"/><path style="fill:#fff;stroke-width:.264583" d="M66.221 170.73c-1.026-1.588-1.212-2.057-.687-1.732.191.117.234.072.114-.121-.105-.17-.293-.248-.417-.17-.239.147-1.91-2.581-1.809-2.954.033-.121-.03-.483-.14-.804-.119-.351-.058-.852.153-1.255l.351-.67.9 1.651c.496.908 1.407 2.41 2.024 3.338.974 1.462 1.085 1.77.836 2.317-.277.607-.307.613-.823.165-.477-.413-.47-.369.064.4.33.474.56.977.513 1.116-.048.14-.533-.437-1.079-1.281zM81.846 170.494c-1.518-2.572-2.4-4.318-2.255-4.463.134-.133 4.038-.895 4.587-.895.21 0 .456.208.546.463.09.255.742 1.702 1.448 3.217.707 1.515 1.232 2.808 1.168 2.872-.103.103-3.739.855-4.135.856-.082 0-.693-.923-1.359-2.05zM128.597 172.637a89.102 89.102 0 0 0-1.884-.383l-1.354-.262 1.288-2.887c.708-1.588 1.288-3.005 1.288-3.148 0-.143.115-.332.256-.42.302-.186 5.3.667 5.3.905 0 .09-.759 1.529-1.687 3.199-1.701 3.06-1.94 3.283-3.207 2.996zM148.308 172.857c0-.3.667-1.475 1.483-2.612.815-1.136 1.78-2.572 2.142-3.19.78-1.333.998-1.42.777-.315-.161.805-3.283 5.734-4.018 6.344-.315.261-.384.22-.384-.227zM78.249 172.863c-1.218-1.561-3.495-5.032-3.495-5.327 0-.229.652-.462 3.456-1.232.27-.075.566.208.857.818.245.513 1.095 2 1.889 3.303l1.444 2.37-1.078.29c-.593.16-1.355.396-1.693.525-.526.2-.727.09-1.38-.747zM132.755 173.618c-.915-.261-1.717-.53-1.784-.595-.066-.067.653-1.475 1.597-3.13.944-1.655 1.717-3.095 1.717-3.2 0-.188.602-.06 3.372.714l1.388.389-.694 1.117c-1.098 1.769-3.606 5.22-3.778 5.2-.086-.01-.904-.233-1.818-.495zM74.035 172.857c-1.01-1.263-2.098-2.678-2.419-3.144-.655-.95-.686-.91 1.34-1.752l.981-.407.83 1.35c.458.742 1.415 2.12 2.129 3.063.714.943 1.297 1.792 1.297 1.887 0 .094-.522.426-1.16.736l-1.162.564zM136.542 174.828c-.756-.34-1.19-.671-1.018-.777.163-.1 1.161-1.463 2.218-3.028a909.916 909.916 0 0 1 1.978-2.923c.031-.042.839.236 1.794.618l1.738.696-.797 1.102c-1.65 2.28-3.955 4.938-4.27 4.922-.18-.009-.92-.283-1.643-.61zM72.71 175.104a50.33 50.33 0 0 1-2.585-2.942l-1.258-1.572.846-.756.846-.756.816 1.138c.449.625 1.566 2.042 2.483 3.147l1.666 2.009-.744.55-.745.551zM139.675 176.406l-.828-.591 1.754-2.11c.965-1.16 2.056-2.507 2.426-2.993.73-.962 1.152-.97 2.357-.041l.648.5-1.036 1.282c-1.329 1.643-4.133 4.596-4.337 4.566-.086-.012-.529-.288-.984-.613zM106.938 176.844c-.09-.546-.165-1.915-.167-3.043l-.003-2.05h2.646c3.057 0 2.841-.318 2.246 3.307-.216 1.31-.392 2.47-.393 2.58 0 .108-.938.198-2.083.198h-2.082zM101.263 174.991c-.321-1.564-.583-2.933-.582-3.042.001-.11 1.193-.199 2.648-.199h2.646v2.216c0 1.219.074 2.588.165 3.043l.165.827h-4.458zM71.522 176.283c-2.84-3.066-3.455-3.943-3.275-4.662.092-.365.254-.66.36-.656.107.005.585.527 1.063 1.162.478.635 1.588 1.94 2.467 2.898 1.22 1.332 1.557 1.87 1.428 2.277-.094.294-.268.534-.388.534s-.865-.699-1.655-1.553zM96.562 177.108c-.768-1.8-1.957-4.925-1.894-4.98.034-.03 1.177-.097 2.54-.15l2.477-.095.719 2.946.718 2.947-1.182.162c-2.54.348-2.914.256-3.378-.83zM113.846 178.166c-2.066-.104-1.962.178-1.286-3.505l.46-2.514 2.446.037c1.345.02 2.498.09 2.564.156.2.2-1.85 5.855-2.133 5.887-.146.016-1.069-.012-2.051-.061zM90.985 176.324c-2.029-3.471-2.023-3.456-1.48-3.617.254-.075 1.307-.215 2.34-.312l1.877-.176.455 1.155c.25.635.823 1.96 1.272 2.944.45.984.77 1.832.71 1.884-.058.052-.94.173-1.96.27l-1.855.177zM119.733 178.75c-.218-.047-.944-.158-1.614-.246l-1.216-.16 1.099-2.92c.604-1.605 1.182-2.922 1.285-2.927.852-.036 4.444.409 4.538.562.199.321-2.909 5.7-3.317 5.741a2.945 2.945 0 0 1-.775-.05zM87.685 178.709c-.911-.982-3.67-4.657-3.67-4.887 0-.1.684-.314 1.52-.476.837-.161 1.762-.344 2.056-.405.418-.087.701.189 1.301 1.267a48.64 48.64 0 0 0 1.781 2.886c.558.829 1.014 1.557 1.014 1.62 0 .062-.506.193-1.124.291a26.39 26.39 0 0 0-1.658.312c-.357.089-.76-.112-1.22-.608zM71.8 177.637c-1.921-1.962-3.66-4.169-3.66-4.644 0-.168.382.169.85.748.467.579 1.64 1.886 2.605 2.904 1.437 1.518 2.353 2.778 2.019 2.778-.036 0-.852-.803-1.814-1.786zM123.305 179.35c-.873-.143-1.63-.296-1.682-.342-.052-.045.321-.774.83-1.62a52.37 52.37 0 0 0 1.612-2.91c.767-1.53.656-1.508 3.949-.765l1.269.286-1.311 1.852c-.721 1.02-1.71 2.28-2.196 2.804l-.884.952zM84.138 179.47c-1.392-1.267-4.093-4.255-4.093-4.528 0-.25 1.363-.714 2.558-.868.447-.058 1.064.536 2.809 2.704l2.236 2.778-1.09.326c-1.455.437-1.497.43-2.42-.411zM141.844 180.482c.128-.219.197-.619.152-.89-.054-.328.807-1.394 2.586-3.202 1.467-1.491 2.668-2.808 2.668-2.927 0-.119-1.102.937-2.448 2.347-1.346 1.409-2.567 2.56-2.714 2.558-.147-.002-.423-.252-.613-.557-.317-.506-.212-.696 1.199-2.183.85-.896 2.035-2.21 2.633-2.922l1.089-1.293.439.67c.241.368.506 1.085.589 1.593.14.861.007 1.081-1.966 3.27-2.213 2.454-4.011 4.213-3.614 3.536zM81.444 180.433c-.551-.463-1.805-1.62-2.788-2.572l-1.786-1.731.86-.459c.473-.252 1.027-.464 1.23-.47.205-.006 1.519 1.19 2.921 2.657l2.55 2.668-.725.375c-.997.516-1.124.49-2.262-.468zM130.516 181.316c-.545-.24-.961-.513-.926-.606.036-.092 1.17-1.321 2.52-2.73l2.456-2.563 1.191.455c.655.25 1.245.542 1.31.648.161.26-5.124 5.348-5.463 5.26a25.376 25.376 0 0 1-1.088-.464zM79.117 180.975c-1.163-.887-2.567-2.045-3.12-2.574l-1.006-.962.732-.585.733-.584 1.86 1.784c1.024.982 2.335 2.168 2.913 2.635 1.049.847 1.05.851.528 1.374-.523.523-.531.52-2.64-1.088zM132.741 182.376l-.618-.476 2.206-1.875c1.213-1.031 2.489-2.179 2.836-2.55.591-.633.676-.65 1.372-.291 1.492.772 1.396.914-2.747 4.093-1.137.872-2.149 1.583-2.249 1.58-.1-.003-.46-.22-.8-.481z" transform="translate(-24.305 -88.575)"/><path style="fill:#fff;stroke-width:.288015" d="M39.096 190.461c-.262-4.785-.608-6.387-1.632-7.552-1.062-1.21-1.932-1.565-4.918-2.002l-2.403-.353 1.872-.215c2.816-.324 3.937-.695 5.045-1.667 1.335-1.172 1.785-2.873 2.033-7.673.108-2.104.23-3.79.27-3.744.039.046.223 2.027.409 4.403.52 6.653 1.416 7.909 6.079 8.528 1.34.177 2.473.355 2.517.394.044.04-1.048.217-2.428.395-4.785.618-5.635 1.797-6.157 8.54-.184 2.376-.37 4.357-.414 4.402-.043.046-.166-1.51-.273-3.456z" transform="translate(-24.305 -88.575)"/><path style="fill:#fff;stroke-width:.264583" d="M78.72 182.407c-3.602-2.522-4.723-3.726-4.075-4.374.215-.215 6.194 4.623 6.194 5.013 0 .662-.457.524-2.119-.639zM134.039 183.547c-.252-.304-.08-.534.918-1.22.675-.465 2.068-1.55 3.095-2.41 1.772-1.483 1.893-1.54 2.358-1.12.27.244.49.525.49.624 0 .177-3.958 3.173-5.349 4.048-.873.55-1.11.562-1.512.078zM107.033 181.42v-2.526H111.026l-.176.992c-.097.546-.32 1.647-.495 2.448l-.319 1.455-1.501.08-1.502.079zM103.467 183.59c-.385-1.162-1.196-4.142-1.196-4.394 0-.2.673-.302 1.984-.302h1.984l.002.728c.001.4.078 1.531.17 2.513l.17 1.786h-1.502c-.967 0-1.541-.118-1.612-.33zM99.55 183.061c-.359-.618-.96-1.734-1.335-2.48l-.683-1.357.98-.162c.54-.09 1.4-.163 1.915-.165l.934-.003.819 2.484.818 2.485-.96.158c-1.63.27-1.814.199-2.488-.96zM96.146 183.458c-1.475-1.556-2.905-3.58-2.68-3.791.113-.107.909-.235 1.768-.285l1.563-.09 1.38 2.38c1.495 2.58 1.481 2.72-.285 2.76-.601.014-1.044-.233-1.746-.974zM115.02 184.52c-.628-.056-1.102-.184-1.053-.284.048-.1.62-1.236 1.273-2.525l1.186-2.342 1.71.173c.942.095 1.766.227 1.832.293.12.12-1.907 3.159-2.859 4.285-.277.327-.604.574-.726.549a24.002 24.002 0 0 0-1.363-.149zM118.41 185.002c-.51-.094-.899-.309-.866-.477.132-.664 3.355-4.57 3.751-4.547.232.014 1.005.163 1.718.33l1.296.306-2.327 2.315c-1.28 1.273-2.399 2.3-2.487 2.28-.087-.019-.576-.112-1.085-.207zM78.855 183.756c-2.763-2.029-4.366-3.497-4.366-4 0-.196.804.286 1.786 1.07.982.783 2.343 1.8 3.023 2.259.68.459 1.415 1.192 1.633 1.63.218.436.376.793.351.792-.025-.001-1.117-.79-2.427-1.75zM120.842 185.585c-.336-.065-.574-.21-.529-.323.045-.113 1.11-1.176 2.368-2.362l2.287-2.158 1.358.314c.746.172 1.315.441 1.263.597-.18.54-5.08 4.103-5.607 4.076-.291-.015-.804-.08-1.14-.144zM89.966 184.309c-2.494-1.79-3.835-2.858-3.835-3.055 0-.085.565-.283 1.257-.442l1.256-.287 1.588 1.507c.873.829 2.036 1.87 2.584 2.314l.997.807-.935.287c-.895.274-1.021.225-2.912-1.131zM134.26 185.82c.16-.297.29-.757.292-1.021 0-.28.432-.726 1.033-1.07.568-.324 1.984-1.306 3.147-2.183 1.164-.876 2.18-1.593 2.26-1.593.24 0-.403 1.686-.832 2.182-.459.53-.975.63-.689.133.11-.193.09-.239-.05-.11a.806.806 0 0 0-.241.511c0 .27-2.467 2.073-4.387 3.207-.817.483-.821.482-.533-.055zM89.041 185.725c-.509-.313-1.923-1.222-3.142-2.02-2.169-1.418-2.203-1.457-1.587-1.798.969-.537 1.279-.453 2.86.777.81.629 2.068 1.541 2.795 2.027.728.486 1.38.93 1.448.987.185.155-.594.596-1.05.596-.219 0-.814-.256-1.324-.57zM123.202 186.28c-.609-.243-.575-.292.926-1.34a50.468 50.468 0 0 0 2.83-2.15c1.24-1.033 1.299-1.052 2.315-.748.574.172 1.043.42 1.043.55 0 .246-3.727 2.778-5.212 3.54-.958.492-1.03.498-1.902.149zM107.298 187.927c0-.416-.076-1.31-.169-1.984l-.168-1.228h1.359c.768 0 1.359.12 1.359.276 0 .152-.193 1.045-.43 1.985-.403 1.606-.474 1.708-1.19 1.708-.661 0-.761-.1-.761-.757zM105.035 187.758l-.78-1.885c-.218-.527-.397-1.003-.397-1.058 0-.055.59-.1 1.31-.1 1.456 0 1.458.003 1.665 2.844.078 1.077.05 1.125-.666 1.125-.606 0-.822-.177-1.132-.926zM83.75 185.65c0-.067-.268-.252-.596-.411-.571-.277-.575-.272-.081.123.54.432.677.49.677.288z" transform="translate(-24.305 -88.575)"/><path style="fill:#fff;stroke-width:.264583" d="M87.19 188.052c-2.187-.914-4.87-2.308-5.09-2.644-.276-.42-.25-1.751.035-1.751.13 0 .994.459 1.918 1.02 1.902 1.155 4.338 2.421 4.649 2.416.114-.002-.686-.488-1.777-1.08-1.092-.592-2.555-1.439-3.252-1.882-1.198-.763-1.243-.833-.83-1.29.42-.463.515-.431 2.326.777 1.038.693 2.483 1.598 3.21 2.011 1.708.97 1.67.921 1.092 1.344-.273.2-.496.666-.496 1.036 0 .808.04.807-1.786.043zM109.593 188.762c-.265-.068-.43-.263-.365-.432.065-.17.334-.992.597-1.83l.48-1.52h1.303c1.057 0 1.273.075 1.148.402-.264.69-2.293 3.568-2.492 3.536a10.976 10.976 0 0 1-.67-.156zM101.308 188.353c-1.29-.96-3.362-2.842-3.246-2.95.06-.054.584-.17 1.166-.26 1.006-.152 1.1-.105 1.913.963.47.617 1.17 1.51 1.555 1.982l.7.86h-.643c-.354 0-1.005-.268-1.445-.595zM100.154 189.09c0-.068-.268-.253-.595-.412-.572-.277-.575-.272-.082.123.54.433.677.491.677.289z" transform="translate(-24.305 -88.575)"/><path style="fill:#fff;stroke-width:.264583" d="M96.28 189.083c-1.289-.463-2.88-1.117-3.535-1.453-1.093-.562-1.145-.633-.635-.86.438-.196 1.068.009 2.972.965 1.328.667 2.507 1.207 2.62 1.2.111-.007-.869-.562-2.178-1.232l-2.382-1.22.786-.325c.725-.301.897-.25 2.249.663 1.58 1.067 2.654 1.68 2.654 1.512 0-.058-.786-.613-1.746-1.234-1.27-.821-1.65-1.191-1.39-1.356.863-.546 1.855-.229 3.352 1.073.827.72 1.801 1.55 2.165 1.844l.662.535-.662.02c-.364.012-1.095.176-1.624.365-.884.316-1.155.275-3.307-.497zM125.413 189.966c.631-.496.704-.699.565-1.567-.15-.943-.113-1.013.7-1.284.473-.157 1.99-.931 3.37-1.72 1.838-1.05 2.601-1.36 2.845-1.157.57.474.392.66-1.634 1.702-1.082.558-1.924 1.057-1.871 1.11.052.052.941-.349 1.975-.892 1.033-.543 1.935-.93 2.005-.861.069.069-.056.49-.279.936-.441.885-3.172 2.457-6.34 3.65-2.122.798-2.255.806-1.336.083zM122.114 187.89c.51-.279.807-.507.662-.507-.146 0-.682.228-1.19.507-.51.279-.808.507-.662.507.145 0 .68-.228 1.19-.507z" transform="translate(-24.305 -88.575)"/><path style="fill:#fff;stroke-width:.264583" d="M116.907 190.983c-.36-.604-1.468-1.2-2.926-1.573l-1.379-.353 1.95-1.765c1.936-1.754 1.956-1.764 3.102-1.566l1.153.199-1.889 1.313c-1.039.722-2.11 1.469-2.381 1.658-.271.19.103.02.83-.38a30.05 30.05 0 0 0 2.546-1.601c.989-.71 1.38-.846 2.05-.712.456.091.828.268.828.394s-1.041.76-2.315 1.409c-1.273.649-2.223 1.186-2.111 1.193.112.007 1.288-.531 2.614-1.197 1.804-.906 2.585-1.168 3.104-1.04.928.228 1.933.898 1.762 1.174-.075.123.07.207.322.187.29-.023.492.184.545.559.1.703-.381.929-3.524 1.65-3.473.796-4.04.856-4.281.45zM98.302 192.266c-5.344-1.018-7.938-2.256-7.938-3.79 0-.515.092-.601.463-.435 1.134.508 6.33 2.222 6.747 2.226.283.003.463.207.463.524 0 .528.556.952 1.985 1.51 1.002.393.47.382-1.72-.035zM114.597 192.688c.449-.118.975-.313 1.168-.433.193-.12 1.85-.483 3.681-.808 1.831-.326 3.568-.681 3.859-.79.396-.15.458-.121.245.11-.395.431-6.015 1.819-8.073 1.994-1.119.095-1.419.07-.88-.073zM106.217 192.219c.23-.2-1.457-.048-1.962.176-.353.156-.134.182.661.077.655-.087 1.24-.2 1.301-.253z" transform="translate(-24.305 -88.575)"/><path style="fill:#fff;stroke-width:.264583" d="M102.722 192.615c-2.16-.508-3.097-.89-3.097-1.26 0-.122.506-.132 1.124-.022.619.11 1.899.265 2.844.345 2.063.176.993-.147-2.1-.633-1.835-.288-1.925-.333-1.323-.648.355-.186 1.392-.485 2.305-.664 1.518-.299 1.71-.284 2.244.172.401.342.48.363.252.066-.272-.353-.261-.46.058-.582.234-.09.615.137.948.565.409.525.482.561.277.136-.381-.788-.358-.877.231-.877.32 0 .554.223.626.595l.115.595.036-.595c.044-.73 1.082-.854 1.115-.132.012.276.074.33.154.132.074-.182.44-.33.814-.33.678 0 .679.001.178.595-.475.563-.463.561.207-.03l.709-.626 1.991.443c1.096.244 2.261.661 2.59.927.593.48.578.487-1.776.66-3.626.266-4.85.696-1.537.54 1.48-.07 2.898-.208 3.153-.306.31-.119.4-.077.275.126-.75 1.213-8.537 1.72-12.413.808z" transform="translate(-24.305 -88.575)"/><path style="fill:#fff;stroke-width:.1883" d="M156.564 190.228c-.06-.155-.208-1.793-.329-3.638-.228-3.498-.36-4.153-1.033-5.158-.911-1.359-1.935-1.829-4.676-2.147-1.105-.129-1.98-.261-1.947-.295.033-.034 1.006-.186 2.16-.338 2.24-.295 3.2-.664 4.014-1.54 1.092-1.178 1.335-2.245 1.588-6.985.074-1.372.194-2.495.268-2.495.074 0 .193 1.066.266 2.369.272 4.905.503 5.936 1.592 7.11.813.877 1.774 1.246 4.013 1.541 1.155.152 2.128.304 2.161.338.034.034-.848.167-1.96.296-2.653.307-3.586.731-4.601 2.092-.722.967-.891 1.79-1.163 5.649-.134 1.916-.294 3.356-.353 3.201z" transform="translate(-24.305 -88.575)"/><path style="fill:#fff;stroke:none;stroke-width:.264583px;stroke-linecap:butt;stroke-linejoin:miter;stroke-opacity:1;fill-opacity:1" d="m110.893 188.87 2.514-3.81 2.773.444-3.92 3.5zM124.917 186.555s.314.523.837.471c.523-.052 6.502-2.72 6.38-3.19-.122-.47-.89-1.185-1.273-.993-.383.191-5.944 3.712-5.944 3.712zM92.792 179.81l-3.155.54 4.55 4.55s2.23-.07 2.039-.35c-.192-.278-3.434-4.74-3.434-4.74zM107.06 163.663l-.148 6.557 5.127.197.863-6.828zM98.213 145.714l.348 7.46 6.52-.104-.175-7.495zM88.905 136.685l.244 7.6 6.798-.558-.175-7.74zM107.347 136.127l-.314 7.6 7.077.21.523-7.705zM131.716 155.197l5.438.976 2.092-7.321s-5.857-1.395-5.997-1.08c-.139.313-1.533 7.425-1.533 7.425zM147.315 151.239l-2.86 7.346s3.378 1.627 3.476 1.356c.099-.272 2.885-7.322 2.885-7.322zM154.119 144.04s-.296 3.649-.42 4.364c-.122.715-.911 3.032-.911 3.032s1.503 1.528 1.676 1.282c.173-.247 1.972-7.371 1.972-7.371zM155.213 126.958l-2.37-1.813 1.428 7.88 2.336 1.673zM132.517 111.758l1.29 6.624 5.37 1.255-1.36-6.519-5.3-1.464zM107.521 117.79l-.157 7.303 7.426.227.244-7.426zM68.196 122.6l-1.115 6.624 3.765-1.08 1.36-6.938zM106.825 98.62l-4.955-.135-1.245 4.227 5.806-.172zM66.174 161.333l-1.603 1.429s2.405 5.717 3.207 5.996c.802.28 1.569-.732 1.569-.732zM82.901 99.988s1.837-1.885 2.847-2.28c1.011-.394 2.638-1.084 2.071-.702-.567.382-2.983 2.428-3.303 2.637-.32.21-1.615.345-1.615.345z" transform="translate(-24.305 -88.575)"/></svg>