<?xml version="1.0" encoding="UTF-8" standalone="no"?>
<!-- Created with Inkscape (http://www.inkscape.org/) -->

<svg
   width="161.01047mm"
   height="108.06238mm"
   viewBox="0 0 161.01047 108.06238"
   version="1.1"
   id="svg1390"
   sodipodi:docname="disco-5.svg"
   inkscape:version="1.1 (c68e22c387, 2021-05-23)"
   xmlns:inkscape="http://www.inkscape.org/namespaces/inkscape"
   xmlns:sodipodi="http://sodipodi.sourceforge.net/DTD/sodipodi-0.dtd"
   xmlns="http://www.w3.org/2000/svg"
   xmlns:svg="http://www.w3.org/2000/svg">
  <sodipodi:namedview
     id="namedview1392"
     pagecolor="#505050"
     bordercolor="#eeeeee"
     borderopacity="1"
     inkscape:pageshadow="0"
     inkscape:pageopacity="0"
     inkscape:pagecheckerboard="0"
     inkscape:document-units="mm"
     showgrid="false"
     fit-margin-top="0"
     fit-margin-left="0"
     fit-margin-right="0"
     fit-margin-bottom="0"
     inkscape:zoom="0.94867184"
     inkscape:cx="123.85737"
     inkscape:cy="230.32201"
     inkscape:window-width="1920"
     inkscape:window-height="1027"
     inkscape:window-x="1072"
     inkscape:window-y="424"
     inkscape:window-maximized="1"
     inkscape:current-layer="layer1" />
  <defs
     id="defs1387" />
  <g
     inkscape:label="Layer 1"
     inkscape:groupmode="layer"
     id="layer1"
     transform="translate(-24.304697,-88.574874)">
    <path
       style="fill:#ffffff;stroke-width:0.264583"
       d="m 112.13126,92.191943 c 0.25744,-0.06708 0.61462,-0.06267 0.79375,0.0098 0.17913,0.07248 -0.0315,0.127363 -0.46805,0.121971 -0.43656,-0.0054 -0.58313,-0.06469 -0.3257,-0.131773 z"
       id="path4930" />
    <path
       style="fill:#ffffff;stroke-width:0.264583"
       d="m 108.6205,93.587562 c 0,-1.247875 0.24456,-1.478007 1.54966,-1.458251 0.92964,0.01408 1.09974,0.07391 0.6993,0.245986 -0.47046,0.20216 -0.44919,0.229455 0.19164,0.245986 0.52333,0.01349 0.83327,0.236066 1.13127,0.812347 l 0.41047,0.79375 h -1.99117 c -1.92957,0 -1.99117,-0.01979 -1.99117,-0.639818 z"
       id="path4928" />
    <path
       style="fill:#ffffff;stroke-width:0.264583"
       d="m 103.858,94.008917 c 0,-0.285989 1.03521,-1.222865 1.76854,-1.600558 0.31786,-0.163705 1.04546,-0.297645 1.61689,-0.297645 h 1.03897 l -0.28249,1.058333 -0.28248,1.058333 h -1.92972 c -1.06134,0 -1.92971,-0.09831 -1.92971,-0.218463 z"
       id="path4926" />
    <path
       style="fill:#ffffff;stroke-width:0.264583"
       d="m 114.04242,94.305345 c -0.53833,-0.06895 -0.93806,-0.349806 -1.23551,-0.868082 -0.42604,-0.742341 -0.42187,-0.768911 0.13434,-0.854943 0.98624,-0.152543 2.47133,0.34244 3.39302,1.130906 l 0.88519,0.757232 -1.19063,-0.03159 c -0.65484,-0.01738 -1.54873,-0.07746 -1.98641,-0.133523 z"
       id="path4924" />
    <path
       style="fill:#ffffff;stroke-width:0.264583"
       d="m 99.665494,94.045895 c 0.613336,-0.739029 2.312366,-1.406015 3.581566,-1.406015 h 1.26222 l -0.78866,0.764416 c -0.66967,0.649081 -1.05928,0.784299 -2.58222,0.896186 -1.551519,0.113988 -1.750284,0.07963 -1.472906,-0.254587 z"
       id="path4922" />
    <path
       style="fill:#ffffff;stroke-width:0.264583"
       d="m 88.512167,96.07268 c 1.18101,-0.783413 12.002843,-3.688985 12.370463,-3.321365 0.0388,0.03881 -0.53905,0.449522 -1.284136,0.912691 -1.002199,0.623001 -1.777452,0.878752 -2.97937,0.982879 -1.540997,0.133501 -1.590601,0.119994 -0.963207,-0.262295 0.363802,-0.221673 0.55645,-0.407262 0.428103,-0.412416 -0.128344,-0.0052 -0.604594,0.219178 -1.058333,0.498522 -0.453737,0.279345 -1.778677,0.68815 -2.944312,0.908455 -1.165633,0.220306 -2.453304,0.527532 -2.861495,0.682726 -0.92496,0.351671 -1.228561,0.356304 -0.707713,0.0108 z"
       id="path4920" />
    <path
       style="fill:#ffffff;stroke-width:0.264583"
       d="m 127.6705,96.320091 c -0.94589,-0.283485 -2.13651,-0.573672 -2.64583,-0.644861 -1.95409,-0.273121 -2.55179,-0.467151 -3.72734,-1.21 -0.66758,-0.421857 -1.32242,-0.765009 -1.4552,-0.762556 -0.13278,0.0024 0.15052,0.255429 0.62956,0.562171 0.47905,0.306744 0.82609,0.602617 0.77121,0.6575 -0.0549,0.05488 -0.80432,0.02614 -1.66542,-0.06385 -1.33185,-0.139208 -1.74169,-0.319887 -2.7448,-1.210064 -1.30441,-1.157571 -1.32547,-1.151652 1.44511,-0.406106 0.58208,0.156633 1.17041,0.256167 1.30738,0.221181 0.74964,-0.191471 10.202,2.863286 10.202,3.297018 0,0.170955 -0.25086,0.118758 -2.11667,-0.440431 z"
       id="path4918" />
    <path
       style="fill:#ffffff;stroke-width:0.264583"
       d="m 108.35592,96.227371 c 0,-0.791776 0.12346,-1.515898 0.27436,-1.609159 0.1509,-0.09326 1.15206,-0.08732 2.2248,0.0132 l 1.95045,0.182771 0.28873,1.146673 c 0.15881,0.630677 0.28874,1.27255 0.28874,1.426392 0,0.176933 -0.9236,0.279713 -2.51354,0.279713 h -2.51354 z"
       id="path4916" />
    <path
       style="fill:#ffffff;stroke-width:0.264583"
       d="m 102.41282,96.674776 c 0.87975,-2.108332 0.98795,-2.182812 3.17107,-2.182812 2.20783,0 2.17567,-0.03882 1.80845,2.182812 l -0.16399,0.992188 h -2.61477 -2.61477 z"
       id="path4914" />
    <path
       style="fill:#ffffff;stroke-width:0.264583"
       d="m 96.417242,97.468526 c 0.137927,-0.254661 0.661569,-0.936133 1.163648,-1.51438 0.89408,-1.029716 0.954706,-1.053473 2.94513,-1.153982 l 2.03225,-0.102627 -0.71238,1.452517 c -0.69942,1.426097 -0.73693,1.455468 -2.062114,1.614705 -0.742354,0.0892 -1.859939,0.163224 -2.483522,0.164489 -0.999257,0.0021 -1.104032,-0.05264 -0.883012,-0.460722 z"
       id="path4912" />
    <path
       style="fill:#ffffff;stroke-width:0.264583"
       d="m 116.24263,98.000278 -1.77057,-0.09221 -0.4279,-1.471909 c -0.23534,-0.809551 -0.36431,-1.535496 -0.28659,-1.613213 0.0777,-0.07772 1.00665,-0.03515 2.06429,0.09458 l 1.92298,0.235889 0.86179,1.31989 c 0.47398,0.72594 0.86179,1.410549 0.86179,1.521354 0,0.110805 -0.32743,0.178144 -0.72761,0.149643 -0.40018,-0.0285 -1.52436,-0.09332 -2.49818,-0.144031 z"
       id="path4910" />
    <path
       style="fill:#ffffff;stroke-width:0.264583"
       d="m 91.662153,97.395125 c 1.966336,-1.866204 2.281833,-2.028285 4.357957,-2.238798 l 1.819402,-0.184483 -0.996796,1.077346 c -0.548241,0.592542 -1.15429,1.302195 -1.346777,1.577009 -0.263739,0.376542 -0.825021,0.54419 -2.277814,0.680358 -1.060307,0.09938 -2.165958,0.240374 -2.457,0.313314 -0.330192,0.08275 0.0086,-0.377769 0.901028,-1.224746 z"
       id="path4908" />
    <path
       style="fill:#ffffff;stroke-width:0.264583"
       d="m 122.71744,98.61914 -2.17494,-0.290708 -0.74946,-1.190625 c -0.4122,-0.654844 -0.85081,-1.357776 -0.97469,-1.562071 -0.18881,-0.311359 0.0703,-0.341349 1.60148,-0.185399 1.62878,0.165886 1.93662,0.292135 2.84106,1.165194 1.12657,1.087485 2.18301,2.456291 1.84794,2.394338 -0.11905,-0.02201 -1.19518,-0.170838 -2.39139,-0.330729 z"
       id="path4906" />
    <path
       style="fill:#ffffff;stroke-width:0.264583"
       d="m 85.852427,99.142161 c 0.793147,-0.962359 3.780525,-2.867851 4.852575,-3.095205 0.612952,-0.129989 1.389962,-0.299095 1.726692,-0.375785 0.4495,-0.102378 0.16819,0.281615 -1.058334,1.444644 -1.409644,1.336664 -1.897856,1.630847 -3.125777,1.883495 -0.800364,0.164676 -1.752864,0.368736 -2.116666,0.453466 -0.6052,0.140952 -0.628886,0.114533 -0.27849,-0.310615 z"
       id="path4904" />
    <path
       style="fill:#ffffff;stroke-width:0.264583"
       d="m 127.99714,99.405231 c -1.52633,-0.300683 -1.78346,-0.458293 -3.24399,-1.988434 l -1.58626,-1.661867 0.99503,0.178428 c 2.34474,0.420446 2.95376,0.718719 4.59765,2.251731 1.80466,1.682927 1.78078,1.721143 -0.76243,1.220142 z"
       id="path4902" />
    <path
       style="fill:#ffffff;stroke-width:0.264583"
       d="m 78.987167,101.51808 c 0,-0.14741 3.289938,-2.295502 4.894792,-3.19594 1.74675,-0.980053 1.277723,-0.545317 -1.322917,1.226193 -1.957673,1.333537 -3.571875,2.223697 -3.571875,1.969747 z"
       id="path4900" />
    <path
       style="fill:#ffffff;stroke-width:0.264583"
       d="m 136.711,101.61876 c -0.63028,-0.27981 -1.72661,-1.01668 -2.43628,-1.637487 -0.70967,-0.620805 -1.68227,-1.352875 -2.16133,-1.626822 -1.09015,-0.623395 -0.78864,-0.326662 1.31463,1.293802 0.91107,0.701927 1.62146,1.311267 1.57865,1.354077 -0.0428,0.0428 -0.91795,-0.18412 -1.94475,-0.50428 -1.52705,-0.47614 -2.19978,-0.884002 -3.69532,-2.24037 l -1.82839,-1.658255 1.45521,0.428479 c 0.80036,0.235662 1.60691,0.552358 1.79233,0.703768 0.18542,0.151411 0.40827,0.204137 0.49524,0.117168 0.25095,-0.250946 2.68901,1.071147 4.92232,2.66923 2.5816,1.84732 2.68257,2.06624 0.50769,1.10069 z"
       id="path4898" />
    <path
       style="fill:#ffffff;stroke-width:0.264583"
       d="m 108.0187,102.49562 c -0.0571,-0.10914 -0.0504,-1.13669 0.0151,-2.28344 l 0.11891,-2.085014 1.59565,0.16678 c 0.87761,0.09173 2.10072,0.166778 2.71802,0.166778 1.2413,0 1.15663,-0.158033 1.59483,2.976566 l 0.17568,1.25677 h -3.05713 c -1.68143,0 -3.10388,-0.0893 -3.161,-0.19844 z"
       id="path4896" />
    <path
       style="fill:#ffffff;stroke-width:0.264583"
       d="m 117.05543,103.02781 -1.75152,-0.0918 -0.15279,-1.11317 c -0.084,-0.61225 -0.23376,-1.61896 -0.33273,-2.237133 l -0.17994,-1.123958 2.08425,0.148698 c 3.22268,0.229918 3.17172,0.205304 3.77741,1.824153 0.29717,0.79427 0.61624,1.74664 0.70903,2.11637 0.18779,0.74818 0.45029,0.71805 -4.15371,0.47682 z"
       id="path4894" />
    <path
       style="fill:#ffffff;stroke-width:0.264583"
       d="m 93.53925,102.85593 c 0,-0.13522 0.430339,-1.10495 0.956307,-2.15497 l 0.956308,-1.909113 1.358796,-0.163264 c 0.74734,-0.08979 1.937081,-0.164295 2.643876,-0.16556 1.047913,-0.0019 1.256273,0.07276 1.129013,0.404386 -0.0858,0.223679 -0.34987,1.086882 -0.586763,1.918231 -0.236889,0.83135 -0.517596,1.60566 -0.623798,1.7207 -0.287453,0.31136 -5.833739,0.64373 -5.833739,0.34959 z"
       id="path4892" />
    <path
       style="fill:#ffffff;stroke-width:0.264583"
       d="m 87.329448,102.66512 c 0.397639,-0.63893 1.119803,-1.65276 1.604809,-2.25296 0.868894,-1.075261 0.915929,-1.095054 3.206432,-1.349377 1.278533,-0.14196 2.356818,-0.233831 2.396191,-0.204155 0.03938,0.02968 -0.407109,0.87313 -0.992188,1.874352 -0.585075,1.00121 -1.063775,1.95577 -1.063775,2.12123 0,0.2914 -0.646687,0.41367 -4.193995,0.79293 l -1.680454,0.17967 z"
       id="path4890" />
    <path
       style="fill:#ffffff;stroke-width:0.264583"
       d="m 80.803405,104.61959 c 0.112553,-0.20112 0.947523,-1.2383 1.855483,-2.30484 1.593561,-1.87189 1.707684,-1.9501 3.28904,-2.25417 0.901007,-0.173249 1.909443,-0.379717 2.240966,-0.458814 0.509124,-0.121476 0.35017,0.210314 -1.023181,2.135694 -0.894271,1.25373 -1.641766,2.28311 -1.661102,2.28751 -0.01934,0.004 -1.131059,0.22226 -2.470502,0.48415 -1.979099,0.38695 -2.397011,0.40764 -2.230704,0.11047 z"
       id="path4886" />
    <path
       style="fill:#ffffff;stroke-width:0.264583"
       d="m 131.77154,104.78968 c -1.30969,-0.26853 -2.40901,-0.49271 -2.44294,-0.49818 -0.0339,-0.005 -0.37662,-0.63502 -0.76153,-1.39901 -0.38492,-0.76398 -0.9357,-1.72334 -1.22395,-2.1319 -0.28825,-0.40856 -0.47185,-0.79508 -0.408,-0.858938 0.0639,-0.06386 1.07654,0.07653 2.2504,0.311978 l 2.1343,0.42807 1.31805,1.75379 c 1.41972,1.88905 2.0547,2.96294 1.72267,2.91341 -0.11426,-0.017 -1.27931,-0.2507 -2.589,-0.51922 z"
       id="path4884" />
    <path
       style="fill:#ffffff;stroke-width:0.264583"
       d="m 76.332118,105.63059 c 0.274442,-0.37817 1.311519,-1.48202 2.304619,-2.45302 1.324004,-1.29453 2.109994,-1.84539 2.946667,-2.06517 0.627565,-0.16485 1.340181,-0.37616 1.583592,-0.46956 0.243412,-0.0934 -0.46211,0.89648 -1.567831,2.19975 -1.956961,2.3066 -2.060305,2.38428 -3.88821,2.92258 l -1.877817,0.553 z"
       id="path4882" />
    <path
       style="fill:#ffffff;stroke-width:0.264583"
       d="m 137.51755,106.04792 -1.92692,-0.57574 -1.72515,-2.33739 c -1.11227,-1.507 -1.55567,-2.28983 -1.24809,-2.20352 0.26239,0.0736 1.13247,0.31661 1.93352,0.53997 1.51022,0.42111 2.27832,1.06667 4.3206,3.63132 1.43386,1.80059 1.4562,1.78499 -1.35396,0.94536 z"
       id="path4880" />
    <path
       style="fill:#ffffff;stroke-width:0.264583"
       d="m 72.096944,107.33597 c 1.18024,-1.20302 1.530802,-1.47028 1.176417,-0.89687 -0.117907,0.19078 -0.07248,0.23358 0.120991,0.11401 0.170378,-0.1053 0.249184,-0.2895 0.175125,-0.40933 -0.181446,-0.29359 3.142707,-2.97317 4.601734,-3.70944 l 1.168415,-0.58962 -2.094457,2.28827 c -1.729518,1.88955 -2.463273,2.47271 -4.211127,3.34679 l -2.116666,1.05852 z"
       id="path4878" />
    <path
       style="fill:#ffffff;stroke-width:0.264583"
       d="m 99.497987,107.91958 c 0.09368,-0.61847 0.314028,-1.83886 0.489661,-2.71198 l 0.319332,-1.5875 3.22841,-0.0743 3.22841,-0.0743 -0.15224,2.45552 c -0.0837,1.35053 -0.19802,2.60435 -0.25397,2.78625 -0.0746,0.24256 -1.0252,0.33073 -3.56583,0.33073 h -3.464102 z"
       id="path4876" />
    <path
       style="fill:#ffffff;stroke-width:0.264583"
       d="m 111.13404,109.04406 c -3.35849,-0.12918 -3.43914,-0.14633 -3.42068,-0.72761 0.0104,-0.32742 0.0402,-1.54781 0.0661,-2.71198 l 0.0473,-2.11666 h 2.07974 c 1.14385,0 2.61781,0.0738 3.27544,0.16389 l 1.19571,0.16389 0.18686,2.63561 c 0.10277,1.44958 0.14687,2.65576 0.098,2.68038 -0.0489,0.0246 -1.63668,-0.0148 -3.52845,-0.0875 z"
       id="path4874" />
    <path
       style="fill:#ffffff;stroke-width:0.264583"
       d="m 91.27942,109.23828 c 0.966144,-3.10556 1.56891,-4.86531 1.725628,-5.03789 0.243229,-0.26786 6.090452,-0.65462 6.090452,-0.40285 0,0.18076 -0.661162,3.4899 -0.92551,4.6322 -0.143648,0.62074 -0.495678,0.69153 -4.951547,0.99574 -1.54726,0.10564 -2.016043,0.0604 -1.939023,-0.1872 z"
       id="path4872" />
    <path
       style="fill:#ffffff;stroke-width:0.264583"
       d="m 145.61145,109.10141 c -0.53721,-0.39534 -1.76581,-1.64155 -2.73022,-2.76933 -0.96441,-1.12779 -1.87957,-2.05052 -2.03368,-2.05052 -0.15411,0 0.32992,0.62774 1.07563,1.39499 1.23855,1.2743 2.30096,2.57556 2.10034,2.57253 -0.0446,-7.9e-4 -0.78407,-0.28756 -1.6432,-0.63751 -0.99672,-0.40602 -1.80547,-0.95617 -2.23466,-1.52013 -0.36994,-0.48611 -1.25835,-1.57073 -1.97426,-2.41027 -1.48356,-1.73977 -1.31197,-1.74409 1.86567,-0.047 1.6699,0.89185 5.79961,4.56944 6.44636,5.74062 0.32858,0.59503 0.29279,0.5838 -0.87198,-0.27338 z"
       id="path4870" />
    <path
       style="fill:#ffffff;stroke-width:0.264583"
       d="m 119.16309,109.50118 -3.08345,-0.2544 -0.15047,-1.09355 c -0.0828,-0.60145 -0.22999,-1.84977 -0.3272,-2.77405 l -0.17673,-1.68049 2.35232,0.1694 c 4.29827,0.30953 3.90099,0.0555 4.55771,2.91441 0.66779,2.90715 0.68077,3.06874 0.242,3.0142 -0.1819,-0.0226 -1.71828,-0.1556 -3.41418,-0.29552 z"
       id="path4868" />
    <path
       style="fill:#ffffff;stroke-width:0.264583"
       d="m 83.749667,110.10067 c 0,-0.18366 0.524687,-1.44156 1.165974,-2.79533 1.075369,-2.27013 1.234707,-2.47313 2.05052,-2.61249 1.436492,-0.24539 4.84614,-0.61422 4.938954,-0.53426 0.04711,0.0406 -0.08931,0.41228 -0.30316,0.82598 -0.21385,0.41371 -0.651155,1.61609 -0.971791,2.67197 -0.642096,2.11446 -0.518408,2.02827 -3.308622,2.30561 -0.873125,0.0868 -2.033985,0.22859 -2.579688,0.31512 -0.705543,0.11188 -0.992187,0.0609 -0.992187,-0.1766 z"
       id="path4866" />
    <path
       style="fill:#ffffff;stroke-width:0.264583"
       d="m 126.66412,110.23281 c -1.35387,-0.18435 -2.49081,-0.37842 -2.52653,-0.43124 -0.12834,-0.18981 -1.22282,-5.3504 -1.15014,-5.42307 0.14396,-0.14396 5.58714,0.70146 5.77089,0.89632 0.21235,0.2252 1.82258,4.74269 1.82258,5.11324 0,0.30249 -0.78327,0.27144 -3.9168,-0.15525 z"
       id="path4864" />
    <path
       style="fill:#ffffff;stroke-width:0.264583"
       d="m 135.21112,111.56265 c -0.87312,-0.18627 -2.03398,-0.41784 -2.57968,-0.51459 -0.60775,-0.10775 -0.99219,-0.32408 -0.99219,-0.55832 0,-0.21033 -0.4037,-1.4551 -0.8971,-2.76614 -0.54117,-1.43796 -0.77736,-2.38393 -0.59532,-2.38426 0.16599,-2.6e-4 1.35745,0.19322 2.64771,0.43003 l 2.34591,0.43056 1.2883,2.67883 c 0.70857,1.47336 1.29002,2.76813 1.29211,2.87727 0.005,0.26201 -0.59015,0.21615 -2.50974,-0.19338 z"
       id="path4860" />
    <path
       style="fill:#ffffff;stroke-width:0.264583"
       d="m 72.298405,111.35915 c 2.008447,-3.43268 2.557209,-4.02062 4.228576,-4.53049 2.780716,-0.84828 2.606694,-0.88673 1.817595,0.40159 -0.388199,0.63378 -1.104455,1.92853 -1.591683,2.8772 l -0.885864,1.72486 -2.006227,0.59024 c -1.103427,0.32464 -2.124062,0.59025 -2.268083,0.59025 -0.144018,0 0.173541,-0.74414 0.705686,-1.65365 z"
       id="path4858" />
    <path
       style="fill:#ffffff;stroke-width:0.264583"
       d="m 141.05038,112.89693 c -1.15404,-0.31824 -2.18857,-0.74978 -2.29896,-0.95898 -0.5734,-1.08664 -2.5848,-5.39137 -2.53722,-5.43006 0.22111,-0.17981 4.59472,1.34535 4.86358,1.69602 0.3935,0.51325 2.7323,4.94863 2.7323,5.18165 0,0.22968 -0.43256,0.15309 -2.7597,-0.48863 z"
       id="path4856" />
    <path
       style="fill:#ffffff;stroke-width:0.264583"
       d="m 68.213892,113.44742 c 1.756093,-2.8839 3.123293,-4.53668 4.2339,-5.11827 1.740072,-0.91122 1.845281,-0.73259 0.615857,1.04563 -0.628811,0.9095 -1.458113,2.19963 -1.842894,2.86695 -0.573807,0.99516 -0.981514,1.33495 -2.267506,1.88983 l -1.567905,0.67652 z"
       id="path4854" />
    <path
       style="fill:#ffffff;stroke-width:0.264583"
       d="m 146.50997,114.63627 c -1.6615,-0.6976 -1.6691,-0.70576 -2.99167,-3.21195 -0.72927,-1.38191 -1.4382,-2.62567 -1.57541,-2.76392 -0.58968,-0.59412 -0.14204,-0.58483 1.40417,0.0292 1.40288,0.55707 1.79146,0.86444 2.56245,2.02692 0.92702,1.39774 2.66307,4.37737 2.66307,4.57069 0,0.18031 -0.33369,0.075 -2.06261,-0.6509 z"
       id="path4852" />
    <path
       style="fill:#ffffff;stroke-width:0.264583"
       d="m 107.49215,116.51853 c -0.0557,-0.10914 -0.0499,-1.59743 0.0129,-3.3073 l 0.11418,-3.10885 h 3.2571 c 1.79141,0 3.44543,0.0723 3.67561,0.1606 0.34917,0.13399 0.41852,0.682 0.41852,3.30729 v 3.14669 h -3.68855 c -2.0287,0 -3.73411,-0.0893 -3.7898,-0.19843 z"
       id="path4850" />
    <path
       style="fill:#ffffff;stroke-width:0.264583"
       d="m 98.473806,115.62859 c 0.07226,-0.63832 0.241707,-2.0324 0.376541,-3.09796 0.134835,-1.06556 0.245153,-2.04782 0.245153,-2.18281 0,-0.13885 1.56559,-0.24544 3.60517,-0.24544 h 3.60517 l -0.11627,3.03749 c -0.064,1.67061 -0.16827,3.08949 -0.23182,3.15304 -0.0636,0.0636 -1.80301,0.20122 -3.86545,0.30591 l -3.749881,0.19035 z"
       id="path4848" />
    <path
       style="fill:#ffffff;stroke-width:0.264583"
       d="m 89.73556,116.40192 c 0.337725,-1.8703 1.157465,-5.59359 1.252424,-5.68855 0.135673,-0.13567 6.627056,-0.5834 6.749783,-0.46555 0.10664,0.10241 -0.462177,5.27304 -0.658098,5.9822 -0.09814,0.35523 -0.612082,0.47053 -2.69076,0.6037 -1.413198,0.0905 -3.073903,0.22742 -3.690453,0.3042 l -1.121003,0.13959 z"
       id="path4846" />
    <path
       style="fill:#ffffff;stroke-width:0.264583"
       d="m 81.687999,116.9154 c 0.144825,-0.61846 0.54932,-2.09563 0.898882,-3.2826 l 0.635564,-2.15812 1.2558,-0.16936 c 2.733156,-0.36861 5.09257,-0.56517 5.098518,-0.42477 0.0084,0.19801 -1.161746,6.20919 -1.230466,6.32114 -0.04955,0.0807 -5.92619,0.81998 -6.619018,0.83265 -0.220998,0.004 -0.231589,-0.29769 -0.03928,-1.11894 z"
       id="path4842" />
    <path
       style="fill:#ffffff;stroke-width:0.264583"
       d="m 152.2256,117.82078 c -0.19015,-0.266 -0.91605,-0.8159 -1.61312,-1.22199 -0.85404,-0.49753 -1.44788,-1.09486 -1.82076,-1.83145 -0.30434,-0.60121 -1.07347,-1.9005 -1.70916,-2.8873 -0.6357,-0.98681 -1.15581,-1.85573 -1.15581,-1.93094 0,-0.0752 0.52462,0.2242 1.16583,0.66536 0.6412,0.44116 1.65571,1.54821 2.25446,2.4601 0.59875,0.9119 1.36233,1.98621 1.69686,2.38736 0.68623,0.82291 1.86683,2.84251 1.66166,2.84251 -0.0738,0 -0.2898,-0.21764 -0.47996,-0.48365 z"
       id="path4840" />
    <path
       style="fill:#ffffff;stroke-width:0.264583"
       d="m 128.79033,118.02198 c -1.78518,-0.22812 -3.34447,-0.52577 -3.46508,-0.66146 -0.22872,-0.25733 -0.97783,-6.15682 -0.79943,-6.29584 0.11303,-0.0881 5.75173,0.58702 6.2141,0.74399 0.32573,0.11058 1.51664,5.41291 1.3822,6.15402 -0.082,0.45194 -0.2373,0.4547 -3.33179,0.0593 z"
       id="path4838" />
    <path
       style="fill:#ffffff;stroke-width:0.264583"
       d="m 68.296675,120.59114 c 0.575633,-1.86418 1.770139,-4.91875 2.198703,-5.6225 0.42132,-0.69186 0.827683,-0.91113 2.562374,-1.38267 1.133903,-0.30823 2.094827,-0.52723 2.135391,-0.48667 0.04056,0.0406 -0.270711,0.96085 -0.691722,2.04508 -0.421007,1.08424 -0.910322,2.5466 -1.087363,3.24969 -0.177041,0.70309 -0.454033,1.31627 -0.615537,1.36261 -0.161505,0.0463 -1.279877,0.38061 -2.485274,0.74281 l -2.191628,0.65856 z"
       id="path4834" />
    <path
       style="fill:#ffffff;stroke-width:0.264583"
       d="m 142.59755,109.04419 c -0.1057,-0.58208 -0.19611,-1.71318 -0.20091,-2.51354 -0.0112,-1.87662 -0.75476,-3.53509 -1.83533,-4.09388 -0.45181,-0.23364 -1.50296,-0.51327 -2.33589,-0.6214 l -1.51442,-0.19661 1.82479,-0.3099 c 2.90193,-0.49283 3.82739,-1.73734 3.88865,-5.22925 0.0519,-2.96102 0.39666,-3.06421 0.57806,-0.17304 0.25052,3.99286 1.08577,5.0624 4.29183,5.4957 l 1.32292,0.17879 -1.7813,0.30418 c -1.34157,0.22909 -1.97521,0.48997 -2.56683,1.05677 -0.9162,0.87778 -1.10225,1.55176 -1.31927,4.77927 -0.13804,2.05294 -0.18662,2.23533 -0.3523,1.32291 z"
       id="path4830" />
    <path
       style="fill:#ffffff;stroke-width:0.264583"
       d="m 64.407361,121.43964 c 0.270076,-0.77846 0.882301,-2.28598 1.360498,-3.35005 0.883804,-1.96662 1.339713,-2.37978 3.555696,-3.2223 l 0.637111,-0.24223 -0.869839,2.03815 c -0.478411,1.12097 -1.071808,2.64941 -1.318659,3.39653 -0.470824,1.42499 -0.364511,1.34489 -3.530322,2.66004 -0.223541,0.0929 -0.171683,-0.30821 0.165515,-1.28014 z"
       id="path4828" />
    <path
       style="fill:#ffffff;stroke-width:0.264583"
       d="m 149.49862,122.74874 -1.85208,-0.78829 -1.09866,-3.34934 c -0.60427,-1.84214 -1.08052,-3.36652 -1.05834,-3.38752 0.0222,-0.021 0.84887,0.26221 1.83707,0.62934 1.29238,0.48014 1.89791,0.86315 2.15712,1.36442 0.32074,0.62022 2.26385,6.00373 2.26385,6.27211 0,0.18356 -0.34206,0.0709 -2.24896,-0.74072 z"
       id="path4826" />
    <path
       style="fill:#ffffff;stroke-width:0.264583"
       d="m 61.38338,124.19145 c 0.191027,-0.40018 0.840883,-1.86834 1.444125,-3.26257 0.77538,-1.79209 1.415685,-2.83884 2.184934,-3.57188 0.598475,-0.57029 1.015368,-0.85831 0.926434,-0.64003 -2.37186,5.82155 -2.746473,6.57651 -3.655386,7.36667 -1.178488,1.02452 -1.347351,1.04474 -0.900107,0.10781 z"
       id="path4824" />
    <path
       style="fill:#ffffff;stroke-width:0.264583"
       d="m 97.934812,122.35587 c 0.102182,-1.71895 0.264727,-3.42301 0.361212,-3.78681 l 0.17543,-0.66146 3.792746,-0.0737 3.79275,-0.0737 -0.16333,3.61338 c -0.0898,1.98736 -0.19764,3.64186 -0.23958,3.67666 -0.0419,0.0348 -1.83772,0.146 -3.99063,0.24709 l -3.914377,0.18381 z"
       id="path4822" />
    <path
       style="fill:#ffffff;stroke-width:0.264583"
       d="m 153.74788,124.81077 c -1.23897,-0.81942 -1.35111,-0.99399 -2.1549,-3.35462 -0.46635,-1.36962 -1.0406,-2.93654 -1.2761,-3.48205 l -0.42819,-0.99184 1.27426,0.78406 c 1.13094,0.69587 1.36915,1.01573 2.11799,2.84392 0.79696,1.94567 1.9387,5.12469 1.82583,5.08374 -0.0285,-0.0103 -0.64004,-0.4078 -1.35889,-0.88321 z"
       id="path4820" />
    <path
       style="fill:#ffffff;stroke-width:0.264583"
       d="m 88.799393,124.74387 c 0.01246,-0.70402 0.16128,-2.41113 0.330729,-3.79357 l 0.308086,-2.51354 1.984375,-0.16386 c 1.091407,-0.0901 2.797506,-0.17942 3.791337,-0.19844 l 1.806958,-0.0346 -0.139517,0.7276 c -0.07673,0.40019 -0.217575,2.05644 -0.312981,3.68058 l -0.173466,2.95296 -2.816895,0.16819 c -1.549291,0.0925 -3.263378,0.23265 -3.809081,0.31143 l -0.992188,0.14325 0.02265,-1.28002 z"
       id="path4818" />
    <path
       style="fill:#ffffff;stroke-width:0.264583"
       d="m 120.06373,125.89874 -3.50573,-0.25723 v -3.82183 -3.82184 l 0.7276,0.13951 c 0.40019,0.0767 2.05345,0.21738 3.67392,0.31255 l 2.94632,0.17303 0.15963,0.96525 c 0.0878,0.53088 0.16093,2.24516 0.16253,3.80951 0.002,2.1233 -0.0809,2.83337 -0.32781,2.80127 -0.1819,-0.0237 -1.90831,-0.15875 -3.83646,-0.30022 z"
       id="path4816" />
    <path
       style="fill:#ffffff;stroke-width:0.264583"
       d="m 80.357793,124.8529 c 0.21997,-1.9477 0.758973,-5.48836 0.836092,-5.49222 0.02323,-0.001 1.466466,-0.17975 3.207183,-0.39687 3.879115,-0.48384 3.937461,-0.48422 3.761124,-0.0247 -0.07811,0.20354 -0.285951,1.84065 -0.461878,3.63802 -0.175929,1.79738 -0.35279,3.30747 -0.393025,3.35576 -0.08815,0.1058 -5.842114,0.83245 -6.61865,0.83584 -0.52329,0.002 -0.537914,-0.0824 -0.330846,-1.91583 z"
       id="path4814" />
    <path
       style="fill:#ffffff;stroke-width:0.264583"
       d="m 155.94131,126.57431 c -0.21402,-0.25555 -0.60428,-1.17901 -0.86725,-2.05214 -0.26296,-0.87312 -0.82239,-2.35043 -1.24318,-3.2829 -0.90374,-2.00271 -0.817,-2.49762 0.11322,-0.64601 0.88805,1.76766 2.63513,6.19692 2.49829,6.33375 -0.0616,0.0616 -0.28705,-0.0971 -0.50108,-0.3527 z"
       id="path4812" />
    <path
       style="fill:#ffffff;stroke-width:0.134297"
       d="m 51.142689,141.70542 c 0,-0.19606 -0.09468,-1.64144 -0.210397,-3.21194 -0.176291,-2.39259 -0.259888,-2.9643 -0.515722,-3.52694 -0.721628,-1.58703 -1.614321,-2.11471 -4.007856,-2.3691 -0.867895,-0.0922 -1.577992,-0.20594 -1.577992,-0.25267 0,-0.0468 0.674665,-0.162 1.499257,-0.25616 0.824589,-0.0941 1.736554,-0.25491 2.026587,-0.35724 0.856844,-0.30231 1.530208,-0.93197 1.969985,-1.84212 0.377383,-0.78102 0.414553,-1.00605 0.609025,-3.68724 0.113912,-1.5705 0.207113,-3.04609 0.207113,-3.27909 0,-1.10905 0.128171,-0.0267 0.33682,2.84427 0.260608,3.58597 0.412526,4.18481 1.285206,5.06622 0.781734,0.78955 1.318012,0.99723 3.179097,1.23114 0.904827,0.11373 1.64514,0.24242 1.64514,0.28598 0,0.0436 -0.700893,0.15609 -1.557539,0.25005 -0.856647,0.094 -1.816302,0.28177 -2.132567,0.41734 -0.994881,0.42646 -1.919109,1.56149 -2.133479,2.62011 -0.04487,0.22159 -0.17827,1.73243 -0.296441,3.35743 -0.11817,1.62499 -0.239918,2.97971 -0.270547,3.01049 -0.03063,0.0308 -0.05569,-0.10446 -0.05569,-0.30053 z"
       id="path4810" />
    <path
       style="fill:#ffffff;stroke-width:0.264583"
       d="m 129.19265,126.78311 c -1.85495,-0.24824 -3.41721,-0.50132 -3.47169,-0.5624 -0.0545,-0.0611 -0.15925,-1.75947 -0.23282,-3.77422 l -0.13378,-3.66318 1.09193,0.14442 c 0.60055,0.0794 2.18343,0.28491 3.5175,0.45663 2.11052,0.27165 2.44509,0.38504 2.57573,0.87293 0.282,1.05311 0.50806,7.04366 0.26453,7.01009 -0.13132,-0.0181 -1.75645,-0.23602 -3.6114,-0.48427 z"
       id="path4808" />
    <path
       style="fill:#ffffff;stroke-width:0.264583"
       d="m 72.498576,127.64782 c 0.06571,-0.40942 0.244898,-1.57784 0.398185,-2.59648 0.257799,-1.71316 0.799004,-4.36457 0.891275,-4.36643 0.02185,-5.3e-4 1.26437,-0.23856 2.761117,-0.52916 1.496748,-0.2906 2.878561,-0.52837 3.070694,-0.52837 0.287798,0 0.29084,0.33789 0.01728,1.91823 -0.182631,1.05503 -0.417589,2.72315 -0.522126,3.70694 -0.162917,1.53319 -0.270661,1.80583 -0.754261,1.90859 -0.310306,0.0659 -1.576223,0.31066 -2.813151,0.54382 -1.236927,0.23316 -2.455851,0.48318 -2.708724,0.5556 -0.376317,0.10777 -0.438079,-0.003 -0.340283,-0.61274 z"
       id="path4806" />
    <path
       style="fill:#ffffff;stroke-width:0.264583"
       d="m 137.17534,128.01814 -2.79829,-0.5353 -0.31696,-3.70085 c -0.17434,-2.03546 -0.28292,-3.73489 -0.24131,-3.7765 0.14421,-0.14421 5.89167,1.01534 6.1869,1.24821 0.3248,0.25619 0.89399,4.15946 0.89399,6.13066 0,1.44501 0.27329,1.3985 -3.72433,0.63378 z"
       id="path4804" />
    <path
       style="fill:#ffffff;stroke-width:0.264583"
       d="m 144.86841,129.74235 c -1.38244,-0.37504 -2.55046,-0.70805 -2.59559,-0.74004 -0.0451,-0.032 -0.20288,-1.29122 -0.35055,-2.79831 -0.14767,-1.50709 -0.36598,-3.18665 -0.48513,-3.73235 -0.15159,-0.69423 -0.12577,-0.99271 0.086,-0.99394 0.25842,-0.002 5.22476,1.32851 5.38666,1.44258 0.0819,0.0577 0.79918,4.52404 0.99024,6.16594 0.18958,1.62916 0.39293,1.58515 -3.03159,0.65612 z"
       id="path4802" />
    <path
       style="fill:#ffffff;stroke-width:0.264583"
       d="m 61.932973,131.33519 c 0.0518,-0.25466 0.350353,-1.77271 0.663456,-3.37343 0.313099,-1.60073 0.682834,-3.12318 0.821626,-3.38321 0.238548,-0.44692 3.100062,-1.898 3.316346,-1.68172 0.05572,0.0557 -0.134856,1.33719 -0.423498,2.8477 -0.288642,1.51052 -0.593791,3.16311 -0.678114,3.67243 -0.138247,0.83506 -0.315092,0.99785 -1.799986,1.6569 -1.93149,0.85726 -2.023624,0.86994 -1.89983,0.26133 z"
       id="path4800" />
    <path
       style="fill:#ffffff;stroke-width:0.264583"
       d="m 150.91858,131.69831 -2.01963,-0.82614 -0.17924,-1.98437 c -0.0986,-1.09141 -0.33195,-2.78805 -0.51859,-3.77032 -0.18664,-0.98226 -0.25948,-1.78593 -0.16185,-1.78593 0.30549,0 3.56042,1.36287 3.88134,1.62516 0.48788,0.39874 1.67435,7.66704 1.24086,7.6015 -0.12279,-0.0186 -1.1321,-0.40552 -2.24289,-0.8599 z"
       id="path4798" />
    <path
       style="fill:#ffffff;stroke-width:0.264583"
       d="m 60.117907,128.57342 c -0.08446,-0.21106 -0.147156,-0.14837 -0.15985,0.15986 -0.01148,0.27891 0.05104,0.43518 0.138964,0.34726 0.08792,-0.0879 0.09732,-0.31612 0.02088,-0.50712 z"
       id="path4794" />
    <path
       style="fill:#ffffff;stroke-width:0.264583"
       d="m 59.853324,129.63176 c -0.08446,-0.21107 -0.147156,-0.14838 -0.159851,0.15985 -0.01148,0.27891 0.05104,0.43518 0.138965,0.34727 0.08792,-0.0879 0.09732,-0.31613 0.02087,-0.50712 z"
       id="path4792" />
    <path
       style="fill:#ffffff;stroke-width:0.264583"
       d="m 58.485574,134.04699 c 0.473649,-2.73776 1.544613,-6.44343 2.113555,-7.31317 0.74613,-1.14061 2.46508,-2.49651 2.161275,-1.70481 -0.101259,0.26388 -0.427249,1.74603 -0.724424,3.29367 -0.297175,1.54764 -0.593018,3.07154 -0.657434,3.38644 -0.06441,0.3149 -0.608629,0.96183 -1.209365,1.43762 -0.874104,0.69231 -1.062196,0.76291 -0.941785,0.3535 0.08275,-0.28137 0.211022,-1.10689 0.285036,-1.8345 0.08956,-0.88044 -0.01601,-0.60007 -0.315658,0.83825 -0.458259,2.1997 -1.045075,3.47284 -0.7112,1.543 z"
       id="path4790" />
    <path
       style="fill:#ffffff;stroke-width:0.264583"
       d="m 110.9356,135.03211 -3.9026,-0.0732 v -4.3913 -4.39129 l 3.96032,0.11251 c 2.17817,0.0619 4.03972,0.1919 4.13676,0.28894 0.097,0.0971 0.0711,2.05545 -0.0577,4.35201 l -0.23416,4.17557 z"
       id="path4788" />
    <path
       style="fill:#ffffff;stroke-width:0.264583"
       d="m 88.512167,131.27007 c 0,-3.16002 0.08489,-4.28219 0.330729,-4.3721 0.508952,-0.18612 7.377591,-0.55035 7.462774,-0.39573 0.04133,0.075 0.01537,2.00505 -0.05769,4.28894 l -0.132842,4.15252 -1.35409,0.13643 c -0.744749,0.075 -2.455418,0.20498 -3.801485,0.28876 l -2.447396,0.15232 z"
       id="path4786" />
    <path
       style="fill:#ffffff;stroke-width:0.264583"
       d="m 119.45917,135.43234 -3.05196,-0.25223 0.10494,-4.27072 c 0.0577,-2.3489 0.13511,-4.30428 0.17199,-4.34528 0.14803,-0.16457 7.42965,0.5222 7.63164,0.71979 0.11944,0.11682 0.13205,2.07327 0.028,4.34765 l -0.18913,4.13523 -0.82178,-0.0411 c -0.45198,-0.0226 -2.19516,-0.15461 -3.87373,-0.29333 z"
       id="path4784" />
    <path
       style="fill:#ffffff;stroke-width:0.264583"
       d="m 79.844113,136.07901 c -0.134303,-0.34999 0.163203,-8.03515 0.317008,-8.18896 0.111246,-0.11124 5.70894,-0.84311 6.498962,-0.8497 l 0.661459,-0.006 -0.07803,4.31405 -0.07803,4.31405 -3.591915,0.38726 c -3.013254,0.32487 -3.61407,0.32951 -3.72946,0.0288 z"
       id="path4782" />
    <path
       style="fill:#ffffff;stroke-width:0.264583"
       d="m 157.92339,136.05011 c -0.31639,-0.39077 -0.649,-1.28968 -0.74582,-2.01566 -0.1793,-1.34438 -0.86354,-5.12757 -1.09837,-6.07284 -0.288,-1.15934 0.9637,0.80057 1.35182,2.11666 0.39622,1.34357 1.28529,6.49156 1.14184,6.61156 -0.0431,0.0361 -0.33538,-0.25181 -0.64947,-0.63972 z"
       id="path4780" />
    <path
       style="fill:#ffffff;stroke-width:0.264583"
       d="m 72.108001,135.17503 c 0,-1.5236 0.07507,-3.48842 0.166825,-4.36626 l 0.166822,-1.59609 2.80974,-0.5596 c 1.545355,-0.30778 2.988331,-0.55966 3.206612,-0.55974 0.339731,-1.3e-4 0.385646,0.62039 0.318887,4.3096 l -0.07799,4.30975 -2.700136,0.45867 c -1.485075,0.25227 -2.968027,0.52958 -3.295449,0.61625 -0.589489,0.15605 -0.595312,0.13049 -0.595311,-2.61258 z"
       id="path4776" />
    <path
       style="fill:#ffffff;stroke-width:0.264583"
       d="m 138.51842,137.86406 c -1.23693,-0.24476 -2.69545,-0.5245 -3.24115,-0.62166 l -0.99219,-0.17665 v -4.35363 c 0,-2.3945 0.0535,-4.35364 0.11886,-4.35364 0.23727,0 5.84664,1.08804 6.29729,1.22148 0.40958,0.12127 0.46075,0.50913 0.44341,3.36041 -0.0108,1.77283 -0.10009,3.70603 -0.19844,4.29602 l -0.17883,1.07269 z"
       id="path4774" />
    <path
       style="fill:#ffffff;stroke-width:0.264583"
       d="m 66.026196,135.83296 c 0.0021,-2.00091 0.07779,-3.91505 0.16846,-4.25363 0.178916,-0.66817 0.603911,-0.87744 3.297931,-1.62399 l 1.773457,-0.49145 -0.04204,4.3474 -0.04204,4.34741 -1.058333,0.2724 c -0.582084,0.14983 -1.585558,0.44509 -2.229946,0.65614 -1.956286,0.64074 -1.871498,0.7885 -1.867484,-3.25428 z"
       id="path4772" />
    <path
       style="fill:#ffffff;stroke-width:0.264583"
       d="m 144.86841,139.36 -2.77812,-0.79947 0.0929,-4.24113 c 0.0511,-2.33262 0.1285,-4.27883 0.17196,-4.3249 0.0435,-0.0461 1.31133,0.25471 2.81748,0.66841 l 2.73845,0.75217 0.0731,4.2062 c 0.0402,2.31342 -0.0193,4.28091 -0.13229,4.3722 -0.11297,0.0913 -1.45555,-0.19377 -2.98352,-0.63348 z"
       id="path4770" />
    <path
       style="fill:#ffffff;stroke-width:0.264583"
       d="m 61.527581,138.1924 c 0.0016,-1.8434 0.07926,-3.8138 0.172566,-4.37867 0.158361,-0.95868 0.283348,-1.07859 1.877698,-1.80151 0.939424,-0.42595 1.724972,-0.73769 1.745662,-0.69275 0.02069,0.045 -7.4e-5,1.99707 -0.04614,4.33805 l -0.08376,4.25633 -1.83447,0.81508 -1.83447,0.81509 0.0029,-3.35162 z"
       id="path4768" />
    <path
       style="fill:#ffffff;stroke-width:0.264583"
       d="m 58.878834,139.31754 v -4.14082 l 0.977747,-0.89558 c 0.53776,-0.49257 1.043776,-0.89559 1.124479,-0.89561 0.0807,-2e-5 0.104032,1.92614 0.05184,4.28035 -0.08833,3.98432 -0.13408,4.31404 -0.661458,4.76699 -1.538045,1.32101 -1.492608,1.41584 -1.492608,-3.11533 z"
       id="path4764" />
    <path
       style="fill:#ffffff;stroke-width:0.264583"
       d="m 97.664969,140.23719 c -0.102449,-2.20006 -0.113429,-4.07295 -0.02439,-4.16197 0.08903,-0.089 1.892876,-0.16508 4.008551,-0.16899 l 3.84669,-0.007 -0.0379,3.95943 c -0.0209,2.17769 -0.0619,3.97692 -0.0913,3.99829 -0.0294,0.0214 -1.73236,0.11572 -3.7844,0.20966 l -3.730982,0.17081 -0.18627,-4.0001 z"
       id="path4762" />
    <path
       style="fill:#ffffff;stroke-width:0.264583"
       d="m 155.32765,143.49041 -1.31472,-0.8819 0.0826,-4.28074 c 0.0454,-2.35441 0.10128,-4.29788 0.1241,-4.31883 0.0228,-0.0209 0.66656,0.36495 1.43055,0.85753 l 1.38906,0.89561 -0.0152,3.3758 c -0.008,1.8567 -0.0977,3.794 -0.19844,4.30512 l -0.18319,0.92932 -1.31472,-0.88191 z"
       id="path4760" />
    <path
       style="fill:#ffffff;stroke-width:0.264583"
       d="m 119.51689,144.67331 -3.5234,-0.25823 0.18405,-3.9934 c 0.10123,-2.19638 0.2291,-4.04387 0.28415,-4.10555 0.2002,-0.22427 7.37913,0.28728 7.62193,0.54311 0.21626,0.22787 -0.53691,7.99697 -0.77875,8.03294 -0.14552,0.0216 -1.85011,-0.0768 -3.78798,-0.21887 z"
       id="path4758" />
    <path
       style="fill:#ffffff;stroke-width:0.264583"
       d="m 57.900376,141.03727 c 0.05946,-2.41276 0.227425,-4.60002 0.373245,-4.86059 0.183888,-0.32859 0.24747,0.86072 0.207497,3.88135 -0.03729,2.81841 -0.168992,4.53347 -0.373242,4.86059 -0.249656,0.39985 -0.293018,-0.4113 -0.2075,-3.88135 z"
       id="path4756" />
    <path
       style="fill:#ffffff;stroke-width:0.264583"
       d="m 80.478234,144.16733 c -0.09358,-0.76398 -0.246287,-2.5926 -0.339354,-4.0636 l -0.169215,-2.67453 2.617605,-0.30984 c 1.439683,-0.17041 3.044611,-0.37302 3.566507,-0.45026 l 0.948899,-0.14042 0.286017,4.05064 c 0.157311,2.22786 0.2554,4.08126 0.21798,4.11868 -0.07117,0.0712 -6.153089,0.85261 -6.664423,0.85628 -0.161631,0.001 -0.370438,-0.62296 -0.464016,-1.38695 z"
       id="path4754" />
    <path
       style="fill:#ffffff;stroke-width:0.264583"
       d="m 72.934487,145.23601 c -0.163023,-0.93614 -0.372475,-2.77377 -0.465452,-4.08363 l -0.169047,-2.38156 2.748277,-0.46538 c 1.511554,-0.25596 2.946043,-0.5198 3.187753,-0.58632 0.372335,-0.10246 0.466203,0.19392 0.614415,1.93994 0.09622,1.13348 0.277334,2.952 0.402484,4.04114 0.125153,1.08914 0.193413,2.01439 0.151694,2.05611 -0.06483,0.0648 -1.633813,0.36813 -5.346105,1.03344 l -0.827616,0.14832 z"
       id="path4750" />
    <path
       style="fill:#ffffff;stroke-width:0.264583"
       d="m 158.62675,146.86166 c 0,-0.15523 -0.28885,-0.66125 -0.64189,-1.12448 -0.62353,-0.81816 -0.64055,-0.96462 -0.59531,-5.12238 0.0442,-4.06179 0.0702,-4.25874 0.51071,-3.86059 0.77994,0.70502 1.01268,2.27276 0.95287,6.41851 -0.0315,2.18415 -0.0953,3.97118 -0.14184,3.97118 -0.0465,0 -0.0845,-0.12701 -0.0845,-0.28224 z"
       id="path4748" />
    <path
       style="fill:#ffffff;stroke-width:0.264583"
       d="m 136.93092,146.86466 c -1.23693,-0.26958 -2.59206,-0.49559 -3.0114,-0.50224 -0.74451,-0.0118 -0.75867,-0.0386 -0.6019,-1.13658 0.0883,-0.61847 0.30452,-2.46393 0.48048,-4.10104 0.25653,-2.3867 0.40202,-2.97705 0.73418,-2.97899 0.22785,-0.001 1.75658,0.25024 3.3972,0.55905 l 2.98295,0.56149 -0.12659,0.83 c -0.0696,0.45651 -0.32947,2.28852 -0.57744,4.07115 -0.26956,1.93785 -0.567,3.23032 -0.73969,3.21423 -0.15886,-0.0148 -1.30087,-0.24749 -2.53779,-0.51707 z"
       id="path4746" />
    <path
       style="fill:#ffffff;stroke-width:0.264583"
       d="m 67.237829,148.50549 c -0.137126,-0.22361 -0.904727,-5.4112 -1.010426,-6.82864 l -0.08214,-1.10159 2.253766,-0.68769 c 1.239573,-0.37823 2.380652,-0.68619 2.535732,-0.68435 0.163425,0.002 0.416462,1.2547 0.601893,2.97991 0.175958,1.63711 0.392176,3.48258 0.480478,4.10104 0.131305,0.91966 0.08375,1.12448 -0.261086,1.12448 -0.231896,0 -1.319794,0.28522 -2.41755,0.63382 -1.097757,0.3486 -2.043055,0.55696 -2.100662,0.46302 z"
       id="path4744" />
    <path
       style="fill:#ffffff;stroke-width:0.264583"
       d="m 143.70474,148.41839 c -1.44038,-0.40444 -2.67276,-0.78922 -2.73862,-0.85508 -0.0658,-0.0658 0.066,-1.28845 0.29301,-2.71688 0.22701,-1.42843 0.48676,-3.21105 0.57722,-3.96139 l 0.16448,-1.36425 2.42598,0.664 c 1.33429,0.36519 2.64328,0.72744 2.90887,0.80499 0.4164,0.12158 0.45966,0.32728 0.31419,1.494 -0.27364,2.19456 -0.98135,6.09307 -1.1605,6.39273 -0.10918,0.18261 -1.05947,0.0263 -2.78463,-0.45812 z"
       id="path4742" />
    <path
       style="fill:#ffffff;stroke-width:0.264583"
       d="m 149.34759,150.28112 -2.00311,-0.80033 0.47059,-2.16056 c 0.25883,-1.1883 0.55054,-2.96423 0.64824,-3.9465 0.11066,-1.1125 0.29721,-1.78593 0.49472,-1.78593 0.41939,0 3.64887,1.30538 3.95481,1.59856 0.36046,0.34543 -0.97574,7.94857 -1.39025,7.91076 -0.0945,-0.009 -1.07328,-0.37582 -2.175,-0.816 z"
       id="path4738" />
    <path
       style="fill:#ffffff;stroke-width:0.264583"
       d="m 59.977223,151.17894 c -0.267317,-1.25179 -0.687369,-3.80858 -0.933246,-5.68051 -0.117031,-0.89099 -0.03343,-1.06007 0.883057,-1.78594 0.556779,-0.44098 1.067271,-0.80178 1.134428,-0.80178 0.06716,0 0.19581,0.78931 0.285895,1.75401 0.09008,0.96471 0.359548,2.73971 0.598805,3.94445 l 0.435015,2.19043 -0.891276,0.8103 c -0.490201,0.44567 -0.970706,0.81379 -1.067789,0.81806 -0.09708,0.004 -0.297283,-0.55779 -0.444889,-1.24902 z"
       id="path4736" />
    <path
       style="fill:#ffffff;stroke-width:0.264583"
       d="m 109.87727,153.56539 -3.10885,-0.0881 v -3.96035 -3.96035 l 3.50573,0.004 c 1.92815,0.002 3.66891,0.10742 3.86835,0.23376 0.29746,0.18844 0.32124,0.91284 0.13229,4.03085 -0.21457,3.54105 -0.26654,3.80206 -0.7595,3.81472 -0.29104,0.007 -1.92815,-0.0261 -3.63802,-0.0745 z"
       id="path4734" />
    <path
       style="fill:#ffffff;stroke-width:0.264583"
       d="m 90.097648,153.94084 c -0.0011,-0.0275 -0.232841,-1.77279 -0.514961,-3.87853 -0.282117,-2.10573 -0.48088,-3.86067 -0.441696,-3.89986 0.117113,-0.11711 7.155998,-0.58218 7.258593,-0.47959 0.139829,0.13983 0.674436,7.80662 0.551754,7.9127 -0.108667,0.094 -6.850118,0.43359 -6.85369,0.34528 z"
       id="path4732" />
    <path
       style="fill:#ffffff;stroke-width:0.264583"
       d="m 118.28047,153.96644 c -1.59926,-0.13562 -2.92432,-0.26762 -2.9446,-0.29335 -0.0203,-0.0257 0.0889,-1.80294 0.24266,-3.94938 l 0.27951,-3.9026 0.813,2.2e-4 c 0.96256,2.6e-4 6.58062,0.51982 6.67842,0.61762 0.0372,0.0372 -0.166,1.72566 -0.45151,3.75216 -0.28551,2.0265 -0.51912,3.77727 -0.51912,3.8906 0,0.23013 -0.0374,0.22908 -4.09836,-0.11527 z"
       id="path4730" />
    <path
       style="fill:#ffffff;stroke-width:0.264583"
       d="m 39.546615,151.84484 c -0.313568,-4.16899 -0.953513,-5.10715 -3.799729,-5.57038 -0.811542,-0.13208 -1.521704,-0.28632 -1.578138,-0.34276 -0.05644,-0.0564 0.577884,-0.17284 1.409598,-0.25868 2.85735,-0.2949 3.68063,-1.45844 3.970153,-5.611 l 0.202697,-2.90724 0.295741,3.08944 c 0.409786,4.28079 1.020561,5.09855 4.044116,5.41457 0.902653,0.0943 1.605801,0.20693 1.562547,0.25018 -0.04325,0.0433 -0.839417,0.20117 -1.769252,0.35091 -2.86689,0.4617 -3.507931,1.44015 -3.915334,5.97615 l -0.213873,2.38125 z"
       id="path4728" />
    <path
       style="fill:#ffffff;stroke-width:0.264583"
       d="m 58.767265,152.51675 c -0.593439,-2.63974 -0.840309,-6.19548 -0.475417,-6.84751 0.238168,-0.42558 0.300459,-0.34841 0.449189,0.55649 0.09497,0.57782 0.403627,2.31524 0.6859,3.86092 0.442667,2.42397 0.464519,2.92618 0.158941,3.65293 l -0.354285,0.8426 z"
       id="path4726" />
    <path
       style="fill:#ffffff;stroke-width:0.264583"
       d="m 82.308085,154.52146 c -0.188339,-0.53387 -1.175475,-5.78545 -1.262396,-6.71597 l -0.07415,-0.79375 3.307292,-0.41824 c 1.81901,-0.23003 3.396588,-0.37183 3.505729,-0.31512 0.10914,0.0567 0.204022,0.54259 0.210849,1.0797 0.0068,0.53711 0.225353,2.26775 0.485613,3.84586 0.327684,1.98691 0.38489,2.89562 0.186026,2.9549 -0.157945,0.0471 -1.120613,0.16126 -2.139259,0.25371 -1.018646,0.0924 -2.35575,0.23711 -2.97134,0.32149 -0.820692,0.11248 -1.153699,0.0558 -1.248367,-0.21258 z"
       id="path4724" />
    <path
       style="fill:#ffffff;stroke-width:0.264583"
       d="m 127.80279,154.91276 c -1.16417,-0.17929 -2.54331,-0.33372 -3.06476,-0.34319 -0.52145,-0.009 -1.00989,-0.079 -1.08544,-0.15456 -0.0755,-0.0755 0.0151,-1.01383 0.20136,-2.08508 0.18628,-1.07125 0.42223,-2.79538 0.52431,-3.8314 0.17189,-1.74436 0.2313,-1.88367 0.8034,-1.88367 1.27146,0 5.88968,0.60628 6.2326,0.81822 0.29252,0.18079 0.22354,0.87425 -0.38478,3.86822 -0.40765,2.00636 -0.82418,3.71308 -0.92561,3.79269 -0.10143,0.0796 -1.13691,-0.002 -2.30108,-0.18123 z"
       id="path4722" />
    <path
       style="fill:#ffffff;stroke-width:0.370618"
       d="m 167.23789,149.92136 c -0.13097,-0.71343 -0.34497,-3.13172 -0.47553,-5.37395 -0.41852,-7.18671 -2.04101,-9.12005 -8.11578,-9.67052 -3.27898,-0.29714 -3.02795,-0.68088 0.68285,-1.04382 5.50625,-0.53855 7.05756,-2.62504 7.49222,-10.07686 0.36442,-6.24788 0.73331,-6.62321 1.03578,-1.05389 0.32788,6.03693 0.65872,7.26741 2.43052,9.0392 1.45289,1.45289 3.69175,2.23583 6.43096,2.24893 2.58511,0.0126 2.09872,0.6346 -0.69388,0.88766 -4.12589,0.37388 -6.22272,1.64644 -7.38279,4.48063 -0.16688,0.40768 -0.49753,3.24291 -0.7348,6.30052 -0.29611,3.81574 -0.5061,5.15244 -0.66955,4.2621 z"
       id="path4720" />
    <path
       style="fill:#ffffff;stroke-width:0.264583"
       d="m 158.00823,150.78207 c -0.0734,-0.1819 -0.13346,-0.0331 -0.13346,0.33073 0,0.3638 0.0601,0.51263 0.13346,0.33073 0.0734,-0.1819 0.0734,-0.47956 0,-0.66146 z"
       id="path4716" />
    <path
       style="fill:#ffffff;stroke-width:0.264583"
       d="m 157.74915,152.12152 c -0.0845,-0.21107 -0.14715,-0.14837 -0.15985,0.15985 -0.0115,0.27892 0.0511,0.43519 0.13897,0.34727 0.0879,-0.0879 0.0973,-0.31612 0.0209,-0.50712 z"
       id="path4714" />
    <path
       style="fill:#ffffff;stroke-width:0.264583"
       d="m 157.48457,153.17985 c -0.0845,-0.21106 -0.14716,-0.14837 -0.15985,0.15986 -0.0115,0.27891 0.051,0.43518 0.13896,0.34726 0.0879,-0.0879 0.0973,-0.31612 0.0209,-0.50712 z"
       id="path4712" />
    <path
       style="fill:#ffffff;stroke-width:0.264583"
       d="m 156.98984,156.26686 c -0.0895,-0.0895 -0.0467,-0.58252 0.095,-1.09567 0.14169,-0.51316 0.2037,-0.98692 0.13781,-1.05282 -0.0659,-0.0659 -0.20035,0.20115 -0.29881,0.59342 l -0.179,0.71321 -0.63411,-0.93318 c -0.56383,-0.82974 -0.60249,-1.04673 -0.34876,-1.95766 0.15695,-0.56347 0.54241,-2.32908 0.85658,-3.92358 l 0.57122,-2.8991 0.63032,0.8852 c 0.53082,0.74547 0.62602,1.18222 0.60306,2.76681 -0.0275,1.89402 -1.13036,7.20627 -1.43326,6.90337 z"
       id="path4710" />
    <path
       style="fill:#ffffff;stroke-width:0.264583"
       d="m 69.745028,157.23236 c -0.46486,-0.86859 -2.15674,-6.73947 -2.034212,-7.05877 0.104865,-0.27328 3.816779,-1.44204 4.579824,-1.44204 0.153392,0 0.352031,0.45736 0.44142,1.01636 0.132096,0.8261 0.864219,3.5699 1.648584,6.17845 0.108763,0.3617 -0.237074,0.55547 -1.796581,1.00661 -1.062199,0.30728 -2.078284,0.60729 -2.257965,0.6667 -0.179681,0.0594 -0.441164,-0.10589 -0.58107,-0.36731 z"
       id="path4708" />
    <path
       style="fill:#ffffff;stroke-width:0.264583"
       d="m 140.94928,157.49609 c -2.16896,-0.61158 -2.44936,-0.7581 -2.34219,-1.22392 0.17275,-0.75087 1.84694,-7.13162 1.88986,-7.20272 0.0414,-0.0685 1.39281,0.28247 3.88828,1.00987 l 1.76578,0.51471 -0.50643,1.78074 c -0.6962,2.44799 -1.92838,5.88882 -2.09454,5.84892 -0.0753,-0.0181 -1.2456,-0.34549 -2.60076,-0.7276 z"
       id="path4706" />
    <path
       style="fill:#ffffff;stroke-width:0.264583"
       d="m 65.00964,157.26436 c -0.785204,-2.0463 -1.632889,-4.72113 -1.632889,-5.15249 0,-0.12528 0.74414,-0.58022 1.653646,-1.01096 1.512974,-0.71655 1.668957,-0.74373 1.833628,-0.3195 0.09899,0.25503 0.611907,1.8329 1.139815,3.50639 0.527904,1.67349 1.018542,3.18002 1.090305,3.34785 0.113676,0.26585 -2.482334,1.67923 -3.084303,1.67923 -0.117359,0 -0.567449,-0.92273 -1.000202,-2.05052 z"
       id="path4704" />
    <path
       style="fill:#ffffff;stroke-width:0.264583"
       d="m 62.628353,159.50903 c -0.436814,-1.05267 -1.060439,-2.74139 -1.385837,-3.75272 l -0.591632,-1.83878 1.017603,-0.87965 1.017601,-0.87965 0.964372,2.85072 c 0.530402,1.5679 1.146442,3.27439 1.368975,3.7922 l 0.404603,0.94147 -1.000738,0.84018 -1.000739,0.84017 z"
       id="path4702" />
    <path
       style="fill:#ffffff;stroke-width:0.264583"
       d="m 150.4392,161.29113 c -0.50132,-0.354 -1.01766,-0.67903 -1.14741,-0.72228 -0.12975,-0.0433 0.1765,-1.08722 0.68056,-2.31995 0.50406,-1.23272 1.12575,-2.89616 1.38153,-3.69652 0.25577,-0.80036 0.504,-1.50029 0.5516,-1.55539 0.0893,-0.1034 2.75252,1.54093 2.75252,1.6995 0,0.7279 -2.79484,7.27001 -3.09779,7.25125 -0.11523,-0.007 -0.61968,-0.30261 -1.12101,-0.65661 z"
       id="path4700" />
    <path
       style="fill:#ffffff;stroke-width:0.264583"
       d="m 99.245534,162.18688 c -0.153421,-0.4613 -0.679201,-5.56003 -0.679201,-6.58654 v -0.78338 h 3.414127 3.41412 l 0.18125,2.71198 c 0.0997,1.49159 0.14092,3.1744 0.0916,3.73958 l -0.0897,1.02759 -3.10652,0.12461 c -2.46204,0.0988 -3.13125,0.0503 -3.225736,-0.23384 z"
       id="path4696" />
    <path
       style="fill:#ffffff;stroke-width:0.264583"
       d="m 91.879937,162.58774 c -0.216575,-0.35043 -1.540055,-7.04085 -1.417122,-7.16379 0.223864,-0.22386 6.780601,-0.41227 6.780601,-0.19484 0,0.12538 0.187442,1.76182 0.416539,3.63651 0.229095,1.8747 0.377923,3.4458 0.330729,3.49133 -0.222871,0.21502 -5.985972,0.43268 -6.110747,0.23079 z"
       id="path4694" />
    <path
       style="fill:#ffffff;stroke-width:0.264583"
       d="m 116.49185,162.82238 c -2.03508,-0.0895 -2.0504,-0.0956 -2.03509,-0.80665 0.0288,-1.3352 0.67749,-6.65696 0.8301,-6.80958 0.13593,-0.13592 6.56764,0.3212 6.72436,0.47793 0.0355,0.0355 -0.24691,1.70034 -0.62749,3.69972 l -0.69197,3.63525 -1.07469,-0.0532 c -0.59109,-0.0293 -1.99743,-0.0938 -3.12522,-0.14342 z"
       id="path4692" />
    <path
       style="fill:#ffffff;stroke-width:0.264583"
       d="m 62.053834,162.96773 c 0,-0.17374 -0.491876,-1.57273 -1.093057,-3.10885 -1.106606,-2.82758 -1.390343,-4.51643 -0.849625,-5.05715 0.219438,-0.21944 0.41647,0.0716 0.755404,1.11595 0.252193,0.77706 0.85494,2.38275 1.33944,3.56822 0.778394,1.90457 0.844836,2.25095 0.57095,2.97656 -0.308544,0.81742 -0.723112,1.1071 -0.723112,0.50527 z"
       id="path4690" />
    <path
       style="fill:#ffffff;stroke-width:0.264583"
       d="m 84.808,163.41709 c 0,-0.0721 -0.473924,-1.70163 -1.053166,-3.62114 -0.579239,-1.91951 -1.025723,-3.51118 -0.992187,-3.53704 0.129455,-0.0998 4.899961,-0.6482 5.638935,-0.6482 H 89.1812 l 0.705448,3.24115 c 0.387996,1.78263 0.779269,3.43201 0.869498,3.66529 0.139581,0.36088 -0.233964,0.4694 -2.504657,0.7276 -2.97851,0.33869 -3.443489,0.36196 -3.443489,0.17234 z"
       id="path4688" />
    <path
       style="fill:#ffffff;stroke-width:0.264583"
       d="m 123.87518,163.48266 c -2.3981,-0.30892 -2.24051,0.28632 -1.22597,-4.63065 0.70656,-3.42437 0.24831,-3.14912 4.43627,-2.66465 l 2.72228,0.31491 -0.174,0.81107 c -0.0957,0.44609 -0.54689,2.06122 -1.00266,3.58919 l -0.82866,2.77813 -0.92587,0.0347 c -0.50922,0.0191 -1.85985,-0.0856 -3.00139,-0.23268 z"
       id="path4686" />
    <path
       style="fill:#ffffff;stroke-width:0.264583"
       d="m 77.967799,162.89838 c -0.933003,-2.22269 -2.160693,-5.43501 -2.07763,-5.43623 0.02986,-5.3e-4 1.291987,-0.24111 2.804729,-0.53481 1.512742,-0.2937 2.791187,-0.49325 2.840987,-0.44345 0.126987,0.12698 2.423226,7.1831 2.361935,7.25798 -0.02756,0.0337 -0.983276,0.23977 -2.123815,0.45799 -1.140542,0.21822 -2.276158,0.46102 -2.523591,0.53955 -0.354756,0.1126 -0.625954,-0.27668 -1.282615,-1.84103 z"
       id="path4684" />
    <path
       style="fill:#ffffff;stroke-width:0.264583"
       d="m 131.2944,164.60568 c -1.28107,-0.2575 -2.37653,-0.5155 -2.43435,-0.57331 -0.0578,-0.0578 0.36526,-1.5739 0.94017,-3.36907 0.5749,-1.79517 1.04528,-3.43626 1.04528,-3.64685 0,-0.23594 0.17772,-0.3349 0.46302,-0.25783 0.25466,0.0688 1.59411,0.33186 2.97656,0.58459 1.38245,0.25274 2.54669,0.48567 2.5872,0.51763 0.26851,0.21181 -2.70266,7.29381 -3.03915,7.24403 -0.11523,-0.017 -1.25766,-0.24168 -2.53873,-0.49919 z"
       id="path4682" />
    <path
       style="fill:#ffffff;stroke-width:0.264583"
       d="m 153.34678,165.19321 c -0.006,-0.33226 0.28438,-1.18838 0.64625,-1.90251 0.84443,-1.66641 2.2558,-5.21551 2.24133,-5.6362 -0.006,-0.17811 -0.4016,0.62866 -0.87885,1.79282 -0.47724,1.16417 -1.14221,2.68653 -1.47771,3.38302 l -0.61,1.26635 -0.59895,-0.86947 c -0.46191,-0.67054 -0.53771,-0.98509 -0.33131,-1.37475 0.14719,-0.2779 0.83168,-1.92551 1.52107,-3.66136 l 1.25344,-3.15608 0.54478,0.69258 c 1.04007,1.32224 1.00645,2.48346 -0.15578,5.38034 -0.57765,1.43981 -1.29605,3.08393 -1.59643,3.6536 -0.44952,0.8525 -0.54822,0.92888 -0.55784,0.43166 z"
       id="path4680" />
    <path
       style="fill:#ffffff;stroke-width:0.264583"
       d="m 72.123312,162.74467 c -0.949335,-1.97253 -1.569495,-3.5671 -1.437701,-3.69666 0.226155,-0.22234 4.11148,-1.37474 4.216718,-1.2507 0.02917,0.0344 0.671314,1.55079 1.426982,3.3698 0.755669,1.81901 1.427586,3.43046 1.49315,3.58098 0.06557,0.15053 -0.648949,0.47838 -1.587812,0.72855 -0.938861,0.25017 -1.872364,0.5183 -2.074445,0.59585 -0.25963,0.0996 -0.857208,-0.87668 -2.036892,-3.32782 z"
       id="path4678" />
    <path
       style="fill:#ffffff;stroke-width:0.264583"
       d="m 136.989,165.86426 c -1.05946,-0.30127 -1.89289,-0.63091 -1.85208,-0.73253 0.0408,-0.10163 0.66548,-1.66032 1.38815,-3.46376 0.72267,-1.80344 1.35268,-3.33353 1.40004,-3.4002 0.16754,-0.23589 5.0912,1.13968 5.08998,1.42203 -7.9e-4,0.15768 -0.70893,1.7452 -1.5739,3.52783 -1.17307,2.41762 -1.69376,3.23521 -2.04928,3.21777 -0.26214,-0.0129 -1.34345,-0.26988 -2.40291,-0.57114 z"
       id="path4676" />
    <path
       style="fill:#ffffff;stroke-width:0.264583"
       d="m 69.36823,166.24392 c -0.858917,-1.42665 -2.816479,-5.20495 -2.816479,-5.4361 0,-0.10254 2.81596,-1.49279 3.02365,-1.49279 0.120965,0 3.423327,6.66532 3.443922,6.95104 0.0081,0.11228 -0.606229,0.49185 -1.365165,0.84347 l -1.379881,0.63931 z"
       id="path4674" />
    <path
       style="fill:#ffffff;stroke-width:0.264583"
       d="m 142.2218,167.56532 -1.72058,-0.68537 1.61426,-3.18715 c 0.88784,-1.75293 1.66462,-3.34355 1.72618,-3.5347 0.0859,-0.26684 0.55615,-0.1829 2.02455,0.36138 1.05194,0.38992 1.91262,0.85044 1.91262,1.02338 0,0.31867 -3.27707,6.19633 -3.63953,6.52776 -0.10831,0.099 -0.97118,-0.12835 -1.9175,-0.5053 z"
       id="path4672" />
    <path
       style="fill:#ffffff;stroke-width:0.264583"
       d="m 145.58445,169.22272 c -0.54687,-0.37161 -0.94586,-0.75856 -0.88664,-0.8599 0.0592,-0.10134 0.5926,-0.98106 1.1853,-1.95495 0.59269,-0.97388 1.39507,-2.40263 1.78308,-3.175 0.38801,-0.77236 0.74441,-1.44764 0.79201,-1.50062 0.123,-0.13691 1.8452,0.95432 2.22125,1.40743 0.24965,0.30082 0.16372,0.64017 -0.41792,1.65045 -1.15422,2.00483 -3.27309,5.10823 -3.48768,5.10823 -0.1073,0 -0.64253,-0.30404 -1.1894,-0.67564 z"
       id="path4670" />
    <path
       style="fill:#ffffff;stroke-width:0.264583"
       d="m 100.29725,169.86688 c -0.442843,-2.50498 -0.873307,-5.93727 -0.759253,-6.05393 0.07113,-0.0728 1.482193,-0.17214 3.135693,-0.22084 l 3.00637,-0.0885 0.0812,3.46245 0.0812,3.46245 -1.32291,0.002 c -0.72761,0.001 -1.93968,0.0759 -2.69349,0.16649 l -1.37057,0.16466 -0.15815,-0.89456 z"
       id="path4668" />
    <path
       style="fill:#ffffff;stroke-width:0.264583"
       d="m 93.188738,167.61324 c -0.529328,-1.85312 -0.928508,-3.40322 -0.887066,-3.44466 0.04144,-0.0414 1.395196,-0.15551 3.008344,-0.25349 l 2.932999,-0.17813 0.156316,0.7656 c 0.386016,1.89061 1.008774,5.96393 0.923144,6.03809 -0.05208,0.0451 -1.236927,0.16298 -2.633003,0.26195 l -2.53832,0.17995 z"
       id="path4666" />
    <path
       style="fill:#ffffff;stroke-width:0.264583"
       d="m 115.68482,170.95051 c -1.13509,-0.10822 -2.13652,-0.26949 -2.2254,-0.35837 -0.13053,-0.13052 0.63655,-6.52202 0.80267,-6.68815 0.0931,-0.0931 5.80056,0.41499 5.91184,0.52627 0.12209,0.1221 -1.06858,4.99677 -1.49346,6.11428 -0.14151,0.37221 -0.40907,0.66009 -0.59457,0.63973 -0.1855,-0.0203 -1.26599,-0.12555 -2.40108,-0.23376 z"
       id="path4664" />
    <path
       style="fill:#ffffff;stroke-width:0.264583"
       d="m 147.69234,171.07008 -0.48336,-0.66373 1.57238,-2.43681 c 0.8648,-1.34024 1.76998,-2.82375 2.01151,-3.2967 0.24152,-0.47294 0.54145,-0.85989 0.66649,-0.85989 0.41024,0 1.12598,1.35568 0.95419,1.80731 -0.2273,0.59756 -3.93904,6.13214 -4.10555,6.12178 -0.0728,-0.005 -0.34981,-0.3069 -0.61566,-0.67196 z"
       id="path4662" />
    <path
       style="fill:#ffffff;stroke-width:0.264583"
       d="m 121.24413,171.48505 c -0.84237,-0.10782 -1.57546,-0.24103 -1.62908,-0.29604 -0.11142,-0.1143 1.65386,-6.35434 1.85432,-6.5548 0.15177,-0.15177 5.39031,0.39639 5.57755,0.58363 0.13626,0.13626 -1.46036,4.39644 -2.14088,5.71243 -0.46613,0.9014 -0.68935,0.93522 -3.66191,0.55478 z"
       id="path4660" />
    <path
       style="fill:#ffffff;stroke-width:0.264583"
       d="m 88.286313,171.3781 c -0.41775,-0.54511 -2.779403,-6.23559 -2.644052,-6.37094 0.208354,-0.20836 4.325037,-0.7206 4.990912,-0.62102 0.50111,0.0749 0.727355,0.52776 1.49824,2.99868 0.499398,1.60073 0.974817,3.11878 1.056484,3.37344 0.12556,0.39153 -0.02989,0.46545 -1.006851,0.47879 -0.635437,0.009 -1.72185,0.10901 -2.414254,0.22297 -0.83208,0.13694 -1.334037,0.10916 -1.480479,-0.0819 z"
       id="path4658" />
    <path
       style="fill:#ffffff;stroke-width:0.264583"
       d="m 64.964251,167.7817 c -0.15576,-0.29104 -0.342733,-0.52917 -0.415494,-0.52917 -0.07276,0 -0.0048,0.23813 0.150911,0.52917 0.15576,0.29104 0.342733,0.52916 0.415493,0.52916 0.07276,0 0.0048,-0.23812 -0.15091,-0.52916 z"
       id="path4656" />
    <path
       style="fill:#ffffff;stroke-width:0.264583"
       d="m 66.221022,170.72952 c -1.026441,-1.58793 -1.212348,-2.05679 -0.686724,-1.73193 0.190775,0.1179 0.23358,0.0725 0.114009,-0.12099 -0.105299,-0.17038 -0.292864,-0.24711 -0.416808,-0.17051 -0.239253,0.14787 -1.91061,-2.58016 -1.809475,-2.95347 0.03276,-0.12094 -0.02998,-0.48276 -0.139436,-0.80404 -0.119499,-0.35079 -0.05866,-0.85202 0.152279,-1.25462 l 0.351282,-0.67044 0.900588,1.65148 c 0.495321,0.90832 1.405988,2.41033 2.023698,3.33781 0.973851,1.46221 1.084929,1.77013 0.835789,2.31693 -0.276794,0.60749 -0.306961,0.61356 -0.823211,0.16576 -0.476671,-0.41348 -0.469593,-0.3694 0.06406,0.39891 0.329975,0.47506 0.560845,0.97767 0.513043,1.1169 -0.0478,0.13922 -0.533392,-0.43758 -1.079095,-1.28179 z"
       id="path4654" />
    <path
       style="fill:#ffffff;stroke-width:0.264583"
       d="m 81.846305,170.49368 c -1.517936,-2.57123 -2.400234,-4.31742 -2.254904,-4.46274 0.133226,-0.13323 4.037238,-0.89508 4.586719,-0.89508 0.210047,0 0.455668,0.20836 0.545825,0.46302 0.09016,0.25467 0.741995,1.70253 1.44853,3.21748 0.706535,1.51494 1.231773,2.80728 1.167196,2.87186 -0.102338,0.10234 -3.738628,0.85483 -4.134858,0.85566 -0.08139,1.8e-4 -0.692716,-0.92242 -1.358508,-2.0502 z"
       id="path4652" />
    <path
       style="fill:#ffffff;stroke-width:0.264583"
       d="m 148.308,172.85725 c 0,-0.30001 0.66725,-1.47545 1.48277,-2.61208 0.81552,-1.13663 1.77934,-2.57261 2.14181,-3.19108 0.78044,-1.33162 0.99854,-1.41976 0.77742,-0.31417 -0.16097,0.80483 -3.28271,5.73389 -4.01791,6.34405 -0.31461,0.26111 -0.38409,0.22009 -0.38409,-0.22672 z"
       id="path4648" />
    <path
       style="fill:#ffffff;stroke-width:0.264583"
       d="m 132.7545,173.6184 c -0.91458,-0.2615 -1.717,-0.52957 -1.78315,-0.59572 -0.0661,-0.0662 0.65238,-1.47436 1.59673,-3.12936 0.94435,-1.655 1.717,-3.09525 1.717,-3.20056 0,-0.18802 0.60185,-0.0605 3.3723,0.71461 l 1.38793,0.3883 -0.69402,1.11742 c -1.09835,1.76841 -3.60651,5.22034 -3.77801,5.19961 -0.0858,-0.0104 -0.9042,-0.2328 -1.81878,-0.4943 z"
       id="path4644" />
    <path
       style="fill:#ffffff;stroke-width:0.264583"
       d="m 74.035091,172.85708 c -1.009669,-1.26357 -2.098146,-2.67819 -2.418837,-3.14358 -0.655611,-0.95144 -0.686729,-0.91075 1.340197,-1.75262 l 0.980744,-0.40735 0.830641,1.34996 c 0.456853,0.74248 1.414502,2.12123 2.128112,3.06389 0.713608,0.94265 1.297469,1.7915 1.297469,1.88632 0,0.0948 -0.522578,0.42629 -1.161283,0.7366 l -1.161282,0.56419 z"
       id="path4642" />
    <path
       style="fill:#ffffff;stroke-width:0.264583"
       d="m 72.709351,175.10391 c -0.729184,-0.75308 -1.892123,-2.07684 -2.58431,-2.9417 l -1.258519,-1.57246 0.846087,-0.75598 0.846087,-0.75597 0.816067,1.13781 c 0.448837,0.6258 1.566141,2.042 2.482895,3.14711 l 1.666828,2.00931 -0.744673,0.55056 -0.744672,0.55056 z"
       id="path4638" />
    <path
       style="fill:#ffffff;stroke-width:0.264583"
       d="m 139.67496,176.40582 -0.82784,-0.59082 1.75388,-2.10924 c 0.96463,-1.16008 2.05617,-2.50735 2.42565,-2.99394 0.73067,-0.96228 1.15258,-0.96958 2.3574,-0.0408 l 0.64793,0.49947 -1.03644,1.28209 c -1.32837,1.64322 -4.13237,4.59624 -4.33625,4.56672 -0.0861,-0.0125 -0.52903,-0.28852 -0.98433,-0.61348 z"
       id="path4636" />
    <path
       style="fill:#ffffff;stroke-width:0.264583"
       d="m 106.93824,176.84353 c -0.0902,-0.54571 -0.16531,-1.91493 -0.16691,-3.04271 l -0.003,-2.05052 h 2.64583 c 3.05655,0 2.84093,-0.31761 2.24535,3.30729 -0.21519,1.30969 -0.39171,2.47055 -0.39226,2.57969 -5.3e-4,0.10914 -0.93793,0.19843 -2.08306,0.19843 h -2.08204 z"
       id="path4634" />
    <path
       style="fill:#ffffff;stroke-width:0.264583"
       d="m 101.26339,174.99144 c -0.32145,-1.56435 -0.58354,-2.93356 -0.58242,-3.04271 0.001,-0.10914 1.19265,-0.19843 2.64786,-0.19843 h 2.64584 v 2.21588 c 0,1.21874 0.0744,2.58796 0.16536,3.04271 l 0.16537,0.82682 h -2.22878 -2.22877 z"
       id="path4632" />
    <path
       style="fill:#ffffff;stroke-width:0.264583"
       d="m 71.521644,176.28347 c -2.839045,-3.06651 -3.45495,-3.94348 -3.274491,-4.66249 0.09172,-0.36544 0.253791,-0.66075 0.360159,-0.65625 0.106368,0.005 0.584584,0.52768 1.062701,1.16262 0.478118,0.63495 1.58812,1.93891 2.466668,2.89769 1.220375,1.33183 1.557388,1.86921 1.427973,2.27696 -0.09317,0.29354 -0.267611,0.53371 -0.387649,0.53371 -0.120042,0 -0.864952,-0.69851 -1.655361,-1.55224 z"
       id="path4630" />
    <path
       style="fill:#ffffff;stroke-width:0.264583"
       d="m 96.56236,177.10811 c -0.768193,-1.79943 -1.957011,-4.92475 -1.894178,-4.97967 0.03393,-0.0297 1.176623,-0.0971 2.539315,-0.14989 l 2.477621,-0.096 0.718572,2.94676 0.71857,2.94676 -1.182602,0.16209 c -2.539698,0.34811 -2.913541,0.25622 -3.377298,-0.83009 z"
       id="path4628" />
    <path
       style="fill:#ffffff;stroke-width:0.264583"
       d="m 113.84602,178.16595 c -2.06552,-0.10389 -1.96201,0.17819 -1.28622,-3.50524 l 0.46115,-2.51354 2.44501,0.0371 c 1.34475,0.0204 2.49848,0.0906 2.56384,0.15591 0.19949,0.1995 -1.85014,5.85518 -2.13326,5.88643 -0.14552,0.0161 -1.06825,-0.0112 -2.05052,-0.0606 z"
       id="path4626" />
    <path
       style="fill:#ffffff;stroke-width:0.264583"
       d="m 90.985029,176.3241 c -2.028833,-3.47148 -2.02269,-3.45647 -1.480476,-3.61673 0.254553,-0.0752 1.307666,-0.21586 2.340252,-0.31251 l 1.877431,-0.17573 0.454861,1.15465 c 0.250171,0.63505 0.822637,1.95983 1.272146,2.94395 0.449508,0.98412 0.769196,1.83183 0.710419,1.88379 -0.05878,0.052 -0.941409,0.17389 -1.961398,0.27095 l -1.854529,0.17648 z"
       id="path4624" />
    <path
       style="fill:#ffffff;stroke-width:0.264583"
       d="m 119.733,178.75077 c -0.21828,-0.0481 -0.94436,-0.15923 -1.61351,-0.24685 l -1.21663,-0.1593 1.09875,-2.91969 c 0.60431,-1.60583 1.18265,-2.92323 1.2852,-2.92755 0.85175,-0.0359 4.44371,0.40846 4.53823,0.5614 0.19869,0.32149 -2.90903,5.70002 -3.31734,5.74132 -0.2078,0.021 -0.55642,-10e-4 -0.7747,-0.0493 z"
       id="path4622" />
    <path
       style="fill:#ffffff;stroke-width:0.264583"
       d="m 87.684722,178.70887 c -0.910714,-0.98195 -3.670472,-4.65659 -3.670472,-4.88726 0,-0.0999 0.68461,-0.31375 1.521354,-0.47532 0.836745,-0.16157 1.761734,-0.34396 2.055532,-0.40533 0.417878,-0.0873 0.701122,0.18861 1.300978,1.26719 0.42174,0.75831 1.223158,2.05683 1.780926,2.88559 0.557771,0.82876 1.014127,1.55769 1.014127,1.61983 0,0.0621 -0.506016,0.19344 -1.124479,0.29175 -0.618464,0.0983 -1.364443,0.2385 -1.657734,0.31151 -0.357309,0.089 -0.759918,-0.11164 -1.220232,-0.60796 z"
       id="path4620" />
    <path
       style="fill:#ffffff;stroke-width:0.264583"
       d="m 71.800216,177.63743 c -1.921528,-1.96234 -3.660965,-4.16914 -3.660965,-4.64462 0,-0.16753 0.382667,0.16901 0.850373,0.74788 0.467704,0.57885 1.639898,1.8859 2.604876,2.90455 1.437793,1.51776 2.353969,2.77812 2.019456,2.77812 -0.03572,0 -0.8519,-0.80367 -1.81374,-1.78593 z"
       id="path4618" />
    <path
       style="fill:#ffffff;stroke-width:0.264583"
       d="m 123.30487,179.34924 c -0.87312,-0.14197 -1.63012,-0.29545 -1.68222,-0.34107 -0.0521,-0.0456 0.32141,-0.77453 0.83003,-1.61981 0.50862,-0.84528 1.2342,-2.15473 1.61241,-2.90989 0.76642,-1.53032 0.65557,-1.50882 3.94848,-0.76553 l 1.26911,0.28647 -1.31107,1.85208 c -0.72109,1.01864 -1.70891,2.28043 -2.19515,2.80398 l -0.88409,0.95189 z"
       id="path4616" />
    <path
       style="fill:#ffffff;stroke-width:0.264583"
       d="m 84.137739,179.47057 c -1.391242,-1.26725 -4.092239,-4.25603 -4.092239,-4.52825 0,-0.25096 1.36271,-0.71382 2.557397,-0.86865 0.447058,-0.0579 1.064556,0.53642 2.809126,2.70386 l 2.236105,2.77813 -1.089335,0.32671 c -1.455706,0.43659 -1.497454,0.42949 -2.421054,-0.4118 z"
       id="path4614" />
    <path
       style="fill:#ffffff;stroke-width:0.264583"
       d="m 126.87675,180.14522 c -0.50932,-0.15536 -0.96744,-0.31358 -1.01803,-0.35161 -0.0506,-0.038 0.55028,-0.88103 1.33527,-1.87334 0.78498,-0.99231 1.71055,-2.22092 2.05682,-2.73024 0.34627,-0.50932 0.65745,-0.96496 0.69151,-1.01254 0.0916,-0.12796 3.38014,0.79442 3.63605,1.01986 0.12064,0.10627 -0.53271,1.01131 -1.45188,2.01118 -3.29579,3.58519 -3.23504,3.55121 -5.24974,2.93669 z"
       id="path4612" />
    <path
       style="fill:#ffffff;stroke-width:0.264583"
       d="m 141.84433,180.4817 c 0.12801,-0.21828 0.19625,-0.61835 0.15164,-0.88904 -0.0541,-0.32831 0.80692,-1.39457 2.58629,-3.20279 1.46708,-1.49084 2.6674,-2.80784 2.6674,-2.92667 0,-0.11882 -1.10132,0.93703 -2.44739,2.34635 -1.34607,1.40931 -2.56758,2.56083 -2.71448,2.55893 -0.1469,-0.002 -0.42284,-0.25285 -0.6132,-0.55766 -0.31609,-0.50614 -0.21208,-0.69549 1.19901,-2.18282 0.84982,-0.89573 2.03499,-2.21056 2.63371,-2.92186 l 1.08858,-1.29326 0.43898,0.66996 c 0.24144,0.36849 0.5064,1.08543 0.5888,1.59321 0.13973,0.86106 0.007,1.08125 -1.96537,3.26913 -2.21312,2.4545 -4.01148,4.21432 -3.61397,3.53652 z"
       id="path4610" />
    <path
       style="fill:#ffffff;stroke-width:0.264583"
       d="m 81.44377,180.4334 c -0.550767,-0.46312 -1.805156,-1.62087 -2.787531,-2.57279 l -1.786138,-1.73075 0.860097,-0.45883 c 0.473051,-0.25236 1.026845,-0.46382 1.230651,-0.46992 0.203806,-0.006 1.517907,1.18959 2.920222,2.65708 l 2.549665,2.66818 -0.72427,0.37453 c -0.997405,0.51578 -1.124575,0.48951 -2.262696,-0.4675 z"
       id="path4608" />
    <path
       style="fill:#ffffff;stroke-width:0.264583"
       d="m 130.51625,181.31617 c -0.54489,-0.24068 -0.96161,-0.51334 -0.92605,-0.60589 0.0356,-0.0926 1.16974,-1.32137 2.52038,-2.73069 l 2.45571,-2.5624 1.19095,0.45483 c 0.65503,0.25015 1.24463,0.54166 1.31022,0.6478 0.16073,0.26006 -5.12418,5.34784 -5.46314,5.25937 -0.0536,-0.014 -0.54318,-0.22234 -1.08807,-0.46302 z"
       id="path4606" />
    <path
       style="fill:#ffffff;stroke-width:0.264583"
       d="m 79.117406,180.97507 c -1.163037,-0.88698 -2.567213,-2.04545 -3.12039,-2.57439 l -1.005777,-0.9617 0.73216,-0.58465 0.732163,-0.58465 1.861114,1.7848 c 1.023615,0.98164 2.33436,2.16716 2.912771,2.63449 1.048565,0.84721 1.050116,0.85125 0.527116,1.37425 -0.522999,0.523 -0.530756,0.5198 -2.639157,-1.08815 z"
       id="path4604" />
    <path
       style="fill:#ffffff;stroke-width:0.264583"
       d="m 132.74103,182.37578 -0.618,-0.47539 2.2055,-1.87522 c 1.21303,-1.03137 2.4893,-2.17885 2.83616,-2.54996 0.59157,-0.63292 0.67661,-0.65096 1.37228,-0.29122 1.49201,0.77155 1.39607,0.91451 -2.74682,4.09317 -1.13674,0.87218 -2.14877,1.58313 -2.24896,1.57989 -0.10018,-0.003 -0.46025,-0.21981 -0.80016,-0.48127 z"
       id="path4602" />
    <path
       style="fill:#ffffff;stroke-width:0.264583"
       d="m 44.781152,187.98157 c -0.241043,-4.39618 -0.558905,-5.86718 -1.499242,-6.93817 -0.976212,-1.11184 -1.775077,-1.43701 -4.51842,-1.83916 l -2.207609,-0.32361 1.719792,-0.19803 c 2.58672,-0.29785 3.617201,-0.6384 4.634457,-1.53156 1.226273,-1.07668 1.640282,-2.63895 1.867742,-7.04799 0.09974,-1.93344 0.211037,-3.48125 0.247311,-3.43959 0.03628,0.0417 0.205743,1.8617 0.376589,4.04451 0.478388,6.11211 1.30066,7.26566 5.584092,7.83387 1.231323,0.16333 2.272051,0.32644 2.312731,0.36246 0.04068,0.036 -0.963226,0.19938 -2.230906,0.36302 -4.395504,0.5674 -5.176681,1.65088 -5.656042,7.84482 -0.168934,2.18281 -0.3398,4.0028 -0.379707,4.04443 -0.0399,0.0416 -0.152759,-1.38713 -0.250788,-3.175 z"
       id="path4600" />
    <path
       style="fill:#ffffff;stroke-width:0.264583"
       d="m 78.720068,182.40695 c -3.60203,-2.52188 -4.723564,-3.72557 -4.07529,-4.37384 0.215434,-0.21544 6.194472,4.62272 6.194472,5.01248 0,0.66258 -0.457604,0.52468 -2.119182,-0.63864 z"
       id="path4598" />
    <path
       style="fill:#ffffff;stroke-width:0.264583"
       d="m 134.03899,183.54667 c -0.25239,-0.30411 -0.0798,-0.53362 0.91754,-1.21977 0.67563,-0.46485 2.0687,-1.54896 3.09572,-2.40914 1.77136,-1.48361 1.89248,-1.54118 2.35736,-1.12047 0.26953,0.24392 0.49006,0.52446 0.49006,0.62342 0,0.17777 -3.95773,3.17364 -5.34851,4.04865 -0.87315,0.54934 -1.11036,0.56147 -1.51217,0.0773 z"
       id="path4596" />
    <path
       style="fill:#ffffff;stroke-width:0.264583"
       d="m 107.033,181.42093 v -2.52674 h 1.99636 1.99637 l -0.17587,0.99218 c -0.0967,0.54571 -0.31941,1.64704 -0.49485,2.4474 l -0.31898,1.45521 -1.50151,0.0794 -1.50152,0.0794 z"
       id="path4594" />
    <path
       style="fill:#ffffff;stroke-width:0.264583"
       d="m 103.46725,183.59054 c -0.38516,-1.16274 -1.19675,-4.14267 -1.19675,-4.39415 0,-0.19968 0.67316,-0.3022 1.98437,-0.3022 h 1.98438 l 0.002,0.7276 c 0.001,0.40018 0.0778,1.53128 0.17055,2.51354 l 0.16867,1.78594 h -1.50177 c -0.9666,0 -1.54081,-0.11786 -1.61133,-0.33073 z"
       id="path4592" />
    <path
       style="fill:#ffffff;stroke-width:0.264583"
       d="m 110.6991,184.0596 c -0.11928,-0.11929 0.96658,-4.87975 1.14491,-5.01933 0.27709,-0.21687 3.65599,0.22657 3.65781,0.48005 0.001,0.16495 -0.43437,1.28217 -0.9679,2.48272 l -0.97004,2.18281 h -1.36926 c -0.75309,0 -1.42607,-0.0568 -1.49552,-0.12625 z"
       id="path4590" />
    <path
       style="fill:#ffffff;stroke-width:0.264583"
       d="m 99.550483,183.06137 c -0.3595,-0.61846 -0.960684,-1.73486 -1.335966,-2.48088 l -0.682334,-1.35641 0.980096,-0.16203 c 0.539051,-0.0891 1.400624,-0.16335 1.914601,-0.16495 l 0.93451,-0.003 0.81831,2.4843 0.81831,2.48429 -0.95907,0.15863 c -1.63037,0.26965 -1.8151,0.19839 -2.488457,-0.96003 z"
       id="path4588" />
    <path
       style="fill:#ffffff;stroke-width:0.264583"
       d="m 115.01994,184.52047 c -0.62765,-0.0562 -1.10166,-0.18417 -1.05336,-0.2845 0.0483,-0.10032 0.62136,-1.23645 1.27347,-2.52473 l 1.18566,-2.34232 1.71098,0.17275 c 0.94105,0.095 1.76526,0.22702 1.83159,0.29335 0.12046,0.12047 -1.90723,3.15896 -2.85932,4.28469 -0.27692,0.32742 -0.60347,0.57451 -0.72566,0.54908 -0.1222,-0.0254 -0.73571,-0.0922 -1.36336,-0.14832 z"
       id="path4584" />
    <path
       style="fill:#ffffff;stroke-width:0.264583"
       d="m 118.41008,185.00245 c -0.50932,-0.0946 -0.89885,-0.30936 -0.86562,-0.47716 0.13155,-0.66426 3.35413,-4.57124 3.7508,-4.54737 0.23216,0.014 1.00521,0.1628 1.71789,0.33073 l 1.29578,0.30533 -2.32713,2.3151 c -1.27992,1.27331 -2.39881,2.29943 -2.4864,2.28028 -0.0876,-0.0192 -0.57599,-0.11227 -1.08532,-0.20691 z"
       id="path4582" />
    <path
       style="fill:#ffffff;stroke-width:0.264583"
       d="m 78.854875,183.75607 c -2.762919,-2.02862 -4.365624,-3.49745 -4.365624,-4.00094 0,-0.19502 0.803671,0.28653 1.785937,1.07011 0.982266,0.78357 2.342552,1.80031 3.022857,2.25941 0.680307,0.4591 1.415322,1.19234 1.633368,1.62942 0.218045,0.43709 0.375806,0.79373 0.35058,0.79255 -0.02521,-0.001 -1.11743,-0.78893 -2.427118,-1.75055 z"
       id="path4580" />
    <path
       style="fill:#ffffff;stroke-width:0.264583"
       d="m 89.965843,184.30863 c -2.494129,-1.78946 -3.834908,-2.85747 -3.834918,-3.05476 -6e-6,-0.0846 0.565536,-0.28328 1.256755,-0.44145 l 1.256765,-0.28759 1.587505,1.50719 c 0.873131,0.82895 2.036101,1.87018 2.584379,2.31385 l 0.996873,0.80666 -0.935426,0.28709 c -0.895019,0.27469 -1.020805,0.22583 -2.911933,-1.13099 z"
       id="path4576" />
    <path
       style="fill:#ffffff;stroke-width:0.264583"
       d="m 134.25976,185.82066 c 0.15945,-0.29792 0.29082,-0.75787 0.29194,-1.0221 10e-4,-0.2801 0.43224,-0.72604 1.03379,-1.0695 0.56746,-0.32399 1.98351,-1.30626 3.14678,-2.18281 1.16327,-0.87655 2.18016,-1.59373 2.25975,-1.59373 0.24008,0 -0.40286,1.68625 -0.83229,2.18281 -0.45832,0.52998 -0.9744,0.62915 -0.68847,0.13229 0.11058,-0.19215 0.0894,-0.23834 -0.0505,-0.11024 -0.13247,0.12127 -0.24086,0.35152 -0.24086,0.51167 0,0.26951 -2.46641,2.07262 -4.38671,3.20696 -0.81739,0.48285 -0.82122,0.48245 -0.5334,-0.0554 z"
       id="path4574" />
    <path
       style="fill:#ffffff;stroke-width:0.264583"
       d="m 89.041333,185.72476 c -0.509322,-0.31284 -1.923314,-1.22135 -3.142202,-2.01891 -2.168855,-1.41914 -2.202741,-1.45754 -1.5875,-1.79861 0.969158,-0.53727 1.27888,-0.45321 2.861151,0.77649 0.809422,0.62907 2.066989,1.54133 2.794593,2.02726 0.727604,0.48592 1.379,0.9302 1.447546,0.9873 0.185502,0.15449 -0.593487,0.59615 -1.050671,0.59568 -0.218281,-2.2e-4 -0.813594,-0.25637 -1.322917,-0.56921 z"
       id="path4572" />
    <path
       style="fill:#ffffff;stroke-width:0.264583"
       d="m 123.20206,186.28067 c -0.60899,-0.24365 -0.57531,-0.29243 0.92604,-1.34081 0.85691,-0.59838 2.1304,-1.56541 2.82996,-2.14897 1.23902,-1.03354 1.29894,-1.05291 2.3151,-0.74846 0.57375,0.1719 1.04317,0.41931 1.04317,0.5498 0,0.24611 -3.72696,2.77732 -5.21238,3.54005 -0.95771,0.49176 -1.02964,0.49737 -1.90189,0.14839 z"
       id="path4570" />
    <path
       style="fill:#ffffff;stroke-width:0.264583"
       d="m 107.29758,187.92691 c 0,-0.41625 -0.0757,-1.30922 -0.16825,-1.98438 l -0.16826,-1.22755 h 1.35888 c 0.76812,0 1.35888,0.12014 1.35888,0.27635 0,0.152 -0.19307,1.04497 -0.42904,1.98438 -0.40342,1.60601 -0.47453,1.70802 -1.19062,1.70802 -0.66156,0 -0.76159,-0.0994 -0.76159,-0.75682 z"
       id="path4568" />
    <path
       style="fill:#ffffff;stroke-width:0.264583"
       d="m 105.03512,187.75769 c -0.21085,-0.50932 -0.56196,-1.3573 -0.78025,-1.8844 -0.21828,-0.52709 -0.39687,-1.00334 -0.39687,-1.05833 0,-0.055 0.58992,-0.1 1.31093,-0.1 1.45477,0 1.4566,0.003 1.66377,2.84427 0.0785,1.07712 0.0505,1.12448 -0.66611,1.12448 -0.60555,0 -0.82114,-0.17645 -1.13147,-0.92604 z"
       id="path4566" />
    <path
       style="fill:#ffffff;stroke-width:0.264583"
       d="m 83.749667,185.65033 c 0,-0.0676 -0.267891,-0.2528 -0.595313,-0.41147 -0.571666,-0.27703 -0.57491,-0.27214 -0.08172,0.12298 0.539818,0.43249 0.677034,0.49095 0.677033,0.28849 z"
       id="path4564" />
    <path
       style="fill:#ffffff;stroke-width:0.264583"
       d="m 87.18925,188.05243 c -2.186395,-0.91489 -4.869561,-2.30887 -5.089178,-2.64397 -0.275876,-0.42095 -0.249246,-1.75181 0.03505,-1.75181 0.130646,0 0.993849,0.45931 1.918229,1.02069 1.902076,1.15514 4.337973,2.42075 4.648454,2.41517 0.113977,-0.002 -0.685737,-0.48783 -1.777143,-1.07951 -1.091406,-0.59167 -2.554489,-1.43878 -3.251298,-1.88245 -1.198062,-0.76283 -1.243169,-0.83292 -0.829905,-1.28957 0.419166,-0.46318 0.514138,-0.43144 2.325256,0.77706 1.038532,0.69297 2.483551,1.59789 3.211155,2.01092 1.707306,0.96916 1.668587,0.92147 1.090991,1.34382 -0.272624,0.19934 -0.495678,0.66586 -0.495678,1.0367 0,0.80761 0.03918,0.80667 -1.785938,0.043 z"
       id="path4562" />
    <path
       style="fill:#ffffff;stroke-width:0.264583"
       d="m 109.59326,188.76219 c -0.26535,-0.0686 -0.42949,-0.26316 -0.36477,-0.43233 0.0647,-0.16917 0.33334,-0.9922 0.59692,-1.82894 l 0.47923,-1.52136 h 1.3029 c 1.05702,0 1.27379,0.0759 1.14859,0.40214 -0.26458,0.6895 -2.29329,3.56824 -2.49184,3.53592 -0.10372,-0.0169 -0.40568,-0.0868 -0.67103,-0.15543 z"
       id="path4560" />
    <path
       style="fill:#ffffff;stroke-width:0.264583"
       d="m 103.11872,188.04909 c -1.02434,-1.09611 -2.27015,-2.79465 -2.14189,-2.92026 0.0567,-0.0555 0.6054,-0.14155 1.21939,-0.19123 l 1.11634,-0.0903 0.91117,1.89179 0.91117,1.89178 -0.62466,0.11941 c -0.45123,0.0863 -0.83758,-0.10841 -1.39152,-0.70116 z"
       id="path4558" />
    <path
       style="fill:#ffffff;stroke-width:0.264583"
       d="m 101.3081,188.353 c -1.29001,-0.9592 -3.361979,-2.84212 -3.245679,-2.94954 0.05887,-0.0544 0.583287,-0.17121 1.16537,-0.25965 1.006239,-0.15287 1.100419,-0.10551 1.913299,0.96197 0.47023,0.61751 1.1701,1.5097 1.55526,1.98264 l 0.7003,0.85989 h -0.64396 c -0.35418,0 -1.00425,-0.26789 -1.44459,-0.59531 z"
       id="path4556" />
    <path
       style="fill:#ffffff;stroke-width:0.264583"
       d="m 100.15383,189.08991 c 0,-0.0676 -0.267888,-0.2528 -0.595309,-0.41147 -0.571667,-0.27703 -0.574911,-0.27214 -0.08172,0.12298 0.539819,0.43249 0.677029,0.49096 0.677029,0.28849 z"
       id="path4554" />
    <path
       style="fill:#ffffff;stroke-width:0.264583"
       d="m 96.280542,189.08291 c -1.289431,-0.46262 -2.880198,-1.11656 -3.535042,-1.45321 -1.093192,-0.56199 -1.14517,-0.63237 -0.635143,-0.86007 0.437663,-0.19538 1.067882,0.009 2.971276,0.9653 1.328685,0.66731 2.50747,1.20726 2.619518,1.19989 0.112048,-0.007 -0.867839,-0.56183 -2.177526,-1.23214 l -2.38125,-1.21875 0.785294,-0.32604 c 0.725358,-0.30116 0.897003,-0.25057 2.248958,0.66278 1.580539,1.06779 2.654289,1.67954 2.654289,1.51224 0,-0.0576 -0.785823,-0.61297 -1.746273,-1.2341 -1.269847,-0.82123 -1.648817,-1.1911 -1.389063,-1.35571 0.862373,-0.54649 1.854385,-0.2288 3.351496,1.07332 0.826997,0.71929 1.801284,1.54876 2.165094,1.84328 l 0.66145,0.53549 -0.66145,0.0204 c -0.36381,0.0112 -1.09476,0.17522 -1.624336,0.36442 -0.88409,0.31586 -1.154703,0.27518 -3.307292,-0.49712 z"
       id="path4552" />
    <path
       style="fill:#ffffff;stroke-width:0.264583"
       d="m 125.41317,189.96586 c 0.63094,-0.4963 0.70387,-0.69856 0.56499,-1.56703 -0.15081,-0.94313 -0.11285,-1.0127 0.7003,-1.28363 0.47286,-0.15755 1.98955,-0.93162 3.37042,-1.72014 1.83747,-1.04926 2.60013,-1.35945 2.84427,-1.15683 0.57051,0.47348 0.39233,0.65909 -1.63399,1.7022 -1.08218,0.55708 -1.92437,1.0561 -1.87154,1.10894 0.0528,0.0528 0.94159,-0.34826 1.97502,-0.89131 1.03343,-0.54305 1.93566,-0.93066 2.00497,-0.86135 0.0693,0.0693 -0.0559,0.49074 -0.27831,0.93652 -0.44135,0.88471 -3.17263,2.45659 -6.3402,3.64886 -2.12178,0.79864 -2.25539,0.80702 -1.33593,0.0838 z"
       id="path4550" />
    <path
       style="fill:#ffffff;stroke-width:0.264583"
       d="m 122.11425,187.88988 c 0.50932,-0.27884 0.80698,-0.50699 0.66146,-0.50699 -0.14552,0 -0.6813,0.22815 -1.19063,0.50699 -0.50932,0.27884 -0.80698,0.50699 -0.66146,0.50699 0.14552,0 0.68131,-0.22815 1.19063,-0.50699 z"
       id="path4548" />
    <path
       style="fill:#ffffff;stroke-width:0.264583"
       d="m 116.9067,190.98286 c -0.35897,-0.60353 -1.46772,-1.19956 -2.9254,-1.57261 l -1.37903,-0.35292 1.94926,-1.76543 c 1.93673,-1.75409 1.95668,-1.76416 3.10234,-1.56636 l 1.15309,0.19908 -1.88893,1.31336 c -1.03892,0.72235 -2.11048,1.46862 -2.38125,1.65839 -0.27078,0.18977 0.10299,0.0189 0.83059,-0.37973 0.72761,-0.39861 1.87307,-1.11953 2.54547,-1.60203 0.98875,-0.70951 1.38088,-0.84561 2.05052,-0.71168 0.45538,0.0911 0.82797,0.26849 0.82797,0.39425 0,0.12576 -1.04179,0.7597 -2.3151,1.40875 -1.27331,0.64905 -2.22343,1.18611 -2.11138,1.19348 0.11205,0.007 1.28846,-0.5314 2.61424,-1.19725 1.80371,-0.90588 2.58498,-1.16778 3.10357,-1.04041 0.9285,0.22805 1.93365,0.89779 1.76266,1.17447 -0.0758,0.12269 0.0691,0.20676 0.32217,0.18681 0.28989,-0.0229 0.49134,0.18375 0.54467,0.55861 0.10007,0.70356 -0.38139,0.92896 -3.52395,1.64975 -3.47322,0.79662 -4.04063,0.85646 -4.28151,0.45147 z"
       id="path4546" />
    <path
       style="fill:#ffffff;stroke-width:0.264583"
       d="m 98.30175,192.26565 c -5.343311,-1.01721 -7.9375,-2.25547 -7.9375,-3.78874 0,-0.51566 0.09207,-0.60238 0.463021,-0.43613 1.133943,0.5082 6.329238,2.22243 6.746875,2.22619 0.282456,0.003 0.46302,0.20689 0.46302,0.52402 0,0.52831 0.556155,0.95166 1.984374,1.51053 1.00248,0.39228 0.47102,0.38119 -1.71979,-0.0359 z"
       id="path4544" />
    <path
       style="fill:#ffffff;stroke-width:0.264583"
       d="m 114.59672,192.68847 c 0.44926,-0.11893 0.97496,-0.31395 1.16821,-0.43339 0.19325,-0.11943 1.84973,-0.48325 3.68107,-0.80847 1.83134,-0.32523 3.56783,-0.68075 3.85887,-0.79005 0.39642,-0.14887 0.45786,-0.12097 0.24492,0.11123 -0.39495,0.43068 -6.01472,1.81783 -8.07316,1.99273 -1.11866,0.095 -1.41845,0.0705 -0.87991,-0.0721 z"
       id="path4542" />
    <path
       style="fill:#ffffff;stroke-width:0.264583"
       d="m 106.2172,192.21869 c 0.22983,-0.19904 -1.45701,-0.0477 -1.96233,0.17602 -0.35334,0.15645 -0.13355,0.182 0.66146,0.0769 0.65485,-0.0866 1.24024,-0.20039 1.30087,-0.2529 z"
       id="path4540" />
    <path
       style="fill:#ffffff;stroke-width:0.264583"
       d="m 102.72239,192.61499 c -2.16006,-0.50822 -3.097724,-0.88982 -3.097724,-1.26068 0,-0.12161 0.506014,-0.13142 1.124484,-0.0218 0.61846,0.10962 1.89838,0.26519 2.84427,0.34572 2.06217,0.17556 0.99219,-0.14695 -2.10084,-0.63322 -1.834211,-0.28837 -1.924482,-0.33257 -1.32291,-0.6477 0.35509,-0.18601 1.39245,-0.48511 2.30524,-0.66466 1.51821,-0.29864 1.70945,-0.28397 2.2444,0.17216 0.40093,0.34185 0.48011,0.36276 0.25186,0.0665 -0.27216,-0.35325 -0.26154,-0.45952 0.0582,-0.58221 0.23411,-0.0898 0.61442,0.13673 0.9474,0.56442 0.40904,0.52536 0.48239,0.56151 0.2771,0.13657 -0.38086,-0.78837 -0.35739,-0.87729 0.23158,-0.87729 0.31932,0 0.55374,0.22314 0.62543,0.59532 l 0.11466,0.59531 0.036,-0.59531 c 0.0442,-0.7307 1.0827,-0.85388 1.11525,-0.13229 0.0125,0.2766 0.0746,0.32986 0.15434,0.13229 0.0734,-0.1819 0.43964,-0.33073 0.81387,-0.33073 0.67801,0 0.67864,0.002 0.17828,0.59531 -0.47485,0.56297 -0.46362,0.56133 0.20674,-0.0303 l 0.70888,-0.62562 1.99153,0.44307 c 1.09534,0.24369 2.26081,0.66113 2.58993,0.92764 0.59307,0.48024 0.57723,0.48611 -1.77625,0.65921 -3.62649,0.26671 -4.85045,0.69646 -1.53669,0.53954 1.47953,-0.0701 2.89805,-0.2072 3.15226,-0.30475 0.31034,-0.11909 0.40074,-0.0779 0.27514,0.12531 -0.74973,1.21309 -8.53658,1.72011 -12.41244,0.8082 z"
       id="path4538" />
    <path
       style="fill:#ffffff;stroke-width:0.138104"
       d="m 169.76094,173.16071 c -0.0439,-0.11394 -0.1522,-1.31475 -0.24068,-2.66847 -0.16765,-2.56509 -0.26396,-3.04559 -0.75809,-3.78254 -0.6683,-0.99671 -1.41899,-1.34155 -3.42918,-1.57521 -0.81022,-0.0942 -1.45297,-0.1914 -1.42833,-0.21604 0.0246,-0.0246 0.73788,-0.13621 1.58498,-0.24794 1.64212,-0.21658 2.34691,-0.48716 2.9431,-1.12989 0.80123,-0.86377 0.97927,-1.64645 1.16523,-5.12249 0.0538,-1.00643 0.14219,-1.82987 0.19634,-1.82987 0.0541,0 0.14189,0.78172 0.19497,1.73715 0.1999,3.5979 0.36926,4.35411 1.16802,5.21521 0.59619,0.64273 1.30098,0.91331 2.94309,1.12989 0.8471,0.11173 1.56035,0.2233 1.58498,0.24794 0.0246,0.0246 -0.62253,0.1222 -1.43816,0.21681 -1.9455,0.22567 -2.62941,0.53673 -3.37404,1.53457 -0.52951,0.70957 -0.65365,1.31272 -0.85272,4.14311 -0.0988,1.40521 -0.21561,2.4617 -0.25951,2.34777 z"
       id="path1463" />
    <path
       style="fill:#ffffff;stroke:none;stroke-width:0.264583px;stroke-linecap:butt;stroke-linejoin:miter;stroke-opacity:1;fill-opacity:1"
       d="m 110.89272,188.86907 2.51444,-3.80864 2.77328,0.44373 -3.91957,3.5005 z"
       id="path1695" />
    <path
       style="fill:#ffffff;stroke:none;stroke-width:0.264583px;stroke-linecap:butt;stroke-linejoin:miter;stroke-opacity:1;fill-opacity:1"
       d="m 124.9174,186.55547 c 0,0 0.31376,0.52293 0.83669,0.47064 0.52294,-0.0523 6.50183,-2.71926 6.37981,-3.1899 -0.12202,-0.47064 -0.88899,-1.18532 -1.27247,-0.99358 -0.38349,0.19174 -5.94403,3.71284 -5.94403,3.71284 z"
       id="path1846" />
    <path
       style="fill:#ffffff;stroke:none;stroke-width:0.264583px;stroke-linecap:butt;stroke-linejoin:miter;stroke-opacity:1;fill-opacity:1"
       d="m 92.791756,179.80961 -3.155042,0.54036 4.549536,4.54954 c 0,0 2.231189,-0.0697 2.039446,-0.34863 -0.191744,-0.27889 -3.43394,-4.74127 -3.43394,-4.74127 z"
       id="path2029" />
    <path
       style="fill:#ffffff;stroke:none;stroke-width:0.264583px;stroke-linecap:butt;stroke-linejoin:miter;stroke-opacity:1;fill-opacity:1"
       d="m 107.05943,163.66302 -0.14791,6.55727 5.12749,0.19721 0.8628,-6.82843 z"
       id="path2180" />
    <path
       style="fill:#ffffff;stroke:none;stroke-width:0.264583px;stroke-linecap:butt;stroke-linejoin:miter;stroke-opacity:1;fill-opacity:1"
       d="m 98.212849,145.71424 0.348623,7.46054 6.519258,-0.10458 -0.17431,-7.49541 z"
       id="path2182" />
    <path
       style="fill:#ffffff;stroke:none;stroke-width:0.264583px;stroke-linecap:butt;stroke-linejoin:miter;stroke-opacity:1;fill-opacity:1"
       d="m 107.34678,136.1271 -0.31376,7.59999 7.07705,0.20917 0.52294,-7.70457 z"
       id="path2186" />
    <path
       style="fill:#ffffff;stroke:none;stroke-width:0.264583px;stroke-linecap:butt;stroke-linejoin:miter;stroke-opacity:1;fill-opacity:1"
       d="m 131.71555,155.1968 5.43853,0.97614 2.09174,-7.32109 c 0,0 -5.85687,-1.39449 -5.99632,-1.08073 -0.13945,0.31376 -1.53395,7.42568 -1.53395,7.42568 z"
       id="path2188" />
    <path
       style="fill:#ffffff;stroke:none;stroke-width:0.264583px;stroke-linecap:butt;stroke-linejoin:miter;stroke-opacity:1;fill-opacity:1"
       d="m 147.31515,151.23872 -2.85956,7.34611 c 0,0 3.37724,1.627 3.47585,1.35583 0.0986,-0.27117 2.88421,-7.32146 2.88421,-7.32146 z"
       id="path2190" />
    <path
       style="fill:#ffffff;stroke:none;stroke-width:0.264583px;stroke-linecap:butt;stroke-linejoin:miter;stroke-opacity:1;fill-opacity:1"
       d="m 154.11894,144.04051 c 0,0 -0.29582,3.64841 -0.41907,4.3633 -0.12326,0.71489 -0.91211,3.03212 -0.91211,3.03212 0,0 1.50374,1.52839 1.6763,1.28187 0.17256,-0.24651 1.97211,-7.37076 1.97211,-7.37076 z"
       id="path2192" />
    <path
       style="fill:#ffffff;stroke:none;stroke-width:0.264583px;stroke-linecap:butt;stroke-linejoin:miter;stroke-opacity:1;fill-opacity:1"
       d="m 155.21277,126.95831 -2.37064,-1.81284 1.42935,7.87888 2.33578,1.67339 z"
       id="path2194" />
    <path
       style="fill:#ffffff;stroke:none;stroke-width:0.264583px;stroke-linecap:butt;stroke-linejoin:miter;stroke-opacity:1;fill-opacity:1"
       d="m 132.51739,111.75833 1.2899,6.62384 5.36881,1.25505 -1.35964,-6.51926 -5.29907,-1.46422 z"
       id="path2196" />
    <path
       style="fill:#ffffff;stroke:none;stroke-width:0.264583px;stroke-linecap:butt;stroke-linejoin:miter;stroke-opacity:1;fill-opacity:1"
       d="m 107.52109,117.78951 -0.15688,7.30366 7.42568,0.22661 0.24404,-7.42568 z"
       id="path2200" />
    <path
       style="fill:#ffffff;stroke:none;stroke-width:0.264583px;stroke-linecap:butt;stroke-linejoin:miter;stroke-opacity:1;fill-opacity:1"
       d="m 68.196378,122.60052 -1.115594,6.62384 3.765131,-1.08073 1.359631,-6.93761 z"
       id="path2202" />
    <path
       style="fill:#ffffff;stroke:none;stroke-width:0.264583px;stroke-linecap:butt;stroke-linejoin:miter;stroke-opacity:1;fill-opacity:1"
       d="m 66.174363,161.33257 -1.603668,1.42936 c 0,0 2.405501,5.71742 3.207334,5.99632 0.801833,0.2789 1.568805,-0.73211 1.568805,-0.73211 z"
       id="path2319" />
    <path
       style="fill:#ffffff;stroke:none;stroke-width:0.264583px;stroke-linecap:butt;stroke-linejoin:miter;stroke-opacity:1;fill-opacity:1"
       d="m 82.901061,99.988469 c 0,0 1.836529,-1.885832 2.847237,-2.280254 1.010706,-0.394422 2.637697,-1.084661 2.070717,-0.702565 -0.566981,0.382097 -2.98282,2.428163 -3.303286,2.6377 -0.320469,0.209536 -1.614668,0.345119 -1.614668,0.345119 z"
       id="path2470" />
  </g>
</svg>
